<?xml version="1.0" encoding="UTF-8"?>
<svg height="200.0" version="1.1" width="110.0" xmlns="http://www.w3.org/2000/svg" xmlns:xlink="http://www.w3.org/1999/xlink">
 <path d="M0,0 l110,0 l0,200 l-110,0 Z M0,0" fill="rgb(255,255,255)" transform="matrix(1,0,0,-1,0.0,200.0)"/>
 <path d="M0,0 l110,0" fill="none" stroke="rgb(229,229,229)" stroke-width="2" transform="matrix(1,0,0,-1,0.0,135.0)"/>
 <path d="M0,1 l0,-5" fill="none" stroke="rgb(204,204,204)" stroke-width="2" transform="matrix(1,0,0,-1,5.0,135.0)"/>
 <path d="M0,1 l0,-5" fill="none" stroke="rgb(204,204,204)" stroke-width="2" transform="matrix(1,0,0,-1,103.0,135.0)"/>
 <path d="M51,142 c34,-32,93,-67,168,-67 c111,0,179,73,179,163 c0,11,-1,21,-3,30 c23,-11,50,-18,83,-18 c32,0,56,8,73,16 l0,-266 l58,0 l0,582 l210,0 l0,-582 l58,0 l0,582 l125,0 l0,52 l-566,0 l0,-52 l115,0 l0,-256 c-19,-11,-47,-22,-88,-22 c-47,0,-81,13,-104,28 c-18,18,-39,29,-59,34 l0,4 c28,14,70,57,70,120 c0,79,-54,144,-151,144 c-62,0,-107,-26,-133,-58 l44,-39 c16,22,44,42,87,42 c57,0,92,-36,92,-91 c0,-64,-47,-102,-109,-102 l-30,0 l0,-54 l54,0 c73,0,114,-35,114,-94 c0,-59,-39,-109,-119,-109 c-62,0,-104,30,-128,56 Z M51,142" fill="rgb(0,0,0)" transform="matrix(0.1,0.0,0.0,-0.1,5.0,135.0)"/>
</svg>