<?xml version="1.0" encoding="UTF-8"?>
<svg height="200.0" version="1.1" width="60.0" xmlns="http://www.w3.org/2000/svg" xmlns:xlink="http://www.w3.org/1999/xlink">
 <path d="M0,0 l60,0 l0,200 l-60,0 Z M0,0" fill="rgb(255,255,255)" transform="matrix(1,0,0,-1,0.0,200.0)"/>
 <path d="M0,0 l60,0" fill="none" stroke="rgb(229,229,229)" stroke-width="2" transform="matrix(1,0,0,-1,0.0,135.0)"/>
 <path d="M0,1 l0,-5" fill="none" stroke="rgb(204,204,204)" stroke-width="2" transform="matrix(1,0,0,-1,7.0,135.0)"/>
 <path d="M0,1 l0,-5" fill="none" stroke="rgb(204,204,204)" stroke-width="2" transform="matrix(1,0,0,-1,54.0,135.0)"/>
 <path d="M-3,147 c26,-48,94,-118,204,-118 c123,0,194,77,194,171 c0,80,-55,129,-110,142 l0,4 c44,16,83,64,83,124 c0,63,-37,96,-55,106 l0,6 l173,0 l0,52 l-506,0 l0,-52 l187,0 c92,0,139,-33,139,-112 c0,-74,-57,-105,-111,-105 l-55,0 l0,-54 l64,0 c84,0,129,-44,129,-109 c0,-67,-47,-118,-132,-118 c-72,0,-125,44,-154,97 Z M-3,147" fill="rgb(0,0,0)" transform="matrix(0.1,0.0,0.0,-0.1,7.0,135.0)"/>
</svg>