<?xml version="1.0" encoding="UTF-8"?>
<svg height="200.0" version="1.1" width="80.0" xmlns="http://www.w3.org/2000/svg" xmlns:xlink="http://www.w3.org/1999/xlink">
 <path d="M0,0 l80,0 l0,200 l-80,0 Z M0,0" fill="rgb(255,255,255)" transform="matrix(1,0,0,-1,0.0,200.0)"/>
 <path d="M0,0 l80,0" fill="none" stroke="rgb(229,229,229)" stroke-width="2" transform="matrix(1,0,0,-1,0.0,135.0)"/>
 <path d="M0,1 l0,-5" fill="none" stroke="rgb(204,204,204)" stroke-width="2" transform="matrix(1,0,0,-1,7.0,135.0)"/>
 <path d="M0,1 l0,-5" fill="none" stroke="rgb(204,204,204)" stroke-width="2" transform="matrix(1,0,0,-1,73.0,135.0)"/>
 <path d="M486,58 c63,7,156,59,156,167 c0,88,-66,147,-147,147 c-70,0,-114,-43,-130,-83 c-19,26,-47,45,-80,53 l0,4 c44,16,83,64,83,124 c0,63,-37,96,-55,106 l0,6 l365,0 l0,52 l-698,0 l0,-52 l187,0 c92,0,139,-33,139,-112 c0,-74,-57,-105,-111,-105 l-55,0 l0,-54 l64,0 c84,0,130,-44,130,-109 c0,-67,-47,-118,-133,-118 c-72,0,-125,44,-154,97 l-50,-34 c26,-48,94,-118,204,-118 c124,0,193,78,193,171 c0,2,0,4,0,6 c-2,69,42,112,100,112 c45,0,88,-33,88,-93 c0,-72,-59,-108,-115,-111 Z M486,58" fill="rgb(0,0,0)" transform="matrix(0.1,0.0,0.0,-0.1,7.0,135.0)"/>
</svg>