<?xml version="1.0" encoding="UTF-8"?>
<svg height="200.0" version="1.1" width="94.0" xmlns="http://www.w3.org/2000/svg" xmlns:xlink="http://www.w3.org/1999/xlink">
 <path d="M0,0 l94,0 l0,200 l-94,0 Z M0,0" fill="rgb(255,255,255)" transform="matrix(1,0,0,-1,0.0,200.0)"/>
 <path d="M0,0 l94,0" fill="none" stroke="rgb(229,229,229)" stroke-width="2" transform="matrix(1,0,0,-1,0.0,135.0)"/>
 <path d="M0,1 l0,-5" fill="none" stroke="rgb(204,204,204)" stroke-width="2" transform="matrix(1,0,0,-1,7.0,135.0)"/>
 <path d="M0,1 l0,-5" fill="none" stroke="rgb(204,204,204)" stroke-width="2" transform="matrix(1,0,0,-1,87.0,135.0)"/>
 <path d="M634,495 l0,9 l-55,0 l0,-10 c0,-38,-12,-70,-87,-116 l-67,-41 l0,245 l397,0 l0,52 l-842,0 l0,-52 l390,0 l0,-265 l-4,0 c-34,80,-94,133,-191,133 c-70,0,-122,-31,-151,-57 l43,-44 c29,27,67,45,110,45 c60,0,120,-35,150,-118 l-264,-163 l42,-41 l266,177 l0,-249 l54,0 l0,276 l93,57 c17,11,32,21,45,32 c18,-20,46,-36,84,-38 l0,-4 c-91,-71,-118,-112,-118,-163 c0,-67,51,-119,141,-119 c61,0,107,29,129,49 l-30,43 c-17,-17,-54,-40,-99,-40 c-55,0,-83,30,-83,65 c0,43,26,76,143,167 l-21,47 l-33,0 c-36,0,-59,12,-74,32 c22,28,32,58,32,91 Z M634,495" fill="rgb(0,0,0)" transform="matrix(0.1,0.0,0.0,-0.1,7.0,135.0)"/>
</svg>