<?xml version="1.0" encoding="UTF-8"?>
<svg height="200.0" version="1.1" width="94.0" xmlns="http://www.w3.org/2000/svg" xmlns:xlink="http://www.w3.org/1999/xlink">
 <path d="M0,0 l94,0 l0,200 l-94,0 Z M0,0" fill="rgb(255,255,255)" transform="matrix(1,0,0,-1,0.0,200.0)"/>
 <path d="M0,0 l94,0" fill="none" stroke="rgb(229,229,229)" stroke-width="2" transform="matrix(1,0,0,-1,0.0,135.0)"/>
 <path d="M0,1 l0,-5" fill="none" stroke="rgb(204,204,204)" stroke-width="2" transform="matrix(1,0,0,-1,7.0,135.0)"/>
 <path d="M0,1 l0,-5" fill="none" stroke="rgb(204,204,204)" stroke-width="2" transform="matrix(1,0,0,-1,87.0,135.0)"/>
 <path d="M425,0 l0,276 l77,47 c17,-28,61,-35,92,-34 l1,-3 c-45,-20,-74,-50,-74,-86 c0,-48,36,-70,76,-71 l1,-3 c-25,-13,-43,-38,-43,-66 c0,-58,51,-85,116,-85 c40,0,91,14,123,39 l-27,37 c-24,-18,-59,-32,-100,-32 c-38,0,-60,16,-60,44 c0,39,51,54,104,69 l-13,39 c-18,-4,-43,-11,-67,-11 c-33,0,-58,8,-58,40 c0,25,21,45,98,82 l-21,45 l-39,0 c-27,0,-50,10,-63,26 c60,43,86,88,86,142 l0,9 l-55,0 l0,-10 c0,-38,-12,-70,-87,-116 l-67,-41 l0,245 l397,0 l0,52 l-842,0 l0,-52 l390,0 l0,-265 l-4,0 c-34,80,-94,133,-191,133 c-70,0,-122,-31,-151,-57 l43,-44 c29,27,67,45,110,45 c60,0,120,-35,150,-118 l-264,-163 l42,-41 l266,177 l0,-249 Z M425,0" fill="rgb(0,0,0)" transform="matrix(0.1,0.0,0.0,-0.1,7.0,135.0)"/>
</svg>