<?xml version="1.0" encoding="UTF-8"?>
<svg height="200.0" version="1.1" width="86.0" xmlns="http://www.w3.org/2000/svg" xmlns:xlink="http://www.w3.org/1999/xlink">
 <path d="M0,0 l86,0 l0,200 l-86,0 Z M0,0" fill="rgb(255,255,255)" transform="matrix(1,0,0,-1,0.0,200.0)"/>
 <path d="M0,0 l86,0" fill="none" stroke="rgb(229,229,229)" stroke-width="2" transform="matrix(1,0,0,-1,0.0,135.0)"/>
 <path d="M0,1 l0,-5" fill="none" stroke="rgb(204,204,204)" stroke-width="2" transform="matrix(1,0,0,-1,7.0,135.0)"/>
 <path d="M0,1 l0,-5" fill="none" stroke="rgb(204,204,204)" stroke-width="2" transform="matrix(1,0,0,-1,78.0,135.0)"/>
 <path d="M721,-16 l-24,50 c-28,-20,-73,-34,-115,-34 c-56,0,-96,24,-96,69 c0,82,140,116,140,239 c0,68,-40,123,-110,138 l0,136 l215,0 l0,52 l-751,0 l0,-52 l478,0 l0,-132 c-52,-5,-100,-39,-114,-86 l-4,0 c-16,48,-53,81,-122,81 c-79,0,-154,-63,-154,-175 c0,-127,82,-226,173,-274 l39,44 c-100,50,-151,132,-151,229 c0,83,44,121,97,121 c55,0,90,-35,90,-104 l0,-85 l58,0 l0,86 c0,72,47,107,105,107 c57,0,87,-33,87,-84 c0,-100,-138,-136,-138,-240 c0,-83,74,-123,160,-123 c54,0,104,14,137,37 Z M721,-16" fill="rgb(0,0,0)" transform="matrix(0.1,0.0,0.0,-0.1,7.0,135.0)"/>
</svg>