<?xml version="1.0" encoding="UTF-8"?>
<svg height="200.0" version="1.1" width="86.0" xmlns="http://www.w3.org/2000/svg" xmlns:xlink="http://www.w3.org/1999/xlink">
 <path d="M0,0 l86,0 l0,200 l-86,0 Z M0,0" fill="rgb(255,255,255)" transform="matrix(1,0,0,-1,0.0,200.0)"/>
 <path d="M0,0 l86,0" fill="none" stroke="rgb(229,229,229)" stroke-width="2" transform="matrix(1,0,0,-1,0.0,135.0)"/>
 <path d="M0,1 l0,-5" fill="none" stroke="rgb(204,204,204)" stroke-width="2" transform="matrix(1,0,0,-1,7.0,135.0)"/>
 <path d="M0,1 l0,-5" fill="none" stroke="rgb(204,204,204)" stroke-width="2" transform="matrix(1,0,0,-1,78.0,135.0)"/>
 <path d="M740,-62 l-29,40 c-26,-20,-65,-35,-109,-35 c-42,0,-65,18,-65,48 c0,43,55,59,113,76 l-15,42 c-20,-7,-46,-12,-70,-12 c-37,0,-63,14,-63,42 c0,56,113,88,113,183 c0,59,-33,108,-99,124 l0,136 l215,0 l0,52 l-751,0 l0,-52 l478,0 l0,-132 c-52,-4,-100,-39,-114,-86 l-4,0 c-16,48,-53,81,-122,81 c-79,0,-154,-63,-154,-175 c0,-127,82,-226,173,-274 l39,44 c-100,50,-151,132,-151,229 c0,83,44,121,97,121 c55,0,90,-35,90,-104 l0,-85 l58,0 l0,86 c0,74,53,108,104,108 c44,0,80,-27,80,-67 c0,-76,-113,-110,-113,-187 c0,-55,41,-78,84,-78 l1,-3 c-27,-14,-46,-43,-46,-73 c0,-62,53,-92,126,-92 c44,0,99,15,134,43 Z M740,-62" fill="rgb(0,0,0)" transform="matrix(0.1,0.0,0.0,-0.1,7.0,135.0)"/>
</svg>