<?xml version="1.0" encoding="UTF-8"?>
<svg height="200.0" version="1.1" width="52.0" xmlns="http://www.w3.org/2000/svg" xmlns:xlink="http://www.w3.org/1999/xlink">
 <path d="M0,0 l52,0 l0,200 l-52,0 Z M0,0" fill="rgb(255,255,255)" transform="matrix(1,0,0,-1,0.0,200.0)"/>
 <path d="M0,0 l52,0" fill="none" stroke="rgb(229,229,229)" stroke-width="2" transform="matrix(1,0,0,-1,0.0,135.0)"/>
 <path d="M0,-4 l0,8" fill="none" stroke="rgb(255,76,25)" stroke-width="2" transform="matrix(1,0,0,-1,34.0,135.0)"/>
 <path d="M136,-254 c-25,116,-115,264,-267,264 c-90,0,-159,-59,-159,-141 c0,-74,55,-136,140,-136 c12,0,34,1,51,8 l0,56 c-16,-6,-28,-9,-49,-9 c-51,0,-80,38,-80,81 c0,50,40,86,96,86 c100,0,183,-95,211,-225 Z M136,-254" fill="rgb(0,0,0)" transform="matrix(0.1,0.0,0.0,-0.1,34.0,135.0)"/>
</svg>