<?xml version="1.0" encoding="UTF-8"?>
<svg height="200.0" version="1.1" width="68.0" xmlns="http://www.w3.org/2000/svg" xmlns:xlink="http://www.w3.org/1999/xlink">
 <path d="M0,0 l68,0 l0,200 l-68,0 Z M0,0" fill="rgb(255,255,255)" transform="matrix(1,0,0,-1,0.0,200.0)"/>
 <path d="M0,0 l68,0" fill="none" stroke="rgb(229,229,229)" stroke-width="2" transform="matrix(1,0,0,-1,0.0,135.0)"/>
 <path d="M0,-4 l0,8" fill="none" stroke="rgb(255,76,25)" stroke-width="2" transform="matrix(1,0,0,-1,44.0,135.0)"/>
 <path d="M-67,-378 c0,-63,48,-108,137,-108 c43,0,86,12,117,37 l-25,45 c-31,-22,-61,-32,-92,-32 c-55,0,-78,20,-78,58 c0,69,110,107,110,199 c0,61,-47,119,-124,119 c-68,0,-101,-38,-113,-69 l-4,0 c-11,34,-48,69,-110,69 c-77,0,-140,-56,-140,-154 c0,-87,49,-151,96,-182 l40,41 c-41,31,-75,75,-75,140 c0,64,34,100,81,100 c51,0,82,-30,82,-99 l0,-28 l56,0 l0,28 c0,72,40,99,85,99 c42,0,70,-23,70,-66 c0,-63,-113,-111,-113,-197 Z M-67,-378" fill="rgb(0,0,0)" transform="matrix(0.1,0.0,0.0,-0.1,44.0,135.0)"/>
</svg>