<?xml version="1.0" encoding="UTF-8"?>
<svg height="200.0" version="1.1" width="74.0" xmlns="http://www.w3.org/2000/svg" xmlns:xlink="http://www.w3.org/1999/xlink">
 <path d="M0,0 l74,0 l0,200 l-74,0 Z M0,0" fill="rgb(255,255,255)" transform="matrix(1,0,0,-1,0.0,200.0)"/>
 <path d="M0,0 l74,0" fill="none" stroke="rgb(229,229,229)" stroke-width="2" transform="matrix(1,0,0,-1,0.0,135.0)"/>
 <path d="M0,-4 l0,8" fill="none" stroke="rgb(255,76,25)" stroke-width="2" transform="matrix(1,0,0,-1,44.0,135.0)"/>
 <path d="M129,-455 c-44,0,-70,13,-70,41 c0,41,41,55,97,65 l-11,42 c-13,-3,-36,-7,-54,-7 c-36,0,-58,10,-58,33 c0,42,60,62,59,120 c0,59,-45,101,-114,101 c-66,0,-102,-41,-113,-69 l-4,0 c-11,34,-48,69,-110,69 c-77,0,-140,-56,-140,-154 c0,-87,49,-151,96,-182 l40,41 c-41,31,-75,75,-75,140 c0,64,34,100,81,100 c51,0,82,-30,82,-99 l0,-28 l56,0 l0,28 c0,63,41,99,85,99 c34,0,56,-19,56,-50 c0,-36,-53,-61,-53,-113 c0,-43,31,-66,67,-67 l0,-3 c-30,-14,-42,-37,-42,-66 c0,-52,45,-88,124,-88 c45,0,81,9,120,35 l-24,42 c-25,-17,-62,-30,-95,-30 Z M129,-455" fill="rgb(0,0,0)" transform="matrix(0.1,0.0,0.0,-0.1,44.0,135.0)"/>
</svg>