<?xml version="1.0" encoding="UTF-8"?>
<svg height="200.0" version="1.1" width="58.0" xmlns="http://www.w3.org/2000/svg" xmlns:xlink="http://www.w3.org/1999/xlink">
 <path d="M0,0 l58,0 l0,200 l-58,0 Z M0,0" fill="rgb(255,255,255)" transform="matrix(1,0,0,-1,0.0,200.0)"/>
 <path d="M0,0 l58,0" fill="none" stroke="rgb(229,229,229)" stroke-width="2" transform="matrix(1,0,0,-1,0.0,135.0)"/>
 <path d="M0,-4 l0,8" fill="none" stroke="rgb(255,76,25)" stroke-width="2" transform="matrix(1,0,0,-1,52.0,135.0)"/>
 <path d="M-276,-170 c148,0,196,33,196,33 l-11,43 c-63,-14,-121,-21,-185,-21 c-64,0,-122,7,-185,21 l-11,-43 c0,0,58,-33,196,-33 Z M-276,-311 c148,0,196,33,196,33 l-11,43 c-63,-14,-121,-21,-185,-21 c-64,0,-122,7,-185,21 l-11,-43 c0,0,58,-33,196,-33 Z M-276,-311" fill="rgb(0,0,0)" transform="matrix(0.1,0.0,0.0,-0.1,52.0,135.0)"/>
</svg>