<?xml version="1.0" encoding="UTF-8"?>
<svg height="200.0" version="1.1" width="46.0" xmlns="http://www.w3.org/2000/svg" xmlns:xlink="http://www.w3.org/1999/xlink">
 <path d="M0,0 l46,0 l0,200 l-46,0 Z M0,0" fill="rgb(255,255,255)" transform="matrix(1,0,0,-1,0.0,200.0)"/>
 <path d="M0,0 l46,0" fill="none" stroke="rgb(229,229,229)" stroke-width="2" transform="matrix(1,0,0,-1,0.0,135.0)"/>
 <path d="M0,-4 l0,8" fill="none" stroke="rgb(255,76,25)" stroke-width="2" transform="matrix(1,0,0,-1,36.0,135.0)"/>
 <path d="M-133,798 c95,0,148,49,177,103 l-41,23 c-23,-40,-69,-76,-136,-76 c-67,0,-113,36,-136,76 l-42,-23 c29,-54,83,-103,178,-103 Z M31,702 l0,47 l-328,0 l0,-47 Z M31,702" fill="rgb(0,0,0)" transform="matrix(0.1,0.0,0.0,-0.1,36.0,135.0)"/>
</svg>