<?xml version="1.0" encoding="UTF-8"?>
<svg height="200.0" version="1.1" width="68.0" xmlns="http://www.w3.org/2000/svg" xmlns:xlink="http://www.w3.org/1999/xlink">
 <path d="M0,0 l68,0 l0,200 l-68,0 Z M0,0" fill="rgb(255,255,255)" transform="matrix(1,0,0,-1,0.0,200.0)"/>
 <path d="M0,0 l68,0" fill="none" stroke="rgb(229,229,229)" stroke-width="2" transform="matrix(1,0,0,-1,0.0,135.0)"/>
 <path d="M0,1 l0,-5" fill="none" stroke="rgb(204,204,204)" stroke-width="2" transform="matrix(1,0,0,-1,7.0,135.0)"/>
 <path d="M0,1 l0,-5" fill="none" stroke="rgb(204,204,204)" stroke-width="2" transform="matrix(1,0,0,-1,61.0,135.0)"/>
 <path d="M240,271 c-37,10,-70,46,-70,86 c0,36,16,62,75,62 l180,0 l0,163 l131,0 l0,52 l-576,0 l0,-52 l388,0 l0,-110 l-150,0 c-67,0,-109,-44,-109,-104 c0,-77,59,-135,119,-154 l161,32 c22,-17,31,-41,31,-69 c0,-67,-55,-107,-130,-107 c-91,0,-161,59,-203,143 l-48,-34 c56,-101,144,-162,251,-162 c115,0,190,72,190,160 c0,58,-32,107,-69,128 Z M240,271" fill="rgb(0,0,0)" transform="matrix(0.1,0.0,0.0,-0.1,7.0,135.0)"/>
</svg>