<?xml version="1.0" encoding="UTF-8"?>
<svg height="200.0" version="1.1" width="82.0" xmlns="http://www.w3.org/2000/svg" xmlns:xlink="http://www.w3.org/1999/xlink">
 <path d="M0,0 l82,0 l0,200 l-82,0 Z M0,0" fill="rgb(255,255,255)" transform="matrix(1,0,0,-1,0.0,200.0)"/>
 <path d="M0,0 l82,0" fill="none" stroke="rgb(229,229,229)" stroke-width="2" transform="matrix(1,0,0,-1,0.0,135.0)"/>
 <path d="M0,1 l0,-5" fill="none" stroke="rgb(204,204,204)" stroke-width="2" transform="matrix(1,0,0,-1,7.0,135.0)"/>
 <path d="M0,1 l0,-5" fill="none" stroke="rgb(204,204,204)" stroke-width="2" transform="matrix(1,0,0,-1,74.0,135.0)"/>
 <path d="M305,47 c182,0,308,145,308,284 c0,68,-36,124,-94,143 l0,108 l173,0 l0,52 l-712,0 l0,-52 l157,0 l0,-4 c-16,-12,-54,-41,-54,-108 c0,-59,38,-107,96,-123 l0,-4 c-42,-16,-83,-56,-83,-124 c0,-90,74,-172,209,-172 Z M478,294 c-45,5,-70,32,-70,70 c0,39,30,64,67,64 c44,0,79,-35,79,-97 c0,-127,-115,-229,-249,-229 c-97,0,-147,54,-147,119 c0,62,44,99,113,99 l24,0 l0,54 l-37,0 c-71,0,-113,40,-113,99 c0,68,52,109,121,109 l197,0 l0,-101 c-67,-5,-113,-56,-113,-117 c0,-54,34,-99,92,-111 Z M296,-69 c0,-24,17,-41,41,-41 c24,0,41,17,41,41 c0,24,-17,41,-41,41 c-24,0,-41,-17,-41,-41 Z M296,-69" fill="rgb(0,0,0)" transform="matrix(0.1,0.0,0.0,-0.1,7.0,135.0)"/>
</svg>