<?xml version="1.0" encoding="UTF-8"?>
<svg height="200.0" version="1.1" width="82.0" xmlns="http://www.w3.org/2000/svg" xmlns:xlink="http://www.w3.org/1999/xlink">
 <path d="M0,0 l82,0 l0,200 l-82,0 Z M0,0" fill="rgb(255,255,255)" transform="matrix(1,0,0,-1,0.0,200.0)"/>
 <path d="M0,0 l82,0" fill="none" stroke="rgb(229,229,229)" stroke-width="2" transform="matrix(1,0,0,-1,0.0,135.0)"/>
 <path d="M0,1 l0,-5" fill="none" stroke="rgb(204,204,204)" stroke-width="2" transform="matrix(1,0,0,-1,7.0,135.0)"/>
 <path d="M0,1 l0,-5" fill="none" stroke="rgb(204,204,204)" stroke-width="2" transform="matrix(1,0,0,-1,76.0,135.0)"/>
 <path d="M145,401 c19,11,44,20,77,20 c70,0,120,-44,120,-121 c0,-84,-62,-131,-130,-131 c-83,0,-128,50,-157,94 l-43,-38 c30,-49,96,-111,199,-111 c106,0,184,70,191,171 c26,-7,55,-10,84,-10 c13,0,25,0,36,2 l0,-277 l58,0 l0,582 l125,0 l0,52 l-725,0 l0,-52 l542,0 l0,-247 c-17,-3,-34,-4,-51,-4 c-24,0,-49,3,-71,8 c-16,82,-82,137,-175,137 c-50,0,-81,-15,-101,-26 Z M76,0 c0,-24,17,-41,41,-41 c24,0,41,17,41,41 c0,24,-17,41,-41,41 c-24,0,-41,-17,-41,-41 Z M76,0" fill="rgb(0,0,0)" transform="matrix(0.1,0.0,0.0,-0.1,7.0,135.0)"/>
</svg>