<?xml version="1.0" encoding="UTF-8"?>
<svg height="200.0" version="1.1" width="70.0" xmlns="http://www.w3.org/2000/svg" xmlns:xlink="http://www.w3.org/1999/xlink">
 <path d="M0,0 l70,0 l0,200 l-70,0 Z M0,0" fill="rgb(255,255,255)" transform="matrix(1,0,0,-1,0.0,200.0)"/>
 <path d="M0,0 l70,0" fill="none" stroke="rgb(229,229,229)" stroke-width="2" transform="matrix(1,0,0,-1,0.0,135.0)"/>
 <path d="M0,1 l0,-5" fill="none" stroke="rgb(204,204,204)" stroke-width="2" transform="matrix(1,0,0,-1,8.0,135.0)"/>
 <path d="M0,1 l0,-5" fill="none" stroke="rgb(204,204,204)" stroke-width="2" transform="matrix(1,0,0,-1,63.0,135.0)"/>
 <path d="M470,261 c0,43,-23,84,-54,100 l-193,-31 c-35,6,-57,35,-57,65 c0,29,15,53,58,53 l199,0 l0,134 l152,0 l0,52 l-605,0 l0,-52 l399,0 l0,-84 l-164,0 c-64,0,-97,-45,-97,-94 c0,-61,45,-113,108,-126 l180,28 c11,-8,19,-24,19,-45 c0,-54,-39,-92,-121,-92 c-97,0,-168,43,-205,96 l-40,-35 c57,-73,143,-114,248,-114 c95,0,173,50,173,145 Z M470,0 l0,53 l-390,0 l0,-53 Z M470,0" fill="rgb(0,0,0)" transform="matrix(0.1,0.0,0.0,-0.1,8.0,135.0)"/>
</svg>