<?xml version="1.0" encoding="UTF-8"?>
<svg height="200.0" version="1.1" width="28.0" xmlns="http://www.w3.org/2000/svg" xmlns:xlink="http://www.w3.org/1999/xlink">
 <path d="M0,0 l28,0 l0,200 l-28,0 Z M0,0" fill="rgb(255,255,255)" transform="matrix(1,0,0,-1,0.0,200.0)"/>
 <path d="M0,0 l28,0" fill="none" stroke="rgb(229,229,229)" stroke-width="2" transform="matrix(1,0,0,-1,0.0,135.0)"/>
 <path d="M0,-4 l0,8" fill="none" stroke="rgb(255,76,25)" stroke-width="2" transform="matrix(1,0,0,-1,23.0,135.0)"/>
 <path d="M-182,801 c0,-26,21,-46,48,-46 c28,0,48,20,48,46 c0,29,-20,50,-48,50 c-27,0,-48,-21,-48,-50 Z M-182,801" fill="rgb(0,0,0)" transform="matrix(0.1,0.0,0.0,-0.1,23.0,135.0)"/>
</svg>