<?xml version="1.0" encoding="UTF-8"?>
<svg height="200.0" version="1.1" width="42.0" xmlns="http://www.w3.org/2000/svg" xmlns:xlink="http://www.w3.org/1999/xlink">
 <path d="M0,0 l42,0 l0,200 l-42,0 Z M0,0" fill="rgb(255,255,255)" transform="matrix(1,0,0,-1,0.0,200.0)"/>
 <path d="M0,0 l42,0" fill="none" stroke="rgb(229,229,229)" stroke-width="2" transform="matrix(1,0,0,-1,0.0,135.0)"/>
 <path d="M0,-4 l0,8" fill="none" stroke="rgb(255,76,25)" stroke-width="2" transform="matrix(1,0,0,-1,36.0,135.0)"/>
 <path d="M-311,-116 c0,-24,17,-41,41,-41 c24,0,41,17,41,41 c0,24,-17,41,-41,41 c-24,0,-41,-17,-41,-41 Z M-311,-116" fill="rgb(0,0,0)" transform="matrix(0.1,0.0,0.0,-0.1,36.0,135.0)"/>
</svg>