<?xml version="1.0" encoding="UTF-8"?>
<svg height="200.0" version="1.1" width="58.0" xmlns="http://www.w3.org/2000/svg" xmlns:xlink="http://www.w3.org/1999/xlink">
 <path d="M0,0 l58,0 l0,200 l-58,0 Z M0,0" fill="rgb(255,255,255)" transform="matrix(1,0,0,-1,0.0,200.0)"/>
 <path d="M0,0 l58,0" fill="none" stroke="rgb(229,229,229)" stroke-width="2" transform="matrix(1,0,0,-1,0.0,135.0)"/>
 <path d="M0,1 l0,-5" fill="none" stroke="rgb(204,204,204)" stroke-width="2" transform="matrix(1,0,0,-1,5.0,135.0)"/>
 <path d="M0,1 l0,-5" fill="none" stroke="rgb(204,204,204)" stroke-width="2" transform="matrix(1,0,0,-1,53.0,135.0)"/>
 <path d="M229,105 c-69,0,-126,28,-162,60 l-37,-50 c33,-27,105,-67,197,-67 c125,0,193,69,193,159 c0,99,-71,135,-155,176 c-77,38,-124,64,-124,118 c0,47,36,78,102,78 l154,0 l0,55 l-157,0 c-93,0,-159,-51,-159,-133 c0,-92,74,-128,141,-160 c86,-41,138,-65,138,-134 c0,-56,-42,-102,-131,-102 Z M229,105" fill="rgb(0,0,0)" transform="matrix(0.1,0.0,0.0,-0.1,5.0,135.0)"/>
</svg>