<?xml version="1.0" encoding="UTF-8"?>
<svg height="200.0" version="1.1" width="48.0" xmlns="http://www.w3.org/2000/svg" xmlns:xlink="http://www.w3.org/1999/xlink">
 <path d="M0,0 l48,0 l0,200 l-48,0 Z M0,0" fill="rgb(255,255,255)" transform="matrix(1,0,0,-1,0.0,200.0)"/>
 <path d="M0,0 l48,0" fill="none" stroke="rgb(229,229,229)" stroke-width="2" transform="matrix(1,0,0,-1,0.0,135.0)"/>
 <path d="M0,-4 l0,8" fill="none" stroke="rgb(255,76,25)" stroke-width="2" transform="matrix(1,0,0,-1,38.0,135.0)"/>
 <path d="M-134,1016 c-104,0,-163,-53,-195,-113 l46,-26 c26,45,75,84,149,84 c74,0,123,-39,149,-84 l45,26 c-32,60,-90,113,-194,113 Z M-178,798 c0,-27,19,-46,44,-46 c25,0,44,19,44,46 c0,24,-19,42,-44,42 c-25,0,-44,-18,-44,-42 Z M-178,798" fill="rgb(0,0,0)" transform="matrix(0.1,0.0,0.0,-0.1,38.0,135.0)"/>
</svg>