<?xml version="1.0" encoding="UTF-8"?>
<svg height="200.0" version="1.1" width="58.0" xmlns="http://www.w3.org/2000/svg" xmlns:xlink="http://www.w3.org/1999/xlink">
 <path d="M0,0 l58,0 l0,200 l-58,0 Z M0,0" fill="rgb(255,255,255)" transform="matrix(1,0,0,-1,0.0,200.0)"/>
 <path d="M0,0 l58,0" fill="none" stroke="rgb(229,229,229)" stroke-width="2" transform="matrix(1,0,0,-1,0.0,135.0)"/>
 <path d="M0,1 l0,-5" fill="none" stroke="rgb(204,204,204)" stroke-width="2" transform="matrix(1,0,0,-1,5.0,135.0)"/>
 <path d="M0,1 l0,-5" fill="none" stroke="rgb(204,204,204)" stroke-width="2" transform="matrix(1,0,0,-1,53.0,135.0)"/>
 <path d="M378,-4 l-138,103 l0,4 c92,3,168,58,168,142 c0,89,-71,127,-117,134 l0,4 c38,12,87,51,87,120 c0,89,-70,141,-163,141 c-75,0,-122,-29,-148,-53 l43,-45 c16,17,50,44,104,44 c61,0,102,-31,102,-88 c0,-71,-64,-108,-157,-108 l9,-53 c17,2,34,3,49,3 c77,0,129,-32,129,-99 c0,-59,-50,-95,-133,-95 c-17,0,-26,0,-46,4 l-87,62 l-30,-31 c1,-6,3,-12,5,-18 c14,-37,52,-66,120,-69 l136,-138 Z M378,-4" fill="rgb(0,0,0)" transform="matrix(0.1,0.0,0.0,-0.1,5.0,135.0)"/>
</svg>