<?xml version="1.0" encoding="UTF-8"?>
<svg height="200.0" version="1.1" width="132.0" xmlns="http://www.w3.org/2000/svg" xmlns:xlink="http://www.w3.org/1999/xlink">
 <path d="M0,0 l132,0 l0,200 l-132,0 Z M0,0" fill="rgb(255,255,255)" transform="matrix(1,0,0,-1,0.0,200.0)"/>
 <path d="M0,0 l132,0" fill="none" stroke="rgb(229,229,229)" stroke-width="2" transform="matrix(1,0,0,-1,0.0,135.0)"/>
 <path d="M0,1 l0,-5" fill="none" stroke="rgb(204,204,204)" stroke-width="2" transform="matrix(1,0,0,-1,5.0,135.0)"/>
 <path d="M0,1 l0,-5" fill="none" stroke="rgb(204,204,204)" stroke-width="2" transform="matrix(1,0,0,-1,127.0,135.0)"/>
 <path d="M925,101 c-69,0,-116,56,-137,118 c4,6,7,11,10,17 c48,87,86,174,148,174 c56,0,101,-50,101,-128 c0,-109,-55,-181,-122,-181 Z M371,327 l0,4 c32,18,72,57,72,128 c0,87,-66,148,-155,148 c-66,0,-114,-28,-142,-61 l42,-40 c19,21,45,46,96,46 c61,0,97,-39,97,-93 c0,-80,-55,-110,-150,-117 l9,-57 l36,4 c6,1,18,2,24,2 c71,0,111,-44,111,-99 c0,-56,-37,-112,-122,-112 c-82,0,-122,55,-138,80 l-49,-41 c26,-38,84,-97,184,-97 c109,0,164,65,173,124 c18,-35,61,-84,135,-84 c70,0,119,43,158,99 c28,-57,79,-115,178,-115 c115,0,179,123,179,227 c0,127,-74,194,-165,194 c-97,0,-145,-108,-195,-204 c-41,-77,-83,-146,-155,-146 c-78,0,-98,64,-128,122 c-20,39,-45,75,-95,88 Z M692,553 c104,0,168,53,200,113 l-45,26 c-26,-45,-81,-84,-155,-84 c-74,0,-128,39,-154,84 l-46,-26 c32,-60,96,-113,200,-113 Z M646,765 c0,-26,21,-46,48,-46 c28,0,48,20,48,46 c0,29,-20,50,-48,50 c-27,0,-48,-21,-48,-50 Z M646,765" fill="rgb(0,0,0)" transform="matrix(0.1,0.0,0.0,-0.1,5.0,135.0)"/>
</svg>