<?xml version="1.0" encoding="UTF-8"?>
<svg height="200.0" version="1.1" width="56.0" xmlns="http://www.w3.org/2000/svg" xmlns:xlink="http://www.w3.org/1999/xlink">
 <path d="M0,0 l56,0 l0,200 l-56,0 Z M0,0" fill="rgb(255,255,255)" transform="matrix(1,0,0,-1,0.0,200.0)"/>
 <path d="M0,0 l56,0" fill="none" stroke="rgb(229,229,229)" stroke-width="2" transform="matrix(1,0,0,-1,0.0,135.0)"/>
 <path d="M0,1 l0,-5" fill="none" stroke="rgb(204,204,204)" stroke-width="2" transform="matrix(1,0,0,-1,5.0,135.0)"/>
 <path d="M0,1 l0,-5" fill="none" stroke="rgb(204,204,204)" stroke-width="2" transform="matrix(1,0,0,-1,51.0,135.0)"/>
 <path d="M344,7 l-159,194 c-24,29,-49,61,-75,89 l1,3 c101,-6,203,53,207,173 l109,0 l25,53 l-140,0 c-9,38,-30,60,-48,72 l0,4 l163,0 l25,53 l-411,0 l0,-53 l105,0 c47,0,95,-25,112,-76 l-217,0 l0,-53 l223,0 c-7,-108,-100,-143,-213,-118 l-16,-49 l51,-57 l191,-242 l67,0 Z M344,7" fill="rgb(0,0,0)" transform="matrix(0.1,0.0,0.0,-0.1,5.0,135.0)"/>
</svg>