<?xml version="1.0" encoding="UTF-8"?>
<svg height="200.0" version="1.1" width="78.0" xmlns="http://www.w3.org/2000/svg" xmlns:xlink="http://www.w3.org/1999/xlink">
 <path d="M0,0 l78,0 l0,200 l-78,0 Z M0,0" fill="rgb(255,255,255)" transform="matrix(1,0,0,-1,0.0,200.0)"/>
 <path d="M0,0 l78,0" fill="none" stroke="rgb(229,229,229)" stroke-width="2" transform="matrix(1,0,0,-1,0.0,135.0)"/>
 <path d="M0,1 l0,-5" fill="none" stroke="rgb(204,204,204)" stroke-width="2" transform="matrix(1,0,0,-1,7.0,135.0)"/>
 <path d="M0,1 l0,-5" fill="none" stroke="rgb(204,204,204)" stroke-width="2" transform="matrix(1,0,0,-1,61.0,135.0)"/>
 <path d="M641,309 c-17,-12,-64,-34,-128,-34 c-60,0,-109,14,-137,29 l-169,-34 c-37,10,-70,46,-70,86 c0,36,16,60,75,60 l188,0 l0,166 l162,0 l0,52 l-582,0 l0,-52 l363,0 l0,-113 l-158,0 c-67,0,-109,-42,-109,-102 c0,-77,59,-135,119,-154 l161,32 c13,-9,31,-30,31,-67 c0,-69,-68,-101,-140,-101 l-39,0 l-123,87 c-9,-6,-22,-21,-22,-43 c0,-45,45,-91,144,-94 l152,-138 l65,34 l-151,104 l-4,2 c82,1,176,50,176,150 c0,21,-4,39,-10,55 c24,-8,52,-14,83,-14 c71,0,116,20,141,37 Z M641,309" fill="rgb(0,0,0)" transform="matrix(0.1,0.0,0.0,-0.1,7.0,135.0)"/>
</svg>