<?xml version="1.0" encoding="UTF-8"?>
<svg height="200.0" version="1.1" width="58.0" xmlns="http://www.w3.org/2000/svg" xmlns:xlink="http://www.w3.org/1999/xlink">
 <path d="M0,0 l58,0 l0,200 l-58,0 Z M0,0" fill="rgb(255,255,255)" transform="matrix(1,0,0,-1,0.0,200.0)"/>
 <path d="M0,0 l58,0" fill="none" stroke="rgb(229,229,229)" stroke-width="2" transform="matrix(1,0,0,-1,0.0,135.0)"/>
 <path d="M0,1 l0,-5" fill="none" stroke="rgb(204,204,204)" stroke-width="2" transform="matrix(1,0,0,-1,7.0,135.0)"/>
 <path d="M0,1 l0,-5" fill="none" stroke="rgb(204,204,204)" stroke-width="2" transform="matrix(1,0,0,-1,42.0,135.0)"/>
 <path d="M373,634 l-393,0 l0,-52 l393,0 Z M248,108 c147,0,205,109,220,152 l-45,38 c-5,-18,-17,-47,-38,-73 l-219,183 c26,17,58,27,92,27 c22,0,45,-3,66,-11 l-2,57 c-19,6,-45,8,-66,8 c-110,0,-206,-78,-206,-193 c0,-112,83,-188,198,-188 Z M255,163 c-95,0,-145,58,-145,135 c0,29,8,54,21,74 l217,-181 c-24,-17,-55,-28,-93,-28 Z M255,163" fill="rgb(0,0,0)" transform="matrix(0.1,0.0,0.0,-0.1,7.0,135.0)"/>
</svg>