<?xml version="1.0" encoding="UTF-8"?>
<svg height="200.0" version="1.1" width="54.0" xmlns="http://www.w3.org/2000/svg" xmlns:xlink="http://www.w3.org/1999/xlink">
 <path d="M0,0 l54,0 l0,200 l-54,0 Z M0,0" fill="rgb(255,255,255)" transform="matrix(1,0,0,-1,0.0,200.0)"/>
 <path d="M0,0 l54,0" fill="none" stroke="rgb(229,229,229)" stroke-width="2" transform="matrix(1,0,0,-1,0.0,135.0)"/>
 <path d="M0,1 l0,-5" fill="none" stroke="rgb(204,204,204)" stroke-width="2" transform="matrix(1,0,0,-1,7.0,135.0)"/>
 <path d="M0,1 l0,-5" fill="none" stroke="rgb(204,204,204)" stroke-width="2" transform="matrix(1,0,0,-1,38.0,135.0)"/>
 <path d="M333,634 l-353,0 l0,-52 l353,0 Z M232,122 c118,0,173,79,195,133 l-42,39 c-14,-52,-56,-117,-146,-117 c-76,0,-127,52,-127,125 c0,78,60,123,133,122 c15,0,30,-2,45,-6 l-6,57 c-13,2,-26,4,-39,4 c-96,1,-195,-55,-195,-179 c0,-111,87,-178,182,-178 Z M232,122" fill="rgb(0,0,0)" transform="matrix(0.1,0.0,0.0,-0.1,7.0,135.0)"/>
</svg>