<?xml version="1.0" encoding="UTF-8"?>
<svg height="200.0" version="1.1" width="72.0" xmlns="http://www.w3.org/2000/svg" xmlns:xlink="http://www.w3.org/1999/xlink">
 <path d="M0,0 l72,0 l0,200 l-72,0 Z M0,0" fill="rgb(255,255,255)" transform="matrix(1,0,0,-1,0.0,200.0)"/>
 <path d="M0,0 l72,0" fill="none" stroke="rgb(229,229,229)" stroke-width="2" transform="matrix(1,0,0,-1,0.0,135.0)"/>
 <path d="M0,1 l0,-5" fill="none" stroke="rgb(204,204,204)" stroke-width="2" transform="matrix(1,0,0,-1,5.0,135.0)"/>
 <path d="M0,1 l0,-5" fill="none" stroke="rgb(204,204,204)" stroke-width="2" transform="matrix(1,0,0,-1,52.0,135.0)"/>
 <path d="M482,-67 l-87,137 c15,13,33,41,33,81 c0,35,-25,63,-43,71 l-46,-17 l0,-101 c-17,-14,-49,-24,-93,-24 c-86,0,-140,53,-140,119 c0,70,54,104,155,133 c46,-16,109,-28,172,-28 c81,0,147,13,196,34 l-16,54 c-47,-24,-115,-37,-192,-37 c-28,0,-64,5,-87,10 l0,4 c36,15,92,52,92,133 c0,79,-65,142,-158,142 c-101,0,-170,-64,-170,-143 c0,-62,44,-113,96,-137 c-96,-34,-150,-86,-150,-165 c0,-94,74,-174,210,-174 c37,0,74,8,101,21 l54,-124 Z M157,501 c0,51,40,90,107,90 c64,0,103,-36,103,-89 c0,-65,-52,-102,-107,-115 c-64,22,-103,65,-103,114 Z M157,501" fill="rgb(0,0,0)" transform="matrix(0.1,0.0,0.0,-0.1,5.0,135.0)"/>
</svg>