<?xml version="1.0" encoding="UTF-8"?>
<svg height="200.0" version="1.1" width="62.0" xmlns="http://www.w3.org/2000/svg" xmlns:xlink="http://www.w3.org/1999/xlink">
 <path d="M0,0 l62,0 l0,200 l-62,0 Z M0,0" fill="rgb(255,255,255)" transform="matrix(1,0,0,-1,0.0,200.0)"/>
 <path d="M0,0 l62,0" fill="none" stroke="rgb(229,229,229)" stroke-width="2" transform="matrix(1,0,0,-1,0.0,135.0)"/>
 <path d="M0,1 l0,-5" fill="none" stroke="rgb(204,204,204)" stroke-width="2" transform="matrix(1,0,0,-1,5.0,135.0)"/>
 <path d="M0,1 l0,-5" fill="none" stroke="rgb(204,204,204)" stroke-width="2" transform="matrix(1,0,0,-1,47.0,135.0)"/>
 <path d="M86,-5 c0,-24,17,-41,41,-41 c24,0,41,17,41,41 c0,24,-17,41,-41,41 c-24,0,-41,-17,-41,-41 Z M285,112 c120,0,200,57,241,125 l-36,43 c-32,-59,-99,-113,-204,-113 c-125,0,-178,97,-183,143 l59,17 c133,38,198,102,198,186 c0,76,-57,131,-137,131 c-78,0,-133,-56,-133,-123 c0,-40,18,-69,32,-82 l57,17 c-16,13,-30,40,-30,62 c0,45,31,71,74,71 c45,0,78,-29,78,-74 c0,-56,-25,-98,-176,-142 l-92,-27 c8,-129,104,-234,252,-234 Z M285,112" fill="rgb(0,0,0)" transform="matrix(0.1,0.0,0.0,-0.1,5.0,135.0)"/>
</svg>