<?xml version="1.0" encoding="UTF-8"?>
<svg height="200.0" version="1.1" width="88.0" xmlns="http://www.w3.org/2000/svg" xmlns:xlink="http://www.w3.org/1999/xlink">
 <path d="M0,0 l88,0 l0,200 l-88,0 Z M0,0" fill="rgb(255,255,255)" transform="matrix(1,0,0,-1,0.0,200.0)"/>
 <path d="M0,0 l88,0" fill="none" stroke="rgb(229,229,229)" stroke-width="2" transform="matrix(1,0,0,-1,0.0,135.0)"/>
 <path d="M0,1 l0,-5" fill="none" stroke="rgb(204,204,204)" stroke-width="2" transform="matrix(1,0,0,-1,7.0,135.0)"/>
 <path d="M0,1 l0,-5" fill="none" stroke="rgb(204,204,204)" stroke-width="2" transform="matrix(1,0,0,-1,80.0,135.0)"/>
 <path d="M514,136 c-70,0,-103,44,-129,94 c2,5,3,9,5,14 c28,82,45,163,128,163 c68,0,104,-63,104,-136 c0,-86,-44,-135,-108,-135 Z M217,134 c-68,0,-100,64,-100,137 c0,82,46,134,110,134 c62,0,101,-43,126,-92 c-2,-5,-3,-10,-5,-15 c-25,-83,-48,-164,-131,-164 Z M523,461 c-77,0,-119,-38,-146,-89 c-22,37,-69,87,-145,87 c-108,0,-175,-81,-175,-192 c0,-112,61,-187,155,-187 c78,0,120,40,148,91 c22,-38,70,-89,149,-89 c101,0,173,75,173,193 c0,112,-65,186,-159,186 Z M754,582 l0,52 l-774,0 l0,-52 Z M320,15 c0,-24,17,-41,41,-41 c24,0,41,17,41,41 c0,24,-17,41,-41,41 c-24,0,-41,-17,-41,-41 Z M320,15" fill="rgb(0,0,0)" transform="matrix(0.1,0.0,0.0,-0.1,7.0,135.0)"/>
</svg>