<?xml version="1.0" encoding="UTF-8"?>
<svg height="200.0" version="1.1" width="90.0" xmlns="http://www.w3.org/2000/svg" xmlns:xlink="http://www.w3.org/1999/xlink">
 <path d="M0,0 l90,0 l0,200 l-90,0 Z M0,0" fill="rgb(255,255,255)" transform="matrix(1,0,0,-1,0.0,200.0)"/>
 <path d="M0,0 l90,0" fill="none" stroke="rgb(229,229,229)" stroke-width="2" transform="matrix(1,0,0,-1,0.0,135.0)"/>
 <path d="M0,1 l0,-5" fill="none" stroke="rgb(204,204,204)" stroke-width="2" transform="matrix(1,0,0,-1,7.0,135.0)"/>
 <path d="M0,1 l0,-5" fill="none" stroke="rgb(204,204,204)" stroke-width="2" transform="matrix(1,0,0,-1,84.0,135.0)"/>
 <path d="M357,186 l0,-186 l57,0 l0,274 c0,81,52,135,128,135 c67,0,113,-46,113,-112 c0,-72,-55,-123,-152,-109 l9,-55 c113,-14,205,55,205,166 c0,100,-76,165,-163,165 c-74,0,-117,-35,-136,-62 l-4,0 l0,180 l372,0 l0,52 l-806,0 l0,-52 l377,0 l0,-259 c0,-81,-53,-135,-127,-135 c-67,0,-114,47,-114,112 c0,72,55,123,152,109 l-9,55 c-113,14,-205,-56,-205,-165 c0,-100,77,-157,147,-160 l0,-4 l-146,-94 l49,-42 l249,187 Z M357,186" fill="rgb(0,0,0)" transform="matrix(0.1,0.0,0.0,-0.1,7.0,135.0)"/>
</svg>