<?xml version="1.0" encoding="UTF-8"?>
<svg height="200.0" version="1.1" width="88.0" xmlns="http://www.w3.org/2000/svg" xmlns:xlink="http://www.w3.org/1999/xlink">
 <path d="M0,0 l88,0 l0,200 l-88,0 Z M0,0" fill="rgb(255,255,255)" transform="matrix(1,0,0,-1,0.0,200.0)"/>
 <path d="M0,0 l88,0" fill="none" stroke="rgb(229,229,229)" stroke-width="2" transform="matrix(1,0,0,-1,0.0,135.0)"/>
 <path d="M0,1 l0,-5" fill="none" stroke="rgb(204,204,204)" stroke-width="2" transform="matrix(1,0,0,-1,7.0,135.0)"/>
 <path d="M0,1 l0,-5" fill="none" stroke="rgb(204,204,204)" stroke-width="2" transform="matrix(1,0,0,-1,82.0,135.0)"/>
 <path d="M584,178 l0,-178 l57,0 l0,582 l125,0 l0,52 l-786,0 l0,-52 l117,0 l0,-239 c0,-101,67,-158,156,-158 c89,0,156,57,156,158 l0,239 l174,0 l0,-342 l-364,-222 l58,-35 l303,195 Z M253,240 c-63,0,-98,40,-98,109 l0,233 l196,0 l0,-233 c0,-69,-35,-109,-98,-109 Z M253,240" fill="rgb(0,0,0)" transform="matrix(0.1,0.0,0.0,-0.1,7.0,135.0)"/>
</svg>