<?xml version="1.0" encoding="UTF-8"?>
<svg height="200.0" version="1.1" width="76.0" xmlns="http://www.w3.org/2000/svg" xmlns:xlink="http://www.w3.org/1999/xlink">
 <path d="M0,0 l76,0 l0,200 l-76,0 Z M0,0" fill="rgb(255,255,255)" transform="matrix(1,0,0,-1,0.0,200.0)"/>
 <path d="M0,0 l76,0" fill="none" stroke="rgb(229,229,229)" stroke-width="2" transform="matrix(1,0,0,-1,0.0,135.0)"/>
 <path d="M0,1 l0,-5" fill="none" stroke="rgb(204,204,204)" stroke-width="2" transform="matrix(1,0,0,-1,5.0,135.0)"/>
 <path d="M0,1 l0,-5" fill="none" stroke="rgb(204,204,204)" stroke-width="2" transform="matrix(1,0,0,-1,69.0,135.0)"/>
 <path d="M43,346 c12,-128,97,-219,214,-228 l0,-4 l-179,-90 l54,-45 l339,196 l4,0 l0,-175 l58,0 l0,582 l125,0 l0,52 l-182,0 l0,-373 c-18,-37,-90,-93,-181,-93 c-134,0,-179,100,-182,142 c20,6,39,11,59,17 c133,38,197,99,197,185 c0,76,-53,132,-135,132 c-78,0,-134,-56,-134,-123 c0,-40,18,-69,32,-82 l57,17 c-16,13,-30,40,-30,62 c0,45,32,71,75,71 c47,0,76,-30,76,-75 c0,-57,-24,-98,-175,-141 Z M43,346" fill="rgb(0,0,0)" transform="matrix(0.1,0.0,0.0,-0.1,5.0,135.0)"/>
</svg>