<?xml version="1.0" encoding="UTF-8"?>
<svg height="200.0" version="1.1" width="92.0" xmlns="http://www.w3.org/2000/svg" xmlns:xlink="http://www.w3.org/1999/xlink">
 <path d="M0,0 l92,0 l0,200 l-92,0 Z M0,0" fill="rgb(255,255,255)" transform="matrix(1,0,0,-1,0.0,200.0)"/>
 <path d="M0,0 l92,0" fill="none" stroke="rgb(229,229,229)" stroke-width="2" transform="matrix(1,0,0,-1,0.0,135.0)"/>
 <path d="M0,1 l0,-5" fill="none" stroke="rgb(204,204,204)" stroke-width="2" transform="matrix(1,0,0,-1,7.0,135.0)"/>
 <path d="M0,1 l0,-5" fill="none" stroke="rgb(204,204,204)" stroke-width="2" transform="matrix(1,0,0,-1,85.0,135.0)"/>
 <path d="M613,143 l4,0 l0,-143 l57,0 l0,582 l125,0 l0,52 l-819,0 l0,-52 l261,0 l0,-170 c0,-46,-21,-64,-54,-64 c-40,0,-60,21,-73,44 l-52,-18 c23,-240,175,-325,289,-325 l0,-4 l-228,-68 l50,-53 l239,94 c136,54,178,96,201,125 Z M612,453 c-19,20,-48,38,-101,38 c-82,0,-151,-62,-151,-151 c0,-93,73,-146,143,-149 l31,47 c-75,3,-116,46,-116,102 c0,58,40,96,98,96 c53,0,103,-40,103,-119 c0,-155,-122,-223,-236,-223 c-121,0,-225,72,-251,217 c13,-7,30,-13,62,-13 c59,0,105,43,105,115 l0,169 l317,0 l0,-129 Z M457,-61 c0,-24,17,-41,41,-41 c24,0,41,17,41,41 c0,24,-17,41,-41,41 c-24,0,-41,-17,-41,-41 Z M457,-61" fill="rgb(0,0,0)" transform="matrix(0.1,0.0,0.0,-0.1,7.0,135.0)"/>
</svg>