<?xml version="1.0" encoding="UTF-8"?>
<svg height="200.0" version="1.1" width="76.0" xmlns="http://www.w3.org/2000/svg" xmlns:xlink="http://www.w3.org/1999/xlink">
 <path d="M0,0 l76,0 l0,200 l-76,0 Z M0,0" fill="rgb(255,255,255)" transform="matrix(1,0,0,-1,0.0,200.0)"/>
 <path d="M0,0 l76,0" fill="none" stroke="rgb(229,229,229)" stroke-width="2" transform="matrix(1,0,0,-1,0.0,135.0)"/>
 <path d="M0,1 l0,-5" fill="none" stroke="rgb(204,204,204)" stroke-width="2" transform="matrix(1,0,0,-1,7.0,135.0)"/>
 <path d="M0,1 l0,-5" fill="none" stroke="rgb(204,204,204)" stroke-width="2" transform="matrix(1,0,0,-1,70.0,135.0)"/>
 <path d="M464,582 l0,-314 c-26,-37,-105,-87,-188,-87 c-88,0,-124,47,-124,95 c0,48,34,83,108,83 l61,0 l0,54 l-62,0 c-81,0,-115,37,-115,83 c0,48,30,86,103,86 Z M173,384 c-39,-13,-83,-51,-83,-112 c0,-84,71,-145,175,-137 l0,-4 l-173,-91 l55,-47 l312,198 l4,0 l0,-191 l58,0 l0,582 l125,0 l0,52 l-666,0 l0,-52 l152,0 l0,-4 c-19,-8,-50,-35,-50,-84 c0,-64,44,-99,91,-106 Z M302,-22 c0,-24,17,-41,41,-41 c24,0,41,17,41,41 c0,24,-17,41,-41,41 c-24,0,-41,-17,-41,-41 Z M302,-22" fill="rgb(0,0,0)" transform="matrix(0.1,0.0,0.0,-0.1,7.0,135.0)"/>
</svg>