<?xml version="1.0" encoding="UTF-8"?>
<svg height="200.0" version="1.1" width="68.0" xmlns="http://www.w3.org/2000/svg" xmlns:xlink="http://www.w3.org/1999/xlink">
 <path d="M0,0 l68,0 l0,200 l-68,0 Z M0,0" fill="rgb(255,255,255)" transform="matrix(1,0,0,-1,0.0,200.0)"/>
 <path d="M0,0 l68,0" fill="none" stroke="rgb(229,229,229)" stroke-width="2" transform="matrix(1,0,0,-1,0.0,135.0)"/>
 <path d="M0,1 l0,-5" fill="none" stroke="rgb(204,204,204)" stroke-width="2" transform="matrix(1,0,0,-1,9.0,135.0)"/>
 <path d="M0,1 l0,-5" fill="none" stroke="rgb(204,204,204)" stroke-width="2" transform="matrix(1,0,0,-1,61.0,135.0)"/>
 <path d="M408,-106 l68,18 l-137,138 c73,17,122,75,122,139 c0,65,-52,117,-122,117 c-81,0,-120,-64,-115,-118 l56,-22 c-9,42,12,84,60,84 c36,0,61,-28,61,-61 c0,-51,-40,-90,-111,-90 c-109,0,-179,82,-179,164 c0,59,24,108,117,133 l165,45 l0,141 l142,0 l0,52 l-555,0 l0,-52 l355,0 l0,-100 l-145,-42 c-85,-24,-140,-89,-140,-172 c0,-95,67,-181,166,-211 l-144,-145 l68,-18 l133,152 c1,0,1,0,2,0 Z M-43,33 c0,-24,17,-41,41,-41 c24,0,41,17,41,41 c0,24,-17,41,-41,41 c-24,0,-41,-17,-41,-41 Z M-43,33" fill="rgb(0,0,0)" transform="matrix(0.1,0.0,0.0,-0.1,9.0,135.0)"/>
</svg>