<?xml version="1.0" encoding="UTF-8"?>
<svg height="200.0" version="1.1" width="78.0" xmlns="http://www.w3.org/2000/svg" xmlns:xlink="http://www.w3.org/1999/xlink">
 <path d="M0,0 l78,0 l0,200 l-78,0 Z M0,0" fill="rgb(255,255,255)" transform="matrix(1,0,0,-1,0.0,200.0)"/>
 <path d="M0,0 l78,0" fill="none" stroke="rgb(229,229,229)" stroke-width="2" transform="matrix(1,0,0,-1,0.0,135.0)"/>
 <path d="M0,1 l0,-5" fill="none" stroke="rgb(204,204,204)" stroke-width="2" transform="matrix(1,0,0,-1,5.0,135.0)"/>
 <path d="M0,1 l0,-5" fill="none" stroke="rgb(204,204,204)" stroke-width="2" transform="matrix(1,0,0,-1,71.0,135.0)"/>
 <path d="M497,223 l0,-223 l58,0 l0,582 l125,0 l0,52 l-183,0 l0,-361 c-57,12,-147,39,-220,81 c65,39,105,89,105,156 c0,84,-62,136,-139,136 c-85,0,-144,-61,-144,-135 c0,-48,20,-98,73,-146 c-67,-24,-136,-36,-166,-41 l41,-51 c64,14,124,31,175,53 c49,-33,118,-64,204,-87 l0,-4 l-240,-130 l47,-42 l260,160 Z M159,511 c0,52,36,82,84,82 c46,0,79,-32,79,-83 c0,-57,-42,-94,-96,-121 c-40,33,-67,71,-67,122 Z M90,1 c0,-24,17,-41,41,-41 c24,0,41,17,41,41 c0,24,-17,41,-41,41 c-24,0,-41,-17,-41,-41 Z M90,1" fill="rgb(0,0,0)" transform="matrix(0.1,0.0,0.0,-0.1,5.0,135.0)"/>
</svg>