<?xml version="1.0" encoding="UTF-8"?>
<svg height="200.0" version="1.1" width="68.0" xmlns="http://www.w3.org/2000/svg" xmlns:xlink="http://www.w3.org/1999/xlink">
 <path d="M0,0 l68,0 l0,200 l-68,0 Z M0,0" fill="rgb(255,255,255)" transform="matrix(1,0,0,-1,0.0,200.0)"/>
 <path d="M0,0 l68,0" fill="none" stroke="rgb(229,229,229)" stroke-width="2" transform="matrix(1,0,0,-1,0.0,135.0)"/>
 <path d="M0,1 l0,-5" fill="none" stroke="rgb(204,204,204)" stroke-width="2" transform="matrix(1,0,0,-1,7.0,135.0)"/>
 <path d="M0,1 l0,-5" fill="none" stroke="rgb(204,204,204)" stroke-width="2" transform="matrix(1,0,0,-1,61.0,135.0)"/>
 <path d="M415,242 l0,-4 l-172,-121 l57,-27 l107,82 l4,0 l0,-110 l51,0 l0,195 l-44,39 l-147,0 c-25,0,-48,-4,-68,-10 c-38,20,-61,53,-61,83 c0,29,17,50,68,50 l239,0 l0,163 l112,0 l0,52 l-581,0 l0,-52 l412,0 l0,-109 l-198,0 c-69,0,-113,-43,-113,-100 c0,-48,31,-89,68,-113 c-38,-28,-58,-71,-58,-119 c0,-115,107,-197,292,-218 l25,53 c-190,16,-256,87,-256,165 c0,65,46,101,122,101 Z M40,-66 c0,-24,17,-41,41,-41 c24,0,41,17,41,41 c0,24,-17,41,-41,41 c-24,0,-41,-17,-41,-41 Z M40,-66" fill="rgb(0,0,0)" transform="matrix(0.1,0.0,0.0,-0.1,7.0,135.0)"/>
</svg>