<?xml version="1.0" encoding="UTF-8"?>
<svg height="200.0" version="1.1" width="56.0" xmlns="http://www.w3.org/2000/svg" xmlns:xlink="http://www.w3.org/1999/xlink">
 <path d="M0,0 l56,0 l0,200 l-56,0 Z M0,0" fill="rgb(255,255,255)" transform="matrix(1,0,0,-1,0.0,200.0)"/>
 <path d="M0,0 l56,0" fill="none" stroke="rgb(229,229,229)" stroke-width="2" transform="matrix(1,0,0,-1,0.0,135.0)"/>
 <path d="M0,1 l0,-5" fill="none" stroke="rgb(204,204,204)" stroke-width="2" transform="matrix(1,0,0,-1,7.0,135.0)"/>
 <path d="M0,1 l0,-5" fill="none" stroke="rgb(204,204,204)" stroke-width="2" transform="matrix(1,0,0,-1,40.0,135.0)"/>
 <path d="M352,634 l-21,0 l0,-52 l21,0 Z M444,368 l-262,0 l0,144 c0,77,-50,122,-134,122 l-68,0 l0,-52 l65,0 c55,0,79,-22,79,-75 l0,-140 l-47,-34 c1,-42,23,-95,54,-122 l51,0 l0,103 l262,0 Z M444,303 l-349,-273 l53,-36 l296,247 Z M444,303" fill="rgb(0,0,0)" transform="matrix(0.1,0.0,0.0,-0.1,7.0,135.0)"/>
</svg>