<?xml version="1.0" encoding="UTF-8"?>
<svg height="200.0" version="1.1" width="62.0" xmlns="http://www.w3.org/2000/svg" xmlns:xlink="http://www.w3.org/1999/xlink">
 <path d="M0,0 l62,0 l0,200 l-62,0 Z M0,0" fill="rgb(255,255,255)" transform="matrix(1,0,0,-1,0.0,200.0)"/>
 <path d="M0,0 l62,0" fill="none" stroke="rgb(229,229,229)" stroke-width="2" transform="matrix(1,0,0,-1,0.0,135.0)"/>
 <path d="M0,1 l0,-5" fill="none" stroke="rgb(204,204,204)" stroke-width="2" transform="matrix(1,0,0,-1,7.0,135.0)"/>
 <path d="M0,1 l0,-5" fill="none" stroke="rgb(204,204,204)" stroke-width="2" transform="matrix(1,0,0,-1,44.0,135.0)"/>
 <path d="M461,312 c-27,-56,-83,-113,-174,-113 c-120,0,-159,83,-168,136 c80,20,138,71,138,140 c0,48,-18,78,-40,103 l0,4 l177,0 l0,52 l-414,0 l0,-52 l169,0 c28,-23,47,-58,47,-98 c0,-60,-50,-96,-146,-118 c16,-141,109,-213,210,-217 l0,-4 l-197,-110 l55,-47 l268,174 c62,40,93,75,111,108 Z M461,312" fill="rgb(0,0,0)" transform="matrix(0.1,0.0,0.0,-0.1,7.0,135.0)"/>
</svg>