<?xml version="1.0" encoding="UTF-8"?>
<svg height="200.0" version="1.1" width="58.0" xmlns="http://www.w3.org/2000/svg" xmlns:xlink="http://www.w3.org/1999/xlink">
 <path d="M0,0 l58,0 l0,200 l-58,0 Z M0,0" fill="rgb(255,255,255)" transform="matrix(1,0,0,-1,0.0,200.0)"/>
 <path d="M0,0 l58,0" fill="none" stroke="rgb(229,229,229)" stroke-width="2" transform="matrix(1,0,0,-1,0.0,135.0)"/>
 <path d="M0,1 l0,-5" fill="none" stroke="rgb(204,204,204)" stroke-width="2" transform="matrix(1,0,0,-1,7.0,135.0)"/>
 <path d="M0,1 l0,-5" fill="none" stroke="rgb(204,204,204)" stroke-width="2" transform="matrix(1,0,0,-1,39.0,135.0)"/>
 <path d="M276,260 c-68,0,-116,31,-116,107 l0,60 c0,64,-3,91,-3,91 c0,0,30,-28,70,-66 l161,-155 c-21,-20,-64,-37,-112,-37 Z M455,297 l-298,285 l179,0 l0,52 l-356,0 l0,-52 l125,0 l0,-218 c0,-114,82,-160,183,-151 l0,-4 l-221,-185 l63,-31 l325,298 Z M455,297" fill="rgb(0,0,0)" transform="matrix(0.1,0.0,0.0,-0.1,7.0,135.0)"/>
</svg>