<?xml version="1.0" encoding="UTF-8"?>
<svg height="200.0" version="1.1" width="54.0" xmlns="http://www.w3.org/2000/svg" xmlns:xlink="http://www.w3.org/1999/xlink">
 <path d="M0,0 l54,0 l0,200 l-54,0 Z M0,0" fill="rgb(255,255,255)" transform="matrix(1,0,0,-1,0.0,200.0)"/>
 <path d="M0,0 l54,0" fill="none" stroke="rgb(229,229,229)" stroke-width="2" transform="matrix(1,0,0,-1,0.0,135.0)"/>
 <path d="M0,1 l0,-5" fill="none" stroke="rgb(204,204,204)" stroke-width="2" transform="matrix(1,0,0,-1,7.0,135.0)"/>
 <path d="M0,1 l0,-5" fill="none" stroke="rgb(204,204,204)" stroke-width="2" transform="matrix(1,0,0,-1,42.0,135.0)"/>
 <path d="M365,634 l-385,0 l0,-52 l385,0 Z M418,263 c-22,114,-101,206,-234,206 c-74,0,-124,-31,-151,-53 l43,-49 c31,26,70,43,119,43 c97,0,146,-72,160,-125 l-275,-165 l47,-44 Z M211,-1 c0,-24,17,-41,41,-41 c24,0,41,17,41,41 c0,24,-17,41,-41,41 c-24,0,-41,-17,-41,-41 Z M211,-1" fill="rgb(0,0,0)" transform="matrix(0.1,0.0,0.0,-0.1,7.0,135.0)"/>
</svg>