<?xml version="1.0" encoding="UTF-8"?>
<svg height="200.0" version="1.1" width="64.0" xmlns="http://www.w3.org/2000/svg" xmlns:xlink="http://www.w3.org/1999/xlink">
 <path d="M0,0 l64,0 l0,200 l-64,0 Z M0,0" fill="rgb(255,255,255)" transform="matrix(1,0,0,-1,0.0,200.0)"/>
 <path d="M0,0 l64,0" fill="none" stroke="rgb(229,229,229)" stroke-width="2" transform="matrix(1,0,0,-1,0.0,135.0)"/>
 <path d="M0,1 l0,-5" fill="none" stroke="rgb(204,204,204)" stroke-width="2" transform="matrix(1,0,0,-1,5.0,135.0)"/>
 <path d="M0,1 l0,-5" fill="none" stroke="rgb(204,204,204)" stroke-width="2" transform="matrix(1,0,0,-1,48.0,135.0)"/>
 <path d="M499,281 c-32,-59,-106,-113,-204,-113 c-134,0,-179,100,-182,142 c20,6,39,11,59,17 c133,38,197,99,197,185 c0,76,-53,132,-135,132 c-78,0,-134,-56,-134,-123 c0,-40,18,-69,32,-82 l57,17 c-16,13,-30,40,-30,62 c0,45,32,71,75,71 c47,0,76,-30,76,-75 c0,-57,-24,-98,-175,-141 l-92,-27 c12,-128,97,-219,214,-228 l0,-4 l-179,-90 l54,-45 l288,163 c54,31,98,69,116,95 Z M302,-32 c0,-24,17,-41,41,-41 c24,0,41,17,41,41 c0,24,-17,41,-41,41 c-24,0,-41,-17,-41,-41 Z M302,-32" fill="rgb(0,0,0)" transform="matrix(0.1,0.0,0.0,-0.1,5.0,135.0)"/>
</svg>