<?xml version="1.0" encoding="UTF-8"?>
<svg height="200.0" version="1.1" width="70.0" xmlns="http://www.w3.org/2000/svg" xmlns:xlink="http://www.w3.org/1999/xlink">
 <path d="M0,0 l70,0 l0,200 l-70,0 Z M0,0" fill="rgb(255,255,255)" transform="matrix(1,0,0,-1,0.0,200.0)"/>
 <path d="M0,0 l70,0" fill="none" stroke="rgb(229,229,229)" stroke-width="2" transform="matrix(1,0,0,-1,0.0,135.0)"/>
 <path d="M0,1 l0,-5" fill="none" stroke="rgb(204,204,204)" stroke-width="2" transform="matrix(1,0,0,-1,7.0,135.0)"/>
 <path d="M0,1 l0,-5" fill="none" stroke="rgb(204,204,204)" stroke-width="2" transform="matrix(1,0,0,-1,52.0,135.0)"/>
 <path d="M17,-69 c0,-24,17,-41,41,-41 c24,0,41,17,41,41 c0,24,-17,41,-41,41 c-24,0,-41,-17,-41,-41 Z M470,634 l-490,0 l0,-52 l490,0 Z M214,445 c-80,0,-154,-63,-154,-175 c0,-118,71,-211,152,-262 l44,42 c-85,51,-135,126,-135,219 c0,83,44,121,97,121 c55,0,90,-35,90,-104 l0,-85 l58,0 l0,86 c0,69,38,107,96,107 c54,0,88,-34,98,-45 l29,43 c-26,30,-70,57,-131,57 c-57,0,-103,-33,-118,-85 l-4,0 c-14,48,-56,81,-122,81 Z M555,222 l-244,-191 l52,-32 l222,183 Z M555,222" fill="rgb(0,0,0)" transform="matrix(0.1,0.0,0.0,-0.1,7.0,135.0)"/>
</svg>