<?xml version="1.0" encoding="UTF-8"?>
<svg height="200.0" version="1.1" width="150.0" xmlns="http://www.w3.org/2000/svg" xmlns:xlink="http://www.w3.org/1999/xlink">
 <path d="M0,0 l150,0 l0,200 l-150,0 Z M0,0" fill="rgb(255,255,255)" transform="matrix(1,0,0,-1,0.0,200.0)"/>
 <path d="M0,0 l150,0" fill="none" stroke="rgb(229,229,229)" stroke-width="2" transform="matrix(1,0,0,-1,0.0,135.0)"/>
 <path d="M0,1 l0,-5" fill="none" stroke="rgb(204,204,204)" stroke-width="2" transform="matrix(1,0,0,-1,7.0,135.0)"/>
 <path d="M0,1 l0,-5" fill="none" stroke="rgb(204,204,204)" stroke-width="2" transform="matrix(1,0,0,-1,142.0,135.0)"/>
 <path d="M759,348 c-39,0,-59,20,-72,42 l-4,9 c-30,41,-80,65,-133,65 c-74,0,-117,-35,-136,-62 l-4,0 l0,180 l403,0 l0,-170 c0,-46,-21,-64,-54,-64 Z M353,195 l0,-195 l57,0 l0,274 c0,81,52,135,128,135 c46,0,81,-21,98,-56 c24,-185,136,-317,317,-317 c103,0,185,47,232,107 l4,0 l0,-143 l57,0 l0,582 l125,0 l0,52 l-1391,0 l0,-52 l373,0 l0,-259 c0,-81,-52,-135,-128,-135 c-68,0,-113,47,-113,112 c0,90,79,121,152,109 l-9,55 c-105,15,-205,-50,-205,-166 c0,-99,77,-165,164,-165 c74,0,116,35,135,62 Z M1184,453 c-19,20,-48,38,-101,38 c-82,0,-151,-62,-151,-151 c0,-93,73,-146,143,-149 l31,47 c-75,3,-116,46,-116,102 c0,58,40,96,98,96 c53,0,103,-42,103,-118 c0,-146,-112,-227,-239,-227 c-120,0,-220,76,-248,220 c13,-7,30,-13,62,-13 c59,0,105,43,105,115 l0,169 l317,0 l0,-129 Z M1184,453" fill="rgb(0,0,0)" transform="matrix(0.1,0.0,0.0,-0.1,7.0,135.0)"/>
</svg>