<?xml version="1.0" encoding="UTF-8"?>
<svg height="200.0" version="1.1" width="122.0" xmlns="http://www.w3.org/2000/svg" xmlns:xlink="http://www.w3.org/1999/xlink">
 <path d="M0,0 l122,0 l0,200 l-122,0 Z M0,0" fill="rgb(255,255,255)" transform="matrix(1,0,0,-1,0.0,200.0)"/>
 <path d="M0,0 l122,0" fill="none" stroke="rgb(229,229,229)" stroke-width="2" transform="matrix(1,0,0,-1,0.0,135.0)"/>
 <path d="M0,1 l0,-5" fill="none" stroke="rgb(204,204,204)" stroke-width="2" transform="matrix(1,0,0,-1,7.0,135.0)"/>
 <path d="M0,1 l0,-5" fill="none" stroke="rgb(204,204,204)" stroke-width="2" transform="matrix(1,0,0,-1,115.0,135.0)"/>
 <path d="M1003,-108 l68,18 l-140,141 c47,9,90,29,122,62 l-35,47 c-32,-34,-78,-60,-155,-60 c-103,0,-168,75,-168,151 c0,59,21,93,115,122 l144,44 l0,165 l141,0 l0,52 l-1115,0 l0,-52 l373,0 l0,-259 c0,-81,-52,-135,-128,-135 c-68,0,-113,47,-113,112 c0,90,79,121,152,109 l-9,55 c-105,15,-205,-50,-205,-166 c0,-99,77,-165,164,-165 c74,0,116,35,135,62 l4,0 l0,-195 l57,0 l0,274 c0,81,52,135,128,135 c65,0,98,-40,110,-78 c-10,-20,-15,-43,-15,-70 c0,-94,71,-183,175,-209 l-141,-142 l68,-18 l134,153 Z M550,464 c-74,0,-117,-35,-136,-62 l-4,0 l0,180 l486,0 l0,-124 l-129,-40 c-32,-10,-58,-23,-78,-38 c-21,44,-66,84,-139,84 Z M550,464" fill="rgb(0,0,0)" transform="matrix(0.1,0.0,0.0,-0.1,7.0,135.0)"/>
</svg>