<?xml version="1.0" encoding="UTF-8"?>
<svg height="200.0" version="1.1" width="144.0" xmlns="http://www.w3.org/2000/svg" xmlns:xlink="http://www.w3.org/1999/xlink">
 <path d="M0,0 l144,0 l0,200 l-144,0 Z M0,0" fill="rgb(255,255,255)" transform="matrix(1,0,0,-1,0.0,200.0)"/>
 <path d="M0,0 l144,0" fill="none" stroke="rgb(229,229,229)" stroke-width="2" transform="matrix(1,0,0,-1,0.0,135.0)"/>
 <path d="M0,1 l0,-5" fill="none" stroke="rgb(204,204,204)" stroke-width="2" transform="matrix(1,0,0,-1,7.0,135.0)"/>
 <path d="M0,1 l0,-5" fill="none" stroke="rgb(204,204,204)" stroke-width="2" transform="matrix(1,0,0,-1,137.0,135.0)"/>
 <path d="M414,402 l-4,0 l0,180 l230,0 l0,-143 c-27,16,-58,25,-90,25 c-74,0,-117,-35,-136,-62 Z M353,195 l0,-195 l57,0 l0,274 c0,81,52,135,128,135 c47,0,82,-22,102,-54 l0,-12 c0,-101,66,-158,155,-158 c89,0,155,57,155,158 l0,239 l183,0 l0,-582 l58,0 l0,582 l125,0 l0,52 l-1336,0 l0,-52 l373,0 l0,-259 c0,-81,-52,-135,-128,-135 c-68,0,-113,47,-113,112 c0,90,79,121,152,109 l-9,55 c-105,15,-205,-50,-205,-166 c0,-99,77,-165,164,-165 c74,0,116,35,135,62 Z M795,240 c-63,0,-97,40,-97,109 l0,233 l194,0 l0,-233 c0,-69,-34,-109,-97,-109 Z M795,240" fill="rgb(0,0,0)" transform="matrix(0.1,0.0,0.0,-0.1,7.0,135.0)"/>
</svg>