<?xml version="1.0" encoding="UTF-8"?>
<svg height="200.0" version="1.1" width="126.0" xmlns="http://www.w3.org/2000/svg" xmlns:xlink="http://www.w3.org/1999/xlink">
 <path d="M0,0 l126,0 l0,200 l-126,0 Z M0,0" fill="rgb(255,255,255)" transform="matrix(1,0,0,-1,0.0,200.0)"/>
 <path d="M0,0 l126,0" fill="none" stroke="rgb(229,229,229)" stroke-width="2" transform="matrix(1,0,0,-1,0.0,135.0)"/>
 <path d="M0,1 l0,-5" fill="none" stroke="rgb(204,204,204)" stroke-width="2" transform="matrix(1,0,0,-1,7.0,135.0)"/>
 <path d="M0,1 l0,-5" fill="none" stroke="rgb(204,204,204)" stroke-width="2" transform="matrix(1,0,0,-1,118.0,135.0)"/>
 <path d="M550,464 c-74,0,-117,-35,-136,-62 l-4,0 l0,180 l539,0 l0,-153 l-162,0 c-39,0,-74,-11,-101,-32 c-32,43,-82,67,-136,67 Z M794,28 c-61,46,-116,118,-116,224 c0,78,48,123,121,123 l150,0 l0,-375 l58,0 l0,582 l125,0 l0,52 l-1152,0 l0,-52 l373,0 l0,-259 c0,-81,-52,-135,-128,-135 c-68,0,-113,47,-113,112 c0,90,79,121,152,109 l-9,55 c-105,15,-205,-50,-205,-166 c0,-99,77,-165,164,-165 c74,0,116,35,135,62 l4,0 l0,-195 l57,0 l0,274 c0,81,52,135,128,135 c49,0,86,-24,105,-59 c-16,-28,-25,-61,-25,-98 c0,-115,56,-202,126,-258 Z M794,28" fill="rgb(0,0,0)" transform="matrix(0.1,0.0,0.0,-0.1,7.0,135.0)"/>
</svg>