<?xml version="1.0" encoding="UTF-8"?>
<svg height="200.0" version="1.1" width="124.0" xmlns="http://www.w3.org/2000/svg" xmlns:xlink="http://www.w3.org/1999/xlink">
 <path d="M0,0 l124,0 l0,200 l-124,0 Z M0,0" fill="rgb(255,255,255)" transform="matrix(1,0,0,-1,0.0,200.0)"/>
 <path d="M0,0 l124,0" fill="none" stroke="rgb(229,229,229)" stroke-width="2" transform="matrix(1,0,0,-1,0.0,135.0)"/>
 <path d="M0,1 l0,-5" fill="none" stroke="rgb(204,204,204)" stroke-width="2" transform="matrix(1,0,0,-1,7.0,135.0)"/>
 <path d="M0,1 l0,-5" fill="none" stroke="rgb(204,204,204)" stroke-width="2" transform="matrix(1,0,0,-1,117.0,135.0)"/>
 <path d="M940,347 l-4,0 c-22,42,-73,122,-198,122 c-45,0,-80,-11,-108,-25 c-24,13,-52,20,-80,20 c-74,0,-117,-35,-136,-62 l-4,0 l0,180 l530,0 Z M353,195 l0,-195 l57,0 l0,274 c0,81,52,135,128,135 c38,0,68,-15,92,-42 c31,26,70,43,119,43 c93,0,146,-70,161,-124 l-276,-166 l47,-44 l254,163 l4,0 l0,-239 l58,0 l0,582 l125,0 l0,52 l-1142,0 l0,-52 l373,0 l0,-259 c0,-81,-52,-135,-128,-135 c-68,0,-113,47,-113,112 c0,90,79,121,152,109 l-9,55 c-105,15,-205,-50,-205,-166 c0,-99,77,-165,164,-165 c74,0,116,35,135,62 Z M353,195" fill="rgb(0,0,0)" transform="matrix(0.1,0.0,0.0,-0.1,7.0,135.0)"/>
</svg>