<?xml version="1.0" encoding="UTF-8"?>
<svg height="200.0" version="1.1" width="138.0" xmlns="http://www.w3.org/2000/svg" xmlns:xlink="http://www.w3.org/1999/xlink">
 <path d="M0,0 l138,0 l0,200 l-138,0 Z M0,0" fill="rgb(255,255,255)" transform="matrix(1,0,0,-1,0.0,200.0)"/>
 <path d="M0,0 l138,0" fill="none" stroke="rgb(229,229,229)" stroke-width="2" transform="matrix(1,0,0,-1,0.0,135.0)"/>
 <path d="M0,1 l0,-5" fill="none" stroke="rgb(204,204,204)" stroke-width="2" transform="matrix(1,0,0,-1,7.0,135.0)"/>
 <path d="M0,1 l0,-5" fill="none" stroke="rgb(204,204,204)" stroke-width="2" transform="matrix(1,0,0,-1,131.0,135.0)"/>
 <path d="M410,0 l0,274 c0,81,52,135,128,135 c59,0,89,-28,105,-65 c8,-125,93,-233,238,-233 c102,0,165,52,190,92 l4,0 l0,-203 l58,0 l0,582 l125,0 l0,52 l-182,0 l0,-269 c0,-106,-65,-199,-194,-199 c-121,0,-164,101,-169,144 c20,6,39,11,59,17 c133,38,197,99,197,185 c0,76,-53,132,-135,132 c-78,0,-134,-56,-134,-123 c0,-40,18,-69,32,-82 l57,17 c-16,13,-30,40,-30,62 c0,45,32,71,75,71 c47,0,76,-30,76,-75 c0,-57,-24,-98,-175,-141 l-35,-10 c-24,58,-69,101,-150,101 c-74,0,-117,-35,-136,-62 l-4,0 l0,180 l192,0 l0,52 l-622,0 l0,-52 l373,0 l0,-259 c0,-81,-52,-135,-128,-135 c-68,0,-113,47,-113,112 c0,90,79,121,152,109 l-9,55 c-105,15,-205,-50,-205,-166 c0,-99,77,-165,164,-165 c74,0,116,35,135,62 l4,0 l0,-195 Z M410,0" fill="rgb(0,0,0)" transform="matrix(0.1,0.0,0.0,-0.1,7.0,135.0)"/>
</svg>