<?xml version="1.0" encoding="UTF-8"?>
<svg height="200.0" version="1.1" width="124.0" xmlns="http://www.w3.org/2000/svg" xmlns:xlink="http://www.w3.org/1999/xlink">
 <path d="M0,0 l124,0 l0,200 l-124,0 Z M0,0" fill="rgb(255,255,255)" transform="matrix(1,0,0,-1,0.0,200.0)"/>
 <path d="M0,0 l124,0" fill="none" stroke="rgb(229,229,229)" stroke-width="2" transform="matrix(1,0,0,-1,0.0,135.0)"/>
 <path d="M0,1 l0,-5" fill="none" stroke="rgb(204,204,204)" stroke-width="2" transform="matrix(1,0,0,-1,7.0,135.0)"/>
 <path d="M0,1 l0,-5" fill="none" stroke="rgb(204,204,204)" stroke-width="2" transform="matrix(1,0,0,-1,116.0,135.0)"/>
 <path d="M962,431 l0,151 l148,0 l0,52 l-1130,0 l0,-52 l373,0 l0,-259 c0,-81,-52,-135,-128,-135 c-68,0,-113,47,-113,112 c0,90,79,121,152,109 l-9,55 c-105,15,-205,-50,-205,-166 c0,-99,77,-165,164,-165 c74,0,116,35,135,62 l4,0 l0,-195 l57,0 l0,274 c0,81,52,135,128,135 c49,0,85,-24,105,-58 c-11,-21,-16,-44,-16,-70 c0,-94,78,-201,221,-201 c37,0,76,8,103,22 l75,-132 l71,18 l-106,138 c15,13,33,41,33,81 c0,38,-25,66,-43,74 l-46,-17 l0,-103 c-17,-15,-52,-26,-96,-26 c-90,0,-150,66,-150,142 c0,56,27,93,111,114 Z M550,464 c-74,0,-117,-35,-136,-62 l-4,0 l0,180 l494,0 l0,-110 l-129,-32 c-37,-9,-67,-23,-91,-41 c-32,42,-81,65,-134,65 Z M550,464" fill="rgb(0,0,0)" transform="matrix(0.1,0.0,0.0,-0.1,7.0,135.0)"/>
</svg>