<?xml version="1.0" encoding="UTF-8"?>
<svg height="200.0" version="1.1" width="128.0" xmlns="http://www.w3.org/2000/svg" xmlns:xlink="http://www.w3.org/1999/xlink">
 <path d="M0,0 l128,0 l0,200 l-128,0 Z M0,0" fill="rgb(255,255,255)" transform="matrix(1,0,0,-1,0.0,200.0)"/>
 <path d="M0,0 l128,0" fill="none" stroke="rgb(229,229,229)" stroke-width="2" transform="matrix(1,0,0,-1,0.0,135.0)"/>
 <path d="M0,1 l0,-5" fill="none" stroke="rgb(204,204,204)" stroke-width="2" transform="matrix(1,0,0,-1,7.0,135.0)"/>
 <path d="M0,1 l0,-5" fill="none" stroke="rgb(204,204,204)" stroke-width="2" transform="matrix(1,0,0,-1,122.0,135.0)"/>
 <path d="M842,435 c22,0,45,-3,66,-11 l-2,57 c-19,6,-45,8,-66,8 c-67,0,-128,-29,-166,-77 c-32,33,-77,52,-124,52 c-74,0,-117,-35,-136,-62 l-4,0 l0,180 l572,0 l0,-275 c0,-29,-7,-54,-20,-76 l-212,177 c26,17,58,27,92,27 Z M353,195 l0,-195 l57,0 l0,274 c0,81,52,135,128,135 c48,0,84,-23,104,-57 c-5,-18,-8,-36,-8,-56 c0,-112,86,-189,190,-189 c83,0,132,40,154,69 l4,0 l0,-176 l58,0 l0,582 l125,0 l0,52 l-1185,0 l0,-52 l373,0 l0,-259 c0,-81,-52,-135,-128,-135 c-68,0,-113,47,-113,112 c0,90,79,121,152,109 l-9,55 c-105,15,-205,-50,-205,-166 c0,-99,77,-165,164,-165 c74,0,116,35,135,62 Z M831,162 c-85,0,-137,59,-137,136 c0,29,8,54,21,74 l214,-178 c-25,-20,-59,-32,-98,-32 Z M831,162" fill="rgb(0,0,0)" transform="matrix(0.1,0.0,0.0,-0.1,7.0,135.0)"/>
</svg>