<?xml version="1.0" encoding="UTF-8"?>
<svg height="200.0" version="1.1" width="164.0" xmlns="http://www.w3.org/2000/svg" xmlns:xlink="http://www.w3.org/1999/xlink">
 <path d="M0,0 l164,0 l0,200 l-164,0 Z M0,0" fill="rgb(255,255,255)" transform="matrix(1,0,0,-1,0.0,200.0)"/>
 <path d="M0,0 l164,0" fill="none" stroke="rgb(229,229,229)" stroke-width="2" transform="matrix(1,0,0,-1,0.0,135.0)"/>
 <path d="M0,1 l0,-5" fill="none" stroke="rgb(204,204,204)" stroke-width="2" transform="matrix(1,0,0,-1,7.0,135.0)"/>
 <path d="M0,1 l0,-5" fill="none" stroke="rgb(204,204,204)" stroke-width="2" transform="matrix(1,0,0,-1,157.0,135.0)"/>
 <path d="M823,177 c-76,0,-127,52,-127,125 c0,78,60,123,133,122 c15,0,30,-2,45,-6 l-6,57 c-13,2,-26,4,-39,4 c-59,1,-119,-20,-157,-66 c-31,33,-75,51,-122,51 c-74,0,-117,-35,-136,-62 l-4,0 l0,180 l637,0 c28,-23,47,-58,47,-98 c0,-62,-51,-96,-147,-118 c4,-29,11,-55,20,-78 c-15,-51,-58,-111,-144,-111 Z M353,195 l0,-195 l57,0 l0,274 c0,81,52,135,128,135 c47,0,83,-23,103,-56 c-5,-16,-7,-34,-7,-53 c0,-111,87,-178,182,-178 c101,0,155,57,183,108 c41,-56,102,-86,172,-86 c101,0,148,55,164,78 l4,0 l0,-222 l58,0 l0,582 l125,0 l0,52 l-1542,0 l0,-52 l373,0 l0,-259 c0,-81,-52,-135,-128,-135 c-68,0,-113,47,-113,112 c0,90,79,121,152,109 l-9,55 c-105,15,-205,-50,-205,-166 c0,-99,77,-165,164,-165 c74,0,116,35,135,62 Z M1017,335 c80,20,138,71,138,140 c0,48,-18,78,-40,103 l0,4 l225,0 l0,-205 c0,-115,-70,-178,-161,-178 c-109,0,-154,83,-162,136 Z M1017,335" fill="rgb(0,0,0)" transform="matrix(0.1,0.0,0.0,-0.1,7.0,135.0)"/>
</svg>