<?xml version="1.0" encoding="UTF-8"?>
<svg height="200.0" version="1.1" width="146.0" xmlns="http://www.w3.org/2000/svg" xmlns:xlink="http://www.w3.org/1999/xlink">
 <path d="M0,0 l146,0 l0,200 l-146,0 Z M0,0" fill="rgb(255,255,255)" transform="matrix(1,0,0,-1,0.0,200.0)"/>
 <path d="M0,0 l146,0" fill="none" stroke="rgb(229,229,229)" stroke-width="2" transform="matrix(1,0,0,-1,0.0,135.0)"/>
 <path d="M0,1 l0,-5" fill="none" stroke="rgb(204,204,204)" stroke-width="2" transform="matrix(1,0,0,-1,7.0,135.0)"/>
 <path d="M0,1 l0,-5" fill="none" stroke="rgb(204,204,204)" stroke-width="2" transform="matrix(1,0,0,-1,139.0,135.0)"/>
 <path d="M101,19 c0,-24,17,-41,41,-41 c24,0,41,17,41,41 c0,24,-17,41,-41,41 c-24,0,-41,-17,-41,-41 Z M839,441 c-40,9,-59,40,-59,71 c0,46,32,78,85,78 c51,0,102,-41,102,-121 c0,-101,-84,-160,-192,-160 c-23,0,-52,3,-79,9 c-5,79,-67,144,-151,144 c-72,0,-112,-33,-131,-60 l-4,0 l0,180 l192,0 l0,52 l-622,0 l0,-52 l373,0 l0,-259 c0,-81,-52,-135,-128,-135 c-68,0,-113,47,-113,112 c0,78,59,111,122,111 c10,0,20,0,30,-2 l-9,55 c-10,1,-20,2,-30,2 c-93,0,-175,-63,-175,-168 c0,-99,77,-165,164,-165 c74,0,116,35,135,62 l4,0 l0,-195 l57,0 l0,274 c0,81,51,133,123,133 c68,0,106,-52,106,-106 c0,-9,-1,-18,-3,-26 l66,-58 l227,-224 l48,33 l-143,140 c-48,47,-66,60,-93,86 l2,4 c11,-1,22,-1,33,-1 c141,0,251,78,251,214 c0,91,-57,175,-162,175 c-87,0,-145,-59,-145,-132 c0,-54,30,-100,83,-115 Z M1160,0 l58,0 l0,582 l125,0 l0,52 l-183,0 Z M1160,0" fill="rgb(0,0,0)" transform="matrix(0.1,0.0,0.0,-0.1,7.0,135.0)"/>
</svg>