<?xml version="1.0" encoding="UTF-8"?>
<svg height="200.0" version="1.1" width="116.0" xmlns="http://www.w3.org/2000/svg" xmlns:xlink="http://www.w3.org/1999/xlink">
 <path d="M0,0 l116,0 l0,200 l-116,0 Z M0,0" fill="rgb(255,255,255)" transform="matrix(1,0,0,-1,0.0,200.0)"/>
 <path d="M0,0 l116,0" fill="none" stroke="rgb(229,229,229)" stroke-width="2" transform="matrix(1,0,0,-1,0.0,135.0)"/>
 <path d="M0,1 l0,-5" fill="none" stroke="rgb(204,204,204)" stroke-width="2" transform="matrix(1,0,0,-1,5.0,135.0)"/>
 <path d="M0,1 l0,-5" fill="none" stroke="rgb(204,204,204)" stroke-width="2" transform="matrix(1,0,0,-1,110.0,135.0)"/>
 <path d="M482,-67 l-87,137 c15,13,33,41,33,81 c0,35,-25,63,-43,71 l-46,-17 l0,-101 c-17,-14,-49,-24,-93,-24 c-86,0,-140,53,-140,119 c0,70,54,104,155,133 c46,-16,109,-28,172,-28 c46,0,87,4,124,12 c-1,-5,-1,-11,-1,-16 c0,-109,85,-179,178,-179 c78,0,125,37,146,65 l4,0 l0,-186 l58,0 l0,582 l125,0 l0,52 l-553,0 l0,-52 l370,0 l0,-254 c0,-86,-55,-152,-140,-152 c-77,0,-126,55,-126,126 c0,94,86,139,178,116 l-6,57 c-84,16,-183,-15,-219,-100 c-43,-13,-94,-20,-150,-20 c-28,0,-64,5,-87,10 l0,4 c36,15,92,52,92,133 c0,79,-65,142,-158,142 c-101,0,-170,-64,-170,-143 c0,-62,44,-113,96,-137 c-96,-34,-150,-86,-150,-165 c0,-94,74,-174,210,-174 c37,0,74,8,101,21 l54,-124 Z M157,501 c0,51,40,90,107,90 c64,0,103,-36,103,-89 c0,-65,-52,-102,-107,-115 c-64,22,-103,65,-103,114 Z M157,501" fill="rgb(0,0,0)" transform="matrix(0.1,0.0,0.0,-0.1,5.0,135.0)"/>
</svg>