<?xml version="1.0" encoding="UTF-8"?>
<svg height="200.0" version="1.1" width="138.0" xmlns="http://www.w3.org/2000/svg" xmlns:xlink="http://www.w3.org/1999/xlink">
 <path d="M0,0 l138,0 l0,200 l-138,0 Z M0,0" fill="rgb(255,255,255)" transform="matrix(1,0,0,-1,0.0,200.0)"/>
 <path d="M0,0 l138,0" fill="none" stroke="rgb(229,229,229)" stroke-width="2" transform="matrix(1,0,0,-1,0.0,135.0)"/>
 <path d="M0,1 l0,-5" fill="none" stroke="rgb(204,204,204)" stroke-width="2" transform="matrix(1,0,0,-1,7.0,135.0)"/>
 <path d="M0,1 l0,-5" fill="none" stroke="rgb(204,204,204)" stroke-width="2" transform="matrix(1,0,0,-1,132.0,135.0)"/>
 <path d="M709,280 c11,-4,31,-5,40,-5 c31,0,61,9,83,27 c38,-15,98,-26,151,-26 c43,0,70,2,99,9 l0,-285 l58,0 l0,582 l125,0 l0,52 l-1285,0 l0,-52 l373,0 l0,-259 c0,-81,-52,-135,-128,-135 c-68,0,-113,47,-113,112 c0,90,79,121,152,109 l-9,55 c-105,15,-205,-50,-205,-166 c0,-99,77,-165,164,-165 c74,0,116,35,135,62 l4,0 l0,-195 l57,0 l0,244 c0,83,42,142,108,142 c36,0,59,-23,105,-83 l226,-302 l47,32 l-123,163 c-24,32,-44,55,-66,81 Z M984,331 c-40,0,-86,6,-122,17 c4,13,6,26,6,42 l0,192 l214,0 l0,-241 c-25,-6,-58,-10,-98,-10 Z M737,328 c-51,0,-81,28,-95,43 c-40,45,-69,69,-121,69 c-54,0,-91,-30,-107,-58 l-4,0 l0,200 l400,0 l0,-184 c0,-49,-24,-70,-73,-70 Z M737,328" fill="rgb(0,0,0)" transform="matrix(0.1,0.0,0.0,-0.1,7.0,135.0)"/>
</svg>