<?xml version="1.0" encoding="UTF-8"?>
<svg height="200.0" version="1.1" width="170.0" xmlns="http://www.w3.org/2000/svg" xmlns:xlink="http://www.w3.org/1999/xlink">
 <path d="M0,0 l170,0 l0,200 l-170,0 Z M0,0" fill="rgb(255,255,255)" transform="matrix(1,0,0,-1,0.0,200.0)"/>
 <path d="M0,0 l170,0" fill="none" stroke="rgb(229,229,229)" stroke-width="2" transform="matrix(1,0,0,-1,0.0,135.0)"/>
 <path d="M0,1 l0,-5" fill="none" stroke="rgb(204,204,204)" stroke-width="2" transform="matrix(1,0,0,-1,7.0,135.0)"/>
 <path d="M0,1 l0,-5" fill="none" stroke="rgb(204,204,204)" stroke-width="2" transform="matrix(1,0,0,-1,164.0,135.0)"/>
 <path d="M737,328 c-51,0,-81,28,-95,43 c-40,45,-69,69,-121,69 c-54,0,-91,-30,-107,-58 l-4,0 l0,200 l400,0 l0,-184 c0,-49,-24,-70,-73,-70 Z M353,195 l0,-195 l57,0 l0,244 c0,83,42,142,108,142 c36,0,59,-23,105,-83 l226,-302 l47,32 l-123,163 c-24,32,-44,55,-66,81 l2,3 c11,-4,31,-5,40,-5 c31,0,61,9,83,27 c38,-15,98,-26,151,-26 c64,0,99,8,122,15 c28,-61,93,-85,169,-78 l0,-4 l-221,-185 l63,-31 l282,258 l4,0 l0,-251 l58,0 l0,582 l126,0 l0,52 l-1606,0 l0,-52 l373,0 l0,-259 c0,-81,-52,-135,-128,-135 c-68,0,-113,47,-113,112 c0,90,79,121,152,109 l-9,55 c-105,15,-205,-50,-205,-166 c0,-99,77,-165,164,-165 c74,0,116,35,135,62 Z M984,331 c-40,0,-86,6,-122,17 c4,13,6,26,6,42 l0,192 l223,0 l0,-218 c0,-7,0,-14,1,-20 c-24,-7,-58,-13,-108,-13 Z M1402,316 c-26,-23,-86,-54,-142,-54 c-76,0,-111,34,-111,113 l0,207 l253,0 Z M1402,316" fill="rgb(0,0,0)" transform="matrix(0.1,0.0,0.0,-0.1,7.0,135.0)"/>
</svg>