<?xml version="1.0" encoding="UTF-8"?>
<svg height="200.0" version="1.1" width="216.0" xmlns="http://www.w3.org/2000/svg" xmlns:xlink="http://www.w3.org/1999/xlink">
 <path d="M0,0 l216,0 l0,200 l-216,0 Z M0,0" fill="rgb(255,255,255)" transform="matrix(1,0,0,-1,0.0,200.0)"/>
 <path d="M0,0 l216,0" fill="none" stroke="rgb(229,229,229)" stroke-width="2" transform="matrix(1,0,0,-1,0.0,135.0)"/>
 <path d="M0,1 l0,-5" fill="none" stroke="rgb(204,204,204)" stroke-width="2" transform="matrix(1,0,0,-1,7.0,135.0)"/>
 <path d="M0,1 l0,-5" fill="none" stroke="rgb(204,204,204)" stroke-width="2" transform="matrix(1,0,0,-1,208.0,135.0)"/>
 <path d="M985,331 c-41,0,-86,6,-123,18 c4,12,6,26,6,41 l0,192 l209,0 l0,-221 c0,-7,0,-14,1,-21 c-24,-5,-56,-9,-93,-9 Z M1237,202 c56,0,97,17,129,42 c11,-115,87,-202,170,-247 l42,43 c-95,51,-152,130,-152,229 c0,83,44,121,97,121 c55,0,90,-35,90,-104 l0,-94 l58,0 l0,95 c0,72,38,107,90,107 c38,0,72,-21,88,-38 l0,-356 l58,0 l0,582 l125,0 l0,52 l-2052,0 l0,-52 l373,0 l0,-259 c0,-81,-52,-135,-128,-135 c-68,0,-113,47,-113,112 c0,90,79,121,152,109 l-9,55 c-105,15,-205,-50,-205,-166 c0,-99,77,-165,164,-165 c74,0,116,35,135,62 l4,0 l0,-195 l57,0 l0,244 c0,83,42,142,108,142 c36,0,59,-23,105,-83 l226,-302 l47,32 l-123,163 c-24,32,-44,55,-66,81 l2,3 c11,-4,31,-5,40,-5 c31,0,61,9,83,28 c38,-16,98,-27,152,-27 c51,0,84,5,107,11 c26,-57,82,-85,146,-85 Z M1845,414 c-14,16,-44,35,-88,35 c-53,0,-97,-31,-112,-85 l-4,0 c-14,48,-56,81,-122,81 c-66,0,-128,-43,-148,-121 c-25,-33,-65,-67,-128,-67 c-68,0,-108,31,-108,114 l0,211 l714,0 l0,-168 Z M737,328 c-51,0,-81,28,-95,43 c-40,45,-69,69,-121,69 c-54,0,-91,-30,-107,-58 l-4,0 l0,200 l400,0 l0,-184 c0,-49,-24,-70,-73,-70 Z M737,328" fill="rgb(0,0,0)" transform="matrix(0.1,0.0,0.0,-0.1,7.0,135.0)"/>
</svg>