<?xml version="1.0" encoding="UTF-8"?>
<svg height="200.0" version="1.1" width="148.0" xmlns="http://www.w3.org/2000/svg" xmlns:xlink="http://www.w3.org/1999/xlink">
 <path d="M0,0 l148,0 l0,200 l-148,0 Z M0,0" fill="rgb(255,255,255)" transform="matrix(1,0,0,-1,0.0,200.0)"/>
 <path d="M0,0 l148,0" fill="none" stroke="rgb(229,229,229)" stroke-width="2" transform="matrix(1,0,0,-1,0.0,135.0)"/>
 <path d="M0,1 l0,-5" fill="none" stroke="rgb(204,204,204)" stroke-width="2" transform="matrix(1,0,0,-1,6.0,135.0)"/>
 <path d="M0,1 l0,-5" fill="none" stroke="rgb(204,204,204)" stroke-width="2" transform="matrix(1,0,0,-1,140.0,135.0)"/>
 <path d="M391,91 c-120,0,-220,76,-248,220 c13,-7,30,-13,62,-13 c59,0,105,43,105,115 l0,169 l494,0 l0,-170 c0,-46,-21,-64,-54,-64 c-41,0,-62,17,-75,38 c-23,61,-77,105,-150,105 c-87,0,-154,-63,-154,-151 c0,-93,73,-146,143,-149 l33,47 c-75,3,-118,46,-118,102 c0,58,40,96,98,96 c53,0,106,-48,106,-118 c0,-143,-115,-227,-242,-227 Z M1176,143 l4,0 l0,-143 l57,0 l0,582 l125,0 l0,52 l-1371,0 l0,-52 l261,0 l0,-170 c0,-46,-21,-64,-54,-64 c-40,0,-60,21,-73,44 l-52,-18 c17,-196,131,-338,319,-338 c137,0,236,79,276,181 c50,-111,144,-181,276,-181 c103,0,185,47,232,107 Z M1175,453 c-17,20,-51,38,-101,38 c-82,0,-151,-62,-151,-151 c0,-93,73,-146,143,-149 l31,47 c-75,3,-116,46,-116,102 c0,58,40,96,98,96 c53,0,103,-42,103,-118 c0,-146,-112,-227,-239,-227 c-120,0,-222,76,-250,220 c13,-7,32,-13,64,-13 c59,0,105,43,105,115 l0,169 l317,0 l0,-129 Z M1175,453" fill="rgb(0,0,0)" transform="matrix(0.1,0.0,0.0,-0.1,6.0,135.0)"/>
</svg>