<?xml version="1.0" encoding="UTF-8"?>
<svg height="200.0" version="1.1" width="128.0" xmlns="http://www.w3.org/2000/svg" xmlns:xlink="http://www.w3.org/1999/xlink">
 <path d="M0,0 l128,0 l0,200 l-128,0 Z M0,0" fill="rgb(255,255,255)" transform="matrix(1,0,0,-1,0.0,200.0)"/>
 <path d="M0,0 l128,0" fill="none" stroke="rgb(229,229,229)" stroke-width="2" transform="matrix(1,0,0,-1,0.0,135.0)"/>
 <path d="M0,1 l0,-5" fill="none" stroke="rgb(204,204,204)" stroke-width="2" transform="matrix(1,0,0,-1,7.0,135.0)"/>
 <path d="M0,1 l0,-5" fill="none" stroke="rgb(204,204,204)" stroke-width="2" transform="matrix(1,0,0,-1,121.0,135.0)"/>
 <path d="M380,91 c-120,0,-220,76,-248,220 c13,-7,30,-13,62,-13 c59,0,105,43,105,115 l0,169 l390,0 l0,-252 l-13,-9 c0,91,-63,170,-162,170 c-87,0,-154,-63,-154,-151 c0,-93,73,-146,143,-149 l33,47 c-75,3,-118,46,-118,102 c0,58,40,96,98,96 c53,0,104,-48,104,-118 c0,-143,-113,-227,-240,-227 Z M978,582 l0,-251 l-231,0 l0,251 Z M1036,0 l0,582 l125,0 l0,52 l-1181,0 l0,-52 l261,0 l0,-170 c0,-46,-21,-64,-54,-64 c-40,0,-60,21,-73,44 l-52,-18 c17,-196,131,-338,319,-338 c140,0,241,83,279,188 c9,-20,22,-38,36,-50 l51,0 l0,103 l231,0 l0,-277 Z M1036,0" fill="rgb(0,0,0)" transform="matrix(0.1,0.0,0.0,-0.1,7.0,135.0)"/>
</svg>