<?xml version="1.0" encoding="UTF-8"?>
<svg height="200.0" version="1.1" width="130.0" xmlns="http://www.w3.org/2000/svg" xmlns:xlink="http://www.w3.org/1999/xlink">
 <path d="M0,0 l130,0 l0,200 l-130,0 Z M0,0" fill="rgb(255,255,255)" transform="matrix(1,0,0,-1,0.0,200.0)"/>
 <path d="M0,0 l130,0" fill="none" stroke="rgb(229,229,229)" stroke-width="2" transform="matrix(1,0,0,-1,0.0,135.0)"/>
 <path d="M0,1 l0,-5" fill="none" stroke="rgb(204,204,204)" stroke-width="2" transform="matrix(1,0,0,-1,6.0,135.0)"/>
 <path d="M0,1 l0,-5" fill="none" stroke="rgb(204,204,204)" stroke-width="2" transform="matrix(1,0,0,-1,123.0,135.0)"/>
 <path d="M391,91 c-120,0,-220,76,-248,220 c13,-7,30,-13,62,-13 c59,0,105,43,105,115 l0,169 l408,0 c28,-23,47,-58,47,-98 c0,-50,-27,-82,-87,-104 c-22,64,-79,111,-153,111 c-87,0,-154,-63,-154,-151 c0,-93,73,-146,143,-149 l33,47 c-75,3,-118,46,-118,102 c0,58,40,96,98,96 c56,0,105,-53,105,-118 c0,-143,-114,-227,-241,-227 Z M1010,222 l0,-222 l58,0 l0,582 l125,0 l0,52 l-1202,0 l0,-52 l261,0 l0,-170 c0,-46,-21,-64,-54,-64 c-40,0,-60,21,-73,44 l-52,-18 c17,-196,131,-338,319,-338 c143,0,247,86,282,196 c39,-57,97,-88,168,-88 c101,0,148,55,164,78 Z M687,335 c80,20,139,71,139,140 c0,48,-18,78,-40,103 l0,4 l225,0 l0,-205 c0,-115,-70,-178,-161,-178 c-107,0,-154,81,-163,134 c0,1,0,1,0,2 Z M687,335" fill="rgb(0,0,0)" transform="matrix(0.1,0.0,0.0,-0.1,6.0,135.0)"/>
</svg>