<?xml version="1.0" encoding="UTF-8"?>
<svg height="200.0" version="1.1" width="146.0" xmlns="http://www.w3.org/2000/svg" xmlns:xlink="http://www.w3.org/1999/xlink">
 <path d="M0,0 l146,0 l0,200 l-146,0 Z M0,0" fill="rgb(255,255,255)" transform="matrix(1,0,0,-1,0.0,200.0)"/>
 <path d="M0,0 l146,0" fill="none" stroke="rgb(229,229,229)" stroke-width="2" transform="matrix(1,0,0,-1,0.0,135.0)"/>
 <path d="M0,1 l0,-5" fill="none" stroke="rgb(204,204,204)" stroke-width="2" transform="matrix(1,0,0,-1,7.0,135.0)"/>
 <path d="M0,1 l0,-5" fill="none" stroke="rgb(204,204,204)" stroke-width="2" transform="matrix(1,0,0,-1,140.0,135.0)"/>
 <path d="M584,582 l0,52 l-604,0 l0,-52 l261,0 l0,-170 c0,-46,-21,-64,-54,-64 c-40,0,-60,21,-73,44 l-52,-18 c17,-196,131,-338,319,-338 c151,0,258,96,287,215 l38,-34 l227,-224 l48,33 l-143,140 c-48,47,-66,60,-93,86 l2,4 c157,-13,284,67,284,213 c0,91,-57,175,-162,175 c-87,0,-145,-59,-145,-132 c0,-54,30,-100,83,-115 l36,44 c-40,9,-59,40,-59,71 c0,46,32,78,85,78 c51,0,102,-41,102,-121 c0,-101,-84,-160,-192,-160 c-30,0,-70,5,-102,15 l-1,-1 c0,89,-63,168,-162,168 c-87,0,-154,-63,-154,-151 c0,-93,73,-146,143,-149 l33,47 c-75,3,-118,46,-118,102 c0,58,40,96,98,96 c53,0,104,-48,104,-118 c0,-143,-113,-227,-240,-227 c-120,0,-220,76,-248,220 c13,-7,30,-13,62,-13 c59,0,105,43,105,115 l0,169 Z M1164,0 l58,0 l0,582 l125,0 l0,52 l-183,0 Z M1164,0" fill="rgb(0,0,0)" transform="matrix(0.1,0.0,0.0,-0.1,7.0,135.0)"/>
</svg>