<?xml version="1.0" encoding="UTF-8"?>
<svg height="200.0" version="1.1" width="138.0" xmlns="http://www.w3.org/2000/svg" xmlns:xlink="http://www.w3.org/1999/xlink">
 <path d="M0,0 l138,0 l0,200 l-138,0 Z M0,0" fill="rgb(255,255,255)" transform="matrix(1,0,0,-1,0.0,200.0)"/>
 <path d="M0,0 l138,0" fill="none" stroke="rgb(229,229,229)" stroke-width="2" transform="matrix(1,0,0,-1,0.0,135.0)"/>
 <path d="M0,1 l0,-5" fill="none" stroke="rgb(204,204,204)" stroke-width="2" transform="matrix(1,0,0,-1,6.0,135.0)"/>
 <path d="M0,1 l0,-5" fill="none" stroke="rgb(204,204,204)" stroke-width="2" transform="matrix(1,0,0,-1,131.0,135.0)"/>
 <path d="M90,0 c0,-24,17,-41,41,-41 c24,0,41,17,41,41 c0,24,-17,41,-41,41 c-24,0,-41,-17,-41,-41 Z M391,91 c-120,0,-220,76,-248,220 c13,-7,30,-13,62,-13 c59,0,105,43,105,115 l0,169 l509,0 l0,-194 c0,-49,-24,-70,-73,-70 c-24,0,-44,7,-60,15 c-6,88,-68,158,-161,158 c-87,0,-154,-63,-154,-151 c0,-93,73,-146,143,-149 l33,47 c-75,3,-118,46,-118,102 c0,58,40,96,98,96 c53,0,104,-48,104,-118 c0,-143,-113,-227,-240,-227 Z M993,331 c-40,0,-84,6,-120,17 c3,9,4,20,4,32 l0,202 l214,0 l0,-240 c-25,-6,-60,-11,-98,-11 Z M905,23 l-123,163 c-24,32,-44,55,-66,81 l2,3 c11,-4,31,-5,40,-5 c36,0,69,11,91,36 c38,-13,94,-22,143,-22 c47,0,78,3,99,8 l0,-287 l58,0 l0,582 l125,0 l0,52 l-1283,0 l0,-52 l261,0 l0,-170 c0,-46,-21,-64,-54,-64 c-40,0,-60,21,-73,44 l-52,-18 c17,-196,131,-338,319,-338 c145,0,248,88,283,199 l183,-244 Z M905,23" fill="rgb(0,0,0)" transform="matrix(0.1,0.0,0.0,-0.1,6.0,135.0)"/>
</svg>