<?xml version="1.0" encoding="UTF-8"?>
<svg height="200.0" version="1.1" width="106.0" xmlns="http://www.w3.org/2000/svg" xmlns:xlink="http://www.w3.org/1999/xlink">
 <path d="M0,0 l106,0 l0,200 l-106,0 Z M0,0" fill="rgb(255,255,255)" transform="matrix(1,0,0,-1,0.0,200.0)"/>
 <path d="M0,0 l106,0" fill="none" stroke="rgb(229,229,229)" stroke-width="2" transform="matrix(1,0,0,-1,0.0,135.0)"/>
 <path d="M0,1 l0,-5" fill="none" stroke="rgb(204,204,204)" stroke-width="2" transform="matrix(1,0,0,-1,7.0,135.0)"/>
 <path d="M0,1 l0,-5" fill="none" stroke="rgb(204,204,204)" stroke-width="2" transform="matrix(1,0,0,-1,100.0,135.0)"/>
 <path d="M946,582 l0,52 l-966,0 l0,-52 l149,0 l0,-213 l-57,-40 c1,-41,17,-85,48,-112 l67,0 l0,365 l244,0 l0,-4 c-19,-8,-49,-36,-49,-85 c0,-64,44,-99,91,-106 l0,-4 c-41,-11,-84,-49,-84,-111 c0,-74,58,-149,183,-149 c109,0,167,55,187,85 l4,0 l0,-208 l58,0 l0,582 Z M573,178 c-89,0,-122,49,-122,95 c0,51,35,85,109,85 l61,0 l0,54 l-62,0 c-81,0,-115,37,-115,83 c0,48,33,87,106,87 l214,0 l0,-225 c0,-100,-68,-179,-191,-179 Z M573,178" fill="rgb(0,0,0)" transform="matrix(0.1,0.0,0.0,-0.1,7.0,135.0)"/>
</svg>