<?xml version="1.0" encoding="UTF-8"?>
<svg height="200.0" version="1.1" width="96.0" xmlns="http://www.w3.org/2000/svg" xmlns:xlink="http://www.w3.org/1999/xlink">
 <path d="M0,0 l96,0 l0,200 l-96,0 Z M0,0" fill="rgb(255,255,255)" transform="matrix(1,0,0,-1,0.0,200.0)"/>
 <path d="M0,0 l96,0" fill="none" stroke="rgb(229,229,229)" stroke-width="2" transform="matrix(1,0,0,-1,0.0,135.0)"/>
 <path d="M0,1 l0,-5" fill="none" stroke="rgb(204,204,204)" stroke-width="2" transform="matrix(1,0,0,-1,7.0,135.0)"/>
 <path d="M0,1 l0,-5" fill="none" stroke="rgb(204,204,204)" stroke-width="2" transform="matrix(1,0,0,-1,88.0,135.0)"/>
 <path d="M438,242 l0,87 l213,0 l0,-329 l58,0 l0,582 l125,0 l0,52 l-854,0 l0,-52 l149,0 l0,-213 l-57,-40 c1,-41,17,-85,48,-112 l67,0 l0,365 l464,0 l0,-199 l-263,0 l-45,-38 c1,-42,22,-92,54,-115 Z M438,242" fill="rgb(0,0,0)" transform="matrix(0.1,0.0,0.0,-0.1,7.0,135.0)"/>
</svg>