<?xml version="1.0" encoding="UTF-8"?>
<svg height="200.0" version="1.1" width="114.0" xmlns="http://www.w3.org/2000/svg" xmlns:xlink="http://www.w3.org/1999/xlink">
 <path d="M0,0 l114,0 l0,200 l-114,0 Z M0,0" fill="rgb(255,255,255)" transform="matrix(1,0,0,-1,0.0,200.0)"/>
 <path d="M0,0 l114,0" fill="none" stroke="rgb(229,229,229)" stroke-width="2" transform="matrix(1,0,0,-1,0.0,135.0)"/>
 <path d="M0,1 l0,-5" fill="none" stroke="rgb(204,204,204)" stroke-width="2" transform="matrix(1,0,0,-1,7.0,135.0)"/>
 <path d="M0,1 l0,-5" fill="none" stroke="rgb(204,204,204)" stroke-width="2" transform="matrix(1,0,0,-1,107.0,135.0)"/>
 <path d="M833,414 c-14,16,-44,35,-88,35 c-53,0,-97,-31,-112,-85 l-4,0 c-14,48,-56,81,-122,81 c-80,0,-154,-63,-154,-175 c0,-127,82,-225,171,-273 l42,43 c-95,51,-152,130,-152,229 c0,83,44,121,97,121 c55,0,90,-35,90,-104 l0,-94 l58,0 l0,95 c0,72,38,107,90,107 c38,0,72,-21,88,-38 l0,-356 l58,0 l0,582 l125,0 l0,52 l-1040,0 l0,-52 l149,0 l0,-213 l-57,-40 c1,-41,17,-85,48,-112 l67,0 l0,365 l650,0 l0,-168 Z M833,414" fill="rgb(0,0,0)" transform="matrix(0.1,0.0,0.0,-0.1,7.0,135.0)"/>
</svg>