<?xml version="1.0" encoding="UTF-8"?>
<svg height="200.0" version="1.1" width="108.0" xmlns="http://www.w3.org/2000/svg" xmlns:xlink="http://www.w3.org/1999/xlink">
 <path d="M0,0 l108,0 l0,200 l-108,0 Z M0,0" fill="rgb(255,255,255)" transform="matrix(1,0,0,-1,0.0,200.0)"/>
 <path d="M0,0 l108,0" fill="none" stroke="rgb(229,229,229)" stroke-width="2" transform="matrix(1,0,0,-1,0.0,135.0)"/>
 <path d="M0,1 l0,-5" fill="none" stroke="rgb(204,204,204)" stroke-width="2" transform="matrix(1,0,0,-1,7.0,135.0)"/>
 <path d="M0,1 l0,-5" fill="none" stroke="rgb(204,204,204)" stroke-width="2" transform="matrix(1,0,0,-1,101.0,135.0)"/>
 <path d="M269,176 c-89,0,-122,48,-122,93 c0,51,35,85,109,85 l61,0 l0,54 l-62,0 c-81,0,-115,39,-115,85 c0,48,33,89,106,89 l244,0 l0,-252 l-47,-34 c0,-13,3,-27,7,-41 c-39,-45,-100,-79,-181,-79 Z M837,0 l0,582 l125,0 l0,52 l-982,0 l0,-52 l147,0 l0,-4 c-19,-8,-49,-38,-49,-87 c0,-64,44,-101,91,-108 l0,-4 c-41,-11,-84,-49,-84,-111 c0,-73,58,-147,183,-147 c89,0,159,33,206,80 c7,-10,15,-20,23,-27 l51,0 l0,103 l231,0 l0,-277 Z M779,582 l0,-251 l-231,0 l0,251 Z M779,582" fill="rgb(0,0,0)" transform="matrix(0.1,0.0,0.0,-0.1,7.0,135.0)"/>
</svg>