<?xml version="1.0" encoding="UTF-8"?>
<svg height="200.0" version="1.1" width="112.0" xmlns="http://www.w3.org/2000/svg" xmlns:xlink="http://www.w3.org/1999/xlink">
 <path d="M0,0 l112,0 l0,200 l-112,0 Z M0,0" fill="rgb(255,255,255)" transform="matrix(1,0,0,-1,0.0,200.0)"/>
 <path d="M0,0 l112,0" fill="none" stroke="rgb(229,229,229)" stroke-width="2" transform="matrix(1,0,0,-1,0.0,135.0)"/>
 <path d="M0,1 l0,-5" fill="none" stroke="rgb(204,204,204)" stroke-width="2" transform="matrix(1,0,0,-1,7.0,135.0)"/>
 <path d="M0,1 l0,-5" fill="none" stroke="rgb(204,204,204)" stroke-width="2" transform="matrix(1,0,0,-1,105.0,135.0)"/>
 <path d="M269,176 c-89,0,-122,48,-122,93 c0,51,35,85,109,85 l61,0 l0,54 l-62,0 c-81,0,-115,39,-115,85 c0,48,33,89,106,89 l275,0 c28,-23,47,-58,47,-98 c0,-62,-51,-96,-147,-118 c5,-40,17,-76,33,-106 c-38,-47,-101,-84,-185,-84 Z M813,222 l0,-222 l58,0 l0,582 l125,0 l0,52 l-1016,0 l0,-52 l147,0 l0,-4 c-19,-8,-49,-38,-49,-87 c0,-64,44,-101,91,-108 l0,-4 c-41,-11,-84,-49,-84,-111 c0,-73,58,-147,183,-147 c97,0,171,39,218,93 c40,-45,96,-70,159,-70 c101,0,148,55,164,78 Z M491,335 c80,20,138,71,138,140 c0,48,-18,78,-40,103 l0,4 l225,0 l0,-205 c0,-115,-70,-178,-161,-178 c-109,0,-154,83,-162,136 Z M491,335" fill="rgb(0,0,0)" transform="matrix(0.1,0.0,0.0,-0.1,7.0,135.0)"/>
</svg>