<?xml version="1.0" encoding="UTF-8"?>
<svg height="200.0" version="1.1" width="116.0" xmlns="http://www.w3.org/2000/svg" xmlns:xlink="http://www.w3.org/1999/xlink">
 <path d="M0,0 l116,0 l0,200 l-116,0 Z M0,0" fill="rgb(255,255,255)" transform="matrix(1,0,0,-1,0.0,200.0)"/>
 <path d="M0,0 l116,0" fill="none" stroke="rgb(229,229,229)" stroke-width="2" transform="matrix(1,0,0,-1,0.0,135.0)"/>
 <path d="M0,1 l0,-5" fill="none" stroke="rgb(204,204,204)" stroke-width="2" transform="matrix(1,0,0,-1,7.0,135.0)"/>
 <path d="M0,1 l0,-5" fill="none" stroke="rgb(204,204,204)" stroke-width="2" transform="matrix(1,0,0,-1,109.0,135.0)"/>
 <path d="M294,123 c105,0,170,45,210,94 c27,-55,88,-94,167,-94 c99,0,155,48,177,80 l4,0 l0,-203 l58,0 l0,582 l125,0 l0,52 l-1055,0 l0,-52 l872,0 l0,-221 c0,-113,-74,-183,-174,-183 c-78,0,-129,47,-129,110 c0,64,45,110,122,110 l83,0 l0,53 l-353,0 l0,-54 l138,0 l0,-4 c-17,-11,-49,-42,-52,-99 c-24,-52,-84,-116,-186,-116 c-82,0,-133,47,-133,110 c0,64,45,109,122,109 l56,0 l0,54 l-328,0 l0,-55 l140,0 l0,-4 c-18,-12,-52,-44,-52,-106 c0,-89,75,-163,188,-163 Z M294,123" fill="rgb(0,0,0)" transform="matrix(0.1,0.0,0.0,-0.1,7.0,135.0)"/>
</svg>