<?xml version="1.0" encoding="UTF-8"?>
<svg height="200.0" version="1.1" width="118.0" xmlns="http://www.w3.org/2000/svg" xmlns:xlink="http://www.w3.org/1999/xlink">
 <path d="M0,0 l118,0 l0,200 l-118,0 Z M0,0" fill="rgb(255,255,255)" transform="matrix(1,0,0,-1,0.0,200.0)"/>
 <path d="M0,0 l118,0" fill="none" stroke="rgb(229,229,229)" stroke-width="2" transform="matrix(1,0,0,-1,0.0,135.0)"/>
 <path d="M0,1 l0,-5" fill="none" stroke="rgb(204,204,204)" stroke-width="2" transform="matrix(1,0,0,-1,7.0,135.0)"/>
 <path d="M0,1 l0,-5" fill="none" stroke="rgb(204,204,204)" stroke-width="2" transform="matrix(1,0,0,-1,111.0,135.0)"/>
 <path d="M849,294 c-45,5,-70,32,-70,70 c0,39,30,64,67,64 c44,0,79,-35,79,-97 c0,-127,-115,-229,-249,-229 c-97,0,-148,54,-148,119 c0,62,45,99,114,99 l24,0 l0,54 l-37,0 c-71,0,-113,40,-113,99 c0,68,52,109,121,109 l197,0 l0,-101 c-67,-5,-113,-56,-113,-117 c0,-54,34,-99,92,-111 Z M676,47 c182,0,308,145,308,284 c0,68,-36,124,-94,143 l0,108 l173,0 l0,52 l-1083,0 l0,-52 l528,0 l0,-4 c-16,-12,-54,-41,-54,-108 c0,-59,38,-107,96,-123 l0,-4 c-28,-11,-56,-33,-72,-67 c-28,-47,-86,-98,-177,-98 c-82,0,-133,47,-133,110 c0,64,45,109,122,109 l58,0 l0,54 l-330,0 l0,-55 l140,0 l0,-4 c-18,-12,-52,-44,-52,-106 c0,-89,75,-163,188,-163 c82,0,138,27,177,62 c16,-76,87,-138,205,-138 Z M676,47" fill="rgb(0,0,0)" transform="matrix(0.1,0.0,0.0,-0.1,7.0,135.0)"/>
</svg>