<?xml version="1.0" encoding="UTF-8"?>
<svg height="200.0" version="1.1" width="106.0" xmlns="http://www.w3.org/2000/svg" xmlns:xlink="http://www.w3.org/1999/xlink">
 <path d="M0,0 l106,0 l0,200 l-106,0 Z M0,0" fill="rgb(255,255,255)" transform="matrix(1,0,0,-1,0.0,200.0)"/>
 <path d="M0,0 l106,0" fill="none" stroke="rgb(229,229,229)" stroke-width="2" transform="matrix(1,0,0,-1,0.0,135.0)"/>
 <path d="M0,1 l0,-5" fill="none" stroke="rgb(204,204,204)" stroke-width="2" transform="matrix(1,0,0,-1,7.0,135.0)"/>
 <path d="M0,1 l0,-5" fill="none" stroke="rgb(204,204,204)" stroke-width="2" transform="matrix(1,0,0,-1,98.0,135.0)"/>
 <path d="M294,123 c120,0,198,62,241,138 l0,68 l213,0 l0,-329 l58,0 l0,582 l125,0 l0,52 l-951,0 l0,-52 l768,0 l0,-199 l-263,0 l-45,-38 c0,-29,10,-60,26,-85 c-31,-42,-86,-82,-165,-82 c-82,0,-133,47,-133,110 c0,64,45,109,122,109 l83,0 l0,54 l-355,0 l0,-55 l140,0 l0,-4 c-18,-12,-52,-44,-52,-106 c0,-89,75,-163,188,-163 Z M294,123" fill="rgb(0,0,0)" transform="matrix(0.1,0.0,0.0,-0.1,7.0,135.0)"/>
</svg>