<?xml version="1.0" encoding="UTF-8"?>
<svg height="200.0" version="1.1" width="116.0" xmlns="http://www.w3.org/2000/svg" xmlns:xlink="http://www.w3.org/1999/xlink">
 <path d="M0,0 l116,0 l0,200 l-116,0 Z M0,0" fill="rgb(255,255,255)" transform="matrix(1,0,0,-1,0.0,200.0)"/>
 <path d="M0,0 l116,0" fill="none" stroke="rgb(229,229,229)" stroke-width="2" transform="matrix(1,0,0,-1,0.0,135.0)"/>
 <path d="M0,1 l0,-5" fill="none" stroke="rgb(204,204,204)" stroke-width="2" transform="matrix(1,0,0,-1,7.0,135.0)"/>
 <path d="M0,1 l0,-5" fill="none" stroke="rgb(204,204,204)" stroke-width="2" transform="matrix(1,0,0,-1,108.0,135.0)"/>
 <path d="M294,123 c114,0,180,53,218,105 c42,-54,102,-84,171,-84 c101,0,148,55,164,78 l4,0 l0,-222 l58,0 l0,582 l125,0 l0,52 l-1054,0 l0,-52 l579,0 c28,-23,47,-58,47,-98 c0,-62,-51,-96,-147,-118 c4,-31,12,-59,22,-84 c-27,-49,-86,-104,-180,-104 c-82,0,-133,47,-133,110 c0,64,45,109,122,109 l83,0 l0,54 l-355,0 l0,-55 l140,0 l0,-4 c-18,-12,-52,-44,-52,-106 c0,-89,75,-163,188,-163 Z M529,335 c80,20,138,71,138,140 c0,48,-18,78,-40,103 l0,4 l225,0 l0,-205 c0,-115,-70,-178,-161,-178 c-109,0,-154,83,-162,136 Z M529,335" fill="rgb(0,0,0)" transform="matrix(0.1,0.0,0.0,-0.1,7.0,135.0)"/>
</svg>