<?xml version="1.0" encoding="UTF-8"?>
<svg height="200.0" version="1.1" width="134.0" xmlns="http://www.w3.org/2000/svg" xmlns:xlink="http://www.w3.org/1999/xlink">
 <path d="M0,0 l134,0 l0,200 l-134,0 Z M0,0" fill="rgb(255,255,255)" transform="matrix(1,0,0,-1,0.0,200.0)"/>
 <path d="M0,0 l134,0" fill="none" stroke="rgb(229,229,229)" stroke-width="2" transform="matrix(1,0,0,-1,0.0,135.0)"/>
 <path d="M0,1 l0,-5" fill="none" stroke="rgb(204,204,204)" stroke-width="2" transform="matrix(1,0,0,-1,7.0,135.0)"/>
 <path d="M0,1 l0,-5" fill="none" stroke="rgb(204,204,204)" stroke-width="2" transform="matrix(1,0,0,-1,128.0,135.0)"/>
 <path d="M443,-109 l68,18 l-143,144 c147,29,245,156,245,278 c0,26,-5,50,-15,71 c47,11,97,19,139,19 c61,0,92,-19,92,-61 c0,-44,-29,-74,-90,-103 l-45,-21 c20,-94,91,-168,200,-168 c75,0,124,42,143,68 l4,0 l0,-136 l58,0 l0,582 l125,0 l0,52 l-1244,0 l0,-52 l157,0 l0,-4 c-16,-12,-54,-41,-54,-108 c0,-59,38,-107,96,-123 l0,-4 c-42,-16,-83,-56,-83,-124 c0,-77,54,-148,153,-167 l-142,-143 l68,-18 l134,153 Z M478,294 c-45,5,-70,32,-70,70 c0,39,30,64,67,64 c44,0,79,-35,79,-97 c0,-127,-115,-229,-249,-229 c-97,0,-147,54,-147,119 c0,62,44,99,113,99 l24,0 l0,54 l-37,0 c-71,0,-113,40,-113,99 c0,68,52,109,121,109 l775,0 l0,-299 c0,-91,-53,-160,-147,-160 c-72,0,-114,48,-125,91 c62,28,121,77,121,146 c0,68,-56,115,-145,115 c-56,0,-127,-12,-180,-28 c-23,21,-54,34,-91,34 c-73,0,-124,-53,-124,-117 c0,-54,34,-99,92,-111 Z M478,294" fill="rgb(0,0,0)" transform="matrix(0.1,0.0,0.0,-0.1,7.0,135.0)"/>
</svg>