<?xml version="1.0" encoding="UTF-8"?>
<svg height="200.0" version="1.1" width="120.0" xmlns="http://www.w3.org/2000/svg" xmlns:xlink="http://www.w3.org/1999/xlink">
 <path d="M0,0 l120,0 l0,200 l-120,0 Z M0,0" fill="rgb(255,255,255)" transform="matrix(1,0,0,-1,0.0,200.0)"/>
 <path d="M0,0 l120,0" fill="none" stroke="rgb(229,229,229)" stroke-width="2" transform="matrix(1,0,0,-1,0.0,135.0)"/>
 <path d="M0,1 l0,-5" fill="none" stroke="rgb(204,204,204)" stroke-width="2" transform="matrix(1,0,0,-1,7.0,135.0)"/>
 <path d="M0,1 l0,-5" fill="none" stroke="rgb(204,204,204)" stroke-width="2" transform="matrix(1,0,0,-1,113.0,135.0)"/>
 <path d="M889,222 l4,0 l0,-222 l58,0 l0,582 l125,0 l0,52 l-1096,0 l0,-52 l621,0 c28,-23,47,-58,47,-98 c0,-52,-36,-84,-104,-106 c-35,48,-93,72,-156,72 l-253,0 l-26,-48 l0,-4 c78,-20,202,-72,202,-173 c0,-65,-51,-103,-124,-103 c-16,0,-34,2,-52,7 l-100,92 c-15,-10,-24,-26,-24,-51 c0,-41,36,-83,114,-90 l140,-156 l69,27 l-147,127 c6,-1,14,-1,20,-1 c94,0,165,56,165,143 c0,102,-97,154,-146,173 l0,4 l159,0 c44,0,98,-11,124,-73 c3,-11,6,-21,10,-30 l0,-1 c36,-95,113,-149,206,-149 c101,0,148,55,164,78 Z M571,335 c80,20,138,71,138,140 c0,48,-18,78,-40,103 l0,4 l225,0 l0,-205 c0,-115,-70,-178,-161,-178 c-109,0,-154,83,-162,136 Z M571,335" fill="rgb(0,0,0)" transform="matrix(0.1,0.0,0.0,-0.1,7.0,135.0)"/>
</svg>