<?xml version="1.0" encoding="UTF-8"?>
<svg height="200.0" version="1.1" width="128.0" xmlns="http://www.w3.org/2000/svg" xmlns:xlink="http://www.w3.org/1999/xlink">
 <path d="M0,0 l128,0 l0,200 l-128,0 Z M0,0" fill="rgb(255,255,255)" transform="matrix(1,0,0,-1,0.0,200.0)"/>
 <path d="M0,0 l128,0" fill="none" stroke="rgb(229,229,229)" stroke-width="2" transform="matrix(1,0,0,-1,0.0,135.0)"/>
 <path d="M0,1 l0,-5" fill="none" stroke="rgb(204,204,204)" stroke-width="2" transform="matrix(1,0,0,-1,7.0,135.0)"/>
 <path d="M0,1 l0,-5" fill="none" stroke="rgb(204,204,204)" stroke-width="2" transform="matrix(1,0,0,-1,122.0,135.0)"/>
 <path d="M376,304 l-169,-34 c-37,10,-70,46,-70,86 c0,36,16,60,75,60 l188,0 l0,166 l292,0 c28,-23,47,-58,47,-98 c0,-62,-51,-96,-147,-118 c4,-26,10,-51,18,-73 c-23,-9,-57,-18,-97,-18 c-60,0,-109,14,-137,29 Z M387,178 c0,-69,-68,-101,-140,-101 l-39,0 l-123,87 c-9,-6,-22,-21,-22,-43 c0,-45,45,-91,144,-94 l152,-138 l65,34 l-151,104 l-4,2 c82,1,176,50,176,150 c0,21,-4,39,-10,55 c24,-8,52,-14,83,-14 c52,0,90,11,117,23 c41,-64,105,-99,181,-99 c101,0,148,55,164,78 l4,0 l0,-222 l58,0 l0,582 l125,0 l0,52 l-1187,0 l0,-52 l363,0 l0,-113 l-158,0 c-67,0,-109,-42,-109,-102 c0,-77,59,-135,119,-154 l161,32 c13,-9,31,-30,31,-67 Z M662,335 c80,20,138,71,138,140 c0,48,-18,78,-40,103 l0,4 l225,0 l0,-205 c0,-115,-70,-178,-161,-178 c-109,0,-154,83,-162,136 Z M662,335" fill="rgb(0,0,0)" transform="matrix(0.1,0.0,0.0,-0.1,7.0,135.0)"/>
</svg>