<?xml version="1.0" encoding="UTF-8"?>
<svg height="200.0" version="1.1" width="124.0" xmlns="http://www.w3.org/2000/svg" xmlns:xlink="http://www.w3.org/1999/xlink">
 <path d="M0,0 l124,0 l0,200 l-124,0 Z M0,0" fill="rgb(255,255,255)" transform="matrix(1,0,0,-1,0.0,200.0)"/>
 <path d="M0,0 l124,0" fill="none" stroke="rgb(229,229,229)" stroke-width="2" transform="matrix(1,0,0,-1,0.0,135.0)"/>
 <path d="M0,1 l0,-5" fill="none" stroke="rgb(204,204,204)" stroke-width="2" transform="matrix(1,0,0,-1,7.0,135.0)"/>
 <path d="M0,1 l0,-5" fill="none" stroke="rgb(204,204,204)" stroke-width="2" transform="matrix(1,0,0,-1,117.0,135.0)"/>
 <path d="M145,401 c19,11,44,20,77,20 c70,0,120,-44,120,-121 c0,-84,-62,-131,-130,-131 c-83,0,-128,50,-157,94 l-43,-38 c30,-49,96,-111,199,-111 c106,0,184,70,191,171 c28,-7,61,-10,90,-10 c33,0,61,4,82,7 c0,-85,75,-159,184,-159 c99,0,155,48,177,80 l4,0 l0,-203 l58,0 l0,582 l125,0 l0,52 l-1142,0 l0,-52 l959,0 l0,-221 c0,-113,-74,-183,-174,-183 c-78,0,-129,47,-129,110 c0,64,45,110,122,110 l83,0 l0,53 l-355,0 l0,-54 l140,0 l0,-4 c-11,-7,-29,-23,-40,-49 c-23,-6,-61,-13,-108,-13 c-25,0,-54,3,-78,8 c-16,82,-82,137,-175,137 c-50,0,-81,-15,-101,-26 Z M145,401" fill="rgb(0,0,0)" transform="matrix(0.1,0.0,0.0,-0.1,7.0,135.0)"/>
</svg>