<?xml version="1.0" encoding="UTF-8"?>
<svg height="200.0" version="1.1" width="128.0" xmlns="http://www.w3.org/2000/svg" xmlns:xlink="http://www.w3.org/1999/xlink">
 <path d="M0,0 l128,0 l0,200 l-128,0 Z M0,0" fill="rgb(255,255,255)" transform="matrix(1,0,0,-1,0.0,200.0)"/>
 <path d="M0,0 l128,0" fill="none" stroke="rgb(229,229,229)" stroke-width="2" transform="matrix(1,0,0,-1,0.0,135.0)"/>
 <path d="M0,1 l0,-5" fill="none" stroke="rgb(204,204,204)" stroke-width="2" transform="matrix(1,0,0,-1,7.0,135.0)"/>
 <path d="M0,1 l0,-5" fill="none" stroke="rgb(204,204,204)" stroke-width="2" transform="matrix(1,0,0,-1,121.0,135.0)"/>
 <path d="M145,401 c19,11,44,20,77,20 c70,0,120,-44,120,-121 c0,-84,-62,-131,-130,-131 c-83,0,-128,50,-157,94 l-43,-38 c30,-49,96,-111,199,-111 c102,0,179,65,191,162 c27,-8,61,-11,90,-11 c27,0,51,2,77,7 c-6,-16,-10,-33,-10,-53 c0,-90,74,-172,209,-172 c182,0,308,145,308,284 c0,68,-36,124,-94,143 l0,108 l173,0 l0,52 l-1175,0 l0,-52 l620,0 l0,-4 c-16,-12,-54,-41,-54,-108 c0,-59,38,-107,96,-123 l0,-4 c-2,-1,-3,-1,-5,-2 c-62,-18,-109,-20,-159,-20 c-24,0,-53,3,-77,8 c-11,87,-79,147,-176,147 c-50,0,-81,-15,-101,-26 Z M941,294 c-45,5,-70,32,-70,70 c0,39,30,64,67,64 c44,0,79,-35,79,-97 c0,-127,-115,-229,-249,-229 c-97,0,-147,54,-147,119 c0,62,44,99,113,99 l24,0 l0,54 l-37,0 c-71,0,-113,40,-113,99 c0,68,52,109,121,109 l197,0 l0,-101 c-67,-5,-113,-56,-113,-117 c0,-54,34,-99,92,-111 Z M941,294" fill="rgb(0,0,0)" transform="matrix(0.1,0.0,0.0,-0.1,7.0,135.0)"/>
</svg>