<?xml version="1.0" encoding="UTF-8"?>
<svg height="200.0" version="1.1" width="136.0" xmlns="http://www.w3.org/2000/svg" xmlns:xlink="http://www.w3.org/1999/xlink">
 <path d="M0,0 l136,0 l0,200 l-136,0 Z M0,0" fill="rgb(255,255,255)" transform="matrix(1,0,0,-1,0.0,200.0)"/>
 <path d="M0,0 l136,0" fill="none" stroke="rgb(229,229,229)" stroke-width="2" transform="matrix(1,0,0,-1,0.0,135.0)"/>
 <path d="M0,1 l0,-5" fill="none" stroke="rgb(204,204,204)" stroke-width="2" transform="matrix(1,0,0,-1,7.0,135.0)"/>
 <path d="M0,1 l0,-5" fill="none" stroke="rgb(204,204,204)" stroke-width="2" transform="matrix(1,0,0,-1,129.0,135.0)"/>
 <path d="M500,634 l-520,0 l0,-52 l520,0 Z M552,336 c-21,-4,-44,-5,-74,-5 c-25,0,-54,3,-78,8 c-16,82,-82,137,-175,137 c-50,0,-81,-15,-101,-26 l21,-49 c19,11,44,20,77,20 c70,0,120,-44,120,-121 c0,-84,-62,-131,-130,-131 c-83,0,-128,50,-157,94 l-43,-38 c30,-49,96,-111,199,-111 c106,0,184,70,191,172 c31,-8,70,-12,100,-12 c11,0,22,1,32,2 l65,-59 l227,-224 l48,33 l-143,140 c-48,47,-66,60,-93,86 l2,4 c157,-13,284,67,284,213 c0,91,-57,175,-162,175 c-87,0,-145,-59,-145,-132 c0,-54,30,-100,83,-115 l36,44 c-40,9,-59,40,-59,71 c0,46,32,78,85,78 c51,0,102,-41,102,-121 c0,-101,-84,-160,-192,-160 c-29,0,-68,5,-100,14 Z M1057,0 l58,0 l0,582 l125,0 l0,52 l-183,0 Z M1057,0" fill="rgb(0,0,0)" transform="matrix(0.1,0.0,0.0,-0.1,7.0,135.0)"/>
</svg>