<?xml version="1.0" encoding="UTF-8"?>
<svg height="200.0" version="1.1" width="70.0" xmlns="http://www.w3.org/2000/svg" xmlns:xlink="http://www.w3.org/1999/xlink">
 <path d="M0,0 l70,0 l0,200 l-70,0 Z M0,0" fill="rgb(255,255,255)" transform="matrix(1,0,0,-1,0.0,200.0)"/>
 <path d="M0,0 l70,0" fill="none" stroke="rgb(229,229,229)" stroke-width="2" transform="matrix(1,0,0,-1,0.0,135.0)"/>
 <path d="M0,1 l0,-5" fill="none" stroke="rgb(204,204,204)" stroke-width="2" transform="matrix(1,0,0,-1,7.0,135.0)"/>
 <path d="M0,1 l0,-5" fill="none" stroke="rgb(204,204,204)" stroke-width="2" transform="matrix(1,0,0,-1,65.0,135.0)"/>
 <path d="M523,254 l-29,47 c-34,-26,-98,-60,-193,-60 c-118,0,-179,58,-179,112 c0,46,33,78,110,90 l190,29 l0,110 l166,0 l0,52 l-608,0 l0,-52 l386,0 l0,-68 l-157,-23 c-91,-13,-149,-64,-149,-137 c0,-84,84,-167,242,-167 c15,0,29,1,44,2 l0,-74 l-135,-27 c-87,-17,-138,-66,-138,-136 c0,-89,89,-171,236,-171 c162,0,246,83,246,173 c0,95,-74,142,-153,159 l0,86 c48,12,91,32,121,55 Z M307,-165 c-113,0,-173,63,-173,118 c0,46,32,71,100,85 l137,29 c68,-10,124,-46,124,-108 c0,-67,-63,-124,-188,-124 Z M307,-165" fill="rgb(0,0,0)" transform="matrix(0.1,0.0,0.0,-0.1,7.0,135.0)"/>
</svg>