<?xml version="1.0" encoding="UTF-8"?>
<svg height="200.0" version="1.1" width="118.0" xmlns="http://www.w3.org/2000/svg" xmlns:xlink="http://www.w3.org/1999/xlink">
 <path d="M0,0 l118,0 l0,200 l-118,0 Z M0,0" fill="rgb(255,255,255)" transform="matrix(1,0,0,-1,0.0,200.0)"/>
 <path d="M0,0 l118,0" fill="none" stroke="rgb(229,229,229)" stroke-width="2" transform="matrix(1,0,0,-1,0.0,135.0)"/>
 <path d="M0,1 l0,-5" fill="none" stroke="rgb(204,204,204)" stroke-width="2" transform="matrix(1,0,0,-1,7.0,135.0)"/>
 <path d="M0,1 l0,-5" fill="none" stroke="rgb(204,204,204)" stroke-width="2" transform="matrix(1,0,0,-1,110.0,135.0)"/>
 <path d="M926,0 l0,582 l125,0 l0,52 l-1071,0 l0,-52 l333,0 l0,-154 l-129,-40 c-89,-28,-134,-76,-134,-157 c0,-112,100,-216,237,-216 c69,0,137,21,183,68 l-35,47 c-32,-34,-78,-60,-155,-60 c-103,0,-168,75,-168,151 c0,59,21,93,115,122 l144,44 c65,18,141,34,193,34 c61,0,92,-20,92,-61 c0,-37,-29,-74,-90,-103 l-45,-21 c17,-92,87,-168,200,-168 c75,0,124,42,143,68 l4,0 l0,-136 Z M371,440 l0,142 l497,0 l0,-296 c0,-89,-50,-163,-147,-163 c-75,0,-113,47,-125,91 c62,28,121,75,121,146 c0,68,-61,115,-145,115 c-54,0,-145,-18,-201,-35 Z M371,440" fill="rgb(0,0,0)" transform="matrix(0.1,0.0,0.0,-0.1,7.0,135.0)"/>
</svg>