<?xml version="1.0" encoding="UTF-8"?>
<svg height="200.0" version="1.1" width="68.0" xmlns="http://www.w3.org/2000/svg" xmlns:xlink="http://www.w3.org/1999/xlink">
 <path d="M0,0 l68,0 l0,200 l-68,0 Z M0,0" fill="rgb(255,255,255)" transform="matrix(1,0,0,-1,0.0,200.0)"/>
 <path d="M0,0 l68,0" fill="none" stroke="rgb(229,229,229)" stroke-width="2" transform="matrix(1,0,0,-1,0.0,135.0)"/>
 <path d="M0,1 l0,-5" fill="none" stroke="rgb(204,204,204)" stroke-width="2" transform="matrix(1,0,0,-1,7.0,135.0)"/>
 <path d="M0,1 l0,-5" fill="none" stroke="rgb(204,204,204)" stroke-width="2" transform="matrix(1,0,0,-1,60.0,135.0)"/>
 <path d="M417,426 l0,156 l134,0 l0,52 l-571,0 l0,-52 l381,0 l0,-114 l-157,-23 c-91,-13,-149,-64,-149,-137 c0,-52,32,-104,94,-135 l0,-4 c-45,-19,-93,-63,-93,-141 c0,-87,65,-163,168,-163 c78,0,121,39,133,57 l4,0 l0,-111 l56,0 l0,348 c40,12,75,29,101,49 l-29,47 c-34,-26,-98,-60,-193,-60 c-118,0,-179,58,-179,112 c0,46,33,78,110,90 Z M235,-81 c-79,0,-118,53,-118,112 c0,60,40,114,132,114 c47,0,83,-7,112,-14 l0,-82 c0,-77,-50,-130,-126,-130 Z M235,-81" fill="rgb(0,0,0)" transform="matrix(0.1,0.0,0.0,-0.1,7.0,135.0)"/>
</svg>