<?xml version="1.0" encoding="UTF-8"?>
<svg height="200.0" version="1.1" width="126.0" xmlns="http://www.w3.org/2000/svg" xmlns:xlink="http://www.w3.org/1999/xlink">
 <path d="M0,0 l126,0 l0,200 l-126,0 Z M0,0" fill="rgb(255,255,255)" transform="matrix(1,0,0,-1,0.0,200.0)"/>
 <path d="M0,0 l126,0" fill="none" stroke="rgb(229,229,229)" stroke-width="2" transform="matrix(1,0,0,-1,0.0,135.0)"/>
 <path d="M0,1 l0,-5" fill="none" stroke="rgb(204,204,204)" stroke-width="2" transform="matrix(1,0,0,-1,7.0,135.0)"/>
 <path d="M0,1 l0,-5" fill="none" stroke="rgb(204,204,204)" stroke-width="2" transform="matrix(1,0,0,-1,120.0,135.0)"/>
 <path d="M958,136 l4,0 l0,-136 l58,0 l0,582 l126,0 l0,52 l-1166,0 l0,-52 l333,0 l0,-125 l-127,-40 c-89,-28,-136,-76,-136,-158 c0,-119,99,-214,233,-214 c134,0,231,85,231,200 c0,58,-24,101,-54,133 c55,21,130,45,199,45 c66,0,90,-26,90,-64 c0,-44,-30,-75,-91,-104 l-45,-21 c17,-92,87,-168,200,-168 c75,0,126,44,145,70 Z M813,121 c-75,0,-113,47,-125,91 c60,30,122,75,122,147 c0,67,-54,118,-143,118 c-98,0,-204,-38,-258,-60 c-14,8,-26,14,-38,19 l0,146 l591,0 l0,-296 c0,-89,-52,-165,-149,-165 Z M276,100 c-105,0,-165,75,-165,150 c0,60,22,95,116,124 l80,25 c44,-6,146,-49,146,-148 c0,-79,-55,-151,-177,-151 Z M276,100" fill="rgb(0,0,0)" transform="matrix(0.1,0.0,0.0,-0.1,7.0,135.0)"/>
</svg>