<?xml version="1.0" encoding="UTF-8"?>
<svg height="200.0" version="1.1" width="74.0" xmlns="http://www.w3.org/2000/svg" xmlns:xlink="http://www.w3.org/1999/xlink">
 <path d="M0,0 l74,0 l0,200 l-74,0 Z M0,0" fill="rgb(255,255,255)" transform="matrix(1,0,0,-1,0.0,200.0)"/>
 <path d="M0,0 l74,0" fill="none" stroke="rgb(229,229,229)" stroke-width="2" transform="matrix(1,0,0,-1,0.0,135.0)"/>
 <path d="M0,1 l0,-5" fill="none" stroke="rgb(204,204,204)" stroke-width="2" transform="matrix(1,0,0,-1,7.0,135.0)"/>
 <path d="M0,1 l0,-5" fill="none" stroke="rgb(204,204,204)" stroke-width="2" transform="matrix(1,0,0,-1,67.0,135.0)"/>
 <path d="M300,185 c-134,0,-178,62,-178,107 c0,48,40,76,99,88 l146,31 c63,-5,122,-38,122,-102 c0,-69,-62,-124,-189,-124 Z M467,-202 l0,375 c54,32,82,81,82,131 c0,90,-70,136,-142,153 l0,125 l208,0 l0,52 l-635,0 l0,-52 l371,0 l0,-121 l-153,-31 c-81,-16,-137,-66,-137,-132 c0,-63,44,-120,126,-148 c-41,-21,-81,-64,-81,-135 c0,-87,65,-163,168,-163 c78,0,121,39,133,57 l4,0 l0,-111 Z M167,18 c0,60,40,114,132,114 c47,0,83,-7,112,-14 l0,-82 c0,-77,-50,-130,-126,-130 c-79,0,-118,53,-118,112 Z M167,18" fill="rgb(0,0,0)" transform="matrix(0.1,0.0,0.0,-0.1,7.0,135.0)"/>
</svg>