<?xml version="1.0" encoding="UTF-8"?>
<svg height="200.0" version="1.1" width="70.0" xmlns="http://www.w3.org/2000/svg" xmlns:xlink="http://www.w3.org/1999/xlink">
 <path d="M0,0 l70,0 l0,200 l-70,0 Z M0,0" fill="rgb(255,255,255)" transform="matrix(1,0,0,-1,0.0,200.0)"/>
 <path d="M0,0 l70,0" fill="none" stroke="rgb(229,229,229)" stroke-width="2" transform="matrix(1,0,0,-1,0.0,135.0)"/>
 <path d="M0,1 l0,-5" fill="none" stroke="rgb(204,204,204)" stroke-width="2" transform="matrix(1,0,0,-1,8.0,135.0)"/>
 <path d="M0,1 l0,-5" fill="none" stroke="rgb(204,204,204)" stroke-width="2" transform="matrix(1,0,0,-1,63.0,135.0)"/>
 <path d="M49,255 c24,-31,53,-59,93,-80 c-20,-16,-31,-40,-31,-65 c0,-56,43,-106,106,-119 l179,31 c11,-8,20,-21,20,-42 c0,-41,-38,-87,-127,-87 c-100,0,-160,42,-202,97 l-38,-32 c48,-62,130,-116,240,-116 c95,0,182,48,182,138 c0,43,-24,81,-55,97 l-192,-33 c-40,5,-58,37,-58,60 c0,24,11,39,30,49 c28,-8,64,-13,98,-13 c95,0,177,47,177,137 c0,43,-24,82,-55,98 l-191,-33 c-40,5,-59,36,-59,59 c0,22,11,47,54,47 l203,0 l0,134 l152,0 l0,52 l-605,0 l0,-52 l399,0 l0,-84 l-168,0 c-64,0,-93,-45,-93,-88 c0,-56,47,-108,110,-121 l178,31 c11,-8,20,-22,20,-43 c0,-40,-33,-85,-127,-85 c-100,0,-161,42,-203,97 Z M49,255" fill="rgb(0,0,0)" transform="matrix(0.1,0.0,0.0,-0.1,8.0,135.0)"/>
</svg>