<?xml version="1.0" encoding="UTF-8"?>
<svg height="200.0" version="1.1" width="70.0" xmlns="http://www.w3.org/2000/svg" xmlns:xlink="http://www.w3.org/1999/xlink">
 <path d="M0,0 l70,0 l0,200 l-70,0 Z M0,0" fill="rgb(255,255,255)" transform="matrix(1,0,0,-1,0.0,200.0)"/>
 <path d="M0,0 l70,0" fill="none" stroke="rgb(229,229,229)" stroke-width="2" transform="matrix(1,0,0,-1,0.0,135.0)"/>
 <path d="M0,1 l0,-5" fill="none" stroke="rgb(204,204,204)" stroke-width="2" transform="matrix(1,0,0,-1,7.0,135.0)"/>
 <path d="M0,1 l0,-5" fill="none" stroke="rgb(204,204,204)" stroke-width="2" transform="matrix(1,0,0,-1,62.0,135.0)"/>
 <path d="M476,285 c0,43,-24,80,-55,96 l-191,-33 c-40,5,-59,40,-59,63 c0,22,11,45,54,45 l203,0 l0,126 l142,0 l0,52 l-590,0 l0,-52 l394,0 l0,-76 l-168,0 c-64,0,-94,-45,-94,-88 c0,-56,48,-108,111,-121 l177,31 c11,-8,20,-22,20,-43 c0,-40,-32,-87,-126,-87 c-100,0,-162,42,-204,97 l-38,-32 c31,-41,75,-76,132,-97 c-67,-18,-109,-71,-109,-135 c0,-89,81,-189,229,-189 c107,0,159,63,159,132 c0,53,-41,105,-111,105 c-81,0,-114,-65,-109,-108 l59,-22 c-9,34,7,77,54,77 c35,0,54,-25,54,-52 c0,-41,-35,-82,-110,-82 c-109,0,-166,72,-166,134 c0,47,24,100,179,123 c87,6,163,52,163,136 Z M476,285" fill="rgb(0,0,0)" transform="matrix(0.1,0.0,0.0,-0.1,7.0,135.0)"/>
</svg>