<?xml version="1.0" encoding="UTF-8"?>
<svg height="200.0" version="1.1" width="68.0" xmlns="http://www.w3.org/2000/svg" xmlns:xlink="http://www.w3.org/1999/xlink">
 <path d="M0,0 l68,0 l0,200 l-68,0 Z M0,0" fill="rgb(255,255,255)" transform="matrix(1,0,0,-1,0.0,200.0)"/>
 <path d="M0,0 l68,0" fill="none" stroke="rgb(229,229,229)" stroke-width="2" transform="matrix(1,0,0,-1,0.0,135.0)"/>
 <path d="M0,1 l0,-5" fill="none" stroke="rgb(204,204,204)" stroke-width="2" transform="matrix(1,0,0,-1,7.0,135.0)"/>
 <path d="M0,1 l0,-5" fill="none" stroke="rgb(204,204,204)" stroke-width="2" transform="matrix(1,0,0,-1,61.0,135.0)"/>
 <path d="M556,634 l-576,0 l0,-52 l390,0 l0,-87 l-167,0 c-64,0,-94,-44,-94,-87 c0,-63,45,-118,107,-136 l183,30 c10,-10,17,-26,17,-48 c0,-44,-28,-96,-136,-96 c-97,0,-154,48,-192,104 l-42,-39 c28,-35,66,-74,119,-95 c-35,-22,-64,-60,-64,-118 c0,-81,58,-147,152,-147 c68,0,102,34,114,50 l4,0 l0,-118 l54,0 l0,355 c33,29,48,67,48,104 c0,55,-27,91,-52,105 l-195,-32 c-38,11,-57,46,-57,74 c0,22,11,43,54,43 l202,0 l0,138 l131,0 Z M263,-83 c-73,0,-101,42,-101,95 c0,60,43,98,122,98 l87,0 l0,-72 c0,-76,-49,-121,-108,-121 Z M263,-83" fill="rgb(0,0,0)" transform="matrix(0.1,0.0,0.0,-0.1,7.0,135.0)"/>
</svg>