<?xml version="1.0" encoding="UTF-8"?>
<svg height="200.0" version="1.1" width="66.0" xmlns="http://www.w3.org/2000/svg" xmlns:xlink="http://www.w3.org/1999/xlink">
 <path d="M0,0 l66,0 l0,200 l-66,0 Z M0,0" fill="rgb(255,255,255)" transform="matrix(1,0,0,-1,0.0,200.0)"/>
 <path d="M0,0 l66,0" fill="none" stroke="rgb(229,229,229)" stroke-width="2" transform="matrix(1,0,0,-1,0.0,135.0)"/>
 <path d="M0,1 l0,-5" fill="none" stroke="rgb(204,204,204)" stroke-width="2" transform="matrix(1,0,0,-1,7.0,135.0)"/>
 <path d="M0,1 l0,-5" fill="none" stroke="rgb(204,204,204)" stroke-width="2" transform="matrix(1,0,0,-1,60.0,135.0)"/>
 <path d="M182,171 c-81,-28,-108,-87,-108,-138 c0,-89,88,-192,232,-192 c97,0,166,56,166,130 c0,53,-44,106,-112,106 c-78,0,-108,-55,-108,-97 c0,-4,1,-7,1,-10 l58,-22 c-2,6,-3,12,-3,18 c0,29,18,57,54,57 c36,0,53,-23,53,-52 c0,-36,-35,-77,-113,-78 c-113,0,-169,73,-169,136 c0,44,28,105,173,116 c97,0,166,56,166,130 c0,53,-44,106,-112,106 c-78,0,-108,-55,-108,-97 c0,-4,1,-7,1,-10 l58,-22 c-2,6,-3,12,-3,18 c0,29,18,57,54,57 c36,0,53,-23,53,-52 c0,-36,-35,-77,-113,-78 c-113,0,-171,73,-171,136 c0,47,24,82,111,101 l170,37 l0,111 l137,0 l0,52 l-569,0 l0,-52 l377,0 l0,-67 l-161,-37 c-84,-19,-124,-78,-124,-141 c0,-59,41,-125,110,-162 Z M182,171" fill="rgb(0,0,0)" transform="matrix(0.1,0.0,0.0,-0.1,7.0,135.0)"/>
</svg>