<?xml version="1.0" encoding="UTF-8"?>
<svg height="200.0" version="1.1" width="118.0" xmlns="http://www.w3.org/2000/svg" xmlns:xlink="http://www.w3.org/1999/xlink">
 <path d="M0,0 l118,0 l0,200 l-118,0 Z M0,0" fill="rgb(255,255,255)" transform="matrix(1,0,0,-1,0.0,200.0)"/>
 <path d="M0,0 l118,0" fill="none" stroke="rgb(229,229,229)" stroke-width="2" transform="matrix(1,0,0,-1,0.0,135.0)"/>
 <path d="M0,1 l0,-5" fill="none" stroke="rgb(204,204,204)" stroke-width="2" transform="matrix(1,0,0,-1,7.0,135.0)"/>
 <path d="M0,1 l0,-5" fill="none" stroke="rgb(204,204,204)" stroke-width="2" transform="matrix(1,0,0,-1,111.0,135.0)"/>
 <path d="M871,136 l4,0 l0,-136 l58,0 l0,582 l125,0 l0,52 l-1078,0 l0,-52 l355,0 l0,-100 l-145,-42 c-85,-24,-140,-89,-140,-172 c0,-118,104,-223,244,-223 c98,0,167,68,167,144 c0,65,-52,117,-122,117 c-81,0,-120,-64,-115,-118 l56,-22 c-9,42,12,84,60,84 c36,0,61,-28,61,-61 c0,-51,-40,-90,-111,-90 c-109,0,-179,82,-179,164 c0,59,24,108,117,133 l154,42 l181,0 c70,0,100,-27,100,-78 c0,-37,-29,-75,-90,-103 l-45,-21 c17,-92,87,-168,200,-168 c75,0,124,42,143,68 Z M728,123 c-75,0,-113,47,-125,91 c62,28,121,75,121,146 c0,89,-65,130,-162,130 l-169,0 l0,92 l482,0 l0,-296 c0,-89,-50,-163,-147,-163 Z M728,123" fill="rgb(0,0,0)" transform="matrix(0.1,0.0,0.0,-0.1,7.0,135.0)"/>
</svg>