<?xml version="1.0" encoding="UTF-8"?>
<svg height="200.0" version="1.1" width="66.0" xmlns="http://www.w3.org/2000/svg" xmlns:xlink="http://www.w3.org/1999/xlink">
 <path d="M0,0 l66,0 l0,200 l-66,0 Z M0,0" fill="rgb(255,255,255)" transform="matrix(1,0,0,-1,0.0,200.0)"/>
 <path d="M0,0 l66,0" fill="none" stroke="rgb(229,229,229)" stroke-width="2" transform="matrix(1,0,0,-1,0.0,135.0)"/>
 <path d="M0,1 l0,-5" fill="none" stroke="rgb(204,204,204)" stroke-width="2" transform="matrix(1,0,0,-1,7.0,135.0)"/>
 <path d="M0,1 l0,-5" fill="none" stroke="rgb(204,204,204)" stroke-width="2" transform="matrix(1,0,0,-1,60.0,135.0)"/>
 <path d="M440,-183 l0,378 c20,22,32,49,32,80 c0,53,-44,106,-112,106 c-78,0,-108,-55,-108,-97 c0,-4,1,-7,1,-10 l58,-22 c-2,6,-3,12,-3,18 c0,29,18,57,54,57 c36,0,53,-23,53,-52 c0,-36,-35,-77,-113,-78 c-113,0,-171,73,-171,136 c0,47,24,82,111,101 l170,37 l0,111 l137,0 l0,52 l-569,0 l0,-52 l377,0 l0,-67 l-161,-37 c-84,-19,-124,-78,-124,-141 c0,-57,38,-120,103,-158 c-52,-21,-96,-67,-96,-145 c0,-87,65,-163,168,-163 c78,0,121,39,133,57 l4,0 l0,-111 Z M140,37 c0,60,40,114,132,114 c47,0,66,-3,112,4 l0,-100 c0,-77,-50,-130,-126,-130 c-79,0,-118,53,-118,112 Z M140,37" fill="rgb(0,0,0)" transform="matrix(0.1,0.0,0.0,-0.1,7.0,135.0)"/>
</svg>