<?xml version="1.0" encoding="UTF-8"?>
<svg height="200.0" version="1.1" width="112.0" xmlns="http://www.w3.org/2000/svg" xmlns:xlink="http://www.w3.org/1999/xlink">
 <path d="M0,0 l112,0 l0,200 l-112,0 Z M0,0" fill="rgb(255,255,255)" transform="matrix(1,0,0,-1,0.0,200.0)"/>
 <path d="M0,0 l112,0" fill="none" stroke="rgb(229,229,229)" stroke-width="2" transform="matrix(1,0,0,-1,0.0,135.0)"/>
 <path d="M0,1 l0,-5" fill="none" stroke="rgb(204,204,204)" stroke-width="2" transform="matrix(1,0,0,-1,7.0,135.0)"/>
 <path d="M0,1 l0,-5" fill="none" stroke="rgb(204,204,204)" stroke-width="2" transform="matrix(1,0,0,-1,105.0,135.0)"/>
 <path d="M245,185 c89,0,155,57,155,158 l0,239 l401,0 l0,-124 l-129,-40 c-89,-28,-134,-76,-134,-157 c0,-112,100,-216,237,-216 c69,0,137,21,183,68 l-35,47 c-32,-34,-78,-60,-155,-60 c-103,0,-168,75,-168,151 c0,59,21,93,115,122 l144,44 l0,165 l141,0 l0,52 l-1020,0 l0,-52 l110,0 l0,-239 c0,-101,66,-158,155,-158 Z M245,240 c-63,0,-97,40,-97,109 l0,233 l194,0 l0,-233 c0,-69,-34,-109,-97,-109 Z M245,240" fill="rgb(0,0,0)" transform="matrix(0.1,0.0,0.0,-0.1,7.0,135.0)"/>
</svg>