<?xml version="1.0" encoding="UTF-8"?>
<svg height="200.0" version="1.1" width="114.0" xmlns="http://www.w3.org/2000/svg" xmlns:xlink="http://www.w3.org/1999/xlink">
 <path d="M0,0 l114,0 l0,200 l-114,0 Z M0,0" fill="rgb(255,255,255)" transform="matrix(1,0,0,-1,0.0,200.0)"/>
 <path d="M0,0 l114,0" fill="none" stroke="rgb(229,229,229)" stroke-width="2" transform="matrix(1,0,0,-1,0.0,135.0)"/>
 <path d="M0,1 l0,-5" fill="none" stroke="rgb(204,204,204)" stroke-width="2" transform="matrix(1,0,0,-1,7.0,135.0)"/>
 <path d="M0,1 l0,-5" fill="none" stroke="rgb(204,204,204)" stroke-width="2" transform="matrix(1,0,0,-1,107.0,135.0)"/>
 <path d="M245,185 c89,0,155,57,155,158 l0,239 l421,0 l0,-100 l-145,-42 c-85,-24,-140,-89,-140,-172 c0,-118,104,-223,244,-223 c98,0,167,68,167,144 c0,65,-52,117,-122,117 c-81,0,-120,-64,-115,-118 l56,-22 c-9,42,12,84,60,84 c36,0,61,-28,61,-61 c0,-51,-40,-90,-111,-90 c-109,0,-179,82,-179,164 c0,59,24,108,117,133 l165,45 l0,141 l142,0 l0,52 l-1041,0 l0,-52 l110,0 l0,-239 c0,-101,66,-158,155,-158 Z M245,240 c-63,0,-97,40,-97,109 l0,233 l194,0 l0,-233 c0,-69,-34,-109,-97,-109 Z M245,240" fill="rgb(0,0,0)" transform="matrix(0.1,0.0,0.0,-0.1,7.0,135.0)"/>
</svg>