<?xml version="1.0" encoding="UTF-8"?>
<svg height="200.0" version="1.1" width="162.0" xmlns="http://www.w3.org/2000/svg" xmlns:xlink="http://www.w3.org/1999/xlink">
 <path d="M0,0 l162,0 l0,200 l-162,0 Z M0,0" fill="rgb(255,255,255)" transform="matrix(1,0,0,-1,0.0,200.0)"/>
 <path d="M0,0 l162,0" fill="none" stroke="rgb(229,229,229)" stroke-width="2" transform="matrix(1,0,0,-1,0.0,135.0)"/>
 <path d="M0,1 l0,-5" fill="none" stroke="rgb(204,204,204)" stroke-width="2" transform="matrix(1,0,0,-1,7.0,135.0)"/>
 <path d="M0,1 l0,-5" fill="none" stroke="rgb(204,204,204)" stroke-width="2" transform="matrix(1,0,0,-1,154.0,135.0)"/>
 <path d="M835,464 c-61,0,-104,-35,-123,-62 l-4,0 l0,180 l308,0 c28,-23,47,-58,47,-98 c0,-48,-31,-79,-89,-101 c-28,58,-78,81,-139,81 Z M647,195 l4,0 l0,-195 l57,0 l0,274 c0,81,49,135,123,135 c41,0,69,-16,85,-44 c19,-139,109,-221,224,-221 c101,0,148,55,164,78 l4,0 l0,-222 l58,0 l0,582 l125,0 l0,52 l-1511,0 l0,-52 l671,0 l0,-259 c0,-81,-52,-135,-128,-135 c-68,0,-113,47,-113,112 c0,90,79,121,152,109 l-9,55 c-53,8,-105,-5,-143,-35 l-188,0 c-99,0,-169,-73,-169,-177 c0,-115,56,-202,126,-258 l50,34 c-61,46,-116,118,-116,224 c0,78,48,123,121,123 l131,0 c-11,-22,-17,-48,-17,-77 c0,-99,77,-165,164,-165 c74,0,116,35,135,62 Z M986,335 c80,20,138,71,138,140 c0,48,-18,78,-40,103 l0,4 l225,0 l0,-205 c0,-115,-70,-178,-161,-178 c-109,0,-154,83,-162,136 Z M986,335" fill="rgb(0,0,0)" transform="matrix(0.1,0.0,0.0,-0.1,7.0,135.0)"/>
</svg>