<?xml version="1.0" encoding="UTF-8"?>
<svg height="200.0" version="1.1" width="156.0" xmlns="http://www.w3.org/2000/svg" xmlns:xlink="http://www.w3.org/1999/xlink">
 <path d="M0,0 l156,0 l0,200 l-156,0 Z M0,0" fill="rgb(255,255,255)" transform="matrix(1,0,0,-1,0.0,200.0)"/>
 <path d="M0,0 l156,0" fill="none" stroke="rgb(229,229,229)" stroke-width="2" transform="matrix(1,0,0,-1,0.0,135.0)"/>
 <path d="M0,1 l0,-5" fill="none" stroke="rgb(204,204,204)" stroke-width="2" transform="matrix(1,0,0,-1,7.0,135.0)"/>
 <path d="M0,1 l0,-5" fill="none" stroke="rgb(204,204,204)" stroke-width="2" transform="matrix(1,0,0,-1,149.0,135.0)"/>
 <path d="M1120,176 c-77,0,-126,55,-126,126 c0,94,86,139,178,116 l-6,57 c-70,13,-151,-6,-197,-63 c-30,33,-74,52,-121,52 c-74,0,-117,-35,-136,-62 l-4,0 l0,180 l552,0 l0,-254 c0,-86,-55,-152,-140,-152 Z M651,195 l0,-195 l57,0 l0,274 c0,81,52,135,128,135 c47,0,84,-23,102,-60 c-4,-15,-6,-31,-6,-49 c0,-109,85,-179,178,-179 c78,0,125,37,146,65 l4,0 l0,-186 l58,0 l0,582 l125,0 l0,52 l-1463,0 l0,-52 l671,0 l0,-259 c0,-81,-52,-135,-128,-135 c-68,0,-113,47,-113,112 c0,90,79,121,152,109 l-9,55 c-53,8,-105,-5,-143,-35 l-188,0 c-99,0,-169,-73,-169,-177 c0,-115,56,-202,126,-258 l50,34 c-61,46,-116,118,-116,224 c0,78,48,123,121,123 l131,0 c-11,-22,-17,-48,-17,-77 c0,-99,77,-165,164,-165 c74,0,116,35,135,62 Z M651,195" fill="rgb(0,0,0)" transform="matrix(0.1,0.0,0.0,-0.1,7.0,135.0)"/>
</svg>