<?xml version="1.0" encoding="UTF-8"?>
<svg height="200.0" version="1.1" width="122.0" xmlns="http://www.w3.org/2000/svg" xmlns:xlink="http://www.w3.org/1999/xlink">
 <path d="M0,0 l122,0 l0,200 l-122,0 Z M0,0" fill="rgb(255,255,255)" transform="matrix(1,0,0,-1,0.0,200.0)"/>
 <path d="M0,0 l122,0" fill="none" stroke="rgb(229,229,229)" stroke-width="2" transform="matrix(1,0,0,-1,0.0,135.0)"/>
 <path d="M0,1 l0,-5" fill="none" stroke="rgb(204,204,204)" stroke-width="2" transform="matrix(1,0,0,-1,7.0,135.0)"/>
 <path d="M0,1 l0,-5" fill="none" stroke="rgb(204,204,204)" stroke-width="2" transform="matrix(1,0,0,-1,115.0,135.0)"/>
 <path d="M387,429 l-165,0 c-99,0,-169,-73,-169,-177 c0,-115,56,-202,126,-258 l50,34 c-61,46,-116,118,-116,224 c0,78,48,123,121,123 l126,0 c17,-198,131,-339,319,-339 c103,0,185,47,232,107 l4,0 l0,-143 l57,0 l0,582 l125,0 l0,52 l-1117,0 l0,-52 l559,0 l0,-170 c0,-46,-21,-64,-54,-64 c-33,0,-52,15,-66,33 Z M910,453 c-19,20,-48,38,-101,38 c-82,0,-151,-62,-151,-151 c0,-93,73,-146,143,-149 l31,47 c-75,3,-116,46,-116,102 c0,58,40,96,98,96 c53,0,103,-42,103,-118 c0,-146,-112,-227,-239,-227 c-120,0,-220,76,-248,220 c13,-7,30,-13,62,-13 c59,0,105,43,105,115 l0,169 l317,0 l0,-129 Z M910,453" fill="rgb(0,0,0)" transform="matrix(0.1,0.0,0.0,-0.1,7.0,135.0)"/>
</svg>