<?xml version="1.0" encoding="UTF-8"?>
<svg height="200.0" version="1.1" width="164.0" xmlns="http://www.w3.org/2000/svg" xmlns:xlink="http://www.w3.org/1999/xlink">
 <path d="M0,0 l164,0 l0,200 l-164,0 Z M0,0" fill="rgb(255,255,255)" transform="matrix(1,0,0,-1,0.0,200.0)"/>
 <path d="M0,0 l164,0" fill="none" stroke="rgb(229,229,229)" stroke-width="2" transform="matrix(1,0,0,-1,0.0,135.0)"/>
 <path d="M0,1 l0,-5" fill="none" stroke="rgb(204,204,204)" stroke-width="2" transform="matrix(1,0,0,-1,7.0,135.0)"/>
 <path d="M0,1 l0,-5" fill="none" stroke="rgb(204,204,204)" stroke-width="2" transform="matrix(1,0,0,-1,157.0,135.0)"/>
 <path d="M1124,242 l0,87 l213,0 l0,-329 l58,0 l0,582 l125,0 l0,52 l-1540,0 l0,-52 l559,0 l0,-170 c0,-46,-21,-64,-54,-64 c-33,0,-53,15,-66,33 l-4,6 c-1,2,-2,3,-3,5 l-25,37 l-165,0 c-99,0,-169,-73,-169,-177 c0,-115,56,-202,126,-258 l50,34 c-61,46,-116,118,-116,224 c0,78,48,123,121,123 l129,0 l-3,-1 c17,-196,131,-338,319,-338 c179,0,295,135,295,281 c0,95,-63,174,-162,174 c-87,0,-154,-63,-154,-151 c0,-93,73,-146,143,-149 l33,47 c-75,3,-118,46,-118,102 c0,58,40,96,98,96 c53,0,104,-48,104,-118 c0,-143,-113,-227,-240,-227 c-120,0,-220,76,-248,220 c13,-7,30,-13,62,-13 c59,0,105,43,105,115 l0,169 l740,0 l0,-199 l-263,0 l-45,-38 c1,-42,22,-92,54,-115 Z M1124,242" fill="rgb(0,0,0)" transform="matrix(0.1,0.0,0.0,-0.1,7.0,135.0)"/>
</svg>