<?xml version="1.0" encoding="UTF-8"?>
<svg height="200.0" version="1.1" width="60.0" xmlns="http://www.w3.org/2000/svg" xmlns:xlink="http://www.w3.org/1999/xlink">
 <path d="M0,0 l60,0 l0,200 l-60,0 Z M0,0" fill="rgb(255,255,255)" transform="matrix(1,0,0,-1,0.0,200.0)"/>
 <path d="M0,0 l60,0" fill="none" stroke="rgb(229,229,229)" stroke-width="2" transform="matrix(1,0,0,-1,0.0,135.0)"/>
 <path d="M0,1 l0,-5" fill="none" stroke="rgb(204,204,204)" stroke-width="2" transform="matrix(1,0,0,-1,7.0,135.0)"/>
 <path d="M0,1 l0,-5" fill="none" stroke="rgb(204,204,204)" stroke-width="2" transform="matrix(1,0,0,-1,41.0,135.0)"/>
 <path d="M363,634 l-383,0 l0,-52 l383,0 Z M473,422 l-442,0 l0,-54 l119,0 l0,-4 c-14,-11,-55,-44,-55,-128 c0,-97,58,-188,128,-242 l42,40 c-46,35,-110,102,-110,209 c0,71,38,125,122,125 l196,0 Z M473,422" fill="rgb(0,0,0)" transform="matrix(0.1,0.0,0.0,-0.1,7.0,135.0)"/>
</svg>