<?xml version="1.0" encoding="UTF-8"?>
<svg height="200.0" version="1.1" width="108.0" xmlns="http://www.w3.org/2000/svg" xmlns:xlink="http://www.w3.org/1999/xlink">
 <path d="M0,0 l108,0 l0,200 l-108,0 Z M0,0" fill="rgb(255,255,255)" transform="matrix(1,0,0,-1,0.0,200.0)"/>
 <path d="M0,0 l108,0" fill="none" stroke="rgb(229,229,229)" stroke-width="2" transform="matrix(1,0,0,-1,0.0,135.0)"/>
 <path d="M0,1 l0,-5" fill="none" stroke="rgb(204,204,204)" stroke-width="2" transform="matrix(1,0,0,-1,7.0,135.0)"/>
 <path d="M0,1 l0,-5" fill="none" stroke="rgb(204,204,204)" stroke-width="2" transform="matrix(1,0,0,-1,102.0,135.0)"/>
 <path d="M785,222 l0,-222 l58,0 l0,582 l125,0 l0,52 l-988,0 l0,-52 l513,0 c28,-23,47,-58,47,-98 c0,-50,-34,-82,-98,-104 c-31,26,-69,40,-124,40 l-287,0 l0,-54 l119,0 l0,-4 c-14,-11,-55,-44,-55,-128 c0,-97,58,-186,128,-240 l42,40 c-46,35,-110,100,-110,207 c0,71,38,125,122,125 l37,0 c36,0,61,-5,83,-23 c25,-126,112,-199,220,-199 c101,0,148,55,164,78 Z M463,335 c80,20,138,71,138,140 c0,48,-18,78,-40,103 l0,4 l225,0 l0,-205 c0,-115,-70,-178,-161,-178 c-109,0,-154,83,-162,136 Z M463,335" fill="rgb(0,0,0)" transform="matrix(0.1,0.0,0.0,-0.1,7.0,135.0)"/>
</svg>