<?xml version="1.0" encoding="UTF-8"?>
<svg height="200.0" version="1.1" width="114.0" xmlns="http://www.w3.org/2000/svg" xmlns:xlink="http://www.w3.org/1999/xlink">
 <path d="M0,0 l114,0 l0,200 l-114,0 Z M0,0" fill="rgb(255,255,255)" transform="matrix(1,0,0,-1,0.0,200.0)"/>
 <path d="M0,0 l114,0" fill="none" stroke="rgb(229,229,229)" stroke-width="2" transform="matrix(1,0,0,-1,0.0,135.0)"/>
 <path d="M0,1 l0,-5" fill="none" stroke="rgb(204,204,204)" stroke-width="2" transform="matrix(1,0,0,-1,7.0,135.0)"/>
 <path d="M0,1 l0,-5" fill="none" stroke="rgb(204,204,204)" stroke-width="2" transform="matrix(1,0,0,-1,108.0,135.0)"/>
 <path d="M838,414 c-14,16,-44,35,-88,35 c-53,0,-97,-31,-112,-85 l-4,0 c-14,48,-56,81,-122,81 c-36,0,-72,-13,-99,-38 c-29,14,-66,22,-107,22 l-84,0 c-99,0,-169,-73,-169,-177 c0,-115,56,-202,126,-258 l50,34 c-61,46,-116,118,-116,224 c0,78,48,123,121,123 l63,0 c36,0,60,-4,81,-14 c-13,-25,-20,-55,-20,-91 c0,-127,82,-225,171,-273 l42,43 c-95,51,-152,130,-152,229 c0,83,44,121,97,121 c55,0,90,-35,90,-104 l0,-94 l58,0 l0,95 c0,72,38,107,90,107 c38,0,72,-21,88,-38 l0,-356 l58,0 l0,582 l125,0 l0,52 l-1045,0 l0,-52 l862,0 l0,-168 Z M838,414" fill="rgb(0,0,0)" transform="matrix(0.1,0.0,0.0,-0.1,7.0,135.0)"/>
</svg>