<?xml version="1.0" encoding="UTF-8"?>
<svg height="200.0" version="1.1" width="138.0" xmlns="http://www.w3.org/2000/svg" xmlns:xlink="http://www.w3.org/1999/xlink">
 <path d="M0,0 l138,0 l0,200 l-138,0 Z M0,0" fill="rgb(255,255,255)" transform="matrix(1,0,0,-1,0.0,200.0)"/>
 <path d="M0,0 l138,0" fill="none" stroke="rgb(229,229,229)" stroke-width="2" transform="matrix(1,0,0,-1,0.0,135.0)"/>
 <path d="M0,1 l0,-5" fill="none" stroke="rgb(204,204,204)" stroke-width="2" transform="matrix(1,0,0,-1,7.0,135.0)"/>
 <path d="M0,1 l0,-5" fill="none" stroke="rgb(204,204,204)" stroke-width="2" transform="matrix(1,0,0,-1,132.0,135.0)"/>
 <path d="M706,331 c-40,0,-86,6,-122,17 c4,13,6,26,6,42 l0,192 l496,0 l0,-254 c0,-86,-55,-152,-140,-152 c-77,0,-126,55,-126,126 c0,94,86,139,178,116 l-6,57 c-96,18,-212,-25,-231,-141 c-17,-2,-35,-3,-55,-3 Z M431,280 c11,-4,31,-5,40,-5 c31,0,61,9,83,27 c38,-15,98,-26,151,-26 c21,0,39,1,54,2 c11,-96,90,-157,177,-157 c78,0,125,37,146,65 l4,0 l0,-186 l58,0 l0,582 l125,0 l0,52 l-1289,0 l0,-52 l552,0 l0,-184 c0,-49,-24,-70,-73,-70 c-43,0,-71,20,-87,35 l-41,50 l-109,0 c-99,0,-169,-71,-169,-175 c0,-111,58,-195,126,-248 l50,34 c-62,44,-116,109,-116,214 c0,78,48,121,121,121 l69,0 l17,-23 l251,-335 l47,32 l-123,163 c-24,32,-44,55,-66,81 Z M431,280" fill="rgb(0,0,0)" transform="matrix(0.1,0.0,0.0,-0.1,7.0,135.0)"/>
</svg>