<?xml version="1.0" encoding="UTF-8"?>
<svg height="200.0" version="1.1" width="108.0" xmlns="http://www.w3.org/2000/svg" xmlns:xlink="http://www.w3.org/1999/xlink">
 <path d="M0,0 l108,0 l0,200 l-108,0 Z M0,0" fill="rgb(255,255,255)" transform="matrix(1,0,0,-1,0.0,200.0)"/>
 <path d="M0,0 l108,0" fill="none" stroke="rgb(229,229,229)" stroke-width="2" transform="matrix(1,0,0,-1,0.0,135.0)"/>
 <path d="M0,1 l0,-5" fill="none" stroke="rgb(204,204,204)" stroke-width="2" transform="matrix(1,0,0,-1,5.0,135.0)"/>
 <path d="M0,1 l0,-5" fill="none" stroke="rgb(204,204,204)" stroke-width="2" transform="matrix(1,0,0,-1,101.0,135.0)"/>
 <path d="M285,112 c98,0,169,38,214,89 c33,-51,90,-80,150,-80 c78,0,125,37,146,65 l4,0 l0,-186 l58,0 l0,582 l125,0 l0,52 l-520,0 l0,-52 l337,0 l0,-254 c0,-86,-55,-152,-140,-152 c-77,0,-126,55,-126,126 c0,94,86,139,178,116 l-6,57 c-105,20,-234,-34,-234,-175 c0,-15,2,-29,5,-43 c-36,-49,-99,-90,-190,-90 c-125,0,-178,97,-183,143 c20,6,39,11,59,17 c133,38,198,102,198,186 c0,76,-57,131,-137,131 c-78,0,-133,-56,-133,-123 c0,-40,18,-69,32,-82 l57,17 c-16,13,-30,40,-30,62 c0,45,31,71,74,71 c45,0,78,-29,78,-74 c0,-56,-25,-98,-176,-142 l-92,-27 c8,-129,104,-234,252,-234 Z M285,112" fill="rgb(0,0,0)" transform="matrix(0.1,0.0,0.0,-0.1,5.0,135.0)"/>
</svg>