<?xml version="1.0" encoding="UTF-8"?>
<svg height="200.0" version="1.1" width="80.0" xmlns="http://www.w3.org/2000/svg" xmlns:xlink="http://www.w3.org/1999/xlink">
 <path d="M0,0 l80,0 l0,200 l-80,0 Z M0,0" fill="rgb(255,255,255)" transform="matrix(1,0,0,-1,0.0,200.0)"/>
 <path d="M0,0 l80,0" fill="none" stroke="rgb(229,229,229)" stroke-width="2" transform="matrix(1,0,0,-1,0.0,135.0)"/>
 <path d="M0,1 l0,-5" fill="none" stroke="rgb(204,204,204)" stroke-width="2" transform="matrix(1,0,0,-1,7.0,135.0)"/>
 <path d="M0,1 l0,-5" fill="none" stroke="rgb(204,204,204)" stroke-width="2" transform="matrix(1,0,0,-1,74.0,135.0)"/>
 <path d="M142,64 c-43,0,-71,24,-71,68 c0,48,40,96,113,111 c9,-41,32,-82,69,-113 c-21,-21,-38,-38,-51,-55 c-18,-8,-32,-11,-60,-11 Z M502,100 l4,0 l87,-151 l71,18 l-120,159 c15,13,33,41,33,81 c0,38,-25,66,-43,74 l-46,-17 l0,-103 c-17,-15,-52,-26,-96,-26 c-90,0,-150,66,-150,142 c0,56,27,93,111,114 l162,40 l0,151 l174,0 l0,52 l-709,0 l0,-52 l477,0 l0,-110 l-129,-32 c-90,-23,-142,-71,-147,-145 c-102,-22,-168,-86,-168,-164 c0,-67,48,-115,116,-115 c15,0,27,1,41,3 c-4,-10,-5,-27,-5,-39 c0,-54,41,-107,124,-107 c95,0,173,62,213,227 Z M291,-76 c-49,0,-70,25,-70,61 c0,33,20,64,78,116 c45,-22,106,-25,142,-18 c-27,-98,-83,-159,-150,-159 Z M291,-76" fill="rgb(0,0,0)" transform="matrix(0.1,0.0,0.0,-0.1,7.0,135.0)"/>
</svg>