<?xml version="1.0" encoding="UTF-8"?>
<svg height="200.0" version="1.1" width="64.0" xmlns="http://www.w3.org/2000/svg" xmlns:xlink="http://www.w3.org/1999/xlink">
 <path d="M0,0 l64,0 l0,200 l-64,0 Z M0,0" fill="rgb(255,255,255)" transform="matrix(1,0,0,-1,0.0,200.0)"/>
 <path d="M0,0 l64,0" fill="none" stroke="rgb(229,229,229)" stroke-width="2" transform="matrix(1,0,0,-1,0.0,135.0)"/>
 <path d="M0,1 l0,-5" fill="none" stroke="rgb(204,204,204)" stroke-width="2" transform="matrix(1,0,0,-1,7.0,135.0)"/>
 <path d="M0,1 l0,-5" fill="none" stroke="rgb(204,204,204)" stroke-width="2" transform="matrix(1,0,0,-1,57.0,135.0)"/>
 <path d="M440,-89 l68,13 l-94,128 c18,18,29,41,29,68 c0,27,-13,47,-33,60 l-43,-11 l0,-88 c-23,-15,-61,-29,-107,-29 c-68,0,-107,29,-107,78 c0,61,62,97,194,112 l-14,50 c0,0,-40,-8,-80,-8 c-94,0,-127,38,-127,80 c0,34,18,68,99,68 l151,0 l0,150 l139,0 l0,52 l-535,0 l0,-52 l338,0 l0,-96 l-107,0 c-100,0,-147,-56,-147,-116 c0,-90,85,-117,122,-120 l0,-4 c-43,-12,-94,-49,-94,-117 c0,-75,64,-129,167,-129 c39,0,82,8,117,26 Z M440,-89" fill="rgb(0,0,0)" transform="matrix(0.1,0.0,0.0,-0.1,7.0,135.0)"/>
</svg>