<?xml version="1.0" encoding="UTF-8"?>
<svg height="200.0" version="1.1" width="82.0" xmlns="http://www.w3.org/2000/svg" xmlns:xlink="http://www.w3.org/1999/xlink">
 <path d="M0,0 l82,0 l0,200 l-82,0 Z M0,0" fill="rgb(255,255,255)" transform="matrix(1,0,0,-1,0.0,200.0)"/>
 <path d="M0,0 l82,0" fill="none" stroke="rgb(229,229,229)" stroke-width="2" transform="matrix(1,0,0,-1,0.0,135.0)"/>
 <path d="M0,1 l0,-5" fill="none" stroke="rgb(204,204,204)" stroke-width="2" transform="matrix(1,0,0,-1,7.0,135.0)"/>
 <path d="M0,1 l0,-5" fill="none" stroke="rgb(204,204,204)" stroke-width="2" transform="matrix(1,0,0,-1,74.0,135.0)"/>
 <path d="M513,100 l87,-151 l71,18 l-120,159 c15,13,33,41,33,81 c0,38,-25,66,-43,74 l-46,-17 l0,-103 c-17,-15,-52,-26,-96,-26 c-90,0,-150,66,-150,142 c0,56,27,93,111,114 l162,40 l0,151 l170,0 l0,52 l-712,0 l0,-52 l484,0 l0,-110 l-129,-32 c-96,-24,-148,-77,-148,-159 c0,-54,25,-111,73,-151 c-42,-42,-52,-67,-115,-67 c-41,0,-67,17,-67,59 c0,54,51,87,51,162 l-53,19 c0,-85,-56,-109,-56,-182 c0,-65,47,-106,112,-106 c15,0,30,0,45,4 c-4,-10,-6,-25,-6,-37 c0,-54,44,-109,125,-109 c95,0,173,62,213,227 Z M298,-76 c-49,0,-70,25,-70,61 c0,33,20,64,78,116 c49,-21,97,-24,142,-18 c-27,-98,-83,-159,-150,-159 Z M298,-76" fill="rgb(0,0,0)" transform="matrix(0.1,0.0,0.0,-0.1,7.0,135.0)"/>
</svg>