<?xml version="1.0" encoding="UTF-8"?>
<svg height="200.0" version="1.1" width="110.0" xmlns="http://www.w3.org/2000/svg" xmlns:xlink="http://www.w3.org/1999/xlink">
 <path d="M0,0 l110,0 l0,200 l-110,0 Z M0,0" fill="rgb(255,255,255)" transform="matrix(1,0,0,-1,0.0,200.0)"/>
 <path d="M0,0 l110,0" fill="none" stroke="rgb(229,229,229)" stroke-width="2" transform="matrix(1,0,0,-1,0.0,135.0)"/>
 <path d="M0,1 l0,-5" fill="none" stroke="rgb(204,204,204)" stroke-width="2" transform="matrix(1,0,0,-1,7.0,135.0)"/>
 <path d="M0,1 l0,-5" fill="none" stroke="rgb(204,204,204)" stroke-width="2" transform="matrix(1,0,0,-1,102.0,135.0)"/>
 <path d="M506,126 c26,-50,78,-96,153,-96 c75,0,105,30,124,56 l4,0 l0,-136 l58,0 l0,632 l125,0 l0,52 l-990,0 l0,-52 l485,0 l0,-68 l-129,-32 c-96,-24,-148,-77,-148,-159 c0,-54,25,-111,73,-151 c-42,-42,-52,-67,-115,-67 c-41,0,-67,17,-67,59 c0,54,51,87,51,162 l-53,19 c0,-85,-56,-109,-56,-182 c0,-65,47,-106,112,-106 c15,0,30,0,45,4 c-4,-10,-6,-25,-6,-37 c0,-54,44,-109,125,-109 c92,0,168,58,209,211 Z M229,27 c0,33,20,64,78,116 c49,-21,97,-24,142,-18 c-27,-98,-83,-159,-150,-159 c-49,0,-70,25,-70,61 Z M551,168 c22,18,34,48,34,81 c0,38,-25,66,-43,74 l-46,-17 l0,-103 c-17,-15,-52,-26,-96,-26 c-90,0,-150,66,-150,142 c0,56,27,93,111,114 l162,40 l0,109 l264,0 l0,-349 c0,-80,-34,-148,-128,-148 c-60,0,-98,54,-108,83 Z M551,168" fill="rgb(0,0,0)" transform="matrix(0.1,0.0,0.0,-0.1,7.0,135.0)"/>
</svg>