<?xml version="1.0" encoding="UTF-8"?>
<svg height="200.0" version="1.1" width="68.0" xmlns="http://www.w3.org/2000/svg" xmlns:xlink="http://www.w3.org/1999/xlink">
 <path d="M0,0 l68,0 l0,200 l-68,0 Z M0,0" fill="rgb(255,255,255)" transform="matrix(1,0,0,-1,0.0,200.0)"/>
 <path d="M0,0 l68,0" fill="none" stroke="rgb(229,229,229)" stroke-width="2" transform="matrix(1,0,0,-1,0.0,135.0)"/>
 <path d="M0,1 l0,-5" fill="none" stroke="rgb(204,204,204)" stroke-width="2" transform="matrix(1,0,0,-1,7.0,135.0)"/>
 <path d="M0,1 l0,-5" fill="none" stroke="rgb(204,204,204)" stroke-width="2" transform="matrix(1,0,0,-1,60.0,135.0)"/>
 <path d="M359,118 c0,-49,-14,-97,-42,-129 l-80,128 c11,2,24,3,37,3 c20,0,64,0,85,-2 Z M228,-50 c-56,0,-82,40,-82,78 c0,32,16,59,47,76 l88,-143 c-15,-7,-33,-11,-53,-11 Z M409,76 l4,0 l54,-93 l69,17 l-120,161 c16,16,33,42,33,81 c0,39,-27,64,-43,72 l-47,-17 l0,-105 c-18,-13,-49,-23,-95,-23 c-92,0,-149,58,-149,129 c0,62,28,98,113,119 l160,40 l0,125 l162,0 l0,52 l-570,0 l0,-52 l350,0 l0,-84 l-131,-34 c-100,-25,-146,-75,-146,-159 c0,-68,36,-138,103,-162 l0,-4 c-39,-20,-70,-59,-70,-110 c0,-75,59,-131,142,-131 c115,0,175,101,181,178 Z M409,76" fill="rgb(0,0,0)" transform="matrix(0.1,0.0,0.0,-0.1,7.0,135.0)"/>
</svg>