<?xml version="1.0" encoding="UTF-8"?>
<svg height="200.0" version="1.1" width="68.0" xmlns="http://www.w3.org/2000/svg" xmlns:xlink="http://www.w3.org/1999/xlink">
 <path d="M0,0 l68,0 l0,200 l-68,0 Z M0,0" fill="rgb(255,255,255)" transform="matrix(1,0,0,-1,0.0,200.0)"/>
 <path d="M0,0 l68,0" fill="none" stroke="rgb(229,229,229)" stroke-width="2" transform="matrix(1,0,0,-1,0.0,135.0)"/>
 <path d="M0,1 l0,-5" fill="none" stroke="rgb(204,204,204)" stroke-width="2" transform="matrix(1,0,0,-1,7.0,135.0)"/>
 <path d="M0,1 l0,-5" fill="none" stroke="rgb(204,204,204)" stroke-width="2" transform="matrix(1,0,0,-1,60.0,135.0)"/>
 <path d="M423,56 c-19,-18,-57,-51,-101,-75 l-86,138 c23,5,48,7,71,7 c23,0,59,-3,78,-6 Z M227,-47 c-60,0,-82,41,-82,77 c0,35,20,58,48,73 l87,-140 c-17,-6,-35,-10,-53,-10 Z M180,-93 l-137,-68 l56,-46 l352,217 l31,-58 l69,17 l-135,192 c16,16,33,42,33,81 c0,39,-27,64,-43,72 l-47,-17 l0,-105 c-18,-13,-49,-23,-95,-23 c-92,0,-149,58,-149,129 c0,62,28,98,113,119 l160,40 l0,125 l162,0 l0,52 l-570,0 l0,-52 l350,0 l0,-84 l-131,-34 c-100,-26,-146,-74,-146,-159 c0,-68,36,-138,103,-162 l0,-4 c-39,-20,-71,-57,-71,-109 c0,-73,51,-112,95,-119 Z M180,-93" fill="rgb(0,0,0)" transform="matrix(0.1,0.0,0.0,-0.1,7.0,135.0)"/>
</svg>