<?xml version="1.0" encoding="UTF-8"?>
<svg height="200.0" version="1.1" width="82.0" xmlns="http://www.w3.org/2000/svg" xmlns:xlink="http://www.w3.org/1999/xlink">
 <path d="M0,0 l82,0 l0,200 l-82,0 Z M0,0" fill="rgb(255,255,255)" transform="matrix(1,0,0,-1,0.0,200.0)"/>
 <path d="M0,0 l82,0" fill="none" stroke="rgb(229,229,229)" stroke-width="2" transform="matrix(1,0,0,-1,0.0,135.0)"/>
 <path d="M0,1 l0,-5" fill="none" stroke="rgb(204,204,204)" stroke-width="2" transform="matrix(1,0,0,-1,9.0,135.0)"/>
 <path d="M0,1 l0,-5" fill="none" stroke="rgb(204,204,204)" stroke-width="2" transform="matrix(1,0,0,-1,75.0,135.0)"/>
 <path d="M505,429 l0,153 l171,0 l0,52 l-696,0 l0,-52 l467,0 l0,-112 l-129,-32 c-96,-24,-148,-77,-148,-159 c0,-77,52,-163,150,-191 l-143,-76 l-42,80 c-19,36,-44,50,-80,50 c-28,0,-68,-19,-94,-46 l28,-47 c19,22,43,36,60,36 c17,0,27,-6,37,-24 l40,-76 l-26,-51 c17,-31,48,-51,78,-56 l54,27 l-31,61 l213,113 c29,2,58,10,80,21 l75,-132 l71,18 l-106,138 c15,13,33,41,33,81 c0,38,-25,66,-43,74 l-46,-17 l0,-103 c-17,-15,-52,-26,-96,-26 c-90,0,-150,66,-150,142 c0,56,27,93,111,114 Z M505,429" fill="rgb(0,0,0)" transform="matrix(0.1,0.0,0.0,-0.1,9.0,135.0)"/>
</svg>