<?xml version="1.0" encoding="UTF-8"?>
<svg height="200.0" version="1.1" width="84.0" xmlns="http://www.w3.org/2000/svg" xmlns:xlink="http://www.w3.org/1999/xlink">
 <path d="M0,0 l84,0 l0,200 l-84,0 Z M0,0" fill="rgb(255,255,255)" transform="matrix(1,0,0,-1,0.0,200.0)"/>
 <path d="M0,0 l84,0" fill="none" stroke="rgb(229,229,229)" stroke-width="2" transform="matrix(1,0,0,-1,0.0,135.0)"/>
 <path d="M0,1 l0,-5" fill="none" stroke="rgb(204,204,204)" stroke-width="2" transform="matrix(1,0,0,-1,7.0,135.0)"/>
 <path d="M0,1 l0,-5" fill="none" stroke="rgb(204,204,204)" stroke-width="2" transform="matrix(1,0,0,-1,77.0,135.0)"/>
 <path d="M360,330 l-55,0 c-10,-28,-38,-66,-110,-66 c-61,0,-94,35,-94,85 c0,46,32,79,91,79 l168,0 l0,154 l180,0 l0,-408 l-180,0 Z M305,250 l0,-79 l-47,-35 c1,-33,21,-74,43,-90 l59,0 l0,75 l180,0 l0,-121 l58,0 l0,582 l126,0 l0,52 l-744,0 l0,-52 l322,0 l0,-101 l-109,0 c-97,0,-153,-58,-153,-132 c0,-81,63,-139,151,-139 c63,0,94,24,110,40 Z M305,250" fill="rgb(0,0,0)" transform="matrix(0.1,0.0,0.0,-0.1,7.0,135.0)"/>
</svg>