<?xml version="1.0" encoding="UTF-8"?>
<svg height="200.0" version="1.1" width="78.0" xmlns="http://www.w3.org/2000/svg" xmlns:xlink="http://www.w3.org/1999/xlink">
 <path d="M0,0 l78,0 l0,200 l-78,0 Z M0,0" fill="rgb(255,255,255)" transform="matrix(1,0,0,-1,0.0,200.0)"/>
 <path d="M0,0 l78,0" fill="none" stroke="rgb(229,229,229)" stroke-width="2" transform="matrix(1,0,0,-1,0.0,135.0)"/>
 <path d="M0,1 l0,-5" fill="none" stroke="rgb(204,204,204)" stroke-width="2" transform="matrix(1,0,0,-1,7.0,135.0)"/>
 <path d="M0,1 l0,-5" fill="none" stroke="rgb(204,204,204)" stroke-width="2" transform="matrix(1,0,0,-1,71.0,135.0)"/>
 <path d="M142,294 c-45,-14,-69,-47,-69,-95 c0,-72,56,-138,184,-138 c120,0,190,55,219,99 l4,0 l0,-160 l58,0 l0,582 l125,0 l0,52 l-683,0 l0,-52 l271,0 l0,-84 l-80,0 c-57,0,-104,-36,-104,-97 c0,-56,37,-93,75,-103 Z M258,116 c-95,0,-123,45,-123,84 c0,44,31,67,86,67 l88,0 l0,54 l-113,0 c-36,8,-67,37,-67,78 c0,27,18,45,52,45 l129,0 l0,138 l170,0 l0,-250 c0,-130,-77,-216,-222,-216 Z M258,116" fill="rgb(0,0,0)" transform="matrix(0.1,0.0,0.0,-0.1,7.0,135.0)"/>
</svg>