<?xml version="1.0" encoding="UTF-8"?>
<svg height="200.0" version="1.1" width="96.0" xmlns="http://www.w3.org/2000/svg" xmlns:xlink="http://www.w3.org/1999/xlink">
 <path d="M0,0 l96,0 l0,200 l-96,0 Z M0,0" fill="rgb(255,255,255)" transform="matrix(1,0,0,-1,0.0,200.0)"/>
 <path d="M0,0 l96,0" fill="none" stroke="rgb(229,229,229)" stroke-width="2" transform="matrix(1,0,0,-1,0.0,135.0)"/>
 <path d="M0,1 l0,-5" fill="none" stroke="rgb(204,204,204)" stroke-width="2" transform="matrix(1,0,0,-1,7.0,135.0)"/>
 <path d="M0,1 l0,-5" fill="none" stroke="rgb(204,204,204)" stroke-width="2" transform="matrix(1,0,0,-1,88.0,135.0)"/>
 <path d="M707,582 l125,0 l0,52 l-852,0 l0,-52 l347,0 l0,-77 l-121,-32 c-100,-26,-156,-72,-156,-156 c0,-99,76,-190,205,-188 l0,-4 l-183,-104 l56,-46 l233,164 c24,-55,78,-109,160,-109 c75,0,105,30,124,56 l4,0 l0,-136 l58,0 Z M412,173 c14,15,34,35,34,80 c0,38,-25,65,-43,74 l-47,-17 l0,-102 c-20,-17,-50,-28,-97,-28 c-92,0,-147,59,-147,130 c0,62,38,95,123,116 l150,38 l0,118 l264,0 l0,-349 c0,-80,-34,-148,-128,-148 c-64,0,-103,61,-109,88 Z M412,173" fill="rgb(0,0,0)" transform="matrix(0.1,0.0,0.0,-0.1,7.0,135.0)"/>
</svg>