<?xml version="1.0" encoding="UTF-8"?>
<svg height="200.0" version="1.1" width="68.0" xmlns="http://www.w3.org/2000/svg" xmlns:xlink="http://www.w3.org/1999/xlink">
 <path d="M0,0 l68,0 l0,200 l-68,0 Z M0,0" fill="rgb(255,255,255)" transform="matrix(1,0,0,-1,0.0,200.0)"/>
 <path d="M0,0 l68,0" fill="none" stroke="rgb(229,229,229)" stroke-width="2" transform="matrix(1,0,0,-1,0.0,135.0)"/>
 <path d="M0,1 l0,-5" fill="none" stroke="rgb(204,204,204)" stroke-width="2" transform="matrix(1,0,0,-1,7.0,135.0)"/>
 <path d="M0,1 l0,-5" fill="none" stroke="rgb(204,204,204)" stroke-width="2" transform="matrix(1,0,0,-1,60.0,135.0)"/>
 <path d="M358,117 c-1,-87,-39,-164,-129,-164 c-56,0,-82,38,-82,77 c0,53,41,89,127,89 c20,0,63,0,84,-2 Z M413,76 l54,-93 l69,17 l-120,161 c16,16,33,42,33,81 c0,39,-27,64,-43,72 l-47,-17 l0,-105 c-18,-13,-49,-23,-95,-23 c-92,0,-149,58,-149,129 c0,62,28,98,113,119 l160,40 l0,125 l162,0 l0,52 l-570,0 l0,-52 l350,0 l0,-84 l-131,-34 c-100,-25,-146,-75,-146,-159 c0,-68,36,-138,103,-162 l0,-4 c-38,-18,-70,-54,-70,-108 c0,-76,61,-131,143,-131 c115,0,171,92,180,176 Z M413,76" fill="rgb(0,0,0)" transform="matrix(0.1,0.0,0.0,-0.1,7.0,135.0)"/>
</svg>