<?xml version="1.0" encoding="UTF-8"?>
<svg height="200.0" version="1.1" width="116.0" xmlns="http://www.w3.org/2000/svg" xmlns:xlink="http://www.w3.org/1999/xlink">
 <path d="M0,0 l116,0 l0,200 l-116,0 Z M0,0" fill="rgb(255,255,255)" transform="matrix(1,0,0,-1,0.0,200.0)"/>
 <path d="M0,0 l116,0" fill="none" stroke="rgb(229,229,229)" stroke-width="2" transform="matrix(1,0,0,-1,0.0,135.0)"/>
 <path d="M0,1 l0,-5" fill="none" stroke="rgb(204,204,204)" stroke-width="2" transform="matrix(1,0,0,-1,7.0,135.0)"/>
 <path d="M0,1 l0,-5" fill="none" stroke="rgb(204,204,204)" stroke-width="2" transform="matrix(1,0,0,-1,110.0,135.0)"/>
 <path d="M915,297 c0,-90,-79,-121,-152,-109 l9,-55 c105,-15,205,50,205,166 c0,100,-76,165,-163,165 c-74,0,-117,-35,-136,-62 l-4,0 l0,180 l373,0 l0,52 l-1067,0 l0,-52 l637,0 l0,-259 c0,-81,-52,-135,-128,-135 c-68,0,-113,47,-113,112 c0,90,79,121,152,109 l-9,55 c-76,11,-148,-20,-183,-81 l-260,0 l-45,-38 c1,-42,22,-92,54,-115 l41,12 l0,87 l191,0 c-2,-10,-3,-20,-3,-31 c0,-99,77,-165,164,-165 c74,0,116,35,135,62 l4,0 l0,-195 l57,0 l0,274 c0,81,52,135,128,135 c67,0,113,-46,113,-112 Z M915,297" fill="rgb(0,0,0)" transform="matrix(0.1,0.0,0.0,-0.1,7.0,135.0)"/>
</svg>