<?xml version="1.0" encoding="UTF-8"?>
<svg height="200.0" version="1.1" width="96.0" xmlns="http://www.w3.org/2000/svg" xmlns:xlink="http://www.w3.org/1999/xlink">
 <path d="M0,0 l96,0 l0,200 l-96,0 Z M0,0" fill="rgb(255,255,255)" transform="matrix(1,0,0,-1,0.0,200.0)"/>
 <path d="M0,0 l96,0" fill="none" stroke="rgb(229,229,229)" stroke-width="2" transform="matrix(1,0,0,-1,0.0,135.0)"/>
 <path d="M0,1 l0,-5" fill="none" stroke="rgb(204,204,204)" stroke-width="2" transform="matrix(1,0,0,-1,7.0,135.0)"/>
 <path d="M0,1 l0,-5" fill="none" stroke="rgb(204,204,204)" stroke-width="2" transform="matrix(1,0,0,-1,90.0,135.0)"/>
 <path d="M661,203 l4,0 l0,-203 l58,0 l0,582 l125,0 l0,52 l-868,0 l0,-52 l685,0 l0,-221 c0,-113,-74,-183,-174,-183 c-78,0,-129,47,-129,110 c0,64,45,110,122,110 l83,0 l0,53 l-491,0 l-45,-38 c1,-42,22,-92,54,-115 l41,12 l0,87 l226,0 l0,-4 c-18,-12,-52,-45,-52,-107 c0,-89,75,-163,184,-163 c99,0,155,48,177,80 Z M661,203" fill="rgb(0,0,0)" transform="matrix(0.1,0.0,0.0,-0.1,7.0,135.0)"/>
</svg>