<?xml version="1.0" encoding="UTF-8"?>
<svg height="200.0" version="1.1" width="108.0" xmlns="http://www.w3.org/2000/svg" xmlns:xlink="http://www.w3.org/1999/xlink">
 <path d="M0,0 l108,0 l0,200 l-108,0 Z M0,0" fill="rgb(255,255,255)" transform="matrix(1,0,0,-1,0.0,200.0)"/>
 <path d="M0,0 l108,0" fill="none" stroke="rgb(229,229,229)" stroke-width="2" transform="matrix(1,0,0,-1,0.0,135.0)"/>
 <path d="M0,1 l0,-5" fill="none" stroke="rgb(204,204,204)" stroke-width="2" transform="matrix(1,0,0,-1,7.0,135.0)"/>
 <path d="M0,1 l0,-5" fill="none" stroke="rgb(204,204,204)" stroke-width="2" transform="matrix(1,0,0,-1,101.0,135.0)"/>
 <path d="M569,47 c182,0,308,145,308,284 c0,68,-36,124,-94,143 l0,108 l173,0 l0,52 l-976,0 l0,-52 l421,0 l0,-4 c-16,-12,-54,-41,-54,-108 c0,-34,13,-64,34,-87 l-305,0 l-45,-38 c1,-42,22,-92,54,-115 l41,12 l0,87 l290,0 c-31,-21,-56,-57,-56,-110 c0,-90,74,-172,209,-172 Z M742,294 c-45,5,-70,32,-70,70 c0,39,30,64,67,64 c44,0,79,-35,79,-97 c0,-127,-115,-229,-249,-229 c-97,0,-147,54,-147,119 c0,62,44,99,113,99 l24,0 l0,54 l-37,0 c-71,0,-113,40,-113,99 c0,68,52,109,121,109 l197,0 l0,-101 c-67,-5,-113,-56,-113,-117 c0,-54,34,-99,92,-111 Z M742,294" fill="rgb(0,0,0)" transform="matrix(0.1,0.0,0.0,-0.1,7.0,135.0)"/>
</svg>