<?xml version="1.0" encoding="UTF-8"?>
<svg height="200.0" version="1.1" width="114.0" xmlns="http://www.w3.org/2000/svg" xmlns:xlink="http://www.w3.org/1999/xlink">
 <path d="M0,0 l114,0 l0,200 l-114,0 Z M0,0" fill="rgb(255,255,255)" transform="matrix(1,0,0,-1,0.0,200.0)"/>
 <path d="M0,0 l114,0" fill="none" stroke="rgb(229,229,229)" stroke-width="2" transform="matrix(1,0,0,-1,0.0,135.0)"/>
 <path d="M0,1 l0,-5" fill="none" stroke="rgb(204,204,204)" stroke-width="2" transform="matrix(1,0,0,-1,7.0,135.0)"/>
 <path d="M0,1 l0,-5" fill="none" stroke="rgb(204,204,204)" stroke-width="2" transform="matrix(1,0,0,-1,107.0,135.0)"/>
 <path d="M892,0 l0,582 l125,0 l0,52 l-1037,0 l0,-52 l854,0 l0,-149 l-267,0 l-27,-48 l0,-4 c34,-9,95,-42,95,-112 c0,-50,-34,-89,-95,-89 c-97,0,-163,99,-180,203 l-284,0 l-45,-38 c1,-42,22,-92,54,-115 l41,12 l0,87 l185,0 c32,-102,106,-204,233,-204 c93,0,151,65,151,141 c0,64,-34,96,-49,110 l0,4 l188,0 l0,-380 Z M892,0" fill="rgb(0,0,0)" transform="matrix(0.1,0.0,0.0,-0.1,7.0,135.0)"/>
</svg>