<?xml version="1.0" encoding="UTF-8"?>
<svg height="200.0" version="1.1" width="96.0" xmlns="http://www.w3.org/2000/svg" xmlns:xlink="http://www.w3.org/1999/xlink">
 <path d="M0,0 l96,0 l0,200 l-96,0 Z M0,0" fill="rgb(255,255,255)" transform="matrix(1,0,0,-1,0.0,200.0)"/>
 <path d="M0,0 l96,0" fill="none" stroke="rgb(229,229,229)" stroke-width="2" transform="matrix(1,0,0,-1,0.0,135.0)"/>
 <path d="M0,1 l0,-5" fill="none" stroke="rgb(204,204,204)" stroke-width="2" transform="matrix(1,0,0,-1,7.0,135.0)"/>
 <path d="M0,1 l0,-5" fill="none" stroke="rgb(204,204,204)" stroke-width="2" transform="matrix(1,0,0,-1,88.0,135.0)"/>
 <path d="M493,28 c-61,46,-116,118,-116,224 c0,78,48,123,121,123 l150,0 l0,-375 l58,0 l0,582 l125,0 l0,52 l-851,0 l0,-52 l668,0 l0,-153 l-162,0 c-48,0,-89,-17,-118,-46 l-292,0 l-45,-38 c1,-42,22,-92,54,-115 l41,12 l0,87 l206,0 c-10,-23,-15,-49,-15,-77 c0,-115,56,-202,126,-258 Z M493,28" fill="rgb(0,0,0)" transform="matrix(0.1,0.0,0.0,-0.1,7.0,135.0)"/>
</svg>