<?xml version="1.0" encoding="UTF-8"?>
<svg height="200.0" version="1.1" width="94.0" xmlns="http://www.w3.org/2000/svg" xmlns:xlink="http://www.w3.org/1999/xlink">
 <path d="M0,0 l94,0 l0,200 l-94,0 Z M0,0" fill="rgb(255,255,255)" transform="matrix(1,0,0,-1,0.0,200.0)"/>
 <path d="M0,0 l94,0" fill="none" stroke="rgb(229,229,229)" stroke-width="2" transform="matrix(1,0,0,-1,0.0,135.0)"/>
 <path d="M0,1 l0,-5" fill="none" stroke="rgb(204,204,204)" stroke-width="2" transform="matrix(1,0,0,-1,7.0,135.0)"/>
 <path d="M0,1 l0,-5" fill="none" stroke="rgb(204,204,204)" stroke-width="2" transform="matrix(1,0,0,-1,86.0,135.0)"/>
 <path d="M76,383 l-45,-38 c1,-42,22,-92,54,-115 l41,12 l0,87 l199,0 c3,5,6,10,9,14 c28,41,75,64,122,64 c81,0,125,-61,144,-121 l-276,-166 l47,-44 l254,163 l4,0 l0,-239 l58,0 l0,582 l125,0 l0,52 l-832,0 l0,-52 l650,0 l0,-235 l-4,0 c-19,46,-66,119,-179,119 c-60,0,-126,-34,-159,-83 Z M76,383" fill="rgb(0,0,0)" transform="matrix(0.1,0.0,0.0,-0.1,7.0,135.0)"/>
</svg>