<?xml version="1.0" encoding="UTF-8"?>
<svg height="200.0" version="1.1" width="138.0" xmlns="http://www.w3.org/2000/svg" xmlns:xlink="http://www.w3.org/1999/xlink">
 <path d="M0,0 l138,0 l0,200 l-138,0 Z M0,0" fill="rgb(255,255,255)" transform="matrix(1,0,0,-1,0.0,200.0)"/>
 <path d="M0,0 l138,0" fill="none" stroke="rgb(229,229,229)" stroke-width="2" transform="matrix(1,0,0,-1,0.0,135.0)"/>
 <path d="M0,1 l0,-5" fill="none" stroke="rgb(204,204,204)" stroke-width="2" transform="matrix(1,0,0,-1,7.0,135.0)"/>
 <path d="M0,1 l0,-5" fill="none" stroke="rgb(204,204,204)" stroke-width="2" transform="matrix(1,0,0,-1,130.0,135.0)"/>
 <path d="M695,280 c11,-4,31,-5,40,-5 c31,0,61,9,83,27 c38,-15,98,-26,151,-26 c46,0,77,4,99,9 l0,-285 l58,0 l0,582 l125,0 l0,52 l-1271,0 l0,-52 l816,0 l0,-184 c0,-49,-24,-70,-73,-70 c-43,0,-71,20,-87,35 l-41,50 l-109,0 c-39,0,-73,-11,-100,-30 l-310,0 l-45,-38 c1,-42,22,-92,54,-115 l41,12 l0,87 l213,0 c-14,-26,-22,-57,-22,-91 c0,-111,58,-195,126,-248 l50,34 c-62,44,-116,109,-116,214 c0,78,48,121,121,121 l69,0 l17,-23 l251,-335 l47,32 l-123,163 c-24,32,-44,55,-66,81 Z M970,331 c-40,0,-86,6,-122,17 c4,13,6,26,6,42 l0,192 l214,0 l0,-241 c-25,-6,-58,-10,-98,-10 Z M970,331" fill="rgb(0,0,0)" transform="matrix(0.1,0.0,0.0,-0.1,7.0,135.0)"/>
</svg>