<?xml version="1.0" encoding="UTF-8"?>
<svg height="200.0" version="1.1" width="92.0" xmlns="http://www.w3.org/2000/svg" xmlns:xlink="http://www.w3.org/1999/xlink">
 <path d="M0,0 l92,0 l0,200 l-92,0 Z M0,0" fill="rgb(255,255,255)" transform="matrix(1,0,0,-1,0.0,200.0)"/>
 <path d="M0,0 l92,0" fill="none" stroke="rgb(229,229,229)" stroke-width="2" transform="matrix(1,0,0,-1,0.0,135.0)"/>
 <path d="M0,1 l0,-5" fill="none" stroke="rgb(204,204,204)" stroke-width="2" transform="matrix(1,0,0,-1,7.0,135.0)"/>
 <path d="M0,1 l0,-5" fill="none" stroke="rgb(204,204,204)" stroke-width="2" transform="matrix(1,0,0,-1,85.0,135.0)"/>
 <path d="M519,83 l-183,-104 l56,-46 l247,174 l66,-129 l72,17 l-100,137 c14,15,33,34,33,79 c0,38,-25,65,-43,74 l-47,-17 l0,-102 c-20,-17,-50,-28,-97,-28 c-92,0,-147,65,-147,136 c0,62,28,100,113,121 l160,39 l0,148 l149,0 l0,52 l-818,0 l0,-52 l611,0 l0,-107 l-131,-33 c-50,-13,-87,-32,-111,-59 l-273,0 l-45,-38 c1,-42,22,-92,54,-115 l41,12 l0,87 l194,0 c-4,-15,-6,-31,-6,-48 c0,-99,76,-196,205,-194 Z M519,83" fill="rgb(0,0,0)" transform="matrix(0.1,0.0,0.0,-0.1,7.0,135.0)"/>
</svg>