<?xml version="1.0" encoding="UTF-8"?>
<svg height="200.0" version="1.1" width="118.0" xmlns="http://www.w3.org/2000/svg" xmlns:xlink="http://www.w3.org/1999/xlink">
 <path d="M0,0 l118,0 l0,200 l-118,0 Z M0,0" fill="rgb(255,255,255)" transform="matrix(1,0,0,-1,0.0,200.0)"/>
 <path d="M0,0 l118,0" fill="none" stroke="rgb(229,229,229)" stroke-width="2" transform="matrix(1,0,0,-1,0.0,135.0)"/>
 <path d="M0,1 l0,-5" fill="none" stroke="rgb(204,204,204)" stroke-width="2" transform="matrix(1,0,0,-1,7.0,135.0)"/>
 <path d="M0,1 l0,-5" fill="none" stroke="rgb(204,204,204)" stroke-width="2" transform="matrix(1,0,0,-1,112.0,135.0)"/>
 <path d="M488,192 l-190,-148 l57,-38 l273,240 l4,0 l0,-246 l58,0 l0,259 c0,91,59,149,133,149 c68,0,113,-44,113,-111 c0,-77,-56,-135,-153,-118 l9,-57 c114,-14,206,61,206,176 c0,100,-75,166,-166,166 c-74,0,-121,-40,-138,-65 l-4,0 l0,183 l379,0 l0,52 l-1089,0 l0,-52 l367,0 l0,-199 l-271,0 l-45,-38 c1,-42,22,-92,54,-115 l41,12 l0,87 l222,0 c9,-91,70,-130,140,-133 Z M508,245 c-65,0,-103,32,-103,114 l0,223 l227,0 l0,-258 c-16,-34,-61,-79,-124,-79 Z M508,245" fill="rgb(0,0,0)" transform="matrix(0.1,0.0,0.0,-0.1,7.0,135.0)"/>
</svg>