<?xml version="1.0" encoding="UTF-8"?>
<svg height="200.0" version="1.1" width="96.0" xmlns="http://www.w3.org/2000/svg" xmlns:xlink="http://www.w3.org/1999/xlink">
 <path d="M0,0 l96,0 l0,200 l-96,0 Z M0,0" fill="rgb(255,255,255)" transform="matrix(1,0,0,-1,0.0,200.0)"/>
 <path d="M0,0 l96,0" fill="none" stroke="rgb(229,229,229)" stroke-width="2" transform="matrix(1,0,0,-1,0.0,135.0)"/>
 <path d="M0,1 l0,-5" fill="none" stroke="rgb(204,204,204)" stroke-width="2" transform="matrix(1,0,0,-1,7.0,135.0)"/>
 <path d="M0,1 l0,-5" fill="none" stroke="rgb(204,204,204)" stroke-width="2" transform="matrix(1,0,0,-1,90.0,135.0)"/>
 <path d="M375,383 l-299,0 l-45,-38 c1,-42,22,-92,54,-115 l41,12 l0,87 l247,0 l-45,-33 c1,-42,23,-95,54,-122 l51,0 l0,103 l231,0 l0,-277 l58,0 l0,582 l125,0 l0,52 l-265,0 l0,-52 l82,0 l0,-251 l-231,0 l0,181 c0,77,-50,122,-134,122 l-319,0 l0,-52 l316,0 c55,0,79,-22,79,-75 Z M375,383" fill="rgb(0,0,0)" transform="matrix(0.1,0.0,0.0,-0.1,7.0,135.0)"/>
</svg>