<?xml version="1.0" encoding="UTF-8"?>
<svg height="200.0" version="1.1" width="108.0" xmlns="http://www.w3.org/2000/svg" xmlns:xlink="http://www.w3.org/1999/xlink">
 <path d="M0,0 l108,0 l0,200 l-108,0 Z M0,0" fill="rgb(255,255,255)" transform="matrix(1,0,0,-1,0.0,200.0)"/>
 <path d="M0,0 l108,0" fill="none" stroke="rgb(229,229,229)" stroke-width="2" transform="matrix(1,0,0,-1,0.0,135.0)"/>
 <path d="M0,1 l0,-5" fill="none" stroke="rgb(204,204,204)" stroke-width="2" transform="matrix(1,0,0,-1,7.0,135.0)"/>
 <path d="M0,1 l0,-5" fill="none" stroke="rgb(204,204,204)" stroke-width="2" transform="matrix(1,0,0,-1,100.0,135.0)"/>
 <path d="M306,383 l-230,0 l-45,-38 c1,-42,22,-92,54,-115 l41,12 l0,87 l158,0 l253,-338 l47,32 l-123,163 c-24,32,-44,55,-66,81 l2,3 c11,-4,31,-5,40,-5 c36,0,69,11,91,36 c38,-13,94,-22,143,-22 c47,0,78,3,99,8 l0,-287 l58,0 l0,582 l125,0 l0,52 l-973,0 l0,-52 l518,0 l0,-194 c0,-49,-24,-70,-73,-70 c-34,0,-59,13,-76,25 Z M672,331 c-40,0,-84,6,-120,17 c3,9,4,20,4,32 l0,202 l214,0 l0,-240 c-25,-6,-60,-11,-98,-11 Z M672,331" fill="rgb(0,0,0)" transform="matrix(0.1,0.0,0.0,-0.1,7.0,135.0)"/>
</svg>