<?xml version="1.0" encoding="UTF-8"?>
<svg height="200.0" version="1.1" width="142.0" xmlns="http://www.w3.org/2000/svg" xmlns:xlink="http://www.w3.org/1999/xlink">
 <path d="M0,0 l142,0 l0,200 l-142,0 Z M0,0" fill="rgb(255,255,255)" transform="matrix(1,0,0,-1,0.0,200.0)"/>
 <path d="M0,0 l142,0" fill="none" stroke="rgb(229,229,229)" stroke-width="2" transform="matrix(1,0,0,-1,0.0,135.0)"/>
 <path d="M0,1 l0,-5" fill="none" stroke="rgb(204,204,204)" stroke-width="2" transform="matrix(1,0,0,-1,7.0,135.0)"/>
 <path d="M0,1 l0,-5" fill="none" stroke="rgb(204,204,204)" stroke-width="2" transform="matrix(1,0,0,-1,135.0,135.0)"/>
 <path d="M672,331 c-40,0,-86,6,-122,17 c4,13,6,26,6,42 l0,192 l268,0 c28,-23,47,-58,47,-98 c0,-62,-51,-96,-147,-118 c1,-11,3,-22,6,-32 c-17,-2,-37,-3,-58,-3 Z M1112,222 l4,0 l0,-222 l58,0 l0,582 l125,0 l0,52 l-1319,0 l0,-52 l518,0 l0,-184 c0,-49,-24,-70,-73,-70 c-47,0,-76,27,-92,39 l-9,9 l-248,0 l-45,-38 c1,-42,22,-92,54,-115 l41,12 l0,87 l170,0 l241,-321 l47,32 l-123,163 c-24,32,-44,55,-66,81 l2,3 c11,-4,31,-5,40,-5 c31,0,61,9,83,27 c38,-15,98,-26,151,-26 c32,0,56,2,76,5 c38,-88,112,-137,201,-137 c101,0,148,55,164,78 Z M794,335 c80,20,138,71,138,140 c0,48,-18,78,-40,103 l0,4 l225,0 l0,-205 c0,-115,-70,-178,-161,-178 c-109,0,-154,83,-162,136 Z M794,335" fill="rgb(0,0,0)" transform="matrix(0.1,0.0,0.0,-0.1,7.0,135.0)"/>
</svg>