<?xml version="1.0" encoding="UTF-8"?>
<svg height="200.0" version="1.1" width="104.0" xmlns="http://www.w3.org/2000/svg" xmlns:xlink="http://www.w3.org/1999/xlink">
 <path d="M0,0 l104,0 l0,200 l-104,0 Z M0,0" fill="rgb(255,255,255)" transform="matrix(1,0,0,-1,0.0,200.0)"/>
 <path d="M0,0 l104,0" fill="none" stroke="rgb(229,229,229)" stroke-width="2" transform="matrix(1,0,0,-1,0.0,135.0)"/>
 <path d="M0,1 l0,-5" fill="none" stroke="rgb(204,204,204)" stroke-width="2" transform="matrix(1,0,0,-1,7.0,135.0)"/>
 <path d="M0,1 l0,-5" fill="none" stroke="rgb(204,204,204)" stroke-width="2" transform="matrix(1,0,0,-1,98.0,135.0)"/>
 <path d="M572,178 c-78,0,-129,47,-129,110 c0,64,45,110,122,110 l83,0 l0,53 l-355,0 l0,-54 l140,0 l0,-4 c-18,-12,-52,-45,-52,-107 c0,-4,0,-8,0,-11 c-18,-15,-57,-38,-114,-38 c-76,0,-119,36,-119,116 l0,229 l598,0 l0,-221 c0,-113,-74,-183,-174,-183 Z M746,203 l0,-203 l58,0 l0,582 l125,0 l0,52 l-949,0 l0,-52 l110,0 l0,-239 c0,-109,77,-161,171,-161 c61,0,105,16,135,37 c27,-56,89,-96,169,-96 c99,0,155,48,177,80 Z M746,203" fill="rgb(0,0,0)" transform="matrix(0.1,0.0,0.0,-0.1,7.0,135.0)"/>
</svg>