<?xml version="1.0" encoding="UTF-8"?>
<svg height="200.0" version="1.1" width="100.0" xmlns="http://www.w3.org/2000/svg" xmlns:xlink="http://www.w3.org/1999/xlink">
 <path d="M0,0 l100,0 l0,200 l-100,0 Z M0,0" fill="rgb(255,255,255)" transform="matrix(1,0,0,-1,0.0,200.0)"/>
 <path d="M0,0 l100,0" fill="none" stroke="rgb(229,229,229)" stroke-width="2" transform="matrix(1,0,0,-1,0.0,135.0)"/>
 <path d="M0,1 l0,-5" fill="none" stroke="rgb(204,204,204)" stroke-width="2" transform="matrix(1,0,0,-1,7.0,135.0)"/>
 <path d="M0,1 l0,-5" fill="none" stroke="rgb(204,204,204)" stroke-width="2" transform="matrix(1,0,0,-1,93.0,135.0)"/>
 <path d="M256,257 c-68,0,-108,31,-108,114 l0,211 l553,0 l0,-153 l-162,0 c-76,0,-135,-43,-158,-110 c-25,-31,-65,-62,-125,-62 Z M546,28 c-61,46,-116,118,-116,224 c0,78,48,123,121,123 l150,0 l0,-375 l58,0 l0,582 l125,0 l0,52 l-904,0 l0,-52 l110,0 l0,-221 c0,-108,73,-159,160,-159 c51,0,90,14,120,35 c5,-108,59,-189,126,-243 Z M546,28" fill="rgb(0,0,0)" transform="matrix(0.1,0.0,0.0,-0.1,7.0,135.0)"/>
</svg>