<?xml version="1.0" encoding="UTF-8"?>
<svg height="200.0" version="1.1" width="136.0" xmlns="http://www.w3.org/2000/svg" xmlns:xlink="http://www.w3.org/1999/xlink">
 <path d="M0,0 l136,0 l0,200 l-136,0 Z M0,0" fill="rgb(255,255,255)" transform="matrix(1,0,0,-1,0.0,200.0)"/>
 <path d="M0,0 l136,0" fill="none" stroke="rgb(229,229,229)" stroke-width="2" transform="matrix(1,0,0,-1,0.0,135.0)"/>
 <path d="M0,1 l0,-5" fill="none" stroke="rgb(204,204,204)" stroke-width="2" transform="matrix(1,0,0,-1,7.0,135.0)"/>
 <path d="M0,1 l0,-5" fill="none" stroke="rgb(204,204,204)" stroke-width="2" transform="matrix(1,0,0,-1,129.0,135.0)"/>
 <path d="M256,257 c-68,0,-108,31,-108,114 l0,211 l617,0 c28,-23,47,-58,47,-98 c0,-43,-25,-73,-72,-94 c-32,24,-80,39,-137,39 l-60,0 c-72,0,-128,-38,-154,-99 c-24,-34,-66,-73,-133,-73 Z M250,202 c53,0,93,16,124,38 c4,-109,58,-192,126,-246 l50,34 c-61,46,-116,118,-116,224 c0,78,48,123,121,123 l39,0 c30,0,52,-2,71,-9 c19,-140,109,-222,224,-222 c101,0,148,55,164,78 l4,0 l0,-222 l58,0 l0,582 l125,0 l0,52 l-1260,0 l0,-52 l110,0 l0,-221 c0,-108,73,-159,160,-159 Z M735,335 c80,20,138,71,138,140 c0,48,-18,78,-40,103 l0,4 l225,0 l0,-205 c0,-115,-70,-178,-161,-178 c-109,0,-154,83,-162,136 Z M735,335" fill="rgb(0,0,0)" transform="matrix(0.1,0.0,0.0,-0.1,7.0,135.0)"/>
</svg>