<?xml version="1.0" encoding="UTF-8"?>
<svg height="200.0" version="1.1" width="100.0" xmlns="http://www.w3.org/2000/svg" xmlns:xlink="http://www.w3.org/1999/xlink">
 <path d="M0,0 l100,0 l0,200 l-100,0 Z M0,0" fill="rgb(255,255,255)" transform="matrix(1,0,0,-1,0.0,200.0)"/>
 <path d="M0,0 l100,0" fill="none" stroke="rgb(229,229,229)" stroke-width="2" transform="matrix(1,0,0,-1,0.0,135.0)"/>
 <path d="M0,1 l0,-5" fill="none" stroke="rgb(204,204,204)" stroke-width="2" transform="matrix(1,0,0,-1,7.0,135.0)"/>
 <path d="M0,1 l0,-5" fill="none" stroke="rgb(204,204,204)" stroke-width="2" transform="matrix(1,0,0,-1,94.0,135.0)"/>
 <path d="M250,202 c82,0,134,38,168,81 c27,-55,82,-81,144,-81 c76,0,117,32,137,66 l4,0 l0,-268 l58,0 l0,582 l125,0 l0,52 l-906,0 l0,-52 l110,0 l0,-221 c0,-108,73,-159,160,-159 Z M256,257 c-68,0,-108,31,-108,114 l0,211 l254,0 l0,-221 c0,-3,0,-7,0,-9 c-20,-39,-65,-95,-146,-95 Z M703,409 c0,-90,-47,-152,-135,-152 c-68,0,-108,31,-108,114 l0,211 l243,0 Z M703,409" fill="rgb(0,0,0)" transform="matrix(0.1,0.0,0.0,-0.1,7.0,135.0)"/>
</svg>