<?xml version="1.0" encoding="UTF-8"?>
<svg height="200.0" version="1.1" width="100.0" xmlns="http://www.w3.org/2000/svg" xmlns:xlink="http://www.w3.org/1999/xlink">
 <path d="M0,0 l100,0 l0,200 l-100,0 Z M0,0" fill="rgb(255,255,255)" transform="matrix(1,0,0,-1,0.0,200.0)"/>
 <path d="M0,0 l100,0" fill="none" stroke="rgb(229,229,229)" stroke-width="2" transform="matrix(1,0,0,-1,0.0,135.0)"/>
 <path d="M0,1 l0,-5" fill="none" stroke="rgb(204,204,204)" stroke-width="2" transform="matrix(1,0,0,-1,7.0,135.0)"/>
 <path d="M0,1 l0,-5" fill="none" stroke="rgb(204,204,204)" stroke-width="2" transform="matrix(1,0,0,-1,92.0,135.0)"/>
 <path d="M256,264 c-68,0,-108,31,-108,114 l0,204 l250,0 l0,-252 l-47,-34 c-22,-16,-55,-32,-95,-32 Z M745,0 l0,582 l125,0 l0,52 l-890,0 l0,-52 l110,0 l0,-214 c0,-108,73,-159,160,-159 c49,0,86,15,112,33 c9,-27,25,-52,43,-68 l51,0 l0,103 l231,0 l0,-277 Z M687,582 l0,-251 l-231,0 l0,251 Z M687,582" fill="rgb(0,0,0)" transform="matrix(0.1,0.0,0.0,-0.1,7.0,135.0)"/>
</svg>