<?xml version="1.0" encoding="UTF-8"?>
<svg height="200.0" version="1.1" width="106.0" xmlns="http://www.w3.org/2000/svg" xmlns:xlink="http://www.w3.org/1999/xlink">
 <path d="M0,0 l106,0 l0,200 l-106,0 Z M0,0" fill="rgb(255,255,255)" transform="matrix(1,0,0,-1,0.0,200.0)"/>
 <path d="M0,0 l106,0" fill="none" stroke="rgb(229,229,229)" stroke-width="2" transform="matrix(1,0,0,-1,0.0,135.0)"/>
 <path d="M0,1 l0,-5" fill="none" stroke="rgb(204,204,204)" stroke-width="2" transform="matrix(1,0,0,-1,7.0,135.0)"/>
 <path d="M0,1 l0,-5" fill="none" stroke="rgb(204,204,204)" stroke-width="2" transform="matrix(1,0,0,-1,100.0,135.0)"/>
 <path d="M250,202 c71,0,119,28,153,63 c39,-78,109,-121,193,-121 c101,0,148,55,164,78 l4,0 l0,-222 l58,0 l0,582 l125,0 l0,52 l-967,0 l0,-52 l110,0 l0,-221 c0,-108,73,-159,160,-159 Z M256,257 c-68,0,-108,31,-108,114 l0,211 l324,0 c28,-23,47,-58,47,-98 c0,-62,-51,-96,-147,-118 c2,-16,5,-32,9,-46 c-25,-32,-65,-63,-125,-63 Z M442,335 c80,20,138,71,138,140 c0,48,-18,78,-40,103 l0,4 l225,0 l0,-205 c0,-115,-70,-178,-161,-178 c-100,0,-146,69,-159,122 c-1,5,-2,10,-3,14 Z M442,335" fill="rgb(0,0,0)" transform="matrix(0.1,0.0,0.0,-0.1,7.0,135.0)"/>
</svg>