<?xml version="1.0" encoding="UTF-8"?>
<svg height="200.0" version="1.1" width="102.0" xmlns="http://www.w3.org/2000/svg" xmlns:xlink="http://www.w3.org/1999/xlink">
 <path d="M0,0 l102,0 l0,200 l-102,0 Z M0,0" fill="rgb(255,255,255)" transform="matrix(1,0,0,-1,0.0,200.0)"/>
 <path d="M0,0 l102,0" fill="none" stroke="rgb(229,229,229)" stroke-width="2" transform="matrix(1,0,0,-1,0.0,135.0)"/>
 <path d="M0,1 l0,-5" fill="none" stroke="rgb(204,204,204)" stroke-width="2" transform="matrix(1,0,0,-1,7.0,135.0)"/>
 <path d="M0,1 l0,-5" fill="none" stroke="rgb(204,204,204)" stroke-width="2" transform="matrix(1,0,0,-1,94.0,135.0)"/>
 <path d="M250,202 c62,0,106,21,139,50 c21,-81,94,-131,172,-131 c78,0,125,37,146,65 l4,0 l0,-186 l58,0 l0,582 l125,0 l0,52 l-914,0 l0,-52 l110,0 l0,-221 c0,-108,73,-159,160,-159 Z M571,176 c-77,0,-126,55,-126,126 c0,94,86,139,178,116 l-6,57 c-99,19,-219,-28,-233,-152 c-25,-32,-65,-66,-128,-66 c-68,0,-108,31,-108,114 l0,211 l563,0 l0,-254 c0,-86,-55,-152,-140,-152 Z M571,176" fill="rgb(0,0,0)" transform="matrix(0.1,0.0,0.0,-0.1,7.0,135.0)"/>
</svg>