<?xml version="1.0" encoding="UTF-8"?>
<svg height="200.0" version="1.1" width="146.0" xmlns="http://www.w3.org/2000/svg" xmlns:xlink="http://www.w3.org/1999/xlink">
 <path d="M0,0 l146,0 l0,200 l-146,0 Z M0,0" fill="rgb(255,255,255)" transform="matrix(1,0,0,-1,0.0,200.0)"/>
 <path d="M0,0 l146,0" fill="none" stroke="rgb(229,229,229)" stroke-width="2" transform="matrix(1,0,0,-1,0.0,135.0)"/>
 <path d="M0,1 l0,-5" fill="none" stroke="rgb(204,204,204)" stroke-width="2" transform="matrix(1,0,0,-1,7.0,135.0)"/>
 <path d="M0,1 l0,-5" fill="none" stroke="rgb(204,204,204)" stroke-width="2" transform="matrix(1,0,0,-1,140.0,135.0)"/>
 <path d="M575,463 c-74,0,-121,-40,-138,-65 l-4,0 l0,184 l730,0 l0,-149 l-267,0 l-27,-48 l0,-4 c34,-9,95,-42,95,-112 c0,-50,-34,-89,-95,-89 c-110,0,-180,126,-184,244 c-30,25,-68,39,-110,39 Z M376,406 c0,-95,-54,-152,-131,-152 c-61,0,-97,31,-97,112 l0,216 l228,0 Z M433,258 c0,91,59,149,133,149 c23,0,43,-5,59,-13 c18,-119,95,-269,248,-269 c93,0,151,65,151,141 c0,64,-34,96,-49,110 l0,4 l188,0 l0,-380 l58,0 l0,582 l125,0 l0,52 l-1366,0 l0,-52 l110,0 l0,-225 c0,-106,66,-158,152,-158 c71,0,112,35,129,65 l4,0 l0,-264 l58,0 Z M671,29 c0,-24,17,-41,41,-41 c24,0,41,17,41,41 c0,24,-17,41,-41,41 c-24,0,-41,-17,-41,-41 Z M108,41 c0,-24,17,-41,41,-41 c24,0,41,17,41,41 c0,24,-17,41,-41,41 c-24,0,-41,-17,-41,-41 Z M108,41" fill="rgb(0,0,0)" transform="matrix(0.1,0.0,0.0,-0.1,7.0,135.0)"/>
</svg>