<?xml version="1.0" encoding="UTF-8"?>
<svg height="200.0" version="1.1" width="148.0" xmlns="http://www.w3.org/2000/svg" xmlns:xlink="http://www.w3.org/1999/xlink">
 <path d="M0,0 l148,0 l0,200 l-148,0 Z M0,0" fill="rgb(255,255,255)" transform="matrix(1,0,0,-1,0.0,200.0)"/>
 <path d="M0,0 l148,0" fill="none" stroke="rgb(229,229,229)" stroke-width="2" transform="matrix(1,0,0,-1,0.0,135.0)"/>
 <path d="M0,1 l0,-5" fill="none" stroke="rgb(204,204,204)" stroke-width="2" transform="matrix(1,0,0,-1,7.0,135.0)"/>
 <path d="M0,1 l0,-5" fill="none" stroke="rgb(204,204,204)" stroke-width="2" transform="matrix(1,0,0,-1,141.0,135.0)"/>
 <path d="M148,366 l0,216 l228,0 l0,-176 c0,-95,-54,-152,-131,-152 c-61,0,-97,31,-97,112 Z M992,26 l-143,140 c-48,47,-66,60,-93,86 l2,4 c157,-13,284,67,284,213 c0,91,-57,175,-162,175 c-87,0,-145,-59,-145,-132 c0,-54,30,-100,83,-115 l36,44 c-40,9,-59,40,-59,71 c0,46,32,78,85,78 c51,0,102,-41,102,-121 c0,-101,-84,-160,-192,-160 c-15,0,-32,1,-50,4 c-7,91,-79,150,-165,150 c-74,0,-121,-40,-138,-65 l-4,0 l0,184 l167,0 l0,52 l-620,0 l0,-52 l110,0 l0,-225 c0,-106,66,-158,152,-158 c71,0,112,35,129,65 l4,0 l0,-264 l58,0 l0,258 c0,91,59,149,133,149 c71,0,108,-45,113,-95 l-28,-37 l66,-58 l227,-224 Z M1233,0 l0,582 l125,0 l0,52 l-183,0 l0,-634 Z M1233,0" fill="rgb(0,0,0)" transform="matrix(0.1,0.0,0.0,-0.1,7.0,135.0)"/>
</svg>