<?xml version="1.0" encoding="UTF-8"?>
<svg height="200.0" version="1.1" width="140.0" xmlns="http://www.w3.org/2000/svg" xmlns:xlink="http://www.w3.org/1999/xlink">
 <path d="M0,0 l140,0 l0,200 l-140,0 Z M0,0" fill="rgb(255,255,255)" transform="matrix(1,0,0,-1,0.0,200.0)"/>
 <path d="M0,0 l140,0" fill="none" stroke="rgb(229,229,229)" stroke-width="2" transform="matrix(1,0,0,-1,0.0,135.0)"/>
 <path d="M0,1 l0,-5" fill="none" stroke="rgb(204,204,204)" stroke-width="2" transform="matrix(1,0,0,-1,7.0,135.0)"/>
 <path d="M0,1 l0,-5" fill="none" stroke="rgb(204,204,204)" stroke-width="2" transform="matrix(1,0,0,-1,134.0,135.0)"/>
 <path d="M733,280 c11,-4,31,-5,40,-5 c31,0,61,9,83,27 c38,-15,98,-26,151,-26 c43,0,70,2,99,9 l0,-285 l58,0 l0,582 l125,0 l0,52 l-1309,0 l0,-52 l110,0 l0,-225 c0,-106,66,-158,152,-158 c71,0,112,35,129,65 l4,0 l0,-264 l59,0 l0,244 c0,83,42,142,108,142 c36,0,59,-23,105,-83 l226,-302 l47,32 l-123,163 c-24,32,-44,55,-66,81 Z M761,328 c-51,0,-81,28,-95,43 c-40,45,-69,69,-121,69 c-54,0,-91,-30,-107,-58 l-4,0 l0,200 l400,0 l0,-184 c0,-49,-24,-70,-73,-70 Z M376,406 c0,-95,-54,-152,-131,-152 c-61,0,-97,31,-97,112 l0,216 l228,0 Z M1008,331 c-40,0,-86,6,-122,17 c4,13,6,26,6,42 l0,192 l214,0 l0,-241 c-25,-6,-58,-10,-98,-10 Z M108,41 c0,-24,17,-41,41,-41 c24,0,41,17,41,41 c0,24,-17,41,-41,41 c-24,0,-41,-17,-41,-41 Z M108,41" fill="rgb(0,0,0)" transform="matrix(0.1,0.0,0.0,-0.1,7.0,135.0)"/>
</svg>