<?xml version="1.0" encoding="UTF-8"?>
<svg height="200.0" version="1.1" width="126.0" xmlns="http://www.w3.org/2000/svg" xmlns:xlink="http://www.w3.org/1999/xlink">
 <path d="M0,0 l126,0 l0,200 l-126,0 Z M0,0" fill="rgb(255,255,255)" transform="matrix(1,0,0,-1,0.0,200.0)"/>
 <path d="M0,0 l126,0" fill="none" stroke="rgb(229,229,229)" stroke-width="2" transform="matrix(1,0,0,-1,0.0,135.0)"/>
 <path d="M0,1 l0,-5" fill="none" stroke="rgb(204,204,204)" stroke-width="2" transform="matrix(1,0,0,-1,7.0,135.0)"/>
 <path d="M0,1 l0,-5" fill="none" stroke="rgb(204,204,204)" stroke-width="2" transform="matrix(1,0,0,-1,119.0,135.0)"/>
 <path d="M259,163 c-97,0,-148,60,-148,137 c0,28,7,52,20,72 l213,-186 c-24,-14,-52,-23,-85,-23 Z M252,108 c117,0,191,75,217,156 c22,-24,50,-42,78,-51 l161,32 c13,-9,31,-30,31,-67 c0,-69,-68,-101,-140,-101 l-39,0 l-111,78 c-9,-6,-22,-21,-22,-43 c0,-39,35,-81,132,-85 l152,-138 l65,34 l-154,105 l0,4 c82,-3,175,45,175,147 c0,21,-4,39,-10,55 c25,-9,52,-15,81,-15 c37,0,65,5,87,14 l0,-233 l58,0 l0,582 l125,0 l0,52 l-1158,0 l0,-52 l715,0 l0,-113 l-158,0 c-67,0,-109,-42,-109,-102 c0,-3,0,-6,0,-8 c3,-50,-14,-102,-46,-140 l-217,189 c26,18,59,27,93,27 c22,0,45,-3,66,-11 l-2,57 c-19,6,-45,8,-66,8 c-110,0,-205,-76,-205,-191 c0,-112,84,-190,201,-190 Z M729,304 l-170,-34 c-37,10,-70,46,-70,86 c0,36,16,60,75,60 l188,0 l0,166 l203,0 l0,-288 c-19,-10,-51,-20,-92,-20 c-55,0,-106,15,-134,30 Z M729,304" fill="rgb(0,0,0)" transform="matrix(0.1,0.0,0.0,-0.1,7.0,135.0)"/>
</svg>