<?xml version="1.0" encoding="UTF-8"?>
<svg height="200.0" version="1.1" width="102.0" xmlns="http://www.w3.org/2000/svg" xmlns:xlink="http://www.w3.org/1999/xlink">
 <path d="M0,0 l102,0 l0,200 l-102,0 Z M0,0" fill="rgb(255,255,255)" transform="matrix(1,0,0,-1,0.0,200.0)"/>
 <path d="M0,0 l102,0" fill="none" stroke="rgb(229,229,229)" stroke-width="2" transform="matrix(1,0,0,-1,0.0,135.0)"/>
 <path d="M0,1 l0,-5" fill="none" stroke="rgb(204,204,204)" stroke-width="2" transform="matrix(1,0,0,-1,7.0,135.0)"/>
 <path d="M0,1 l0,-5" fill="none" stroke="rgb(204,204,204)" stroke-width="2" transform="matrix(1,0,0,-1,95.0,135.0)"/>
 <path d="M248,108 c99,0,157,49,190,94 c30,-66,100,-122,203,-122 c37,0,76,8,103,22 l75,-132 l71,18 l-106,138 c15,13,33,41,33,81 c0,38,-25,66,-43,74 l-46,-17 l0,-103 c-17,-15,-52,-26,-96,-26 c-90,0,-150,66,-150,142 c0,56,27,93,111,114 l162,40 l0,151 l148,0 l0,52 l-923,0 l0,-52 l717,0 l0,-110 l-129,-32 c-93,-23,-144,-73,-148,-151 c-6,-18,-17,-42,-35,-64 l-219,183 c26,17,58,27,92,27 c22,0,45,-3,66,-11 l-2,57 c-19,6,-45,8,-66,8 c-110,0,-206,-78,-206,-193 c0,-112,83,-188,198,-188 Z M255,163 c-95,0,-145,58,-145,135 c0,29,8,54,21,74 l217,-181 c-24,-17,-55,-28,-93,-28 Z M255,163" fill="rgb(0,0,0)" transform="matrix(0.1,0.0,0.0,-0.1,7.0,135.0)"/>
</svg>