<?xml version="1.0" encoding="UTF-8"?>
<svg height="200.0" version="1.1" width="110.0" xmlns="http://www.w3.org/2000/svg" xmlns:xlink="http://www.w3.org/1999/xlink">
 <path d="M0,0 l110,0 l0,200 l-110,0 Z M0,0" fill="rgb(255,255,255)" transform="matrix(1,0,0,-1,0.0,200.0)"/>
 <path d="M0,0 l110,0" fill="none" stroke="rgb(229,229,229)" stroke-width="2" transform="matrix(1,0,0,-1,0.0,135.0)"/>
 <path d="M0,1 l0,-5" fill="none" stroke="rgb(204,204,204)" stroke-width="2" transform="matrix(1,0,0,-1,7.0,135.0)"/>
 <path d="M0,1 l0,-5" fill="none" stroke="rgb(204,204,204)" stroke-width="2" transform="matrix(1,0,0,-1,103.0,135.0)"/>
 <path d="M255,163 c-95,0,-145,58,-145,135 c0,29,8,54,21,74 l217,-181 c-24,-17,-55,-28,-93,-28 Z M977,582 l0,52 l-273,0 l0,-52 l91,0 l0,-226 c0,-93,-63,-178,-191,-178 c-89,0,-122,49,-122,95 c0,51,35,85,109,85 l61,0 l0,54 l-62,0 c-81,0,-115,37,-115,83 c0,40,23,69,78,86 l-13,53 l-560,0 l0,-52 l483,0 l0,-4 c-21,-9,-50,-38,-50,-85 c0,-64,44,-99,91,-106 l0,-4 c-36,-10,-73,-39,-82,-88 c-5,-18,-17,-45,-37,-70 l-219,183 c26,17,58,27,92,27 c22,0,45,-3,66,-11 l-2,57 c-19,6,-45,8,-66,8 c-110,0,-206,-78,-206,-193 c0,-112,83,-188,198,-188 c99,0,158,50,190,95 c26,-45,80,-80,165,-80 c109,0,167,55,187,85 l4,0 l0,-208 l58,0 l0,582 Z M977,582" fill="rgb(0,0,0)" transform="matrix(0.1,0.0,0.0,-0.1,7.0,135.0)"/>
</svg>