<?xml version="1.0" encoding="UTF-8"?>
<svg height="200.0" version="1.1" width="96.0" xmlns="http://www.w3.org/2000/svg" xmlns:xlink="http://www.w3.org/1999/xlink">
 <path d="M0,0 l96,0 l0,200 l-96,0 Z M0,0" fill="rgb(255,255,255)" transform="matrix(1,0,0,-1,0.0,200.0)"/>
 <path d="M0,0 l96,0" fill="none" stroke="rgb(229,229,229)" stroke-width="2" transform="matrix(1,0,0,-1,0.0,135.0)"/>
 <path d="M0,1 l0,-5" fill="none" stroke="rgb(204,204,204)" stroke-width="2" transform="matrix(1,0,0,-1,7.0,135.0)"/>
 <path d="M0,1 l0,-5" fill="none" stroke="rgb(204,204,204)" stroke-width="2" transform="matrix(1,0,0,-1,90.0,135.0)"/>
 <path d="M453,242 l0,87 l213,0 l0,-329 l58,0 l0,582 l125,0 l0,52 l-523,0 l0,-52 l340,0 l0,-199 l-263,0 l-45,-38 c0,-5,0,-9,1,-14 l-182,0 l0,181 c0,77,-50,122,-134,122 l-63,0 l0,-52 l60,0 c55,0,79,-22,79,-75 l0,-177 l-47,-34 c1,-42,23,-95,54,-122 l51,0 l0,103 l198,0 c9,-19,22,-36,37,-47 Z M453,242" fill="rgb(0,0,0)" transform="matrix(0.1,0.0,0.0,-0.1,7.0,135.0)"/>
</svg>