<?xml version="1.0" encoding="UTF-8"?>
<svg height="200.0" version="1.1" width="102.0" xmlns="http://www.w3.org/2000/svg" xmlns:xlink="http://www.w3.org/1999/xlink">
 <path d="M0,0 l102,0 l0,200 l-102,0 Z M0,0" fill="rgb(255,255,255)" transform="matrix(1,0,0,-1,0.0,200.0)"/>
 <path d="M0,0 l102,0" fill="none" stroke="rgb(229,229,229)" stroke-width="2" transform="matrix(1,0,0,-1,0.0,135.0)"/>
 <path d="M0,1 l0,-5" fill="none" stroke="rgb(204,204,204)" stroke-width="2" transform="matrix(1,0,0,-1,7.0,135.0)"/>
 <path d="M0,1 l0,-5" fill="none" stroke="rgb(204,204,204)" stroke-width="2" transform="matrix(1,0,0,-1,96.0,135.0)"/>
 <path d="M783,582 l125,0 l0,52 l-928,0 l0,-52 l139,0 l0,-252 l-47,-34 c1,-42,23,-95,54,-122 l51,0 l0,103 l201,0 c9,-102,91,-170,189,-170 c83,0,132,40,154,69 l4,0 l0,-176 l58,0 Z M585,435 c22,0,45,-3,66,-11 l-2,57 c-19,6,-45,8,-66,8 c-98,0,-186,-62,-203,-158 l-203,0 l0,251 l548,0 l0,-275 c0,-29,-7,-54,-20,-76 l-212,177 c26,17,58,27,92,27 Z M574,162 c-77,0,-127,49,-136,115 l2,0 l0,51 c3,16,10,31,18,44 l214,-178 c-25,-20,-59,-32,-98,-32 Z M574,162" fill="rgb(0,0,0)" transform="matrix(0.1,0.0,0.0,-0.1,7.0,135.0)"/>
</svg>