<?xml version="1.0" encoding="UTF-8"?>
<svg height="200.0" version="1.1" width="108.0" xmlns="http://www.w3.org/2000/svg" xmlns:xlink="http://www.w3.org/1999/xlink">
 <path d="M0,0 l108,0 l0,200 l-108,0 Z M0,0" fill="rgb(255,255,255)" transform="matrix(1,0,0,-1,0.0,200.0)"/>
 <path d="M0,0 l108,0" fill="none" stroke="rgb(229,229,229)" stroke-width="2" transform="matrix(1,0,0,-1,0.0,135.0)"/>
 <path d="M0,1 l0,-5" fill="none" stroke="rgb(204,204,204)" stroke-width="2" transform="matrix(1,0,0,-1,7.0,135.0)"/>
 <path d="M0,1 l0,-5" fill="none" stroke="rgb(204,204,204)" stroke-width="2" transform="matrix(1,0,0,-1,100.0,135.0)"/>
 <path d="M769,222 l0,-222 l58,0 l0,582 l125,0 l0,52 l-972,0 l0,-52 l139,0 l0,-252 l-47,-34 c1,-42,23,-95,54,-122 l51,0 l0,103 l225,0 c38,-85,111,-133,199,-133 c101,0,148,55,164,78 Z M477,582 c28,-23,47,-58,47,-98 c0,-62,-51,-96,-147,-118 c2,-12,4,-24,7,-35 l-207,0 l0,251 Z M447,335 c80,20,138,71,138,140 c0,48,-18,78,-40,103 l0,4 l225,0 l0,-205 c0,-115,-70,-178,-161,-178 c-109,0,-154,83,-162,136 Z M447,335" fill="rgb(0,0,0)" transform="matrix(0.1,0.0,0.0,-0.1,7.0,135.0)"/>
</svg>