<?xml version="1.0" encoding="UTF-8"?>
<svg height="200.0" version="1.1" width="100.0" xmlns="http://www.w3.org/2000/svg" xmlns:xlink="http://www.w3.org/1999/xlink">
 <path d="M0,0 l100,0 l0,200 l-100,0 Z M0,0" fill="rgb(255,255,255)" transform="matrix(1,0,0,-1,0.0,200.0)"/>
 <path d="M0,0 l100,0" fill="none" stroke="rgb(229,229,229)" stroke-width="2" transform="matrix(1,0,0,-1,0.0,135.0)"/>
 <path d="M0,1 l0,-5" fill="none" stroke="rgb(204,204,204)" stroke-width="2" transform="matrix(1,0,0,-1,7.0,135.0)"/>
 <path d="M0,1 l0,-5" fill="none" stroke="rgb(204,204,204)" stroke-width="2" transform="matrix(1,0,0,-1,94.0,135.0)"/>
 <path d="M763,582 l125,0 l0,52 l-908,0 l0,-52 l139,0 l0,-252 l-47,-34 c1,-42,23,-95,54,-122 l51,0 l0,103 l201,0 c11,-96,91,-156,177,-156 c78,0,125,37,146,65 l4,0 l0,-186 l58,0 Z M565,176 c-71,0,-118,46,-125,109 l0,34 c10,82,91,121,177,99 l-6,57 c-97,18,-214,-26,-232,-144 l-202,0 l0,251 l528,0 l0,-254 c0,-86,-55,-152,-140,-152 Z M565,176" fill="rgb(0,0,0)" transform="matrix(0.1,0.0,0.0,-0.1,7.0,135.0)"/>
</svg>