<?xml version="1.0" encoding="UTF-8"?>
<svg height="200.0" version="1.1" width="114.0" xmlns="http://www.w3.org/2000/svg" xmlns:xlink="http://www.w3.org/1999/xlink">
 <path d="M0,0 l114,0 l0,200 l-114,0 Z M0,0" fill="rgb(255,255,255)" transform="matrix(1,0,0,-1,0.0,200.0)"/>
 <path d="M0,0 l114,0" fill="none" stroke="rgb(229,229,229)" stroke-width="2" transform="matrix(1,0,0,-1,0.0,135.0)"/>
 <path d="M0,1 l0,-5" fill="none" stroke="rgb(204,204,204)" stroke-width="2" transform="matrix(1,0,0,-1,7.0,135.0)"/>
 <path d="M0,1 l0,-5" fill="none" stroke="rgb(204,204,204)" stroke-width="2" transform="matrix(1,0,0,-1,107.0,135.0)"/>
 <path d="M735,331 c-40,0,-84,6,-120,17 c3,9,4,20,4,32 l0,202 l214,0 l0,-240 c-25,-6,-60,-11,-98,-11 Z M488,318 c-51,0,-81,28,-95,43 l-35,-28 l-181,0 l0,249 l384,0 l0,-194 c0,-49,-24,-70,-73,-70 Z M460,270 c11,-4,31,-5,40,-5 c36,0,69,11,91,36 c38,-13,94,-22,143,-22 c47,0,78,3,99,8 l0,-287 l58,0 l0,582 l125,0 l0,52 l-1036,0 l0,-52 l139,0 l0,-250 l-47,-34 c1,-42,23,-95,54,-122 l51,0 l0,103 l207,0 l216,-288 l47,32 l-123,163 c-24,32,-44,55,-66,81 Z M460,270" fill="rgb(0,0,0)" transform="matrix(0.1,0.0,0.0,-0.1,7.0,135.0)"/>
</svg>