<?xml version="1.0" encoding="UTF-8"?>
<svg height="200.0" version="1.1" width="102.0" xmlns="http://www.w3.org/2000/svg" xmlns:xlink="http://www.w3.org/1999/xlink">
 <path d="M0,0 l102,0 l0,200 l-102,0 Z M0,0" fill="rgb(255,255,255)" transform="matrix(1,0,0,-1,0.0,200.0)"/>
 <path d="M0,0 l102,0" fill="none" stroke="rgb(229,229,229)" stroke-width="2" transform="matrix(1,0,0,-1,0.0,135.0)"/>
 <path d="M0,1 l0,-5" fill="none" stroke="rgb(204,204,204)" stroke-width="2" transform="matrix(1,0,0,-1,7.0,135.0)"/>
 <path d="M0,1 l0,-5" fill="none" stroke="rgb(204,204,204)" stroke-width="2" transform="matrix(1,0,0,-1,95.0,135.0)"/>
 <path d="M280,144 c98,0,156,41,194,90 l27,8 l0,87 l213,0 l0,-329 l58,0 l0,582 l125,0 l0,52 l-917,0 l0,-52 l170,0 c28,-23,47,-58,47,-98 c0,-62,-51,-96,-147,-118 c19,-140,110,-222,230,-222 Z M288,199 c-114,0,-160,83,-168,136 c80,20,138,71,138,140 c0,48,-18,78,-40,103 l0,4 l496,0 l0,-199 l-263,0 l-45,-38 c1,-27,9,-57,24,-81 c-29,-35,-74,-65,-142,-65 Z M288,199" fill="rgb(0,0,0)" transform="matrix(0.1,0.0,0.0,-0.1,7.0,135.0)"/>
</svg>