<?xml version="1.0" encoding="UTF-8"?>
<svg height="200.0" version="1.1" width="122.0" xmlns="http://www.w3.org/2000/svg" xmlns:xlink="http://www.w3.org/1999/xlink">
 <path d="M0,0 l122,0 l0,200 l-122,0 Z M0,0" fill="rgb(255,255,255)" transform="matrix(1,0,0,-1,0.0,200.0)"/>
 <path d="M0,0 l122,0" fill="none" stroke="rgb(229,229,229)" stroke-width="2" transform="matrix(1,0,0,-1,0.0,135.0)"/>
 <path d="M0,1 l0,-5" fill="none" stroke="rgb(204,204,204)" stroke-width="2" transform="matrix(1,0,0,-1,7.0,135.0)"/>
 <path d="M0,1 l0,-5" fill="none" stroke="rgb(204,204,204)" stroke-width="2" transform="matrix(1,0,0,-1,115.0,135.0)"/>
 <path d="M213,460 c-80,0,-153,-66,-153,-178 c0,-127,82,-227,171,-275 l42,43 c-95,51,-152,132,-152,231 c0,83,43,124,96,124 c55,0,91,-35,91,-104 l0,-94 l58,0 l0,95 c0,69,29,109,82,109 c30,0,53,-13,68,-26 l92,0 l0,-4 c-18,-12,-52,-45,-52,-107 c0,-89,75,-163,184,-163 c99,0,155,48,177,80 l4,0 l0,-191 l58,0 l0,582 l125,0 l0,52 l-1124,0 l0,-52 l941,0 l0,-233 c0,-113,-74,-183,-174,-183 c-78,0,-129,47,-129,110 c0,64,45,110,122,110 l83,0 l0,53 l-300,0 c-12,10,-39,26,-77,26 c-55,0,-96,-39,-106,-86 l-4,0 c-14,48,-57,81,-123,81 Z M213,460" fill="rgb(0,0,0)" transform="matrix(0.1,0.0,0.0,-0.1,7.0,135.0)"/>
</svg>