<?xml version="1.0" encoding="UTF-8"?>
<svg height="200.0" version="1.1" width="116.0" xmlns="http://www.w3.org/2000/svg" xmlns:xlink="http://www.w3.org/1999/xlink">
 <path d="M0,0 l116,0 l0,200 l-116,0 Z M0,0" fill="rgb(255,255,255)" transform="matrix(1,0,0,-1,0.0,200.0)"/>
 <path d="M0,0 l116,0" fill="none" stroke="rgb(229,229,229)" stroke-width="2" transform="matrix(1,0,0,-1,0.0,135.0)"/>
 <path d="M0,1 l0,-5" fill="none" stroke="rgb(204,204,204)" stroke-width="2" transform="matrix(1,0,0,-1,7.0,135.0)"/>
 <path d="M0,1 l0,-5" fill="none" stroke="rgb(204,204,204)" stroke-width="2" transform="matrix(1,0,0,-1,108.0,135.0)"/>
 <path d="M214,445 c-80,0,-154,-63,-154,-175 c0,-127,82,-225,171,-273 l42,43 c-95,51,-152,130,-152,229 c0,83,44,121,97,121 c55,0,90,-35,90,-104 l0,-94 l58,0 l0,95 c0,69,38,107,96,107 c36,0,63,-15,80,-28 c-28,-27,-42,-62,-42,-107 c0,-119,99,-214,233,-214 c134,0,231,85,231,200 c0,111,-87,169,-143,191 l0,146 l213,0 l0,52 l-1054,0 l0,-52 l783,0 l0,-125 l-127,-40 c-19,-6,-36,-13,-51,-21 c-26,29,-69,53,-127,53 c-57,0,-103,-33,-118,-85 l-4,0 c-14,48,-56,81,-122,81 Z M726,100 c-105,0,-165,75,-165,150 c0,60,22,95,116,124 l80,25 c44,-6,146,-49,146,-148 c0,-79,-55,-151,-177,-151 Z M726,100" fill="rgb(0,0,0)" transform="matrix(0.1,0.0,0.0,-0.1,7.0,135.0)"/>
</svg>