<?xml version="1.0" encoding="UTF-8"?>
<svg height="200.0" version="1.1" width="112.0" xmlns="http://www.w3.org/2000/svg" xmlns:xlink="http://www.w3.org/1999/xlink">
 <path d="M0,0 l112,0 l0,200 l-112,0 Z M0,0" fill="rgb(255,255,255)" transform="matrix(1,0,0,-1,0.0,200.0)"/>
 <path d="M0,0 l112,0" fill="none" stroke="rgb(229,229,229)" stroke-width="2" transform="matrix(1,0,0,-1,0.0,135.0)"/>
 <path d="M0,1 l0,-5" fill="none" stroke="rgb(204,204,204)" stroke-width="2" transform="matrix(1,0,0,-1,7.0,135.0)"/>
 <path d="M0,1 l0,-5" fill="none" stroke="rgb(204,204,204)" stroke-width="2" transform="matrix(1,0,0,-1,106.0,135.0)"/>
 <path d="M214,445 c-80,0,-154,-63,-154,-175 c0,-127,82,-225,171,-273 l42,43 c-95,51,-152,130,-152,229 c0,83,44,121,97,121 c55,0,90,-35,90,-104 l0,-94 l58,0 l0,95 c0,69,38,107,96,107 c54,0,88,-34,98,-45 c9,-67,63,-118,118,-135 l161,32 c22,-17,31,-41,31,-69 c0,-67,-55,-107,-130,-107 c-91,0,-161,59,-203,143 l-48,-34 c56,-101,144,-162,251,-162 c115,0,190,72,190,160 c0,58,-32,107,-69,128 l-171,-34 c-37,10,-70,46,-70,86 c0,36,16,62,75,62 l180,0 l0,163 l131,0 l0,52 l-1026,0 l0,-52 l838,0 l0,-110 l-150,0 c-49,0,-85,-24,-100,-60 c-27,21,-63,37,-110,37 c-57,0,-103,-33,-118,-85 l-4,0 c-14,48,-56,81,-122,81 Z M214,445" fill="rgb(0,0,0)" transform="matrix(0.1,0.0,0.0,-0.1,7.0,135.0)"/>
</svg>