<?xml version="1.0" encoding="UTF-8"?>
<svg height="200.0" version="1.1" width="110.0" xmlns="http://www.w3.org/2000/svg" xmlns:xlink="http://www.w3.org/1999/xlink">
 <path d="M0,0 l110,0 l0,200 l-110,0 Z M0,0" fill="rgb(255,255,255)" transform="matrix(1,0,0,-1,0.0,200.0)"/>
 <path d="M0,0 l110,0" fill="none" stroke="rgb(229,229,229)" stroke-width="2" transform="matrix(1,0,0,-1,0.0,135.0)"/>
 <path d="M0,1 l0,-5" fill="none" stroke="rgb(204,204,204)" stroke-width="2" transform="matrix(1,0,0,-1,7.0,135.0)"/>
 <path d="M0,1 l0,-5" fill="none" stroke="rgb(204,204,204)" stroke-width="2" transform="matrix(1,0,0,-1,104.0,135.0)"/>
 <path d="M214,445 c-80,0,-154,-63,-154,-175 c0,-127,82,-225,171,-273 l42,43 c-95,51,-152,130,-152,229 c0,83,44,121,97,121 c55,0,90,-35,90,-104 l0,-94 l58,0 l0,95 c0,69,38,107,96,107 c31,0,55,-11,72,-23 c-22,-28,-34,-64,-34,-103 c0,-118,104,-223,244,-223 c98,0,167,68,167,144 c0,65,-52,117,-122,117 c-81,0,-120,-64,-115,-118 l56,-22 c-9,42,12,84,60,84 c36,0,61,-28,61,-61 c0,-51,-40,-90,-111,-90 c-109,0,-179,82,-179,164 c0,59,24,108,117,133 l165,45 l0,141 l142,0 l0,52 l-1005,0 l0,-52 l805,0 l0,-100 l-145,-42 c-25,-7,-48,-18,-67,-32 c-27,23,-65,41,-115,41 c-57,0,-103,-33,-118,-85 l-4,0 c-14,48,-56,81,-122,81 Z M214,445" fill="rgb(0,0,0)" transform="matrix(0.1,0.0,0.0,-0.1,7.0,135.0)"/>
</svg>