<?xml version="1.0" encoding="UTF-8"?>
<svg height="200.0" version="1.1" width="126.0" xmlns="http://www.w3.org/2000/svg" xmlns:xlink="http://www.w3.org/1999/xlink">
 <path d="M0,0 l126,0 l0,200 l-126,0 Z M0,0" fill="rgb(255,255,255)" transform="matrix(1,0,0,-1,0.0,200.0)"/>
 <path d="M0,0 l126,0" fill="none" stroke="rgb(229,229,229)" stroke-width="2" transform="matrix(1,0,0,-1,0.0,135.0)"/>
 <path d="M0,1 l0,-5" fill="none" stroke="rgb(204,204,204)" stroke-width="2" transform="matrix(1,0,0,-1,7.0,135.0)"/>
 <path d="M0,1 l0,-5" fill="none" stroke="rgb(204,204,204)" stroke-width="2" transform="matrix(1,0,0,-1,119.0,135.0)"/>
 <path d="M470,634 l-490,0 l0,-52 l490,0 Z M450,391 c47,0,68,-31,73,-62 c14,-119,97,-218,236,-218 c102,0,165,52,190,92 l4,0 l0,-203 l58,0 l0,582 l125,0 l0,52 l-182,0 l0,-269 c0,-106,-65,-199,-194,-199 c-121,0,-164,101,-169,144 c20,6,39,11,59,17 c133,38,197,99,197,185 c0,76,-53,132,-135,132 c-78,0,-134,-56,-134,-123 c0,-40,18,-69,32,-82 l57,17 c-16,13,-30,40,-30,62 c0,45,32,71,75,71 c47,0,76,-30,76,-75 c0,-57,-24,-98,-175,-141 l-38,-11 c-12,43,-49,85,-121,85 c-48,0,-102,-32,-114,-84 l-4,0 c-14,48,-56,82,-122,82 c-80,0,-154,-63,-154,-175 c0,-127,82,-225,171,-273 l42,43 c-95,51,-152,130,-152,229 c0,83,44,121,97,121 c55,0,90,-35,90,-104 l0,-94 l58,0 l0,96 c0,69,40,103,84,103 Z M450,391" fill="rgb(0,0,0)" transform="matrix(0.1,0.0,0.0,-0.1,7.0,135.0)"/>
</svg>