<?xml version="1.0" encoding="UTF-8"?>
<svg height="200.0" version="1.1" width="164.0" xmlns="http://www.w3.org/2000/svg" xmlns:xlink="http://www.w3.org/1999/xlink">
 <path d="M0,0 l164,0 l0,200 l-164,0 Z M0,0" fill="rgb(255,255,255)" transform="matrix(1,0,0,-1,0.0,200.0)"/>
 <path d="M0,0 l164,0" fill="none" stroke="rgb(229,229,229)" stroke-width="2" transform="matrix(1,0,0,-1,0.0,135.0)"/>
 <path d="M0,1 l0,-5" fill="none" stroke="rgb(204,204,204)" stroke-width="2" transform="matrix(1,0,0,-1,7.0,135.0)"/>
 <path d="M0,1 l0,-5" fill="none" stroke="rgb(204,204,204)" stroke-width="2" transform="matrix(1,0,0,-1,156.0,135.0)"/>
 <path d="M470,634 l-490,0 l0,-52 l490,0 Z M445,384 c35,0,52,-22,59,-53 c15,-122,109,-219,251,-219 c114,0,192,51,234,115 c41,-54,101,-83,170,-83 c101,0,148,55,164,78 l4,0 l0,-222 l58,0 l0,582 l125,0 l0,52 l-591,0 l0,-52 l116,0 c28,-23,47,-58,47,-98 c0,-62,-51,-96,-147,-118 c4,-32,13,-62,24,-88 c-31,-57,-98,-111,-203,-111 c-125,0,-178,97,-183,143 c20,6,39,11,59,17 c133,38,198,102,198,186 c0,76,-57,131,-137,131 c-78,0,-133,-56,-133,-123 c0,-40,18,-69,32,-82 l57,17 c-16,13,-30,40,-30,62 c0,45,31,71,74,71 c45,0,78,-29,78,-74 c0,-56,-25,-98,-176,-142 l-36,-11 c-21,51,-59,78,-117,78 c-39,0,-90,-26,-102,-76 l-4,0 c-14,48,-56,81,-122,81 c-80,0,-154,-63,-154,-175 c0,-127,82,-225,171,-273 l42,43 c-95,51,-152,130,-152,229 c0,83,44,121,97,121 c55,0,90,-35,90,-104 l0,-94 l58,0 l0,95 c0,73,41,97,79,97 Z M1005,335 c80,20,138,71,138,140 c0,48,-18,78,-40,103 l0,4 l225,0 l0,-205 c0,-115,-70,-178,-161,-178 c-109,0,-154,83,-162,136 Z M1005,335" fill="rgb(0,0,0)" transform="matrix(0.1,0.0,0.0,-0.1,7.0,135.0)"/>
</svg>