<?xml version="1.0" encoding="UTF-8"?>
<svg height="200.0" version="1.1" width="110.0" xmlns="http://www.w3.org/2000/svg" xmlns:xlink="http://www.w3.org/1999/xlink">
 <path d="M0,0 l110,0 l0,200 l-110,0 Z M0,0" fill="rgb(255,255,255)" transform="matrix(1,0,0,-1,0.0,200.0)"/>
 <path d="M0,0 l110,0" fill="none" stroke="rgb(229,229,229)" stroke-width="2" transform="matrix(1,0,0,-1,0.0,135.0)"/>
 <path d="M0,1 l0,-5" fill="none" stroke="rgb(204,204,204)" stroke-width="2" transform="matrix(1,0,0,-1,7.0,135.0)"/>
 <path d="M0,1 l0,-5" fill="none" stroke="rgb(204,204,204)" stroke-width="2" transform="matrix(1,0,0,-1,103.0,135.0)"/>
 <path d="M214,445 c-80,0,-154,-63,-154,-175 c0,-127,82,-225,171,-273 l42,43 c-95,51,-152,130,-152,229 c0,83,44,121,97,121 c55,0,90,-35,90,-104 l0,-94 l58,0 l0,95 c0,69,38,107,96,107 c28,0,50,-9,66,-19 c-19,-25,-28,-56,-28,-94 c0,-99,76,-196,205,-194 l0,-4 l-183,-104 l56,-46 l247,174 l66,-129 l72,17 l-100,137 c14,15,33,34,33,79 c0,38,-25,65,-43,74 l-47,-17 l0,-102 c-20,-17,-50,-28,-97,-28 c-92,0,-147,65,-147,136 c0,62,28,100,113,121 l160,39 l0,148 l149,0 l0,52 l-1004,0 l0,-52 l797,0 l0,-107 l-131,-33 c-31,-8,-56,-18,-77,-31 c-26,22,-64,38,-111,38 c-57,0,-103,-33,-118,-85 l-4,0 c-14,48,-56,81,-122,81 Z M214,445" fill="rgb(0,0,0)" transform="matrix(0.1,0.0,0.0,-0.1,7.0,135.0)"/>
</svg>