<?xml version="1.0" encoding="UTF-8"?>
<svg height="200.0" version="1.1" width="110.0" xmlns="http://www.w3.org/2000/svg" xmlns:xlink="http://www.w3.org/1999/xlink">
 <path d="M0,0 l110,0 l0,200 l-110,0 Z M0,0" fill="rgb(255,255,255)" transform="matrix(1,0,0,-1,0.0,200.0)"/>
 <path d="M0,0 l110,0" fill="none" stroke="rgb(229,229,229)" stroke-width="2" transform="matrix(1,0,0,-1,0.0,135.0)"/>
 <path d="M0,1 l0,-5" fill="none" stroke="rgb(204,204,204)" stroke-width="2" transform="matrix(1,0,0,-1,7.0,135.0)"/>
 <path d="M0,1 l0,-5" fill="none" stroke="rgb(204,204,204)" stroke-width="2" transform="matrix(1,0,0,-1,102.0,135.0)"/>
 <path d="M264,31 c-90,51,-143,128,-143,224 c0,83,44,121,97,121 c55,0,90,-35,90,-104 l0,-94 l58,0 l0,95 c0,69,38,107,96,107 c6,0,15,-1,21,-2 c1,-58,20,-106,52,-129 l41,12 l0,85 l213,0 l0,-346 l58,0 l0,582 l125,0 l0,52 l-992,0 l0,-52 l809,0 l0,-182 l-224,0 c-26,20,-62,35,-107,35 c-57,0,-103,-33,-118,-85 l-4,0 c-14,48,-56,81,-122,81 c-80,0,-154,-63,-154,-175 c0,-122,75,-217,160,-267 Z M264,31" fill="rgb(0,0,0)" transform="matrix(0.1,0.0,0.0,-0.1,7.0,135.0)"/>
</svg>