<?xml version="1.0" encoding="UTF-8"?>
<svg height="200.0" version="1.1" width="116.0" xmlns="http://www.w3.org/2000/svg" xmlns:xlink="http://www.w3.org/1999/xlink">
 <path d="M0,0 l116,0 l0,200 l-116,0 Z M0,0" fill="rgb(255,255,255)" transform="matrix(1,0,0,-1,0.0,200.0)"/>
 <path d="M0,0 l116,0" fill="none" stroke="rgb(229,229,229)" stroke-width="2" transform="matrix(1,0,0,-1,0.0,135.0)"/>
 <path d="M0,1 l0,-5" fill="none" stroke="rgb(204,204,204)" stroke-width="2" transform="matrix(1,0,0,-1,7.0,135.0)"/>
 <path d="M0,1 l0,-5" fill="none" stroke="rgb(204,204,204)" stroke-width="2" transform="matrix(1,0,0,-1,108.0,135.0)"/>
 <path d="M214,445 c-80,0,-154,-63,-154,-175 c0,-127,82,-225,171,-273 l42,43 c-95,51,-152,130,-152,229 c0,83,44,121,97,121 c55,0,90,-35,90,-104 l0,-94 l58,0 l0,95 c0,69,38,107,96,107 c23,0,42,-6,57,-14 c-12,-25,-19,-53,-19,-84 c0,-112,86,-189,190,-189 c83,0,132,40,154,69 l4,0 l0,-176 l58,0 l0,582 l125,0 l0,52 l-1051,0 l0,-52 l868,0 l0,-275 c0,-29,-7,-54,-20,-76 l-212,177 c26,17,58,27,92,27 c22,0,45,-3,66,-11 l-2,57 c-19,6,-45,8,-66,8 c-61,0,-117,-24,-156,-65 c-24,15,-55,25,-92,25 c-57,0,-103,-33,-118,-85 l-4,0 c-14,48,-56,81,-122,81 Z M697,162 c-85,0,-137,59,-137,136 c0,29,8,54,21,74 l214,-178 c-25,-20,-59,-32,-98,-32 Z M697,162" fill="rgb(0,0,0)" transform="matrix(0.1,0.0,0.0,-0.1,7.0,135.0)"/>
</svg>