<?xml version="1.0" encoding="UTF-8"?>
<svg height="200.0" version="1.1" width="164.0" xmlns="http://www.w3.org/2000/svg" xmlns:xlink="http://www.w3.org/1999/xlink">
 <path d="M0,0 l164,0 l0,200 l-164,0 Z M0,0" fill="rgb(255,255,255)" transform="matrix(1,0,0,-1,0.0,200.0)"/>
 <path d="M0,0 l164,0" fill="none" stroke="rgb(229,229,229)" stroke-width="2" transform="matrix(1,0,0,-1,0.0,135.0)"/>
 <path d="M0,1 l0,-5" fill="none" stroke="rgb(204,204,204)" stroke-width="2" transform="matrix(1,0,0,-1,7.0,135.0)"/>
 <path d="M0,1 l0,-5" fill="none" stroke="rgb(204,204,204)" stroke-width="2" transform="matrix(1,0,0,-1,158.0,135.0)"/>
 <path d="M214,445 c-80,0,-154,-63,-154,-175 c0,-127,82,-225,171,-273 l42,43 c-95,51,-152,130,-152,229 c0,83,44,121,97,121 c55,0,90,-35,90,-104 l0,-94 l58,0 l0,95 c0,69,38,107,96,107 c31,0,56,-12,73,-23 c-16,-27,-25,-61,-25,-101 c0,-127,82,-225,171,-273 l42,43 c-95,51,-152,130,-152,229 c0,83,44,121,97,121 c55,0,90,-35,90,-104 l0,-94 l58,0 l0,95 c0,67,37,104,77,104 c38,0,54,-22,62,-53 c1,-4,1,-7,2,-10 c0,-1,1,-3,1,-4 c30,-114,113,-180,216,-180 c101,0,148,55,164,78 l4,0 l0,-222 l58,0 l0,582 l125,0 l0,52 l-1545,0 l0,-52 l1070,0 c28,-23,47,-58,47,-98 c0,-50,-33,-81,-95,-103 c-20,44,-51,66,-108,66 c-43,0,-92,-32,-104,-84 l-4,0 c-13,49,-56,82,-122,82 c-34,0,-68,-12,-95,-34 c-26,22,-63,38,-111,38 c-57,0,-103,-33,-118,-85 l-4,0 c-14,48,-56,81,-122,81 Z M1020,335 c80,20,138,71,138,140 c0,48,-18,78,-40,103 l0,4 l225,0 l0,-205 c0,-115,-70,-178,-161,-178 c-109,0,-154,83,-162,136 Z M1020,335" fill="rgb(0,0,0)" transform="matrix(0.1,0.0,0.0,-0.1,7.0,135.0)"/>
</svg>