<?xml version="1.0" encoding="UTF-8"?>
<svg height="200.0" version="1.1" width="128.0" xmlns="http://www.w3.org/2000/svg" xmlns:xlink="http://www.w3.org/1999/xlink">
 <path d="M0,0 l128,0 l0,200 l-128,0 Z M0,0" fill="rgb(255,255,255)" transform="matrix(1,0,0,-1,0.0,200.0)"/>
 <path d="M0,0 l128,0" fill="none" stroke="rgb(229,229,229)" stroke-width="2" transform="matrix(1,0,0,-1,0.0,135.0)"/>
 <path d="M0,1 l0,-5" fill="none" stroke="rgb(204,204,204)" stroke-width="2" transform="matrix(1,0,0,-1,7.0,135.0)"/>
 <path d="M0,1 l0,-5" fill="none" stroke="rgb(204,204,204)" stroke-width="2" transform="matrix(1,0,0,-1,121.0,135.0)"/>
 <path d="M214,445 c-80,0,-154,-63,-154,-175 c0,-127,82,-225,171,-273 l42,43 c-95,51,-152,130,-152,229 c0,83,44,121,97,121 c55,0,90,-35,90,-104 l0,-94 l58,0 l0,94 c0,69,40,110,96,110 c45,0,77,-26,84,-57 l-40,-32 l237,-316 l47,32 l-123,163 c-24,32,-44,55,-66,81 l2,3 c11,-4,31,-5,40,-5 c36,0,69,11,91,36 c38,-13,94,-22,143,-22 c47,0,78,3,99,8 l0,-287 l58,0 l0,582 l125,0 l0,52 l-1179,0 l0,-52 l724,0 l0,-194 c0,-49,-24,-70,-73,-70 c-8,0,-16,0,-23,1 c-9,89,-73,132,-149,132 c-55,0,-104,-35,-119,-87 l-4,0 c-14,48,-56,81,-122,81 Z M878,331 c-40,0,-84,6,-120,17 c3,9,4,20,4,32 l0,202 l214,0 l0,-240 c-25,-6,-60,-11,-98,-11 Z M878,331" fill="rgb(0,0,0)" transform="matrix(0.1,0.0,0.0,-0.1,7.0,135.0)"/>
</svg>