<?xml version="1.0" encoding="UTF-8"?>
<svg height="200.0" version="1.1" width="106.0" xmlns="http://www.w3.org/2000/svg" xmlns:xlink="http://www.w3.org/1999/xlink">
 <path d="M0,0 l106,0 l0,200 l-106,0 Z M0,0" fill="rgb(255,255,255)" transform="matrix(1,0,0,-1,0.0,200.0)"/>
 <path d="M0,0 l106,0" fill="none" stroke="rgb(229,229,229)" stroke-width="2" transform="matrix(1,0,0,-1,0.0,135.0)"/>
 <path d="M0,1 l0,-5" fill="none" stroke="rgb(204,204,204)" stroke-width="2" transform="matrix(1,0,0,-1,7.0,135.0)"/>
 <path d="M0,1 l0,-5" fill="none" stroke="rgb(204,204,204)" stroke-width="2" transform="matrix(1,0,0,-1,99.0,135.0)"/>
 <path d="M232,122 c101,0,155,57,183,108 c41,-56,102,-86,172,-86 c101,0,148,55,164,78 l4,0 l0,-222 l58,0 l0,582 l125,0 l0,52 l-958,0 l0,-52 l483,0 c28,-23,47,-58,47,-98 c0,-62,-51,-96,-147,-118 c4,-29,11,-55,20,-78 c-15,-51,-58,-111,-144,-111 c-76,0,-127,52,-127,125 c0,78,60,123,133,122 c15,0,30,-2,45,-6 l-6,57 c-13,2,-26,4,-39,4 c-96,1,-195,-55,-195,-179 c0,-111,87,-178,182,-178 Z M433,335 c80,20,138,71,138,140 c0,48,-18,78,-40,103 l0,4 l225,0 l0,-205 c0,-115,-70,-178,-161,-178 c-109,0,-154,83,-162,136 Z M433,335" fill="rgb(0,0,0)" transform="matrix(0.1,0.0,0.0,-0.1,7.0,135.0)"/>
</svg>