<?xml version="1.0" encoding="UTF-8"?>
<svg height="200.0" version="1.1" width="100.0" xmlns="http://www.w3.org/2000/svg" xmlns:xlink="http://www.w3.org/1999/xlink">
 <path d="M0,0 l100,0 l0,200 l-100,0 Z M0,0" fill="rgb(255,255,255)" transform="matrix(1,0,0,-1,0.0,200.0)"/>
 <path d="M0,0 l100,0" fill="none" stroke="rgb(229,229,229)" stroke-width="2" transform="matrix(1,0,0,-1,0.0,135.0)"/>
 <path d="M0,1 l0,-5" fill="none" stroke="rgb(204,204,204)" stroke-width="2" transform="matrix(1,0,0,-1,7.0,135.0)"/>
 <path d="M0,1 l0,-5" fill="none" stroke="rgb(204,204,204)" stroke-width="2" transform="matrix(1,0,0,-1,92.0,135.0)"/>
 <path d="M749,582 l125,0 l0,52 l-894,0 l0,-52 l711,0 l0,-254 c0,-86,-55,-152,-140,-152 c-77,0,-126,55,-126,126 c0,94,86,139,178,116 l-6,57 c-105,20,-234,-34,-234,-175 c0,-17,2,-32,6,-47 c-22,-40,-63,-76,-130,-76 c-76,0,-127,52,-127,125 c0,78,60,123,133,122 c15,0,30,-2,45,-6 l-6,57 c-13,2,-26,4,-39,4 c-96,1,-195,-55,-195,-179 c0,-111,87,-178,182,-178 c79,0,130,36,162,75 c32,-48,88,-76,147,-76 c78,0,125,37,146,65 l4,0 l0,-186 l58,0 Z M749,582" fill="rgb(0,0,0)" transform="matrix(0.1,0.0,0.0,-0.1,7.0,135.0)"/>
</svg>