<?xml version="1.0" encoding="UTF-8"?>
<svg height="200.0" version="1.1" width="96.0" xmlns="http://www.w3.org/2000/svg" xmlns:xlink="http://www.w3.org/1999/xlink">
 <path d="M0,0 l96,0 l0,200 l-96,0 Z M0,0" fill="rgb(255,255,255)" transform="matrix(1,0,0,-1,0.0,200.0)"/>
 <path d="M0,0 l96,0" fill="none" stroke="rgb(229,229,229)" stroke-width="2" transform="matrix(1,0,0,-1,0.0,135.0)"/>
 <path d="M0,1 l0,-5" fill="none" stroke="rgb(204,204,204)" stroke-width="2" transform="matrix(1,0,0,-1,7.0,135.0)"/>
 <path d="M0,1 l0,-5" fill="none" stroke="rgb(204,204,204)" stroke-width="2" transform="matrix(1,0,0,-1,88.0,135.0)"/>
 <path d="M715,62 c25,21,47,55,47,100 c0,69,-52,132,-162,132 c-33,0,-62,-6,-88,-16 c-34,20,-60,56,-60,91 c0,28,16,50,65,50 l211,0 l0,163 l105,0 l0,52 l-853,0 l0,-52 l691,0 l0,-109 l-166,0 c-74,0,-114,-42,-114,-99 c0,-55,36,-100,71,-123 c-10,-8,-18,-16,-26,-25 c-42,-45,-89,-76,-172,-76 c-82,0,-140,54,-140,127 c0,78,50,133,134,133 c15,0,30,-2,45,-6 l-6,57 c-13,2,-26,4,-39,4 c-101,0,-196,-66,-196,-190 c0,-111,94,-180,195,-180 c58,0,104,13,143,33 c0,-116,111,-190,308,-203 l24,53 c-199,9,-271,74,-271,151 c0,62,56,109,142,109 c66,0,98,-35,98,-75 c0,-27,-14,-51,-39,-70 Z M715,62" fill="rgb(0,0,0)" transform="matrix(0.1,0.0,0.0,-0.1,7.0,135.0)"/>
</svg>