<?xml version="1.0" encoding="UTF-8"?>
<svg height="200.0" version="1.1" width="132.0" xmlns="http://www.w3.org/2000/svg" xmlns:xlink="http://www.w3.org/1999/xlink">
 <path d="M0,0 l132,0 l0,200 l-132,0 Z M0,0" fill="rgb(255,255,255)" transform="matrix(1,0,0,-1,0.0,200.0)"/>
 <path d="M0,0 l132,0" fill="none" stroke="rgb(229,229,229)" stroke-width="2" transform="matrix(1,0,0,-1,0.0,135.0)"/>
 <path d="M0,1 l0,-5" fill="none" stroke="rgb(204,204,204)" stroke-width="2" transform="matrix(1,0,0,-1,5.0,135.0)"/>
 <path d="M0,1 l0,-5" fill="none" stroke="rgb(204,204,204)" stroke-width="2" transform="matrix(1,0,0,-1,125.0,135.0)"/>
 <path d="M219,441 c-40,9,-59,40,-59,71 c0,46,32,78,85,78 c51,0,102,-41,102,-121 c0,-101,-84,-160,-192,-160 c-30,0,-70,5,-102,15 l-37,-49 l66,-58 l227,-224 l48,33 l-143,140 c-48,47,-66,60,-93,86 l2,4 c157,-13,284,67,284,213 c0,91,-57,175,-162,175 c-87,0,-145,-59,-145,-132 c0,-54,30,-100,83,-115 Z M1092,297 c0,-90,-79,-121,-152,-109 l9,-55 c105,-15,205,50,205,166 c0,100,-76,165,-163,165 c-74,0,-117,-35,-136,-62 l-4,0 l0,180 l373,0 l0,52 l-733,0 l0,-52 l303,0 l0,-259 c0,-81,-52,-135,-128,-135 c-68,0,-113,47,-113,112 c0,90,79,121,152,109 l-9,55 c-105,15,-205,-50,-205,-166 c0,-99,77,-165,164,-165 c74,0,116,35,135,62 l4,0 l0,-195 l57,0 l0,274 c0,81,52,135,128,135 c67,0,113,-46,113,-112 Z M1092,297" fill="rgb(0,0,0)" transform="matrix(0.1,0.0,0.0,-0.1,5.0,135.0)"/>
</svg>