<?xml version="1.0" encoding="UTF-8"?>
<svg height="200.0" version="1.1" width="118.0" xmlns="http://www.w3.org/2000/svg" xmlns:xlink="http://www.w3.org/1999/xlink">
 <path d="M0,0 l118,0 l0,200 l-118,0 Z M0,0" fill="rgb(255,255,255)" transform="matrix(1,0,0,-1,0.0,200.0)"/>
 <path d="M0,0 l118,0" fill="none" stroke="rgb(229,229,229)" stroke-width="2" transform="matrix(1,0,0,-1,0.0,135.0)"/>
 <path d="M0,1 l0,-5" fill="none" stroke="rgb(204,204,204)" stroke-width="2" transform="matrix(1,0,0,-1,5.0,135.0)"/>
 <path d="M0,1 l0,-5" fill="none" stroke="rgb(204,204,204)" stroke-width="2" transform="matrix(1,0,0,-1,113.0,135.0)"/>
 <path d="M886,222 l4,0 l0,-222 l58,0 l0,582 l125,0 l0,52 l-585,0 l0,-52 l110,0 c28,-23,47,-58,47,-98 c0,-62,-51,-96,-147,-118 c19,-140,109,-222,224,-222 c101,0,148,55,164,78 Z M568,335 c80,20,138,71,138,140 c0,48,-18,78,-40,103 l0,4 l225,0 l0,-205 c0,-115,-70,-178,-161,-178 c-109,0,-154,83,-162,136 Z M219,441 c-40,9,-59,40,-59,71 c0,46,32,78,85,78 c51,0,102,-41,102,-121 c0,-101,-84,-160,-192,-160 c-30,0,-70,5,-102,15 l-37,-49 l66,-58 l227,-224 l48,33 l-143,140 c-48,47,-66,60,-93,86 l2,4 c157,-13,284,67,284,213 c0,91,-57,175,-162,175 c-87,0,-145,-59,-145,-132 c0,-54,30,-100,83,-115 Z M219,441" fill="rgb(0,0,0)" transform="matrix(0.1,0.0,0.0,-0.1,5.0,135.0)"/>
</svg>