<?xml version="1.0" encoding="UTF-8"?>
<svg height="200.0" version="1.1" width="114.0" xmlns="http://www.w3.org/2000/svg" xmlns:xlink="http://www.w3.org/1999/xlink">
 <path d="M0,0 l114,0 l0,200 l-114,0 Z M0,0" fill="rgb(255,255,255)" transform="matrix(1,0,0,-1,0.0,200.0)"/>
 <path d="M0,0 l114,0" fill="none" stroke="rgb(229,229,229)" stroke-width="2" transform="matrix(1,0,0,-1,0.0,135.0)"/>
 <path d="M0,1 l0,-5" fill="none" stroke="rgb(204,204,204)" stroke-width="2" transform="matrix(1,0,0,-1,5.0,135.0)"/>
 <path d="M0,1 l0,-5" fill="none" stroke="rgb(204,204,204)" stroke-width="2" transform="matrix(1,0,0,-1,106.0,135.0)"/>
 <path d="M219,441 c-40,9,-59,40,-59,71 c0,46,32,78,85,78 c51,0,102,-41,102,-121 c0,-101,-84,-160,-192,-160 c-30,0,-70,5,-102,15 l-37,-49 l66,-58 l227,-224 l48,33 l-143,140 c-48,47,-66,60,-93,86 l2,4 c157,-13,284,67,284,213 c0,91,-57,175,-162,175 c-87,0,-145,-59,-145,-132 c0,-54,30,-100,83,-115 Z M906,582 l125,0 l0,52 l-534,0 l0,-52 l351,0 l0,-254 c0,-86,-55,-152,-140,-152 c-77,0,-126,55,-126,126 c0,94,86,139,178,116 l-6,57 c-105,20,-234,-34,-234,-175 c0,-109,85,-179,178,-179 c78,0,125,37,146,65 l4,0 l0,-186 l58,0 Z M906,582" fill="rgb(0,0,0)" transform="matrix(0.1,0.0,0.0,-0.1,5.0,135.0)"/>
</svg>