<?xml version="1.0" encoding="UTF-8"?>
<svg height="200.0" version="1.1" width="122.0" xmlns="http://www.w3.org/2000/svg" xmlns:xlink="http://www.w3.org/1999/xlink">
 <path d="M0,0 l122,0 l0,200 l-122,0 Z M0,0" fill="rgb(255,255,255)" transform="matrix(1,0,0,-1,0.0,200.0)"/>
 <path d="M0,0 l122,0" fill="none" stroke="rgb(229,229,229)" stroke-width="2" transform="matrix(1,0,0,-1,0.0,135.0)"/>
 <path d="M0,1 l0,-5" fill="none" stroke="rgb(204,204,204)" stroke-width="2" transform="matrix(1,0,0,-1,7.0,135.0)"/>
 <path d="M0,1 l0,-5" fill="none" stroke="rgb(204,204,204)" stroke-width="2" transform="matrix(1,0,0,-1,115.0,135.0)"/>
 <path d="M541,188 c-68,0,-113,47,-113,112 c0,90,79,121,152,109 l-9,55 c-85,12,-166,-28,-194,-104 l-234,222 l526,0 l0,-259 c0,-81,-52,-135,-128,-135 Z M262,250 c-68,0,-116,31,-116,114 l0,63 l-2,94 l66,-67 l156,-148 c0,-2,0,-5,0,-8 c0,-3,0,-6,0,-9 c-24,-22,-58,-39,-104,-39 Z M967,297 c0,-90,-79,-121,-152,-109 l9,-55 c105,-15,205,50,205,166 c0,100,-76,165,-163,165 c-74,0,-117,-35,-136,-62 l-4,0 l0,180 l373,0 l0,52 l-1119,0 l0,-52 l110,0 l0,-226 c0,-108,79,-159,166,-159 c52,0,92,15,122,36 c25,-62,86,-100,152,-100 c74,0,116,35,135,62 l4,0 l0,-195 l57,0 l0,274 c0,81,52,135,128,135 c67,0,113,-46,113,-112 Z M967,297" fill="rgb(0,0,0)" transform="matrix(0.1,0.0,0.0,-0.1,7.0,135.0)"/>
</svg>