<?xml version="1.0" encoding="UTF-8"?>
<svg height="200.0" version="1.1" width="124.0" xmlns="http://www.w3.org/2000/svg" xmlns:xlink="http://www.w3.org/1999/xlink">
 <path d="M0,0 l124,0 l0,200 l-124,0 Z M0,0" fill="rgb(255,255,255)" transform="matrix(1,0,0,-1,0.0,200.0)"/>
 <path d="M0,0 l124,0" fill="none" stroke="rgb(229,229,229)" stroke-width="2" transform="matrix(1,0,0,-1,0.0,135.0)"/>
 <path d="M0,1 l0,-5" fill="none" stroke="rgb(204,204,204)" stroke-width="2" transform="matrix(1,0,0,-1,7.0,135.0)"/>
 <path d="M0,1 l0,-5" fill="none" stroke="rgb(204,204,204)" stroke-width="2" transform="matrix(1,0,0,-1,117.0,135.0)"/>
 <path d="M564,188 c-67,0,-114,47,-114,112 c0,5,0,9,1,13 c0,1,0,1,0,1 c7,65,61,108,151,95 l-9,55 c-97,12,-179,-38,-200,-121 l-250,239 l548,0 l0,-259 c0,-81,-53,-135,-127,-135 Z M262,250 c-68,0,-116,31,-116,114 l0,63 l-2,94 l66,-67 l164,-157 c-25,-25,-61,-47,-112,-47 Z M256,197 c62,0,107,21,140,49 c21,-67,82,-105,139,-107 l0,-4 l-146,-94 l49,-42 l249,187 l4,0 l0,-186 l57,0 l0,274 c0,81,52,135,128,135 c67,0,113,-46,113,-112 c0,-72,-55,-123,-152,-109 l9,-55 c113,-14,205,55,205,166 c0,100,-76,165,-163,165 c-74,0,-117,-35,-136,-62 l-4,0 l0,180 l372,0 l0,52 l-1140,0 l0,-52 l110,0 l0,-226 c0,-108,79,-159,166,-159 Z M256,197" fill="rgb(0,0,0)" transform="matrix(0.1,0.0,0.0,-0.1,7.0,135.0)"/>
</svg>