<?xml version="1.0" encoding="UTF-8"?>
<svg height="200.0" version="1.1" width="150.0" xmlns="http://www.w3.org/2000/svg" xmlns:xlink="http://www.w3.org/1999/xlink">
 <path d="M0,0 l150,0 l0,200 l-150,0 Z M0,0" fill="rgb(255,255,255)" transform="matrix(1,0,0,-1,0.0,200.0)"/>
 <path d="M0,0 l150,0" fill="none" stroke="rgb(229,229,229)" stroke-width="2" transform="matrix(1,0,0,-1,0.0,135.0)"/>
 <path d="M0,1 l0,-5" fill="none" stroke="rgb(204,204,204)" stroke-width="2" transform="matrix(1,0,0,-1,7.0,135.0)"/>
 <path d="M0,1 l0,-5" fill="none" stroke="rgb(204,204,204)" stroke-width="2" transform="matrix(1,0,0,-1,143.0,135.0)"/>
 <path d="M1250,0 l0,582 l125,0 l0,52 l-1395,0 l0,-52 l110,0 l0,-226 c0,-108,79,-159,166,-159 c51,0,90,14,120,34 c16,-100,110,-186,235,-186 c69,0,137,21,183,68 l-35,47 c-32,-34,-78,-60,-155,-60 c-103,0,-168,75,-168,151 c0,59,21,93,115,122 l144,44 c65,18,141,34,193,34 c61,0,92,-20,92,-61 c0,-37,-29,-74,-90,-103 l-45,-21 c17,-92,87,-168,200,-168 c75,0,124,42,143,68 l4,0 l0,-166 Z M695,470 l0,112 l497,0 l0,-266 c0,-89,-50,-163,-147,-163 c-75,0,-113,47,-125,91 c62,28,121,75,121,146 c0,68,-61,115,-145,115 c-54,0,-145,-18,-201,-35 Z M143,582 l494,0 l0,-124 l-129,-40 c-54,-17,-92,-42,-113,-76 Z M262,250 c-68,0,-116,31,-116,114 l0,63 l-2,94 l66,-67 l164,-157 c-25,-25,-61,-47,-112,-47 Z M262,250" fill="rgb(0,0,0)" transform="matrix(0.1,0.0,0.0,-0.1,7.0,135.0)"/>
</svg>