<?xml version="1.0" encoding="UTF-8"?>
<svg height="200.0" version="1.1" width="104.0" xmlns="http://www.w3.org/2000/svg" xmlns:xlink="http://www.w3.org/1999/xlink">
 <path d="M0,0 l104,0 l0,200 l-104,0 Z M0,0" fill="rgb(255,255,255)" transform="matrix(1,0,0,-1,0.0,200.0)"/>
 <path d="M0,0 l104,0" fill="none" stroke="rgb(229,229,229)" stroke-width="2" transform="matrix(1,0,0,-1,0.0,135.0)"/>
 <path d="M0,1 l0,-5" fill="none" stroke="rgb(204,204,204)" stroke-width="2" transform="matrix(1,0,0,-1,7.0,135.0)"/>
 <path d="M0,1 l0,-5" fill="none" stroke="rgb(204,204,204)" stroke-width="2" transform="matrix(1,0,0,-1,96.0,135.0)"/>
 <path d="M143,582 l496,0 l0,-125 l-127,-40 c-55,-17,-93,-42,-115,-78 Z M262,250 c-68,0,-116,31,-116,114 l0,63 l-2,94 l66,-67 l164,-157 c-25,-25,-61,-47,-112,-47 Z M609,45 c134,0,231,85,231,200 c0,111,-87,169,-143,191 l0,146 l213,0 l0,52 l-930,0 l0,-52 l110,0 l0,-226 c0,-108,79,-159,166,-159 c51,0,91,14,122,35 c13,-106,107,-187,231,-187 Z M602,100 c-105,0,-165,75,-165,150 c0,60,22,95,116,124 l80,25 c44,-6,146,-49,146,-148 c0,-79,-55,-151,-177,-151 Z M602,100" fill="rgb(0,0,0)" transform="matrix(0.1,0.0,0.0,-0.1,7.0,135.0)"/>
</svg>