<?xml version="1.0" encoding="UTF-8"?>
<svg height="200.0" version="1.1" width="160.0" xmlns="http://www.w3.org/2000/svg" xmlns:xlink="http://www.w3.org/1999/xlink">
 <path d="M0,0 l160,0 l0,200 l-160,0 Z M0,0" fill="rgb(255,255,255)" transform="matrix(1,0,0,-1,0.0,200.0)"/>
 <path d="M0,0 l160,0" fill="none" stroke="rgb(229,229,229)" stroke-width="2" transform="matrix(1,0,0,-1,0.0,135.0)"/>
 <path d="M0,1 l0,-5" fill="none" stroke="rgb(204,204,204)" stroke-width="2" transform="matrix(1,0,0,-1,7.0,135.0)"/>
 <path d="M0,1 l0,-5" fill="none" stroke="rgb(204,204,204)" stroke-width="2" transform="matrix(1,0,0,-1,153.0,135.0)"/>
 <path d="M1288,136 l4,0 l0,-136 l58,0 l0,582 l126,0 l0,52 l-1496,0 l0,-52 l110,0 l0,-226 c0,-108,79,-159,166,-159 c51,0,91,14,122,35 c13,-106,107,-187,231,-187 c134,0,231,85,231,200 c0,57,-23,100,-53,131 c56,22,132,47,202,47 c66,0,90,-26,90,-64 c0,-44,-30,-75,-91,-104 l-45,-21 c17,-92,87,-168,200,-168 c75,0,126,44,145,70 Z M143,582 l496,0 l0,-125 l-127,-40 c-55,-17,-93,-42,-115,-78 Z M262,250 c-68,0,-116,31,-116,114 l0,63 l-2,94 l66,-67 l164,-157 c-25,-25,-61,-47,-112,-47 Z M1143,121 c-75,0,-113,47,-125,91 c60,30,122,75,122,147 c0,67,-54,118,-143,118 c-99,0,-207,-39,-261,-61 c-14,9,-27,15,-39,20 l0,146 l595,0 l0,-296 c0,-89,-52,-165,-149,-165 Z M602,100 c-105,0,-165,75,-165,150 c0,60,22,95,116,124 l80,25 c44,-6,146,-49,146,-148 c0,-79,-55,-151,-177,-151 Z M602,100" fill="rgb(0,0,0)" transform="matrix(0.1,0.0,0.0,-0.1,7.0,135.0)"/>
</svg>