<?xml version="1.0" encoding="UTF-8"?>
<svg height="200.0" version="1.1" width="96.0" xmlns="http://www.w3.org/2000/svg" xmlns:xlink="http://www.w3.org/1999/xlink">
 <path d="M0,0 l96,0 l0,200 l-96,0 Z M0,0" fill="rgb(255,255,255)" transform="matrix(1,0,0,-1,0.0,200.0)"/>
 <path d="M0,0 l96,0" fill="none" stroke="rgb(229,229,229)" stroke-width="2" transform="matrix(1,0,0,-1,0.0,135.0)"/>
 <path d="M0,1 l0,-5" fill="none" stroke="rgb(204,204,204)" stroke-width="2" transform="matrix(1,0,0,-1,7.0,135.0)"/>
 <path d="M0,1 l0,-5" fill="none" stroke="rgb(204,204,204)" stroke-width="2" transform="matrix(1,0,0,-1,89.0,135.0)"/>
 <path d="M392,383 l-22,-18 l-227,217 l512,0 l0,-199 Z M262,250 c-68,0,-116,31,-116,114 l0,63 c0,58,-2,94,-2,94 c0,0,24,-26,66,-67 l140,-133 c2,-12,6,-25,10,-36 c-24,-20,-56,-35,-98,-35 Z M442,242 l0,87 l213,0 l0,-329 l58,0 l0,582 l125,0 l0,52 l-858,0 l0,-52 l110,0 l0,-226 c0,-108,79,-159,166,-159 c58,0,101,18,133,44 c4,-4,8,-8,12,-11 Z M442,242" fill="rgb(0,0,0)" transform="matrix(0.1,0.0,0.0,-0.1,7.0,135.0)"/>
</svg>