<?xml version="1.0" encoding="UTF-8"?>
<svg height="200.0" version="1.1" width="100.0" xmlns="http://www.w3.org/2000/svg" xmlns:xlink="http://www.w3.org/1999/xlink">
 <path d="M0,0 l100,0 l0,200 l-100,0 Z M0,0" fill="rgb(255,255,255)" transform="matrix(1,0,0,-1,0.0,200.0)"/>
 <path d="M0,0 l100,0" fill="none" stroke="rgb(229,229,229)" stroke-width="2" transform="matrix(1,0,0,-1,0.0,135.0)"/>
 <path d="M0,1 l0,-5" fill="none" stroke="rgb(204,204,204)" stroke-width="2" transform="matrix(1,0,0,-1,7.0,135.0)"/>
 <path d="M0,1 l0,-5" fill="none" stroke="rgb(204,204,204)" stroke-width="2" transform="matrix(1,0,0,-1,94.0,135.0)"/>
 <path d="M256,197 c81,0,132,35,166,76 c28,-48,80,-71,139,-71 c76,0,117,32,137,66 l4,0 l0,-268 l58,0 l0,582 l125,0 l0,52 l-905,0 l0,-52 l110,0 l0,-226 c0,-108,79,-159,166,-159 Z M143,582 l258,0 l0,-221 c0,-9,1,-18,2,-26 l-1,-1 Z M262,250 c-68,0,-116,31,-116,114 l0,63 l-2,94 l66,-67 l164,-157 c-25,-25,-61,-47,-112,-47 Z M702,409 c0,-90,-47,-152,-135,-152 c-68,0,-108,31,-108,114 l0,211 l243,0 Z M702,409" fill="rgb(0,0,0)" transform="matrix(0.1,0.0,0.0,-0.1,7.0,135.0)"/>
</svg>