<?xml version="1.0" encoding="UTF-8"?>
<svg height="200.0" version="1.1" width="102.0" xmlns="http://www.w3.org/2000/svg" xmlns:xlink="http://www.w3.org/1999/xlink">
 <path d="M0,0 l102,0 l0,200 l-102,0 Z M0,0" fill="rgb(255,255,255)" transform="matrix(1,0,0,-1,0.0,200.0)"/>
 <path d="M0,0 l102,0" fill="none" stroke="rgb(229,229,229)" stroke-width="2" transform="matrix(1,0,0,-1,0.0,135.0)"/>
 <path d="M0,1 l0,-5" fill="none" stroke="rgb(204,204,204)" stroke-width="2" transform="matrix(1,0,0,-1,7.0,135.0)"/>
 <path d="M0,1 l0,-5" fill="none" stroke="rgb(204,204,204)" stroke-width="2" transform="matrix(1,0,0,-1,96.0,135.0)"/>
 <path d="M143,582 l292,0 l0,-252 l-16,-12 Z M262,250 c-68,0,-116,31,-116,114 l0,63 l-2,94 l66,-67 l164,-157 c-25,-25,-62,-47,-112,-47 Z M782,0 l0,582 l125,0 l0,52 l-927,0 l0,-52 l110,0 l0,-226 c0,-108,79,-159,166,-159 c63,0,108,21,141,50 c9,-28,25,-56,45,-73 l51,0 l0,103 l231,0 l0,-277 Z M724,582 l0,-251 l-231,0 l0,251 Z M724,582" fill="rgb(0,0,0)" transform="matrix(0.1,0.0,0.0,-0.1,7.0,135.0)"/>
</svg>