<?xml version="1.0" encoding="UTF-8"?>
<svg height="200.0" version="1.1" width="138.0" xmlns="http://www.w3.org/2000/svg" xmlns:xlink="http://www.w3.org/1999/xlink">
 <path d="M0,0 l138,0 l0,200 l-138,0 Z M0,0" fill="rgb(255,255,255)" transform="matrix(1,0,0,-1,0.0,200.0)"/>
 <path d="M0,0 l138,0" fill="none" stroke="rgb(229,229,229)" stroke-width="2" transform="matrix(1,0,0,-1,0.0,135.0)"/>
 <path d="M0,1 l0,-5" fill="none" stroke="rgb(204,204,204)" stroke-width="2" transform="matrix(1,0,0,-1,7.0,135.0)"/>
 <path d="M0,1 l0,-5" fill="none" stroke="rgb(204,204,204)" stroke-width="2" transform="matrix(1,0,0,-1,132.0,135.0)"/>
 <path d="M256,197 c63,0,108,21,141,50 c9,-28,25,-56,45,-73 l51,0 l0,103 l225,0 c38,-85,111,-133,199,-133 c101,0,148,55,164,78 l4,0 l0,-222 l58,0 l0,582 l125,0 l0,52 l-1288,0 l0,-52 l110,0 l0,-226 c0,-108,79,-159,166,-159 Z M143,582 l292,0 l0,-252 l-16,-12 Z M262,250 c-68,0,-116,31,-116,114 l0,63 l-2,94 l66,-67 l164,-157 c-25,-25,-62,-47,-112,-47 Z M793,582 c28,-23,47,-58,47,-98 c0,-62,-51,-96,-147,-118 c2,-12,4,-24,7,-35 l-207,0 l0,251 Z M763,335 c80,20,138,71,138,140 c0,48,-18,78,-40,103 l0,4 l225,0 l0,-205 c0,-115,-70,-178,-161,-178 c-109,0,-154,83,-162,136 Z M763,335" fill="rgb(0,0,0)" transform="matrix(0.1,0.0,0.0,-0.1,7.0,135.0)"/>
</svg>