<?xml version="1.0" encoding="UTF-8"?>
<svg height="200.0" version="1.1" width="100.0" xmlns="http://www.w3.org/2000/svg" xmlns:xlink="http://www.w3.org/1999/xlink">
 <path d="M0,0 l100,0 l0,200 l-100,0 Z M0,0" fill="rgb(255,255,255)" transform="matrix(1,0,0,-1,0.0,200.0)"/>
 <path d="M0,0 l100,0" fill="none" stroke="rgb(229,229,229)" stroke-width="2" transform="matrix(1,0,0,-1,0.0,135.0)"/>
 <path d="M0,1 l0,-5" fill="none" stroke="rgb(204,204,204)" stroke-width="2" transform="matrix(1,0,0,-1,7.0,135.0)"/>
 <path d="M0,1 l0,-5" fill="none" stroke="rgb(204,204,204)" stroke-width="2" transform="matrix(1,0,0,-1,93.0,135.0)"/>
 <path d="M256,197 c55,0,96,16,128,40 c25,-72,94,-116,167,-116 c78,0,125,37,146,65 l4,0 l0,-186 l58,0 l0,582 l125,0 l0,52 l-904,0 l0,-52 l110,0 l0,-226 c0,-108,79,-159,166,-159 Z M561,176 c-77,0,-126,55,-126,126 c0,94,86,139,178,116 l-6,57 c-90,17,-198,-20,-227,-120 l-237,227 l558,0 l0,-254 c0,-86,-55,-152,-140,-152 Z M262,250 c-68,0,-116,31,-116,114 l0,63 l-2,94 l66,-67 l163,-156 l0,-2 c-25,-25,-61,-46,-111,-46 Z M262,250" fill="rgb(0,0,0)" transform="matrix(0.1,0.0,0.0,-0.1,7.0,135.0)"/>
</svg>