<?xml version="1.0" encoding="UTF-8"?>
<svg height="200.0" version="1.1" width="102.0" xmlns="http://www.w3.org/2000/svg" xmlns:xlink="http://www.w3.org/1999/xlink">
 <path d="M0,0 l102,0 l0,200 l-102,0 Z M0,0" fill="rgb(255,255,255)" transform="matrix(1,0,0,-1,0.0,200.0)"/>
 <path d="M0,0 l102,0" fill="none" stroke="rgb(229,229,229)" stroke-width="2" transform="matrix(1,0,0,-1,0.0,135.0)"/>
 <path d="M0,1 l0,-5" fill="none" stroke="rgb(204,204,204)" stroke-width="2" transform="matrix(1,0,0,-1,7.0,135.0)"/>
 <path d="M0,1 l0,-5" fill="none" stroke="rgb(204,204,204)" stroke-width="2" transform="matrix(1,0,0,-1,95.0,135.0)"/>
 <path d="M256,197 c80,0,131,35,165,75 c29,-51,86,-75,146,-75 c81,0,123,37,142,71 l4,0 l0,-268 l58,0 l0,582 l125,0 l0,52 l-916,0 l0,-52 l110,0 l0,-226 c0,-108,79,-159,166,-159 Z M143,582 l258,0 l0,-226 c0,-8,0,-15,1,-22 Z M262,250 c-68,0,-116,31,-116,114 l0,63 l-2,94 l66,-67 l164,-157 c-25,-25,-61,-47,-112,-47 Z M573,250 c-68,0,-116,31,-116,114 l0,63 l-3,91 l70,-66 l160,-153 c-25,-32,-63,-49,-111,-49 Z M715,399 c0,-22,-3,-41,-9,-58 l-252,241 l261,0 Z M715,399" fill="rgb(0,0,0)" transform="matrix(0.1,0.0,0.0,-0.1,7.0,135.0)"/>
</svg>