<?xml version="1.0" encoding="UTF-8"?>
<svg height="200.0" version="1.1" width="104.0" xmlns="http://www.w3.org/2000/svg" xmlns:xlink="http://www.w3.org/1999/xlink">
 <path d="M0,0 l104,0 l0,200 l-104,0 Z M0,0" fill="rgb(255,255,255)" transform="matrix(1,0,0,-1,0.0,200.0)"/>
 <path d="M0,0 l104,0" fill="none" stroke="rgb(229,229,229)" stroke-width="2" transform="matrix(1,0,0,-1,0.0,135.0)"/>
 <path d="M0,1 l0,-5" fill="none" stroke="rgb(204,204,204)" stroke-width="2" transform="matrix(1,0,0,-1,7.0,135.0)"/>
 <path d="M0,1 l0,-5" fill="none" stroke="rgb(204,204,204)" stroke-width="2" transform="matrix(1,0,0,-1,97.0,135.0)"/>
 <path d="M408,331 c-39,0,-83,6,-120,17 c3,9,4,20,4,32 l0,202 l433,0 l0,-124 l-129,-40 c-57,-18,-96,-44,-117,-82 c-20,-3,-44,-5,-71,-5 Z M133,270 c11,-4,31,-5,40,-5 c35,0,68,11,90,35 c38,-15,94,-24,144,-24 c22,0,40,1,56,2 c-1,-5,-1,-11,-1,-17 c0,-112,100,-216,237,-216 c69,0,137,21,183,68 l-35,47 c-32,-34,-78,-60,-155,-60 c-103,0,-168,75,-168,151 c0,59,21,93,115,122 l144,44 l0,165 l141,0 l0,52 l-944,0 l0,-52 l254,0 l0,-194 c0,-49,-24,-70,-73,-70 c-51,0,-81,28,-95,43 l-44,-35 l251,-335 l47,32 l-123,163 c-24,32,-44,55,-66,81 Z M133,270" fill="rgb(0,0,0)" transform="matrix(0.1,0.0,0.0,-0.1,7.0,135.0)"/>
</svg>