<?xml version="1.0" encoding="UTF-8"?>
<svg height="200.0" version="1.1" width="122.0" xmlns="http://www.w3.org/2000/svg" xmlns:xlink="http://www.w3.org/1999/xlink">
 <path d="M0,0 l122,0 l0,200 l-122,0 Z M0,0" fill="rgb(255,255,255)" transform="matrix(1,0,0,-1,0.0,200.0)"/>
 <path d="M0,0 l122,0" fill="none" stroke="rgb(229,229,229)" stroke-width="2" transform="matrix(1,0,0,-1,0.0,135.0)"/>
 <path d="M0,1 l0,-5" fill="none" stroke="rgb(204,204,204)" stroke-width="2" transform="matrix(1,0,0,-1,7.0,135.0)"/>
 <path d="M0,1 l0,-5" fill="none" stroke="rgb(204,204,204)" stroke-width="2" transform="matrix(1,0,0,-1,114.0,135.0)"/>
 <path d="M969,0 l0,582 l125,0 l0,52 l-182,0 l0,-269 c0,-106,-65,-199,-194,-199 c-121,0,-164,101,-169,144 c20,6,39,11,59,17 c133,38,197,99,197,185 c0,76,-53,132,-135,132 c-78,0,-134,-56,-134,-123 c0,-40,18,-69,32,-82 l57,17 c-16,13,-30,40,-30,62 c0,45,32,71,75,71 c47,0,76,-30,76,-75 c0,-57,-24,-98,-175,-141 l-92,-27 c-21,-3,-44,-6,-73,-6 c-39,0,-83,5,-118,15 c3,10,4,22,4,35 l0,192 l138,0 l0,52 l-450,0 l0,-52 l254,0 l0,-184 c0,-49,-24,-70,-73,-70 c-51,0,-81,28,-95,43 l-44,-35 l251,-335 l47,32 l-123,163 c-24,32,-44,55,-66,81 l2,3 c11,-4,31,-5,40,-5 c35,0,68,11,90,35 c38,-15,92,-25,142,-25 c37,0,63,3,83,6 c25,-102,105,-180,229,-180 c102,0,165,52,190,92 l4,0 l0,-203 Z M969,0" fill="rgb(0,0,0)" transform="matrix(0.1,0.0,0.0,-0.1,7.0,135.0)"/>
</svg>