<?xml version="1.0" encoding="UTF-8"?>
<svg height="200.0" version="1.1" width="156.0" xmlns="http://www.w3.org/2000/svg" xmlns:xlink="http://www.w3.org/1999/xlink">
 <path d="M0,0 l156,0 l0,200 l-156,0 Z M0,0" fill="rgb(255,255,255)" transform="matrix(1,0,0,-1,0.0,200.0)"/>
 <path d="M0,0 l156,0" fill="none" stroke="rgb(229,229,229)" stroke-width="2" transform="matrix(1,0,0,-1,0.0,135.0)"/>
 <path d="M0,1 l0,-5" fill="none" stroke="rgb(204,204,204)" stroke-width="2" transform="matrix(1,0,0,-1,7.0,135.0)"/>
 <path d="M0,1 l0,-5" fill="none" stroke="rgb(204,204,204)" stroke-width="2" transform="matrix(1,0,0,-1,149.0,135.0)"/>
 <path d="M394,343 c-36,0,-75,4,-106,13 c3,10,4,22,4,34 l0,192 l128,0 l0,52 l-440,0 l0,-52 l254,0 l0,-184 c0,-49,-24,-70,-73,-70 c-51,0,-81,28,-95,43 l-44,-35 l251,-335 l47,32 l-123,163 c-24,32,-44,55,-66,81 l2,3 c11,-4,31,-5,40,-5 c34,0,67,11,89,33 c34,-12,84,-20,133,-20 c24,0,43,1,59,3 c30,-102,124,-178,250,-178 c105,0,180,44,224,101 c41,-45,96,-70,159,-70 c101,0,148,55,164,78 l4,0 l0,-222 l58,0 l0,582 l125,0 l0,52 l-594,0 l0,-52 l119,0 c28,-23,47,-58,47,-98 c0,-62,-51,-96,-147,-118 c5,-40,17,-76,33,-106 c-36,-50,-99,-92,-191,-92 c-125,0,-185,96,-190,142 c182,52,257,101,257,203 c0,76,-57,131,-137,131 c-78,0,-133,-56,-133,-123 c0,-40,18,-69,32,-82 l57,17 c-16,13,-30,40,-30,62 c0,45,31,71,74,71 c45,0,78,-29,78,-74 c0,-56,-25,-98,-176,-142 l-90,-26 c-18,-3,-35,-4,-53,-4 Z M933,335 c80,20,138,71,138,140 c0,48,-18,78,-40,103 l0,4 l225,0 l0,-205 c0,-115,-70,-178,-161,-178 c-109,0,-154,83,-162,136 Z M933,335" fill="rgb(0,0,0)" transform="matrix(0.1,0.0,0.0,-0.1,7.0,135.0)"/>
</svg>