<?xml version="1.0" encoding="UTF-8"?>
<svg height="200.0" version="1.1" width="116.0" xmlns="http://www.w3.org/2000/svg" xmlns:xlink="http://www.w3.org/1999/xlink">
 <path d="M0,0 l116,0 l0,200 l-116,0 Z M0,0" fill="rgb(255,255,255)" transform="matrix(1,0,0,-1,0.0,200.0)"/>
 <path d="M0,0 l116,0" fill="none" stroke="rgb(229,229,229)" stroke-width="2" transform="matrix(1,0,0,-1,0.0,135.0)"/>
 <path d="M0,1 l0,-5" fill="none" stroke="rgb(204,204,204)" stroke-width="2" transform="matrix(1,0,0,-1,7.0,135.0)"/>
 <path d="M0,1 l0,-5" fill="none" stroke="rgb(204,204,204)" stroke-width="2" transform="matrix(1,0,0,-1,109.0,135.0)"/>
 <path d="M397,331 c-40,0,-78,6,-111,17 c4,12,6,26,6,42 l0,192 l268,0 c28,-23,47,-58,47,-98 c0,-62,-51,-96,-147,-118 c1,-10,3,-21,5,-30 c-19,-3,-42,-5,-68,-5 Z M133,280 c11,-4,31,-5,40,-5 c31,0,60,9,82,27 c36,-15,88,-26,141,-26 c38,0,65,3,86,7 c38,-89,112,-139,202,-139 c101,0,148,55,164,78 l4,0 l0,-222 l58,0 l0,582 l125,0 l0,52 l-1055,0 l0,-52 l254,0 l0,-184 c0,-49,-24,-70,-73,-70 c-51,0,-81,28,-95,43 l-44,-35 l251,-335 l47,32 l-123,163 c-24,32,-44,55,-66,81 Z M530,335 c80,20,138,71,138,140 c0,48,-18,78,-40,103 l0,4 l225,0 l0,-205 c0,-115,-70,-178,-161,-178 c-109,0,-154,83,-162,136 Z M530,335" fill="rgb(0,0,0)" transform="matrix(0.1,0.0,0.0,-0.1,7.0,135.0)"/>
</svg>