<?xml version="1.0" encoding="UTF-8"?>
<svg height="200.0" version="1.1" width="126.0" xmlns="http://www.w3.org/2000/svg" xmlns:xlink="http://www.w3.org/1999/xlink">
 <path d="M0,0 l126,0 l0,200 l-126,0 Z M0,0" fill="rgb(255,255,255)" transform="matrix(1,0,0,-1,0.0,200.0)"/>
 <path d="M0,0 l126,0" fill="none" stroke="rgb(229,229,229)" stroke-width="2" transform="matrix(1,0,0,-1,0.0,135.0)"/>
 <path d="M0,1 l0,-5" fill="none" stroke="rgb(204,204,204)" stroke-width="2" transform="matrix(1,0,0,-1,7.0,135.0)"/>
 <path d="M0,1 l0,-5" fill="none" stroke="rgb(204,204,204)" stroke-width="2" transform="matrix(1,0,0,-1,119.0,135.0)"/>
 <path d="M408,331 c-39,0,-83,6,-120,17 c3,9,4,20,4,32 l0,202 l662,0 l0,-168 l-4,0 c-14,16,-44,35,-88,35 c-53,0,-97,-31,-112,-85 l-4,0 c-14,48,-56,81,-122,81 c-63,0,-121,-39,-144,-109 c-21,-3,-45,-5,-72,-5 Z M133,270 c11,-4,31,-5,40,-5 c35,0,68,11,90,35 c38,-15,94,-24,144,-24 c25,0,46,1,63,3 c0,-3,0,-6,0,-9 c0,-127,82,-225,171,-273 l42,43 c-95,51,-152,130,-152,229 c0,83,44,121,97,121 c55,0,90,-35,90,-104 l0,-94 l58,0 l0,95 c0,72,38,107,90,107 c38,0,72,-21,88,-38 l0,-356 l58,0 l0,582 l125,0 l0,52 l-1157,0 l0,-52 l254,0 l0,-194 c0,-49,-24,-70,-73,-70 c-51,0,-81,28,-95,43 l-44,-35 l251,-335 l47,32 l-123,163 c-24,32,-44,55,-66,81 Z M133,270" fill="rgb(0,0,0)" transform="matrix(0.1,0.0,0.0,-0.1,7.0,135.0)"/>
</svg>