<?xml version="1.0" encoding="UTF-8"?>
<svg height="200.0" version="1.1" width="110.0" xmlns="http://www.w3.org/2000/svg" xmlns:xlink="http://www.w3.org/1999/xlink">
 <path d="M0,0 l110,0 l0,200 l-110,0 Z M0,0" fill="rgb(255,255,255)" transform="matrix(1,0,0,-1,0.0,200.0)"/>
 <path d="M0,0 l110,0" fill="none" stroke="rgb(229,229,229)" stroke-width="2" transform="matrix(1,0,0,-1,0.0,135.0)"/>
 <path d="M0,1 l0,-5" fill="none" stroke="rgb(204,204,204)" stroke-width="2" transform="matrix(1,0,0,-1,7.0,135.0)"/>
 <path d="M0,1 l0,-5" fill="none" stroke="rgb(204,204,204)" stroke-width="2" transform="matrix(1,0,0,-1,102.0,135.0)"/>
 <path d="M408,331 c-39,0,-83,6,-120,17 c3,9,4,20,4,32 l0,202 l496,0 l0,-254 c0,-86,-55,-152,-140,-152 c-77,0,-126,55,-126,126 c0,94,86,139,178,116 l-6,57 c-96,18,-212,-25,-231,-141 c-17,-2,-35,-3,-55,-3 Z M133,270 c11,-4,31,-5,40,-5 c35,0,68,11,90,35 c38,-15,94,-24,144,-24 c21,0,39,1,54,2 c11,-96,90,-157,177,-157 c78,0,125,37,146,65 l4,0 l0,-186 l58,0 l0,582 l125,0 l0,52 l-991,0 l0,-52 l254,0 l0,-194 c0,-49,-24,-70,-73,-70 c-51,0,-81,28,-95,43 l-44,-35 l251,-335 l47,32 l-123,163 c-24,32,-44,55,-66,81 Z M133,270" fill="rgb(0,0,0)" transform="matrix(0.1,0.0,0.0,-0.1,7.0,135.0)"/>
</svg>