<?xml version="1.0" encoding="UTF-8"?>
<svg height="200.0" version="1.1" width="70.0" xmlns="http://www.w3.org/2000/svg" xmlns:xlink="http://www.w3.org/1999/xlink">
 <path d="M0,0 l70,0 l0,200 l-70,0 Z M0,0" fill="rgb(255,255,255)" transform="matrix(1,0,0,-1,0.0,200.0)"/>
 <path d="M0,0 l70,0" fill="none" stroke="rgb(229,229,229)" stroke-width="2" transform="matrix(1,0,0,-1,0.0,135.0)"/>
 <path d="M0,1 l0,-5" fill="none" stroke="rgb(204,204,204)" stroke-width="2" transform="matrix(1,0,0,-1,7.0,135.0)"/>
 <path d="M0,1 l0,-5" fill="none" stroke="rgb(204,204,204)" stroke-width="2" transform="matrix(1,0,0,-1,63.0,135.0)"/>
 <path d="M320,64 c54,0,86,36,86,89 l0,82 c31,-20,50,-54,50,-103 c0,-29,-6,-67,-19,-96 l56,0 c11,27,17,63,17,87 c0,124,-85,190,-206,190 c-58,0,-103,-13,-130,-29 c-38,20,-54,54,-54,84 c0,29,18,51,66,51 l283,0 l0,163 l108,0 l0,52 l-597,0 l0,-52 l432,0 l0,-109 l-242,0 c-68,0,-111,-44,-111,-101 c0,-48,35,-93,72,-117 c-40,-34,-62,-80,-62,-128 c0,-115,103,-212,287,-226 l25,53 c-191,9,-251,91,-251,169 c0,59,40,105,103,126 l0,-95 c0,-53,27,-90,87,-90 Z M309,260 c16,0,31,-1,46,-4 l0,-100 c0,-27,-6,-47,-35,-47 c-29,0,-35,21,-35,48 l0,102 c8,0,16,1,24,1 Z M309,260" fill="rgb(0,0,0)" transform="matrix(0.1,0.0,0.0,-0.1,7.0,135.0)"/>
</svg>