<?xml version="1.0" encoding="UTF-8"?>
<svg height="200.0" version="1.1" width="88.0" xmlns="http://www.w3.org/2000/svg" xmlns:xlink="http://www.w3.org/1999/xlink">
 <path d="M0,0 l88,0 l0,200 l-88,0 Z M0,0" fill="rgb(255,255,255)" transform="matrix(1,0,0,-1,0.0,200.0)"/>
 <path d="M0,0 l88,0" fill="none" stroke="rgb(229,229,229)" stroke-width="2" transform="matrix(1,0,0,-1,0.0,135.0)"/>
 <path d="M0,1 l0,-5" fill="none" stroke="rgb(204,204,204)" stroke-width="2" transform="matrix(1,0,0,-1,7.0,135.0)"/>
 <path d="M0,1 l0,-5" fill="none" stroke="rgb(204,204,204)" stroke-width="2" transform="matrix(1,0,0,-1,82.0,135.0)"/>
 <path d="M766,582 l0,52 l-786,0 l0,-52 l390,0 l0,-109 l-176,0 c-69,0,-113,-43,-113,-100 c0,-49,32,-91,70,-114 c-40,-30,-61,-74,-61,-122 c0,-114,93,-203,278,-224 l25,53 c-190,16,-242,94,-242,171 c0,65,50,104,127,104 l94,0 l0,-61 l-46,-44 c3,-33,18,-62,42,-81 l59,0 l0,70 l183,0 l0,-144 l57,0 l0,601 Z M142,369 c0,29,17,50,68,50 l217,0 l0,163 l183,0 l0,-404 l-183,0 l0,79 l-54,39 l-98,0 c-26,0,-49,-4,-70,-10 c-40,19,-63,53,-63,83 Z M142,369" fill="rgb(0,0,0)" transform="matrix(0.1,0.0,0.0,-0.1,7.0,135.0)"/>
</svg>