<?xml version="1.0" encoding="UTF-8"?>
<svg height="200.0" version="1.1" width="84.0" xmlns="http://www.w3.org/2000/svg" xmlns:xlink="http://www.w3.org/1999/xlink">
 <path d="M0,0 l84,0 l0,200 l-84,0 Z M0,0" fill="rgb(255,255,255)" transform="matrix(1,0,0,-1,0.0,200.0)"/>
 <path d="M0,0 l84,0" fill="none" stroke="rgb(229,229,229)" stroke-width="2" transform="matrix(1,0,0,-1,0.0,135.0)"/>
 <path d="M0,1 l0,-5" fill="none" stroke="rgb(204,204,204)" stroke-width="2" transform="matrix(1,0,0,-1,7.0,135.0)"/>
 <path d="M0,1 l0,-5" fill="none" stroke="rgb(204,204,204)" stroke-width="2" transform="matrix(1,0,0,-1,78.0,135.0)"/>
 <path d="M428,-9 c-192,13,-295,76,-295,175 c0,79,101,132,207,132 c27,0,39,-8,39,-22 c0,-26,-42,-49,-119,-91 c11,-52,75,-117,165,-117 c74,0,113,35,130,62 l4,0 l0,-130 l58,0 l0,582 l112,0 l0,52 l-749,0 l0,-52 l354,0 l0,-99 l-160,0 c-69,0,-113,-43,-113,-100 c0,-49,31,-88,64,-109 c-32,-29,-52,-66,-52,-107 c0,-128,138,-211,329,-228 Z M338,169 c59,35,97,64,97,108 c0,38,-30,69,-105,69 c-51,0,-114,-16,-160,-41 c-29,20,-48,49,-48,74 c0,29,17,50,68,50 l202,0 l0,153 l167,0 l0,-322 c0,-57,-36,-139,-131,-139 c-54,0,-82,30,-90,48 Z M338,169" fill="rgb(0,0,0)" transform="matrix(0.1,0.0,0.0,-0.1,7.0,135.0)"/>
</svg>