<?xml version="1.0" encoding="UTF-8"?>
<svg height="200.0" version="1.1" width="72.0" xmlns="http://www.w3.org/2000/svg" xmlns:xlink="http://www.w3.org/1999/xlink">
 <path d="M0,0 l72,0 l0,200 l-72,0 Z M0,0" fill="rgb(255,255,255)" transform="matrix(1,0,0,-1,0.0,200.0)"/>
 <path d="M0,0 l72,0" fill="none" stroke="rgb(229,229,229)" stroke-width="2" transform="matrix(1,0,0,-1,0.0,135.0)"/>
 <path d="M0,1 l0,-5" fill="none" stroke="rgb(204,204,204)" stroke-width="2" transform="matrix(1,0,0,-1,7.0,135.0)"/>
 <path d="M0,1 l0,-5" fill="none" stroke="rgb(204,204,204)" stroke-width="2" transform="matrix(1,0,0,-1,66.0,135.0)"/>
 <path d="M310,-100 c-115,46,-167,115,-167,207 c0,82,69,148,181,148 c51,0,91,-17,117,-47 c-36,-5,-55,-25,-63,-41 c-12,16,-34,29,-61,29 c-55,0,-90,-37,-90,-88 c0,-53,28,-112,105,-151 l29,35 c-68,35,-80,74,-80,115 c0,26,19,41,38,41 c19,0,37,-13,37,-37 l0,-42 l49,0 l0,37 c0,36,25,62,60,59 c6,-16,9,-34,9,-54 c0,-37,-11,-81,-27,-111 l57,0 c14,29,23,73,23,112 c0,104,-81,195,-219,195 c-44,0,-85,-10,-120,-28 c-32,22,-53,59,-53,90 c0,29,17,50,68,50 l271,0 l0,163 l132,0 l0,52 l-626,0 l0,-52 l437,0 l0,-109 l-230,0 c-69,0,-113,-43,-113,-100 c0,-50,38,-95,71,-122 c-39,-34,-63,-82,-63,-140 c0,-111,76,-201,189,-254 Z M310,-100" fill="rgb(0,0,0)" transform="matrix(0.1,0.0,0.0,-0.1,7.0,135.0)"/>
</svg>