<?xml version="1.0" encoding="UTF-8"?>
<svg height="200.0" version="1.1" width="72.0" xmlns="http://www.w3.org/2000/svg" xmlns:xlink="http://www.w3.org/1999/xlink">
 <path d="M0,0 l72,0 l0,200 l-72,0 Z M0,0" fill="rgb(255,255,255)" transform="matrix(1,0,0,-1,0.0,200.0)"/>
 <path d="M0,0 l72,0" fill="none" stroke="rgb(229,229,229)" stroke-width="2" transform="matrix(1,0,0,-1,0.0,135.0)"/>
 <path d="M0,1 l0,-5" fill="none" stroke="rgb(204,204,204)" stroke-width="2" transform="matrix(1,0,0,-1,7.0,135.0)"/>
 <path d="M0,1 l0,-5" fill="none" stroke="rgb(204,204,204)" stroke-width="2" transform="matrix(1,0,0,-1,66.0,135.0)"/>
 <path d="M459,44 c0,-22,-15,-60,-15,-60 l54,0 c0,0,14,46,14,122 c0,101,-68,193,-209,193 c-36,0,-71,-7,-101,-20 c-35,19,-59,56,-59,90 c0,29,17,50,68,50 l271,0 l0,163 l123,0 l0,52 l-625,0 l0,-52 l445,0 l0,-109 l-230,0 c-69,0,-113,-43,-113,-100 c0,-52,38,-96,74,-121 c-39,-31,-65,-77,-65,-138 c0,-128,115,-209,276,-240 l37,49 c-170,26,-251,92,-251,191 c0,67,54,132,169,132 c88,0,131,-52,131,-115 c0,-47,-31,-81,-82,-81 c-41,0,-57,28,-57,53 c0,31,23,51,53,51 c20,0,33,-5,39,-8 l0,50 c-9,3,-24,7,-44,7 c-52,0,-104,-35,-104,-96 c0,-52,42,-106,112,-106 c49,0,78,30,85,43 Z M459,44" fill="rgb(0,0,0)" transform="matrix(0.1,0.0,0.0,-0.1,7.0,135.0)"/>
</svg>