<?xml version="1.0" encoding="UTF-8"?>
<svg height="200.0" version="1.1" width="154.0" xmlns="http://www.w3.org/2000/svg" xmlns:xlink="http://www.w3.org/1999/xlink">
 <path d="M0,0 l154,0 l0,200 l-154,0 Z M0,0" fill="rgb(255,255,255)" transform="matrix(1,0,0,-1,0.0,200.0)"/>
 <path d="M0,0 l154,0" fill="none" stroke="rgb(229,229,229)" stroke-width="2" transform="matrix(1,0,0,-1,0.0,135.0)"/>
 <path d="M0,1 l0,-5" fill="none" stroke="rgb(204,204,204)" stroke-width="2" transform="matrix(1,0,0,-1,7.0,135.0)"/>
 <path d="M0,1 l0,-5" fill="none" stroke="rgb(204,204,204)" stroke-width="2" transform="matrix(1,0,0,-1,34.0,135.0)"/>
 <path d="M288,582 l0,52 l-125,0 l0,29 c0,124,111,197,463,197 c402,0,653,-80,757,-155 l32,42 c-96,76,-367,167,-789,167 c-397,0,-521,-97,-521,-254 l0,-26 l-125,0 l0,-52 l125,0 l0,-582 l58,0 l0,582 Z M288,582" fill="rgb(0,0,0)" transform="matrix(0.1,0.0,0.0,-0.1,7.0,135.0)"/>
</svg>