<?xml version="1.0" encoding="UTF-8"?>
<svg height="200.0" version="1.1" width="160.0" xmlns="http://www.w3.org/2000/svg" xmlns:xlink="http://www.w3.org/1999/xlink">
 <path d="M0,0 l160,0 l0,200 l-160,0 Z M0,0" fill="rgb(255,255,255)" transform="matrix(1,0,0,-1,0.0,200.0)"/>
 <path d="M0,0 l160,0" fill="none" stroke="rgb(229,229,229)" stroke-width="2" transform="matrix(1,0,0,-1,0.0,135.0)"/>
 <path d="M0,1 l0,-5" fill="none" stroke="rgb(204,204,204)" stroke-width="2" transform="matrix(1,0,0,-1,7.0,135.0)"/>
 <path d="M0,1 l0,-5" fill="none" stroke="rgb(204,204,204)" stroke-width="2" transform="matrix(1,0,0,-1,34.0,135.0)"/>
 <path d="M288,582 l0,52 l-125,0 l0,24 c0,127,115,202,487,202 c422,0,685,-79,794,-155 l31,43 c-100,76,-383,166,-825,166 c-417,0,-545,-99,-545,-260 l0,-20 l-125,0 l0,-52 l125,0 l0,-582 l58,0 l0,582 Z M288,582" fill="rgb(0,0,0)" transform="matrix(0.1,0.0,0.0,-0.1,7.0,135.0)"/>
</svg>