<?xml version="1.0" encoding="UTF-8"?>
<svg height="200.0" version="1.1" width="50.0" xmlns="http://www.w3.org/2000/svg" xmlns:xlink="http://www.w3.org/1999/xlink">
 <path d="M0,0 l50,0 l0,200 l-50,0 Z M0,0" fill="rgb(255,255,255)" transform="matrix(1,0,0,-1,0.0,200.0)"/>
 <path d="M0,0 l50,0" fill="none" stroke="rgb(229,229,229)" stroke-width="2" transform="matrix(1,0,0,-1,0.0,135.0)"/>
 <path d="M0,-4 l0,8" fill="none" stroke="rgb(255,76,25)" stroke-width="2" transform="matrix(1,0,0,-1,34.0,135.0)"/>
 <path d="M117,-242 c-24,111,-110,252,-255,252 c-86,0,-152,-56,-152,-135 c0,-70,54,-130,135,-130 c11,0,32,1,48,8 l0,56 c-15,-5,-26,-8,-46,-8 c-48,0,-75,33,-75,74 c0,47,39,79,89,79 c92,0,171,-87,198,-212 Z M117,-242" fill="rgb(0,0,0)" transform="matrix(0.1,0.0,0.0,-0.1,34.0,135.0)"/>
</svg>