<?xml version="1.0" encoding="UTF-8"?>
<svg height="200.0" version="1.1" width="44.0" xmlns="http://www.w3.org/2000/svg" xmlns:xlink="http://www.w3.org/1999/xlink">
 <path d="M0,0 l44,0 l0,200 l-44,0 Z M0,0" fill="rgb(255,255,255)" transform="matrix(1,0,0,-1,0.0,200.0)"/>
 <path d="M0,0 l44,0" fill="none" stroke="rgb(229,229,229)" stroke-width="2" transform="matrix(1,0,0,-1,0.0,135.0)"/>
 <path d="M0,-4 l0,8" fill="none" stroke="rgb(255,76,25)" stroke-width="2" transform="matrix(1,0,0,-1,32.0,135.0)"/>
 <path d="M75,-216 c-17,87,-88,223,-218,223 c-83,0,-130,-56,-130,-117 c0,-67,52,-118,123,-118 c14,0,28,2,42,6 l0,53 c-11,-5,-21,-7,-33,-7 c-46,0,-73,25,-73,65 c0,38,28,64,73,64 c74,0,140,-78,161,-181 Z M75,-216" fill="rgb(0,0,0)" transform="matrix(0.1,0.0,0.0,-0.1,32.0,135.0)"/>
</svg>