<?xml version="1.0" encoding="UTF-8"?>
<svg height="200.0" version="1.1" width="36.0" xmlns="http://www.w3.org/2000/svg" xmlns:xlink="http://www.w3.org/1999/xlink">
 <path d="M0,0 l36,0 l0,200 l-36,0 Z M0,0" fill="rgb(255,255,255)" transform="matrix(1,0,0,-1,0.0,200.0)"/>
 <path d="M0,0 l36,0" fill="none" stroke="rgb(229,229,229)" stroke-width="2" transform="matrix(1,0,0,-1,0.0,135.0)"/>
 <path d="M0,-4 l0,8" fill="none" stroke="rgb(255,76,25)" stroke-width="2" transform="matrix(1,0,0,-1,31.0,135.0)"/>
 <path d="M-30,-210 c-22,-15,-53,-23,-82,-23 c-50,0,-93,25,-93,80 c0,59,56,87,131,86 l-15,51 c-106,2,-175,-58,-175,-137 c0,-88,72,-133,153,-133 c38,0,77,9,106,27 Z M-30,-210" fill="rgb(0,0,0)" transform="matrix(0.1,0.0,0.0,-0.1,31.0,135.0)"/>
</svg>