<?xml version="1.0" encoding="UTF-8"?>
<svg height="200.0" version="1.1" width="40.0" xmlns="http://www.w3.org/2000/svg" xmlns:xlink="http://www.w3.org/1999/xlink">
 <path d="M0,0 l40,0 l0,200 l-40,0 Z M0,0" fill="rgb(255,255,255)" transform="matrix(1,0,0,-1,0.0,200.0)"/>
 <path d="M0,0 l40,0" fill="none" stroke="rgb(229,229,229)" stroke-width="2" transform="matrix(1,0,0,-1,0.0,135.0)"/>
 <path d="M0,-4 l0,8" fill="none" stroke="rgb(255,76,25)" stroke-width="2" transform="matrix(1,0,0,-1,31.0,135.0)"/>
 <path d="M-68,-182 c-15,-3,-34,-4,-52,-4 c-46,0,-84,15,-84,56 c0,41,42,63,130,63 l-15,51 c-111,0,-173,-47,-173,-111 c0,-58,51,-85,84,-86 c-36,-8,-74,-33,-74,-85 c0,-69,62,-103,142,-103 c49,0,101,13,138,37 l-23,46 c-24,-20,-73,-33,-118,-33 c-55,0,-84,22,-84,54 c0,38,38,64,137,69 Z M-68,-182" fill="rgb(0,0,0)" transform="matrix(0.1,0.0,0.0,-0.1,31.0,135.0)"/>
</svg>