<?xml version="1.0" encoding="UTF-8"?>
<svg height="200.0" version="1.1" width="110.0" xmlns="http://www.w3.org/2000/svg" xmlns:xlink="http://www.w3.org/1999/xlink">
 <path d="M0,0 l110,0 l0,200 l-110,0 Z M0,0" fill="rgb(255,255,255)" transform="matrix(1,0,0,-1,0.0,200.0)"/>
 <path d="M0,0 l110,0" fill="none" stroke="rgb(229,229,229)" stroke-width="2" transform="matrix(1,0,0,-1,0.0,135.0)"/>
 <path d="M0,1 l0,-5" fill="none" stroke="rgb(204,204,204)" stroke-width="2" transform="matrix(1,0,0,-1,7.0,135.0)"/>
 <path d="M0,1 l0,-5" fill="none" stroke="rgb(204,204,204)" stroke-width="2" transform="matrix(1,0,0,-1,103.0,135.0)"/>
 <path d="M922,-105 l-57,233 c15,13,32,39,32,79 c0,38,-25,66,-43,74 l-46,-17 l0,-103 c-17,-15,-52,-26,-96,-26 c-90,0,-150,66,-150,142 c0,56,27,93,111,114 l162,40 l0,151 l148,0 l0,52 l-1003,0 l0,-52 l797,0 l0,-110 l-129,-32 c-30,-7,-55,-18,-77,-31 c-26,23,-64,40,-113,40 c-57,0,-103,-33,-118,-85 l-4,0 c-14,48,-56,81,-122,81 c-80,0,-154,-63,-154,-175 c0,-127,82,-225,171,-273 l42,43 c-95,51,-152,130,-152,229 c0,83,44,121,97,121 c55,0,90,-35,90,-104 l0,-94 l58,0 l0,95 c0,69,38,107,96,107 c29,0,52,-10,69,-20 c-21,-25,-31,-56,-31,-93 c0,-94,78,-201,221,-201 c37,0,71,6,98,20 l20,-135 Z M922,-105" fill="rgb(0,0,0)" transform="matrix(0.1,0.0,0.0,-0.1,7.0,135.0)"/>
</svg>