<?xml version="1.0" encoding="UTF-8"?>
<svg height="200.0" version="1.1" width="138.0" xmlns="http://www.w3.org/2000/svg" xmlns:xlink="http://www.w3.org/1999/xlink">
 <path d="M0,0 l138,0 l0,200 l-138,0 Z M0,0" fill="rgb(255,255,255)" transform="matrix(1,0,0,-1,0.0,200.0)"/>
 <path d="M0,0 l138,0" fill="none" stroke="rgb(229,229,229)" stroke-width="2" transform="matrix(1,0,0,-1,0.0,135.0)"/>
 <path d="M0,1 l0,-5" fill="none" stroke="rgb(204,204,204)" stroke-width="2" transform="matrix(1,0,0,-1,7.0,135.0)"/>
 <path d="M0,1 l0,-5" fill="none" stroke="rgb(204,204,204)" stroke-width="2" transform="matrix(1,0,0,-1,131.0,135.0)"/>
 <path d="M850,304 l-170,-34 c-37,10,-70,46,-70,86 c0,36,16,60,75,60 l188,0 l0,166 l203,0 l0,-288 c-19,-10,-51,-20,-92,-20 c-55,0,-106,15,-134,30 Z M867,-57 l-124,85 l0,4 c82,-3,175,45,175,147 c0,21,-4,39,-10,55 c25,-9,52,-15,81,-15 c37,0,65,5,87,14 l0,-283 l58,0 l0,632 l125,0 l0,52 l-1279,0 l0,-52 l836,0 l0,-113 l-158,0 c-38,0,-68,-13,-87,-36 l-268,0 l-27,-48 l0,-4 c34,-9,95,-42,95,-112 c0,-50,-34,-89,-95,-89 c-110,0,-180,126,-184,244 l-61,-22 c15,-120,92,-277,249,-277 c93,0,151,65,151,141 c0,64,-34,96,-49,110 l0,4 l168,0 c-1,-4,-1,-8,-1,-13 c0,-77,59,-135,119,-154 l161,32 c13,-9,31,-30,31,-67 c0,-69,-68,-101,-140,-101 l-39,0 l-123,87 c-9,-6,-22,-21,-22,-43 c0,-45,45,-91,144,-94 l123,-112 Z M867,-57" fill="rgb(0,0,0)" transform="matrix(0.1,0.0,0.0,-0.1,7.0,135.0)"/>
</svg>