<?xml version="1.0" encoding="UTF-8"?>
<svg height="200.0" version="1.1" width="132.0" xmlns="http://www.w3.org/2000/svg" xmlns:xlink="http://www.w3.org/1999/xlink">
 <path d="M0,0 l132,0 l0,200 l-132,0 Z M0,0" fill="rgb(255,255,255)" transform="matrix(1,0,0,-1,0.0,200.0)"/>
 <path d="M0,0 l132,0" fill="none" stroke="rgb(229,229,229)" stroke-width="2" transform="matrix(1,0,0,-1,0.0,135.0)"/>
 <path d="M0,1 l0,-5" fill="none" stroke="rgb(204,204,204)" stroke-width="2" transform="matrix(1,0,0,-1,7.0,135.0)"/>
 <path d="M0,1 l0,-5" fill="none" stroke="rgb(204,204,204)" stroke-width="2" transform="matrix(1,0,0,-1,125.0,135.0)"/>
 <path d="M811,-43 l-141,121 l20,-1 c94,0,165,56,165,143 c0,102,-97,154,-146,173 l0,4 l303,0 l0,-433 l58,0 l0,618 l125,0 l0,52 l-1215,0 l0,-52 l1032,0 l0,-132 l-709,0 l-27,-48 l0,-4 c34,-9,95,-42,95,-112 c0,-50,-34,-89,-95,-89 c-110,0,-180,126,-184,244 l-61,-22 c15,-120,92,-277,249,-277 c93,0,151,65,151,141 c0,64,-34,96,-49,110 l0,4 l214,0 c74,-19,198,-71,198,-172 c0,-65,-51,-103,-124,-103 c-16,0,-34,2,-52,7 l-100,92 c-15,-10,-24,-26,-24,-51 c0,-41,36,-83,114,-90 l134,-150 Z M811,-43" fill="rgb(0,0,0)" transform="matrix(0.1,0.0,0.0,-0.1,7.0,135.0)"/>
</svg>