<?xml version="1.0" encoding="UTF-8"?>
<svg height="200.0" version="1.1" width="36.0" xmlns="http://www.w3.org/2000/svg" xmlns:xlink="http://www.w3.org/1999/xlink">
 <path d="M0,0 l36,0 l0,200 l-36,0 Z M0,0" fill="rgb(255,255,255)" transform="matrix(1,0,0,-1,0.0,200.0)"/>
 <path d="M0,0 l36,0" fill="none" stroke="rgb(229,229,229)" stroke-width="2" transform="matrix(1,0,0,-1,0.0,135.0)"/>
 <path d="M0,-4 l0,8" fill="none" stroke="rgb(255,76,25)" stroke-width="2" transform="matrix(1,0,0,-1,27.0,135.0)"/>
 <path d="M-63,855 c30,0,54,-11,68,-21 l26,51 c-10,7,-38,25,-97,25 c-85,0,-154,-66,-154,-149 c0,-69,34,-108,58,-123 l0,-9 l85,0 l0,5 c-38,15,-85,52,-85,123 c0,58,45,98,99,98 Z M-89,742 c0,-25,19,-43,44,-43 c26,0,45,18,45,43 c0,26,-19,46,-45,46 c-25,0,-44,-20,-44,-46 Z M-89,742" fill="rgb(0,0,0)" transform="matrix(0.1,0.0,0.0,-0.1,27.0,135.0)"/>
</svg>