<?xml version="1.0" encoding="UTF-8"?>
<svg height="200.0" version="1.1" width="46.0" xmlns="http://www.w3.org/2000/svg" xmlns:xlink="http://www.w3.org/1999/xlink">
 <path d="M0,0 l46,0 l0,200 l-46,0 Z M0,0" fill="rgb(255,255,255)" transform="matrix(1,0,0,-1,0.0,200.0)"/>
 <path d="M0,0 l46,0" fill="none" stroke="rgb(229,229,229)" stroke-width="2" transform="matrix(1,0,0,-1,0.0,135.0)"/>
 <path d="M0,-4 l0,8" fill="none" stroke="rgb(255,76,25)" stroke-width="2" transform="matrix(1,0,0,-1,27.0,135.0)"/>
 <path d="M-18,906 c-13,3,-30,4,-48,4 c-85,0,-154,-66,-154,-149 c0,-69,34,-108,58,-123 l0,-9 l85,0 l0,5 c-38,15,-85,52,-85,123 c0,58,45,98,99,98 c12,0,24,-2,34,-5 Z M-15,811 c0,-20,16,-34,36,-34 c20,0,36,14,36,34 c0,21,-16,35,-36,35 c-20,0,-36,-14,-36,-35 Z M21,683 c71,0,111,46,127,79 l-39,24 c-14,-26,-42,-56,-88,-56 c-46,0,-74,30,-88,56 l-39,-24 c16,-33,56,-79,127,-79 Z M21,683" fill="rgb(0,0,0)" transform="matrix(0.1,0.0,0.0,-0.1,27.0,135.0)"/>
</svg>