<?xml version="1.0" encoding="UTF-8"?>
<svg height="200.0" version="1.1" width="36.0" xmlns="http://www.w3.org/2000/svg" xmlns:xlink="http://www.w3.org/1999/xlink">
 <path d="M0,0 l36,0 l0,200 l-36,0 Z M0,0" fill="rgb(255,255,255)" transform="matrix(1,0,0,-1,0.0,200.0)"/>
 <path d="M0,0 l36,0" fill="none" stroke="rgb(229,229,229)" stroke-width="2" transform="matrix(1,0,0,-1,0.0,135.0)"/>
 <path d="M0,-4 l0,8" fill="none" stroke="rgb(255,76,25)" stroke-width="2" transform="matrix(1,0,0,-1,5.0,135.0)"/>
 <path d="M101,906 c0,-20,16,-34,36,-34 c20,0,36,14,36,34 c0,21,-16,35,-36,35 c-20,0,-36,-14,-36,-35 Z M137,778 c71,0,111,46,127,79 l-39,24 c-14,-26,-42,-56,-88,-56 c-46,0,-74,30,-88,56 l-39,-24 c16,-33,56,-79,127,-79 Z M137,778" fill="rgb(0,0,0)" transform="matrix(0.1,0.0,0.0,-0.1,5.0,135.0)"/>
</svg>