<?xml version="1.0" encoding="UTF-8"?>
<svg height="200.0" version="1.1" width="66.0" xmlns="http://www.w3.org/2000/svg" xmlns:xlink="http://www.w3.org/1999/xlink">
 <path d="M0,0 l66,0 l0,200 l-66,0 Z M0,0" fill="rgb(255,255,255)" transform="matrix(1,0,0,-1,0.0,200.0)"/>
 <path d="M0,0 l66,0" fill="none" stroke="rgb(229,229,229)" stroke-width="2" transform="matrix(1,0,0,-1,0.0,135.0)"/>
 <path d="M0,1 l0,-5" fill="none" stroke="rgb(204,204,204)" stroke-width="2" transform="matrix(1,0,0,-1,7.0,135.0)"/>
 <path d="M0,1 l0,-5" fill="none" stroke="rgb(204,204,204)" stroke-width="2" transform="matrix(1,0,0,-1,60.0,135.0)"/>
 <path d="M268,32 c82,-3,177,40,177,147 c0,72,-48,113,-69,125 l-171,-34 c-37,10,-70,46,-70,86 c0,36,16,60,75,60 l188,0 l0,166 l148,0 l0,52 l-157,0 c-38,15,-85,52,-85,123 c0,58,45,98,99,98 c30,0,54,-11,68,-21 l26,51 c-10,7,-38,25,-97,25 c-85,0,-154,-66,-154,-149 c0,-69,34,-108,58,-123 l0,-4 l-324,0 l0,-52 l361,0 l0,-113 l-158,0 c-67,0,-109,-42,-109,-102 c0,-77,59,-135,119,-154 l161,32 c13,-9,31,-30,31,-67 c0,-69,-68,-101,-140,-101 l-39,0 l-123,87 c-9,-6,-22,-21,-22,-43 c0,-45,45,-91,144,-94 l152,-138 l65,34 l-154,105 Z M377,742 c0,-25,19,-43,44,-43 c26,0,45,18,45,43 c0,26,-19,46,-45,46 c-25,0,-44,-20,-44,-46 Z M377,742" fill="rgb(0,0,0)" transform="matrix(0.1,0.0,0.0,-0.1,7.0,135.0)"/>
</svg>