<?xml version="1.0" encoding="UTF-8"?>
<svg height="200.0" version="1.1" width="74.0" xmlns="http://www.w3.org/2000/svg" xmlns:xlink="http://www.w3.org/1999/xlink">
 <path d="M0,0 l74,0 l0,200 l-74,0 Z M0,0" fill="rgb(255,255,255)" transform="matrix(1,0,0,-1,0.0,200.0)"/>
 <path d="M0,0 l74,0" fill="none" stroke="rgb(229,229,229)" stroke-width="2" transform="matrix(1,0,0,-1,0.0,135.0)"/>
 <path d="M0,1 l0,-5" fill="none" stroke="rgb(204,204,204)" stroke-width="2" transform="matrix(1,0,0,-1,7.0,135.0)"/>
 <path d="M0,1 l0,-5" fill="none" stroke="rgb(204,204,204)" stroke-width="2" transform="matrix(1,0,0,-1,60.0,135.0)"/>
 <path d="M268,32 c82,-3,177,40,177,147 c0,72,-48,113,-69,125 l-171,-34 c-37,10,-70,46,-70,86 c0,36,16,60,75,60 l188,0 l0,166 l148,0 l0,52 l-157,0 c-38,15,-85,52,-85,123 c0,58,45,98,99,98 c12,0,24,-2,34,-5 l11,56 c-13,3,-30,4,-48,4 c-85,0,-154,-66,-154,-149 c0,-69,34,-108,58,-123 l0,-4 l-324,0 l0,-52 l361,0 l0,-113 l-158,0 c-67,0,-109,-42,-109,-102 c0,-77,59,-135,119,-154 l161,32 c13,-9,31,-30,31,-67 c0,-69,-68,-101,-140,-101 l-39,0 l-123,87 c-9,-6,-22,-21,-22,-43 c0,-45,45,-91,144,-94 l152,-138 l65,34 l-154,105 Z M487,683 c71,0,111,46,127,79 l-39,24 c-14,-26,-42,-56,-88,-56 c-46,0,-74,30,-88,56 l-39,-24 c16,-33,56,-79,127,-79 Z M451,811 c0,-20,16,-34,36,-34 c20,0,36,14,36,34 c0,21,-16,35,-36,35 c-20,0,-36,-14,-36,-35 Z M451,811" fill="rgb(0,0,0)" transform="matrix(0.1,0.0,0.0,-0.1,7.0,135.0)"/>
</svg>