<?xml version="1.0" encoding="UTF-8"?>
<svg height="200.0" version="1.1" width="66.0" xmlns="http://www.w3.org/2000/svg" xmlns:xlink="http://www.w3.org/1999/xlink">
 <path d="M0,0 l66,0 l0,200 l-66,0 Z M0,0" fill="rgb(255,255,255)" transform="matrix(1,0,0,-1,0.0,200.0)"/>
 <path d="M0,0 l66,0" fill="none" stroke="rgb(229,229,229)" stroke-width="2" transform="matrix(1,0,0,-1,0.0,135.0)"/>
 <path d="M0,1 l0,-5" fill="none" stroke="rgb(204,204,204)" stroke-width="2" transform="matrix(1,0,0,-1,26.0,135.0)"/>
 <path d="M0,1 l0,-5" fill="none" stroke="rgb(204,204,204)" stroke-width="2" transform="matrix(1,0,0,-1,53.0,135.0)"/>
 <path d="M115,790 c-15,42,-77,124,-182,124 c-88,0,-146,-59,-146,-130 c0,-36,13,-67,29,-85 l62,13 c-20,20,-29,46,-29,70 c0,46,32,77,84,77 c101,0,166,-104,172,-225 l-125,0 l0,-52 l125,0 l0,-582 l58,0 l0,582 l125,0 l0,52 l-124,0 c-6,26,-10,57,-10,79 c0,74,34,116,93,116 c26,0,53,-11,70,-23 l24,50 c-14,10,-43,27,-93,27 c-88,0,-124,-61,-129,-93 Z M115,790" fill="rgb(0,0,0)" transform="matrix(0.1,0.0,0.0,-0.1,26.0,135.0)"/>
</svg>