<?xml version="1.0" encoding="UTF-8"?>
<svg height="200.0" version="1.1" width="66.0" xmlns="http://www.w3.org/2000/svg" xmlns:xlink="http://www.w3.org/1999/xlink">
 <path d="M0,0 l66,0 l0,200 l-66,0 Z M0,0" fill="rgb(255,255,255)" transform="matrix(1,0,0,-1,0.0,200.0)"/>
 <path d="M0,0 l66,0" fill="none" stroke="rgb(229,229,229)" stroke-width="2" transform="matrix(1,0,0,-1,0.0,135.0)"/>
 <path d="M0,1 l0,-5" fill="none" stroke="rgb(204,204,204)" stroke-width="2" transform="matrix(1,0,0,-1,26.0,135.0)"/>
 <path d="M0,1 l0,-5" fill="none" stroke="rgb(204,204,204)" stroke-width="2" transform="matrix(1,0,0,-1,53.0,135.0)"/>
 <path d="M112,798 c-13,36,-75,116,-179,116 c-88,0,-146,-59,-146,-130 c0,-36,13,-67,29,-85 l62,13 c-20,20,-29,46,-29,70 c0,46,32,77,84,77 c101,0,167,-104,172,-225 l-125,0 l0,-52 l125,0 l0,-582 l58,0 l0,582 l125,0 l0,52 l-123,0 c-7,28,-11,65,-11,95 c0,78,42,121,101,121 c35,0,59,-11,75,-22 l24,50 c-14,10,-46,26,-98,26 c-98,0,-135,-72,-140,-106 Z M223,736 c0,-23,19,-42,43,-42 c25,0,44,19,44,42 c0,26,-19,45,-44,45 c-24,0,-43,-19,-43,-45 Z M223,736" fill="rgb(0,0,0)" transform="matrix(0.1,0.0,0.0,-0.1,26.0,135.0)"/>
</svg>