<?xml version="1.0" encoding="UTF-8"?>
<svg height="200.0" version="1.1" width="72.0" xmlns="http://www.w3.org/2000/svg" xmlns:xlink="http://www.w3.org/1999/xlink">
 <path d="M0,0 l72,0 l0,200 l-72,0 Z M0,0" fill="rgb(255,255,255)" transform="matrix(1,0,0,-1,0.0,200.0)"/>
 <path d="M0,0 l72,0" fill="none" stroke="rgb(229,229,229)" stroke-width="2" transform="matrix(1,0,0,-1,0.0,135.0)"/>
 <path d="M0,1 l0,-5" fill="none" stroke="rgb(204,204,204)" stroke-width="2" transform="matrix(1,0,0,-1,26.0,135.0)"/>
 <path d="M0,1 l0,-5" fill="none" stroke="rgb(204,204,204)" stroke-width="2" transform="matrix(1,0,0,-1,53.0,135.0)"/>
 <path d="M299,936 c-12,3,-28,4,-37,4 c-85,0,-135,-59,-146,-142 l-4,0 c-13,36,-75,116,-179,116 c-88,0,-146,-59,-146,-130 c0,-36,13,-67,29,-85 l62,13 c-20,20,-29,46,-29,70 c0,46,32,77,84,77 c101,0,167,-104,172,-225 l-125,0 l0,-52 l125,0 l0,-582 l58,0 l0,582 l125,0 l0,52 l-123,0 c-7,28,-11,85,-11,115 c0,80,44,138,108,138 c10,0,19,-1,29,-3 Z M252,823 c0,-20,15,-35,35,-35 c20,0,36,14,36,34 c0,21,-16,35,-36,35 c-20,0,-35,-13,-35,-34 Z M287,703 c67,0,99,48,111,79 l-42,20 c-11,-26,-29,-53,-69,-53 c-40,0,-58,27,-69,53 l-42,-20 c12,-31,44,-79,111,-79 Z M287,703" fill="rgb(0,0,0)" transform="matrix(0.1,0.0,0.0,-0.1,26.0,135.0)"/>
</svg>