<?xml version="1.0" encoding="UTF-8"?>
<svg height="200.0" version="1.1" width="90.0" xmlns="http://www.w3.org/2000/svg" xmlns:xlink="http://www.w3.org/1999/xlink">
 <path d="M0,0 l90,0 l0,200 l-90,0 Z M0,0" fill="rgb(255,255,255)" transform="matrix(1,0,0,-1,0.0,200.0)"/>
 <path d="M0,0 l90,0" fill="none" stroke="rgb(229,229,229)" stroke-width="2" transform="matrix(1,0,0,-1,0.0,135.0)"/>
 <path d="M0,1 l0,-5" fill="none" stroke="rgb(204,204,204)" stroke-width="2" transform="matrix(1,0,0,-1,49.0,135.0)"/>
 <path d="M0,1 l0,-5" fill="none" stroke="rgb(204,204,204)" stroke-width="2" transform="matrix(1,0,0,-1,76.0,135.0)"/>
 <path d="M215,928 c-9,1,-14,2,-22,2 c-83,0,-135,-60,-135,-143 c0,-7,0,-13,1,-20 l-4,0 c-63,74,-186,146,-314,146 c-112,0,-177,-64,-177,-139 c0,-53,27,-84,45,-98 l58,20 c-18,13,-41,40,-41,77 c0,47,36,85,119,85 c142,0,278,-103,350,-224 l-115,0 l0,-52 l125,0 l0,-582 l58,0 l0,582 l125,0 l0,52 l-129,0 c-38,47,-54,96,-54,138 c0,60,33,104,90,104 c4,0,12,-1,16,-1 Z M249,701 c67,0,99,48,111,79 l-42,20 c-11,-26,-29,-53,-69,-53 c-40,0,-58,27,-69,53 l-42,-20 c12,-31,44,-79,111,-79 Z M249,786 c20,0,36,14,36,34 c0,21,-16,35,-36,35 c-20,0,-35,-13,-35,-34 c0,-20,15,-35,35,-35 Z M249,786" fill="rgb(0,0,0)" transform="matrix(0.1,0.0,0.0,-0.1,49.0,135.0)"/>
</svg>