<?xml version="1.0" encoding="UTF-8"?>
<svg height="200.0" version="1.1" width="50.0" xmlns="http://www.w3.org/2000/svg" xmlns:xlink="http://www.w3.org/1999/xlink">
 <path d="M0,0 l50,0 l0,200 l-50,0 Z M0,0" fill="rgb(255,255,255)" transform="matrix(1,0,0,-1,0.0,200.0)"/>
 <path d="M0,0 l50,0" fill="none" stroke="rgb(229,229,229)" stroke-width="2" transform="matrix(1,0,0,-1,0.0,135.0)"/>
 <path d="M0,-4 l0,8" fill="none" stroke="rgb(255,76,25)" stroke-width="2" transform="matrix(1,0,0,-1,44.0,135.0)"/>
 <path d="M-111,631 l-214,267 l-67,-17 l81,-94 c34,-39,112,-123,157,-164 l5,-4 Z M-114,802 c0,-26,21,-46,48,-46 c28,0,48,20,48,46 c0,29,-20,50,-48,50 c-27,0,-48,-21,-48,-50 Z M-114,802" fill="rgb(0,0,0)" transform="matrix(0.1,0.0,0.0,-0.1,44.0,135.0)"/>
</svg>