<?xml version="1.0" encoding="UTF-8"?>
<svg height="200.0" version="1.1" width="50.0" xmlns="http://www.w3.org/2000/svg" xmlns:xlink="http://www.w3.org/1999/xlink">
 <path d="M0,0 l50,0 l0,200 l-50,0 Z M0,0" fill="rgb(255,255,255)" transform="matrix(1,0,0,-1,0.0,200.0)"/>
 <path d="M0,0 l50,0" fill="none" stroke="rgb(229,229,229)" stroke-width="2" transform="matrix(1,0,0,-1,0.0,135.0)"/>
 <path d="M0,-4 l0,8" fill="none" stroke="rgb(255,76,25)" stroke-width="2" transform="matrix(1,0,0,-1,41.0,135.0)"/>
 <path d="M-137,734 c0,68,44,108,107,108 c23,0,44,-4,65,-12 l0,57 c-14,5,-36,10,-64,10 c-109,0,-168,-87,-152,-175 l-4,0 l-110,162 l-67,-16 l61,-78 c31,-41,102,-126,147,-167 l5,-4 l44,13 l0,4 c-18,25,-32,62,-32,98 Z M-137,734" fill="rgb(0,0,0)" transform="matrix(0.1,0.0,0.0,-0.1,41.0,135.0)"/>
</svg>