<?xml version="1.0" encoding="UTF-8"?>
<svg height="200.0" version="1.1" width="62.0" xmlns="http://www.w3.org/2000/svg" xmlns:xlink="http://www.w3.org/1999/xlink">
 <path d="M0,0 l62,0 l0,200 l-62,0 Z M0,0" fill="rgb(255,255,255)" transform="matrix(1,0,0,-1,0.0,200.0)"/>
 <path d="M0,0 l62,0" fill="none" stroke="rgb(229,229,229)" stroke-width="2" transform="matrix(1,0,0,-1,0.0,135.0)"/>
 <path d="M0,-4 l0,8" fill="none" stroke="rgb(255,76,25)" stroke-width="2" transform="matrix(1,0,0,-1,53.0,135.0)"/>
 <path d="M-27,842 c18,0,37,-4,52,-10 l13,54 c-11,5,-31,11,-64,11 c-84,0,-143,-58,-148,-127 l-4,0 l-62,119 l-73,-10 l152,-214 l-3,-2 l-257,215 l-57,-36 l64,-51 c69,-55,209,-152,275,-186 l39,27 c-19,25,-34,64,-34,101 c0,67,47,109,107,109 Z M-27,842" fill="rgb(0,0,0)" transform="matrix(0.1,0.0,0.0,-0.1,53.0,135.0)"/>
</svg>