<?xml version="1.0" encoding="UTF-8"?>
<svg height="200.0" version="1.1" width="48.0" xmlns="http://www.w3.org/2000/svg" xmlns:xlink="http://www.w3.org/1999/xlink">
 <path d="M0,0 l48,0 l0,200 l-48,0 Z M0,0" fill="rgb(255,255,255)" transform="matrix(1,0,0,-1,0.0,200.0)"/>
 <path d="M0,0 l48,0" fill="none" stroke="rgb(229,229,229)" stroke-width="2" transform="matrix(1,0,0,-1,0.0,135.0)"/>
 <path d="M0,-4 l0,8" fill="none" stroke="rgb(255,76,25)" stroke-width="2" transform="matrix(1,0,0,-1,42.0,135.0)"/>
 <path d="M-81,782 c0,-26,21,-46,48,-46 c28,0,48,20,48,46 c0,29,-20,50,-48,50 c-27,0,-48,-21,-48,-50 Z M-374,777 c97,-74,159,-129,227,-174 l46,24 l-77,250 l-65,-8 l110,-237 l-7,-3 l-171,177 Z M-374,777" fill="rgb(0,0,0)" transform="matrix(0.1,0.0,0.0,-0.1,42.0,135.0)"/>
</svg>