<?xml version="1.0" encoding="UTF-8"?>
<svg height="200.0" version="1.1" width="60.0" xmlns="http://www.w3.org/2000/svg" xmlns:xlink="http://www.w3.org/1999/xlink">
 <path d="M0,0 l60,0 l0,200 l-60,0 Z M0,0" fill="rgb(255,255,255)" transform="matrix(1,0,0,-1,0.0,200.0)"/>
 <path d="M0,0 l60,0" fill="none" stroke="rgb(229,229,229)" stroke-width="2" transform="matrix(1,0,0,-1,0.0,135.0)"/>
 <path d="M0,1 l0,-5" fill="none" stroke="rgb(204,204,204)" stroke-width="2" transform="matrix(1,0,0,-1,25.0,135.0)"/>
 <path d="M0,1 l0,-5" fill="none" stroke="rgb(204,204,204)" stroke-width="2" transform="matrix(1,0,0,-1,52.0,135.0)"/>
 <path d="M288,582 l0,52 l-115,0 l-96,265 l-66,-17 l129,-247 l-3,-1 l-277,264 l-58,-35 c127,-107,213,-174,286,-229 l-108,0 l0,-52 l125,0 l0,-582 l58,0 l0,582 Z M197,802 c0,-26,21,-46,48,-46 c28,0,48,20,48,46 c0,29,-20,50,-48,50 c-27,0,-48,-21,-48,-50 Z M197,802" fill="rgb(0,0,0)" transform="matrix(0.1,0.0,0.0,-0.1,25.0,135.0)"/>
</svg>