<?xml version="1.0" encoding="UTF-8"?>
<svg height="200.0" version="1.1" width="62.0" xmlns="http://www.w3.org/2000/svg" xmlns:xlink="http://www.w3.org/1999/xlink">
 <path d="M0,0 l62,0 l0,200 l-62,0 Z M0,0" fill="rgb(255,255,255)" transform="matrix(1,0,0,-1,0.0,200.0)"/>
 <path d="M0,0 l62,0" fill="none" stroke="rgb(229,229,229)" stroke-width="2" transform="matrix(1,0,0,-1,0.0,135.0)"/>
 <path d="M0,1 l0,-5" fill="none" stroke="rgb(204,204,204)" stroke-width="2" transform="matrix(1,0,0,-1,25.0,135.0)"/>
 <path d="M0,1 l0,-5" fill="none" stroke="rgb(204,204,204)" stroke-width="2" transform="matrix(1,0,0,-1,52.0,135.0)"/>
 <path d="M288,582 l0,52 l-115,0 c-18,23,-33,62,-33,99 c0,67,47,109,107,109 c18,0,37,-4,52,-10 l13,54 c-11,5,-31,11,-64,11 c-84,0,-143,-58,-148,-127 l-4,0 l-62,119 l-73,-10 l152,-214 l-3,-2 l-257,215 l-57,-36 l64,-51 c54,-43,153,-113,225,-157 l-105,0 l0,-52 l125,0 l0,-582 l58,0 l0,582 Z M206,731 c0,-23,19,-42,43,-42 c25,0,44,19,44,42 c0,26,-19,45,-44,45 c-24,0,-43,-19,-43,-45 Z M206,731" fill="rgb(0,0,0)" transform="matrix(0.1,0.0,0.0,-0.1,25.0,135.0)"/>
</svg>