<?xml version="1.0" encoding="UTF-8"?>
<svg height="200.0" version="1.1" width="70.0" xmlns="http://www.w3.org/2000/svg" xmlns:xlink="http://www.w3.org/1999/xlink">
 <path d="M0,0 l70,0 l0,200 l-70,0 Z M0,0" fill="rgb(255,255,255)" transform="matrix(1,0,0,-1,0.0,200.0)"/>
 <path d="M0,0 l70,0" fill="none" stroke="rgb(229,229,229)" stroke-width="2" transform="matrix(1,0,0,-1,0.0,135.0)"/>
 <path d="M0,1 l0,-5" fill="none" stroke="rgb(204,204,204)" stroke-width="2" transform="matrix(1,0,0,-1,26.0,135.0)"/>
 <path d="M0,1 l0,-5" fill="none" stroke="rgb(204,204,204)" stroke-width="2" transform="matrix(1,0,0,-1,53.0,135.0)"/>
 <path d="M288,582 l0,52 l-125,0 c-21,30,-34,74,-34,116 c0,63,29,121,100,122 l0,55 l-5,0 c-85,-3,-132,-70,-134,-157 l-4,0 l-62,119 l-73,-10 l152,-214 l-3,-2 l-257,215 l-57,-36 l64,-51 c54,-43,153,-113,225,-157 l-95,0 l0,-52 l125,0 l0,-582 l58,0 l0,582 Z M268,697 c67,0,99,48,111,79 l-42,20 c-11,-26,-29,-53,-69,-53 c-40,0,-58,27,-69,53 l-42,-20 c12,-31,44,-79,111,-79 Z M268,782 c20,0,36,14,36,34 c0,21,-16,35,-36,35 c-20,0,-35,-13,-35,-34 c0,-20,15,-35,35,-35 Z M268,782" fill="rgb(0,0,0)" transform="matrix(0.1,0.0,0.0,-0.1,26.0,135.0)"/>
</svg>