<?xml version="1.0" encoding="UTF-8"?>
<svg height="200.0" version="1.1" width="90.0" xmlns="http://www.w3.org/2000/svg" xmlns:xlink="http://www.w3.org/1999/xlink">
 <path d="M0,0 l90,0 l0,200 l-90,0 Z M0,0" fill="rgb(255,255,255)" transform="matrix(1,0,0,-1,0.0,200.0)"/>
 <path d="M0,0 l90,0" fill="none" stroke="rgb(229,229,229)" stroke-width="2" transform="matrix(1,0,0,-1,0.0,135.0)"/>
 <path d="M0,1 l0,-5" fill="none" stroke="rgb(204,204,204)" stroke-width="2" transform="matrix(1,0,0,-1,7.0,135.0)"/>
 <path d="M0,1 l0,-5" fill="none" stroke="rgb(204,204,204)" stroke-width="2" transform="matrix(1,0,0,-1,83.0,135.0)"/>
 <path d="M762,-138 c0,85,-64,140,-147,140 c-20,0,-39,-3,-55,-8 c-107,25,-148,77,-148,135 c0,62,56,109,142,109 c66,0,98,-35,98,-75 c0,-27,-14,-51,-39,-70 l53,-31 c25,21,47,55,47,100 c0,69,-52,132,-162,132 c-33,0,-63,-6,-88,-16 c-34,20,-60,55,-60,91 c0,28,16,50,65,50 l211,0 l0,163 l105,0 l0,52 l-804,0 l0,-52 l642,0 l0,-109 l-166,0 c-70,0,-109,-37,-114,-90 l-266,0 l-45,-38 c1,-42,22,-92,54,-115 l41,12 l0,87 l224,0 c13,-34,38,-62,63,-79 c-40,-31,-62,-74,-62,-119 c0,-124,120,-178,216,-194 c13,6,29,10,48,10 c50,0,85,-37,85,-85 c0,-68,-56,-102,-122,-102 c-117,0,-200,80,-250,158 l-46,-38 c49,-66,143,-175,295,-175 c133,0,185,84,185,157 Z M762,-138" fill="rgb(0,0,0)" transform="matrix(0.1,0.0,0.0,-0.1,7.0,135.0)"/>
</svg>