<?xml version="1.0" encoding="UTF-8"?>
<svg height="200.0" version="1.1" width="94.0" xmlns="http://www.w3.org/2000/svg" xmlns:xlink="http://www.w3.org/1999/xlink">
 <path d="M0,0 l94,0 l0,200 l-94,0 Z M0,0" fill="rgb(255,255,255)" transform="matrix(1,0,0,-1,0.0,200.0)"/>
 <path d="M0,0 l94,0" fill="none" stroke="rgb(229,229,229)" stroke-width="2" transform="matrix(1,0,0,-1,0.0,135.0)"/>
 <path d="M0,1 l0,-5" fill="none" stroke="rgb(204,204,204)" stroke-width="2" transform="matrix(1,0,0,-1,7.0,135.0)"/>
 <path d="M0,1 l0,-5" fill="none" stroke="rgb(204,204,204)" stroke-width="2" transform="matrix(1,0,0,-1,83.0,135.0)"/>
 <path d="M820,-254 c-25,116,-115,264,-267,264 c-13,0,-25,-1,-37,-3 c-74,28,-104,72,-104,122 c0,62,56,109,142,109 c66,0,98,-35,98,-75 c0,-27,-14,-51,-39,-70 l53,-31 c25,21,47,55,47,100 c0,69,-52,132,-162,132 c-33,0,-62,-6,-88,-16 c-34,20,-60,56,-60,91 c0,28,16,50,65,50 l211,0 l0,163 l105,0 l0,52 l-804,0 l0,-52 l642,0 l0,-109 l-166,0 c-70,0,-109,-37,-114,-90 l-266,0 l-45,-38 c1,-42,22,-92,54,-115 l41,12 l0,87 l224,0 c13,-34,38,-62,63,-78 c-39,-31,-62,-75,-62,-120 c0,-66,34,-118,98,-153 c-34,-26,-55,-64,-55,-109 c0,-74,55,-136,140,-136 c12,0,34,1,51,8 l0,56 c-16,-6,-28,-9,-49,-9 c-51,0,-80,38,-80,81 c0,50,40,86,96,86 c100,0,183,-95,211,-225 Z M820,-254" fill="rgb(0,0,0)" transform="matrix(0.1,0.0,0.0,-0.1,7.0,135.0)"/>
</svg>