<?xml version="1.0" encoding="UTF-8"?>
<svg height="200.0" version="1.1" width="100.0" xmlns="http://www.w3.org/2000/svg" xmlns:xlink="http://www.w3.org/1999/xlink">
 <path d="M0,0 l100,0 l0,200 l-100,0 Z M0,0" fill="rgb(255,255,255)" transform="matrix(1,0,0,-1,0.0,200.0)"/>
 <path d="M0,0 l100,0" fill="none" stroke="rgb(229,229,229)" stroke-width="2" transform="matrix(1,0,0,-1,0.0,135.0)"/>
 <path d="M0,1 l0,-5" fill="none" stroke="rgb(204,204,204)" stroke-width="2" transform="matrix(1,0,0,-1,7.0,135.0)"/>
 <path d="M0,1 l0,-5" fill="none" stroke="rgb(204,204,204)" stroke-width="2" transform="matrix(1,0,0,-1,90.0,135.0)"/>
 <path d="M685,582 l0,-109 l-166,0 c-74,0,-114,-42,-114,-99 c0,-15,3,-30,7,-43 l-235,0 l0,251 Z M883,-254 c-25,116,-115,264,-267,264 c-13,0,-25,-1,-37,-3 c-74,28,-104,72,-104,122 c0,62,56,109,142,109 c66,0,98,-35,98,-75 c0,-27,-14,-51,-39,-70 l53,-31 c25,21,47,55,47,100 c0,69,-52,132,-162,132 c-33,0,-62,-6,-88,-16 c-34,20,-60,56,-60,91 c0,28,16,50,65,50 l211,0 l0,163 l105,0 l0,52 l-867,0 l0,-52 l139,0 l0,-252 l-47,-34 c1,-42,23,-95,54,-122 l51,0 l0,103 l269,0 c9,-11,20,-19,30,-26 c-39,-31,-62,-75,-62,-120 c0,-66,34,-118,98,-153 c-34,-26,-55,-64,-55,-109 c0,-74,55,-136,140,-136 c12,0,34,1,51,8 l0,56 c-16,-6,-28,-9,-49,-9 c-51,0,-80,38,-80,81 c0,50,40,86,96,86 c100,0,183,-95,211,-225 Z M883,-254" fill="rgb(0,0,0)" transform="matrix(0.1,0.0,0.0,-0.1,7.0,135.0)"/>
</svg>