<?xml version="1.0" encoding="UTF-8"?>
<svg height="200.0" version="1.1" width="110.0" xmlns="http://www.w3.org/2000/svg" xmlns:xlink="http://www.w3.org/1999/xlink">
 <path d="M0,0 l110,0 l0,200 l-110,0 Z M0,0" fill="rgb(255,255,255)" transform="matrix(1,0,0,-1,0.0,200.0)"/>
 <path d="M0,0 l110,0" fill="none" stroke="rgb(229,229,229)" stroke-width="2" transform="matrix(1,0,0,-1,0.0,135.0)"/>
 <path d="M0,1 l0,-5" fill="none" stroke="rgb(204,204,204)" stroke-width="2" transform="matrix(1,0,0,-1,7.0,135.0)"/>
 <path d="M0,1 l0,-5" fill="none" stroke="rgb(204,204,204)" stroke-width="2" transform="matrix(1,0,0,-1,102.0,135.0)"/>
 <path d="M948,-138 c0,85,-64,140,-147,140 c-20,0,-39,-3,-55,-8 c-107,25,-148,77,-148,135 c0,62,56,109,142,109 c66,0,98,-35,98,-75 c0,-27,-14,-51,-39,-70 l53,-31 c25,21,47,55,47,100 c0,69,-52,132,-162,132 c-33,0,-63,-6,-88,-16 c-34,20,-60,55,-60,91 c0,28,16,50,65,50 l211,0 l0,163 l105,0 l0,52 l-990,0 l0,-52 l828,0 l0,-109 l-166,0 c-47,0,-81,-17,-99,-45 c-23,13,-51,21,-85,21 c-57,0,-103,-33,-118,-85 l-4,0 c-14,48,-56,81,-122,81 c-80,0,-154,-63,-154,-175 c0,-127,82,-225,171,-273 l42,43 c-95,51,-152,130,-152,229 c0,83,44,121,97,121 c55,0,90,-35,90,-104 l0,-94 l58,0 l0,95 c0,69,38,107,96,107 c27,0,49,-9,66,-19 c0,0,0,0,0,-1 c0,-55,36,-100,71,-124 c-40,-31,-62,-74,-62,-119 c0,-124,120,-178,216,-194 c13,6,29,10,48,10 c50,0,85,-37,85,-85 c0,-68,-56,-102,-122,-102 c-117,0,-200,80,-250,158 l-46,-38 c49,-66,143,-175,295,-175 c133,0,185,84,185,157 Z M948,-138" fill="rgb(0,0,0)" transform="matrix(0.1,0.0,0.0,-0.1,7.0,135.0)"/>
</svg>