<?xml version="1.0" encoding="UTF-8"?>
<svg height="200.0" version="1.1" width="96.0" xmlns="http://www.w3.org/2000/svg" xmlns:xlink="http://www.w3.org/1999/xlink">
 <path d="M0,0 l96,0 l0,200 l-96,0 Z M0,0" fill="rgb(255,255,255)" transform="matrix(1,0,0,-1,0.0,200.0)"/>
 <path d="M0,0 l96,0" fill="none" stroke="rgb(229,229,229)" stroke-width="2" transform="matrix(1,0,0,-1,0.0,135.0)"/>
 <path d="M0,1 l0,-5" fill="none" stroke="rgb(204,204,204)" stroke-width="2" transform="matrix(1,0,0,-1,7.0,135.0)"/>
 <path d="M0,1 l0,-5" fill="none" stroke="rgb(204,204,204)" stroke-width="2" transform="matrix(1,0,0,-1,88.0,135.0)"/>
 <path d="M441,231 c-43,-48,-91,-81,-177,-81 c-82,0,-140,54,-140,127 c0,78,50,133,134,133 c15,0,30,-2,45,-6 l-6,57 c-13,2,-26,4,-39,4 c-101,0,-196,-66,-196,-190 c0,-111,94,-180,195,-180 c58,0,104,13,143,33 c0,-121,120,-175,216,-191 c13,6,29,10,48,10 c50,0,85,-37,85,-85 c0,-68,-56,-102,-122,-102 c-117,0,-200,80,-250,158 l-46,-38 c49,-66,143,-175,295,-175 c133,0,185,84,185,157 c0,85,-64,140,-147,140 c-20,0,-39,-3,-55,-8 c-107,25,-148,77,-148,135 c0,62,56,109,142,109 c66,0,98,-35,98,-75 c0,-27,-14,-51,-39,-70 l53,-31 c25,21,47,55,47,100 c0,69,-52,132,-162,132 c-33,0,-63,-6,-88,-16 c-34,20,-60,55,-60,91 c0,28,16,50,65,50 l211,0 l0,163 l105,0 l0,52 l-853,0 l0,-52 l691,0 l0,-109 l-166,0 c-74,0,-114,-42,-114,-99 c0,-55,36,-100,71,-124 c-8,-6,-15,-12,-21,-19 Z M441,231" fill="rgb(0,0,0)" transform="matrix(0.1,0.0,0.0,-0.1,7.0,135.0)"/>
</svg>