<?xml version="1.0" encoding="UTF-8"?>
<svg height="200.0" version="1.1" width="98.0" xmlns="http://www.w3.org/2000/svg" xmlns:xlink="http://www.w3.org/1999/xlink">
 <path d="M0,0 l98,0 l0,200 l-98,0 Z M0,0" fill="rgb(255,255,255)" transform="matrix(1,0,0,-1,0.0,200.0)"/>
 <path d="M0,0 l98,0" fill="none" stroke="rgb(229,229,229)" stroke-width="2" transform="matrix(1,0,0,-1,0.0,135.0)"/>
 <path d="M0,1 l0,-5" fill="none" stroke="rgb(204,204,204)" stroke-width="2" transform="matrix(1,0,0,-1,7.0,135.0)"/>
 <path d="M0,1 l0,-5" fill="none" stroke="rgb(204,204,204)" stroke-width="2" transform="matrix(1,0,0,-1,88.0,135.0)"/>
 <path d="M868,-254 c-25,116,-115,264,-267,264 c-13,0,-25,-1,-37,-3 c-74,28,-104,72,-104,122 c0,62,56,109,142,109 c66,0,98,-35,98,-75 c0,-27,-14,-51,-39,-70 l53,-31 c25,21,47,55,47,100 c0,69,-52,132,-162,132 c-33,0,-62,-6,-88,-16 c-34,20,-60,56,-60,91 c0,28,16,50,65,50 l211,0 l0,163 l105,0 l0,52 l-852,0 l0,-52 l690,0 l0,-109 l-166,0 c-74,0,-114,-42,-114,-99 c0,-55,36,-100,71,-123 c-12,-10,-23,-21,-31,-32 c-41,-42,-88,-69,-166,-69 c-82,0,-140,54,-140,127 c0,78,50,133,134,133 c15,0,30,-2,45,-6 l-6,57 c-13,2,-26,4,-39,4 c-101,0,-196,-66,-196,-190 c0,-111,94,-180,195,-180 c58,0,104,12,142,32 c0,-62,34,-114,98,-149 c-34,-26,-55,-64,-55,-109 c0,-74,55,-136,140,-136 c12,0,34,1,51,8 l0,56 c-16,-6,-28,-9,-49,-9 c-51,0,-80,38,-80,81 c0,50,40,86,96,86 c100,0,183,-95,211,-225 Z M868,-254" fill="rgb(0,0,0)" transform="matrix(0.1,0.0,0.0,-0.1,7.0,135.0)"/>
</svg>