<?xml version="1.0" encoding="UTF-8"?>
<svg height="200.0" version="1.1" width="68.0" xmlns="http://www.w3.org/2000/svg" xmlns:xlink="http://www.w3.org/1999/xlink">
 <path d="M0,0 l68,0 l0,200 l-68,0 Z M0,0" fill="rgb(255,255,255)" transform="matrix(1,0,0,-1,0.0,200.0)"/>
 <path d="M0,0 l68,0" fill="none" stroke="rgb(229,229,229)" stroke-width="2" transform="matrix(1,0,0,-1,0.0,135.0)"/>
 <path d="M0,1 l0,-5" fill="none" stroke="rgb(204,204,204)" stroke-width="2" transform="matrix(1,0,0,-1,7.0,135.0)"/>
 <path d="M0,1 l0,-5" fill="none" stroke="rgb(204,204,204)" stroke-width="2" transform="matrix(1,0,0,-1,58.0,135.0)"/>
 <path d="M569,-230 l-28,51 c-22,-17,-77,-41,-132,-41 c-85,0,-118,39,-118,86 c0,66,76,86,171,101 l-47,161 c15,13,32,39,32,79 c0,38,-25,66,-43,74 l-46,-17 l0,-103 c-17,-15,-52,-26,-96,-26 c-90,0,-150,66,-150,142 c0,56,27,93,111,114 l162,40 l0,151 l148,0 l0,52 l-553,0 l0,-52 l347,0 l0,-110 l-129,-32 c-96,-24,-148,-77,-148,-159 c0,-94,78,-201,221,-201 c37,0,71,6,98,20 l17,-94 c-94,-19,-157,-64,-157,-144 c0,-77,62,-140,186,-140 c57,0,116,24,154,48 Z M569,-230" fill="rgb(0,0,0)" transform="matrix(0.1,0.0,0.0,-0.1,7.0,135.0)"/>
</svg>