<?xml version="1.0" encoding="UTF-8"?>
<svg height="200.0" version="1.1" width="78.0" xmlns="http://www.w3.org/2000/svg" xmlns:xlink="http://www.w3.org/1999/xlink">
 <path d="M0,0 l78,0 l0,200 l-78,0 Z M0,0" fill="rgb(255,255,255)" transform="matrix(1,0,0,-1,0.0,200.0)"/>
 <path d="M0,0 l78,0" fill="none" stroke="rgb(229,229,229)" stroke-width="2" transform="matrix(1,0,0,-1,0.0,135.0)"/>
 <path d="M0,1 l0,-5" fill="none" stroke="rgb(204,204,204)" stroke-width="2" transform="matrix(1,0,0,-1,5.0,135.0)"/>
 <path d="M0,1 l0,-5" fill="none" stroke="rgb(204,204,204)" stroke-width="2" transform="matrix(1,0,0,-1,71.0,135.0)"/>
 <path d="M650,-114 l-28,51 c-37,-25,-86,-42,-142,-42 c-59,0,-104,25,-104,81 c0,63,73,92,175,92 l4,0 l0,514 l125,0 l0,52 l-183,0 l0,-363 c-62,13,-150,41,-220,83 c65,39,105,90,105,156 c0,84,-62,136,-139,136 c-85,0,-144,-61,-144,-135 c0,-43,20,-95,73,-146 c-66,-24,-136,-35,-166,-41 l41,-51 c64,14,124,31,174,53 c62,-42,151,-82,276,-111 l0,-97 c-112,-13,-183,-62,-183,-143 c0,-71,53,-136,166,-136 c80,0,132,23,170,47 Z M159,511 c0,52,36,82,84,82 c46,0,79,-32,79,-83 c0,-54,-42,-93,-95,-121 c-41,34,-68,75,-68,122 Z M159,511" fill="rgb(0,0,0)" transform="matrix(0.1,0.0,0.0,-0.1,5.0,135.0)"/>
</svg>