<?xml version="1.0" encoding="UTF-8"?>
<svg height="200.0" version="1.1" width="66.0" xmlns="http://www.w3.org/2000/svg" xmlns:xlink="http://www.w3.org/1999/xlink">
 <path d="M0,0 l66,0 l0,200 l-66,0 Z M0,0" fill="rgb(255,255,255)" transform="matrix(1,0,0,-1,0.0,200.0)"/>
 <path d="M0,0 l66,0" fill="none" stroke="rgb(229,229,229)" stroke-width="2" transform="matrix(1,0,0,-1,0.0,135.0)"/>
 <path d="M0,1 l0,-5" fill="none" stroke="rgb(204,204,204)" stroke-width="2" transform="matrix(1,0,0,-1,7.0,135.0)"/>
 <path d="M0,1 l0,-5" fill="none" stroke="rgb(204,204,204)" stroke-width="2" transform="matrix(1,0,0,-1,57.0,135.0)"/>
 <path d="M419,-22 c-199,9,-271,74,-271,151 c0,62,61,128,177,128 c21,0,38,-3,38,-19 c0,-22,-65,-49,-65,-90 c0,-43,56,-80,121,-80 c46,0,86,15,111,32 l-23,55 c-14,-13,-46,-34,-91,-34 c-33,0,-56,7,-56,25 c0,25,64,48,64,91 c0,34,-26,70,-108,70 c-48,0,-89,-10,-122,-25 c-32,20,-55,54,-55,87 c0,28,16,50,65,50 l211,0 l0,163 l105,0 l0,52 l-540,0 l0,-52 l378,0 l0,-109 l-166,0 c-74,0,-114,-42,-114,-99 c0,-54,35,-98,69,-122 c-40,-34,-60,-78,-60,-121 c0,-119,111,-193,308,-206 Z M419,-22" fill="rgb(0,0,0)" transform="matrix(0.1,0.0,0.0,-0.1,7.0,135.0)"/>
</svg>