<?xml version="1.0" encoding="UTF-8"?>
<svg height="200.0" version="1.1" width="64.0" xmlns="http://www.w3.org/2000/svg" xmlns:xlink="http://www.w3.org/1999/xlink">
 <path d="M0,0 l64,0 l0,200 l-64,0 Z M0,0" fill="rgb(255,255,255)" transform="matrix(1,0,0,-1,0.0,200.0)"/>
 <path d="M0,0 l64,0" fill="none" stroke="rgb(229,229,229)" stroke-width="2" transform="matrix(1,0,0,-1,0.0,135.0)"/>
 <path d="M0,1 l0,-5" fill="none" stroke="rgb(204,204,204)" stroke-width="2" transform="matrix(1,0,0,-1,5.0,135.0)"/>
 <path d="M0,1 l0,-5" fill="none" stroke="rgb(204,204,204)" stroke-width="2" transform="matrix(1,0,0,-1,58.0,135.0)"/>
 <path d="M58,390 l0,-54 l135,0 l0,-4 c-31,-24,-65,-74,-65,-128 c0,-83,62,-129,159,-129 l108,0 c54,0,80,-21,80,-55 c0,-34,-24,-58,-47,-76 l43,-40 c27,21,64,56,64,114 c0,65,-57,112,-132,112 l-104,0 c-71,0,-109,27,-109,76 c0,73,65,117,96,131 l187,0 l0,53 l-179,0 c-61,16,-102,57,-102,113 c0,54,38,84,122,84 c45,0,76,-12,101,-24 l19,55 c-26,12,-65,25,-124,25 c-110,0,-179,-56,-179,-139 c0,-57,36,-95,68,-110 l0,-4 Z M58,390" fill="rgb(0,0,0)" transform="matrix(0.1,0.0,0.0,-0.1,5.0,135.0)"/>
</svg>