<?xml version="1.0" encoding="UTF-8"?>
<svg height="200.0" version="1.1" width="58.0" xmlns="http://www.w3.org/2000/svg" xmlns:xlink="http://www.w3.org/1999/xlink">
 <path d="M0,0 l58,0 l0,200 l-58,0 Z M0,0" fill="rgb(255,255,255)" transform="matrix(1,0,0,-1,0.0,200.0)"/>
 <path d="M0,0 l58,0" fill="none" stroke="rgb(229,229,229)" stroke-width="2" transform="matrix(1,0,0,-1,0.0,135.0)"/>
 <path d="M0,1 l0,-5" fill="none" stroke="rgb(204,204,204)" stroke-width="2" transform="matrix(1,0,0,-1,5.0,135.0)"/>
 <path d="M0,1 l0,-5" fill="none" stroke="rgb(204,204,204)" stroke-width="2" transform="matrix(1,0,0,-1,53.0,135.0)"/>
 <path d="M402,180 c0,76,-53,125,-114,169 c71,49,140,106,140,203 c0,31,-7,53,-19,72 l-58,-23 c9,-14,15,-32,15,-53 c0,-74,-61,-120,-126,-166 c-66,46,-127,92,-127,166 c0,21,6,39,15,53 l-58,23 c-12,-19,-19,-41,-19,-72 c0,-97,69,-154,140,-203 c-60,-44,-113,-93,-113,-169 c0,-89,62,-146,162,-146 c100,0,162,57,162,146 Z M240,87 c-63,0,-101,32,-101,93 c0,57,46,96,101,135 c55,-39,101,-78,101,-135 c0,-61,-38,-93,-101,-93 Z M240,87" fill="rgb(0,0,0)" transform="matrix(0.1,0.0,0.0,-0.1,5.0,135.0)"/>
</svg>