<?xml version="1.0" encoding="UTF-8"?>
<svg height="200.0" version="1.1" width="62.0" xmlns="http://www.w3.org/2000/svg" xmlns:xlink="http://www.w3.org/1999/xlink">
 <path d="M0,0 l62,0 l0,200 l-62,0 Z M0,0" fill="rgb(255,255,255)" transform="matrix(1,0,0,-1,0.0,200.0)"/>
 <path d="M0,0 l62,0" fill="none" stroke="rgb(229,229,229)" stroke-width="2" transform="matrix(1,0,0,-1,0.0,135.0)"/>
 <path d="M0,1 l0,-5" fill="none" stroke="rgb(204,204,204)" stroke-width="2" transform="matrix(1,0,0,-1,5.0,135.0)"/>
 <path d="M0,1 l0,-5" fill="none" stroke="rgb(204,204,204)" stroke-width="2" transform="matrix(1,0,0,-1,53.0,135.0)"/>
 <path d="M518,-41 l-101,152 c16,19,25,46,25,73 c0,26,-12,63,-37,78 l-41,-9 l0,-94 c-20,-17,-60,-30,-97,-30 c-89,0,-128,39,-128,97 c0,59,44,112,197,123 l-9,55 c-13,-1,-24,-2,-36,-2 c-106,0,-160,41,-160,100 c0,58,50,85,126,85 c35,0,71,-6,96,-16 l16,55 c-13,5,-54,17,-116,17 c-120,0,-186,-65,-186,-140 c0,-79,61,-118,126,-131 l0,-4 c-61,-17,-118,-64,-118,-140 c0,-92,73,-154,185,-154 c56,0,98,15,114,24 l68,-153 Z M518,-41" fill="rgb(0,0,0)" transform="matrix(0.1,0.0,0.0,-0.1,5.0,135.0)"/>
</svg>