<?xml version="1.0" encoding="UTF-8"?>
<svg height="200.0" version="1.1" width="74.0" xmlns="http://www.w3.org/2000/svg" xmlns:xlink="http://www.w3.org/1999/xlink">
 <path d="M0,0 l74,0 l0,200 l-74,0 Z M0,0" fill="rgb(255,255,255)" transform="matrix(1,0,0,-1,0.0,200.0)"/>
 <path d="M0,0 l74,0" fill="none" stroke="rgb(229,229,229)" stroke-width="2" transform="matrix(1,0,0,-1,0.0,135.0)"/>
 <path d="M0,1 l0,-5" fill="none" stroke="rgb(204,204,204)" stroke-width="2" transform="matrix(1,0,0,-1,7.0,135.0)"/>
 <path d="M0,1 l0,-5" fill="none" stroke="rgb(204,204,204)" stroke-width="2" transform="matrix(1,0,0,-1,61.0,135.0)"/>
 <path d="M628,293 l-343,0 c-30,0,-55,-4,-77,-10 c-43,19,-69,55,-69,86 c0,29,17,50,68,50 l213,0 l0,163 l138,0 l0,52 l-578,0 l0,-52 l382,0 l0,-109 l-171,0 c-69,0,-113,-43,-113,-100 c0,-50,34,-92,73,-116 c-50,-35,-64,-89,-64,-122 c0,-114,108,-191,293,-212 l25,53 c-190,16,-257,82,-257,159 c0,39,24,104,140,104 l340,0 Z M628,293" fill="rgb(0,0,0)" transform="matrix(0.1,0.0,0.0,-0.1,7.0,135.0)"/>
</svg>