<?xml version="1.0" encoding="UTF-8"?>
<svg height="200.0" version="1.1" width="94.0" xmlns="http://www.w3.org/2000/svg" xmlns:xlink="http://www.w3.org/1999/xlink">
 <path d="M0,0 l94,0 l0,200 l-94,0 Z M0,0" fill="rgb(255,255,255)" transform="matrix(1,0,0,-1,0.0,200.0)"/>
 <path d="M0,0 l94,0" fill="none" stroke="rgb(229,229,229)" stroke-width="2" transform="matrix(1,0,0,-1,0.0,135.0)"/>
 <path d="M0,1 l0,-5" fill="none" stroke="rgb(204,204,204)" stroke-width="2" transform="matrix(1,0,0,-1,7.0,135.0)"/>
 <path d="M0,1 l0,-5" fill="none" stroke="rgb(204,204,204)" stroke-width="2" transform="matrix(1,0,0,-1,87.0,135.0)"/>
 <path d="M148,355 l0,-4 c-14,-11,-55,-46,-55,-126 c0,-89,63,-165,126,-195 l40,42 c-38,19,-106,63,-106,160 c0,70,39,123,123,123 l102,0 l0,-355 l58,0 l0,253 c0,71,61,117,126,117 c69,0,123,-46,123,-126 c0,-80,-55,-134,-134,-141 l21,-52 c102,13,175,92,175,196 c0,104,-75,178,-176,178 c-81,0,-120,-40,-131,-53 l-4,0 l0,210 l380,0 l0,52 l-836,0 l0,-52 l398,0 l0,-173 l-349,0 l0,-54 Z M148,355" fill="rgb(0,0,0)" transform="matrix(0.1,0.0,0.0,-0.1,7.0,135.0)"/>
</svg>