<?xml version="1.0" encoding="UTF-8"?>
<svg height="200.0" version="1.1" width="70.0" xmlns="http://www.w3.org/2000/svg" xmlns:xlink="http://www.w3.org/1999/xlink">
 <path d="M0,0 l70,0 l0,200 l-70,0 Z M0,0" fill="rgb(255,255,255)" transform="matrix(1,0,0,-1,0.0,200.0)"/>
 <path d="M0,0 l70,0" fill="none" stroke="rgb(229,229,229)" stroke-width="2" transform="matrix(1,0,0,-1,0.0,135.0)"/>
 <path d="M0,1 l0,-5" fill="none" stroke="rgb(204,204,204)" stroke-width="2" transform="matrix(1,0,0,-1,7.0,135.0)"/>
 <path d="M0,1 l0,-5" fill="none" stroke="rgb(204,204,204)" stroke-width="2" transform="matrix(1,0,0,-1,61.0,135.0)"/>
 <path d="M556,634 l-576,0 l0,-52 l390,0 l0,-75 l-167,0 c-64,0,-94,-41,-94,-84 c0,-59,42,-110,104,-124 l186,31 c10,-10,17,-22,17,-44 c0,-39,-29,-89,-136,-89 c-96,0,-153,48,-192,105 l-42,-41 c29,-38,72,-75,129,-97 l0,-101 l-43,-34 c1,-32,11,-61,38,-86 l60,0 l0,206 c16,-3,33,-4,51,-4 c34,0,64,5,89,14 l0,-364 l55,0 l0,394 c32,27,48,63,48,97 c0,55,-27,84,-52,98 l-197,-32 c-39,11,-55,38,-55,64 c0,22,11,40,54,40 l202,0 l0,126 l131,0 Z M492,423 c0,-23,18,-41,42,-41 c24,0,42,18,42,41 c0,25,-18,43,-42,43 c-24,0,-42,-18,-42,-43 Z M492,423" fill="rgb(0,0,0)" transform="matrix(0.1,0.0,0.0,-0.1,7.0,135.0)"/>
</svg>