<?xml version="1.0" encoding="UTF-8"?>
<svg height="200.0" version="1.1" width="92.0" xmlns="http://www.w3.org/2000/svg" xmlns:xlink="http://www.w3.org/1999/xlink">
 <path d="M0,0 l92,0 l0,200 l-92,0 Z M0,0" fill="rgb(255,255,255)" transform="matrix(1,0,0,-1,0.0,200.0)"/>
 <path d="M0,0 l92,0" fill="none" stroke="rgb(229,229,229)" stroke-width="2" transform="matrix(1,0,0,-1,0.0,135.0)"/>
 <path d="M0,1 l0,-5" fill="none" stroke="rgb(204,204,204)" stroke-width="2" transform="matrix(1,0,0,-1,7.0,135.0)"/>
 <path d="M0,1 l0,-5" fill="none" stroke="rgb(204,204,204)" stroke-width="2" transform="matrix(1,0,0,-1,84.0,135.0)"/>
 <path d="M454,306 c0,43,-24,80,-55,96 l-168,-32 c-40,5,-63,37,-63,60 c0,22,11,36,54,36 l183,0 l0,116 l230,0 l0,-449 l-231,0 l0,75 c35,25,50,61,50,98 Z M692,-30 l0,612 l99,0 l0,52 l-811,0 l0,-52 l371,0 l0,-66 l-148,0 c-64,0,-94,-36,-94,-79 c0,-56,48,-106,111,-119 l158,31 c11,-8,20,-22,20,-43 c0,-37,-19,-81,-119,-81 c-97,0,-152,46,-193,106 l-41,-40 c48,-64,120,-116,234,-116 c27,0,50,3,70,8 l0,-48 l-46,-44 c3,-33,18,-56,42,-75 l59,0 l0,64 l231,0 l0,-110 Z M561,433 c0,25,-18,43,-42,43 c-24,0,-42,-18,-42,-43 c0,-23,18,-41,42,-41 c24,0,42,18,42,41 Z M561,433" fill="rgb(0,0,0)" transform="matrix(0.1,0.0,0.0,-0.1,7.0,135.0)"/>
</svg>