<?xml version="1.0" encoding="UTF-8"?>
<svg height="200.0" version="1.1" width="86.0" xmlns="http://www.w3.org/2000/svg" xmlns:xlink="http://www.w3.org/1999/xlink">
 <path d="M0,0 l86,0 l0,200 l-86,0 Z M0,0" fill="rgb(255,255,255)" transform="matrix(1,0,0,-1,0.0,200.0)"/>
 <path d="M0,0 l86,0" fill="none" stroke="rgb(229,229,229)" stroke-width="2" transform="matrix(1,0,0,-1,0.0,135.0)"/>
 <path d="M0,1 l0,-5" fill="none" stroke="rgb(204,204,204)" stroke-width="2" transform="matrix(1,0,0,-1,9.0,135.0)"/>
 <path d="M0,1 l0,-5" fill="none" stroke="rgb(204,204,204)" stroke-width="2" transform="matrix(1,0,0,-1,79.0,135.0)"/>
 <path d="M538,582 l0,-252 c-42,15,-110,46,-148,71 c0,5,1,11,1,16 c0,65,-51,127,-150,127 c-30,0,-91,-16,-109,-32 l30,-47 c15,11,52,26,86,26 c49,0,85,-30,85,-75 c0,-55,-40,-88,-115,-88 c-68,0,-145,36,-172,71 l-34,-47 c36,-39,118,-77,205,-77 c96,0,130,31,157,74 c52,-34,118,-59,164,-75 l0,-68 c-43,-104,-148,-176,-230,-176 c-58,0,-82,31,-82,66 c0,32,21,57,47,67 l84,32 l-21,46 l-297,-105 l30,-46 l108,42 c-6,-11,-9,-33,-9,-45 c0,-48,35,-111,132,-111 c78,0,168,34,235,126 l4,0 l0,-112 l56,0 l0,592 l125,0 l0,52 l-762,0 l0,-52 Z M538,582" fill="rgb(0,0,0)" transform="matrix(0.1,0.0,0.0,-0.1,9.0,135.0)"/>
</svg>