<?xml version="1.0" encoding="UTF-8"?>
<svg height="200.0" version="1.1" width="78.0" xmlns="http://www.w3.org/2000/svg" xmlns:xlink="http://www.w3.org/1999/xlink">
 <path d="M0,0 l78,0 l0,200 l-78,0 Z M0,0" fill="rgb(255,255,255)" transform="matrix(1,0,0,-1,0.0,200.0)"/>
 <path d="M0,0 l78,0" fill="none" stroke="rgb(229,229,229)" stroke-width="2" transform="matrix(1,0,0,-1,0.0,135.0)"/>
 <path d="M0,1 l0,-5" fill="none" stroke="rgb(204,204,204)" stroke-width="2" transform="matrix(1,0,0,-1,5.0,135.0)"/>
 <path d="M0,1 l0,-5" fill="none" stroke="rgb(204,204,204)" stroke-width="2" transform="matrix(1,0,0,-1,71.0,135.0)"/>
 <path d="M306,-10 c76,0,152,45,193,111 l4,0 l0,-121 l56,0 l0,602 l125,0 l0,52 l-182,0 l0,-341 c-74,31,-137,55,-187,78 c58,36,90,79,90,139 c0,80,-62,134,-145,134 c-89,0,-148,-61,-148,-134 c0,-59,26,-98,80,-134 c-54,-19,-115,-33,-173,-45 l34,-53 c78,19,147,39,202,63 c62,-31,145,-65,250,-110 c-17,-101,-99,-187,-194,-187 c-58,0,-86,36,-86,71 c0,32,13,48,39,58 l76,29 l-31,45 l-279,-96 l35,-48 l113,42 c-6,-11,-9,-27,-9,-39 c0,-49,38,-116,137,-116 Z M172,510 c0,49,38,81,88,81 c49,0,85,-31,85,-82 c0,-46,-36,-81,-90,-108 c-54,31,-83,63,-83,109 Z M172,510" fill="rgb(0,0,0)" transform="matrix(0.1,0.0,0.0,-0.1,5.0,135.0)"/>
</svg>