<?xml version="1.0" encoding="UTF-8"?>
<svg height="200.0" version="1.1" width="78.0" xmlns="http://www.w3.org/2000/svg" xmlns:xlink="http://www.w3.org/1999/xlink">
 <path d="M0,0 l78,0 l0,200 l-78,0 Z M0,0" fill="rgb(255,255,255)" transform="matrix(1,0,0,-1,0.0,200.0)"/>
 <path d="M0,0 l78,0" fill="none" stroke="rgb(229,229,229)" stroke-width="2" transform="matrix(1,0,0,-1,0.0,135.0)"/>
 <path d="M0,1 l0,-5" fill="none" stroke="rgb(204,204,204)" stroke-width="2" transform="matrix(1,0,0,-1,5.0,135.0)"/>
 <path d="M0,1 l0,-5" fill="none" stroke="rgb(204,204,204)" stroke-width="2" transform="matrix(1,0,0,-1,71.0,135.0)"/>
 <path d="M335,-54 c-62,13,-131,62,-131,138 c0,42,25,66,58,66 c21,0,37,-6,51,-26 c10,-15,19,-36,29,-66 l53,18 c-10,19,-16,38,-19,54 c-2,9,-3,17,-3,24 c0,46,28,78,72,78 c19,0,39,-5,52,-10 l0,-222 l58,0 l0,582 l125,0 l0,52 l-183,0 l0,-361 c-74,15,-147,38,-220,81 c65,39,105,89,105,156 c0,84,-61,136,-139,136 c-88,0,-144,-61,-144,-135 c0,-48,20,-98,73,-146 c-67,-24,-136,-36,-166,-41 l41,-51 c64,14,124,31,175,53 c37,-25,95,-53,145,-70 l4,-1 c-28,-16,-39,-50,-39,-81 l-3,1 c-17,17,-40,28,-71,28 c-59,0,-112,-44,-112,-119 c0,-98,86,-164,153,-181 Z M159,511 c0,52,36,82,84,82 c43,0,79,-30,79,-83 c0,-57,-42,-94,-96,-121 c-40,33,-67,71,-67,122 Z M159,511" fill="rgb(0,0,0)" transform="matrix(0.1,0.0,0.0,-0.1,5.0,135.0)"/>
</svg>