<?xml version="1.0" encoding="UTF-8"?>
<svg height="200.0" version="1.1" width="82.0" xmlns="http://www.w3.org/2000/svg" xmlns:xlink="http://www.w3.org/1999/xlink">
 <path d="M0,0 l82,0 l0,200 l-82,0 Z M0,0" fill="rgb(255,255,255)" transform="matrix(1,0,0,-1,0.0,200.0)"/>
 <path d="M0,0 l82,0" fill="none" stroke="rgb(229,229,229)" stroke-width="2" transform="matrix(1,0,0,-1,0.0,135.0)"/>
 <path d="M0,1 l0,-5" fill="none" stroke="rgb(204,204,204)" stroke-width="2" transform="matrix(1,0,0,-1,5.0,135.0)"/>
 <path d="M0,1 l0,-5" fill="none" stroke="rgb(204,204,204)" stroke-width="2" transform="matrix(1,0,0,-1,74.0,135.0)"/>
 <path d="M334,289 c-48,-8,-112,-53,-112,-129 c0,-71,50,-140,157,-140 c67,0,120,35,145,72 l4,0 l0,-112 l58,0 l0,602 l125,0 l0,52 l-270,0 l0,-52 l87,0 l0,-300 c-93,24,-174,51,-236,83 c57,40,90,89,90,149 c0,81,-56,132,-137,132 c-90,0,-143,-61,-143,-131 c0,-53,29,-102,81,-144 c-60,-24,-128,-38,-173,-48 l34,-53 c76,17,142,39,195,65 c28,-16,60,-30,95,-42 Z M382,73 c-67,0,-100,38,-100,84 c0,56,45,94,120,94 c28,0,73,-8,129,-26 c-4,-81,-66,-152,-149,-152 Z M162,515 c0,48,32,78,83,78 c46,0,77,-28,77,-79 c0,-51,-35,-89,-84,-117 c-48,34,-76,73,-76,118 Z M162,515" fill="rgb(0,0,0)" transform="matrix(0.1,0.0,0.0,-0.1,5.0,135.0)"/>
</svg>