<?xml version="1.0" encoding="UTF-8"?>
<svg height="200.0" version="1.1" width="72.0" xmlns="http://www.w3.org/2000/svg" xmlns:xlink="http://www.w3.org/1999/xlink">
 <path d="M0,0 l72,0 l0,200 l-72,0 Z M0,0" fill="rgb(255,255,255)" transform="matrix(1,0,0,-1,0.0,200.0)"/>
 <path d="M0,0 l72,0" fill="none" stroke="rgb(229,229,229)" stroke-width="2" transform="matrix(1,0,0,-1,0.0,135.0)"/>
 <path d="M0,1 l0,-5" fill="none" stroke="rgb(204,204,204)" stroke-width="2" transform="matrix(1,0,0,-1,7.0,135.0)"/>
 <path d="M0,1 l0,-5" fill="none" stroke="rgb(204,204,204)" stroke-width="2" transform="matrix(1,0,0,-1,64.0,135.0)"/>
 <path d="M214,272 l-21,-9 c-69,-30,-103,-60,-103,-115 c0,-78,73,-158,233,-158 c70,0,148,21,202,60 l-34,49 c-32,-27,-90,-55,-177,-55 c-111,0,-162,53,-162,101 c0,39,24,60,114,91 l201,69 l0,277 l125,0 l0,52 l-612,0 l0,-52 l125,0 l0,-174 c0,-77,41,-120,109,-132 Z M412,339 c-52,-21,-109,-26,-135,-26 c-78,0,-116,34,-116,97 l0,114 l251,-180 Z M157,582 l254,0 l0,-186 l-254,182 Z M157,582" fill="rgb(0,0,0)" transform="matrix(0.1,0.0,0.0,-0.1,7.0,135.0)"/>
</svg>