<?xml version="1.0" encoding="UTF-8"?>
<svg height="200.0" version="1.1" width="76.0" xmlns="http://www.w3.org/2000/svg" xmlns:xlink="http://www.w3.org/1999/xlink">
 <path d="M0,0 l76,0 l0,200 l-76,0 Z M0,0" fill="rgb(255,255,255)" transform="matrix(1,0,0,-1,0.0,200.0)"/>
 <path d="M0,0 l76,0" fill="none" stroke="rgb(229,229,229)" stroke-width="2" transform="matrix(1,0,0,-1,0.0,135.0)"/>
 <path d="M0,1 l0,-5" fill="none" stroke="rgb(204,204,204)" stroke-width="2" transform="matrix(1,0,0,-1,7.0,135.0)"/>
 <path d="M0,1 l0,-5" fill="none" stroke="rgb(204,204,204)" stroke-width="2" transform="matrix(1,0,0,-1,70.0,135.0)"/>
 <path d="M274,132 l0,-4 l-72,-30 l-73,-43 l-16,-58 c13,-28,49,-46,86,-51 l30,29 l-31,55 l264,147 l4,0 l0,-177 l58,0 l0,582 l125,0 l0,52 l-669,0 l0,-52 l486,0 l0,-333 c-20,-25,-82,-71,-159,-71 c-84,0,-134,46,-134,110 c0,67,48,110,127,110 l87,0 l0,53 l-364,0 l0,-54 l142,0 l0,-4 c-14,-11,-54,-45,-54,-109 c0,-99,82,-152,163,-152 Z M274,132" fill="rgb(0,0,0)" transform="matrix(0.1,0.0,0.0,-0.1,7.0,135.0)"/>
</svg>