<?xml version="1.0" encoding="UTF-8"?>
<svg height="200.0" version="1.1" width="82.0" xmlns="http://www.w3.org/2000/svg" xmlns:xlink="http://www.w3.org/1999/xlink">
 <path d="M0,0 l82,0 l0,200 l-82,0 Z M0,0" fill="rgb(255,255,255)" transform="matrix(1,0,0,-1,0.0,200.0)"/>
 <path d="M0,0 l82,0" fill="none" stroke="rgb(229,229,229)" stroke-width="2" transform="matrix(1,0,0,-1,0.0,135.0)"/>
 <path d="M0,1 l0,-5" fill="none" stroke="rgb(204,204,204)" stroke-width="2" transform="matrix(1,0,0,-1,7.0,135.0)"/>
 <path d="M0,1 l0,-5" fill="none" stroke="rgb(204,204,204)" stroke-width="2" transform="matrix(1,0,0,-1,75.0,135.0)"/>
 <path d="M513,-215 l0,371 c59,52,94,124,94,197 c0,68,-36,124,-94,143 l0,86 l184,0 l0,52 l-717,0 l0,-52 l149,0 l0,-4 c-22,-15,-52,-44,-52,-100 c0,-59,36,-99,96,-115 l0,-4 c-42,-16,-83,-48,-83,-116 c0,-90,74,-164,209,-164 c59,0,113,14,158,39 l0,-118 l-187,0 l-38,-39 c1,-36,21,-66,49,-84 l41,10 l0,60 l135,0 l0,-162 Z M473,317 c-45,5,-70,32,-70,70 c0,39,29,63,66,63 c44,0,79,-35,79,-97 c0,-127,-115,-219,-249,-219 c-97,0,-147,46,-147,111 c0,62,44,91,113,91 l24,0 l0,54 l-37,0 c-72,0,-113,33,-113,92 c0,61,48,100,118,100 l200,0 l0,-79 c-67,-5,-112,-55,-112,-116 c0,-54,34,-99,92,-111 Z M473,317" fill="rgb(0,0,0)" transform="matrix(0.1,0.0,0.0,-0.1,7.0,135.0)"/>
</svg>