<?xml version="1.0" encoding="UTF-8"?>
<svg height="200.0" version="1.1" width="98.0" xmlns="http://www.w3.org/2000/svg" xmlns:xlink="http://www.w3.org/1999/xlink">
 <path d="M0,0 l98,0 l0,200 l-98,0 Z M0,0" fill="rgb(255,255,255)" transform="matrix(1,0,0,-1,0.0,200.0)"/>
 <path d="M0,0 l98,0" fill="none" stroke="rgb(229,229,229)" stroke-width="2" transform="matrix(1,0,0,-1,0.0,135.0)"/>
 <path d="M0,1 l0,-5" fill="none" stroke="rgb(204,204,204)" stroke-width="2" transform="matrix(1,0,0,-1,7.0,135.0)"/>
 <path d="M0,1 l0,-5" fill="none" stroke="rgb(204,204,204)" stroke-width="2" transform="matrix(1,0,0,-1,91.0,135.0)"/>
 <path d="M681,582 l0,-286 c-33,-14,-84,-26,-145,-26 c-79,0,-132,19,-160,34 l-169,-34 c-37,10,-70,46,-70,86 c0,36,16,60,75,60 l188,0 l0,166 Z M568,144 l-94,-89 l-2,-60 c21,-22,60,-34,97,-30 l21,36 l-43,44 l130,124 l4,0 l0,-169 l58,0 l0,582 l125,0 l0,52 l-884,0 l0,-52 l363,0 l0,-113 l-158,0 c-67,0,-109,-42,-109,-102 c0,-77,59,-135,119,-154 l161,32 c13,-9,31,-30,31,-67 c0,-69,-66,-101,-140,-101 l-39,0 l-126,89 c-9,-6,-19,-25,-19,-45 c0,-44,44,-93,143,-96 l149,-143 l73,38 l-157,108 l-2,1 c82,1,176,50,176,150 c0,19,-4,37,-10,52 c28,-10,68,-16,106,-16 c62,0,112,14,146,29 l0,-4 Z M568,144" fill="rgb(0,0,0)" transform="matrix(0.1,0.0,0.0,-0.1,7.0,135.0)"/>
</svg>