<?xml version="1.0" encoding="UTF-8"?>
<svg height="200.0" version="1.1" width="68.0" xmlns="http://www.w3.org/2000/svg" xmlns:xlink="http://www.w3.org/1999/xlink">
 <path d="M0,0 l68,0 l0,200 l-68,0 Z M0,0" fill="rgb(255,255,255)" transform="matrix(1,0,0,-1,0.0,200.0)"/>
 <path d="M0,0 l68,0" fill="none" stroke="rgb(229,229,229)" stroke-width="2" transform="matrix(1,0,0,-1,0.0,135.0)"/>
 <path d="M0,1 l0,-5" fill="none" stroke="rgb(204,204,204)" stroke-width="2" transform="matrix(1,0,0,-1,7.0,135.0)"/>
 <path d="M0,1 l0,-5" fill="none" stroke="rgb(204,204,204)" stroke-width="2" transform="matrix(1,0,0,-1,61.0,135.0)"/>
 <path d="M93,191 l-22,-56 c12,-29,46,-51,82,-58 l33,26 l-27,57 l214,96 l4,0 l0,-256 l58,0 l0,582 l124,0 l0,52 l-579,0 l0,-52 l398,0 l0,-248 l-4,0 c-28,78,-94,144,-212,144 c-35,0,-67,-9,-83,-14 l-45,-40 c0,-37,23,-72,44,-86 l42,10 l0,67 c17,5,29,8,53,8 c85,0,136,-56,159,-125 Z M93,191" fill="rgb(0,0,0)" transform="matrix(0.1,0.0,0.0,-0.1,7.0,135.0)"/>
</svg>