<?xml version="1.0" encoding="UTF-8"?>
<svg height="200.0" version="1.1" width="72.0" xmlns="http://www.w3.org/2000/svg" xmlns:xlink="http://www.w3.org/1999/xlink">
 <path d="M0,0 l72,0 l0,200 l-72,0 Z M0,0" fill="rgb(255,255,255)" transform="matrix(1,0,0,-1,0.0,200.0)"/>
 <path d="M0,0 l72,0" fill="none" stroke="rgb(229,229,229)" stroke-width="2" transform="matrix(1,0,0,-1,0.0,135.0)"/>
 <path d="M0,1 l0,-5" fill="none" stroke="rgb(204,204,204)" stroke-width="2" transform="matrix(1,0,0,-1,7.0,135.0)"/>
 <path d="M0,1 l0,-5" fill="none" stroke="rgb(204,204,204)" stroke-width="2" transform="matrix(1,0,0,-1,65.0,135.0)"/>
 <path d="M240,3 l-38,49 l207,155 l4,0 l0,-207 l58,0 l0,582 l125,0 l0,52 l-265,0 l0,-52 l82,0 l0,-214 l-231,0 l0,144 c0,77,-50,122,-134,122 l-68,0 l0,-52 l65,0 c55,0,79,-22,79,-75 l0,-140 l-47,-34 c1,-42,23,-95,54,-122 l51,0 l0,103 l238,0 l0,-29 l-289,-215 l-9,-59 c18,-25,56,-41,93,-41 Z M240,3" fill="rgb(0,0,0)" transform="matrix(0.1,0.0,0.0,-0.1,7.0,135.0)"/>
</svg>