<?xml version="1.0" encoding="UTF-8"?>
<svg height="200.0" version="1.1" width="74.0" xmlns="http://www.w3.org/2000/svg" xmlns:xlink="http://www.w3.org/1999/xlink">
 <path d="M0,0 l74,0 l0,200 l-74,0 Z M0,0" fill="rgb(255,255,255)" transform="matrix(1,0,0,-1,0.0,200.0)"/>
 <path d="M0,0 l74,0" fill="none" stroke="rgb(229,229,229)" stroke-width="2" transform="matrix(1,0,0,-1,0.0,135.0)"/>
 <path d="M0,1 l0,-5" fill="none" stroke="rgb(204,204,204)" stroke-width="2" transform="matrix(1,0,0,-1,7.0,135.0)"/>
 <path d="M0,1 l0,-5" fill="none" stroke="rgb(204,204,204)" stroke-width="2" transform="matrix(1,0,0,-1,67.0,135.0)"/>
 <path d="M119,335 c80,20,138,71,138,140 c0,48,-18,78,-40,103 l0,4 l226,0 l0,-306 c-15,-26,-75,-77,-156,-77 c-120,0,-159,83,-168,136 Z M437,197 l4,0 l0,-197 l58,0 l0,582 l125,0 l0,52 l-644,0 l0,-52 l169,0 c28,-23,47,-58,47,-98 c0,-60,-50,-96,-146,-118 c16,-141,109,-213,210,-217 l0,-4 l-75,-37 l-85,-56 l-13,-59 c14,-27,51,-43,88,-46 l28,30 l-34,53 Z M437,197" fill="rgb(0,0,0)" transform="matrix(0.1,0.0,0.0,-0.1,7.0,135.0)"/>
</svg>