<?xml version="1.0" encoding="UTF-8"?>
<svg height="200.0" version="1.1" width="92.0" xmlns="http://www.w3.org/2000/svg" xmlns:xlink="http://www.w3.org/1999/xlink">
 <path d="M0,0 l92,0 l0,200 l-92,0 Z M0,0" fill="rgb(255,255,255)" transform="matrix(1,0,0,-1,0.0,200.0)"/>
 <path d="M0,0 l92,0" fill="none" stroke="rgb(229,229,229)" stroke-width="2" transform="matrix(1,0,0,-1,0.0,135.0)"/>
 <path d="M0,1 l0,-5" fill="none" stroke="rgb(204,204,204)" stroke-width="2" transform="matrix(1,0,0,-1,7.0,135.0)"/>
 <path d="M0,1 l0,-5" fill="none" stroke="rgb(204,204,204)" stroke-width="2" transform="matrix(1,0,0,-1,85.0,135.0)"/>
 <path d="M612,582 l0,-214 l-36,-22 c-23,37,-72,88,-156,88 c-57,0,-100,-26,-124,-43 l-4,0 l0,191 Z M373,225 l-12,-59 c12,-26,48,-43,85,-49 l29,32 l-32,52 l165,101 l4,0 l0,-302 l58,0 l0,582 l125,0 l0,52 l-815,0 l0,-52 l254,0 l0,-184 c0,-49,-24,-70,-73,-70 c-51,0,-81,28,-95,43 l-44,-35 l251,-335 l47,32 l-123,163 c-24,32,-44,55,-66,81 l2,3 c8,-3,21,-5,30,-5 c123,0,139,104,260,104 c53,0,86,-32,105,-61 Z M373,225" fill="rgb(0,0,0)" transform="matrix(0.1,0.0,0.0,-0.1,7.0,135.0)"/>
</svg>