<?xml version="1.0" encoding="UTF-8"?>
<svg height="200.0" version="1.1" width="106.0" xmlns="http://www.w3.org/2000/svg" xmlns:xlink="http://www.w3.org/1999/xlink">
 <path d="M0,0 l106,0 l0,200 l-106,0 Z M0,0" fill="rgb(255,255,255)" transform="matrix(1,0,0,-1,0.0,200.0)"/>
 <path d="M0,0 l106,0" fill="none" stroke="rgb(229,229,229)" stroke-width="2" transform="matrix(1,0,0,-1,0.0,135.0)"/>
 <path d="M0,1 l0,-5" fill="none" stroke="rgb(204,204,204)" stroke-width="2" transform="matrix(1,0,0,-1,8.0,135.0)"/>
 <path d="M0,1 l0,-5" fill="none" stroke="rgb(204,204,204)" stroke-width="2" transform="matrix(1,0,0,-1,99.0,135.0)"/>
 <path d="M770,479 l0,16 l-131,0 l0,-13 c0,-57,-35,-84,-120,-131 l0,211 l419,0 l0,109 l-968,0 l0,-109 l407,0 l0,-200 l-4,0 c-30,67,-94,108,-174,108 c-74,0,-132,-23,-184,-67 l88,-111 c32,35,67,49,106,49 c52,0,94,-32,116,-94 l-274,-147 l91,-99 l236,140 l0,-141 l141,0 l0,217 l56,33 c16,9,31,18,45,27 c24,-15,54,-24,95,-24 l0,-4 c-49,-28,-115,-72,-115,-139 c0,-93,76,-136,185,-136 c47,0,96,16,122,30 l-40,109 c-23,-14,-50,-26,-84,-26 c-32,0,-49,12,-49,29 c0,25,19,38,138,112 l-41,100 l-17,0 c-43,0,-70,14,-88,30 c28,32,44,70,44,121 Z M770,479" fill="rgb(0,0,0)" transform="matrix(0.1,0.0,0.0,-0.1,8.0,135.0)"/>
</svg>