<?xml version="1.0" encoding="UTF-8"?>
<svg height="200.0" version="1.1" width="106.0" xmlns="http://www.w3.org/2000/svg" xmlns:xlink="http://www.w3.org/1999/xlink">
 <path d="M0,0 l106,0 l0,200 l-106,0 Z M0,0" fill="rgb(255,255,255)" transform="matrix(1,0,0,-1,0.0,200.0)"/>
 <path d="M0,0 l106,0" fill="none" stroke="rgb(229,229,229)" stroke-width="2" transform="matrix(1,0,0,-1,0.0,135.0)"/>
 <path d="M0,1 l0,-5" fill="none" stroke="rgb(204,204,204)" stroke-width="2" transform="matrix(1,0,0,-1,8.0,135.0)"/>
 <path d="M0,1 l0,-5" fill="none" stroke="rgb(204,204,204)" stroke-width="2" transform="matrix(1,0,0,-1,99.0,135.0)"/>
 <path d="M519,0 l0,218 l55,35 c9,5,17,10,26,15 c20,-12,47,-23,79,-23 l0,-4 c-56,-15,-89,-43,-89,-87 c0,-56,49,-76,88,-78 l0,-4 c-33,-8,-64,-29,-64,-71 c0,-70,80,-100,163,-100 c53,0,108,11,145,33 l-39,86 c-29,-15,-72,-25,-105,-25 c-25,0,-43,6,-43,22 c0,22,29,30,109,51 l-31,82 c0,0,-31,-10,-66,-10 c-22,0,-33,6,-33,17 c0,15,8,32,110,58 l-30,86 l-28,0 c-33,0,-57,15,-73,28 c48,38,77,81,77,150 l0,16 l-128,0 l0,-13 c0,-57,-38,-84,-123,-131 l0,211 l419,0 l0,109 l-968,0 l0,-109 l407,0 l0,-200 l-4,0 c-30,67,-94,108,-174,108 c-74,0,-132,-23,-184,-67 l88,-111 c32,35,67,49,106,49 c52,0,94,-32,116,-94 l-274,-147 l91,-99 l236,140 l0,-141 Z M519,0" fill="rgb(0,0,0)" transform="matrix(0.1,0.0,0.0,-0.1,8.0,135.0)"/>
</svg>