<?xml version="1.0" encoding="UTF-8"?>
<svg height="200.0" version="1.1" width="90.0" xmlns="http://www.w3.org/2000/svg" xmlns:xlink="http://www.w3.org/1999/xlink">
 <path d="M0,0 l90,0 l0,200 l-90,0 Z M0,0" fill="rgb(255,255,255)" transform="matrix(1,0,0,-1,0.0,200.0)"/>
 <path d="M0,0 l90,0" fill="none" stroke="rgb(229,229,229)" stroke-width="2" transform="matrix(1,0,0,-1,0.0,135.0)"/>
 <path d="M0,1 l0,-5" fill="none" stroke="rgb(204,204,204)" stroke-width="2" transform="matrix(1,0,0,-1,8.0,135.0)"/>
 <path d="M0,1 l0,-5" fill="none" stroke="rgb(204,204,204)" stroke-width="2" transform="matrix(1,0,0,-1,82.0,135.0)"/>
 <path d="M730,-16 l-43,103 c-18,-17,-55,-30,-87,-30 c-32,0,-58,12,-58,41 c0,67,107,108,107,233 c0,62,-34,113,-95,135 l0,96 l213,0 l0,109 l-797,0 l0,-109 l450,0 l0,-92 c-36,-11,-64,-34,-79,-65 l-4,0 c-15,42,-65,74,-128,74 c-91,0,-180,-60,-180,-199 c0,-122,72,-234,192,-295 l93,91 c-112,56,-145,137,-145,199 c0,67,30,87,61,87 c31,0,50,-23,50,-71 l0,-67 l128,0 l0,67 c0,48,23,73,60,73 c29,0,48,-19,48,-50 c0,-65,-102,-111,-102,-218 c0,-104,91,-150,183,-150 c49,0,98,13,133,38 Z M730,-16" fill="rgb(0,0,0)" transform="matrix(0.1,0.0,0.0,-0.1,8.0,135.0)"/>
</svg>