<?xml version="1.0" encoding="UTF-8"?>
<svg height="200.0" version="1.1" width="92.0" xmlns="http://www.w3.org/2000/svg" xmlns:xlink="http://www.w3.org/1999/xlink">
 <path d="M0,0 l92,0 l0,200 l-92,0 Z M0,0" fill="rgb(255,255,255)" transform="matrix(1,0,0,-1,0.0,200.0)"/>
 <path d="M0,0 l92,0" fill="none" stroke="rgb(229,229,229)" stroke-width="2" transform="matrix(1,0,0,-1,0.0,135.0)"/>
 <path d="M0,1 l0,-5" fill="none" stroke="rgb(204,204,204)" stroke-width="2" transform="matrix(1,0,0,-1,8.0,135.0)"/>
 <path d="M0,1 l0,-5" fill="none" stroke="rgb(204,204,204)" stroke-width="2" transform="matrix(1,0,0,-1,82.0,135.0)"/>
 <path d="M782,-66 l-39,92 c-29,-16,-73,-28,-106,-28 c-25,0,-42,6,-42,22 c0,22,30,38,110,59 l-33,87 c0,0,-25,-11,-60,-11 c-22,0,-29,7,-29,18 c0,33,65,71,65,154 c0,66,-34,117,-94,139 l0,96 l213,0 l0,109 l-797,0 l0,-109 l450,0 l0,-92 c-36,-11,-64,-34,-79,-65 l-4,0 c-15,42,-65,74,-128,74 c-91,0,-180,-60,-180,-199 c0,-122,72,-234,192,-295 l93,91 c-112,56,-145,137,-145,199 c0,67,30,87,61,87 c31,0,50,-23,50,-71 l0,-67 l128,0 l0,67 c0,48,23,73,60,73 c36,0,51,-20,51,-50 c0,-49,-72,-98,-72,-161 c0,-56,45,-72,84,-74 l0,-4 c-33,-10,-61,-33,-61,-77 c0,-70,78,-101,161,-101 c53,0,114,15,151,37 Z M782,-66" fill="rgb(0,0,0)" transform="matrix(0.1,0.0,0.0,-0.1,8.0,135.0)"/>
</svg>