<?xml version="1.0" encoding="UTF-8"?>
<svg height="200.0" version="1.1" width="74.0" xmlns="http://www.w3.org/2000/svg" xmlns:xlink="http://www.w3.org/1999/xlink">
 <path d="M0,0 l74,0 l0,200 l-74,0 Z M0,0" fill="rgb(255,255,255)" transform="matrix(1,0,0,-1,0.0,200.0)"/>
 <path d="M0,0 l74,0" fill="none" stroke="rgb(229,229,229)" stroke-width="2" transform="matrix(1,0,0,-1,0.0,135.0)"/>
 <path d="M0,1 l0,-5" fill="none" stroke="rgb(204,204,204)" stroke-width="2" transform="matrix(1,0,0,-1,8.0,135.0)"/>
 <path d="M0,1 l0,-5" fill="none" stroke="rgb(204,204,204)" stroke-width="2" transform="matrix(1,0,0,-1,66.0,135.0)"/>
 <path d="M437,92 l-226,194 l0,276 l155,0 l0,-135 c0,-56,-15,-89,-61,-109 l107,-90 c77,39,95,96,95,194 l0,140 l100,0 l0,109 l-126,0 l-239,286 l-158,-33 l85,-96 c58,-66,121,-124,181,-157 l-380,0 l0,-109 l100,0 l0,-329 l255,-216 c17,-15,30,-33,30,-55 c0,-25,-11,-57,-27,-76 l0,-7 l136,0 c18,25,28,65,28,99 c0,38,-13,78,-55,114 Z M437,92" fill="rgb(0,0,0)" transform="matrix(0.1,0.0,0.0,-0.1,8.0,135.0)"/>
</svg>