<?xml version="1.0" encoding="UTF-8"?>
<svg height="200.0" version="1.1" width="118.0" xmlns="http://www.w3.org/2000/svg" xmlns:xlink="http://www.w3.org/1999/xlink">
 <path d="M0,0 l118,0 l0,200 l-118,0 Z M0,0" fill="rgb(255,255,255)" transform="matrix(1,0,0,-1,0.0,200.0)"/>
 <path d="M0,0 l118,0" fill="none" stroke="rgb(229,229,229)" stroke-width="2" transform="matrix(1,0,0,-1,0.0,135.0)"/>
 <path d="M0,1 l0,-5" fill="none" stroke="rgb(204,204,204)" stroke-width="2" transform="matrix(1,0,0,-1,5.0,135.0)"/>
 <path d="M0,1 l0,-5" fill="none" stroke="rgb(204,204,204)" stroke-width="2" transform="matrix(1,0,0,-1,111.0,135.0)"/>
 <path d="M9,145 c25,-37,93,-108,224,-108 c136,0,221,83,221,196 l0,6 c15,-6,31,-10,49,-10 c17,0,32,3,45,7 l0,-236 l141,0 l0,562 l150,0 l0,-562 l141,0 l0,562 l105,0 l0,109 l-117,0 l-239,286 l-158,-33 l85,-96 c58,-66,121,-124,181,-157 l-367,0 l0,-109 l78,0 l0,-207 c-19,-10,-45,-17,-80,-17 c-25,0,-53,6,-80,20 c-2,1,-4,2,-6,4 l-1,0 c-11,6,-23,10,-34,12 l0,4 c47,23,73,72,73,129 c0,102,-78,169,-195,169 c-83,0,-146,-38,-178,-84 l88,-83 c19,31,46,50,86,50 c43,0,70,-27,70,-66 c0,-45,-25,-77,-86,-77 l-35,0 l0,-117 l54,0 c64,0,95,-26,95,-69 c0,-44,-31,-76,-84,-76 c-65,0,-108,43,-129,80 Z M9,145" fill="rgb(0,0,0)" transform="matrix(0.1,0.0,0.0,-0.1,5.0,135.0)"/>
</svg>