<?xml version="1.0" encoding="UTF-8"?>
<svg height="200.0" version="1.1" width="62.0" xmlns="http://www.w3.org/2000/svg" xmlns:xlink="http://www.w3.org/1999/xlink">
 <path d="M0,0 l62,0 l0,200 l-62,0 Z M0,0" fill="rgb(255,255,255)" transform="matrix(1,0,0,-1,0.0,200.0)"/>
 <path d="M0,0 l62,0" fill="none" stroke="rgb(229,229,229)" stroke-width="2" transform="matrix(1,0,0,-1,0.0,135.0)"/>
 <path d="M0,-4 l0,8" fill="none" stroke="rgb(255,76,25)" stroke-width="2" transform="matrix(1,0,0,-1,56.0,135.0)"/>
 <path d="M-75,661 c0,77,-22,119,-83,147 l-145,67 c-34,16,-85,33,-69,91 l-134,3 c-20,-101,29,-149,110,-182 l145,-61 c28,-12,34,-29,34,-65 Z M-75,661" fill="rgb(0,0,0)" transform="matrix(0.1,0.0,0.0,-0.1,56.0,135.0)"/>
</svg>