<?xml version="1.0" encoding="UTF-8"?>
<svg height="200.0" version="1.1" width="64.0" xmlns="http://www.w3.org/2000/svg" xmlns:xlink="http://www.w3.org/1999/xlink">
 <path d="M0,0 l64,0 l0,200 l-64,0 Z M0,0" fill="rgb(255,255,255)" transform="matrix(1,0,0,-1,0.0,200.0)"/>
 <path d="M0,0 l64,0" fill="none" stroke="rgb(229,229,229)" stroke-width="2" transform="matrix(1,0,0,-1,0.0,135.0)"/>
 <path d="M0,1 l0,-5" fill="none" stroke="rgb(204,204,204)" stroke-width="2" transform="matrix(1,0,0,-1,27.0,135.0)"/>
 <path d="M0,1 l0,-5" fill="none" stroke="rgb(204,204,204)" stroke-width="2" transform="matrix(1,0,0,-1,56.0,135.0)"/>
 <path d="M-9,807 c-45,18,-75,32,-68,90 l-139,0 c-5,-99,47,-137,128,-162 c63,-20,131,-31,160,-64 l-102,0 l0,-109 l105,0 l0,-562 l141,0 l0,562 l105,0 l0,109 l-106,0 c0,127,-81,161,-81,260 c0,10,1,24,4,36 l-131,0 c-3,-12,-4,-24,-4,-35 c0,-121,116,-147,146,-251 l-7,0 c-35,80,-100,105,-151,126 Z M-9,807" fill="rgb(0,0,0)" transform="matrix(0.1,0.0,0.0,-0.1,27.0,135.0)"/>
</svg>