<?xml version="1.0" encoding="UTF-8"?>
<svg height="200.0" version="1.1" width="52.0" xmlns="http://www.w3.org/2000/svg" xmlns:xlink="http://www.w3.org/1999/xlink">
 <path d="M0,0 l52,0 l0,200 l-52,0 Z M0,0" fill="rgb(255,255,255)" transform="matrix(1,0,0,-1,0.0,200.0)"/>
 <path d="M0,0 l52,0" fill="none" stroke="rgb(229,229,229)" stroke-width="2" transform="matrix(1,0,0,-1,0.0,135.0)"/>
 <path d="M0,-4 l0,8" fill="none" stroke="rgb(255,76,25)" stroke-width="2" transform="matrix(1,0,0,-1,40.0,135.0)"/>
 <path d="M-146,851 c107,0,177,55,206,131 l-93,45 c-17,-51,-55,-79,-113,-79 c-58,0,-96,28,-113,79 l-93,-45 c29,-76,99,-131,206,-131 Z M43,731 l0,88 l-378,0 l0,-88 Z M43,731" fill="rgb(0,0,0)" transform="matrix(0.1,0.0,0.0,-0.1,40.0,135.0)"/>
</svg>