<?xml version="1.0" encoding="UTF-8"?>
<svg height="200.0" version="1.1" width="100.0" xmlns="http://www.w3.org/2000/svg" xmlns:xlink="http://www.w3.org/1999/xlink">
 <path d="M0,0 l100,0 l0,200 l-100,0 Z M0,0" fill="rgb(255,255,255)" transform="matrix(1,0,0,-1,0.0,200.0)"/>
 <path d="M0,0 l100,0" fill="none" stroke="rgb(229,229,229)" stroke-width="2" transform="matrix(1,0,0,-1,0.0,135.0)"/>
 <path d="M0,1 l0,-5" fill="none" stroke="rgb(204,204,204)" stroke-width="2" transform="matrix(1,0,0,-1,8.0,135.0)"/>
 <path d="M0,1 l0,-5" fill="none" stroke="rgb(204,204,204)" stroke-width="2" transform="matrix(1,0,0,-1,92.0,135.0)"/>
 <path d="M636,88 l0,-88 l128,0 l0,562 l105,0 l0,109 l-899,0 l0,-109 l246,0 l0,-150 c0,-30,-18,-42,-36,-42 c-24,0,-39,17,-50,52 l-119,-42 c32,-197,155,-376,387,-376 c132,0,205,56,234,84 Z M632,481 c-16,10,-41,20,-83,20 c-94,0,-167,-71,-167,-166 c0,-93,70,-143,137,-152 l73,73 c-42,4,-86,28,-86,76 c0,35,26,61,63,61 c39,0,69,-28,69,-80 c0,-111,-98,-199,-227,-199 c-119,0,-199,71,-226,156 c9,-2,21,-3,29,-3 c79,0,135,47,135,154 l0,141 l287,0 l0,-81 Z M632,481" fill="rgb(0,0,0)" transform="matrix(0.1,0.0,0.0,-0.1,8.0,135.0)"/>
</svg>