<?xml version="1.0" encoding="UTF-8"?>
<svg height="200.0" version="1.1" width="86.0" xmlns="http://www.w3.org/2000/svg" xmlns:xlink="http://www.w3.org/1999/xlink">
 <path d="M0,0 l86,0 l0,200 l-86,0 Z M0,0" fill="rgb(255,255,255)" transform="matrix(1,0,0,-1,0.0,200.0)"/>
 <path d="M0,0 l86,0" fill="none" stroke="rgb(229,229,229)" stroke-width="2" transform="matrix(1,0,0,-1,0.0,135.0)"/>
 <path d="M0,1 l0,-5" fill="none" stroke="rgb(204,204,204)" stroke-width="2" transform="matrix(1,0,0,-1,8.0,135.0)"/>
 <path d="M0,1 l0,-5" fill="none" stroke="rgb(204,204,204)" stroke-width="2" transform="matrix(1,0,0,-1,78.0,135.0)"/>
 <path d="M322,17 c214,0,343,156,343,303 c0,79,-34,133,-88,160 l0,82 l152,0 l0,109 l-759,0 l0,-109 l115,0 l0,-4 c-18,-17,-35,-44,-35,-86 c0,-60,36,-110,103,-121 l0,-4 c-41,-15,-85,-54,-85,-135 c0,-103,93,-195,254,-195 Z M504,303 c-27,9,-44,25,-44,50 c0,21,15,35,35,35 c26,0,46,-19,46,-66 c0,-101,-91,-188,-206,-188 c-81,0,-123,37,-123,84 c0,38,20,69,78,74 c5,1,11,1,17,1 l0,114 l-33,0 c-52,0,-78,32,-78,74 c0,43,26,81,86,81 l163,0 l0,-70 c-70,-17,-115,-72,-115,-137 c0,-75,51,-116,90,-130 Z M504,303" fill="rgb(0,0,0)" transform="matrix(0.1,0.0,0.0,-0.1,8.0,135.0)"/>
</svg>