<?xml version="1.0" encoding="UTF-8"?>
<svg height="200.0" version="1.1" width="90.0" xmlns="http://www.w3.org/2000/svg" xmlns:xlink="http://www.w3.org/1999/xlink">
 <path d="M0,0 l90,0 l0,200 l-90,0 Z M0,0" fill="rgb(255,255,255)" transform="matrix(1,0,0,-1,0.0,200.0)"/>
 <path d="M0,0 l90,0" fill="none" stroke="rgb(229,229,229)" stroke-width="2" transform="matrix(1,0,0,-1,0.0,135.0)"/>
 <path d="M0,1 l0,-5" fill="none" stroke="rgb(204,204,204)" stroke-width="2" transform="matrix(1,0,0,-1,8.0,135.0)"/>
 <path d="M0,1 l0,-5" fill="none" stroke="rgb(204,204,204)" stroke-width="2" transform="matrix(1,0,0,-1,81.0,135.0)"/>
 <path d="M510,43 c111,0,194,86,194,215 c0,109,-50,187,-134,209 l0,95 l191,0 l0,109 l-791,0 l0,-109 l464,0 l0,-102 c-30,-11,-54,-30,-73,-55 c-16,29,-58,69,-140,69 c-111,0,-194,-84,-194,-215 c0,-130,71,-216,187,-216 c71,0,120,25,155,71 c17,-31,59,-71,141,-71 Z M220,158 c-44,0,-62,36,-62,101 c0,63,28,107,76,107 c36,0,64,-23,80,-62 c-27,-96,-40,-146,-94,-146 Z M497,151 c-36,0,-64,25,-80,62 c25,80,45,146,94,146 c44,0,62,-36,62,-101 c0,-62,-29,-107,-76,-107 Z M497,151" fill="rgb(0,0,0)" transform="matrix(0.1,0.0,0.0,-0.1,8.0,135.0)"/>
</svg>