<?xml version="1.0" encoding="UTF-8"?>
<svg height="200.0" version="1.1" width="74.0" xmlns="http://www.w3.org/2000/svg" xmlns:xlink="http://www.w3.org/1999/xlink">
 <path d="M0,0 l74,0 l0,200 l-74,0 Z M0,0" fill="rgb(255,255,255)" transform="matrix(1,0,0,-1,0.0,200.0)"/>
 <path d="M0,0 l74,0" fill="none" stroke="rgb(229,229,229)" stroke-width="2" transform="matrix(1,0,0,-1,0.0,135.0)"/>
 <path d="M0,1 l0,-5" fill="none" stroke="rgb(204,204,204)" stroke-width="2" transform="matrix(1,0,0,-1,8.0,135.0)"/>
 <path d="M0,1 l0,-5" fill="none" stroke="rgb(204,204,204)" stroke-width="2" transform="matrix(1,0,0,-1,67.0,135.0)"/>
 <path d="M543,249 c0,82,-52,121,-108,141 l-188,-30 c-15,9,-27,25,-27,42 c0,19,16,24,42,24 l226,0 l0,136 l130,0 l0,109 l-648,0 l0,-109 l384,0 l0,-42 l-146,0 c-82,0,-112,-44,-112,-99 c0,-83,69,-147,143,-170 l183,35 c8,-6,16,-16,16,-37 c0,-32,-47,-61,-123,-61 c-103,0,-171,43,-229,115 l-59,-83 c57,-76,158,-130,285,-130 c152,0,231,67,231,159 Z M527,-35 l0,101 l-444,0 l0,-101 Z M527,-35" fill="rgb(0,0,0)" transform="matrix(0.1,0.0,0.0,-0.1,8.0,135.0)"/>
</svg>