<?xml version="1.0" encoding="UTF-8"?>
<svg height="200.0" version="1.1" width="90.0" xmlns="http://www.w3.org/2000/svg" xmlns:xlink="http://www.w3.org/1999/xlink">
 <path d="M0,0 l90,0 l0,200 l-90,0 Z M0,0" fill="rgb(255,255,255)" transform="matrix(1,0,0,-1,0.0,200.0)"/>
 <path d="M0,0 l90,0" fill="none" stroke="rgb(229,229,229)" stroke-width="2" transform="matrix(1,0,0,-1,0.0,135.0)"/>
 <path d="M0,1 l0,-5" fill="none" stroke="rgb(204,204,204)" stroke-width="2" transform="matrix(1,0,0,-1,8.0,135.0)"/>
 <path d="M0,1 l0,-5" fill="none" stroke="rgb(204,204,204)" stroke-width="2" transform="matrix(1,0,0,-1,81.0,135.0)"/>
 <path d="M517,474 c-74,0,-122,-24,-155,-70 c-17,30,-59,70,-141,70 c-111,0,-194,-86,-194,-215 c0,-130,72,-216,187,-216 c71,0,120,25,155,71 c17,-31,59,-71,141,-71 c111,0,194,86,194,215 c0,130,-72,216,-187,216 Z M220,158 c-44,0,-62,36,-62,101 c0,62,30,107,77,107 c34,0,63,-23,80,-62 c-14,-46,-32,-146,-95,-146 Z M496,151 c-34,0,-63,23,-80,62 c14,46,31,146,95,146 c44,0,62,-36,62,-101 c0,-62,-30,-107,-77,-107 Z M761,562 l0,109 l-791,0 l0,-109 Z M761,562" fill="rgb(0,0,0)" transform="matrix(0.1,0.0,0.0,-0.1,8.0,135.0)"/>
</svg>