<?xml version="1.0" encoding="UTF-8"?>
<svg height="200.0" version="1.1" width="56.0" xmlns="http://www.w3.org/2000/svg" xmlns:xlink="http://www.w3.org/1999/xlink">
 <path d="M0,0 l56,0 l0,200 l-56,0 Z M0,0" fill="rgb(255,255,255)" transform="matrix(1,0,0,-1,0.0,200.0)"/>
 <path d="M0,0 l56,0" fill="none" stroke="rgb(229,229,229)" stroke-width="2" transform="matrix(1,0,0,-1,0.0,135.0)"/>
 <path d="M0,1 l0,-5" fill="none" stroke="rgb(204,204,204)" stroke-width="2" transform="matrix(1,0,0,-1,8.0,135.0)"/>
 <path d="M0,1 l0,-5" fill="none" stroke="rgb(204,204,204)" stroke-width="2" transform="matrix(1,0,0,-1,38.0,135.0)"/>
 <path d="M48,52 c0,-40,33,-73,74,-73 c44,0,77,33,77,73 c0,45,-33,78,-77,78 c-41,0,-74,-33,-74,-78 Z M327,671 l-357,0 l0,-109 l357,0 Z M430,429 l-323,0 l-97,-69 c0,-108,52,-167,112,-194 l66,32 l0,110 l242,0 Z M430,429" fill="rgb(0,0,0)" transform="matrix(0.1,0.0,0.0,-0.1,8.0,135.0)"/>
</svg>