<?xml version="1.0" encoding="UTF-8"?>
<svg height="200.0" version="1.1" width="100.0" xmlns="http://www.w3.org/2000/svg" xmlns:xlink="http://www.w3.org/1999/xlink">
 <path d="M0,0 l100,0 l0,200 l-100,0 Z M0,0" fill="rgb(255,255,255)" transform="matrix(1,0,0,-1,0.0,200.0)"/>
 <path d="M0,0 l100,0" fill="none" stroke="rgb(229,229,229)" stroke-width="2" transform="matrix(1,0,0,-1,0.0,135.0)"/>
 <path d="M0,1 l0,-5" fill="none" stroke="rgb(204,204,204)" stroke-width="2" transform="matrix(1,0,0,-1,6.0,135.0)"/>
 <path d="M0,1 l0,-5" fill="none" stroke="rgb(204,204,204)" stroke-width="2" transform="matrix(1,0,0,-1,92.0,135.0)"/>
 <path d="M652,91 l4,0 l0,-91 l128,0 l0,562 l105,0 l0,109 l-899,0 l0,-109 l246,0 l0,-130 c0,-30,-18,-42,-36,-42 c-24,0,-39,17,-50,52 l-113,-41 c51,-240,177,-315,258,-335 l0,-4 l-202,-52 l98,-105 l290,104 c64,23,127,50,171,82 Z M652,492 c-22,14,-47,21,-83,21 c-94,0,-172,-71,-172,-165 c0,-93,69,-141,136,-148 l67,74 c-40,3,-79,23,-79,71 c0,37,29,62,68,62 c46,0,78,-35,78,-87 c0,-100,-86,-183,-230,-183 c-108,0,-199,69,-223,159 c9,-2,21,-3,29,-3 c79,0,126,44,126,140 l0,129 l287,0 l0,-70 Z M652,492" fill="rgb(0,0,0)" transform="matrix(0.1,0.0,0.0,-0.1,6.0,135.0)"/>
</svg>