<?xml version="1.0" encoding="UTF-8"?>
<svg height="200.0" version="1.1" width="76.0" xmlns="http://www.w3.org/2000/svg" xmlns:xlink="http://www.w3.org/1999/xlink">
 <path d="M0,0 l76,0 l0,200 l-76,0 Z M0,0" fill="rgb(255,255,255)" transform="matrix(1,0,0,-1,0.0,200.0)"/>
 <path d="M0,0 l76,0" fill="none" stroke="rgb(229,229,229)" stroke-width="2" transform="matrix(1,0,0,-1,0.0,135.0)"/>
 <path d="M0,1 l0,-5" fill="none" stroke="rgb(204,204,204)" stroke-width="2" transform="matrix(1,0,0,-1,8.0,135.0)"/>
 <path d="M0,1 l0,-5" fill="none" stroke="rgb(204,204,204)" stroke-width="2" transform="matrix(1,0,0,-1,68.0,135.0)"/>
 <path d="M214,199 l-186,-141 l128,-85 l229,210 l4,0 l0,-183 l142,0 l0,562 l105,0 l0,109 l-666,0 l0,-109 l107,0 l0,-209 c0,-105,63,-144,137,-150 Z M294,298 c-45,0,-78,24,-78,76 l0,14 c0,64,-8,95,-8,95 c0,0,23,-32,59,-68 l98,-96 c-18,-12,-40,-21,-71,-21 Z M395,413 c0,-6,0,-12,-1,-17 l-163,166 l164,0 Z M395,413" fill="rgb(0,0,0)" transform="matrix(0.1,0.0,0.0,-0.1,8.0,135.0)"/>
</svg>