<?xml version="1.0" encoding="UTF-8"?>
<svg height="200.0" version="1.1" width="104.0" xmlns="http://www.w3.org/2000/svg" xmlns:xlink="http://www.w3.org/1999/xlink">
 <path d="M0,0 l104,0 l0,200 l-104,0 Z M0,0" fill="rgb(255,255,255)" transform="matrix(1,0,0,-1,0.0,200.0)"/>
 <path d="M0,0 l104,0" fill="none" stroke="rgb(229,229,229)" stroke-width="2" transform="matrix(1,0,0,-1,0.0,135.0)"/>
 <path d="M0,1 l0,-5" fill="none" stroke="rgb(204,204,204)" stroke-width="2" transform="matrix(1,0,0,-1,5.0,135.0)"/>
 <path d="M0,1 l0,-5" fill="none" stroke="rgb(204,204,204)" stroke-width="2" transform="matrix(1,0,0,-1,95.0,135.0)"/>
 <path d="M550,-81 l-102,140 c23,20,33,47,33,84 c0,52,-37,86,-68,100 l-82,-27 l0,-80 c-15,-13,-49,-20,-74,-20 c-58,0,-98,35,-98,82 c0,51,47,77,133,108 c124,-42,271,-45,403,-16 l0,-11 l-198,-188 l107,-60 l89,106 l4,0 l-2,-137 l132,0 l1,562 l103,0 l0,109 l-369,0 l0,-109 l124,0 l-1,-149 c-107,-32,-208,-33,-281,-22 l0,4 c22,13,70,51,70,125 c0,94,-77,161,-196,161 c-110,0,-201,-66,-201,-161 c0,-66,38,-114,91,-139 c-75,-35,-147,-85,-147,-175 c0,-122,98,-205,252,-205 c35,0,61,3,79,7 l41,-127 Z M206,516 c0,35,27,59,72,59 c46,0,70,-26,70,-56 c0,-47,-40,-74,-70,-83 c-42,11,-72,41,-72,80 Z M206,516" fill="rgb(0,0,0)" transform="matrix(0.1,0.0,0.0,-0.1,5.0,135.0)"/>
</svg>