<?xml version="1.0" encoding="UTF-8"?>
<svg height="200.0" version="1.1" width="86.0" xmlns="http://www.w3.org/2000/svg" xmlns:xlink="http://www.w3.org/1999/xlink">
 <path d="M0,0 l86,0 l0,200 l-86,0 Z M0,0" fill="rgb(255,255,255)" transform="matrix(1,0,0,-1,0.0,200.0)"/>
 <path d="M0,0 l86,0" fill="none" stroke="rgb(229,229,229)" stroke-width="2" transform="matrix(1,0,0,-1,0.0,135.0)"/>
 <path d="M0,1 l0,-5" fill="none" stroke="rgb(204,204,204)" stroke-width="2" transform="matrix(1,0,0,-1,8.0,135.0)"/>
 <path d="M0,1 l0,-5" fill="none" stroke="rgb(204,204,204)" stroke-width="2" transform="matrix(1,0,0,-1,67.0,135.0)"/>
 <path d="M599,487 c-43,0,-87,-18,-108,-39 l-4,-1 l0,115 l128,0 l0,109 l-645,0 l0,-109 l377,0 l0,-246 c0,-53,-35,-91,-86,-91 c-45,0,-77,31,-77,75 c0,60,49,92,115,78 l-22,121 c-115,10,-233,-61,-233,-187 c0,-95,58,-146,104,-161 l0,-4 l-127,-59 l107,-97 l215,156 l4,0 l0,-147 l140,0 l0,281 c0,52,36,91,90,91 c38,0,62,-14,76,-27 l67,106 c-32,23,-78,36,-121,36 Z M599,487" fill="rgb(0,0,0)" transform="matrix(0.1,0.0,0.0,-0.1,8.0,135.0)"/>
</svg>