<?xml version="1.0" encoding="UTF-8"?>
<svg height="200.0" version="1.1" width="76.0" xmlns="http://www.w3.org/2000/svg" xmlns:xlink="http://www.w3.org/1999/xlink">
 <path d="M0,0 l76,0 l0,200 l-76,0 Z M0,0" fill="rgb(255,255,255)" transform="matrix(1,0,0,-1,0.0,200.0)"/>
 <path d="M0,0 l76,0" fill="none" stroke="rgb(229,229,229)" stroke-width="2" transform="matrix(1,0,0,-1,0.0,135.0)"/>
 <path d="M0,1 l0,-5" fill="none" stroke="rgb(204,204,204)" stroke-width="2" transform="matrix(1,0,0,-1,8.0,135.0)"/>
 <path d="M0,1 l0,-5" fill="none" stroke="rgb(204,204,204)" stroke-width="2" transform="matrix(1,0,0,-1,65.0,135.0)"/>
 <path d="M189,70 l-159,-89 l112,-95 l233,165 l65,-129 l158,39 l-128,151 c26,26,42,52,42,92 c0,61,-39,90,-79,110 l-89,-33 l0,-96 c-17,-15,-39,-22,-63,-22 c-52,0,-105,32,-105,90 c0,58,27,87,132,114 l144,37 l0,158 l148,0 l0,109 l-630,0 l0,-109 l338,0 l0,-60 l-84,-23 c-126,-35,-183,-94,-183,-199 c0,-117,81,-187,148,-206 Z M635,-313 l-184,197 l-107,-43 l108,-158 l183,0 Z M635,-313" fill="rgb(0,0,0)" transform="matrix(0.1,0.0,0.0,-0.1,8.0,135.0)"/>
</svg>