<?xml version="1.0" encoding="UTF-8"?>
<svg height="200.0" version="1.1" width="80.0" xmlns="http://www.w3.org/2000/svg" xmlns:xlink="http://www.w3.org/1999/xlink">
 <path d="M0,0 l80,0 l0,200 l-80,0 Z M0,0" fill="rgb(255,255,255)" transform="matrix(1,0,0,-1,0.0,200.0)"/>
 <path d="M0,0 l80,0" fill="none" stroke="rgb(229,229,229)" stroke-width="2" transform="matrix(1,0,0,-1,0.0,135.0)"/>
 <path d="M0,1 l0,-5" fill="none" stroke="rgb(204,204,204)" stroke-width="2" transform="matrix(1,0,0,-1,8.0,135.0)"/>
 <path d="M0,1 l0,-5" fill="none" stroke="rgb(204,204,204)" stroke-width="2" transform="matrix(1,0,0,-1,61.0,135.0)"/>
 <path d="M426,-24 l-144,94 l0,4 c74,-3,148,45,148,136 c0,81,-67,124,-135,139 l0,4 l376,0 l0,110 l-522,0 l-41,-88 l0,-10 c123,-30,185,-88,185,-137 c0,-50,-33,-74,-83,-74 c-11,0,-22,2,-32,4 l-109,94 c-40,-21,-56,-50,-56,-86 c0,-60,50,-105,136,-110 l138,-147 Z M668,125 l0,127 l-283,-184 l125,-74 Z M563,562 l0,109 l-593,0 l0,-109 Z M563,562" fill="rgb(0,0,0)" transform="matrix(0.1,0.0,0.0,-0.1,8.0,135.0)"/>
</svg>