<?xml version="1.0" encoding="UTF-8"?>
<svg height="200.0" version="1.1" width="88.0" xmlns="http://www.w3.org/2000/svg" xmlns:xlink="http://www.w3.org/1999/xlink">
 <path d="M0,0 l88,0 l0,200 l-88,0 Z M0,0" fill="rgb(255,255,255)" transform="matrix(1,0,0,-1,0.0,200.0)"/>
 <path d="M0,0 l88,0" fill="none" stroke="rgb(229,229,229)" stroke-width="2" transform="matrix(1,0,0,-1,0.0,135.0)"/>
 <path d="M0,1 l0,-5" fill="none" stroke="rgb(204,204,204)" stroke-width="2" transform="matrix(1,0,0,-1,8.0,135.0)"/>
 <path d="M0,1 l0,-5" fill="none" stroke="rgb(204,204,204)" stroke-width="2" transform="matrix(1,0,0,-1,67.0,135.0)"/>
 <path d="M417,127 c-108,0,-199,69,-223,159 c9,-2,21,-3,29,-3 c79,0,126,44,126,140 l0,139 l275,0 l0,109 l-654,0 l0,-109 l246,0 l0,-140 c0,-30,-18,-42,-36,-42 c-24,0,-39,17,-50,52 l-113,-41 c51,-240,177,-315,258,-335 l0,-4 l-202,-52 l98,-105 l290,104 c185,66,291,165,291,313 c0,123,-93,192,-186,192 c-105,0,-182,-71,-182,-165 c0,-92,70,-138,134,-146 l69,74 c-40,3,-79,25,-79,69 c0,35,21,61,60,61 c37,0,69,-27,69,-83 c0,-96,-84,-187,-220,-187 Z M422,-107 c0,-40,33,-73,74,-73 c44,0,77,33,77,73 c0,45,-33,78,-77,78 c-41,0,-74,-33,-74,-78 Z M422,-107" fill="rgb(0,0,0)" transform="matrix(0.1,0.0,0.0,-0.1,8.0,135.0)"/>
</svg>