<?xml version="1.0" encoding="UTF-8"?>
<svg height="200.0" version="1.1" width="86.0" xmlns="http://www.w3.org/2000/svg" xmlns:xlink="http://www.w3.org/1999/xlink">
 <path d="M0,0 l86,0 l0,200 l-86,0 Z M0,0" fill="rgb(255,255,255)" transform="matrix(1,0,0,-1,0.0,200.0)"/>
 <path d="M0,0 l86,0" fill="none" stroke="rgb(229,229,229)" stroke-width="2" transform="matrix(1,0,0,-1,0.0,135.0)"/>
 <path d="M0,1 l0,-5" fill="none" stroke="rgb(204,204,204)" stroke-width="2" transform="matrix(1,0,0,-1,9.0,135.0)"/>
 <path d="M0,1 l0,-5" fill="none" stroke="rgb(204,204,204)" stroke-width="2" transform="matrix(1,0,0,-1,79.0,135.0)"/>
 <path d="M446,-151 l153,32 l-153,158 c144,51,219,183,219,299 c0,115,-72,178,-173,178 c-97,0,-162,-65,-162,-143 c0,-75,51,-116,90,-130 l84,78 c-27,9,-44,25,-44,50 c0,21,15,35,33,35 c25,0,48,-18,48,-66 c0,-112,-98,-206,-214,-206 c-81,0,-115,37,-115,84 c0,39,20,70,79,74 l16,1 l0,114 l-33,0 c-52,0,-78,32,-78,74 c0,43,26,81,86,81 l447,0 l0,109 l-759,0 l0,-109 l115,0 l0,-4 c-18,-17,-35,-44,-35,-86 c0,-60,36,-110,103,-121 l0,-4 c-41,-15,-85,-54,-85,-135 c0,-91,67,-174,194,-191 l-137,-134 l154,-38 l87,117 Z M-36,-24 c0,-40,33,-73,74,-73 c44,0,77,33,77,73 c0,45,-33,78,-77,78 c-41,0,-74,-33,-74,-78 Z M-36,-24" fill="rgb(0,0,0)" transform="matrix(0.1,0.0,0.0,-0.1,9.0,135.0)"/>
</svg>