<?xml version="1.0" encoding="UTF-8"?>
<svg height="200.0" version="1.1" width="64.0" xmlns="http://www.w3.org/2000/svg" xmlns:xlink="http://www.w3.org/1999/xlink">
 <path d="M0,0 l64,0 l0,200 l-64,0 Z M0,0" fill="rgb(255,255,255)" transform="matrix(1,0,0,-1,0.0,200.0)"/>
 <path d="M0,0 l64,0" fill="none" stroke="rgb(229,229,229)" stroke-width="2" transform="matrix(1,0,0,-1,0.0,135.0)"/>
 <path d="M0,1 l0,-5" fill="none" stroke="rgb(204,204,204)" stroke-width="2" transform="matrix(1,0,0,-1,8.0,135.0)"/>
 <path d="M0,1 l0,-5" fill="none" stroke="rgb(204,204,204)" stroke-width="2" transform="matrix(1,0,0,-1,46.0,135.0)"/>
 <path d="M439,309 c-18,-31,-58,-79,-136,-79 c-66,0,-105,44,-114,102 c68,13,124,52,124,127 c0,29,-7,69,-41,99 l0,4 l134,0 l0,109 l-436,0 l0,-109 l174,0 c19,-24,29,-63,29,-83 c0,-64,-58,-85,-133,-101 c3,-136,73,-204,144,-225 l0,-4 l-145,-83 l112,-95 l292,199 c23,15,45,31,68,46 Z M248,-77 c0,-40,33,-73,74,-73 c44,0,77,33,77,73 c0,45,-33,78,-77,78 c-41,0,-74,-33,-74,-78 Z M248,-77" fill="rgb(0,0,0)" transform="matrix(0.1,0.0,0.0,-0.1,8.0,135.0)"/>
</svg>