<?xml version="1.0" encoding="UTF-8"?>
<svg height="200.0" version="1.1" width="68.0" xmlns="http://www.w3.org/2000/svg" xmlns:xlink="http://www.w3.org/1999/xlink">
 <path d="M0,0 l68,0 l0,200 l-68,0 Z M0,0" fill="rgb(255,255,255)" transform="matrix(1,0,0,-1,0.0,200.0)"/>
 <path d="M0,0 l68,0" fill="none" stroke="rgb(229,229,229)" stroke-width="2" transform="matrix(1,0,0,-1,0.0,135.0)"/>
 <path d="M0,1 l0,-5" fill="none" stroke="rgb(204,204,204)" stroke-width="2" transform="matrix(1,0,0,-1,5.0,135.0)"/>
 <path d="M0,1 l0,-5" fill="none" stroke="rgb(204,204,204)" stroke-width="2" transform="matrix(1,0,0,-1,54.0,135.0)"/>
 <path d="M44,-1 c0,-40,33,-73,74,-73 c44,0,77,33,77,73 c0,45,-33,78,-77,78 c-41,0,-74,-33,-74,-78 Z M571,241 l0,76 c-63,17,-159,49,-196,65 c48,33,73,85,73,141 c0,90,-76,157,-178,157 c-111,0,-177,-75,-177,-152 c0,-40,13,-93,64,-133 c-42,-15,-98,-31,-160,-45 l91,-109 c73,23,134,45,184,71 c35,-17,71,-32,121,-48 l0,-4 l-212,-123 l111,-101 Z M218,522 c0,29,19,52,55,52 c27,0,49,-16,49,-51 c0,-26,-13,-57,-58,-80 c-40,29,-46,60,-46,79 Z M218,522" fill="rgb(0,0,0)" transform="matrix(0.1,0.0,0.0,-0.1,5.0,135.0)"/>
</svg>