<?xml version="1.0" encoding="UTF-8"?>
<svg height="200.0" version="1.1" width="152.0" xmlns="http://www.w3.org/2000/svg" xmlns:xlink="http://www.w3.org/1999/xlink">
 <path d="M0,0 l152,0 l0,200 l-152,0 Z M0,0" fill="rgb(255,255,255)" transform="matrix(1,0,0,-1,0.0,200.0)"/>
 <path d="M0,0 l152,0" fill="none" stroke="rgb(229,229,229)" stroke-width="2" transform="matrix(1,0,0,-1,0.0,135.0)"/>
 <path d="M0,1 l0,-5" fill="none" stroke="rgb(204,204,204)" stroke-width="2" transform="matrix(1,0,0,-1,8.0,135.0)"/>
 <path d="M0,1 l0,-5" fill="none" stroke="rgb(204,204,204)" stroke-width="2" transform="matrix(1,0,0,-1,144.0,135.0)"/>
 <path d="M330,140 l0,-140 l140,0 l0,281 c0,52,36,91,90,91 c32,0,55,-10,73,-24 l0,-7 c0,-130,71,-195,196,-195 c123,0,200,67,200,198 l0,218 l117,0 l0,-562 l141,0 l0,562 l104,0 l0,109 l-1421,0 l0,-109 l360,0 l0,-254 c0,-51,-32,-91,-84,-91 c-45,0,-79,31,-79,75 c0,60,49,92,115,78 l-22,121 c-118,11,-232,-57,-232,-197 c0,-116,85,-192,189,-192 c55,0,91,21,109,38 Z M633,562 l0,-80 c-15,3,-32,5,-51,5 c-43,0,-87,-18,-108,-39 l-4,0 l0,114 Z M890,562 l0,-230 c0,-49,-21,-67,-58,-67 c-35,0,-59,17,-59,66 l0,231 Z M890,562" fill="rgb(0,0,0)" transform="matrix(0.1,0.0,0.0,-0.1,8.0,135.0)"/>
</svg>