<?xml version="1.0" encoding="UTF-8"?>
<svg height="200.0" version="1.1" width="128.0" xmlns="http://www.w3.org/2000/svg" xmlns:xlink="http://www.w3.org/1999/xlink">
 <path d="M0,0 l128,0 l0,200 l-128,0 Z M0,0" fill="rgb(255,255,255)" transform="matrix(1,0,0,-1,0.0,200.0)"/>
 <path d="M0,0 l128,0" fill="none" stroke="rgb(229,229,229)" stroke-width="2" transform="matrix(1,0,0,-1,0.0,135.0)"/>
 <path d="M0,1 l0,-5" fill="none" stroke="rgb(204,204,204)" stroke-width="2" transform="matrix(1,0,0,-1,8.0,135.0)"/>
 <path d="M0,1 l0,-5" fill="none" stroke="rgb(204,204,204)" stroke-width="2" transform="matrix(1,0,0,-1,120.0,135.0)"/>
 <path d="M756,198 l0,110 l150,0 l0,-308 l141,0 l0,562 l105,0 l0,109 l-1182,0 l0,-109 l360,0 l0,-254 c0,-51,-32,-91,-84,-91 c-45,0,-79,31,-79,75 c0,60,49,92,115,78 l-22,121 c-118,11,-232,-57,-232,-197 c0,-116,85,-192,189,-192 c55,0,91,21,109,38 l4,0 l0,-140 l140,0 l0,281 c0,52,36,91,90,91 c6,0,12,-1,18,-1 c1,-115,53,-179,112,-205 Z M582,487 c-43,0,-87,-18,-108,-39 l-4,0 l0,114 l436,0 l0,-133 l-179,0 c-46,49,-105,58,-145,58 Z M582,487" fill="rgb(0,0,0)" transform="matrix(0.1,0.0,0.0,-0.1,8.0,135.0)"/>
</svg>