<?xml version="1.0" encoding="UTF-8"?>
<svg height="200.0" version="1.1" width="156.0" xmlns="http://www.w3.org/2000/svg" xmlns:xlink="http://www.w3.org/1999/xlink">
 <path d="M0,0 l156,0 l0,200 l-156,0 Z M0,0" fill="rgb(255,255,255)" transform="matrix(1,0,0,-1,0.0,200.0)"/>
 <path d="M0,0 l156,0" fill="none" stroke="rgb(229,229,229)" stroke-width="2" transform="matrix(1,0,0,-1,0.0,135.0)"/>
 <path d="M0,1 l0,-5" fill="none" stroke="rgb(204,204,204)" stroke-width="2" transform="matrix(1,0,0,-1,8.0,135.0)"/>
 <path d="M0,1 l0,-5" fill="none" stroke="rgb(204,204,204)" stroke-width="2" transform="matrix(1,0,0,-1,148.0,135.0)"/>
 <path d="M474,448 l-4,0 l0,114 l165,0 l0,-81 c-16,4,-33,6,-53,6 c-43,0,-87,-18,-108,-39 Z M330,140 l0,-140 l140,0 l0,281 c0,52,36,91,90,91 c34,0,57,-11,75,-25 c0,-101,51,-176,174,-176 c54,0,89,18,106,34 l4,0 l0,-205 l137,0 l0,268 c0,54,32,106,97,106 c44,0,75,-30,75,-74 c0,-57,-46,-94,-113,-79 l22,-121 c122,-11,230,62,230,202 c0,115,-82,189,-186,189 c-65,0,-102,-26,-121,-45 l-4,0 l0,116 l369,0 l0,109 l-1455,0 l0,-109 l360,0 l0,-254 c0,-51,-32,-91,-84,-91 c-45,0,-79,31,-79,75 c0,60,49,92,115,78 l-22,121 c-118,11,-232,-57,-232,-197 c0,-116,85,-192,189,-192 c55,0,91,21,109,38 Z M919,370 c0,-39,-21,-78,-83,-78 c-45,0,-60,25,-60,77 l0,193 l143,0 Z M52,4 c0,-40,33,-73,74,-73 c44,0,77,33,77,73 c0,45,-33,78,-77,78 c-41,0,-74,-33,-74,-78 Z M52,4" fill="rgb(0,0,0)" transform="matrix(0.1,0.0,0.0,-0.1,8.0,135.0)"/>
</svg>