<?xml version="1.0" encoding="UTF-8"?>
<svg height="200.0" version="1.1" width="134.0" xmlns="http://www.w3.org/2000/svg" xmlns:xlink="http://www.w3.org/1999/xlink">
 <path d="M0,0 l134,0 l0,200 l-134,0 Z M0,0" fill="rgb(255,255,255)" transform="matrix(1,0,0,-1,0.0,200.0)"/>
 <path d="M0,0 l134,0" fill="none" stroke="rgb(229,229,229)" stroke-width="2" transform="matrix(1,0,0,-1,0.0,135.0)"/>
 <path d="M0,1 l0,-5" fill="none" stroke="rgb(204,204,204)" stroke-width="2" transform="matrix(1,0,0,-1,8.0,135.0)"/>
 <path d="M0,1 l0,-5" fill="none" stroke="rgb(204,204,204)" stroke-width="2" transform="matrix(1,0,0,-1,126.0,135.0)"/>
 <path d="M839,397 c21,0,43,-2,67,-10 l-7,118 c-27,7,-45,9,-77,9 c-49,0,-98,-18,-137,-51 c-26,14,-58,24,-103,24 c-43,0,-87,-18,-108,-39 l-4,0 l0,114 l489,0 l0,-234 c0,-19,-4,-38,-13,-54 l-150,113 c13,7,28,10,43,10 Z M330,140 l0,-140 l140,0 l0,281 c0,52,36,91,90,91 c25,0,45,-6,60,-15 c-4,-18,-6,-36,-6,-56 c0,-119,86,-206,209,-206 c57,0,106,21,131,46 l4,0 l0,-141 l142,0 l0,562 l105,0 l0,109 l-1235,0 l0,-109 l360,0 l0,-254 c0,-51,-32,-91,-84,-91 c-45,0,-79,31,-79,75 c0,60,49,92,115,78 l-22,121 c-118,11,-232,-57,-232,-197 c0,-116,85,-192,189,-192 c55,0,91,21,109,38 Z M844,207 c-53,0,-98,39,-98,97 c0,14,3,26,7,37 l153,-115 c-18,-12,-39,-19,-62,-19 Z M844,207" fill="rgb(0,0,0)" transform="matrix(0.1,0.0,0.0,-0.1,8.0,135.0)"/>
</svg>