<?xml version="1.0" encoding="UTF-8"?>
<svg height="200.0" version="1.1" width="160.0" xmlns="http://www.w3.org/2000/svg" xmlns:xlink="http://www.w3.org/1999/xlink">
 <path d="M0,0 l160,0 l0,200 l-160,0 Z M0,0" fill="rgb(255,255,255)" transform="matrix(1,0,0,-1,0.0,200.0)"/>
 <path d="M0,0 l160,0" fill="none" stroke="rgb(229,229,229)" stroke-width="2" transform="matrix(1,0,0,-1,0.0,135.0)"/>
 <path d="M0,1 l0,-5" fill="none" stroke="rgb(204,204,204)" stroke-width="2" transform="matrix(1,0,0,-1,8.0,135.0)"/>
 <path d="M0,1 l0,-5" fill="none" stroke="rgb(204,204,204)" stroke-width="2" transform="matrix(1,0,0,-1,152.0,135.0)"/>
 <path d="M415,117 c-120,0,-203,66,-230,153 c9,-2,21,-3,29,-3 c79,0,135,47,135,154 l0,141 l464,0 l0,-150 c0,-30,-17,-42,-35,-42 c-19,0,-30,11,-43,31 c-30,66,-94,105,-171,105 c-107,0,-179,-73,-179,-168 c0,-93,65,-142,131,-150 l73,74 c-41,4,-83,26,-83,74 c0,35,26,60,63,60 c29,0,57,-15,68,-48 c1,-10,3,-20,5,-30 c0,0,0,-1,0,-3 c0,-113,-97,-198,-227,-198 Z M1229,88 l4,0 l0,-88 l128,0 l0,562 l105,0 l0,109 l-1496,0 l0,-109 l246,0 l0,-150 c0,-30,-14,-41,-32,-41 c-24,0,-43,16,-54,51 l-119,-42 c31,-196,162,-373,391,-373 c143,0,248,65,305,150 c60,-90,157,-153,288,-153 c132,0,205,56,234,84 Z M1229,481 c-16,10,-41,20,-83,20 c-94,0,-167,-71,-167,-166 c0,-93,70,-143,137,-152 l73,73 c-42,4,-86,28,-86,76 c0,35,26,61,63,61 c39,0,69,-28,69,-80 c0,-111,-98,-199,-227,-199 c-131,0,-205,73,-230,157 c9,-2,21,-3,29,-3 c79,0,139,46,139,153 l0,141 l287,0 l0,-81 Z M1229,481" fill="rgb(0,0,0)" transform="matrix(0.1,0.0,0.0,-0.1,8.0,135.0)"/>
</svg>