<?xml version="1.0" encoding="UTF-8"?>
<svg height="200.0" version="1.1" width="148.0" xmlns="http://www.w3.org/2000/svg" xmlns:xlink="http://www.w3.org/1999/xlink">
 <path d="M0,0 l148,0 l0,200 l-148,0 Z M0,0" fill="rgb(255,255,255)" transform="matrix(1,0,0,-1,0.0,200.0)"/>
 <path d="M0,0 l148,0" fill="none" stroke="rgb(229,229,229)" stroke-width="2" transform="matrix(1,0,0,-1,0.0,135.0)"/>
 <path d="M0,1 l0,-5" fill="none" stroke="rgb(204,204,204)" stroke-width="2" transform="matrix(1,0,0,-1,8.0,135.0)"/>
 <path d="M0,1 l0,-5" fill="none" stroke="rgb(204,204,204)" stroke-width="2" transform="matrix(1,0,0,-1,140.0,135.0)"/>
 <path d="M950,198 l0,110 l150,0 l0,-308 l141,0 l0,562 l105,0 l0,109 l-1376,0 l0,-109 l246,0 l0,-150 c0,-30,-14,-41,-32,-41 c-24,0,-43,16,-54,51 l-119,-42 c31,-196,162,-373,391,-373 c221,0,353,155,353,303 c0,119,-83,196,-191,196 c-107,0,-179,-73,-179,-168 c0,-93,65,-142,131,-150 l73,74 c-41,4,-83,26,-83,74 c0,35,26,60,63,60 c38,0,68,-26,68,-79 c0,-113,-92,-200,-222,-200 c-120,0,-203,66,-230,153 c9,-2,21,-3,29,-3 c79,0,135,47,135,154 l0,141 l751,0 l0,-133 l-231,0 l-97,-69 c0,-108,52,-167,112,-194 Z M950,198" fill="rgb(0,0,0)" transform="matrix(0.1,0.0,0.0,-0.1,8.0,135.0)"/>
</svg>