<?xml version="1.0" encoding="UTF-8"?>
<svg height="200.0" version="1.1" width="150.0" xmlns="http://www.w3.org/2000/svg" xmlns:xlink="http://www.w3.org/1999/xlink">
 <path d="M0,0 l150,0 l0,200 l-150,0 Z M0,0" fill="rgb(255,255,255)" transform="matrix(1,0,0,-1,0.0,200.0)"/>
 <path d="M0,0 l150,0" fill="none" stroke="rgb(229,229,229)" stroke-width="2" transform="matrix(1,0,0,-1,0.0,135.0)"/>
 <path d="M0,1 l0,-5" fill="none" stroke="rgb(204,204,204)" stroke-width="2" transform="matrix(1,0,0,-1,8.0,135.0)"/>
 <path d="M0,1 l0,-5" fill="none" stroke="rgb(204,204,204)" stroke-width="2" transform="matrix(1,0,0,-1,142.0,135.0)"/>
 <path d="M102,-66 c0,-38,32,-70,71,-70 c43,0,74,32,74,70 c0,44,-31,75,-74,75 c-39,0,-71,-31,-71,-75 Z M415,117 c-120,0,-203,66,-230,153 c9,-2,21,-3,29,-3 c79,0,135,47,135,154 l0,141 l491,0 l0,-153 c0,-36,-18,-50,-41,-50 c-24,0,-39,11,-61,38 c-30,68,-95,109,-174,109 c-107,0,-179,-73,-179,-168 c0,-93,65,-142,131,-150 l73,74 c-41,4,-83,26,-83,74 c0,35,26,60,63,60 c38,0,68,-26,68,-79 c0,-113,-92,-200,-222,-200 Z M1034,365 c-23,0,-42,2,-57,6 c2,11,3,23,3,37 l0,154 l137,0 l0,-182 c-25,-11,-54,-15,-83,-15 Z M1016,53 l-92,110 c-40,48,-60,69,-81,90 l0,4 c3,0,6,1,9,1 c25,3,48,11,68,23 c34,-25,76,-39,133,-39 c22,0,43,2,64,7 l0,-249 l143,0 l0,562 l105,0 l0,109 l-1395,0 l0,-109 l246,0 l0,-150 c0,-30,-14,-41,-32,-41 c-24,0,-43,16,-54,51 l-119,-42 c31,-196,162,-373,391,-373 c162,0,277,84,326,187 l173,-213 Z M1016,53" fill="rgb(0,0,0)" transform="matrix(0.1,0.0,0.0,-0.1,8.0,135.0)"/>
</svg>