<?xml version="1.0" encoding="UTF-8"?>
<svg height="200.0" version="1.1" width="140.0" xmlns="http://www.w3.org/2000/svg" xmlns:xlink="http://www.w3.org/1999/xlink">
 <path d="M0,0 l140,0 l0,200 l-140,0 Z M0,0" fill="rgb(255,255,255)" transform="matrix(1,0,0,-1,0.0,200.0)"/>
 <path d="M0,0 l140,0" fill="none" stroke="rgb(229,229,229)" stroke-width="2" transform="matrix(1,0,0,-1,0.0,135.0)"/>
 <path d="M0,1 l0,-5" fill="none" stroke="rgb(204,204,204)" stroke-width="2" transform="matrix(1,0,0,-1,8.0,135.0)"/>
 <path d="M0,1 l0,-5" fill="none" stroke="rgb(204,204,204)" stroke-width="2" transform="matrix(1,0,0,-1,133.0,135.0)"/>
 <path d="M1030,159 l0,-159 l141,0 l0,562 l105,0 l0,109 l-1306,0 l0,-109 l143,0 l0,-172 l-77,-57 c0,-48,21,-122,81,-165 l134,0 l0,394 l503,0 c19,-24,29,-63,29,-83 c0,-20,-6,-36,-16,-50 l-337,0 l-97,-69 c0,-108,52,-167,112,-194 l66,32 l0,110 l147,0 c27,-125,118,-196,233,-196 c61,0,109,20,135,47 Z M801,326 c65,12,122,62,122,134 c0,31,-10,70,-43,98 l0,4 l150,0 l0,-217 c0,-68,-40,-115,-118,-115 c-65,0,-103,39,-111,96 Z M801,326" fill="rgb(0,0,0)" transform="matrix(0.1,0.0,0.0,-0.1,8.0,135.0)"/>
</svg>