<?xml version="1.0" encoding="UTF-8"?>
<svg height="200.0" version="1.1" width="128.0" xmlns="http://www.w3.org/2000/svg" xmlns:xlink="http://www.w3.org/1999/xlink">
 <path d="M0,0 l128,0 l0,200 l-128,0 Z M0,0" fill="rgb(255,255,255)" transform="matrix(1,0,0,-1,0.0,200.0)"/>
 <path d="M0,0 l128,0" fill="none" stroke="rgb(229,229,229)" stroke-width="2" transform="matrix(1,0,0,-1,0.0,135.0)"/>
 <path d="M0,1 l0,-5" fill="none" stroke="rgb(204,204,204)" stroke-width="2" transform="matrix(1,0,0,-1,8.0,135.0)"/>
 <path d="M0,1 l0,-5" fill="none" stroke="rgb(204,204,204)" stroke-width="2" transform="matrix(1,0,0,-1,120.0,135.0)"/>
 <path d="M897,159 l4,0 l0,-159 l141,0 l0,562 l105,0 l0,109 l-1177,0 l0,-109 l655,0 c19,-24,29,-63,29,-83 c0,-40,-22,-65,-57,-82 c-41,42,-98,60,-150,65 l0,1 l-16,0 c-5,0,-9,0,-14,0 l-268,0 l-41,-88 l0,-10 c123,-30,185,-88,185,-137 c0,-50,-33,-74,-83,-74 c-11,0,-22,2,-32,4 l-109,94 c-40,-21,-56,-50,-56,-86 c0,-60,50,-105,136,-110 l138,-147 l139,67 l-144,94 l0,4 c74,-3,148,45,148,136 c0,81,-67,124,-135,139 l0,4 l114,0 c70,0,106,-22,130,-79 c35,-103,119,-162,223,-162 c61,0,109,20,135,47 Z M672,326 c65,12,122,62,122,134 c0,31,-10,70,-43,98 l0,4 l150,0 l0,-217 c0,-68,-40,-115,-118,-115 c-65,0,-103,39,-111,96 Z M672,326" fill="rgb(0,0,0)" transform="matrix(0.1,0.0,0.0,-0.1,8.0,135.0)"/>
</svg>