<?xml version="1.0" encoding="UTF-8"?>
<svg height="200.0" version="1.1" width="126.0" xmlns="http://www.w3.org/2000/svg" xmlns:xlink="http://www.w3.org/1999/xlink">
 <path d="M0,0 l126,0 l0,200 l-126,0 Z M0,0" fill="rgb(255,255,255)" transform="matrix(1,0,0,-1,0.0,200.0)"/>
 <path d="M0,0 l126,0" fill="none" stroke="rgb(229,229,229)" stroke-width="2" transform="matrix(1,0,0,-1,0.0,135.0)"/>
 <path d="M0,1 l0,-5" fill="none" stroke="rgb(204,204,204)" stroke-width="2" transform="matrix(1,0,0,-1,8.0,135.0)"/>
 <path d="M0,1 l0,-5" fill="none" stroke="rgb(204,204,204)" stroke-width="2" transform="matrix(1,0,0,-1,118.0,135.0)"/>
 <path d="M891,562 l0,-190 l-142,0 l0,190 Z M1029,0 l0,562 l105,0 l0,109 l-1164,0 l0,-109 l641,0 l0,-99 l-293,0 l-54,-99 l0,-10 c51,-20,78,-58,78,-96 c0,-40,-25,-60,-58,-60 c-92,0,-136,142,-143,271 l-126,-64 c14,-120,89,-327,280,-327 c109,0,181,67,181,165 c0,45,-17,84,-47,106 l0,4 l167,0 l-41,-32 c0,-48,26,-130,83,-172 l106,0 l0,100 l147,0 l0,-249 Z M1029,0" fill="rgb(0,0,0)" transform="matrix(0.1,0.0,0.0,-0.1,8.0,135.0)"/>
</svg>