<?xml version="1.0" encoding="UTF-8"?>
<svg height="200.0" version="1.1" width="132.0" xmlns="http://www.w3.org/2000/svg" xmlns:xlink="http://www.w3.org/1999/xlink">
 <path d="M0,0 l132,0 l0,200 l-132,0 Z M0,0" fill="rgb(255,255,255)" transform="matrix(1,0,0,-1,0.0,200.0)"/>
 <path d="M0,0 l132,0" fill="none" stroke="rgb(229,229,229)" stroke-width="2" transform="matrix(1,0,0,-1,0.0,135.0)"/>
 <path d="M0,1 l0,-5" fill="none" stroke="rgb(204,204,204)" stroke-width="2" transform="matrix(1,0,0,-1,8.0,135.0)"/>
 <path d="M0,1 l0,-5" fill="none" stroke="rgb(204,204,204)" stroke-width="2" transform="matrix(1,0,0,-1,124.0,135.0)"/>
 <path d="M512,305 c-13,0,-29,1,-42,3 c-17,20,-38,34,-63,42 l-163,-39 c-27,8,-40,33,-40,48 c0,21,3,37,61,37 l190,0 l0,166 l210,0 l0,-197 l-49,-38 c-32,-16,-69,-22,-104,-22 Z M380,191 c0,-54,-59,-76,-117,-76 l-14,0 l-157,96 c-33,-15,-54,-44,-54,-84 c0,-54,45,-118,169,-118 l178,-156 l145,77 l-169,100 l0,4 c87,17,147,77,147,159 c0,4,0,7,0,11 c14,-3,29,-4,44,-4 c26,0,57,3,87,12 c13,-24,31,-47,53,-63 l106,0 l0,100 l147,0 l0,-249 l138,0 l0,562 l105,0 l0,109 l-1218,0 l0,-109 l347,0 l0,-56 l-120,0 c-89,0,-135,-41,-135,-108 c0,-81,57,-169,169,-206 l133,34 c7,-4,16,-18,16,-35 Z M945,562 l0,-190 l-142,0 l0,190 Z M945,562" fill="rgb(0,0,0)" transform="matrix(0.1,0.0,0.0,-0.1,8.0,135.0)"/>
</svg>