<?xml version="1.0" encoding="UTF-8"?>
<svg height="200.0" version="1.1" width="76.0" xmlns="http://www.w3.org/2000/svg" xmlns:xlink="http://www.w3.org/1999/xlink">
 <path d="M0,0 l76,0 l0,200 l-76,0 Z M0,0" fill="rgb(255,255,255)" transform="matrix(1,0,0,-1,0.0,200.0)"/>
 <path d="M0,0 l76,0" fill="none" stroke="rgb(229,229,229)" stroke-width="2" transform="matrix(1,0,0,-1,0.0,135.0)"/>
 <path d="M0,1 l0,-5" fill="none" stroke="rgb(204,204,204)" stroke-width="2" transform="matrix(1,0,0,-1,8.0,135.0)"/>
 <path d="M0,1 l0,-5" fill="none" stroke="rgb(204,204,204)" stroke-width="2" transform="matrix(1,0,0,-1,68.0,135.0)"/>
 <path d="M511,354 c-38,-32,-120,-74,-200,-74 c-95,0,-130,41,-130,73 c0,36,23,58,86,66 l207,27 l0,116 l157,0 l0,109 l-661,0 l0,-109 l371,0 l0,-27 l-134,-17 c-107,-14,-164,-71,-164,-157 c0,-103,92,-196,270,-196 c10,0,20,0,31,1 l0,-24 l-134,-18 c-107,-14,-167,-72,-167,-158 c0,-103,93,-197,270,-197 c77,0,184,22,258,90 l-60,100 c-38,-32,-108,-74,-200,-74 c-96,0,-130,40,-130,73 c0,37,27,56,89,65 l204,28 l0,144 c36,14,70,33,97,59 Z M511,354" fill="rgb(0,0,0)" transform="matrix(0.1,0.0,0.0,-0.1,8.0,135.0)"/>
</svg>