<?xml version="1.0" encoding="UTF-8"?>
<svg height="200.0" version="1.1" width="138.0" xmlns="http://www.w3.org/2000/svg" xmlns:xlink="http://www.w3.org/1999/xlink">
 <path d="M0,0 l138,0 l0,200 l-138,0 Z M0,0" fill="rgb(255,255,255)" transform="matrix(1,0,0,-1,0.0,200.0)"/>
 <path d="M0,0 l138,0" fill="none" stroke="rgb(229,229,229)" stroke-width="2" transform="matrix(1,0,0,-1,0.0,135.0)"/>
 <path d="M0,1 l0,-5" fill="none" stroke="rgb(204,204,204)" stroke-width="2" transform="matrix(1,0,0,-1,8.0,135.0)"/>
 <path d="M0,1 l0,-5" fill="none" stroke="rgb(204,204,204)" stroke-width="2" transform="matrix(1,0,0,-1,129.0,135.0)"/>
 <path d="M992,94 l4,0 l0,-94 l141,0 l0,562 l105,0 l0,109 l-1272,0 l0,-109 l324,0 l0,-71 l-76,-21 c-126,-35,-181,-95,-181,-200 c0,-131,109,-245,271,-245 c173,0,267,115,267,234 c0,30,-5,58,-14,84 c67,49,124,56,159,56 c52,0,63,-23,63,-41 c0,-22,-16,-34,-37,-46 l-126,-73 c32,-122,116,-199,232,-199 c62,0,112,26,140,54 Z M868,148 c-54,0,-82,27,-91,62 c73,38,124,74,124,149 c0,96,-89,151,-202,151 c-93,0,-170,-43,-210,-71 c-15,12,-32,24,-51,34 l0,89 l558,0 l0,-292 c0,-67,-52,-122,-128,-122 Z M291,146 c-86,0,-119,52,-119,97 c0,50,15,87,121,114 l78,20 c44,-24,74,-64,74,-111 c0,-65,-54,-120,-154,-120 Z M291,146" fill="rgb(0,0,0)" transform="matrix(0.1,0.0,0.0,-0.1,8.0,135.0)"/>
</svg>