<?xml version="1.0" encoding="UTF-8"?>
<svg height="200.0" version="1.1" width="82.0" xmlns="http://www.w3.org/2000/svg" xmlns:xlink="http://www.w3.org/1999/xlink">
 <path d="M0,0 l82,0 l0,200 l-82,0 Z M0,0" fill="rgb(255,255,255)" transform="matrix(1,0,0,-1,0.0,200.0)"/>
 <path d="M0,0 l82,0" fill="none" stroke="rgb(229,229,229)" stroke-width="2" transform="matrix(1,0,0,-1,0.0,135.0)"/>
 <path d="M0,1 l0,-5" fill="none" stroke="rgb(204,204,204)" stroke-width="2" transform="matrix(1,0,0,-1,8.0,135.0)"/>
 <path d="M0,1 l0,-5" fill="none" stroke="rgb(204,204,204)" stroke-width="2" transform="matrix(1,0,0,-1,74.0,135.0)"/>
 <path d="M301,261 c-106,0,-128,41,-128,63 c0,25,11,43,83,61 l146,36 c39,-13,74,-32,74,-71 c0,-46,-52,-89,-175,-89 Z M516,-192 l0,382 c60,37,90,93,90,155 c0,84,-49,135,-137,167 l0,50 l216,0 l0,109 l-715,0 l0,-109 l366,0 l0,-32 l-145,-36 c-103,-26,-153,-67,-153,-151 c0,-68,40,-125,108,-161 c-41,-25,-64,-59,-64,-123 c0,-109,85,-180,190,-180 c58,0,92,19,110,37 l4,0 l0,-108 Z M215,61 c0,46,30,83,99,83 c20,0,48,-3,74,-8 l0,-48 c0,-55,-28,-99,-91,-99 c-45,0,-82,25,-82,72 Z M215,61" fill="rgb(0,0,0)" transform="matrix(0.1,0.0,0.0,-0.1,8.0,135.0)"/>
</svg>