<?xml version="1.0" encoding="UTF-8"?>
<svg height="200.0" version="1.1" width="128.0" xmlns="http://www.w3.org/2000/svg" xmlns:xlink="http://www.w3.org/1999/xlink">
 <path d="M0,0 l128,0 l0,200 l-128,0 Z M0,0" fill="rgb(255,255,255)" transform="matrix(1,0,0,-1,0.0,200.0)"/>
 <path d="M0,0 l128,0" fill="none" stroke="rgb(229,229,229)" stroke-width="2" transform="matrix(1,0,0,-1,0.0,135.0)"/>
 <path d="M0,1 l0,-5" fill="none" stroke="rgb(204,204,204)" stroke-width="2" transform="matrix(1,0,0,-1,8.0,135.0)"/>
 <path d="M0,1 l0,-5" fill="none" stroke="rgb(204,204,204)" stroke-width="2" transform="matrix(1,0,0,-1,121.0,135.0)"/>
 <path d="M907,102 l4,0 l0,-102 l141,0 l0,562 l105,0 l0,109 l-1187,0 l0,-109 l351,0 l0,-93 l-102,-27 c-117,-31,-185,-99,-185,-204 c0,-160,142,-263,289,-263 c124,0,200,76,200,180 c0,80,-66,145,-144,145 c-88,0,-132,-50,-147,-85 l79,-74 c5,29,26,45,50,45 c23,0,38,-15,38,-36 c0,-34,-25,-57,-71,-57 c-93,0,-153,67,-153,127 c0,56,24,88,118,111 l172,42 c87,20,149,34,184,34 c32,0,47,-14,47,-34 c0,-19,-11,-39,-83,-83 l-72,-40 c21,-123,110,-199,226,-199 c56,0,112,23,140,51 Z M465,485 l0,77 l446,0 l0,-281 c0,-67,-52,-122,-128,-122 c-54,0,-81,26,-91,63 c84,37,124,84,124,149 c0,94,-63,144,-164,144 c-65,0,-147,-17,-187,-30 Z M465,485" fill="rgb(0,0,0)" transform="matrix(0.1,0.0,0.0,-0.1,8.0,135.0)"/>
</svg>