<?xml version="1.0" encoding="UTF-8"?>
<svg height="200.0" version="1.1" width="124.0" xmlns="http://www.w3.org/2000/svg" xmlns:xlink="http://www.w3.org/1999/xlink">
 <path d="M0,0 l124,0 l0,200 l-124,0 Z M0,0" fill="rgb(255,255,255)" transform="matrix(1,0,0,-1,0.0,200.0)"/>
 <path d="M0,0 l124,0" fill="none" stroke="rgb(229,229,229)" stroke-width="2" transform="matrix(1,0,0,-1,0.0,135.0)"/>
 <path d="M0,1 l0,-5" fill="none" stroke="rgb(204,204,204)" stroke-width="2" transform="matrix(1,0,0,-1,8.0,135.0)"/>
 <path d="M0,1 l0,-5" fill="none" stroke="rgb(204,204,204)" stroke-width="2" transform="matrix(1,0,0,-1,116.0,135.0)"/>
 <path d="M256,146 c123,0,195,68,195,199 l0,217 l391,0 l0,-56 l-120,0 c-89,0,-135,-41,-135,-108 c0,-74,53,-160,166,-206 l136,36 c10,-8,19,-25,19,-42 c0,-50,-36,-79,-98,-79 c-81,0,-155,56,-193,141 l-90,-67 c36,-77,121,-189,280,-189 c138,0,226,86,226,196 c0,82,-44,142,-110,160 l-157,-36 c-32,13,-41,41,-41,55 c0,23,10,29,69,29 l186,0 l0,166 l126,0 l0,109 l-1136,0 l0,-109 l95,0 l0,-220 c0,-130,66,-196,191,-196 Z M205,562 l107,0 l0,-228 c0,-49,-16,-69,-53,-69 c-35,0,-54,19,-54,68 Z M205,562" fill="rgb(0,0,0)" transform="matrix(0.1,0.0,0.0,-0.1,8.0,135.0)"/>
</svg>