<?xml version="1.0" encoding="UTF-8"?>
<svg height="200.0" version="1.1" width="134.0" xmlns="http://www.w3.org/2000/svg" xmlns:xlink="http://www.w3.org/1999/xlink">
 <path d="M0,0 l134,0 l0,200 l-134,0 Z M0,0" fill="rgb(255,255,255)" transform="matrix(1,0,0,-1,0.0,200.0)"/>
 <path d="M0,0 l134,0" fill="none" stroke="rgb(229,229,229)" stroke-width="2" transform="matrix(1,0,0,-1,0.0,135.0)"/>
 <path d="M0,1 l0,-5" fill="none" stroke="rgb(204,204,204)" stroke-width="2" transform="matrix(1,0,0,-1,8.0,135.0)"/>
 <path d="M0,1 l0,-5" fill="none" stroke="rgb(204,204,204)" stroke-width="2" transform="matrix(1,0,0,-1,126.0,135.0)"/>
 <path d="M451,473 l-202,0 c-97,0,-206,-55,-206,-202 c0,-132,83,-233,158,-284 l101,88 c-71,50,-115,115,-115,191 c0,61,40,86,87,86 l80,0 c39,-186,161,-348,382,-348 c132,0,205,56,234,84 l4,0 l0,-88 l128,0 l0,562 l105,0 l0,109 l-1237,0 l0,-109 l584,0 l0,-150 c0,-30,-18,-42,-36,-42 c-19,0,-32,11,-43,32 Z M970,481 c-16,10,-41,20,-83,20 c-94,0,-167,-71,-167,-166 c0,-93,70,-143,137,-152 l73,73 c-42,4,-86,28,-86,76 c0,35,26,61,63,61 c39,0,69,-28,69,-80 c0,-111,-98,-199,-227,-199 c-119,0,-199,71,-226,156 c9,-2,21,-3,29,-3 c79,0,135,47,135,154 l0,141 l287,0 l0,-81 Z M970,481" fill="rgb(0,0,0)" transform="matrix(0.1,0.0,0.0,-0.1,8.0,135.0)"/>
</svg>