<?xml version="1.0" encoding="UTF-8"?>
<svg height="200.0" version="1.1" width="114.0" xmlns="http://www.w3.org/2000/svg" xmlns:xlink="http://www.w3.org/1999/xlink">
 <path d="M0,0 l114,0 l0,200 l-114,0 Z M0,0" fill="rgb(255,255,255)" transform="matrix(1,0,0,-1,0.0,200.0)"/>
 <path d="M0,0 l114,0" fill="none" stroke="rgb(229,229,229)" stroke-width="2" transform="matrix(1,0,0,-1,0.0,135.0)"/>
 <path d="M0,1 l0,-5" fill="none" stroke="rgb(204,204,204)" stroke-width="2" transform="matrix(1,0,0,-1,8.0,135.0)"/>
 <path d="M0,1 l0,-5" fill="none" stroke="rgb(204,204,204)" stroke-width="2" transform="matrix(1,0,0,-1,106.0,135.0)"/>
 <path d="M759,159 l0,-159 l141,0 l0,562 l105,0 l0,109 l-1035,0 l0,-109 l513,0 c19,-24,29,-63,29,-83 c0,-26,-10,-46,-27,-62 c-39,38,-101,56,-169,56 l-297,0 l0,-123 l94,0 l0,-4 c-20,-20,-38,-51,-38,-105 c0,-105,77,-201,155,-254 l101,87 c-71,50,-116,107,-116,182 c0,63,40,96,94,96 l10,0 c27,0,46,-5,63,-15 c19,-142,114,-225,238,-225 c61,0,109,20,135,47 Z M530,326 c65,12,122,62,122,134 c0,31,-10,70,-43,98 l0,4 l150,0 l0,-217 c0,-68,-40,-115,-118,-115 c-65,0,-103,39,-111,96 Z M530,326" fill="rgb(0,0,0)" transform="matrix(0.1,0.0,0.0,-0.1,8.0,135.0)"/>
</svg>