<?xml version="1.0" encoding="UTF-8"?>
<svg height="200.0" version="1.1" width="108.0" xmlns="http://www.w3.org/2000/svg" xmlns:xlink="http://www.w3.org/1999/xlink">
 <path d="M0,0 l108,0 l0,200 l-108,0 Z M0,0" fill="rgb(255,255,255)" transform="matrix(1,0,0,-1,0.0,200.0)"/>
 <path d="M0,0 l108,0" fill="none" stroke="rgb(229,229,229)" stroke-width="2" transform="matrix(1,0,0,-1,0.0,135.0)"/>
 <path d="M0,1 l0,-5" fill="none" stroke="rgb(204,204,204)" stroke-width="2" transform="matrix(1,0,0,-1,8.0,135.0)"/>
 <path d="M0,1 l0,-5" fill="none" stroke="rgb(204,204,204)" stroke-width="2" transform="matrix(1,0,0,-1,100.0,135.0)"/>
 <path d="M849,562 l105,0 l0,109 l-984,0 l0,-109 l738,0 l0,-235 c0,-63,-34,-117,-102,-117 c-49,0,-83,29,-83,79 c0,71,67,94,120,76 l-10,122 c-50,8,-98,3,-139,-14 l-475,0 l0,-123 l94,0 l0,-4 c-20,-20,-38,-51,-38,-105 c0,-105,77,-201,155,-254 l101,87 c-71,50,-116,107,-116,182 c0,63,40,96,94,96 l77,0 c-5,-19,-8,-40,-8,-63 c0,-119,89,-198,203,-198 c63,0,103,23,123,42 l4,0 l0,-133 l141,0 Z M849,562" fill="rgb(0,0,0)" transform="matrix(0.1,0.0,0.0,-0.1,8.0,135.0)"/>
</svg>