<?xml version="1.0" encoding="UTF-8"?>
<svg height="200.0" version="1.1" width="154.0" xmlns="http://www.w3.org/2000/svg" xmlns:xlink="http://www.w3.org/1999/xlink">
 <path d="M0,0 l154,0 l0,200 l-154,0 Z M0,0" fill="rgb(255,255,255)" transform="matrix(1,0,0,-1,0.0,200.0)"/>
 <path d="M0,0 l154,0" fill="none" stroke="rgb(229,229,229)" stroke-width="2" transform="matrix(1,0,0,-1,0.0,135.0)"/>
 <path d="M0,1 l0,-5" fill="none" stroke="rgb(204,204,204)" stroke-width="2" transform="matrix(1,0,0,-1,8.0,135.0)"/>
 <path d="M0,1 l0,-5" fill="none" stroke="rgb(204,204,204)" stroke-width="2" transform="matrix(1,0,0,-1,146.0,135.0)"/>
 <path d="M596,170 c36,0,66,5,93,13 c27,-84,90,-157,180,-203 l89,94 c-110,58,-143,135,-143,197 c0,69,33,88,60,88 c33,0,55,-25,55,-72 l0,-101 l128,0 l0,94 c0,54,18,80,59,80 c17,0,39,-8,48,-14 l0,-346 l142,0 l0,562 l105,0 l0,109 l-1442,0 l0,-109 l438,0 l0,-89 l-159,0 c-97,0,-206,-55,-206,-202 c0,-132,83,-233,158,-284 l101,88 c-71,50,-115,115,-115,191 c0,61,40,86,87,86 l134,0 c0,-98,55,-182,188,-182 Z M1161,458 c-18,18,-49,23,-73,23 c-39,0,-85,-25,-97,-79 l-4,0 c-20,48,-66,74,-127,74 c-84,0,-172,-52,-185,-170 c-18,-11,-38,-17,-59,-17 c-45,0,-67,24,-67,76 l0,197 l616,0 l0,-104 Z M1161,458" fill="rgb(0,0,0)" transform="matrix(0.1,0.0,0.0,-0.1,8.0,135.0)"/>
</svg>