<?xml version="1.0" encoding="UTF-8"?>
<svg height="200.0" version="1.1" width="152.0" xmlns="http://www.w3.org/2000/svg" xmlns:xlink="http://www.w3.org/1999/xlink">
 <path d="M0,0 l152,0 l0,200 l-152,0 Z M0,0" fill="rgb(255,255,255)" transform="matrix(1,0,0,-1,0.0,200.0)"/>
 <path d="M0,0 l152,0" fill="none" stroke="rgb(229,229,229)" stroke-width="2" transform="matrix(1,0,0,-1,0.0,135.0)"/>
 <path d="M0,1 l0,-5" fill="none" stroke="rgb(204,204,204)" stroke-width="2" transform="matrix(1,0,0,-1,8.0,135.0)"/>
 <path d="M0,1 l0,-5" fill="none" stroke="rgb(204,204,204)" stroke-width="2" transform="matrix(1,0,0,-1,144.0,135.0)"/>
 <path d="M765,365 c-23,0,-41,2,-57,5 c2,11,3,23,3,35 l0,157 l430,0 l0,-133 l-231,0 l-76,-54 c-22,-7,-45,-10,-69,-10 Z M574,257 c10,1,20,3,30,5 c17,4,33,10,47,19 c34,-25,76,-39,133,-39 c18,0,36,2,54,5 c21,-40,53,-66,87,-81 l66,32 l0,110 l150,0 l0,-308 l141,0 l0,562 l105,0 l0,109 l-1417,0 l0,-109 l601,0 l0,-154 c0,-36,-18,-49,-41,-49 c-28,0,-47,17,-73,52 c-1,2,-2,3,-3,4 l-47,58 l-158,0 c-97,0,-206,-55,-206,-202 c0,-132,83,-233,158,-284 l101,88 c-71,50,-115,115,-115,191 c0,61,40,86,87,86 l57,0 l46,-57 l255,-314 l115,72 l-92,110 c-40,48,-60,69,-81,90 Z M574,257" fill="rgb(0,0,0)" transform="matrix(0.1,0.0,0.0,-0.1,8.0,135.0)"/>
</svg>