<?xml version="1.0" encoding="UTF-8"?>
<svg height="200.0" version="1.1" width="76.0" xmlns="http://www.w3.org/2000/svg" xmlns:xlink="http://www.w3.org/1999/xlink">
 <path d="M0,0 l76,0 l0,200 l-76,0 Z M0,0" fill="rgb(255,255,255)" transform="matrix(1,0,0,-1,0.0,200.0)"/>
 <path d="M0,0 l76,0" fill="none" stroke="rgb(229,229,229)" stroke-width="2" transform="matrix(1,0,0,-1,0.0,135.0)"/>
 <path d="M0,1 l0,-5" fill="none" stroke="rgb(204,204,204)" stroke-width="2" transform="matrix(1,0,0,-1,8.0,135.0)"/>
 <path d="M0,1 l0,-5" fill="none" stroke="rgb(204,204,204)" stroke-width="2" transform="matrix(1,0,0,-1,67.0,135.0)"/>
 <path d="M460,46 l49,-56 l122,64 l-155,115 c26,26,42,52,42,92 c0,61,-39,90,-79,110 l-89,-33 l0,-99 c-17,-13,-39,-19,-61,-19 c-52,-1,-107,31,-107,90 c0,61,30,89,141,117 l135,34 l0,101 l158,0 l0,109 l-646,0 l0,-109 l356,0 l0,-4 l-99,-24 c-127,-31,-180,-92,-180,-197 c0,-78,35,-139,87,-180 l0,-44 l-56,-45 c0,-28,11,-87,60,-122 l108,0 l0,161 c17,-4,35,-6,53,-7 c16,0,33,1,50,3 l0,-128 l-278,-153 l94,-80 l180,122 l4,0 l0,-99 l112,0 l0,182 c-2,33,-3,66,-5,99 Z M460,46" fill="rgb(0,0,0)" transform="matrix(0.1,0.0,0.0,-0.1,8.0,135.0)"/>
</svg>