<?xml version="1.0" encoding="UTF-8"?>
<svg height="200.0" version="1.1" width="70.0" xmlns="http://www.w3.org/2000/svg" xmlns:xlink="http://www.w3.org/1999/xlink">
 <path d="M0,0 l70,0 l0,200 l-70,0 Z M0,0" fill="rgb(255,255,255)" transform="matrix(1,0,0,-1,0.0,200.0)"/>
 <path d="M0,0 l70,0" fill="none" stroke="rgb(229,229,229)" stroke-width="2" transform="matrix(1,0,0,-1,0.0,135.0)"/>
 <path d="M0,1 l0,-5" fill="none" stroke="rgb(204,204,204)" stroke-width="2" transform="matrix(1,0,0,-1,8.0,135.0)"/>
 <path d="M0,1 l0,-5" fill="none" stroke="rgb(204,204,204)" stroke-width="2" transform="matrix(1,0,0,-1,60.0,135.0)"/>
 <path d="M423,-139 l148,29 l-102,145 c20,19,32,43,32,69 c0,43,-23,69,-43,87 l-97,-25 l0,-76 c-20,-7,-43,-11,-69,-11 c-53,0,-77,21,-77,52 c0,61,94,82,176,92 l-35,105 c-18,-4,-62,-11,-94,-11 c-54,0,-76,21,-76,47 c0,29,24,48,99,48 l131,0 l0,150 l137,0 l0,109 l-583,0 l0,-109 l306,0 l0,-45 l-34,0 c-141,0,-196,-69,-196,-141 c0,-74,54,-118,106,-132 l0,-4 c-41,-23,-76,-59,-76,-116 c0,-82,65,-151,210,-151 c32,0,63,4,92,12 Z M423,-139" fill="rgb(0,0,0)" transform="matrix(0.1,0.0,0.0,-0.1,8.0,135.0)"/>
</svg>