<?xml version="1.0" encoding="UTF-8"?>
<svg height="200.0" version="1.1" width="88.0" xmlns="http://www.w3.org/2000/svg" xmlns:xlink="http://www.w3.org/1999/xlink">
 <path d="M0,0 l88,0 l0,200 l-88,0 Z M0,0" fill="rgb(255,255,255)" transform="matrix(1,0,0,-1,0.0,200.0)"/>
 <path d="M0,0 l88,0" fill="none" stroke="rgb(229,229,229)" stroke-width="2" transform="matrix(1,0,0,-1,0.0,135.0)"/>
 <path d="M0,1 l0,-5" fill="none" stroke="rgb(204,204,204)" stroke-width="2" transform="matrix(1,0,0,-1,8.0,135.0)"/>
 <path d="M0,1 l0,-5" fill="none" stroke="rgb(204,204,204)" stroke-width="2" transform="matrix(1,0,0,-1,78.0,135.0)"/>
 <path d="M508,55 l81,-156 l158,39 l-147,174 c26,26,42,52,42,92 c0,61,-39,90,-79,110 l-89,-33 l0,-99 c-17,-15,-38,-21,-61,-21 c-51,0,-107,33,-107,92 c0,58,35,90,141,117 l135,34 l0,158 l149,0 l0,109 l-761,0 l0,-109 l468,0 l0,-61 l-86,-21 c-127,-31,-176,-95,-176,-200 c0,-67,23,-113,54,-150 c-16,-29,-45,-68,-77,-68 c-28,0,-40,16,-40,38 c0,42,44,81,44,132 l-105,55 c0,-85,-53,-117,-53,-198 c0,-59,34,-109,123,-109 c7,0,32,3,38,4 c-1,-4,-2,-12,-2,-21 c0,-50,40,-110,142,-110 c114,0,182,96,204,202 Z M301,-61 c-29,0,-43,20,-43,40 c0,26,9,52,54,94 c22,-11,53,-18,77,-21 c-11,-67,-48,-113,-88,-113 Z M301,-61" fill="rgb(0,0,0)" transform="matrix(0.1,0.0,0.0,-0.1,8.0,135.0)"/>
</svg>