<?xml version="1.0" encoding="UTF-8"?>
<svg height="200.0" version="1.1" width="116.0" xmlns="http://www.w3.org/2000/svg" xmlns:xlink="http://www.w3.org/1999/xlink">
 <path d="M0,0 l116,0 l0,200 l-116,0 Z M0,0" fill="rgb(255,255,255)" transform="matrix(1,0,0,-1,0.0,200.0)"/>
 <path d="M0,0 l116,0" fill="none" stroke="rgb(229,229,229)" stroke-width="2" transform="matrix(1,0,0,-1,0.0,135.0)"/>
 <path d="M0,1 l0,-5" fill="none" stroke="rgb(204,204,204)" stroke-width="2" transform="matrix(1,0,0,-1,8.0,135.0)"/>
 <path d="M0,1 l0,-5" fill="none" stroke="rgb(204,204,204)" stroke-width="2" transform="matrix(1,0,0,-1,109.0,135.0)"/>
 <path d="M504,85 c30,-70,88,-116,166,-116 c58,0,96,22,123,46 l4,0 l0,-86 l141,0 l0,633 l87,0 l0,109 l-1055,0 l0,-109 l468,0 l0,-43 l-86,-21 c-127,-31,-176,-87,-176,-192 c0,-67,23,-109,54,-146 c-16,-29,-45,-68,-77,-68 c-28,0,-40,16,-40,38 c0,42,44,81,44,132 l-105,55 c0,-85,-53,-117,-53,-198 c0,-59,34,-109,123,-109 c7,0,32,3,38,4 c-1,-4,-2,-12,-2,-21 c0,-50,40,-110,142,-110 c114,0,182,96,204,202 Z M258,9 c0,26,9,52,54,94 c22,-11,53,-18,77,-21 c-11,-67,-48,-113,-88,-113 c-29,0,-43,20,-43,40 Z M601,144 c26,26,41,50,41,90 c0,61,-39,90,-79,110 l-89,-33 l0,-99 c-17,-15,-38,-21,-61,-21 c-51,0,-107,29,-107,88 c0,58,35,82,141,109 l135,34 l0,140 l215,0 l0,-370 c0,-69,-33,-113,-105,-113 c-56,0,-85,41,-91,65 Z M601,144" fill="rgb(0,0,0)" transform="matrix(0.1,0.0,0.0,-0.1,8.0,135.0)"/>
</svg>