<?xml version="1.0" encoding="UTF-8"?>
<svg height="200.0" version="1.1" width="94.0" xmlns="http://www.w3.org/2000/svg" xmlns:xlink="http://www.w3.org/1999/xlink">
 <path d="M0,0 l94,0 l0,200 l-94,0 Z M0,0" fill="rgb(255,255,255)" transform="matrix(1,0,0,-1,0.0,200.0)"/>
 <path d="M0,0 l94,0" fill="none" stroke="rgb(229,229,229)" stroke-width="2" transform="matrix(1,0,0,-1,0.0,135.0)"/>
 <path d="M0,1 l0,-5" fill="none" stroke="rgb(204,204,204)" stroke-width="2" transform="matrix(1,0,0,-1,8.0,135.0)"/>
 <path d="M0,1 l0,-5" fill="none" stroke="rgb(204,204,204)" stroke-width="2" transform="matrix(1,0,0,-1,86.0,135.0)"/>
 <path d="M668,404 l0,158 l146,0 l0,109 l-844,0 l0,-109 l554,0 l0,-61 l-86,-21 c-127,-31,-181,-95,-181,-200 c0,-79,36,-141,90,-182 l-71,-37 l-39,74 c-34,65,-81,81,-123,81 c-53,0,-100,-18,-145,-60 l58,-91 c26,26,49,32,61,32 c16,0,27,-7,38,-27 l37,-70 l-39,-76 c20,-40,66,-88,134,-97 l105,55 l-39,76 l169,86 c8,-1,16,-1,25,-1 c24,0,49,3,73,9 l65,-130 l158,39 l-128,151 c26,26,42,52,42,92 c0,61,-39,90,-79,110 l-89,-33 l0,-96 c-17,-15,-40,-22,-64,-22 c-51,0,-104,32,-104,90 c0,58,35,90,141,117 Z M668,404" fill="rgb(0,0,0)" transform="matrix(0.1,0.0,0.0,-0.1,8.0,135.0)"/>
</svg>