<?xml version="1.0" encoding="UTF-8"?>
<svg height="200.0" version="1.1" width="102.0" xmlns="http://www.w3.org/2000/svg" xmlns:xlink="http://www.w3.org/1999/xlink">
 <path d="M0,0 l102,0 l0,200 l-102,0 Z M0,0" fill="rgb(255,255,255)" transform="matrix(1,0,0,-1,0.0,200.0)"/>
 <path d="M0,0 l102,0" fill="none" stroke="rgb(229,229,229)" stroke-width="2" transform="matrix(1,0,0,-1,0.0,135.0)"/>
 <path d="M0,1 l0,-5" fill="none" stroke="rgb(204,204,204)" stroke-width="2" transform="matrix(1,0,0,-1,8.0,135.0)"/>
 <path d="M0,1 l0,-5" fill="none" stroke="rgb(204,204,204)" stroke-width="2" transform="matrix(1,0,0,-1,96.0,135.0)"/>
 <path d="M451,-7 c24,-15,53,-24,90,-24 c58,0,96,22,123,46 l4,0 l0,-86 l141,0 l0,633 l87,0 l0,109 l-926,0 l0,-109 l339,0 l0,-43 l-83,-21 c-127,-31,-179,-83,-179,-188 c0,-83,29,-137,81,-168 l0,-4 c-28,-16,-64,-51,-64,-112 c0,-88,69,-154,180,-154 c89,0,183,50,207,121 Z M194,30 c0,41,33,69,112,69 c11,0,44,-1,70,-3 c-11,-83,-60,-120,-117,-120 c-47,0,-65,25,-65,54 Z M472,142 c26,26,42,52,42,92 c0,61,-36,90,-76,110 l-92,-33 l0,-97 c-17,-13,-45,-20,-71,-20 c-49,0,-98,34,-98,89 c0,58,36,78,142,105 l134,34 l0,140 l215,0 l0,-370 c0,-69,-33,-113,-105,-113 c-55,0,-84,39,-91,63 Z M472,142" fill="rgb(0,0,0)" transform="matrix(0.1,0.0,0.0,-0.1,8.0,135.0)"/>
</svg>