<?xml version="1.0" encoding="UTF-8"?>
<svg height="200.0" version="1.1" width="102.0" xmlns="http://www.w3.org/2000/svg" xmlns:xlink="http://www.w3.org/1999/xlink">
 <path d="M0,0 l102,0 l0,200 l-102,0 Z M0,0" fill="rgb(255,255,255)" transform="matrix(1,0,0,-1,0.0,200.0)"/>
 <path d="M0,0 l102,0" fill="none" stroke="rgb(229,229,229)" stroke-width="2" transform="matrix(1,0,0,-1,0.0,135.0)"/>
 <path d="M0,1 l0,-5" fill="none" stroke="rgb(204,204,204)" stroke-width="2" transform="matrix(1,0,0,-1,8.0,135.0)"/>
 <path d="M0,1 l0,-5" fill="none" stroke="rgb(204,204,204)" stroke-width="2" transform="matrix(1,0,0,-1,95.0,135.0)"/>
 <path d="M559,312 c-32,13,-41,41,-41,55 c0,23,10,29,69,29 l186,0 l0,166 l126,0 l0,109 l-929,0 l0,-109 l665,0 l0,-56 l-120,0 c-74,0,-119,-29,-131,-77 l-277,0 l-97,-69 c0,-108,52,-167,112,-194 l66,32 l0,110 l217,0 c26,-46,73,-88,141,-116 l136,36 c10,-8,19,-25,19,-42 c0,-50,-36,-79,-98,-79 c-81,0,-155,56,-193,141 l-90,-67 c36,-77,121,-189,280,-189 c138,0,226,86,226,196 c0,82,-44,142,-110,160 Z M559,312" fill="rgb(0,0,0)" transform="matrix(0.1,0.0,0.0,-0.1,8.0,135.0)"/>
</svg>