<?xml version="1.0" encoding="UTF-8"?>
<svg height="200.0" version="1.1" width="154.0" xmlns="http://www.w3.org/2000/svg" xmlns:xlink="http://www.w3.org/1999/xlink">
 <path d="M0,0 l154,0 l0,200 l-154,0 Z M0,0" fill="rgb(255,255,255)" transform="matrix(1,0,0,-1,0.0,200.0)"/>
 <path d="M0,0 l154,0" fill="none" stroke="rgb(229,229,229)" stroke-width="2" transform="matrix(1,0,0,-1,0.0,135.0)"/>
 <path d="M0,1 l0,-5" fill="none" stroke="rgb(204,204,204)" stroke-width="2" transform="matrix(1,0,0,-1,8.0,135.0)"/>
 <path d="M0,1 l0,-5" fill="none" stroke="rgb(204,204,204)" stroke-width="2" transform="matrix(1,0,0,-1,147.0,135.0)"/>
 <path d="M317,671 l-347,0 l0,-109 l347,0 Z M612,78 c138,0,210,53,253,101 c42,-44,100,-67,166,-67 c61,0,109,20,135,47 l4,0 l0,-159 l141,0 l0,562 l105,0 l0,109 l-628,0 l0,-109 l106,0 c19,-24,29,-63,29,-83 c0,-63,-56,-90,-133,-105 c1,-27,5,-53,11,-76 c-21,-37,-64,-99,-171,-99 c-93,0,-134,64,-139,100 c22,3,43,7,63,13 c105,28,178,89,178,199 c0,99,-65,170,-179,170 c-108,0,-178,-69,-178,-154 c0,-36,11,-69,33,-92 l119,34 c-14,19,-17,35,-17,52 c0,28,18,45,43,45 c29,0,43,-19,43,-53 c0,-47,-33,-87,-135,-114 l-44,-12 c-44,20,-96,31,-159,31 l-155,0 l-97,-69 c0,-108,52,-167,112,-194 l66,32 l0,110 l81,0 c25,0,50,-4,73,-11 c33,-128,138,-208,274,-208 Z M941,326 c65,12,122,62,122,134 c0,31,-10,70,-43,98 l0,4 l150,0 l0,-217 c0,-68,-40,-115,-118,-115 c-65,0,-103,39,-111,96 Z M941,326" fill="rgb(0,0,0)" transform="matrix(0.1,0.0,0.0,-0.1,8.0,135.0)"/>
</svg>