<?xml version="1.0" encoding="UTF-8"?>
<svg height="200.0" version="1.1" width="106.0" xmlns="http://www.w3.org/2000/svg" xmlns:xlink="http://www.w3.org/1999/xlink">
 <path d="M0,0 l106,0 l0,200 l-106,0 Z M0,0" fill="rgb(255,255,255)" transform="matrix(1,0,0,-1,0.0,200.0)"/>
 <path d="M0,0 l106,0" fill="none" stroke="rgb(229,229,229)" stroke-width="2" transform="matrix(1,0,0,-1,0.0,135.0)"/>
 <path d="M0,1 l0,-5" fill="none" stroke="rgb(204,204,204)" stroke-width="2" transform="matrix(1,0,0,-1,8.0,135.0)"/>
 <path d="M0,1 l0,-5" fill="none" stroke="rgb(204,204,204)" stroke-width="2" transform="matrix(1,0,0,-1,97.0,135.0)"/>
 <path d="M669,96 c-11,-83,-60,-120,-117,-120 c-47,0,-65,25,-65,54 c0,41,33,69,112,69 c11,0,44,-1,70,-3 Z M740,-25 l35,-59 l148,52 l-154,178 c26,26,42,52,42,92 c0,61,-39,90,-79,110 l-89,-33 l0,-96 c-17,-13,-45,-20,-71,-20 c-49,0,-97,29,-97,84 c0,58,35,80,141,107 l135,34 l0,138 l153,0 l0,109 l-934,0 l0,-109 l637,0 l0,-41 l-86,-21 c-66,-16,-112,-38,-142,-71 l-272,0 l-97,-69 c0,-108,52,-167,112,-194 l66,32 l0,110 l152,0 c0,-81,29,-135,81,-166 l0,-4 c-28,-16,-64,-51,-64,-112 c0,-88,69,-154,180,-154 c101,0,170,53,199,103 Z M740,-25" fill="rgb(0,0,0)" transform="matrix(0.1,0.0,0.0,-0.1,8.0,135.0)"/>
</svg>