<?xml version="1.0" encoding="UTF-8"?>
<svg height="200.0" version="1.1" width="112.0" xmlns="http://www.w3.org/2000/svg" xmlns:xlink="http://www.w3.org/1999/xlink">
 <path d="M0,0 l112,0 l0,200 l-112,0 Z M0,0" fill="rgb(255,255,255)" transform="matrix(1,0,0,-1,0.0,200.0)"/>
 <path d="M0,0 l112,0" fill="none" stroke="rgb(229,229,229)" stroke-width="2" transform="matrix(1,0,0,-1,0.0,135.0)"/>
 <path d="M0,1 l0,-5" fill="none" stroke="rgb(204,204,204)" stroke-width="2" transform="matrix(1,0,0,-1,8.0,135.0)"/>
 <path d="M0,1 l0,-5" fill="none" stroke="rgb(204,204,204)" stroke-width="2" transform="matrix(1,0,0,-1,104.0,135.0)"/>
 <path d="M484,127 l0,-4 l-121,-68 l112,-95 l268,193 l4,0 l0,-153 l142,0 l0,562 l105,0 l0,109 l-313,0 l0,-109 l66,0 l0,-276 c-16,-27,-72,-79,-152,-79 c-70,0,-89,36,-89,66 c0,38,27,62,86,62 l63,0 l0,108 l-75,0 c-51,0,-78,23,-78,57 c0,37,35,61,54,69 l-19,102 l-567,0 l0,-109 l421,0 l0,-4 c-19,-13,-34,-36,-34,-68 c0,-35,15,-61,40,-78 l-290,0 l-97,-69 c0,-108,52,-167,112,-194 l66,32 l0,110 l177,0 c-2,-9,-3,-19,-3,-30 c0,-86,69,-129,122,-134 Z M484,127" fill="rgb(0,0,0)" transform="matrix(0.1,0.0,0.0,-0.1,8.0,135.0)"/>
</svg>