<?xml version="1.0" encoding="UTF-8"?>
<svg height="200.0" version="1.1" width="128.0" xmlns="http://www.w3.org/2000/svg" xmlns:xlink="http://www.w3.org/1999/xlink">
 <path d="M0,0 l128,0 l0,200 l-128,0 Z M0,0" fill="rgb(255,255,255)" transform="matrix(1,0,0,-1,0.0,200.0)"/>
 <path d="M0,0 l128,0" fill="none" stroke="rgb(229,229,229)" stroke-width="2" transform="matrix(1,0,0,-1,0.0,135.0)"/>
 <path d="M0,1 l0,-5" fill="none" stroke="rgb(204,204,204)" stroke-width="2" transform="matrix(1,0,0,-1,8.0,135.0)"/>
 <path d="M0,1 l0,-5" fill="none" stroke="rgb(204,204,204)" stroke-width="2" transform="matrix(1,0,0,-1,121.0,135.0)"/>
 <path d="M651,205 l0,-205 l137,0 l0,268 c0,54,32,106,97,106 c44,0,75,-30,75,-74 c0,-57,-46,-94,-113,-79 l22,-121 c122,-11,230,62,230,202 c0,115,-82,189,-186,189 c-65,0,-102,-26,-121,-45 l-4,0 l0,116 l369,0 l0,109 l-1187,0 l0,-109 l397,0 l0,-133 l-260,0 l-97,-69 c0,-108,52,-167,112,-194 l66,32 l0,110 l182,0 c13,-82,65,-137,171,-137 c54,0,89,18,106,34 Z M651,370 c0,-39,-21,-78,-83,-78 c-45,0,-60,25,-60,77 l0,193 l143,0 Z M651,370" fill="rgb(0,0,0)" transform="matrix(0.1,0.0,0.0,-0.1,8.0,135.0)"/>
</svg>