<?xml version="1.0" encoding="UTF-8"?>
<svg height="200.0" version="1.1" width="146.0" xmlns="http://www.w3.org/2000/svg" xmlns:xlink="http://www.w3.org/1999/xlink">
 <path d="M0,0 l146,0 l0,200 l-146,0 Z M0,0" fill="rgb(255,255,255)" transform="matrix(1,0,0,-1,0.0,200.0)"/>
 <path d="M0,0 l146,0" fill="none" stroke="rgb(229,229,229)" stroke-width="2" transform="matrix(1,0,0,-1,0.0,135.0)"/>
 <path d="M0,1 l0,-5" fill="none" stroke="rgb(204,204,204)" stroke-width="2" transform="matrix(1,0,0,-1,8.0,135.0)"/>
 <path d="M0,1 l0,-5" fill="none" stroke="rgb(204,204,204)" stroke-width="2" transform="matrix(1,0,0,-1,137.0,135.0)"/>
 <path d="M395,429 l-288,0 l-97,-69 c0,-108,52,-167,112,-194 l66,32 l0,110 l129,0 l265,-327 l115,72 l-92,110 c-40,48,-60,69,-81,90 l0,4 c10,1,20,3,30,5 c17,4,33,10,47,19 c34,-25,76,-39,133,-39 c19,0,38,2,56,5 c12,-121,118,-222,270,-222 c77,0,156,21,227,89 l-68,113 c-58,-61,-112,-81,-176,-81 c-86,0,-119,52,-119,97 c0,50,15,87,121,114 l145,37 l0,168 l131,0 l0,109 l-1351,0 l0,-109 l551,0 l0,-154 c0,-36,-18,-49,-41,-49 c-23,0,-39,11,-59,34 Z M715,365 c-23,0,-41,2,-57,5 c2,11,3,23,3,35 l0,157 l385,0 l0,-71 l-76,-21 c-63,-17,-108,-41,-137,-73 c-32,-25,-76,-32,-118,-32 Z M715,365" fill="rgb(0,0,0)" transform="matrix(0.1,0.0,0.0,-0.1,8.0,135.0)"/>
</svg>