<?xml version="1.0" encoding="UTF-8"?>
<svg height="200.0" version="1.1" width="106.0" xmlns="http://www.w3.org/2000/svg" xmlns:xlink="http://www.w3.org/1999/xlink">
 <path d="M0,0 l106,0 l0,200 l-106,0 Z M0,0" fill="rgb(255,255,255)" transform="matrix(1,0,0,-1,0.0,200.0)"/>
 <path d="M0,0 l106,0" fill="none" stroke="rgb(229,229,229)" stroke-width="2" transform="matrix(1,0,0,-1,0.0,135.0)"/>
 <path d="M0,1 l0,-5" fill="none" stroke="rgb(204,204,204)" stroke-width="2" transform="matrix(1,0,0,-1,8.0,135.0)"/>
 <path d="M0,1 l0,-5" fill="none" stroke="rgb(204,204,204)" stroke-width="2" transform="matrix(1,0,0,-1,98.0,135.0)"/>
 <path d="M278,289 c-45,0,-67,24,-67,76 l0,197 l470,0 l0,-89 l-125,0 c-86,0,-182,-43,-202,-156 c-22,-17,-48,-28,-76,-28 Z M609,75 c-71,50,-115,115,-115,191 c0,61,40,86,87,86 l100,0 l0,-352 l141,0 l0,562 l106,0 l0,109 l-958,0 l0,-109 l100,0 l0,-207 c0,-101,55,-185,188,-185 c40,0,75,6,104,17 c25,-91,88,-161,146,-200 Z M609,75" fill="rgb(0,0,0)" transform="matrix(0.1,0.0,0.0,-0.1,8.0,135.0)"/>
</svg>