<?xml version="1.0" encoding="UTF-8"?>
<svg height="200.0" version="1.1" width="148.0" xmlns="http://www.w3.org/2000/svg" xmlns:xlink="http://www.w3.org/1999/xlink">
 <path d="M0,0 l148,0 l0,200 l-148,0 Z M0,0" fill="rgb(255,255,255)" transform="matrix(1,0,0,-1,0.0,200.0)"/>
 <path d="M0,0 l148,0" fill="none" stroke="rgb(229,229,229)" stroke-width="2" transform="matrix(1,0,0,-1,0.0,135.0)"/>
 <path d="M0,1 l0,-5" fill="none" stroke="rgb(204,204,204)" stroke-width="2" transform="matrix(1,0,0,-1,8.0,135.0)"/>
 <path d="M0,1 l0,-5" fill="none" stroke="rgb(204,204,204)" stroke-width="2" transform="matrix(1,0,0,-1,140.0,135.0)"/>
 <path d="M827,257 c3,0,6,1,9,1 c25,3,48,11,68,23 c34,-25,76,-39,133,-39 c22,0,43,2,64,7 l0,-249 l143,0 l0,562 l105,0 l0,109 l-1379,0 l0,-109 l100,0 l0,-212 c0,-104,51,-179,174,-179 c54,0,89,18,106,34 l4,0 l0,-205 l137,0 l0,281 c0,58,28,82,58,82 c23,0,38,-16,55,-35 l281,-347 l115,72 l-92,110 c-40,48,-60,69,-81,90 Z M783,359 c-29,0,-45,16,-76,56 c-45,52,-79,63,-125,63 c-36,0,-66,-15,-87,-35 l-4,0 l0,119 l333,0 l0,-153 c0,-36,-18,-50,-41,-50 Z M354,370 c0,-39,-21,-78,-83,-78 c-45,0,-60,25,-60,77 l0,193 l143,0 Z M1018,365 c-23,0,-42,2,-57,6 c2,11,3,23,3,37 l0,154 l137,0 l0,-182 c-25,-11,-54,-15,-83,-15 Z M77,46 c0,-38,32,-70,71,-70 c43,0,74,32,74,70 c0,44,-31,75,-74,75 c-39,0,-71,-31,-71,-75 Z M77,46" fill="rgb(0,0,0)" transform="matrix(0.1,0.0,0.0,-0.1,8.0,135.0)"/>
</svg>