<?xml version="1.0" encoding="UTF-8"?>
<svg height="200.0" version="1.1" width="166.0" xmlns="http://www.w3.org/2000/svg" xmlns:xlink="http://www.w3.org/1999/xlink">
 <path d="M0,0 l166,0 l0,200 l-166,0 Z M0,0" fill="rgb(255,255,255)" transform="matrix(1,0,0,-1,0.0,200.0)"/>
 <path d="M0,0 l166,0" fill="none" stroke="rgb(229,229,229)" stroke-width="2" transform="matrix(1,0,0,-1,0.0,135.0)"/>
 <path d="M0,1 l0,-5" fill="none" stroke="rgb(204,204,204)" stroke-width="2" transform="matrix(1,0,0,-1,8.0,135.0)"/>
 <path d="M0,1 l0,-5" fill="none" stroke="rgb(204,204,204)" stroke-width="2" transform="matrix(1,0,0,-1,158.0,135.0)"/>
 <path d="M257,95 c75,0,145,30,192,88 c44,-60,108,-105,197,-105 c109,0,181,67,181,165 c0,45,-17,84,-47,106 l0,4 l63,0 c28,0,48,-5,63,-12 c17,-145,113,-229,238,-229 c61,0,109,20,135,47 l4,0 l0,-159 l141,0 l0,562 l105,0 l0,109 l-1559,0 l0,-109 l1037,0 c19,-24,29,-63,29,-83 c0,-30,-13,-52,-35,-69 c-39,40,-99,53,-154,53 l-178,0 l-54,-99 l0,-10 c51,-20,78,-58,78,-96 c0,-40,-25,-60,-58,-60 c-92,0,-136,142,-143,271 l-126,-64 c4,-34,13,-76,28,-117 c-4,-6,-10,-15,-17,-24 l-164,123 c14,6,29,10,45,10 c21,0,38,-1,62,-9 l-5,117 c-27,7,-45,9,-77,9 c-102,0,-207,-76,-207,-211 c0,-130,105,-208,226,-208 Z M262,207 c-53,0,-99,41,-99,99 c0,13,2,25,7,35 l157,-118 c-18,-10,-39,-16,-65,-16 Z M1054,326 c65,12,122,62,122,134 c0,31,-10,70,-43,98 l0,4 l150,0 l0,-217 c0,-68,-40,-115,-118,-115 c-65,0,-103,39,-111,96 Z M1054,326" fill="rgb(0,0,0)" transform="matrix(0.1,0.0,0.0,-0.1,8.0,135.0)"/>
</svg>