<?xml version="1.0" encoding="UTF-8"?>
<svg height="200.0" version="1.1" width="124.0" xmlns="http://www.w3.org/2000/svg" xmlns:xlink="http://www.w3.org/1999/xlink">
 <path d="M0,0 l124,0 l0,200 l-124,0 Z M0,0" fill="rgb(255,255,255)" transform="matrix(1,0,0,-1,0.0,200.0)"/>
 <path d="M0,0 l124,0" fill="none" stroke="rgb(229,229,229)" stroke-width="2" transform="matrix(1,0,0,-1,0.0,135.0)"/>
 <path d="M0,1 l0,-5" fill="none" stroke="rgb(204,204,204)" stroke-width="2" transform="matrix(1,0,0,-1,8.0,135.0)"/>
 <path d="M0,1 l0,-5" fill="none" stroke="rgb(204,204,204)" stroke-width="2" transform="matrix(1,0,0,-1,117.0,135.0)"/>
 <path d="M257,95 c56,0,110,16,155,47 c33,-66,89,-123,164,-162 l89,94 c-110,58,-143,135,-143,197 c0,69,33,88,60,88 c33,0,55,-25,55,-72 l0,-101 l128,0 l0,94 c0,54,18,80,59,80 c17,0,39,-8,48,-14 l0,-346 l142,0 l0,562 l105,0 l0,109 l-1149,0 l0,-109 l902,0 l0,-104 l-4,0 c-18,18,-49,23,-73,23 c-39,0,-85,-25,-97,-79 l-4,0 c-20,48,-66,74,-127,74 c-91,0,-186,-60,-186,-199 l0,-4 c-2,-2,-4,-5,-6,-7 l-162,121 c12,7,27,10,42,10 c21,0,43,-2,67,-10 l-7,118 c-27,7,-45,9,-77,9 c-102,0,-208,-78,-208,-213 c0,-137,107,-206,227,-206 Z M262,207 c-53,0,-100,39,-100,97 c0,14,3,26,7,37 l158,-117 c-18,-10,-40,-17,-65,-17 Z M262,207" fill="rgb(0,0,0)" transform="matrix(0.1,0.0,0.0,-0.1,8.0,135.0)"/>
</svg>