<?xml version="1.0" encoding="UTF-8"?>
<svg height="200.0" version="1.1" width="124.0" xmlns="http://www.w3.org/2000/svg" xmlns:xlink="http://www.w3.org/1999/xlink">
 <path d="M0,0 l124,0 l0,200 l-124,0 Z M0,0" fill="rgb(255,255,255)" transform="matrix(1,0,0,-1,0.0,200.0)"/>
 <path d="M0,0 l124,0" fill="none" stroke="rgb(229,229,229)" stroke-width="2" transform="matrix(1,0,0,-1,0.0,135.0)"/>
 <path d="M0,1 l0,-5" fill="none" stroke="rgb(204,204,204)" stroke-width="2" transform="matrix(1,0,0,-1,8.0,135.0)"/>
 <path d="M0,1 l0,-5" fill="none" stroke="rgb(204,204,204)" stroke-width="2" transform="matrix(1,0,0,-1,116.0,135.0)"/>
 <path d="M262,207 c-53,0,-100,39,-100,97 c0,14,3,26,7,37 l158,-117 c-18,-10,-40,-17,-65,-17 Z M257,95 c83,0,165,37,215,104 l177,-218 l115,72 l-92,110 c-40,48,-60,69,-81,90 l0,4 c3,0,6,1,9,1 c25,3,48,11,68,23 c34,-25,76,-39,133,-39 c22,0,43,2,64,7 l0,-249 l143,0 l0,562 l105,0 l0,109 l-1143,0 l0,-109 l618,0 l0,-153 c0,-36,-18,-50,-41,-50 c-29,0,-45,16,-76,56 l-106,-84 l31,-38 c-6,-8,-13,-17,-21,-27 l-162,121 c12,7,27,10,42,10 c21,0,43,-2,67,-10 l-7,118 c-27,7,-45,9,-77,9 c-102,0,-208,-78,-208,-213 c0,-137,107,-206,227,-206 Z M782,365 c-23,0,-42,2,-57,6 c2,11,3,23,3,37 l0,154 l137,0 l0,-182 c-25,-11,-54,-15,-83,-15 Z M782,365" fill="rgb(0,0,0)" transform="matrix(0.1,0.0,0.0,-0.1,8.0,135.0)"/>
</svg>