<?xml version="1.0" encoding="UTF-8"?>
<svg height="200.0" version="1.1" width="112.0" xmlns="http://www.w3.org/2000/svg" xmlns:xlink="http://www.w3.org/1999/xlink">
 <path d="M0,0 l112,0 l0,200 l-112,0 Z M0,0" fill="rgb(255,255,255)" transform="matrix(1,0,0,-1,0.0,200.0)"/>
 <path d="M0,0 l112,0" fill="none" stroke="rgb(229,229,229)" stroke-width="2" transform="matrix(1,0,0,-1,0.0,135.0)"/>
 <path d="M0,1 l0,-5" fill="none" stroke="rgb(204,204,204)" stroke-width="2" transform="matrix(1,0,0,-1,8.0,135.0)"/>
 <path d="M0,1 l0,-5" fill="none" stroke="rgb(204,204,204)" stroke-width="2" transform="matrix(1,0,0,-1,104.0,135.0)"/>
 <path d="M740,217 l0,-217 l141,0 l0,562 l105,0 l0,109 l-1016,0 l0,-109 l145,0 l0,-197 l-56,-44 c0,-48,26,-130,83,-172 l106,0 l0,100 l210,0 l0,2 c27,-50,78,-81,152,-81 c37,0,91,9,126,47 Z M434,562 l0,-190 l-181,0 l0,190 Z M740,407 c0,-70,-38,-118,-98,-118 c-45,0,-67,24,-67,76 l0,197 l165,0 Z M740,407" fill="rgb(0,0,0)" transform="matrix(0.1,0.0,0.0,-0.1,8.0,135.0)"/>
</svg>