<?xml version="1.0" encoding="UTF-8"?>
<svg height="200.0" version="1.1" width="114.0" xmlns="http://www.w3.org/2000/svg" xmlns:xlink="http://www.w3.org/1999/xlink">
 <path d="M0,0 l114,0 l0,200 l-114,0 Z M0,0" fill="rgb(255,255,255)" transform="matrix(1,0,0,-1,0.0,200.0)"/>
 <path d="M0,0 l114,0" fill="none" stroke="rgb(229,229,229)" stroke-width="2" transform="matrix(1,0,0,-1,0.0,135.0)"/>
 <path d="M0,1 l0,-5" fill="none" stroke="rgb(204,204,204)" stroke-width="2" transform="matrix(1,0,0,-1,8.0,135.0)"/>
 <path d="M0,1 l0,-5" fill="none" stroke="rgb(204,204,204)" stroke-width="2" transform="matrix(1,0,0,-1,105.0,135.0)"/>
 <path d="M760,0 l138,0 l0,562 l105,0 l0,109 l-316,0 l0,-109 l73,0 l0,-190 l-164,0 l0,136 c0,114,-70,163,-169,163 l-457,0 l0,-109 l145,0 l0,-197 l-56,-44 c0,-48,26,-130,83,-172 l106,0 l0,100 l168,0 c13,-37,36,-75,69,-100 l106,0 l0,100 l169,0 Z M458,500 l0,-128 l-205,0 l0,190 l142,0 c48,0,63,-19,63,-62 Z M458,500" fill="rgb(0,0,0)" transform="matrix(0.1,0.0,0.0,-0.1,8.0,135.0)"/>
</svg>