<?xml version="1.0" encoding="UTF-8"?>
<svg height="200.0" version="1.1" width="130.0" xmlns="http://www.w3.org/2000/svg" xmlns:xlink="http://www.w3.org/1999/xlink">
 <path d="M0,0 l130,0 l0,200 l-130,0 Z M0,0" fill="rgb(255,255,255)" transform="matrix(1,0,0,-1,0.0,200.0)"/>
 <path d="M0,0 l130,0" fill="none" stroke="rgb(229,229,229)" stroke-width="2" transform="matrix(1,0,0,-1,0.0,135.0)"/>
 <path d="M0,1 l0,-5" fill="none" stroke="rgb(204,204,204)" stroke-width="2" transform="matrix(1,0,0,-1,8.0,135.0)"/>
 <path d="M0,1 l0,-5" fill="none" stroke="rgb(204,204,204)" stroke-width="2" transform="matrix(1,0,0,-1,123.0,135.0)"/>
 <path d="M830,54 l-93,84 c-49,44,-98,77,-131,94 l0,4 c118,4,245,80,245,242 c0,102,-66,202,-215,202 c-108,0,-187,-75,-187,-162 c0,-68,36,-120,103,-138 l83,81 c-31,10,-47,34,-47,60 c0,24,18,48,54,48 c37,0,67,-32,67,-93 c0,-83,-58,-133,-144,-133 c-27,0,-59,5,-90,17 l-24,12 l-198,0 l0,190 l131,0 l0,109 l-414,0 l0,-109 l145,0 l0,-197 l-56,-44 c0,-48,26,-130,83,-172 l106,0 l0,100 l153,0 l67,-49 l245,-227 Z M1074,0 l0,562 l105,0 l0,109 l-247,0 l0,-671 Z M1074,0" fill="rgb(0,0,0)" transform="matrix(0.1,0.0,0.0,-0.1,8.0,135.0)"/>
</svg>