<?xml version="1.0" encoding="UTF-8"?>
<svg height="200.0" version="1.1" width="124.0" xmlns="http://www.w3.org/2000/svg" xmlns:xlink="http://www.w3.org/1999/xlink">
 <path d="M0,0 l124,0 l0,200 l-124,0 Z M0,0" fill="rgb(255,255,255)" transform="matrix(1,0,0,-1,0.0,200.0)"/>
 <path d="M0,0 l124,0" fill="none" stroke="rgb(229,229,229)" stroke-width="2" transform="matrix(1,0,0,-1,0.0,135.0)"/>
 <path d="M0,1 l0,-5" fill="none" stroke="rgb(204,204,204)" stroke-width="2" transform="matrix(1,0,0,-1,8.0,135.0)"/>
 <path d="M0,1 l0,-5" fill="none" stroke="rgb(204,204,204)" stroke-width="2" transform="matrix(1,0,0,-1,116.0,135.0)"/>
 <path d="M782,365 c-23,0,-42,2,-57,6 c2,11,3,23,3,37 l0,154 l137,0 l0,-182 c-25,-11,-54,-15,-83,-15 Z M547,359 c-29,0,-45,16,-76,56 l-54,-43 l-164,0 l0,190 l335,0 l0,-153 c0,-36,-18,-50,-41,-50 Z M591,257 c3,0,6,1,9,1 c25,3,48,11,68,23 c34,-25,76,-39,133,-39 c22,0,43,2,64,7 l0,-249 l143,0 l0,562 l105,0 l0,109 l-1143,0 l0,-109 l145,0 l0,-197 l-56,-44 c0,-48,26,-130,83,-172 l106,0 l0,100 l184,0 l217,-268 l115,72 l-92,110 c-40,48,-60,69,-81,90 Z M591,257" fill="rgb(0,0,0)" transform="matrix(0.1,0.0,0.0,-0.1,8.0,135.0)"/>
</svg>