<?xml version="1.0" encoding="UTF-8"?>
<svg height="200.0" version="1.1" width="120.0" xmlns="http://www.w3.org/2000/svg" xmlns:xlink="http://www.w3.org/1999/xlink">
 <path d="M0,0 l120,0 l0,200 l-120,0 Z M0,0" fill="rgb(255,255,255)" transform="matrix(1,0,0,-1,0.0,200.0)"/>
 <path d="M0,0 l120,0" fill="none" stroke="rgb(229,229,229)" stroke-width="2" transform="matrix(1,0,0,-1,0.0,135.0)"/>
 <path d="M0,1 l0,-5" fill="none" stroke="rgb(204,204,204)" stroke-width="2" transform="matrix(1,0,0,-1,8.0,135.0)"/>
 <path d="M0,1 l0,-5" fill="none" stroke="rgb(204,204,204)" stroke-width="2" transform="matrix(1,0,0,-1,111.0,135.0)"/>
 <path d="M215,476 c-91,0,-186,-60,-186,-199 c0,-122,73,-234,195,-297 l89,94 c-110,58,-143,135,-143,197 c0,69,33,86,60,86 c33,0,55,-22,55,-69 l0,-102 l128,0 l0,101 c0,49,27,73,67,73 c33,0,60,-9,78,-27 c22,-55,72,-108,153,-141 l136,36 c10,-8,19,-25,19,-42 c0,-50,-36,-79,-98,-79 c-76,0,-146,49,-186,126 l-86,-74 c41,-75,124,-167,269,-167 c138,0,226,86,226,196 c0,82,-44,142,-110,160 l-157,-36 c-32,13,-41,41,-41,55 c0,23,10,29,69,29 l186,0 l0,166 l126,0 l0,109 l-1094,0 l0,-109 l830,0 l0,-56 l-120,0 c-54,0,-92,-15,-114,-42 c-24,11,-54,18,-90,18 c-69,0,-118,-41,-130,-80 l-4,0 c-20,48,-66,74,-127,74 Z M215,476" fill="rgb(0,0,0)" transform="matrix(0.1,0.0,0.0,-0.1,8.0,135.0)"/>
</svg>