<?xml version="1.0" encoding="UTF-8"?>
<svg height="200.0" version="1.1" width="122.0" xmlns="http://www.w3.org/2000/svg" xmlns:xlink="http://www.w3.org/1999/xlink">
 <path d="M0,0 l122,0 l0,200 l-122,0 Z M0,0" fill="rgb(255,255,255)" transform="matrix(1,0,0,-1,0.0,200.0)"/>
 <path d="M0,0 l122,0" fill="none" stroke="rgb(229,229,229)" stroke-width="2" transform="matrix(1,0,0,-1,0.0,135.0)"/>
 <path d="M0,1 l0,-5" fill="none" stroke="rgb(204,204,204)" stroke-width="2" transform="matrix(1,0,0,-1,8.0,135.0)"/>
 <path d="M0,1 l0,-5" fill="none" stroke="rgb(204,204,204)" stroke-width="2" transform="matrix(1,0,0,-1,114.0,135.0)"/>
 <path d="M215,476 c-91,0,-186,-60,-186,-199 c0,-122,73,-234,195,-297 l89,94 c-110,58,-143,135,-143,197 c0,69,33,86,60,86 c33,0,55,-22,55,-69 l0,-102 l128,0 l0,101 c0,49,22,73,59,73 c14,0,25,-3,35,-8 c-3,-16,-5,-33,-5,-51 c0,-119,86,-206,209,-206 c57,0,106,21,131,46 l4,0 l0,-141 l142,0 l0,562 l105,0 l0,109 l-1123,0 l0,-109 l877,0 l0,-234 c0,-19,-4,-38,-13,-54 l-150,113 c13,7,28,10,43,10 c21,0,43,-2,67,-10 l-7,118 c-27,7,-45,9,-77,9 c-52,0,-105,-20,-144,-58 c-26,15,-58,26,-101,26 c-72,0,-107,-40,-119,-80 l-4,0 c-20,48,-66,74,-127,74 Z M732,207 c-53,0,-98,39,-98,97 c0,14,3,26,7,37 l153,-115 c-18,-12,-39,-19,-62,-19 Z M732,207" fill="rgb(0,0,0)" transform="matrix(0.1,0.0,0.0,-0.1,8.0,135.0)"/>
</svg>