<?xml version="1.0" encoding="UTF-8"?>
<svg height="200.0" version="1.1" width="174.0" xmlns="http://www.w3.org/2000/svg" xmlns:xlink="http://www.w3.org/1999/xlink">
 <path d="M0,0 l174,0 l0,200 l-174,0 Z M0,0" fill="rgb(255,255,255)" transform="matrix(1,0,0,-1,0.0,200.0)"/>
 <path d="M0,0 l174,0" fill="none" stroke="rgb(229,229,229)" stroke-width="2" transform="matrix(1,0,0,-1,0.0,135.0)"/>
 <path d="M0,1 l0,-5" fill="none" stroke="rgb(204,204,204)" stroke-width="2" transform="matrix(1,0,0,-1,8.0,135.0)"/>
 <path d="M0,1 l0,-5" fill="none" stroke="rgb(204,204,204)" stroke-width="2" transform="matrix(1,0,0,-1,166.0,135.0)"/>
 <path d="M215,476 c-91,0,-186,-60,-186,-199 c0,-122,73,-234,195,-297 l89,94 c-110,58,-143,135,-143,197 c0,69,33,86,60,86 c33,0,55,-22,55,-69 l0,-102 l128,0 l0,101 c0,49,22,73,59,73 c16,0,28,-4,39,-10 c-6,-22,-10,-46,-10,-73 c0,-122,73,-234,195,-297 l89,94 c-110,58,-143,135,-143,197 c0,69,33,86,60,86 c33,0,55,-22,55,-69 l0,-102 l128,0 l0,101 c0,49,16,73,53,73 c24,0,40,-17,48,-33 c22,-136,116,-215,237,-215 c61,0,109,20,135,47 l4,0 l0,-159 l141,0 l0,562 l105,0 l0,109 l-1638,0 l0,-109 l1116,0 c19,-24,29,-63,29,-83 c0,-34,-16,-57,-42,-74 c-28,47,-74,77,-133,77 c-70,0,-108,-42,-122,-80 l-4,0 c-20,48,-66,74,-127,74 c-37,0,-74,-10,-106,-31 c-26,20,-64,37,-116,37 c-72,0,-107,-40,-119,-80 l-4,0 c-20,48,-66,74,-127,74 Z M1133,326 c65,12,122,62,122,134 c0,31,-10,70,-43,98 l0,4 l150,0 l0,-217 c0,-68,-40,-115,-118,-115 c-65,0,-103,39,-111,96 Z M1133,326" fill="rgb(0,0,0)" transform="matrix(0.1,0.0,0.0,-0.1,8.0,135.0)"/>
</svg>