<?xml version="1.0" encoding="UTF-8"?>
<svg height="200.0" version="1.1" width="154.0" xmlns="http://www.w3.org/2000/svg" xmlns:xlink="http://www.w3.org/1999/xlink">
 <path d="M0,0 l154,0 l0,200 l-154,0 Z M0,0" fill="rgb(255,255,255)" transform="matrix(1,0,0,-1,0.0,200.0)"/>
 <path d="M0,0 l154,0" fill="none" stroke="rgb(229,229,229)" stroke-width="2" transform="matrix(1,0,0,-1,0.0,135.0)"/>
 <path d="M0,1 l0,-5" fill="none" stroke="rgb(204,204,204)" stroke-width="2" transform="matrix(1,0,0,-1,8.0,135.0)"/>
 <path d="M0,1 l0,-5" fill="none" stroke="rgb(204,204,204)" stroke-width="2" transform="matrix(1,0,0,-1,145.0,135.0)"/>
 <path d="M215,476 c-91,0,-186,-60,-186,-199 c0,-122,73,-234,195,-297 l89,94 c-110,58,-143,135,-143,197 c0,69,33,86,60,86 c33,0,55,-22,55,-69 l0,-102 l128,0 l0,101 c0,49,22,73,59,73 c14,0,26,-3,36,-9 c-5,-18,-8,-39,-8,-62 c0,-119,90,-199,217,-199 c51,0,90,13,119,31 c52,-60,145,-129,267,-129 c138,0,226,86,226,196 c0,82,-44,142,-110,160 l-148,-35 c-32,13,-41,40,-41,54 c0,23,10,29,69,29 l177,0 l0,166 l126,0 l0,109 l-1432,0 l0,-109 l1168,0 l0,-56 l-111,0 c-89,0,-135,-41,-135,-108 c0,-74,53,-159,166,-205 l127,35 c10,-8,19,-25,19,-42 c0,-50,-35,-78,-97,-78 c-82,0,-141,44,-189,97 l-62,71 l-22,0 c-16,-27,-45,-68,-105,-68 c-49,0,-84,30,-84,81 c0,52,36,81,81,81 c13,0,24,0,39,-5 l-10,122 c-16,3,-34,4,-48,4 c-47,0,-94,-14,-131,-41 c-27,17,-62,32,-111,32 c-72,0,-107,-40,-119,-80 l-4,0 c-20,48,-66,74,-127,74 Z M215,476" fill="rgb(0,0,0)" transform="matrix(0.1,0.0,0.0,-0.1,8.0,135.0)"/>
</svg>