<?xml version="1.0" encoding="UTF-8"?>
<svg height="200.0" version="1.1" width="134.0" xmlns="http://www.w3.org/2000/svg" xmlns:xlink="http://www.w3.org/1999/xlink">
 <path d="M0,0 l134,0 l0,200 l-134,0 Z M0,0" fill="rgb(255,255,255)" transform="matrix(1,0,0,-1,0.0,200.0)"/>
 <path d="M0,0 l134,0" fill="none" stroke="rgb(229,229,229)" stroke-width="2" transform="matrix(1,0,0,-1,0.0,135.0)"/>
 <path d="M0,1 l0,-5" fill="none" stroke="rgb(204,204,204)" stroke-width="2" transform="matrix(1,0,0,-1,5.0,135.0)"/>
 <path d="M0,1 l0,-5" fill="none" stroke="rgb(204,204,204)" stroke-width="2" transform="matrix(1,0,0,-1,126.0,135.0)"/>
 <path d="M833,17 c214,0,343,156,343,303 c0,79,-34,133,-88,160 l0,82 l152,0 l0,109 l-710,0 l0,-109 l66,0 l0,-4 c-18,-17,-35,-44,-35,-86 c0,-60,36,-110,103,-121 l0,-4 c-41,-15,-85,-54,-85,-135 c0,-103,93,-195,254,-195 Z M1015,303 c-27,9,-44,25,-44,50 c0,21,15,35,35,35 c26,0,46,-19,46,-66 c0,-101,-91,-188,-206,-188 c-81,0,-123,37,-123,84 c0,38,20,69,78,74 c5,1,11,1,17,1 l0,114 l-33,0 c-52,0,-78,32,-78,74 c0,43,26,81,86,81 l163,0 l0,-70 c-70,-17,-115,-72,-115,-137 c0,-75,51,-116,90,-130 Z M261,461 c-31,10,-47,34,-47,60 c0,24,18,48,54,48 c37,0,67,-32,67,-93 c0,-83,-58,-133,-144,-133 c-31,0,-69,6,-103,23 l-79,-104 l85,-62 l245,-227 l117,81 l-93,84 c-49,44,-98,77,-131,94 l0,4 c118,4,245,80,245,242 c0,102,-66,202,-215,202 c-108,0,-187,-75,-187,-162 c0,-68,36,-120,103,-138 Z M261,461" fill="rgb(0,0,0)" transform="matrix(0.1,0.0,0.0,-0.1,5.0,135.0)"/>
</svg>