<?xml version="1.0" encoding="UTF-8"?>
<svg height="200.0" version="1.1" width="118.0" xmlns="http://www.w3.org/2000/svg" xmlns:xlink="http://www.w3.org/1999/xlink">
 <path d="M0,0 l118,0 l0,200 l-118,0 Z M0,0" fill="rgb(255,255,255)" transform="matrix(1,0,0,-1,0.0,200.0)"/>
 <path d="M0,0 l118,0" fill="none" stroke="rgb(229,229,229)" stroke-width="2" transform="matrix(1,0,0,-1,0.0,135.0)"/>
 <path d="M0,1 l0,-5" fill="none" stroke="rgb(204,204,204)" stroke-width="2" transform="matrix(1,0,0,-1,5.0,135.0)"/>
 <path d="M0,1 l0,-5" fill="none" stroke="rgb(204,204,204)" stroke-width="2" transform="matrix(1,0,0,-1,109.0,135.0)"/>
 <path d="M546,562 l250,0 l0,-71 l-76,-21 c-126,-35,-181,-95,-181,-200 c0,-131,109,-245,271,-245 c77,0,156,21,227,89 l-68,113 c-58,-61,-112,-81,-176,-81 c-86,0,-119,52,-119,97 c0,50,15,87,121,114 l145,37 l0,168 l131,0 l0,109 l-525,0 Z M261,461 c-31,10,-47,34,-47,60 c0,24,18,48,54,48 c37,0,67,-32,67,-93 c0,-83,-58,-133,-144,-133 c-31,0,-69,6,-103,23 l-79,-104 l85,-62 l245,-227 l117,81 l-93,84 c-49,44,-98,77,-131,94 l0,4 c118,4,245,80,245,242 c0,102,-66,202,-215,202 c-108,0,-187,-75,-187,-162 c0,-68,36,-120,103,-138 Z M261,461" fill="rgb(0,0,0)" transform="matrix(0.1,0.0,0.0,-0.1,5.0,135.0)"/>
</svg>