<?xml version="1.0" encoding="UTF-8"?>
<svg height="200.0" version="1.1" width="128.0" xmlns="http://www.w3.org/2000/svg" xmlns:xlink="http://www.w3.org/1999/xlink">
 <path d="M0,0 l128,0 l0,200 l-128,0 Z M0,0" fill="rgb(255,255,255)" transform="matrix(1,0,0,-1,0.0,200.0)"/>
 <path d="M0,0 l128,0" fill="none" stroke="rgb(229,229,229)" stroke-width="2" transform="matrix(1,0,0,-1,0.0,135.0)"/>
 <path d="M0,1 l0,-5" fill="none" stroke="rgb(204,204,204)" stroke-width="2" transform="matrix(1,0,0,-1,8.0,135.0)"/>
 <path d="M0,1 l0,-5" fill="none" stroke="rgb(204,204,204)" stroke-width="2" transform="matrix(1,0,0,-1,120.0,135.0)"/>
 <path d="M285,275 c-45,0,-78,24,-78,76 l0,37 l-8,95 l59,-68 l96,-96 c0,-6,-1,-12,-1,-18 c-19,-15,-41,-26,-68,-26 Z M571,217 c-45,0,-79,31,-79,75 c0,60,49,92,115,78 l-22,121 c-82,8,-162,-23,-204,-90 l-157,161 l431,0 l0,-254 c0,-51,-32,-91,-84,-91 Z M956,298 c0,-60,-47,-93,-113,-79 l22,-121 c118,-11,230,58,230,198 c0,116,-83,191,-187,191 c-49,0,-87,-19,-109,-40 l-4,0 l0,115 l358,0 l0,109 l-1183,0 l0,-109 l101,0 l0,-221 c0,-107,60,-182,184,-182 c54,0,96,9,130,24 c34,-51,92,-81,157,-81 c55,0,91,21,109,38 l4,0 l0,-140 l140,0 l0,281 c0,51,34,91,86,91 c44,0,75,-30,75,-74 Z M956,298" fill="rgb(0,0,0)" transform="matrix(0.1,0.0,0.0,-0.1,8.0,135.0)"/>
</svg>