<?xml version="1.0" encoding="UTF-8"?>
<svg height="200.0" version="1.1" width="156.0" xmlns="http://www.w3.org/2000/svg" xmlns:xlink="http://www.w3.org/1999/xlink">
 <path d="M0,0 l156,0 l0,200 l-156,0 Z M0,0" fill="rgb(255,255,255)" transform="matrix(1,0,0,-1,0.0,200.0)"/>
 <path d="M0,0 l156,0" fill="none" stroke="rgb(229,229,229)" stroke-width="2" transform="matrix(1,0,0,-1,0.0,135.0)"/>
 <path d="M0,1 l0,-5" fill="none" stroke="rgb(204,204,204)" stroke-width="2" transform="matrix(1,0,0,-1,8.0,135.0)"/>
 <path d="M0,1 l0,-5" fill="none" stroke="rgb(204,204,204)" stroke-width="2" transform="matrix(1,0,0,-1,149.0,135.0)"/>
 <path d="M1331,0 l0,562 l105,0 l0,109 l-1466,0 l0,-109 l101,0 l0,-221 c0,-107,60,-182,184,-182 c49,0,88,8,120,20 c35,-90,129,-154,256,-154 c62,0,126,13,185,54 l-64,114 c-48,-30,-88,-47,-138,-47 c-86,0,-119,42,-119,87 c0,50,15,70,121,97 l145,37 c112,26,145,29,172,29 c29,0,43,-14,43,-34 c0,-19,-8,-43,-83,-84 l-79,-39 c27,-121,116,-199,232,-199 c58,0,113,24,140,53 l4,0 l0,-93 Z M1064,148 c-53,0,-83,32,-91,61 c82,36,122,94,122,151 c0,97,-77,146,-182,146 c-52,0,-112,-13,-152,-26 l0,82 l429,0 l0,-286 c0,-71,-43,-128,-126,-128 Z M224,562 l393,0 l0,-98 l-76,-21 c-62,-17,-107,-37,-137,-65 Z M285,275 c-45,0,-78,24,-78,76 l0,37 l-8,95 l59,-68 l106,-106 c-21,-19,-47,-34,-79,-34 Z M285,275" fill="rgb(0,0,0)" transform="matrix(0.1,0.0,0.0,-0.1,8.0,135.0)"/>
</svg>