<?xml version="1.0" encoding="UTF-8"?>
<svg height="200.0" version="1.1" width="170.0" xmlns="http://www.w3.org/2000/svg" xmlns:xlink="http://www.w3.org/1999/xlink">
 <path d="M0,0 l170,0 l0,200 l-170,0 Z M0,0" fill="rgb(255,255,255)" transform="matrix(1,0,0,-1,0.0,200.0)"/>
 <path d="M0,0 l170,0" fill="none" stroke="rgb(229,229,229)" stroke-width="2" transform="matrix(1,0,0,-1,0.0,135.0)"/>
 <path d="M0,1 l0,-5" fill="none" stroke="rgb(204,204,204)" stroke-width="2" transform="matrix(1,0,0,-1,8.0,135.0)"/>
 <path d="M0,1 l0,-5" fill="none" stroke="rgb(204,204,204)" stroke-width="2" transform="matrix(1,0,0,-1,162.0,135.0)"/>
 <path d="M1319,94 l4,0 l0,-94 l141,0 l0,562 l105,0 l0,109 l-1599,0 l0,-109 l101,0 l0,-221 c0,-107,60,-182,184,-182 c51,0,91,8,124,22 c37,-90,130,-156,253,-156 c173,0,267,115,267,234 c0,31,-5,60,-15,86 l3,-3 c68,50,125,57,160,57 c52,0,63,-23,63,-41 c0,-22,-16,-34,-37,-46 l-126,-73 c32,-122,116,-199,232,-199 c62,0,112,26,140,54 Z M224,562 l394,0 l0,-71 l-76,-21 c-69,-19,-117,-46,-146,-83 Z M285,275 c-45,0,-78,24,-78,76 l0,37 l-8,95 l59,-68 l106,-106 c-21,-19,-47,-34,-79,-34 Z M1195,148 c-54,0,-82,27,-91,62 c73,38,124,74,124,149 c0,96,-89,151,-202,151 c-95,0,-173,-44,-212,-72 c-15,13,-32,24,-52,35 l0,89 l561,0 l0,-292 c0,-67,-52,-122,-128,-122 Z M615,146 c-86,0,-119,52,-119,97 c0,50,15,87,121,114 l78,20 c44,-24,74,-64,74,-111 c0,-65,-54,-120,-154,-120 Z M615,146" fill="rgb(0,0,0)" transform="matrix(0.1,0.0,0.0,-0.1,8.0,135.0)"/>
</svg>