<?xml version="1.0" encoding="UTF-8"?>
<svg height="200.0" version="1.1" width="110.0" xmlns="http://www.w3.org/2000/svg" xmlns:xlink="http://www.w3.org/1999/xlink">
 <path d="M0,0 l110,0 l0,200 l-110,0 Z M0,0" fill="rgb(255,255,255)" transform="matrix(1,0,0,-1,0.0,200.0)"/>
 <path d="M0,0 l110,0" fill="none" stroke="rgb(229,229,229)" stroke-width="2" transform="matrix(1,0,0,-1,0.0,135.0)"/>
 <path d="M0,1 l0,-5" fill="none" stroke="rgb(204,204,204)" stroke-width="2" transform="matrix(1,0,0,-1,8.0,135.0)"/>
 <path d="M0,1 l0,-5" fill="none" stroke="rgb(204,204,204)" stroke-width="2" transform="matrix(1,0,0,-1,101.0,135.0)"/>
 <path d="M224,562 l216,0 l0,-197 l-13,-10 Z M285,275 c-45,0,-78,24,-78,76 l0,37 l-8,95 l59,-68 l106,-106 c-21,-19,-47,-34,-79,-34 Z M858,0 l0,562 l105,0 l0,109 l-993,0 l0,-109 l101,0 l0,-221 c0,-107,60,-182,184,-182 c75,0,127,18,164,44 c13,-21,29,-40,48,-54 l106,0 l0,100 l147,0 l0,-249 Z M720,562 l0,-190 l-142,0 l0,190 Z M720,562" fill="rgb(0,0,0)" transform="matrix(0.1,0.0,0.0,-0.1,8.0,135.0)"/>
</svg>