<?xml version="1.0" encoding="UTF-8"?>
<svg height="200.0" version="1.1" width="158.0" xmlns="http://www.w3.org/2000/svg" xmlns:xlink="http://www.w3.org/1999/xlink">
 <path d="M0,0 l158,0 l0,200 l-158,0 Z M0,0" fill="rgb(255,255,255)" transform="matrix(1,0,0,-1,0.0,200.0)"/>
 <path d="M0,0 l158,0" fill="none" stroke="rgb(229,229,229)" stroke-width="2" transform="matrix(1,0,0,-1,0.0,135.0)"/>
 <path d="M0,1 l0,-5" fill="none" stroke="rgb(204,204,204)" stroke-width="2" transform="matrix(1,0,0,-1,8.0,135.0)"/>
 <path d="M0,1 l0,-5" fill="none" stroke="rgb(204,204,204)" stroke-width="2" transform="matrix(1,0,0,-1,150.0,135.0)"/>
 <path d="M418,365 c-23,0,-41,2,-57,5 c2,11,3,23,3,35 l0,157 l565,0 c19,-24,29,-63,29,-83 c0,-32,-15,-55,-39,-72 c-43,51,-113,66,-177,66 l-36,0 c-61,0,-127,-22,-167,-74 c-32,-26,-79,-34,-121,-34 Z M227,257 c10,1,20,3,30,5 c17,4,33,10,47,19 c34,-25,76,-39,133,-39 c22,0,43,2,64,7 c9,-121,86,-214,157,-262 l101,88 c-71,50,-115,115,-115,191 c0,61,40,86,87,86 l6,0 c50,0,75,-14,93,-30 c24,-133,117,-210,236,-210 c61,0,109,20,135,47 l4,0 l0,-159 l141,0 l0,562 l105,0 l0,109 l-1481,0 l0,-109 l254,0 l0,-154 c0,-36,-18,-49,-41,-49 c-29,0,-48,18,-76,56 l-106,-84 l284,-350 l115,72 l-92,110 c-40,48,-60,69,-81,90 Z M976,326 c65,12,122,62,122,134 c0,31,-10,70,-43,98 l0,4 l150,0 l0,-217 c0,-68,-40,-115,-118,-115 c-65,0,-103,39,-111,96 Z M976,326" fill="rgb(0,0,0)" transform="matrix(0.1,0.0,0.0,-0.1,8.0,135.0)"/>
</svg>