<?xml version="1.0" encoding="UTF-8"?>
<svg height="200.0" version="1.1" width="132.0" xmlns="http://www.w3.org/2000/svg" xmlns:xlink="http://www.w3.org/1999/xlink">
 <path d="M0,0 l132,0 l0,200 l-132,0 Z M0,0" fill="rgb(255,255,255)" transform="matrix(1,0,0,-1,0.0,200.0)"/>
 <path d="M0,0 l132,0" fill="none" stroke="rgb(229,229,229)" stroke-width="2" transform="matrix(1,0,0,-1,0.0,135.0)"/>
 <path d="M0,1 l0,-5" fill="none" stroke="rgb(204,204,204)" stroke-width="2" transform="matrix(1,0,0,-1,8.0,135.0)"/>
 <path d="M0,1 l0,-5" fill="none" stroke="rgb(204,204,204)" stroke-width="2" transform="matrix(1,0,0,-1,125.0,135.0)"/>
 <path d="M400,53 l-92,110 c-40,48,-60,69,-81,90 l0,4 c10,1,20,3,30,5 c19,4,36,11,52,22 c35,-28,78,-44,139,-44 c21,0,41,2,62,6 c40,-106,133,-168,254,-168 c107,0,163,48,185,74 l4,0 l0,-152 l137,0 l0,562 l105,0 l0,109 l-245,0 l0,-299 c0,-88,-50,-173,-168,-173 c-94,0,-125,66,-131,100 c20,3,40,7,58,12 c108,27,183,88,183,200 c0,99,-65,170,-179,170 c-108,0,-178,-69,-178,-154 c0,-36,11,-69,33,-92 l119,34 c-14,19,-17,35,-17,52 c0,28,18,45,43,45 c29,0,43,-19,43,-53 c0,-47,-33,-87,-135,-114 l-134,-35 c-18,-5,-39,-6,-58,-6 c-29,0,-51,3,-68,8 c2,12,3,25,3,39 l0,157 l106,0 l0,109 l-500,0 l0,-109 l254,0 l0,-154 c0,-36,-18,-49,-41,-49 c-29,0,-48,18,-76,56 l-106,-84 l284,-350 Z M400,53" fill="rgb(0,0,0)" transform="matrix(0.1,0.0,0.0,-0.1,8.0,135.0)"/>
</svg>