<?xml version="1.0" encoding="UTF-8"?>
<svg height="200.0" version="1.1" width="128.0" xmlns="http://www.w3.org/2000/svg" xmlns:xlink="http://www.w3.org/1999/xlink">
 <path d="M0,0 l128,0 l0,200 l-128,0 Z M0,0" fill="rgb(255,255,255)" transform="matrix(1,0,0,-1,0.0,200.0)"/>
 <path d="M0,0 l128,0" fill="none" stroke="rgb(229,229,229)" stroke-width="2" transform="matrix(1,0,0,-1,0.0,135.0)"/>
 <path d="M0,1 l0,-5" fill="none" stroke="rgb(204,204,204)" stroke-width="2" transform="matrix(1,0,0,-1,8.0,135.0)"/>
 <path d="M0,1 l0,-5" fill="none" stroke="rgb(204,204,204)" stroke-width="2" transform="matrix(1,0,0,-1,121.0,135.0)"/>
 <path d="M418,365 c-23,0,-41,2,-57,5 c2,11,3,23,3,35 l0,157 l268,0 l0,-153 c0,-36,-18,-50,-41,-50 c-29,0,-45,16,-76,56 l-59,-47 c-13,-2,-25,-3,-38,-3 Z M227,257 c10,1,20,3,30,5 c17,4,33,10,47,19 c34,-25,76,-39,133,-39 c14,0,28,1,42,3 l214,-264 l115,72 l-92,110 c-40,48,-60,69,-81,90 l0,4 c3,0,6,1,9,1 c25,3,48,11,68,23 c34,-25,76,-39,133,-39 c22,0,43,2,64,7 l0,-249 l143,0 l0,562 l105,0 l0,109 l-1187,0 l0,-109 l254,0 l0,-154 c0,-36,-18,-49,-41,-49 c-29,0,-48,18,-76,56 l-106,-84 l284,-350 l115,72 l-92,110 c-40,48,-60,69,-81,90 Z M826,365 c-23,0,-42,2,-57,6 c2,11,3,23,3,37 l0,154 l137,0 l0,-182 c-25,-11,-54,-15,-83,-15 Z M826,365" fill="rgb(0,0,0)" transform="matrix(0.1,0.0,0.0,-0.1,8.0,135.0)"/>
</svg>