<?xml version="1.0" encoding="UTF-8"?>
<svg height="200.0" version="1.1" width="98.0" xmlns="http://www.w3.org/2000/svg" xmlns:xlink="http://www.w3.org/1999/xlink">
 <path d="M0,0 l98,0 l0,200 l-98,0 Z M0,0" fill="rgb(255,255,255)" transform="matrix(1,0,0,-1,0.0,200.0)"/>
 <path d="M0,0 l98,0" fill="none" stroke="rgb(229,229,229)" stroke-width="2" transform="matrix(1,0,0,-1,0.0,135.0)"/>
 <path d="M0,1 l0,-5" fill="none" stroke="rgb(204,204,204)" stroke-width="2" transform="matrix(1,0,0,-1,8.0,135.0)"/>
 <path d="M0,1 l0,-5" fill="none" stroke="rgb(204,204,204)" stroke-width="2" transform="matrix(1,0,0,-1,90.0,135.0)"/>
 <path d="M854,562 l0,109 l-884,0 l0,-109 l375,0 l0,-58 l-152,0 c-93,0,-150,-49,-150,-118 c0,-45,19,-91,73,-120 c-43,-36,-65,-84,-65,-134 c0,-126,84,-229,274,-274 l83,103 c-191,25,-221,115,-221,166 c0,50,32,92,119,92 l50,0 l0,-32 l-62,-54 c0,-46,30,-102,66,-127 l117,0 l0,70 l132,0 l0,-105 l140,0 l0,591 Z M178,361 c0,20,11,29,52,29 l251,0 l0,172 l128,0 l0,-372 l-128,0 l0,64 l-98,75 l-79,0 c-30,0,-61,-4,-86,-10 c-25,8,-40,25,-40,42 Z M178,361" fill="rgb(0,0,0)" transform="matrix(0.1,0.0,0.0,-0.1,8.0,135.0)"/>
</svg>