<?xml version="1.0" encoding="UTF-8"?>
<svg height="200.0" version="1.1" width="132.0" xmlns="http://www.w3.org/2000/svg" xmlns:xlink="http://www.w3.org/1999/xlink">
 <path d="M0,0 l132,0 l0,200 l-132,0 Z M0,0" fill="rgb(255,255,255)" transform="matrix(1,0,0,-1,0.0,200.0)"/>
 <path d="M0,0 l132,0" fill="none" stroke="rgb(229,229,229)" stroke-width="2" transform="matrix(1,0,0,-1,0.0,135.0)"/>
 <path d="M0,1 l0,-5" fill="none" stroke="rgb(204,204,204)" stroke-width="2" transform="matrix(1,0,0,-1,8.0,135.0)"/>
 <path d="M0,1 l0,-5" fill="none" stroke="rgb(204,204,204)" stroke-width="2" transform="matrix(1,0,0,-1,124.0,135.0)"/>
 <path d="M517,474 c-74,0,-122,-24,-155,-70 c-17,30,-59,70,-141,70 c-111,0,-194,-86,-194,-215 c0,-130,72,-216,187,-216 c71,0,120,25,155,71 c17,-31,59,-71,141,-71 c74,0,135,38,168,102 c36,-22,77,-33,123,-33 c61,0,109,20,135,47 l4,0 l0,-159 l141,0 l0,562 l105,0 l0,109 l-1216,0 l0,-109 l694,0 c19,-24,29,-63,29,-83 c0,-31,-13,-53,-35,-69 c-33,41,-81,64,-141,64 Z M220,158 c-44,0,-62,36,-62,101 c0,62,30,107,77,107 c34,0,63,-23,80,-62 c-14,-46,-32,-146,-95,-146 Z M496,151 c-34,0,-63,23,-80,62 c14,46,31,146,95,146 c44,0,62,-36,62,-101 c0,-62,-30,-107,-77,-107 Z M711,326 c65,12,122,62,122,134 c0,31,-10,70,-43,98 l0,4 l150,0 l0,-217 c0,-68,-40,-115,-118,-115 c-65,0,-103,39,-111,96 Z M711,326" fill="rgb(0,0,0)" transform="matrix(0.1,0.0,0.0,-0.1,8.0,135.0)"/>
</svg>