<?xml version="1.0" encoding="UTF-8"?>
<svg height="200.0" version="1.1" width="88.0" xmlns="http://www.w3.org/2000/svg" xmlns:xlink="http://www.w3.org/1999/xlink">
 <path d="M0,0 l88,0 l0,200 l-88,0 Z M0,0" fill="rgb(255,255,255)" transform="matrix(1,0,0,-1,0.0,200.0)"/>
 <path d="M0,0 l88,0" fill="none" stroke="rgb(229,229,229)" stroke-width="2" transform="matrix(1,0,0,-1,0.0,135.0)"/>
 <path d="M0,1 l0,-5" fill="none" stroke="rgb(204,204,204)" stroke-width="2" transform="matrix(1,0,0,-1,8.0,135.0)"/>
 <path d="M0,1 l0,-5" fill="none" stroke="rgb(204,204,204)" stroke-width="2" transform="matrix(1,0,0,-1,37.0,135.0)"/>
 <path d="M321,562 l0,109 l-105,0 l0,66 c0,73,47,110,140,110 c142,0,241,-62,299,-128 l87,86 c-46,55,-179,162,-384,162 c-172,0,-283,-82,-283,-230 l0,-66 l-105,0 l0,-109 l105,0 l0,-562 l141,0 l0,562 Z M321,562" fill="rgb(0,0,0)" transform="matrix(0.1,0.0,0.0,-0.1,8.0,135.0)"/>
</svg>