<?xml version="1.0" encoding="UTF-8"?>
<svg height="200.0" version="1.1" width="144.0" xmlns="http://www.w3.org/2000/svg" xmlns:xlink="http://www.w3.org/1999/xlink">
 <path d="M0,0 l144,0 l0,200 l-144,0 Z M0,0" fill="rgb(255,255,255)" transform="matrix(1,0,0,-1,0.0,200.0)"/>
 <path d="M0,0 l144,0" fill="none" stroke="rgb(229,229,229)" stroke-width="2" transform="matrix(1,0,0,-1,0.0,135.0)"/>
 <path d="M0,1 l0,-5" fill="none" stroke="rgb(204,204,204)" stroke-width="2" transform="matrix(1,0,0,-1,8.0,135.0)"/>
 <path d="M0,1 l0,-5" fill="none" stroke="rgb(204,204,204)" stroke-width="2" transform="matrix(1,0,0,-1,37.0,135.0)"/>
 <path d="M321,562 l0,109 l-105,0 l0,20 c0,93,59,156,346,156 c263,0,558,-53,702,-128 l47,104 c-131,75,-452,144,-747,144 c-367,0,-489,-113,-489,-276 l0,-20 l-105,0 l0,-109 l105,0 l0,-562 l141,0 l0,562 Z M321,562" fill="rgb(0,0,0)" transform="matrix(0.1,0.0,0.0,-0.1,8.0,135.0)"/>
</svg>