<?xml version="1.0" encoding="UTF-8"?>
<svg height="200.0" version="1.1" width="56.0" xmlns="http://www.w3.org/2000/svg" xmlns:xlink="http://www.w3.org/1999/xlink">
 <path d="M0,0 l56,0 l0,200 l-56,0 Z M0,0" fill="rgb(255,255,255)" transform="matrix(1,0,0,-1,0.0,200.0)"/>
 <path d="M0,0 l56,0" fill="none" stroke="rgb(229,229,229)" stroke-width="2" transform="matrix(1,0,0,-1,0.0,135.0)"/>
 <path d="M0,-4 l0,8" fill="none" stroke="rgb(255,76,25)" stroke-width="2" transform="matrix(1,0,0,-1,38.0,135.0)"/>
 <path d="M136,-252 c-20,120,-122,286,-292,286 c-101,0,-175,-62,-175,-155 c0,-83,60,-147,149,-147 c26,0,55,4,80,17 l0,111 c-17,-10,-38,-18,-58,-18 c-28,0,-45,17,-45,41 c0,27,21,44,49,44 c71,0,148,-87,171,-213 Z M136,-252" fill="rgb(0,0,0)" transform="matrix(0.1,0.0,0.0,-0.1,38.0,135.0)"/>
</svg>