<?xml version="1.0" encoding="UTF-8"?>
<svg height="200.0" version="1.1" width="52.0" xmlns="http://www.w3.org/2000/svg" xmlns:xlink="http://www.w3.org/1999/xlink">
 <path d="M0,0 l52,0 l0,200 l-52,0 Z M0,0" fill="rgb(255,255,255)" transform="matrix(1,0,0,-1,0.0,200.0)"/>
 <path d="M0,0 l52,0" fill="none" stroke="rgb(229,229,229)" stroke-width="2" transform="matrix(1,0,0,-1,0.0,135.0)"/>
 <path d="M0,-4 l0,8" fill="none" stroke="rgb(255,76,25)" stroke-width="2" transform="matrix(1,0,0,-1,37.0,135.0)"/>
 <path d="M105,-228 c-12,90,-88,257,-257,257 c-97,0,-168,-60,-168,-146 c0,-98,75,-145,150,-145 c21,0,44,4,63,12 l0,105 c-9,-7,-25,-11,-41,-11 c-22,0,-45,9,-45,35 c0,23,17,36,43,36 c66,0,117,-68,140,-175 Z M105,-228" fill="rgb(0,0,0)" transform="matrix(0.1,0.0,0.0,-0.1,37.0,135.0)"/>
</svg>