<?xml version="1.0" encoding="UTF-8"?>
<svg height="200.0" version="1.1" width="48.0" xmlns="http://www.w3.org/2000/svg" xmlns:xlink="http://www.w3.org/1999/xlink">
 <path d="M0,0 l48,0 l0,200 l-48,0 Z M0,0" fill="rgb(255,255,255)" transform="matrix(1,0,0,-1,0.0,200.0)"/>
 <path d="M0,0 l48,0" fill="none" stroke="rgb(229,229,229)" stroke-width="2" transform="matrix(1,0,0,-1,0.0,135.0)"/>
 <path d="M0,-4 l0,8" fill="none" stroke="rgb(255,76,25)" stroke-width="2" transform="matrix(1,0,0,-1,36.0,135.0)"/>
 <path d="M-60,-203 c-15,-4,-39,-8,-63,-8 c-33,0,-64,8,-64,36 c0,27,35,48,122,49 l-21,100 c-95,3,-226,-31,-226,-140 c0,-63,44,-96,93,-107 c-42,-11,-72,-46,-72,-92 c0,-93,88,-127,179,-127 c67,0,136,18,172,45 l-47,100 c-27,-22,-81,-38,-121,-38 c-30,0,-52,9,-52,30 c0,33,34,46,121,58 Z M-60,-203" fill="rgb(0,0,0)" transform="matrix(0.1,0.0,0.0,-0.1,36.0,135.0)"/>
</svg>