<?xml version="1.0" encoding="UTF-8"?>
<svg height="200.0" version="1.1" width="102.0" xmlns="http://www.w3.org/2000/svg" xmlns:xlink="http://www.w3.org/1999/xlink">
 <path d="M0,0 l102,0 l0,200 l-102,0 Z M0,0" fill="rgb(255,255,255)" transform="matrix(1,0,0,-1,0.0,200.0)"/>
 <path d="M0,0 l102,0" fill="none" stroke="rgb(229,229,229)" stroke-width="2" transform="matrix(1,0,0,-1,0.0,135.0)"/>
 <path d="M0,1 l0,-5" fill="none" stroke="rgb(204,204,204)" stroke-width="2" transform="matrix(1,0,0,-1,8.0,135.0)"/>
 <path d="M0,1 l0,-5" fill="none" stroke="rgb(204,204,204)" stroke-width="2" transform="matrix(1,0,0,-1,94.0,135.0)"/>
 <path d="M822,-140 l-62,251 c24,25,42,53,42,93 c0,61,-39,90,-79,110 l-89,-33 l0,-96 c-18,-16,-40,-22,-65,-22 c-51,0,-103,32,-103,90 c0,58,35,90,141,117 l135,34 l0,158 l144,0 l0,109 l-916,0 l0,-109 l628,0 l0,-61 l-86,-21 c-49,-12,-87,-29,-115,-51 l-290,0 l-97,-69 c0,-108,52,-167,112,-194 l66,32 l0,110 l144,0 c-1,-9,-1,-18,-1,-28 c0,-149,128,-237,262,-237 c24,0,47,3,71,9 l14,-112 Z M822,-140" fill="rgb(0,0,0)" transform="matrix(0.1,0.0,0.0,-0.1,8.0,135.0)"/>
</svg>