<?xml version="1.0" encoding="UTF-8"?>
<svg height="200.0" version="1.1" width="118.0" xmlns="http://www.w3.org/2000/svg" xmlns:xlink="http://www.w3.org/1999/xlink">
 <path d="M0,0 l118,0 l0,200 l-118,0 Z M0,0" fill="rgb(255,255,255)" transform="matrix(1,0,0,-1,0.0,200.0)"/>
 <path d="M0,0 l118,0" fill="none" stroke="rgb(229,229,229)" stroke-width="2" transform="matrix(1,0,0,-1,0.0,135.0)"/>
 <path d="M0,1 l0,-5" fill="none" stroke="rgb(204,204,204)" stroke-width="2" transform="matrix(1,0,0,-1,8.0,135.0)"/>
 <path d="M0,1 l0,-5" fill="none" stroke="rgb(204,204,204)" stroke-width="2" transform="matrix(1,0,0,-1,110.0,135.0)"/>
 <path d="M418,365 c-23,0,-41,2,-57,5 c2,11,3,23,3,35 l0,157 l393,0 l0,-61 l-86,-21 c-75,-18,-125,-48,-153,-91 c-29,-17,-64,-24,-100,-24 Z M981,-140 l-62,251 c24,25,42,53,42,93 c0,61,-39,90,-79,110 l-89,-33 l0,-96 c-18,-16,-40,-22,-65,-22 c-51,0,-103,32,-103,90 c0,58,35,90,141,117 l135,34 l0,158 l144,0 l0,109 l-1075,0 l0,-109 l254,0 l0,-154 c0,-36,-18,-49,-41,-49 c-29,0,-48,18,-76,56 l-106,-84 l284,-350 l115,72 l-92,110 c-40,48,-60,69,-81,90 l0,4 c10,1,20,3,30,5 c17,4,33,10,47,19 c34,-25,76,-39,133,-39 c19,0,37,2,55,5 c18,-129,136,-204,260,-204 c24,0,47,3,71,9 l14,-112 Z M981,-140" fill="rgb(0,0,0)" transform="matrix(0.1,0.0,0.0,-0.1,8.0,135.0)"/>
</svg>