<?xml version="1.0" encoding="UTF-8"?>
<svg height="200.0" version="1.1" width="134.0" xmlns="http://www.w3.org/2000/svg" xmlns:xlink="http://www.w3.org/1999/xlink">
 <path d="M0,0 l134,0 l0,200 l-134,0 Z M0,0" fill="rgb(255,255,255)" transform="matrix(1,0,0,-1,0.0,200.0)"/>
 <path d="M0,0 l134,0" fill="none" stroke="rgb(229,229,229)" stroke-width="2" transform="matrix(1,0,0,-1,0.0,135.0)"/>
 <path d="M0,1 l0,-5" fill="none" stroke="rgb(204,204,204)" stroke-width="2" transform="matrix(1,0,0,-1,8.0,135.0)"/>
 <path d="M0,1 l0,-5" fill="none" stroke="rgb(204,204,204)" stroke-width="2" transform="matrix(1,0,0,-1,126.0,135.0)"/>
 <path d="M262,212 c-53,0,-99,36,-99,94 c0,13,2,25,6,35 l156,-116 c-20,-9,-42,-13,-63,-13 Z M899,305 c-16,0,-37,2,-50,5 c-16,19,-37,33,-61,40 l-165,-39 c-27,8,-40,33,-40,48 c0,21,3,39,61,39 l190,0 l0,164 l136,0 l0,-248 c-23,-6,-47,-9,-71,-9 Z M852,-36 l-112,66 l0,4 c87,17,147,77,147,159 c0,4,0,8,0,12 c16,-3,34,-5,52,-5 c10,0,20,0,31,1 l0,-257 l136,0 l0,618 l105,0 l0,109 l-1241,0 l0,-109 l728,0 l0,-56 l-118,0 c-75,0,-119,-29,-131,-78 l-1,1 l0,-5 c-2,-7,-3,-14,-3,-24 c-9,-61,-33,-107,-65,-138 l-168,125 c13,7,28,10,43,10 c21,0,43,-2,67,-10 l-7,118 c-27,7,-45,9,-77,9 c-102,0,-207,-76,-207,-211 c0,-129,102,-203,226,-203 c102,0,201,48,250,155 c27,-27,62,-49,105,-63 l135,34 c7,-4,16,-18,16,-35 c0,-54,-61,-76,-119,-76 l-14,0 l-131,80 c-37,-22,-49,-51,-49,-79 c0,-53,51,-102,138,-107 l137,-120 Z M852,-36" fill="rgb(0,0,0)" transform="matrix(0.1,0.0,0.0,-0.1,8.0,135.0)"/>
</svg>