<?xml version="1.0" encoding="UTF-8"?>
<svg height="200.0" version="1.1" width="90.0" xmlns="http://www.w3.org/2000/svg" xmlns:xlink="http://www.w3.org/1999/xlink">
 <path d="M0,0 l90,0 l0,200 l-90,0 Z M0,0" fill="rgb(255,255,255)" transform="matrix(1,0,0,-1,0.0,200.0)"/>
 <path d="M0,0 l90,0" fill="none" stroke="rgb(229,229,229)" stroke-width="2" transform="matrix(1,0,0,-1,0.0,135.0)"/>
 <path d="M0,1 l0,-5" fill="none" stroke="rgb(204,204,204)" stroke-width="2" transform="matrix(1,0,0,-1,8.0,135.0)"/>
 <path d="M0,1 l0,-5" fill="none" stroke="rgb(204,204,204)" stroke-width="2" transform="matrix(1,0,0,-1,82.0,135.0)"/>
 <path d="M420,-20 l-138,90 l0,4 c74,-3,148,45,148,136 c0,81,-67,124,-135,139 l0,4 l226,0 l0,-403 l142,0 l0,612 l105,0 l0,109 l-798,0 l0,-109 l551,0 l0,-99 l-372,0 l-41,-88 l0,-10 c123,-30,185,-88,185,-137 c0,-50,-33,-74,-83,-74 c-11,0,-22,2,-32,4 l-109,94 c-40,-21,-56,-50,-56,-86 c0,-60,50,-105,136,-110 l134,-143 Z M420,-20" fill="rgb(0,0,0)" transform="matrix(0.1,0.0,0.0,-0.1,8.0,135.0)"/>
</svg>