<?xml version="1.0" encoding="UTF-8"?>
<svg height="200.0" version="1.1" width="42.0" xmlns="http://www.w3.org/2000/svg" xmlns:xlink="http://www.w3.org/1999/xlink">
 <path d="M0,0 l42,0 l0,200 l-42,0 Z M0,0" fill="rgb(255,255,255)" transform="matrix(1,0,0,-1,0.0,200.0)"/>
 <path d="M0,0 l42,0" fill="none" stroke="rgb(229,229,229)" stroke-width="2" transform="matrix(1,0,0,-1,0.0,135.0)"/>
 <path d="M0,-4 l0,8" fill="none" stroke="rgb(255,76,25)" stroke-width="2" transform="matrix(1,0,0,-1,34.0,135.0)"/>
 <path d="M-68,891 c35,0,57,-9,73,-18 l35,109 c-18,10,-61,26,-117,26 c-131,0,-208,-90,-208,-189 c0,-86,48,-137,76,-155 l130,0 l0,7 c-42,21,-82,66,-82,125 c0,58,44,95,93,95 Z M-102,771 c0,-33,28,-60,61,-60 c36,0,63,27,63,60 c0,37,-27,64,-63,64 c-33,0,-61,-27,-61,-64 Z M-102,771" fill="rgb(0,0,0)" transform="matrix(0.1,0.0,0.0,-0.1,34.0,135.0)"/>
</svg>