<?xml version="1.0" encoding="UTF-8"?>
<svg height="200.0" version="1.1" width="56.0" xmlns="http://www.w3.org/2000/svg" xmlns:xlink="http://www.w3.org/1999/xlink">
 <path d="M0,0 l56,0 l0,200 l-56,0 Z M0,0" fill="rgb(255,255,255)" transform="matrix(1,0,0,-1,0.0,200.0)"/>
 <path d="M0,0 l56,0" fill="none" stroke="rgb(229,229,229)" stroke-width="2" transform="matrix(1,0,0,-1,0.0,135.0)"/>
 <path d="M0,-4 l0,8" fill="none" stroke="rgb(255,76,25)" stroke-width="2" transform="matrix(1,0,0,-1,34.0,135.0)"/>
 <path d="M-17,1001 c-19,4,-38,7,-63,7 c-131,0,-208,-90,-208,-189 c0,-86,48,-137,76,-155 l130,0 l0,7 c-42,21,-82,66,-82,125 c0,58,44,95,93,95 c13,0,26,-1,36,-3 Z M-17,873 c0,-28,21,-50,50,-50 c30,0,51,22,51,50 c0,30,-21,52,-51,52 c-29,0,-50,-22,-50,-52 Z M33,704 c73,0,128,40,146,93 l-68,45 c-8,-24,-33,-55,-78,-55 c-45,0,-70,31,-78,55 l-68,-45 c18,-53,73,-93,146,-93 Z M33,704" fill="rgb(0,0,0)" transform="matrix(0.1,0.0,0.0,-0.1,34.0,135.0)"/>
</svg>