<?xml version="1.0" encoding="UTF-8"?>
<svg height="200.0" version="1.1" width="78.0" xmlns="http://www.w3.org/2000/svg" xmlns:xlink="http://www.w3.org/1999/xlink">
 <path d="M0,0 l78,0 l0,200 l-78,0 Z M0,0" fill="rgb(255,255,255)" transform="matrix(1,0,0,-1,0.0,200.0)"/>
 <path d="M0,0 l78,0" fill="none" stroke="rgb(229,229,229)" stroke-width="2" transform="matrix(1,0,0,-1,0.0,135.0)"/>
 <path d="M0,1 l0,-5" fill="none" stroke="rgb(204,204,204)" stroke-width="2" transform="matrix(1,0,0,-1,32.0,135.0)"/>
 <path d="M0,1 l0,-5" fill="none" stroke="rgb(204,204,204)" stroke-width="2" transform="matrix(1,0,0,-1,61.0,135.0)"/>
 <path d="M114,868 c-22,33,-83,99,-195,99 c-119,0,-188,-73,-188,-157 c0,-38,14,-76,42,-102 l131,26 c-25,23,-34,46,-34,69 c0,31,21,56,58,56 c79,0,139,-89,147,-188 l-105,0 l0,-109 l105,0 l0,-562 l141,0 l0,562 l105,0 l0,109 l-113,0 c-8,23,-14,61,-14,98 c0,64,37,120,108,120 c27,0,54,-7,74,-18 l39,109 c-18,10,-61,26,-117,26 c-97,0,-166,-63,-180,-138 Z M248,769 c0,-33,28,-60,61,-60 c36,0,63,27,63,60 c0,37,-27,64,-63,64 c-33,0,-61,-27,-61,-64 Z M248,769" fill="rgb(0,0,0)" transform="matrix(0.1,0.0,0.0,-0.1,32.0,135.0)"/>
</svg>