<?xml version="1.0" encoding="UTF-8"?>
<svg height="200.0" version="1.1" width="102.0" xmlns="http://www.w3.org/2000/svg" xmlns:xlink="http://www.w3.org/1999/xlink">
 <path d="M0,0 l102,0 l0,200 l-102,0 Z M0,0" fill="rgb(255,255,255)" transform="matrix(1,0,0,-1,0.0,200.0)"/>
 <path d="M0,0 l102,0" fill="none" stroke="rgb(229,229,229)" stroke-width="2" transform="matrix(1,0,0,-1,0.0,135.0)"/>
 <path d="M0,1 l0,-5" fill="none" stroke="rgb(204,204,204)" stroke-width="2" transform="matrix(1,0,0,-1,56.0,135.0)"/>
 <path d="M0,1 l0,-5" fill="none" stroke="rgb(204,204,204)" stroke-width="2" transform="matrix(1,0,0,-1,85.0,135.0)"/>
 <path d="M269,750 c73,0,128,40,146,93 l-68,45 c-8,-24,-33,-55,-78,-55 c-45,0,-70,31,-78,55 l-68,-45 c18,-53,73,-93,146,-93 Z M219,919 c0,-28,21,-50,50,-50 c30,0,51,22,51,50 c0,30,-21,52,-51,52 c-29,0,-50,-22,-50,-52 Z M321,562 l0,109 l-118,0 c-49,140,-201,305,-465,305 c-149,0,-244,-79,-244,-170 c0,-49,22,-81,42,-96 l125,26 c-20,18,-28,41,-28,62 c0,40,42,70,113,70 c170,0,279,-103,322,-197 l-98,0 l0,-109 l105,0 l0,-562 l141,0 l0,562 Z M321,562" fill="rgb(0,0,0)" transform="matrix(0.1,0.0,0.0,-0.1,56.0,135.0)"/>
</svg>