<?xml version="1.0" encoding="UTF-8"?>
<svg height="200.0" version="1.1" width="112.0" xmlns="http://www.w3.org/2000/svg" xmlns:xlink="http://www.w3.org/1999/xlink">
 <path d="M0,0 l112,0 l0,200 l-112,0 Z M0,0" fill="rgb(255,255,255)" transform="matrix(1,0,0,-1,0.0,200.0)"/>
 <path d="M0,0 l112,0" fill="none" stroke="rgb(229,229,229)" stroke-width="2" transform="matrix(1,0,0,-1,0.0,135.0)"/>
 <path d="M0,1 l0,-5" fill="none" stroke="rgb(204,204,204)" stroke-width="2" transform="matrix(1,0,0,-1,56.0,135.0)"/>
 <path d="M0,1 l0,-5" fill="none" stroke="rgb(204,204,204)" stroke-width="2" transform="matrix(1,0,0,-1,85.0,135.0)"/>
 <path d="M308,1038 c-9,1,-17,1,-26,1 c-111,0,-180,-75,-188,-186 c-1,-10,-1,-21,-1,-32 l-4,0 c-58,71,-199,155,-359,155 c-147,0,-236,-79,-236,-170 c0,-49,22,-81,42,-96 l133,26 c-24,15,-36,41,-36,62 c0,40,34,70,105,70 c144,0,271,-89,327,-197 l-95,0 l0,-109 l105,0 l0,-562 l141,0 l0,562 l105,0 l0,109 l-120,0 c-13,27,-20,80,-20,115 c0,99,48,136,105,136 c8,0,15,0,22,-1 Z M372,703 c73,0,128,40,146,93 l-68,45 c-8,-24,-33,-55,-78,-55 c-45,0,-70,31,-78,55 l-68,-45 c18,-53,73,-93,146,-93 Z M372,822 c30,0,51,22,51,50 c0,30,-21,52,-51,52 c-29,0,-50,-22,-50,-52 c0,-28,21,-50,50,-50 Z M372,822" fill="rgb(0,0,0)" transform="matrix(0.1,0.0,0.0,-0.1,56.0,135.0)"/>
</svg>