<?xml version="1.0" encoding="UTF-8"?>
<svg height="200.0" version="1.1" width="70.0" xmlns="http://www.w3.org/2000/svg" xmlns:xlink="http://www.w3.org/1999/xlink">
 <path d="M0,0 l70,0 l0,200 l-70,0 Z M0,0" fill="rgb(255,255,255)" transform="matrix(1,0,0,-1,0.0,200.0)"/>
 <path d="M0,0 l70,0" fill="none" stroke="rgb(229,229,229)" stroke-width="2" transform="matrix(1,0,0,-1,0.0,135.0)"/>
 <path d="M0,-4 l0,8" fill="none" stroke="rgb(255,76,25)" stroke-width="2" transform="matrix(1,0,0,-1,53.0,135.0)"/>
 <path d="M-81,664 l-245,293 l-158,-33 l85,-96 c60,-68,125,-127,187,-160 l7,-4 Z M-84,919 c0,-28,21,-50,50,-50 c30,0,51,22,51,50 c0,30,-21,52,-51,52 c-29,0,-50,-22,-50,-52 Z M-34,750 c73,0,128,40,146,93 l-68,45 c-8,-24,-33,-55,-78,-55 c-45,0,-70,31,-78,55 l-68,-45 c18,-53,73,-93,146,-93 Z M-34,750" fill="rgb(0,0,0)" transform="matrix(0.1,0.0,0.0,-0.1,53.0,135.0)"/>
</svg>