<?xml version="1.0" encoding="UTF-8"?>
<svg height="200.0" version="1.1" width="72.0" xmlns="http://www.w3.org/2000/svg" xmlns:xlink="http://www.w3.org/1999/xlink">
 <path d="M0,0 l72,0 l0,200 l-72,0 Z M0,0" fill="rgb(255,255,255)" transform="matrix(1,0,0,-1,0.0,200.0)"/>
 <path d="M0,0 l72,0" fill="none" stroke="rgb(229,229,229)" stroke-width="2" transform="matrix(1,0,0,-1,0.0,135.0)"/>
 <path d="M0,-4 l0,8" fill="none" stroke="rgb(255,76,25)" stroke-width="2" transform="matrix(1,0,0,-1,47.0,135.0)"/>
 <path d="M-76,664 l0,7 c-30,25,-59,82,-59,132 c0,77,51,129,119,115 l14,115 c-12,2,-24,3,-38,3 c-125,0,-180,-99,-176,-212 l-4,0 l-50,119 l-151,-25 l62,-84 c50,-68,101,-122,159,-170 Z M201,809 l-68,45 c-8,-24,-33,-55,-78,-55 c-45,0,-70,31,-78,55 l-68,-45 c18,-53,73,-93,146,-93 c73,0,128,40,146,93 Z M106,885 c0,30,-21,52,-51,52 c-29,0,-50,-22,-50,-52 c0,-28,21,-50,50,-50 c30,0,51,22,51,50 Z M106,885" fill="rgb(0,0,0)" transform="matrix(0.1,0.0,0.0,-0.1,47.0,135.0)"/>
</svg>