<?xml version="1.0" encoding="UTF-8"?>
<svg height="200.0" version="1.1" width="78.0" xmlns="http://www.w3.org/2000/svg" xmlns:xlink="http://www.w3.org/1999/xlink">
 <path d="M0,0 l78,0 l0,200 l-78,0 Z M0,0" fill="rgb(255,255,255)" transform="matrix(1,0,0,-1,0.0,200.0)"/>
 <path d="M0,0 l78,0" fill="none" stroke="rgb(229,229,229)" stroke-width="2" transform="matrix(1,0,0,-1,0.0,135.0)"/>
 <path d="M0,-4 l0,8" fill="none" stroke="rgb(255,76,25)" stroke-width="2" transform="matrix(1,0,0,-1,62.0,135.0)"/>
 <path d="M-170,665 l-280,292 l-121,-76 c104,-100,302,-232,403,-285 l99,57 l-119,312 l-151,-33 l172,-265 Z M-75,845 c0,-47,38,-85,86,-85 c51,0,89,38,89,85 c0,52,-38,90,-89,90 c-48,0,-86,-38,-86,-90 Z M-75,845" fill="rgb(0,0,0)" transform="matrix(0.1,0.0,0.0,-0.1,62.0,135.0)"/>
</svg>