<?xml version="1.0" encoding="UTF-8"?>
<svg height="200.0" version="1.1" width="64.0" xmlns="http://www.w3.org/2000/svg" xmlns:xlink="http://www.w3.org/1999/xlink">
 <path d="M0,0 l64,0 l0,200 l-64,0 Z M0,0" fill="rgb(255,255,255)" transform="matrix(1,0,0,-1,0.0,200.0)"/>
 <path d="M0,0 l64,0" fill="none" stroke="rgb(229,229,229)" stroke-width="2" transform="matrix(1,0,0,-1,0.0,135.0)"/>
 <path d="M0,-4 l0,8" fill="none" stroke="rgb(255,76,25)" stroke-width="2" transform="matrix(1,0,0,-1,53.0,135.0)"/>
 <path d="M-79,650 l5,3 c-26,31,-43,75,-43,115 c0,55,31,103,109,103 c16,0,32,-3,46,-7 l14,113 c-17,4,-48,9,-66,9 c-106,0,-142,-66,-142,-142 l-4,0 l-25,101 l-131,-26 l156,-252 l-13,-5 l-184,195 l-127,-62 c102,-79,238,-161,311,-199 Z M48,769 c0,37,-27,64,-63,64 c-33,0,-61,-27,-61,-64 c0,-33,28,-60,61,-60 c36,0,63,27,63,60 Z M48,769" fill="rgb(0,0,0)" transform="matrix(0.1,0.0,0.0,-0.1,53.0,135.0)"/>
</svg>