<?xml version="1.0" encoding="UTF-8"?>
<svg height="200.0" version="1.1" width="58.0" xmlns="http://www.w3.org/2000/svg" xmlns:xlink="http://www.w3.org/1999/xlink">
 <path d="M0,0 l58,0 l0,200 l-58,0 Z M0,0" fill="rgb(255,255,255)" transform="matrix(1,0,0,-1,0.0,200.0)"/>
 <path d="M0,0 l58,0" fill="none" stroke="rgb(229,229,229)" stroke-width="2" transform="matrix(1,0,0,-1,0.0,135.0)"/>
 <path d="M0,1 l0,-5" fill="none" stroke="rgb(204,204,204)" stroke-width="2" transform="matrix(1,0,0,-1,14.0,135.0)"/>
 <path d="M0,1 l0,-5" fill="none" stroke="rgb(204,204,204)" stroke-width="2" transform="matrix(1,0,0,-1,43.0,135.0)"/>
 <path d="M321,562 l0,109 l-351,0 l0,-109 l105,0 l0,-562 l141,0 l0,562 Z M146,734 c125,0,207,65,240,153 l-108,53 c-20,-60,-64,-93,-132,-93 c-68,0,-112,33,-132,93 l-108,-53 c33,-88,115,-153,240,-153 Z M67,987 c0,-43,35,-78,79,-78 c47,0,82,35,82,78 c0,48,-35,83,-82,83 c-44,0,-79,-35,-79,-83 Z M67,987" fill="rgb(0,0,0)" transform="matrix(0.1,0.0,0.0,-0.1,14.0,135.0)"/>
</svg>