<?xml version="1.0" encoding="UTF-8"?>
<svg height="200.0" version="1.1" width="90.0" xmlns="http://www.w3.org/2000/svg" xmlns:xlink="http://www.w3.org/1999/xlink">
 <path d="M0,0 l90,0 l0,200 l-90,0 Z M0,0" fill="rgb(255,255,255)" transform="matrix(1,0,0,-1,0.0,200.0)"/>
 <path d="M0,0 l90,0" fill="none" stroke="rgb(229,229,229)" stroke-width="2" transform="matrix(1,0,0,-1,0.0,135.0)"/>
 <path d="M0,1 l0,-5" fill="none" stroke="rgb(204,204,204)" stroke-width="2" transform="matrix(1,0,0,-1,9.0,135.0)"/>
 <path d="M0,1 l0,-5" fill="none" stroke="rgb(204,204,204)" stroke-width="2" transform="matrix(1,0,0,-1,83.0,135.0)"/>
 <path d="M720,-137 c0,103,-79,160,-181,160 c-13,0,-25,-1,-36,-2 c-85,24,-107,63,-107,102 c0,50,49,86,121,86 c30,0,53,-12,53,-35 c0,-25,-16,-45,-35,-65 l118,-64 c22,29,43,74,43,122 c0,78,-69,150,-176,150 c-34,0,-65,-4,-94,-12 c-28,14,-42,34,-42,54 c0,20,11,34,48,34 l223,0 l0,169 l110,0 l0,109 l-795,0 l0,-109 l549,0 l0,-60 l-121,0 c-93,0,-150,-47,-150,-116 l0,-2 c-32,-15,-71,-26,-120,-26 c-66,0,-104,20,-127,34 l-39,-91 c23,-21,83,-53,168,-53 c72,0,128,17,165,34 c9,-9,20,-17,33,-24 c-43,-34,-68,-80,-68,-130 c0,-121,100,-194,232,-227 c10,6,23,9,37,9 c29,0,53,-17,53,-49 c0,-49,-41,-64,-86,-64 c-94,0,-182,66,-236,147 l-95,-78 c52,-72,163,-179,334,-179 c159,0,221,86,221,176 Z M720,-137" fill="rgb(0,0,0)" transform="matrix(0.1,0.0,0.0,-0.1,9.0,135.0)"/>
</svg>