<?xml version="1.0" encoding="UTF-8"?>
<svg height="200.0" version="1.1" width="72.0" xmlns="http://www.w3.org/2000/svg" xmlns:xlink="http://www.w3.org/1999/xlink">
 <path d="M0,0 l72,0 l0,200 l-72,0 Z M0,0" fill="rgb(255,255,255)" transform="matrix(1,0,0,-1,0.0,200.0)"/>
 <path d="M0,0 l72,0" fill="none" stroke="rgb(229,229,229)" stroke-width="2" transform="matrix(1,0,0,-1,0.0,135.0)"/>
 <path d="M0,1 l0,-5" fill="none" stroke="rgb(204,204,204)" stroke-width="2" transform="matrix(1,0,0,-1,8.0,135.0)"/>
 <path d="M0,1 l0,-5" fill="none" stroke="rgb(204,204,204)" stroke-width="2" transform="matrix(1,0,0,-1,59.0,135.0)"/>
 <path d="M584,306 l-271,0 c-22,0,-43,-1,-64,-4 c-50,11,-69,40,-69,59 c0,27,21,33,48,33 l238,0 l0,168 l73,0 l0,109 l-569,0 l0,-109 l360,0 l0,-62 l-142,0 c-92,0,-143,-50,-143,-114 c0,-49,27,-99,87,-123 c-49,-29,-79,-73,-79,-130 c0,-159,176,-224,349,-233 l47,108 c-164,7,-256,48,-256,118 c0,41,30,70,101,70 l290,0 Z M584,306" fill="rgb(0,0,0)" transform="matrix(0.1,0.0,0.0,-0.1,8.0,135.0)"/>
</svg>