<?xml version="1.0" encoding="UTF-8"?>
<svg height="200.0" version="1.1" width="86.0" xmlns="http://www.w3.org/2000/svg" xmlns:xlink="http://www.w3.org/1999/xlink">
 <path d="M0,0 l86,0 l0,200 l-86,0 Z M0,0" fill="rgb(255,255,255)" transform="matrix(1,0,0,-1,0.0,200.0)"/>
 <path d="M0,0 l86,0" fill="none" stroke="rgb(229,229,229)" stroke-width="2" transform="matrix(1,0,0,-1,0.0,135.0)"/>
 <path d="M0,1 l0,-5" fill="none" stroke="rgb(204,204,204)" stroke-width="2" transform="matrix(1,0,0,-1,5.0,135.0)"/>
 <path d="M0,1 l0,-5" fill="none" stroke="rgb(204,204,204)" stroke-width="2" transform="matrix(1,0,0,-1,79.0,135.0)"/>
 <path d="M403,-35 c-100,9,-141,63,-141,110 c0,32,23,48,42,48 c18,0,34,-7,46,-33 c7,-17,15,-35,22,-52 l94,39 c-6,15,-13,30,-19,45 c-5,11,-8,25,-8,36 c0,28,13,51,47,51 c10,0,24,-3,35,-8 l0,-201 l139,0 l0,562 l105,0 l0,109 l-244,0 l0,-339 c-57,14,-109,33,-146,50 c48,33,73,85,73,141 c0,90,-76,157,-178,157 c-111,0,-177,-75,-177,-152 c0,-40,13,-93,64,-133 c-42,-15,-98,-31,-160,-45 l85,-105 c73,23,134,44,184,70 c46,-22,91,-38,138,-41 l0,-4 c-25,-12,-46,-35,-50,-73 l-4,0 c-16,12,-36,20,-65,20 c-76,0,-138,-59,-138,-136 c0,-107,87,-193,199,-208 Z M218,522 c0,29,19,52,55,52 c27,0,49,-16,49,-51 c0,-26,-13,-57,-58,-80 c-40,29,-46,60,-46,79 Z M218,522" fill="rgb(0,0,0)" transform="matrix(0.1,0.0,0.0,-0.1,5.0,135.0)"/>
</svg>