<?xml version="1.0" encoding="UTF-8"?>
<svg height="200.0" version="1.1" width="80.0" xmlns="http://www.w3.org/2000/svg" xmlns:xlink="http://www.w3.org/1999/xlink">
 <path d="M0,0 l80,0 l0,200 l-80,0 Z M0,0" fill="rgb(255,255,255)" transform="matrix(1,0,0,-1,0.0,200.0)"/>
 <path d="M0,0 l80,0" fill="none" stroke="rgb(229,229,229)" stroke-width="2" transform="matrix(1,0,0,-1,0.0,135.0)"/>
 <path d="M0,1 l0,-5" fill="none" stroke="rgb(204,204,204)" stroke-width="2" transform="matrix(1,0,0,-1,8.0,135.0)"/>
 <path d="M0,1 l0,-5" fill="none" stroke="rgb(204,204,204)" stroke-width="2" transform="matrix(1,0,0,-1,71.0,135.0)"/>
 <path d="M408,-201 l153,32 l-142,147 c112,30,185,112,185,209 c0,68,-28,120,-76,157 l0,218 l134,0 l0,109 l-692,0 l0,-109 l105,0 l0,-148 c0,-64,25,-106,77,-123 l0,-4 c-47,-22,-83,-67,-83,-133 c0,-75,49,-150,161,-178 l-143,-139 l154,-38 l87,117 Z M379,368 c-30,-11,-64,-19,-96,-19 c-48,0,-71,26,-71,75 l0,57 l167,-109 Z M310,82 c-75,0,-99,41,-99,68 c0,30,15,54,79,73 l148,44 c25,-20,39,-44,39,-76 c0,-65,-64,-109,-167,-109 Z M211,562 l182,0 l0,-121 l-182,117 Z M211,562" fill="rgb(0,0,0)" transform="matrix(0.1,0.0,0.0,-0.1,8.0,135.0)"/>
</svg>