<?xml version="1.0" encoding="UTF-8"?>
<svg height="200.0" version="1.1" width="86.0" xmlns="http://www.w3.org/2000/svg" xmlns:xlink="http://www.w3.org/1999/xlink">
 <path d="M0,0 l86,0 l0,200 l-86,0 Z M0,0" fill="rgb(255,255,255)" transform="matrix(1,0,0,-1,0.0,200.0)"/>
 <path d="M0,0 l86,0" fill="none" stroke="rgb(229,229,229)" stroke-width="2" transform="matrix(1,0,0,-1,0.0,135.0)"/>
 <path d="M0,1 l0,-5" fill="none" stroke="rgb(204,204,204)" stroke-width="2" transform="matrix(1,0,0,-1,8.0,135.0)"/>
 <path d="M0,1 l0,-5" fill="none" stroke="rgb(204,204,204)" stroke-width="2" transform="matrix(1,0,0,-1,78.0,135.0)"/>
 <path d="M577,-325 l0,445 c57,56,88,129,88,201 c0,79,-34,133,-88,160 l0,81 l152,0 l0,109 l-759,0 l0,-109 l115,0 l0,-4 c-18,-17,-35,-44,-35,-86 c0,-60,36,-110,103,-121 l0,-4 c-41,-15,-85,-50,-85,-131 c0,-103,89,-193,250,-193 c51,0,98,8,139,23 l0,-94 l-226,0 l-85,-61 c0,-81,48,-131,97,-148 l63,23 l0,80 l151,0 l0,-171 Z M504,304 c-27,9,-44,25,-44,50 c0,21,15,35,33,35 c25,0,48,-18,48,-66 c0,-112,-102,-183,-210,-183 c-81,0,-119,35,-119,82 c0,38,20,65,78,70 c5,1,11,1,17,1 l0,114 l-33,0 c-52,0,-78,32,-78,74 c0,43,26,81,86,81 l163,0 l0,-69 c-70,-17,-115,-72,-115,-137 c0,-75,51,-116,90,-130 Z M504,304" fill="rgb(0,0,0)" transform="matrix(0.1,0.0,0.0,-0.1,8.0,135.0)"/>
</svg>