<?xml version="1.0" encoding="UTF-8"?>
<svg height="200.0" version="1.1" width="74.0" xmlns="http://www.w3.org/2000/svg" xmlns:xlink="http://www.w3.org/1999/xlink">
 <path d="M0,0 l74,0 l0,200 l-74,0 Z M0,0" fill="rgb(255,255,255)" transform="matrix(1,0,0,-1,0.0,200.0)"/>
 <path d="M0,0 l74,0" fill="none" stroke="rgb(229,229,229)" stroke-width="2" transform="matrix(1,0,0,-1,0.0,135.0)"/>
 <path d="M0,1 l0,-5" fill="none" stroke="rgb(204,204,204)" stroke-width="2" transform="matrix(1,0,0,-1,8.0,135.0)"/>
 <path d="M0,1 l0,-5" fill="none" stroke="rgb(204,204,204)" stroke-width="2" transform="matrix(1,0,0,-1,66.0,135.0)"/>
 <path d="M617,671 l-647,0 l0,-109 l384,0 l0,-47 l-146,0 c-82,0,-122,-44,-122,-99 c0,-63,47,-139,162,-172 l155,30 c11,-6,18,-21,18,-36 c0,-38,-40,-60,-106,-60 c-83,0,-163,36,-221,110 l-70,-82 c66,-93,182,-131,288,-131 c14,0,28,1,41,2 l0,-57 l-196,0 l-85,-61 c0,-81,48,-131,97,-148 l63,23 l0,80 l121,0 l0,-180 l120,0 l0,384 c46,31,70,77,70,127 c0,62,-36,119,-92,135 l-194,-30 c-22,6,-33,26,-33,39 c0,19,13,30,42,30 l222,0 l0,143 l129,0 Z M617,671" fill="rgb(0,0,0)" transform="matrix(0.1,0.0,0.0,-0.1,8.0,135.0)"/>
</svg>