<?xml version="1.0" encoding="UTF-8"?>
<svg height="200.0" version="1.1" width="76.0" xmlns="http://www.w3.org/2000/svg" xmlns:xlink="http://www.w3.org/1999/xlink">
 <path d="M0,0 l76,0 l0,200 l-76,0 Z M0,0" fill="rgb(255,255,255)" transform="matrix(1,0,0,-1,0.0,200.0)"/>
 <path d="M0,0 l76,0" fill="none" stroke="rgb(229,229,229)" stroke-width="2" transform="matrix(1,0,0,-1,0.0,135.0)"/>
 <path d="M0,1 l0,-5" fill="none" stroke="rgb(204,204,204)" stroke-width="2" transform="matrix(1,0,0,-1,8.0,135.0)"/>
 <path d="M0,1 l0,-5" fill="none" stroke="rgb(204,204,204)" stroke-width="2" transform="matrix(1,0,0,-1,68.0,135.0)"/>
 <path d="M383,347 c-18,-24,-56,-42,-96,-42 c-47,0,-69,24,-69,76 l0,181 l165,0 Z M152,186 l-65,-46 l-22,-76 c30,-59,102,-86,161,-82 l38,52 l-39,58 l154,103 l4,0 l0,-195 l142,0 l0,562 l105,0 l0,109 l-660,0 l0,-109 l107,0 l0,-197 c0,-113,76,-141,127,-143 l0,-4 Z M152,186" fill="rgb(0,0,0)" transform="matrix(0.1,0.0,0.0,-0.1,8.0,135.0)"/>
</svg>