<?xml version="1.0" encoding="UTF-8"?>
<svg height="200.0" version="1.1" width="78.0" xmlns="http://www.w3.org/2000/svg" xmlns:xlink="http://www.w3.org/1999/xlink">
 <path d="M0,0 l78,0 l0,200 l-78,0 Z M0,0" fill="rgb(255,255,255)" transform="matrix(1,0,0,-1,0.0,200.0)"/>
 <path d="M0,0 l78,0" fill="none" stroke="rgb(229,229,229)" stroke-width="2" transform="matrix(1,0,0,-1,0.0,135.0)"/>
 <path d="M0,1 l0,-5" fill="none" stroke="rgb(204,204,204)" stroke-width="2" transform="matrix(1,0,0,-1,8.0,135.0)"/>
 <path d="M0,1 l0,-5" fill="none" stroke="rgb(204,204,204)" stroke-width="2" transform="matrix(1,0,0,-1,69.0,135.0)"/>
 <path d="M248,431 l0,131 l150,0 l0,-131 Z M419,306 l-322,-205 l-22,-76 c30,-60,101,-87,161,-84 l42,57 l-38,58 l154,99 l4,0 l0,-155 l138,0 l0,562 l105,0 l0,109 l-671,0 l0,-109 l142,0 l0,-134 l-68,-54 c0,-48,26,-119,72,-149 l132,0 l0,85 l171,0 Z M419,306" fill="rgb(0,0,0)" transform="matrix(0.1,0.0,0.0,-0.1,8.0,135.0)"/>
</svg>