<?xml version="1.0" encoding="UTF-8"?>
<svg height="200.0" version="1.1" width="114.0" xmlns="http://www.w3.org/2000/svg" xmlns:xlink="http://www.w3.org/1999/xlink">
 <path d="M0,0 l114,0 l0,200 l-114,0 Z M0,0" fill="rgb(255,255,255)" transform="matrix(1,0,0,-1,0.0,200.0)"/>
 <path d="M0,0 l114,0" fill="none" stroke="rgb(229,229,229)" stroke-width="2" transform="matrix(1,0,0,-1,0.0,135.0)"/>
 <path d="M0,1 l0,-5" fill="none" stroke="rgb(204,204,204)" stroke-width="2" transform="matrix(1,0,0,-1,5.0,135.0)"/>
 <path d="M0,1 l0,-5" fill="none" stroke="rgb(204,204,204)" stroke-width="2" transform="matrix(1,0,0,-1,106.0,135.0)"/>
 <path d="M33,143 c30,-34,93,-85,192,-85 c122,0,198,78,198,178 c0,7,0,13,-1,19 c19,-8,41,-14,67,-14 c25,0,46,5,61,12 l0,-253 l94,0 l0,573 l184,0 l0,-573 l94,0 l0,573 l117,0 l0,77 l-588,0 l0,-77 l99,0 l0,-234 c-19,-10,-46,-20,-85,-20 c-34,0,-63,8,-87,21 c-17,15,-38,25,-57,30 l0,4 c36,17,71,63,71,123 c0,90,-65,155,-170,155 c-72,0,-125,-31,-153,-69 l63,-58 c18,26,45,45,87,45 c51,0,82,-32,82,-80 c0,-55,-37,-91,-99,-91 l-32,0 l0,-82 l54,0 c69,0,106,-31,106,-83 c0,-52,-36,-94,-104,-94 c-63,0,-106,36,-128,67 Z M33,143" fill="rgb(0,0,0)" transform="matrix(0.1,0.0,0.0,-0.1,5.0,135.0)"/>
</svg>