<?xml version="1.0" encoding="UTF-8"?>
<svg height="200.0" version="1.1" width="68.0" xmlns="http://www.w3.org/2000/svg" xmlns:xlink="http://www.w3.org/1999/xlink">
 <path d="M0,0 l68,0 l0,200 l-68,0 Z M0,0" fill="rgb(255,255,255)" transform="matrix(1,0,0,-1,0.0,200.0)"/>
 <path d="M0,0 l68,0" fill="none" stroke="rgb(229,229,229)" stroke-width="2" transform="matrix(1,0,0,-1,0.0,135.0)"/>
 <path d="M0,1 l0,-5" fill="none" stroke="rgb(204,204,204)" stroke-width="2" transform="matrix(1,0,0,-1,7.0,135.0)"/>
 <path d="M0,1 l0,-5" fill="none" stroke="rgb(204,204,204)" stroke-width="2" transform="matrix(1,0,0,-1,61.0,135.0)"/>
 <path d="M412,840 c23,0,47,-7,65,-18 l28,77 c-20,11,-52,22,-102,22 c-81,0,-155,-55,-155,-142 c0,-61,33,-104,66,-125 l0,-4 l-338,0 l0,-77 l354,0 l0,-88 l-141,0 c-77,0,-121,-41,-121,-104 c0,-79,58,-150,141,-177 l149,33 c10,-7,24,-25,24,-53 c0,-63,-64,-90,-130,-90 l-28,0 l-137,91 c-20,-10,-37,-31,-37,-61 c0,-49,45,-103,155,-105 l164,-146 l100,53 l-161,103 l0,4 c85,6,164,56,164,152 c0,77,-45,125,-83,139 l-167,-36 c-33,9,-57,40,-57,69 c0,30,10,50,69,50 l189,0 l0,166 l138,0 l0,77 l-145,0 c-47,24,-80,68,-80,115 c0,44,30,75,76,75 Z M412,840" fill="rgb(0,0,0)" transform="matrix(0.1,0.0,0.0,-0.1,7.0,135.0)"/>
</svg>