<?xml version="1.0" encoding="UTF-8"?>
<svg height="200.0" version="1.1" width="64.0" xmlns="http://www.w3.org/2000/svg" xmlns:xlink="http://www.w3.org/1999/xlink">
 <path d="M0,0 l64,0 l0,200 l-64,0 Z M0,0" fill="rgb(255,255,255)" transform="matrix(1,0,0,-1,0.0,200.0)"/>
 <path d="M0,0 l64,0" fill="none" stroke="rgb(229,229,229)" stroke-width="2" transform="matrix(1,0,0,-1,0.0,135.0)"/>
 <path d="M0,1 l0,-5" fill="none" stroke="rgb(204,204,204)" stroke-width="2" transform="matrix(1,0,0,-1,7.0,135.0)"/>
 <path d="M0,1 l0,-5" fill="none" stroke="rgb(204,204,204)" stroke-width="2" transform="matrix(1,0,0,-1,56.0,135.0)"/>
 <path d="M-5,145 c28,-57,99,-129,221,-129 c133,0,211,79,211,186 c0,76,-50,129,-110,142 l0,5 c49,17,81,63,81,120 c0,61,-34,89,-52,99 l0,5 l163,0 l0,77 l-533,0 l0,-77 l208,0 c78,0,116,-30,116,-99 c0,-64,-47,-93,-99,-93 l-46,0 l0,-83 l57,0 c80,0,117,-38,117,-96 c0,-63,-44,-102,-114,-102 c-68,0,-115,42,-142,95 Z M-5,145" fill="rgb(0,0,0)" transform="matrix(0.1,0.0,0.0,-0.1,7.0,135.0)"/>
</svg>