<?xml version="1.0" encoding="UTF-8"?>
<svg height="200.0" version="1.1" width="100.0" xmlns="http://www.w3.org/2000/svg" xmlns:xlink="http://www.w3.org/1999/xlink">
 <path d="M0,0 l100,0 l0,200 l-100,0 Z M0,0" fill="rgb(255,255,255)" transform="matrix(1,0,0,-1,0.0,200.0)"/>
 <path d="M0,0 l100,0" fill="none" stroke="rgb(229,229,229)" stroke-width="2" transform="matrix(1,0,0,-1,0.0,135.0)"/>
 <path d="M0,1 l0,-5" fill="none" stroke="rgb(204,204,204)" stroke-width="2" transform="matrix(1,0,0,-1,7.0,135.0)"/>
 <path d="M0,1 l0,-5" fill="none" stroke="rgb(204,204,204)" stroke-width="2" transform="matrix(1,0,0,-1,92.0,135.0)"/>
 <path d="M694,488 l0,12 l-89,0 l0,-11 c0,-48,-23,-77,-105,-125 l-34,-20 l0,229 l407,0 l0,77 l-897,0 l0,-77 l397,0 l0,-236 l-4,0 c-32,74,-94,122,-183,122 c-72,0,-127,-28,-166,-62 l63,-73 c30,30,67,47,108,47 c56,0,109,-34,135,-108 l-268,-156 l63,-66 l253,160 l0,-201 l92,0 l0,249 l77,47 c16,10,31,19,45,29 c21,-17,50,-30,89,-31 l0,-4 c-73,-52,-117,-94,-117,-152 c0,-78,62,-126,161,-126 c54,0,102,23,126,40 l-35,72 c-20,-15,-52,-34,-92,-34 c-45,0,-68,22,-68,50 c0,35,23,59,140,142 l-29,71 l-26,0 c-40,0,-65,13,-81,31 c25,30,38,63,38,104 Z M694,488" fill="rgb(0,0,0)" transform="matrix(0.1,0.0,0.0,-0.1,7.0,135.0)"/>
</svg>