<?xml version="1.0" encoding="UTF-8"?>
<svg height="200.0" version="1.1" width="100.0" xmlns="http://www.w3.org/2000/svg" xmlns:xlink="http://www.w3.org/1999/xlink">
 <path d="M0,0 l100,0 l0,200 l-100,0 Z M0,0" fill="rgb(255,255,255)" transform="matrix(1,0,0,-1,0.0,200.0)"/>
 <path d="M0,0 l100,0" fill="none" stroke="rgb(229,229,229)" stroke-width="2" transform="matrix(1,0,0,-1,0.0,135.0)"/>
 <path d="M0,1 l0,-5" fill="none" stroke="rgb(204,204,204)" stroke-width="2" transform="matrix(1,0,0,-1,7.0,135.0)"/>
 <path d="M0,1 l0,-5" fill="none" stroke="rgb(204,204,204)" stroke-width="2" transform="matrix(1,0,0,-1,92.0,135.0)"/>
 <path d="M466,0 l0,250 l77,48 l1,0 c21,-18,55,-29,87,-28 l1,-4 c-50,-18,-81,-47,-81,-86 c0,-52,42,-73,82,-74 l0,-4 c-28,-11,-52,-34,-52,-68 c0,-63,64,-92,137,-92 c45,0,98,13,132,37 l-32,58 c-26,-16,-65,-29,-102,-29 c-32,0,-53,12,-53,35 c0,31,42,43,107,61 l-21,58 c-10,-2,-38,-11,-67,-11 c-28,0,-47,7,-47,30 c0,21,15,39,103,72 l-25,63 l-34,0 c-31,0,-54,15,-68,27 c54,41,83,83,83,145 l0,12 l-87,0 l0,-11 c0,-48,-25,-77,-107,-125 l-34,-20 l0,229 l407,0 l0,77 l-897,0 l0,-77 l397,0 l0,-236 l-4,0 c-32,74,-94,122,-183,122 c-72,0,-127,-28,-166,-62 l63,-73 c30,30,67,47,108,47 c56,0,109,-34,135,-108 l-268,-156 l63,-66 l253,160 l0,-201 Z M466,0" fill="rgb(0,0,0)" transform="matrix(0.1,0.0,0.0,-0.1,7.0,135.0)"/>
</svg>