<?xml version="1.0" encoding="UTF-8"?>
<svg height="200.0" version="1.1" width="88.0" xmlns="http://www.w3.org/2000/svg" xmlns:xlink="http://www.w3.org/1999/xlink">
 <path d="M0,0 l88,0 l0,200 l-88,0 Z M0,0" fill="rgb(255,255,255)" transform="matrix(1,0,0,-1,0.0,200.0)"/>
 <path d="M0,0 l88,0" fill="none" stroke="rgb(229,229,229)" stroke-width="2" transform="matrix(1,0,0,-1,0.0,135.0)"/>
 <path d="M0,1 l0,-5" fill="none" stroke="rgb(204,204,204)" stroke-width="2" transform="matrix(1,0,0,-1,7.0,135.0)"/>
 <path d="M0,1 l0,-5" fill="none" stroke="rgb(204,204,204)" stroke-width="2" transform="matrix(1,0,0,-1,79.0,135.0)"/>
 <path d="M725,-16 l-32,73 c-24,-18,-65,-32,-103,-32 c-46,0,-79,19,-79,57 c0,75,125,112,125,236 c0,65,-37,118,-103,137 l0,118 l214,0 l0,77 l-771,0 l0,-77 l465,0 l0,-114 c-45,-9,-84,-38,-98,-77 l-4,0 c-16,45,-59,78,-125,78 c-84,0,-165,-62,-165,-186 c0,-124,77,-229,181,-283 l63,65 c-106,52,-149,134,-149,216 c0,76,38,106,82,106 c44,0,72,-30,72,-90 l0,-77 l89,0 l0,78 c0,61,36,92,85,92 c45,0,70,-27,70,-69 c0,-85,-122,-125,-122,-231 c0,-92,81,-134,170,-134 c52,0,101,13,135,37 Z M725,-16" fill="rgb(0,0,0)" transform="matrix(0.1,0.0,0.0,-0.1,7.0,135.0)"/>
</svg>