<?xml version="1.0" encoding="UTF-8"?>
<svg height="200.0" version="1.1" width="88.0" xmlns="http://www.w3.org/2000/svg" xmlns:xlink="http://www.w3.org/1999/xlink">
 <path d="M0,0 l88,0 l0,200 l-88,0 Z M0,0" fill="rgb(255,255,255)" transform="matrix(1,0,0,-1,0.0,200.0)"/>
 <path d="M0,0 l88,0" fill="none" stroke="rgb(229,229,229)" stroke-width="2" transform="matrix(1,0,0,-1,0.0,135.0)"/>
 <path d="M0,1 l0,-5" fill="none" stroke="rgb(204,204,204)" stroke-width="2" transform="matrix(1,0,0,-1,7.0,135.0)"/>
 <path d="M0,1 l0,-5" fill="none" stroke="rgb(204,204,204)" stroke-width="2" transform="matrix(1,0,0,-1,79.0,135.0)"/>
 <path d="M758,-64 l-33,63 c-27,-18,-68,-32,-108,-32 c-34,0,-54,13,-54,37 c0,34,44,50,111,68 l-23,62 c-11,-4,-36,-11,-65,-11 c-31,0,-48,10,-48,31 c0,46,92,80,92,170 c0,62,-34,112,-97,131 l0,118 l214,0 l0,77 l-771,0 l0,-77 l465,0 l0,-113 c-46,-10,-83,-38,-98,-78 l-4,0 c-16,45,-59,78,-125,78 c-84,0,-165,-62,-165,-186 c0,-124,77,-229,181,-283 l63,65 c-106,52,-149,134,-149,216 c0,76,38,106,82,106 c44,0,72,-30,72,-90 l0,-77 l89,0 l0,78 c0,62,40,92,84,92 c41,0,68,-24,68,-59 c0,-64,-95,-105,-95,-176 c0,-55,42,-75,84,-76 l0,-3 c-29,-13,-52,-39,-52,-75 c0,-66,64,-96,141,-96 c48,0,106,15,141,40 Z M758,-64" fill="rgb(0,0,0)" transform="matrix(0.1,0.0,0.0,-0.1,7.0,135.0)"/>
</svg>