<?xml version="1.0" encoding="UTF-8"?>
<svg height="200.0" version="1.1" width="70.0" xmlns="http://www.w3.org/2000/svg" xmlns:xlink="http://www.w3.org/1999/xlink">
 <path d="M0,0 l70,0 l0,200 l-70,0 Z M0,0" fill="rgb(255,255,255)" transform="matrix(1,0,0,-1,0.0,200.0)"/>
 <path d="M0,0 l70,0" fill="none" stroke="rgb(229,229,229)" stroke-width="2" transform="matrix(1,0,0,-1,0.0,135.0)"/>
 <path d="M0,1 l0,-5" fill="none" stroke="rgb(204,204,204)" stroke-width="2" transform="matrix(1,0,0,-1,7.0,135.0)"/>
 <path d="M0,1 l0,-5" fill="none" stroke="rgb(204,204,204)" stroke-width="2" transform="matrix(1,0,0,-1,63.0,135.0)"/>
 <path d="M398,98 l-222,192 l0,283 l202,0 l0,-158 c0,-56,-23,-84,-67,-102 l72,-61 c64,31,89,79,89,161 l0,160 l109,0 l0,77 l-110,0 c-3,71,-29,106,-88,131 l-151,63 c-41,17,-76,33,-69,84 l-91,1 c-9,-82,32,-124,99,-150 l152,-60 c35,-14,51,-28,53,-69 l-400,0 l0,-77 l105,0 l0,-320 l255,-218 c21,-18,35,-38,35,-62 c0,-28,-15,-55,-32,-75 l0,-6 l96,0 c17,23,30,56,30,88 c0,44,-22,79,-67,118 Z M398,98" fill="rgb(0,0,0)" transform="matrix(0.1,0.0,0.0,-0.1,7.0,135.0)"/>
</svg>