<?xml version="1.0" encoding="UTF-8"?>
<svg height="200.0" version="1.1" width="42.0" xmlns="http://www.w3.org/2000/svg" xmlns:xlink="http://www.w3.org/1999/xlink">
 <path d="M0,0 l42,0 l0,200 l-42,0 Z M0,0" fill="rgb(255,255,255)" transform="matrix(1,0,0,-1,0.0,200.0)"/>
 <path d="M0,0 l42,0" fill="none" stroke="rgb(229,229,229)" stroke-width="2" transform="matrix(1,0,0,-1,0.0,135.0)"/>
 <path d="M0,-4 l0,8" fill="none" stroke="rgb(255,76,25)" stroke-width="2" transform="matrix(1,0,0,-1,35.0,135.0)"/>
 <path d="M-84,-120 c-15,-4,-36,-6,-57,-6 c-40,0,-75,12,-75,47 c0,35,38,56,124,57 l0,22 l-9,47 c-101,5,-203,-34,-203,-120 c0,-60,48,-90,88,-95 c-38,-10,-73,-39,-73,-88 c0,-80,74,-114,158,-114 c57,0,117,15,153,41 l-33,69 c-26,-21,-77,-35,-120,-35 c-44,0,-69,16,-69,44 c0,35,36,56,129,64 Z M-84,-120" fill="rgb(0,0,0)" transform="matrix(0.1,0.0,0.0,-0.1,35.0,135.0)"/>
</svg>