<?xml version="1.0" encoding="UTF-8"?>
<svg height="200.0" version="1.1" width="68.0" xmlns="http://www.w3.org/2000/svg" xmlns:xlink="http://www.w3.org/1999/xlink">
 <path d="M0,0 l68,0 l0,200 l-68,0 Z M0,0" fill="rgb(255,255,255)" transform="matrix(1,0,0,-1,0.0,200.0)"/>
 <path d="M0,0 l68,0" fill="none" stroke="rgb(229,229,229)" stroke-width="2" transform="matrix(1,0,0,-1,0.0,135.0)"/>
 <path d="M0,-4 l0,8" fill="none" stroke="rgb(255,76,25)" stroke-width="2" transform="matrix(1,0,0,-1,45.0,135.0)"/>
 <path d="M-93,-371 c0,-66,54,-115,147,-115 c44,0,90,10,127,38 l-35,60 c-26,-19,-58,-30,-91,-30 c-44,0,-66,15,-66,47 c0,62,115,94,115,191 c0,70,-54,125,-133,125 c-64,0,-102,-34,-115,-68 l-4,0 c-15,38,-53,68,-110,68 c-82,0,-144,-61,-144,-159 c0,-87,51,-155,104,-189 l54,55 c-44,32,-75,77,-75,135 c0,55,29,85,68,85 c41,0,66,-26,66,-85 l0,-33 l78,0 l0,33 c0,62,35,85,72,85 c37,0,61,-20,61,-54 c0,-60,-119,-100,-119,-189 Z M-93,-371" fill="rgb(0,0,0)" transform="matrix(0.1,0.0,0.0,-0.1,45.0,135.0)"/>
</svg>