<?xml version="1.0" encoding="UTF-8"?>
<svg height="200.0" version="1.1" width="76.0" xmlns="http://www.w3.org/2000/svg" xmlns:xlink="http://www.w3.org/1999/xlink">
 <path d="M0,0 l76,0 l0,200 l-76,0 Z M0,0" fill="rgb(255,255,255)" transform="matrix(1,0,0,-1,0.0,200.0)"/>
 <path d="M0,0 l76,0" fill="none" stroke="rgb(229,229,229)" stroke-width="2" transform="matrix(1,0,0,-1,0.0,135.0)"/>
 <path d="M0,-4 l0,8" fill="none" stroke="rgb(255,76,25)" stroke-width="2" transform="matrix(1,0,0,-1,45.0,135.0)"/>
 <path d="M122,-437 c-36,0,-56,10,-56,33 c0,32,37,44,95,58 l-15,55 c-12,-4,-38,-10,-59,-10 c-27,0,-45,8,-45,26 c0,37,62,56,61,116 c0,60,-49,104,-127,104 c-63,0,-107,-37,-119,-69 l-4,0 c-15,38,-53,69,-110,69 c-82,0,-144,-61,-144,-159 c0,-87,50,-155,104,-189 l54,55 c-44,32,-75,77,-75,135 c0,55,28,85,67,85 c42,0,67,-26,67,-85 l0,-33 l77,0 l0,29 c0,55,37,91,82,91 c28,0,46,-15,46,-39 c0,-32,-53,-56,-53,-108 c0,-40,28,-64,66,-68 l0,-3 c-27,-14,-41,-38,-41,-67 c0,-57,49,-90,129,-90 c46,0,86,11,130,40 l-33,56 c-26,-19,-61,-32,-97,-32 Z M122,-437" fill="rgb(0,0,0)" transform="matrix(0.1,0.0,0.0,-0.1,45.0,135.0)"/>
</svg>