<?xml version="1.0" encoding="UTF-8"?>
<svg height="200.0" version="1.1" width="62.0" xmlns="http://www.w3.org/2000/svg" xmlns:xlink="http://www.w3.org/1999/xlink">
 <path d="M0,0 l62,0 l0,200 l-62,0 Z M0,0" fill="rgb(255,255,255)" transform="matrix(1,0,0,-1,0.0,200.0)"/>
 <path d="M0,0 l62,0" fill="none" stroke="rgb(229,229,229)" stroke-width="2" transform="matrix(1,0,0,-1,0.0,135.0)"/>
 <path d="M0,-4 l0,8" fill="none" stroke="rgb(255,76,25)" stroke-width="2" transform="matrix(1,0,0,-1,57.0,135.0)"/>
 <path d="M-153,648 l-279,276 l-85,-53 c131,-116,269,-213,361,-271 l69,38 l-108,290 l-103,-24 l148,-255 Z M-153,648" fill="rgb(0,0,0)" transform="matrix(0.1,0.0,0.0,-0.1,57.0,135.0)"/>
</svg>