<?xml version="1.0" encoding="UTF-8"?>
<svg height="200.0" version="1.1" width="60.0" xmlns="http://www.w3.org/2000/svg" xmlns:xlink="http://www.w3.org/1999/xlink">
 <path d="M0,0 l60,0 l0,200 l-60,0 Z M0,0" fill="rgb(255,255,255)" transform="matrix(1,0,0,-1,0.0,200.0)"/>
 <path d="M0,0 l60,0" fill="none" stroke="rgb(229,229,229)" stroke-width="2" transform="matrix(1,0,0,-1,0.0,135.0)"/>
 <path d="M0,1 l0,-5" fill="none" stroke="rgb(204,204,204)" stroke-width="2" transform="matrix(1,0,0,-1,25.0,135.0)"/>
 <path d="M0,1 l0,-5" fill="none" stroke="rgb(204,204,204)" stroke-width="2" transform="matrix(1,0,0,-1,53.0,135.0)"/>
 <path d="M-38,789 c-45,19,-71,37,-68,87 l-94,0 c-3,-77,42,-117,108,-141 c74,-27,157,-40,183,-85 l-115,0 l0,-77 l116,0 l0,-573 l94,0 l0,573 l117,0 l0,77 l-117,0 l0,6 c0,113,-101,149,-101,251 c0,14,2,30,4,35 l-89,0 c-2,-5,-4,-20,-4,-34 c0,-122,132,-154,145,-249 l-6,0 c-26,79,-99,97,-173,130 Z M-38,789" fill="rgb(0,0,0)" transform="matrix(0.1,0.0,0.0,-0.1,25.0,135.0)"/>
</svg>