<?xml version="1.0" encoding="UTF-8"?>
<svg height="200.0" version="1.1" width="48.0" xmlns="http://www.w3.org/2000/svg" xmlns:xlink="http://www.w3.org/1999/xlink">
 <path d="M0,0 l48,0 l0,200 l-48,0 Z M0,0" fill="rgb(255,255,255)" transform="matrix(1,0,0,-1,0.0,200.0)"/>
 <path d="M0,0 l48,0" fill="none" stroke="rgb(229,229,229)" stroke-width="2" transform="matrix(1,0,0,-1,0.0,135.0)"/>
 <path d="M0,-4 l0,8" fill="none" stroke="rgb(255,76,25)" stroke-width="2" transform="matrix(1,0,0,-1,38.0,135.0)"/>
 <path d="M-139,821 c101,0,161,52,190,116 l-64,32 c-20,-45,-63,-77,-126,-77 c-63,0,-105,32,-126,77 l-64,-32 c29,-64,90,-116,190,-116 Z M36,715 l0,65 l-350,0 l0,-65 Z M36,715" fill="rgb(0,0,0)" transform="matrix(0.1,0.0,0.0,-0.1,38.0,135.0)"/>
</svg>