<?xml version="1.0" encoding="UTF-8"?>
<svg height="200.0" version="1.1" width="86.0" xmlns="http://www.w3.org/2000/svg" xmlns:xlink="http://www.w3.org/1999/xlink">
 <path d="M0,0 l86,0 l0,200 l-86,0 Z M0,0" fill="rgb(255,255,255)" transform="matrix(1,0,0,-1,0.0,200.0)"/>
 <path d="M0,0 l86,0" fill="none" stroke="rgb(229,229,229)" stroke-width="2" transform="matrix(1,0,0,-1,0.0,135.0)"/>
 <path d="M0,1 l0,-5" fill="none" stroke="rgb(204,204,204)" stroke-width="2" transform="matrix(1,0,0,-1,7.0,135.0)"/>
 <path d="M0,1 l0,-5" fill="none" stroke="rgb(204,204,204)" stroke-width="2" transform="matrix(1,0,0,-1,79.0,135.0)"/>
 <path d="M163,379 c20,15,51,24,83,20 c53,-4,92,-39,92,-103 c0,-74,-54,-113,-114,-113 c-77,0,-125,46,-159,100 l-61,-69 c35,-56,112,-118,220,-118 c108,0,195,69,207,174 c20,-4,41,-6,62,-7 c14,-1,26,0,39,1 l0,-264 l94,0 l0,573 l116,0 l0,77 l-766,0 l0,-77 l556,0 l0,-223 c-15,-2,-30,-3,-45,-3 c-20,0,-41,2,-61,5 c-22,87,-98,137,-190,136 c-46,-1,-81,-13,-108,-27 Z M163,379" fill="rgb(0,0,0)" transform="matrix(0.1,0.0,0.0,-0.1,7.0,135.0)"/>
</svg>