<?xml version="1.0" encoding="UTF-8"?>
<svg height="200.0" version="1.1" width="78.0" xmlns="http://www.w3.org/2000/svg" xmlns:xlink="http://www.w3.org/1999/xlink">
 <path d="M0,0 l78,0 l0,200 l-78,0 Z M0,0" fill="rgb(255,255,255)" transform="matrix(1,0,0,-1,0.0,200.0)"/>
 <path d="M0,0 l78,0" fill="none" stroke="rgb(229,229,229)" stroke-width="2" transform="matrix(1,0,0,-1,0.0,135.0)"/>
 <path d="M0,1 l0,-5" fill="none" stroke="rgb(204,204,204)" stroke-width="2" transform="matrix(1,0,0,-1,5.0,135.0)"/>
 <path d="M0,1 l0,-5" fill="none" stroke="rgb(204,204,204)" stroke-width="2" transform="matrix(1,0,0,-1,71.0,135.0)"/>
 <path d="M571,0 l0,573 l116,0 l0,77 l-210,0 l0,-282 c0,-98,-58,-187,-182,-187 c-109,0,-147,85,-152,124 c20,5,39,9,58,15 c122,33,191,94,191,192 c0,86,-58,148,-154,148 c-92,0,-154,-61,-154,-136 c0,-39,15,-69,33,-87 l84,25 c-15,15,-24,38,-24,57 c0,38,26,60,61,60 c39,0,61,-25,61,-65 c0,-53,-28,-94,-157,-130 l-111,-30 c7,-149,103,-258,255,-258 c105,0,165,51,188,85 l4,0 l0,-181 Z M571,0" fill="rgb(0,0,0)" transform="matrix(0.1,0.0,0.0,-0.1,5.0,135.0)"/>
</svg>