<?xml version="1.0" encoding="UTF-8"?>
<svg height="200.0" version="1.1" width="68.0" xmlns="http://www.w3.org/2000/svg" xmlns:xlink="http://www.w3.org/1999/xlink">
 <path d="M0,0 l68,0 l0,200 l-68,0 Z M0,0" fill="rgb(255,255,255)" transform="matrix(1,0,0,-1,0.0,200.0)"/>
 <path d="M0,0 l68,0" fill="none" stroke="rgb(229,229,229)" stroke-width="2" transform="matrix(1,0,0,-1,0.0,135.0)"/>
 <path d="M0,1 l0,-5" fill="none" stroke="rgb(204,204,204)" stroke-width="2" transform="matrix(1,0,0,-1,7.0,135.0)"/>
 <path d="M0,1 l0,-5" fill="none" stroke="rgb(204,204,204)" stroke-width="2" transform="matrix(1,0,0,-1,60.0,135.0)"/>
 <path d="M411,419 l0,154 l147,0 l0,77 l-582,0 l0,-77 l340,0 l0,-88 l-111,-27 c-109,-27,-162,-85,-162,-177 c0,-119,100,-217,239,-217 c31,0,64,6,89,16 l71,-131 l109,27 l-115,144 c19,19,37,46,37,86 c0,48,-32,76,-59,90 l-65,-25 l0,-99 c-17,-15,-45,-24,-80,-25 c-73,-1,-132,50,-132,119 c0,57,31,92,124,116 Z M411,419" fill="rgb(0,0,0)" transform="matrix(0.1,0.0,0.0,-0.1,7.0,135.0)"/>
</svg>