<?xml version="1.0" encoding="UTF-8"?>
<svg height="200.0" version="1.1" width="96.0" xmlns="http://www.w3.org/2000/svg" xmlns:xlink="http://www.w3.org/1999/xlink">
 <path d="M0,0 l96,0 l0,200 l-96,0 Z M0,0" fill="rgb(255,255,255)" transform="matrix(1,0,0,-1,0.0,200.0)"/>
 <path d="M0,0 l96,0" fill="none" stroke="rgb(229,229,229)" stroke-width="2" transform="matrix(1,0,0,-1,0.0,135.0)"/>
 <path d="M0,1 l0,-5" fill="none" stroke="rgb(204,204,204)" stroke-width="2" transform="matrix(1,0,0,-1,7.0,135.0)"/>
 <path d="M0,1 l0,-5" fill="none" stroke="rgb(204,204,204)" stroke-width="2" transform="matrix(1,0,0,-1,88.0,135.0)"/>
 <path d="M366,238 l0,-238 l93,0 l0,262 c0,75,47,130,117,130 c57,0,96,-37,96,-94 c0,-68,-52,-117,-135,-101 l14,-85 c118,-13,217,61,217,187 c0,107,-78,176,-175,176 c-70,0,-113,-34,-130,-56 l-4,0 l0,154 l370,0 l0,77 l-853,0 l0,-77 l105,0 l0,-219 c0,-105,60,-167,162,-167 c63,0,102,27,119,51 Z M366,390 c0,-70,-39,-119,-110,-119 c-54,0,-80,28,-80,96 l0,206 l190,0 Z M366,390" fill="rgb(0,0,0)" transform="matrix(0.1,0.0,0.0,-0.1,7.0,135.0)"/>
</svg>