<?xml version="1.0" encoding="UTF-8"?>
<svg height="200.0" version="1.1" width="66.0" xmlns="http://www.w3.org/2000/svg" xmlns:xlink="http://www.w3.org/1999/xlink">
 <path d="M0,0 l66,0 l0,200 l-66,0 Z M0,0" fill="rgb(255,255,255)" transform="matrix(1,0,0,-1,0.0,200.0)"/>
 <path d="M0,0 l66,0" fill="none" stroke="rgb(229,229,229)" stroke-width="2" transform="matrix(1,0,0,-1,0.0,135.0)"/>
 <path d="M0,1 l0,-5" fill="none" stroke="rgb(204,204,204)" stroke-width="2" transform="matrix(1,0,0,-1,7.0,135.0)"/>
 <path d="M0,1 l0,-5" fill="none" stroke="rgb(204,204,204)" stroke-width="2" transform="matrix(1,0,0,-1,59.0,135.0)"/>
 <path d="M419,49 c26,26,49,63,49,113 c0,74,-55,142,-166,142 c-33,0,-64,-5,-91,-14 c-32,18,-52,46,-52,75 c0,24,14,43,57,43 l217,0 l0,165 l107,0 l0,77 l-564,0 l0,-77 l365,0 l0,-87 l-146,0 c-83,0,-130,-44,-130,-107 c0,-54,31,-98,76,-125 c-42,-32,-66,-77,-66,-124 c0,-134,131,-207,322,-222 l40,79 c-206,13,-268,71,-268,139 c0,57,53,99,134,99 c50,0,77,-25,77,-57 c0,-28,-17,-51,-41,-72 Z M419,49" fill="rgb(0,0,0)" transform="matrix(0.1,0.0,0.0,-0.1,7.0,135.0)"/>
</svg>