<?xml version="1.0" encoding="UTF-8"?>
<svg height="200.0" version="1.1" width="88.0" xmlns="http://www.w3.org/2000/svg" xmlns:xlink="http://www.w3.org/1999/xlink">
 <path d="M0,0 l88,0 l0,200 l-88,0 Z M0,0" fill="rgb(255,255,255)" transform="matrix(1,0,0,-1,0.0,200.0)"/>
 <path d="M0,0 l88,0" fill="none" stroke="rgb(229,229,229)" stroke-width="2" transform="matrix(1,0,0,-1,0.0,135.0)"/>
 <path d="M0,1 l0,-5" fill="none" stroke="rgb(204,204,204)" stroke-width="2" transform="matrix(1,0,0,-1,7.0,135.0)"/>
 <path d="M0,1 l0,-5" fill="none" stroke="rgb(204,204,204)" stroke-width="2" transform="matrix(1,0,0,-1,80.0,135.0)"/>
 <path d="M267,395 c42,-14,88,-47,88,-103 c0,-46,-30,-75,-79,-75 c-101,0,-150,130,-155,253 l-90,-41 c15,-120,76,-295,252,-295 c100,0,160,63,160,149 c0,56,-27,89,-48,107 l0,4 l149,0 l0,-335 l-435,0 l0,-74 l530,0 l0,588 l116,0 l0,77 l-779,0 l0,-77 l568,0 l0,-101 l-238,0 l-39,-71 Z M267,395" fill="rgb(0,0,0)" transform="matrix(0.1,0.0,0.0,-0.1,7.0,135.0)"/>
</svg>