<?xml version="1.0" encoding="UTF-8"?>
<svg height="200.0" version="1.1" width="76.0" xmlns="http://www.w3.org/2000/svg" xmlns:xlink="http://www.w3.org/1999/xlink">
 <path d="M0,0 l76,0 l0,200 l-76,0 Z M0,0" fill="rgb(255,255,255)" transform="matrix(1,0,0,-1,0.0,200.0)"/>
 <path d="M0,0 l76,0" fill="none" stroke="rgb(229,229,229)" stroke-width="2" transform="matrix(1,0,0,-1,0.0,135.0)"/>
 <path d="M0,1 l0,-5" fill="none" stroke="rgb(204,204,204)" stroke-width="2" transform="matrix(1,0,0,-1,7.0,135.0)"/>
 <path d="M0,1 l0,-5" fill="none" stroke="rgb(204,204,204)" stroke-width="2" transform="matrix(1,0,0,-1,68.0,135.0)"/>
 <path d="M428,194 l0,-194 l94,0 l0,573 l117,0 l0,77 l-663,0 l0,-77 l167,0 c24,-23,39,-60,39,-91 c0,-63,-53,-94,-141,-112 c13,-151,108,-240,232,-240 c83,0,131,40,151,64 Z M236,573 l192,0 l0,-210 c0,-16,-2,-31,-5,-44 l-166,225 c-3,5,-7,9,-11,14 l-10,14 Z M147,331 c57,13,105,47,123,95 l125,-167 c-25,-30,-62,-46,-109,-46 c-89,0,-131,63,-139,118 Z M147,331" fill="rgb(0,0,0)" transform="matrix(0.1,0.0,0.0,-0.1,7.0,135.0)"/>
</svg>