<?xml version="1.0" encoding="UTF-8"?>
<svg height="200.0" version="1.1" width="60.0" xmlns="http://www.w3.org/2000/svg" xmlns:xlink="http://www.w3.org/1999/xlink">
 <path d="M0,0 l60,0 l0,200 l-60,0 Z M0,0" fill="rgb(255,255,255)" transform="matrix(1,0,0,-1,0.0,200.0)"/>
 <path d="M0,0 l60,0" fill="none" stroke="rgb(229,229,229)" stroke-width="2" transform="matrix(1,0,0,-1,0.0,135.0)"/>
 <path d="M0,1 l0,-5" fill="none" stroke="rgb(204,204,204)" stroke-width="2" transform="matrix(1,0,0,-1,5.0,135.0)"/>
 <path d="M0,1 l0,-5" fill="none" stroke="rgb(204,204,204)" stroke-width="2" transform="matrix(1,0,0,-1,56.0,135.0)"/>
 <path d="M247,109 c-74,0,-134,37,-168,70 l-56,-75 c29,-27,108,-82,222,-82 c143,0,214,80,214,178 c0,102,-73,147,-152,186 c-75,37,-133,64,-133,115 c0,42,32,66,88,66 l163,0 l0,83 l-172,0 c-107,0,-176,-59,-176,-150 c0,-95,74,-137,144,-171 c80,-39,142,-66,142,-131 c0,-53,-39,-89,-116,-89 Z M247,109" fill="rgb(0,0,0)" transform="matrix(0.1,0.0,0.0,-0.1,5.0,135.0)"/>
</svg>