<?xml version="1.0" encoding="UTF-8"?>
<svg height="200.0" version="1.1" width="58.0" xmlns="http://www.w3.org/2000/svg" xmlns:xlink="http://www.w3.org/1999/xlink">
 <path d="M0,0 l58,0 l0,200 l-58,0 Z M0,0" fill="rgb(255,255,255)" transform="matrix(1,0,0,-1,0.0,200.0)"/>
 <path d="M0,0 l58,0" fill="none" stroke="rgb(229,229,229)" stroke-width="2" transform="matrix(1,0,0,-1,0.0,135.0)"/>
 <path d="M0,1 l0,-5" fill="none" stroke="rgb(204,204,204)" stroke-width="2" transform="matrix(1,0,0,-1,5.0,135.0)"/>
 <path d="M0,1 l0,-5" fill="none" stroke="rgb(204,204,204)" stroke-width="2" transform="matrix(1,0,0,-1,53.0,135.0)"/>
 <path d="M339,0 c10,14,19,36,19,58 c0,55,-41,99,-158,180 c135,65,207,152,207,264 c0,90,-69,159,-168,159 c-96,0,-162,-64,-162,-154 c0,-91,80,-146,150,-146 c6,0,11,0,16,0 c-34,-27,-83,-54,-151,-84 l0,-56 c132,-91,172,-123,172,-165 c0,-18,-6,-36,-15,-47 l0,-9 Z M277,414 c-65,0,-112,36,-112,90 c0,48,31,76,76,76 c46,0,77,-31,77,-77 c0,-32,-6,-60,-24,-88 c-5,-1,-11,-1,-17,-1 Z M277,414" fill="rgb(0,0,0)" transform="matrix(0.1,0.0,0.0,-0.1,5.0,135.0)"/>
</svg>