<?xml version="1.0" encoding="UTF-8"?>
<svg height="200.0" version="1.1" width="62.0" xmlns="http://www.w3.org/2000/svg" xmlns:xlink="http://www.w3.org/1999/xlink">
 <path d="M0,0 l62,0 l0,200 l-62,0 Z M0,0" fill="rgb(255,255,255)" transform="matrix(1,0,0,-1,0.0,200.0)"/>
 <path d="M0,0 l62,0" fill="none" stroke="rgb(229,229,229)" stroke-width="2" transform="matrix(1,0,0,-1,0.0,135.0)"/>
 <path d="M0,1 l0,-5" fill="none" stroke="rgb(204,204,204)" stroke-width="2" transform="matrix(1,0,0,-1,5.0,135.0)"/>
 <path d="M0,1 l0,-5" fill="none" stroke="rgb(204,204,204)" stroke-width="2" transform="matrix(1,0,0,-1,56.0,135.0)"/>
 <path d="M439,192 c0,78,-52,129,-112,173 c70,50,137,109,137,205 c0,39,-8,64,-19,83 l-89,-31 c8,-13,14,-33,14,-56 c0,-66,-53,-110,-114,-152 c-61,42,-114,86,-114,152 c0,23,7,43,15,56 l-89,31 c-11,-19,-20,-44,-20,-83 c0,-96,67,-155,137,-205 c-60,-44,-111,-95,-111,-173 c0,-98,72,-162,183,-162 c111,0,182,64,182,162 Z M257,109 c-56,0,-90,29,-90,84 c0,49,39,86,89,122 c51,-36,90,-73,90,-122 c0,-55,-34,-84,-89,-84 Z M257,109" fill="rgb(0,0,0)" transform="matrix(0.1,0.0,0.0,-0.1,5.0,135.0)"/>
</svg>