<?xml version="1.0" encoding="UTF-8"?>
<svg height="200.0" version="1.1" width="58.0" xmlns="http://www.w3.org/2000/svg" xmlns:xlink="http://www.w3.org/1999/xlink">
 <path d="M0,0 l58,0 l0,200 l-58,0 Z M0,0" fill="rgb(255,255,255)" transform="matrix(1,0,0,-1,0.0,200.0)"/>
 <path d="M0,0 l58,0" fill="none" stroke="rgb(229,229,229)" stroke-width="2" transform="matrix(1,0,0,-1,0.0,135.0)"/>
 <path d="M0,1 l0,-5" fill="none" stroke="rgb(204,204,204)" stroke-width="2" transform="matrix(1,0,0,-1,5.0,135.0)"/>
 <path d="M0,1 l0,-5" fill="none" stroke="rgb(204,204,204)" stroke-width="2" transform="matrix(1,0,0,-1,53.0,135.0)"/>
 <path d="M369,0 c16,22,32,51,32,96 c0,45,-26,87,-55,123 l-92,106 c90,11,157,71,157,168 c0,90,-65,168,-174,168 c-102,0,-172,-69,-172,-169 c0,-58,29,-115,78,-173 l125,-145 c23,-27,38,-56,38,-84 c0,-39,-18,-64,-36,-84 l0,-6 Z M158,492 c0,54,36,85,79,85 c53,0,82,-33,82,-84 c0,-55,-34,-95,-124,-96 c-22,32,-37,62,-37,95 Z M158,492" fill="rgb(0,0,0)" transform="matrix(0.1,0.0,0.0,-0.1,5.0,135.0)"/>
</svg>