<?xml version="1.0" encoding="UTF-8"?>
<svg height="200.0" version="1.1" width="132.0" xmlns="http://www.w3.org/2000/svg" xmlns:xlink="http://www.w3.org/1999/xlink">
 <path d="M0,0 l132,0 l0,200 l-132,0 Z M0,0" fill="rgb(255,255,255)" transform="matrix(1,0,0,-1,0.0,200.0)"/>
 <path d="M0,0 l132,0" fill="none" stroke="rgb(229,229,229)" stroke-width="2" transform="matrix(1,0,0,-1,0.0,135.0)"/>
 <path d="M0,1 l0,-5" fill="none" stroke="rgb(204,204,204)" stroke-width="2" transform="matrix(1,0,0,-1,5.0,135.0)"/>
 <path d="M0,1 l0,-5" fill="none" stroke="rgb(204,204,204)" stroke-width="2" transform="matrix(1,0,0,-1,127.0,135.0)"/>
 <path d="M929,128 c-54,0,-96,43,-119,103 c2,3,4,6,6,9 c58,93,90,163,144,163 c46,0,83,-41,83,-110 c0,-99,-50,-165,-114,-165 Z M385,333 l0,4 c37,20,73,62,73,126 c0,94,-70,157,-172,157 c-73,0,-127,-33,-157,-71 l62,-57 c19,24,46,46,91,46 c53,0,84,-33,84,-80 c0,-65,-46,-97,-148,-105 l17,-83 l44,6 c6,1,16,2,22,2 c63,0,93,-39,93,-85 c0,-50,-35,-97,-106,-97 c-71,0,-112,46,-136,86 l-73,-58 c35,-52,103,-112,207,-112 c108,0,173,60,191,127 c18,-35,59,-78,128,-78 c71,0,120,45,160,100 c31,-61,86,-115,179,-115 c119,0,188,122,188,233 c0,133,-75,210,-179,210 c-107,0,-154,-111,-215,-211 c-46,-75,-82,-132,-146,-132 c-66,0,-85,50,-110,97 c-23,45,-53,80,-97,90 Z M697,532 c113,0,191,63,222,137 l-74,32 c-24,-50,-77,-87,-148,-87 c-72,0,-121,39,-146,88 l-75,-33 c31,-74,107,-137,221,-137 Z M640,776 c0,-32,27,-57,60,-57 c35,0,60,25,60,57 c0,36,-25,63,-60,63 c-33,0,-60,-27,-60,-63 Z M640,776" fill="rgb(0,0,0)" transform="matrix(0.1,0.0,0.0,-0.1,5.0,135.0)"/>
</svg>