<?xml version="1.0" encoding="UTF-8"?>
<svg height="200.0" version="1.1" width="60.0" xmlns="http://www.w3.org/2000/svg" xmlns:xlink="http://www.w3.org/1999/xlink">
 <path d="M0,0 l60,0 l0,200 l-60,0 Z M0,0" fill="rgb(255,255,255)" transform="matrix(1,0,0,-1,0.0,200.0)"/>
 <path d="M0,0 l60,0" fill="none" stroke="rgb(229,229,229)" stroke-width="2" transform="matrix(1,0,0,-1,0.0,135.0)"/>
 <path d="M0,1 l0,-5" fill="none" stroke="rgb(204,204,204)" stroke-width="2" transform="matrix(1,0,0,-1,5.0,135.0)"/>
 <path d="M0,1 l0,-5" fill="none" stroke="rgb(204,204,204)" stroke-width="2" transform="matrix(1,0,0,-1,55.0,135.0)"/>
 <path d="M380,9 l-149,176 c-25,29,-52,60,-79,86 l1,3 c86,-4,199,48,211,167 l99,0 l35,75 l-142,0 c-11,33,-32,53,-48,63 l0,4 l155,0 l35,75 l-457,0 l0,-75 l105,0 c56,0,97,-22,114,-67 l-219,0 l0,-75 l225,0 c-16,-95,-114,-118,-211,-94 l-21,-76 l60,-62 l170,-209 l116,0 Z M380,9" fill="rgb(0,0,0)" transform="matrix(0.1,0.0,0.0,-0.1,5.0,135.0)"/>
</svg>