<?xml version="1.0" encoding="UTF-8"?>
<svg height="200.0" version="1.1" width="66.0" xmlns="http://www.w3.org/2000/svg" xmlns:xlink="http://www.w3.org/1999/xlink">
 <path d="M0,0 l66,0 l0,200 l-66,0 Z M0,0" fill="rgb(255,255,255)" transform="matrix(1,0,0,-1,0.0,200.0)"/>
 <path d="M0,0 l66,0" fill="none" stroke="rgb(229,229,229)" stroke-width="2" transform="matrix(1,0,0,-1,0.0,135.0)"/>
 <path d="M0,1 l0,-5" fill="none" stroke="rgb(204,204,204)" stroke-width="2" transform="matrix(1,0,0,-1,5.0,135.0)"/>
 <path d="M0,1 l0,-5" fill="none" stroke="rgb(204,204,204)" stroke-width="2" transform="matrix(1,0,0,-1,49.0,135.0)"/>
 <path d="M296,97 c145,0,222,68,263,130 l-62,64 c-28,-50,-86,-110,-192,-110 c-111,0,-157,83,-162,124 l60,15 c121,34,190,97,190,192 c0,86,-61,148,-156,148 c-91,0,-153,-61,-153,-136 c0,-39,15,-69,33,-87 l84,25 c-15,15,-24,38,-24,57 c0,38,25,60,60,60 c38,0,63,-25,63,-65 c0,-52,-29,-93,-158,-130 l-111,-30 c7,-148,111,-257,265,-257 Z M296,97" fill="rgb(0,0,0)" transform="matrix(0.1,0.0,0.0,-0.1,5.0,135.0)"/>
</svg>