<?xml version="1.0" encoding="UTF-8"?>
<svg height="200.0" version="1.1" width="80.0" xmlns="http://www.w3.org/2000/svg" xmlns:xlink="http://www.w3.org/1999/xlink">
 <path d="M0,0 l80,0 l0,200 l-80,0 Z M0,0" fill="rgb(255,255,255)" transform="matrix(1,0,0,-1,0.0,200.0)"/>
 <path d="M0,0 l80,0" fill="none" stroke="rgb(229,229,229)" stroke-width="2" transform="matrix(1,0,0,-1,0.0,135.0)"/>
 <path d="M0,1 l0,-5" fill="none" stroke="rgb(204,204,204)" stroke-width="2" transform="matrix(1,0,0,-1,7.0,135.0)"/>
 <path d="M0,1 l0,-5" fill="none" stroke="rgb(204,204,204)" stroke-width="2" transform="matrix(1,0,0,-1,62.0,135.0)"/>
 <path d="M59,-87 c0,-32,24,-56,56,-56 c33,0,57,24,57,56 c0,33,-24,57,-57,57 c-32,0,-56,-24,-56,-57 Z M644,325 c-27,-20,-75,-37,-131,-37 c-35,0,-67,6,-89,14 c-11,10,-23,18,-34,22 l-167,-36 c-32,9,-57,40,-57,69 c0,30,11,50,69,50 l189,0 l0,166 l146,0 l0,77 l-594,0 l0,-77 l356,0 l0,-88 l-142,0 c-76,0,-120,-41,-120,-104 c0,-79,58,-150,141,-177 l149,33 c10,-7,24,-25,24,-53 c0,-63,-64,-90,-130,-90 l-28,0 l-138,91 c-19,-10,-36,-31,-36,-61 c0,-49,45,-103,155,-105 l163,-146 l101,53 l-159,102 l-3,3 c85,8,164,62,164,154 c0,12,-1,24,-3,35 c19,-6,40,-9,63,-9 c56,0,102,14,133,32 Z M644,325" fill="rgb(0,0,0)" transform="matrix(0.1,0.0,0.0,-0.1,7.0,135.0)"/>
</svg>