<?xml version="1.0" encoding="UTF-8"?>
<svg height="200.0" version="1.1" width="74.0" xmlns="http://www.w3.org/2000/svg" xmlns:xlink="http://www.w3.org/1999/xlink">
 <path d="M0,0 l74,0 l0,200 l-74,0 Z M0,0" fill="rgb(255,255,255)" transform="matrix(1,0,0,-1,0.0,200.0)"/>
 <path d="M0,0 l74,0" fill="none" stroke="rgb(229,229,229)" stroke-width="2" transform="matrix(1,0,0,-1,0.0,135.0)"/>
 <path d="M0,1 l0,-5" fill="none" stroke="rgb(204,204,204)" stroke-width="2" transform="matrix(1,0,0,-1,7.0,135.0)"/>
 <path d="M0,1 l0,-5" fill="none" stroke="rgb(204,204,204)" stroke-width="2" transform="matrix(1,0,0,-1,57.0,135.0)"/>
 <path d="M53,-9 c0,-32,24,-56,56,-56 c33,0,57,24,57,56 c0,33,-24,57,-57,57 c-32,0,-56,-24,-56,-57 Z M524,650 l-548,0 l0,-77 l548,0 Z M593,360 c-22,-6,-57,-13,-100,-13 c-21,0,-45,2,-67,5 c-21,85,-94,136,-190,136 c-45,0,-81,-13,-108,-27 l35,-81 c17,10,42,20,72,20 c59,0,103,-36,103,-104 c0,-71,-54,-113,-115,-113 c-76,0,-124,46,-158,100 l-61,-69 c35,-56,112,-118,220,-118 c111,0,195,69,207,173 c22,-4,47,-6,72,-6 c44,0,81,7,104,14 Z M593,360" fill="rgb(0,0,0)" transform="matrix(0.1,0.0,0.0,-0.1,7.0,135.0)"/>
</svg>