<?xml version="1.0" encoding="UTF-8"?>
<svg height="200.0" version="1.1" width="62.0" xmlns="http://www.w3.org/2000/svg" xmlns:xlink="http://www.w3.org/1999/xlink">
 <path d="M0,0 l62,0 l0,200 l-62,0 Z M0,0" fill="rgb(255,255,255)" transform="matrix(1,0,0,-1,0.0,200.0)"/>
 <path d="M0,0 l62,0" fill="none" stroke="rgb(229,229,229)" stroke-width="2" transform="matrix(1,0,0,-1,0.0,135.0)"/>
 <path d="M0,1 l0,-5" fill="none" stroke="rgb(204,204,204)" stroke-width="2" transform="matrix(1,0,0,-1,7.0,135.0)"/>
 <path d="M0,1 l0,-5" fill="none" stroke="rgb(204,204,204)" stroke-width="2" transform="matrix(1,0,0,-1,44.0,135.0)"/>
 <path d="M284,130 c109,0,178,52,221,120 l-58,61 c-25,-44,-67,-98,-157,-98 c-93,0,-135,64,-143,118 c73,17,131,67,131,137 c0,41,-15,75,-42,101 l0,4 l153,0 l0,77 l-413,0 l0,-77 l167,0 c24,-23,39,-60,39,-91 c0,-63,-53,-94,-141,-112 c13,-156,117,-240,243,-240 Z M62,25 c0,-32,24,-56,56,-56 c33,0,57,24,57,56 c0,33,-24,57,-57,57 c-32,0,-56,-24,-56,-57 Z M62,25" fill="rgb(0,0,0)" transform="matrix(0.1,0.0,0.0,-0.1,7.0,135.0)"/>
</svg>