<?xml version="1.0" encoding="UTF-8"?>
<svg height="200.0" version="1.1" width="94.0" xmlns="http://www.w3.org/2000/svg" xmlns:xlink="http://www.w3.org/1999/xlink">
 <path d="M0,0 l94,0 l0,200 l-94,0 Z M0,0" fill="rgb(255,255,255)" transform="matrix(1,0,0,-1,0.0,200.0)"/>
 <path d="M0,0 l94,0" fill="none" stroke="rgb(229,229,229)" stroke-width="2" transform="matrix(1,0,0,-1,0.0,135.0)"/>
 <path d="M0,1 l0,-5" fill="none" stroke="rgb(204,204,204)" stroke-width="2" transform="matrix(1,0,0,-1,7.0,135.0)"/>
 <path d="M0,1 l0,-5" fill="none" stroke="rgb(204,204,204)" stroke-width="2" transform="matrix(1,0,0,-1,86.0,135.0)"/>
 <path d="M353,169 l0,-169 l93,0 l0,277 c0,68,44,116,110,116 c57,0,96,-39,96,-96 c0,-66,-52,-109,-135,-95 l15,-84 c115,-13,216,56,216,180 c0,107,-79,176,-174,176 c-63,0,-104,-28,-124,-52 l-4,0 l0,151 l366,0 l0,77 l-836,0 l0,-77 l377,0 l0,-253 c0,-69,-45,-116,-109,-116 c-58,0,-98,40,-98,96 c0,67,52,109,136,95 l-15,84 c-114,13,-217,-58,-217,-174 c0,-98,68,-152,128,-161 l0,-4 l-138,-78 l75,-67 l234,174 Z M353,169" fill="rgb(0,0,0)" transform="matrix(0.1,0.0,0.0,-0.1,7.0,135.0)"/>
</svg>