<?xml version="1.0" encoding="UTF-8"?>
<svg height="200.0" version="1.1" width="80.0" xmlns="http://www.w3.org/2000/svg" xmlns:xlink="http://www.w3.org/1999/xlink">
 <path d="M0,0 l80,0 l0,200 l-80,0 Z M0,0" fill="rgb(255,255,255)" transform="matrix(1,0,0,-1,0.0,200.0)"/>
 <path d="M0,0 l80,0" fill="none" stroke="rgb(229,229,229)" stroke-width="2" transform="matrix(1,0,0,-1,0.0,135.0)"/>
 <path d="M0,1 l0,-5" fill="none" stroke="rgb(204,204,204)" stroke-width="2" transform="matrix(1,0,0,-1,7.0,135.0)"/>
 <path d="M0,1 l0,-5" fill="none" stroke="rgb(204,204,204)" stroke-width="2" transform="matrix(1,0,0,-1,73.0,135.0)"/>
 <path d="M464,163 l4,0 l0,-163 l95,0 l0,573 l116,0 l0,77 l-703,0 l0,-77 l492,0 l0,-315 c-16,-23,-72,-70,-150,-70 c-76,0,-116,40,-116,96 c0,61,43,99,118,99 l75,0 l0,82 l-376,0 l0,-83 l136,0 l0,-4 c-18,-15,-51,-47,-51,-105 c0,-84,62,-132,127,-141 l0,-4 l-158,-72 l79,-69 Z M464,163" fill="rgb(0,0,0)" transform="matrix(0.1,0.0,0.0,-0.1,7.0,135.0)"/>
</svg>