<?xml version="1.0" encoding="UTF-8"?>
<svg height="200.0" version="1.1" width="72.0" xmlns="http://www.w3.org/2000/svg" xmlns:xlink="http://www.w3.org/1999/xlink">
 <path d="M0,0 l72,0 l0,200 l-72,0 Z M0,0" fill="rgb(255,255,255)" transform="matrix(1,0,0,-1,0.0,200.0)"/>
 <path d="M0,0 l72,0" fill="none" stroke="rgb(229,229,229)" stroke-width="2" transform="matrix(1,0,0,-1,0.0,135.0)"/>
 <path d="M0,1 l0,-5" fill="none" stroke="rgb(204,204,204)" stroke-width="2" transform="matrix(1,0,0,-1,7.0,135.0)"/>
 <path d="M0,1 l0,-5" fill="none" stroke="rgb(204,204,204)" stroke-width="2" transform="matrix(1,0,0,-1,65.0,135.0)"/>
 <path d="M196,124 l-136,-73 l78,-67 l261,172 l4,0 l0,-156 l95,0 l0,573 l106,0 l0,77 l-628,0 l0,-77 l428,0 l0,-321 l-8,-6 l-194,158 c20,12,45,19,70,19 c21,0,45,-2,67,-10 l-4,84 c-23,6,-45,8,-71,8 c-108,0,-207,-78,-207,-196 c0,-114,80,-169,139,-181 Z M273,185 c-70,0,-124,48,-124,120 c0,22,5,42,15,58 l190,-153 c-23,-16,-48,-25,-81,-25 Z M273,185" fill="rgb(0,0,0)" transform="matrix(0.1,0.0,0.0,-0.1,7.0,135.0)"/>
</svg>