<?xml version="1.0" encoding="UTF-8"?>
<svg height="200.0" version="1.1" width="86.0" xmlns="http://www.w3.org/2000/svg" xmlns:xlink="http://www.w3.org/1999/xlink">
 <path d="M0,0 l86,0 l0,200 l-86,0 Z M0,0" fill="rgb(255,255,255)" transform="matrix(1,0,0,-1,0.0,200.0)"/>
 <path d="M0,0 l86,0" fill="none" stroke="rgb(229,229,229)" stroke-width="2" transform="matrix(1,0,0,-1,0.0,135.0)"/>
 <path d="M0,1 l0,-5" fill="none" stroke="rgb(204,204,204)" stroke-width="2" transform="matrix(1,0,0,-1,7.0,135.0)"/>
 <path d="M0,1 l0,-5" fill="none" stroke="rgb(204,204,204)" stroke-width="2" transform="matrix(1,0,0,-1,79.0,135.0)"/>
 <path d="M264,71 c-82,52,-121,123,-121,199 c0,77,39,106,80,106 c46,0,75,-30,75,-90 l0,-89 l89,0 l0,87 c0,64,29,95,76,95 c29,0,59,-15,72,-27 l0,-138 l-242,-178 l74,-54 l166,135 l4,0 l0,-130 l91,0 l0,586 l117,0 l0,77 l-769,0 l0,-77 l558,0 l0,-140 l-4,0 c-15,17,-47,30,-82,30 c-47,0,-92,-28,-105,-82 l-4,0 c-17,48,-61,78,-125,78 c-84,0,-168,-62,-168,-186 c0,-112,63,-207,148,-264 Z M264,71" fill="rgb(0,0,0)" transform="matrix(0.1,0.0,0.0,-0.1,7.0,135.0)"/>
</svg>