<?xml version="1.0" encoding="UTF-8"?>
<svg height="200.0" version="1.1" width="74.0" xmlns="http://www.w3.org/2000/svg" xmlns:xlink="http://www.w3.org/1999/xlink">
 <path d="M0,0 l74,0 l0,200 l-74,0 Z M0,0" fill="rgb(255,255,255)" transform="matrix(1,0,0,-1,0.0,200.0)"/>
 <path d="M0,0 l74,0" fill="none" stroke="rgb(229,229,229)" stroke-width="2" transform="matrix(1,0,0,-1,0.0,135.0)"/>
 <path d="M0,1 l0,-5" fill="none" stroke="rgb(204,204,204)" stroke-width="2" transform="matrix(1,0,0,-1,7.0,135.0)"/>
 <path d="M0,1 l0,-5" fill="none" stroke="rgb(204,204,204)" stroke-width="2" transform="matrix(1,0,0,-1,66.0,135.0)"/>
 <path d="M255,205 l-205,-166 l91,-55 l260,237 l4,0 l0,-221 l94,0 l0,573 l116,0 l0,77 l-639,0 l0,-77 l117,0 l0,-214 c0,-110,73,-153,162,-150 Z M284,277 c-58,0,-99,28,-99,93 l0,40 c0,64,-6,93,-6,93 c0,0,27,-30,66,-67 l133,-129 c-20,-17,-54,-30,-94,-30 Z M408,405 c0,-15,-2,-28,-6,-40 l-212,208 l218,0 Z M408,405" fill="rgb(0,0,0)" transform="matrix(0.1,0.0,0.0,-0.1,7.0,135.0)"/>
</svg>