<?xml version="1.0" encoding="UTF-8"?>
<svg height="200.0" version="1.1" width="88.0" xmlns="http://www.w3.org/2000/svg" xmlns:xlink="http://www.w3.org/1999/xlink">
 <path d="M0,0 l88,0 l0,200 l-88,0 Z M0,0" fill="rgb(255,255,255)" transform="matrix(1,0,0,-1,0.0,200.0)"/>
 <path d="M0,0 l88,0" fill="none" stroke="rgb(229,229,229)" stroke-width="2" transform="matrix(1,0,0,-1,0.0,135.0)"/>
 <path d="M0,1 l0,-5" fill="none" stroke="rgb(204,204,204)" stroke-width="2" transform="matrix(1,0,0,-1,7.0,135.0)"/>
 <path d="M0,1 l0,-5" fill="none" stroke="rgb(204,204,204)" stroke-width="2" transform="matrix(1,0,0,-1,80.0,135.0)"/>
 <path d="M632,-98 l106,24 l-152,155 c64,29,106,96,106,187 c0,105,-53,180,-137,196 l0,109 l202,0 l0,77 l-781,0 l0,-77 l487,0 l0,-113 c-42,-12,-72,-39,-93,-73 c-21,33,-66,79,-143,79 c-109,0,-183,-83,-183,-203 c0,-119,65,-199,169,-199 c75,0,120,32,151,81 c15,-25,43,-55,86,-70 l-147,-146 l106,-27 l113,137 Z M218,145 c-57,0,-83,51,-83,121 c0,73,38,122,95,122 c50,0,84,-34,105,-79 c0,-2,-1,-5,-2,-7 c-26,-90,-44,-157,-115,-157 Z M507,143 c-55,0,-86,35,-108,80 c1,2,1,4,2,6 c28,82,46,157,114,157 c57,0,85,-51,85,-121 c0,-75,-37,-122,-93,-122 Z M507,143" fill="rgb(0,0,0)" transform="matrix(0.1,0.0,0.0,-0.1,7.0,135.0)"/>
</svg>