<?xml version="1.0" encoding="UTF-8"?>
<svg height="200.0" version="1.1" width="98.0" xmlns="http://www.w3.org/2000/svg" xmlns:xlink="http://www.w3.org/1999/xlink">
 <path d="M0,0 l98,0 l0,200 l-98,0 Z M0,0" fill="rgb(255,255,255)" transform="matrix(1,0,0,-1,0.0,200.0)"/>
 <path d="M0,0 l98,0" fill="none" stroke="rgb(229,229,229)" stroke-width="2" transform="matrix(1,0,0,-1,0.0,135.0)"/>
 <path d="M0,1 l0,-5" fill="none" stroke="rgb(204,204,204)" stroke-width="2" transform="matrix(1,0,0,-1,5.0,135.0)"/>
 <path d="M0,1 l0,-5" fill="none" stroke="rgb(204,204,204)" stroke-width="2" transform="matrix(1,0,0,-1,90.0,135.0)"/>
 <path d="M512,-73 l-94,138 c19,16,33,44,33,82 c0,43,-30,74,-54,84 l-62,-21 l0,-92 c-16,-13,-49,-22,-84,-22 c-74,0,-122,45,-122,103 c0,61,51,92,146,122 c108,-38,262,-47,399,-22 l0,-7 l-197,-171 l78,-44 l112,113 l4,0 l-1,-190 l91,0 l0,573 l116,0 l0,77 l-341,0 l0,-77 l130,0 l0,-191 c-93,-22,-232,-19,-301,-6 l0,4 c30,15,82,52,82,130 c0,86,-70,150,-175,150 c-105,0,-183,-65,-183,-151 c0,-63,41,-113,94,-138 c-87,-34,-149,-85,-149,-169 c0,-106,84,-188,228,-188 c36,0,69,6,92,15 l48,-125 Z M179,508 c0,44,34,76,91,76 c56,0,89,-32,89,-75 c0,-57,-47,-89,-91,-100 c-54,17,-89,54,-89,99 Z M179,508" fill="rgb(0,0,0)" transform="matrix(0.1,0.0,0.0,-0.1,5.0,135.0)"/>
</svg>