<?xml version="1.0" encoding="UTF-8"?>
<svg height="200.0" version="1.1" width="96.0" xmlns="http://www.w3.org/2000/svg" xmlns:xlink="http://www.w3.org/1999/xlink">
 <path d="M0,0 l96,0 l0,200 l-96,0 Z M0,0" fill="rgb(255,255,255)" transform="matrix(1,0,0,-1,0.0,200.0)"/>
 <path d="M0,0 l96,0" fill="none" stroke="rgb(229,229,229)" stroke-width="2" transform="matrix(1,0,0,-1,0.0,135.0)"/>
 <path d="M0,1 l0,-5" fill="none" stroke="rgb(204,204,204)" stroke-width="2" transform="matrix(1,0,0,-1,8.0,135.0)"/>
 <path d="M0,1 l0,-5" fill="none" stroke="rgb(204,204,204)" stroke-width="2" transform="matrix(1,0,0,-1,89.0,135.0)"/>
 <path d="M621,120 l4,0 l0,-120 l88,0 l0,573 l117,0 l0,77 l-855,0 l0,-77 l255,0 l0,-152 c0,-39,-20,-55,-46,-55 c-33,0,-51,20,-63,48 l-79,-28 c35,-240,176,-321,275,-330 l0,-4 l-216,-60 l71,-76 l261,98 c105,40,156,76,188,106 Z M621,470 c-21,18,-48,31,-93,31 c-88,0,-161,-66,-161,-157 c0,-93,72,-144,140,-149 l47,59 c-60,3,-100,36,-100,88 c0,49,35,81,85,81 c50,0,92,-38,92,-105 c0,-130,-106,-205,-233,-205 c-116,0,-214,71,-239,191 c11,-4,26,-8,48,-8 c67,0,114,43,114,126 l0,151 l304,0 l0,-103 Z M441,-81 c0,-32,24,-56,56,-56 c33,0,57,24,57,56 c0,33,-24,57,-57,57 c-32,0,-56,-24,-56,-57 Z M441,-81" fill="rgb(0,0,0)" transform="matrix(0.1,0.0,0.0,-0.1,8.0,135.0)"/>
</svg>