<?xml version="1.0" encoding="UTF-8"?>
<svg height="200.0" version="1.1" width="88.0" xmlns="http://www.w3.org/2000/svg" xmlns:xlink="http://www.w3.org/1999/xlink">
 <path d="M0,0 l88,0 l0,200 l-88,0 Z M0,0" fill="rgb(255,255,255)" transform="matrix(1,0,0,-1,0.0,200.0)"/>
 <path d="M0,0 l88,0" fill="none" stroke="rgb(229,229,229)" stroke-width="2" transform="matrix(1,0,0,-1,0.0,135.0)"/>
 <path d="M0,1 l0,-5" fill="none" stroke="rgb(204,204,204)" stroke-width="2" transform="matrix(1,0,0,-1,7.0,135.0)"/>
 <path d="M0,1 l0,-5" fill="none" stroke="rgb(204,204,204)" stroke-width="2" transform="matrix(1,0,0,-1,81.0,135.0)"/>
 <path d="M760,650 l-784,0 l0,-77 l573,0 l0,-257 c-37,7,-80,20,-110,37 c-1,6,-1,12,-1,19 c-12,92,-90,152,-183,152 c-48,0,-89,-14,-119,-31 l39,-80 c19,14,46,24,77,24 c49,0,95,-28,95,-91 c0,-62,-49,-99,-111,-99 c-71,0,-124,46,-155,98 l-66,-64 c34,-54,111,-119,221,-119 c86,0,159,42,189,108 c26,-13,69,-26,107,-32 c9,-2,18,-4,27,-5 l0,-4 l-353,-222 l83,-64 l256,187 l4,0 l0,-130 l95,0 l0,573 l116,0 Z M46,64 c0,-32,24,-56,56,-56 c33,0,57,24,57,56 c0,33,-24,57,-57,57 c-32,0,-56,-24,-56,-57 Z M46,64" fill="rgb(0,0,0)" transform="matrix(0.1,0.0,0.0,-0.1,7.0,135.0)"/>
</svg>