<?xml version="1.0" encoding="UTF-8"?>
<svg height="200.0" version="1.1" width="68.0" xmlns="http://www.w3.org/2000/svg" xmlns:xlink="http://www.w3.org/1999/xlink">
 <path d="M0,0 l68,0 l0,200 l-68,0 Z M0,0" fill="rgb(255,255,255)" transform="matrix(1,0,0,-1,0.0,200.0)"/>
 <path d="M0,0 l68,0" fill="none" stroke="rgb(229,229,229)" stroke-width="2" transform="matrix(1,0,0,-1,0.0,135.0)"/>
 <path d="M0,1 l0,-5" fill="none" stroke="rgb(204,204,204)" stroke-width="2" transform="matrix(1,0,0,-1,10.0,135.0)"/>
 <path d="M0,1 l0,-5" fill="none" stroke="rgb(204,204,204)" stroke-width="2" transform="matrix(1,0,0,-1,61.0,135.0)"/>
 <path d="M405,-124 l106,25 l-140,143 c47,10,91,32,129,69 l-50,76 c-43,-45,-93,-69,-164,-69 c-96,0,-146,65,-146,127 c0,56,18,91,117,119 l145,41 l0,166 l136,0 l0,77 l-562,0 l0,-77 l330,0 l0,-100 l-106,-32 c-105,-31,-155,-84,-155,-176 c0,-98,69,-189,175,-219 l-144,-143 l106,-27 l113,138 Z M-48,22 c0,-32,24,-56,56,-56 c33,0,57,24,57,56 c0,33,-24,57,-57,57 c-32,0,-56,-24,-56,-57 Z M-48,22" fill="rgb(0,0,0)" transform="matrix(0.1,0.0,0.0,-0.1,10.0,135.0)"/>
</svg>