<?xml version="1.0" encoding="UTF-8"?>
<svg height="200.0" version="1.1" width="94.0" xmlns="http://www.w3.org/2000/svg" xmlns:xlink="http://www.w3.org/1999/xlink">
 <path d="M0,0 l94,0 l0,200 l-94,0 Z M0,0" fill="rgb(255,255,255)" transform="matrix(1,0,0,-1,0.0,200.0)"/>
 <path d="M0,0 l94,0" fill="none" stroke="rgb(229,229,229)" stroke-width="2" transform="matrix(1,0,0,-1,0.0,135.0)"/>
 <path d="M0,1 l0,-5" fill="none" stroke="rgb(204,204,204)" stroke-width="2" transform="matrix(1,0,0,-1,7.0,135.0)"/>
 <path d="M0,1 l0,-5" fill="none" stroke="rgb(204,204,204)" stroke-width="2" transform="matrix(1,0,0,-1,87.0,135.0)"/>
 <path d="M426,102 l178,117 l4,0 l0,-219 l95,0 l0,573 l116,0 l0,77 l-843,0 l0,-77 l257,0 l0,-169 c0,-44,-21,-61,-59,-61 c-41,0,-67,25,-87,50 l-70,-59 l262,-342 l78,48 l-116,150 c-28,36,-46,54,-67,77 l1,4 c109,-16,150,91,252,91 c59,0,91,-43,104,-91 l-175,-106 Z M435,448 c-45,0,-83,-15,-108,-29 l0,154 l281,0 l0,-254 l-4,0 c-26,75,-76,129,-169,129 Z M14,8 c0,-32,24,-56,56,-56 c33,0,57,24,57,56 c0,33,-24,57,-57,57 c-32,0,-56,-24,-56,-57 Z M14,8" fill="rgb(0,0,0)" transform="matrix(0.1,0.0,0.0,-0.1,7.0,135.0)"/>
</svg>