<?xml version="1.0" encoding="UTF-8"?>
<svg height="200.0" version="1.1" width="84.0" xmlns="http://www.w3.org/2000/svg" xmlns:xlink="http://www.w3.org/1999/xlink">
 <path d="M0,0 l84,0 l0,200 l-84,0 Z M0,0" fill="rgb(255,255,255)" transform="matrix(1,0,0,-1,0.0,200.0)"/>
 <path d="M0,0 l84,0" fill="none" stroke="rgb(229,229,229)" stroke-width="2" transform="matrix(1,0,0,-1,0.0,135.0)"/>
 <path d="M0,1 l0,-5" fill="none" stroke="rgb(204,204,204)" stroke-width="2" transform="matrix(1,0,0,-1,7.0,135.0)"/>
 <path d="M0,1 l0,-5" fill="none" stroke="rgb(204,204,204)" stroke-width="2" transform="matrix(1,0,0,-1,65.0,135.0)"/>
 <path d="M400,107 c-116,0,-213,72,-239,193 c12,-5,27,-9,48,-9 c68,0,114,44,114,126 l0,156 l279,0 l0,77 l-624,0 l0,-77 l254,0 l0,-157 c0,-39,-19,-54,-46,-54 c-33,0,-51,19,-63,48 l-79,-29 c36,-240,176,-320,276,-329 l0,-4 l-217,-61 l71,-76 l270,102 c178,67,268,167,268,304 c0,107,-78,180,-173,180 c-95,0,-166,-67,-166,-157 c0,-93,71,-143,139,-148 l49,59 c-60,3,-101,37,-101,87 c0,48,31,81,81,81 c47,0,89,-36,89,-101 c0,-122,-104,-211,-230,-211 Z M400,107" fill="rgb(0,0,0)" transform="matrix(0.1,0.0,0.0,-0.1,7.0,135.0)"/>
</svg>