<?xml version="1.0" encoding="UTF-8"?>
<svg height="200.0" version="1.1" width="64.0" xmlns="http://www.w3.org/2000/svg" xmlns:xlink="http://www.w3.org/1999/xlink">
 <path d="M0,0 l64,0 l0,200 l-64,0 Z M0,0" fill="rgb(255,255,255)" transform="matrix(1,0,0,-1,0.0,200.0)"/>
 <path d="M0,0 l64,0" fill="none" stroke="rgb(229,229,229)" stroke-width="2" transform="matrix(1,0,0,-1,0.0,135.0)"/>
 <path d="M0,1 l0,-5" fill="none" stroke="rgb(204,204,204)" stroke-width="2" transform="matrix(1,0,0,-1,7.0,135.0)"/>
 <path d="M0,1 l0,-5" fill="none" stroke="rgb(204,204,204)" stroke-width="2" transform="matrix(1,0,0,-1,45.0,135.0)"/>
 <path d="M470,291 c-33,-53,-97,-100,-181,-100 c-80,0,-110,41,-110,82 c0,43,30,73,97,73 l57,0 l0,78 l-62,0 c-69,0,-100,32,-100,73 c0,43,28,76,91,76 l145,0 l0,77 l-431,0 l0,-77 l138,0 l0,-4 c-19,-12,-42,-37,-42,-78 c0,-62,45,-98,98,-104 l0,-4 c-40,-12,-89,-48,-89,-115 c0,-84,69,-137,150,-137 l0,-4 l-150,-80 l80,-69 l273,175 c34,22,67,49,91,75 Z M470,291" fill="rgb(0,0,0)" transform="matrix(0.1,0.0,0.0,-0.1,7.0,135.0)"/>
</svg>