<?xml version="1.0" encoding="UTF-8"?>
<svg height="200.0" version="1.1" width="74.0" xmlns="http://www.w3.org/2000/svg" xmlns:xlink="http://www.w3.org/1999/xlink">
 <path d="M0,0 l74,0 l0,200 l-74,0 Z M0,0" fill="rgb(255,255,255)" transform="matrix(1,0,0,-1,0.0,200.0)"/>
 <path d="M0,0 l74,0" fill="none" stroke="rgb(229,229,229)" stroke-width="2" transform="matrix(1,0,0,-1,0.0,135.0)"/>
 <path d="M0,1 l0,-5" fill="none" stroke="rgb(204,204,204)" stroke-width="2" transform="matrix(1,0,0,-1,7.0,135.0)"/>
 <path d="M0,1 l0,-5" fill="none" stroke="rgb(204,204,204)" stroke-width="2" transform="matrix(1,0,0,-1,66.0,135.0)"/>
 <path d="M414,-127 l106,24 l-146,149 c104,28,167,110,167,205 c0,106,-73,168,-141,201 l0,121 l209,0 l0,77 l-633,0 l0,-77 l329,0 l0,-101 l-105,-32 c-105,-31,-156,-84,-156,-176 c0,-105,74,-196,186,-221 l-145,-143 l106,-27 l113,137 Z M283,120 c-97,0,-145,65,-145,127 c0,56,19,91,118,120 l80,22 c47,-15,113,-57,113,-131 c0,-73,-54,-138,-166,-138 Z M473,-330 l-156,175 l-75,-29 l109,-150 l122,0 Z M473,-330" fill="rgb(0,0,0)" transform="matrix(0.1,0.0,0.0,-0.1,7.0,135.0)"/>
</svg>