<?xml version="1.0" encoding="UTF-8"?>
<svg height="200.0" version="1.1" width="82.0" xmlns="http://www.w3.org/2000/svg" xmlns:xlink="http://www.w3.org/1999/xlink">
 <path d="M0,0 l82,0 l0,200 l-82,0 Z M0,0" fill="rgb(255,255,255)" transform="matrix(1,0,0,-1,0.0,200.0)"/>
 <path d="M0,0 l82,0" fill="none" stroke="rgb(229,229,229)" stroke-width="2" transform="matrix(1,0,0,-1,0.0,135.0)"/>
 <path d="M0,1 l0,-5" fill="none" stroke="rgb(204,204,204)" stroke-width="2" transform="matrix(1,0,0,-1,7.0,135.0)"/>
 <path d="M0,1 l0,-5" fill="none" stroke="rgb(204,204,204)" stroke-width="2" transform="matrix(1,0,0,-1,66.0,135.0)"/>
 <path d="M574,474 c-61,0,-104,-27,-124,-52 l-4,0 l0,151 l167,0 l0,77 l-637,0 l0,-77 l377,0 l0,-253 c0,-69,-45,-116,-109,-116 c-58,0,-98,40,-98,96 c0,67,52,109,136,95 l-15,84 c-114,13,-217,-58,-217,-174 c0,-98,68,-152,128,-161 l0,-4 l-138,-78 l75,-67 l234,174 l4,0 l0,-169 l93,0 l0,277 c0,68,45,116,111,116 c44,0,76,-20,92,-47 l56,69 c-30,37,-80,59,-131,59 Z M197,-54 c0,-32,24,-56,56,-56 c33,0,57,24,57,56 c0,33,-24,57,-57,57 c-32,0,-56,-24,-56,-57 Z M197,-54" fill="rgb(0,0,0)" transform="matrix(0.1,0.0,0.0,-0.1,7.0,135.0)"/>
</svg>