<?xml version="1.0" encoding="UTF-8"?>
<svg height="200.0" version="1.1" width="84.0" xmlns="http://www.w3.org/2000/svg" xmlns:xlink="http://www.w3.org/1999/xlink">
 <path d="M0,0 l84,0 l0,200 l-84,0 Z M0,0" fill="rgb(255,255,255)" transform="matrix(1,0,0,-1,0.0,200.0)"/>
 <path d="M0,0 l84,0" fill="none" stroke="rgb(229,229,229)" stroke-width="2" transform="matrix(1,0,0,-1,0.0,135.0)"/>
 <path d="M0,1 l0,-5" fill="none" stroke="rgb(204,204,204)" stroke-width="2" transform="matrix(1,0,0,-1,7.0,135.0)"/>
 <path d="M0,1 l0,-5" fill="none" stroke="rgb(204,204,204)" stroke-width="2" transform="matrix(1,0,0,-1,75.0,135.0)"/>
 <path d="M471,-125 l105,24 l-151,154 c133,46,211,168,211,281 c0,98,-63,162,-154,162 c-84,0,-141,-58,-141,-128 c0,-63,42,-107,91,-119 l57,57 c-37,7,-58,29,-58,61 c0,31,23,51,52,51 c36,0,65,-27,65,-83 c0,-120,-107,-219,-233,-219 c-90,0,-133,47,-133,104 c0,52,33,86,98,88 l20,0 l0,81 l-35,0 c-63,0,-98,36,-98,88 c0,57,41,96,106,96 l435,0 l0,77 l-732,0 l0,-77 l138,0 l0,-4 c-17,-14,-46,-42,-46,-98 c0,-60,38,-108,100,-122 l0,-4 c-42,-16,-84,-55,-84,-129 c0,-89,67,-169,192,-180 l-135,-134 l106,-27 l113,137 Z M1,-8 c0,-32,24,-56,56,-56 c33,0,57,24,57,56 c0,33,-24,57,-57,57 c-32,0,-56,-24,-56,-57 Z M1,-8" fill="rgb(0,0,0)" transform="matrix(0.1,0.0,0.0,-0.1,7.0,135.0)"/>
</svg>