<?xml version="1.0" encoding="UTF-8"?>
<svg height="200.0" version="1.1" width="84.0" xmlns="http://www.w3.org/2000/svg" xmlns:xlink="http://www.w3.org/1999/xlink">
 <path d="M0,0 l84,0 l0,200 l-84,0 Z M0,0" fill="rgb(255,255,255)" transform="matrix(1,0,0,-1,0.0,200.0)"/>
 <path d="M0,0 l84,0" fill="none" stroke="rgb(229,229,229)" stroke-width="2" transform="matrix(1,0,0,-1,0.0,135.0)"/>
 <path d="M0,1 l0,-5" fill="none" stroke="rgb(204,204,204)" stroke-width="2" transform="matrix(1,0,0,-1,7.0,135.0)"/>
 <path d="M0,1 l0,-5" fill="none" stroke="rgb(204,204,204)" stroke-width="2" transform="matrix(1,0,0,-1,62.0,135.0)"/>
 <path d="M684,238 l-220,-199 l81,-47 l162,172 l0,175 c-37,-24,-95,-49,-178,-49 c-65,0,-113,19,-142,33 l-163,-35 c-33,9,-57,40,-57,69 c0,30,10,50,69,50 l189,0 l0,166 l145,0 l0,77 l-594,0 l0,-77 l356,0 l0,-88 l-141,0 c-77,0,-121,-41,-121,-104 c0,-79,58,-150,141,-177 l149,33 c10,-7,24,-25,24,-53 c0,-63,-63,-90,-130,-90 l-28,0 l-139,92 c-20,-10,-35,-34,-35,-62 c0,-49,45,-104,155,-106 l162,-149 l104,55 l-162,104 l-1,3 c84,8,163,62,163,154 c0,14,-2,27,-6,38 c22,-6,50,-10,78,-10 c43,0,97,6,138,28 Z M102,-91 c0,-32,24,-56,56,-56 c33,0,57,24,57,56 c0,33,-24,57,-57,57 c-32,0,-56,-24,-56,-57 Z M102,-91" fill="rgb(0,0,0)" transform="matrix(0.1,0.0,0.0,-0.1,7.0,135.0)"/>
</svg>