<?xml version="1.0" encoding="UTF-8"?>
<svg height="200.0" version="1.1" width="74.0" xmlns="http://www.w3.org/2000/svg" xmlns:xlink="http://www.w3.org/1999/xlink">
 <path d="M0,0 l74,0 l0,200 l-74,0 Z M0,0" fill="rgb(255,255,255)" transform="matrix(1,0,0,-1,0.0,200.0)"/>
 <path d="M0,0 l74,0" fill="none" stroke="rgb(229,229,229)" stroke-width="2" transform="matrix(1,0,0,-1,0.0,135.0)"/>
 <path d="M0,1 l0,-5" fill="none" stroke="rgb(204,204,204)" stroke-width="2" transform="matrix(1,0,0,-1,7.0,135.0)"/>
 <path d="M0,1 l0,-5" fill="none" stroke="rgb(204,204,204)" stroke-width="2" transform="matrix(1,0,0,-1,59.0,135.0)"/>
 <path d="M524,650 l-548,0 l0,-77 l548,0 Z M608,173 l0,134 c-70,9,-139,29,-169,46 l-1,19 c-12,92,-90,152,-183,152 c-48,0,-89,-14,-119,-31 l39,-80 c19,14,46,24,77,24 c49,0,95,-28,95,-91 c0,-62,-49,-99,-111,-99 c-71,0,-124,46,-155,98 l-66,-64 c34,-54,111,-119,221,-119 c86,0,159,42,189,108 c26,-13,69,-25,107,-31 c9,-2,18,-3,27,-4 l0,-4 l-353,-224 l83,-64 Z M46,64 c0,-32,24,-56,56,-56 c33,0,57,24,57,56 c0,33,-24,57,-57,57 c-32,0,-56,-24,-56,-57 Z M46,64" fill="rgb(0,0,0)" transform="matrix(0.1,0.0,0.0,-0.1,7.0,135.0)"/>
</svg>