<?xml version="1.0" encoding="UTF-8"?>
<svg height="200.0" version="1.1" width="72.0" xmlns="http://www.w3.org/2000/svg" xmlns:xlink="http://www.w3.org/1999/xlink">
 <path d="M0,0 l72,0 l0,200 l-72,0 Z M0,0" fill="rgb(255,255,255)" transform="matrix(1,0,0,-1,0.0,200.0)"/>
 <path d="M0,0 l72,0" fill="none" stroke="rgb(229,229,229)" stroke-width="2" transform="matrix(1,0,0,-1,0.0,135.0)"/>
 <path d="M0,1 l0,-5" fill="none" stroke="rgb(204,204,204)" stroke-width="2" transform="matrix(1,0,0,-1,10.0,135.0)"/>
 <path d="M0,1 l0,-5" fill="none" stroke="rgb(204,204,204)" stroke-width="2" transform="matrix(1,0,0,-1,65.0,135.0)"/>
 <path d="M411,-155 l105,24 l-144,148 c81,24,130,89,130,165 c0,68,-38,122,-87,142 l-165,-35 c-35,11,-58,44,-58,72 c0,31,14,48,73,48 l182,0 l0,164 l129,0 l0,77 l-600,0 l0,-77 l379,0 l0,-86 l-137,0 c-77,0,-120,-43,-120,-106 c0,-75,56,-146,139,-177 l150,34 c17,-13,26,-34,26,-57 c0,-60,-47,-95,-116,-95 c-87,0,-158,58,-199,142 l-66,-48 c38,-73,102,-141,193,-165 l-144,-143 l106,-27 l113,137 Z M472,-363 l-156,175 l-75,-29 l109,-150 l122,0 Z M-49,-17 c0,-32,24,-56,56,-56 c33,0,57,24,57,56 c0,33,-24,57,-57,57 c-32,0,-56,-24,-56,-57 Z M-49,-17" fill="rgb(0,0,0)" transform="matrix(0.1,0.0,0.0,-0.1,10.0,135.0)"/>
</svg>