<?xml version="1.0" encoding="UTF-8"?>
<svg height="200.0" version="1.1" width="72.0" xmlns="http://www.w3.org/2000/svg" xmlns:xlink="http://www.w3.org/1999/xlink">
 <path d="M0,0 l72,0 l0,200 l-72,0 Z M0,0" fill="rgb(255,255,255)" transform="matrix(1,0,0,-1,0.0,200.0)"/>
 <path d="M0,0 l72,0" fill="none" stroke="rgb(229,229,229)" stroke-width="2" transform="matrix(1,0,0,-1,0.0,135.0)"/>
 <path d="M0,1 l0,-5" fill="none" stroke="rgb(204,204,204)" stroke-width="2" transform="matrix(1,0,0,-1,10.0,135.0)"/>
 <path d="M0,1 l0,-5" fill="none" stroke="rgb(204,204,204)" stroke-width="2" transform="matrix(1,0,0,-1,64.0,135.0)"/>
 <path d="M411,-134 l106,24 l-145,149 c73,22,118,81,118,151 c0,72,-59,130,-132,130 c-84,0,-125,-58,-129,-104 l66,-45 c-3,37,18,67,56,67 c30,0,50,-22,50,-50 c0,-43,-33,-75,-93,-75 c-102,0,-168,75,-168,147 c0,58,24,100,118,124 l168,43 l0,146 l137,0 l0,77 l-587,0 l0,-77 l354,0 l0,-80 l-126,-36 c-99,-27,-160,-93,-160,-186 c0,-110,80,-201,187,-230 l-149,-148 l106,-27 l113,137 Z M473,-348 l-156,175 l-75,-29 l109,-150 l122,0 Z M-47,20 c0,-32,24,-56,56,-56 c33,0,57,24,57,56 c0,33,-24,57,-57,57 c-32,0,-56,-24,-56,-57 Z M-47,20" fill="rgb(0,0,0)" transform="matrix(0.1,0.0,0.0,-0.1,10.0,135.0)"/>
</svg>