<?xml version="1.0" encoding="UTF-8"?>
<svg height="200.0" version="1.1" width="58.0" xmlns="http://www.w3.org/2000/svg" xmlns:xlink="http://www.w3.org/1999/xlink">
 <path d="M0,0 l58,0 l0,200 l-58,0 Z M0,0" fill="rgb(255,255,255)" transform="matrix(1,0,0,-1,0.0,200.0)"/>
 <path d="M0,0 l58,0" fill="none" stroke="rgb(229,229,229)" stroke-width="2" transform="matrix(1,0,0,-1,0.0,135.0)"/>
 <path d="M0,1 l0,-5" fill="none" stroke="rgb(204,204,204)" stroke-width="2" transform="matrix(1,0,0,-1,7.0,135.0)"/>
 <path d="M0,1 l0,-5" fill="none" stroke="rgb(204,204,204)" stroke-width="2" transform="matrix(1,0,0,-1,40.0,135.0)"/>
 <path d="M354,650 l-378,0 l0,-77 l378,0 Z M400,299 c-13,-39,-51,-102,-132,-102 c-66,0,-111,44,-111,106 c0,86,87,116,153,96 l-8,85 c-123,22,-244,-48,-244,-181 c0,-101,72,-159,131,-170 l0,-4 l-134,-73 l83,-68 l228,153 c49,33,79,70,98,108 Z M238,-63 c0,-32,24,-56,56,-56 c33,0,57,24,57,56 c0,33,-24,57,-57,57 c-32,0,-56,-24,-56,-57 Z M238,-63" fill="rgb(0,0,0)" transform="matrix(0.1,0.0,0.0,-0.1,7.0,135.0)"/>
</svg>