<?xml version="1.0" encoding="UTF-8"?>
<svg height="200.0" version="1.1" width="76.0" xmlns="http://www.w3.org/2000/svg" xmlns:xlink="http://www.w3.org/1999/xlink">
 <path d="M0,0 l76,0 l0,200 l-76,0 Z M0,0" fill="rgb(255,255,255)" transform="matrix(1,0,0,-1,0.0,200.0)"/>
 <path d="M0,0 l76,0" fill="none" stroke="rgb(229,229,229)" stroke-width="2" transform="matrix(1,0,0,-1,0.0,135.0)"/>
 <path d="M0,1 l0,-5" fill="none" stroke="rgb(204,204,204)" stroke-width="2" transform="matrix(1,0,0,-1,7.0,135.0)"/>
 <path d="M0,1 l0,-5" fill="none" stroke="rgb(204,204,204)" stroke-width="2" transform="matrix(1,0,0,-1,59.0,135.0)"/>
 <path d="M627,236 c-11,141,-93,211,-193,211 c-45,0,-82,-14,-107,-28 l0,154 l217,0 l0,77 l-568,0 l0,-77 l257,0 l0,-169 c0,-44,-21,-61,-59,-61 c-41,0,-67,25,-87,50 l-70,-59 l262,-342 l78,48 l-116,150 c-28,37,-45,55,-66,78 l0,3 c109,-16,150,90,252,90 c57,0,91,-37,104,-89 l-176,-108 l71,-64 Z M14,8 c0,-32,24,-56,56,-56 c33,0,57,24,57,56 c0,33,-24,57,-57,57 c-32,0,-56,-24,-56,-57 Z M14,8" fill="rgb(0,0,0)" transform="matrix(0.1,0.0,0.0,-0.1,7.0,135.0)"/>
</svg>