<?xml version="1.0" encoding="UTF-8"?>
<svg height="200.0" version="1.1" width="72.0" xmlns="http://www.w3.org/2000/svg" xmlns:xlink="http://www.w3.org/1999/xlink">
 <path d="M0,0 l72,0 l0,200 l-72,0 Z M0,0" fill="rgb(255,255,255)" transform="matrix(1,0,0,-1,0.0,200.0)"/>
 <path d="M0,0 l72,0" fill="none" stroke="rgb(229,229,229)" stroke-width="2" transform="matrix(1,0,0,-1,0.0,135.0)"/>
 <path d="M0,1 l0,-5" fill="none" stroke="rgb(204,204,204)" stroke-width="2" transform="matrix(1,0,0,-1,7.0,135.0)"/>
 <path d="M0,1 l0,-5" fill="none" stroke="rgb(204,204,204)" stroke-width="2" transform="matrix(1,0,0,-1,63.0,135.0)"/>
 <path d="M398,232 l0,-4 l-158,-117 l80,-35 l93,81 l4,0 l-2,-99 l81,0 l0,191 l-62,59 l-141,0 c-28,0,-53,-2,-76,-9 c-33,15,-55,41,-55,66 c0,25,15,41,61,41 l250,0 l0,167 l113,0 l0,77 l-610,0 l0,-77 l405,0 l0,-87 l-183,0 c-80,0,-129,-46,-129,-108 c0,-47,26,-91,72,-117 c-40,-31,-61,-76,-61,-125 c0,-121,104,-202,271,-226 l50,73 c-177,17,-227,85,-227,151 c0,57,39,98,116,98 Z M22,-93 c0,-32,24,-56,56,-56 c33,0,57,24,57,56 c0,33,-24,57,-57,57 c-32,0,-56,-24,-56,-57 Z M546,-298 l-156,175 l-75,-29 l109,-150 l122,0 Z M546,-298" fill="rgb(0,0,0)" transform="matrix(0.1,0.0,0.0,-0.1,7.0,135.0)"/>
</svg>