<?xml version="1.0" encoding="UTF-8"?>
<svg height="200.0" version="1.1" width="150.0" xmlns="http://www.w3.org/2000/svg" xmlns:xlink="http://www.w3.org/1999/xlink">
 <path d="M0,0 l150,0 l0,200 l-150,0 Z M0,0" fill="rgb(255,255,255)" transform="matrix(1,0,0,-1,0.0,200.0)"/>
 <path d="M0,0 l150,0" fill="none" stroke="rgb(229,229,229)" stroke-width="2" transform="matrix(1,0,0,-1,0.0,135.0)"/>
 <path d="M0,1 l0,-5" fill="none" stroke="rgb(204,204,204)" stroke-width="2" transform="matrix(1,0,0,-1,7.0,135.0)"/>
 <path d="M0,1 l0,-5" fill="none" stroke="rgb(204,204,204)" stroke-width="2" transform="matrix(1,0,0,-1,143.0,135.0)"/>
 <path d="M816,201 c-58,0,-98,40,-98,95 c0,77,66,109,136,96 l-15,84 c-59,7,-116,-8,-157,-43 c-29,25,-70,41,-118,41 c-60,0,-104,-27,-124,-52 l-4,0 l0,151 l489,0 l0,-257 c0,-67,-43,-115,-109,-115 Z M343,171 l0,-171 l93,0 l0,277 c0,68,45,116,112,116 c37,0,65,-14,84,-34 c-6,-19,-10,-40,-10,-63 c0,-106,81,-177,175,-177 c66,0,105,29,124,52 l4,0 l0,-171 l93,0 l0,277 c0,68,44,116,110,116 c57,0,96,-39,96,-96 c0,-76,-65,-108,-135,-95 l15,-84 c111,-14,216,53,216,180 c0,107,-79,176,-173,176 c-63,0,-104,-28,-125,-52 l-4,0 l0,151 l367,0 l0,77 l-1409,0 l0,-77 l367,0 l0,-257 c0,-67,-43,-115,-109,-115 c-58,0,-98,40,-98,95 c0,77,66,109,136,96 l-15,84 c-111,13,-217,-53,-217,-180 c0,-106,81,-177,175,-177 c66,0,105,29,124,52 Z M343,171" fill="rgb(0,0,0)" transform="matrix(0.1,0.0,0.0,-0.1,7.0,135.0)"/>
</svg>