<?xml version="1.0" encoding="UTF-8"?>
<svg height="200.0" version="1.1" width="150.0" xmlns="http://www.w3.org/2000/svg" xmlns:xlink="http://www.w3.org/1999/xlink">
 <path d="M0,0 l150,0 l0,200 l-150,0 Z M0,0" fill="rgb(255,255,255)" transform="matrix(1,0,0,-1,0.0,200.0)"/>
 <path d="M0,0 l150,0" fill="none" stroke="rgb(229,229,229)" stroke-width="2" transform="matrix(1,0,0,-1,0.0,135.0)"/>
 <path d="M0,1 l0,-5" fill="none" stroke="rgb(204,204,204)" stroke-width="2" transform="matrix(1,0,0,-1,7.0,135.0)"/>
 <path d="M0,1 l0,-5" fill="none" stroke="rgb(204,204,204)" stroke-width="2" transform="matrix(1,0,0,-1,142.0,135.0)"/>
 <path d="M804,201 c-58,0,-98,40,-98,95 c0,77,66,109,136,96 l-15,84 c-57,7,-112,-7,-153,-40 c-30,24,-70,38,-110,38 c-60,0,-104,-27,-124,-52 l-4,0 l0,151 l477,0 l0,-257 c0,-67,-44,-115,-109,-115 Z M343,171 l0,-171 l93,0 l0,277 c0,68,45,116,112,116 c31,0,57,-11,74,-27 c-8,-21,-12,-44,-12,-70 c0,-106,81,-177,175,-177 c66,0,105,29,124,52 l4,0 l0,-171 l93,0 l0,277 c0,68,44,116,110,116 c56,0,96,-39,96,-96 c0,-76,-65,-108,-135,-95 l15,-84 c110,-14,216,53,216,180 c0,107,-79,176,-174,176 c-63,0,-104,-28,-124,-52 l-4,0 l0,151 l366,0 l0,77 l-1396,0 l0,-77 l367,0 l0,-257 c0,-67,-43,-115,-109,-115 c-58,0,-98,40,-98,95 c0,77,66,109,136,96 l-15,84 c-111,13,-217,-53,-217,-180 c0,-106,81,-177,175,-177 c66,0,105,29,124,52 Z M81,12 c0,-30,23,-53,54,-53 c32,0,55,23,55,53 c0,33,-23,56,-55,56 c-31,0,-54,-23,-54,-56 Z M649,14 c0,-30,24,-54,54,-54 c33,0,56,24,56,54 c0,33,-23,56,-56,56 c-30,0,-54,-23,-54,-56 Z M649,14" fill="rgb(0,0,0)" transform="matrix(0.1,0.0,0.0,-0.1,7.0,135.0)"/>
</svg>