<?xml version="1.0" encoding="UTF-8"?>
<svg height="200.0" version="1.1" width="152.0" xmlns="http://www.w3.org/2000/svg" xmlns:xlink="http://www.w3.org/1999/xlink">
 <path d="M0,0 l152,0 l0,200 l-152,0 Z M0,0" fill="rgb(255,255,255)" transform="matrix(1,0,0,-1,0.0,200.0)"/>
 <path d="M0,0 l152,0" fill="none" stroke="rgb(229,229,229)" stroke-width="2" transform="matrix(1,0,0,-1,0.0,135.0)"/>
 <path d="M0,1 l0,-5" fill="none" stroke="rgb(204,204,204)" stroke-width="2" transform="matrix(1,0,0,-1,7.0,135.0)"/>
 <path d="M0,1 l0,-5" fill="none" stroke="rgb(204,204,204)" stroke-width="2" transform="matrix(1,0,0,-1,145.0,135.0)"/>
 <path d="M754,358 c-29,0,-46,15,-58,37 l-11,27 c-30,34,-72,52,-121,52 c-60,0,-104,-27,-124,-52 l-4,0 l0,151 l364,0 l0,-161 c0,-39,-19,-54,-46,-54 Z M343,171 l0,-171 l93,0 l0,277 c0,68,45,116,112,116 c28,0,50,-8,66,-21 c19,-190,137,-350,345,-350 c115,0,194,51,233,97 l4,0 l0,-119 l88,0 l0,573 l116,0 l0,77 l-1424,0 l0,-77 l367,0 l0,-257 c0,-67,-43,-115,-109,-115 c-58,0,-98,40,-98,95 c0,77,66,109,136,96 l-15,84 c-111,13,-217,-53,-217,-180 c0,-106,81,-177,175,-177 c66,0,105,29,124,52 Z M1191,465 c-18,16,-45,30,-93,30 c-87,0,-158,-66,-158,-157 c0,-93,72,-145,140,-151 l50,59 c-61,3,-103,38,-103,90 c0,48,34,81,83,81 c46,0,88,-36,88,-101 c0,-131,-106,-215,-234,-215 c-120,0,-212,74,-238,192 c11,-5,26,-9,47,-9 c68,0,118,45,118,133 l0,156 l304,0 l0,-108 Z M1191,465" fill="rgb(0,0,0)" transform="matrix(0.1,0.0,0.0,-0.1,7.0,135.0)"/>
</svg>