<?xml version="1.0" encoding="UTF-8"?>
<svg height="200.0" version="1.1" width="146.0" xmlns="http://www.w3.org/2000/svg" xmlns:xlink="http://www.w3.org/1999/xlink">
 <path d="M0,0 l146,0 l0,200 l-146,0 Z M0,0" fill="rgb(255,255,255)" transform="matrix(1,0,0,-1,0.0,200.0)"/>
 <path d="M0,0 l146,0" fill="none" stroke="rgb(229,229,229)" stroke-width="2" transform="matrix(1,0,0,-1,0.0,135.0)"/>
 <path d="M0,1 l0,-5" fill="none" stroke="rgb(204,204,204)" stroke-width="2" transform="matrix(1,0,0,-1,7.0,135.0)"/>
 <path d="M0,1 l0,-5" fill="none" stroke="rgb(204,204,204)" stroke-width="2" transform="matrix(1,0,0,-1,138.0,135.0)"/>
 <path d="M564,474 c-60,0,-104,-27,-124,-52 l-4,0 l0,151 l690,0 l0,-127 l-253,0 l-38,-70 l0,-7 c41,-14,87,-49,87,-105 c0,-45,-30,-76,-79,-76 c-100,0,-159,127,-166,248 c-30,25,-70,38,-113,38 Z M436,277 c0,68,45,116,112,116 c17,0,33,-3,46,-9 c18,-119,93,-280,256,-280 c100,0,165,66,165,152 c0,56,-27,91,-49,108 l0,4 l160,0 l0,-368 l95,0 l0,573 l116,0 l0,77 l-1361,0 l0,-77 l367,0 l0,-257 c0,-67,-43,-115,-109,-115 c-58,0,-98,40,-98,95 c0,77,66,109,136,96 l-15,84 c-111,13,-217,-53,-217,-180 c0,-106,81,-177,175,-177 c66,0,105,29,124,52 l4,0 l0,-171 l93,0 Z M436,277" fill="rgb(0,0,0)" transform="matrix(0.1,0.0,0.0,-0.1,7.0,135.0)"/>
</svg>