<?xml version="1.0" encoding="UTF-8"?>
<svg height="200.0" version="1.1" width="148.0" xmlns="http://www.w3.org/2000/svg" xmlns:xlink="http://www.w3.org/1999/xlink">
 <path d="M0,0 l148,0 l0,200 l-148,0 Z M0,0" fill="rgb(255,255,255)" transform="matrix(1,0,0,-1,0.0,200.0)"/>
 <path d="M0,0 l148,0" fill="none" stroke="rgb(229,229,229)" stroke-width="2" transform="matrix(1,0,0,-1,0.0,135.0)"/>
 <path d="M0,1 l0,-5" fill="none" stroke="rgb(204,204,204)" stroke-width="2" transform="matrix(1,0,0,-1,7.0,135.0)"/>
 <path d="M0,1 l0,-5" fill="none" stroke="rgb(204,204,204)" stroke-width="2" transform="matrix(1,0,0,-1,140.0,135.0)"/>
 <path d="M440,422 l-4,0 l0,151 l201,0 l0,-113 c-22,9,-46,14,-73,14 c-60,0,-104,-27,-124,-52 Z M343,171 l0,-171 l93,0 l0,277 c0,68,45,116,112,116 c40,0,69,-16,89,-39 l0,-12 c0,-114,68,-174,173,-174 c104,0,175,61,175,175 l0,230 l154,0 l0,-573 l94,0 l0,573 l116,0 l0,77 l-1373,0 l0,-77 l367,0 l0,-257 c0,-67,-43,-115,-109,-115 c-58,0,-98,40,-98,95 c0,77,66,109,136,96 l-15,84 c-111,13,-217,-53,-217,-180 c0,-106,81,-177,175,-177 c66,0,105,29,124,52 Z M811,251 c-50,0,-80,30,-80,90 l0,232 l160,0 l0,-231 c0,-61,-28,-91,-80,-91 Z M811,251" fill="rgb(0,0,0)" transform="matrix(0.1,0.0,0.0,-0.1,7.0,135.0)"/>
</svg>