<?xml version="1.0" encoding="UTF-8"?>
<svg height="200.0" version="1.1" width="166.0" xmlns="http://www.w3.org/2000/svg" xmlns:xlink="http://www.w3.org/1999/xlink">
 <path d="M0,0 l166,0 l0,200 l-166,0 Z M0,0" fill="rgb(255,255,255)" transform="matrix(1,0,0,-1,0.0,200.0)"/>
 <path d="M0,0 l166,0" fill="none" stroke="rgb(229,229,229)" stroke-width="2" transform="matrix(1,0,0,-1,0.0,135.0)"/>
 <path d="M0,1 l0,-5" fill="none" stroke="rgb(204,204,204)" stroke-width="2" transform="matrix(1,0,0,-1,7.0,135.0)"/>
 <path d="M0,1 l0,-5" fill="none" stroke="rgb(204,204,204)" stroke-width="2" transform="matrix(1,0,0,-1,158.0,135.0)"/>
 <path d="M873,448 l-52,0 c-47,0,-91,-15,-124,-43 c-18,30,-58,69,-132,69 c-61,0,-105,-27,-125,-52 l-4,0 l0,151 l602,0 c24,-23,39,-60,39,-91 c0,-37,-18,-63,-51,-82 c-36,33,-93,48,-153,48 Z M343,171 l0,-171 l93,0 l0,277 c0,68,46,116,112,116 c59,0,87,-38,95,-72 c-5,-19,-8,-39,-8,-61 c0,-122,68,-215,140,-269 l73,58 c-66,47,-116,116,-116,209 c0,71,45,107,106,107 l28,0 c32,0,54,-4,72,-12 c18,-141,111,-223,229,-223 c84,0,131,40,152,64 l4,0 l0,-194 l94,0 l0,573 l116,0 l0,77 l-1557,0 l0,-77 l367,0 l0,-257 c0,-67,-43,-115,-109,-115 c-58,0,-98,40,-98,95 c0,77,66,109,136,96 l-15,84 c-111,13,-217,-53,-217,-180 c0,-106,81,-177,175,-177 c66,0,105,29,124,52 Z M1042,331 c73,17,131,67,131,137 c0,41,-15,75,-42,101 l0,4 l192,0 l0,-210 c0,-94,-57,-150,-142,-150 c-89,0,-131,63,-139,118 Z M1042,331" fill="rgb(0,0,0)" transform="matrix(0.1,0.0,0.0,-0.1,7.0,135.0)"/>
</svg>