<?xml version="1.0" encoding="UTF-8"?>
<svg height="200.0" version="1.1" width="158.0" xmlns="http://www.w3.org/2000/svg" xmlns:xlink="http://www.w3.org/1999/xlink">
 <path d="M0,0 l158,0 l0,200 l-158,0 Z M0,0" fill="rgb(255,255,255)" transform="matrix(1,0,0,-1,0.0,200.0)"/>
 <path d="M0,0 l158,0" fill="none" stroke="rgb(229,229,229)" stroke-width="2" transform="matrix(1,0,0,-1,0.0,135.0)"/>
 <path d="M0,1 l0,-5" fill="none" stroke="rgb(204,204,204)" stroke-width="2" transform="matrix(1,0,0,-1,7.0,135.0)"/>
 <path d="M0,1 l0,-5" fill="none" stroke="rgb(204,204,204)" stroke-width="2" transform="matrix(1,0,0,-1,151.0,135.0)"/>
 <path d="M1347,573 l116,0 l0,77 l-1487,0 l0,-77 l367,0 l0,-257 c0,-67,-43,-115,-109,-115 c-58,0,-98,40,-98,95 c0,77,66,109,136,96 l-15,84 c-111,13,-217,-53,-217,-180 c0,-106,81,-177,175,-177 c66,0,105,29,124,52 l4,0 l0,-171 l93,0 l0,277 c0,68,45,116,112,116 c50,0,79,-29,90,-59 c-8,-22,-12,-47,-12,-74 c0,-122,67,-215,140,-269 l72,58 c-65,47,-115,116,-115,209 c0,71,44,107,106,107 l106,0 c-8,-21,-12,-44,-12,-70 c0,-113,87,-187,189,-187 c72,0,116,31,136,55 l4,0 l0,-163 l95,0 Z M1129,191 c-65,0,-107,44,-107,105 c0,84,77,119,152,99 l-8,85 c-60,11,-121,0,-167,-32 l-188,0 c-44,0,-86,-13,-119,-39 c-22,32,-63,65,-128,65 c-60,0,-104,-27,-124,-52 l-4,0 l0,151 l816,0 l0,-245 c0,-76,-46,-137,-123,-137 Z M1129,191" fill="rgb(0,0,0)" transform="matrix(0.1,0.0,0.0,-0.1,7.0,135.0)"/>
</svg>