<?xml version="1.0" encoding="UTF-8"?>
<svg height="200.0" version="1.1" width="142.0" xmlns="http://www.w3.org/2000/svg" xmlns:xlink="http://www.w3.org/1999/xlink">
 <path d="M0,0 l142,0 l0,200 l-142,0 Z M0,0" fill="rgb(255,255,255)" transform="matrix(1,0,0,-1,0.0,200.0)"/>
 <path d="M0,0 l142,0" fill="none" stroke="rgb(229,229,229)" stroke-width="2" transform="matrix(1,0,0,-1,0.0,135.0)"/>
 <path d="M0,1 l0,-5" fill="none" stroke="rgb(204,204,204)" stroke-width="2" transform="matrix(1,0,0,-1,8.0,135.0)"/>
 <path d="M0,1 l0,-5" fill="none" stroke="rgb(204,204,204)" stroke-width="2" transform="matrix(1,0,0,-1,134.0,135.0)"/>
 <path d="M436,0 l0,262 c0,71,45,114,105,114 c51,0,77,-24,91,-56 c19,-131,112,-224,252,-224 c104,0,164,51,188,85 l4,0 l0,-181 l93,0 l0,573 l116,0 l0,77 l-210,0 l0,-282 c0,-98,-58,-187,-182,-187 c-110,0,-147,85,-153,124 c20,5,40,9,59,15 c122,33,191,94,191,192 c0,86,-59,148,-155,148 c-91,0,-153,-61,-153,-136 c0,-39,15,-69,32,-87 l85,25 c-15,15,-25,38,-25,57 c0,38,26,60,61,60 c39,0,62,-25,62,-65 c0,-53,-28,-94,-158,-130 l-42,-11 c-26,53,-70,86,-140,86 c-59,0,-97,-26,-117,-50 l-4,0 l0,164 l161,0 l0,77 l-622,0 l0,-77 l367,0 l0,-257 c0,-67,-43,-115,-108,-115 c-58,0,-98,40,-98,95 c0,77,66,109,135,96 l-14,84 c-111,13,-217,-53,-217,-180 c0,-106,80,-177,175,-177 c66,0,105,29,123,52 l4,0 l0,-171 Z M436,0" fill="rgb(0,0,0)" transform="matrix(0.1,0.0,0.0,-0.1,8.0,135.0)"/>
</svg>