<?xml version="1.0" encoding="UTF-8"?>
<svg height="200.0" version="1.1" width="126.0" xmlns="http://www.w3.org/2000/svg" xmlns:xlink="http://www.w3.org/1999/xlink">
 <path d="M0,0 l126,0 l0,200 l-126,0 Z M0,0" fill="rgb(255,255,255)" transform="matrix(1,0,0,-1,0.0,200.0)"/>
 <path d="M0,0 l126,0" fill="none" stroke="rgb(229,229,229)" stroke-width="2" transform="matrix(1,0,0,-1,0.0,135.0)"/>
 <path d="M0,1 l0,-5" fill="none" stroke="rgb(204,204,204)" stroke-width="2" transform="matrix(1,0,0,-1,7.0,135.0)"/>
 <path d="M0,1 l0,-5" fill="none" stroke="rgb(204,204,204)" stroke-width="2" transform="matrix(1,0,0,-1,117.0,135.0)"/>
 <path d="M980,419 l0,154 l147,0 l0,77 l-1151,0 l0,-77 l367,0 l0,-257 c0,-67,-43,-115,-109,-115 c-58,0,-98,40,-98,95 c0,77,66,109,136,96 l-15,84 c-111,13,-217,-53,-217,-180 c0,-106,81,-177,175,-177 c66,0,105,29,124,52 l4,0 l0,-171 l93,0 l0,277 c0,68,45,116,112,116 c36,0,62,-13,82,-31 c-12,-23,-18,-50,-18,-81 c0,-119,100,-217,239,-217 c31,0,64,6,89,16 l71,-131 l109,27 l-115,144 c19,19,37,46,37,86 c0,48,-32,76,-59,90 l-65,-25 l0,-99 c-17,-15,-45,-24,-80,-25 c-73,-1,-132,50,-132,119 c0,57,31,92,124,116 Z M440,422 l-4,0 l0,151 l449,0 l0,-88 l-111,-27 c-33,-8,-60,-19,-83,-33 c-30,30,-74,49,-127,49 c-60,0,-104,-27,-124,-52 Z M440,422" fill="rgb(0,0,0)" transform="matrix(0.1,0.0,0.0,-0.1,7.0,135.0)"/>
</svg>