<?xml version="1.0" encoding="UTF-8"?>
<svg height="200.0" version="1.1" width="126.0" xmlns="http://www.w3.org/2000/svg" xmlns:xlink="http://www.w3.org/1999/xlink">
 <path d="M0,0 l126,0 l0,200 l-126,0 Z M0,0" fill="rgb(255,255,255)" transform="matrix(1,0,0,-1,0.0,200.0)"/>
 <path d="M0,0 l126,0" fill="none" stroke="rgb(229,229,229)" stroke-width="2" transform="matrix(1,0,0,-1,0.0,135.0)"/>
 <path d="M0,1 l0,-5" fill="none" stroke="rgb(204,204,204)" stroke-width="2" transform="matrix(1,0,0,-1,7.0,135.0)"/>
 <path d="M0,1 l0,-5" fill="none" stroke="rgb(204,204,204)" stroke-width="2" transform="matrix(1,0,0,-1,117.0,135.0)"/>
 <path d="M732,230 l0,97 l186,0 l0,-327 l94,0 l0,573 l116,0 l0,77 l-1152,0 l0,-77 l367,0 l0,-257 c0,-67,-43,-115,-109,-115 c-58,0,-98,40,-98,95 c0,77,66,109,136,96 l-15,84 c-111,13,-217,-53,-217,-180 c0,-106,81,-177,175,-177 c66,0,105,29,124,52 l4,0 l0,-171 l93,0 l0,270 c0,68,45,115,112,115 c21,0,39,-6,53,-17 c0,-79,36,-135,79,-159 Z M564,467 c-60,0,-104,-28,-124,-52 l-4,0 l0,158 l482,0 l0,-162 l-221,0 c-37,40,-86,56,-133,56 Z M79,16 c0,-32,24,-56,56,-56 c33,0,57,24,57,56 c0,33,-24,57,-57,57 c-32,0,-56,-24,-56,-57 Z M79,16" fill="rgb(0,0,0)" transform="matrix(0.1,0.0,0.0,-0.1,7.0,135.0)"/>
</svg>