<?xml version="1.0" encoding="UTF-8"?>
<svg height="200.0" version="1.1" width="152.0" xmlns="http://www.w3.org/2000/svg" xmlns:xlink="http://www.w3.org/1999/xlink">
 <path d="M0,0 l152,0 l0,200 l-152,0 Z M0,0" fill="rgb(255,255,255)" transform="matrix(1,0,0,-1,0.0,200.0)"/>
 <path d="M0,0 l152,0" fill="none" stroke="rgb(229,229,229)" stroke-width="2" transform="matrix(1,0,0,-1,0.0,135.0)"/>
 <path d="M0,1 l0,-5" fill="none" stroke="rgb(204,204,204)" stroke-width="2" transform="matrix(1,0,0,-1,7.0,135.0)"/>
 <path d="M0,1 l0,-5" fill="none" stroke="rgb(204,204,204)" stroke-width="2" transform="matrix(1,0,0,-1,143.0,135.0)"/>
 <path d="M440,422 l-4,0 l0,151 l202,0 l0,-115 c-23,10,-48,16,-74,16 c-60,0,-104,-27,-124,-52 Z M436,0 l0,277 c0,68,45,116,112,116 c42,0,74,-19,90,-46 c3,-101,61,-160,161,-160 c64,0,102,27,119,51 l4,0 l0,-238 l93,0 l0,262 c0,75,47,130,117,130 c58,0,97,-37,97,-94 c0,-68,-52,-117,-136,-101 l15,-85 c117,-13,216,61,216,187 c0,107,-78,176,-174,176 c-70,0,-113,-34,-131,-56 l-4,0 l0,154 l371,0 l0,77 l-1410,0 l0,-77 l367,0 l0,-257 c0,-67,-43,-115,-109,-115 c-58,0,-98,40,-98,95 c0,77,66,109,136,96 l-15,84 c-111,13,-217,-53,-217,-180 c0,-106,81,-177,175,-177 c66,0,105,29,124,52 l4,0 l0,-171 Z M190,12 c0,33,-23,56,-55,56 c-31,0,-54,-23,-54,-56 c0,-30,23,-53,54,-53 c32,0,55,23,55,53 Z M732,367 l0,206 l191,0 l0,-183 c0,-70,-40,-119,-110,-119 c-54,0,-81,28,-81,96 Z M767,31 c0,33,-23,56,-55,56 c-31,0,-54,-23,-54,-56 c0,-30,23,-53,54,-53 c32,0,55,23,55,53 Z M767,31" fill="rgb(0,0,0)" transform="matrix(0.1,0.0,0.0,-0.1,7.0,135.0)"/>
</svg>