<?xml version="1.0" encoding="UTF-8"?>
<svg height="200.0" version="1.1" width="130.0" xmlns="http://www.w3.org/2000/svg" xmlns:xlink="http://www.w3.org/1999/xlink">
 <path d="M0,0 l130,0 l0,200 l-130,0 Z M0,0" fill="rgb(255,255,255)" transform="matrix(1,0,0,-1,0.0,200.0)"/>
 <path d="M0,0 l130,0" fill="none" stroke="rgb(229,229,229)" stroke-width="2" transform="matrix(1,0,0,-1,0.0,135.0)"/>
 <path d="M0,1 l0,-5" fill="none" stroke="rgb(204,204,204)" stroke-width="2" transform="matrix(1,0,0,-1,7.0,135.0)"/>
 <path d="M0,1 l0,-5" fill="none" stroke="rgb(204,204,204)" stroke-width="2" transform="matrix(1,0,0,-1,122.0,135.0)"/>
 <path d="M834,418 c21,0,44,-2,66,-10 l-4,84 c-23,6,-45,8,-71,8 c-56,0,-111,-22,-150,-61 c-29,22,-67,35,-111,35 c-60,0,-104,-27,-124,-52 l-4,0 l0,151 l529,0 l0,-257 c0,-24,-6,-46,-16,-66 l-186,148 c21,13,45,20,71,20 Z M343,171 l0,-171 l93,0 l0,277 c0,68,45,116,112,116 c35,0,61,-12,80,-30 c-6,-20,-10,-42,-10,-65 c0,-115,86,-196,199,-196 c71,0,120,31,143,59 l4,0 l0,-161 l95,0 l0,573 l117,0 l0,77 l-1200,0 l0,-77 l367,0 l0,-257 c0,-67,-43,-115,-109,-115 c-58,0,-98,40,-98,95 c0,77,66,109,136,96 l-15,84 c-111,13,-217,-53,-217,-180 c0,-106,81,-177,175,-177 c66,0,105,29,124,52 Z M830,182 c-71,0,-120,50,-120,119 c0,22,5,41,15,58 l187,-151 c-22,-16,-50,-26,-82,-26 Z M79,13 c0,-32,24,-56,56,-56 c33,0,57,24,57,56 c0,33,-24,57,-57,57 c-32,0,-56,-24,-56,-57 Z M79,13" fill="rgb(0,0,0)" transform="matrix(0.1,0.0,0.0,-0.1,7.0,135.0)"/>
</svg>