<?xml version="1.0" encoding="UTF-8"?>
<svg height="200.0" version="1.1" width="166.0" xmlns="http://www.w3.org/2000/svg" xmlns:xlink="http://www.w3.org/1999/xlink">
 <path d="M0,0 l166,0 l0,200 l-166,0 Z M0,0" fill="rgb(255,255,255)" transform="matrix(1,0,0,-1,0.0,200.0)"/>
 <path d="M0,0 l166,0" fill="none" stroke="rgb(229,229,229)" stroke-width="2" transform="matrix(1,0,0,-1,0.0,135.0)"/>
 <path d="M0,1 l0,-5" fill="none" stroke="rgb(204,204,204)" stroke-width="2" transform="matrix(1,0,0,-1,7.0,135.0)"/>
 <path d="M0,1 l0,-5" fill="none" stroke="rgb(204,204,204)" stroke-width="2" transform="matrix(1,0,0,-1,158.0,135.0)"/>
 <path d="M824,192 c-64,0,-108,41,-108,104 c0,67,49,105,110,104 c14,0,27,-1,42,-5 l-7,85 c-15,3,-30,4,-43,4 c-50,1,-102,-15,-140,-47 c-29,23,-68,37,-114,37 c-60,0,-104,-27,-124,-52 l-4,0 l0,151 l604,0 c24,-23,39,-60,39,-91 c0,-63,-53,-94,-141,-112 c3,-29,8,-56,17,-81 c-16,-41,-53,-97,-131,-97 Z M343,171 l0,-171 l93,0 l0,277 c0,68,45,116,112,116 c34,0,61,-12,80,-30 c-7,-20,-11,-43,-11,-68 c0,-114,90,-187,199,-187 c96,0,153,46,187,95 c42,-47,100,-73,167,-73 c83,0,131,40,151,64 l4,0 l0,-194 l94,0 l0,573 l117,0 l0,77 l-1560,0 l0,-77 l367,0 l0,-257 c0,-67,-43,-115,-109,-115 c-58,0,-98,40,-98,95 c0,77,66,109,136,96 l-15,84 c-111,13,-217,-53,-217,-180 c0,-106,81,-177,175,-177 c66,0,105,29,124,52 Z M1044,331 c73,17,131,67,131,137 c0,41,-15,75,-42,101 l0,4 l192,0 l0,-210 c0,-94,-56,-150,-142,-150 c-89,0,-131,63,-139,118 Z M1044,331" fill="rgb(0,0,0)" transform="matrix(0.1,0.0,0.0,-0.1,7.0,135.0)"/>
</svg>