<?xml version="1.0" encoding="UTF-8"?>
<svg height="200.0" version="1.1" width="150.0" xmlns="http://www.w3.org/2000/svg" xmlns:xlink="http://www.w3.org/1999/xlink">
 <path d="M0,0 l150,0 l0,200 l-150,0 Z M0,0" fill="rgb(255,255,255)" transform="matrix(1,0,0,-1,0.0,200.0)"/>
 <path d="M0,0 l150,0" fill="none" stroke="rgb(229,229,229)" stroke-width="2" transform="matrix(1,0,0,-1,0.0,135.0)"/>
 <path d="M0,1 l0,-5" fill="none" stroke="rgb(204,204,204)" stroke-width="2" transform="matrix(1,0,0,-1,7.0,135.0)"/>
 <path d="M0,1 l0,-5" fill="none" stroke="rgb(204,204,204)" stroke-width="2" transform="matrix(1,0,0,-1,142.0,135.0)"/>
 <path d="M81,16 c0,-30,23,-54,54,-54 c32,0,55,24,55,54 c0,33,-23,56,-55,56 c-31,0,-54,-23,-54,-56 Z M854,451 c-37,9,-55,36,-55,65 c0,36,24,65,69,65 c45,0,87,-37,87,-109 c0,-93,-75,-148,-173,-148 c-23,0,-53,3,-81,11 c-12,71,-68,123,-143,123 c-59,0,-97,-25,-118,-49 l-4,0 l0,164 l159,0 l0,77 l-619,0 l0,-77 l367,0 l0,-257 c0,-67,-43,-115,-109,-115 c-58,0,-98,40,-98,95 c0,66,49,98,106,98 c10,0,20,0,30,-2 l-15,84 c-9,1,-18,1,-28,1 c-100,0,-189,-65,-189,-181 c0,-106,81,-177,175,-177 c66,0,105,29,124,52 l4,0 l0,-171 l93,0 l0,264 c0,68,40,114,103,114 c56,0,87,-41,87,-88 c0,-7,0,-14,-2,-21 l74,-59 l235,-226 l79,54 l-121,116 c-49,45,-80,67,-110,89 l1,4 c11,0,22,0,33,1 c127,7,236,84,236,225 c0,96,-61,187,-186,187 c-96,0,-161,-66,-161,-145 c0,-61,34,-108,93,-125 Z M1159,0 l95,0 l0,573 l116,0 l0,77 l-211,0 Z M1159,0" fill="rgb(0,0,0)" transform="matrix(0.1,0.0,0.0,-0.1,7.0,135.0)"/>
</svg>