<?xml version="1.0" encoding="UTF-8"?>
<svg height="200.0" version="1.1" width="122.0" xmlns="http://www.w3.org/2000/svg" xmlns:xlink="http://www.w3.org/1999/xlink">
 <path d="M0,0 l122,0 l0,200 l-122,0 Z M0,0" fill="rgb(255,255,255)" transform="matrix(1,0,0,-1,0.0,200.0)"/>
 <path d="M0,0 l122,0" fill="none" stroke="rgb(229,229,229)" stroke-width="2" transform="matrix(1,0,0,-1,0.0,135.0)"/>
 <path d="M0,1 l0,-5" fill="none" stroke="rgb(204,204,204)" stroke-width="2" transform="matrix(1,0,0,-1,5.0,135.0)"/>
 <path d="M0,1 l0,-5" fill="none" stroke="rgb(204,204,204)" stroke-width="2" transform="matrix(1,0,0,-1,114.0,135.0)"/>
 <path d="M512,-73 l-94,138 c19,16,33,44,33,82 c0,43,-30,74,-54,84 l-62,-21 l0,-92 c-16,-13,-49,-22,-84,-22 c-74,0,-122,45,-122,103 c0,61,51,92,146,122 c40,-17,103,-29,167,-29 c45,0,89,5,128,15 c1,-45,24,-110,67,-144 l75,0 l0,102 l194,0 l0,-265 l93,0 l0,573 l117,0 l0,77 l-599,0 l0,-77 l104,0 l0,-172 c-54,-25,-126,-32,-185,-32 c-23,0,-51,4,-71,7 l0,4 c30,15,82,52,82,130 c0,86,-70,150,-175,150 c-105,0,-183,-65,-183,-151 c0,-63,41,-113,94,-138 c-87,-34,-149,-85,-149,-169 c0,-106,84,-188,228,-188 c36,0,69,6,92,15 l48,-125 Z M179,508 c0,44,34,76,91,76 c56,0,89,-32,89,-75 c0,-57,-47,-89,-91,-100 c-54,17,-89,54,-89,99 Z M906,573 l0,-224 l-192,0 l0,224 Z M906,573" fill="rgb(0,0,0)" transform="matrix(0.1,0.0,0.0,-0.1,5.0,135.0)"/>
</svg>