<?xml version="1.0" encoding="UTF-8"?>
<svg height="200.0" version="1.1" width="170.0" xmlns="http://www.w3.org/2000/svg" xmlns:xlink="http://www.w3.org/1999/xlink">
 <path d="M0,0 l170,0 l0,200 l-170,0 Z M0,0" fill="rgb(255,255,255)" transform="matrix(1,0,0,-1,0.0,200.0)"/>
 <path d="M0,0 l170,0" fill="none" stroke="rgb(229,229,229)" stroke-width="2" transform="matrix(1,0,0,-1,0.0,135.0)"/>
 <path d="M0,1 l0,-5" fill="none" stroke="rgb(204,204,204)" stroke-width="2" transform="matrix(1,0,0,-1,7.0,135.0)"/>
 <path d="M0,1 l0,-5" fill="none" stroke="rgb(204,204,204)" stroke-width="2" transform="matrix(1,0,0,-1,162.0,135.0)"/>
 <path d="M1251,289 c-35,11,-58,44,-58,72 c0,31,14,48,73,48 l182,0 l0,164 l129,0 l0,77 l-1601,0 l0,-77 l367,0 l0,-257 c0,-67,-43,-115,-109,-115 c-58,0,-98,40,-98,95 c0,77,66,109,136,96 l-15,84 c-111,13,-217,-53,-217,-180 c0,-106,81,-177,175,-177 c66,0,105,29,124,52 l4,0 l0,-171 l93,0 l0,259 c0,72,36,117,86,117 c29,0,49,-18,79,-56 l255,-328 l77,50 l-110,139 c-31,40,-51,62,-72,85 l1,4 c10,-2,26,-2,35,-1 c26,3,50,11,70,26 c36,-19,91,-32,145,-32 c50,0,86,4,130,20 c24,-34,61,-62,106,-79 l150,34 c17,-13,26,-34,26,-57 c0,-60,-47,-95,-116,-95 c-83,0,-152,54,-193,132 l-66,-49 c49,-89,135,-163,258,-163 c125,0,206,78,206,176 c0,68,-38,122,-88,142 Z M993,346 c-34,0,-68,5,-96,13 c3,11,4,24,4,38 l0,176 l455,0 l0,-86 l-137,0 c-77,0,-120,-43,-120,-106 c0,-7,0,-14,1,-20 c-31,-11,-69,-15,-107,-15 Z M748,342 c-41,0,-66,25,-87,48 c-42,49,-73,67,-122,67 c-46,0,-80,-24,-99,-48 l-4,0 l0,164 l371,0 l0,-171 c0,-43,-21,-60,-59,-60 Z M748,342" fill="rgb(0,0,0)" transform="matrix(0.1,0.0,0.0,-0.1,7.0,135.0)"/>
</svg>