<?xml version="1.0" encoding="UTF-8"?>
<svg height="200.0" version="1.1" width="172.0" xmlns="http://www.w3.org/2000/svg" xmlns:xlink="http://www.w3.org/1999/xlink">
 <path d="M0,0 l172,0 l0,200 l-172,0 Z M0,0" fill="rgb(255,255,255)" transform="matrix(1,0,0,-1,0.0,200.0)"/>
 <path d="M0,0 l172,0" fill="none" stroke="rgb(229,229,229)" stroke-width="2" transform="matrix(1,0,0,-1,0.0,135.0)"/>
 <path d="M0,1 l0,-5" fill="none" stroke="rgb(204,204,204)" stroke-width="2" transform="matrix(1,0,0,-1,7.0,135.0)"/>
 <path d="M0,1 l0,-5" fill="none" stroke="rgb(204,204,204)" stroke-width="2" transform="matrix(1,0,0,-1,165.0,135.0)"/>
 <path d="M993,346 c-34,0,-68,5,-96,13 c3,11,4,24,4,38 l0,176 l491,0 l0,-125 l-146,0 c-68,0,-131,-32,-163,-93 c-28,-6,-59,-9,-90,-9 Z M748,342 c-41,0,-66,23,-87,48 c-42,49,-73,67,-122,67 c-46,0,-80,-24,-99,-48 l-4,0 l0,164 l371,0 l0,-171 c0,-43,-21,-60,-59,-60 Z M1273,49 c-65,47,-116,116,-116,209 c0,71,45,107,107,107 l128,0 l0,-365 l94,0 l0,573 l117,0 l0,77 l-1627,0 l0,-77 l367,0 l0,-257 c0,-67,-43,-115,-109,-115 c-58,0,-98,40,-98,95 c0,77,66,109,136,96 l-15,84 c-111,13,-217,-53,-217,-180 c0,-106,81,-177,175,-177 c66,0,105,29,124,52 l4,0 l0,-171 l93,0 l0,259 c0,72,36,117,86,117 c29,0,49,-19,79,-56 l255,-328 l77,50 l-110,139 c-31,40,-51,62,-72,85 l1,4 c10,-2,26,-2,35,-1 c25,2,49,10,68,24 c35,-19,89,-32,146,-32 c22,0,41,1,60,3 l0,-4 c0,-122,67,-215,140,-269 Z M1273,49" fill="rgb(0,0,0)" transform="matrix(0.1,0.0,0.0,-0.1,7.0,135.0)"/>
</svg>