<?xml version="1.0" encoding="UTF-8"?>
<svg height="200.0" version="1.1" width="174.0" xmlns="http://www.w3.org/2000/svg" xmlns:xlink="http://www.w3.org/1999/xlink">
 <path d="M0,0 l174,0 l0,200 l-174,0 Z M0,0" fill="rgb(255,255,255)" transform="matrix(1,0,0,-1,0.0,200.0)"/>
 <path d="M0,0 l174,0" fill="none" stroke="rgb(229,229,229)" stroke-width="2" transform="matrix(1,0,0,-1,0.0,135.0)"/>
 <path d="M0,1 l0,-5" fill="none" stroke="rgb(204,204,204)" stroke-width="2" transform="matrix(1,0,0,-1,7.0,135.0)"/>
 <path d="M0,1 l0,-5" fill="none" stroke="rgb(204,204,204)" stroke-width="2" transform="matrix(1,0,0,-1,167.0,135.0)"/>
 <path d="M748,342 c-41,0,-65,23,-87,48 c-42,49,-73,67,-122,67 c-46,0,-80,-24,-99,-48 l-4,0 l0,164 l371,0 l0,-171 c0,-43,-21,-60,-59,-60 Z M343,171 l0,-171 l93,0 l0,259 c0,72,36,117,86,117 c29,0,49,-19,79,-56 l255,-328 l77,50 l-110,139 c-31,40,-51,62,-72,85 l1,4 c10,-2,26,-2,35,-1 c25,2,47,10,66,23 c36,-19,89,-31,145,-31 c52,0,90,8,122,21 c27,-49,81,-69,143,-68 l0,-4 l-211,-170 l91,-54 l262,241 l4,0 l0,-227 l95,0 l0,573 l117,0 l0,77 l-1645,0 l0,-77 l367,0 l0,-257 c0,-67,-43,-115,-109,-115 c-58,0,-98,40,-98,95 c0,77,66,109,136,96 l-15,84 c-111,13,-217,-53,-217,-180 c0,-106,81,-177,175,-177 c66,0,105,29,124,52 Z M990,346 c-34,0,-66,4,-93,12 c2,12,4,25,4,39 l0,176 l200,0 l0,-206 c-27,-14,-64,-21,-111,-21 Z M1409,333 c-22,-24,-72,-49,-121,-49 c-64,0,-93,30,-93,97 l0,192 l214,0 Z M1409,333" fill="rgb(0,0,0)" transform="matrix(0.1,0.0,0.0,-0.1,7.0,135.0)"/>
</svg>