<?xml version="1.0" encoding="UTF-8"?>
<svg height="200.0" version="1.1" width="218.0" xmlns="http://www.w3.org/2000/svg" xmlns:xlink="http://www.w3.org/1999/xlink">
 <path d="M0,0 l218,0 l0,200 l-218,0 Z M0,0" fill="rgb(255,255,255)" transform="matrix(1,0,0,-1,0.0,200.0)"/>
 <path d="M0,0 l218,0" fill="none" stroke="rgb(229,229,229)" stroke-width="2" transform="matrix(1,0,0,-1,0.0,135.0)"/>
 <path d="M0,1 l0,-5" fill="none" stroke="rgb(204,204,204)" stroke-width="2" transform="matrix(1,0,0,-1,7.0,135.0)"/>
 <path d="M0,1 l0,-5" fill="none" stroke="rgb(204,204,204)" stroke-width="2" transform="matrix(1,0,0,-1,211.0,135.0)"/>
 <path d="M990,346 c-33,0,-66,4,-93,12 c2,12,4,25,4,39 l0,176 l188,0 l0,-210 c-27,-12,-61,-17,-99,-17 Z M1261,188 c46,0,82,10,112,25 c21,-98,89,-178,176,-223 l62,65 c-101,54,-148,132,-148,215 c0,10,1,19,2,27 c0,1,1,1,1,2 l-1,1 c9,55,44,76,79,76 c45,0,75,-30,75,-90 l0,-97 l89,0 l0,95 c0,64,29,95,76,95 c29,0,57,-15,70,-27 l0,-352 l95,0 l0,573 l116,0 l0,77 l-2089,0 l0,-77 l367,0 l0,-257 c0,-67,-43,-115,-109,-115 c-58,0,-98,40,-98,95 c0,77,66,109,136,96 l-15,84 c-111,13,-217,-53,-217,-180 c0,-106,81,-177,175,-177 c66,0,105,29,124,52 l4,0 l0,-171 l93,0 l0,259 c0,72,36,117,86,117 c29,0,49,-19,79,-56 l255,-328 l77,50 l-110,139 c-31,40,-51,62,-72,85 l1,4 c10,-2,26,-2,35,-1 c25,2,48,10,66,23 c36,-19,89,-31,145,-31 c43,0,77,6,107,16 c25,-56,80,-89,156,-89 Z M1850,433 c-15,17,-46,30,-81,30 c-47,0,-92,-28,-106,-82 l-4,0 c-16,48,-60,78,-124,78 c-76,0,-150,-50,-165,-149 c-24,-22,-56,-39,-97,-39 c-58,0,-90,28,-90,97 l0,205 l671,0 l0,-140 Z M748,342 c-41,0,-66,23,-87,48 c-42,49,-73,67,-122,67 c-46,0,-80,-24,-99,-48 l-4,0 l0,164 l371,0 l0,-171 c0,-43,-21,-60,-59,-60 Z M748,342" fill="rgb(0,0,0)" transform="matrix(0.1,0.0,0.0,-0.1,7.0,135.0)"/>
</svg>