<?xml version="1.0" encoding="UTF-8"?>
<svg height="200.0" version="1.1" width="152.0" xmlns="http://www.w3.org/2000/svg" xmlns:xlink="http://www.w3.org/1999/xlink">
 <path d="M0,0 l152,0 l0,200 l-152,0 Z M0,0" fill="rgb(255,255,255)" transform="matrix(1,0,0,-1,0.0,200.0)"/>
 <path d="M0,0 l152,0" fill="none" stroke="rgb(229,229,229)" stroke-width="2" transform="matrix(1,0,0,-1,0.0,135.0)"/>
 <path d="M0,1 l0,-5" fill="none" stroke="rgb(204,204,204)" stroke-width="2" transform="matrix(1,0,0,-1,7.0,135.0)"/>
 <path d="M0,1 l0,-5" fill="none" stroke="rgb(204,204,204)" stroke-width="2" transform="matrix(1,0,0,-1,145.0,135.0)"/>
 <path d="M402,102 c-120,0,-213,72,-241,191 c12,-5,27,-9,48,-9 c68,0,118,45,118,133 l0,156 l481,0 l0,-161 c0,-39,-19,-54,-46,-54 c-32,0,-48,15,-62,38 c-27,61,-84,102,-158,102 c-96,0,-165,-68,-165,-159 c0,-93,70,-144,138,-149 l50,59 c-60,3,-102,37,-102,89 c0,48,34,80,82,80 c47,0,92,-37,92,-101 c0,-130,-107,-215,-235,-215 Z M1199,119 l4,0 l0,-119 l89,0 l0,573 l116,0 l0,77 l-1426,0 l0,-77 l254,0 l0,-161 c0,-39,-18,-54,-44,-54 c-33,0,-53,19,-65,47 l-81,-28 c23,-196,144,-354,350,-354 c139,0,241,71,289,165 c55,-100,150,-166,281,-166 c116,0,194,51,233,97 Z M1199,465 c-17,16,-47,30,-93,30 c-88,0,-158,-66,-158,-157 c0,-93,71,-145,140,-151 l49,59 c-60,3,-102,38,-102,90 c0,48,34,81,82,81 c47,0,88,-36,88,-101 c0,-131,-106,-215,-233,-215 c-125,0,-215,75,-242,192 c12,-4,28,-8,49,-8 c68,0,120,44,120,132 l0,156 l304,0 l0,-108 Z M1199,465" fill="rgb(0,0,0)" transform="matrix(0.1,0.0,0.0,-0.1,7.0,135.0)"/>
</svg>