<?xml version="1.0" encoding="UTF-8"?>
<svg height="200.0" version="1.1" width="130.0" xmlns="http://www.w3.org/2000/svg" xmlns:xlink="http://www.w3.org/1999/xlink">
 <path d="M0,0 l130,0 l0,200 l-130,0 Z M0,0" fill="rgb(255,255,255)" transform="matrix(1,0,0,-1,0.0,200.0)"/>
 <path d="M0,0 l130,0" fill="none" stroke="rgb(229,229,229)" stroke-width="2" transform="matrix(1,0,0,-1,0.0,135.0)"/>
 <path d="M0,1 l0,-5" fill="none" stroke="rgb(204,204,204)" stroke-width="2" transform="matrix(1,0,0,-1,7.0,135.0)"/>
 <path d="M0,1 l0,-5" fill="none" stroke="rgb(204,204,204)" stroke-width="2" transform="matrix(1,0,0,-1,122.0,135.0)"/>
 <path d="M402,102 c-120,0,-213,72,-241,191 c12,-5,27,-9,48,-9 c68,0,118,45,118,133 l0,156 l634,0 l0,-125 l-146,0 c-45,0,-87,-14,-120,-41 c-29,55,-84,91,-153,91 c-96,0,-165,-68,-165,-159 c0,-93,70,-144,138,-149 l50,59 c-60,3,-102,37,-102,89 c0,48,34,80,82,80 c47,0,90,-38,90,-100 c0,-130,-105,-216,-233,-216 Z M842,48 c-66,48,-119,117,-119,210 c0,72,45,107,107,107 l131,0 l0,-365 l94,0 l0,573 l117,0 l0,77 l-1190,0 l0,-77 l254,0 l0,-161 c0,-39,-18,-54,-44,-54 c-33,0,-53,19,-65,47 l-81,-28 c23,-196,144,-354,350,-354 c114,0,204,48,259,117 c25,-64,69,-114,115,-149 Z M842,48" fill="rgb(0,0,0)" transform="matrix(0.1,0.0,0.0,-0.1,7.0,135.0)"/>
</svg>