<?xml version="1.0" encoding="UTF-8"?>
<svg height="200.0" version="1.1" width="134.0" xmlns="http://www.w3.org/2000/svg" xmlns:xlink="http://www.w3.org/1999/xlink">
 <path d="M0,0 l134,0 l0,200 l-134,0 Z M0,0" fill="rgb(255,255,255)" transform="matrix(1,0,0,-1,0.0,200.0)"/>
 <path d="M0,0 l134,0" fill="none" stroke="rgb(229,229,229)" stroke-width="2" transform="matrix(1,0,0,-1,0.0,135.0)"/>
 <path d="M0,1 l0,-5" fill="none" stroke="rgb(204,204,204)" stroke-width="2" transform="matrix(1,0,0,-1,7.0,135.0)"/>
 <path d="M0,1 l0,-5" fill="none" stroke="rgb(204,204,204)" stroke-width="2" transform="matrix(1,0,0,-1,126.0,135.0)"/>
 <path d="M402,102 c-120,0,-213,72,-241,191 c12,-5,27,-9,48,-9 c68,0,118,45,118,133 l0,156 l396,0 c24,-23,39,-60,39,-91 c0,-42,-20,-71,-60,-90 c-26,64,-85,106,-160,106 c-96,0,-165,-68,-165,-159 c0,-93,70,-144,138,-149 l50,59 c-60,3,-102,37,-102,89 c0,48,34,80,82,80 c49,0,89,-41,89,-100 c0,-130,-104,-216,-232,-216 Z M1008,194 l0,-194 l94,0 l0,573 l117,0 l0,77 l-1237,0 l0,-77 l254,0 l0,-161 c0,-39,-18,-54,-44,-54 c-33,0,-53,19,-65,47 l-81,-28 c23,-196,144,-354,350,-354 c146,0,251,78,296,178 c40,-46,95,-71,161,-71 c83,0,130,40,151,64 Z M725,331 c73,17,133,67,133,137 c0,41,-15,75,-42,101 l0,4 l192,0 l0,-210 c0,-94,-56,-150,-142,-150 c-89,0,-133,64,-141,118 Z M94,-29 c0,-32,24,-56,56,-56 c33,0,57,24,57,56 c0,33,-24,57,-57,57 c-32,0,-56,-24,-56,-57 Z M94,-29" fill="rgb(0,0,0)" transform="matrix(0.1,0.0,0.0,-0.1,7.0,135.0)"/>
</svg>