<?xml version="1.0" encoding="UTF-8"?>
<svg height="200.0" version="1.1" width="128.0" xmlns="http://www.w3.org/2000/svg" xmlns:xlink="http://www.w3.org/1999/xlink">
 <path d="M0,0 l128,0 l0,200 l-128,0 Z M0,0" fill="rgb(255,255,255)" transform="matrix(1,0,0,-1,0.0,200.0)"/>
 <path d="M0,0 l128,0" fill="none" stroke="rgb(229,229,229)" stroke-width="2" transform="matrix(1,0,0,-1,0.0,135.0)"/>
 <path d="M0,1 l0,-5" fill="none" stroke="rgb(204,204,204)" stroke-width="2" transform="matrix(1,0,0,-1,7.0,135.0)"/>
 <path d="M0,1 l0,-5" fill="none" stroke="rgb(204,204,204)" stroke-width="2" transform="matrix(1,0,0,-1,121.0,135.0)"/>
 <path d="M402,102 c-120,0,-213,72,-241,191 c12,-5,27,-9,48,-9 c68,0,118,45,118,133 l0,156 l631,0 l0,-245 c0,-76,-46,-137,-124,-137 c-64,0,-109,44,-109,106 c0,84,80,119,154,98 l-7,85 c-72,13,-144,-5,-189,-52 c-31,43,-81,70,-141,70 c-96,0,-165,-68,-165,-159 c0,-93,70,-144,138,-149 l50,59 c-60,3,-102,37,-102,89 c0,48,34,80,82,80 c47,0,89,-38,89,-100 c0,-130,-104,-216,-232,-216 Z M1053,573 l116,0 l0,77 l-1187,0 l0,-77 l254,0 l0,-161 c0,-39,-18,-54,-44,-54 c-33,0,-53,19,-65,47 l-81,-28 c23,-196,144,-354,350,-354 c131,0,230,63,281,149 c34,-40,84,-64,141,-64 c72,0,116,31,136,55 l4,0 l0,-163 l95,0 Z M94,-29 c0,-32,24,-56,56,-56 c33,0,57,24,57,56 c0,33,-24,57,-57,57 c-32,0,-56,-24,-56,-57 Z M94,-29" fill="rgb(0,0,0)" transform="matrix(0.1,0.0,0.0,-0.1,7.0,135.0)"/>
</svg>