<?xml version="1.0" encoding="UTF-8"?>
<svg height="200.0" version="1.1" width="144.0" xmlns="http://www.w3.org/2000/svg" xmlns:xlink="http://www.w3.org/1999/xlink">
 <path d="M0,0 l144,0 l0,200 l-144,0 Z M0,0" fill="rgb(255,255,255)" transform="matrix(1,0,0,-1,0.0,200.0)"/>
 <path d="M0,0 l144,0" fill="none" stroke="rgb(229,229,229)" stroke-width="2" transform="matrix(1,0,0,-1,0.0,135.0)"/>
 <path d="M0,1 l0,-5" fill="none" stroke="rgb(204,204,204)" stroke-width="2" transform="matrix(1,0,0,-1,7.0,135.0)"/>
 <path d="M0,1 l0,-5" fill="none" stroke="rgb(204,204,204)" stroke-width="2" transform="matrix(1,0,0,-1,136.0,135.0)"/>
 <path d="M95,-29 c0,-30,24,-54,54,-54 c33,0,56,24,56,54 c0,33,-23,56,-56,56 c-30,0,-54,-23,-54,-56 Z M402,102 c-120,0,-213,72,-241,191 c12,-5,27,-9,48,-9 c68,0,118,45,118,133 l0,156 l501,0 l0,-176 c0,-43,-21,-61,-59,-61 c-23,0,-40,8,-56,20 c-17,83,-82,142,-171,142 c-96,0,-165,-68,-165,-159 c0,-93,70,-144,138,-149 l50,59 c-60,3,-102,37,-102,89 c0,48,34,80,82,80 c47,0,89,-38,89,-100 c0,-130,-104,-216,-232,-216 Z M1011,346 c-34,0,-66,4,-92,12 c2,10,3,21,3,34 l0,181 l180,0 l0,-213 c-26,-10,-57,-14,-91,-14 Z M954,36 l-110,140 c-31,39,-51,61,-72,85 l1,3 c7,-2,20,-2,26,-2 c30,2,58,11,80,29 c36,-17,87,-28,140,-28 c33,0,60,3,83,8 l0,-271 l96,0 l0,573 l116,0 l0,77 l-1332,0 l0,-77 l254,0 l0,-161 c0,-39,-18,-54,-44,-54 c-33,0,-53,19,-65,47 l-81,-28 c23,-196,144,-354,350,-354 c153,0,261,86,303,193 l178,-229 Z M954,36" fill="rgb(0,0,0)" transform="matrix(0.1,0.0,0.0,-0.1,7.0,135.0)"/>
</svg>