<?xml version="1.0" encoding="UTF-8"?>
<svg height="200.0" version="1.1" width="122.0" xmlns="http://www.w3.org/2000/svg" xmlns:xlink="http://www.w3.org/1999/xlink">
 <path d="M0,0 l122,0 l0,200 l-122,0 Z M0,0" fill="rgb(255,255,255)" transform="matrix(1,0,0,-1,0.0,200.0)"/>
 <path d="M0,0 l122,0" fill="none" stroke="rgb(229,229,229)" stroke-width="2" transform="matrix(1,0,0,-1,0.0,135.0)"/>
 <path d="M0,1 l0,-5" fill="none" stroke="rgb(204,204,204)" stroke-width="2" transform="matrix(1,0,0,-1,7.0,135.0)"/>
 <path d="M0,1 l0,-5" fill="none" stroke="rgb(204,204,204)" stroke-width="2" transform="matrix(1,0,0,-1,114.0,135.0)"/>
 <path d="M1092,573 l0,77 l-1116,0 l0,-77 l146,0 l0,-194 l-66,-48 c1,-44,19,-102,63,-136 l96,0 l0,378 l165,0 l0,-231 c0,-114,68,-174,173,-174 c104,0,175,61,175,175 l0,230 l154,0 l0,-573 l94,0 l0,573 Z M554,251 c-50,0,-80,30,-80,90 l0,232 l160,0 l0,-231 c0,-61,-28,-91,-80,-91 Z M554,251" fill="rgb(0,0,0)" transform="matrix(0.1,0.0,0.0,-0.1,7.0,135.0)"/>
</svg>