<?xml version="1.0" encoding="UTF-8"?>
<svg height="200.0" version="1.1" width="144.0" xmlns="http://www.w3.org/2000/svg" xmlns:xlink="http://www.w3.org/1999/xlink">
 <path d="M0,0 l144,0 l0,200 l-144,0 Z M0,0" fill="rgb(255,255,255)" transform="matrix(1,0,0,-1,0.0,200.0)"/>
 <path d="M0,0 l144,0" fill="none" stroke="rgb(229,229,229)" stroke-width="2" transform="matrix(1,0,0,-1,0.0,135.0)"/>
 <path d="M0,1 l0,-5" fill="none" stroke="rgb(204,204,204)" stroke-width="2" transform="matrix(1,0,0,-1,7.0,135.0)"/>
 <path d="M0,1 l0,-5" fill="none" stroke="rgb(204,204,204)" stroke-width="2" transform="matrix(1,0,0,-1,137.0,135.0)"/>
 <path d="M1111,194 l0,-194 l95,0 l0,573 l116,0 l0,77 l-654,0 l0,-77 l159,0 c24,-23,39,-60,39,-91 c0,-63,-54,-94,-141,-112 c3,-36,11,-69,23,-98 c-36,-44,-94,-79,-174,-79 c-80,0,-107,41,-107,80 c0,45,31,75,99,75 l62,0 l0,78 l-68,0 c-68,0,-99,30,-99,71 c0,39,29,66,68,79 l-16,74 l-537,0 l0,-77 l146,0 l0,-194 l-66,-48 c1,-44,19,-102,63,-136 l96,0 l0,378 l191,0 l0,-4 c-20,-11,-43,-37,-43,-77 c0,-63,44,-97,97,-103 l0,-4 c-43,-11,-91,-48,-91,-118 c0,-82,67,-154,192,-154 c110,0,185,41,231,89 c41,-47,99,-72,164,-72 c84,0,131,40,151,64 Z M830,331 c74,17,131,67,131,137 c0,41,-14,75,-41,101 l0,4 l192,0 l0,-210 c0,-94,-57,-150,-142,-150 c-90,0,-132,63,-140,118 Z M830,331" fill="rgb(0,0,0)" transform="matrix(0.1,0.0,0.0,-0.1,7.0,135.0)"/>
</svg>