<?xml version="1.0" encoding="UTF-8"?>
<svg height="200.0" version="1.1" width="138.0" xmlns="http://www.w3.org/2000/svg" xmlns:xlink="http://www.w3.org/1999/xlink">
 <path d="M0,0 l138,0 l0,200 l-138,0 Z M0,0" fill="rgb(255,255,255)" transform="matrix(1,0,0,-1,0.0,200.0)"/>
 <path d="M0,0 l138,0" fill="none" stroke="rgb(229,229,229)" stroke-width="2" transform="matrix(1,0,0,-1,0.0,135.0)"/>
 <path d="M0,1 l0,-5" fill="none" stroke="rgb(204,204,204)" stroke-width="2" transform="matrix(1,0,0,-1,7.0,135.0)"/>
 <path d="M0,1 l0,-5" fill="none" stroke="rgb(204,204,204)" stroke-width="2" transform="matrix(1,0,0,-1,131.0,135.0)"/>
 <path d="M1149,0 l0,573 l116,0 l0,77 l-598,0 l0,-77 l387,0 l0,-245 c0,-76,-46,-137,-123,-137 c-65,0,-107,44,-107,105 c0,84,77,119,152,99 l-8,85 c-118,21,-243,-42,-243,-185 c0,-15,1,-29,4,-42 c-36,-35,-88,-60,-156,-60 c-80,0,-107,41,-107,80 c0,45,31,75,99,75 l62,0 l0,78 l-68,0 c-68,0,-99,30,-99,71 c0,39,29,66,68,79 l-16,74 l-536,0 l0,-77 l146,0 l0,-194 l-66,-48 c1,-44,19,-102,63,-136 l96,0 l0,378 l190,0 l0,-4 c-20,-11,-43,-37,-43,-77 c0,-63,44,-97,97,-103 l0,-4 c-43,-11,-91,-48,-91,-118 c0,-82,67,-154,192,-154 c93,0,159,29,205,64 c35,-44,89,-69,149,-69 c72,0,115,31,136,55 l4,0 l0,-163 Z M1149,0" fill="rgb(0,0,0)" transform="matrix(0.1,0.0,0.0,-0.1,7.0,135.0)"/>
</svg>