<?xml version="1.0" encoding="UTF-8"?>
<svg height="200.0" version="1.1" width="108.0" xmlns="http://www.w3.org/2000/svg" xmlns:xlink="http://www.w3.org/1999/xlink">
 <path d="M0,0 l108,0 l0,200 l-108,0 Z M0,0" fill="rgb(255,255,255)" transform="matrix(1,0,0,-1,0.0,200.0)"/>
 <path d="M0,0 l108,0" fill="none" stroke="rgb(229,229,229)" stroke-width="2" transform="matrix(1,0,0,-1,0.0,135.0)"/>
 <path d="M0,1 l0,-5" fill="none" stroke="rgb(204,204,204)" stroke-width="2" transform="matrix(1,0,0,-1,7.0,135.0)"/>
 <path d="M0,1 l0,-5" fill="none" stroke="rgb(204,204,204)" stroke-width="2" transform="matrix(1,0,0,-1,99.0,135.0)"/>
 <path d="M737,194 l0,-194 l95,0 l0,573 l116,0 l0,77 l-972,0 l0,-77 l149,0 l0,-173 l-62,-45 c1,-38,16,-94,59,-127 l96,0 l0,345 l234,0 c24,-23,39,-60,39,-91 c0,-63,-53,-94,-140,-112 c4,-45,15,-84,32,-117 l-317,-212 l81,-62 l279,214 c40,-41,95,-63,156,-63 c83,0,131,40,151,64 Z M456,331 c74,17,131,67,131,137 c0,41,-14,75,-41,101 l0,4 l192,0 l0,-210 c0,-94,-57,-150,-142,-150 c-90,0,-132,63,-140,118 Z M456,331" fill="rgb(0,0,0)" transform="matrix(0.1,0.0,0.0,-0.1,7.0,135.0)"/>
</svg>