<?xml version="1.0" encoding="UTF-8"?>
<svg height="200.0" version="1.1" width="116.0" xmlns="http://www.w3.org/2000/svg" xmlns:xlink="http://www.w3.org/1999/xlink">
 <path d="M0,0 l116,0 l0,200 l-116,0 Z M0,0" fill="rgb(255,255,255)" transform="matrix(1,0,0,-1,0.0,200.0)"/>
 <path d="M0,0 l116,0" fill="none" stroke="rgb(229,229,229)" stroke-width="2" transform="matrix(1,0,0,-1,0.0,135.0)"/>
 <path d="M0,1 l0,-5" fill="none" stroke="rgb(204,204,204)" stroke-width="2" transform="matrix(1,0,0,-1,7.0,135.0)"/>
 <path d="M0,1 l0,-5" fill="none" stroke="rgb(204,204,204)" stroke-width="2" transform="matrix(1,0,0,-1,108.0,135.0)"/>
 <path d="M732,346 c-33,0,-65,4,-91,11 c2,11,3,22,3,35 l0,181 l180,0 l0,-213 c-26,-9,-58,-14,-92,-14 Z M494,264 c8,-2,20,-2,27,-2 c30,2,58,11,80,28 c35,-16,87,-27,139,-27 c34,0,61,3,84,8 l0,-271 l95,0 l0,573 l116,0 l0,77 l-1059,0 l0,-77 l146,0 l0,-194 l-66,-48 c1,-44,19,-102,63,-136 l96,0 l0,378 l335,0 l0,-176 c0,-43,-22,-61,-59,-61 c-42,0,-65,23,-87,49 l-71,-57 l265,-341 l77,49 l-109,140 c-31,39,-51,61,-73,85 Z M494,264" fill="rgb(0,0,0)" transform="matrix(0.1,0.0,0.0,-0.1,7.0,135.0)"/>
</svg>