<?xml version="1.0" encoding="UTF-8"?>
<svg height="200.0" version="1.1" width="106.0" xmlns="http://www.w3.org/2000/svg" xmlns:xlink="http://www.w3.org/1999/xlink">
 <path d="M0,0 l106,0 l0,200 l-106,0 Z M0,0" fill="rgb(255,255,255)" transform="matrix(1,0,0,-1,0.0,200.0)"/>
 <path d="M0,0 l106,0" fill="none" stroke="rgb(229,229,229)" stroke-width="2" transform="matrix(1,0,0,-1,0.0,135.0)"/>
 <path d="M0,1 l0,-5" fill="none" stroke="rgb(204,204,204)" stroke-width="2" transform="matrix(1,0,0,-1,7.0,135.0)"/>
 <path d="M0,1 l0,-5" fill="none" stroke="rgb(204,204,204)" stroke-width="2" transform="matrix(1,0,0,-1,98.0,135.0)"/>
 <path d="M-24,573 l135,0 l0,-4 c-19,-12,-42,-38,-42,-79 c0,-62,46,-99,99,-105 l0,-4 c-42,-11,-90,-48,-90,-118 c0,-83,68,-153,193,-153 c109,0,196,44,263,120 l0,82 l185,0 l0,-312 l94,0 l0,573 l117,0 l0,77 l-954,0 Z M285,189 c-81,0,-109,41,-109,80 c0,45,30,75,97,75 l58,0 l0,78 l-63,0 c-69,0,-99,32,-99,74 c0,43,29,77,92,77 l458,0 l0,-177 l-249,0 l-68,-52 c1,-37,10,-73,28,-99 c-36,-32,-85,-56,-145,-56 Z M285,189" fill="rgb(0,0,0)" transform="matrix(0.1,0.0,0.0,-0.1,7.0,135.0)"/>
</svg>