<?xml version="1.0" encoding="UTF-8"?>
<svg height="200.0" version="1.1" width="114.0" xmlns="http://www.w3.org/2000/svg" xmlns:xlink="http://www.w3.org/1999/xlink">
 <path d="M0,0 l114,0 l0,200 l-114,0 Z M0,0" fill="rgb(255,255,255)" transform="matrix(1,0,0,-1,0.0,200.0)"/>
 <path d="M0,0 l114,0" fill="none" stroke="rgb(229,229,229)" stroke-width="2" transform="matrix(1,0,0,-1,0.0,135.0)"/>
 <path d="M0,1 l0,-5" fill="none" stroke="rgb(204,204,204)" stroke-width="2" transform="matrix(1,0,0,-1,7.0,135.0)"/>
 <path d="M0,1 l0,-5" fill="none" stroke="rgb(204,204,204)" stroke-width="2" transform="matrix(1,0,0,-1,106.0,135.0)"/>
 <path d="M285,189 c-81,0,-109,41,-109,80 c0,45,30,75,97,75 l58,0 l0,78 l-63,0 c-69,0,-99,32,-99,74 c0,43,29,77,92,77 l262,0 c24,-23,39,-60,39,-91 c0,-63,-53,-94,-141,-112 c3,-40,13,-75,26,-106 c-35,-41,-91,-75,-162,-75 Z M808,194 l0,-194 l94,0 l0,573 l117,0 l0,77 l-1043,0 l0,-77 l135,0 l0,-4 c-19,-12,-42,-38,-42,-79 c0,-62,46,-99,99,-105 l0,-4 c-42,-11,-90,-48,-90,-118 c0,-83,68,-153,193,-153 c104,0,176,38,223,85 c41,-42,96,-65,159,-65 c83,0,131,40,151,64 Z M527,331 c73,17,131,67,131,137 c0,41,-15,75,-42,101 l0,4 l192,0 l0,-210 c0,-94,-56,-150,-142,-150 c-89,0,-131,63,-139,118 Z M527,331" fill="rgb(0,0,0)" transform="matrix(0.1,0.0,0.0,-0.1,7.0,135.0)"/>
</svg>