<?xml version="1.0" encoding="UTF-8"?>
<svg height="200.0" version="1.1" width="128.0" xmlns="http://www.w3.org/2000/svg" xmlns:xlink="http://www.w3.org/1999/xlink">
 <path d="M0,0 l128,0 l0,200 l-128,0 Z M0,0" fill="rgb(255,255,255)" transform="matrix(1,0,0,-1,0.0,200.0)"/>
 <path d="M0,0 l128,0" fill="none" stroke="rgb(229,229,229)" stroke-width="2" transform="matrix(1,0,0,-1,0.0,135.0)"/>
 <path d="M0,1 l0,-5" fill="none" stroke="rgb(204,204,204)" stroke-width="2" transform="matrix(1,0,0,-1,7.0,135.0)"/>
 <path d="M0,1 l0,-5" fill="none" stroke="rgb(204,204,204)" stroke-width="2" transform="matrix(1,0,0,-1,120.0,135.0)"/>
 <path d="M808,138 c-66,0,-100,38,-111,78 c66,30,123,72,123,145 c0,73,-52,126,-157,126 l-216,0 l0,86 l500,0 l0,-289 c0,-79,-51,-146,-139,-146 Z M1041,0 l0,573 l116,0 l0,77 l-1181,0 l0,-77 l379,0 l0,-86 l-137,0 c-77,0,-120,-43,-120,-106 c0,-75,56,-146,139,-177 l150,34 c17,-13,26,-34,26,-57 c0,-60,-47,-95,-116,-95 c-87,0,-158,58,-199,142 l-66,-48 c47,-91,134,-174,264,-174 c125,0,206,78,206,176 c0,68,-38,122,-87,142 l-165,-35 c-35,11,-58,44,-58,72 c0,31,14,48,73,48 l395,0 c60,0,74,-20,74,-49 c0,-36,-24,-58,-68,-80 l-80,-39 c23,-105,100,-181,215,-181 c66,0,119,35,142,61 l4,0 l0,-121 Z M590,331 c0,29,-21,50,-48,50 c-28,0,-49,-21,-49,-50 c0,-26,21,-48,49,-48 c28,0,48,22,48,48 Z M590,331" fill="rgb(0,0,0)" transform="matrix(0.1,0.0,0.0,-0.1,7.0,135.0)"/>
</svg>