<?xml version="1.0" encoding="UTF-8"?>
<svg height="200.0" version="1.1" width="74.0" xmlns="http://www.w3.org/2000/svg" xmlns:xlink="http://www.w3.org/1999/xlink">
 <path d="M0,0 l74,0 l0,200 l-74,0 Z M0,0" fill="rgb(255,255,255)" transform="matrix(1,0,0,-1,0.0,200.0)"/>
 <path d="M0,0 l74,0" fill="none" stroke="rgb(229,229,229)" stroke-width="2" transform="matrix(1,0,0,-1,0.0,135.0)"/>
 <path d="M0,1 l0,-5" fill="none" stroke="rgb(204,204,204)" stroke-width="2" transform="matrix(1,0,0,-1,7.0,135.0)"/>
 <path d="M0,1 l0,-5" fill="none" stroke="rgb(204,204,204)" stroke-width="2" transform="matrix(1,0,0,-1,67.0,135.0)"/>
 <path d="M453,-263 l0,377 c30,31,45,70,45,111 c0,67,-35,113,-78,129 l-178,-34 c-36,12,-50,44,-50,66 c0,22,10,37,60,37 l195,0 l0,150 l177,0 l0,77 l-648,0 l0,-77 l380,0 l0,-73 l-146,0 c-75,0,-112,-43,-112,-96 c0,-68,48,-137,133,-167 l162,32 c10,-9,18,-25,18,-45 c0,-47,-32,-88,-120,-88 c-90,0,-154,51,-192,120 l-63,-51 c23,-38,59,-82,110,-112 c-36,-23,-65,-64,-65,-125 c0,-92,67,-162,167,-162 c62,0,99,28,114,45 l4,0 l0,-114 Z M173,-30 c0,56,40,92,114,92 c25,0,52,-1,80,-3 l0,-63 c0,-68,-42,-111,-102,-111 c-64,0,-92,37,-92,85 Z M609,397 c0,32,-24,56,-55,56 c-32,0,-57,-24,-57,-56 c0,-31,24,-56,56,-56 c32,0,56,25,56,56 Z M609,397" fill="rgb(0,0,0)" transform="matrix(0.1,0.0,0.0,-0.1,7.0,135.0)"/>
</svg>