<?xml version="1.0" encoding="UTF-8"?>
<svg height="200.0" version="1.1" width="118.0" xmlns="http://www.w3.org/2000/svg" xmlns:xlink="http://www.w3.org/1999/xlink">
 <path d="M0,0 l118,0 l0,200 l-118,0 Z M0,0" fill="rgb(255,255,255)" transform="matrix(1,0,0,-1,0.0,200.0)"/>
 <path d="M0,0 l118,0" fill="none" stroke="rgb(229,229,229)" stroke-width="2" transform="matrix(1,0,0,-1,0.0,135.0)"/>
 <path d="M0,1 l0,-5" fill="none" stroke="rgb(204,204,204)" stroke-width="2" transform="matrix(1,0,0,-1,7.0,135.0)"/>
 <path d="M0,1 l0,-5" fill="none" stroke="rgb(204,204,204)" stroke-width="2" transform="matrix(1,0,0,-1,111.0,135.0)"/>
 <path d="M298,105 c101,0,165,37,209,83 c30,-49,88,-83,168,-83 c100,0,153,45,174,74 l4,0 l0,-179 l95,0 l0,573 l116,0 l0,77 l-1088,0 l0,-77 l877,0 l0,-207 c0,-112,-66,-178,-159,-178 c-71,0,-112,41,-112,95 c0,60,41,100,115,100 l73,0 l0,82 l-358,0 l0,-83 l122,0 l0,-4 c-18,-13,-43,-40,-49,-87 c-21,-42,-76,-103,-171,-103 c-74,0,-117,41,-117,95 c0,60,41,99,115,99 l49,0 l0,83 l-347,0 l0,-84 l135,0 l0,-4 c-20,-15,-50,-46,-50,-107 c0,-88,73,-165,199,-165 Z M298,105" fill="rgb(0,0,0)" transform="matrix(0.1,0.0,0.0,-0.1,7.0,135.0)"/>
</svg>