<?xml version="1.0" encoding="UTF-8"?>
<svg height="200.0" version="1.1" width="122.0" xmlns="http://www.w3.org/2000/svg" xmlns:xlink="http://www.w3.org/1999/xlink">
 <path d="M0,0 l122,0 l0,200 l-122,0 Z M0,0" fill="rgb(255,255,255)" transform="matrix(1,0,0,-1,0.0,200.0)"/>
 <path d="M0,0 l122,0" fill="none" stroke="rgb(229,229,229)" stroke-width="2" transform="matrix(1,0,0,-1,0.0,135.0)"/>
 <path d="M0,1 l0,-5" fill="none" stroke="rgb(204,204,204)" stroke-width="2" transform="matrix(1,0,0,-1,7.0,135.0)"/>
 <path d="M0,1 l0,-5" fill="none" stroke="rgb(204,204,204)" stroke-width="2" transform="matrix(1,0,0,-1,115.0,135.0)"/>
 <path d="M492,284 c-33,-52,-89,-96,-178,-96 c-74,0,-117,41,-117,95 c0,60,41,99,115,99 l51,0 l0,83 l-349,0 l0,-84 l135,0 l0,-4 c-20,-15,-50,-46,-50,-107 c0,-88,73,-165,199,-165 c83,0,143,25,187,60 c24,-73,100,-131,220,-131 c197,0,324,150,324,292 c0,73,-35,128,-91,150 l0,97 l163,0 l0,77 l-1125,0 l0,-77 l531,0 l0,-4 c-17,-14,-46,-42,-46,-98 c0,-60,38,-108,100,-122 l0,-4 c-27,-10,-53,-30,-69,-61 Z M882,298 c-37,7,-58,29,-58,61 c0,31,23,51,53,51 c36,0,64,-28,64,-83 c0,-116,-104,-211,-230,-211 c-90,0,-137,47,-137,104 c0,51,34,85,98,88 l21,0 l0,81 l-35,0 c-63,0,-98,36,-98,88 c0,57,41,96,106,96 l182,0 l0,-87 c-69,-11,-114,-64,-114,-126 c0,-63,42,-106,91,-119 Z M882,298" fill="rgb(0,0,0)" transform="matrix(0.1,0.0,0.0,-0.1,7.0,135.0)"/>
</svg>