<?xml version="1.0" encoding="UTF-8"?>
<svg height="200.0" version="1.1" width="110.0" xmlns="http://www.w3.org/2000/svg" xmlns:xlink="http://www.w3.org/1999/xlink">
 <path d="M0,0 l110,0 l0,200 l-110,0 Z M0,0" fill="rgb(255,255,255)" transform="matrix(1,0,0,-1,0.0,200.0)"/>
 <path d="M0,0 l110,0" fill="none" stroke="rgb(229,229,229)" stroke-width="2" transform="matrix(1,0,0,-1,0.0,135.0)"/>
 <path d="M0,1 l0,-5" fill="none" stroke="rgb(204,204,204)" stroke-width="2" transform="matrix(1,0,0,-1,7.0,135.0)"/>
 <path d="M0,1 l0,-5" fill="none" stroke="rgb(204,204,204)" stroke-width="2" transform="matrix(1,0,0,-1,101.0,135.0)"/>
 <path d="M298,105 c114,0,206,52,275,144 l0,71 l185,0 l0,-320 l95,0 l0,573 l116,0 l0,77 l-993,0 l0,-77 l782,0 l0,-170 l-249,0 l-68,-51 c0,-35,9,-67,23,-93 c-28,-36,-78,-71,-150,-71 c-74,0,-117,41,-117,95 c0,60,41,99,115,99 l70,0 l0,83 l-368,0 l0,-84 l135,0 l0,-4 c-20,-15,-50,-46,-50,-107 c0,-88,73,-165,199,-165 Z M298,105" fill="rgb(0,0,0)" transform="matrix(0.1,0.0,0.0,-0.1,7.0,135.0)"/>
</svg>