<?xml version="1.0" encoding="UTF-8"?>
<svg height="200.0" version="1.1" width="114.0" xmlns="http://www.w3.org/2000/svg" xmlns:xlink="http://www.w3.org/1999/xlink">
 <path d="M0,0 l114,0 l0,200 l-114,0 Z M0,0" fill="rgb(255,255,255)" transform="matrix(1,0,0,-1,0.0,200.0)"/>
 <path d="M0,0 l114,0" fill="none" stroke="rgb(229,229,229)" stroke-width="2" transform="matrix(1,0,0,-1,0.0,135.0)"/>
 <path d="M0,1 l0,-5" fill="none" stroke="rgb(204,204,204)" stroke-width="2" transform="matrix(1,0,0,-1,7.0,135.0)"/>
 <path d="M0,1 l0,-5" fill="none" stroke="rgb(204,204,204)" stroke-width="2" transform="matrix(1,0,0,-1,107.0,135.0)"/>
 <path d="M818,573 l0,-224 l-192,0 l0,224 Z M911,0 l0,573 l117,0 l0,77 l-1048,0 l0,-77 l553,0 l0,-228 l-51,-38 c0,-6,1,-12,1,-18 c-21,-39,-69,-98,-165,-98 c-74,0,-116,41,-116,96 c0,59,41,98,115,98 l69,0 l0,83 l-367,0 l0,-84 l135,0 l0,-4 c-20,-15,-50,-45,-50,-106 c0,-89,72,-166,197,-166 c105,0,173,40,217,89 c9,-13,19,-25,31,-34 l75,0 l0,102 l194,0 l0,-265 Z M911,0" fill="rgb(0,0,0)" transform="matrix(0.1,0.0,0.0,-0.1,7.0,135.0)"/>
</svg>