<?xml version="1.0" encoding="UTF-8"?>
<svg height="200.0" version="1.1" width="118.0" xmlns="http://www.w3.org/2000/svg" xmlns:xlink="http://www.w3.org/1999/xlink">
 <path d="M0,0 l118,0 l0,200 l-118,0 Z M0,0" fill="rgb(255,255,255)" transform="matrix(1,0,0,-1,0.0,200.0)"/>
 <path d="M0,0 l118,0" fill="none" stroke="rgb(229,229,229)" stroke-width="2" transform="matrix(1,0,0,-1,0.0,135.0)"/>
 <path d="M0,1 l0,-5" fill="none" stroke="rgb(204,204,204)" stroke-width="2" transform="matrix(1,0,0,-1,7.0,135.0)"/>
 <path d="M0,1 l0,-5" fill="none" stroke="rgb(204,204,204)" stroke-width="2" transform="matrix(1,0,0,-1,110.0,135.0)"/>
 <path d="M298,105 c111,0,183,45,228,98 c42,-47,100,-73,167,-73 c83,0,131,40,151,64 l4,0 l0,-194 l94,0 l0,573 l117,0 l0,77 l-1083,0 l0,-77 l587,0 c24,-23,39,-60,39,-91 c0,-63,-53,-94,-141,-112 c3,-33,9,-62,19,-89 c-25,-41,-77,-93,-166,-93 c-74,0,-117,41,-117,95 c0,60,41,99,115,99 l73,0 l0,83 l-371,0 l0,-84 l135,0 l0,-4 c-20,-15,-50,-46,-50,-107 c0,-88,73,-165,199,-165 Z M567,331 c73,17,131,67,131,137 c0,41,-15,75,-42,101 l0,4 l192,0 l0,-210 c0,-94,-56,-150,-142,-150 c-89,0,-131,63,-139,118 Z M567,331" fill="rgb(0,0,0)" transform="matrix(0.1,0.0,0.0,-0.1,7.0,135.0)"/>
</svg>