<?xml version="1.0" encoding="UTF-8"?>
<svg height="200.0" version="1.1" width="140.0" xmlns="http://www.w3.org/2000/svg" xmlns:xlink="http://www.w3.org/1999/xlink">
 <path d="M0,0 l140,0 l0,200 l-140,0 Z M0,0" fill="rgb(255,255,255)" transform="matrix(1,0,0,-1,0.0,200.0)"/>
 <path d="M0,0 l140,0" fill="none" stroke="rgb(229,229,229)" stroke-width="2" transform="matrix(1,0,0,-1,0.0,135.0)"/>
 <path d="M0,1 l0,-5" fill="none" stroke="rgb(204,204,204)" stroke-width="2" transform="matrix(1,0,0,-1,7.0,135.0)"/>
 <path d="M0,1 l0,-5" fill="none" stroke="rgb(204,204,204)" stroke-width="2" transform="matrix(1,0,0,-1,132.0,135.0)"/>
 <path d="M435,-130 l105,24 l-147,150 c153,36,243,168,243,290 c0,19,-2,37,-7,53 c50,11,104,20,153,20 c47,0,71,-16,71,-49 c0,-33,-19,-61,-87,-94 l-60,-30 c22,-107,98,-178,214,-178 c67,0,119,34,142,61 l4,0 l0,-117 l94,0 l0,573 l116,0 l0,77 l-1300,0 l0,-77 l138,0 l0,-4 c-17,-14,-46,-42,-46,-98 c0,-60,38,-108,100,-122 l0,-4 c-42,-16,-84,-55,-84,-129 c0,-82,58,-157,165,-177 l-143,-142 l106,-27 l113,137 Z M489,306 c-37,7,-58,29,-58,61 c0,31,23,51,52,51 c36,0,65,-27,65,-83 c0,-120,-107,-219,-233,-219 c-90,0,-133,47,-133,104 c0,52,33,86,98,88 l20,0 l0,81 l-35,0 c-63,0,-98,36,-98,88 c0,57,41,96,106,96 l793,0 l0,-293 c0,-82,-49,-146,-138,-146 c-64,0,-100,38,-110,75 c71,32,121,85,121,148 c0,81,-65,129,-161,129 c-61,0,-131,-14,-189,-30 c-27,26,-64,40,-107,40 c-84,0,-141,-58,-141,-128 c0,-63,42,-107,91,-119 Z M489,306" fill="rgb(0,0,0)" transform="matrix(0.1,0.0,0.0,-0.1,7.0,135.0)"/>
</svg>