<?xml version="1.0" encoding="UTF-8"?>
<svg height="200.0" version="1.1" width="84.0" xmlns="http://www.w3.org/2000/svg" xmlns:xlink="http://www.w3.org/1999/xlink">
 <path d="M0,0 l84,0 l0,200 l-84,0 Z M0,0" fill="rgb(255,255,255)" transform="matrix(1,0,0,-1,0.0,200.0)"/>
 <path d="M0,0 l84,0" fill="none" stroke="rgb(229,229,229)" stroke-width="2" transform="matrix(1,0,0,-1,0.0,135.0)"/>
 <path d="M0,1 l0,-5" fill="none" stroke="rgb(204,204,204)" stroke-width="2" transform="matrix(1,0,0,-1,7.0,135.0)"/>
 <path d="M0,1 l0,-5" fill="none" stroke="rgb(204,204,204)" stroke-width="2" transform="matrix(1,0,0,-1,75.0,135.0)"/>
 <path d="M151,-64 c0,-96,73,-171,178,-171 c69,0,108,31,122,49 l4,0 l0,-106 l89,0 l0,417 c59,56,92,131,92,205 c0,73,-35,128,-91,150 l0,93 l163,0 l0,77 l-732,0 l0,-77 l138,0 l0,-4 c-17,-14,-46,-42,-46,-98 c0,-60,38,-108,100,-122 l0,-4 c-42,-16,-84,-55,-84,-129 c0,-69,44,-139,123,-162 c-32,-25,-56,-61,-56,-118 Z M489,301 c-37,7,-58,29,-58,62 c0,31,23,51,52,51 c36,0,65,-28,65,-83 c0,-121,-107,-215,-233,-215 c-90,0,-133,47,-133,104 c0,51,33,85,97,88 l21,0 l0,81 l-35,0 c-63,0,-98,36,-98,88 c0,57,41,96,106,96 l182,0 l0,-84 c-69,-10,-114,-63,-114,-125 c0,-64,42,-107,91,-120 Z M344,-156 c-67,0,-100,44,-100,95 c0,54,35,96,110,100 c9,1,19,1,29,2 c26,3,51,9,73,17 l0,-98 c0,-68,-43,-116,-112,-116 Z M344,-156" fill="rgb(0,0,0)" transform="matrix(0.1,0.0,0.0,-0.1,7.0,135.0)"/>
</svg>