<?xml version="1.0" encoding="UTF-8"?>
<svg height="200.0" version="1.1" width="142.0" xmlns="http://www.w3.org/2000/svg" xmlns:xlink="http://www.w3.org/1999/xlink">
 <path d="M0,0 l142,0 l0,200 l-142,0 Z M0,0" fill="rgb(255,255,255)" transform="matrix(1,0,0,-1,0.0,200.0)"/>
 <path d="M0,0 l142,0" fill="none" stroke="rgb(229,229,229)" stroke-width="2" transform="matrix(1,0,0,-1,0.0,135.0)"/>
 <path d="M0,1 l0,-5" fill="none" stroke="rgb(204,204,204)" stroke-width="2" transform="matrix(1,0,0,-1,7.0,135.0)"/>
 <path d="M0,1 l0,-5" fill="none" stroke="rgb(204,204,204)" stroke-width="2" transform="matrix(1,0,0,-1,135.0,135.0)"/>
 <path d="M1143,297 c0,-76,-65,-108,-135,-95 l15,-84 c110,-14,216,53,216,180 c0,107,-79,176,-174,176 c-63,0,-104,-28,-124,-52 l-4,0 l0,151 l366,0 l0,77 l-1327,0 l0,-77 l867,0 l0,-257 c0,-67,-43,-115,-108,-115 c-58,0,-98,40,-98,95 c0,77,66,109,136,96 l-15,84 c-51,6,-100,-5,-139,-30 l-309,0 l-39,-70 l0,-7 c41,-14,87,-49,87,-105 c0,-45,-30,-76,-78,-76 c-103,0,-161,133,-166,256 l-90,-41 c15,-120,91,-299,263,-299 c100,0,164,66,164,152 c0,56,-27,91,-48,108 l0,4 l151,0 c-8,-21,-13,-45,-13,-72 c0,-106,80,-177,175,-177 c66,0,105,29,123,52 l4,0 l0,-171 l94,0 l0,277 c0,68,44,116,110,116 c56,0,96,-39,96,-96 Z M1143,297" fill="rgb(0,0,0)" transform="matrix(0.1,0.0,0.0,-0.1,7.0,135.0)"/>
</svg>