<?xml version="1.0" encoding="UTF-8"?>
<svg height="200.0" version="1.1" width="142.0" xmlns="http://www.w3.org/2000/svg" xmlns:xlink="http://www.w3.org/1999/xlink">
 <path d="M0,0 l142,0 l0,200 l-142,0 Z M0,0" fill="rgb(255,255,255)" transform="matrix(1,0,0,-1,0.0,200.0)"/>
 <path d="M0,0 l142,0" fill="none" stroke="rgb(229,229,229)" stroke-width="2" transform="matrix(1,0,0,-1,0.0,135.0)"/>
 <path d="M0,1 l0,-5" fill="none" stroke="rgb(204,204,204)" stroke-width="2" transform="matrix(1,0,0,-1,7.0,135.0)"/>
 <path d="M0,1 l0,-5" fill="none" stroke="rgb(204,204,204)" stroke-width="2" transform="matrix(1,0,0,-1,135.0,135.0)"/>
 <path d="M1299,573 l0,77 l-1323,0 l0,-77 l850,0 l0,-88 l-141,0 c-45,0,-79,-14,-99,-39 l-276,0 l-39,-70 l0,-7 c41,-14,87,-49,87,-105 c0,-45,-30,-76,-78,-76 c-103,0,-161,133,-166,256 l-90,-41 c15,-120,91,-299,263,-299 c100,0,164,66,164,152 c0,56,-27,91,-48,108 l0,4 l163,0 c5,-74,61,-139,139,-164 l150,33 c10,-7,24,-25,24,-53 c0,-63,-65,-90,-131,-90 l-28,0 l-138,91 c-19,-10,-36,-31,-36,-61 c0,-49,45,-103,155,-105 l164,-146 l99,53 l-161,103 l0,4 c84,6,163,59,163,152 c0,13,-1,25,-3,36 c20,-6,42,-10,66,-10 c22,0,43,2,62,6 l0,-217 l92,0 l0,573 Z M1008,288 c-34,0,-70,7,-92,16 c-10,9,-21,16,-32,20 l-167,-36 c-33,9,-57,40,-57,69 c0,30,10,51,69,51 l188,0 l0,165 l174,0 l0,-271 c-24,-9,-52,-14,-83,-14 Z M1008,288" fill="rgb(0,0,0)" transform="matrix(0.1,0.0,0.0,-0.1,7.0,135.0)"/>
</svg>