<?xml version="1.0" encoding="UTF-8"?>
<svg height="200.0" version="1.1" width="124.0" xmlns="http://www.w3.org/2000/svg" xmlns:xlink="http://www.w3.org/1999/xlink">
 <path d="M0,0 l124,0 l0,200 l-124,0 Z M0,0" fill="rgb(255,255,255)" transform="matrix(1,0,0,-1,0.0,200.0)"/>
 <path d="M0,0 l124,0" fill="none" stroke="rgb(229,229,229)" stroke-width="2" transform="matrix(1,0,0,-1,0.0,135.0)"/>
 <path d="M0,1 l0,-5" fill="none" stroke="rgb(204,204,204)" stroke-width="2" transform="matrix(1,0,0,-1,7.0,135.0)"/>
 <path d="M0,1 l0,-5" fill="none" stroke="rgb(204,204,204)" stroke-width="2" transform="matrix(1,0,0,-1,115.0,135.0)"/>
 <path d="M893,194 l4,0 l0,-194 l94,0 l0,573 l116,0 l0,77 l-1131,0 l0,-77 l636,0 c24,-23,39,-60,39,-91 c0,-48,-31,-77,-84,-96 c-40,49,-104,70,-164,70 l-262,0 l-32,-66 l0,-7 c97,-24,194,-79,194,-157 c0,-58,-43,-90,-106,-90 c-14,0,-29,2,-43,6 l-104,93 c-26,-15,-38,-37,-38,-67 c0,-49,42,-92,124,-99 l139,-152 l99,45 l-145,112 c3,0,8,1,11,2 c85,-2,158,51,158,140 c0,92,-84,140,-142,158 l0,4 l140,0 c56,0,104,-17,129,-83 c1,-3,2,-7,3,-10 c1,-2,1,-4,2,-7 c37,-94,115,-148,211,-148 c84,0,131,40,152,64 Z M615,331 c74,17,131,67,131,137 c0,41,-14,75,-41,101 l0,4 l192,0 l0,-210 c0,-94,-57,-150,-142,-150 c-90,0,-132,63,-140,118 Z M615,331" fill="rgb(0,0,0)" transform="matrix(0.1,0.0,0.0,-0.1,7.0,135.0)"/>
</svg>