<?xml version="1.0" encoding="UTF-8"?>
<svg height="200.0" version="1.1" width="116.0" xmlns="http://www.w3.org/2000/svg" xmlns:xlink="http://www.w3.org/1999/xlink">
 <path d="M0,0 l116,0 l0,200 l-116,0 Z M0,0" fill="rgb(255,255,255)" transform="matrix(1,0,0,-1,0.0,200.0)"/>
 <path d="M0,0 l116,0" fill="none" stroke="rgb(229,229,229)" stroke-width="2" transform="matrix(1,0,0,-1,0.0,135.0)"/>
 <path d="M0,1 l0,-5" fill="none" stroke="rgb(204,204,204)" stroke-width="2" transform="matrix(1,0,0,-1,7.0,135.0)"/>
 <path d="M0,1 l0,-5" fill="none" stroke="rgb(204,204,204)" stroke-width="2" transform="matrix(1,0,0,-1,108.0,135.0)"/>
 <path d="M792,36 c72,0,145,21,202,77 l-49,76 c-44,-45,-93,-69,-164,-69 c-96,0,-147,65,-147,127 c0,56,18,91,118,119 l144,41 l0,166 l137,0 l0,77 l-1057,0 l0,-77 l824,0 l0,-100 l-105,-32 c-24,-7,-44,-15,-62,-24 c-44,22,-98,29,-142,29 l-181,0 l-39,-70 l0,-7 c41,-14,87,-49,87,-105 c0,-45,-30,-76,-78,-76 c-102,0,-161,131,-166,253 l-90,-38 c15,-120,91,-299,263,-299 c100,0,164,66,164,152 c0,56,-27,91,-48,108 l0,4 l87,0 c27,0,51,-4,73,-12 c-15,-25,-23,-55,-23,-91 c0,-120,104,-229,252,-229 Z M792,36" fill="rgb(0,0,0)" transform="matrix(0.1,0.0,0.0,-0.1,7.0,135.0)"/>
</svg>