<?xml version="1.0" encoding="UTF-8"?>
<svg height="200.0" version="1.1" width="120.0" xmlns="http://www.w3.org/2000/svg" xmlns:xlink="http://www.w3.org/1999/xlink">
 <path d="M0,0 l120,0 l0,200 l-120,0 Z M0,0" fill="rgb(255,255,255)" transform="matrix(1,0,0,-1,0.0,200.0)"/>
 <path d="M0,0 l120,0" fill="none" stroke="rgb(229,229,229)" stroke-width="2" transform="matrix(1,0,0,-1,0.0,135.0)"/>
 <path d="M0,1 l0,-5" fill="none" stroke="rgb(204,204,204)" stroke-width="2" transform="matrix(1,0,0,-1,7.0,135.0)"/>
 <path d="M0,1 l0,-5" fill="none" stroke="rgb(204,204,204)" stroke-width="2" transform="matrix(1,0,0,-1,112.0,135.0)"/>
 <path d="M1071,650 l-1095,0 l0,-77 l873,0 l0,-86 l-136,0 c-46,0,-80,-15,-100,-41 l-303,0 l-39,-70 l0,-7 c41,-14,87,-49,87,-105 c0,-45,-30,-76,-78,-76 c-103,0,-161,133,-166,256 l-90,-41 c15,-120,91,-299,263,-299 c100,0,164,66,164,152 c0,56,-27,91,-48,108 l0,4 l190,0 c6,-70,60,-135,139,-164 l150,34 c17,-13,26,-34,26,-57 c0,-60,-47,-95,-116,-95 c-87,0,-159,58,-199,142 l-66,-48 c47,-91,133,-174,263,-174 c125,0,206,78,206,176 c0,68,-37,122,-87,142 l-165,-35 c-35,11,-57,44,-57,72 c0,31,13,48,72,48 l183,0 l0,164 l129,0 Z M1071,650" fill="rgb(0,0,0)" transform="matrix(0.1,0.0,0.0,-0.1,7.0,135.0)"/>
</svg>