<?xml version="1.0" encoding="UTF-8"?>
<svg height="200.0" version="1.1" width="122.0" xmlns="http://www.w3.org/2000/svg" xmlns:xlink="http://www.w3.org/1999/xlink">
 <path d="M0,0 l122,0 l0,200 l-122,0 Z M0,0" fill="rgb(255,255,255)" transform="matrix(1,0,0,-1,0.0,200.0)"/>
 <path d="M0,0 l122,0" fill="none" stroke="rgb(229,229,229)" stroke-width="2" transform="matrix(1,0,0,-1,0.0,135.0)"/>
 <path d="M0,1 l0,-5" fill="none" stroke="rgb(204,204,204)" stroke-width="2" transform="matrix(1,0,0,-1,7.0,135.0)"/>
 <path d="M0,1 l0,-5" fill="none" stroke="rgb(204,204,204)" stroke-width="2" transform="matrix(1,0,0,-1,114.0,135.0)"/>
 <path d="M977,573 l116,0 l0,77 l-1117,0 l0,-77 l906,0 l0,-257 c0,-24,-6,-46,-16,-65 l-185,147 c20,13,45,20,70,20 c22,0,44,-2,67,-10 l-5,84 c-22,6,-45,8,-70,8 c-53,0,-105,-19,-143,-54 l-290,0 l-39,-70 l0,-7 c41,-14,87,-49,87,-105 c0,-45,-30,-76,-78,-76 c-103,0,-161,133,-166,256 l-90,-41 c15,-120,91,-299,263,-299 c100,0,164,66,164,152 c0,56,-27,91,-48,108 l0,4 l145,0 c-8,-21,-12,-45,-12,-70 c0,-115,86,-196,198,-196 c72,0,121,31,144,59 l4,0 l0,-161 l95,0 Z M747,182 c-71,0,-120,50,-120,119 c0,22,5,41,15,58 l187,-151 c-22,-16,-50,-26,-82,-26 Z M747,182" fill="rgb(0,0,0)" transform="matrix(0.1,0.0,0.0,-0.1,7.0,135.0)"/>
</svg>