<?xml version="1.0" encoding="UTF-8"?>
<svg height="200.0" version="1.1" width="120.0" xmlns="http://www.w3.org/2000/svg" xmlns:xlink="http://www.w3.org/1999/xlink">
 <path d="M0,0 l120,0 l0,200 l-120,0 Z M0,0" fill="rgb(255,255,255)" transform="matrix(1,0,0,-1,0.0,200.0)"/>
 <path d="M0,0 l120,0" fill="none" stroke="rgb(229,229,229)" stroke-width="2" transform="matrix(1,0,0,-1,0.0,135.0)"/>
 <path d="M0,1 l0,-5" fill="none" stroke="rgb(204,204,204)" stroke-width="2" transform="matrix(1,0,0,-1,7.0,135.0)"/>
 <path d="M0,1 l0,-5" fill="none" stroke="rgb(204,204,204)" stroke-width="2" transform="matrix(1,0,0,-1,112.0,135.0)"/>
 <path d="M958,573 l116,0 l0,77 l-1098,0 l0,-77 l888,0 l0,-245 c0,-76,-46,-137,-124,-137 c-64,0,-107,44,-107,105 c0,84,78,119,153,99 l-8,85 c-61,11,-124,-1,-170,-34 l-298,0 l-39,-70 l0,-7 c41,-14,87,-49,87,-105 c0,-45,-30,-76,-78,-76 c-103,0,-161,133,-166,256 l-90,-41 c15,-120,91,-299,263,-299 c100,0,164,66,164,152 c0,56,-27,91,-48,108 l0,4 l145,0 c-8,-21,-13,-46,-13,-73 c0,-113,87,-187,189,-187 c71,0,115,31,136,55 l4,0 l0,-163 l94,0 Z M958,573" fill="rgb(0,0,0)" transform="matrix(0.1,0.0,0.0,-0.1,7.0,135.0)"/>
</svg>