<?xml version="1.0" encoding="UTF-8"?>
<svg height="200.0" version="1.1" width="122.0" xmlns="http://www.w3.org/2000/svg" xmlns:xlink="http://www.w3.org/1999/xlink">
 <path d="M0,0 l122,0 l0,200 l-122,0 Z M0,0" fill="rgb(255,255,255)" transform="matrix(1,0,0,-1,0.0,200.0)"/>
 <path d="M0,0 l122,0" fill="none" stroke="rgb(229,229,229)" stroke-width="2" transform="matrix(1,0,0,-1,0.0,135.0)"/>
 <path d="M0,1 l0,-5" fill="none" stroke="rgb(204,204,204)" stroke-width="2" transform="matrix(1,0,0,-1,7.0,135.0)"/>
 <path d="M0,1 l0,-5" fill="none" stroke="rgb(204,204,204)" stroke-width="2" transform="matrix(1,0,0,-1,114.0,135.0)"/>
 <path d="M699,242 l0,88 l185,0 l0,-330 l95,0 l0,573 l116,0 l0,77 l-1119,0 l0,-77 l356,0 l0,-88 l-142,0 c-76,0,-120,-41,-120,-104 c0,-79,58,-150,141,-177 l149,33 c10,-7,24,-25,24,-53 c0,-63,-64,-90,-130,-90 l-28,0 l-138,91 c-19,-10,-36,-31,-36,-61 c0,-49,45,-103,155,-105 l163,-146 l101,53 l-159,102 l-3,3 c85,8,164,62,164,154 c0,9,-1,17,-2,25 c20,-6,42,-9,65,-9 c62,0,122,18,163,41 Z M513,278 c-28,0,-55,4,-75,10 c-15,18,-32,30,-48,36 l-167,-36 c-32,9,-57,40,-57,69 c0,30,11,50,69,50 l189,0 l0,166 l460,0 l0,-160 l-249,0 l-63,-49 c0,-28,5,-54,14,-76 c-22,-7,-47,-10,-73,-10 Z M513,278" fill="rgb(0,0,0)" transform="matrix(0.1,0.0,0.0,-0.1,7.0,135.0)"/>
</svg>