<?xml version="1.0" encoding="UTF-8"?>
<svg height="200.0" version="1.1" width="128.0" xmlns="http://www.w3.org/2000/svg" xmlns:xlink="http://www.w3.org/1999/xlink">
 <path d="M0,0 l128,0 l0,200 l-128,0 Z M0,0" fill="rgb(255,255,255)" transform="matrix(1,0,0,-1,0.0,200.0)"/>
 <path d="M0,0 l128,0" fill="none" stroke="rgb(229,229,229)" stroke-width="2" transform="matrix(1,0,0,-1,0.0,135.0)"/>
 <path d="M0,1 l0,-5" fill="none" stroke="rgb(204,204,204)" stroke-width="2" transform="matrix(1,0,0,-1,7.0,135.0)"/>
 <path d="M0,1 l0,-5" fill="none" stroke="rgb(204,204,204)" stroke-width="2" transform="matrix(1,0,0,-1,120.0,135.0)"/>
 <path d="M513,288 c-35,0,-67,6,-89,14 c-11,10,-23,18,-34,22 l-167,-36 c-32,9,-57,40,-57,69 c0,30,11,50,69,50 l189,0 l0,166 l239,0 l0,-228 l-50,-38 c-27,-11,-62,-19,-100,-19 Z M384,184 c0,-63,-64,-90,-130,-90 l-28,0 l-138,91 c-19,-10,-36,-31,-36,-61 c0,-49,45,-103,155,-105 l163,-146 l101,53 l-159,102 l-3,3 c85,8,164,62,164,154 c0,12,-1,24,-3,35 c19,-6,40,-9,63,-9 c38,0,71,6,99,16 c11,-25,27,-48,47,-64 l75,0 l0,102 l194,0 l0,-265 l93,0 l0,573 l117,0 l0,77 l-1182,0 l0,-77 l356,0 l0,-88 l-142,0 c-76,0,-120,-41,-120,-104 c0,-79,58,-150,141,-177 l149,33 c10,-7,24,-25,24,-53 Z M948,573 l0,-224 l-192,0 l0,224 Z M948,573" fill="rgb(0,0,0)" transform="matrix(0.1,0.0,0.0,-0.1,7.0,135.0)"/>
</svg>