<?xml version="1.0" encoding="UTF-8"?>
<svg height="200.0" version="1.1" width="130.0" xmlns="http://www.w3.org/2000/svg" xmlns:xlink="http://www.w3.org/1999/xlink">
 <path d="M0,0 l130,0 l0,200 l-130,0 Z M0,0" fill="rgb(255,255,255)" transform="matrix(1,0,0,-1,0.0,200.0)"/>
 <path d="M0,0 l130,0" fill="none" stroke="rgb(229,229,229)" stroke-width="2" transform="matrix(1,0,0,-1,0.0,135.0)"/>
 <path d="M0,1 l0,-5" fill="none" stroke="rgb(204,204,204)" stroke-width="2" transform="matrix(1,0,0,-1,7.0,135.0)"/>
 <path d="M0,1 l0,-5" fill="none" stroke="rgb(204,204,204)" stroke-width="2" transform="matrix(1,0,0,-1,121.0,135.0)"/>
 <path d="M163,380 c17,10,42,20,72,20 c59,0,103,-36,103,-104 c0,-71,-54,-113,-115,-113 c-76,0,-124,46,-158,100 l-61,-69 c35,-56,112,-118,220,-118 c98,0,176,54,201,140 c24,-6,56,-9,87,-9 c31,0,58,3,80,8 c16,-72,83,-130,188,-130 c99,0,152,45,173,74 l4,0 l0,-179 l95,0 l0,573 l116,0 l0,77 l-1192,0 l0,-77 l981,0 l0,-207 c0,-112,-66,-178,-159,-178 c-71,0,-112,41,-112,95 c0,60,41,100,115,100 l73,0 l0,82 l-367,0 l0,-83 l131,0 l0,-4 c-13,-10,-31,-27,-41,-55 c-27,-7,-62,-12,-98,-12 c-20,0,-44,2,-67,5 c-8,107,-88,172,-196,172 c-45,0,-81,-13,-108,-27 Z M163,380" fill="rgb(0,0,0)" transform="matrix(0.1,0.0,0.0,-0.1,7.0,135.0)"/>
</svg>