<?xml version="1.0" encoding="UTF-8"?>
<svg height="200.0" version="1.1" width="132.0" xmlns="http://www.w3.org/2000/svg" xmlns:xlink="http://www.w3.org/1999/xlink">
 <path d="M0,0 l132,0 l0,200 l-132,0 Z M0,0" fill="rgb(255,255,255)" transform="matrix(1,0,0,-1,0.0,200.0)"/>
 <path d="M0,0 l132,0" fill="none" stroke="rgb(229,229,229)" stroke-width="2" transform="matrix(1,0,0,-1,0.0,135.0)"/>
 <path d="M0,1 l0,-5" fill="none" stroke="rgb(204,204,204)" stroke-width="2" transform="matrix(1,0,0,-1,7.0,135.0)"/>
 <path d="M0,1 l0,-5" fill="none" stroke="rgb(204,204,204)" stroke-width="2" transform="matrix(1,0,0,-1,124.0,135.0)"/>
 <path d="M163,380 c17,10,42,20,72,20 c59,0,103,-36,103,-104 c0,-71,-54,-113,-115,-113 c-76,0,-124,46,-158,100 l-61,-69 c35,-56,112,-118,220,-118 c106,0,188,64,206,162 c23,-6,53,-9,82,-9 c18,0,37,1,58,3 c-3,-11,-4,-23,-4,-36 c0,-96,82,-182,229,-182 c196,0,323,150,323,292 c0,73,-35,128,-91,150 l0,97 l164,0 l0,77 l-1215,0 l0,-77 l620,0 l0,-4 c-16,-14,-45,-42,-45,-98 c0,-60,37,-108,99,-122 l0,-2 c-47,-12,-110,-14,-148,-14 c-24,0,-50,2,-73,6 c-17,93,-92,149,-193,149 c-45,0,-81,-13,-108,-27 Z M972,298 c-37,7,-59,29,-59,61 c0,31,24,51,53,51 c36,0,65,-28,65,-83 c0,-116,-105,-211,-230,-211 c-90,0,-137,47,-137,104 c0,51,34,85,98,88 l21,0 l0,81 l-36,0 c-62,0,-97,36,-97,88 c0,57,40,96,105,96 l182,0 l0,-87 c-68,-11,-113,-64,-113,-126 c0,-63,41,-106,91,-119 Z M972,298" fill="rgb(0,0,0)" transform="matrix(0.1,0.0,0.0,-0.1,7.0,135.0)"/>
</svg>