<?xml version="1.0" encoding="UTF-8"?>
<svg height="200.0" version="1.1" width="140.0" xmlns="http://www.w3.org/2000/svg" xmlns:xlink="http://www.w3.org/1999/xlink">
 <path d="M0,0 l140,0 l0,200 l-140,0 Z M0,0" fill="rgb(255,255,255)" transform="matrix(1,0,0,-1,0.0,200.0)"/>
 <path d="M0,0 l140,0" fill="none" stroke="rgb(229,229,229)" stroke-width="2" transform="matrix(1,0,0,-1,0.0,135.0)"/>
 <path d="M0,1 l0,-5" fill="none" stroke="rgb(204,204,204)" stroke-width="2" transform="matrix(1,0,0,-1,7.0,135.0)"/>
 <path d="M0,1 l0,-5" fill="none" stroke="rgb(204,204,204)" stroke-width="2" transform="matrix(1,0,0,-1,133.0,135.0)"/>
 <path d="M163,380 c17,10,42,20,72,20 c59,0,103,-36,103,-104 c0,-71,-54,-113,-115,-113 c-76,0,-124,46,-158,100 l-61,-69 c35,-56,112,-118,220,-118 c111,0,195,69,207,173 c22,-4,47,-6,72,-6 c25,0,48,2,67,6 c40,-88,112,-165,225,-165 c100,0,164,66,164,152 c0,56,-27,91,-48,108 l0,4 l159,0 l0,-368 l95,0 l0,573 l116,0 l0,77 l-1305,0 l0,-77 l1094,0 l0,-127 l-252,0 l-39,-70 l0,-7 c41,-14,87,-49,87,-105 c0,-45,-30,-76,-78,-76 c-103,0,-161,133,-166,256 l-90,-41 c2,-17,5,-35,10,-53 c-15,-2,-31,-3,-49,-3 c-21,0,-45,2,-67,5 c-21,85,-94,136,-190,136 c-45,0,-81,-13,-108,-27 Z M163,380" fill="rgb(0,0,0)" transform="matrix(0.1,0.0,0.0,-0.1,7.0,135.0)"/>
</svg>