<?xml version="1.0" encoding="UTF-8"?>
<svg height="200.0" version="1.1" width="140.0" xmlns="http://www.w3.org/2000/svg" xmlns:xlink="http://www.w3.org/1999/xlink">
 <path d="M0,0 l140,0 l0,200 l-140,0 Z M0,0" fill="rgb(255,255,255)" transform="matrix(1,0,0,-1,0.0,200.0)"/>
 <path d="M0,0 l140,0" fill="none" stroke="rgb(229,229,229)" stroke-width="2" transform="matrix(1,0,0,-1,0.0,135.0)"/>
 <path d="M0,1 l0,-5" fill="none" stroke="rgb(204,204,204)" stroke-width="2" transform="matrix(1,0,0,-1,7.0,135.0)"/>
 <path d="M0,1 l0,-5" fill="none" stroke="rgb(204,204,204)" stroke-width="2" transform="matrix(1,0,0,-1,132.0,135.0)"/>
 <path d="M1156,0 l0,573 l116,0 l0,77 l-1296,0 l0,-77 l1086,0 l0,-223 c-15,-2,-30,-3,-45,-3 c-20,0,-41,2,-61,5 c-22,87,-98,137,-190,136 c-46,-1,-81,-13,-108,-27 l35,-82 c20,15,51,24,83,20 c53,-4,92,-39,92,-103 c0,-74,-53,-112,-114,-112 c-76,0,-137,58,-175,173 c-22,-5,-54,-10,-86,-10 c-21,0,-45,2,-67,5 c-21,85,-94,136,-190,136 c-45,0,-81,-13,-108,-27 l35,-81 c17,10,42,20,72,20 c59,0,103,-36,103,-104 c0,-71,-54,-113,-115,-113 c-76,0,-124,46,-158,100 l-61,-69 c35,-56,112,-118,220,-118 c111,0,195,69,207,173 c22,-4,47,-6,72,-6 c6,0,12,0,17,0 c42,-95,121,-166,235,-166 c108,0,194,68,207,173 c19,-4,40,-6,61,-7 c14,-1,26,0,39,1 l0,-264 Z M1156,0" fill="rgb(0,0,0)" transform="matrix(0.1,0.0,0.0,-0.1,7.0,135.0)"/>
</svg>