<?xml version="1.0" encoding="UTF-8"?>
<svg height="200.0" version="1.1" width="74.0" xmlns="http://www.w3.org/2000/svg" xmlns:xlink="http://www.w3.org/1999/xlink">
 <path d="M0,0 l74,0 l0,200 l-74,0 Z M0,0" fill="rgb(255,255,255)" transform="matrix(1,0,0,-1,0.0,200.0)"/>
 <path d="M0,0 l74,0" fill="none" stroke="rgb(229,229,229)" stroke-width="2" transform="matrix(1,0,0,-1,0.0,135.0)"/>
 <path d="M0,1 l0,-5" fill="none" stroke="rgb(204,204,204)" stroke-width="2" transform="matrix(1,0,0,-1,7.0,135.0)"/>
 <path d="M0,1 l0,-5" fill="none" stroke="rgb(204,204,204)" stroke-width="2" transform="matrix(1,0,0,-1,67.0,135.0)"/>
 <path d="M544,254 l-43,70 c-35,-28,-107,-66,-196,-66 c-107,0,-157,51,-157,95 c0,42,29,69,99,79 l198,29 l0,112 l165,0 l0,77 l-634,0 l0,-77 l379,0 l0,-50 l-147,-20 c-98,-14,-155,-67,-155,-146 c0,-92,87,-180,254,-180 c9,0,19,0,29,1 l0,-52 l-129,-23 c-91,-16,-148,-69,-148,-147 c0,-99,96,-182,254,-182 c169,0,262,84,262,185 c0,92,-66,142,-151,164 l0,71 c45,13,89,33,120,60 Z M305,-144 c-110,0,-152,58,-152,99 c0,37,24,62,94,75 l144,26 c50,-12,93,-43,93,-91 c0,-57,-58,-109,-179,-109 Z M305,-144" fill="rgb(0,0,0)" transform="matrix(0.1,0.0,0.0,-0.1,7.0,135.0)"/>
</svg>