<?xml version="1.0" encoding="UTF-8"?>
<svg height="200.0" version="1.1" width="120.0" xmlns="http://www.w3.org/2000/svg" xmlns:xlink="http://www.w3.org/1999/xlink">
 <path d="M0,0 l120,0 l0,200 l-120,0 Z M0,0" fill="rgb(255,255,255)" transform="matrix(1,0,0,-1,0.0,200.0)"/>
 <path d="M0,0 l120,0" fill="none" stroke="rgb(229,229,229)" stroke-width="2" transform="matrix(1,0,0,-1,0.0,135.0)"/>
 <path d="M0,1 l0,-5" fill="none" stroke="rgb(204,204,204)" stroke-width="2" transform="matrix(1,0,0,-1,7.0,135.0)"/>
 <path d="M0,1 l0,-5" fill="none" stroke="rgb(204,204,204)" stroke-width="2" transform="matrix(1,0,0,-1,112.0,135.0)"/>
 <path d="M962,0 l0,573 l116,0 l0,77 l-1102,0 l0,-77 l329,0 l0,-129 l-106,-32 c-105,-31,-155,-77,-155,-168 c0,-121,104,-225,252,-225 c66,0,132,18,184,62 l-48,77 c-39,-33,-82,-55,-147,-55 c-96,0,-147,61,-147,123 c0,55,19,83,118,111 l144,41 c86,22,143,32,184,32 c47,0,71,-17,71,-49 c0,-29,-20,-60,-87,-95 l-60,-29 c21,-104,100,-181,214,-181 c67,0,119,34,142,61 l4,0 l0,-117 Z M730,134 c-66,0,-100,40,-110,78 c71,31,121,83,121,148 c0,81,-68,129,-161,129 c-54,0,-131,-16,-180,-32 l0,116 l468,0 l0,-291 c0,-81,-47,-148,-138,-148 Z M730,134" fill="rgb(0,0,0)" transform="matrix(0.1,0.0,0.0,-0.1,7.0,135.0)"/>
</svg>