<?xml version="1.0" encoding="UTF-8"?>
<svg height="200.0" version="1.1" width="78.0" xmlns="http://www.w3.org/2000/svg" xmlns:xlink="http://www.w3.org/1999/xlink">
 <path d="M0,0 l78,0 l0,200 l-78,0 Z M0,0" fill="rgb(255,255,255)" transform="matrix(1,0,0,-1,0.0,200.0)"/>
 <path d="M0,0 l78,0" fill="none" stroke="rgb(229,229,229)" stroke-width="2" transform="matrix(1,0,0,-1,0.0,135.0)"/>
 <path d="M0,1 l0,-5" fill="none" stroke="rgb(204,204,204)" stroke-width="2" transform="matrix(1,0,0,-1,7.0,135.0)"/>
 <path d="M0,1 l0,-5" fill="none" stroke="rgb(204,204,204)" stroke-width="2" transform="matrix(1,0,0,-1,69.0,135.0)"/>
 <path d="M312,174 c11,0,21,0,31,1 l0,-47 l-160,-39 c-91,-23,-135,-66,-135,-136 c0,-95,99,-179,261,-179 c173,0,262,88,262,185 c0,88,-62,136,-140,159 l0,73 c95,30,143,97,143,168 c0,87,-62,136,-140,158 l0,56 l212,0 l0,77 l-670,0 l0,-77 l368,0 l0,-45 l-159,-40 c-90,-22,-135,-66,-135,-135 c0,-96,99,-179,262,-179 Z M300,255 c-121,0,-156,54,-156,86 c0,35,19,56,83,71 l160,40 c50,-10,96,-37,96,-88 c0,-59,-57,-109,-183,-109 Z M298,-144 c-122,0,-157,53,-157,86 c0,35,19,55,83,71 l159,39 c51,-9,97,-36,97,-88 c0,-59,-57,-108,-182,-108 Z M298,-144" fill="rgb(0,0,0)" transform="matrix(0.1,0.0,0.0,-0.1,7.0,135.0)"/>
</svg>