<?xml version="1.0" encoding="UTF-8"?>
<svg height="200.0" version="1.1" width="132.0" xmlns="http://www.w3.org/2000/svg" xmlns:xlink="http://www.w3.org/1999/xlink">
 <path d="M0,0 l132,0 l0,200 l-132,0 Z M0,0" fill="rgb(255,255,255)" transform="matrix(1,0,0,-1,0.0,200.0)"/>
 <path d="M0,0 l132,0" fill="none" stroke="rgb(229,229,229)" stroke-width="2" transform="matrix(1,0,0,-1,0.0,135.0)"/>
 <path d="M0,1 l0,-5" fill="none" stroke="rgb(204,204,204)" stroke-width="2" transform="matrix(1,0,0,-1,7.0,135.0)"/>
 <path d="M0,1 l0,-5" fill="none" stroke="rgb(204,204,204)" stroke-width="2" transform="matrix(1,0,0,-1,123.0,135.0)"/>
 <path d="M973,118 l4,0 l0,-118 l94,0 l0,573 l117,0 l0,77 l-1212,0 l0,-77 l329,0 l0,-101 l-105,-32 c-105,-31,-156,-84,-156,-176 c0,-124,104,-228,250,-228 c151,0,247,98,247,215 c0,46,-14,84,-36,115 c55,27,123,46,181,46 c60,0,78,-24,78,-53 c0,-35,-24,-57,-67,-79 l-81,-44 c24,-105,100,-181,214,-181 c69,0,120,36,143,63 Z M837,133 c-66,0,-99,38,-110,78 c66,34,123,75,123,148 c0,80,-69,133,-169,133 c-96,0,-191,-40,-238,-65 c-14,10,-29,18,-43,25 l0,121 l577,0 l0,-294 c0,-79,-52,-146,-140,-146 Z M283,120 c-97,0,-145,65,-145,127 c0,56,19,91,118,120 l80,22 c47,-15,113,-57,113,-131 c0,-73,-54,-138,-166,-138 Z M283,120" fill="rgb(0,0,0)" transform="matrix(0.1,0.0,0.0,-0.1,7.0,135.0)"/>
</svg>