<?xml version="1.0" encoding="UTF-8"?>
<svg height="200.0" version="1.1" width="78.0" xmlns="http://www.w3.org/2000/svg" xmlns:xlink="http://www.w3.org/1999/xlink">
 <path d="M0,0 l78,0 l0,200 l-78,0 Z M0,0" fill="rgb(255,255,255)" transform="matrix(1,0,0,-1,0.0,200.0)"/>
 <path d="M0,0 l78,0" fill="none" stroke="rgb(229,229,229)" stroke-width="2" transform="matrix(1,0,0,-1,0.0,135.0)"/>
 <path d="M0,1 l0,-5" fill="none" stroke="rgb(204,204,204)" stroke-width="2" transform="matrix(1,0,0,-1,7.0,135.0)"/>
 <path d="M0,1 l0,-5" fill="none" stroke="rgb(204,204,204)" stroke-width="2" transform="matrix(1,0,0,-1,69.0,135.0)"/>
 <path d="M300,218 c-121,0,-156,53,-156,88 c0,38,28,62,92,76 l148,34 c51,-10,99,-37,99,-89 c0,-59,-57,-109,-183,-109 Z M489,-198 l0,379 c56,34,85,86,85,141 c0,88,-62,136,-140,159 l0,92 l212,0 l0,77 l-670,0 l0,-77 l368,0 l0,-82 l-149,-33 c-91,-20,-144,-66,-144,-140 c0,-66,42,-123,117,-154 c-40,-24,-73,-62,-73,-130 c0,-96,74,-170,178,-170 c69,0,108,30,123,48 l4,0 l0,-110 Z M188,37 c0,54,36,100,118,100 c35,0,67,-5,95,-11 l0,-67 c0,-67,-40,-116,-111,-116 c-64,0,-102,40,-102,94 Z M188,37" fill="rgb(0,0,0)" transform="matrix(0.1,0.0,0.0,-0.1,7.0,135.0)"/>
</svg>