<?xml version="1.0" encoding="UTF-8"?>
<svg height="200.0" version="1.1" width="72.0" xmlns="http://www.w3.org/2000/svg" xmlns:xlink="http://www.w3.org/1999/xlink">
 <path d="M0,0 l72,0 l0,200 l-72,0 Z M0,0" fill="rgb(255,255,255)" transform="matrix(1,0,0,-1,0.0,200.0)"/>
 <path d="M0,0 l72,0" fill="none" stroke="rgb(229,229,229)" stroke-width="2" transform="matrix(1,0,0,-1,0.0,135.0)"/>
 <path d="M0,1 l0,-5" fill="none" stroke="rgb(204,204,204)" stroke-width="2" transform="matrix(1,0,0,-1,8.0,135.0)"/>
 <path d="M0,1 l0,-5" fill="none" stroke="rgb(204,204,204)" stroke-width="2" transform="matrix(1,0,0,-1,64.0,135.0)"/>
 <path d="M38,242 c22,-29,55,-62,93,-83 c-18,-20,-26,-44,-26,-68 c0,-58,43,-114,126,-131 l170,29 c11,-7,19,-18,19,-36 c0,-40,-41,-77,-120,-77 c-92,0,-160,39,-209,102 l-53,-49 c45,-60,136,-126,261,-126 c119,0,204,62,204,153 c0,52,-31,96,-72,112 l-195,-32 c-33,6,-47,33,-47,52 c0,19,9,31,21,39 c25,-7,61,-10,92,-10 c120,0,201,61,201,152 c0,51,-30,97,-72,113 l-194,-32 c-32,5,-47,30,-47,49 c0,20,12,37,48,37 l214,0 l0,137 l142,0 l0,77 l-624,0 l0,-77 l392,0 l0,-68 l-158,0 c-72,0,-106,-45,-106,-93 c0,-59,47,-118,133,-140 l169,30 c11,-7,20,-18,20,-36 c0,-40,-38,-76,-120,-76 c-92,0,-160,37,-209,100 Z M38,242" fill="rgb(0,0,0)" transform="matrix(0.1,0.0,0.0,-0.1,8.0,135.0)"/>
</svg>