<?xml version="1.0" encoding="UTF-8"?>
<svg height="200.0" version="1.1" width="72.0" xmlns="http://www.w3.org/2000/svg" xmlns:xlink="http://www.w3.org/1999/xlink">
 <path d="M0,0 l72,0 l0,200 l-72,0 Z M0,0" fill="rgb(255,255,255)" transform="matrix(1,0,0,-1,0.0,200.0)"/>
 <path d="M0,0 l72,0" fill="none" stroke="rgb(229,229,229)" stroke-width="2" transform="matrix(1,0,0,-1,0.0,135.0)"/>
 <path d="M0,1 l0,-5" fill="none" stroke="rgb(204,204,204)" stroke-width="2" transform="matrix(1,0,0,-1,7.0,135.0)"/>
 <path d="M0,1 l0,-5" fill="none" stroke="rgb(204,204,204)" stroke-width="2" transform="matrix(1,0,0,-1,64.0,135.0)"/>
 <path d="M507,270 c0,51,-30,94,-71,111 l-193,-32 c-32,5,-47,34,-47,52 c0,21,12,39,48,39 l212,0 l0,133 l136,0 l0,77 l-616,0 l0,-77 l391,0 l0,-63 l-159,0 c-72,0,-106,-45,-106,-93 c0,-59,47,-122,133,-143 l165,30 c11,-7,19,-21,19,-39 c0,-36,-34,-74,-118,-74 c-109,0,-165,45,-208,101 l-54,-55 c29,-40,73,-74,123,-95 c-60,-23,-94,-75,-94,-136 c0,-106,98,-202,251,-202 c116,0,180,70,180,147 c0,61,-49,117,-127,117 c-85,0,-121,-62,-123,-99 l71,-36 c-2,28,13,60,50,60 c29,0,45,-21,45,-44 c0,-35,-30,-70,-97,-70 c-104,0,-159,64,-159,123 c0,55,36,98,156,114 c99,9,191,50,192,154 Z M507,270" fill="rgb(0,0,0)" transform="matrix(0.1,0.0,0.0,-0.1,7.0,135.0)"/>
</svg>