<?xml version="1.0" encoding="UTF-8"?>
<svg height="200.0" version="1.1" width="70.0" xmlns="http://www.w3.org/2000/svg" xmlns:xlink="http://www.w3.org/1999/xlink">
 <path d="M0,0 l70,0 l0,200 l-70,0 Z M0,0" fill="rgb(255,255,255)" transform="matrix(1,0,0,-1,0.0,200.0)"/>
 <path d="M0,0 l70,0" fill="none" stroke="rgb(229,229,229)" stroke-width="2" transform="matrix(1,0,0,-1,0.0,135.0)"/>
 <path d="M0,1 l0,-5" fill="none" stroke="rgb(204,204,204)" stroke-width="2" transform="matrix(1,0,0,-1,7.0,135.0)"/>
 <path d="M0,1 l0,-5" fill="none" stroke="rgb(204,204,204)" stroke-width="2" transform="matrix(1,0,0,-1,62.0,135.0)"/>
 <path d="M576,650 l-600,0 l0,-77 l380,0 l0,-73 l-146,0 c-75,0,-112,-43,-112,-96 c0,-68,48,-137,133,-167 l162,32 c10,-9,18,-25,18,-45 c0,-47,-32,-88,-120,-88 c-90,0,-154,51,-192,120 l-63,-51 c24,-38,58,-82,109,-112 c-35,-24,-64,-64,-64,-125 c0,-92,67,-162,167,-162 c62,0,99,28,114,45 l4,0 l0,-114 l87,0 l0,378 c30,30,45,70,45,110 c0,67,-35,113,-78,129 l-178,-34 c-36,12,-50,44,-50,66 c0,22,10,37,60,37 l195,0 l0,150 l129,0 Z M265,-115 c-64,0,-92,37,-92,85 c0,56,40,92,114,92 c25,0,52,-1,80,-3 l0,-63 c0,-68,-42,-111,-102,-111 Z M265,-115" fill="rgb(0,0,0)" transform="matrix(0.1,0.0,0.0,-0.1,7.0,135.0)"/>
</svg>