<?xml version="1.0" encoding="UTF-8"?>
<svg height="200.0" version="1.1" width="70.0" xmlns="http://www.w3.org/2000/svg" xmlns:xlink="http://www.w3.org/1999/xlink">
 <path d="M0,0 l70,0 l0,200 l-70,0 Z M0,0" fill="rgb(255,255,255)" transform="matrix(1,0,0,-1,0.0,200.0)"/>
 <path d="M0,0 l70,0" fill="none" stroke="rgb(229,229,229)" stroke-width="2" transform="matrix(1,0,0,-1,0.0,135.0)"/>
 <path d="M0,1 l0,-5" fill="none" stroke="rgb(204,204,204)" stroke-width="2" transform="matrix(1,0,0,-1,7.0,135.0)"/>
 <path d="M0,1 l0,-5" fill="none" stroke="rgb(204,204,204)" stroke-width="2" transform="matrix(1,0,0,-1,62.0,135.0)"/>
 <path d="M178,164 c-80,-28,-114,-84,-114,-143 c0,-110,107,-208,258,-208 c111,0,181,60,181,140 c0,60,-50,117,-126,117 c-75,0,-110,-43,-120,-78 c-3,-5,-4,-10,-5,-15 l68,-40 c0,7,1,14,4,20 c4,20,20,39,47,39 c29,0,45,-18,45,-43 c0,-32,-30,-64,-94,-64 c-106,0,-162,67,-162,123 c0,54,48,96,164,111 c95,10,179,52,179,145 c0,60,-50,114,-126,114 c-75,0,-110,-43,-120,-78 c-3,-6,-4,-10,-5,-15 l68,-40 c0,6,0,11,2,17 c4,22,21,42,49,42 c29,0,45,-19,45,-43 c0,-32,-30,-64,-95,-64 c-108,0,-162,67,-162,123 c0,46,24,79,115,99 l170,36 l0,114 l131,0 l0,77 l-599,0 l0,-77 l374,0 l0,-51 l-136,-31 c-102,-24,-151,-83,-151,-158 c0,-64,39,-132,115,-165 Z M178,164" fill="rgb(0,0,0)" transform="matrix(0.1,0.0,0.0,-0.1,7.0,135.0)"/>
</svg>