<?xml version="1.0" encoding="UTF-8"?>
<svg height="200.0" version="1.1" width="122.0" xmlns="http://www.w3.org/2000/svg" xmlns:xlink="http://www.w3.org/1999/xlink">
 <path d="M0,0 l122,0 l0,200 l-122,0 Z M0,0" fill="rgb(255,255,255)" transform="matrix(1,0,0,-1,0.0,200.0)"/>
 <path d="M0,0 l122,0" fill="none" stroke="rgb(229,229,229)" stroke-width="2" transform="matrix(1,0,0,-1,0.0,135.0)"/>
 <path d="M0,1 l0,-5" fill="none" stroke="rgb(204,204,204)" stroke-width="2" transform="matrix(1,0,0,-1,7.0,135.0)"/>
 <path d="M0,1 l0,-5" fill="none" stroke="rgb(204,204,204)" stroke-width="2" transform="matrix(1,0,0,-1,115.0,135.0)"/>
 <path d="M887,121 l4,0 l0,-121 l94,0 l0,573 l117,0 l0,77 l-1126,0 l0,-77 l353,0 l0,-97 l-126,-35 c-99,-27,-160,-94,-160,-186 c0,-137,121,-241,264,-241 c109,0,181,72,181,160 c0,72,-58,129,-131,129 c-84,0,-126,-57,-129,-103 l66,-45 c-3,36,18,67,55,67 c31,0,51,-22,51,-50 c0,-44,-33,-76,-93,-76 c-102,0,-168,76,-168,148 c0,58,24,99,118,123 l162,42 c70,9,132,15,182,15 c53,0,77,-21,77,-58 c0,-29,-22,-59,-87,-94 l-57,-30 c18,-105,97,-181,211,-181 c67,0,119,33,142,60 Z M752,139 c-66,0,-99,38,-110,79 c72,31,122,78,122,147 c0,91,-64,136,-162,136 c-60,0,-126,-6,-177,-12 l0,84 l466,0 l0,-289 c0,-80,-51,-145,-139,-145 Z M752,139" fill="rgb(0,0,0)" transform="matrix(0.1,0.0,0.0,-0.1,7.0,135.0)"/>
</svg>