<?xml version="1.0" encoding="UTF-8"?>
<svg height="200.0" version="1.1" width="70.0" xmlns="http://www.w3.org/2000/svg" xmlns:xlink="http://www.w3.org/1999/xlink">
 <path d="M0,0 l70,0 l0,200 l-70,0 Z M0,0" fill="rgb(255,255,255)" transform="matrix(1,0,0,-1,0.0,200.0)"/>
 <path d="M0,0 l70,0" fill="none" stroke="rgb(229,229,229)" stroke-width="2" transform="matrix(1,0,0,-1,0.0,135.0)"/>
 <path d="M0,1 l0,-5" fill="none" stroke="rgb(204,204,204)" stroke-width="2" transform="matrix(1,0,0,-1,7.0,135.0)"/>
 <path d="M0,1 l0,-5" fill="none" stroke="rgb(204,204,204)" stroke-width="2" transform="matrix(1,0,0,-1,62.0,135.0)"/>
 <path d="M463,-201 l0,377 c25,23,40,54,40,92 c0,60,-50,114,-126,114 c-75,0,-110,-43,-120,-78 c-3,-6,-4,-10,-5,-15 l68,-40 c0,6,0,11,2,17 c4,22,21,42,49,42 c29,0,45,-19,45,-43 c0,-32,-30,-64,-95,-64 c-108,0,-162,67,-162,123 c0,46,24,79,115,99 l170,36 l0,114 l131,0 l0,77 l-599,0 l0,-77 l374,0 l0,-51 l-136,-31 c-102,-24,-151,-83,-151,-158 c0,-65,39,-123,99,-161 c-50,-22,-92,-67,-92,-141 c0,-97,74,-171,177,-171 c70,0,109,31,123,49 l4,0 l0,-110 Z M162,33 c0,54,36,101,118,101 c35,0,58,-1,95,3 l0,-82 c0,-67,-40,-116,-110,-116 c-64,0,-103,41,-103,94 Z M162,33" fill="rgb(0,0,0)" transform="matrix(0.1,0.0,0.0,-0.1,7.0,135.0)"/>
</svg>