<?xml version="1.0" encoding="UTF-8"?>
<svg height="200.0" version="1.1" width="116.0" xmlns="http://www.w3.org/2000/svg" xmlns:xlink="http://www.w3.org/1999/xlink">
 <path d="M0,0 l116,0 l0,200 l-116,0 Z M0,0" fill="rgb(255,255,255)" transform="matrix(1,0,0,-1,0.0,200.0)"/>
 <path d="M0,0 l116,0" fill="none" stroke="rgb(229,229,229)" stroke-width="2" transform="matrix(1,0,0,-1,0.0,135.0)"/>
 <path d="M0,1 l0,-5" fill="none" stroke="rgb(204,204,204)" stroke-width="2" transform="matrix(1,0,0,-1,7.0,135.0)"/>
 <path d="M0,1 l0,-5" fill="none" stroke="rgb(204,204,204)" stroke-width="2" transform="matrix(1,0,0,-1,108.0,135.0)"/>
 <path d="M250,168 c104,0,172,62,172,176 l0,229 l378,0 l0,-100 l-106,-32 c-105,-31,-155,-84,-155,-176 c0,-120,104,-229,252,-229 c73,0,146,21,203,77 l-50,76 c-43,-45,-93,-69,-164,-69 c-96,0,-146,65,-146,127 c0,56,18,91,117,119 l145,41 l0,166 l136,0 l0,77 l-1056,0 l0,-77 l103,0 l0,-230 c0,-114,66,-175,171,-175 Z M251,251 c-51,0,-78,31,-78,91 l0,231 l156,0 l0,-231 c0,-60,-26,-91,-78,-91 Z M251,251" fill="rgb(0,0,0)" transform="matrix(0.1,0.0,0.0,-0.1,7.0,135.0)"/>
</svg>