<?xml version="1.0" encoding="UTF-8"?>
<svg height="200.0" version="1.1" width="118.0" xmlns="http://www.w3.org/2000/svg" xmlns:xlink="http://www.w3.org/1999/xlink">
 <path d="M0,0 l118,0 l0,200 l-118,0 Z M0,0" fill="rgb(255,255,255)" transform="matrix(1,0,0,-1,0.0,200.0)"/>
 <path d="M0,0 l118,0" fill="none" stroke="rgb(229,229,229)" stroke-width="2" transform="matrix(1,0,0,-1,0.0,135.0)"/>
 <path d="M0,1 l0,-5" fill="none" stroke="rgb(204,204,204)" stroke-width="2" transform="matrix(1,0,0,-1,7.0,135.0)"/>
 <path d="M0,1 l0,-5" fill="none" stroke="rgb(204,204,204)" stroke-width="2" transform="matrix(1,0,0,-1,110.0,135.0)"/>
 <path d="M250,168 c104,0,172,62,172,176 l0,229 l401,0 l0,-80 l-126,-36 c-99,-27,-160,-93,-160,-186 c0,-136,121,-241,264,-241 c110,0,182,72,182,160 c0,72,-59,130,-132,130 c-84,0,-125,-58,-129,-104 l66,-45 c-3,37,18,67,56,67 c30,0,50,-22,50,-50 c0,-43,-33,-75,-93,-75 c-102,0,-168,75,-168,147 c0,58,24,100,118,124 l168,43 l0,146 l137,0 l0,77 l-1080,0 l0,-77 l103,0 l0,-230 c0,-114,66,-175,171,-175 Z M251,251 c-51,0,-78,31,-78,91 l0,231 l156,0 l0,-231 c0,-60,-26,-91,-78,-91 Z M251,251" fill="rgb(0,0,0)" transform="matrix(0.1,0.0,0.0,-0.1,7.0,135.0)"/>
</svg>