<?xml version="1.0" encoding="UTF-8"?>
<svg height="200.0" version="1.1" width="160.0" xmlns="http://www.w3.org/2000/svg" xmlns:xlink="http://www.w3.org/1999/xlink">
 <path d="M0,0 l160,0 l0,200 l-160,0 Z M0,0" fill="rgb(255,255,255)" transform="matrix(1,0,0,-1,0.0,200.0)"/>
 <path d="M0,0 l160,0" fill="none" stroke="rgb(229,229,229)" stroke-width="2" transform="matrix(1,0,0,-1,0.0,135.0)"/>
 <path d="M0,1 l0,-5" fill="none" stroke="rgb(204,204,204)" stroke-width="2" transform="matrix(1,0,0,-1,7.0,135.0)"/>
 <path d="M0,1 l0,-5" fill="none" stroke="rgb(204,204,204)" stroke-width="2" transform="matrix(1,0,0,-1,152.0,135.0)"/>
 <path d="M1138,191 c-64,0,-107,44,-107,105 c0,84,78,119,153,99 l-8,85 c-68,12,-137,-3,-185,-45 c-29,25,-70,39,-111,39 c-61,0,-104,-27,-124,-52 l-4,0 l0,151 l510,0 l0,-245 c0,-76,-46,-137,-124,-137 Z M658,171 l0,-171 l94,0 l0,277 c0,68,45,116,111,116 c35,0,63,-13,80,-32 c-6,-20,-10,-42,-10,-66 c0,-113,87,-187,189,-187 c71,0,115,31,136,55 l4,0 l0,-163 l94,0 l0,573 l116,0 l0,77 l-1496,0 l0,-77 l682,0 l0,-257 c0,-67,-43,-115,-108,-115 c-58,0,-98,40,-98,95 c0,77,66,109,136,96 l-15,84 c-49,6,-98,-4,-136,-28 l-203,0 c-98,0,-185,-65,-185,-188 c0,-122,67,-215,140,-269 l72,58 c-65,47,-115,116,-115,209 c0,71,44,107,106,107 l116,0 c-8,-20,-12,-43,-12,-69 c0,-106,80,-177,175,-177 c66,0,105,29,123,52 Z M658,171" fill="rgb(0,0,0)" transform="matrix(0.1,0.0,0.0,-0.1,7.0,135.0)"/>
</svg>