<?xml version="1.0" encoding="UTF-8"?>
<svg height="200.0" version="1.1" width="126.0" xmlns="http://www.w3.org/2000/svg" xmlns:xlink="http://www.w3.org/1999/xlink">
 <path d="M0,0 l126,0 l0,200 l-126,0 Z M0,0" fill="rgb(255,255,255)" transform="matrix(1,0,0,-1,0.0,200.0)"/>
 <path d="M0,0 l126,0" fill="none" stroke="rgb(229,229,229)" stroke-width="2" transform="matrix(1,0,0,-1,0.0,135.0)"/>
 <path d="M0,1 l0,-5" fill="none" stroke="rgb(204,204,204)" stroke-width="2" transform="matrix(1,0,0,-1,7.0,135.0)"/>
 <path d="M0,1 l0,-5" fill="none" stroke="rgb(204,204,204)" stroke-width="2" transform="matrix(1,0,0,-1,119.0,135.0)"/>
 <path d="M415,448 l-181,0 c-98,0,-185,-65,-185,-188 c0,-122,67,-215,140,-269 l72,58 c-65,47,-115,116,-115,209 c0,71,44,107,106,107 l105,0 c27,-192,145,-343,347,-343 c116,0,194,51,233,97 l4,0 l0,-119 l88,0 l0,573 l116,0 l0,77 l-1169,0 l0,-77 l570,0 l0,-161 c0,-39,-20,-54,-46,-54 c-33,0,-51,19,-64,47 l-1,0 Z M936,465 c-17,16,-45,30,-93,30 c-87,0,-158,-66,-158,-157 c0,-93,72,-145,141,-151 l49,59 c-60,3,-103,38,-103,90 c0,48,34,81,83,81 c47,0,88,-36,88,-101 c0,-131,-106,-215,-234,-215 c-119,0,-211,74,-238,192 c11,-5,26,-9,47,-9 c68,0,119,45,119,133 l0,156 l303,0 l0,-108 Z M936,465" fill="rgb(0,0,0)" transform="matrix(0.1,0.0,0.0,-0.1,7.0,135.0)"/>
</svg>