<?xml version="1.0" encoding="UTF-8"?>
<svg height="200.0" version="1.1" width="172.0" xmlns="http://www.w3.org/2000/svg" xmlns:xlink="http://www.w3.org/1999/xlink">
 <path d="M0,0 l172,0 l0,200 l-172,0 Z M0,0" fill="rgb(255,255,255)" transform="matrix(1,0,0,-1,0.0,200.0)"/>
 <path d="M0,0 l172,0" fill="none" stroke="rgb(229,229,229)" stroke-width="2" transform="matrix(1,0,0,-1,0.0,135.0)"/>
 <path d="M0,1 l0,-5" fill="none" stroke="rgb(204,204,204)" stroke-width="2" transform="matrix(1,0,0,-1,7.0,135.0)"/>
 <path d="M0,1 l0,-5" fill="none" stroke="rgb(204,204,204)" stroke-width="2" transform="matrix(1,0,0,-1,165.0,135.0)"/>
 <path d="M1205,223 l0,97 l185,0 l0,-320 l95,0 l0,573 l116,0 l0,77 l-1625,0 l0,-77 l570,0 l0,-161 c0,-39,-18,-54,-45,-54 c-33,0,-52,19,-64,47 l-2,-1 l-20,44 l-181,0 c-98,0,-185,-65,-185,-188 c0,-122,67,-215,140,-269 l72,58 c-65,47,-115,116,-115,209 c0,71,44,107,106,107 l105,0 c26,-190,147,-342,349,-342 c197,0,320,144,320,291 c0,105,-71,184,-174,184 c-96,0,-165,-68,-165,-159 c0,-93,69,-144,137,-149 l51,59 c-60,3,-103,37,-103,89 c0,48,34,80,83,80 c46,0,88,-38,88,-100 c0,-130,-104,-216,-232,-216 c-120,0,-213,72,-240,191 c11,-5,26,-9,47,-9 c68,0,119,45,119,133 l0,156 l753,0 l0,-170 l-249,0 l-68,-51 c1,-71,36,-125,80,-150 Z M1205,223" fill="rgb(0,0,0)" transform="matrix(0.1,0.0,0.0,-0.1,7.0,135.0)"/>
</svg>