<?xml version="1.0" encoding="UTF-8"?>
<svg height="200.0" version="1.1" width="128.0" xmlns="http://www.w3.org/2000/svg" xmlns:xlink="http://www.w3.org/1999/xlink">
 <path d="M0,0 l128,0 l0,200 l-128,0 Z M0,0" fill="rgb(255,255,255)" transform="matrix(1,0,0,-1,0.0,200.0)"/>
 <path d="M0,0 l128,0" fill="none" stroke="rgb(229,229,229)" stroke-width="2" transform="matrix(1,0,0,-1,0.0,135.0)"/>
 <path d="M0,1 l0,-5" fill="none" stroke="rgb(204,204,204)" stroke-width="2" transform="matrix(1,0,0,-1,7.0,135.0)"/>
 <path d="M0,1 l0,-5" fill="none" stroke="rgb(204,204,204)" stroke-width="2" transform="matrix(1,0,0,-1,119.0,135.0)"/>
 <path d="M234,448 c-98,0,-185,-65,-185,-188 c0,-122,67,-215,140,-269 l72,58 c-65,47,-115,116,-115,209 c0,71,44,107,106,107 l112,0 c40,-225,173,-300,270,-309 l0,-4 l-217,-60 l71,-76 l262,98 c104,39,155,76,187,106 l4,0 l0,-120 l89,0 l0,573 l116,0 l0,77 l-1170,0 l0,-77 l570,0 l0,-152 c0,-39,-20,-55,-46,-55 c-31,0,-49,16,-62,41 c-5,15,-8,30,-10,41 Z M939,470 c-21,18,-50,31,-95,31 c-88,0,-160,-66,-160,-157 c0,-93,71,-144,139,-149 l47,59 c-59,3,-99,36,-99,88 c0,49,35,81,84,81 c50,0,92,-38,92,-105 c0,-130,-106,-205,-233,-205 c-115,0,-214,71,-239,191 c12,-4,26,-8,48,-8 c68,0,114,43,114,126 l0,151 l304,0 l0,-102 Z M939,470" fill="rgb(0,0,0)" transform="matrix(0.1,0.0,0.0,-0.1,7.0,135.0)"/>
</svg>