<?xml version="1.0" encoding="UTF-8"?>
<svg height="200.0" version="1.1" width="110.0" xmlns="http://www.w3.org/2000/svg" xmlns:xlink="http://www.w3.org/1999/xlink">
 <path d="M0,0 l110,0 l0,200 l-110,0 Z M0,0" fill="rgb(255,255,255)" transform="matrix(1,0,0,-1,0.0,200.0)"/>
 <path d="M0,0 l110,0" fill="none" stroke="rgb(229,229,229)" stroke-width="2" transform="matrix(1,0,0,-1,0.0,135.0)"/>
 <path d="M0,1 l0,-5" fill="none" stroke="rgb(204,204,204)" stroke-width="2" transform="matrix(1,0,0,-1,7.0,135.0)"/>
 <path d="M0,1 l0,-5" fill="none" stroke="rgb(204,204,204)" stroke-width="2" transform="matrix(1,0,0,-1,103.0,135.0)"/>
 <path d="M774,194 l0,-194 l94,0 l0,573 l116,0 l0,77 l-1008,0 l0,-77 l513,0 c24,-23,39,-60,39,-91 c0,-42,-23,-69,-64,-88 c-38,33,-85,49,-147,49 l-291,0 l0,-84 l108,0 l0,-4 c-17,-15,-48,-47,-48,-118 c0,-100,67,-193,140,-246 l68,61 c-57,41,-113,103,-113,196 c0,67,39,112,110,112 l25,0 c33,0,55,-5,75,-19 c22,-134,112,-211,227,-211 c84,0,131,40,152,64 Z M492,331 c74,17,131,67,131,137 c0,41,-14,75,-41,101 l0,4 l192,0 l0,-210 c0,-94,-57,-150,-142,-150 c-90,0,-132,63,-140,118 Z M492,331" fill="rgb(0,0,0)" transform="matrix(0.1,0.0,0.0,-0.1,7.0,135.0)"/>
</svg>