<?xml version="1.0" encoding="UTF-8"?>
<svg height="200.0" version="1.1" width="106.0" xmlns="http://www.w3.org/2000/svg" xmlns:xlink="http://www.w3.org/1999/xlink">
 <path d="M0,0 l106,0 l0,200 l-106,0 Z M0,0" fill="rgb(255,255,255)" transform="matrix(1,0,0,-1,0.0,200.0)"/>
 <path d="M0,0 l106,0" fill="none" stroke="rgb(229,229,229)" stroke-width="2" transform="matrix(1,0,0,-1,0.0,135.0)"/>
 <path d="M0,1 l0,-5" fill="none" stroke="rgb(204,204,204)" stroke-width="2" transform="matrix(1,0,0,-1,7.0,135.0)"/>
 <path d="M0,1 l0,-5" fill="none" stroke="rgb(204,204,204)" stroke-width="2" transform="matrix(1,0,0,-1,97.0,135.0)"/>
 <path d="M810,573 l116,0 l0,77 l-950,0 l0,-77 l739,0 l0,-245 c0,-76,-45,-137,-123,-137 c-65,0,-107,44,-107,105 c0,84,78,119,152,99 l-7,85 c-63,11,-127,-1,-174,-36 l-430,0 l0,-84 l108,0 l0,-4 c-17,-15,-48,-47,-48,-118 c0,-100,67,-194,140,-247 l68,61 c-57,41,-113,104,-113,197 c0,67,39,112,110,112 l105,0 c-6,-20,-10,-42,-10,-66 c0,-113,87,-187,189,-187 c72,0,116,31,136,55 l4,0 l0,-163 l95,0 Z M810,573" fill="rgb(0,0,0)" transform="matrix(0.1,0.0,0.0,-0.1,7.0,135.0)"/>
</svg>