<?xml version="1.0" encoding="UTF-8"?>
<svg height="200.0" version="1.1" width="116.0" xmlns="http://www.w3.org/2000/svg" xmlns:xlink="http://www.w3.org/1999/xlink">
 <path d="M0,0 l116,0 l0,200 l-116,0 Z M0,0" fill="rgb(255,255,255)" transform="matrix(1,0,0,-1,0.0,200.0)"/>
 <path d="M0,0 l116,0" fill="none" stroke="rgb(229,229,229)" stroke-width="2" transform="matrix(1,0,0,-1,0.0,135.0)"/>
 <path d="M0,1 l0,-5" fill="none" stroke="rgb(204,204,204)" stroke-width="2" transform="matrix(1,0,0,-1,7.0,135.0)"/>
 <path d="M0,1 l0,-5" fill="none" stroke="rgb(204,204,204)" stroke-width="2" transform="matrix(1,0,0,-1,108.0,135.0)"/>
 <path d="M336,650 l-360,0 l0,-77 l360,0 Z M485,305 c20,5,40,9,59,15 c122,33,191,94,191,192 c0,86,-58,148,-155,148 c-91,0,-152,-61,-152,-135 c0,-36,14,-66,29,-82 l85,21 c-14,15,-22,36,-22,55 c0,38,25,60,60,60 c40,0,62,-25,62,-65 c0,-53,-28,-94,-157,-130 l-33,-9 c-35,46,-95,73,-174,73 l-45,0 c-98,0,-185,-65,-185,-188 c0,-122,68,-215,140,-269 l73,58 c-66,47,-116,116,-116,209 c0,71,45,107,106,107 l20,0 c54,0,83,-12,105,-34 c15,-137,109,-235,253,-235 c104,0,164,51,188,85 l4,0 l0,-181 l93,0 l0,573 l116,0 l0,77 l-210,0 l0,-282 c0,-98,-58,-187,-182,-187 c-109,0,-147,85,-153,124 Z M485,305" fill="rgb(0,0,0)" transform="matrix(0.1,0.0,0.0,-0.1,7.0,135.0)"/>
</svg>