<?xml version="1.0" encoding="UTF-8"?>
<svg height="200.0" version="1.1" width="150.0" xmlns="http://www.w3.org/2000/svg" xmlns:xlink="http://www.w3.org/1999/xlink">
 <path d="M0,0 l150,0 l0,200 l-150,0 Z M0,0" fill="rgb(255,255,255)" transform="matrix(1,0,0,-1,0.0,200.0)"/>
 <path d="M0,0 l150,0" fill="none" stroke="rgb(229,229,229)" stroke-width="2" transform="matrix(1,0,0,-1,0.0,135.0)"/>
 <path d="M0,1 l0,-5" fill="none" stroke="rgb(204,204,204)" stroke-width="2" transform="matrix(1,0,0,-1,7.0,135.0)"/>
 <path d="M0,1 l0,-5" fill="none" stroke="rgb(204,204,204)" stroke-width="2" transform="matrix(1,0,0,-1,142.0,135.0)"/>
 <path d="M570,188 c45,0,81,10,110,24 c21,-97,89,-177,176,-222 l63,65 c-102,54,-148,132,-148,215 c0,10,1,19,2,27 l1,2 l-1,1 c9,55,43,76,78,76 c46,0,75,-30,75,-90 l0,-97 l89,0 l0,95 c0,64,29,95,76,95 c29,0,58,-15,70,-27 l0,-352 l95,0 l0,573 l117,0 l0,77 l-1397,0 l0,-77 l421,0 l0,-125 l-163,0 c-98,0,-185,-65,-185,-188 c0,-122,67,-215,140,-269 l72,58 c-65,47,-115,116,-115,209 c0,71,44,107,106,107 l145,0 l0,-7 c0,-105,65,-170,173,-170 Z M1157,433 c-15,17,-46,30,-81,30 c-47,0,-92,-28,-105,-82 l-4,0 c-17,48,-61,78,-125,78 c-76,0,-151,-50,-166,-150 c-23,-22,-55,-38,-94,-38 c-58,0,-90,28,-90,97 l0,205 l669,0 l0,-140 Z M1157,433" fill="rgb(0,0,0)" transform="matrix(0.1,0.0,0.0,-0.1,7.0,135.0)"/>
</svg>