<?xml version="1.0" encoding="UTF-8"?>
<svg height="200.0" version="1.1" width="118.0" xmlns="http://www.w3.org/2000/svg" xmlns:xlink="http://www.w3.org/1999/xlink">
 <path d="M0,0 l118,0 l0,200 l-118,0 Z M0,0" fill="rgb(255,255,255)" transform="matrix(1,0,0,-1,0.0,200.0)"/>
 <path d="M0,0 l118,0" fill="none" stroke="rgb(229,229,229)" stroke-width="2" transform="matrix(1,0,0,-1,0.0,135.0)"/>
 <path d="M0,1 l0,-5" fill="none" stroke="rgb(204,204,204)" stroke-width="2" transform="matrix(1,0,0,-1,7.0,135.0)"/>
 <path d="M0,1 l0,-5" fill="none" stroke="rgb(204,204,204)" stroke-width="2" transform="matrix(1,0,0,-1,111.0,135.0)"/>
 <path d="M845,433 c-16,17,-46,30,-81,30 c-47,0,-92,-28,-106,-82 l-4,0 c-16,48,-60,78,-124,78 c-36,0,-72,-11,-101,-34 c-33,16,-73,23,-115,23 l-81,0 c-98,0,-185,-65,-185,-188 c0,-122,68,-215,140,-269 l73,58 c-66,47,-116,116,-116,209 c0,71,45,107,106,107 l56,0 c30,0,51,-3,69,-11 c-9,-23,-14,-50,-14,-81 c0,-125,78,-229,182,-283 l62,65 c-101,54,-148,132,-148,215 c0,77,39,106,81,106 c45,0,74,-30,74,-90 l0,-97 l89,0 l0,95 c0,64,29,95,77,95 c28,0,57,-15,70,-27 l0,-352 l95,0 l0,573 l116,0 l0,77 l-1084,0 l0,-77 l873,0 l0,-140 Z M845,433" fill="rgb(0,0,0)" transform="matrix(0.1,0.0,0.0,-0.1,7.0,135.0)"/>
</svg>