<?xml version="1.0" encoding="UTF-8"?>
<svg height="200.0" version="1.1" width="102.0" xmlns="http://www.w3.org/2000/svg" xmlns:xlink="http://www.w3.org/1999/xlink">
 <path d="M0,0 l102,0 l0,200 l-102,0 Z M0,0" fill="rgb(255,255,255)" transform="matrix(1,0,0,-1,0.0,200.0)"/>
 <path d="M0,0 l102,0" fill="none" stroke="rgb(229,229,229)" stroke-width="2" transform="matrix(1,0,0,-1,0.0,135.0)"/>
 <path d="M0,1 l0,-5" fill="none" stroke="rgb(204,204,204)" stroke-width="2" transform="matrix(1,0,0,-1,7.0,135.0)"/>
 <path d="M0,1 l0,-5" fill="none" stroke="rgb(204,204,204)" stroke-width="2" transform="matrix(1,0,0,-1,94.0,135.0)"/>
 <path d="M779,573 l117,0 l0,77 l-920,0 l0,-77 l709,0 l0,-245 c0,-76,-46,-137,-123,-137 c-65,0,-108,44,-108,105 c0,84,78,119,153,99 l-8,85 c-60,11,-121,0,-167,-32 l-198,0 c-98,0,-185,-65,-185,-188 c0,-122,67,-215,140,-269 l72,58 c-65,47,-115,116,-115,209 c0,71,44,107,106,107 l116,0 c-8,-21,-12,-44,-12,-70 c0,-113,87,-187,189,-187 c71,0,115,31,136,55 l4,0 l0,-163 l94,0 Z M779,573" fill="rgb(0,0,0)" transform="matrix(0.1,0.0,0.0,-0.1,7.0,135.0)"/>
</svg>