<?xml version="1.0" encoding="UTF-8"?>
<svg height="200.0" version="1.1" width="116.0" xmlns="http://www.w3.org/2000/svg" xmlns:xlink="http://www.w3.org/1999/xlink">
 <path d="M0,0 l116,0 l0,200 l-116,0 Z M0,0" fill="rgb(255,255,255)" transform="matrix(1,0,0,-1,0.0,200.0)"/>
 <path d="M0,0 l116,0" fill="none" stroke="rgb(229,229,229)" stroke-width="2" transform="matrix(1,0,0,-1,0.0,135.0)"/>
 <path d="M0,1 l0,-5" fill="none" stroke="rgb(204,204,204)" stroke-width="2" transform="matrix(1,0,0,-1,7.0,135.0)"/>
 <path d="M0,1 l0,-5" fill="none" stroke="rgb(204,204,204)" stroke-width="2" transform="matrix(1,0,0,-1,108.0,135.0)"/>
 <path d="M494,270 c7,-2,20,-2,26,-2 c28,1,54,9,75,24 c36,-19,89,-31,145,-31 c31,0,59,3,83,9 l0,-270 l96,0 l0,573 l116,0 l0,77 l-1059,0 l0,-77 l573,0 l0,-170 c0,-43,-21,-61,-59,-61 c-38,0,-61,19,-81,42 l-45,55 l-130,0 c-98,0,-185,-64,-185,-186 c0,-121,69,-212,140,-264 l72,57 c-66,47,-115,112,-115,204 c0,71,44,106,106,106 l63,0 l17,-22 l266,-342 l77,50 l-110,139 c-31,40,-51,62,-72,85 Z M732,346 c-34,0,-66,4,-94,12 c3,12,5,25,5,40 l0,175 l180,0 l0,-213 c-26,-10,-57,-14,-91,-14 Z M732,346" fill="rgb(0,0,0)" transform="matrix(0.1,0.0,0.0,-0.1,7.0,135.0)"/>
</svg>