<?xml version="1.0" encoding="UTF-8"?>
<svg height="200.0" version="1.1" width="152.0" xmlns="http://www.w3.org/2000/svg" xmlns:xlink="http://www.w3.org/1999/xlink">
 <path d="M0,0 l152,0 l0,200 l-152,0 Z M0,0" fill="rgb(255,255,255)" transform="matrix(1,0,0,-1,0.0,200.0)"/>
 <path d="M0,0 l152,0" fill="none" stroke="rgb(229,229,229)" stroke-width="2" transform="matrix(1,0,0,-1,0.0,135.0)"/>
 <path d="M0,1 l0,-5" fill="none" stroke="rgb(204,204,204)" stroke-width="2" transform="matrix(1,0,0,-1,7.0,135.0)"/>
 <path d="M0,1 l0,-5" fill="none" stroke="rgb(204,204,204)" stroke-width="2" transform="matrix(1,0,0,-1,143.0,135.0)"/>
 <path d="M733,347 c-34,0,-67,4,-94,12 c3,12,4,24,4,38 l0,176 l250,0 c24,-23,39,-60,39,-91 c0,-63,-53,-94,-141,-112 c1,-6,1,-12,2,-19 c-19,-2,-39,-4,-60,-4 Z M494,270 c10,-2,26,-2,36,-1 c25,2,48,10,67,24 c35,-19,88,-31,144,-31 c28,0,52,2,74,7 c38,-89,115,-139,207,-139 c84,0,131,40,152,64 l4,0 l0,-194 l94,0 l0,573 l116,0 l0,77 l-1412,0 l0,-77 l573,0 l0,-171 c0,-43,-21,-60,-59,-60 c-39,0,-64,24,-85,47 l-41,50 l-130,0 c-98,0,-185,-64,-185,-186 c0,-121,69,-212,140,-264 l72,57 c-66,47,-115,112,-115,204 c0,71,44,106,106,106 l63,0 l17,-22 l266,-342 l77,50 l-110,139 c-31,40,-51,62,-72,85 Z M897,331 c73,17,131,67,131,137 c0,41,-15,75,-42,101 l0,4 l192,0 l0,-210 c0,-94,-57,-150,-142,-150 c-89,0,-131,63,-139,118 Z M897,331" fill="rgb(0,0,0)" transform="matrix(0.1,0.0,0.0,-0.1,7.0,135.0)"/>
</svg>