<?xml version="1.0" encoding="UTF-8"?>
<svg height="200.0" version="1.1" width="146.0" xmlns="http://www.w3.org/2000/svg" xmlns:xlink="http://www.w3.org/1999/xlink">
 <path d="M0,0 l146,0 l0,200 l-146,0 Z M0,0" fill="rgb(255,255,255)" transform="matrix(1,0,0,-1,0.0,200.0)"/>
 <path d="M0,0 l146,0" fill="none" stroke="rgb(229,229,229)" stroke-width="2" transform="matrix(1,0,0,-1,0.0,135.0)"/>
 <path d="M0,1 l0,-5" fill="none" stroke="rgb(204,204,204)" stroke-width="2" transform="matrix(1,0,0,-1,7.0,135.0)"/>
 <path d="M0,1 l0,-5" fill="none" stroke="rgb(204,204,204)" stroke-width="2" transform="matrix(1,0,0,-1,138.0,135.0)"/>
 <path d="M732,346 c-34,0,-66,4,-93,12 c2,12,4,25,4,39 l0,176 l476,0 l0,-245 c0,-76,-46,-137,-123,-137 c-65,0,-107,44,-107,105 c0,84,77,119,152,99 l-8,85 c-101,18,-207,-25,-235,-128 c-20,-4,-42,-6,-66,-6 Z M494,270 c10,-2,26,-2,36,-1 c24,2,47,10,65,23 c36,-19,89,-31,145,-31 c19,0,36,1,52,3 c14,-95,95,-156,187,-156 c72,0,115,31,136,55 l4,0 l0,-163 l95,0 l0,573 l116,0 l0,77 l-1354,0 l0,-77 l573,0 l0,-171 c0,-43,-21,-60,-59,-60 c-38,0,-62,19,-81,42 l-45,55 l-130,0 c-98,0,-185,-64,-185,-186 c0,-121,69,-212,140,-264 l72,57 c-66,47,-115,112,-115,204 c0,71,44,106,106,106 l63,0 l17,-22 l266,-342 l77,50 l-110,139 c-31,40,-51,62,-72,85 Z M494,270" fill="rgb(0,0,0)" transform="matrix(0.1,0.0,0.0,-0.1,7.0,135.0)"/>
</svg>