<?xml version="1.0" encoding="UTF-8"?>
<svg height="200.0" version="1.1" width="118.0" xmlns="http://www.w3.org/2000/svg" xmlns:xlink="http://www.w3.org/1999/xlink">
 <path d="M0,0 l118,0 l0,200 l-118,0 Z M0,0" fill="rgb(255,255,255)" transform="matrix(1,0,0,-1,0.0,200.0)"/>
 <path d="M0,0 l118,0" fill="none" stroke="rgb(229,229,229)" stroke-width="2" transform="matrix(1,0,0,-1,0.0,135.0)"/>
 <path d="M0,1 l0,-5" fill="none" stroke="rgb(204,204,204)" stroke-width="2" transform="matrix(1,0,0,-1,5.0,135.0)"/>
 <path d="M0,1 l0,-5" fill="none" stroke="rgb(204,204,204)" stroke-width="2" transform="matrix(1,0,0,-1,110.0,135.0)"/>
 <path d="M296,97 c128,0,202,53,246,108 c42,-48,101,-75,168,-75 c83,0,131,40,151,64 l4,0 l0,-194 l95,0 l0,573 l116,0 l0,77 l-593,0 l0,-77 l97,0 c24,-23,39,-60,39,-91 c0,-63,-53,-94,-141,-112 c3,-31,9,-59,18,-85 c-28,-50,-88,-104,-191,-104 c-111,0,-157,83,-162,124 c20,5,40,9,60,15 c121,34,190,97,190,192 c0,86,-61,148,-156,148 c-91,0,-153,-61,-153,-136 c0,-39,15,-69,33,-87 l84,25 c-15,15,-24,38,-24,57 c0,38,25,60,60,60 c38,0,63,-25,63,-65 c0,-52,-29,-93,-158,-130 l-111,-30 c7,-148,111,-257,265,-257 Z M584,331 c73,17,131,67,131,137 c0,41,-14,75,-41,101 l0,4 l192,0 l0,-210 c0,-94,-57,-150,-142,-150 c-90,0,-132,63,-140,118 Z M584,331" fill="rgb(0,0,0)" transform="matrix(0.1,0.0,0.0,-0.1,5.0,135.0)"/>
</svg>