<?xml version="1.0" encoding="UTF-8"?>
<svg height="200.0" version="1.1" width="112.0" xmlns="http://www.w3.org/2000/svg" xmlns:xlink="http://www.w3.org/1999/xlink">
 <path d="M0,0 l112,0 l0,200 l-112,0 Z M0,0" fill="rgb(255,255,255)" transform="matrix(1,0,0,-1,0.0,200.0)"/>
 <path d="M0,0 l112,0" fill="none" stroke="rgb(229,229,229)" stroke-width="2" transform="matrix(1,0,0,-1,0.0,135.0)"/>
 <path d="M0,1 l0,-5" fill="none" stroke="rgb(204,204,204)" stroke-width="2" transform="matrix(1,0,0,-1,5.0,135.0)"/>
 <path d="M0,1 l0,-5" fill="none" stroke="rgb(204,204,204)" stroke-width="2" transform="matrix(1,0,0,-1,105.0,135.0)"/>
 <path d="M296,97 c109,0,180,39,226,84 c34,-46,90,-73,152,-73 c71,0,115,31,136,55 l4,0 l0,-163 l94,0 l0,573 l117,0 l0,77 l-542,0 l0,-77 l331,0 l0,-245 c0,-76,-46,-137,-123,-137 c-65,0,-107,44,-107,105 c0,84,77,119,152,99 l-8,85 c-118,21,-243,-42,-243,-185 c0,-9,1,-17,2,-26 c-31,-44,-89,-88,-182,-88 c-111,0,-157,83,-162,124 c20,5,40,9,60,15 c121,34,190,97,190,192 c0,86,-61,148,-156,148 c-91,0,-153,-61,-153,-136 c0,-39,15,-69,33,-87 l84,25 c-15,15,-24,38,-24,57 c0,38,25,60,60,60 c38,0,63,-25,63,-65 c0,-52,-29,-93,-158,-130 l-111,-30 c7,-148,111,-257,265,-257 Z M296,97" fill="rgb(0,0,0)" transform="matrix(0.1,0.0,0.0,-0.1,5.0,135.0)"/>
</svg>