<?xml version="1.0" encoding="UTF-8"?>
<svg height="200.0" version="1.1" width="84.0" xmlns="http://www.w3.org/2000/svg" xmlns:xlink="http://www.w3.org/1999/xlink">
 <path d="M0,0 l84,0 l0,200 l-84,0 Z M0,0" fill="rgb(255,255,255)" transform="matrix(1,0,0,-1,0.0,200.0)"/>
 <path d="M0,0 l84,0" fill="none" stroke="rgb(229,229,229)" stroke-width="2" transform="matrix(1,0,0,-1,0.0,135.0)"/>
 <path d="M0,1 l0,-5" fill="none" stroke="rgb(204,204,204)" stroke-width="2" transform="matrix(1,0,0,-1,7.0,135.0)"/>
 <path d="M0,1 l0,-5" fill="none" stroke="rgb(204,204,204)" stroke-width="2" transform="matrix(1,0,0,-1,76.0,135.0)"/>
 <path d="M153,67 c-40,0,-63,24,-63,61 c0,41,35,80,97,95 c10,-34,29,-65,55,-90 c-19,-20,-37,-39,-51,-59 c-11,-5,-21,-7,-38,-7 Z M504,79 l4,0 l85,-152 l109,27 l-132,166 c20,19,37,46,37,86 c0,48,-31,76,-59,90 l-65,-25 l0,-101 c-16,-15,-46,-24,-81,-24 c-73,0,-131,52,-131,120 c0,57,31,92,125,116 l150,37 l0,154 l163,0 l0,77 l-733,0 l0,-77 l474,0 l0,-88 l-110,-27 c-104,-25,-155,-78,-160,-162 c-104,-22,-173,-87,-173,-171 c0,-67,47,-119,127,-119 c10,0,18,1,28,2 c-3,-6,-3,-17,-3,-25 c0,-61,50,-119,137,-119 c103,0,176,76,208,215 Z M297,-69 c-40,0,-58,22,-58,50 c0,28,13,60,68,107 c36,-16,81,-21,112,-19 c-20,-84,-67,-138,-122,-138 Z M297,-69" fill="rgb(0,0,0)" transform="matrix(0.1,0.0,0.0,-0.1,7.0,135.0)"/>
</svg>