<?xml version="1.0" encoding="UTF-8"?>
<svg height="200.0" version="1.1" width="84.0" xmlns="http://www.w3.org/2000/svg" xmlns:xlink="http://www.w3.org/1999/xlink">
 <path d="M0,0 l84,0 l0,200 l-84,0 Z M0,0" fill="rgb(255,255,255)" transform="matrix(1,0,0,-1,0.0,200.0)"/>
 <path d="M0,0 l84,0" fill="none" stroke="rgb(229,229,229)" stroke-width="2" transform="matrix(1,0,0,-1,0.0,135.0)"/>
 <path d="M0,1 l0,-5" fill="none" stroke="rgb(204,204,204)" stroke-width="2" transform="matrix(1,0,0,-1,7.0,135.0)"/>
 <path d="M0,1 l0,-5" fill="none" stroke="rgb(204,204,204)" stroke-width="2" transform="matrix(1,0,0,-1,75.0,135.0)"/>
 <path d="M511,80 l84,-153 l109,27 l-131,166 c19,19,37,46,37,86 c0,48,-32,76,-59,90 l-65,-25 l0,-101 c-17,-15,-46,-24,-81,-24 c-73,0,-131,52,-131,120 c0,57,31,92,124,116 l150,37 l0,154 l161,0 l0,77 l-733,0 l0,-77 l477,0 l0,-88 l-111,-27 c-109,-27,-160,-85,-160,-177 c0,-60,24,-112,65,-151 c-31,-36,-49,-67,-98,-67 c-36,0,-56,16,-56,49 c0,49,48,85,48,149 l-76,35 c0,-85,-54,-113,-54,-189 c0,-62,41,-107,117,-107 c11,0,30,1,42,4 c-3,-8,-5,-20,-5,-30 c0,-53,43,-110,133,-110 c103,0,177,77,209,216 Z M299,-69 c-40,0,-58,22,-58,51 c0,30,15,59,68,107 c37,-17,77,-22,113,-20 c-20,-84,-68,-138,-123,-138 Z M299,-69" fill="rgb(0,0,0)" transform="matrix(0.1,0.0,0.0,-0.1,7.0,135.0)"/>
</svg>