<?xml version="1.0" encoding="UTF-8"?>
<svg height="200.0" version="1.1" width="112.0" xmlns="http://www.w3.org/2000/svg" xmlns:xlink="http://www.w3.org/1999/xlink">
 <path d="M0,0 l112,0 l0,200 l-112,0 Z M0,0" fill="rgb(255,255,255)" transform="matrix(1,0,0,-1,0.0,200.0)"/>
 <path d="M0,0 l112,0" fill="none" stroke="rgb(229,229,229)" stroke-width="2" transform="matrix(1,0,0,-1,0.0,135.0)"/>
 <path d="M0,1 l0,-5" fill="none" stroke="rgb(204,204,204)" stroke-width="2" transform="matrix(1,0,0,-1,7.0,135.0)"/>
 <path d="M0,1 l0,-5" fill="none" stroke="rgb(204,204,204)" stroke-width="2" transform="matrix(1,0,0,-1,105.0,135.0)"/>
 <path d="M505,108 c28,-59,83,-105,159,-105 c67,0,101,27,123,52 l4,0 l0,-114 l95,0 l0,632 l108,0 l0,77 l-1018,0 l0,-77 l477,0 l0,-57 l-110,-27 c-110,-27,-160,-81,-160,-173 c0,-60,24,-111,64,-149 c-30,-37,-49,-68,-98,-68 c-35,0,-55,17,-55,50 c0,49,48,84,48,149 l-76,35 c0,-85,-55,-113,-55,-189 c0,-63,42,-108,117,-108 c12,0,31,2,42,4 c-3,-7,-4,-19,-4,-30 c0,-52,42,-109,132,-109 c102,0,174,75,207,207 Z M242,19 c0,30,15,59,67,106 c37,-16,78,-21,114,-19 c-20,-84,-68,-139,-123,-139 c-40,0,-58,23,-58,52 Z M573,157 c24,22,37,49,37,85 c0,49,-31,77,-59,90 l-65,-24 l0,-101 c-17,-15,-46,-24,-80,-24 c-73,0,-131,50,-131,118 c0,57,30,89,124,112 l150,38 l0,122 l242,0 l0,-358 c0,-75,-33,-133,-117,-133 c-59,0,-93,49,-101,75 Z M573,157" fill="rgb(0,0,0)" transform="matrix(0.1,0.0,0.0,-0.1,7.0,135.0)"/>
</svg>