<?xml version="1.0" encoding="UTF-8"?>
<svg height="200.0" version="1.1" width="72.0" xmlns="http://www.w3.org/2000/svg" xmlns:xlink="http://www.w3.org/1999/xlink">
 <path d="M0,0 l72,0 l0,200 l-72,0 Z M0,0" fill="rgb(255,255,255)" transform="matrix(1,0,0,-1,0.0,200.0)"/>
 <path d="M0,0 l72,0" fill="none" stroke="rgb(229,229,229)" stroke-width="2" transform="matrix(1,0,0,-1,0.0,135.0)"/>
 <path d="M0,1 l0,-5" fill="none" stroke="rgb(204,204,204)" stroke-width="2" transform="matrix(1,0,0,-1,7.0,135.0)"/>
 <path d="M0,1 l0,-5" fill="none" stroke="rgb(204,204,204)" stroke-width="2" transform="matrix(1,0,0,-1,63.0,135.0)"/>
 <path d="M371,109 c-3,-44,-17,-83,-41,-111 l-69,112 c9,1,19,2,30,2 c25,0,62,-2,80,-3 Z M243,-40 c-53,0,-75,34,-75,69 c0,28,14,52,43,67 l78,-127 c-14,-6,-29,-9,-46,-9 Z M427,32 l4,0 l45,-78 l104,32 l-135,168 c20,21,37,47,37,86 c0,49,-32,76,-59,89 l-65,-24 l0,-101 c-18,-13,-48,-22,-85,-22 c-73,0,-126,45,-126,109 c0,61,31,90,125,114 l149,37 l0,131 l165,0 l0,77 l-610,0 l0,-77 l350,0 l0,-65 l-112,-28 c-111,-28,-161,-80,-161,-173 c0,-74,33,-137,93,-164 l0,-4 c-34,-19,-67,-56,-67,-111 c0,-81,63,-141,159,-141 c109,0,172,79,189,145 Z M427,32" fill="rgb(0,0,0)" transform="matrix(0.1,0.0,0.0,-0.1,7.0,135.0)"/>
</svg>