<?xml version="1.0" encoding="UTF-8"?>
<svg height="200.0" version="1.1" width="70.0" xmlns="http://www.w3.org/2000/svg" xmlns:xlink="http://www.w3.org/1999/xlink">
 <path d="M0,0 l70,0 l0,200 l-70,0 Z M0,0" fill="rgb(255,255,255)" transform="matrix(1,0,0,-1,0.0,200.0)"/>
 <path d="M0,0 l70,0" fill="none" stroke="rgb(229,229,229)" stroke-width="2" transform="matrix(1,0,0,-1,0.0,135.0)"/>
 <path d="M0,1 l0,-5" fill="none" stroke="rgb(204,204,204)" stroke-width="2" transform="matrix(1,0,0,-1,7.0,135.0)"/>
 <path d="M0,1 l0,-5" fill="none" stroke="rgb(204,204,204)" stroke-width="2" transform="matrix(1,0,0,-1,62.0,135.0)"/>
 <path d="M408,61 c-13,-21,-43,-50,-78,-71 l-74,121 c16,3,32,4,49,4 c26,0,59,-4,76,-6 Z M238,-39 c-54,0,-75,36,-75,69 c0,29,17,51,44,65 l77,-126 c-15,-5,-30,-8,-46,-8 Z M164,-92 l-123,-59 l82,-60 l325,205 l32,-58 l104,33 l-143,185 c20,21,37,47,37,86 c0,49,-33,76,-59,89 l-66,-24 l0,-101 c-17,-13,-47,-22,-84,-22 c-73,0,-126,45,-126,109 c0,61,31,90,125,114 l149,37 l0,131 l161,0 l0,77 l-602,0 l0,-77 l345,0 l0,-65 l-111,-28 c-112,-28,-161,-79,-161,-173 c0,-74,33,-137,93,-164 l0,-4 c-34,-19,-68,-54,-68,-110 c0,-68,46,-106,90,-117 Z M164,-92" fill="rgb(0,0,0)" transform="matrix(0.1,0.0,0.0,-0.1,7.0,135.0)"/>
</svg>