<?xml version="1.0" encoding="UTF-8"?>
<svg height="200.0" version="1.1" width="88.0" xmlns="http://www.w3.org/2000/svg" xmlns:xlink="http://www.w3.org/1999/xlink">
 <path d="M0,0 l88,0 l0,200 l-88,0 Z M0,0" fill="rgb(255,255,255)" transform="matrix(1,0,0,-1,0.0,200.0)"/>
 <path d="M0,0 l88,0" fill="none" stroke="rgb(229,229,229)" stroke-width="2" transform="matrix(1,0,0,-1,0.0,135.0)"/>
 <path d="M0,1 l0,-5" fill="none" stroke="rgb(204,204,204)" stroke-width="2" transform="matrix(1,0,0,-1,9.0,135.0)"/>
 <path d="M0,1 l0,-5" fill="none" stroke="rgb(204,204,204)" stroke-width="2" transform="matrix(1,0,0,-1,80.0,135.0)"/>
 <path d="M577,418 l0,155 l160,0 l0,77 l-761,0 l0,-77 l505,0 l0,-89 l-110,-28 c-110,-27,-163,-84,-163,-177 c0,-81,47,-152,120,-189 l-107,-56 l-41,77 c-26,49,-60,64,-99,64 c-39,0,-82,-19,-116,-53 l41,-66 c22,24,45,34,60,34 c17,0,27,-6,38,-25 l38,-73 l-31,-62 c18,-35,55,-68,102,-74 l77,39 l-35,67 l194,101 c29,0,62,5,88,16 l70,-131 l110,27 l-116,144 c20,18,37,46,37,86 c0,48,-31,76,-59,89 l-65,-24 l0,-100 c-17,-15,-47,-24,-82,-24 c-73,0,-130,51,-130,119 c0,57,31,92,125,116 Z M577,418" fill="rgb(0,0,0)" transform="matrix(0.1,0.0,0.0,-0.1,9.0,135.0)"/>
</svg>