<?xml version="1.0" encoding="UTF-8"?>
<svg height="200.0" version="1.1" width="116.0" xmlns="http://www.w3.org/2000/svg" xmlns:xlink="http://www.w3.org/1999/xlink">
 <path d="M0,0 l116,0 l0,200 l-116,0 Z M0,0" fill="rgb(255,255,255)" transform="matrix(1,0,0,-1,0.0,200.0)"/>
 <path d="M0,0 l116,0" fill="none" stroke="rgb(229,229,229)" stroke-width="2" transform="matrix(1,0,0,-1,0.0,135.0)"/>
 <path d="M0,1 l0,-5" fill="none" stroke="rgb(204,204,204)" stroke-width="2" transform="matrix(1,0,0,-1,9.0,135.0)"/>
 <path d="M0,1 l0,-5" fill="none" stroke="rgb(204,204,204)" stroke-width="2" transform="matrix(1,0,0,-1,110.0,135.0)"/>
 <path d="M-24,650 l0,-77 l505,0 l0,-63 l-109,-28 c-110,-28,-164,-81,-164,-173 c0,-84,49,-158,131,-190 l-118,-62 l-41,77 c-26,49,-60,64,-99,64 c-39,0,-82,-18,-116,-52 l41,-66 c22,23,45,34,60,34 c17,0,27,-7,38,-26 l38,-73 l-31,-62 c18,-35,55,-67,102,-74 l77,39 l-35,68 l214,112 c20,1,39,5,56,11 c27,-55,79,-106,167,-106 c67,0,101,27,123,52 l4,0 l0,-114 l95,0 l0,632 l115,0 l0,77 Z M701,82 c-57,0,-91,48,-100,74 c20,19,37,46,37,86 c0,48,-31,77,-59,90 l-65,-24 l0,-100 c-17,-15,-46,-24,-81,-24 c-74,0,-131,43,-131,111 c0,57,27,87,121,111 l154,38 l0,129 l242,0 l0,-358 c0,-75,-33,-133,-118,-133 Z M701,82" fill="rgb(0,0,0)" transform="matrix(0.1,0.0,0.0,-0.1,9.0,135.0)"/>
</svg>