<?xml version="1.0" encoding="UTF-8"?>
<svg height="200.0" version="1.1" width="100.0" xmlns="http://www.w3.org/2000/svg" xmlns:xlink="http://www.w3.org/1999/xlink">
 <path d="M0,0 l100,0 l0,200 l-100,0 Z M0,0" fill="rgb(255,255,255)" transform="matrix(1,0,0,-1,0.0,200.0)"/>
 <path d="M0,0 l100,0" fill="none" stroke="rgb(229,229,229)" stroke-width="2" transform="matrix(1,0,0,-1,0.0,135.0)"/>
 <path d="M0,1 l0,-5" fill="none" stroke="rgb(204,204,204)" stroke-width="2" transform="matrix(1,0,0,-1,7.0,135.0)"/>
 <path d="M0,1 l0,-5" fill="none" stroke="rgb(204,204,204)" stroke-width="2" transform="matrix(1,0,0,-1,91.0,135.0)"/>
 <path d="M751,573 l115,0 l0,77 l-890,0 l0,-77 l343,0 l0,-61 l-105,-28 c-112,-30,-168,-79,-168,-172 c0,-107,78,-186,180,-193 l0,-4 l-172,-98 l80,-67 l228,160 c27,-55,80,-107,167,-107 c68,0,101,27,124,52 l4,0 l0,-114 l94,0 Z M438,160 c19,20,37,43,37,86 c0,48,-31,76,-59,89 l-65,-24 l0,-99 c-19,-16,-45,-25,-82,-25 c-75,0,-129,44,-129,109 c0,60,33,88,127,112 l147,38 l0,127 l243,0 l0,-358 c0,-75,-34,-133,-118,-133 c-60,0,-95,53,-101,78 Z M438,160" fill="rgb(0,0,0)" transform="matrix(0.1,0.0,0.0,-0.1,7.0,135.0)"/>
</svg>