<?xml version="1.0" encoding="UTF-8"?>
<svg height="200.0" version="1.1" width="98.0" xmlns="http://www.w3.org/2000/svg" xmlns:xlink="http://www.w3.org/1999/xlink">
 <path d="M0,0 l98,0 l0,200 l-98,0 Z M0,0" fill="rgb(255,255,255)" transform="matrix(1,0,0,-1,0.0,200.0)"/>
 <path d="M0,0 l98,0" fill="none" stroke="rgb(229,229,229)" stroke-width="2" transform="matrix(1,0,0,-1,0.0,135.0)"/>
 <path d="M0,1 l0,-5" fill="none" stroke="rgb(204,204,204)" stroke-width="2" transform="matrix(1,0,0,-1,7.0,135.0)"/>
 <path d="M0,1 l0,-5" fill="none" stroke="rgb(204,204,204)" stroke-width="2" transform="matrix(1,0,0,-1,92.0,135.0)"/>
 <path d="M427,39 c26,-21,61,-36,104,-36 c68,0,102,27,124,52 l4,0 l0,-114 l95,0 l0,632 l108,0 l0,77 l-886,0 l0,-77 l345,0 l0,-61 l-110,-29 c-112,-27,-161,-78,-161,-171 c0,-75,33,-138,94,-165 l0,-4 c-34,-17,-68,-53,-68,-110 c0,-81,65,-141,160,-141 c101,0,174,70,191,147 Z M168,34 c0,48,37,81,120,81 c16,0,55,-1,78,-3 c-5,-85,-48,-144,-124,-144 c-52,0,-74,32,-74,66 Z M441,157 c20,21,37,47,37,86 c0,49,-31,75,-58,89 l-67,-24 l0,-102 c-17,-13,-47,-22,-84,-22 c-73,0,-127,48,-127,112 c0,60,32,89,126,113 l149,37 l0,127 l242,0 l0,-358 c0,-75,-34,-133,-118,-133 c-58,0,-93,47,-100,75 Z M441,157" fill="rgb(0,0,0)" transform="matrix(0.1,0.0,0.0,-0.1,7.0,135.0)"/>
</svg>