<?xml version="1.0" encoding="UTF-8"?>
<svg height="200.0" version="1.1" width="106.0" xmlns="http://www.w3.org/2000/svg" xmlns:xlink="http://www.w3.org/1999/xlink">
 <path d="M0,0 l106,0 l0,200 l-106,0 Z M0,0" fill="rgb(255,255,255)" transform="matrix(1,0,0,-1,0.0,200.0)"/>
 <path d="M0,0 l106,0" fill="none" stroke="rgb(229,229,229)" stroke-width="2" transform="matrix(1,0,0,-1,0.0,135.0)"/>
 <path d="M0,1 l0,-5" fill="none" stroke="rgb(204,204,204)" stroke-width="2" transform="matrix(1,0,0,-1,7.0,135.0)"/>
 <path d="M0,1 l0,-5" fill="none" stroke="rgb(204,204,204)" stroke-width="2" transform="matrix(1,0,0,-1,97.0,135.0)"/>
 <path d="M372,650 l0,-77 l344,0 l0,-175 l-249,0 l-68,-52 c1,-36,11,-72,28,-99 c-36,-32,-85,-54,-149,-54 c-80,0,-107,41,-107,80 c0,45,31,75,99,75 l62,0 l0,78 l-68,0 c-68,0,-99,30,-99,71 c0,39,29,66,68,79 l-16,74 l-241,0 l0,-77 l134,0 l0,-4 c-20,-11,-43,-37,-43,-77 c0,-63,44,-97,97,-103 l0,-4 c-43,-11,-91,-48,-91,-118 c0,-82,67,-154,192,-154 c111,0,194,41,265,115 l1,86 l185,0 l0,-314 l95,0 l0,573 l116,0 l0,77 Z M372,650" fill="rgb(0,0,0)" transform="matrix(0.1,0.0,0.0,-0.1,7.0,135.0)"/>
</svg>