<?xml version="1.0" encoding="UTF-8"?>
<svg height="200.0" version="1.1" width="112.0" xmlns="http://www.w3.org/2000/svg" xmlns:xlink="http://www.w3.org/1999/xlink">
 <path d="M0,0 l112,0 l0,200 l-112,0 Z M0,0" fill="rgb(255,255,255)" transform="matrix(1,0,0,-1,0.0,200.0)"/>
 <path d="M0,0 l112,0" fill="none" stroke="rgb(229,229,229)" stroke-width="2" transform="matrix(1,0,0,-1,0.0,135.0)"/>
 <path d="M0,1 l0,-5" fill="none" stroke="rgb(204,204,204)" stroke-width="2" transform="matrix(1,0,0,-1,7.0,135.0)"/>
 <path d="M0,1 l0,-5" fill="none" stroke="rgb(204,204,204)" stroke-width="2" transform="matrix(1,0,0,-1,104.0,135.0)"/>
 <path d="M874,0 l0,573 l116,0 l0,77 l-618,0 l0,-77 l124,0 l0,-227 l-51,-39 c0,-11,2,-24,5,-37 c-36,-43,-93,-77,-172,-77 c-80,0,-107,41,-107,80 c0,45,31,75,99,75 l62,0 l0,78 l-68,0 c-68,0,-99,30,-99,71 c0,39,29,66,68,79 l-16,74 l-241,0 l0,-77 l134,0 l0,-4 c-20,-11,-43,-37,-43,-77 c0,-63,44,-97,97,-103 l0,-4 c-43,-11,-91,-48,-91,-118 c0,-82,67,-154,192,-154 c102,0,174,35,220,78 c8,-10,17,-20,27,-28 l75,0 l0,102 l194,0 l0,-265 Z M781,573 l0,-224 l-192,0 l0,224 Z M781,573" fill="rgb(0,0,0)" transform="matrix(0.1,0.0,0.0,-0.1,7.0,135.0)"/>
</svg>