<?xml version="1.0" encoding="UTF-8"?>
<svg height="200.0" version="1.1" width="170.0" xmlns="http://www.w3.org/2000/svg" xmlns:xlink="http://www.w3.org/1999/xlink">
 <path d="M0,0 l170,0 l0,200 l-170,0 Z M0,0" fill="rgb(255,255,255)" transform="matrix(1,0,0,-1,0.0,200.0)"/>
 <path d="M0,0 l170,0" fill="none" stroke="rgb(229,229,229)" stroke-width="2" transform="matrix(1,0,0,-1,0.0,135.0)"/>
 <path d="M0,1 l0,-5" fill="none" stroke="rgb(204,204,204)" stroke-width="2" transform="matrix(1,0,0,-1,7.0,135.0)"/>
 <path d="M0,1 l0,-5" fill="none" stroke="rgb(204,204,204)" stroke-width="2" transform="matrix(1,0,0,-1,162.0,135.0)"/>
 <path d="M1268,346 c-33,0,-66,4,-93,12 c3,12,5,25,5,40 l0,175 l180,0 l0,-213 c-26,-9,-58,-14,-92,-14 Z M1030,270 c8,-2,20,-2,27,-2 c28,1,54,9,76,25 c35,-18,88,-30,143,-30 c34,0,61,3,84,8 l0,-271 l95,0 l0,573 l116,0 l0,77 l-1591,0 l0,-77 l641,0 l0,-257 c0,-67,-43,-115,-108,-115 c-58,0,-98,40,-98,95 c0,77,66,109,135,96 l-14,84 c-74,9,-145,-17,-185,-73 l-257,0 l-67,-51 c0,-71,35,-125,79,-150 l52,21 l0,97 l162,0 c-1,-8,-1,-16,-1,-24 c0,-106,80,-177,175,-177 c65,0,105,29,123,52 l4,0 l0,-171 l94,0 l0,259 c0,72,36,117,86,117 c29,0,48,-19,78,-56 l255,-328 l77,50 l-109,139 c-31,40,-51,62,-73,85 Z M1027,342 c-39,0,-62,19,-82,42 l-3,3 c-1,1,-1,2,-2,3 c-42,49,-74,67,-123,67 c-46,0,-80,-24,-98,-48 l-4,0 l0,164 l370,0 l0,-170 c0,-43,-21,-61,-58,-61 Z M1027,342" fill="rgb(0,0,0)" transform="matrix(0.1,0.0,0.0,-0.1,7.0,135.0)"/>
</svg>