<?xml version="1.0" encoding="UTF-8"?>
<svg height="200.0" version="1.1" width="102.0" xmlns="http://www.w3.org/2000/svg" xmlns:xlink="http://www.w3.org/1999/xlink">
 <path d="M0,0 l102,0 l0,200 l-102,0 Z M0,0" fill="rgb(255,255,255)" transform="matrix(1,0,0,-1,0.0,200.0)"/>
 <path d="M0,0 l102,0" fill="none" stroke="rgb(229,229,229)" stroke-width="2" transform="matrix(1,0,0,-1,0.0,135.0)"/>
 <path d="M0,1 l0,-5" fill="none" stroke="rgb(204,204,204)" stroke-width="2" transform="matrix(1,0,0,-1,7.0,135.0)"/>
 <path d="M0,1 l0,-5" fill="none" stroke="rgb(204,204,204)" stroke-width="2" transform="matrix(1,0,0,-1,94.0,135.0)"/>
 <path d="M682,174 l4,0 l0,-174 l94,0 l0,573 l116,0 l0,77 l-920,0 l0,-77 l710,0 l0,-212 c0,-112,-66,-179,-159,-179 c-71,0,-113,41,-113,96 c0,59,41,99,115,99 l73,0 l0,82 l-512,0 l-68,-51 c0,-71,35,-125,79,-150 l52,21 l0,97 l213,0 l0,-4 c-20,-15,-50,-46,-50,-107 c0,-88,71,-166,192,-166 c99,0,152,46,174,75 Z M682,174" fill="rgb(0,0,0)" transform="matrix(0.1,0.0,0.0,-0.1,7.0,135.0)"/>
</svg>