<?xml version="1.0" encoding="UTF-8"?>
<svg height="200.0" version="1.1" width="112.0" xmlns="http://www.w3.org/2000/svg" xmlns:xlink="http://www.w3.org/1999/xlink">
 <path d="M0,0 l112,0 l0,200 l-112,0 Z M0,0" fill="rgb(255,255,255)" transform="matrix(1,0,0,-1,0.0,200.0)"/>
 <path d="M0,0 l112,0" fill="none" stroke="rgb(229,229,229)" stroke-width="2" transform="matrix(1,0,0,-1,0.0,135.0)"/>
 <path d="M0,1 l0,-5" fill="none" stroke="rgb(204,204,204)" stroke-width="2" transform="matrix(1,0,0,-1,7.0,135.0)"/>
 <path d="M0,1 l0,-5" fill="none" stroke="rgb(204,204,204)" stroke-width="2" transform="matrix(1,0,0,-1,103.0,135.0)"/>
 <path d="M591,34 c196,0,323,150,323,292 c0,73,-35,128,-91,150 l0,97 l164,0 l0,77 l-1011,0 l0,-77 l417,0 l0,-4 c-17,-14,-46,-42,-46,-98 c0,-27,8,-52,22,-72 l-279,0 l-68,-52 c0,-71,35,-125,79,-150 l52,21 l0,97 l247,0 c-22,-22,-38,-54,-38,-99 c0,-96,83,-182,229,-182 Z M768,298 c-37,7,-59,29,-59,61 c0,31,24,51,53,51 c36,0,65,-28,65,-83 c0,-116,-105,-211,-230,-211 c-90,0,-137,47,-137,104 c0,51,34,85,98,88 l21,0 l0,81 l-35,0 c-63,0,-98,36,-98,88 c0,57,41,96,106,96 l182,0 l0,-87 c-69,-11,-114,-64,-114,-126 c0,-63,41,-106,91,-119 Z M768,298" fill="rgb(0,0,0)" transform="matrix(0.1,0.0,0.0,-0.1,7.0,135.0)"/>
</svg>