<?xml version="1.0" encoding="UTF-8"?>
<svg height="200.0" version="1.1" width="136.0" xmlns="http://www.w3.org/2000/svg" xmlns:xlink="http://www.w3.org/1999/xlink">
 <path d="M0,0 l136,0 l0,200 l-136,0 Z M0,0" fill="rgb(255,255,255)" transform="matrix(1,0,0,-1,0.0,200.0)"/>
 <path d="M0,0 l136,0" fill="none" stroke="rgb(229,229,229)" stroke-width="2" transform="matrix(1,0,0,-1,0.0,135.0)"/>
 <path d="M0,1 l0,-5" fill="none" stroke="rgb(204,204,204)" stroke-width="2" transform="matrix(1,0,0,-1,7.0,135.0)"/>
 <path d="M0,1 l0,-5" fill="none" stroke="rgb(204,204,204)" stroke-width="2" transform="matrix(1,0,0,-1,128.0,135.0)"/>
 <path d="M1018,194 l4,0 l0,-194 l95,0 l0,573 l116,0 l0,77 l-1257,0 l0,-77 l761,0 c24,-23,39,-60,39,-91 c0,-39,-20,-65,-56,-84 c-36,34,-95,50,-155,50 l-53,0 c-47,0,-92,-15,-126,-45 l-296,0 l-68,-51 c0,-71,35,-125,79,-150 l52,21 l0,97 l182,0 c-5,-18,-8,-38,-8,-60 c0,-122,68,-215,140,-269 l73,58 c-66,47,-116,116,-116,209 c0,71,45,107,106,107 l27,0 c37,0,61,-5,80,-16 c21,-138,112,-219,230,-219 c83,0,131,40,151,64 Z M741,331 c73,17,131,67,131,137 c0,41,-15,75,-41,101 l0,4 l192,0 l0,-210 c0,-94,-57,-150,-142,-150 c-90,0,-132,63,-140,118 Z M741,331" fill="rgb(0,0,0)" transform="matrix(0.1,0.0,0.0,-0.1,7.0,135.0)"/>
</svg>