<?xml version="1.0" encoding="UTF-8"?>
<svg height="200.0" version="1.1" width="98.0" xmlns="http://www.w3.org/2000/svg" xmlns:xlink="http://www.w3.org/1999/xlink">
 <path d="M0,0 l98,0 l0,200 l-98,0 Z M0,0" fill="rgb(255,255,255)" transform="matrix(1,0,0,-1,0.0,200.0)"/>
 <path d="M0,0 l98,0" fill="none" stroke="rgb(229,229,229)" stroke-width="2" transform="matrix(1,0,0,-1,0.0,135.0)"/>
 <path d="M0,1 l0,-5" fill="none" stroke="rgb(204,204,204)" stroke-width="2" transform="matrix(1,0,0,-1,7.0,135.0)"/>
 <path d="M0,1 l0,-5" fill="none" stroke="rgb(204,204,204)" stroke-width="2" transform="matrix(1,0,0,-1,90.0,135.0)"/>
 <path d="M90,403 l-68,-51 c0,-71,35,-125,79,-150 l52,21 l0,97 l189,0 c24,42,71,70,122,70 c66,0,105,-43,124,-95 l-269,-169 l70,-71 l248,171 l4,0 l0,-226 l95,0 l0,573 l116,0 l0,77 l-876,0 l0,-77 l665,0 l0,-209 l-4,0 c-22,53,-74,118,-182,118 c-66,0,-126,-32,-164,-79 Z M90,403" fill="rgb(0,0,0)" transform="matrix(0.1,0.0,0.0,-0.1,7.0,135.0)"/>
</svg>