<?xml version="1.0" encoding="UTF-8"?>
<svg height="200.0" version="1.1" width="144.0" xmlns="http://www.w3.org/2000/svg" xmlns:xlink="http://www.w3.org/1999/xlink">
 <path d="M0,0 l144,0 l0,200 l-144,0 Z M0,0" fill="rgb(255,255,255)" transform="matrix(1,0,0,-1,0.0,200.0)"/>
 <path d="M0,0 l144,0" fill="none" stroke="rgb(229,229,229)" stroke-width="2" transform="matrix(1,0,0,-1,0.0,135.0)"/>
 <path d="M0,1 l0,-5" fill="none" stroke="rgb(204,204,204)" stroke-width="2" transform="matrix(1,0,0,-1,7.0,135.0)"/>
 <path d="M0,1 l0,-5" fill="none" stroke="rgb(204,204,204)" stroke-width="2" transform="matrix(1,0,0,-1,136.0,135.0)"/>
 <path d="M772,270 c8,-2,20,-2,27,-2 c28,1,54,9,75,24 c36,-19,89,-31,144,-31 c32,0,60,3,84,9 l0,-270 l95,0 l0,573 l116,0 l0,77 l-1337,0 l0,-77 l852,0 l0,-170 c0,-43,-22,-61,-59,-61 c-38,0,-61,18,-81,41 l0,1 l-45,55 l-131,0 c-43,0,-83,-12,-116,-36 l-306,0 l-68,-51 c0,-71,35,-125,79,-150 l52,21 l0,97 l184,0 c-6,-20,-10,-42,-10,-67 c0,-121,69,-212,140,-264 l73,57 c-66,47,-116,112,-116,204 c0,71,45,106,106,106 l64,0 l41,-54 l0,1 l241,-311 l77,50 l-109,139 c-31,40,-51,62,-73,85 Z M1010,346 c-33,0,-66,4,-93,12 c3,12,5,25,5,40 l0,175 l180,0 l0,-213 c-26,-10,-58,-14,-92,-14 Z M1010,346" fill="rgb(0,0,0)" transform="matrix(0.1,0.0,0.0,-0.1,7.0,135.0)"/>
</svg>