<?xml version="1.0" encoding="UTF-8"?>
<svg height="200.0" version="1.1" width="110.0" xmlns="http://www.w3.org/2000/svg" xmlns:xlink="http://www.w3.org/1999/xlink">
 <path d="M0,0 l110,0 l0,200 l-110,0 Z M0,0" fill="rgb(255,255,255)" transform="matrix(1,0,0,-1,0.0,200.0)"/>
 <path d="M0,0 l110,0" fill="none" stroke="rgb(229,229,229)" stroke-width="2" transform="matrix(1,0,0,-1,0.0,135.0)"/>
 <path d="M0,1 l0,-5" fill="none" stroke="rgb(204,204,204)" stroke-width="2" transform="matrix(1,0,0,-1,7.0,135.0)"/>
 <path d="M0,1 l0,-5" fill="none" stroke="rgb(204,204,204)" stroke-width="2" transform="matrix(1,0,0,-1,103.0,135.0)"/>
 <path d="M297,650 l-321,0 l0,-77 l321,0 Z M438,305 c20,5,39,9,59,15 c122,33,190,94,190,192 c0,86,-58,148,-154,148 c-91,0,-153,-61,-153,-136 c0,-39,15,-69,32,-87 l84,25 c-15,15,-24,38,-24,57 c0,38,26,60,61,60 c39,0,62,-25,62,-65 c0,-53,-28,-94,-158,-130 l-32,-9 c-39,15,-86,23,-135,23 l-180,0 l-68,-51 c0,-71,35,-125,79,-150 l52,21 l0,97 l126,0 c17,0,35,-2,53,-6 c23,-126,114,-213,250,-213 c104,0,164,51,188,85 l4,0 l0,-181 l92,0 l0,573 l117,0 l0,77 l-210,0 l0,-282 c0,-98,-59,-187,-183,-187 c-109,0,-147,85,-152,124 Z M438,305" fill="rgb(0,0,0)" transform="matrix(0.1,0.0,0.0,-0.1,7.0,135.0)"/>
</svg>