<?xml version="1.0" encoding="UTF-8"?>
<svg height="200.0" version="1.1" width="148.0" xmlns="http://www.w3.org/2000/svg" xmlns:xlink="http://www.w3.org/1999/xlink">
 <path d="M0,0 l148,0 l0,200 l-148,0 Z M0,0" fill="rgb(255,255,255)" transform="matrix(1,0,0,-1,0.0,200.0)"/>
 <path d="M0,0 l148,0" fill="none" stroke="rgb(229,229,229)" stroke-width="2" transform="matrix(1,0,0,-1,0.0,135.0)"/>
 <path d="M0,1 l0,-5" fill="none" stroke="rgb(204,204,204)" stroke-width="2" transform="matrix(1,0,0,-1,7.0,135.0)"/>
 <path d="M0,1 l0,-5" fill="none" stroke="rgb(204,204,204)" stroke-width="2" transform="matrix(1,0,0,-1,139.0,135.0)"/>
 <path d="M293,650 l-317,0 l0,-77 l317,0 Z M573,97 c126,0,199,52,242,107 c42,-48,100,-74,167,-74 c83,0,131,40,151,64 l4,0 l0,-194 l94,0 l0,573 l117,0 l0,77 l-617,0 l0,-77 l121,0 c24,-23,39,-60,39,-91 c0,-63,-53,-94,-141,-112 c3,-32,9,-61,19,-86 c-29,-49,-86,-103,-187,-103 c-111,0,-159,83,-164,124 c21,5,41,9,61,15 c121,34,189,97,189,192 c0,86,-60,148,-155,148 c-92,0,-153,-61,-153,-136 c0,-39,15,-69,32,-87 l85,25 c-16,15,-25,38,-25,57 c0,38,26,60,61,60 c38,0,62,-25,62,-65 c0,-52,-28,-93,-158,-130 l-53,-15 c-37,13,-81,19,-122,19 l-154,0 l-68,-51 c1,-71,35,-125,80,-150 l52,21 l0,97 l97,0 c23,0,46,-3,66,-8 c28,-118,125,-200,258,-200 Z M856,331 c73,17,131,67,131,137 c0,41,-15,75,-41,101 l0,4 l192,0 l0,-210 c0,-94,-57,-150,-143,-150 c-89,0,-131,63,-139,118 Z M856,331" fill="rgb(0,0,0)" transform="matrix(0.1,0.0,0.0,-0.1,7.0,135.0)"/>
</svg>