<?xml version="1.0" encoding="UTF-8"?>
<svg height="200.0" version="1.1" width="142.0" xmlns="http://www.w3.org/2000/svg" xmlns:xlink="http://www.w3.org/1999/xlink">
 <path d="M0,0 l142,0 l0,200 l-142,0 Z M0,0" fill="rgb(255,255,255)" transform="matrix(1,0,0,-1,0.0,200.0)"/>
 <path d="M0,0 l142,0" fill="none" stroke="rgb(229,229,229)" stroke-width="2" transform="matrix(1,0,0,-1,0.0,135.0)"/>
 <path d="M0,1 l0,-5" fill="none" stroke="rgb(204,204,204)" stroke-width="2" transform="matrix(1,0,0,-1,7.0,135.0)"/>
 <path d="M0,1 l0,-5" fill="none" stroke="rgb(204,204,204)" stroke-width="2" transform="matrix(1,0,0,-1,135.0,135.0)"/>
 <path d="M1187,573 l117,0 l0,77 l-566,0 l0,-77 l355,0 l0,-245 c0,-76,-46,-137,-123,-137 c-65,0,-108,44,-108,105 c0,84,78,119,153,99 l-8,85 c-118,21,-243,-42,-243,-185 c0,-7,0,-14,1,-20 c-31,-46,-87,-94,-183,-94 c-111,0,-159,83,-164,124 c21,5,41,9,61,15 c121,34,189,97,189,192 c0,86,-60,148,-155,148 c-92,0,-153,-61,-153,-136 c0,-39,15,-69,32,-87 l85,25 c-16,15,-25,38,-25,57 c0,38,26,60,61,60 c38,0,62,-25,62,-65 c0,-52,-28,-93,-158,-130 l-53,-15 c-37,13,-81,19,-122,19 l-154,0 l-68,-51 c1,-71,35,-125,80,-150 l52,21 l0,97 l97,0 c23,0,46,-3,66,-8 c28,-118,125,-200,258,-200 c111,0,181,42,224,90 c34,-50,92,-79,156,-79 c71,0,115,31,136,55 l4,0 l0,-163 l94,0 Z M289,650 l-313,0 l0,-77 l313,0 Z M289,650" fill="rgb(0,0,0)" transform="matrix(0.1,0.0,0.0,-0.1,7.0,135.0)"/>
</svg>