<?xml version="1.0" encoding="UTF-8"?>
<svg height="200.0" version="1.1" width="98.0" xmlns="http://www.w3.org/2000/svg" xmlns:xlink="http://www.w3.org/1999/xlink">
 <path d="M0,0 l98,0 l0,200 l-98,0 Z M0,0" fill="rgb(255,255,255)" transform="matrix(1,0,0,-1,0.0,200.0)"/>
 <path d="M0,0 l98,0" fill="none" stroke="rgb(229,229,229)" stroke-width="2" transform="matrix(1,0,0,-1,0.0,135.0)"/>
 <path d="M0,1 l0,-5" fill="none" stroke="rgb(204,204,204)" stroke-width="2" transform="matrix(1,0,0,-1,7.0,135.0)"/>
 <path d="M0,1 l0,-5" fill="none" stroke="rgb(204,204,204)" stroke-width="2" transform="matrix(1,0,0,-1,91.0,135.0)"/>
 <path d="M643,108 c-5,-85,-48,-145,-124,-145 c-52,0,-74,32,-74,67 c0,48,37,80,120,80 c16,0,55,0,78,-2 Z M705,32 l46,-78 l104,32 l-135,168 c20,21,37,47,37,86 c0,49,-33,76,-59,89 l-66,-24 l0,-101 c-17,-13,-47,-22,-84,-22 c-73,0,-126,45,-126,109 c0,61,31,90,125,114 l149,37 l0,131 l158,0 l0,77 l-878,0 l0,-77 l624,0 l0,-65 l-111,-28 c-65,-16,-109,-41,-135,-77 l-264,0 l-68,-51 c0,-71,35,-125,79,-150 l52,21 l0,97 l175,0 c0,-4,0,-8,0,-13 c0,-74,33,-137,93,-164 l0,-4 c-34,-18,-67,-53,-67,-110 c0,-81,64,-141,159,-141 c109,0,170,75,188,144 Z M705,32" fill="rgb(0,0,0)" transform="matrix(0.1,0.0,0.0,-0.1,7.0,135.0)"/>
</svg>