<?xml version="1.0" encoding="UTF-8"?>
<svg height="200.0" version="1.1" width="106.0" xmlns="http://www.w3.org/2000/svg" xmlns:xlink="http://www.w3.org/1999/xlink">
 <path d="M0,0 l106,0 l0,200 l-106,0 Z M0,0" fill="rgb(255,255,255)" transform="matrix(1,0,0,-1,0.0,200.0)"/>
 <path d="M0,0 l106,0" fill="none" stroke="rgb(229,229,229)" stroke-width="2" transform="matrix(1,0,0,-1,0.0,135.0)"/>
 <path d="M0,1 l0,-5" fill="none" stroke="rgb(204,204,204)" stroke-width="2" transform="matrix(1,0,0,-1,7.0,135.0)"/>
 <path d="M0,1 l0,-5" fill="none" stroke="rgb(204,204,204)" stroke-width="2" transform="matrix(1,0,0,-1,99.0,135.0)"/>
 <path d="M825,0 l0,573 l116,0 l0,77 l-290,0 l0,-77 l81,0 l0,-217 c0,-85,-63,-163,-175,-163 c-80,0,-107,41,-107,80 c0,45,31,75,99,75 l62,0 l0,78 l-68,0 c-68,0,-99,30,-99,71 c0,39,29,66,68,79 l-16,74 l-520,0 l0,-77 l413,0 l0,-4 c-20,-11,-43,-37,-43,-77 c0,-43,21,-73,51,-89 l-307,0 l-68,-51 c0,-71,35,-125,79,-150 l52,21 l0,97 l210,0 c-7,-15,-11,-33,-11,-53 c0,-82,67,-154,192,-154 c99,0,159,45,183,74 l4,0 l0,-187 Z M825,0" fill="rgb(0,0,0)" transform="matrix(0.1,0.0,0.0,-0.1,7.0,135.0)"/>
</svg>