<?xml version="1.0" encoding="UTF-8"?>
<svg height="200.0" version="1.1" width="142.0" xmlns="http://www.w3.org/2000/svg" xmlns:xlink="http://www.w3.org/1999/xlink">
 <path d="M0,0 l142,0 l0,200 l-142,0 Z M0,0" fill="rgb(255,255,255)" transform="matrix(1,0,0,-1,0.0,200.0)"/>
 <path d="M0,0 l142,0" fill="none" stroke="rgb(229,229,229)" stroke-width="2" transform="matrix(1,0,0,-1,0.0,135.0)"/>
 <path d="M0,1 l0,-5" fill="none" stroke="rgb(204,204,204)" stroke-width="2" transform="matrix(1,0,0,-1,7.0,135.0)"/>
 <path d="M0,1 l0,-5" fill="none" stroke="rgb(204,204,204)" stroke-width="2" transform="matrix(1,0,0,-1,135.0,135.0)"/>
 <path d="M1093,194 l0,-194 l95,0 l0,573 l116,0 l0,77 l-653,0 l0,-77 l157,0 c25,-23,40,-60,40,-91 c0,-63,-54,-94,-141,-112 c3,-36,11,-69,23,-98 c-37,-44,-94,-79,-173,-79 c-80,0,-108,41,-108,80 c0,45,32,75,99,75 l62,0 l0,78 l-68,0 c-67,0,-98,30,-98,71 c0,39,28,66,67,79 l-15,74 l-520,0 l0,-77 l412,0 l0,-4 c-20,-11,-43,-37,-43,-77 c0,-52,30,-84,70,-97 l-325,0 l-68,-52 c0,-71,35,-125,79,-150 l52,21 l0,97 l205,0 c-4,-13,-7,-28,-7,-44 c0,-82,68,-154,193,-154 c109,0,184,41,230,89 c41,-47,99,-72,164,-72 c84,0,131,40,151,64 Z M812,331 c74,17,131,67,131,137 c0,41,-14,75,-41,101 l0,4 l192,0 l0,-210 c0,-94,-57,-150,-142,-150 c-90,0,-132,63,-140,118 Z M812,331" fill="rgb(0,0,0)" transform="matrix(0.1,0.0,0.0,-0.1,7.0,135.0)"/>
</svg>