<?xml version="1.0" encoding="UTF-8"?>
<svg height="200.0" version="1.1" width="108.0" xmlns="http://www.w3.org/2000/svg" xmlns:xlink="http://www.w3.org/1999/xlink">
 <path d="M0,0 l108,0 l0,200 l-108,0 Z M0,0" fill="rgb(255,255,255)" transform="matrix(1,0,0,-1,0.0,200.0)"/>
 <path d="M0,0 l108,0" fill="none" stroke="rgb(229,229,229)" stroke-width="2" transform="matrix(1,0,0,-1,0.0,135.0)"/>
 <path d="M0,1 l0,-5" fill="none" stroke="rgb(204,204,204)" stroke-width="2" transform="matrix(1,0,0,-1,7.0,135.0)"/>
 <path d="M0,1 l0,-5" fill="none" stroke="rgb(204,204,204)" stroke-width="2" transform="matrix(1,0,0,-1,99.0,135.0)"/>
 <path d="M512,131 l0,-4 l-150,-80 l80,-69 l291,196 l4,0 l0,-174 l94,0 l0,573 l116,0 l0,77 l-290,0 l0,-77 l80,0 l0,-298 c-20,-28,-81,-83,-170,-83 c-81,0,-111,38,-111,81 c0,45,31,75,98,75 l62,0 l0,78 l-67,0 c-68,0,-99,30,-99,71 c0,39,28,66,67,79 l-15,74 l-526,0 l0,-77 l418,0 l0,-4 c-20,-11,-43,-37,-43,-77 c0,-52,30,-84,70,-97 l-331,0 l-68,-51 c0,-71,35,-125,79,-150 l52,21 l0,97 l212,0 c-5,-13,-8,-28,-8,-45 c0,-88,72,-137,155,-136 Z M512,131" fill="rgb(0,0,0)" transform="matrix(0.1,0.0,0.0,-0.1,7.0,135.0)"/>
</svg>