<?xml version="1.0" encoding="UTF-8"?>
<svg height="200.0" version="1.1" width="136.0" xmlns="http://www.w3.org/2000/svg" xmlns:xlink="http://www.w3.org/1999/xlink">
 <path d="M0,0 l136,0 l0,200 l-136,0 Z M0,0" fill="rgb(255,255,255)" transform="matrix(1,0,0,-1,0.0,200.0)"/>
 <path d="M0,0 l136,0" fill="none" stroke="rgb(229,229,229)" stroke-width="2" transform="matrix(1,0,0,-1,0.0,135.0)"/>
 <path d="M0,1 l0,-5" fill="none" stroke="rgb(204,204,204)" stroke-width="2" transform="matrix(1,0,0,-1,7.0,135.0)"/>
 <path d="M0,1 l0,-5" fill="none" stroke="rgb(204,204,204)" stroke-width="2" transform="matrix(1,0,0,-1,129.0,135.0)"/>
 <path d="M1129,0 l0,573 l116,0 l0,77 l-593,0 l0,-77 l383,0 l0,-245 c0,-76,-46,-137,-124,-137 c-64,0,-107,44,-107,105 c0,84,78,119,153,99 l-8,85 c-119,21,-243,-42,-243,-185 c0,-16,2,-31,5,-45 c-37,-34,-88,-57,-153,-57 c-80,0,-107,41,-107,80 c0,45,31,75,99,75 l62,0 l0,78 l-68,0 c-68,0,-99,30,-99,71 c0,39,28,66,68,79 l-16,74 l-521,0 l0,-77 l414,0 l0,-4 c-21,-11,-43,-37,-43,-77 c0,-52,30,-84,69,-97 l-326,0 l-68,-51 c0,-71,35,-125,79,-150 l52,21 l0,97 l208,0 c-5,-13,-8,-28,-8,-45 c0,-82,67,-154,192,-154 c91,0,157,28,202,63 c35,-43,89,-68,148,-68 c71,0,115,31,136,55 l4,0 l0,-163 Z M1129,0" fill="rgb(0,0,0)" transform="matrix(0.1,0.0,0.0,-0.1,7.0,135.0)"/>
</svg>