<?xml version="1.0" encoding="UTF-8"?>
<svg height="200.0" version="1.1" width="132.0" xmlns="http://www.w3.org/2000/svg" xmlns:xlink="http://www.w3.org/1999/xlink">
 <path d="M0,0 l132,0 l0,200 l-132,0 Z M0,0" fill="rgb(255,255,255)" transform="matrix(1,0,0,-1,0.0,200.0)"/>
 <path d="M0,0 l132,0" fill="none" stroke="rgb(229,229,229)" stroke-width="2" transform="matrix(1,0,0,-1,0.0,135.0)"/>
 <path d="M0,1 l0,-5" fill="none" stroke="rgb(204,204,204)" stroke-width="2" transform="matrix(1,0,0,-1,7.0,135.0)"/>
 <path d="M0,1 l0,-5" fill="none" stroke="rgb(204,204,204)" stroke-width="2" transform="matrix(1,0,0,-1,124.0,135.0)"/>
 <path d="M985,194 l0,-194 l95,0 l0,573 l116,0 l0,77 l-1220,0 l0,-77 l724,0 c25,-23,40,-60,40,-91 c0,-35,-17,-60,-47,-79 l-603,0 l-68,-51 c0,-71,35,-125,79,-150 l52,21 l0,97 l150,0 c9,-55,40,-97,77,-118 l52,21 l0,97 l175,0 c27,-120,114,-190,223,-190 c84,0,131,40,151,64 Z M704,331 c74,17,131,67,131,137 c0,41,-14,75,-41,101 l0,4 l192,0 l0,-210 c0,-94,-57,-150,-142,-150 c-90,0,-132,63,-140,118 Z M704,331" fill="rgb(0,0,0)" transform="matrix(0.1,0.0,0.0,-0.1,7.0,135.0)"/>
</svg>