<?xml version="1.0" encoding="UTF-8"?>
<svg height="200.0" version="1.1" width="102.0" xmlns="http://www.w3.org/2000/svg" xmlns:xlink="http://www.w3.org/1999/xlink">
 <path d="M0,0 l102,0 l0,200 l-102,0 Z M0,0" fill="rgb(255,255,255)" transform="matrix(1,0,0,-1,0.0,200.0)"/>
 <path d="M0,0 l102,0" fill="none" stroke="rgb(229,229,229)" stroke-width="2" transform="matrix(1,0,0,-1,0.0,135.0)"/>
 <path d="M0,1 l0,-5" fill="none" stroke="rgb(204,204,204)" stroke-width="2" transform="matrix(1,0,0,-1,7.0,135.0)"/>
 <path d="M0,1 l0,-5" fill="none" stroke="rgb(204,204,204)" stroke-width="2" transform="matrix(1,0,0,-1,94.0,135.0)"/>
 <path d="M534,210 l-211,-170 l91,-54 l262,241 l4,0 l0,-227 l95,0 l0,573 l117,0 l0,77 l-916,0 l0,-77 l396,0 l0,-170 l-282,0 l-68,-51 c0,-71,35,-125,79,-150 l52,21 l0,97 l224,0 c17,-77,81,-108,157,-106 Z M680,333 c-22,-24,-72,-49,-121,-49 c-64,0,-93,30,-93,97 l0,192 l214,0 Z M680,333" fill="rgb(0,0,0)" transform="matrix(0.1,0.0,0.0,-0.1,7.0,135.0)"/>
</svg>