<?xml version="1.0" encoding="UTF-8"?>
<svg height="200.0" version="1.1" width="102.0" xmlns="http://www.w3.org/2000/svg" xmlns:xlink="http://www.w3.org/1999/xlink">
 <path d="M0,0 l102,0 l0,200 l-102,0 Z M0,0" fill="rgb(255,255,255)" transform="matrix(1,0,0,-1,0.0,200.0)"/>
 <path d="M0,0 l102,0" fill="none" stroke="rgb(229,229,229)" stroke-width="2" transform="matrix(1,0,0,-1,0.0,135.0)"/>
 <path d="M0,1 l0,-5" fill="none" stroke="rgb(204,204,204)" stroke-width="2" transform="matrix(1,0,0,-1,7.0,135.0)"/>
 <path d="M0,1 l0,-5" fill="none" stroke="rgb(204,204,204)" stroke-width="2" transform="matrix(1,0,0,-1,94.0,135.0)"/>
 <path d="M686,0 l93,0 l0,573 l116,0 l0,77 l-287,0 l0,-77 l78,0 l0,-224 l-202,0 l0,161 c0,94,-58,140,-149,140 l-359,0 l0,-77 l343,0 c52,0,72,-20,72,-69 l0,-101 l-301,0 l-68,-51 c0,-71,35,-125,79,-150 l52,21 l0,97 l204,0 l-17,-13 c1,-45,25,-110,67,-144 l75,0 l0,102 l204,0 Z M686,0" fill="rgb(0,0,0)" transform="matrix(0.1,0.0,0.0,-0.1,7.0,135.0)"/>
</svg>