<?xml version="1.0" encoding="UTF-8"?>
<svg height="200.0" version="1.1" width="138.0" xmlns="http://www.w3.org/2000/svg" xmlns:xlink="http://www.w3.org/1999/xlink">
 <path d="M0,0 l138,0 l0,200 l-138,0 Z M0,0" fill="rgb(255,255,255)" transform="matrix(1,0,0,-1,0.0,200.0)"/>
 <path d="M0,0 l138,0" fill="none" stroke="rgb(229,229,229)" stroke-width="2" transform="matrix(1,0,0,-1,0.0,135.0)"/>
 <path d="M0,1 l0,-5" fill="none" stroke="rgb(204,204,204)" stroke-width="2" transform="matrix(1,0,0,-1,7.0,135.0)"/>
 <path d="M0,1 l0,-5" fill="none" stroke="rgb(204,204,204)" stroke-width="2" transform="matrix(1,0,0,-1,130.0,135.0)"/>
 <path d="M1040,194 l0,-194 l94,0 l0,573 l117,0 l0,77 l-643,0 l0,-77 l147,0 c24,-23,39,-60,39,-91 c0,-63,-53,-94,-141,-112 c1,-7,2,-14,3,-21 l-172,0 l0,161 c0,94,-58,140,-149,140 l-359,0 l0,-77 l343,0 c52,0,72,-20,72,-69 l0,-101 l-301,0 l-68,-51 c0,-71,35,-125,79,-150 l52,21 l0,97 l204,0 l-17,-13 c1,-45,25,-110,67,-144 l75,0 l0,102 l197,0 c39,-86,114,-135,206,-135 c83,0,131,40,151,64 Z M759,331 c73,17,131,67,131,137 c0,41,-15,75,-41,101 l0,4 l192,0 l0,-210 c0,-94,-57,-150,-143,-150 c-89,0,-131,63,-139,118 Z M759,331" fill="rgb(0,0,0)" transform="matrix(0.1,0.0,0.0,-0.1,7.0,135.0)"/>
</svg>