<?xml version="1.0" encoding="UTF-8"?>
<svg height="200.0" version="1.1" width="132.0" xmlns="http://www.w3.org/2000/svg" xmlns:xlink="http://www.w3.org/1999/xlink">
 <path d="M0,0 l132,0 l0,200 l-132,0 Z M0,0" fill="rgb(255,255,255)" transform="matrix(1,0,0,-1,0.0,200.0)"/>
 <path d="M0,0 l132,0" fill="none" stroke="rgb(229,229,229)" stroke-width="2" transform="matrix(1,0,0,-1,0.0,135.0)"/>
 <path d="M0,1 l0,-5" fill="none" stroke="rgb(204,204,204)" stroke-width="2" transform="matrix(1,0,0,-1,7.0,135.0)"/>
 <path d="M0,1 l0,-5" fill="none" stroke="rgb(204,204,204)" stroke-width="2" transform="matrix(1,0,0,-1,125.0,135.0)"/>
 <path d="M1083,573 l116,0 l0,77 l-591,0 l0,-77 l381,0 l0,-245 c0,-76,-46,-137,-124,-137 c-64,0,-107,44,-107,105 c0,84,78,119,153,99 l-8,85 c-103,18,-209,-26,-236,-131 l-183,0 l0,161 c0,94,-58,140,-149,140 l-359,0 l0,-77 l343,0 c52,0,72,-20,72,-69 l0,-101 l-301,0 l-68,-51 c0,-71,35,-125,79,-150 l52,21 l0,97 l204,0 l-17,-13 c1,-45,25,-110,67,-144 l75,0 l0,102 l180,0 c14,-96,94,-157,187,-157 c71,0,115,31,136,55 l4,0 l0,-163 l94,0 Z M1083,573" fill="rgb(0,0,0)" transform="matrix(0.1,0.0,0.0,-0.1,7.0,135.0)"/>
</svg>