<?xml version="1.0" encoding="UTF-8"?>
<svg height="200.0" version="1.1" width="138.0" xmlns="http://www.w3.org/2000/svg" xmlns:xlink="http://www.w3.org/1999/xlink">
 <path d="M0,0 l138,0 l0,200 l-138,0 Z M0,0" fill="rgb(255,255,255)" transform="matrix(1,0,0,-1,0.0,200.0)"/>
 <path d="M0,0 l138,0" fill="none" stroke="rgb(229,229,229)" stroke-width="2" transform="matrix(1,0,0,-1,0.0,135.0)"/>
 <path d="M0,1 l0,-5" fill="none" stroke="rgb(204,204,204)" stroke-width="2" transform="matrix(1,0,0,-1,7.0,135.0)"/>
 <path d="M0,1 l0,-5" fill="none" stroke="rgb(204,204,204)" stroke-width="2" transform="matrix(1,0,0,-1,130.0,135.0)"/>
 <path d="M1040,194 l0,-194 l94,0 l0,573 l117,0 l0,77 l-1275,0 l0,-77 l416,0 l0,-170 l-302,0 l-68,-51 c0,-71,35,-125,79,-150 l52,21 l0,97 l205,0 l-17,-13 c1,-45,25,-110,67,-144 l75,0 l0,102 l196,0 c39,-86,114,-135,206,-135 c83,0,131,40,151,64 Z M755,573 c24,-23,39,-60,39,-91 c0,-63,-53,-94,-141,-112 c1,-7,1,-14,2,-21 l-170,0 l0,224 Z M759,331 c73,17,131,67,131,137 c0,41,-15,75,-42,101 l0,4 l192,0 l0,-210 c0,-94,-56,-150,-142,-150 c-89,0,-131,63,-139,118 Z M759,331" fill="rgb(0,0,0)" transform="matrix(0.1,0.0,0.0,-0.1,7.0,135.0)"/>
</svg>