<?xml version="1.0" encoding="UTF-8"?>
<svg height="200.0" version="1.1" width="98.0" xmlns="http://www.w3.org/2000/svg" xmlns:xlink="http://www.w3.org/1999/xlink">
 <path d="M0,0 l98,0 l0,200 l-98,0 Z M0,0" fill="rgb(255,255,255)" transform="matrix(1,0,0,-1,0.0,200.0)"/>
 <path d="M0,0 l98,0" fill="none" stroke="rgb(229,229,229)" stroke-width="2" transform="matrix(1,0,0,-1,0.0,135.0)"/>
 <path d="M0,1 l0,-5" fill="none" stroke="rgb(204,204,204)" stroke-width="2" transform="matrix(1,0,0,-1,7.0,135.0)"/>
 <path d="M0,1 l0,-5" fill="none" stroke="rgb(204,204,204)" stroke-width="2" transform="matrix(1,0,0,-1,90.0,135.0)"/>
 <path d="M743,573 l116,0 l0,77 l-883,0 l0,-77 l672,0 l0,-245 c0,-76,-46,-137,-123,-137 c-65,0,-107,44,-107,105 c0,84,77,119,152,99 l-7,85 c-83,15,-169,-11,-213,-77 l-260,0 l-68,-51 c0,-71,35,-125,79,-150 l52,21 l0,97 l167,0 c-1,-8,-1,-16,-1,-25 c0,-113,87,-187,189,-187 c72,0,116,31,136,55 l4,0 l0,-163 l95,0 Z M743,573" fill="rgb(0,0,0)" transform="matrix(0.1,0.0,0.0,-0.1,7.0,135.0)"/>
</svg>