<?xml version="1.0" encoding="UTF-8"?>
<svg height="200.0" version="1.1" width="122.0" xmlns="http://www.w3.org/2000/svg" xmlns:xlink="http://www.w3.org/1999/xlink">
 <path d="M0,0 l122,0 l0,200 l-122,0 Z M0,0" fill="rgb(255,255,255)" transform="matrix(1,0,0,-1,0.0,200.0)"/>
 <path d="M0,0 l122,0" fill="none" stroke="rgb(229,229,229)" stroke-width="2" transform="matrix(1,0,0,-1,0.0,135.0)"/>
 <path d="M0,1 l0,-5" fill="none" stroke="rgb(204,204,204)" stroke-width="2" transform="matrix(1,0,0,-1,7.0,135.0)"/>
 <path d="M0,1 l0,-5" fill="none" stroke="rgb(204,204,204)" stroke-width="2" transform="matrix(1,0,0,-1,114.0,135.0)"/>
 <path d="M583,660 c-97,0,-164,-66,-164,-145 c0,-61,33,-109,92,-125 l57,60 c-36,9,-54,37,-54,66 c0,36,26,65,71,65 c45,0,87,-37,87,-109 c0,-93,-73,-148,-171,-148 c-75,0,-136,37,-179,70 l-232,0 l-68,-51 c0,-71,35,-125,79,-150 l52,21 l0,97 l135,0 l130,-101 l234,-226 l79,54 l-121,116 c-49,45,-80,67,-110,89 l1,4 c140,-5,267,73,267,226 c0,96,-61,187,-185,187 Z M-24,650 l0,-77 l327,0 l0,77 Z M878,0 l95,0 l0,573 l116,0 l0,77 l-211,0 Z M878,0" fill="rgb(0,0,0)" transform="matrix(0.1,0.0,0.0,-0.1,7.0,135.0)"/>
</svg>