<?xml version="1.0" encoding="UTF-8"?>
<svg height="200.0" version="1.1" width="138.0" xmlns="http://www.w3.org/2000/svg" xmlns:xlink="http://www.w3.org/1999/xlink">
 <path d="M0,0 l138,0 l0,200 l-138,0 Z M0,0" fill="rgb(255,255,255)" transform="matrix(1,0,0,-1,0.0,200.0)"/>
 <path d="M0,0 l138,0" fill="none" stroke="rgb(229,229,229)" stroke-width="2" transform="matrix(1,0,0,-1,0.0,135.0)"/>
 <path d="M0,1 l0,-5" fill="none" stroke="rgb(204,204,204)" stroke-width="2" transform="matrix(1,0,0,-1,7.0,135.0)"/>
 <path d="M0,1 l0,-5" fill="none" stroke="rgb(204,204,204)" stroke-width="2" transform="matrix(1,0,0,-1,129.0,135.0)"/>
 <path d="M355,399 l-265,0 l-68,-51 c0,-71,35,-125,79,-150 l52,21 l0,97 l152,0 l252,-324 l77,50 l-110,139 c-31,40,-51,62,-72,85 l1,4 c10,-2,26,-2,35,-1 c25,2,47,10,66,23 c36,-19,89,-31,145,-31 c20,0,38,1,55,4 c0,-120,104,-229,252,-229 c72,0,145,21,202,77 l-49,76 c-44,-45,-93,-69,-165,-69 c-95,0,-146,65,-146,127 c0,56,18,91,117,119 l145,41 l0,166 l137,0 l0,77 l-1271,0 l0,-77 l532,0 l0,-171 c0,-43,-21,-60,-59,-60 c-38,0,-62,21,-82,43 Z M691,346 c-34,0,-66,4,-93,12 c2,12,4,25,4,39 l0,176 l412,0 l0,-100 l-106,-32 c-63,-19,-106,-45,-130,-84 c-25,-8,-55,-11,-87,-11 Z M691,346" fill="rgb(0,0,0)" transform="matrix(0.1,0.0,0.0,-0.1,7.0,135.0)"/>
</svg>