<?xml version="1.0" encoding="UTF-8"?>
<svg height="200.0" version="1.1" width="180.0" xmlns="http://www.w3.org/2000/svg" xmlns:xlink="http://www.w3.org/1999/xlink">
 <path d="M0,0 l180,0 l0,200 l-180,0 Z M0,0" fill="rgb(255,255,255)" transform="matrix(1,0,0,-1,0.0,200.0)"/>
 <path d="M0,0 l180,0" fill="none" stroke="rgb(229,229,229)" stroke-width="2" transform="matrix(1,0,0,-1,0.0,135.0)"/>
 <path d="M0,1 l0,-5" fill="none" stroke="rgb(204,204,204)" stroke-width="2" transform="matrix(1,0,0,-1,7.0,135.0)"/>
 <path d="M0,1 l0,-5" fill="none" stroke="rgb(204,204,204)" stroke-width="2" transform="matrix(1,0,0,-1,173.0,135.0)"/>
 <path d="M351,403 l-261,0 l-68,-51 c0,-71,35,-125,79,-150 l52,21 l0,97 l149,0 l254,-328 l77,50 l-109,139 c-31,40,-51,62,-73,85 l1,4 c11,-2,27,-2,36,-1 c25,2,47,10,66,23 c36,-19,89,-31,144,-31 c34,0,61,3,86,10 c10,-34,30,-68,57,-90 l75,0 l0,102 l185,0 c35,-98,115,-153,212,-153 c84,0,131,40,152,64 l4,0 l0,-194 l94,0 l0,573 l116,0 l0,77 l-1703,0 l0,-77 l532,0 l0,-171 c0,-43,-22,-60,-59,-60 c-42,0,-67,23,-87,48 Z M690,346 c-33,0,-66,4,-92,12 c2,12,4,25,4,39 l0,176 l223,0 l0,-206 c-38,-16,-94,-21,-135,-21 Z M1184,573 c24,-23,39,-60,39,-91 c0,-63,-54,-94,-141,-112 l0,-3 l-164,0 l0,206 Z M1187,331 c74,17,131,67,131,137 c0,41,-14,75,-41,101 l0,4 l192,0 l0,-210 c0,-94,-57,-150,-142,-150 c-90,0,-132,63,-140,118 Z M1187,331" fill="rgb(0,0,0)" transform="matrix(0.1,0.0,0.0,-0.1,7.0,135.0)"/>
</svg>