<?xml version="1.0" encoding="UTF-8"?>
<svg height="200.0" version="1.1" width="148.0" xmlns="http://www.w3.org/2000/svg" xmlns:xlink="http://www.w3.org/1999/xlink">
 <path d="M0,0 l148,0 l0,200 l-148,0 Z M0,0" fill="rgb(255,255,255)" transform="matrix(1,0,0,-1,0.0,200.0)"/>
 <path d="M0,0 l148,0" fill="none" stroke="rgb(229,229,229)" stroke-width="2" transform="matrix(1,0,0,-1,0.0,135.0)"/>
 <path d="M0,1 l0,-5" fill="none" stroke="rgb(204,204,204)" stroke-width="2" transform="matrix(1,0,0,-1,7.0,135.0)"/>
 <path d="M0,1 l0,-5" fill="none" stroke="rgb(204,204,204)" stroke-width="2" transform="matrix(1,0,0,-1,139.0,135.0)"/>
 <path d="M691,346 c-34,0,-66,4,-93,12 c2,12,4,25,4,39 l0,176 l249,0 c24,-23,39,-60,39,-91 c0,-63,-53,-94,-140,-112 c1,-6,1,-13,2,-19 c-19,-3,-39,-5,-61,-5 Z M1132,194 l4,0 l0,-194 l95,0 l0,573 l116,0 l0,77 l-1371,0 l0,-77 l532,0 l0,-171 c0,-43,-21,-60,-59,-60 c-38,0,-62,21,-82,43 l-12,14 l-265,0 l-68,-51 c0,-71,35,-125,79,-150 l52,21 l0,97 l152,0 l252,-324 l77,50 l-110,139 c-31,40,-51,62,-72,85 l1,4 c10,-2,26,-2,35,-1 c25,2,47,10,66,23 c36,-19,89,-31,145,-31 c28,0,53,3,75,8 c38,-89,115,-139,207,-139 c83,0,131,40,151,64 Z M855,331 c74,17,131,67,131,137 c0,41,-14,75,-41,101 l0,4 l192,0 l0,-210 c0,-94,-57,-150,-142,-150 c-90,0,-132,63,-140,118 Z M855,331" fill="rgb(0,0,0)" transform="matrix(0.1,0.0,0.0,-0.1,7.0,135.0)"/>
</svg>