<?xml version="1.0" encoding="UTF-8"?>
<svg height="200.0" version="1.1" width="108.0" xmlns="http://www.w3.org/2000/svg" xmlns:xlink="http://www.w3.org/1999/xlink">
 <path d="M0,0 l108,0 l0,200 l-108,0 Z M0,0" fill="rgb(255,255,255)" transform="matrix(1,0,0,-1,0.0,200.0)"/>
 <path d="M0,0 l108,0" fill="none" stroke="rgb(229,229,229)" stroke-width="2" transform="matrix(1,0,0,-1,0.0,135.0)"/>
 <path d="M0,1 l0,-5" fill="none" stroke="rgb(204,204,204)" stroke-width="2" transform="matrix(1,0,0,-1,7.0,135.0)"/>
 <path d="M0,1 l0,-5" fill="none" stroke="rgb(204,204,204)" stroke-width="2" transform="matrix(1,0,0,-1,101.0,135.0)"/>
 <path d="M591,188 c-71,0,-112,41,-112,95 c0,60,41,100,115,100 l73,0 l0,82 l-362,0 l0,-83 l126,0 l0,-4 c-19,-14,-46,-43,-50,-98 c-27,-18,-63,-29,-107,-29 c-63,0,-98,31,-98,98 l0,224 l574,0 l0,-207 c0,-112,-66,-178,-159,-178 Z M750,179 l0,-179 l95,0 l0,573 l116,0 l0,77 l-985,0 l0,-77 l105,0 l0,-234 c0,-105,69,-172,180,-172 c63,0,107,13,138,30 c28,-54,88,-92,173,-92 c100,0,153,45,174,74 Z M750,179" fill="rgb(0,0,0)" transform="matrix(0.1,0.0,0.0,-0.1,7.0,135.0)"/>
</svg>