<?xml version="1.0" encoding="UTF-8"?>
<svg height="200.0" version="1.1" width="98.0" xmlns="http://www.w3.org/2000/svg" xmlns:xlink="http://www.w3.org/1999/xlink">
 <path d="M0,0 l98,0 l0,200 l-98,0 Z M0,0" fill="rgb(255,255,255)" transform="matrix(1,0,0,-1,0.0,200.0)"/>
 <path d="M0,0 l98,0" fill="none" stroke="rgb(229,229,229)" stroke-width="2" transform="matrix(1,0,0,-1,0.0,135.0)"/>
 <path d="M0,1 l0,-5" fill="none" stroke="rgb(204,204,204)" stroke-width="2" transform="matrix(1,0,0,-1,7.0,135.0)"/>
 <path d="M0,1 l0,-5" fill="none" stroke="rgb(204,204,204)" stroke-width="2" transform="matrix(1,0,0,-1,90.0,135.0)"/>
 <path d="M254,188 c45,0,81,10,111,24 c25,-97,119,-176,245,-176 c73,0,146,21,203,77 l-50,76 c-43,-45,-93,-69,-164,-69 c-96,0,-146,65,-146,127 c0,56,18,91,117,119 l145,41 l0,166 l136,0 l0,77 l-875,0 l0,-77 l105,0 l0,-215 c0,-105,65,-170,173,-170 Z M266,271 c-58,0,-90,28,-90,97 l0,205 l443,0 l0,-100 l-106,-32 c-86,-25,-135,-66,-150,-130 c-24,-23,-56,-40,-97,-40 Z M266,271" fill="rgb(0,0,0)" transform="matrix(0.1,0.0,0.0,-0.1,7.0,135.0)"/>
</svg>