<?xml version="1.0" encoding="UTF-8"?>
<svg height="200.0" version="1.1" width="104.0" xmlns="http://www.w3.org/2000/svg" xmlns:xlink="http://www.w3.org/1999/xlink">
 <path d="M0,0 l104,0 l0,200 l-104,0 Z M0,0" fill="rgb(255,255,255)" transform="matrix(1,0,0,-1,0.0,200.0)"/>
 <path d="M0,0 l104,0" fill="none" stroke="rgb(229,229,229)" stroke-width="2" transform="matrix(1,0,0,-1,0.0,135.0)"/>
 <path d="M0,1 l0,-5" fill="none" stroke="rgb(204,204,204)" stroke-width="2" transform="matrix(1,0,0,-1,7.0,135.0)"/>
 <path d="M0,1 l0,-5" fill="none" stroke="rgb(204,204,204)" stroke-width="2" transform="matrix(1,0,0,-1,97.0,135.0)"/>
 <path d="M266,271 c-58,0,-90,28,-90,97 l0,205 l442,0 l0,-101 l-105,-32 c-86,-25,-136,-66,-151,-130 c-24,-22,-56,-39,-96,-39 Z M607,36 c151,0,247,98,247,215 c0,106,-73,168,-141,201 l0,121 l209,0 l0,77 l-946,0 l0,-77 l105,0 l0,-215 c0,-105,65,-170,173,-170 c44,0,80,9,109,24 c25,-100,119,-176,244,-176 Z M596,120 c-97,0,-145,65,-145,127 c0,56,19,91,118,120 l80,22 c47,-15,113,-57,113,-131 c0,-73,-54,-138,-166,-138 Z M596,120" fill="rgb(0,0,0)" transform="matrix(0.1,0.0,0.0,-0.1,7.0,135.0)"/>
</svg>