<?xml version="1.0" encoding="UTF-8"?>
<svg height="200.0" version="1.1" width="140.0" xmlns="http://www.w3.org/2000/svg" xmlns:xlink="http://www.w3.org/1999/xlink">
 <path d="M0,0 l140,0 l0,200 l-140,0 Z M0,0" fill="rgb(255,255,255)" transform="matrix(1,0,0,-1,0.0,200.0)"/>
 <path d="M0,0 l140,0" fill="none" stroke="rgb(229,229,229)" stroke-width="2" transform="matrix(1,0,0,-1,0.0,135.0)"/>
 <path d="M0,1 l0,-5" fill="none" stroke="rgb(204,204,204)" stroke-width="2" transform="matrix(1,0,0,-1,7.0,135.0)"/>
 <path d="M0,1 l0,-5" fill="none" stroke="rgb(204,204,204)" stroke-width="2" transform="matrix(1,0,0,-1,132.0,135.0)"/>
 <path d="M266,271 c-58,0,-90,28,-90,97 l0,205 l598,0 c24,-23,39,-60,39,-91 c0,-39,-20,-66,-57,-85 c-35,35,-93,51,-155,51 l-49,0 c-79,0,-151,-42,-176,-123 c-25,-29,-61,-54,-110,-54 Z M254,188 c48,0,86,11,116,27 c14,-100,73,-177,137,-224 l72,58 c-65,47,-116,116,-116,209 c0,71,45,107,107,107 l24,0 c37,0,61,-5,81,-16 c20,-138,112,-219,229,-219 c83,0,131,40,151,64 l4,0 l0,-194 l95,0 l0,573 l116,0 l0,77 l-1294,0 l0,-77 l105,0 l0,-215 c0,-105,65,-170,173,-170 Z M778,331 c74,17,131,67,131,137 c0,41,-14,75,-41,101 l0,4 l192,0 l0,-210 c0,-94,-57,-150,-142,-150 c-90,0,-132,63,-140,118 Z M778,331" fill="rgb(0,0,0)" transform="matrix(0.1,0.0,0.0,-0.1,7.0,135.0)"/>
</svg>