<?xml version="1.0" encoding="UTF-8"?>
<svg height="200.0" version="1.1" width="120.0" xmlns="http://www.w3.org/2000/svg" xmlns:xlink="http://www.w3.org/1999/xlink">
 <path d="M0,0 l120,0 l0,200 l-120,0 Z M0,0" fill="rgb(255,255,255)" transform="matrix(1,0,0,-1,0.0,200.0)"/>
 <path d="M0,0 l120,0" fill="none" stroke="rgb(229,229,229)" stroke-width="2" transform="matrix(1,0,0,-1,0.0,135.0)"/>
 <path d="M0,1 l0,-5" fill="none" stroke="rgb(204,204,204)" stroke-width="2" transform="matrix(1,0,0,-1,7.0,135.0)"/>
 <path d="M0,1 l0,-5" fill="none" stroke="rgb(204,204,204)" stroke-width="2" transform="matrix(1,0,0,-1,113.0,135.0)"/>
 <path d="M254,188 c58,0,101,17,134,39 l22,-17 l235,-226 l78,54 l-121,116 c-49,45,-80,67,-110,89 l1,4 c140,-5,267,73,267,226 c0,96,-61,187,-185,187 c-96,0,-164,-66,-164,-145 c0,-61,33,-109,92,-125 l57,60 c-36,9,-54,37,-54,66 c0,36,26,65,71,65 c45,0,87,-37,87,-109 c0,-93,-73,-148,-171,-148 c-30,0,-69,5,-102,18 l-3,-3 c-27,-37,-66,-68,-122,-68 c-58,0,-90,28,-90,97 l0,205 l166,0 l0,77 l-366,0 l0,-77 l105,0 l0,-215 c0,-105,65,-170,173,-170 Z M870,0 l95,0 l0,573 l116,0 l0,77 l-211,0 Z M870,0" fill="rgb(0,0,0)" transform="matrix(0.1,0.0,0.0,-0.1,7.0,135.0)"/>
</svg>