<?xml version="1.0" encoding="UTF-8"?>
<svg height="200.0" version="1.1" width="116.0" xmlns="http://www.w3.org/2000/svg" xmlns:xlink="http://www.w3.org/1999/xlink">
 <path d="M0,0 l116,0 l0,200 l-116,0 Z M0,0" fill="rgb(255,255,255)" transform="matrix(1,0,0,-1,0.0,200.0)"/>
 <path d="M0,0 l116,0" fill="none" stroke="rgb(229,229,229)" stroke-width="2" transform="matrix(1,0,0,-1,0.0,135.0)"/>
 <path d="M0,1 l0,-5" fill="none" stroke="rgb(204,204,204)" stroke-width="2" transform="matrix(1,0,0,-1,7.0,135.0)"/>
 <path d="M0,1 l0,-5" fill="none" stroke="rgb(204,204,204)" stroke-width="2" transform="matrix(1,0,0,-1,107.0,135.0)"/>
 <path d="M266,271 c-58,0,-90,28,-90,97 l0,205 l366,0 l0,-176 c0,-43,-21,-61,-59,-61 c-41,0,-65,23,-86,49 l-72,-57 l23,-30 c-22,-16,-49,-27,-82,-27 Z M725,346 c-34,0,-66,4,-92,12 c2,10,3,21,3,34 l0,181 l180,0 l0,-213 c-26,-10,-57,-14,-91,-14 Z M487,264 c7,-2,20,-2,26,-2 c30,2,58,11,80,29 c36,-17,87,-28,140,-28 c33,0,60,3,83,8 l0,-271 l96,0 l0,573 l116,0 l0,77 l-1052,0 l0,-77 l105,0 l0,-215 c0,-105,65,-170,173,-170 c64,0,110,19,145,45 l192,-246 l77,49 l-110,140 c-31,39,-51,61,-72,85 Z M487,264" fill="rgb(0,0,0)" transform="matrix(0.1,0.0,0.0,-0.1,7.0,135.0)"/>
</svg>