<?xml version="1.0" encoding="UTF-8"?>
<svg height="200.0" version="1.1" width="130.0" xmlns="http://www.w3.org/2000/svg" xmlns:xlink="http://www.w3.org/1999/xlink">
 <path d="M0,0 l130,0 l0,200 l-130,0 Z M0,0" fill="rgb(255,255,255)" transform="matrix(1,0,0,-1,0.0,200.0)"/>
 <path d="M0,0 l130,0" fill="none" stroke="rgb(229,229,229)" stroke-width="2" transform="matrix(1,0,0,-1,0.0,135.0)"/>
 <path d="M0,1 l0,-5" fill="none" stroke="rgb(204,204,204)" stroke-width="2" transform="matrix(1,0,0,-1,7.0,135.0)"/>
 <path d="M0,1 l0,-5" fill="none" stroke="rgb(204,204,204)" stroke-width="2" transform="matrix(1,0,0,-1,121.0,135.0)"/>
 <path d="M463,420 l-4,0 l0,153 l498,0 l0,-125 l-146,0 c-35,0,-69,-8,-98,-25 c-31,32,-75,51,-123,51 c-62,0,-108,-30,-127,-54 Z M366,390 c0,-70,-39,-119,-110,-119 c-54,0,-80,28,-80,96 l0,206 l190,0 Z M838,49 c-65,47,-115,116,-115,209 c0,71,44,107,106,107 l128,0 l0,-365 l94,0 l0,573 l117,0 l0,77 l-1192,0 l0,-77 l105,0 l0,-219 c0,-105,60,-167,162,-167 c63,0,102,27,119,51 l4,0 l0,-238 l93,0 l0,268 c0,74,48,124,114,124 c34,0,61,-12,79,-29 c-17,-28,-26,-62,-26,-103 c0,-122,67,-215,140,-269 Z M93,44 c0,-32,24,-56,56,-56 c33,0,57,24,57,56 c0,33,-24,57,-57,57 c-32,0,-56,-24,-56,-57 Z M93,44" fill="rgb(0,0,0)" transform="matrix(0.1,0.0,0.0,-0.1,7.0,135.0)"/>
</svg>