<?xml version="1.0" encoding="UTF-8"?>
<svg height="200.0" version="1.1" width="154.0" xmlns="http://www.w3.org/2000/svg" xmlns:xlink="http://www.w3.org/1999/xlink">
 <path d="M0,0 l154,0 l0,200 l-154,0 Z M0,0" fill="rgb(255,255,255)" transform="matrix(1,0,0,-1,0.0,200.0)"/>
 <path d="M0,0 l154,0" fill="none" stroke="rgb(229,229,229)" stroke-width="2" transform="matrix(1,0,0,-1,0.0,135.0)"/>
 <path d="M0,1 l0,-5" fill="none" stroke="rgb(204,204,204)" stroke-width="2" transform="matrix(1,0,0,-1,7.0,135.0)"/>
 <path d="M0,1 l0,-5" fill="none" stroke="rgb(204,204,204)" stroke-width="2" transform="matrix(1,0,0,-1,146.0,135.0)"/>
 <path d="M463,420 l-4,0 l0,153 l203,0 l0,-114 c-22,10,-47,15,-72,15 c-62,0,-108,-30,-127,-54 Z M573,392 c42,0,73,-17,89,-43 c0,-100,59,-162,162,-162 c63,0,101,27,118,51 l4,0 l0,-238 l93,0 l0,262 c0,75,47,130,117,130 c58,0,97,-37,97,-94 c0,-68,-52,-117,-136,-101 l15,-85 c117,-13,216,61,216,187 c0,107,-78,176,-174,176 c-70,0,-113,-34,-131,-56 l-4,0 l0,154 l371,0 l0,77 l-1434,0 l0,-77 l105,0 l0,-219 c0,-105,60,-167,162,-167 c63,0,102,27,119,51 l4,0 l0,-238 l93,0 l0,268 c0,74,48,124,114,124 Z M366,390 c0,-70,-39,-119,-110,-119 c-54,0,-80,28,-80,96 l0,206 l190,0 Z M947,390 c0,-70,-40,-119,-110,-119 c-54,0,-81,28,-81,96 l0,206 l191,0 Z M686,43 c0,-30,23,-54,54,-54 c32,0,55,24,55,54 c0,33,-23,56,-55,56 c-31,0,-54,-23,-54,-56 Z M94,43 c0,-30,24,-54,55,-54 c32,0,55,24,55,54 c0,33,-23,56,-55,56 c-31,0,-55,-23,-55,-56 Z M94,43" fill="rgb(0,0,0)" transform="matrix(0.1,0.0,0.0,-0.1,7.0,135.0)"/>
</svg>