<?xml version="1.0" encoding="UTF-8"?>
<svg height="200.0" version="1.1" width="146.0" xmlns="http://www.w3.org/2000/svg" xmlns:xlink="http://www.w3.org/1999/xlink">
 <path d="M0,0 l146,0 l0,200 l-146,0 Z M0,0" fill="rgb(255,255,255)" transform="matrix(1,0,0,-1,0.0,200.0)"/>
 <path d="M0,0 l146,0" fill="none" stroke="rgb(229,229,229)" stroke-width="2" transform="matrix(1,0,0,-1,0.0,135.0)"/>
 <path d="M0,1 l0,-5" fill="none" stroke="rgb(204,204,204)" stroke-width="2" transform="matrix(1,0,0,-1,7.0,135.0)"/>
 <path d="M0,1 l0,-5" fill="none" stroke="rgb(204,204,204)" stroke-width="2" transform="matrix(1,0,0,-1,137.0,135.0)"/>
 <path d="M573,392 c33,0,59,-10,76,-27 c-12,-25,-19,-56,-19,-92 c0,-125,78,-229,182,-283 l63,65 c-102,54,-148,132,-148,215 c0,77,39,106,80,106 c46,0,75,-30,75,-90 l0,-97 l89,0 l0,95 c0,64,29,95,76,95 c29,0,58,-15,70,-27 l0,-352 l95,0 l0,573 l117,0 l0,77 l-1353,0 l0,-77 l105,0 l0,-219 c0,-105,60,-167,162,-167 c63,0,102,27,119,51 l4,0 l0,-238 l93,0 l0,268 c0,74,48,124,114,124 Z M366,390 c0,-70,-39,-119,-110,-119 c-54,0,-80,28,-80,96 l0,206 l190,0 Z M1113,433 c-15,17,-46,30,-81,30 c-47,0,-92,-28,-105,-82 l-4,0 c-17,48,-61,78,-125,78 c-33,0,-65,-9,-93,-28 c-30,27,-71,43,-115,43 c-62,0,-108,-30,-127,-54 l-4,0 l0,153 l658,0 l0,-140 Z M1113,433" fill="rgb(0,0,0)" transform="matrix(0.1,0.0,0.0,-0.1,7.0,135.0)"/>
</svg>