<?xml version="1.0" encoding="UTF-8"?>
<svg height="200.0" version="1.1" width="150.0" xmlns="http://www.w3.org/2000/svg" xmlns:xlink="http://www.w3.org/1999/xlink">
 <path d="M0,0 l150,0 l0,200 l-150,0 Z M0,0" fill="rgb(255,255,255)" transform="matrix(1,0,0,-1,0.0,200.0)"/>
 <path d="M0,0 l150,0" fill="none" stroke="rgb(229,229,229)" stroke-width="2" transform="matrix(1,0,0,-1,0.0,135.0)"/>
 <path d="M0,1 l0,-5" fill="none" stroke="rgb(204,204,204)" stroke-width="2" transform="matrix(1,0,0,-1,7.0,135.0)"/>
 <path d="M0,1 l0,-5" fill="none" stroke="rgb(204,204,204)" stroke-width="2" transform="matrix(1,0,0,-1,143.0,135.0)"/>
 <path d="M176,367 l0,206 l190,0 l0,-183 c0,-70,-39,-119,-110,-119 c-54,0,-80,28,-80,96 Z M1024,38 l-121,116 c-49,45,-80,67,-110,89 l1,4 c140,-5,267,73,267,226 c0,96,-61,187,-185,187 c-97,0,-164,-66,-164,-145 c0,-61,33,-109,92,-125 l57,60 c-36,9,-54,37,-54,66 c0,36,26,65,71,65 c45,0,87,-37,87,-109 c0,-93,-73,-148,-171,-148 c-19,0,-43,2,-65,7 c-16,73,-77,117,-146,117 c-59,0,-102,-29,-120,-52 l-4,0 l0,177 l145,0 l0,77 l-628,0 l0,-77 l105,0 l0,-219 c0,-105,60,-167,162,-167 c63,0,102,27,119,51 l4,0 l0,-238 l93,0 l0,242 c0,78,48,122,107,122 c54,0,81,-33,88,-72 l-18,-23 l74,-59 l235,-226 Z M1266,0 l0,573 l116,0 l0,77 l-211,0 l0,-650 Z M1266,0" fill="rgb(0,0,0)" transform="matrix(0.1,0.0,0.0,-0.1,7.0,135.0)"/>
</svg>