<?xml version="1.0" encoding="UTF-8"?>
<svg height="200.0" version="1.1" width="144.0" xmlns="http://www.w3.org/2000/svg" xmlns:xlink="http://www.w3.org/1999/xlink">
 <path d="M0,0 l144,0 l0,200 l-144,0 Z M0,0" fill="rgb(255,255,255)" transform="matrix(1,0,0,-1,0.0,200.0)"/>
 <path d="M0,0 l144,0" fill="none" stroke="rgb(229,229,229)" stroke-width="2" transform="matrix(1,0,0,-1,0.0,135.0)"/>
 <path d="M0,1 l0,-5" fill="none" stroke="rgb(204,204,204)" stroke-width="2" transform="matrix(1,0,0,-1,7.0,135.0)"/>
 <path d="M0,1 l0,-5" fill="none" stroke="rgb(204,204,204)" stroke-width="2" transform="matrix(1,0,0,-1,136.0,135.0)"/>
 <path d="M774,270 c8,-2,20,-2,27,-2 c28,1,54,9,75,24 c36,-19,89,-31,144,-31 c32,0,59,3,84,9 l0,-270 l95,0 l0,573 l116,0 l0,77 l-1339,0 l0,-77 l105,0 l0,-219 c0,-105,60,-167,162,-167 c63,0,102,27,119,51 l4,0 l0,-238 l93,0 l0,260 c0,72,36,116,86,116 c29,0,49,-18,79,-55 l-1,-1 l255,-328 l77,50 l-109,139 c-31,40,-51,62,-73,85 Z M771,342 c-42,0,-65,22,-87,48 c-42,49,-74,67,-123,67 c-46,0,-80,-24,-98,-48 l-4,0 l0,164 l371,0 l0,-170 c0,-43,-22,-61,-59,-61 Z M366,390 c0,-70,-39,-119,-110,-119 c-54,0,-80,28,-80,96 l0,206 l190,0 Z M1012,346 c-33,0,-66,4,-93,12 c3,12,5,25,5,40 l0,175 l180,0 l0,-213 c-26,-10,-58,-14,-92,-14 Z M94,43 c0,-30,24,-54,55,-54 c32,0,55,24,55,54 c0,33,-23,56,-55,56 c-31,0,-55,-23,-55,-56 Z M94,43" fill="rgb(0,0,0)" transform="matrix(0.1,0.0,0.0,-0.1,7.0,135.0)"/>
</svg>