<?xml version="1.0" encoding="UTF-8"?>
<svg height="200.0" version="1.1" width="124.0" xmlns="http://www.w3.org/2000/svg" xmlns:xlink="http://www.w3.org/1999/xlink">
 <path d="M0,0 l124,0 l0,200 l-124,0 Z M0,0" fill="rgb(255,255,255)" transform="matrix(1,0,0,-1,0.0,200.0)"/>
 <path d="M0,0 l124,0" fill="none" stroke="rgb(229,229,229)" stroke-width="2" transform="matrix(1,0,0,-1,0.0,135.0)"/>
 <path d="M0,1 l0,-5" fill="none" stroke="rgb(204,204,204)" stroke-width="2" transform="matrix(1,0,0,-1,7.0,135.0)"/>
 <path d="M0,1 l0,-5" fill="none" stroke="rgb(204,204,204)" stroke-width="2" transform="matrix(1,0,0,-1,117.0,135.0)"/>
 <path d="M252,102 c98,0,163,51,200,102 c42,-58,103,-100,187,-100 c100,0,164,66,164,152 c0,56,-27,91,-48,108 l0,4 l159,0 l0,-368 l95,0 l0,573 l116,0 l0,77 l-1149,0 l0,-77 l938,0 l0,-127 l-252,0 l-39,-70 l0,-7 c41,-14,87,-49,87,-105 c0,-45,-30,-76,-78,-76 c-103,0,-161,133,-166,256 l-90,-41 c4,-36,14,-77,31,-117 c-7,-12,-15,-28,-27,-43 l-194,155 c21,13,45,20,71,20 c21,0,44,-2,66,-10 l-4,84 c-23,6,-45,8,-71,8 c-106,0,-207,-78,-207,-202 c0,-123,94,-196,211,-196 Z M258,182 c-76,0,-125,50,-125,119 c0,22,5,41,15,58 l191,-154 c-22,-14,-48,-23,-81,-23 Z M258,182" fill="rgb(0,0,0)" transform="matrix(0.1,0.0,0.0,-0.1,7.0,135.0)"/>
</svg>