<?xml version="1.0" encoding="UTF-8"?>
<svg height="200.0" version="1.1" width="160.0" xmlns="http://www.w3.org/2000/svg" xmlns:xlink="http://www.w3.org/1999/xlink">
 <path d="M0,0 l160,0 l0,200 l-160,0 Z M0,0" fill="rgb(255,255,255)" transform="matrix(1,0,0,-1,0.0,200.0)"/>
 <path d="M0,0 l160,0" fill="none" stroke="rgb(229,229,229)" stroke-width="2" transform="matrix(1,0,0,-1,0.0,135.0)"/>
 <path d="M0,1 l0,-5" fill="none" stroke="rgb(204,204,204)" stroke-width="2" transform="matrix(1,0,0,-1,7.0,135.0)"/>
 <path d="M0,1 l0,-5" fill="none" stroke="rgb(204,204,204)" stroke-width="2" transform="matrix(1,0,0,-1,153.0,135.0)"/>
 <path d="M252,102 c99,0,162,53,198,104 c43,-58,104,-102,189,-102 c100,0,164,66,164,152 c0,56,-27,91,-48,108 l0,4 l60,0 c34,0,57,-4,75,-14 c18,-141,110,-224,229,-224 c84,0,131,40,152,64 l4,0 l0,-194 l94,0 l0,573 l116,0 l0,77 l-1509,0 l0,-77 l1014,0 c24,-23,39,-60,39,-91 c0,-40,-21,-67,-59,-86 c-35,34,-86,50,-148,50 l-160,0 l-39,-70 l0,-7 c41,-14,87,-49,87,-105 c0,-45,-30,-76,-78,-76 c-102,0,-161,133,-166,256 l-90,-41 c5,-36,15,-77,31,-118 c-6,-12,-15,-27,-26,-42 l-194,155 c20,13,45,20,71,20 c22,0,42,-2,64,-10 l-3,84 c-23,6,-45,8,-71,8 c-106,0,-206,-77,-206,-201 c0,-120,92,-197,210,-197 Z M258,182 c-76,0,-125,51,-125,120 c0,22,5,41,15,57 l191,-154 c-21,-14,-48,-23,-81,-23 Z M994,331 c73,17,130,67,130,137 c0,41,-14,75,-41,101 l0,4 l192,0 l0,-210 c0,-94,-57,-150,-142,-150 c-90,0,-131,63,-139,118 Z M994,331" fill="rgb(0,0,0)" transform="matrix(0.1,0.0,0.0,-0.1,7.0,135.0)"/>
</svg>