<?xml version="1.0" encoding="UTF-8"?>
<svg height="200.0" version="1.1" width="108.0" xmlns="http://www.w3.org/2000/svg" xmlns:xlink="http://www.w3.org/1999/xlink">
 <path d="M0,0 l108,0 l0,200 l-108,0 Z M0,0" fill="rgb(255,255,255)" transform="matrix(1,0,0,-1,0.0,200.0)"/>
 <path d="M0,0 l108,0" fill="none" stroke="rgb(229,229,229)" stroke-width="2" transform="matrix(1,0,0,-1,0.0,135.0)"/>
 <path d="M0,1 l0,-5" fill="none" stroke="rgb(204,204,204)" stroke-width="2" transform="matrix(1,0,0,-1,7.0,135.0)"/>
 <path d="M0,1 l0,-5" fill="none" stroke="rgb(204,204,204)" stroke-width="2" transform="matrix(1,0,0,-1,100.0,135.0)"/>
 <path d="M258,182 c-76,0,-125,50,-125,119 c0,22,5,41,15,58 l191,-154 c-22,-14,-48,-23,-81,-23 Z M620,49 c-65,47,-115,116,-115,209 c0,71,44,107,106,107 l128,0 l0,-365 l94,0 l0,573 l117,0 l0,77 l-974,0 l0,-77 l763,0 l0,-125 l-146,0 c-88,0,-168,-53,-182,-153 c-6,-13,-16,-32,-31,-52 l-194,155 c21,13,45,20,71,20 c21,0,44,-2,66,-10 l-4,84 c-23,6,-45,8,-71,8 c-106,0,-207,-78,-207,-202 c0,-123,94,-196,211,-196 c75,0,130,30,169,67 c23,-78,73,-138,127,-178 Z M620,49" fill="rgb(0,0,0)" transform="matrix(0.1,0.0,0.0,-0.1,7.0,135.0)"/>
</svg>