<?xml version="1.0" encoding="UTF-8"?>
<svg height="200.0" version="1.1" width="142.0" xmlns="http://www.w3.org/2000/svg" xmlns:xlink="http://www.w3.org/1999/xlink">
 <path d="M0,0 l142,0 l0,200 l-142,0 Z M0,0" fill="rgb(255,255,255)" transform="matrix(1,0,0,-1,0.0,200.0)"/>
 <path d="M0,0 l142,0" fill="none" stroke="rgb(229,229,229)" stroke-width="2" transform="matrix(1,0,0,-1,0.0,135.0)"/>
 <path d="M0,1 l0,-5" fill="none" stroke="rgb(204,204,204)" stroke-width="2" transform="matrix(1,0,0,-1,7.0,135.0)"/>
 <path d="M0,1 l0,-5" fill="none" stroke="rgb(204,204,204)" stroke-width="2" transform="matrix(1,0,0,-1,134.0,135.0)"/>
 <path d="M1181,0 l0,573 l116,0 l0,77 l-589,0 l0,-77 l379,0 l0,-245 c0,-76,-46,-137,-124,-137 c-64,0,-107,44,-107,105 c0,84,78,119,153,99 l-8,85 c-119,21,-243,-42,-243,-185 c0,-17,2,-33,6,-48 c-37,-31,-86,-54,-150,-54 c-80,0,-108,41,-108,80 c0,45,32,75,99,75 l62,0 l0,78 l-68,0 c-67,0,-98,30,-98,71 c0,39,28,66,67,79 l-15,74 l-577,0 l0,-77 l469,0 l0,-4 c-20,-11,-43,-37,-43,-77 c0,-63,45,-97,97,-103 l0,-4 c-36,-9,-77,-38,-88,-89 c-6,-14,-16,-33,-31,-53 l-194,155 c21,13,45,20,71,20 c21,0,44,-2,66,-10 l-4,84 c-23,6,-45,8,-71,8 c-106,0,-207,-78,-207,-202 c0,-123,94,-196,211,-196 c84,0,144,38,183,81 c31,-41,87,-70,166,-70 c90,0,155,27,199,61 c35,-42,88,-66,147,-66 c71,0,115,31,136,55 l4,0 l0,-163 Z M258,182 c-76,0,-125,50,-125,119 c0,22,5,41,15,58 l191,-154 c-22,-14,-48,-23,-81,-23 Z M258,182" fill="rgb(0,0,0)" transform="matrix(0.1,0.0,0.0,-0.1,7.0,135.0)"/>
</svg>