<?xml version="1.0" encoding="UTF-8"?>
<svg height="200.0" version="1.1" width="108.0" xmlns="http://www.w3.org/2000/svg" xmlns:xlink="http://www.w3.org/1999/xlink">
 <path d="M0,0 l108,0 l0,200 l-108,0 Z M0,0" fill="rgb(255,255,255)" transform="matrix(1,0,0,-1,0.0,200.0)"/>
 <path d="M0,0 l108,0" fill="none" stroke="rgb(229,229,229)" stroke-width="2" transform="matrix(1,0,0,-1,0.0,135.0)"/>
 <path d="M0,1 l0,-5" fill="none" stroke="rgb(204,204,204)" stroke-width="2" transform="matrix(1,0,0,-1,7.0,135.0)"/>
 <path d="M0,1 l0,-5" fill="none" stroke="rgb(204,204,204)" stroke-width="2" transform="matrix(1,0,0,-1,101.0,135.0)"/>
 <path d="M252,102 c92,0,155,46,194,94 c8,-13,18,-24,29,-33 l75,0 l0,102 l204,0 l0,-265 l93,0 l0,573 l116,0 l0,77 l-287,0 l0,-77 l78,0 l0,-224 l-202,0 l0,161 c0,94,-58,140,-149,140 l-427,0 l0,-77 l411,0 c52,0,72,-20,72,-69 l0,-159 l-51,-38 c0,-5,0,-10,1,-15 c-6,-14,-15,-31,-29,-49 l-194,155 c21,13,45,20,71,20 c21,0,44,-2,66,-10 l-4,84 c-23,6,-45,8,-71,8 c-106,0,-207,-78,-207,-202 c0,-123,94,-196,211,-196 Z M258,182 c-76,0,-125,50,-125,119 c0,22,5,41,15,58 l191,-154 c-22,-14,-48,-23,-81,-23 Z M258,182" fill="rgb(0,0,0)" transform="matrix(0.1,0.0,0.0,-0.1,7.0,135.0)"/>
</svg>