<?xml version="1.0" encoding="UTF-8"?>
<svg height="200.0" version="1.1" width="108.0" xmlns="http://www.w3.org/2000/svg" xmlns:xlink="http://www.w3.org/1999/xlink">
 <path d="M0,0 l108,0 l0,200 l-108,0 Z M0,0" fill="rgb(255,255,255)" transform="matrix(1,0,0,-1,0.0,200.0)"/>
 <path d="M0,0 l108,0" fill="none" stroke="rgb(229,229,229)" stroke-width="2" transform="matrix(1,0,0,-1,0.0,135.0)"/>
 <path d="M0,1 l0,-5" fill="none" stroke="rgb(204,204,204)" stroke-width="2" transform="matrix(1,0,0,-1,7.0,135.0)"/>
 <path d="M0,1 l0,-5" fill="none" stroke="rgb(204,204,204)" stroke-width="2" transform="matrix(1,0,0,-1,101.0,135.0)"/>
 <path d="M749,187 l4,0 l0,-187 l93,0 l0,573 l116,0 l0,77 l-287,0 l0,-77 l78,0 l0,-180 l-202,0 l0,117 c0,94,-58,140,-149,140 l-426,0 l0,-77 l410,0 c52,0,72,-20,72,-69 l0,-115 l-51,-38 c0,-15,3,-32,8,-49 c-6,-18,-17,-40,-33,-60 l-196,157 c21,12,45,19,71,19 c21,0,44,-2,66,-10 l-4,84 c-23,6,-45,8,-71,8 c-106,0,-206,-77,-206,-201 c0,-119,91,-197,210,-197 c106,0,174,59,210,116 c4,-4,8,-8,12,-11 l75,0 l0,102 l214,0 l0,-20 l-346,-243 l79,-62 Z M259,183 c-79,0,-126,50,-126,119 c0,22,5,41,14,57 l192,-155 c-21,-13,-48,-21,-80,-21 Z M259,183" fill="rgb(0,0,0)" transform="matrix(0.1,0.0,0.0,-0.1,7.0,135.0)"/>
</svg>