<?xml version="1.0" encoding="UTF-8"?>
<svg height="200.0" version="1.1" width="158.0" xmlns="http://www.w3.org/2000/svg" xmlns:xlink="http://www.w3.org/1999/xlink">
 <path d="M0,0 l158,0 l0,200 l-158,0 Z M0,0" fill="rgb(255,255,255)" transform="matrix(1,0,0,-1,0.0,200.0)"/>
 <path d="M0,0 l158,0" fill="none" stroke="rgb(229,229,229)" stroke-width="2" transform="matrix(1,0,0,-1,0.0,135.0)"/>
 <path d="M0,1 l0,-5" fill="none" stroke="rgb(204,204,204)" stroke-width="2" transform="matrix(1,0,0,-1,7.0,135.0)"/>
 <path d="M0,1 l0,-5" fill="none" stroke="rgb(204,204,204)" stroke-width="2" transform="matrix(1,0,0,-1,150.0,135.0)"/>
 <path d="M252,102 c74,0,129,30,166,66 c29,-77,90,-140,162,-178 l63,65 c-101,54,-148,132,-148,215 c0,77,39,105,81,105 c45,0,74,-29,74,-88 l0,-98 l89,0 l0,99 c0,59,28,90,67,90 c32,0,48,-21,56,-46 c26,-128,115,-202,227,-202 c83,0,131,40,151,64 l4,0 l0,-194 l95,0 l0,573 l116,0 l0,77 l-1479,0 l0,-77 l983,0 c24,-23,39,-60,39,-91 c0,-44,-26,-72,-71,-92 c-24,46,-61,73,-120,73 c-55,0,-99,-36,-112,-82 l-4,0 c-16,48,-60,78,-124,78 c-84,0,-166,-61,-168,-184 c-5,-10,-11,-21,-19,-31 l-194,154 c21,13,45,20,71,20 c21,0,44,-2,66,-10 l-4,84 c-23,6,-45,8,-71,8 c-106,0,-207,-78,-207,-202 c0,-123,94,-196,211,-196 Z M258,182 c-76,0,-125,50,-125,119 c0,22,5,41,15,58 l190,-154 c-21,-14,-48,-23,-80,-23 Z M963,331 c73,17,131,67,131,137 c0,41,-14,75,-41,101 l0,4 l192,0 l0,-210 c0,-94,-57,-150,-142,-150 c-90,0,-132,63,-140,118 Z M963,331" fill="rgb(0,0,0)" transform="matrix(0.1,0.0,0.0,-0.1,7.0,135.0)"/>
</svg>