<?xml version="1.0" encoding="UTF-8"?>
<svg height="200.0" version="1.1" width="128.0" xmlns="http://www.w3.org/2000/svg" xmlns:xlink="http://www.w3.org/1999/xlink">
 <path d="M0,0 l128,0 l0,200 l-128,0 Z M0,0" fill="rgb(255,255,255)" transform="matrix(1,0,0,-1,0.0,200.0)"/>
 <path d="M0,0 l128,0" fill="none" stroke="rgb(229,229,229)" stroke-width="2" transform="matrix(1,0,0,-1,0.0,135.0)"/>
 <path d="M0,1 l0,-5" fill="none" stroke="rgb(204,204,204)" stroke-width="2" transform="matrix(1,0,0,-1,7.0,135.0)"/>
 <path d="M0,1 l0,-5" fill="none" stroke="rgb(204,204,204)" stroke-width="2" transform="matrix(1,0,0,-1,120.0,135.0)"/>
 <path d="M377,650 l-401,0 l0,-77 l401,0 Z M252,103 c114,0,181,62,216,117 l12,-10 l234,-226 l79,54 l-121,116 c-49,45,-80,67,-110,89 l1,4 c140,-5,267,73,267,226 c0,96,-61,187,-185,187 c-96,0,-164,-66,-164,-145 c0,-61,33,-109,92,-125 l57,60 c-36,9,-54,37,-54,66 c0,36,26,65,71,65 c45,0,87,-37,87,-109 c0,-93,-73,-148,-171,-148 c-30,0,-69,5,-102,18 l-56,-73 l2,-2 c-6,-9,-13,-19,-22,-28 l-199,160 c20,12,45,19,71,19 c21,0,44,-2,66,-10 l-4,84 c-23,6,-45,8,-71,8 c-106,0,-207,-77,-207,-200 c0,-123,94,-197,211,-197 Z M259,183 c-80,0,-127,50,-127,119 c0,22,5,41,15,58 l193,-157 c-22,-12,-49,-20,-81,-20 Z M940,0 l95,0 l0,573 l116,0 l0,77 l-211,0 Z M940,0" fill="rgb(0,0,0)" transform="matrix(0.1,0.0,0.0,-0.1,7.0,135.0)"/>
</svg>