<?xml version="1.0" encoding="UTF-8"?>
<svg height="200.0" version="1.1" width="122.0" xmlns="http://www.w3.org/2000/svg" xmlns:xlink="http://www.w3.org/1999/xlink">
 <path d="M0,0 l122,0 l0,200 l-122,0 Z M0,0" fill="rgb(255,255,255)" transform="matrix(1,0,0,-1,0.0,200.0)"/>
 <path d="M0,0 l122,0" fill="none" stroke="rgb(229,229,229)" stroke-width="2" transform="matrix(1,0,0,-1,0.0,135.0)"/>
 <path d="M0,1 l0,-5" fill="none" stroke="rgb(204,204,204)" stroke-width="2" transform="matrix(1,0,0,-1,7.0,135.0)"/>
 <path d="M0,1 l0,-5" fill="none" stroke="rgb(204,204,204)" stroke-width="2" transform="matrix(1,0,0,-1,113.0,135.0)"/>
 <path d="M258,182 c-76,0,-125,50,-125,119 c0,22,5,41,15,58 l191,-154 c-22,-14,-48,-23,-81,-23 Z M252,102 c111,0,179,66,214,122 l184,-237 l77,49 l-109,140 c-31,39,-51,61,-73,85 l1,3 c8,-2,20,-2,27,-2 c30,2,58,11,80,28 c35,-16,87,-27,139,-27 c34,0,61,3,84,8 l0,-271 l95,0 l0,573 l116,0 l0,77 l-1111,0 l0,-77 l626,0 l0,-176 c0,-43,-22,-61,-59,-61 c-42,0,-65,23,-87,49 l-71,-57 l26,-33 c-6,-13,-16,-32,-31,-52 l-194,155 c21,13,45,20,71,20 c21,0,44,-2,66,-10 l-4,84 c-23,6,-45,8,-71,8 c-106,0,-207,-78,-207,-202 c0,-123,94,-196,211,-196 Z M784,346 c-33,0,-65,4,-91,11 c2,11,3,22,3,35 l0,181 l180,0 l0,-213 c-26,-9,-58,-14,-92,-14 Z M784,346" fill="rgb(0,0,0)" transform="matrix(0.1,0.0,0.0,-0.1,7.0,135.0)"/>
</svg>