<?xml version="1.0" encoding="UTF-8"?>
<svg height="200.0" version="1.1" width="102.0" xmlns="http://www.w3.org/2000/svg" xmlns:xlink="http://www.w3.org/1999/xlink">
 <path d="M0,0 l102,0 l0,200 l-102,0 Z M0,0" fill="rgb(255,255,255)" transform="matrix(1,0,0,-1,0.0,200.0)"/>
 <path d="M0,0 l102,0" fill="none" stroke="rgb(229,229,229)" stroke-width="2" transform="matrix(1,0,0,-1,0.0,135.0)"/>
 <path d="M0,1 l0,-5" fill="none" stroke="rgb(204,204,204)" stroke-width="2" transform="matrix(1,0,0,-1,7.0,135.0)"/>
 <path d="M0,1 l0,-5" fill="none" stroke="rgb(204,204,204)" stroke-width="2" transform="matrix(1,0,0,-1,94.0,135.0)"/>
 <path d="M498,223 l0,97 l186,0 l0,-320 l94,0 l0,573 l116,0 l0,77 l-560,0 l0,-77 l350,0 l0,-170 l-249,0 l-68,-51 l0,-3 l-157,0 l0,161 c0,94,-58,140,-149,140 l-85,0 l0,-77 l69,0 c52,0,72,-20,72,-69 l0,-159 l-51,-38 c1,-45,25,-110,67,-144 l75,0 l0,102 l179,0 c15,-28,36,-50,59,-63 Z M498,223" fill="rgb(0,0,0)" transform="matrix(0.1,0.0,0.0,-0.1,7.0,135.0)"/>
</svg>