<?xml version="1.0" encoding="UTF-8"?>
<svg height="200.0" version="1.1" width="112.0" xmlns="http://www.w3.org/2000/svg" xmlns:xlink="http://www.w3.org/1999/xlink">
 <path d="M0,0 l112,0 l0,200 l-112,0 Z M0,0" fill="rgb(255,255,255)" transform="matrix(1,0,0,-1,0.0,200.0)"/>
 <path d="M0,0 l112,0" fill="none" stroke="rgb(229,229,229)" stroke-width="2" transform="matrix(1,0,0,-1,0.0,135.0)"/>
 <path d="M0,1 l0,-5" fill="none" stroke="rgb(204,204,204)" stroke-width="2" transform="matrix(1,0,0,-1,7.0,135.0)"/>
 <path d="M0,1 l0,-5" fill="none" stroke="rgb(204,204,204)" stroke-width="2" transform="matrix(1,0,0,-1,103.0,135.0)"/>
 <path d="M772,194 l4,0 l0,-194 l95,0 l0,573 l116,0 l0,77 l-650,0 l0,-77 l154,0 c24,-23,39,-60,39,-91 c0,-42,-24,-70,-65,-89 l-252,0 l0,117 c0,94,-59,140,-149,140 l-88,0 l0,-77 l72,0 c52,0,72,-20,72,-69 l0,-115 l-51,-38 c1,-45,24,-111,67,-144 l75,0 l0,102 l189,0 c5,-17,11,-34,18,-49 l-326,-214 l79,-62 l290,213 c41,-43,97,-67,160,-67 c83,0,131,40,151,64 Z M495,331 c74,17,131,67,131,137 c0,41,-14,75,-41,101 l0,4 l192,0 l0,-210 c0,-94,-57,-150,-142,-150 c-90,0,-132,63,-140,118 Z M495,331" fill="rgb(0,0,0)" transform="matrix(0.1,0.0,0.0,-0.1,7.0,135.0)"/>
</svg>