<?xml version="1.0" encoding="UTF-8"?>
<svg height="200.0" version="1.1" width="122.0" xmlns="http://www.w3.org/2000/svg" xmlns:xlink="http://www.w3.org/1999/xlink">
 <path d="M0,0 l122,0 l0,200 l-122,0 Z M0,0" fill="rgb(255,255,255)" transform="matrix(1,0,0,-1,0.0,200.0)"/>
 <path d="M0,0 l122,0" fill="none" stroke="rgb(229,229,229)" stroke-width="2" transform="matrix(1,0,0,-1,0.0,135.0)"/>
 <path d="M0,1 l0,-5" fill="none" stroke="rgb(204,204,204)" stroke-width="2" transform="matrix(1,0,0,-1,7.0,135.0)"/>
 <path d="M0,1 l0,-5" fill="none" stroke="rgb(204,204,204)" stroke-width="2" transform="matrix(1,0,0,-1,114.0,135.0)"/>
 <path d="M875,433 c-16,17,-46,30,-81,30 c-47,0,-92,-28,-106,-82 l-4,0 c-17,48,-60,78,-124,78 c-65,0,-130,-37,-156,-110 l-194,0 l0,161 c0,94,-58,140,-149,140 l-85,0 l0,-77 l69,0 c52,0,72,-20,72,-69 l0,-159 l-51,-38 c1,-45,25,-110,67,-144 l75,0 l0,102 l184,0 c4,-122,80,-222,181,-275 l63,65 c-102,54,-148,132,-148,215 c0,77,39,106,81,106 c45,0,74,-30,74,-90 l0,-97 l89,0 l0,95 c0,64,29,95,77,95 c28,0,57,-15,70,-27 l0,-352 l95,0 l0,573 l116,0 l0,77 l-756,0 l0,-77 l545,0 l0,-140 Z M875,433" fill="rgb(0,0,0)" transform="matrix(0.1,0.0,0.0,-0.1,7.0,135.0)"/>
</svg>