<?xml version="1.0" encoding="UTF-8"?>
<svg height="200.0" version="1.1" width="102.0" xmlns="http://www.w3.org/2000/svg" xmlns:xlink="http://www.w3.org/1999/xlink">
 <path d="M0,0 l102,0 l0,200 l-102,0 Z M0,0" fill="rgb(255,255,255)" transform="matrix(1,0,0,-1,0.0,200.0)"/>
 <path d="M0,0 l102,0" fill="none" stroke="rgb(229,229,229)" stroke-width="2" transform="matrix(1,0,0,-1,0.0,135.0)"/>
 <path d="M0,1 l0,-5" fill="none" stroke="rgb(204,204,204)" stroke-width="2" transform="matrix(1,0,0,-1,7.0,135.0)"/>
 <path d="M0,1 l0,-5" fill="none" stroke="rgb(204,204,204)" stroke-width="2" transform="matrix(1,0,0,-1,95.0,135.0)"/>
 <path d="M754,419 l0,154 l147,0 l0,77 l-925,0 l0,-77 l141,0 l0,-228 l-51,-38 c1,-45,25,-110,67,-144 l75,0 l0,102 l179,0 c8,-112,105,-201,238,-201 c31,0,64,6,89,16 l71,-131 l109,27 l-115,144 c19,19,37,46,37,86 c0,48,-32,76,-59,90 l-65,-25 l0,-99 c-17,-15,-45,-24,-80,-25 c-73,-1,-132,50,-132,119 c0,57,31,92,124,116 Z M659,573 l0,-88 l-111,-27 c-79,-20,-129,-56,-150,-109 l-188,0 l0,224 Z M659,573" fill="rgb(0,0,0)" transform="matrix(0.1,0.0,0.0,-0.1,7.0,135.0)"/>
</svg>