<?xml version="1.0" encoding="UTF-8"?>
<svg height="200.0" version="1.1" width="108.0" xmlns="http://www.w3.org/2000/svg" xmlns:xlink="http://www.w3.org/1999/xlink">
 <path d="M0,0 l108,0 l0,200 l-108,0 Z M0,0" fill="rgb(255,255,255)" transform="matrix(1,0,0,-1,0.0,200.0)"/>
 <path d="M0,0 l108,0" fill="none" stroke="rgb(229,229,229)" stroke-width="2" transform="matrix(1,0,0,-1,0.0,135.0)"/>
 <path d="M0,1 l0,-5" fill="none" stroke="rgb(204,204,204)" stroke-width="2" transform="matrix(1,0,0,-1,7.0,135.0)"/>
 <path d="M0,1 l0,-5" fill="none" stroke="rgb(204,204,204)" stroke-width="2" transform="matrix(1,0,0,-1,100.0,135.0)"/>
 <path d="M743,0 l93,0 l0,573 l116,0 l0,77 l-287,0 l0,-77 l78,0 l0,-224 l-202,0 l0,161 c0,94,-58,140,-149,140 l-416,0 l0,-77 l141,0 l0,-228 l-51,-38 c1,-45,25,-110,67,-144 l75,0 l0,102 l195,0 c10,-37,31,-78,61,-102 l75,0 l0,102 l204,0 Z M448,504 l0,-155 l-238,0 l0,224 l166,0 c52,0,72,-20,72,-69 Z M448,504" fill="rgb(0,0,0)" transform="matrix(0.1,0.0,0.0,-0.1,7.0,135.0)"/>
</svg>