<?xml version="1.0" encoding="UTF-8"?>
<svg height="200.0" version="1.1" width="104.0" xmlns="http://www.w3.org/2000/svg" xmlns:xlink="http://www.w3.org/1999/xlink">
 <path d="M0,0 l104,0 l0,200 l-104,0 Z M0,0" fill="rgb(255,255,255)" transform="matrix(1,0,0,-1,0.0,200.0)"/>
 <path d="M0,0 l104,0" fill="none" stroke="rgb(229,229,229)" stroke-width="2" transform="matrix(1,0,0,-1,0.0,135.0)"/>
 <path d="M0,1 l0,-5" fill="none" stroke="rgb(204,204,204)" stroke-width="2" transform="matrix(1,0,0,-1,7.0,135.0)"/>
 <path d="M0,1 l0,-5" fill="none" stroke="rgb(204,204,204)" stroke-width="2" transform="matrix(1,0,0,-1,97.0,135.0)"/>
 <path d="M807,573 l116,0 l0,77 l-947,0 l0,-77 l141,0 l0,-228 l-51,-38 c1,-45,25,-110,67,-144 l75,0 l0,102 l177,0 c14,-96,94,-157,187,-157 c72,0,116,31,136,55 l4,0 l0,-163 l95,0 Z M589,191 c-65,0,-107,44,-107,105 c0,84,77,119,152,99 l-7,85 c-103,18,-210,-26,-237,-131 l-180,0 l0,224 l502,0 l0,-245 c0,-76,-46,-137,-123,-137 Z M589,191" fill="rgb(0,0,0)" transform="matrix(0.1,0.0,0.0,-0.1,7.0,135.0)"/>
</svg>