<?xml version="1.0" encoding="UTF-8"?>
<svg height="200.0" version="1.1" width="112.0" xmlns="http://www.w3.org/2000/svg" xmlns:xlink="http://www.w3.org/1999/xlink">
 <path d="M0,0 l112,0 l0,200 l-112,0 Z M0,0" fill="rgb(255,255,255)" transform="matrix(1,0,0,-1,0.0,200.0)"/>
 <path d="M0,0 l112,0" fill="none" stroke="rgb(229,229,229)" stroke-width="2" transform="matrix(1,0,0,-1,0.0,135.0)"/>
 <path d="M0,1 l0,-5" fill="none" stroke="rgb(204,204,204)" stroke-width="2" transform="matrix(1,0,0,-1,7.0,135.0)"/>
 <path d="M0,1 l0,-5" fill="none" stroke="rgb(204,204,204)" stroke-width="2" transform="matrix(1,0,0,-1,105.0,135.0)"/>
 <path d="M284,130 c83,0,143,30,186,75 c42,-49,100,-75,168,-75 c83,0,131,40,151,64 l4,0 l0,-194 l94,0 l0,573 l117,0 l0,77 l-1028,0 l0,-77 l167,0 c24,-23,39,-60,39,-91 c0,-63,-53,-94,-141,-112 c13,-156,117,-240,243,-240 Z M290,213 c-93,0,-135,64,-143,118 c73,17,131,67,131,137 c0,41,-15,75,-42,101 l0,4 l272,0 c24,-23,39,-60,39,-91 c0,-63,-53,-94,-141,-112 c3,-33,10,-64,20,-91 c-26,-34,-67,-66,-136,-66 Z M512,331 c73,17,131,67,131,137 c0,41,-15,75,-42,101 l0,4 l192,0 l0,-210 c0,-94,-56,-150,-142,-150 c-89,0,-131,63,-139,118 Z M512,331" fill="rgb(0,0,0)" transform="matrix(0.1,0.0,0.0,-0.1,7.0,135.0)"/>
</svg>