<?xml version="1.0" encoding="UTF-8"?>
<svg height="200.0" version="1.1" width="96.0" xmlns="http://www.w3.org/2000/svg" xmlns:xlink="http://www.w3.org/1999/xlink">
 <path d="M0,0 l96,0 l0,200 l-96,0 Z M0,0" fill="rgb(255,255,255)" transform="matrix(1,0,0,-1,0.0,200.0)"/>
 <path d="M0,0 l96,0" fill="none" stroke="rgb(229,229,229)" stroke-width="2" transform="matrix(1,0,0,-1,0.0,135.0)"/>
 <path d="M0,1 l0,-5" fill="none" stroke="rgb(204,204,204)" stroke-width="2" transform="matrix(1,0,0,-1,8.0,135.0)"/>
 <path d="M0,1 l0,-5" fill="none" stroke="rgb(204,204,204)" stroke-width="2" transform="matrix(1,0,0,-1,88.0,135.0)"/>
 <path d="M229,370 c-29,-11,-62,-18,-97,-18 c-66,0,-105,23,-129,40 l-32,-64 c23,-21,82,-55,163,-55 c43,0,80,7,111,17 c35,-102,116,-160,216,-160 c83,0,131,40,151,64 l4,0 l0,-194 l95,0 l0,573 l116,0 l0,77 l-851,0 l0,-77 l355,0 c24,-23,39,-60,39,-91 c0,-63,-53,-94,-141,-112 Z M335,331 c73,17,131,67,131,137 c0,41,-15,75,-41,101 l0,4 l192,0 l0,-210 c0,-94,-57,-150,-143,-150 c-89,0,-131,63,-139,118 Z M335,331" fill="rgb(0,0,0)" transform="matrix(0.1,0.0,0.0,-0.1,8.0,135.0)"/>
</svg>