<?xml version="1.0" encoding="UTF-8"?>
<svg height="200.0" version="1.1" width="84.0" xmlns="http://www.w3.org/2000/svg" xmlns:xlink="http://www.w3.org/1999/xlink">
 <path d="M0,0 l84,0 l0,200 l-84,0 Z M0,0" fill="rgb(255,255,255)" transform="matrix(1,0,0,-1,0.0,200.0)"/>
 <path d="M0,0 l84,0" fill="none" stroke="rgb(229,229,229)" stroke-width="2" transform="matrix(1,0,0,-1,0.0,135.0)"/>
 <path d="M0,1 l0,-5" fill="none" stroke="rgb(204,204,204)" stroke-width="2" transform="matrix(1,0,0,-1,8.0,135.0)"/>
 <path d="M0,1 l0,-5" fill="none" stroke="rgb(204,204,204)" stroke-width="2" transform="matrix(1,0,0,-1,77.0,135.0)"/>
 <path d="M597,49 c25,26,49,63,49,113 c0,74,-56,142,-167,142 c-33,0,-64,-5,-91,-14 c-31,18,-52,46,-52,75 c0,24,14,43,58,43 l216,0 l0,165 l107,0 l0,77 l-741,0 l0,-77 l542,0 l0,-87 l-146,0 c-82,0,-130,-44,-130,-107 c0,-4,0,-8,1,-12 c-33,-14,-70,-24,-111,-24 c-66,0,-106,24,-130,41 l-31,-65 c23,-21,81,-54,163,-54 c56,0,104,13,139,28 c13,-16,28,-29,45,-39 c-41,-32,-65,-77,-65,-124 c0,-134,131,-207,321,-222 l41,79 c-206,13,-268,71,-268,139 c0,57,52,99,134,99 c50,0,77,-25,77,-57 c0,-28,-17,-51,-41,-72 Z M597,49" fill="rgb(0,0,0)" transform="matrix(0.1,0.0,0.0,-0.1,8.0,135.0)"/>
</svg>