<?xml version="1.0" encoding="UTF-8"?>
<svg height="200.0" version="1.1" width="180.0" xmlns="http://www.w3.org/2000/svg" xmlns:xlink="http://www.w3.org/1999/xlink">
 <path d="M0,0 l180,0 l0,200 l-180,0 Z M0,0" fill="rgb(255,255,255)" transform="matrix(1,0,0,-1,0.0,200.0)"/>
 <path d="M0,0 l180,0" fill="none" stroke="rgb(229,229,229)" stroke-width="2" transform="matrix(1,0,0,-1,0.0,135.0)"/>
 <path d="M0,1 l0,-5" fill="none" stroke="rgb(204,204,204)" stroke-width="2" transform="matrix(1,0,0,-1,7.0,135.0)"/>
 <path d="M0,1 l0,-5" fill="none" stroke="rgb(204,204,204)" stroke-width="2" transform="matrix(1,0,0,-1,172.0,135.0)"/>
 <path d="M214,459 c-84,0,-168,-62,-168,-186 c0,-125,78,-229,182,-283 l63,65 c-102,54,-148,132,-148,215 c0,77,39,105,80,105 c46,0,75,-29,75,-88 l0,-98 l89,0 l0,98 c0,60,31,92,79,92 c19,0,34,-5,47,-11 c-8,-21,-13,-45,-13,-72 c0,-106,81,-177,175,-177 c66,0,105,29,124,52 l4,0 l0,-171 l93,0 l0,274 c0,72,45,114,105,114 c39,0,63,-18,76,-43 c22,-136,113,-215,229,-215 c83,0,131,40,151,64 l4,0 l0,-194 l95,0 l0,573 l116,0 l0,77 l-1696,0 l0,-77 l827,0 l0,-257 c0,-67,-44,-115,-109,-115 c-58,0,-98,40,-98,95 c0,80,70,109,136,96 l-15,84 c-58,7,-114,-8,-154,-41 c-26,17,-59,29,-102,29 c-64,0,-105,-37,-118,-83 l-4,0 c-17,48,-61,78,-125,78 Z M1019,472 c-58,0,-99,-26,-119,-51 l-4,0 l0,152 l280,0 c24,-23,39,-60,39,-91 c0,-42,-23,-69,-64,-88 c-27,50,-73,78,-132,78 Z M1180,331 c74,17,131,67,131,137 c0,41,-14,75,-41,101 l0,4 l192,0 l0,-210 c0,-94,-57,-150,-142,-150 c-90,0,-132,63,-140,118 Z M1180,331" fill="rgb(0,0,0)" transform="matrix(0.1,0.0,0.0,-0.1,7.0,135.0)"/>
</svg>