<?xml version="1.0" encoding="UTF-8"?>
<svg height="200.0" version="1.1" width="142.0" xmlns="http://www.w3.org/2000/svg" xmlns:xlink="http://www.w3.org/1999/xlink">
 <path d="M0,0 l142,0 l0,200 l-142,0 Z M0,0" fill="rgb(255,255,255)" transform="matrix(1,0,0,-1,0.0,200.0)"/>
 <path d="M0,0 l142,0" fill="none" stroke="rgb(229,229,229)" stroke-width="2" transform="matrix(1,0,0,-1,0.0,135.0)"/>
 <path d="M0,1 l0,-5" fill="none" stroke="rgb(204,204,204)" stroke-width="2" transform="matrix(1,0,0,-1,7.0,135.0)"/>
 <path d="M0,1 l0,-5" fill="none" stroke="rgb(204,204,204)" stroke-width="2" transform="matrix(1,0,0,-1,134.0,135.0)"/>
 <path d="M214,459 c-84,0,-168,-62,-168,-186 c0,-125,78,-229,182,-283 l63,65 c-102,54,-148,132,-148,215 c0,77,39,105,80,105 c46,0,75,-29,75,-88 l0,-98 l89,0 l0,98 c0,60,31,92,79,92 c17,0,32,-3,42,-9 c20,-188,138,-348,345,-348 c116,0,194,51,233,97 l4,0 l0,-119 l88,0 l0,573 l117,0 l0,77 l-1319,0 l0,-77 l719,0 l0,-161 c0,-39,-20,-54,-46,-54 c-32,0,-50,18,-62,45 l-6,18 c-26,24,-64,43,-120,43 c-64,0,-105,-37,-118,-83 l-4,0 c-17,48,-61,78,-125,78 Z M1086,465 c-18,16,-45,30,-94,30 c-87,0,-158,-66,-158,-157 c0,-93,72,-145,141,-151 l49,59 c-60,3,-103,38,-103,90 c0,48,34,81,83,81 c47,0,88,-36,88,-101 c0,-131,-106,-215,-234,-215 c-119,0,-210,74,-238,192 c11,-5,26,-9,48,-9 c67,0,118,45,118,133 l0,156 l304,0 l0,-108 Z M1086,465" fill="rgb(0,0,0)" transform="matrix(0.1,0.0,0.0,-0.1,7.0,135.0)"/>
</svg>