<?xml version="1.0" encoding="UTF-8"?>
<svg height="200.0" version="1.1" width="126.0" xmlns="http://www.w3.org/2000/svg" xmlns:xlink="http://www.w3.org/1999/xlink">
 <path d="M0,0 l126,0 l0,200 l-126,0 Z M0,0" fill="rgb(255,255,255)" transform="matrix(1,0,0,-1,0.0,200.0)"/>
 <path d="M0,0 l126,0" fill="none" stroke="rgb(229,229,229)" stroke-width="2" transform="matrix(1,0,0,-1,0.0,135.0)"/>
 <path d="M0,1 l0,-5" fill="none" stroke="rgb(204,204,204)" stroke-width="2" transform="matrix(1,0,0,-1,7.0,135.0)"/>
 <path d="M0,1 l0,-5" fill="none" stroke="rgb(204,204,204)" stroke-width="2" transform="matrix(1,0,0,-1,118.0,135.0)"/>
 <path d="M214,472 c-85,0,-168,-63,-168,-187 c0,-125,78,-233,181,-288 l63,66 c-101,54,-147,136,-147,219 c0,77,38,107,80,107 c45,0,75,-29,75,-88 l0,-98 l89,0 l0,99 c0,59,26,93,72,93 c28,0,47,-14,58,-26 l91,0 l0,-4 c-20,-15,-50,-47,-50,-108 c0,-87,71,-165,192,-165 c99,0,152,45,174,74 l4,0 l0,-166 l94,0 l0,573 l116,0 l0,77 l-1162,0 l0,-77 l952,0 l0,-220 c0,-112,-66,-178,-159,-178 c-71,0,-113,41,-113,95 c0,60,41,100,115,100 l73,0 l0,82 l-312,0 c-16,13,-45,26,-79,26 c-62,0,-99,-40,-110,-84 l-4,0 c-17,48,-61,78,-125,78 Z M214,472" fill="rgb(0,0,0)" transform="matrix(0.1,0.0,0.0,-0.1,7.0,135.0)"/>
</svg>