<?xml version="1.0" encoding="UTF-8"?>
<svg height="200.0" version="1.1" width="112.0" xmlns="http://www.w3.org/2000/svg" xmlns:xlink="http://www.w3.org/1999/xlink">
 <path d="M0,0 l112,0 l0,200 l-112,0 Z M0,0" fill="rgb(255,255,255)" transform="matrix(1,0,0,-1,0.0,200.0)"/>
 <path d="M0,0 l112,0" fill="none" stroke="rgb(229,229,229)" stroke-width="2" transform="matrix(1,0,0,-1,0.0,135.0)"/>
 <path d="M0,1 l0,-5" fill="none" stroke="rgb(204,204,204)" stroke-width="2" transform="matrix(1,0,0,-1,7.0,135.0)"/>
 <path d="M0,1 l0,-5" fill="none" stroke="rgb(204,204,204)" stroke-width="2" transform="matrix(1,0,0,-1,104.0,135.0)"/>
 <path d="M214,459 c-84,0,-168,-62,-168,-186 c0,-125,78,-229,182,-283 l63,65 c-102,54,-148,132,-148,215 c0,77,39,105,80,105 c46,0,75,-29,75,-88 l0,-98 l89,0 l0,98 c0,60,31,92,79,92 c27,0,48,-10,63,-21 c-16,-25,-24,-56,-24,-93 c0,-120,104,-229,252,-229 c73,0,146,21,203,77 l-50,76 c-43,-45,-93,-69,-164,-69 c-96,0,-146,65,-146,127 c0,56,18,91,117,119 l145,41 l0,166 l136,0 l0,77 l-1022,0 l0,-77 l790,0 l0,-100 l-106,-32 c-27,-8,-50,-17,-70,-29 c-27,27,-69,52,-129,52 c-64,0,-105,-37,-118,-83 l-4,0 c-17,48,-61,78,-125,78 Z M214,459" fill="rgb(0,0,0)" transform="matrix(0.1,0.0,0.0,-0.1,7.0,135.0)"/>
</svg>