<?xml version="1.0" encoding="UTF-8"?>
<svg height="200.0" version="1.1" width="120.0" xmlns="http://www.w3.org/2000/svg" xmlns:xlink="http://www.w3.org/1999/xlink">
 <path d="M0,0 l120,0 l0,200 l-120,0 Z M0,0" fill="rgb(255,255,255)" transform="matrix(1,0,0,-1,0.0,200.0)"/>
 <path d="M0,0 l120,0" fill="none" stroke="rgb(229,229,229)" stroke-width="2" transform="matrix(1,0,0,-1,0.0,135.0)"/>
 <path d="M0,1 l0,-5" fill="none" stroke="rgb(204,204,204)" stroke-width="2" transform="matrix(1,0,0,-1,7.0,135.0)"/>
 <path d="M0,1 l0,-5" fill="none" stroke="rgb(204,204,204)" stroke-width="2" transform="matrix(1,0,0,-1,111.0,135.0)"/>
 <path d="M214,459 c-84,0,-168,-62,-168,-186 c0,-125,78,-229,182,-283 l63,65 c-102,54,-148,132,-148,215 c0,77,39,105,80,105 c46,0,75,-29,75,-88 l0,-98 l89,0 l0,98 c0,60,31,92,79,92 c27,0,49,-10,63,-21 c-17,-26,-25,-57,-25,-94 c0,-124,104,-228,250,-228 c151,0,247,98,247,215 c0,106,-73,168,-141,201 l0,121 l209,0 l0,77 l-1093,0 l0,-77 l789,0 l0,-101 l-105,-32 c-27,-8,-50,-17,-70,-28 c-23,25,-66,52,-129,52 c-64,0,-105,-37,-118,-83 l-4,0 c-17,48,-61,78,-125,78 Z M743,120 c-97,0,-145,65,-145,127 c0,56,19,91,118,120 l80,22 c47,-15,113,-57,113,-131 c0,-73,-54,-138,-166,-138 Z M743,120" fill="rgb(0,0,0)" transform="matrix(0.1,0.0,0.0,-0.1,7.0,135.0)"/>
</svg>