<?xml version="1.0" encoding="UTF-8"?>
<svg height="200.0" version="1.1" width="116.0" xmlns="http://www.w3.org/2000/svg" xmlns:xlink="http://www.w3.org/1999/xlink">
 <path d="M0,0 l116,0 l0,200 l-116,0 Z M0,0" fill="rgb(255,255,255)" transform="matrix(1,0,0,-1,0.0,200.0)"/>
 <path d="M0,0 l116,0" fill="none" stroke="rgb(229,229,229)" stroke-width="2" transform="matrix(1,0,0,-1,0.0,135.0)"/>
 <path d="M0,1 l0,-5" fill="none" stroke="rgb(204,204,204)" stroke-width="2" transform="matrix(1,0,0,-1,7.0,135.0)"/>
 <path d="M0,1 l0,-5" fill="none" stroke="rgb(204,204,204)" stroke-width="2" transform="matrix(1,0,0,-1,108.0,135.0)"/>
 <path d="M214,459 c-84,0,-168,-62,-168,-186 c0,-125,78,-229,182,-283 l63,65 c-102,54,-148,132,-148,215 c0,77,39,105,80,105 c46,0,75,-29,75,-88 l0,-98 l89,0 l0,98 c0,60,33,92,83,92 c42,0,73,-20,88,-35 c15,-61,65,-114,135,-140 l150,34 c16,-13,25,-34,25,-57 c0,-60,-46,-95,-116,-95 c-84,0,-154,55,-195,136 l-65,-52 c49,-89,135,-164,259,-164 c125,0,206,78,206,176 c0,68,-37,122,-87,142 l-165,-35 c-35,11,-57,44,-57,72 c0,31,13,48,72,48 l183,0 l0,164 l129,0 l0,77 l-1056,0 l0,-77 l834,0 l0,-86 l-137,0 c-51,0,-87,-19,-106,-51 c-26,17,-59,28,-101,28 c-62,0,-110,-37,-123,-83 l-4,0 c-17,48,-61,78,-125,78 Z M214,459" fill="rgb(0,0,0)" transform="matrix(0.1,0.0,0.0,-0.1,7.0,135.0)"/>
</svg>