<?xml version="1.0" encoding="UTF-8"?>
<svg height="200.0" version="1.1" width="114.0" xmlns="http://www.w3.org/2000/svg" xmlns:xlink="http://www.w3.org/1999/xlink">
 <path d="M0,0 l114,0 l0,200 l-114,0 Z M0,0" fill="rgb(255,255,255)" transform="matrix(1,0,0,-1,0.0,200.0)"/>
 <path d="M0,0 l114,0" fill="none" stroke="rgb(229,229,229)" stroke-width="2" transform="matrix(1,0,0,-1,0.0,135.0)"/>
 <path d="M0,1 l0,-5" fill="none" stroke="rgb(204,204,204)" stroke-width="2" transform="matrix(1,0,0,-1,7.0,135.0)"/>
 <path d="M0,1 l0,-5" fill="none" stroke="rgb(204,204,204)" stroke-width="2" transform="matrix(1,0,0,-1,107.0,135.0)"/>
 <path d="M214,459 c-84,0,-168,-62,-168,-186 c0,-125,78,-229,182,-283 l63,65 c-102,54,-148,132,-148,215 c0,77,39,105,80,105 c46,0,75,-29,75,-88 l0,-98 l89,0 l0,98 c0,60,31,92,79,92 c26,0,46,-9,60,-19 c-14,-26,-22,-56,-22,-89 c0,-136,121,-241,264,-241 c110,0,182,72,182,160 c0,72,-59,130,-132,130 c-84,0,-125,-58,-129,-104 l66,-45 c-3,37,18,67,56,67 c30,0,50,-22,50,-50 c0,-43,-33,-75,-93,-75 c-102,0,-168,75,-168,147 c0,58,24,100,118,124 l168,43 l0,146 l137,0 l0,77 l-1047,0 l0,-77 l814,0 l0,-80 l-126,-36 c-31,-9,-59,-21,-82,-37 c-27,24,-66,44,-121,44 c-64,0,-105,-37,-118,-83 l-4,0 c-17,48,-61,78,-125,78 Z M214,459" fill="rgb(0,0,0)" transform="matrix(0.1,0.0,0.0,-0.1,7.0,135.0)"/>
</svg>