<?xml version="1.0" encoding="UTF-8"?>
<svg height="200.0" version="1.1" width="130.0" xmlns="http://www.w3.org/2000/svg" xmlns:xlink="http://www.w3.org/1999/xlink">
 <path d="M0,0 l130,0 l0,200 l-130,0 Z M0,0" fill="rgb(255,255,255)" transform="matrix(1,0,0,-1,0.0,200.0)"/>
 <path d="M0,0 l130,0" fill="none" stroke="rgb(229,229,229)" stroke-width="2" transform="matrix(1,0,0,-1,0.0,135.0)"/>
 <path d="M0,1 l0,-5" fill="none" stroke="rgb(204,204,204)" stroke-width="2" transform="matrix(1,0,0,-1,7.0,135.0)"/>
 <path d="M0,1 l0,-5" fill="none" stroke="rgb(204,204,204)" stroke-width="2" transform="matrix(1,0,0,-1,122.0,135.0)"/>
 <path d="M484,650 l-508,0 l0,-77 l508,0 Z M457,377 c39,0,60,-24,68,-59 c20,-130,113,-222,252,-222 c104,0,164,51,187,85 l4,0 l0,-181 l93,0 l0,573 l116,0 l0,77 l-209,0 l0,-282 c0,-98,-59,-187,-183,-187 c-109,0,-147,85,-152,124 c20,5,39,9,58,15 c122,33,193,94,193,192 c0,86,-59,148,-155,148 c-91,0,-153,-61,-153,-136 c0,-39,15,-69,32,-87 l85,25 c-16,15,-25,38,-25,57 c0,38,26,60,61,60 c39,0,62,-25,62,-65 c0,-53,-30,-94,-159,-130 l-42,-11 c-16,49,-60,89,-130,89 c-58,0,-104,-36,-117,-82 l-4,0 c-17,48,-61,79,-125,79 c-84,0,-168,-62,-168,-186 c0,-125,78,-229,182,-283 l63,65 c-102,54,-148,132,-148,215 c0,77,39,105,80,105 c46,0,75,-29,75,-88 l0,-98 l89,0 l0,99 c0,60,29,89,70,89 Z M457,377" fill="rgb(0,0,0)" transform="matrix(0.1,0.0,0.0,-0.1,7.0,135.0)"/>
</svg>