<?xml version="1.0" encoding="UTF-8"?>
<svg height="200.0" version="1.1" width="168.0" xmlns="http://www.w3.org/2000/svg" xmlns:xlink="http://www.w3.org/1999/xlink">
 <path d="M0,0 l168,0 l0,200 l-168,0 Z M0,0" fill="rgb(255,255,255)" transform="matrix(1,0,0,-1,0.0,200.0)"/>
 <path d="M0,0 l168,0" fill="none" stroke="rgb(229,229,229)" stroke-width="2" transform="matrix(1,0,0,-1,0.0,135.0)"/>
 <path d="M0,1 l0,-5" fill="none" stroke="rgb(204,204,204)" stroke-width="2" transform="matrix(1,0,0,-1,7.0,135.0)"/>
 <path d="M0,1 l0,-5" fill="none" stroke="rgb(204,204,204)" stroke-width="2" transform="matrix(1,0,0,-1,160.0,135.0)"/>
 <path d="M488,650 l-512,0 l0,-77 l512,0 Z M454,373 c33,0,50,-20,60,-55 c21,-129,120,-221,261,-221 c128,0,201,54,244,110 c42,-50,101,-77,169,-77 c84,0,131,40,152,64 l4,0 l0,-194 l94,0 l0,573 l116,0 l0,77 l-596,0 l0,-77 l101,0 c24,-23,39,-60,39,-91 c0,-63,-53,-94,-141,-112 c3,-31,9,-60,18,-85 c-28,-49,-89,-104,-191,-104 c-111,0,-158,83,-163,124 c21,5,41,9,61,15 c121,34,198,98,198,192 c0,86,-62,148,-157,148 c-91,0,-152,-61,-152,-136 c0,-39,14,-69,32,-87 l84,25 c-15,15,-24,38,-24,57 c0,38,25,60,60,60 c38,0,64,-25,64,-65 c0,-52,-37,-93,-166,-130 l-43,-12 c-23,56,-65,86,-125,86 c-52,0,-97,-33,-110,-77 l-4,0 c-17,48,-61,78,-125,78 c-84,0,-168,-62,-168,-186 c0,-125,78,-229,182,-283 l63,65 c-102,54,-148,132,-148,215 c0,77,39,105,80,105 c46,0,75,-29,75,-88 l0,-98 l89,0 l0,98 c0,62,30,86,67,86 Z M1063,331 c73,17,131,67,131,137 c0,41,-15,75,-42,101 l0,4 l192,0 l0,-210 c0,-94,-57,-150,-142,-150 c-89,0,-131,63,-139,118 Z M1063,331" fill="rgb(0,0,0)" transform="matrix(0.1,0.0,0.0,-0.1,7.0,135.0)"/>
</svg>