<?xml version="1.0" encoding="UTF-8"?>
<svg height="200.0" version="1.1" width="114.0" xmlns="http://www.w3.org/2000/svg" xmlns:xlink="http://www.w3.org/1999/xlink">
 <path d="M0,0 l114,0 l0,200 l-114,0 Z M0,0" fill="rgb(255,255,255)" transform="matrix(1,0,0,-1,0.0,200.0)"/>
 <path d="M0,0 l114,0" fill="none" stroke="rgb(229,229,229)" stroke-width="2" transform="matrix(1,0,0,-1,0.0,135.0)"/>
 <path d="M0,1 l0,-5" fill="none" stroke="rgb(204,204,204)" stroke-width="2" transform="matrix(1,0,0,-1,7.0,135.0)"/>
 <path d="M0,1 l0,-5" fill="none" stroke="rgb(204,204,204)" stroke-width="2" transform="matrix(1,0,0,-1,107.0,135.0)"/>
 <path d="M214,459 c-84,0,-168,-62,-168,-186 c0,-125,78,-229,182,-283 l63,65 c-102,54,-148,132,-148,215 c0,77,39,105,80,105 c46,0,75,-29,75,-88 l0,-98 l89,0 l0,98 c0,60,31,92,79,92 c24,0,43,-8,57,-17 c-11,-23,-17,-50,-17,-81 c0,-107,78,-192,180,-200 l0,-4 l-172,-97 l80,-68 l241,170 l66,-129 l109,27 l-112,143 c19,20,37,42,37,85 c0,48,-31,76,-59,90 l-65,-24 l0,-100 c-19,-16,-45,-25,-82,-25 c-75,0,-129,50,-129,116 c0,60,28,94,122,118 l152,38 l0,152 l149,0 l0,77 l-1047,0 l0,-77 l803,0 l0,-86 l-111,-29 c-35,-9,-65,-21,-88,-36 c-27,23,-66,42,-119,42 c-64,0,-105,-37,-118,-83 l-4,0 c-17,48,-61,78,-125,78 Z M214,459" fill="rgb(0,0,0)" transform="matrix(0.1,0.0,0.0,-0.1,7.0,135.0)"/>
</svg>