<?xml version="1.0" encoding="UTF-8"?>
<svg height="200.0" version="1.1" width="114.0" xmlns="http://www.w3.org/2000/svg" xmlns:xlink="http://www.w3.org/1999/xlink">
 <path d="M0,0 l114,0 l0,200 l-114,0 Z M0,0" fill="rgb(255,255,255)" transform="matrix(1,0,0,-1,0.0,200.0)"/>
 <path d="M0,0 l114,0" fill="none" stroke="rgb(229,229,229)" stroke-width="2" transform="matrix(1,0,0,-1,0.0,135.0)"/>
 <path d="M0,1 l0,-5" fill="none" stroke="rgb(204,204,204)" stroke-width="2" transform="matrix(1,0,0,-1,7.0,135.0)"/>
 <path d="M0,1 l0,-5" fill="none" stroke="rgb(204,204,204)" stroke-width="2" transform="matrix(1,0,0,-1,106.0,135.0)"/>
 <path d="M286,50 c-99,54,-143,131,-143,212 c0,77,39,106,80,106 c46,0,75,-30,75,-89 l0,-97 l89,0 l0,97 c0,60,31,92,79,92 c5,0,12,0,17,-1 c0,-80,34,-133,78,-158 l52,21 l0,96 l185,0 l0,-329 l95,0 l0,573 l116,0 l0,77 l-1033,0 l0,-77 l822,0 l0,-160 l-218,0 c-28,23,-66,43,-119,43 c-64,0,-105,-36,-118,-83 l-4,0 c-17,48,-61,78,-125,78 c-84,0,-168,-62,-168,-186 c0,-122,74,-224,176,-280 Z M286,50" fill="rgb(0,0,0)" transform="matrix(0.1,0.0,0.0,-0.1,7.0,135.0)"/>
</svg>