<?xml version="1.0" encoding="UTF-8"?>
<svg height="200.0" version="1.1" width="142.0" xmlns="http://www.w3.org/2000/svg" xmlns:xlink="http://www.w3.org/1999/xlink">
 <path d="M0,0 l142,0 l0,200 l-142,0 Z M0,0" fill="rgb(255,255,255)" transform="matrix(1,0,0,-1,0.0,200.0)"/>
 <path d="M0,0 l142,0" fill="none" stroke="rgb(229,229,229)" stroke-width="2" transform="matrix(1,0,0,-1,0.0,135.0)"/>
 <path d="M0,1 l0,-5" fill="none" stroke="rgb(204,204,204)" stroke-width="2" transform="matrix(1,0,0,-1,7.0,135.0)"/>
 <path d="M0,1 l0,-5" fill="none" stroke="rgb(204,204,204)" stroke-width="2" transform="matrix(1,0,0,-1,133.0,135.0)"/>
 <path d="M214,459 c-84,0,-168,-62,-168,-186 c0,-125,78,-229,182,-283 l63,65 c-102,54,-148,132,-148,215 c0,77,39,105,80,105 c46,0,75,-29,75,-88 l0,-98 l89,0 l0,98 c0,60,31,92,79,92 c35,0,60,-17,75,-31 c0,-99,60,-161,162,-161 c63,0,102,27,119,51 l4,0 l0,-238 l93,0 l0,262 c0,75,47,130,117,130 c57,0,96,-37,96,-94 c0,-68,-52,-117,-135,-101 l14,-85 c118,-13,217,61,217,187 c0,107,-78,176,-175,176 c-70,0,-113,-34,-130,-56 l-4,0 l0,154 l370,0 l0,77 l-1313,0 l0,-77 l565,0 l0,-126 c-22,10,-48,17,-80,17 c-64,0,-105,-37,-118,-83 l-4,0 c-17,48,-61,78,-125,78 Z M826,390 c0,-70,-39,-119,-110,-119 c-54,0,-80,28,-80,96 l0,206 l190,0 Z M826,390" fill="rgb(0,0,0)" transform="matrix(0.1,0.0,0.0,-0.1,7.0,135.0)"/>
</svg>