<?xml version="1.0" encoding="UTF-8"?>
<svg height="200.0" version="1.1" width="124.0" xmlns="http://www.w3.org/2000/svg" xmlns:xlink="http://www.w3.org/1999/xlink">
 <path d="M0,0 l124,0 l0,200 l-124,0 Z M0,0" fill="rgb(255,255,255)" transform="matrix(1,0,0,-1,0.0,200.0)"/>
 <path d="M0,0 l124,0" fill="none" stroke="rgb(229,229,229)" stroke-width="2" transform="matrix(1,0,0,-1,0.0,135.0)"/>
 <path d="M0,1 l0,-5" fill="none" stroke="rgb(204,204,204)" stroke-width="2" transform="matrix(1,0,0,-1,7.0,135.0)"/>
 <path d="M0,1 l0,-5" fill="none" stroke="rgb(204,204,204)" stroke-width="2" transform="matrix(1,0,0,-1,116.0,135.0)"/>
 <path d="M901,194 l0,-194 l94,0 l0,573 l116,0 l0,77 l-1135,0 l0,-77 l640,0 c24,-23,39,-60,39,-91 c0,-45,-27,-73,-74,-92 c-21,39,-61,72,-121,72 c-59,0,-104,-37,-117,-82 l-4,0 c-17,48,-61,79,-125,79 c-84,0,-168,-62,-168,-186 c0,-125,78,-229,182,-283 l63,65 c-102,54,-148,132,-148,215 c0,77,39,105,80,105 c46,0,75,-29,75,-88 l0,-98 l89,0 l0,99 c0,60,29,89,70,89 c39,0,57,-26,63,-52 l1,0 c26,-123,114,-195,224,-195 c84,0,131,40,152,64 Z M619,331 c74,17,131,67,131,137 c0,41,-14,75,-41,101 l0,4 l192,0 l0,-210 c0,-94,-57,-150,-142,-150 c-90,0,-132,63,-140,118 Z M619,331" fill="rgb(0,0,0)" transform="matrix(0.1,0.0,0.0,-0.1,7.0,135.0)"/>
</svg>