<?xml version="1.0" encoding="UTF-8"?>
<svg height="200.0" version="1.1" width="168.0" xmlns="http://www.w3.org/2000/svg" xmlns:xlink="http://www.w3.org/1999/xlink">
 <path d="M0,0 l168,0 l0,200 l-168,0 Z M0,0" fill="rgb(255,255,255)" transform="matrix(1,0,0,-1,0.0,200.0)"/>
 <path d="M0,0 l168,0" fill="none" stroke="rgb(229,229,229)" stroke-width="2" transform="matrix(1,0,0,-1,0.0,135.0)"/>
 <path d="M0,1 l0,-5" fill="none" stroke="rgb(204,204,204)" stroke-width="2" transform="matrix(1,0,0,-1,7.0,135.0)"/>
 <path d="M0,1 l0,-5" fill="none" stroke="rgb(204,204,204)" stroke-width="2" transform="matrix(1,0,0,-1,161.0,135.0)"/>
 <path d="M214,459 c-84,0,-168,-62,-168,-186 c0,-125,78,-229,182,-283 l63,65 c-102,54,-148,132,-148,215 c0,77,39,105,80,105 c46,0,75,-29,75,-88 l0,-98 l89,0 l0,98 c0,60,31,92,79,92 c24,0,43,-8,58,-17 c-12,-25,-18,-55,-18,-89 c0,-125,78,-229,182,-283 l62,65 c-101,54,-148,132,-148,215 c0,77,39,105,81,105 c45,0,75,-29,75,-88 l0,-98 l88,0 l0,98 c0,59,28,90,67,90 c32,0,48,-19,56,-43 c24,-129,113,-204,227,-204 c83,0,130,40,151,64 l4,0 l0,-194 l94,0 l0,573 l117,0 l0,77 l-1586,0 l0,-77 l1090,0 c24,-23,39,-60,39,-91 c0,-44,-26,-73,-72,-92 c-23,47,-60,72,-119,72 c-55,0,-99,-36,-112,-82 l-4,0 c-16,49,-60,79,-124,79 c-36,0,-71,-11,-100,-33 c-26,21,-63,38,-113,38 c-64,0,-105,-37,-118,-83 l-4,0 c-17,48,-61,78,-125,78 Z M1070,331 c73,17,131,67,131,137 c0,41,-15,75,-42,101 l0,4 l192,0 l0,-210 c0,-94,-56,-150,-142,-150 c-89,0,-131,63,-139,118 Z M1070,331" fill="rgb(0,0,0)" transform="matrix(0.1,0.0,0.0,-0.1,7.0,135.0)"/>
</svg>