<?xml version="1.0" encoding="UTF-8"?>
<svg height="200.0" version="1.1" width="116.0" xmlns="http://www.w3.org/2000/svg" xmlns:xlink="http://www.w3.org/1999/xlink">
 <path d="M0,0 l116,0 l0,200 l-116,0 Z M0,0" fill="rgb(255,255,255)" transform="matrix(1,0,0,-1,0.0,200.0)"/>
 <path d="M0,0 l116,0" fill="none" stroke="rgb(229,229,229)" stroke-width="2" transform="matrix(1,0,0,-1,0.0,135.0)"/>
 <path d="M0,1 l0,-5" fill="none" stroke="rgb(204,204,204)" stroke-width="2" transform="matrix(1,0,0,-1,7.0,135.0)"/>
 <path d="M0,1 l0,-5" fill="none" stroke="rgb(204,204,204)" stroke-width="2" transform="matrix(1,0,0,-1,109.0,135.0)"/>
 <path d="M214,459 c-84,0,-168,-62,-168,-186 c0,-125,78,-229,182,-283 l63,65 c-102,54,-148,132,-148,215 c0,77,39,105,80,105 c46,0,75,-29,75,-88 l0,-98 l89,0 l0,98 c0,60,31,92,79,92 c18,0,34,-5,47,-11 c-8,-21,-13,-46,-13,-73 c0,-113,87,-187,189,-187 c72,0,116,31,136,55 l4,0 l0,-163 l95,0 l0,573 l116,0 l0,77 l-1064,0 l0,-77 l853,0 l0,-245 c0,-76,-46,-137,-123,-137 c-65,0,-107,44,-107,105 c0,84,77,119,152,99 l-7,85 c-67,12,-136,-3,-183,-44 c-26,16,-58,28,-100,28 c-64,0,-105,-37,-118,-83 l-4,0 c-17,48,-61,78,-125,78 Z M214,459" fill="rgb(0,0,0)" transform="matrix(0.1,0.0,0.0,-0.1,7.0,135.0)"/>
</svg>