<?xml version="1.0" encoding="UTF-8"?>
<svg height="200.0" version="1.1" width="148.0" xmlns="http://www.w3.org/2000/svg" xmlns:xlink="http://www.w3.org/1999/xlink">
 <path d="M0,0 l148,0 l0,200 l-148,0 Z M0,0" fill="rgb(255,255,255)" transform="matrix(1,0,0,-1,0.0,200.0)"/>
 <path d="M0,0 l148,0" fill="none" stroke="rgb(229,229,229)" stroke-width="2" transform="matrix(1,0,0,-1,0.0,135.0)"/>
 <path d="M0,1 l0,-5" fill="none" stroke="rgb(204,204,204)" stroke-width="2" transform="matrix(1,0,0,-1,7.0,135.0)"/>
 <path d="M0,1 l0,-5" fill="none" stroke="rgb(204,204,204)" stroke-width="2" transform="matrix(1,0,0,-1,140.0,135.0)"/>
 <path d="M214,459 c-84,0,-168,-62,-168,-186 c0,-125,78,-229,182,-283 l63,65 c-102,54,-148,132,-148,215 c0,77,39,105,80,105 c46,0,75,-29,75,-88 l0,-98 l89,0 l0,98 c0,60,31,92,79,92 c18,0,34,-5,47,-11 c-8,-21,-13,-46,-13,-73 c0,-114,88,-187,199,-187 c55,0,94,15,124,37 c50,-74,141,-139,254,-139 c125,0,204,78,204,176 c0,68,-37,122,-87,142 l-161,-35 c-35,12,-57,44,-57,72 c0,31,13,48,72,48 l179,0 l0,164 l129,0 l0,77 l-1380,0 l0,-77 l1158,0 l0,-86 l-133,0 c-76,0,-120,-43,-120,-106 c0,-75,56,-145,139,-176 l147,33 c16,-13,25,-34,25,-57 c0,-60,-44,-94,-114,-94 c-85,0,-151,51,-198,118 c1,0,1,1,2,2 l-39,57 l-17,0 c-21,-35,-53,-73,-119,-73 c-65,0,-108,42,-108,105 c0,67,49,105,110,104 c14,0,27,-1,42,-5 l-8,85 c-14,3,-29,4,-43,4 c-50,1,-102,-15,-140,-48 c-25,16,-57,28,-99,28 c-64,0,-105,-37,-118,-83 l-4,0 c-17,48,-61,78,-125,78 Z M214,459" fill="rgb(0,0,0)" transform="matrix(0.1,0.0,0.0,-0.1,7.0,135.0)"/>
</svg>