<?xml version="1.0" encoding="UTF-8"?>
<svg height="200.0" version="1.1" width="132.0" xmlns="http://www.w3.org/2000/svg" xmlns:xlink="http://www.w3.org/1999/xlink">
 <path d="M0,0 l132,0 l0,200 l-132,0 Z M0,0" fill="rgb(255,255,255)" transform="matrix(1,0,0,-1,0.0,200.0)"/>
 <path d="M0,0 l132,0" fill="none" stroke="rgb(229,229,229)" stroke-width="2" transform="matrix(1,0,0,-1,0.0,135.0)"/>
 <path d="M0,1 l0,-5" fill="none" stroke="rgb(204,204,204)" stroke-width="2" transform="matrix(1,0,0,-1,7.0,135.0)"/>
 <path d="M0,1 l0,-5" fill="none" stroke="rgb(204,204,204)" stroke-width="2" transform="matrix(1,0,0,-1,123.0,135.0)"/>
 <path d="M214,459 c-84,0,-168,-62,-168,-186 c0,-125,78,-229,182,-283 l63,65 c-102,54,-148,132,-148,215 c0,77,39,105,80,105 c46,0,75,-29,75,-88 l0,-98 l89,0 l0,98 c0,61,32,93,77,93 c36,0,60,-21,68,-45 l-32,-27 l249,-321 l77,49 l-109,140 c-31,39,-51,61,-73,85 l1,3 c8,-2,20,-2,27,-2 c30,2,58,11,80,28 c35,-16,86,-27,139,-27 c34,0,61,3,84,8 l0,-271 l95,0 l0,573 l116,0 l0,77 l-1210,0 l0,-77 l724,0 l0,-176 c0,-43,-21,-61,-58,-61 c-9,0,-16,1,-23,2 c-15,82,-76,127,-156,127 c-63,0,-107,-38,-120,-84 l-4,0 c-17,48,-61,78,-125,78 Z M883,346 c-33,0,-65,4,-91,11 c2,11,3,22,3,35 l0,181 l180,0 l0,-213 c-26,-9,-58,-14,-92,-14 Z M883,346" fill="rgb(0,0,0)" transform="matrix(0.1,0.0,0.0,-0.1,7.0,135.0)"/>
</svg>