<?xml version="1.0" encoding="UTF-8"?>
<svg height="200.0" version="1.1" width="100.0" xmlns="http://www.w3.org/2000/svg" xmlns:xlink="http://www.w3.org/1999/xlink">
 <path d="M0,0 l100,0 l0,200 l-100,0 Z M0,0" fill="rgb(255,255,255)" transform="matrix(1,0,0,-1,0.0,200.0)"/>
 <path d="M0,0 l100,0" fill="none" stroke="rgb(229,229,229)" stroke-width="2" transform="matrix(1,0,0,-1,0.0,135.0)"/>
 <path d="M0,1 l0,-5" fill="none" stroke="rgb(204,204,204)" stroke-width="2" transform="matrix(1,0,0,-1,7.0,135.0)"/>
 <path d="M0,1 l0,-5" fill="none" stroke="rgb(204,204,204)" stroke-width="2" transform="matrix(1,0,0,-1,91.0,135.0)"/>
 <path d="M239,108 c97,0,154,47,188,97 l46,18 l0,97 l186,0 l0,-320 l94,0 l0,573 l116,0 l0,77 l-893,0 l0,-77 l683,0 l0,-170 l-249,0 l-68,-51 c0,-35,8,-66,22,-91 c-20,-35,-56,-69,-117,-69 c-64,0,-108,41,-108,104 c0,67,49,105,110,104 c14,0,27,-1,42,-5 l-7,85 c-15,3,-30,4,-43,4 c-99,1,-201,-59,-201,-189 c0,-114,90,-187,199,-187 Z M239,108" fill="rgb(0,0,0)" transform="matrix(0.1,0.0,0.0,-0.1,7.0,135.0)"/>
</svg>