<?xml version="1.0" encoding="UTF-8"?>
<svg height="200.0" version="1.1" width="102.0" xmlns="http://www.w3.org/2000/svg" xmlns:xlink="http://www.w3.org/1999/xlink">
 <path d="M0,0 l102,0 l0,200 l-102,0 Z M0,0" fill="rgb(255,255,255)" transform="matrix(1,0,0,-1,0.0,200.0)"/>
 <path d="M0,0 l102,0" fill="none" stroke="rgb(229,229,229)" stroke-width="2" transform="matrix(1,0,0,-1,0.0,135.0)"/>
 <path d="M0,1 l0,-5" fill="none" stroke="rgb(204,204,204)" stroke-width="2" transform="matrix(1,0,0,-1,7.0,135.0)"/>
 <path d="M0,1 l0,-5" fill="none" stroke="rgb(204,204,204)" stroke-width="2" transform="matrix(1,0,0,-1,95.0,135.0)"/>
 <path d="M784,573 l116,0 l0,77 l-924,0 l0,-77 l713,0 l0,-245 c0,-76,-46,-137,-123,-137 c-65,0,-107,44,-107,105 c0,84,77,119,152,99 l-7,85 c-119,21,-244,-42,-244,-185 c0,-12,1,-25,3,-36 c-20,-34,-56,-67,-116,-67 c-64,0,-108,41,-108,104 c0,67,49,105,110,104 c14,0,27,-1,42,-5 l-7,85 c-15,3,-30,4,-43,4 c-99,1,-201,-59,-201,-189 c0,-114,90,-187,199,-187 c76,0,128,29,163,66 c35,-42,89,-66,147,-66 c72,0,116,31,136,55 l4,0 l0,-163 l95,0 Z M784,573" fill="rgb(0,0,0)" transform="matrix(0.1,0.0,0.0,-0.1,7.0,135.0)"/>
</svg>