<?xml version="1.0" encoding="UTF-8"?>
<svg height="200.0" version="1.1" width="98.0" xmlns="http://www.w3.org/2000/svg" xmlns:xlink="http://www.w3.org/1999/xlink">
 <path d="M0,0 l98,0 l0,200 l-98,0 Z M0,0" fill="rgb(255,255,255)" transform="matrix(1,0,0,-1,0.0,200.0)"/>
 <path d="M0,0 l98,0" fill="none" stroke="rgb(229,229,229)" stroke-width="2" transform="matrix(1,0,0,-1,0.0,135.0)"/>
 <path d="M0,1 l0,-5" fill="none" stroke="rgb(204,204,204)" stroke-width="2" transform="matrix(1,0,0,-1,7.0,135.0)"/>
 <path d="M0,1 l0,-5" fill="none" stroke="rgb(204,204,204)" stroke-width="2" transform="matrix(1,0,0,-1,91.0,135.0)"/>
 <path d="M438,234 c-52,-52,-100,-74,-174,-74 c-69,0,-118,44,-118,107 c0,67,45,109,114,109 c14,0,30,-1,45,-6 l-8,86 c-14,2,-32,4,-45,4 c-102,0,-205,-64,-205,-194 c0,-114,94,-189,209,-189 c58,0,104,12,140,31 c14,-120,141,-186,320,-200 l41,79 c-206,13,-268,71,-268,139 c0,57,52,99,134,99 c50,0,77,-25,77,-57 c0,-28,-17,-51,-41,-72 l80,-47 c25,26,49,63,49,113 c0,74,-56,142,-167,142 c-33,0,-64,-5,-91,-14 c-31,18,-52,46,-52,75 c0,24,14,43,58,43 l216,0 l0,165 l107,0 l0,77 l-883,0 l0,-77 l684,0 l0,-87 l-146,0 c-82,0,-130,-44,-130,-107 c0,-54,32,-98,76,-125 c-8,-6,-15,-13,-22,-20 Z M438,234" fill="rgb(0,0,0)" transform="matrix(0.1,0.0,0.0,-0.1,7.0,135.0)"/>
</svg>