<?xml version="1.0" encoding="UTF-8"?>
<svg height="200.0" version="1.1" width="136.0" xmlns="http://www.w3.org/2000/svg" xmlns:xlink="http://www.w3.org/1999/xlink">
 <path d="M0,0 l136,0 l0,200 l-136,0 Z M0,0" fill="rgb(255,255,255)" transform="matrix(1,0,0,-1,0.0,200.0)"/>
 <path d="M0,0 l136,0" fill="none" stroke="rgb(229,229,229)" stroke-width="2" transform="matrix(1,0,0,-1,0.0,135.0)"/>
 <path d="M0,1 l0,-5" fill="none" stroke="rgb(204,204,204)" stroke-width="2" transform="matrix(1,0,0,-1,5.0,135.0)"/>
 <path d="M0,1 l0,-5" fill="none" stroke="rgb(204,204,204)" stroke-width="2" transform="matrix(1,0,0,-1,129.0,135.0)"/>
 <path d="M237,450 c-36,9,-53,37,-53,66 c0,36,26,65,71,65 c45,0,87,-37,87,-109 c0,-93,-73,-148,-171,-148 c-31,0,-70,5,-103,18 l-55,-73 l74,-59 l235,-226 l79,54 l-121,116 c-49,45,-81,67,-110,89 l1,4 c140,-5,267,73,267,226 c0,96,-61,187,-186,187 c-96,0,-163,-66,-163,-145 c0,-61,33,-109,92,-125 Z M1105,297 c0,-76,-65,-108,-135,-95 l15,-84 c110,-14,216,53,216,180 c0,107,-79,176,-174,176 c-63,0,-104,-28,-124,-52 l-4,0 l0,151 l366,0 l0,77 l-749,0 l0,-77 l289,0 l0,-257 c0,-67,-43,-115,-108,-115 c-58,0,-98,40,-98,95 c0,77,66,109,135,96 l-14,84 c-111,13,-217,-53,-217,-180 c0,-106,80,-177,175,-177 c66,0,105,29,123,52 l4,0 l0,-171 l94,0 l0,277 c0,68,44,116,109,116 c57,0,97,-39,97,-96 Z M1105,297" fill="rgb(0,0,0)" transform="matrix(0.1,0.0,0.0,-0.1,5.0,135.0)"/>
</svg>