<?xml version="1.0" encoding="UTF-8"?>
<svg height="200.0" version="1.1" width="128.0" xmlns="http://www.w3.org/2000/svg" xmlns:xlink="http://www.w3.org/1999/xlink">
 <path d="M0,0 l128,0 l0,200 l-128,0 Z M0,0" fill="rgb(255,255,255)" transform="matrix(1,0,0,-1,0.0,200.0)"/>
 <path d="M0,0 l128,0" fill="none" stroke="rgb(229,229,229)" stroke-width="2" transform="matrix(1,0,0,-1,0.0,135.0)"/>
 <path d="M0,1 l0,-5" fill="none" stroke="rgb(204,204,204)" stroke-width="2" transform="matrix(1,0,0,-1,5.0,135.0)"/>
 <path d="M0,1 l0,-5" fill="none" stroke="rgb(204,204,204)" stroke-width="2" transform="matrix(1,0,0,-1,121.0,135.0)"/>
 <path d="M787,34 c196,0,323,150,323,292 c0,73,-35,128,-91,150 l0,97 l163,0 l0,77 l-683,0 l0,-77 l89,0 l0,-4 c-17,-14,-45,-42,-45,-98 c0,-60,37,-108,99,-122 l0,-4 c-42,-16,-84,-55,-84,-129 c0,-96,82,-182,229,-182 Z M963,298 c-37,7,-58,29,-58,61 c0,31,23,51,53,51 c36,0,64,-28,64,-83 c0,-116,-104,-211,-230,-211 c-90,0,-136,47,-136,104 c0,51,33,85,97,88 l21,0 l0,81 l-35,0 c-63,0,-98,36,-98,88 c0,57,41,96,106,96 l182,0 l0,-87 c-69,-11,-114,-64,-114,-126 c0,-63,42,-106,91,-119 Z M237,450 c-36,9,-53,37,-53,66 c0,36,26,65,71,65 c45,0,87,-37,87,-109 c0,-93,-73,-148,-171,-148 c-31,0,-70,5,-103,18 l-55,-73 l74,-59 l235,-226 l79,54 l-121,116 c-49,45,-81,67,-110,89 l1,4 c140,-5,267,73,267,226 c0,96,-61,187,-186,187 c-96,0,-163,-66,-163,-145 c0,-61,33,-109,92,-125 Z M237,450" fill="rgb(0,0,0)" transform="matrix(0.1,0.0,0.0,-0.1,5.0,135.0)"/>
</svg>