<?xml version="1.0" encoding="UTF-8"?>
<svg height="200.0" version="1.1" width="130.0" xmlns="http://www.w3.org/2000/svg" xmlns:xlink="http://www.w3.org/1999/xlink">
 <path d="M0,0 l130,0 l0,200 l-130,0 Z M0,0" fill="rgb(255,255,255)" transform="matrix(1,0,0,-1,0.0,200.0)"/>
 <path d="M0,0 l130,0" fill="none" stroke="rgb(229,229,229)" stroke-width="2" transform="matrix(1,0,0,-1,0.0,135.0)"/>
 <path d="M0,1 l0,-5" fill="none" stroke="rgb(204,204,204)" stroke-width="2" transform="matrix(1,0,0,-1,5.0,135.0)"/>
 <path d="M0,1 l0,-5" fill="none" stroke="rgb(204,204,204)" stroke-width="2" transform="matrix(1,0,0,-1,123.0,135.0)"/>
 <path d="M992,433 c-16,17,-46,30,-81,30 c-47,0,-92,-28,-106,-82 l-4,0 c-16,48,-60,78,-124,78 c-85,0,-168,-62,-168,-186 c0,-125,78,-229,181,-283 l63,65 c-101,54,-148,132,-148,215 c0,77,39,106,81,106 c45,0,74,-30,74,-90 l0,-97 l89,0 l0,95 c0,64,29,95,77,95 c28,0,57,-15,70,-27 l0,-352 l95,0 l0,573 l116,0 l0,77 l-717,0 l0,-77 l506,0 l0,-140 Z M237,450 c-36,9,-53,37,-53,66 c0,36,26,65,71,65 c45,0,87,-37,87,-109 c0,-93,-73,-148,-171,-148 c-31,0,-70,5,-103,18 l-55,-73 l74,-59 l235,-226 l79,54 l-121,116 c-49,45,-81,67,-110,89 l1,4 c140,-5,267,73,267,226 c0,96,-61,187,-186,187 c-96,0,-163,-66,-163,-145 c0,-61,33,-109,92,-125 Z M237,450" fill="rgb(0,0,0)" transform="matrix(0.1,0.0,0.0,-0.1,5.0,135.0)"/>
</svg>