<?xml version="1.0" encoding="UTF-8"?>
<svg height="200.0" version="1.1" width="124.0" xmlns="http://www.w3.org/2000/svg" xmlns:xlink="http://www.w3.org/1999/xlink">
 <path d="M0,0 l124,0 l0,200 l-124,0 Z M0,0" fill="rgb(255,255,255)" transform="matrix(1,0,0,-1,0.0,200.0)"/>
 <path d="M0,0 l124,0" fill="none" stroke="rgb(229,229,229)" stroke-width="2" transform="matrix(1,0,0,-1,0.0,135.0)"/>
 <path d="M0,1 l0,-5" fill="none" stroke="rgb(204,204,204)" stroke-width="2" transform="matrix(1,0,0,-1,7.0,135.0)"/>
 <path d="M0,1 l0,-5" fill="none" stroke="rgb(204,204,204)" stroke-width="2" transform="matrix(1,0,0,-1,117.0,135.0)"/>
 <path d="M554,201 c-58,0,-98,40,-98,95 c0,77,66,109,136,96 l-15,84 c-84,10,-165,-25,-199,-98 l-199,195 l484,0 l0,-257 c0,-67,-43,-115,-109,-115 Z M272,261 c-58,0,-99,28,-99,97 l0,52 l-5,94 l63,-67 l130,-125 c-1,-5,-1,-11,-1,-16 l0,-3 c-22,-18,-51,-32,-88,-32 Z M962,297 c0,-76,-65,-108,-135,-95 l15,-84 c111,-14,216,53,216,180 c0,107,-79,176,-174,176 c-63,0,-103,-28,-124,-52 l-4,0 l0,151 l367,0 l0,77 l-1147,0 l0,-77 l106,0 l0,-224 c0,-107,70,-169,174,-169 c53,0,93,12,125,30 c30,-57,89,-91,154,-91 c66,0,105,29,124,52 l4,0 l0,-171 l93,0 l0,277 c0,68,44,116,110,116 c57,0,96,-39,96,-96 Z M962,297" fill="rgb(0,0,0)" transform="matrix(0.1,0.0,0.0,-0.1,7.0,135.0)"/>
</svg>