<?xml version="1.0" encoding="UTF-8"?>
<svg height="200.0" version="1.1" width="126.0" xmlns="http://www.w3.org/2000/svg" xmlns:xlink="http://www.w3.org/1999/xlink">
 <path d="M0,0 l126,0 l0,200 l-126,0 Z M0,0" fill="rgb(255,255,255)" transform="matrix(1,0,0,-1,0.0,200.0)"/>
 <path d="M0,0 l126,0" fill="none" stroke="rgb(229,229,229)" stroke-width="2" transform="matrix(1,0,0,-1,0.0,135.0)"/>
 <path d="M0,1 l0,-5" fill="none" stroke="rgb(204,204,204)" stroke-width="2" transform="matrix(1,0,0,-1,7.0,135.0)"/>
 <path d="M0,1 l0,-5" fill="none" stroke="rgb(204,204,204)" stroke-width="2" transform="matrix(1,0,0,-1,119.0,135.0)"/>
 <path d="M574,204 c-58,0,-98,40,-98,96 c0,67,52,109,136,95 l-15,84 c-92,11,-178,-34,-207,-113 l-211,207 l504,0 l0,-253 c0,-69,-45,-116,-109,-116 Z M272,261 c-58,0,-99,28,-99,97 l0,52 l-5,94 l63,-67 l138,-134 c-23,-23,-55,-42,-97,-42 Z M256,180 c64,0,110,17,144,42 c24,-46,68,-72,108,-78 l0,-4 l-138,-78 l75,-67 l234,174 l4,0 l0,-169 l93,0 l0,277 c0,68,44,116,110,116 c57,0,96,-39,96,-96 c0,-66,-52,-109,-135,-95 l15,-84 c115,-13,216,56,216,180 c0,107,-79,176,-174,176 c-63,0,-104,-28,-124,-52 l-4,0 l0,151 l366,0 l0,77 l-1166,0 l0,-77 l106,0 l0,-224 c0,-107,70,-169,174,-169 Z M256,180" fill="rgb(0,0,0)" transform="matrix(0.1,0.0,0.0,-0.1,7.0,135.0)"/>
</svg>