<?xml version="1.0" encoding="UTF-8"?>
<svg height="200.0" version="1.1" width="152.0" xmlns="http://www.w3.org/2000/svg" xmlns:xlink="http://www.w3.org/1999/xlink">
 <path d="M0,0 l152,0 l0,200 l-152,0 Z M0,0" fill="rgb(255,255,255)" transform="matrix(1,0,0,-1,0.0,200.0)"/>
 <path d="M0,0 l152,0" fill="none" stroke="rgb(229,229,229)" stroke-width="2" transform="matrix(1,0,0,-1,0.0,135.0)"/>
 <path d="M0,1 l0,-5" fill="none" stroke="rgb(204,204,204)" stroke-width="2" transform="matrix(1,0,0,-1,7.0,135.0)"/>
 <path d="M0,1 l0,-5" fill="none" stroke="rgb(204,204,204)" stroke-width="2" transform="matrix(1,0,0,-1,145.0,135.0)"/>
 <path d="M1286,0 l0,573 l116,0 l0,77 l-1426,0 l0,-77 l106,0 l0,-224 c0,-107,70,-169,174,-169 c50,0,88,10,119,27 c26,-97,120,-171,245,-171 c66,0,132,18,184,62 l-48,77 c-39,-33,-82,-55,-148,-55 c-95,0,-146,61,-146,123 c0,55,18,83,118,111 l144,41 c86,22,143,32,184,32 c47,0,70,-18,70,-49 c0,-29,-20,-61,-87,-95 l-60,-29 c22,-105,100,-182,214,-182 c68,0,120,35,142,62 l4,0 l0,-134 Z M1053,151 c-65,0,-99,40,-110,78 c71,31,122,83,122,148 c0,81,-68,128,-162,128 c-53,0,-130,-16,-179,-30 l0,98 l467,0 l0,-275 c0,-81,-47,-147,-138,-147 Z M179,573 l449,0 l0,-112 l-105,-32 c-59,-17,-100,-39,-125,-70 Z M272,261 c-58,0,-99,28,-99,97 l0,52 l-5,94 l63,-67 l138,-134 c-23,-23,-55,-42,-97,-42 Z M272,261" fill="rgb(0,0,0)" transform="matrix(0.1,0.0,0.0,-0.1,7.0,135.0)"/>
</svg>