<?xml version="1.0" encoding="UTF-8"?>
<svg height="200.0" version="1.1" width="104.0" xmlns="http://www.w3.org/2000/svg" xmlns:xlink="http://www.w3.org/1999/xlink">
 <path d="M0,0 l104,0 l0,200 l-104,0 Z M0,0" fill="rgb(255,255,255)" transform="matrix(1,0,0,-1,0.0,200.0)"/>
 <path d="M0,0 l104,0" fill="none" stroke="rgb(229,229,229)" stroke-width="2" transform="matrix(1,0,0,-1,0.0,135.0)"/>
 <path d="M0,1 l0,-5" fill="none" stroke="rgb(204,204,204)" stroke-width="2" transform="matrix(1,0,0,-1,7.0,135.0)"/>
 <path d="M0,1 l0,-5" fill="none" stroke="rgb(204,204,204)" stroke-width="2" transform="matrix(1,0,0,-1,97.0,135.0)"/>
 <path d="M256,180 c79,0,130,26,166,60 c14,-21,35,-41,61,-56 l0,-4 c-47,-23,-86,-62,-86,-137 c0,-96,74,-170,177,-170 c70,0,109,30,123,48 l4,0 l0,-110 l89,0 l0,354 c38,13,72,31,99,54 l-43,70 c-36,-29,-108,-66,-196,-66 c-108,0,-157,50,-157,95 c0,41,28,69,99,79 l198,28 l0,148 l132,0 l0,77 l-946,0 l0,-77 l106,0 l0,-224 c0,-107,70,-169,174,-169 Z M179,573 l521,0 l0,-85 l-147,-21 c-83,-11,-138,-52,-152,-111 Z M272,261 c-58,0,-99,28,-99,97 l0,52 l-5,94 l63,-67 l138,-134 c-23,-23,-55,-42,-97,-42 Z M592,-48 c-64,0,-103,40,-103,94 c0,54,36,100,118,100 c35,0,68,-5,95,-11 l0,-67 c0,-67,-40,-116,-110,-116 Z M592,-48" fill="rgb(0,0,0)" transform="matrix(0.1,0.0,0.0,-0.1,7.0,135.0)"/>
</svg>