<?xml version="1.0" encoding="UTF-8"?>
<svg height="200.0" version="1.1" width="106.0" xmlns="http://www.w3.org/2000/svg" xmlns:xlink="http://www.w3.org/1999/xlink">
 <path d="M0,0 l106,0 l0,200 l-106,0 Z M0,0" fill="rgb(255,255,255)" transform="matrix(1,0,0,-1,0.0,200.0)"/>
 <path d="M0,0 l106,0" fill="none" stroke="rgb(229,229,229)" stroke-width="2" transform="matrix(1,0,0,-1,0.0,135.0)"/>
 <path d="M0,1 l0,-5" fill="none" stroke="rgb(204,204,204)" stroke-width="2" transform="matrix(1,0,0,-1,7.0,135.0)"/>
 <path d="M0,1 l0,-5" fill="none" stroke="rgb(204,204,204)" stroke-width="2" transform="matrix(1,0,0,-1,98.0,135.0)"/>
 <path d="M179,573 l451,0 l0,-101 l-105,-32 c-61,-18,-104,-43,-129,-80 Z M272,261 c-58,0,-99,28,-99,97 l0,52 l-5,94 l63,-67 l138,-134 c-23,-23,-55,-42,-97,-42 Z M619,36 c151,0,247,98,247,215 c0,106,-73,168,-141,201 l0,121 l209,0 l0,77 l-958,0 l0,-77 l106,0 l0,-224 c0,-107,70,-169,174,-169 c50,0,89,11,120,27 c27,-97,120,-171,243,-171 Z M608,120 c-97,0,-145,65,-145,127 c0,56,19,91,118,120 l80,22 c47,-15,113,-57,113,-131 c0,-73,-54,-138,-166,-138 Z M608,120" fill="rgb(0,0,0)" transform="matrix(0.1,0.0,0.0,-0.1,7.0,135.0)"/>
</svg>