<?xml version="1.0" encoding="UTF-8"?>
<svg height="200.0" version="1.1" width="164.0" xmlns="http://www.w3.org/2000/svg" xmlns:xlink="http://www.w3.org/1999/xlink">
 <path d="M0,0 l164,0 l0,200 l-164,0 Z M0,0" fill="rgb(255,255,255)" transform="matrix(1,0,0,-1,0.0,200.0)"/>
 <path d="M0,0 l164,0" fill="none" stroke="rgb(229,229,229)" stroke-width="2" transform="matrix(1,0,0,-1,0.0,135.0)"/>
 <path d="M0,1 l0,-5" fill="none" stroke="rgb(204,204,204)" stroke-width="2" transform="matrix(1,0,0,-1,7.0,135.0)"/>
 <path d="M0,1 l0,-5" fill="none" stroke="rgb(204,204,204)" stroke-width="2" transform="matrix(1,0,0,-1,156.0,135.0)"/>
 <path d="M1302,118 l4,0 l0,-118 l94,0 l0,573 l117,0 l0,77 l-1541,0 l0,-77 l106,0 l0,-224 c0,-107,70,-169,174,-169 c50,0,89,11,120,27 c27,-97,120,-171,243,-171 c151,0,247,98,247,215 c0,46,-14,83,-35,114 c56,27,125,47,184,47 c59,0,78,-24,78,-53 c0,-35,-24,-57,-68,-79 l-80,-44 c23,-105,100,-181,214,-181 c69,0,120,36,143,63 Z M179,573 l451,0 l0,-101 l-105,-32 c-61,-18,-104,-43,-129,-80 Z M272,261 c-58,0,-99,28,-99,97 l0,52 l-5,94 l63,-67 l138,-134 c-23,-23,-55,-42,-97,-42 Z M1166,133 c-66,0,-99,38,-110,78 c66,34,123,75,123,148 c0,80,-70,133,-169,133 c-98,0,-194,-42,-241,-66 c-14,10,-29,19,-44,26 l0,121 l581,0 l0,-294 c0,-79,-52,-146,-140,-146 Z M608,120 c-97,0,-145,65,-145,127 c0,56,19,91,118,120 l80,22 c47,-15,113,-57,113,-131 c0,-73,-54,-138,-166,-138 Z M608,120" fill="rgb(0,0,0)" transform="matrix(0.1,0.0,0.0,-0.1,7.0,135.0)"/>
</svg>