<?xml version="1.0" encoding="UTF-8"?>
<svg height="200.0" version="1.1" width="104.0" xmlns="http://www.w3.org/2000/svg" xmlns:xlink="http://www.w3.org/1999/xlink">
 <path d="M0,0 l104,0 l0,200 l-104,0 Z M0,0" fill="rgb(255,255,255)" transform="matrix(1,0,0,-1,0.0,200.0)"/>
 <path d="M0,0 l104,0" fill="none" stroke="rgb(229,229,229)" stroke-width="2" transform="matrix(1,0,0,-1,0.0,135.0)"/>
 <path d="M0,1 l0,-5" fill="none" stroke="rgb(204,204,204)" stroke-width="2" transform="matrix(1,0,0,-1,7.0,135.0)"/>
 <path d="M0,1 l0,-5" fill="none" stroke="rgb(204,204,204)" stroke-width="2" transform="matrix(1,0,0,-1,96.0,135.0)"/>
 <path d="M256,180 c88,0,142,33,178,73 c29,-42,78,-65,138,-65 c59,0,106,22,132,58 l4,0 l0,-246 l95,0 l0,573 l116,0 l0,77 l-943,0 l0,-77 l106,0 l0,-224 c0,-107,70,-169,174,-169 Z M179,573 l226,0 l0,-215 c0,-2,0,-4,0,-6 Z M272,261 c-58,0,-99,28,-99,97 l0,52 l-5,94 l63,-67 l138,-134 c-23,-23,-55,-42,-97,-42 Z M708,408 c0,-81,-43,-137,-118,-137 c-58,0,-90,28,-90,97 l0,205 l208,0 Z M708,408" fill="rgb(0,0,0)" transform="matrix(0.1,0.0,0.0,-0.1,7.0,135.0)"/>
</svg>