<?xml version="1.0" encoding="UTF-8"?>
<svg height="200.0" version="1.1" width="106.0" xmlns="http://www.w3.org/2000/svg" xmlns:xlink="http://www.w3.org/1999/xlink">
 <path d="M0,0 l106,0 l0,200 l-106,0 Z M0,0" fill="rgb(255,255,255)" transform="matrix(1,0,0,-1,0.0,200.0)"/>
 <path d="M0,0 l106,0" fill="none" stroke="rgb(229,229,229)" stroke-width="2" transform="matrix(1,0,0,-1,0.0,135.0)"/>
 <path d="M0,1 l0,-5" fill="none" stroke="rgb(204,204,204)" stroke-width="2" transform="matrix(1,0,0,-1,7.0,135.0)"/>
 <path d="M0,1 l0,-5" fill="none" stroke="rgb(204,204,204)" stroke-width="2" transform="matrix(1,0,0,-1,98.0,135.0)"/>
 <path d="M179,573 l258,0 l0,-228 l-14,-10 Z M272,261 c-58,0,-99,28,-99,97 l0,52 l-5,94 l63,-67 l138,-135 c-23,-22,-55,-41,-97,-41 Z M815,0 l0,573 l117,0 l0,77 l-956,0 l0,-77 l106,0 l0,-224 c0,-107,70,-169,174,-169 c68,0,115,19,150,47 c11,-25,27,-48,47,-64 l75,0 l0,102 l194,0 l0,-265 Z M722,573 l0,-224 l-192,0 l0,224 Z M722,573" fill="rgb(0,0,0)" transform="matrix(0.1,0.0,0.0,-0.1,7.0,135.0)"/>
</svg>