<?xml version="1.0" encoding="UTF-8"?>
<svg height="200.0" version="1.1" width="142.0" xmlns="http://www.w3.org/2000/svg" xmlns:xlink="http://www.w3.org/1999/xlink">
 <path d="M0,0 l142,0 l0,200 l-142,0 Z M0,0" fill="rgb(255,255,255)" transform="matrix(1,0,0,-1,0.0,200.0)"/>
 <path d="M0,0 l142,0" fill="none" stroke="rgb(229,229,229)" stroke-width="2" transform="matrix(1,0,0,-1,0.0,135.0)"/>
 <path d="M0,1 l0,-5" fill="none" stroke="rgb(204,204,204)" stroke-width="2" transform="matrix(1,0,0,-1,7.0,135.0)"/>
 <path d="M0,1 l0,-5" fill="none" stroke="rgb(204,204,204)" stroke-width="2" transform="matrix(1,0,0,-1,135.0,135.0)"/>
 <path d="M256,180 c68,0,115,19,150,47 c11,-25,27,-48,47,-64 l75,0 l0,102 l202,0 c38,-87,114,-135,206,-135 c83,0,131,40,151,64 l4,0 l0,-194 l95,0 l0,573 l116,0 l0,77 l-1326,0 l0,-77 l106,0 l0,-224 c0,-107,70,-169,174,-169 Z M179,573 l258,0 l0,-228 l-14,-11 Z M272,261 c-58,0,-99,28,-99,97 l0,52 l-5,94 l63,-67 l137,-134 c-22,-23,-53,-42,-96,-42 Z M806,573 c24,-23,39,-60,39,-91 c0,-63,-53,-95,-141,-114 c1,-6,1,-13,2,-19 l-176,0 l0,224 Z M810,331 c73,17,131,67,131,137 c0,41,-14,75,-41,101 l0,4 l192,0 l0,-210 c0,-94,-57,-150,-142,-150 c-90,0,-132,63,-140,118 Z M810,331" fill="rgb(0,0,0)" transform="matrix(0.1,0.0,0.0,-0.1,7.0,135.0)"/>
</svg>