<?xml version="1.0" encoding="UTF-8"?>
<svg height="200.0" version="1.1" width="104.0" xmlns="http://www.w3.org/2000/svg" xmlns:xlink="http://www.w3.org/1999/xlink">
 <path d="M0,0 l104,0 l0,200 l-104,0 Z M0,0" fill="rgb(255,255,255)" transform="matrix(1,0,0,-1,0.0,200.0)"/>
 <path d="M0,0 l104,0" fill="none" stroke="rgb(229,229,229)" stroke-width="2" transform="matrix(1,0,0,-1,0.0,135.0)"/>
 <path d="M0,1 l0,-5" fill="none" stroke="rgb(204,204,204)" stroke-width="2" transform="matrix(1,0,0,-1,7.0,135.0)"/>
 <path d="M0,1 l0,-5" fill="none" stroke="rgb(204,204,204)" stroke-width="2" transform="matrix(1,0,0,-1,95.0,135.0)"/>
 <path d="M256,180 c56,0,98,14,130,34 c29,-66,96,-106,172,-106 c71,0,115,31,135,55 l4,0 l0,-163 l95,0 l0,573 l116,0 l0,77 l-932,0 l0,-77 l106,0 l0,-224 c0,-107,70,-169,174,-169 Z M574,191 c-64,0,-107,44,-107,105 c0,84,78,119,153,99 l-8,85 c-95,17,-192,-20,-229,-107 l-204,200 l518,0 l0,-245 c0,-76,-45,-137,-123,-137 Z M272,261 c-58,0,-99,28,-99,97 l0,52 l-5,94 l63,-67 l138,-134 c-24,-23,-55,-42,-97,-42 Z M272,261" fill="rgb(0,0,0)" transform="matrix(0.1,0.0,0.0,-0.1,7.0,135.0)"/>
</svg>