<?xml version="1.0" encoding="UTF-8"?>
<svg height="200.0" version="1.1" width="106.0" xmlns="http://www.w3.org/2000/svg" xmlns:xlink="http://www.w3.org/1999/xlink">
 <path d="M0,0 l106,0 l0,200 l-106,0 Z M0,0" fill="rgb(255,255,255)" transform="matrix(1,0,0,-1,0.0,200.0)"/>
 <path d="M0,0 l106,0" fill="none" stroke="rgb(229,229,229)" stroke-width="2" transform="matrix(1,0,0,-1,0.0,135.0)"/>
 <path d="M0,1 l0,-5" fill="none" stroke="rgb(204,204,204)" stroke-width="2" transform="matrix(1,0,0,-1,7.0,135.0)"/>
 <path d="M0,1 l0,-5" fill="none" stroke="rgb(204,204,204)" stroke-width="2" transform="matrix(1,0,0,-1,97.0,135.0)"/>
 <path d="M256,180 c86,0,140,31,176,70 c29,-45,81,-69,144,-69 c61,0,112,24,137,60 l4,0 l0,-241 l95,0 l0,573 l116,0 l0,77 l-952,0 l0,-77 l106,0 l0,-224 c0,-107,70,-169,174,-169 Z M272,261 c-58,0,-99,28,-99,97 l0,52 l-5,94 l63,-67 l138,-134 c-23,-23,-55,-42,-97,-42 Z M405,573 l0,-221 l-226,221 Z M596,261 c-58,0,-100,28,-100,97 l0,52 l-5,93 l65,-67 l135,-131 c-21,-29,-55,-44,-95,-44 Z M720,405 c0,-15,-2,-28,-6,-40 l-213,208 l219,0 Z M720,405" fill="rgb(0,0,0)" transform="matrix(0.1,0.0,0.0,-0.1,7.0,135.0)"/>
</svg>