<?xml version="1.0" encoding="UTF-8"?>
<svg height="200.0" version="1.1" width="136.0" xmlns="http://www.w3.org/2000/svg" xmlns:xlink="http://www.w3.org/1999/xlink">
 <path d="M0,0 l136,0 l0,200 l-136,0 Z M0,0" fill="rgb(255,255,255)" transform="matrix(1,0,0,-1,0.0,200.0)"/>
 <path d="M0,0 l136,0" fill="none" stroke="rgb(229,229,229)" stroke-width="2" transform="matrix(1,0,0,-1,0.0,135.0)"/>
 <path d="M0,1 l0,-5" fill="none" stroke="rgb(204,204,204)" stroke-width="2" transform="matrix(1,0,0,-1,7.0,135.0)"/>
 <path d="M0,1 l0,-5" fill="none" stroke="rgb(204,204,204)" stroke-width="2" transform="matrix(1,0,0,-1,129.0,135.0)"/>
 <path d="M412,346 c-32,0,-65,4,-91,12 c2,10,3,21,3,33 l0,182 l457,0 l0,-253 c0,-69,-45,-116,-109,-116 c-58,0,-98,40,-98,96 c0,67,52,109,136,95 l-15,84 c-97,11,-186,-39,-210,-125 c-22,-6,-47,-8,-73,-8 Z M174,264 c11,-2,27,-1,36,0 c26,3,51,11,70,26 c36,-18,87,-29,140,-29 c23,0,43,2,62,5 c15,-73,73,-114,124,-122 l0,-4 l-138,-78 l75,-67 l234,174 l4,0 l0,-169 l93,0 l0,277 c0,68,44,116,110,116 c57,0,96,-39,96,-96 c0,-66,-52,-109,-135,-95 l15,-84 c115,-13,216,56,216,180 c0,107,-79,176,-174,176 c-63,0,-104,-28,-124,-52 l-4,0 l0,151 l366,0 l0,77 l-1264,0 l0,-77 l254,0 l0,-176 c0,-43,-22,-61,-59,-61 c-42,0,-67,24,-87,49 l-71,-57 l265,-341 l77,49 l-109,140 c-31,39,-51,61,-73,85 Z M174,264" fill="rgb(0,0,0)" transform="matrix(0.1,0.0,0.0,-0.1,7.0,135.0)"/>
</svg>