<?xml version="1.0" encoding="UTF-8"?>
<svg height="200.0" version="1.1" width="138.0" xmlns="http://www.w3.org/2000/svg" xmlns:xlink="http://www.w3.org/1999/xlink">
 <path d="M0,0 l138,0 l0,200 l-138,0 Z M0,0" fill="rgb(255,255,255)" transform="matrix(1,0,0,-1,0.0,200.0)"/>
 <path d="M0,0 l138,0" fill="none" stroke="rgb(229,229,229)" stroke-width="2" transform="matrix(1,0,0,-1,0.0,135.0)"/>
 <path d="M0,1 l0,-5" fill="none" stroke="rgb(204,204,204)" stroke-width="2" transform="matrix(1,0,0,-1,7.0,135.0)"/>
 <path d="M0,1 l0,-5" fill="none" stroke="rgb(204,204,204)" stroke-width="2" transform="matrix(1,0,0,-1,131.0,135.0)"/>
 <path d="M412,346 c-32,0,-65,4,-91,12 c2,10,3,21,3,33 l0,182 l336,0 l0,-161 c0,-39,-20,-54,-46,-54 c-33,0,-51,19,-63,47 l-81,-28 c1,-9,2,-17,4,-26 c-19,-3,-40,-5,-62,-5 Z M174,264 c11,-2,27,-1,36,0 c26,3,51,11,70,26 c36,-18,87,-29,140,-29 c28,0,52,2,74,7 c48,-143,157,-246,324,-246 c116,0,194,51,233,97 l4,0 l0,-119 l89,0 l0,573 l116,0 l0,77 l-1284,0 l0,-77 l254,0 l0,-176 c0,-43,-22,-61,-59,-61 c-42,0,-67,24,-87,49 l-71,-57 l265,-341 l77,49 l-109,140 c-31,39,-51,61,-73,85 Z M1051,465 c-18,16,-45,30,-93,30 c-88,0,-158,-66,-158,-157 c0,-93,71,-145,140,-151 l50,59 c-61,3,-103,38,-103,90 c0,48,34,81,82,81 c47,0,88,-36,88,-101 c0,-131,-105,-215,-233,-215 c-120,0,-211,74,-239,192 c12,-5,26,-9,48,-9 c68,0,118,45,118,133 l0,156 l304,0 l0,-108 Z M1051,465" fill="rgb(0,0,0)" transform="matrix(0.1,0.0,0.0,-0.1,7.0,135.0)"/>
</svg>