<?xml version="1.0" encoding="UTF-8"?>
<svg height="200.0" version="1.1" width="110.0" xmlns="http://www.w3.org/2000/svg" xmlns:xlink="http://www.w3.org/1999/xlink">
 <path d="M0,0 l110,0 l0,200 l-110,0 Z M0,0" fill="rgb(255,255,255)" transform="matrix(1,0,0,-1,0.0,200.0)"/>
 <path d="M0,0 l110,0" fill="none" stroke="rgb(229,229,229)" stroke-width="2" transform="matrix(1,0,0,-1,0.0,135.0)"/>
 <path d="M0,1 l0,-5" fill="none" stroke="rgb(204,204,204)" stroke-width="2" transform="matrix(1,0,0,-1,7.0,135.0)"/>
 <path d="M0,1 l0,-5" fill="none" stroke="rgb(204,204,204)" stroke-width="2" transform="matrix(1,0,0,-1,101.0,135.0)"/>
 <path d="M412,346 c-32,0,-65,4,-91,12 c2,10,3,21,3,33 l0,182 l412,0 l0,-100 l-106,-32 c-63,-19,-106,-45,-130,-83 c-25,-8,-56,-12,-88,-12 Z M174,264 c11,-2,27,-1,36,0 c26,3,51,11,70,26 c36,-18,87,-29,140,-29 c20,0,38,1,55,4 c0,-120,104,-229,252,-229 c73,0,146,21,203,77 l-50,76 c-43,-45,-93,-69,-164,-69 c-96,0,-146,65,-146,127 c0,56,18,91,117,119 l145,41 l0,166 l136,0 l0,77 l-992,0 l0,-77 l254,0 l0,-176 c0,-43,-22,-61,-59,-61 c-42,0,-67,24,-87,49 l-71,-57 l265,-341 l77,49 l-109,140 c-31,39,-51,61,-73,85 Z M174,264" fill="rgb(0,0,0)" transform="matrix(0.1,0.0,0.0,-0.1,7.0,135.0)"/>
</svg>