<?xml version="1.0" encoding="UTF-8"?>
<svg height="200.0" version="1.1" width="150.0" xmlns="http://www.w3.org/2000/svg" xmlns:xlink="http://www.w3.org/1999/xlink">
 <path d="M0,0 l150,0 l0,200 l-150,0 Z M0,0" fill="rgb(255,255,255)" transform="matrix(1,0,0,-1,0.0,200.0)"/>
 <path d="M0,0 l150,0" fill="none" stroke="rgb(229,229,229)" stroke-width="2" transform="matrix(1,0,0,-1,0.0,135.0)"/>
 <path d="M0,1 l0,-5" fill="none" stroke="rgb(204,204,204)" stroke-width="2" transform="matrix(1,0,0,-1,7.0,135.0)"/>
 <path d="M0,1 l0,-5" fill="none" stroke="rgb(204,204,204)" stroke-width="2" transform="matrix(1,0,0,-1,143.0,135.0)"/>
 <path d="M412,346 c-33,0,-66,4,-92,12 c2,12,4,25,4,39 l0,176 l565,0 c24,-23,39,-60,39,-91 c0,-39,-20,-65,-56,-84 c-36,34,-95,50,-155,50 l-52,0 c-68,0,-130,-31,-162,-89 c-26,-9,-58,-13,-91,-13 Z M174,270 c11,-2,27,-2,36,-1 c24,2,47,10,66,23 c36,-19,89,-31,144,-31 c22,0,41,1,59,4 c0,-1,0,-3,0,-5 c0,-122,68,-215,140,-269 l73,58 c-66,47,-116,116,-116,209 c0,71,45,107,106,107 l28,0 c36,0,60,-5,79,-16 c21,-138,113,-219,230,-219 c83,0,131,40,151,64 l4,0 l0,-194 l95,0 l0,573 l116,0 l0,77 l-1409,0 l0,-77 l254,0 l0,-171 c0,-43,-22,-60,-59,-60 c-42,0,-67,23,-87,48 l-71,-56 l265,-342 l77,50 l-109,139 c-31,40,-51,62,-73,85 Z M893,331 c74,17,131,67,131,137 c0,41,-14,75,-41,101 l0,4 l192,0 l0,-210 c0,-94,-57,-150,-142,-150 c-90,0,-132,63,-140,118 Z M893,331" fill="rgb(0,0,0)" transform="matrix(0.1,0.0,0.0,-0.1,7.0,135.0)"/>
</svg>