<?xml version="1.0" encoding="UTF-8"?>
<svg height="200.0" version="1.1" width="110.0" xmlns="http://www.w3.org/2000/svg" xmlns:xlink="http://www.w3.org/1999/xlink">
 <path d="M0,0 l110,0 l0,200 l-110,0 Z M0,0" fill="rgb(255,255,255)" transform="matrix(1,0,0,-1,0.0,200.0)"/>
 <path d="M0,0 l110,0" fill="none" stroke="rgb(229,229,229)" stroke-width="2" transform="matrix(1,0,0,-1,0.0,135.0)"/>
 <path d="M0,1 l0,-5" fill="none" stroke="rgb(204,204,204)" stroke-width="2" transform="matrix(1,0,0,-1,7.0,135.0)"/>
 <path d="M0,1 l0,-5" fill="none" stroke="rgb(204,204,204)" stroke-width="2" transform="matrix(1,0,0,-1,101.0,135.0)"/>
 <path d="M357,40 l-116,150 c-28,37,-45,55,-66,78 l0,3 c31,-4,73,1,102,22 c29,-19,74,-35,130,-35 c74,0,113,27,127,76 l16,50 c12,5,25,7,43,7 c61,0,109,-50,120,-104 l-253,-157 l74,-66 l236,159 l4,0 l0,-223 l95,0 l0,573 l100,0 l0,77 l-993,0 l0,-77 l257,0 l0,-169 c0,-44,-21,-61,-59,-61 c-41,0,-67,25,-87,50 l-70,-59 l262,-342 Z M320,355 c5,13,7,28,7,45 l0,173 l448,0 l0,-213 l-4,0 c-18,46,-73,120,-184,120 c-70,0,-107,-34,-121,-80 l-15,-48 c-18,-7,-38,-9,-59,-9 c-28,0,-54,5,-72,12 Z M320,355" fill="rgb(0,0,0)" transform="matrix(0.1,0.0,0.0,-0.1,7.0,135.0)"/>
</svg>