<?xml version="1.0" encoding="UTF-8"?>
<svg height="200.0" version="1.1" width="146.0" xmlns="http://www.w3.org/2000/svg" xmlns:xlink="http://www.w3.org/1999/xlink">
 <path d="M0,0 l146,0 l0,200 l-146,0 Z M0,0" fill="rgb(255,255,255)" transform="matrix(1,0,0,-1,0.0,200.0)"/>
 <path d="M0,0 l146,0" fill="none" stroke="rgb(229,229,229)" stroke-width="2" transform="matrix(1,0,0,-1,0.0,135.0)"/>
 <path d="M0,1 l0,-5" fill="none" stroke="rgb(204,204,204)" stroke-width="2" transform="matrix(1,0,0,-1,7.0,135.0)"/>
 <path d="M0,1 l0,-5" fill="none" stroke="rgb(204,204,204)" stroke-width="2" transform="matrix(1,0,0,-1,137.0,135.0)"/>
 <path d="M412,346 c-33,0,-66,4,-92,12 c2,12,4,25,4,39 l0,176 l791,0 l0,-245 c0,-76,-45,-137,-123,-137 c-64,0,-107,44,-107,105 c0,84,78,119,153,99 l-8,85 c-60,11,-122,0,-168,-32 l-197,0 c-68,0,-131,-31,-163,-90 c-26,-8,-58,-12,-90,-12 Z M174,270 c11,-2,27,-2,36,-1 c24,2,47,10,66,23 c36,-19,89,-31,144,-31 c21,0,41,1,59,4 c0,-1,0,-3,0,-5 c0,-122,68,-215,140,-269 l73,58 c-66,47,-116,116,-116,209 c0,71,45,107,106,107 l117,0 c-8,-21,-12,-44,-12,-70 c0,-113,86,-187,189,-187 c71,0,115,31,135,55 l4,0 l0,-163 l95,0 l0,573 l116,0 l0,77 l-1350,0 l0,-77 l254,0 l0,-171 c0,-43,-22,-60,-59,-60 c-42,0,-67,23,-87,48 l-71,-56 l265,-342 l77,50 l-109,139 c-31,40,-51,62,-73,85 Z M174,270" fill="rgb(0,0,0)" transform="matrix(0.1,0.0,0.0,-0.1,7.0,135.0)"/>
</svg>