<?xml version="1.0" encoding="UTF-8"?>
<svg height="200.0" version="1.1" width="126.0" xmlns="http://www.w3.org/2000/svg" xmlns:xlink="http://www.w3.org/1999/xlink">
 <path d="M0,0 l126,0 l0,200 l-126,0 Z M0,0" fill="rgb(255,255,255)" transform="matrix(1,0,0,-1,0.0,200.0)"/>
 <path d="M0,0 l126,0" fill="none" stroke="rgb(229,229,229)" stroke-width="2" transform="matrix(1,0,0,-1,0.0,135.0)"/>
 <path d="M0,1 l0,-5" fill="none" stroke="rgb(204,204,204)" stroke-width="2" transform="matrix(1,0,0,-1,7.0,135.0)"/>
 <path d="M0,1 l0,-5" fill="none" stroke="rgb(204,204,204)" stroke-width="2" transform="matrix(1,0,0,-1,118.0,135.0)"/>
 <path d="M355,42 l-109,139 c-31,40,-51,62,-73,85 l1,4 c11,-2,27,-2,36,-1 c27,3,52,12,72,28 c36,-19,87,-32,142,-32 c30,0,54,2,73,6 c33,-105,119,-175,241,-175 c104,0,164,51,187,85 l4,0 l0,-181 l93,0 l0,573 l116,0 l0,77 l-209,0 l0,-282 c0,-98,-59,-187,-183,-187 c-109,0,-147,85,-152,124 c20,5,39,9,58,15 c122,33,191,94,191,192 c0,86,-58,148,-154,148 c-91,0,-153,-61,-153,-136 c0,-39,14,-69,32,-87 l84,25 c-15,15,-24,38,-24,57 c0,38,26,60,61,60 c39,0,61,-25,61,-65 c0,-53,-28,-94,-157,-130 l-110,-30 c-20,-4,-42,-6,-67,-6 c-34,0,-68,4,-96,12 c3,11,4,24,4,37 l0,176 l124,0 l0,77 l-472,0 l0,-77 l254,0 l0,-171 c0,-43,-22,-60,-59,-60 c-42,0,-67,23,-87,48 l-71,-56 l265,-342 Z M355,42" fill="rgb(0,0,0)" transform="matrix(0.1,0.0,0.0,-0.1,7.0,135.0)"/>
</svg>