<?xml version="1.0" encoding="UTF-8"?>
<svg height="200.0" version="1.1" width="162.0" xmlns="http://www.w3.org/2000/svg" xmlns:xlink="http://www.w3.org/1999/xlink">
 <path d="M0,0 l162,0 l0,200 l-162,0 Z M0,0" fill="rgb(255,255,255)" transform="matrix(1,0,0,-1,0.0,200.0)"/>
 <path d="M0,0 l162,0" fill="none" stroke="rgb(229,229,229)" stroke-width="2" transform="matrix(1,0,0,-1,0.0,135.0)"/>
 <path d="M0,1 l0,-5" fill="none" stroke="rgb(204,204,204)" stroke-width="2" transform="matrix(1,0,0,-1,7.0,135.0)"/>
 <path d="M0,1 l0,-5" fill="none" stroke="rgb(204,204,204)" stroke-width="2" transform="matrix(1,0,0,-1,155.0,135.0)"/>
 <path d="M405,353 c-31,0,-60,3,-84,9 c2,11,3,22,3,35 l0,176 l110,0 l0,77 l-458,0 l0,-77 l254,0 l0,-171 c0,-43,-22,-60,-59,-60 c-42,0,-67,23,-87,48 l-71,-56 l265,-342 l77,50 l-109,139 c-31,40,-51,62,-73,85 l1,4 c11,-2,27,-2,36,-1 c26,3,51,11,70,26 c34,-17,81,-27,133,-27 c24,0,45,2,64,5 c36,-105,131,-175,255,-175 c122,0,195,48,239,101 c41,-45,98,-69,163,-69 c83,0,130,40,151,64 l4,0 l0,-194 l94,0 l0,573 l117,0 l0,77 l-601,0 l0,-77 l105,0 c24,-23,39,-60,39,-91 c0,-63,-53,-94,-141,-112 c3,-34,10,-65,21,-92 c-30,-47,-87,-96,-183,-96 c-111,0,-162,82,-167,123 c162,38,250,93,250,207 c0,86,-60,148,-155,148 c-92,0,-153,-61,-153,-136 c0,-39,15,-69,32,-87 l84,25 c-15,15,-24,38,-24,57 c0,38,25,60,61,60 c38,0,62,-25,62,-65 c0,-52,-28,-93,-158,-130 l-92,-25 c-25,-4,-50,-6,-75,-6 Z M1008,331 c73,17,131,67,131,137 c0,41,-15,75,-42,101 l0,4 l192,0 l0,-210 c0,-94,-56,-150,-142,-150 c-89,0,-131,63,-139,118 Z M1008,331" fill="rgb(0,0,0)" transform="matrix(0.1,0.0,0.0,-0.1,7.0,135.0)"/>
</svg>