<?xml version="1.0" encoding="UTF-8"?>
<svg height="200.0" version="1.1" width="110.0" xmlns="http://www.w3.org/2000/svg" xmlns:xlink="http://www.w3.org/1999/xlink">
 <path d="M0,0 l110,0 l0,200 l-110,0 Z M0,0" fill="rgb(255,255,255)" transform="matrix(1,0,0,-1,0.0,200.0)"/>
 <path d="M0,0 l110,0" fill="none" stroke="rgb(229,229,229)" stroke-width="2" transform="matrix(1,0,0,-1,0.0,135.0)"/>
 <path d="M0,1 l0,-5" fill="none" stroke="rgb(204,204,204)" stroke-width="2" transform="matrix(1,0,0,-1,7.0,135.0)"/>
 <path d="M0,1 l0,-5" fill="none" stroke="rgb(204,204,204)" stroke-width="2" transform="matrix(1,0,0,-1,103.0,135.0)"/>
 <path d="M412,346 c-32,0,-65,4,-91,12 c2,10,3,21,3,33 l0,182 l445,0 l0,-170 l-249,0 l-68,-51 l0,-4 c-13,-1,-26,-2,-40,-2 Z M174,264 c11,-2,27,-1,36,0 c26,3,51,11,70,26 c36,-18,87,-29,140,-29 c19,0,36,1,53,3 c14,-27,35,-49,58,-62 l52,21 l0,97 l186,0 l0,-320 l94,0 l0,573 l116,0 l0,77 l-1003,0 l0,-77 l254,0 l0,-176 c0,-43,-22,-61,-59,-61 c-42,0,-67,24,-87,49 l-71,-57 l265,-341 l77,49 l-109,140 c-31,39,-51,61,-73,85 Z M174,264" fill="rgb(0,0,0)" transform="matrix(0.1,0.0,0.0,-0.1,7.0,135.0)"/>
</svg>