<?xml version="1.0" encoding="UTF-8"?>
<svg height="200.0" version="1.1" width="138.0" xmlns="http://www.w3.org/2000/svg" xmlns:xlink="http://www.w3.org/1999/xlink">
 <path d="M0,0 l138,0 l0,200 l-138,0 Z M0,0" fill="rgb(255,255,255)" transform="matrix(1,0,0,-1,0.0,200.0)"/>
 <path d="M0,0 l138,0" fill="none" stroke="rgb(229,229,229)" stroke-width="2" transform="matrix(1,0,0,-1,0.0,135.0)"/>
 <path d="M0,1 l0,-5" fill="none" stroke="rgb(204,204,204)" stroke-width="2" transform="matrix(1,0,0,-1,7.0,135.0)"/>
 <path d="M0,1 l0,-5" fill="none" stroke="rgb(204,204,204)" stroke-width="2" transform="matrix(1,0,0,-1,131.0,135.0)"/>
 <path d="M412,346 c-32,0,-65,4,-91,12 c2,10,3,21,3,33 l0,182 l187,0 l0,-210 c-27,-12,-61,-17,-99,-17 Z M174,264 c11,-2,27,-1,36,0 c26,3,51,11,70,26 c36,-18,87,-29,140,-29 c42,0,76,6,105,15 c23,-57,75,-89,148,-89 c63,0,102,27,119,51 l4,0 l0,-238 l93,0 l0,262 c0,75,47,130,117,130 c57,0,96,-37,96,-94 c0,-68,-52,-117,-135,-101 l14,-85 c118,-13,217,61,217,187 c0,107,-78,176,-175,176 c-70,0,-113,-34,-130,-56 l-4,0 l0,154 l370,0 l0,77 l-1283,0 l0,-77 l254,0 l0,-176 c0,-43,-22,-61,-59,-61 c-42,0,-67,24,-87,49 l-71,-57 l265,-341 l77,49 l-109,140 c-31,39,-51,61,-73,85 Z M796,390 c0,-70,-39,-119,-110,-119 c-54,0,-80,28,-80,96 l0,206 l190,0 Z M796,390" fill="rgb(0,0,0)" transform="matrix(0.1,0.0,0.0,-0.1,7.0,135.0)"/>
</svg>