<?xml version="1.0" encoding="UTF-8"?>
<svg height="200.0" version="1.1" width="152.0" xmlns="http://www.w3.org/2000/svg" xmlns:xlink="http://www.w3.org/1999/xlink">
 <path d="M0,0 l152,0 l0,200 l-152,0 Z M0,0" fill="rgb(255,255,255)" transform="matrix(1,0,0,-1,0.0,200.0)"/>
 <path d="M0,0 l152,0" fill="none" stroke="rgb(229,229,229)" stroke-width="2" transform="matrix(1,0,0,-1,0.0,135.0)"/>
 <path d="M0,1 l0,-5" fill="none" stroke="rgb(204,204,204)" stroke-width="2" transform="matrix(1,0,0,-1,7.0,135.0)"/>
 <path d="M0,1 l0,-5" fill="none" stroke="rgb(204,204,204)" stroke-width="2" transform="matrix(1,0,0,-1,144.0,135.0)"/>
 <path d="M414,346 c-33,0,-67,4,-94,12 c2,12,4,25,4,39 l0,176 l212,0 l0,-206 c-29,-13,-72,-21,-122,-21 Z M174,270 c11,-2,27,-2,36,-1 c25,2,48,10,66,23 c36,-18,92,-29,146,-29 c25,0,48,2,69,5 c9,-38,30,-80,61,-105 l75,0 l0,102 l190,0 c39,-87,115,-135,207,-135 c83,0,130,40,151,64 l4,0 l0,-194 l94,0 l0,573 l117,0 l0,77 l-1414,0 l0,-77 l254,0 l0,-171 c0,-43,-22,-60,-59,-60 c-42,0,-67,23,-87,48 l-71,-56 l265,-342 l77,50 l-109,139 c-31,40,-51,62,-73,85 Z M894,573 c24,-23,39,-60,39,-91 c0,-63,-53,-95,-141,-114 c1,-6,1,-13,2,-19 l-165,0 l0,224 Z M898,331 c73,17,131,67,131,137 c0,41,-15,75,-42,101 l0,4 l192,0 l0,-210 c0,-94,-56,-150,-142,-150 c-89,0,-131,63,-139,118 Z M898,331" fill="rgb(0,0,0)" transform="matrix(0.1,0.0,0.0,-0.1,7.0,135.0)"/>
</svg>