<?xml version="1.0" encoding="UTF-8"?>
<svg height="200.0" version="1.1" width="124.0" xmlns="http://www.w3.org/2000/svg" xmlns:xlink="http://www.w3.org/1999/xlink">
 <path d="M0,0 l124,0 l0,200 l-124,0 Z M0,0" fill="rgb(255,255,255)" transform="matrix(1,0,0,-1,0.0,200.0)"/>
 <path d="M0,0 l124,0" fill="none" stroke="rgb(229,229,229)" stroke-width="2" transform="matrix(1,0,0,-1,0.0,135.0)"/>
 <path d="M0,1 l0,-5" fill="none" stroke="rgb(204,204,204)" stroke-width="2" transform="matrix(1,0,0,-1,7.0,135.0)"/>
 <path d="M0,1 l0,-5" fill="none" stroke="rgb(204,204,204)" stroke-width="2" transform="matrix(1,0,0,-1,117.0,135.0)"/>
 <path d="M412,346 c-33,0,-66,4,-92,12 c2,12,4,25,4,39 l0,176 l315,0 l0,-176 c0,-43,-22,-61,-59,-61 c-42,0,-65,23,-87,49 l-46,-37 c-11,-1,-23,-2,-35,-2 Z M174,270 c11,-2,27,-2,36,-1 c24,2,47,10,66,23 c36,-19,89,-31,144,-31 c19,0,36,1,52,3 l215,-277 l77,49 l-109,140 c-31,39,-51,61,-73,85 l1,3 c8,-2,20,-2,27,-2 c30,2,58,11,80,28 c35,-16,87,-27,139,-27 c34,0,61,3,84,8 l0,-271 l95,0 l0,573 l117,0 l0,77 l-1149,0 l0,-77 l254,0 l0,-171 c0,-43,-22,-60,-59,-60 c-42,0,-67,23,-87,48 l-71,-56 l265,-342 l77,50 l-109,139 c-31,40,-51,62,-73,85 Z M822,346 c-33,0,-66,4,-92,11 c2,11,3,22,3,35 l0,181 l180,0 l0,-213 c-26,-9,-58,-14,-91,-14 Z M822,346" fill="rgb(0,0,0)" transform="matrix(0.1,0.0,0.0,-0.1,7.0,135.0)"/>
</svg>