<?xml version="1.0" encoding="UTF-8"?>
<svg height="200.0" version="1.1" width="76.0" xmlns="http://www.w3.org/2000/svg" xmlns:xlink="http://www.w3.org/1999/xlink">
 <path d="M0,0 l76,0 l0,200 l-76,0 Z M0,0" fill="rgb(255,255,255)" transform="matrix(1,0,0,-1,0.0,200.0)"/>
 <path d="M0,0 l76,0" fill="none" stroke="rgb(229,229,229)" stroke-width="2" transform="matrix(1,0,0,-1,0.0,135.0)"/>
 <path d="M0,1 l0,-5" fill="none" stroke="rgb(204,204,204)" stroke-width="2" transform="matrix(1,0,0,-1,7.0,135.0)"/>
 <path d="M0,1 l0,-5" fill="none" stroke="rgb(204,204,204)" stroke-width="2" transform="matrix(1,0,0,-1,67.0,135.0)"/>
 <path d="M339,40 c63,0,101,38,101,102 l0,72 c29,-21,44,-53,44,-95 c0,-31,-8,-68,-22,-99 l82,0 c11,27,19,65,19,94 c0,124,-85,200,-231,200 c-55,0,-101,-11,-133,-26 c-34,18,-49,50,-49,76 c0,25,15,44,58,44 l305,0 l0,165 l114,0 l0,77 l-651,0 l0,-77 l445,0 l0,-87 l-237,0 c-79,0,-128,-46,-128,-108 c0,-50,31,-101,79,-129 c-42,-37,-65,-86,-65,-139 c0,-131,113,-228,294,-248 l44,72 c-205,19,-246,104,-246,172 c0,50,29,91,76,113 l0,-77 c0,-64,34,-102,101,-102 Z M335,241 c13,0,24,-1,36,-3 l0,-97 c0,-28,-7,-43,-32,-43 c-24,0,-32,15,-32,43 l0,99 c9,0,19,1,28,1 Z M335,241" fill="rgb(0,0,0)" transform="matrix(0.1,0.0,0.0,-0.1,7.0,135.0)"/>
</svg>