<?xml version="1.0" encoding="UTF-8"?>
<svg height="200.0" version="1.1" width="90.0" xmlns="http://www.w3.org/2000/svg" xmlns:xlink="http://www.w3.org/1999/xlink">
 <path d="M0,0 l90,0 l0,200 l-90,0 Z M0,0" fill="rgb(255,255,255)" transform="matrix(1,0,0,-1,0.0,200.0)"/>
 <path d="M0,0 l90,0" fill="none" stroke="rgb(229,229,229)" stroke-width="2" transform="matrix(1,0,0,-1,0.0,135.0)"/>
 <path d="M0,1 l0,-5" fill="none" stroke="rgb(204,204,204)" stroke-width="2" transform="matrix(1,0,0,-1,7.0,135.0)"/>
 <path d="M0,1 l0,-5" fill="none" stroke="rgb(204,204,204)" stroke-width="2" transform="matrix(1,0,0,-1,83.0,135.0)"/>
 <path d="M445,-35 c-202,15,-293,91,-293,180 c0,78,94,124,190,128 c25,1,40,-7,40,-20 c0,-25,-39,-52,-113,-91 c19,-70,93,-126,181,-126 c61,0,106,27,129,57 l4,0 l0,-111 l89,0 l0,591 l109,0 l0,77 l-805,0 l0,-77 l363,0 l0,-85 l-156,0 c-80,0,-127,-42,-127,-105 c0,-47,28,-89,70,-114 c-40,-35,-60,-76,-60,-122 c0,-122,125,-229,339,-255 Z M375,151 c55,30,89,60,89,104 c0,50,-42,85,-125,85 c-45,0,-99,-12,-145,-31 c-25,14,-43,40,-43,61 c0,25,15,42,59,42 l221,0 l0,161 l152,0 l0,-353 c-3,-46,-37,-112,-124,-112 c-44,0,-73,22,-84,43 Z M375,151" fill="rgb(0,0,0)" transform="matrix(0.1,0.0,0.0,-0.1,7.0,135.0)"/>
</svg>