<?xml version="1.0" encoding="UTF-8"?>
<svg height="200.0" version="1.1" width="74.0" xmlns="http://www.w3.org/2000/svg" xmlns:xlink="http://www.w3.org/1999/xlink">
 <path d="M0,0 l74,0 l0,200 l-74,0 Z M0,0" fill="rgb(255,255,255)" transform="matrix(1,0,0,-1,0.0,200.0)"/>
 <path d="M0,0 l74,0" fill="none" stroke="rgb(229,229,229)" stroke-width="2" transform="matrix(1,0,0,-1,0.0,135.0)"/>
 <path d="M0,1 l0,-5" fill="none" stroke="rgb(204,204,204)" stroke-width="2" transform="matrix(1,0,0,-1,7.0,135.0)"/>
 <path d="M0,1 l0,-5" fill="none" stroke="rgb(204,204,204)" stroke-width="2" transform="matrix(1,0,0,-1,66.0,135.0)"/>
 <path d="M315,-123 c-113,47,-166,122,-166,215 c0,89,69,149,176,149 c44,0,83,-14,109,-40 c-31,-5,-49,-23,-56,-37 c-16,19,-38,29,-66,29 c-60,0,-96,-45,-96,-97 c0,-63,37,-129,121,-177 l40,42 c-71,40,-94,83,-94,129 c0,28,16,43,35,43 c16,0,32,-9,32,-37 l0,-45 l58,0 l0,39 c0,36,23,60,58,60 c4,-13,7,-27,7,-43 c0,-34,-9,-73,-26,-107 l83,0 c10,25,18,68,18,105 c0,101,-70,208,-233,208 c-36,0,-73,-7,-107,-19 c-29,16,-45,46,-45,71 c0,25,12,41,58,41 l260,0 l0,167 l136,0 l0,77 l-641,0 l0,-77 l413,0 l0,-91 l-195,0 c-80,0,-127,-42,-127,-104 c0,-48,32,-94,74,-122 c-54,-39,-76,-105,-76,-159 c0,-106,65,-212,195,-274 Z M315,-123" fill="rgb(0,0,0)" transform="matrix(0.1,0.0,0.0,-0.1,7.0,135.0)"/>
</svg>