<?xml version="1.0" encoding="UTF-8"?>
<svg height="200.0" version="1.1" width="74.0" xmlns="http://www.w3.org/2000/svg" xmlns:xlink="http://www.w3.org/1999/xlink">
 <path d="M0,0 l74,0 l0,200 l-74,0 Z M0,0" fill="rgb(255,255,255)" transform="matrix(1,0,0,-1,0.0,200.0)"/>
 <path d="M0,0 l74,0" fill="none" stroke="rgb(229,229,229)" stroke-width="2" transform="matrix(1,0,0,-1,0.0,135.0)"/>
 <path d="M0,1 l0,-5" fill="none" stroke="rgb(204,204,204)" stroke-width="2" transform="matrix(1,0,0,-1,7.0,135.0)"/>
 <path d="M0,1 l0,-5" fill="none" stroke="rgb(204,204,204)" stroke-width="2" transform="matrix(1,0,0,-1,66.0,135.0)"/>
 <path d="M454,18 c0,-17,-10,-49,-11,-54 l76,0 c2,9,14,69,14,132 c0,107,-60,213,-224,213 c-32,0,-61,-6,-92,-15 c-31,14,-49,44,-49,71 c0,25,12,41,59,41 l259,0 l0,167 l130,0 l0,77 l-640,0 l0,-77 l419,0 l0,-91 l-196,0 c-79,0,-127,-42,-127,-104 c0,-49,32,-94,76,-121 c-52,-40,-73,-97,-73,-154 c0,-115,96,-215,268,-269 l54,57 c-163,44,-238,113,-238,210 c0,78,67,136,165,136 c78,0,129,-45,129,-113 c0,-46,-30,-83,-81,-83 c-37,0,-54,24,-54,48 c0,29,20,46,48,46 c17,0,30,-4,40,-9 l0,60 c-13,6,-31,10,-50,10 c-61,0,-110,-40,-110,-104 c0,-57,48,-110,117,-110 c41,0,71,18,87,36 Z M454,18" fill="rgb(0,0,0)" transform="matrix(0.1,0.0,0.0,-0.1,7.0,135.0)"/>
</svg>