<?xml version="1.0" encoding="UTF-8"?>
<svg height="200.0" version="1.1" width="130.0" xmlns="http://www.w3.org/2000/svg" xmlns:xlink="http://www.w3.org/1999/xlink">
 <path d="M0,0 l130,0 l0,200 l-130,0 Z M0,0" fill="rgb(255,255,255)" transform="matrix(1,0,0,-1,0.0,200.0)"/>
 <path d="M0,0 l130,0" fill="none" stroke="rgb(229,229,229)" stroke-width="2" transform="matrix(1,0,0,-1,0.0,135.0)"/>
 <path d="M0,1 l0,-5" fill="none" stroke="rgb(204,204,204)" stroke-width="2" transform="matrix(1,0,0,-1,7.0,135.0)"/>
 <path d="M0,1 l0,-5" fill="none" stroke="rgb(204,204,204)" stroke-width="2" transform="matrix(1,0,0,-1,123.0,135.0)"/>
 <path d="M520,467 c-75,0,-120,-32,-150,-80 c-21,33,-66,79,-143,79 c-109,0,-183,-84,-183,-203 c0,-119,66,-199,169,-199 c75,0,120,32,151,81 c20,-34,66,-80,145,-80 c78,0,140,43,167,114 c39,-32,88,-49,142,-49 c83,0,131,40,151,64 l4,0 l0,-194 l94,0 l0,573 l117,0 l0,77 l-1208,0 l0,-77 l712,0 c24,-23,39,-60,39,-91 c0,-43,-24,-71,-67,-90 c-30,47,-79,75,-140,75 Z M218,145 c-57,0,-83,51,-83,121 c0,73,39,122,96,122 c49,0,83,-34,104,-79 c0,-2,-1,-5,-2,-7 c-20,-68,-40,-157,-115,-157 Z M506,143 c-54,0,-85,34,-107,80 c1,2,1,4,2,6 c22,68,39,157,114,157 c57,0,85,-51,85,-121 c0,-75,-37,-122,-94,-122 Z M692,331 c73,17,131,67,131,137 c0,41,-15,75,-42,101 l0,4 l192,0 l0,-210 c0,-94,-56,-150,-142,-150 c-89,0,-131,63,-139,118 Z M692,331" fill="rgb(0,0,0)" transform="matrix(0.1,0.0,0.0,-0.1,7.0,135.0)"/>
</svg>