<?xml version="1.0" encoding="UTF-8"?>
<svg height="200.0" version="1.1" width="158.0" xmlns="http://www.w3.org/2000/svg" xmlns:xlink="http://www.w3.org/1999/xlink">
 <path d="M0,0 l158,0 l0,200 l-158,0 Z M0,0" fill="rgb(255,255,255)" transform="matrix(1,0,0,-1,0.0,200.0)"/>
 <path d="M0,0 l158,0" fill="none" stroke="rgb(229,229,229)" stroke-width="2" transform="matrix(1,0,0,-1,0.0,135.0)"/>
 <path d="M0,1 l0,-5" fill="none" stroke="rgb(204,204,204)" stroke-width="2" transform="matrix(1,0,0,-1,7.0,135.0)"/>
 <path d="M0,1 l0,-5" fill="none" stroke="rgb(204,204,204)" stroke-width="2" transform="matrix(1,0,0,-1,35.0,135.0)"/>
 <path d="M303,573 l0,77 l-117,0 l0,19 c0,113,89,185,441,185 c356,0,653,-67,789,-143 l36,71 c-124,78,-448,155,-824,155 c-411,0,-536,-108,-536,-270 l0,-17 l-116,0 l0,-77 l116,0 l0,-573 l94,0 l0,573 Z M303,573" fill="rgb(0,0,0)" transform="matrix(0.1,0.0,0.0,-0.1,7.0,135.0)"/>
</svg>