<?xml version="1.0" encoding="UTF-8"?>
<svg height="200.0" version="1.1" width="54.0" xmlns="http://www.w3.org/2000/svg" xmlns:xlink="http://www.w3.org/1999/xlink">
 <path d="M0,0 l54,0 l0,200 l-54,0 Z M0,0" fill="rgb(255,255,255)" transform="matrix(1,0,0,-1,0.0,200.0)"/>
 <path d="M0,0 l54,0" fill="none" stroke="rgb(229,229,229)" stroke-width="2" transform="matrix(1,0,0,-1,0.0,135.0)"/>
 <path d="M0,-4 l0,8" fill="none" stroke="rgb(255,76,25)" stroke-width="2" transform="matrix(1,0,0,-1,49.0,135.0)"/>
 <path d="M-440,-111 c39,-55,131,-151,268,-151 c109,0,170,63,170,145 c0,79,-64,132,-145,132 c-61,0,-101,-25,-128,-57 l61,-59 c13,19,35,36,65,36 c34,0,58,-23,58,-54 c0,-39,-31,-65,-78,-65 c-98,0,-169,73,-207,128 Z M-440,-111" fill="rgb(0,0,0)" transform="matrix(0.1,0.0,0.0,-0.1,49.0,135.0)"/>
</svg>