<?xml version="1.0" encoding="UTF-8"?>
<svg height="200.0" version="1.1" width="50.0" xmlns="http://www.w3.org/2000/svg" xmlns:xlink="http://www.w3.org/1999/xlink">
 <path d="M0,0 l50,0 l0,200 l-50,0 Z M0,0" fill="rgb(255,255,255)" transform="matrix(1,0,0,-1,0.0,200.0)"/>
 <path d="M0,0 l50,0" fill="none" stroke="rgb(229,229,229)" stroke-width="2" transform="matrix(1,0,0,-1,0.0,135.0)"/>
 <path d="M0,-4 l0,8" fill="none" stroke="rgb(255,76,25)" stroke-width="2" transform="matrix(1,0,0,-1,46.0,135.0)"/>
 <path d="M-409,-101 c33,-49,116,-136,238,-136 c98,0,152,57,152,130 c0,73,-56,118,-129,118 c-55,0,-90,-23,-114,-51 l55,-53 c12,17,31,31,57,31 c31,0,50,-19,50,-47 c0,-32,-25,-56,-68,-56 c-88,0,-149,65,-182,116 Z M-409,-101" fill="rgb(0,0,0)" transform="matrix(0.1,0.0,0.0,-0.1,46.0,135.0)"/>
</svg>