<?xml version="1.0" encoding="UTF-8"?>
<svg height="200.0" version="1.1" width="54.0" xmlns="http://www.w3.org/2000/svg" xmlns:xlink="http://www.w3.org/1999/xlink">
 <path d="M0,0 l54,0 l0,200 l-54,0 Z M0,0" fill="rgb(255,255,255)" transform="matrix(1,0,0,-1,0.0,200.0)"/>
 <path d="M0,0 l54,0" fill="none" stroke="rgb(229,229,229)" stroke-width="2" transform="matrix(1,0,0,-1,0.0,135.0)"/>
 <path d="M0,-4 l0,8" fill="none" stroke="rgb(255,76,25)" stroke-width="2" transform="matrix(1,0,0,-1,36.0,135.0)"/>
 <path d="M125,-246 c-22,115,-115,267,-271,267 c-93,0,-162,-59,-162,-144 c0,-76,57,-138,141,-138 c18,0,42,3,62,12 l0,80 c-16,-7,-31,-12,-51,-12 c-39,0,-62,26,-62,60 c0,38,31,63,72,63 c82,0,160,-87,186,-212 Z M125,-246" fill="rgb(0,0,0)" transform="matrix(0.1,0.0,0.0,-0.1,36.0,135.0)"/>
</svg>