<?xml version="1.0" encoding="UTF-8"?>
<svg height="200.0" version="1.1" width="46.0" xmlns="http://www.w3.org/2000/svg" xmlns:xlink="http://www.w3.org/1999/xlink">
 <path d="M0,0 l46,0 l0,200 l-46,0 Z M0,0" fill="rgb(255,255,255)" transform="matrix(1,0,0,-1,0.0,200.0)"/>
 <path d="M0,0 l46,0" fill="none" stroke="rgb(229,229,229)" stroke-width="2" transform="matrix(1,0,0,-1,0.0,135.0)"/>
 <path d="M0,-4 l0,8" fill="none" stroke="rgb(255,76,25)" stroke-width="2" transform="matrix(1,0,0,-1,34.0,135.0)"/>
 <path d="M75,-214 c-14,84,-84,225,-222,225 c-85,0,-139,-55,-139,-122 c0,-76,58,-123,128,-123 c16,0,32,3,48,8 l0,71 c-10,-6,-22,-9,-35,-9 c-34,0,-58,18,-58,50 c0,30,22,50,58,50 c67,0,123,-70,144,-169 Z M75,-214" fill="rgb(0,0,0)" transform="matrix(0.1,0.0,0.0,-0.1,34.0,135.0)"/>
</svg>