<?xml version="1.0" encoding="UTF-8"?>
<svg height="200.0" version="1.1" width="36.0" xmlns="http://www.w3.org/2000/svg" xmlns:xlink="http://www.w3.org/1999/xlink">
 <path d="M0,0 l36,0 l0,200 l-36,0 Z M0,0" fill="rgb(255,255,255)" transform="matrix(1,0,0,-1,0.0,200.0)"/>
 <path d="M0,0 l36,0" fill="none" stroke="rgb(229,229,229)" stroke-width="2" transform="matrix(1,0,0,-1,0.0,135.0)"/>
 <path d="M0,-4 l0,8" fill="none" stroke="rgb(255,76,25)" stroke-width="2" transform="matrix(1,0,0,-1,32.0,135.0)"/>
 <path d="M-139,749 c70,0,112,44,127,85 l-54,31 c-9,-25,-31,-54,-73,-54 c-42,0,-63,29,-73,54 l-53,-31 c15,-41,57,-85,126,-85 Z M-139,849 c25,0,43,17,43,41 c0,25,-18,42,-43,42 c-24,0,-42,-17,-42,-42 c0,-24,18,-41,42,-41 Z M-139,849" fill="rgb(0,0,0)" transform="matrix(0.1,0.0,0.0,-0.1,32.0,135.0)"/>
</svg>