<?xml version="1.0" encoding="UTF-8"?>
<svg height="200.0" version="1.1" width="118.0" xmlns="http://www.w3.org/2000/svg" xmlns:xlink="http://www.w3.org/1999/xlink">
 <path d="M0,0 l118,0 l0,200 l-118,0 Z M0,0" fill="rgb(255,255,255)" transform="matrix(1,0,0,-1,0.0,200.0)"/>
 <path d="M0,0 l118,0" fill="none" stroke="rgb(229,229,229)" stroke-width="2" transform="matrix(1,0,0,-1,0.0,135.0)"/>
 <path d="M0,1 l0,-5" fill="none" stroke="rgb(204,204,204)" stroke-width="2" transform="matrix(1,0,0,-1,7.0,135.0)"/>
 <path d="M0,1 l0,-5" fill="none" stroke="rgb(204,204,204)" stroke-width="2" transform="matrix(1,0,0,-1,110.0,135.0)"/>
 <path d="M990,-120 l-59,241 c19,18,37,45,37,85 c0,48,-32,76,-59,90 l-65,-25 l0,-99 c-18,-16,-47,-25,-83,-25 c-72,0,-129,51,-129,119 c0,57,31,92,124,116 l150,37 l0,154 l147,0 l0,77 l-1077,0 l0,-77 l835,0 l0,-88 l-111,-27 c-14,-3,-27,-7,-39,-12 l-351,0 l-39,-70 l0,-7 c41,-14,87,-49,87,-105 c0,-45,-30,-76,-78,-76 c-103,0,-161,133,-166,256 l-90,-41 c15,-120,91,-299,263,-299 c100,0,164,66,164,152 c0,56,-27,91,-48,108 l0,4 l156,0 c-14,-25,-21,-54,-21,-87 c0,-119,100,-217,239,-217 c31,0,60,4,86,15 l17,-125 Z M990,-120" fill="rgb(0,0,0)" transform="matrix(0.1,0.0,0.0,-0.1,7.0,135.0)"/>
</svg>