<?xml version="1.0" encoding="UTF-8"?>
<svg height="200.0" version="1.1" width="114.0" xmlns="http://www.w3.org/2000/svg" xmlns:xlink="http://www.w3.org/1999/xlink">
 <path d="M0,0 l114,0 l0,200 l-114,0 Z M0,0" fill="rgb(255,255,255)" transform="matrix(1,0,0,-1,0.0,200.0)"/>
 <path d="M0,0 l114,0" fill="none" stroke="rgb(229,229,229)" stroke-width="2" transform="matrix(1,0,0,-1,0.0,135.0)"/>
 <path d="M0,1 l0,-5" fill="none" stroke="rgb(204,204,204)" stroke-width="2" transform="matrix(1,0,0,-1,7.0,135.0)"/>
 <path d="M0,1 l0,-5" fill="none" stroke="rgb(204,204,204)" stroke-width="2" transform="matrix(1,0,0,-1,106.0,135.0)"/>
 <path d="M955,-120 l-59,241 c19,18,37,45,37,85 c0,48,-32,76,-59,90 l-65,-25 l0,-99 c-18,-16,-47,-25,-83,-25 c-72,0,-129,51,-129,119 c0,57,31,92,124,116 l150,37 l0,154 l147,0 l0,77 l-1042,0 l0,-77 l800,0 l0,-88 l-111,-27 c-34,-9,-63,-20,-87,-35 c-26,22,-65,41,-117,41 c-64,0,-105,-37,-118,-83 l-4,0 c-17,48,-61,78,-125,78 c-84,0,-168,-62,-168,-186 c0,-125,78,-229,182,-283 l63,65 c-102,54,-148,132,-148,215 c0,77,39,105,80,105 c46,0,75,-29,75,-88 l0,-98 l89,0 l0,98 c0,60,31,92,79,92 c23,0,41,-7,56,-16 c-13,-23,-19,-51,-19,-82 c0,-119,100,-217,239,-217 c31,0,60,4,86,15 l17,-125 Z M955,-120" fill="rgb(0,0,0)" transform="matrix(0.1,0.0,0.0,-0.1,7.0,135.0)"/>
</svg>