<?xml version="1.0" encoding="UTF-8"?>
<svg height="200.0" version="1.1" width="92.0" xmlns="http://www.w3.org/2000/svg" xmlns:xlink="http://www.w3.org/1999/xlink">
 <path d="M0,0 l92,0 l0,200 l-92,0 Z M0,0" fill="rgb(255,255,255)" transform="matrix(1,0,0,-1,0.0,200.0)"/>
 <path d="M0,0 l92,0" fill="none" stroke="rgb(229,229,229)" stroke-width="2" transform="matrix(1,0,0,-1,0.0,135.0)"/>
 <path d="M0,1 l0,-5" fill="none" stroke="rgb(204,204,204)" stroke-width="2" transform="matrix(1,0,0,-1,7.0,135.0)"/>
 <path d="M0,1 l0,-5" fill="none" stroke="rgb(204,204,204)" stroke-width="2" transform="matrix(1,0,0,-1,85.0,135.0)"/>
 <path d="M61,-88 c0,-30,23,-54,54,-54 c32,0,56,24,56,54 c0,33,-24,56,-56,56 c-31,0,-54,-23,-54,-56 Z M514,288 c-35,0,-70,7,-92,16 c-10,9,-21,16,-32,20 l-168,-36 c-33,9,-57,40,-57,69 c0,30,10,51,69,51 l189,0 l0,165 l173,0 l0,-271 c-23,-9,-51,-14,-82,-14 Z M427,-48 l-118,77 l0,4 c84,6,162,59,162,152 c0,13,-1,25,-3,36 c20,-6,43,-10,66,-10 c22,0,43,2,62,6 l0,-270 l93,0 l0,626 l116,0 l0,77 l-829,0 l0,-77 l355,0 l0,-88 l-140,0 c-77,0,-121,-41,-121,-104 c0,-79,58,-150,140,-177 l150,33 c10,-7,24,-25,24,-53 c0,-63,-65,-90,-130,-90 l-28,0 l-138,91 c-20,-10,-36,-31,-36,-61 c0,-49,45,-103,155,-105 l129,-115 Z M427,-48" fill="rgb(0,0,0)" transform="matrix(0.1,0.0,0.0,-0.1,7.0,135.0)"/>
</svg>