<?xml version="1.0" encoding="UTF-8"?>
<svg height="200.0" version="1.1" width="130.0" xmlns="http://www.w3.org/2000/svg" xmlns:xlink="http://www.w3.org/1999/xlink">
 <path d="M0,0 l130,0 l0,200 l-130,0 Z M0,0" fill="rgb(255,255,255)" transform="matrix(1,0,0,-1,0.0,200.0)"/>
 <path d="M0,0 l130,0" fill="none" stroke="rgb(229,229,229)" stroke-width="2" transform="matrix(1,0,0,-1,0.0,135.0)"/>
 <path d="M0,1 l0,-5" fill="none" stroke="rgb(204,204,204)" stroke-width="2" transform="matrix(1,0,0,-1,7.0,135.0)"/>
 <path d="M0,1 l0,-5" fill="none" stroke="rgb(204,204,204)" stroke-width="2" transform="matrix(1,0,0,-1,122.0,135.0)"/>
 <path d="M260,185 c-77,0,-126,49,-126,118 c0,21,5,40,14,55 l187,-155 c-22,-12,-48,-18,-75,-18 Z M879,288 c-34,0,-69,7,-91,16 c-11,9,-22,16,-33,20 l-168,-36 c-32,9,-57,40,-57,69 c0,30,11,51,69,51 l189,0 l0,165 l174,0 l0,-271 c-23,-9,-52,-14,-83,-14 Z M793,-48 l-119,77 l0,4 c84,6,163,59,163,152 c0,13,-1,25,-3,36 c20,-6,42,-10,65,-10 c23,0,44,2,63,6 l0,-270 l92,0 l0,626 l116,0 l0,77 l-1194,0 l0,-77 l720,0 l0,-88 l-140,0 c-77,0,-121,-41,-121,-104 c0,-5,0,-10,1,-15 c-5,-51,-25,-96,-55,-128 l-195,161 c20,12,45,19,71,19 c21,0,44,-2,66,-10 l-4,84 c-23,6,-45,8,-71,8 c-106,0,-206,-76,-206,-200 c0,-119,92,-196,212,-196 c111,0,196,64,232,156 c24,-25,55,-44,90,-56 l149,33 c11,-7,25,-25,25,-53 c0,-63,-65,-90,-131,-90 l-28,0 l-120,79 c-21,-13,-34,-35,-34,-59 c0,-45,42,-90,135,-95 l129,-115 Z M793,-48" fill="rgb(0,0,0)" transform="matrix(0.1,0.0,0.0,-0.1,7.0,135.0)"/>
</svg>