<?xml version="1.0" encoding="UTF-8"?>
<svg height="200.0" version="1.1" width="86.0" xmlns="http://www.w3.org/2000/svg" xmlns:xlink="http://www.w3.org/1999/xlink">
 <path d="M0,0 l86,0 l0,200 l-86,0 Z M0,0" fill="rgb(255,255,255)" transform="matrix(1,0,0,-1,0.0,200.0)"/>
 <path d="M0,0 l86,0" fill="none" stroke="rgb(229,229,229)" stroke-width="2" transform="matrix(1,0,0,-1,0.0,135.0)"/>
 <path d="M0,1 l0,-5" fill="none" stroke="rgb(204,204,204)" stroke-width="2" transform="matrix(1,0,0,-1,7.0,135.0)"/>
 <path d="M0,1 l0,-5" fill="none" stroke="rgb(204,204,204)" stroke-width="2" transform="matrix(1,0,0,-1,78.0,135.0)"/>
 <path d="M368,-33 l-139,107 l11,2 c85,-2,158,51,158,140 c0,92,-84,140,-142,158 l0,4 l269,0 l0,-420 l95,0 l0,615 l117,0 l0,77 l-761,0 l0,-77 l549,0 l0,-117 l-384,0 l-32,-66 l0,-7 c97,-24,194,-79,194,-157 c0,-58,-43,-90,-106,-90 c-14,0,-29,2,-43,6 l-104,93 c-26,-15,-38,-37,-38,-67 c0,-49,42,-92,124,-99 l134,-146 Z M368,-33" fill="rgb(0,0,0)" transform="matrix(0.1,0.0,0.0,-0.1,7.0,135.0)"/>
</svg>