<?xml version="1.0" encoding="UTF-8"?>
<svg height="200.0" version="1.1" width="84.0" xmlns="http://www.w3.org/2000/svg" xmlns:xlink="http://www.w3.org/1999/xlink">
 <path d="M0,0 l84,0 l0,200 l-84,0 Z M0,0" fill="rgb(255,255,255)" transform="matrix(1,0,0,-1,0.0,200.0)"/>
 <path d="M0,0 l84,0" fill="none" stroke="rgb(229,229,229)" stroke-width="2" transform="matrix(1,0,0,-1,0.0,135.0)"/>
 <path d="M0,1 l0,-5" fill="none" stroke="rgb(204,204,204)" stroke-width="2" transform="matrix(1,0,0,-1,7.0,135.0)"/>
 <path d="M0,1 l0,-5" fill="none" stroke="rgb(204,204,204)" stroke-width="2" transform="matrix(1,0,0,-1,75.0,135.0)"/>
 <path d="M312,34 c197,0,324,150,324,292 c0,73,-35,128,-91,150 l0,97 l163,0 l0,77 l-732,0 l0,-77 l138,0 l0,-4 c-17,-14,-46,-42,-46,-98 c0,-60,38,-108,100,-122 l0,-4 c-42,-16,-84,-55,-84,-129 c0,-96,82,-182,228,-182 Z M489,298 c-37,7,-58,29,-58,61 c0,31,23,51,53,51 c36,0,64,-28,64,-83 c0,-116,-104,-211,-230,-211 c-90,0,-136,47,-136,104 c0,51,33,85,97,88 l21,0 l0,81 l-35,0 c-63,0,-98,36,-98,88 c0,57,41,96,106,96 l182,0 l0,-87 c-69,-11,-114,-64,-114,-126 c0,-63,42,-106,91,-119 Z M30,-28 c0,-30,23,-54,54,-54 c32,0,55,24,55,54 c0,33,-23,56,-55,56 c-31,0,-54,-23,-54,-56 Z M30,-28" fill="rgb(0,0,0)" transform="matrix(0.1,0.0,0.0,-0.1,7.0,135.0)"/>
</svg>