<?xml version="1.0" encoding="UTF-8"?>
<svg height="200.0" version="1.1" width="52.0" xmlns="http://www.w3.org/2000/svg" xmlns:xlink="http://www.w3.org/1999/xlink">
 <path d="M0,0 l52,0 l0,200 l-52,0 Z M0,0" fill="rgb(255,255,255)" transform="matrix(1,0,0,-1,0.0,200.0)"/>
 <path d="M0,0 l52,0" fill="none" stroke="rgb(229,229,229)" stroke-width="2" transform="matrix(1,0,0,-1,0.0,135.0)"/>
 <path d="M0,-4 l0,8" fill="none" stroke="rgb(255,76,25)" stroke-width="2" transform="matrix(1,0,0,-1,30.0,135.0)"/>
 <path d="M-18,948 c-15,3,-33,5,-54,5 c-105,0,-178,-76,-178,-166 c0,-77,40,-121,66,-138 l4,-5 l101,0 l0,6 c-40,18,-84,58,-84,124 c0,58,45,97,96,97 c13,0,25,-2,35,-4 Z M-16,838 c0,-23,18,-41,42,-41 c25,0,43,18,43,41 c0,25,-18,43,-43,43 c-24,0,-42,-18,-42,-43 Z M26,692 c72,0,119,44,136,85 l-52,34 c-11,-25,-38,-56,-84,-56 c-45,0,-72,31,-83,56 l-52,-34 c17,-41,63,-85,135,-85 Z M26,692" fill="rgb(0,0,0)" transform="matrix(0.1,0.0,0.0,-0.1,30.0,135.0)"/>
</svg>