<?xml version="1.0" encoding="UTF-8"?>
<svg height="200.0" version="1.1" width="66.0" xmlns="http://www.w3.org/2000/svg" xmlns:xlink="http://www.w3.org/1999/xlink">
 <path d="M0,0 l66,0 l0,200 l-66,0 Z M0,0" fill="rgb(255,255,255)" transform="matrix(1,0,0,-1,0.0,200.0)"/>
 <path d="M0,0 l66,0" fill="none" stroke="rgb(229,229,229)" stroke-width="2" transform="matrix(1,0,0,-1,0.0,135.0)"/>
 <path d="M0,1 l0,-5" fill="none" stroke="rgb(204,204,204)" stroke-width="2" transform="matrix(1,0,0,-1,29.0,135.0)"/>
 <path d="M0,1 l0,-5" fill="none" stroke="rgb(204,204,204)" stroke-width="2" transform="matrix(1,0,0,-1,57.0,135.0)"/>
 <path d="M303,573 l0,77 l-119,0 c-15,166,-110,287,-258,287 c-99,0,-164,-64,-164,-142 c0,-36,13,-70,35,-92 l92,19 c-22,21,-31,47,-31,70 c0,39,27,67,72,67 c95,0,156,-104,162,-209 l-116,0 l0,-77 l116,0 l0,-573 l94,0 l0,573 Z M190,829 c0,-35,28,-63,65,-63 c38,0,66,28,66,63 c0,39,-28,68,-66,68 c-37,0,-65,-29,-65,-68 Z M190,829" fill="rgb(0,0,0)" transform="matrix(0.1,0.0,0.0,-0.1,29.0,135.0)"/>
</svg>