<?xml version="1.0" encoding="UTF-8"?>
<svg height="200.0" version="1.1" width="80.0" xmlns="http://www.w3.org/2000/svg" xmlns:xlink="http://www.w3.org/1999/xlink">
 <path d="M0,0 l80,0 l0,200 l-80,0 Z M0,0" fill="rgb(255,255,255)" transform="matrix(1,0,0,-1,0.0,200.0)"/>
 <path d="M0,0 l80,0" fill="none" stroke="rgb(229,229,229)" stroke-width="2" transform="matrix(1,0,0,-1,0.0,135.0)"/>
 <path d="M0,1 l0,-5" fill="none" stroke="rgb(204,204,204)" stroke-width="2" transform="matrix(1,0,0,-1,29.0,135.0)"/>
 <path d="M0,1 l0,-5" fill="none" stroke="rgb(204,204,204)" stroke-width="2" transform="matrix(1,0,0,-1,57.0,135.0)"/>
 <path d="M316,984 c-10,3,-25,4,-35,4 c-92,0,-150,-66,-164,-159 l-4,0 c-17,34,-79,108,-186,108 c-102,0,-165,-65,-165,-142 c0,-36,14,-71,35,-92 l92,19 c-22,21,-31,46,-31,69 c0,40,27,68,73,68 c91,0,154,-97,161,-209 l-116,0 l0,-77 l116,0 l0,-573 l94,0 l0,573 l117,0 l0,77 l-119,0 c-8,26,-13,79,-13,112 c0,89,45,144,112,144 c8,0,15,-1,23,-2 Z M286,849 c0,-24,18,-42,41,-42 c25,0,43,17,43,41 c0,25,-18,42,-43,42 c-23,0,-41,-17,-41,-41 Z M327,707 c70,0,112,44,127,85 l-54,31 c-9,-25,-30,-54,-73,-54 c-42,0,-63,29,-72,54 l-54,-31 c15,-41,57,-85,126,-85 Z M327,707" fill="rgb(0,0,0)" transform="matrix(0.1,0.0,0.0,-0.1,29.0,135.0)"/>
</svg>