<?xml version="1.0" encoding="UTF-8"?>
<svg height="200.0" version="1.1" width="90.0" xmlns="http://www.w3.org/2000/svg" xmlns:xlink="http://www.w3.org/1999/xlink">
 <path d="M0,0 l90,0 l0,200 l-90,0 Z M0,0" fill="rgb(255,255,255)" transform="matrix(1,0,0,-1,0.0,200.0)"/>
 <path d="M0,0 l90,0" fill="none" stroke="rgb(229,229,229)" stroke-width="2" transform="matrix(1,0,0,-1,0.0,135.0)"/>
 <path d="M0,1 l0,-5" fill="none" stroke="rgb(204,204,204)" stroke-width="2" transform="matrix(1,0,0,-1,52.0,135.0)"/>
 <path d="M0,1 l0,-5" fill="none" stroke="rgb(204,204,204)" stroke-width="2" transform="matrix(1,0,0,-1,80.0,135.0)"/>
 <path d="M212,766 c70,0,112,44,126,85 l-53,31 c-10,-25,-31,-54,-73,-54 c-42,0,-63,29,-73,54 l-54,-31 c15,-41,57,-85,127,-85 Z M170,907 c0,-23,18,-41,42,-41 c24,0,42,17,42,41 c0,25,-18,42,-42,42 c-24,0,-42,-17,-42,-42 Z M303,573 l0,77 l-124,0 c-52,140,-206,291,-438,291 c-130,0,-208,-71,-208,-153 c0,-52,25,-83,44,-98 l87,23 c-19,15,-35,40,-35,70 c0,45,39,80,116,80 c181,0,298,-120,339,-213 l-108,0 l0,-77 l116,0 l0,-573 l94,0 l0,573 Z M303,573" fill="rgb(0,0,0)" transform="matrix(0.1,0.0,0.0,-0.1,52.0,135.0)"/>
</svg>