<?xml version="1.0" encoding="UTF-8"?>
<svg height="200.0" version="1.1" width="92.0" xmlns="http://www.w3.org/2000/svg" xmlns:xlink="http://www.w3.org/1999/xlink">
 <path d="M0,0 l92,0 l0,200 l-92,0 Z M0,0" fill="rgb(255,255,255)" transform="matrix(1,0,0,-1,0.0,200.0)"/>
 <path d="M0,0 l92,0" fill="none" stroke="rgb(229,229,229)" stroke-width="2" transform="matrix(1,0,0,-1,0.0,135.0)"/>
 <path d="M0,1 l0,-5" fill="none" stroke="rgb(204,204,204)" stroke-width="2" transform="matrix(1,0,0,-1,52.0,135.0)"/>
 <path d="M0,1 l0,-5" fill="none" stroke="rgb(204,204,204)" stroke-width="2" transform="matrix(1,0,0,-1,80.0,135.0)"/>
 <path d="M-24,573 l116,0 l0,-573 l94,0 l0,573 l117,0 l0,77 l-122,0 c-26,32,-41,72,-41,114 c0,60,42,105,102,105 c33,0,58,-9,75,-19 l32,76 c-15,9,-52,25,-107,25 c-99,0,-169,-74,-168,-160 l-4,0 c-61,70,-195,150,-334,150 c-127,0,-203,-71,-203,-153 c0,-51,25,-83,44,-97 l91,23 c-21,13,-39,40,-39,70 c0,44,35,78,113,78 c143,0,273,-96,338,-212 l-104,0 Z M200,756 c0,-29,23,-51,52,-51 c30,0,53,22,53,51 c0,30,-23,53,-53,53 c-29,0,-52,-23,-52,-53 Z M200,756" fill="rgb(0,0,0)" transform="matrix(0.1,0.0,0.0,-0.1,52.0,135.0)"/>
</svg>