<?xml version="1.0" encoding="UTF-8"?>
<svg height="200.0" version="1.1" width="100.0" xmlns="http://www.w3.org/2000/svg" xmlns:xlink="http://www.w3.org/1999/xlink">
 <path d="M0,0 l100,0 l0,200 l-100,0 Z M0,0" fill="rgb(255,255,255)" transform="matrix(1,0,0,-1,0.0,200.0)"/>
 <path d="M0,0 l100,0" fill="none" stroke="rgb(229,229,229)" stroke-width="2" transform="matrix(1,0,0,-1,0.0,135.0)"/>
 <path d="M0,1 l0,-5" fill="none" stroke="rgb(204,204,204)" stroke-width="2" transform="matrix(1,0,0,-1,52.0,135.0)"/>
 <path d="M0,1 l0,-5" fill="none" stroke="rgb(204,204,204)" stroke-width="2" transform="matrix(1,0,0,-1,80.0,135.0)"/>
 <path d="M256,976 c-9,1,-15,2,-24,2 c-95,0,-155,-67,-158,-162 c-1,-8,-1,-16,0,-25 l-4,0 c-61,72,-192,150,-334,150 c-127,0,-203,-71,-203,-153 c0,-51,25,-83,44,-97 l91,23 c-21,13,-39,40,-39,70 c0,44,35,78,113,78 c143,0,275,-96,340,-212 l-106,0 l0,-77 l116,0 l0,-573 l94,0 l0,573 l117,0 l0,77 l-126,0 c-27,38,-39,89,-39,128 c0,77,40,118,97,118 c6,0,13,0,19,-1 Z M303,702 c70,0,112,44,127,85 l-54,31 c-10,-25,-31,-54,-73,-54 c-42,0,-63,29,-73,54 l-53,-31 c14,-41,56,-85,126,-85 Z M303,802 c25,0,43,17,43,41 c0,25,-18,42,-43,42 c-24,0,-41,-17,-41,-42 c0,-23,17,-41,41,-41 Z M303,802" fill="rgb(0,0,0)" transform="matrix(0.1,0.0,0.0,-0.1,52.0,135.0)"/>
</svg>