<?xml version="1.0" encoding="UTF-8"?>
<svg height="200.0" version="1.1" width="60.0" xmlns="http://www.w3.org/2000/svg" xmlns:xlink="http://www.w3.org/1999/xlink">
 <path d="M0,0 l60,0 l0,200 l-60,0 Z M0,0" fill="rgb(255,255,255)" transform="matrix(1,0,0,-1,0.0,200.0)"/>
 <path d="M0,0 l60,0" fill="none" stroke="rgb(229,229,229)" stroke-width="2" transform="matrix(1,0,0,-1,0.0,135.0)"/>
 <path d="M0,-4 l0,8" fill="none" stroke="rgb(255,76,25)" stroke-width="2" transform="matrix(1,0,0,-1,48.0,135.0)"/>
 <path d="M-98,646 l-227,278 l-107,-24 l82,-95 c46,-52,118,-125,170,-162 l6,-4 Z M-94,890 c0,-23,18,-41,42,-41 c24,0,42,17,42,41 c0,25,-18,42,-42,42 c-24,0,-42,-17,-42,-42 Z M-52,749 c69,0,111,44,126,85 l-54,31 c-9,-25,-30,-54,-72,-54 c-43,0,-64,29,-73,54 l-54,-31 c15,-41,57,-85,127,-85 Z M-52,749" fill="rgb(0,0,0)" transform="matrix(0.1,0.0,0.0,-0.1,48.0,135.0)"/>
</svg>