<?xml version="1.0" encoding="UTF-8"?>
<svg height="200.0" version="1.1" width="58.0" xmlns="http://www.w3.org/2000/svg" xmlns:xlink="http://www.w3.org/1999/xlink">
 <path d="M0,0 l58,0 l0,200 l-58,0 Z M0,0" fill="rgb(255,255,255)" transform="matrix(1,0,0,-1,0.0,200.0)"/>
 <path d="M0,0 l58,0" fill="none" stroke="rgb(229,229,229)" stroke-width="2" transform="matrix(1,0,0,-1,0.0,135.0)"/>
 <path d="M0,-4 l0,8" fill="none" stroke="rgb(255,76,25)" stroke-width="2" transform="matrix(1,0,0,-1,49.0,135.0)"/>
 <path d="M-80,749 c0,-28,23,-50,51,-50 c30,0,52,22,52,50 c0,30,-22,53,-52,53 c-28,0,-51,-23,-51,-53 Z M-170,631 l67,15 l0,5 c-24,25,-44,63,-44,105 c0,64,43,107,106,107 c24,0,48,-6,69,-15 l15,80 c-16,7,-47,17,-87,17 c-119,0,-184,-95,-164,-191 l-4,0 l-122,163 l-110,-23 l70,-79 c60,-68,146,-147,204,-184 Z M-170,631" fill="rgb(0,0,0)" transform="matrix(0.1,0.0,0.0,-0.1,49.0,135.0)"/>
</svg>