<?xml version="1.0" encoding="UTF-8"?>
<svg height="200.0" version="1.1" width="50.0" xmlns="http://www.w3.org/2000/svg" xmlns:xlink="http://www.w3.org/1999/xlink">
 <path d="M0,0 l50,0 l0,200 l-50,0 Z M0,0" fill="rgb(255,255,255)" transform="matrix(1,0,0,-1,0.0,200.0)"/>
 <path d="M0,0 l50,0" fill="none" stroke="rgb(229,229,229)" stroke-width="2" transform="matrix(1,0,0,-1,0.0,135.0)"/>
 <path d="M0,-4 l0,8" fill="none" stroke="rgb(255,76,25)" stroke-width="2" transform="matrix(1,0,0,-1,44.0,135.0)"/>
 <path d="M-388,890 l62,-81 c46,-61,109,-130,148,-164 l7,-6 l76,7 l-189,264 Z M-112,821 c0,-35,29,-63,65,-63 c38,0,66,28,66,63 c0,39,-28,68,-66,68 c-36,0,-65,-29,-65,-68 Z M-112,821" fill="rgb(0,0,0)" transform="matrix(0.1,0.0,0.0,-0.1,44.0,135.0)"/>
</svg>