<?xml version="1.0" encoding="UTF-8"?>
<svg height="200.0" version="1.1" width="58.0" xmlns="http://www.w3.org/2000/svg" xmlns:xlink="http://www.w3.org/1999/xlink">
 <path d="M0,0 l58,0 l0,200 l-58,0 Z M0,0" fill="rgb(255,255,255)" transform="matrix(1,0,0,-1,0.0,200.0)"/>
 <path d="M0,0 l58,0" fill="none" stroke="rgb(229,229,229)" stroke-width="2" transform="matrix(1,0,0,-1,0.0,135.0)"/>
 <path d="M0,-4 l0,8" fill="none" stroke="rgb(255,76,25)" stroke-width="2" transform="matrix(1,0,0,-1,44.0,135.0)"/>
 <path d="M-388,890 l62,-81 c46,-61,109,-130,148,-164 l7,-6 l76,7 l-189,264 Z M-41,749 c70,0,112,44,127,85 l-54,31 c-9,-25,-30,-54,-73,-54 c-42,0,-63,29,-73,54 l-53,-31 c15,-41,57,-85,126,-85 Z M-41,849 c25,0,43,17,43,41 c0,25,-18,42,-43,42 c-24,0,-41,-17,-41,-42 c0,-23,17,-41,41,-41 Z M-41,849" fill="rgb(0,0,0)" transform="matrix(0.1,0.0,0.0,-0.1,44.0,135.0)"/>
</svg>