<?xml version="1.0" encoding="UTF-8"?>
<svg height="200.0" version="1.1" width="64.0" xmlns="http://www.w3.org/2000/svg" xmlns:xlink="http://www.w3.org/1999/xlink">
 <path d="M0,0 l64,0 l0,200 l-64,0 Z M0,0" fill="rgb(255,255,255)" transform="matrix(1,0,0,-1,0.0,200.0)"/>
 <path d="M0,0 l64,0" fill="none" stroke="rgb(229,229,229)" stroke-width="2" transform="matrix(1,0,0,-1,0.0,135.0)"/>
 <path d="M0,-4 l0,8" fill="none" stroke="rgb(255,76,25)" stroke-width="2" transform="matrix(1,0,0,-1,44.0,135.0)"/>
 <path d="M-92,646 l0,5 c-24,25,-44,71,-44,113 c0,84,49,125,112,119 l3,81 c-8,0,-15,1,-23,1 c-113,-5,-164,-100,-150,-203 l-4,0 l-86,148 l-104,-20 l61,-81 c40,-53,102,-124,153,-168 Z M152,791 l-53,31 c-10,-26,-31,-54,-73,-54 c-42,0,-63,28,-73,54 l-54,-31 c15,-41,57,-86,127,-86 c70,0,112,45,126,86 Z M68,846 c0,25,-18,43,-42,43 c-24,0,-42,-17,-42,-42 c0,-24,18,-42,42,-42 c24,0,42,18,42,41 Z M68,846" fill="rgb(0,0,0)" transform="matrix(0.1,0.0,0.0,-0.1,44.0,135.0)"/>
</svg>