<?xml version="1.0" encoding="UTF-8"?>
<svg height="200.0" version="1.1" width="58.0" xmlns="http://www.w3.org/2000/svg" xmlns:xlink="http://www.w3.org/1999/xlink">
 <path d="M0,0 l58,0 l0,200 l-58,0 Z M0,0" fill="rgb(255,255,255)" transform="matrix(1,0,0,-1,0.0,200.0)"/>
 <path d="M0,0 l58,0" fill="none" stroke="rgb(229,229,229)" stroke-width="2" transform="matrix(1,0,0,-1,0.0,135.0)"/>
 <path d="M0,-4 l0,8" fill="none" stroke="rgb(255,76,25)" stroke-width="2" transform="matrix(1,0,0,-1,47.0,135.0)"/>
 <path d="M-78,810 c0,-36,28,-63,64,-63 c38,0,66,27,66,63 c0,39,-28,67,-66,67 c-36,0,-64,-28,-64,-67 Z M-418,785 c99,-76,194,-143,264,-185 l68,38 l-83,268 l-97,-15 l126,-244 l-10,-3 l-177,184 Z M-418,785" fill="rgb(0,0,0)" transform="matrix(0.1,0.0,0.0,-0.1,47.0,135.0)"/>
</svg>