<?xml version="1.0" encoding="UTF-8"?>
<svg height="200.0" version="1.1" width="68.0" xmlns="http://www.w3.org/2000/svg" xmlns:xlink="http://www.w3.org/1999/xlink">
 <path d="M0,0 l68,0 l0,200 l-68,0 Z M0,0" fill="rgb(255,255,255)" transform="matrix(1,0,0,-1,0.0,200.0)"/>
 <path d="M0,0 l68,0" fill="none" stroke="rgb(229,229,229)" stroke-width="2" transform="matrix(1,0,0,-1,0.0,135.0)"/>
 <path d="M0,-4 l0,8" fill="none" stroke="rgb(255,76,25)" stroke-width="2" transform="matrix(1,0,0,-1,47.0,135.0)"/>
 <path d="M-89,641 c-24,34,-41,75,-41,118 c0,76,41,126,108,126 l3,81 l-10,0 c-99,-2,-137,-79,-138,-158 l-4,0 l-25,99 l-90,-15 l141,-245 l-10,-3 l-176,184 l-91,-43 c104,-81,193,-143,264,-185 Z M151,781 l-54,31 c-9,-25,-31,-54,-73,-54 c-42,0,-63,29,-73,54 l-53,-31 c14,-40,57,-85,126,-85 c70,0,112,45,127,85 Z M67,837 c0,25,-18,43,-43,43 c-24,0,-41,-17,-41,-42 c0,-24,17,-42,41,-42 c25,0,43,18,43,41 Z M67,837" fill="rgb(0,0,0)" transform="matrix(0.1,0.0,0.0,-0.1,47.0,135.0)"/>
</svg>