<?xml version="1.0" encoding="UTF-8"?>
<svg height="200.0" version="1.1" width="60.0" xmlns="http://www.w3.org/2000/svg" xmlns:xlink="http://www.w3.org/1999/xlink">
 <path d="M0,0 l60,0 l0,200 l-60,0 Z M0,0" fill="rgb(255,255,255)" transform="matrix(1,0,0,-1,0.0,200.0)"/>
 <path d="M0,0 l60,0" fill="none" stroke="rgb(229,229,229)" stroke-width="2" transform="matrix(1,0,0,-1,0.0,135.0)"/>
 <path d="M0,1 l0,-5" fill="none" stroke="rgb(204,204,204)" stroke-width="2" transform="matrix(1,0,0,-1,20.0,135.0)"/>
 <path d="M0,1 l0,-5" fill="none" stroke="rgb(204,204,204)" stroke-width="2" transform="matrix(1,0,0,-1,48.0,135.0)"/>
 <path d="M303,573 l0,77 l-124,0 l-225,274 l-107,-24 l83,-95 c43,-49,110,-116,160,-155 l-114,0 l0,-77 l116,0 l0,-573 l94,0 l0,573 Z M227,749 c70,0,112,44,127,85 l-54,31 c-9,-25,-30,-54,-73,-54 c-42,0,-63,29,-73,54 l-53,-31 c15,-41,57,-85,126,-85 Z M186,890 c0,-23,17,-41,41,-41 c25,0,43,17,43,41 c0,25,-18,42,-43,42 c-24,0,-41,-17,-41,-42 Z M186,890" fill="rgb(0,0,0)" transform="matrix(0.1,0.0,0.0,-0.1,20.0,135.0)"/>
</svg>