<?xml version="1.0" encoding="UTF-8"?>
<svg height="200.0" version="1.1" width="58.0" xmlns="http://www.w3.org/2000/svg" xmlns:xlink="http://www.w3.org/1999/xlink">
 <path d="M0,0 l58,0 l0,200 l-58,0 Z M0,0" fill="rgb(255,255,255)" transform="matrix(1,0,0,-1,0.0,200.0)"/>
 <path d="M0,0 l58,0" fill="none" stroke="rgb(229,229,229)" stroke-width="2" transform="matrix(1,0,0,-1,0.0,135.0)"/>
 <path d="M0,1 l0,-5" fill="none" stroke="rgb(204,204,204)" stroke-width="2" transform="matrix(1,0,0,-1,21.0,135.0)"/>
 <path d="M0,1 l0,-5" fill="none" stroke="rgb(204,204,204)" stroke-width="2" transform="matrix(1,0,0,-1,49.0,135.0)"/>
 <path d="M303,573 l0,77 l-122,0 l0,1 c-24,25,-44,63,-44,105 c0,64,42,107,105,107 c25,0,49,-6,69,-15 l16,80 c-16,7,-47,17,-88,17 c-119,0,-183,-95,-163,-191 l-4,0 l-123,163 l-109,-23 l70,-79 c51,-58,121,-124,177,-165 l-111,0 l0,-77 l116,0 l0,-573 l94,0 l0,573 Z M204,749 c0,-28,23,-50,50,-50 c30,0,53,22,53,50 c0,30,-23,53,-53,53 c-27,0,-50,-23,-50,-53 Z M204,749" fill="rgb(0,0,0)" transform="matrix(0.1,0.0,0.0,-0.1,21.0,135.0)"/>
</svg>