<?xml version="1.0" encoding="UTF-8"?>
<svg height="200.0" version="1.1" width="74.0" xmlns="http://www.w3.org/2000/svg" xmlns:xlink="http://www.w3.org/1999/xlink">
 <path d="M0,0 l74,0 l0,200 l-74,0 Z M0,0" fill="rgb(255,255,255)" transform="matrix(1,0,0,-1,0.0,200.0)"/>
 <path d="M0,0 l74,0" fill="none" stroke="rgb(229,229,229)" stroke-width="2" transform="matrix(1,0,0,-1,0.0,135.0)"/>
 <path d="M0,1 l0,-5" fill="none" stroke="rgb(204,204,204)" stroke-width="2" transform="matrix(1,0,0,-1,29.0,135.0)"/>
 <path d="M0,1 l0,-5" fill="none" stroke="rgb(204,204,204)" stroke-width="2" transform="matrix(1,0,0,-1,57.0,135.0)"/>
 <path d="M303,573 l0,77 l-112,0 l-104,278 l-103,-24 l147,-254 l-4,0 l-277,274 l-85,-53 c99,-87,201,-164,285,-221 l-74,0 l0,-77 l116,0 l0,-573 l94,0 l0,573 Z M280,753 c70,0,112,45,126,86 l-53,31 c-10,-26,-31,-54,-73,-54 c-42,0,-63,28,-73,54 l-53,-31 c14,-41,56,-86,126,-86 Z M280,853 c24,0,43,18,43,41 c0,25,-19,43,-43,43 c-24,0,-42,-17,-42,-42 c0,-24,18,-42,42,-42 Z M280,853" fill="rgb(0,0,0)" transform="matrix(0.1,0.0,0.0,-0.1,29.0,135.0)"/>
</svg>