<?xml version="1.0" encoding="UTF-8"?>
<svg height="200.0" version="1.1" width="68.0" xmlns="http://www.w3.org/2000/svg" xmlns:xlink="http://www.w3.org/1999/xlink">
 <path d="M0,0 l68,0 l0,200 l-68,0 Z M0,0" fill="rgb(255,255,255)" transform="matrix(1,0,0,-1,0.0,200.0)"/>
 <path d="M0,0 l68,0" fill="none" stroke="rgb(229,229,229)" stroke-width="2" transform="matrix(1,0,0,-1,0.0,135.0)"/>
 <path d="M0,1 l0,-5" fill="none" stroke="rgb(204,204,204)" stroke-width="2" transform="matrix(1,0,0,-1,28.0,135.0)"/>
 <path d="M0,1 l0,-5" fill="none" stroke="rgb(204,204,204)" stroke-width="2" transform="matrix(1,0,0,-1,56.0,135.0)"/>
 <path d="M303,573 l0,77 l-107,0 c-17,26,-31,61,-31,99 c0,68,46,115,109,115 c21,0,44,-5,60,-13 l19,81 c-16,7,-42,13,-75,13 c-97,0,-158,-69,-162,-138 l-4,0 l-51,118 l-107,-20 l171,-236 l-3,-2 l-265,245 l-82,-53 l80,-68 c54,-46,131,-100,198,-141 l-77,0 l0,-77 l116,0 l0,-573 l94,0 l0,573 Z M227,749 c0,-27,23,-49,51,-49 c30,0,52,22,52,49 c0,31,-22,54,-52,54 c-28,0,-51,-23,-51,-54 Z M227,749" fill="rgb(0,0,0)" transform="matrix(0.1,0.0,0.0,-0.1,28.0,135.0)"/>
</svg>