<?xml version="1.0" encoding="UTF-8"?>
<svg height="200.0" version="1.1" width="54.0" xmlns="http://www.w3.org/2000/svg" xmlns:xlink="http://www.w3.org/1999/xlink">
 <path d="M0,0 l54,0 l0,200 l-54,0 Z M0,0" fill="rgb(255,255,255)" transform="matrix(1,0,0,-1,0.0,200.0)"/>
 <path d="M0,0 l54,0" fill="none" stroke="rgb(229,229,229)" stroke-width="2" transform="matrix(1,0,0,-1,0.0,135.0)"/>
 <path d="M0,1 l0,-5" fill="none" stroke="rgb(204,204,204)" stroke-width="2" transform="matrix(1,0,0,-1,13.0,135.0)"/>
 <path d="M0,1 l0,-5" fill="none" stroke="rgb(204,204,204)" stroke-width="2" transform="matrix(1,0,0,-1,41.0,135.0)"/>
 <path d="M303,573 l0,77 l-327,0 l0,-77 l116,0 l0,-573 l94,0 l0,573 Z M139,745 c114,0,182,58,215,131 l-73,38 c-24,-52,-70,-88,-142,-88 c-71,0,-118,36,-141,88 l-74,-38 c33,-73,102,-131,215,-131 Z M80,973 c0,-32,26,-58,59,-58 c35,0,61,26,61,58 c0,36,-26,62,-61,62 c-33,0,-59,-26,-59,-62 Z M80,973" fill="rgb(0,0,0)" transform="matrix(0.1,0.0,0.0,-0.1,13.0,135.0)"/>
</svg>