<?xml version="1.0" encoding="UTF-8"?>
<svg height="200.0" version="1.1" width="52.0" xmlns="http://www.w3.org/2000/svg" xmlns:xlink="http://www.w3.org/1999/xlink">
 <path d="M0,0 l52,0 l0,200 l-52,0 Z M0,0" fill="rgb(255,255,255)" transform="matrix(1,0,0,-1,0.0,200.0)"/>
 <path d="M0,0 l52,0" fill="none" stroke="rgb(229,229,229)" stroke-width="2" transform="matrix(1,0,0,-1,0.0,135.0)"/>
 <path d="M0,1 l0,-5" fill="none" stroke="rgb(204,204,204)" stroke-width="2" transform="matrix(1,0,0,-1,13.0,135.0)"/>
 <path d="M0,1 l0,-5" fill="none" stroke="rgb(204,204,204)" stroke-width="2" transform="matrix(1,0,0,-1,41.0,135.0)"/>
 <path d="M303,573 l0,77 l-327,0 l0,-77 l116,0 l0,-573 l94,0 l0,573 Z M139,720 c113,0,182,58,214,130 l-72,38 c-24,-52,-70,-88,-142,-88 c-71,0,-118,36,-141,88 l-74,-38 c33,-72,102,-130,215,-130 Z M80,1120 c0,-32,26,-58,60,-58 c34,0,60,26,60,58 c0,36,-26,62,-60,62 c-34,0,-60,-26,-60,-62 Z M139,892 c113,0,182,58,214,131 l-72,38 c-24,-52,-70,-88,-142,-88 c-71,0,-118,36,-141,88 l-74,-38 c33,-73,102,-131,215,-131 Z M139,892" fill="rgb(0,0,0)" transform="matrix(0.1,0.0,0.0,-0.1,13.0,135.0)"/>
</svg>