<?xml version="1.0" encoding="UTF-8"?>
<svg height="200.0" version="1.1" width="70.0" xmlns="http://www.w3.org/2000/svg" xmlns:xlink="http://www.w3.org/1999/xlink">
 <path d="M0,0 l70,0 l0,200 l-70,0 Z M0,0" fill="rgb(255,255,255)" transform="matrix(1,0,0,-1,0.0,200.0)"/>
 <path d="M0,0 l70,0" fill="none" stroke="rgb(229,229,229)" stroke-width="2" transform="matrix(1,0,0,-1,0.0,135.0)"/>
 <path d="M0,1 l0,-5" fill="none" stroke="rgb(204,204,204)" stroke-width="2" transform="matrix(1,0,0,-1,7.0,135.0)"/>
 <path d="M0,1 l0,-5" fill="none" stroke="rgb(204,204,204)" stroke-width="2" transform="matrix(1,0,0,-1,59.0,135.0)"/>
 <path d="M573,-263 c-23,124,-123,284,-289,284 c-9,0,-18,-1,-27,-2 c-66,27,-88,65,-88,107 c0,57,53,99,134,99 c50,0,77,-25,77,-57 c0,-28,-17,-51,-41,-72 l80,-47 c26,26,49,63,49,113 c0,74,-55,142,-166,142 c-33,0,-64,-5,-91,-14 c-32,18,-52,46,-52,75 c0,24,14,43,57,43 l217,0 l0,165 l107,0 l0,77 l-564,0 l0,-77 l365,0 l0,-87 l-146,0 c-83,0,-130,-44,-130,-107 c0,-54,31,-98,76,-125 c-42,-32,-66,-77,-66,-124 c0,-66,31,-116,87,-151 c-31,-27,-50,-66,-50,-111 c0,-81,58,-146,149,-146 c19,0,45,2,67,12 l0,84 c-17,-9,-34,-15,-55,-15 c-41,0,-68,30,-68,67 c0,41,33,70,78,70 c92,0,173,-93,200,-228 Z M573,-263" fill="rgb(0,0,0)" transform="matrix(0.1,0.0,0.0,-0.1,7.0,135.0)"/>
</svg>