<?xml version="1.0" encoding="UTF-8"?>
<svg height="200.0" version="1.1" width="94.0" xmlns="http://www.w3.org/2000/svg" xmlns:xlink="http://www.w3.org/1999/xlink">
 <path d="M0,0 l94,0 l0,200 l-94,0 Z M0,0" fill="rgb(255,255,255)" transform="matrix(1,0,0,-1,0.0,200.0)"/>
 <path d="M0,0 l94,0" fill="none" stroke="rgb(229,229,229)" stroke-width="2" transform="matrix(1,0,0,-1,0.0,135.0)"/>
 <path d="M0,1 l0,-5" fill="none" stroke="rgb(204,204,204)" stroke-width="2" transform="matrix(1,0,0,-1,7.0,135.0)"/>
 <path d="M0,1 l0,-5" fill="none" stroke="rgb(204,204,204)" stroke-width="2" transform="matrix(1,0,0,-1,86.0,135.0)"/>
 <path d="M782,-138 c0,93,-71,149,-162,149 c-17,0,-33,-2,-47,-5 c-97,24,-130,71,-130,120 c0,57,53,99,133,99 c50,0,78,-25,78,-57 c0,-26,-15,-49,-37,-68 l82,-45 c23,24,45,63,45,109 c0,73,-60,140,-168,140 c-34,0,-64,-5,-91,-14 c-31,17,-52,46,-52,75 c0,24,14,43,57,43 l217,0 l0,165 l107,0 l0,77 l-838,0 l0,-77 l639,0 l0,-87 l-146,0 c-72,0,-117,-33,-128,-83 l-251,0 l-68,-51 c0,-71,35,-125,79,-150 l52,21 l0,97 l200,0 c13,-27,35,-50,61,-66 c-41,-33,-65,-77,-65,-124 c0,-123,111,-185,223,-209 c12,6,27,10,43,10 c41,0,71,-28,71,-69 c0,-60,-49,-86,-106,-86 c-107,0,-192,74,-244,153 l-67,-55 c50,-69,152,-177,312,-177 c144,0,201,85,201,165 Z M782,-138" fill="rgb(0,0,0)" transform="matrix(0.1,0.0,0.0,-0.1,7.0,135.0)"/>
</svg>