<?xml version="1.0" encoding="UTF-8"?>
<svg height="200.0" version="1.1" width="84.0" xmlns="http://www.w3.org/2000/svg" xmlns:xlink="http://www.w3.org/1999/xlink">
 <path d="M0,0 l84,0 l0,200 l-84,0 Z M0,0" fill="rgb(255,255,255)" transform="matrix(1,0,0,-1,0.0,200.0)"/>
 <path d="M0,0 l84,0" fill="none" stroke="rgb(229,229,229)" stroke-width="2" transform="matrix(1,0,0,-1,0.0,135.0)"/>
 <path d="M0,1 l0,-5" fill="none" stroke="rgb(204,204,204)" stroke-width="2" transform="matrix(1,0,0,-1,8.0,135.0)"/>
 <path d="M0,1 l0,-5" fill="none" stroke="rgb(204,204,204)" stroke-width="2" transform="matrix(1,0,0,-1,77.0,135.0)"/>
 <path d="M686,-138 c0,93,-71,149,-162,149 c-17,0,-33,-2,-47,-5 c-97,24,-130,71,-130,120 c0,57,53,99,133,99 c50,0,78,-25,78,-57 c0,-26,-15,-49,-37,-68 l81,-45 c24,24,46,63,46,109 c0,73,-60,140,-168,140 c-34,0,-64,-5,-91,-14 c-31,17,-52,46,-52,75 c0,24,14,43,57,43 l217,0 l0,165 l107,0 l0,77 l-742,0 l0,-77 l543,0 l0,-87 l-146,0 c-83,0,-130,-44,-130,-107 c0,-4,0,-8,1,-12 c-33,-14,-70,-24,-112,-24 c-66,0,-106,24,-130,41 l-31,-65 c23,-21,81,-54,163,-54 c57,0,104,13,140,28 c12,-15,27,-29,44,-39 c-42,-33,-65,-77,-65,-124 c0,-123,111,-185,223,-209 c12,6,27,10,43,10 c41,0,71,-28,71,-69 c0,-60,-49,-86,-106,-86 c-107,0,-192,74,-244,153 l-67,-55 c50,-69,151,-177,312,-177 c144,0,201,85,201,165 Z M686,-138" fill="rgb(0,0,0)" transform="matrix(0.1,0.0,0.0,-0.1,8.0,135.0)"/>
</svg>