<?xml version="1.0" encoding="UTF-8"?>
<svg height="200.0" version="1.1" width="112.0" xmlns="http://www.w3.org/2000/svg" xmlns:xlink="http://www.w3.org/1999/xlink">
 <path d="M0,0 l112,0 l0,200 l-112,0 Z M0,0" fill="rgb(255,255,255)" transform="matrix(1,0,0,-1,0.0,200.0)"/>
 <path d="M0,0 l112,0" fill="none" stroke="rgb(229,229,229)" stroke-width="2" transform="matrix(1,0,0,-1,0.0,135.0)"/>
 <path d="M0,1 l0,-5" fill="none" stroke="rgb(204,204,204)" stroke-width="2" transform="matrix(1,0,0,-1,7.0,135.0)"/>
 <path d="M0,1 l0,-5" fill="none" stroke="rgb(204,204,204)" stroke-width="2" transform="matrix(1,0,0,-1,105.0,135.0)"/>
 <path d="M967,-138 c0,93,-70,149,-162,149 c-17,0,-32,-2,-46,-5 c-98,24,-130,71,-130,120 c0,57,53,99,133,99 c50,0,78,-25,78,-57 c0,-26,-15,-49,-37,-68 l81,-45 c24,24,45,63,45,109 c0,73,-59,140,-168,140 c-33,0,-64,-5,-90,-14 c-32,17,-53,46,-53,75 c0,24,14,43,58,43 l216,0 l0,165 l107,0 l0,77 l-1023,0 l0,-77 l825,0 l0,-87 l-147,0 c-49,0,-86,-16,-108,-42 c-22,12,-51,20,-85,20 c-64,0,-105,-37,-118,-83 l-4,0 c-17,48,-61,78,-125,78 c-84,0,-168,-62,-168,-186 c0,-125,78,-229,182,-283 l63,65 c-102,54,-148,132,-148,215 c0,77,39,105,80,105 c46,0,75,-29,75,-88 l0,-98 l89,0 l0,98 c0,60,31,92,79,92 c25,0,45,-8,59,-18 c6,-45,35,-83,74,-107 c-41,-33,-64,-77,-64,-124 c0,-123,111,-185,223,-209 c12,6,26,10,43,10 c41,0,71,-28,71,-69 c0,-60,-49,-86,-106,-86 c-107,0,-192,74,-244,153 l-68,-55 c51,-69,152,-177,313,-177 c144,0,200,85,200,165 Z M967,-138" fill="rgb(0,0,0)" transform="matrix(0.1,0.0,0.0,-0.1,7.0,135.0)"/>
</svg>