<?xml version="1.0" encoding="UTF-8"?>
<svg height="200.0" version="1.1" width="116.0" xmlns="http://www.w3.org/2000/svg" xmlns:xlink="http://www.w3.org/1999/xlink">
 <path d="M0,0 l116,0 l0,200 l-116,0 Z M0,0" fill="rgb(255,255,255)" transform="matrix(1,0,0,-1,0.0,200.0)"/>
 <path d="M0,0 l116,0" fill="none" stroke="rgb(229,229,229)" stroke-width="2" transform="matrix(1,0,0,-1,0.0,135.0)"/>
 <path d="M0,1 l0,-5" fill="none" stroke="rgb(204,204,204)" stroke-width="2" transform="matrix(1,0,0,-1,7.0,135.0)"/>
 <path d="M0,1 l0,-5" fill="none" stroke="rgb(204,204,204)" stroke-width="2" transform="matrix(1,0,0,-1,105.0,135.0)"/>
 <path d="M1032,-263 c-22,124,-122,284,-288,284 c-9,0,-19,-1,-28,-2 c-65,27,-87,65,-87,107 c0,57,52,99,134,99 c50,0,77,-25,77,-57 c0,-28,-17,-51,-41,-72 l80,-47 c25,26,49,63,49,113 c0,74,-55,142,-167,142 c-33,0,-63,-5,-90,-14 c-32,18,-53,46,-53,75 c0,24,14,43,58,43 l216,0 l0,165 l107,0 l0,77 l-1023,0 l0,-77 l825,0 l0,-87 l-147,0 c-49,0,-86,-16,-108,-42 c-22,12,-51,20,-85,20 c-64,0,-105,-37,-118,-83 l-4,0 c-17,48,-61,78,-125,78 c-84,0,-168,-62,-168,-186 c0,-125,78,-229,182,-283 l63,65 c-102,54,-148,132,-148,215 c0,77,39,105,80,105 c46,0,75,-29,75,-88 l0,-98 l89,0 l0,98 c0,60,31,92,79,92 c25,0,45,-8,59,-18 c7,-46,36,-84,75,-107 c-41,-33,-65,-77,-65,-124 c0,-66,31,-116,87,-151 c-31,-27,-50,-66,-50,-111 c0,-81,58,-146,148,-146 c19,0,46,2,68,12 l0,84 c-18,-9,-34,-15,-55,-15 c-42,0,-68,30,-68,67 c0,41,32,70,78,70 c91,0,173,-93,199,-228 Z M1032,-263" fill="rgb(0,0,0)" transform="matrix(0.1,0.0,0.0,-0.1,7.0,135.0)"/>
</svg>