<?xml version="1.0" encoding="UTF-8"?>
<svg height="200.0" version="1.1" width="72.0" xmlns="http://www.w3.org/2000/svg" xmlns:xlink="http://www.w3.org/1999/xlink">
 <path d="M0,0 l72,0 l0,200 l-72,0 Z M0,0" fill="rgb(255,255,255)" transform="matrix(1,0,0,-1,0.0,200.0)"/>
 <path d="M0,0 l72,0" fill="none" stroke="rgb(229,229,229)" stroke-width="2" transform="matrix(1,0,0,-1,0.0,135.0)"/>
 <path d="M0,1 l0,-5" fill="none" stroke="rgb(204,204,204)" stroke-width="2" transform="matrix(1,0,0,-1,7.0,135.0)"/>
 <path d="M0,1 l0,-5" fill="none" stroke="rgb(204,204,204)" stroke-width="2" transform="matrix(1,0,0,-1,60.0,135.0)"/>
 <path d="M596,-240 l-42,72 c-31,-24,-88,-46,-143,-46 c-72,0,-103,32,-103,73 c0,54,65,77,175,90 l-47,172 c19,18,37,45,37,85 c0,48,-32,76,-59,90 l-65,-25 l0,-99 c-18,-16,-47,-25,-83,-25 c-72,0,-129,51,-129,119 c0,57,31,92,124,116 l150,37 l0,154 l147,0 l0,77 l-582,0 l0,-77 l340,0 l0,-88 l-111,-27 c-109,-27,-162,-85,-162,-177 c0,-119,100,-217,239,-217 c31,0,60,4,86,15 l14,-74 c-105,-22,-166,-69,-166,-149 c0,-86,75,-152,200,-152 c65,0,131,23,180,56 Z M596,-240" fill="rgb(0,0,0)" transform="matrix(0.1,0.0,0.0,-0.1,7.0,135.0)"/>
</svg>