<?xml version="1.0" encoding="UTF-8"?>
<svg height="200.0" version="1.1" width="82.0" xmlns="http://www.w3.org/2000/svg" xmlns:xlink="http://www.w3.org/1999/xlink">
 <path d="M0,0 l82,0 l0,200 l-82,0 Z M0,0" fill="rgb(255,255,255)" transform="matrix(1,0,0,-1,0.0,200.0)"/>
 <path d="M0,0 l82,0" fill="none" stroke="rgb(229,229,229)" stroke-width="2" transform="matrix(1,0,0,-1,0.0,135.0)"/>
 <path d="M0,1 l0,-5" fill="none" stroke="rgb(204,204,204)" stroke-width="2" transform="matrix(1,0,0,-1,5.0,135.0)"/>
 <path d="M0,1 l0,-5" fill="none" stroke="rgb(204,204,204)" stroke-width="2" transform="matrix(1,0,0,-1,75.0,135.0)"/>
 <path d="M704,-125 l-42,74 c-38,-27,-90,-44,-142,-44 c-58,0,-95,25,-95,69 c0,56,61,86,171,86 l10,0 l0,513 l116,0 l0,77 l-211,0 l0,-347 c-62,10,-127,27,-182,53 c59,43,89,94,89,157 c0,88,-62,149,-157,149 c-95,0,-160,-67,-160,-150 c0,-45,22,-95,69,-141 c-50,-16,-107,-27,-165,-35 l54,-85 c74,17,137,37,189,60 c65,-40,152,-73,263,-92 l0,-90 c-95,-12,-181,-60,-181,-155 c0,-92,75,-152,188,-152 c78,0,142,24,186,53 Z M191,510 c0,46,29,72,70,72 c39,0,66,-26,66,-71 c0,-45,-30,-80,-77,-107 c-36,30,-59,65,-59,106 Z M191,510" fill="rgb(0,0,0)" transform="matrix(0.1,0.0,0.0,-0.1,5.0,135.0)"/>
</svg>