<?xml version="1.0" encoding="UTF-8"?>
<svg height="200.0" version="1.1" width="68.0" xmlns="http://www.w3.org/2000/svg" xmlns:xlink="http://www.w3.org/1999/xlink">
 <path d="M0,0 l68,0 l0,200 l-68,0 Z M0,0" fill="rgb(255,255,255)" transform="matrix(1,0,0,-1,0.0,200.0)"/>
 <path d="M0,0 l68,0" fill="none" stroke="rgb(229,229,229)" stroke-width="2" transform="matrix(1,0,0,-1,0.0,135.0)"/>
 <path d="M0,1 l0,-5" fill="none" stroke="rgb(204,204,204)" stroke-width="2" transform="matrix(1,0,0,-1,7.0,135.0)"/>
 <path d="M0,1 l0,-5" fill="none" stroke="rgb(204,204,204)" stroke-width="2" transform="matrix(1,0,0,-1,59.0,135.0)"/>
 <path d="M434,-45 c-191,24,-270,87,-270,173 c0,61,56,118,155,118 c26,0,36,-7,36,-19 c0,-21,-69,-48,-69,-94 c0,-57,66,-100,139,-100 c48,0,94,13,129,38 l-31,72 c-23,-23,-56,-40,-97,-40 c-35,0,-56,10,-56,28 c0,28,72,55,72,102 c0,44,-33,83,-126,83 c-45,0,-84,-8,-117,-21 c-26,17,-43,44,-43,70 c0,25,14,43,56,43 l221,0 l0,165 l107,0 l0,77 l-564,0 l0,-77 l365,0 l0,-87 l-146,0 c-83,0,-130,-44,-130,-107 c0,-52,28,-95,72,-123 c-39,-34,-60,-79,-60,-125 c0,-134,139,-222,307,-248 Z M434,-45" fill="rgb(0,0,0)" transform="matrix(0.1,0.0,0.0,-0.1,7.0,135.0)"/>
</svg>