<?xml version="1.0" encoding="UTF-8"?>
<svg height="200.0" version="1.1" width="64.0" xmlns="http://www.w3.org/2000/svg" xmlns:xlink="http://www.w3.org/1999/xlink">
 <path d="M0,0 l64,0 l0,200 l-64,0 Z M0,0" fill="rgb(255,255,255)" transform="matrix(1,0,0,-1,0.0,200.0)"/>
 <path d="M0,0 l64,0" fill="none" stroke="rgb(229,229,229)" stroke-width="2" transform="matrix(1,0,0,-1,0.0,135.0)"/>
 <path d="M0,1 l0,-5" fill="none" stroke="rgb(204,204,204)" stroke-width="2" transform="matrix(1,0,0,-1,5.0,135.0)"/>
 <path d="M0,1 l0,-5" fill="none" stroke="rgb(204,204,204)" stroke-width="2" transform="matrix(1,0,0,-1,59.0,135.0)"/>
 <path d="M482,-29 l-176,103 l-2,3 c84,7,150,64,150,166 l0,394 l-94,0 l0,-213 c-23,-25,-59,-43,-100,-43 c-60,0,-95,35,-95,95 c0,60,18,109,42,160 l-85,29 c-25,-45,-53,-109,-53,-199 c0,-96,71,-166,169,-166 c61,0,100,23,122,41 l0,-92 c0,-80,-44,-118,-145,-104 l-124,79 l-41,-45 c-1,-5,-1,-9,-1,-14 c0,-54,52,-103,159,-105 l173,-145 Z M482,-29" fill="rgb(0,0,0)" transform="matrix(0.1,0.0,0.0,-0.1,5.0,135.0)"/>
</svg>