<?xml version="1.0" encoding="UTF-8"?>
<svg height="200.0" version="1.1" width="62.0" xmlns="http://www.w3.org/2000/svg" xmlns:xlink="http://www.w3.org/1999/xlink">
 <path d="M0,0 l62,0 l0,200 l-62,0 Z M0,0" fill="rgb(255,255,255)" transform="matrix(1,0,0,-1,0.0,200.0)"/>
 <path d="M0,0 l62,0" fill="none" stroke="rgb(229,229,229)" stroke-width="2" transform="matrix(1,0,0,-1,0.0,135.0)"/>
 <path d="M0,1 l0,-5" fill="none" stroke="rgb(204,204,204)" stroke-width="2" transform="matrix(1,0,0,-1,5.0,135.0)"/>
 <path d="M0,1 l0,-5" fill="none" stroke="rgb(204,204,204)" stroke-width="2" transform="matrix(1,0,0,-1,56.0,135.0)"/>
 <path d="M76,359 c0,-51,39,-102,102,-111 l115,-228 l98,27 l-140,218 c96,18,194,80,194,205 c0,117,-90,190,-204,190 c-56,0,-104,-14,-141,-39 l49,-76 c28,20,60,29,96,29 c61,0,108,-37,108,-105 c0,-77,-67,-120,-150,-128 l-71,83 l-52,-35 c-3,-8,-4,-21,-4,-30 Z M76,359" fill="rgb(0,0,0)" transform="matrix(0.1,0.0,0.0,-0.1,5.0,135.0)"/>
</svg>