<?xml version="1.0" encoding="UTF-8"?>
<svg height="200.0" version="1.1" width="62.0" xmlns="http://www.w3.org/2000/svg" xmlns:xlink="http://www.w3.org/1999/xlink">
 <path d="M0,0 l62,0 l0,200 l-62,0 Z M0,0" fill="rgb(255,255,255)" transform="matrix(1,0,0,-1,0.0,200.0)"/>
 <path d="M0,0 l62,0" fill="none" stroke="rgb(229,229,229)" stroke-width="2" transform="matrix(1,0,0,-1,0.0,135.0)"/>
 <path d="M0,1 l0,-5" fill="none" stroke="rgb(204,204,204)" stroke-width="2" transform="matrix(1,0,0,-1,5.0,135.0)"/>
 <path d="M0,1 l0,-5" fill="none" stroke="rgb(204,204,204)" stroke-width="2" transform="matrix(1,0,0,-1,56.0,135.0)"/>
 <path d="M481,302 c0,165,-79,226,-163,226 c-75,0,-133,-59,-133,-144 c0,-106,93,-185,203,-160 c-19,-82,-70,-111,-121,-111 c-81,0,-142,83,-142,256 c0,72,17,196,45,271 l-89,18 c-30,-83,-45,-207,-45,-287 c0,-208,81,-340,234,-340 c116,0,211,93,211,271 Z M272,380 c0,38,21,65,51,65 c34,0,74,-30,74,-139 c0,-4,0,-9,0,-12 c-77,-13,-125,32,-125,86 Z M272,380" fill="rgb(0,0,0)" transform="matrix(0.1,0.0,0.0,-0.1,5.0,135.0)"/>
</svg>