<?xml version="1.0" encoding="UTF-8"?>
<svg height="200.0" version="1.1" width="74.0" xmlns="http://www.w3.org/2000/svg" xmlns:xlink="http://www.w3.org/1999/xlink">
 <path d="M0,0 l74,0 l0,200 l-74,0 Z M0,0" fill="rgb(255,255,255)" transform="matrix(1,0,0,-1,0.0,200.0)"/>
 <path d="M0,0 l74,0" fill="none" stroke="rgb(229,229,229)" stroke-width="2" transform="matrix(1,0,0,-1,0.0,135.0)"/>
 <path d="M0,1 l0,-5" fill="none" stroke="rgb(204,204,204)" stroke-width="2" transform="matrix(1,0,0,-1,7.0,135.0)"/>
 <path d="M0,1 l0,-5" fill="none" stroke="rgb(204,204,204)" stroke-width="2" transform="matrix(1,0,0,-1,63.0,135.0)"/>
 <path d="M583,650 l-607,0 l0,-77 l387,0 l0,-62 l-158,0 c-72,0,-106,-43,-106,-91 c0,-61,44,-123,129,-145 l173,30 c10,-8,17,-21,17,-40 c0,-39,-34,-76,-123,-76 c-90,0,-157,42,-204,107 l-54,-56 c31,-42,74,-77,126,-99 l0,-82 l-55,-42 c0,-39,18,-78,56,-105 l82,0 l0,206 c16,-3,32,-4,49,-4 c24,0,47,2,67,7 l0,-355 l84,0 l0,391 c39,29,58,69,58,111 c0,58,-31,99,-70,114 l-195,-31 c-32,9,-46,33,-46,53 c0,21,12,36,49,36 l211,0 l0,133 l130,0 Z M514,414 c0,-29,24,-53,54,-53 c31,0,54,24,54,53 c0,31,-23,55,-53,55 c-31,0,-55,-24,-55,-55 Z M514,414" fill="rgb(0,0,0)" transform="matrix(0.1,0.0,0.0,-0.1,7.0,135.0)"/>
</svg>