<?xml version="1.0" encoding="UTF-8"?>
<svg height="200.0" version="1.1" width="100.0" xmlns="http://www.w3.org/2000/svg" xmlns:xlink="http://www.w3.org/1999/xlink">
 <path d="M0,0 l100,0 l0,200 l-100,0 Z M0,0" fill="rgb(255,255,255)" transform="matrix(1,0,0,-1,0.0,200.0)"/>
 <path d="M0,0 l100,0" fill="none" stroke="rgb(229,229,229)" stroke-width="2" transform="matrix(1,0,0,-1,0.0,135.0)"/>
 <path d="M0,1 l0,-5" fill="none" stroke="rgb(204,204,204)" stroke-width="2" transform="matrix(1,0,0,-1,7.0,135.0)"/>
 <path d="M0,1 l0,-5" fill="none" stroke="rgb(204,204,204)" stroke-width="2" transform="matrix(1,0,0,-1,94.0,135.0)"/>
 <path d="M493,275 c0,51,-29,97,-71,113 l-180,-31 c-32,5,-49,32,-49,51 c0,20,12,33,48,33 l201,0 l0,132 l224,0 l0,-477 l-222,0 l0,75 c33,28,49,65,49,104 Z M758,-118 l0,691 l124,0 l0,77 l-906,0 l0,-77 l376,0 l0,-62 l-147,0 c-72,0,-106,-39,-106,-88 c0,-59,47,-120,133,-142 l157,31 c11,-8,19,-22,19,-40 c0,-38,-28,-72,-113,-72 c-91,0,-157,42,-205,108 l-54,-56 c56,-76,147,-125,258,-125 c24,0,46,2,65,6 l0,-38 l-53,-48 c1,-39,23,-76,52,-98 l84,0 l0,67 l224,0 l0,-134 Z M609,420 c0,31,-22,54,-53,54 c-31,0,-54,-23,-54,-54 c0,-30,23,-54,54,-54 c30,0,53,24,53,54 Z M609,420" fill="rgb(0,0,0)" transform="matrix(0.1,0.0,0.0,-0.1,7.0,135.0)"/>
</svg>