<?xml version="1.0" encoding="UTF-8"?>
<svg height="200.0" version="1.1" width="88.0" xmlns="http://www.w3.org/2000/svg" xmlns:xlink="http://www.w3.org/1999/xlink">
 <path d="M0,0 l88,0 l0,200 l-88,0 Z M0,0" fill="rgb(255,255,255)" transform="matrix(1,0,0,-1,0.0,200.0)"/>
 <path d="M0,0 l88,0" fill="none" stroke="rgb(229,229,229)" stroke-width="2" transform="matrix(1,0,0,-1,0.0,135.0)"/>
 <path d="M0,1 l0,-5" fill="none" stroke="rgb(204,204,204)" stroke-width="2" transform="matrix(1,0,0,-1,9.0,135.0)"/>
 <path d="M0,1 l0,-5" fill="none" stroke="rgb(204,204,204)" stroke-width="2" transform="matrix(1,0,0,-1,81.0,135.0)"/>
 <path d="M535,573 l0,-231 c-43,14,-106,38,-147,66 c0,6,0,12,-1,18 c-8,64,-63,115,-154,115 c-40,0,-92,-15,-116,-31 l37,-67 c13,10,47,24,80,24 c44,0,76,-24,76,-63 c0,-47,-34,-78,-102,-78 c-62,0,-134,31,-169,68 l-44,-66 c48,-42,129,-75,212,-75 c89,0,136,31,165,78 c51,-34,120,-57,171,-72 l0,-55 c-37,-92,-129,-173,-209,-173 c-50,0,-71,28,-71,58 c0,28,17,51,42,61 l76,31 l-41,60 l-297,-115 l48,-64 l104,45 c-5,-11,-7,-29,-7,-40 c0,-53,40,-113,135,-113 c83,0,158,39,209,110 l4,0 l0,-90 l91,0 l0,599 l116,0 l0,77 l-780,0 l0,-77 Z M535,573" fill="rgb(0,0,0)" transform="matrix(0.1,0.0,0.0,-0.1,9.0,135.0)"/>
</svg>