<?xml version="1.0" encoding="UTF-8"?>
<svg height="200.0" version="1.1" width="82.0" xmlns="http://www.w3.org/2000/svg" xmlns:xlink="http://www.w3.org/1999/xlink">
 <path d="M0,0 l82,0 l0,200 l-82,0 Z M0,0" fill="rgb(255,255,255)" transform="matrix(1,0,0,-1,0.0,200.0)"/>
 <path d="M0,0 l82,0" fill="none" stroke="rgb(229,229,229)" stroke-width="2" transform="matrix(1,0,0,-1,0.0,135.0)"/>
 <path d="M0,1 l0,-5" fill="none" stroke="rgb(204,204,204)" stroke-width="2" transform="matrix(1,0,0,-1,5.0,135.0)"/>
 <path d="M0,1 l0,-5" fill="none" stroke="rgb(204,204,204)" stroke-width="2" transform="matrix(1,0,0,-1,75.0,135.0)"/>
 <path d="M326,-25 c82,0,149,45,186,101 l4,0 l0,-94 l91,0 l0,591 l116,0 l0,77 l-208,0 l0,-332 c-63,25,-118,47,-162,68 c49,36,75,77,75,132 c0,85,-70,143,-158,143 c-101,0,-165,-63,-165,-138 c0,-54,25,-94,80,-134 c-50,-18,-108,-34,-171,-48 l56,-76 c80,24,149,47,204,73 c60,-30,148,-67,250,-107 c-22,-90,-101,-177,-188,-177 c-50,0,-73,30,-73,61 c0,27,12,44,37,54 l72,29 l-50,63 l-287,-110 l54,-68 l107,45 c-5,-12,-7,-26,-7,-37 c0,-54,41,-116,137,-116 Z M198,521 c0,39,30,66,73,66 c40,0,70,-26,70,-68 c0,-36,-26,-66,-71,-92 c-47,28,-72,56,-72,94 Z M198,521" fill="rgb(0,0,0)" transform="matrix(0.1,0.0,0.0,-0.1,5.0,135.0)"/>
</svg>