<?xml version="1.0" encoding="UTF-8"?>
<svg height="200.0" version="1.1" width="82.0" xmlns="http://www.w3.org/2000/svg" xmlns:xlink="http://www.w3.org/1999/xlink">
 <path d="M0,0 l82,0 l0,200 l-82,0 Z M0,0" fill="rgb(255,255,255)" transform="matrix(1,0,0,-1,0.0,200.0)"/>
 <path d="M0,0 l82,0" fill="none" stroke="rgb(229,229,229)" stroke-width="2" transform="matrix(1,0,0,-1,0.0,135.0)"/>
 <path d="M0,1 l0,-5" fill="none" stroke="rgb(204,204,204)" stroke-width="2" transform="matrix(1,0,0,-1,5.0,135.0)"/>
 <path d="M0,1 l0,-5" fill="none" stroke="rgb(204,204,204)" stroke-width="2" transform="matrix(1,0,0,-1,74.0,135.0)"/>
 <path d="M365,-46 c-79,12,-135,63,-135,126 c0,38,24,58,50,58 c20,0,36,-6,49,-29 c9,-16,18,-36,26,-60 l71,27 c-8,18,-14,35,-19,50 c-3,10,-5,21,-5,30 c0,38,21,66,61,66 c15,0,32,-4,45,-9 l0,-213 l93,0 l0,573 l116,0 l0,77 l-209,0 l0,-351 c-67,15,-131,36,-188,67 c58,37,91,88,91,150 c0,86,-68,145,-156,145 c-98,0,-159,-67,-159,-143 c0,-44,17,-95,69,-140 c-56,-20,-119,-34,-163,-43 l60,-74 c68,18,129,36,179,60 c41,-24,94,-46,142,-57 l3,-2 c-27,-15,-43,-44,-44,-78 l-4,1 c-16,14,-38,24,-68,24 c-67,0,-124,-50,-124,-126 c0,-102,87,-177,174,-193 Z M185,516 c0,42,28,69,71,69 c36,0,66,-24,66,-69 c0,-44,-29,-78,-79,-103 c-40,31,-58,66,-58,103 Z M185,516" fill="rgb(0,0,0)" transform="matrix(0.1,0.0,0.0,-0.1,5.0,135.0)"/>
</svg>