<?xml version="1.0" encoding="UTF-8"?>
<svg height="200.0" version="1.1" width="84.0" xmlns="http://www.w3.org/2000/svg" xmlns:xlink="http://www.w3.org/1999/xlink">
 <path d="M0,0 l84,0 l0,200 l-84,0 Z M0,0" fill="rgb(255,255,255)" transform="matrix(1,0,0,-1,0.0,200.0)"/>
 <path d="M0,0 l84,0" fill="none" stroke="rgb(229,229,229)" stroke-width="2" transform="matrix(1,0,0,-1,0.0,135.0)"/>
 <path d="M0,1 l0,-5" fill="none" stroke="rgb(204,204,204)" stroke-width="2" transform="matrix(1,0,0,-1,5.0,135.0)"/>
 <path d="M0,1 l0,-5" fill="none" stroke="rgb(204,204,204)" stroke-width="2" transform="matrix(1,0,0,-1,76.0,135.0)"/>
 <path d="M323,294 c-52,-9,-111,-55,-111,-129 c0,-76,60,-148,171,-148 c62,0,111,27,140,59 l4,0 l0,-96 l92,0 l0,593 l117,0 l0,77 l-257,0 l0,-77 l48,0 l0,-270 c-73,20,-144,44,-201,73 c51,40,80,86,80,143 c0,85,-69,142,-154,142 c-101,0,-162,-63,-162,-137 c0,-50,23,-96,78,-140 c-53,-21,-115,-36,-169,-50 l56,-75 c76,21,144,45,197,72 c21,-12,46,-23,71,-33 Z M387,91 c-58,0,-87,32,-87,72 c0,51,45,83,113,83 c29,0,77,-11,116,-28 c-13,-74,-73,-127,-142,-127 Z M183,522 c0,38,26,65,70,65 c38,0,66,-25,66,-67 c0,-40,-27,-72,-72,-99 c-42,30,-64,63,-64,101 Z M183,522" fill="rgb(0,0,0)" transform="matrix(0.1,0.0,0.0,-0.1,5.0,135.0)"/>
</svg>