<?xml version="1.0" encoding="UTF-8"?>
<svg height="200.0" version="1.1" width="96.0" xmlns="http://www.w3.org/2000/svg" xmlns:xlink="http://www.w3.org/1999/xlink">
 <path d="M0,0 l96,0 l0,200 l-96,0 Z M0,0" fill="rgb(255,255,255)" transform="matrix(1,0,0,-1,0.0,200.0)"/>
 <path d="M0,0 l96,0" fill="none" stroke="rgb(229,229,229)" stroke-width="2" transform="matrix(1,0,0,-1,0.0,135.0)"/>
 <path d="M0,1 l0,-5" fill="none" stroke="rgb(204,204,204)" stroke-width="2" transform="matrix(1,0,0,-1,7.0,135.0)"/>
 <path d="M0,1 l0,-5" fill="none" stroke="rgb(204,204,204)" stroke-width="2" transform="matrix(1,0,0,-1,88.0,135.0)"/>
 <path d="M630,470 c-21,18,-48,31,-93,31 c-88,0,-161,-66,-161,-157 c0,-93,72,-144,140,-149 l47,59 c-60,3,-100,36,-100,88 c0,49,35,81,85,81 c50,0,92,-38,92,-105 c0,-130,-106,-205,-233,-205 c-118,0,-214,64,-239,185 c11,-5,26,-9,48,-9 c67,0,114,44,114,126 l0,158 l304,0 l0,-103 Z M326,52 l-83,-24 l-96,-35 l-33,-61 c14,-46,59,-78,103,-87 l44,31 l-24,61 l205,77 c105,39,155,74,188,106 l4,0 l0,-120 l88,0 l0,573 l117,0 l0,77 l-855,0 l0,-77 l255,0 l0,-159 c0,-39,-20,-54,-46,-54 c-33,0,-51,19,-63,47 l-79,-28 c35,-240,176,-316,275,-323 Z M326,52" fill="rgb(0,0,0)" transform="matrix(0.1,0.0,0.0,-0.1,7.0,135.0)"/>
</svg>