<?xml version="1.0" encoding="UTF-8"?>
<svg height="200.0" version="1.1" width="76.0" xmlns="http://www.w3.org/2000/svg" xmlns:xlink="http://www.w3.org/1999/xlink">
 <path d="M0,0 l76,0 l0,200 l-76,0 Z M0,0" fill="rgb(255,255,255)" transform="matrix(1,0,0,-1,0.0,200.0)"/>
 <path d="M0,0 l76,0" fill="none" stroke="rgb(229,229,229)" stroke-width="2" transform="matrix(1,0,0,-1,0.0,135.0)"/>
 <path d="M0,1 l0,-5" fill="none" stroke="rgb(204,204,204)" stroke-width="2" transform="matrix(1,0,0,-1,7.0,135.0)"/>
 <path d="M0,1 l0,-5" fill="none" stroke="rgb(204,204,204)" stroke-width="2" transform="matrix(1,0,0,-1,68.0,135.0)"/>
 <path d="M636,650 l-660,0 l0,-77 l387,0 l0,-68 l-158,0 c-72,0,-106,-42,-106,-91 c0,-60,44,-122,129,-145 l173,31 c10,-8,17,-22,17,-41 c0,-38,-34,-76,-123,-76 c-90,0,-158,45,-204,107 l-55,-59 c55,-73,149,-122,259,-122 c25,0,48,2,68,7 l0,-83 l-201,0 l-59,-49 c1,-56,33,-94,70,-112 l51,16 l0,69 l139,0 l0,-178 l83,0 l0,373 c39,29,58,69,58,110 c0,58,-31,100,-70,115 l-195,-31 c-32,8,-46,32,-46,53 c0,20,12,35,49,35 l211,0 l0,139 l183,0 Z M611,415 c0,30,-22,53,-52,53 c-30,0,-53,-23,-53,-53 c0,-29,23,-52,52,-52 c30,0,53,23,53,52 Z M611,415" fill="rgb(0,0,0)" transform="matrix(0.1,0.0,0.0,-0.1,7.0,135.0)"/>
</svg>