<?xml version="1.0" encoding="UTF-8"?>
<svg height="200.0" version="1.1" width="84.0" xmlns="http://www.w3.org/2000/svg" xmlns:xlink="http://www.w3.org/1999/xlink">
 <path d="M0,0 l84,0 l0,200 l-84,0 Z M0,0" fill="rgb(255,255,255)" transform="matrix(1,0,0,-1,0.0,200.0)"/>
 <path d="M0,0 l84,0" fill="none" stroke="rgb(229,229,229)" stroke-width="2" transform="matrix(1,0,0,-1,0.0,135.0)"/>
 <path d="M0,1 l0,-5" fill="none" stroke="rgb(204,204,204)" stroke-width="2" transform="matrix(1,0,0,-1,7.0,135.0)"/>
 <path d="M0,1 l0,-5" fill="none" stroke="rgb(204,204,204)" stroke-width="2" transform="matrix(1,0,0,-1,76.0,135.0)"/>
 <path d="M541,-263 l0,403 c59,54,92,126,92,199 c0,74,-36,128,-92,151 l0,83 l170,0 l0,77 l-735,0 l0,-77 l134,0 l0,-4 c-21,-16,-45,-44,-45,-94 c0,-59,36,-103,99,-117 l0,-4 c-41,-16,-84,-49,-84,-123 c0,-96,81,-177,227,-177 c56,0,106,11,150,31 l0,-106 l-204,0 l-59,-49 c1,-56,33,-94,70,-112 l51,16 l0,69 l142,0 l0,-166 Z M487,311 c-37,7,-59,29,-59,61 c0,32,23,51,52,51 c35,0,65,-27,65,-83 c0,-121,-109,-203,-232,-203 c-90,0,-135,41,-135,98 c0,51,34,79,98,82 l21,0 l0,80 l-35,0 c-64,0,-98,33,-98,85 c0,53,38,91,104,91 l184,0 l0,-74 c-69,-11,-114,-63,-114,-126 c0,-63,42,-106,92,-119 Z M487,311" fill="rgb(0,0,0)" transform="matrix(0.1,0.0,0.0,-0.1,7.0,135.0)"/>
</svg>