<?xml version="1.0" encoding="UTF-8"?>
<svg height="200.0" version="1.1" width="102.0" xmlns="http://www.w3.org/2000/svg" xmlns:xlink="http://www.w3.org/1999/xlink">
 <path d="M0,0 l102,0 l0,200 l-102,0 Z M0,0" fill="rgb(255,255,255)" transform="matrix(1,0,0,-1,0.0,200.0)"/>
 <path d="M0,0 l102,0" fill="none" stroke="rgb(229,229,229)" stroke-width="2" transform="matrix(1,0,0,-1,0.0,135.0)"/>
 <path d="M0,1 l0,-5" fill="none" stroke="rgb(204,204,204)" stroke-width="2" transform="matrix(1,0,0,-1,7.0,135.0)"/>
 <path d="M0,1 l0,-5" fill="none" stroke="rgb(204,204,204)" stroke-width="2" transform="matrix(1,0,0,-1,94.0,135.0)"/>
 <path d="M687,573 l0,-241 c-46,-32,-105,-42,-158,-42 c-65,0,-113,19,-142,33 l-163,-35 c-33,9,-57,40,-57,69 c0,30,10,50,69,50 l189,0 l0,166 Z M583,155 l-96,-84 l-10,-61 c20,-34,60,-56,108,-56 l41,44 l-42,49 l104,96 l4,0 l0,-143 l87,0 l0,573 l116,0 l0,77 l-919,0 l0,-77 l356,0 l0,-88 l-141,0 c-77,0,-121,-41,-121,-104 c0,-79,58,-150,141,-177 l149,33 c10,-7,24,-25,24,-53 c0,-63,-63,-90,-130,-90 l-28,0 l-139,92 c-20,-10,-35,-34,-35,-62 c0,-49,45,-104,155,-106 l162,-149 l104,55 l-162,105 l-1,2 c84,8,163,62,163,154 c0,14,-2,27,-6,38 c22,-6,50,-10,78,-10 c47,0,104,9,147,32 l1,-3 Z M583,155" fill="rgb(0,0,0)" transform="matrix(0.1,0.0,0.0,-0.1,7.0,135.0)"/>
</svg>