<?xml version="1.0" encoding="UTF-8"?>
<svg height="200.0" version="1.1" width="76.0" xmlns="http://www.w3.org/2000/svg" xmlns:xlink="http://www.w3.org/1999/xlink">
 <path d="M0,0 l76,0 l0,200 l-76,0 Z M0,0" fill="rgb(255,255,255)" transform="matrix(1,0,0,-1,0.0,200.0)"/>
 <path d="M0,0 l76,0" fill="none" stroke="rgb(229,229,229)" stroke-width="2" transform="matrix(1,0,0,-1,0.0,135.0)"/>
 <path d="M0,1 l0,-5" fill="none" stroke="rgb(204,204,204)" stroke-width="2" transform="matrix(1,0,0,-1,7.0,135.0)"/>
 <path d="M0,1 l0,-5" fill="none" stroke="rgb(204,204,204)" stroke-width="2" transform="matrix(1,0,0,-1,67.0,135.0)"/>
 <path d="M307,159 c15,0,29,1,43,2 l0,-80 l-209,0 l-58,-48 c0,-56,33,-95,70,-113 l50,16 l0,69 l147,0 l0,-177 l84,0 l0,351 c89,31,135,97,135,166 c0,87,-62,136,-140,158 l0,70 l197,0 l0,77 l-650,0 l0,-77 l364,0 l0,-59 l-159,-40 c-91,-22,-136,-66,-136,-135 c0,-96,99,-180,262,-180 Z M296,241 c-122,0,-157,53,-157,86 c0,35,19,55,83,71 l158,40 c51,-9,98,-36,98,-88 c0,-59,-57,-109,-182,-109 Z M296,241" fill="rgb(0,0,0)" transform="matrix(0.1,0.0,0.0,-0.1,7.0,135.0)"/>
</svg>