<?xml version="1.0" encoding="UTF-8"?>
<svg height="200.0" version="1.1" width="80.0" xmlns="http://www.w3.org/2000/svg" xmlns:xlink="http://www.w3.org/1999/xlink">
 <path d="M0,0 l80,0 l0,200 l-80,0 Z M0,0" fill="rgb(255,255,255)" transform="matrix(1,0,0,-1,0.0,200.0)"/>
 <path d="M0,0 l80,0" fill="none" stroke="rgb(229,229,229)" stroke-width="2" transform="matrix(1,0,0,-1,0.0,135.0)"/>
 <path d="M0,1 l0,-5" fill="none" stroke="rgb(204,204,204)" stroke-width="2" transform="matrix(1,0,0,-1,5.0,135.0)"/>
 <path d="M0,1 l0,-5" fill="none" stroke="rgb(204,204,204)" stroke-width="2" transform="matrix(1,0,0,-1,72.0,135.0)"/>
 <path d="M478,156 l4,0 l0,-156 l93,0 l0,573 l116,0 l0,77 l-210,0 l0,-373 c-17,-39,-84,-95,-175,-95 c-116,0,-155,82,-160,123 c23,5,44,10,65,16 c119,34,185,94,185,190 c0,86,-58,149,-155,149 c-91,0,-153,-62,-153,-137 c0,-35,13,-68,33,-87 l83,26 c-15,16,-23,36,-23,57 c0,38,25,60,60,60 c40,0,63,-26,63,-66 c0,-54,-29,-93,-158,-129 l-111,-30 c7,-136,92,-229,207,-239 l0,-4 l-47,-23 l-74,-40 l-20,-68 c20,-43,71,-66,118,-68 l33,38 l-33,56 Z M478,156" fill="rgb(0,0,0)" transform="matrix(0.1,0.0,0.0,-0.1,5.0,135.0)"/>
</svg>