<?xml version="1.0" encoding="UTF-8"?>
<svg height="200.0" version="1.1" width="72.0" xmlns="http://www.w3.org/2000/svg" xmlns:xlink="http://www.w3.org/1999/xlink">
 <path d="M0,0 l72,0 l0,200 l-72,0 Z M0,0" fill="rgb(255,255,255)" transform="matrix(1,0,0,-1,0.0,200.0)"/>
 <path d="M0,0 l72,0" fill="none" stroke="rgb(229,229,229)" stroke-width="2" transform="matrix(1,0,0,-1,0.0,135.0)"/>
 <path d="M0,1 l0,-5" fill="none" stroke="rgb(204,204,204)" stroke-width="2" transform="matrix(1,0,0,-1,7.0,135.0)"/>
 <path d="M0,1 l0,-5" fill="none" stroke="rgb(204,204,204)" stroke-width="2" transform="matrix(1,0,0,-1,65.0,135.0)"/>
 <path d="M89,192 l-27,-64 c17,-44,65,-71,111,-77 l37,35 l-28,60 l208,97 l4,0 l0,-243 l94,0 l0,573 l116,0 l0,77 l-628,0 l0,-77 l418,0 l0,-235 l-4,0 c-38,96,-117,152,-226,152 c-29,0,-62,-6,-81,-12 l-54,-47 c0,-50,29,-98,64,-116 l50,16 l0,71 c12,3,22,5,39,5 c72,0,118,-47,140,-108 Z M89,192" fill="rgb(0,0,0)" transform="matrix(0.1,0.0,0.0,-0.1,7.0,135.0)"/>
</svg>