<?xml version="1.0" encoding="UTF-8"?>
<svg height="200.0" version="1.1" width="76.0" xmlns="http://www.w3.org/2000/svg" xmlns:xlink="http://www.w3.org/1999/xlink">
 <path d="M0,0 l76,0 l0,200 l-76,0 Z M0,0" fill="rgb(255,255,255)" transform="matrix(1,0,0,-1,0.0,200.0)"/>
 <path d="M0,0 l76,0" fill="none" stroke="rgb(229,229,229)" stroke-width="2" transform="matrix(1,0,0,-1,0.0,135.0)"/>
 <path d="M0,1 l0,-5" fill="none" stroke="rgb(204,204,204)" stroke-width="2" transform="matrix(1,0,0,-1,7.0,135.0)"/>
 <path d="M0,1 l0,-5" fill="none" stroke="rgb(204,204,204)" stroke-width="2" transform="matrix(1,0,0,-1,69.0,135.0)"/>
 <path d="M150,340 c76,17,131,60,131,130 c0,40,-14,72,-40,99 l0,4 l192,0 l0,-284 c-17,-29,-69,-70,-139,-70 c-96,0,-135,66,-144,121 Z M427,185 l4,0 l0,-185 l95,0 l0,573 l116,0 l0,77 l-666,0 l0,-77 l170,0 c24,-23,39,-58,39,-89 c0,-62,-53,-87,-140,-107 c9,-144,102,-213,190,-219 l0,-4 l-63,-32 l-78,-53 l-17,-66 c21,-41,74,-62,120,-62 l33,40 l-36,55 Z M427,185" fill="rgb(0,0,0)" transform="matrix(0.1,0.0,0.0,-0.1,7.0,135.0)"/>
</svg>