<?xml version="1.0" encoding="UTF-8"?>
<svg height="200.0" version="1.1" width="72.0" xmlns="http://www.w3.org/2000/svg" xmlns:xlink="http://www.w3.org/1999/xlink">
 <path d="M0,0 l72,0 l0,200 l-72,0 Z M0,0" fill="rgb(255,255,255)" transform="matrix(1,0,0,-1,0.0,200.0)"/>
 <path d="M0,0 l72,0" fill="none" stroke="rgb(229,229,229)" stroke-width="2" transform="matrix(1,0,0,-1,0.0,135.0)"/>
 <path d="M0,1 l0,-5" fill="none" stroke="rgb(204,204,204)" stroke-width="2" transform="matrix(1,0,0,-1,7.0,135.0)"/>
 <path d="M0,1 l0,-5" fill="none" stroke="rgb(204,204,204)" stroke-width="2" transform="matrix(1,0,0,-1,64.0,135.0)"/>
 <path d="M194,142 l-44,-26 l-56,-40 l-15,-66 c22,-41,74,-61,121,-61 l32,42 l-37,54 l186,125 l4,0 l0,-170 l95,0 l0,573 l117,0 l0,77 l-621,0 l0,-77 l409,0 l0,-295 c-12,-31,-56,-72,-119,-72 c-68,0,-111,44,-111,107 c0,88,87,118,153,98 l-8,85 c-123,22,-243,-47,-243,-181 c0,-103,74,-161,137,-169 Z M194,142" fill="rgb(0,0,0)" transform="matrix(0.1,0.0,0.0,-0.1,7.0,135.0)"/>
</svg>