<?xml version="1.0" encoding="UTF-8"?>
<svg height="1743" version="1.1" width="2679" xmlns="http://www.w3.org/2000/svg" xmlns:xlink="http://www.w3.org/1999/xlink">
 <path d="M0,0 l2679,0 l0,1743 l-2679,0 Z M0,0" fill="rgb(255,255,255)" transform="matrix(1,0,0,-1,0,1743)"/>
 <path d="M437,92 l-226,194 l0,276 l155,0 l0,-135 c0,-56,-15,-89,-61,-109 l107,-90 c77,39,95,96,95,194 l0,140 l100,0 l0,109 l-637,0 l0,-109 l100,0 l0,-329 l255,-216 c17,-15,30,-33,30,-55 c0,-25,-11,-57,-27,-76 l0,-7 l136,0 c18,25,28,65,28,99 c0,38,-13,78,-55,114 Z M299,734 c125,0,207,65,240,153 l-108,53 c-20,-60,-64,-93,-132,-93 c-68,0,-112,33,-132,93 l-108,-53 c33,-88,115,-153,240,-153 Z M299,734" fill="rgb(0,0,0)" transform="matrix(1,0,0,-1,571,1243)"/>
</svg>