<?xml version="1.0" encoding="UTF-8"?>
<svg height="1743" version="1.1" width="2679" xmlns="http://www.w3.org/2000/svg" xmlns:xlink="http://www.w3.org/1999/xlink">
 <path d="M0,0 l2679,0 l0,1743 l-2679,0 Z M0,0" fill="rgb(255,255,255)" transform="matrix(1,0,0,-1,0,1743)"/>
 <path d="M712,815 c-57,66,-205,152,-387,152 c-159,0,-251,-100,-251,-215 l0,-81 l-104,0 l0,-109 l105,0 l0,-562 l141,0 l0,562 l105,0 l0,109 l-106,0 l0,75 c0,63,40,101,108,101 c134,0,255,-60,315,-131 Z M712,815" fill="rgb(0,0,0)" transform="matrix(1,0,0,-1,571,1243)"/>
</svg>