<?xml version="1.0" encoding="UTF-8"?>
<svg height="1743" version="1.1" width="2679" xmlns="http://www.w3.org/2000/svg" xmlns:xlink="http://www.w3.org/1999/xlink">
 <path d="M0,0 l2679,0 l0,1743 l-2679,0 Z M0,0" fill="rgb(255,255,255)" transform="matrix(1,0,0,-1,0,1743)"/>
 <path d="M-9,807 c-45,18,-75,32,-68,90 l-139,0 c-5,-99,47,-137,128,-162 c63,-20,131,-31,160,-64 l-102,0 l0,-109 l105,0 l0,-562 l141,0 l0,562 l105,0 l0,109 l-106,0 c0,127,-81,161,-81,260 c0,10,1,24,4,36 l-131,0 c-3,-12,-4,-24,-4,-35 c0,-121,116,-147,146,-251 l-7,0 c-35,80,-100,105,-151,126 Z M-9,807" fill="rgb(0,0,0)" transform="matrix(1,0,0,-1,571,1243)"/>
</svg>