<?xml version="1.0" encoding="UTF-8"?>
<svg height="1743" version="1.1" width="2679" xmlns="http://www.w3.org/2000/svg" xmlns:xlink="http://www.w3.org/1999/xlink">
 <path d="M0,0 l2679,0 l0,1743 l-2679,0 Z M0,0" fill="rgb(255,255,255)" transform="matrix(1,0,0,-1,0,1743)"/>
 <path d="M516,562 l105,0 l0,109 l-651,0 l0,-109 l405,0 l0,-234 c0,-19,-4,-38,-13,-54 l-150,113 c13,7,28,10,43,10 c21,0,43,-2,67,-10 l-7,118 c-27,7,-45,9,-77,9 c-102,0,-208,-78,-208,-213 c0,-119,86,-206,209,-206 c57,0,106,21,131,46 l4,0 l0,-141 l142,0 Z M260,207 c-53,0,-98,39,-98,97 c0,14,3,26,7,37 l153,-115 c-18,-12,-39,-19,-62,-19 Z M260,207" fill="rgb(0,0,0)" transform="matrix(1,0,0,-1,571,1243)"/>
</svg>