<?xml version="1.0" encoding="UTF-8"?>
<svg height="1743" version="1.1" width="2679" xmlns="http://www.w3.org/2000/svg" xmlns:xlink="http://www.w3.org/1999/xlink">
 <path d="M0,0 l2679,0 l0,1743 l-2679,0 Z M0,0" fill="rgb(255,255,255)" transform="matrix(1,0,0,-1,0,1743)"/>
 <path d="M823,562 l0,109 l-853,0 l0,-109 l95,0 l0,-221 c0,-130,71,-195,196,-195 c123,0,200,67,200,198 l0,218 l117,0 l0,-562 l141,0 l0,562 Z M205,562 l117,0 l0,-230 c0,-49,-21,-67,-58,-67 c-35,0,-59,17,-59,66 Z M187,15 c0,-40,33,-73,74,-73 c44,0,77,33,77,73 c0,45,-33,78,-77,78 c-41,0,-74,-33,-74,-78 Z M187,15" fill="rgb(0,0,0)" transform="matrix(1,0,0,-1,571,1243)"/>
</svg>