<?xml version="1.0" encoding="UTF-8"?>
<svg height="1743" version="1.1" width="2679" xmlns="http://www.w3.org/2000/svg" xmlns:xlink="http://www.w3.org/1999/xlink">
 <path d="M0,0 l2679,0 l0,1743 l-2679,0 Z M0,0" fill="rgb(255,255,255)" transform="matrix(1,0,0,-1,0,1743)"/>
 <path d="M577,0 l0,562 l105,0 l0,109 l-312,0 l0,-109 l67,0 l0,-206 c0,-75,-63,-145,-153,-145 c-69,0,-89,32,-89,62 c0,38,27,62,86,62 l63,0 l0,108 l-75,0 c-51,0,-78,23,-78,57 c0,37,35,61,54,69 l-19,102 l-256,0 l0,-109 l110,0 l0,-4 c-19,-13,-34,-36,-34,-68 c0,-60,45,-94,105,-99 l0,-4 c-45,-10,-100,-46,-100,-126 c0,-93,79,-160,204,-160 c87,0,148,32,178,60 l4,0 l0,-161 Z M58,-9 c0,-40,33,-73,74,-73 c44,0,77,33,77,73 c0,45,-33,78,-77,78 c-41,0,-74,-33,-74,-78 Z M58,-9" fill="rgb(0,0,0)" transform="matrix(1,0,0,-1,571,1243)"/>
</svg>