<?xml version="1.0" encoding="UTF-8"?>
<svg height="1743" version="1.1" width="2679" xmlns="http://www.w3.org/2000/svg" xmlns:xlink="http://www.w3.org/1999/xlink">
 <path d="M0,0 l2679,0 l0,1743 l-2679,0 Z M0,0" fill="rgb(255,255,255)" transform="matrix(1,0,0,-1,0,1743)"/>
 <path d="M354,205 l0,-205 l137,0 l0,268 c0,54,32,106,97,106 c44,0,75,-30,75,-74 c0,-57,-46,-94,-113,-79 l22,-121 c122,-11,230,62,230,202 c0,115,-82,189,-186,189 c-65,0,-102,-26,-121,-45 l-4,0 l0,116 l369,0 l0,109 l-890,0 l0,-109 l100,0 l0,-212 c0,-104,51,-179,174,-179 c54,0,89,18,106,34 Z M354,370 c0,-39,-21,-78,-83,-78 c-45,0,-60,25,-60,77 l0,193 l143,0 Z M74,54 c0,-40,33,-73,74,-73 c44,0,77,33,77,73 c0,45,-33,78,-77,78 c-41,0,-74,-33,-74,-78 Z M74,54" fill="rgb(0,0,0)" transform="matrix(1,0,0,-1,571,1243)"/>
</svg>