<?xml version="1.0" encoding="UTF-8"?>
<svg height="1743" version="1.1" width="2679" xmlns="http://www.w3.org/2000/svg" xmlns:xlink="http://www.w3.org/1999/xlink">
 <path d="M0,0 l2679,0 l0,1743 l-2679,0 Z M0,0" fill="rgb(255,255,255)" transform="matrix(1,0,0,-1,0,1743)"/>
 <path d="M516,562 l105,0 l0,109 l-651,0 l0,-109 l405,0 l0,-209 c0,-19,-5,-39,-13,-56 l-150,103 c13,5,27,8,42,8 c21,0,43,-3,67,-11 l-7,118 c-27,7,-45,9,-77,9 c-102,0,-213,-73,-213,-208 c0,-117,91,-196,215,-196 c57,0,106,21,131,46 l4,0 l0,-100 l-329,0 l0,-101 l471,0 Z M260,232 c-61,0,-104,32,-104,87 c0,14,3,26,8,37 l156,-106 c-17,-11,-37,-18,-60,-18 Z M260,232" fill="rgb(0,0,0)" transform="matrix(1,0,0,-1,571,1243)"/>
</svg>