<?xml version="1.0" encoding="UTF-8"?>
<svg height="1743" version="1.1" width="2679" xmlns="http://www.w3.org/2000/svg" xmlns:xlink="http://www.w3.org/1999/xlink">
 <path d="M0,0 l2679,0 l0,1743 l-2679,0 Z M0,0" fill="rgb(255,255,255)" transform="matrix(1,0,0,-1,0,1743)"/>
 <path d="M453,0 c27,55,67,157,67,245 c0,118,-77,186,-194,186 l-73,0 l0,131 l328,0 l0,109 l-611,0 l0,-109 l145,0 l0,-142 l-51,-40 c0,-48,26,-130,83,-172 l106,0 l0,100 l59,0 c44,0,68,-19,68,-65 c0,-70,-45,-184,-79,-243 Z M453,0" fill="rgb(0,0,0)" transform="matrix(1,0,0,-1,571,1243)"/>
</svg>