<?xml version="1.0" encoding="UTF-8"?>
<svg height="1743" version="1.1" width="2679" xmlns="http://www.w3.org/2000/svg" xmlns:xlink="http://www.w3.org/1999/xlink">
 <path d="M0,0 l2679,0 l0,1743 l-2679,0 Z M0,0" fill="rgb(255,255,255)" transform="matrix(1,0,0,-1,0,1743)"/>
 <path d="M50,362 c0,-119,80,-196,199,-196 c119,0,200,77,200,196 c0,119,-81,196,-200,196 c-119,0,-199,-77,-199,-196 Z M174,362 c0,53,30,85,75,85 c45,0,76,-32,76,-85 c0,-53,-31,-85,-76,-85 c-45,0,-75,32,-75,85 Z M174,362" fill="rgb(0,0,0)" transform="matrix(1,0,0,-1,571,1243)"/>
</svg>