<?xml version="1.0" encoding="UTF-8"?>
<svg height="1743" version="1.1" width="2679" xmlns="http://www.w3.org/2000/svg" xmlns:xlink="http://www.w3.org/1999/xlink">
 <path d="M0,0 l2679,0 l0,1743 l-2679,0 Z M0,0" fill="rgb(255,255,255)" transform="matrix(1,0,0,-1,0,1743)"/>
 <path d="M589,22 l-117,232 c21,25,30,48,30,83 c0,43,-41,87,-86,124 l-90,-33 l22,-103 c-9,-8,-29,-22,-72,-22 c-53,0,-89,30,-89,103 c0,77,42,156,88,209 l-116,73 c-63,-79,-112,-175,-112,-287 c0,-133,84,-221,219,-221 c46,0,80,10,109,23 l71,-210 Z M589,22" fill="rgb(0,0,0)" transform="matrix(1,0,0,-1,571,1243)"/>
</svg>