<?xml version="1.0" encoding="UTF-8"?>
<svg height="1743" version="1.1" width="2679" xmlns="http://www.w3.org/2000/svg" xmlns:xlink="http://www.w3.org/1999/xlink">
 <path d="M0,0 l2679,0 l0,1743 l-2679,0 Z M0,0" fill="rgb(255,255,255)" transform="matrix(1,0,0,-1,0,1743)"/>
 <path d="M575,-39 l-112,154 c17,21,27,47,27,80 c0,42,-31,77,-50,91 l-83,-24 l0,-76 c-15,-9,-45,-14,-63,-14 c-65,0,-94,26,-94,68 c0,50,47,85,184,91 l-25,111 c-15,-2,-30,-2,-40,-2 c-84,0,-126,25,-126,65 c0,40,31,60,74,60 c68,0,101,-16,121,-26 l37,113 c-30,16,-100,32,-154,32 c-146,0,-224,-66,-224,-158 c0,-56,32,-123,118,-145 l0,-4 c-68,-30,-105,-81,-105,-141 c0,-125,119,-178,232,-178 c27,0,66,4,87,11 l54,-133 Z M575,-39" fill="rgb(0,0,0)" transform="matrix(1,0,0,-1,571,1243)"/>
</svg>