<?xml version="1.0" encoding="UTF-8"?>
<svg height="1743" version="1.1" width="2679" xmlns="http://www.w3.org/2000/svg" xmlns:xlink="http://www.w3.org/1999/xlink">
 <path d="M0,0 l2679,0 l0,1743 l-2679,0 Z M0,0" fill="rgb(255,255,255)" transform="matrix(1,0,0,-1,0,1743)"/>
 <path d="M626,317 c0,144,-87,227,-193,227 c-91,0,-160,-65,-160,-156 c0,-110,82,-157,158,-157 c26,0,46,2,68,10 c-21,-69,-69,-101,-136,-101 c-123,0,-179,138,-179,300 c0,99,14,178,28,231 l-127,-13 c-19,-74,-25,-146,-25,-220 c0,-214,95,-410,314,-410 c149,0,252,110,252,289 Z M467,323 c-37,0,-71,18,-71,59 c0,31,19,48,42,48 c33,0,69,-24,71,-100 c-13,-4,-28,-7,-42,-7 Z M467,323" fill="rgb(0,0,0)" transform="matrix(1,0,0,-1,571,1243)"/>
</svg>