<?xml version="1.0" encoding="UTF-8"?>
<svg height="1743" version="1.1" width="2679" xmlns="http://www.w3.org/2000/svg" xmlns:xlink="http://www.w3.org/1999/xlink">
 <path d="M0,0 l2679,0 l0,1743 l-2679,0 Z M0,0" fill="rgb(255,255,255)" transform="matrix(1,0,0,-1,0,1743)"/>
 <path d="M935,162 c-36,0,-72,27,-95,82 c69,101,94,151,138,151 c34,0,61,-31,61,-88 c0,-87,-45,-145,-104,-145 Z M402,340 l0,4 c45,23,74,68,74,125 c0,103,-75,168,-193,168 c-82,0,-143,-40,-175,-84 l87,-78 c18,27,47,45,84,45 c43,0,68,-25,68,-64 c0,-46,-34,-79,-146,-90 l27,-114 l54,8 c7,1,14,1,20,1 c52,0,71,-33,71,-66 c0,-44,-33,-78,-86,-78 c-58,0,-100,33,-134,92 l-103,-78 c46,-70,126,-131,235,-131 c107,0,185,52,214,129 c20,-33,57,-69,120,-69 c73,0,123,46,163,100 c34,-68,96,-113,180,-113 c125,0,200,120,200,240 c0,141,-76,229,-198,229 c-120,0,-166,-113,-240,-218 c-52,-74,-80,-115,-134,-115 c-51,0,-69,32,-87,66 c-27,52,-63,85,-101,91 Z M703,505 c124,0,221,76,251,167 l-111,41 c-23,-57,-72,-91,-140,-91 c-69,0,-111,38,-135,92 l-112,-42 c30,-91,120,-167,247,-167 Z M633,791 c0,-40,33,-73,74,-73 c44,0,77,33,77,73 c0,45,-33,78,-77,78 c-41,0,-74,-33,-74,-78 Z M633,791" fill="rgb(0,0,0)" transform="matrix(1,0,0,-1,571,1243)"/>
</svg>