<?xml version="1.0" encoding="UTF-8"?>
<svg height="1743" version="1.1" width="2679" xmlns="http://www.w3.org/2000/svg" xmlns:xlink="http://www.w3.org/1999/xlink">
 <path d="M0,0 l2679,0 l0,1743 l-2679,0 Z M0,0" fill="rgb(255,255,255)" transform="matrix(1,0,0,-1,0,1743)"/>
 <path d="M74,318 c0,-106,72,-171,177,-171 c106,0,182,68,182,173 c0,106,-73,171,-178,171 c-105,0,-181,-68,-181,-173 Z M182,320 c0,46,26,76,69,76 c45,0,73,-34,73,-78 c0,-46,-24,-76,-68,-76 c-44,0,-74,34,-74,78 Z M182,320" fill="rgb(0,0,0)" transform="matrix(1,0,0,-1,571,1243)"/>
</svg>