<?xml version="1.0" encoding="UTF-8"?>
<svg height="1743" version="1.1" width="2679" xmlns="http://www.w3.org/2000/svg" xmlns:xlink="http://www.w3.org/1999/xlink">
 <path d="M0,0 l2679,0 l0,1743 l-2679,0 Z M0,0" fill="rgb(255,255,255)" transform="matrix(1,0,0,-1,0,1743)"/>
 <path d="M147,0 l207,0 l0,671 l-207,0 Z M397,475 l207,0 l0,196 l-207,0 Z M647,0 l207,0 l0,671 l-207,0 Z M896,475 l208,0 l0,196 l-208,0 Z M1146,0 l208,0 l0,671 l-208,0 Z M1396,475 l207,0 l0,196 l-207,0 Z M1396,237 l207,0 l0,196 l-207,0 Z M1396,237" fill="rgb(0,0,0)" transform="matrix(1,0,0,-1,571,1243)"/>
</svg>