<?xml version="1.0" encoding="UTF-8"?>
<svg height="1743" version="1.1" width="2679" xmlns="http://www.w3.org/2000/svg" xmlns:xlink="http://www.w3.org/1999/xlink">
 <path d="M0,0 l2679,0 l0,1743 l-2679,0 Z M0,0" fill="rgb(255,255,255)" transform="matrix(1,0,0,-1,0,1743)"/>
 <path d="M-90,855 c21,0,41,-5,59,-15 l32,110 c-26,12,-58,23,-109,23 c-96,0,-176,-72,-176,-168 c0,-61,28,-104,66,-130 l0,-8 l129,0 l0,4 c-44,30,-72,69,-72,112 c0,45,30,72,71,72 Z M-90,855" fill="rgb(0,0,0)" transform="matrix(1,0,0,-1,571,1243)"/>
</svg>