<?xml version="1.0" encoding="UTF-8"?>
<svg height="1743" version="1.1" width="2679" xmlns="http://www.w3.org/2000/svg" xmlns:xlink="http://www.w3.org/1999/xlink">
 <path d="M0,0 l2679,0 l0,1743 l-2679,0 Z M0,0" fill="rgb(255,255,255)" transform="matrix(1,0,0,-1,0,1743)"/>
 <path d="M305,205 c-70,0,-93,33,-93,65 c0,36,25,62,83,62 l53,0 l0,108 l-63,0 c-54,0,-80,24,-80,60 c0,37,25,62,76,62 l141,0 l0,109 l-452,0 l0,-109 l121,0 l0,-4 c-19,-17,-33,-38,-33,-70 c0,-59,47,-96,108,-100 l0,-4 c-43,-11,-98,-48,-98,-128 c0,-94,82,-160,206,-160 c142,0,217,59,262,106 l-74,96 c-28,-43,-87,-93,-157,-93 Z M305,205" fill="rgb(0,0,0)" transform="matrix(1,0,0,-1,571,1243)"/>
</svg>