<?xml version="1.0" encoding="UTF-8"?>
<svg height="1743" version="1.1" width="2679" xmlns="http://www.w3.org/2000/svg" xmlns:xlink="http://www.w3.org/1999/xlink">
 <path d="M0,0 l2679,0 l0,1743 l-2679,0 Z M0,0" fill="rgb(255,255,255)" transform="matrix(1,0,0,-1,0,1743)"/>
 <path d="M463,671 l-493,0 l0,-109 l493,0 Z M302,81 c123,0,209,47,263,114 l-81,91 c-20,-30,-66,-86,-154,-86 c-64,0,-97,33,-97,77 c0,54,37,86,107,86 l60,0 l0,119 l-391,0 l0,-120 l128,0 l0,-4 c-23,-19,-47,-48,-47,-108 c0,-87,70,-169,212,-169 Z M302,81" fill="rgb(0,0,0)" transform="matrix(1,0,0,-1,571,1243)"/>
</svg>