<?xml version="1.0" encoding="UTF-8"?>
<svg height="1743" version="1.1" width="2679" xmlns="http://www.w3.org/2000/svg" xmlns:xlink="http://www.w3.org/1999/xlink">
 <path d="M0,0 l2679,0 l0,1743 l-2679,0 Z M0,0" fill="rgb(255,255,255)" transform="matrix(1,0,0,-1,0,1743)"/>
 <path d="M552,671 l-582,0 l0,-109 l582,0 Z M612,463 l-294,0 l-54,-99 l0,-10 c51,-20,78,-58,78,-96 c0,-40,-25,-60,-58,-60 c-92,0,-136,142,-143,271 l-126,-64 c14,-120,89,-327,280,-327 c109,0,181,67,181,165 c0,45,-17,84,-47,106 l0,4 l183,0 Z M612,463" fill="rgb(0,0,0)" transform="matrix(1,0,0,-1,571,1243)"/>
</svg>