<?xml version="1.0" encoding="UTF-8"?>
<svg height="1743" version="1.1" width="2679" xmlns="http://www.w3.org/2000/svg" xmlns:xlink="http://www.w3.org/1999/xlink">
 <path d="M0,0 l2679,0 l0,1743 l-2679,0 Z M0,0" fill="rgb(255,255,255)" transform="matrix(1,0,0,-1,0,1743)"/>
 <path d="M331,130 c-93,0,-153,67,-153,127 c0,56,24,88,118,111 l172,42 l0,152 l130,0 l0,109 l-628,0 l0,-109 l354,0 l0,-56 l-102,-27 c-117,-31,-185,-99,-185,-204 c0,-160,142,-263,289,-263 c124,0,200,76,200,180 c0,80,-66,145,-144,145 c-88,0,-132,-50,-147,-85 l79,-74 c5,29,26,45,50,45 c23,0,38,-15,38,-36 c0,-34,-25,-57,-71,-57 Z M522,-253 l-184,197 l-107,-43 l108,-158 l183,0 Z M522,-253" fill="rgb(0,0,0)" transform="matrix(1,0,0,-1,571,1243)"/>
</svg>