<?xml version="1.0" encoding="UTF-8"?>
<svg height="1743" version="1.1" width="2679" xmlns="http://www.w3.org/2000/svg" xmlns:xlink="http://www.w3.org/1999/xlink">
 <path d="M0,0 l2679,0 l0,1743 l-2679,0 Z M0,0" fill="rgb(255,255,255)" transform="matrix(1,0,0,-1,0,1743)"/>
 <path d="M445,404 l0,158 l144,0 l0,109 l-619,0 l0,-109 l331,0 l0,-61 l-86,-21 c-127,-31,-181,-95,-181,-200 c0,-149,128,-237,262,-237 c24,0,48,3,72,9 l65,-130 l158,39 l-128,151 c26,26,42,52,42,92 c0,61,-39,90,-79,110 l-89,-33 l0,-96 c-16,-14,-36,-21,-58,-22 c-53,-3,-110,30,-110,90 c0,58,35,90,141,117 Z M635,-313 l-184,197 l-107,-43 l108,-158 l183,0 Z M635,-313" fill="rgb(0,0,0)" transform="matrix(1,0,0,-1,571,1243)"/>
</svg>