<?xml version="1.0" encoding="UTF-8"?>
<svg height="1743" version="1.1" width="2679" xmlns="http://www.w3.org/2000/svg" xmlns:xlink="http://www.w3.org/1999/xlink">
 <path d="M0,0 l2679,0 l0,1743 l-2679,0 Z M0,0" fill="rgb(255,255,255)" transform="matrix(1,0,0,-1,0,1743)"/>
 <path d="M290,112 c93,0,175,40,225,113 l-87,84 c-22,-34,-58,-79,-136,-79 c-65,0,-103,41,-111,96 c65,12,122,62,122,134 c0,31,-10,70,-43,98 l0,4 l122,0 l0,109 l-412,0 l0,-109 l164,0 c19,-24,29,-63,29,-83 c0,-63,-56,-90,-133,-105 c4,-176,126,-262,260,-262 Z M290,112" fill="rgb(0,0,0)" transform="matrix(1,0,0,-1,571,1243)"/>
</svg>