<?xml version="1.0" encoding="UTF-8"?>
<svg height="1743" version="1.1" width="2679" xmlns="http://www.w3.org/2000/svg" xmlns:xlink="http://www.w3.org/1999/xlink">
 <path d="M0,0 l2679,0 l0,1743 l-2679,0 Z M0,0" fill="rgb(255,255,255)" transform="matrix(1,0,0,-1,0,1743)"/>
 <path d="M502,671 l-532,0 l0,-109 l532,0 Z M215,476 c-91,0,-186,-60,-186,-199 c0,-122,73,-234,195,-297 l89,94 c-110,58,-143,135,-143,197 c0,69,33,86,60,86 c33,0,55,-22,55,-69 l0,-102 l128,0 l0,101 c0,49,22,73,59,73 c31,0,51,-16,66,-33 l61,104 c-27,25,-69,51,-134,51 c-72,0,-107,-40,-119,-80 l-4,0 c-20,48,-66,74,-127,74 Z M215,476" fill="rgb(0,0,0)" transform="matrix(1,0,0,-1,571,1243)"/>
</svg>