<?xml version="1.0" encoding="UTF-8"?>
<svg height="1743" version="1.1" width="2679" xmlns="http://www.w3.org/2000/svg" xmlns:xlink="http://www.w3.org/1999/xlink">
 <path d="M0,0 l2679,0 l0,1743 l-2679,0 Z M0,0" fill="rgb(255,255,255)" transform="matrix(1,0,0,-1,0,1743)"/>
 <path d="M255,159 c152,0,209,73,246,140 l-82,86 c-2,-4,-5,-9,-8,-14 l-187,191 l131,0 l0,109 l-385,0 l0,-109 l101,0 l0,-221 c0,-107,60,-182,184,-182 Z M285,275 c-45,0,-78,24,-78,76 l0,37 l-8,95 l59,-68 l106,-106 c-21,-19,-47,-34,-79,-34 Z M285,275" fill="rgb(0,0,0)" transform="matrix(1,0,0,-1,571,1243)"/>
</svg>