<?xml version="1.0" encoding="UTF-8"?>
<svg height="1743" version="1.1" width="2679" xmlns="http://www.w3.org/2000/svg" xmlns:xlink="http://www.w3.org/1999/xlink">
 <path d="M0,0 l2679,0 l0,1743 l-2679,0 Z M0,0" fill="rgb(255,255,255)" transform="matrix(1,0,0,-1,0,1743)"/>
 <path d="M330,140 l0,-140 l140,0 l0,281 c0,52,36,91,90,91 c43,0,69,-18,89,-38 l71,105 c-29,24,-70,48,-138,48 c-43,0,-87,-18,-108,-39 l-4,0 l0,114 l128,0 l0,109 l-628,0 l0,-109 l360,0 l0,-254 c0,-51,-32,-91,-84,-91 c-45,0,-79,31,-79,75 c0,60,49,92,115,78 l-22,121 c-118,11,-232,-57,-232,-197 c0,-116,85,-192,189,-192 c55,0,91,21,109,38 Z M52,4 c0,-40,33,-73,74,-73 c44,0,77,33,77,73 c0,45,-33,78,-77,78 c-41,0,-74,-33,-74,-78 Z M52,4" fill="rgb(0,0,0)" transform="matrix(1,0,0,-1,571,1243)"/>
</svg>