<?xml version="1.0" encoding="UTF-8"?>
<svg height="1743" version="1.1" width="2679" xmlns="http://www.w3.org/2000/svg" xmlns:xlink="http://www.w3.org/1999/xlink">
 <path d="M0,0 l2679,0 l0,1743 l-2679,0 Z M0,0" fill="rgb(255,255,255)" transform="matrix(1,0,0,-1,0,1743)"/>
 <path d="M24,-22 c0,-40,33,-73,74,-73 c44,0,77,33,77,73 c0,45,-33,78,-77,78 c-41,0,-74,-33,-74,-78 Z M537,671 l-567,0 l0,-109 l567,0 Z M590,377 c-21,-5,-50,-9,-78,-9 c-18,0,-36,1,-53,2 c-29,88,-109,133,-208,133 c-39,0,-83,-11,-119,-29 l54,-120 c14,9,39,20,66,20 c45,0,82,-27,82,-82 c0,-56,-44,-91,-97,-91 c-68,0,-120,40,-159,108 l-85,-109 c43,-64,133,-127,248,-127 c117,0,209,69,227,178 c14,-2,31,-3,49,-3 c33,0,65,5,96,13 Z M590,377" fill="rgb(0,0,0)" transform="matrix(1,0,0,-1,571,1243)"/>
</svg>