<?xml version="1.0" encoding="UTF-8"?>
<svg height="1743" version="1.1" width="2679" xmlns="http://www.w3.org/2000/svg" xmlns:xlink="http://www.w3.org/1999/xlink">
 <path d="M0,0 l2679,0 l0,1743 l-2679,0 Z M0,0" fill="rgb(255,255,255)" transform="matrix(1,0,0,-1,0,1743)"/>
 <path d="M581,372 c38,0,62,-14,76,-27 l67,106 c-32,23,-73,36,-116,36 c-46,0,-90,-17,-113,-39 l-4,0 l0,114 l128,0 l0,109 l-649,0 l0,-109 l100,0 l0,-212 c0,-104,51,-179,174,-179 c54,0,89,18,106,34 l4,0 l0,-205 l137,0 l0,281 c0,52,36,91,90,91 Z M354,370 c0,-39,-21,-78,-83,-78 c-45,0,-60,25,-60,77 l0,193 l143,0 Z M74,46 c0,-40,33,-73,74,-73 c44,0,77,33,77,73 c0,45,-33,78,-77,78 c-41,0,-74,-33,-74,-78 Z M74,46" fill="rgb(0,0,0)" transform="matrix(1,0,0,-1,571,1243)"/>
</svg>