<?xml version="1.0" encoding="UTF-8"?>
<svg height="1743" version="1.1" width="2679" xmlns="http://www.w3.org/2000/svg" xmlns:xlink="http://www.w3.org/1999/xlink">
 <path d="M0,0 l2679,0 l0,1743 l-2679,0 Z M0,0" fill="rgb(255,255,255)" transform="matrix(1,0,0,-1,0,1743)"/>
 <path d="M79,47 c0,-40,33,-73,74,-73 c44,0,77,33,77,73 c0,45,-33,78,-77,78 c-41,0,-74,-33,-74,-78 Z M248,149 l0,100 l215,0 l0,123 l-210,0 l0,136 c0,114,-70,163,-169,163 l-114,0 l0,-109 l82,0 c48,0,63,-19,63,-62 l0,-135 l-56,-44 c0,-48,26,-130,83,-172 Z M399,562 l0,109 l-55,0 l0,-109 Z M399,562" fill="rgb(0,0,0)" transform="matrix(1,0,0,-1,571,1243)"/>
</svg>