<?xml version="1.0" encoding="UTF-8"?>
<svg height="1743" version="1.1" width="2679" xmlns="http://www.w3.org/2000/svg" xmlns:xlink="http://www.w3.org/1999/xlink">
 <path d="M0,0 l2679,0 l0,1743 l-2679,0 Z M0,0" fill="rgb(255,255,255)" transform="matrix(1,0,0,-1,0,1743)"/>
 <path d="M2,2 c0,-40,33,-73,74,-73 c44,0,77,33,77,73 c0,45,-33,78,-77,78 c-41,0,-74,-33,-74,-78 Z M358,671 l-388,0 l0,-109 l388,0 Z M247,91 c124,0,190,65,228,131 l-102,76 c-13,-28,-43,-88,-115,-88 c-49,0,-85,28,-85,79 c0,52,36,81,81,81 c13,0,24,0,39,-5 l-10,122 c-16,3,-34,4,-48,4 c-102,0,-207,-65,-207,-202 c0,-119,92,-198,219,-198 Z M247,91" fill="rgb(0,0,0)" transform="matrix(1,0,0,-1,571,1243)"/>
</svg>