<?xml version="1.0" encoding="UTF-8"?>
<svg height="1743" version="1.1" width="2679" xmlns="http://www.w3.org/2000/svg" xmlns:xlink="http://www.w3.org/1999/xlink">
 <path d="M0,0 l2679,0 l0,1743 l-2679,0 Z M0,0" fill="rgb(255,255,255)" transform="matrix(1,0,0,-1,0,1743)"/>
 <path d="M270,394 c48,-10,78,-38,78,-77 c0,-33,-22,-53,-60,-53 c-90,0,-134,116,-141,245 l-126,-64 c10,-125,91,-300,277,-300 c105,0,183,64,183,154 c0,39,-18,70,-42,90 l0,4 l119,0 l0,-188 l-371,-191 l112,-95 l255,157 l4,0 l0,-76 l142,0 l0,562 l105,0 l0,109 l-835,0 l0,-109 l588,0 l0,-59 l-234,0 l-54,-99 Z M270,394" fill="rgb(0,0,0)" transform="matrix(1,0,0,-1,571,1243)"/>
</svg>