<?xml version="1.0" encoding="UTF-8"?>
<svg height="1743" version="1.1" width="2679" xmlns="http://www.w3.org/2000/svg" xmlns:xlink="http://www.w3.org/1999/xlink">
 <path d="M0,0 l2679,0 l0,1743 l-2679,0 Z M0,0" fill="rgb(255,255,255)" transform="matrix(1,0,0,-1,0,1743)"/>
 <path d="M578,134 l0,-134 l139,0 l0,562 l105,0 l0,109 l-852,0 l0,-109 l93,0 l0,-177 c0,-130,71,-195,196,-195 c123,0,200,67,200,198 l0,174 l117,0 l0,-299 l-350,-198 l112,-95 l236,164 Z M262,309 c-35,0,-59,17,-59,66 l0,187 l117,0 l0,-186 c0,-49,-21,-67,-58,-67 Z M262,309" fill="rgb(0,0,0)" transform="matrix(1,0,0,-1,571,1243)"/>
</svg>