<?xml version="1.0" encoding="UTF-8"?>
<svg height="1743" version="1.1" width="2679" xmlns="http://www.w3.org/2000/svg" xmlns:xlink="http://www.w3.org/1999/xlink">
 <path d="M0,0 l2679,0 l0,1743 l-2679,0 Z M0,0" fill="rgb(255,255,255)" transform="matrix(1,0,0,-1,0,1743)"/>
 <path d="M521,201 l0,-201 l139,0 l0,562 l105,0 l0,109 l-244,0 l0,-339 c-57,16,-109,35,-146,50 c48,33,73,85,73,141 c0,90,-76,157,-178,157 c-111,0,-177,-75,-177,-152 c0,-40,13,-93,64,-133 c-42,-15,-98,-31,-160,-45 l91,-109 c73,23,134,45,184,71 c35,-17,71,-32,121,-48 l0,-4 l-212,-123 l111,-101 l225,165 Z M218,522 c0,29,19,52,55,52 c27,0,49,-16,49,-51 c0,-26,-13,-57,-58,-80 c-40,29,-46,60,-46,79 Z M218,522" fill="rgb(0,0,0)" transform="matrix(1,0,0,-1,571,1243)"/>
</svg>