<?xml version="1.0" encoding="UTF-8"?>
<svg height="1743" version="1.1" width="2679" xmlns="http://www.w3.org/2000/svg" xmlns:xlink="http://www.w3.org/1999/xlink">
 <path d="M0,0 l2679,0 l0,1743 l-2679,0 Z M0,0" fill="rgb(255,255,255)" transform="matrix(1,0,0,-1,0,1743)"/>
 <path d="M479,82 l166,107 l4,0 l0,-189 l143,0 l0,562 l105,0 l0,109 l-927,0 l0,-109 l262,0 l0,-151 c0,-36,-18,-49,-41,-49 c-29,0,-50,21,-78,59 l-102,-89 l276,-351 l118,69 l-107,132 c-35,42,-49,53,-69,73 l0,4 c91,0,130,93,219,93 c54,0,81,-40,89,-88 l-159,-87 Z M468,479 c-35,0,-71,-8,-96,-20 l0,103 l277,0 l0,-226 l-4,0 c-20,76,-66,143,-177,143 Z M468,479" fill="rgb(0,0,0)" transform="matrix(1,0,0,-1,571,1243)"/>
</svg>