<?xml version="1.0" encoding="UTF-8"?>
<svg height="1743" version="1.1" width="2679" xmlns="http://www.w3.org/2000/svg" xmlns:xlink="http://www.w3.org/1999/xlink">
 <path d="M0,0 l2679,0 l0,1743 l-2679,0 Z M0,0" fill="rgb(255,255,255)" transform="matrix(1,0,0,-1,0,1743)"/>
 <path d="M466,141 l4,0 l0,-141 l142,0 l0,562 l105,0 l0,109 l-747,0 l0,-109 l500,0 l0,-293 c-8,-21,-56,-70,-137,-70 c-64,0,-95,35,-95,79 c0,54,37,85,107,85 l60,0 l0,119 l-391,0 l0,-120 l128,0 l0,-4 c-23,-19,-47,-49,-47,-98 c0,-67,37,-108,82,-129 l0,-4 l-135,-61 l112,-95 Z M287,-96 c0,-40,33,-73,74,-73 c44,0,77,33,77,73 c0,45,-33,78,-77,78 c-41,0,-74,-33,-74,-78 Z M287,-96" fill="rgb(0,0,0)" transform="matrix(1,0,0,-1,571,1243)"/>
</svg>