<?xml version="1.0" encoding="UTF-8"?>
<svg height="1743" version="1.1" width="2679" xmlns="http://www.w3.org/2000/svg" xmlns:xlink="http://www.w3.org/1999/xlink">
 <path d="M0,0 l2679,0 l0,1743 l-2679,0 Z M0,0" fill="rgb(255,255,255)" transform="matrix(1,0,0,-1,0,1743)"/>
 <path d="M274,97 c-79,55,-104,120,-104,174 c0,69,33,88,60,88 c33,0,55,-25,55,-72 l0,-94 l128,0 l0,87 c0,54,18,80,59,80 c17,0,43,-8,52,-14 l0,-130 l-253,-174 l102,-81 l151,120 l4,0 l0,-111 l134,0 l0,592 l105,0 l0,109 l-797,0 l0,-109 l552,0 l0,-104 l-4,0 c-18,18,-51,23,-75,23 c-39,0,-85,-25,-97,-79 l-4,0 c-20,48,-66,74,-127,74 c-91,0,-186,-60,-186,-199 c0,-104,52,-201,143,-266 Z M23,-85 c0,-40,33,-73,74,-73 c44,0,77,33,77,73 c0,45,-33,78,-77,78 c-41,0,-74,-33,-74,-78 Z M23,-85" fill="rgb(0,0,0)" transform="matrix(1,0,0,-1,571,1243)"/>
</svg>