<?xml version="1.0" encoding="UTF-8"?>
<svg height="1743" version="1.1" width="2679" xmlns="http://www.w3.org/2000/svg" xmlns:xlink="http://www.w3.org/1999/xlink">
 <path d="M0,0 l2679,0 l0,1743 l-2679,0 Z M0,0" fill="rgb(255,255,255)" transform="matrix(1,0,0,-1,0,1743)"/>
 <path d="M393,-146 l153,32 l-145,151 c46,12,91,36,134,77 l-68,113 c-58,-61,-112,-81,-176,-81 c-86,0,-119,52,-119,97 c0,50,15,87,121,114 l145,37 l0,168 l131,0 l0,109 l-599,0 l0,-109 l324,0 l0,-71 l-76,-21 c-126,-35,-181,-95,-181,-200 c0,-106,71,-200,184,-233 l-149,-145 l154,-38 l87,117 Z M515,-385 l-184,197 l-107,-43 l108,-158 l183,0 Z M515,-385" fill="rgb(0,0,0)" transform="matrix(1,0,0,-1,571,1243)"/>
</svg>