<?xml version="1.0" encoding="UTF-8"?>
<svg height="1743" version="1.1" width="2679" xmlns="http://www.w3.org/2000/svg" xmlns:xlink="http://www.w3.org/1999/xlink">
 <path d="M0,0 l2679,0 l0,1743 l-2679,0 Z M0,0" fill="rgb(255,255,255)" transform="matrix(1,0,0,-1,0,1743)"/>
 <path d="M252,218 l0,85 l213,0 l0,121 l-211,0 l0,138 l145,0 l0,109 l-429,0 l0,-109 l148,0 l0,-141 l-55,-51 c0,-48,27,-122,72,-152 Z M465,172 l0,127 l-406,-233 l112,-95 Z M465,172" fill="rgb(0,0,0)" transform="matrix(1,0,0,-1,571,1243)"/>
</svg>