<?xml version="1.0" encoding="UTF-8"?>
<svg height="1743" version="1.1" width="2679" xmlns="http://www.w3.org/2000/svg" xmlns:xlink="http://www.w3.org/1999/xlink">
 <path d="M0,0 l2679,0 l0,1743 l-2679,0 Z M0,0" fill="rgb(255,255,255)" transform="matrix(1,0,0,-1,0,1743)"/>
 <path d="M677,212 c5,167,-89,267,-209,267 c-35,0,-71,-8,-96,-20 l0,103 l233,0 l0,109 l-635,0 l0,-109 l262,0 l0,-151 c0,-36,-18,-49,-41,-49 c-29,0,-50,21,-78,59 l-102,-89 l276,-351 l118,69 l-107,132 c-35,43,-47,55,-67,75 l-2,2 c91,0,130,93,219,93 c49,0,81,-29,94,-84 l-164,-91 l101,-95 Z M677,212" fill="rgb(0,0,0)" transform="matrix(1,0,0,-1,571,1243)"/>
</svg>