<?xml version="1.0" encoding="UTF-8"?>
<svg height="1743" version="1.1" width="2679" xmlns="http://www.w3.org/2000/svg" xmlns:xlink="http://www.w3.org/1999/xlink">
 <path d="M0,0 l2679,0 l0,1743 l-2679,0 Z M0,0" fill="rgb(255,255,255)" transform="matrix(1,0,0,-1,0,1743)"/>
 <path d="M582,487 c-43,0,-87,-18,-108,-39 l-4,0 l0,114 l643,0 l0,-99 l-234,0 l-54,-99 l0,-10 c51,-20,78,-58,78,-96 c0,-40,-25,-60,-58,-60 c-88,0,-134,129,-144,253 c-32,23,-76,36,-119,36 Z M470,281 c0,52,36,91,90,91 c11,0,20,-1,29,-3 c21,-121,94,-291,267,-291 c109,0,181,67,181,165 c0,45,-17,84,-47,106 l0,4 l123,0 l0,-353 l142,0 l0,562 l105,0 l0,109 l-1390,0 l0,-109 l360,0 l0,-254 c0,-51,-32,-91,-84,-91 c-45,0,-79,31,-79,75 c0,60,49,92,115,78 l-22,121 c-118,11,-232,-57,-232,-197 c0,-116,85,-192,189,-192 c55,0,91,21,109,38 l4,0 l0,-140 l140,0 Z M470,281" fill="rgb(0,0,0)" transform="matrix(1,0,0,-1,571,1243)"/>
</svg>