<?xml version="1.0" encoding="UTF-8"?>
<svg height="1743" version="1.1" width="2679" xmlns="http://www.w3.org/2000/svg" xmlns:xlink="http://www.w3.org/1999/xlink">
 <path d="M0,0 l2679,0 l0,1743 l-2679,0 Z M0,0" fill="rgb(255,255,255)" transform="matrix(1,0,0,-1,0,1743)"/>
 <path d="M474,448 l-4,0 l0,114 l458,0 l0,-89 l-125,0 c-34,0,-68,-7,-100,-21 c-28,19,-65,35,-121,35 c-43,0,-87,-18,-108,-39 Z M856,75 c-71,50,-115,115,-115,191 c0,61,40,86,87,86 l100,0 l0,-352 l141,0 l0,562 l106,0 l0,109 l-1205,0 l0,-109 l360,0 l0,-254 c0,-51,-32,-91,-84,-91 c-45,0,-79,31,-79,75 c0,60,49,92,115,78 l-22,121 c-118,11,-232,-57,-232,-197 c0,-116,85,-192,189,-192 c55,0,91,21,109,38 l4,0 l0,-140 l140,0 l0,281 c0,52,36,91,90,91 c22,0,39,-5,54,-12 c-11,-25,-17,-54,-17,-89 c0,-132,83,-233,158,-284 Z M856,75" fill="rgb(0,0,0)" transform="matrix(1,0,0,-1,571,1243)"/>
</svg>