<?xml version="1.0" encoding="UTF-8"?>
<svg height="1743" version="1.1" width="2679" xmlns="http://www.w3.org/2000/svg" xmlns:xlink="http://www.w3.org/1999/xlink">
 <path d="M0,0 l2679,0 l0,1743 l-2679,0 Z M0,0" fill="rgb(255,255,255)" transform="matrix(1,0,0,-1,0,1743)"/>
 <path d="M474,448 l-4,0 l0,114 l168,0 l0,-81 c-16,4,-35,6,-56,6 c-43,0,-87,-18,-108,-39 Z M330,140 l0,-140 l140,0 l0,281 c0,52,36,91,90,91 c36,0,60,-12,78,-28 c4,-101,63,-174,176,-174 c37,0,91,9,126,47 l4,0 l0,-217 l141,0 l0,562 l105,0 l0,109 l-1220,0 l0,-109 l360,0 l0,-254 c0,-51,-32,-91,-84,-91 c-45,0,-79,31,-79,75 c0,60,49,92,115,78 l-22,121 c-118,11,-232,-57,-232,-197 c0,-116,85,-192,189,-192 c55,0,91,21,109,38 Z M944,407 c0,-70,-38,-118,-98,-118 c-45,0,-67,24,-67,76 l0,197 l165,0 Z M944,407" fill="rgb(0,0,0)" transform="matrix(1,0,0,-1,571,1243)"/>
</svg>