<?xml version="1.0" encoding="UTF-8"?>
<svg height="1743" version="1.1" width="2679" xmlns="http://www.w3.org/2000/svg" xmlns:xlink="http://www.w3.org/1999/xlink">
 <path d="M0,0 l2679,0 l0,1743 l-2679,0 Z M0,0" fill="rgb(255,255,255)" transform="matrix(1,0,0,-1,0,1743)"/>
 <path d="M330,140 l0,-140 l140,0 l0,281 c0,52,36,91,90,91 c21,0,37,-4,51,-11 c-9,-24,-14,-52,-14,-84 c0,-122,73,-234,195,-297 l89,94 c-110,58,-143,135,-143,197 c0,69,33,88,60,88 c33,0,55,-25,55,-72 l0,-101 l128,0 l0,94 c0,54,18,80,59,80 c17,0,39,-8,48,-14 l0,-346 l142,0 l0,562 l105,0 l0,109 l-1365,0 l0,-109 l360,0 l0,-254 c0,-51,-32,-91,-84,-91 c-45,0,-79,31,-79,75 c0,60,49,92,115,78 l-22,121 c-118,11,-232,-57,-232,-197 c0,-116,85,-192,189,-192 c55,0,91,21,109,38 Z M1084,458 c-18,18,-49,23,-73,23 c-39,0,-85,-25,-97,-79 l-4,0 c-20,48,-66,74,-127,74 c-30,0,-60,-6,-87,-20 c-27,17,-63,31,-114,31 c-43,0,-87,-18,-108,-39 l-4,0 l0,114 l618,0 l0,-104 Z M1084,458" fill="rgb(0,0,0)" transform="matrix(1,0,0,-1,571,1243)"/>
</svg>