<?xml version="1.0" encoding="UTF-8"?>
<svg height="1743" version="1.1" width="2679" xmlns="http://www.w3.org/2000/svg" xmlns:xlink="http://www.w3.org/1999/xlink">
 <path d="M0,0 l2679,0 l0,1743 l-2679,0 Z M0,0" fill="rgb(255,255,255)" transform="matrix(1,0,0,-1,0,1743)"/>
 <path d="M330,140 l0,-140 l140,0 l0,281 c0,52,36,91,90,91 c19,0,35,-3,48,-9 c-8,-22,-12,-46,-12,-74 c0,-119,92,-198,219,-198 c92,0,152,36,192,81 c42,-39,98,-60,160,-60 c61,0,109,20,135,47 l4,0 l0,-159 l141,0 l0,562 l105,0 l0,109 l-1582,0 l0,-109 l360,0 l0,-254 c0,-51,-32,-91,-84,-91 c-45,0,-79,31,-79,75 c0,60,49,92,115,78 l-22,121 c-118,11,-232,-57,-232,-197 c0,-116,85,-192,189,-192 c55,0,91,21,109,38 Z M826,210 c-49,0,-85,28,-85,79 c0,52,36,81,81,81 c13,0,24,0,39,-5 l-10,122 c-16,3,-34,4,-48,4 c-40,0,-80,-10,-114,-30 c-26,15,-60,26,-107,26 c-43,0,-87,-18,-108,-39 l-4,0 l0,114 l560,0 c19,-24,29,-63,29,-83 c0,-63,-56,-90,-133,-105 c1,-30,5,-57,12,-82 c-14,-30,-45,-82,-112,-82 Z M1077,326 c65,12,122,62,122,134 c0,31,-10,70,-43,98 l0,4 l150,0 l0,-217 c0,-68,-40,-115,-118,-115 c-65,0,-103,39,-111,96 Z M1077,326" fill="rgb(0,0,0)" transform="matrix(1,0,0,-1,571,1243)"/>
</svg>