<?xml version="1.0" encoding="UTF-8"?>
<svg height="1743" version="1.1" width="2679" xmlns="http://www.w3.org/2000/svg" xmlns:xlink="http://www.w3.org/1999/xlink">
 <path d="M0,0 l2679,0 l0,1743 l-2679,0 Z M0,0" fill="rgb(255,255,255)" transform="matrix(1,0,0,-1,0,1743)"/>
 <path d="M1296,312 c-32,13,-41,41,-41,55 c0,23,10,29,69,29 l186,0 l0,166 l126,0 l0,109 l-1666,0 l0,-109 l360,0 l0,-254 c0,-51,-32,-91,-84,-91 c-45,0,-79,31,-79,75 c0,60,49,92,115,78 l-22,121 c-118,11,-232,-57,-232,-197 c0,-116,85,-192,189,-192 c55,0,91,21,109,38 l4,0 l0,-140 l140,0 l0,278 c0,58,28,85,58,85 c22,0,37,-13,52,-32 l284,-350 l115,72 l-92,110 c-40,48,-60,69,-81,90 l0,4 c10,1,20,3,30,5 c20,5,39,12,54,24 c36,-24,84,-39,137,-39 c46,0,88,4,140,25 c27,-31,66,-60,116,-80 l136,36 c10,-8,19,-25,19,-42 c0,-50,-36,-79,-98,-79 c-73,0,-141,46,-181,118 l-89,-69 c42,-74,125,-164,267,-164 c138,0,226,86,226,196 c0,82,-44,142,-110,160 Z M1005,365 c-27,0,-48,3,-64,7 c1,10,2,21,2,33 l0,157 l429,0 l0,-56 l-120,0 c-89,0,-135,-41,-135,-108 c0,-5,0,-10,1,-15 c-38,-15,-78,-18,-113,-18 Z M762,359 c-25,0,-43,16,-65,42 c-51,64,-86,77,-136,77 c-36,0,-66,-15,-87,-35 l-4,0 l0,119 l333,0 l0,-154 c0,-36,-18,-49,-41,-49 Z M762,359" fill="rgb(0,0,0)" transform="matrix(1,0,0,-1,571,1243)"/>
</svg>