<?xml version="1.0" encoding="UTF-8"?>
<svg height="1743" version="1.1" width="2679" xmlns="http://www.w3.org/2000/svg" xmlns:xlink="http://www.w3.org/1999/xlink">
 <path d="M0,0 l2679,0 l0,1743 l-2679,0 Z M0,0" fill="rgb(255,255,255)" transform="matrix(1,0,0,-1,0,1743)"/>
 <path d="M997,365 c-23,0,-41,2,-57,5 c2,11,3,23,3,35 l0,157 l161,0 l0,-169 c-30,-20,-69,-28,-107,-28 Z M1292,170 c36,0,66,5,93,13 c27,-84,90,-157,180,-203 l89,94 c-110,58,-143,135,-143,197 c0,69,33,88,60,88 c33,0,55,-25,55,-72 l0,-101 l128,0 l0,94 c0,54,18,80,59,80 c17,0,39,-8,48,-14 l0,-346 l142,0 l0,562 l105,0 l0,109 l-2138,0 l0,-109 l360,0 l0,-254 c0,-51,-32,-91,-84,-91 c-45,0,-79,31,-79,75 c0,60,49,92,115,78 l-22,121 c-118,11,-232,-57,-232,-197 c0,-116,85,-192,189,-192 c55,0,91,21,109,38 l4,0 l0,-140 l140,0 l0,278 c0,58,28,85,58,85 c23,0,38,-16,55,-35 l281,-347 l115,72 l-92,110 c-40,48,-60,69,-81,90 l0,4 c10,1,20,3,30,5 c17,4,33,10,47,19 c34,-25,76,-39,133,-39 c37,0,73,6,107,20 c27,-55,81,-92,169,-92 Z M1857,458 c-18,18,-49,23,-73,23 c-39,0,-85,-25,-97,-79 l-4,0 c-20,48,-66,74,-127,74 c-84,0,-172,-52,-185,-170 c-18,-11,-38,-17,-59,-17 c-45,0,-67,24,-67,76 l0,197 l616,0 l0,-104 Z M762,359 c-25,0,-43,14,-65,42 c-2,3,-4,5,-6,8 c-2,2,-3,4,-5,6 c-45,52,-79,63,-125,63 c-36,0,-66,-15,-87,-35 l-4,0 l0,119 l333,0 l0,-154 c0,-36,-18,-49,-41,-49 Z M762,359" fill="rgb(0,0,0)" transform="matrix(1,0,0,-1,571,1243)"/>
</svg>