<?xml version="1.0" encoding="UTF-8"?>
<svg height="1743" version="1.1" width="2679" xmlns="http://www.w3.org/2000/svg" xmlns:xlink="http://www.w3.org/1999/xlink">
 <path d="M0,0 l2679,0 l0,1743 l-2679,0 Z M0,0" fill="rgb(255,255,255)" transform="matrix(1,0,0,-1,0,1743)"/>
 <path d="M415,117 c-120,0,-203,66,-230,153 c9,-2,21,-3,29,-3 c79,0,135,47,135,154 l0,141 l380,0 c19,-24,29,-63,29,-83 c0,-29,-10,-50,-28,-67 c-32,59,-93,94,-166,94 c-107,0,-179,-73,-179,-168 c0,-93,65,-142,131,-150 l73,74 c-41,4,-83,26,-83,74 c0,35,26,60,63,60 c38,0,68,-26,68,-79 c0,-113,-92,-200,-222,-200 Z M1005,159 l0,-159 l141,0 l0,562 l105,0 l0,109 l-1281,0 l0,-109 l246,0 l0,-150 c0,-30,-14,-41,-32,-41 c-24,0,-43,16,-54,51 l-119,-42 c31,-196,162,-373,391,-373 c149,0,257,70,312,161 c40,-36,91,-56,152,-56 c61,0,109,20,135,47 Z M773,327 c65,12,125,61,125,133 c0,31,-10,70,-43,98 l0,4 l150,0 l0,-217 c0,-68,-40,-115,-118,-115 c-65,0,-106,40,-114,97 Z M773,327" fill="rgb(0,0,0)" transform="matrix(1,0,0,-1,571,1243)"/>
</svg>