<?xml version="1.0" encoding="UTF-8"?>
<svg height="1743" version="1.1" width="2679" xmlns="http://www.w3.org/2000/svg" xmlns:xlink="http://www.w3.org/1999/xlink">
 <path d="M0,0 l2679,0 l0,1743 l-2679,0 Z M0,0" fill="rgb(255,255,255)" transform="matrix(1,0,0,-1,0,1743)"/>
 <path d="M415,117 c-120,0,-203,66,-230,153 c9,-2,21,-3,29,-3 c79,0,135,47,135,154 l0,141 l613,0 l0,-235 c0,-63,-35,-117,-103,-117 c-49,0,-86,30,-86,80 c0,71,71,95,122,75 l-10,122 c-70,11,-134,-3,-180,-40 c-34,38,-84,59,-141,59 c-107,0,-179,-73,-179,-168 c0,-93,65,-142,131,-150 l73,74 c-41,4,-83,26,-83,74 c0,35,26,60,63,60 c38,0,68,-26,68,-79 c0,-2,0,-4,0,-6 c0,-4,-1,-8,-1,-12 c-9,-104,-98,-182,-221,-182 Z M1103,562 l105,0 l0,109 l-1238,0 l0,-109 l246,0 l0,-150 c0,-30,-14,-41,-32,-41 c-24,0,-43,16,-54,51 l-119,-42 c31,-196,162,-373,391,-373 c134,0,235,57,294,135 c36,-33,84,-51,139,-51 c63,0,103,23,123,42 l4,0 l0,-133 l141,0 Z M1103,562" fill="rgb(0,0,0)" transform="matrix(1,0,0,-1,571,1243)"/>
</svg>