<?xml version="1.0" encoding="UTF-8"?>
<svg height="1743" version="1.1" width="2679" xmlns="http://www.w3.org/2000/svg" xmlns:xlink="http://www.w3.org/1999/xlink">
 <path d="M0,0 l2679,0 l0,1743 l-2679,0 Z M0,0" fill="rgb(255,255,255)" transform="matrix(1,0,0,-1,0,1743)"/>
 <path d="M638,562 l0,109 l-668,0 l0,-109 l246,0 l0,-150 c0,-30,-14,-41,-32,-41 c-24,0,-43,16,-54,51 l-119,-42 c31,-196,162,-373,391,-373 c172,0,291,94,334,206 l18,-13 l245,-227 l117,81 l-93,84 c-49,44,-98,77,-131,94 l0,4 c118,4,245,80,245,242 c0,102,-66,202,-215,202 c-108,0,-187,-75,-187,-162 c0,-68,36,-120,103,-138 l83,81 c-31,10,-47,34,-47,60 c0,24,18,48,54,48 c37,0,67,-32,67,-93 c0,-83,-58,-133,-144,-133 c-31,0,-69,6,-103,23 c-21,87,-94,140,-184,140 c-107,0,-179,-73,-179,-168 c0,-93,65,-142,131,-150 l73,74 c-41,4,-83,26,-83,74 c0,35,26,60,63,60 c38,0,68,-26,68,-79 c0,-113,-92,-200,-222,-200 c-120,0,-203,66,-230,153 c9,-2,21,-3,29,-3 c79,0,135,47,135,154 l0,141 Z M1218,0 l142,0 l0,562 l105,0 l0,109 l-247,0 Z M1218,0" fill="rgb(0,0,0)" transform="matrix(1,0,0,-1,571,1243)"/>
</svg>