<?xml version="1.0" encoding="UTF-8"?>
<svg height="1743" version="1.1" width="2679" xmlns="http://www.w3.org/2000/svg" xmlns:xlink="http://www.w3.org/1999/xlink">
 <path d="M0,0 l2679,0 l0,1743 l-2679,0 Z M0,0" fill="rgb(255,255,255)" transform="matrix(1,0,0,-1,0,1743)"/>
 <path d="M744,159 l0,-159 l141,0 l0,562 l105,0 l0,109 l-1020,0 l0,-109 l153,0 l0,-141 l-68,-53 c0,-33,14,-109,72,-150 l134,0 l0,344 l207,0 c19,-24,29,-63,29,-83 c0,-63,-56,-90,-133,-105 c2,-44,10,-83,24,-117 l-337,-191 l112,-95 l284,200 c41,-38,96,-59,158,-59 c61,0,109,20,135,47 Z M515,326 c65,12,122,62,122,134 c0,31,-10,70,-43,98 l0,4 l150,0 l0,-217 c0,-68,-40,-115,-118,-115 c-65,0,-103,39,-111,96 Z M515,326" fill="rgb(0,0,0)" transform="matrix(1,0,0,-1,571,1243)"/>
</svg>