<?xml version="1.0" encoding="UTF-8"?>
<svg height="1743" version="1.1" width="2679" xmlns="http://www.w3.org/2000/svg" xmlns:xlink="http://www.w3.org/1999/xlink">
 <path d="M0,0 l2679,0 l0,1743 l-2679,0 Z M0,0" fill="rgb(255,255,255)" transform="matrix(1,0,0,-1,0,1743)"/>
 <path d="M543,-75 c0,63,-39,115,-92,132 l-200,-31 c-24,7,-32,27,-32,41 c0,14,5,22,9,26 c22,-4,56,-6,84,-6 c152,0,231,80,231,172 c0,62,-36,115,-92,131 l-198,-30 c-22,6,-33,23,-33,36 c0,19,13,24,42,24 l226,0 l0,142 l200,0 l0,109 l-718,0 l0,-109 l384,0 l0,-48 l-146,0 c-82,0,-122,-44,-122,-99 c0,-63,47,-132,162,-165 l158,30 c11,-6,18,-14,18,-29 c0,-38,-43,-63,-109,-63 c-83,0,-159,29,-217,103 l-73,-66 c18,-27,56,-66,93,-87 c-16,-24,-21,-48,-21,-71 c0,-60,44,-125,151,-147 l159,28 c11,-6,17,-15,17,-29 c0,-38,-43,-64,-109,-64 c-83,0,-160,34,-218,107 l-72,-69 c41,-59,142,-139,287,-139 c150,0,231,80,231,171 Z M672,78 c0,36,-28,66,-65,66 c-37,0,-67,-30,-67,-66 c0,-36,29,-66,66,-66 c37,0,66,30,66,66 Z M672,409 c0,36,-28,66,-65,66 c-37,0,-67,-30,-67,-66 c0,-36,29,-66,66,-66 c37,0,66,30,66,66 Z M672,409" fill="rgb(0,0,0)" transform="matrix(1,0,0,-1,571,1243)"/>
</svg>