<?xml version="1.0" encoding="UTF-8"?>
<svg height="1743" version="1.1" width="2679" xmlns="http://www.w3.org/2000/svg" xmlns:xlink="http://www.w3.org/1999/xlink">
 <path d="M0,0 l2679,0 l0,1743 l-2679,0 Z M0,0" fill="rgb(255,255,255)" transform="matrix(1,0,0,-1,0,1743)"/>
 <path d="M870,160 c-54,0,-84,27,-93,62 c73,29,124,66,124,141 c0,82,-55,142,-181,142 l-244,0 l0,57 l520,0 l0,-280 c0,-67,-50,-122,-126,-122 Z M1137,0 l0,562 l105,0 l0,109 l-1272,0 l0,-109 l368,0 l0,-56 l-120,0 c-89,0,-135,-41,-135,-108 c0,-74,53,-160,166,-206 l136,36 c10,-8,19,-25,19,-42 c0,-50,-36,-79,-98,-79 c-81,0,-155,56,-193,141 l-90,-67 c36,-77,121,-189,280,-189 c138,0,226,86,226,196 c0,82,-44,142,-110,160 l-157,-36 c-32,13,-41,41,-41,55 c0,23,10,29,69,29 l434,0 c52,0,59,-17,59,-35 c0,-22,-16,-37,-37,-49 l-126,-61 c32,-122,118,-199,234,-199 c56,0,110,23,138,51 l4,0 l0,-103 Z M634,321 c0,33,-25,58,-57,58 c-32,0,-57,-25,-57,-58 c0,-31,25,-56,57,-56 c34,0,57,25,57,56 Z M634,321" fill="rgb(0,0,0)" transform="matrix(1,0,0,-1,571,1243)"/>
</svg>