<?xml version="1.0" encoding="UTF-8"?>
<svg height="1743" version="1.1" width="2679" xmlns="http://www.w3.org/2000/svg" xmlns:xlink="http://www.w3.org/1999/xlink">
 <path d="M0,0 l2679,0 l0,1743 l-2679,0 Z M0,0" fill="rgb(255,255,255)" transform="matrix(1,0,0,-1,0,1743)"/>
 <path d="M489,-337 l0,409 c26,32,40,72,40,116 c0,82,-44,142,-110,160 l-157,-36 c-32,13,-41,41,-41,55 c0,23,10,29,69,29 l186,0 l0,166 l208,0 l0,109 l-714,0 l0,-109 l368,0 l0,-56 l-120,0 c-89,0,-135,-41,-135,-108 c0,-74,53,-160,166,-206 l136,36 c10,-8,19,-25,19,-42 c0,-50,-36,-79,-98,-79 c-81,0,-155,56,-193,141 l-90,-67 c19,-41,51,-91,102,-130 c-39,-27,-70,-71,-70,-137 c0,-105,79,-180,187,-180 c55,0,95,19,113,37 l4,0 l0,-108 Z M188,-83 c0,50,36,83,102,83 c20,0,45,-2,71,-7 l0,-51 c0,-57,-33,-98,-94,-98 c-51,0,-79,32,-79,73 Z M668,367 c0,41,-31,74,-73,74 c-42,0,-75,-33,-75,-74 c0,-41,32,-74,74,-74 c42,0,74,33,74,74 Z M668,367" fill="rgb(0,0,0)" transform="matrix(1,0,0,-1,571,1243)"/>
</svg>