<?xml version="1.0" encoding="UTF-8"?>
<svg height="1743" version="1.1" width="2679" xmlns="http://www.w3.org/2000/svg" xmlns:xlink="http://www.w3.org/1999/xlink">
 <path d="M0,0 l2679,0 l0,1743 l-2679,0 Z M0,0" fill="rgb(255,255,255)" transform="matrix(1,0,0,-1,0,1743)"/>
 <path d="M302,81 c108,0,188,37,243,91 c41,-39,97,-60,159,-60 c61,0,109,20,135,47 l4,0 l0,-159 l141,0 l0,562 l105,0 l0,109 l-1119,0 l0,-109 l597,0 c19,-24,29,-63,29,-83 c0,-63,-56,-90,-133,-105 c1,-35,7,-67,16,-95 c-22,-31,-68,-79,-149,-79 c-64,0,-97,33,-97,77 c0,54,37,86,107,86 l60,0 l0,119 l-391,0 l0,-120 l128,0 l0,-4 c-23,-19,-47,-48,-47,-108 c0,-87,70,-169,212,-169 Z M614,326 c65,12,122,62,122,134 c0,31,-10,70,-43,98 l0,4 l150,0 l0,-217 c0,-68,-40,-115,-118,-115 c-65,0,-103,39,-111,96 Z M614,326" fill="rgb(0,0,0)" transform="matrix(1,0,0,-1,571,1243)"/>
</svg>