<?xml version="1.0" encoding="UTF-8"?>
<svg height="1743" version="1.1" width="2679" xmlns="http://www.w3.org/2000/svg" xmlns:xlink="http://www.w3.org/1999/xlink">
 <path d="M0,0 l2679,0 l0,1743 l-2679,0 Z M0,0" fill="rgb(255,255,255)" transform="matrix(1,0,0,-1,0,1743)"/>
 <path d="M425,-157 l153,32 l-152,157 c157,46,239,184,239,306 c0,10,-1,20,-2,29 c56,13,118,23,177,23 c29,0,43,-14,43,-34 c0,-19,-6,-45,-83,-84 l-79,-40 c24,-124,107,-192,232,-192 c58,0,113,24,140,53 l4,0 l0,-93 l141,0 l0,562 l105,0 l0,109 l-1373,0 l0,-109 l115,0 l0,-4 c-18,-17,-35,-44,-35,-86 c0,-60,36,-110,103,-121 l0,-4 c-41,-15,-85,-54,-85,-135 c0,-88,62,-168,181,-189 l-145,-142 l154,-38 l87,117 Z M504,321 c-27,9,-44,25,-44,50 c0,21,15,35,33,35 c25,0,48,-18,48,-66 c0,-112,-98,-206,-214,-206 c-81,0,-115,37,-115,84 c0,39,20,70,79,74 l16,1 l0,114 l-33,0 c-52,0,-78,32,-78,74 c0,43,26,81,86,81 l815,0 l0,-286 c0,-71,-43,-128,-126,-128 c-53,0,-83,26,-91,55 c82,36,122,94,122,151 c0,97,-77,146,-182,146 c-66,0,-138,-16,-201,-33 c-31,32,-75,49,-127,49 c-97,0,-162,-65,-162,-143 c0,-75,51,-116,90,-130 Z M504,321" fill="rgb(0,0,0)" transform="matrix(1,0,0,-1,571,1243)"/>
</svg>