<?xml version="1.0" encoding="UTF-8"?>
<svg height="1743" version="1.1" width="2679" xmlns="http://www.w3.org/2000/svg" xmlns:xlink="http://www.w3.org/1999/xlink">
 <path d="M0,0 l2679,0 l0,1743 l-2679,0 Z M0,0" fill="rgb(255,255,255)" transform="matrix(1,0,0,-1,0,1743)"/>
 <path d="M1544,562 l105,0 l0,109 l-1679,0 l0,-109 l1433,0 l0,-235 c0,-63,-34,-117,-102,-117 c-49,0,-83,29,-83,79 c0,71,67,94,120,76 l-10,122 c-59,10,-115,1,-159,-24 l-328,0 l-54,-99 l0,-10 c51,-20,78,-58,78,-96 c0,-40,-25,-60,-58,-60 c-90,0,-135,137,-143,264 l0,1 l-346,0 l-54,-99 l0,-10 c51,-20,78,-58,78,-96 c0,-40,-25,-60,-58,-60 c-92,0,-136,142,-143,271 l-126,-64 c14,-120,89,-327,280,-327 c109,0,181,67,181,165 c0,45,-17,84,-47,106 l0,4 l118,0 c27,-120,105,-275,271,-275 c109,0,181,67,181,165 c0,45,-17,84,-47,106 l0,4 l130,0 c-6,-19,-9,-41,-9,-64 c0,-119,89,-198,203,-198 c63,0,103,23,123,42 l4,0 l0,-133 l141,0 Z M1544,562" fill="rgb(0,0,0)" transform="matrix(1,0,0,-1,571,1243)"/>
</svg>