<?xml version="1.0" encoding="UTF-8"?>
<svg height="1743" version="1.1" width="2679" xmlns="http://www.w3.org/2000/svg" xmlns:xlink="http://www.w3.org/1999/xlink">
 <path d="M0,0 l2679,0 l0,1743 l-2679,0 Z M0,0" fill="rgb(255,255,255)" transform="matrix(1,0,0,-1,0,1743)"/>
 <path d="M738,223 l0,95 l150,0 l0,-318 l141,0 l0,562 l105,0 l0,109 l-1164,0 l0,-109 l347,0 l0,-56 l-120,0 c-89,0,-135,-41,-135,-108 c0,-81,57,-169,169,-206 l133,34 c7,-4,16,-18,16,-35 c0,-54,-59,-76,-117,-76 l-14,0 l-157,96 c-33,-15,-54,-44,-54,-84 c0,-54,45,-118,169,-118 l178,-156 l145,77 l-169,100 l0,4 c83,16,141,71,147,147 c16,-3,34,-4,51,-4 c82,0,150,27,179,46 Z M512,282 c-7,0,-16,0,-25,1 c-18,34,-46,57,-80,67 l-163,-39 c-27,8,-40,33,-40,48 c0,21,3,37,61,37 l190,0 l0,166 l433,0 l0,-123 l-231,0 l-87,-63 c0,-35,3,-63,11,-86 c-23,-6,-46,-8,-69,-8 Z M512,282" fill="rgb(0,0,0)" transform="matrix(1,0,0,-1,571,1243)"/>
</svg>