<?xml version="1.0" encoding="UTF-8"?>
<svg height="1743" version="1.1" width="2679" xmlns="http://www.w3.org/2000/svg" xmlns:xlink="http://www.w3.org/1999/xlink">
 <path d="M0,0 l2679,0 l0,1743 l-2679,0 Z M0,0" fill="rgb(255,255,255)" transform="matrix(1,0,0,-1,0,1743)"/>
 <path d="M186,354 c14,9,39,20,66,20 c45,0,82,-27,82,-82 c0,-56,-44,-91,-97,-91 c-68,0,-120,40,-159,108 l-85,-109 c43,-64,133,-127,248,-127 c117,0,209,69,227,178 c14,-2,31,-3,49,-3 c17,0,34,1,51,4 c42,-91,116,-174,237,-174 c109,0,181,67,181,165 c0,45,-17,84,-47,106 l0,4 l123,0 l0,-353 l142,0 l0,562 l105,0 l0,109 l-1339,0 l0,-109 l1092,0 l0,-99 l-234,0 l-54,-99 l0,-10 c51,-20,78,-58,78,-96 c0,-40,-25,-60,-58,-60 c-92,0,-136,142,-143,271 l-126,-64 c1,-11,3,-24,6,-36 c-7,-1,-13,-1,-19,-1 c-18,0,-36,1,-53,2 c-29,88,-109,133,-208,133 c-39,0,-83,-11,-119,-29 Z M186,354" fill="rgb(0,0,0)" transform="matrix(1,0,0,-1,571,1243)"/>
</svg>