<?xml version="1.0" encoding="UTF-8"?>
<svg height="1743" version="1.1" width="2679" xmlns="http://www.w3.org/2000/svg" xmlns:xlink="http://www.w3.org/1999/xlink">
 <path d="M0,0 l2679,0 l0,1743 l-2679,0 Z M0,0" fill="rgb(255,255,255)" transform="matrix(1,0,0,-1,0,1743)"/>
 <path d="M1215,0 l0,562 l105,0 l0,109 l-1350,0 l0,-109 l1104,0 l0,-193 c-12,-1,-24,-1,-37,-1 c-16,0,-32,1,-49,2 c-32,91,-119,135,-209,133 c-39,-1,-79,-10,-116,-29 l54,-122 c21,19,58,27,89,19 c32,-8,58,-32,58,-79 c0,-62,-45,-91,-95,-91 c-68,0,-134,55,-171,177 c-21,-5,-58,-10,-86,-10 c-18,0,-36,1,-53,2 c-29,88,-109,133,-208,133 c-39,0,-83,-11,-119,-29 l54,-120 c14,9,39,20,66,20 c45,0,82,-27,82,-82 c0,-56,-44,-91,-97,-91 c-68,0,-120,40,-159,108 l-85,-109 c43,-64,133,-127,248,-127 c117,0,209,69,227,178 c12,-2,27,-3,43,-3 c48,-110,141,-175,260,-175 c113,0,209,67,227,178 c11,-1,23,-3,35,-3 c13,-1,27,-1,41,-1 l0,-247 Z M1215,0" fill="rgb(0,0,0)" transform="matrix(1,0,0,-1,571,1243)"/>
</svg>