<?xml version="1.0" encoding="UTF-8"?>
<svg height="1743" version="1.1" width="2679" xmlns="http://www.w3.org/2000/svg" xmlns:xlink="http://www.w3.org/1999/xlink">
 <path d="M0,0 l2679,0 l0,1743 l-2679,0 Z M0,0" fill="rgb(255,255,255)" transform="matrix(1,0,0,-1,0,1743)"/>
 <path d="M571,254 l-60,100 c-38,-32,-120,-74,-200,-74 c-95,0,-130,41,-130,73 c0,36,23,58,86,66 l207,27 l0,116 l165,0 l0,109 l-669,0 l0,-109 l371,0 l0,-27 l-134,-17 c-107,-14,-164,-71,-164,-157 c0,-103,92,-196,270,-196 c3,0,7,0,10,0 l0,-25 l-120,-18 c-97,-15,-162,-73,-162,-160 c0,-113,105,-196,277,-196 c177,0,282,85,282,200 c0,88,-54,142,-147,170 l0,52 c43,14,86,36,118,66 Z M303,-117 c-106,0,-126,52,-126,74 c0,27,13,52,86,63 l146,21 c32,-12,61,-36,61,-69 c0,-44,-52,-89,-167,-89 Z M303,-117" fill="rgb(0,0,0)" transform="matrix(1,0,0,-1,571,1243)"/>
</svg>