<?xml version="1.0" encoding="UTF-8"?>
<svg height="1743" version="1.1" width="2679" xmlns="http://www.w3.org/2000/svg" xmlns:xlink="http://www.w3.org/1999/xlink">
 <path d="M0,0 l2679,0 l0,1743 l-2679,0 Z M0,0" fill="rgb(255,255,255)" transform="matrix(1,0,0,-1,0,1743)"/>
 <path d="M1008,0 l0,562 l105,0 l0,109 l-1143,0 l0,-109 l324,0 l0,-98 l-76,-21 c-126,-35,-181,-78,-181,-183 c0,-131,109,-235,271,-235 c62,0,126,13,185,54 l-64,114 c-48,-30,-88,-47,-138,-47 c-86,0,-119,42,-119,87 c0,50,15,70,121,97 l145,37 c112,26,145,29,172,29 c29,0,43,-14,43,-34 c0,-19,-8,-43,-83,-84 l-79,-39 c27,-121,116,-199,232,-199 c58,0,113,24,140,53 l4,0 l0,-93 Z M741,148 c-53,0,-83,32,-91,61 c82,36,122,94,122,151 c0,97,-77,146,-182,146 c-52,0,-112,-13,-152,-26 l0,82 l429,0 l0,-286 c0,-71,-43,-128,-126,-128 Z M741,148" fill="rgb(0,0,0)" transform="matrix(1,0,0,-1,571,1243)"/>
</svg>