<?xml version="1.0" encoding="UTF-8"?>
<svg height="1743" version="1.1" width="2679" xmlns="http://www.w3.org/2000/svg" xmlns:xlink="http://www.w3.org/1999/xlink">
 <path d="M0,0 l2679,0 l0,1743 l-2679,0 Z M0,0" fill="rgb(255,255,255)" transform="matrix(1,0,0,-1,0,1743)"/>
 <path d="M546,252 c0,61,-37,111,-92,128 l-194,-30 c-22,6,-33,26,-33,39 c0,19,13,30,42,30 l222,0 l0,143 l129,0 l0,109 l-650,0 l0,-109 l387,0 l0,-47 l-146,0 c-82,0,-122,-44,-122,-99 c0,-63,47,-139,162,-172 l149,29 c11,-6,17,-19,17,-34 c0,-30,-35,-58,-108,-58 c-119,0,-168,50,-212,107 l-74,-85 c26,-38,69,-71,111,-91 c-51,-30,-74,-81,-74,-137 c0,-128,118,-219,277,-219 c128,0,208,78,208,166 c0,72,-59,132,-147,132 c-91,0,-131,-58,-142,-88 l86,-53 c7,21,21,38,46,38 c21,0,33,-16,33,-34 c0,-27,-24,-55,-80,-55 c-98,0,-151,54,-151,110 c0,64,53,94,127,102 c114,13,227,47,229,178 Z M546,252" fill="rgb(0,0,0)" transform="matrix(1,0,0,-1,571,1243)"/>
</svg>