<?xml version="1.0" encoding="UTF-8"?>
<svg height="1743" version="1.1" width="2679" xmlns="http://www.w3.org/2000/svg" xmlns:xlink="http://www.w3.org/1999/xlink">
 <path d="M0,0 l2679,0 l0,1743 l-2679,0 Z M0,0" fill="rgb(255,255,255)" transform="matrix(1,0,0,-1,0,1743)"/>
 <path d="M492,-224 l0,374 c31,25,50,62,50,110 c0,67,-58,124,-144,124 c-70,0,-113,-28,-135,-55 c-6,-7,-10,-14,-13,-20 l81,-63 c2,5,5,10,8,15 c10,13,25,23,43,23 c21,0,35,-13,35,-31 c0,-27,-24,-48,-71,-48 c-103,0,-152,61,-152,107 c0,45,24,75,121,96 l170,36 l0,118 l123,0 l0,109 l-638,0 l0,-109 l370,0 l0,-31 l-103,-24 c-126,-30,-185,-89,-185,-180 c0,-70,37,-126,90,-163 c-44,-23,-84,-67,-84,-137 c0,-109,85,-180,190,-180 c58,0,92,19,110,37 l4,0 l0,-108 Z M191,29 c0,46,30,83,99,83 c20,0,48,1,74,1 l0,-57 c0,-55,-28,-99,-91,-99 c-45,0,-82,25,-82,72 Z M191,29" fill="rgb(0,0,0)" transform="matrix(1,0,0,-1,571,1243)"/>
</svg>