<?xml version="1.0" encoding="UTF-8"?>
<svg height="1743" version="1.1" width="2679" xmlns="http://www.w3.org/2000/svg" xmlns:xlink="http://www.w3.org/1999/xlink">
 <path d="M0,0 l2679,0 l0,1743 l-2679,0 Z M0,0" fill="rgb(255,255,255)" transform="matrix(1,0,0,-1,0,1743)"/>
 <path d="M256,146 c123,0,195,68,195,199 l0,217 l374,0 l0,-230 c0,-49,-21,-67,-58,-67 c-35,0,-59,17,-59,66 l0,231 l-140,0 l0,-221 c0,-130,71,-195,196,-195 c123,0,200,67,200,198 l0,218 l117,0 l0,-562 l141,0 l0,562 l104,0 l0,109 l-1356,0 l0,-109 l95,0 l0,-220 c0,-130,66,-196,191,-196 Z M205,562 l107,0 l0,-228 c0,-49,-16,-69,-53,-69 c-35,0,-54,19,-54,68 Z M205,562" fill="rgb(0,0,0)" transform="matrix(1,0,0,-1,571,1243)"/>
</svg>