<?xml version="1.0" encoding="UTF-8"?>
<svg height="1743" version="1.1" width="2679" xmlns="http://www.w3.org/2000/svg" xmlns:xlink="http://www.w3.org/1999/xlink">
 <path d="M0,0 l2679,0 l0,1743 l-2679,0 Z M0,0" fill="rgb(255,255,255)" transform="matrix(1,0,0,-1,0,1743)"/>
 <path d="M249,473 c-97,0,-206,-55,-206,-202 c0,-132,83,-233,158,-284 l101,88 c-71,50,-115,115,-115,191 c0,61,40,86,87,86 l94,0 c57,-201,171,-267,246,-286 l0,-4 l-202,-52 l98,-105 l290,104 c64,23,127,50,171,82 l4,0 l0,-91 l128,0 l0,562 l105,0 l0,109 l-1238,0 l0,-109 l585,0 l0,-130 c0,-30,-18,-42,-36,-42 c-21,0,-35,13,-46,40 c-4,16,-8,31,-10,43 Z M975,492 c-22,14,-51,21,-87,21 c-94,0,-172,-71,-172,-165 c0,-93,69,-141,136,-148 l67,74 c-40,3,-79,23,-79,71 c0,37,29,62,68,62 c46,0,78,-35,78,-87 c0,-100,-86,-183,-230,-183 c-108,0,-199,69,-223,159 c9,-2,21,-3,29,-3 c79,0,126,44,126,140 l0,129 l287,0 Z M975,492" fill="rgb(0,0,0)" transform="matrix(1,0,0,-1,571,1243)"/>
</svg>