<?xml version="1.0" encoding="UTF-8"?>
<svg height="1743" version="1.1" width="2679" xmlns="http://www.w3.org/2000/svg" xmlns:xlink="http://www.w3.org/1999/xlink">
 <path d="M0,0 l2679,0 l0,1743 l-2679,0 Z M0,0" fill="rgb(255,255,255)" transform="matrix(1,0,0,-1,0,1743)"/>
 <path d="M113,346 c-20,-20,-38,-51,-38,-105 c0,-105,77,-201,155,-254 l101,87 c-71,50,-116,107,-116,182 c0,63,40,96,94,96 l105,0 l0,-352 l141,0 l0,562 l104,0 l0,109 l-689,0 l0,-109 l444,0 l0,-89 l-395,0 l0,-123 l94,0 Z M113,346" fill="rgb(0,0,0)" transform="matrix(1,0,0,-1,571,1243)"/>
</svg>