<?xml version="1.0" encoding="UTF-8"?>
<svg height="1743" version="1.1" width="2679" xmlns="http://www.w3.org/2000/svg" xmlns:xlink="http://www.w3.org/1999/xlink">
 <path d="M0,0 l2679,0 l0,1743 l-2679,0 Z M0,0" fill="rgb(255,255,255)" transform="matrix(1,0,0,-1,0,1743)"/>
 <path d="M836,562 c19,-24,29,-63,29,-83 c0,-63,-56,-90,-133,-105 l0,-2 l-141,0 l0,190 Z M1112,159 l0,-159 l141,0 l0,562 l105,0 l0,109 l-1388,0 l0,-109 l483,0 l0,-89 l-204,0 c-97,0,-206,-55,-206,-202 c0,-132,83,-233,158,-284 l101,88 c-71,50,-115,115,-115,191 c0,61,40,86,87,86 l163,0 l-40,-31 c0,-48,26,-130,83,-172 l106,0 l0,100 l173,0 c40,-88,119,-137,214,-137 c61,0,109,20,135,47 Z M883,326 c65,12,122,62,122,134 c0,31,-10,70,-43,98 l0,4 l150,0 l0,-217 c0,-68,-40,-115,-118,-115 c-65,0,-103,39,-111,96 Z M883,326" fill="rgb(0,0,0)" transform="matrix(1,0,0,-1,571,1243)"/>
</svg>