<?xml version="1.0" encoding="UTF-8"?>
<svg height="1743" version="1.1" width="2679" xmlns="http://www.w3.org/2000/svg" xmlns:xlink="http://www.w3.org/1999/xlink">
 <path d="M0,0 l2679,0 l0,1743 l-2679,0 Z M0,0" fill="rgb(255,255,255)" transform="matrix(1,0,0,-1,0,1743)"/>
 <path d="M666,159 l0,-159 l141,0 l0,562 l105,0 l0,109 l-942,0 l0,-109 l420,0 c19,-24,29,-63,29,-83 c0,-35,-18,-59,-47,-76 c-51,66,-120,99,-198,99 c-73,0,-137,-24,-194,-67 l89,-119 c42,39,80,53,118,53 c48,0,81,-21,107,-60 c0,-1,0,-2,1,-4 l-259,-172 l98,-104 l215,163 c43,-52,106,-80,178,-80 c61,0,109,20,135,47 Z M437,326 c65,12,122,62,122,134 c0,31,-10,70,-43,98 l0,4 l150,0 l0,-217 c0,-68,-40,-115,-118,-115 c-65,0,-103,39,-111,96 Z M437,326" fill="rgb(0,0,0)" transform="matrix(1,0,0,-1,571,1243)"/>
</svg>