<?xml version="1.0" encoding="UTF-8"?>
<svg height="1743" version="1.1" width="2679" xmlns="http://www.w3.org/2000/svg" xmlns:xlink="http://www.w3.org/1999/xlink">
 <path d="M0,0 l2679,0 l0,1743 l-2679,0 Z M0,0" fill="rgb(255,255,255)" transform="matrix(1,0,0,-1,0,1743)"/>
 <path d="M768,367 c-24,0,-43,2,-59,6 c1,10,2,21,2,32 l0,157 l226,0 c19,-24,29,-63,29,-83 c0,-63,-56,-90,-133,-105 c-21,-4,-43,-7,-65,-7 Z M574,257 c10,1,20,3,30,5 c18,4,35,11,50,21 c34,-25,76,-39,133,-39 c24,0,48,3,72,9 c39,-91,118,-141,215,-141 c61,0,109,20,135,47 l4,0 l0,-159 l141,0 l0,562 l105,0 l0,109 l-1489,0 l0,-109 l601,0 l0,-154 c0,-36,-18,-49,-41,-49 c-27,0,-46,21,-76,56 l-47,58 l-158,0 c-97,0,-206,-55,-206,-202 c0,-132,83,-233,158,-284 l101,88 c-71,50,-115,115,-115,191 c0,61,40,86,87,86 l57,0 l46,-57 l255,-314 l115,72 l-92,110 c-40,48,-60,69,-81,90 Z M984,326 c65,12,122,62,122,134 c0,31,-10,70,-43,98 l0,4 l150,0 l0,-217 c0,-68,-40,-115,-118,-115 c-65,0,-103,39,-111,96 Z M984,326" fill="rgb(0,0,0)" transform="matrix(1,0,0,-1,571,1243)"/>
</svg>