<?xml version="1.0" encoding="UTF-8"?>
<svg height="1743" version="1.1" width="2679" xmlns="http://www.w3.org/2000/svg" xmlns:xlink="http://www.w3.org/1999/xlink">
 <path d="M0,0 l2679,0 l0,1743 l-2679,0 Z M0,0" fill="rgb(255,255,255)" transform="matrix(1,0,0,-1,0,1743)"/>
 <path d="M190,65 l-43,-23 l-60,-41 l-20,-79 c31,-58,102,-83,162,-80 l35,54 l-37,56 l145,102 l66,-132 l158,39 l-128,151 c26,26,42,52,42,92 c0,61,-39,90,-79,110 l-89,-33 l0,-96 c-14,-13,-33,-20,-53,-22 c-53,-5,-115,28,-115,90 c0,58,35,90,141,117 l135,34 l0,158 l151,0 l0,109 l-631,0 l0,-109 l336,0 l0,-61 l-86,-21 c-127,-31,-181,-95,-181,-200 c0,-116,76,-188,151,-211 Z M190,65" fill="rgb(0,0,0)" transform="matrix(1,0,0,-1,571,1243)"/>
</svg>