<?xml version="1.0" encoding="UTF-8"?>
<svg height="1743" version="1.1" width="2679" xmlns="http://www.w3.org/2000/svg" xmlns:xlink="http://www.w3.org/1999/xlink">
 <path d="M0,0 l2679,0 l0,1743 l-2679,0 Z M0,0" fill="rgb(255,255,255)" transform="matrix(1,0,0,-1,0,1743)"/>
 <path d="M390,67 c-7,-23,-26,-46,-50,-64 l-58,97 c6,1,13,1,20,1 c31,0,60,-6,74,-7 Z M253,-28 c-48,0,-67,29,-67,58 c0,20,12,41,38,55 l65,-107 c-12,-4,-24,-6,-36,-6 Z M144,-90 l-106,-48 l116,-79 l290,190 l34,-57 l148,52 l-154,178 c26,26,42,52,42,92 c0,61,-39,90,-79,110 l-89,-33 l0,-96 c-17,-13,-45,-20,-71,-20 c-49,0,-97,29,-97,84 c0,58,35,80,141,107 l135,34 l0,138 l159,0 l0,109 l-643,0 l0,-109 l340,0 l0,-41 l-86,-21 c-127,-31,-181,-85,-181,-190 c0,-83,29,-137,81,-168 l0,-4 c-28,-16,-64,-50,-64,-111 c0,-60,40,-98,84,-113 Z M144,-90" fill="rgb(0,0,0)" transform="matrix(1,0,0,-1,571,1243)"/>
</svg>