<?xml version="1.0" encoding="UTF-8"?>
<svg height="1743" version="1.1" width="2679" xmlns="http://www.w3.org/2000/svg" xmlns:xlink="http://www.w3.org/1999/xlink">
 <path d="M0,0 l2679,0 l0,1743 l-2679,0 Z M0,0" fill="rgb(255,255,255)" transform="matrix(1,0,0,-1,0,1743)"/>
 <path d="M-30,671 l0,-109 l554,0 l0,-42 l-84,-23 c-126,-35,-183,-87,-183,-192 c0,-93,44,-160,107,-199 l-88,-45 l-39,74 c-34,65,-81,81,-123,81 c-53,0,-100,-18,-145,-60 l58,-91 c26,26,49,32,61,32 c16,0,27,-7,38,-27 l37,-70 l-39,-76 c20,-40,66,-88,134,-97 l105,55 l-39,76 l216,110 c13,1,26,3,39,6 c31,-55,82,-105,177,-105 c58,0,96,22,123,46 l4,0 l0,-86 l141,0 l0,633 l102,0 l0,109 Z M778,79 c-56,0,-85,41,-91,65 c26,26,41,52,41,92 c0,61,-39,90,-79,110 l-89,-33 l0,-96 c-17,-15,-39,-22,-63,-22 c-52,0,-105,25,-105,83 c0,58,27,80,132,107 l144,37 l0,140 l215,0 l0,-370 c0,-69,-33,-113,-105,-113 Z M778,79" fill="rgb(0,0,0)" transform="matrix(1,0,0,-1,571,1243)"/>
</svg>