<?xml version="1.0" encoding="UTF-8"?>
<svg height="1743" version="1.1" width="2679" xmlns="http://www.w3.org/2000/svg" xmlns:xlink="http://www.w3.org/1999/xlink">
 <path d="M0,0 l2679,0 l0,1743 l-2679,0 Z M0,0" fill="rgb(255,255,255)" transform="matrix(1,0,0,-1,0,1743)"/>
 <path d="M400,317 l-101,44 c-37,-38,-69,-46,-102,-46 c-45,0,-64,21,-64,48 c0,26,15,47,61,47 l207,0 l0,152 l133,0 l0,-347 l-134,0 Z M285,247 l0,-35 l-68,-54 c0,-43,29,-103,70,-129 l109,0 l0,72 l138,0 l0,-101 l140,0 l0,562 l105,0 l0,109 l-809,0 l0,-109 l292,0 l0,-53 l-93,0 c-88,0,-165,-51,-165,-145 c0,-94,63,-152,167,-152 c53,0,91,16,110,35 Z M285,247" fill="rgb(0,0,0)" transform="matrix(1,0,0,-1,571,1243)"/>
</svg>