<?xml version="1.0" encoding="UTF-8"?>
<svg height="1743" version="1.1" width="2679" xmlns="http://www.w3.org/2000/svg" xmlns:xlink="http://www.w3.org/1999/xlink">
 <path d="M0,0 l2679,0 l0,1743 l-2679,0 Z M0,0" fill="rgb(255,255,255)" transform="matrix(1,0,0,-1,0,1743)"/>
 <path d="M113,305 c-37,-20,-61,-56,-61,-103 c0,-86,70,-162,215,-162 c79,0,150,25,192,71 l4,0 l0,-111 l140,0 l0,562 l106,0 l0,109 l-739,0 l0,-109 l248,0 l0,-47 l-49,0 c-68,0,-123,-36,-123,-103 c0,-45,27,-84,67,-103 Z M281,152 c-75,0,-87,32,-87,51 c0,25,15,39,51,39 l90,0 l0,103 l-70,0 c-15,0,-30,-1,-44,-2 c-23,11,-34,30,-34,46 c0,16,11,29,34,29 l132,0 l0,144 l110,0 l0,-241 c0,-105,-73,-169,-182,-169 Z M281,152" fill="rgb(0,0,0)" transform="matrix(1,0,0,-1,571,1243)"/>
</svg>