<?xml version="1.0" encoding="UTF-8"?>
<svg height="1743" version="1.1" width="2679" xmlns="http://www.w3.org/2000/svg" xmlns:xlink="http://www.w3.org/1999/xlink">
 <path d="M0,0 l2679,0 l0,1743 l-2679,0 Z M0,0" fill="rgb(255,255,255)" transform="matrix(1,0,0,-1,0,1743)"/>
 <path d="M372,96 c-11,-83,-60,-120,-117,-120 c-47,0,-65,25,-65,54 c0,41,33,69,112,69 c11,0,44,-1,70,-3 Z M443,-25 l35,-59 l148,52 l-154,178 c26,26,42,52,42,92 c0,61,-39,90,-79,110 l-89,-33 l0,-96 c-17,-13,-45,-20,-71,-20 c-49,0,-97,29,-97,84 c0,58,35,80,141,107 l135,34 l0,138 l153,0 l0,109 l-637,0 l0,-109 l340,0 l0,-41 l-86,-21 c-127,-31,-181,-85,-181,-190 c0,-83,29,-137,81,-168 l0,-4 c-28,-16,-64,-51,-64,-112 c0,-88,69,-154,180,-154 c101,0,170,53,199,103 Z M443,-25" fill="rgb(0,0,0)" transform="matrix(1,0,0,-1,571,1243)"/>
</svg>