<?xml version="1.0" encoding="UTF-8"?>
<svg height="1743" version="1.1" width="2679" xmlns="http://www.w3.org/2000/svg" xmlns:xlink="http://www.w3.org/1999/xlink">
 <path d="M0,0 l2679,0 l0,1743 l-2679,0 Z M0,0" fill="rgb(255,255,255)" transform="matrix(1,0,0,-1,0,1743)"/>
 <path d="M370,671 l0,-109 l348,0 l0,-133 l-230,0 l-97,-69 c0,-42,8,-77,21,-105 c-33,-26,-73,-44,-128,-44 c-69,0,-89,32,-89,62 c0,38,27,62,86,62 l63,0 l0,108 l-75,0 c-51,0,-78,23,-78,57 c0,37,35,61,54,69 l-19,102 l-256,0 l0,-109 l110,0 l0,-4 c-19,-13,-34,-36,-34,-68 c0,-60,45,-94,105,-99 l0,-4 c-45,-10,-100,-46,-100,-126 c0,-93,79,-160,204,-160 c117,0,208,33,313,124 l1,83 l149,0 l0,-308 l141,0 l0,562 l105,0 l0,109 Z M370,671" fill="rgb(0,0,0)" transform="matrix(1,0,0,-1,571,1243)"/>
</svg>