<?xml version="1.0" encoding="UTF-8"?>
<svg height="1743" version="1.1" width="2679" xmlns="http://www.w3.org/2000/svg" xmlns:xlink="http://www.w3.org/1999/xlink">
 <path d="M0,0 l2679,0 l0,1743 l-2679,0 Z M0,0" fill="rgb(255,255,255)" transform="matrix(1,0,0,-1,0,1743)"/>
 <path d="M1041,159 l4,0 l0,-159 l141,0 l0,562 l105,0 l0,109 l-1321,0 l0,-109 l799,0 c19,-24,29,-63,29,-83 c0,-32,-15,-55,-39,-72 c-43,51,-113,66,-177,66 l-36,0 c-48,0,-98,-13,-137,-44 l-302,0 l-97,-69 c0,-108,52,-167,112,-194 l66,32 l0,110 l155,0 c-2,-12,-3,-24,-3,-37 c0,-132,83,-233,158,-284 l101,88 c-71,50,-115,115,-115,191 c0,61,40,86,87,86 l6,0 c50,0,75,-14,93,-30 c24,-133,117,-210,236,-210 c61,0,109,20,135,47 Z M816,326 c65,12,122,62,122,134 c0,31,-10,70,-43,98 l0,4 l150,0 l0,-217 c0,-68,-40,-115,-118,-115 c-65,0,-103,39,-111,96 Z M816,326" fill="rgb(0,0,0)" transform="matrix(1,0,0,-1,571,1243)"/>
</svg>