<?xml version="1.0" encoding="UTF-8"?>
<svg height="1743" version="1.1" width="2679" xmlns="http://www.w3.org/2000/svg" xmlns:xlink="http://www.w3.org/1999/xlink">
 <path d="M0,0 l2679,0 l0,1743 l-2679,0 Z M0,0" fill="rgb(255,255,255)" transform="matrix(1,0,0,-1,0,1743)"/>
 <path d="M107,429 l-97,-69 c0,-108,52,-167,112,-194 l66,32 l0,110 l176,0 c22,33,60,61,111,61 c45,0,78,-21,98,-63 l-260,-173 l98,-104 l241,181 l4,0 l0,-210 l142,0 l0,562 l105,0 l0,109 l-933,0 l0,-109 l686,0 l0,-177 l-4,0 c-27,62,-85,117,-186,117 c-76,0,-127,-30,-172,-73 Z M107,429" fill="rgb(0,0,0)" transform="matrix(1,0,0,-1,571,1243)"/>
</svg>