<?xml version="1.0" encoding="UTF-8"?>
<svg height="1743" version="1.1" width="2679" xmlns="http://www.w3.org/2000/svg" xmlns:xlink="http://www.w3.org/1999/xlink">
 <path d="M0,0 l2679,0 l0,1743 l-2679,0 Z M0,0" fill="rgb(255,255,255)" transform="matrix(1,0,0,-1,0,1743)"/>
 <path d="M320,671 l-350,0 l0,-109 l350,0 Z M494,299 c20,3,40,7,58,12 c108,27,183,88,183,200 c0,99,-65,170,-179,170 c-108,0,-178,-69,-178,-154 c0,-36,11,-69,33,-92 l119,34 c-14,19,-17,35,-17,52 c0,28,18,45,43,45 c29,0,43,-19,43,-53 c0,-47,-33,-87,-135,-114 l-43,-11 c-44,19,-96,30,-159,30 l-155,0 l-97,-69 c0,-108,52,-167,112,-194 l66,32 l0,110 l81,0 c25,0,49,-4,71,-10 c31,-131,131,-209,267,-209 c107,0,163,48,185,74 l4,0 l0,-152 l137,0 l0,562 l105,0 l0,109 l-245,0 l0,-299 c0,-88,-50,-173,-168,-173 c-94,0,-125,66,-131,100 Z M494,299" fill="rgb(0,0,0)" transform="matrix(1,0,0,-1,571,1243)"/>
</svg>