<?xml version="1.0" encoding="UTF-8"?>
<svg height="1743" version="1.1" width="2679" xmlns="http://www.w3.org/2000/svg" xmlns:xlink="http://www.w3.org/1999/xlink">
 <path d="M0,0 l2679,0 l0,1743 l-2679,0 Z M0,0" fill="rgb(255,255,255)" transform="matrix(1,0,0,-1,0,1743)"/>
 <path d="M486,70 l-159,-89 l112,-95 l233,165 l65,-129 l158,39 l-128,151 c26,26,42,52,42,92 c0,61,-39,90,-79,110 l-89,-33 l0,-96 c-17,-15,-39,-22,-63,-22 c-52,0,-105,32,-105,90 c0,58,27,87,132,114 l144,37 l0,158 l148,0 l0,109 l-927,0 l0,-109 l635,0 l0,-60 l-84,-23 c-47,-13,-84,-29,-112,-50 l-302,0 l-97,-69 c0,-108,52,-167,112,-194 l66,32 l0,110 l151,0 c-1,-9,-1,-18,-1,-28 c0,-117,81,-187,148,-206 Z M486,70" fill="rgb(0,0,0)" transform="matrix(1,0,0,-1,571,1243)"/>
</svg>