<?xml version="1.0" encoding="UTF-8"?>
<svg height="1743" version="1.1" width="2679" xmlns="http://www.w3.org/2000/svg" xmlns:xlink="http://www.w3.org/1999/xlink">
 <path d="M0,0 l2679,0 l0,1743 l-2679,0 Z M0,0" fill="rgb(255,255,255)" transform="matrix(1,0,0,-1,0,1743)"/>
 <path d="M1197,0 l0,562 l105,0 l0,109 l-632,0 l0,-109 l386,0 l0,-235 c0,-63,-34,-117,-102,-117 c-49,0,-83,29,-83,79 c0,71,67,94,120,76 l-10,122 c-136,22,-255,-53,-255,-198 c0,-7,0,-15,1,-21 c-34,-33,-80,-57,-143,-57 c-69,0,-89,32,-89,62 c0,38,27,62,86,62 l63,0 l0,108 l-75,0 c-51,0,-78,23,-78,57 c0,37,35,61,54,69 l-19,102 l-556,0 l0,-109 l410,0 l0,-4 c-19,-13,-34,-36,-34,-68 c0,-35,15,-61,40,-78 l-279,0 l-97,-69 c0,-108,52,-167,112,-194 l66,32 l0,110 l166,0 c-2,-9,-3,-19,-3,-30 c0,-93,79,-160,204,-160 c102,0,171,27,217,58 c36,-43,93,-68,157,-68 c63,0,103,23,123,42 l4,0 l0,-133 Z M1197,0" fill="rgb(0,0,0)" transform="matrix(1,0,0,-1,571,1243)"/>
</svg>