<?xml version="1.0" encoding="UTF-8"?>
<svg height="1743" version="1.1" width="2679" xmlns="http://www.w3.org/2000/svg" xmlns:xlink="http://www.w3.org/1999/xlink">
 <path d="M0,0 l2679,0 l0,1743 l-2679,0 Z M0,0" fill="rgb(255,255,255)" transform="matrix(1,0,0,-1,0,1743)"/>
 <path d="M1004,159 l0,-159 l141,0 l0,562 l105,0 l0,109 l-1280,0 l0,-109 l758,0 c19,-24,29,-63,29,-83 c0,-20,-6,-36,-16,-50 l-634,0 l-97,-69 c0,-108,52,-167,112,-194 l66,32 l0,110 l124,0 c13,-76,57,-120,107,-142 l66,32 l0,110 l147,0 c27,-125,118,-196,233,-196 c61,0,109,20,135,47 Z M775,326 c65,12,122,62,122,134 c0,31,-10,70,-43,98 l0,4 l150,0 l0,-217 c0,-68,-40,-115,-118,-115 c-65,0,-103,39,-111,96 Z M775,326" fill="rgb(0,0,0)" transform="matrix(1,0,0,-1,571,1243)"/>
</svg>