<?xml version="1.0" encoding="UTF-8"?>
<svg height="1743" version="1.1" width="2679" xmlns="http://www.w3.org/2000/svg" xmlns:xlink="http://www.w3.org/1999/xlink">
 <path d="M0,0 l2679,0 l0,1743 l-2679,0 Z M0,0" fill="rgb(255,255,255)" transform="matrix(1,0,0,-1,0,1743)"/>
 <path d="M511,212 l-200,-151 l128,-85 l237,220 l4,0 l0,-196 l142,0 l0,562 l105,0 l0,109 l-957,0 l0,-109 l404,0 l0,-133 l-267,0 l-97,-69 c0,-108,52,-167,112,-194 l66,32 l0,110 l194,0 c19,-62,71,-87,129,-92 Z M680,354 c-18,-24,-56,-42,-96,-42 c-47,0,-69,24,-69,76 l0,174 l165,0 Z M680,354" fill="rgb(0,0,0)" transform="matrix(1,0,0,-1,571,1243)"/>
</svg>