<?xml version="1.0" encoding="UTF-8"?>
<svg height="1743" version="1.1" width="2679" xmlns="http://www.w3.org/2000/svg" xmlns:xlink="http://www.w3.org/1999/xlink">
 <path d="M0,0 l2679,0 l0,1743 l-2679,0 Z M0,0" fill="rgb(255,255,255)" transform="matrix(1,0,0,-1,0,1743)"/>
 <path d="M470,191 l-155,-125 l126,-89 l206,221 l4,0 l0,-198 l137,0 l0,268 c0,54,32,106,97,106 c44,0,75,-30,75,-74 c0,-57,-46,-94,-113,-79 l22,-121 c122,-11,230,62,230,202 c0,115,-82,189,-186,189 c-65,0,-102,-26,-121,-45 l-4,0 l0,116 l368,0 l0,109 l-1186,0 l0,-109 l397,0 l0,-133 l-260,0 l-97,-69 c0,-108,52,-167,112,-194 l66,32 l0,110 l182,0 c9,-59,43,-99,100,-113 Z M568,290 c-45,0,-60,25,-60,77 l0,195 l143,0 l0,-234 c-12,-19,-46,-38,-83,-38 Z M568,290" fill="rgb(0,0,0)" transform="matrix(1,0,0,-1,571,1243)"/>
</svg>