<?xml version="1.0" encoding="UTF-8"?>
<svg height="1743" version="1.1" width="2679" xmlns="http://www.w3.org/2000/svg" xmlns:xlink="http://www.w3.org/1999/xlink">
 <path d="M0,0 l2679,0 l0,1743 l-2679,0 Z M0,0" fill="rgb(255,255,255)" transform="matrix(1,0,0,-1,0,1743)"/>
 <path d="M714,0 l138,0 l0,562 l105,0 l0,109 l-316,0 l0,-109 l73,0 l0,-190 l-164,0 l0,136 c0,114,-70,163,-169,163 l-411,0 l0,-109 l379,0 c48,0,63,-19,63,-62 l0,-71 l-305,0 l-97,-69 c0,-108,52,-167,112,-194 l66,32 l0,110 l169,0 c4,-49,30,-121,82,-159 l106,0 l0,100 l169,0 Z M714,0" fill="rgb(0,0,0)" transform="matrix(1,0,0,-1,571,1243)"/>
</svg>