<?xml version="1.0" encoding="UTF-8"?>
<svg height="1743" version="1.1" width="2679" xmlns="http://www.w3.org/2000/svg" xmlns:xlink="http://www.w3.org/1999/xlink">
 <path d="M0,0 l2679,0 l0,1743 l-2679,0 Z M0,0" fill="rgb(255,255,255)" transform="matrix(1,0,0,-1,0,1743)"/>
 <path d="M1165,562 l105,0 l0,109 l-629,0 l0,-109 l383,0 l0,-235 c0,-63,-34,-117,-102,-117 c-49,0,-83,29,-83,79 c0,71,67,94,120,76 l-10,122 c-107,17,-203,-25,-240,-115 l-159,0 l0,136 c0,114,-70,163,-169,163 l-411,0 l0,-109 l379,0 c48,0,63,-19,63,-62 l0,-71 l-305,0 l-97,-69 c0,-108,52,-167,112,-194 l66,32 l0,110 l169,0 c4,-49,30,-121,82,-159 l106,0 l0,100 l153,0 c17,-96,98,-158,199,-158 c63,0,103,23,123,42 l4,0 l0,-133 l141,0 Z M1165,562" fill="rgb(0,0,0)" transform="matrix(1,0,0,-1,571,1243)"/>
</svg>