<?xml version="1.0" encoding="UTF-8"?>
<svg height="1743" version="1.1" width="2679" xmlns="http://www.w3.org/2000/svg" xmlns:xlink="http://www.w3.org/1999/xlink">
 <path d="M0,0 l2679,0 l0,1743 l-2679,0 Z M0,0" fill="rgb(255,255,255)" transform="matrix(1,0,0,-1,0,1743)"/>
 <path d="M604,680 c-108,0,-187,-75,-187,-162 c0,-68,36,-120,103,-138 l83,81 c-31,10,-47,34,-47,60 c0,24,18,48,54,48 c37,0,67,-32,67,-93 c0,-83,-58,-133,-144,-133 c-71,0,-129,35,-172,66 l-254,0 l-97,-69 c0,-108,52,-167,112,-194 l66,32 l0,110 l123,0 l125,-88 l245,-227 l117,81 l-93,84 c-49,44,-98,77,-131,94 l0,4 c118,4,245,80,245,242 c0,102,-66,202,-215,202 Z M-30,671 l0,-109 l357,0 l0,109 Z M900,0 l142,0 l0,562 l105,0 l0,109 l-247,0 Z M900,0" fill="rgb(0,0,0)" transform="matrix(1,0,0,-1,571,1243)"/>
</svg>