<?xml version="1.0" encoding="UTF-8"?>
<svg height="1743" version="1.1" width="2679" xmlns="http://www.w3.org/2000/svg" xmlns:xlink="http://www.w3.org/1999/xlink">
 <path d="M0,0 l2679,0 l0,1743 l-2679,0 Z M0,0" fill="rgb(255,255,255)" transform="matrix(1,0,0,-1,0,1743)"/>
 <path d="M396,429 l-289,0 l-97,-69 c0,-108,52,-167,112,-194 l66,32 l0,110 l129,0 l265,-327 l115,72 l-92,110 c-40,48,-60,69,-81,90 l0,4 c3,0,6,1,9,1 c25,3,48,11,68,23 c34,-25,76,-39,133,-39 c22,0,43,2,64,7 l0,-249 l143,0 l0,562 l105,0 l0,109 l-1076,0 l0,-109 l551,0 l0,-153 c0,-36,-18,-50,-41,-50 c-27,0,-43,14,-71,50 Z M715,365 c-23,0,-42,2,-57,6 c2,11,3,23,3,37 l0,154 l137,0 l0,-182 c-25,-11,-54,-15,-83,-15 Z M715,365" fill="rgb(0,0,0)" transform="matrix(1,0,0,-1,571,1243)"/>
</svg>