<?xml version="1.0" encoding="UTF-8"?>
<svg height="1743" version="1.1" width="2679" xmlns="http://www.w3.org/2000/svg" xmlns:xlink="http://www.w3.org/1999/xlink">
 <path d="M0,0 l2679,0 l0,1743 l-2679,0 Z M0,0" fill="rgb(255,255,255)" transform="matrix(1,0,0,-1,0,1743)"/>
 <path d="M258,170 c74,0,127,21,165,49 c30,-31,73,-49,129,-49 c37,0,91,9,126,47 l4,0 l0,-217 l141,0 l0,562 l105,0 l0,109 l-958,0 l0,-109 l100,0 l0,-207 c0,-101,55,-185,188,-185 Z M278,289 c-45,0,-67,24,-67,76 l0,197 l165,0 l0,-207 c0,-6,0,-11,0,-16 c-26,-30,-60,-50,-98,-50 Z M682,407 c0,-70,-38,-118,-98,-118 c-45,0,-67,24,-67,76 l0,197 l165,0 Z M682,407" fill="rgb(0,0,0)" transform="matrix(1,0,0,-1,571,1243)"/>
</svg>