<?xml version="1.0" encoding="UTF-8"?>
<svg height="1743" version="1.1" width="2679" xmlns="http://www.w3.org/2000/svg" xmlns:xlink="http://www.w3.org/1999/xlink">
 <path d="M0,0 l2679,0 l0,1743 l-2679,0 Z M0,0" fill="rgb(255,255,255)" transform="matrix(1,0,0,-1,0,1743)"/>
 <path d="M278,289 c-45,0,-67,24,-67,76 l0,197 l166,0 l0,-212 c0,-4,0,-7,0,-11 c-26,-30,-60,-50,-99,-50 Z M258,170 c73,0,126,21,164,48 c28,-30,70,-47,129,-47 c54,0,89,18,106,34 l4,0 l0,-205 l137,0 l0,268 c0,54,32,106,97,106 c44,0,75,-30,75,-74 c0,-57,-46,-94,-113,-79 l22,-121 c122,-11,230,62,230,202 c0,115,-82,189,-186,189 c-65,0,-102,-26,-121,-45 l-4,0 l0,116 l369,0 l0,109 l-1197,0 l0,-109 l100,0 l0,-207 c0,-101,55,-185,188,-185 Z M661,370 c0,-39,-21,-78,-83,-78 c-45,0,-60,25,-60,77 l0,193 l143,0 Z M661,370" fill="rgb(0,0,0)" transform="matrix(1,0,0,-1,571,1243)"/>
</svg>