<?xml version="1.0" encoding="UTF-8"?>
<svg height="1743" version="1.1" width="2679" xmlns="http://www.w3.org/2000/svg" xmlns:xlink="http://www.w3.org/1999/xlink">
 <path d="M0,0 l2679,0 l0,1743 l-2679,0 Z M0,0" fill="rgb(255,255,255)" transform="matrix(1,0,0,-1,0,1743)"/>
 <path d="M278,289 c-45,0,-67,24,-67,76 l0,197 l320,0 l0,-153 c0,-36,-18,-50,-41,-50 c-29,0,-45,16,-76,56 l-106,-84 l23,-29 c-16,-8,-34,-13,-53,-13 Z M725,365 c-23,0,-42,2,-57,6 c2,11,3,23,3,37 l0,154 l137,0 l0,-182 c-25,-11,-54,-15,-83,-15 Z M534,257 c3,0,6,1,9,1 c25,3,48,11,68,23 c34,-25,76,-39,133,-39 c22,0,43,2,64,7 l0,-249 l143,0 l0,562 l105,0 l0,109 l-1086,0 l0,-109 l100,0 l0,-207 c0,-101,55,-185,188,-185 c64,0,113,16,150,38 l184,-227 l115,72 l-92,110 c-40,48,-60,69,-81,90 Z M534,257" fill="rgb(0,0,0)" transform="matrix(1,0,0,-1,571,1243)"/>
</svg>