<?xml version="1.0" encoding="UTF-8"?>
<svg height="1743" version="1.1" width="2679" xmlns="http://www.w3.org/2000/svg" xmlns:xlink="http://www.w3.org/1999/xlink">
 <path d="M0,0 l2679,0 l0,1743 l-2679,0 Z M0,0" fill="rgb(255,255,255)" transform="matrix(1,0,0,-1,0,1743)"/>
 <path d="M495,446 l-4,0 l0,116 l392,0 l0,-71 l-76,-21 c-25,-7,-47,-15,-66,-24 c-33,29,-76,45,-125,45 c-65,0,-102,-26,-121,-45 Z M354,370 c0,-39,-21,-78,-83,-78 c-45,0,-60,25,-60,77 l0,193 l143,0 Z M491,268 c0,54,32,106,97,106 c22,0,40,-7,54,-20 c-11,-24,-16,-52,-16,-84 c0,-131,109,-245,271,-245 c77,0,156,21,227,89 l-68,113 c-58,-61,-112,-81,-176,-81 c-86,0,-119,52,-119,97 c0,50,15,87,121,114 l145,37 l0,168 l131,0 l0,109 l-1188,0 l0,-109 l100,0 l0,-212 c0,-104,51,-179,174,-179 c54,0,89,18,106,34 l4,0 l0,-205 l137,0 Z M74,46 c0,-40,33,-73,74,-73 c44,0,77,33,77,73 c0,45,-33,78,-77,78 c-41,0,-74,-33,-74,-78 Z M74,46" fill="rgb(0,0,0)" transform="matrix(1,0,0,-1,571,1243)"/>
</svg>