<?xml version="1.0" encoding="UTF-8"?>
<svg height="1743" version="1.1" width="2679" xmlns="http://www.w3.org/2000/svg" xmlns:xlink="http://www.w3.org/1999/xlink">
 <path d="M0,0 l2679,0 l0,1743 l-2679,0 Z M0,0" fill="rgb(255,255,255)" transform="matrix(1,0,0,-1,0,1743)"/>
 <path d="M491,0 l0,222 c0,60,36,87,76,87 c29,0,46,-14,57,-38 l-7,-9 l85,-62 l245,-227 l117,81 l-93,84 c-49,44,-98,77,-131,94 l0,4 c118,4,245,80,245,242 c0,102,-66,202,-215,202 c-108,0,-187,-75,-187,-162 c0,-68,36,-120,103,-138 l83,81 c-31,10,-47,34,-47,60 c0,24,18,48,54,48 c37,0,67,-32,67,-93 c0,-83,-58,-133,-144,-133 c-25,0,-54,4,-82,14 c-1,1,-1,2,-2,3 c-30,49,-76,69,-122,69 c-39,0,-77,-15,-98,-36 l-4,0 l0,169 l118,0 l0,109 l-639,0 l0,-109 l100,0 l0,-212 c0,-104,51,-179,174,-179 c54,0,89,18,106,34 l4,0 l0,-205 Z M211,369 l0,193 l143,0 l0,-192 c0,-39,-21,-78,-83,-78 c-45,0,-60,25,-60,77 Z M1308,0 l0,562 l105,0 l0,109 l-247,0 l0,-671 Z M1308,0" fill="rgb(0,0,0)" transform="matrix(1,0,0,-1,571,1243)"/>
</svg>