<?xml version="1.0" encoding="UTF-8"?>
<svg height="1743" version="1.1" width="2679" xmlns="http://www.w3.org/2000/svg" xmlns:xlink="http://www.w3.org/1999/xlink">
 <path d="M0,0 l2679,0 l0,1743 l-2679,0 Z M0,0" fill="rgb(255,255,255)" transform="matrix(1,0,0,-1,0,1743)"/>
 <path d="M257,95 c65,0,128,22,177,63 c35,-35,91,-57,162,-57 c87,0,148,32,178,60 l4,0 l0,-161 l140,0 l0,562 l105,0 l0,109 l-312,0 l0,-109 l67,0 l0,-206 c0,-75,-63,-145,-153,-145 c-69,0,-89,32,-89,62 c0,38,27,62,86,62 l63,0 l0,108 l-75,0 c-51,0,-78,23,-78,57 c0,37,35,61,54,69 l-19,102 l-597,0 l0,-109 l451,0 l0,-4 c-19,-13,-34,-36,-34,-68 c0,-60,45,-94,105,-99 l0,-4 c-38,-9,-84,-36,-97,-94 c-5,-8,-12,-17,-20,-27 l-162,121 c12,7,27,10,42,10 c21,0,43,-2,67,-10 l-7,118 c-27,7,-45,9,-77,9 c-102,0,-208,-78,-208,-213 c0,-137,107,-206,227,-206 Z M262,207 c-53,0,-100,39,-100,97 c0,14,3,26,7,37 l158,-117 c-18,-10,-40,-17,-65,-17 Z M262,207" fill="rgb(0,0,0)" transform="matrix(1,0,0,-1,571,1243)"/>
</svg>