<?xml version="1.0" encoding="UTF-8"?>
<svg height="1743" version="1.1" width="2679" xmlns="http://www.w3.org/2000/svg" xmlns:xlink="http://www.w3.org/1999/xlink">
 <path d="M0,0 l2679,0 l0,1743 l-2679,0 Z M0,0" fill="rgb(255,255,255)" transform="matrix(1,0,0,-1,0,1743)"/>
 <path d="M257,95 c56,0,110,16,155,47 c33,-66,89,-123,164,-162 l89,94 c-110,58,-143,135,-143,197 c0,69,33,86,60,86 c33,0,55,-22,55,-69 l0,-102 l128,0 l0,101 c0,49,16,73,53,73 c26,0,42,-19,50,-36 c23,-134,116,-212,236,-212 c61,0,109,20,135,47 l4,0 l0,-159 l141,0 l0,562 l105,0 l0,109 l-1519,0 l0,-109 l997,0 c19,-24,29,-63,29,-83 c0,-34,-16,-57,-43,-74 c-28,47,-74,77,-133,77 c-70,0,-108,-42,-122,-80 l-4,0 c-20,48,-66,74,-127,74 c-91,0,-186,-60,-186,-199 l0,-4 c-2,-2,-4,-5,-6,-7 l-162,121 c12,7,27,10,42,10 c21,0,43,-2,67,-10 l-7,118 c-27,7,-45,9,-77,9 c-102,0,-208,-78,-208,-213 c0,-137,107,-206,227,-206 Z M262,207 c-53,0,-100,39,-100,97 c0,14,3,26,7,37 l158,-117 c-18,-10,-40,-17,-65,-17 Z M1014,326 c65,12,122,62,122,134 c0,31,-10,70,-43,98 l0,4 l150,0 l0,-217 c0,-68,-40,-115,-118,-115 c-65,0,-103,39,-111,96 Z M1014,326" fill="rgb(0,0,0)" transform="matrix(1,0,0,-1,571,1243)"/>
</svg>