<?xml version="1.0" encoding="UTF-8"?>
<svg height="1743" version="1.1" width="2679" xmlns="http://www.w3.org/2000/svg" xmlns:xlink="http://www.w3.org/1999/xlink">
 <path d="M0,0 l2679,0 l0,1743 l-2679,0 Z M0,0" fill="rgb(255,255,255)" transform="matrix(1,0,0,-1,0,1743)"/>
 <path d="M885,458 c-18,18,-49,23,-73,23 c-39,0,-85,-25,-97,-79 l-4,0 c-20,48,-66,74,-127,74 c-67,0,-135,-32,-167,-104 l-164,0 l0,136 c0,114,-70,163,-169,163 l-114,0 l0,-109 l82,0 c48,0,63,-19,63,-62 l0,-135 l-56,-44 c0,-48,26,-130,83,-172 l106,0 l0,100 l151,0 c11,-111,81,-211,194,-269 l89,94 c-110,58,-143,135,-143,197 c0,69,33,88,60,88 c33,0,55,-25,55,-72 l0,-101 l128,0 l0,94 c0,54,18,80,59,80 c17,0,39,-8,48,-14 l0,-346 l142,0 l0,562 l105,0 l0,109 l-792,0 l0,-109 l545,0 l0,-104 Z M885,458" fill="rgb(0,0,0)" transform="matrix(1,0,0,-1,571,1243)"/>
</svg>