<?xml version="1.0" encoding="UTF-8"?>
<svg height="1743" version="1.1" width="2679" xmlns="http://www.w3.org/2000/svg" xmlns:xlink="http://www.w3.org/1999/xlink">
 <path d="M0,0 l2679,0 l0,1743 l-2679,0 Z M0,0" fill="rgb(255,255,255)" transform="matrix(1,0,0,-1,0,1743)"/>
 <path d="M760,0 l138,0 l0,562 l105,0 l0,109 l-316,0 l0,-109 l73,0 l0,-190 l-164,0 l0,136 c0,114,-70,163,-169,163 l-457,0 l0,-109 l145,0 l0,-197 l-56,-44 c0,-48,26,-130,83,-172 l106,0 l0,100 l168,0 c13,-37,36,-75,69,-100 l106,0 l0,100 l169,0 Z M458,500 l0,-128 l-205,0 l0,190 l142,0 c48,0,63,-19,63,-62 Z M458,500" fill="rgb(0,0,0)" transform="matrix(1,0,0,-1,571,1243)"/>
</svg>