<?xml version="1.0" encoding="UTF-8"?>
<svg height="1743" version="1.1" width="2679" xmlns="http://www.w3.org/2000/svg" xmlns:xlink="http://www.w3.org/1999/xlink">
 <path d="M0,0 l2679,0 l0,1743 l-2679,0 Z M0,0" fill="rgb(255,255,255)" transform="matrix(1,0,0,-1,0,1743)"/>
 <path d="M1108,159 l0,-159 l141,0 l0,562 l105,0 l0,109 l-667,0 l0,-109 l145,0 c19,-24,29,-63,29,-83 c0,-62,-53,-92,-127,-107 l-138,0 l0,136 c0,114,-70,163,-169,163 l-457,0 l0,-109 l145,0 l0,-197 l-56,-44 c0,-48,26,-130,83,-172 l106,0 l0,100 l168,0 c13,-37,36,-75,69,-100 l106,0 l0,100 l164,0 c39,-88,118,-137,214,-137 c61,0,109,20,135,47 Z M879,326 c65,12,122,62,122,134 c0,31,-10,70,-43,98 l0,4 l150,0 l0,-217 c0,-68,-40,-115,-118,-115 c-65,0,-103,39,-111,96 Z M458,372 l-205,0 l0,190 l142,0 c48,0,63,-19,63,-62 Z M458,372" fill="rgb(0,0,0)" transform="matrix(1,0,0,-1,571,1243)"/>
</svg>