<?xml version="1.0" encoding="UTF-8"?>
<svg height="1743" version="1.1" width="2679" xmlns="http://www.w3.org/2000/svg" xmlns:xlink="http://www.w3.org/1999/xlink">
 <path d="M0,0 l2679,0 l0,1743 l-2679,0 Z M0,0" fill="rgb(255,255,255)" transform="matrix(1,0,0,-1,0,1743)"/>
 <path d="M406,562 c48,0,63,-19,63,-62 l0,-83 l-56,-44 l0,-1 l-160,0 l0,190 Z M766,157 l4,0 l0,-157 l138,0 l0,562 l105,0 l0,109 l-315,0 l0,-109 l72,0 l0,-138 l-163,0 l0,84 c0,114,-70,163,-169,163 l-468,0 l0,-109 l145,0 l0,-197 l-56,-44 c0,-48,26,-130,83,-172 l106,0 l0,100 l204,0 c12,-18,26,-35,44,-48 l106,0 l0,102 l189,0 l0,-4 l-378,-233 l112,-95 Z M766,157" fill="rgb(0,0,0)" transform="matrix(1,0,0,-1,571,1243)"/>
</svg>