<?xml version="1.0" encoding="UTF-8"?>
<svg height="1743" version="1.1" width="2679" xmlns="http://www.w3.org/2000/svg" xmlns:xlink="http://www.w3.org/1999/xlink">
 <path d="M0,0 l2679,0 l0,1743 l-2679,0 Z M0,0" fill="rgb(255,255,255)" transform="matrix(1,0,0,-1,0,1743)"/>
 <path d="M215,476 c-91,0,-186,-60,-186,-199 c0,-122,73,-234,195,-297 l89,94 c-110,58,-143,135,-143,197 c0,69,33,86,60,86 c33,0,55,-22,55,-69 l0,-102 l128,0 l0,101 c0,49,22,73,59,73 c8,0,15,-1,21,-2 c30,-183,152,-354,377,-354 c132,0,205,56,234,84 l4,0 l0,-88 l128,0 l0,562 l105,0 l0,109 l-1371,0 l0,-109 l718,0 l0,-150 c0,-30,-18,-42,-36,-42 c-21,0,-35,12,-45,38 l-8,25 c-27,25,-69,49,-134,49 c-72,0,-107,-40,-119,-80 l-4,0 c-20,48,-66,74,-127,74 Z M1104,481 c-16,10,-41,20,-83,20 c-94,0,-167,-71,-167,-166 c0,-93,70,-143,137,-152 l73,73 c-42,4,-86,28,-86,76 c0,35,26,61,63,61 c39,0,69,-28,69,-80 c0,-111,-98,-199,-227,-199 c-119,0,-199,71,-226,156 c9,-2,21,-3,29,-3 c79,0,135,47,135,154 l0,141 l287,0 l0,-81 Z M1104,481" fill="rgb(0,0,0)" transform="matrix(1,0,0,-1,571,1243)"/>
</svg>