<?xml version="1.0" encoding="UTF-8"?>
<svg height="1743" version="1.1" width="2679" xmlns="http://www.w3.org/2000/svg" xmlns:xlink="http://www.w3.org/1999/xlink">
 <path d="M0,0 l2679,0 l0,1743 l-2679,0 Z M0,0" fill="rgb(255,255,255)" transform="matrix(1,0,0,-1,0,1743)"/>
 <path d="M215,476 c-91,0,-186,-60,-186,-199 c0,-122,73,-234,195,-297 l89,94 c-110,58,-143,135,-143,197 c0,69,33,86,60,86 c33,0,55,-22,55,-69 l0,-102 l128,0 l0,101 c0,49,22,73,59,73 c20,0,36,-7,48,-16 c-7,-21,-11,-44,-11,-69 c0,-160,142,-263,289,-263 c124,0,200,76,200,180 c0,80,-66,145,-144,145 c-88,0,-132,-50,-147,-85 l79,-74 c5,29,26,45,50,45 c23,0,38,-15,38,-36 c0,-34,-25,-57,-71,-57 c-93,0,-153,67,-153,127 c0,56,24,88,118,111 l172,42 l0,152 l130,0 l0,109 l-1100,0 l0,-109 l826,0 l0,-56 l-102,-27 c-39,-10,-73,-25,-100,-43 c-27,23,-68,46,-129,46 c-72,0,-107,-40,-119,-80 l-4,0 c-20,48,-66,74,-127,74 Z M215,476" fill="rgb(0,0,0)" transform="matrix(1,0,0,-1,571,1243)"/>
</svg>