<?xml version="1.0" encoding="UTF-8"?>
<svg height="1743" version="1.1" width="2679" xmlns="http://www.w3.org/2000/svg" xmlns:xlink="http://www.w3.org/1999/xlink">
 <path d="M0,0 l2679,0 l0,1743 l-2679,0 Z M0,0" fill="rgb(255,255,255)" transform="matrix(1,0,0,-1,0,1743)"/>
 <path d="M215,476 c-91,0,-186,-60,-186,-199 c0,-122,73,-234,195,-297 l89,94 c-110,58,-143,135,-143,197 c0,69,33,86,60,86 c33,0,55,-22,55,-69 l0,-102 l128,0 l0,101 c0,49,22,73,59,73 c18,0,32,-5,43,-13 c-6,-20,-9,-42,-9,-67 c0,-149,128,-237,262,-237 c24,0,48,3,72,9 l65,-130 l158,39 l-128,151 c26,26,42,52,42,92 c0,61,-39,90,-79,110 l-89,-33 l0,-96 c-16,-14,-36,-21,-58,-22 c-53,-3,-110,30,-110,90 c0,58,35,90,141,117 l135,34 l0,158 l144,0 l0,109 l-1091,0 l0,-109 l803,0 l0,-61 l-86,-21 c-40,-10,-73,-23,-99,-39 c-27,21,-66,41,-123,41 c-72,0,-107,-40,-119,-80 l-4,0 c-20,48,-66,74,-127,74 Z M215,476" fill="rgb(0,0,0)" transform="matrix(1,0,0,-1,571,1243)"/>
</svg>