<?xml version="1.0" encoding="UTF-8"?>
<svg height="1743" version="1.1" width="2679" xmlns="http://www.w3.org/2000/svg" xmlns:xlink="http://www.w3.org/1999/xlink">
 <path d="M0,0 l2679,0 l0,1743 l-2679,0 Z M0,0" fill="rgb(255,255,255)" transform="matrix(1,0,0,-1,0,1743)"/>
 <path d="M827,562 l105,0 l0,109 l-962,0 l0,-109 l716,0 l0,-235 c0,-63,-34,-117,-102,-117 c-49,0,-83,29,-83,79 c0,71,67,94,120,76 l-10,122 c-136,22,-255,-53,-255,-198 c0,-7,0,-14,1,-21 c-18,-28,-48,-58,-99,-58 c-49,0,-85,28,-85,79 c0,52,36,81,81,81 c13,0,24,0,39,-5 l-10,122 c-16,3,-34,4,-48,4 c-102,0,-207,-65,-207,-202 c0,-119,92,-198,219,-198 c74,0,127,23,166,56 c37,-36,88,-56,146,-56 c63,0,103,23,123,42 l4,0 l0,-133 l141,0 Z M827,562" fill="rgb(0,0,0)" transform="matrix(1,0,0,-1,571,1243)"/>
</svg>