<?xml version="1.0" encoding="UTF-8"?>
<svg height="1743" version="1.1" width="2679" xmlns="http://www.w3.org/2000/svg" xmlns:xlink="http://www.w3.org/1999/xlink">
 <path d="M0,0 l2679,0 l0,1743 l-2679,0 Z M0,0" fill="rgb(255,255,255)" transform="matrix(1,0,0,-1,0,1743)"/>
 <path d="M769,33 c26,31,52,73,52,129 c0,80,-60,155,-173,155 c-34,0,-65,-4,-93,-12 c-29,14,-43,35,-43,54 c0,20,11,34,48,34 l223,0 l0,169 l110,0 l0,109 l-923,0 l0,-109 l677,0 l0,-60 l-121,0 c-93,0,-150,-47,-150,-116 c0,-51,24,-95,80,-128 c-10,-8,-18,-16,-26,-25 c-59,-53,-107,-60,-165,-60 c-53,0,-91,31,-91,82 c0,52,38,78,89,78 c13,0,30,-1,45,-6 l-10,122 c-16,3,-40,5,-54,5 c-103,0,-215,-62,-215,-199 c0,-119,94,-201,225,-201 c58,0,104,12,139,30 c27,-122,171,-182,334,-198 l61,113 c-215,17,-264,67,-264,124 c0,50,48,86,124,86 c30,0,50,-13,50,-35 c0,-28,-20,-51,-43,-74 Z M769,33" fill="rgb(0,0,0)" transform="matrix(1,0,0,-1,571,1243)"/>
</svg>