<?xml version="1.0" encoding="UTF-8"?>
<svg height="1743" version="1.1" width="2679" xmlns="http://www.w3.org/2000/svg" xmlns:xlink="http://www.w3.org/1999/xlink">
 <path d="M0,0 l2679,0 l0,1743 l-2679,0 Z M0,0" fill="rgb(255,255,255)" transform="matrix(1,0,0,-1,0,1743)"/>
 <path d="M285,275 c-45,0,-78,24,-78,76 l0,37 l-8,95 l59,-68 l106,-106 c-21,-19,-47,-34,-79,-34 Z M586,225 c-45,0,-77,31,-77,75 c0,60,49,92,115,78 l-22,121 c-87,8,-175,-31,-214,-105 l-164,168 l448,0 l0,-246 c0,-53,-35,-91,-86,-91 Z M255,159 c68,0,117,15,153,37 c20,-23,44,-38,65,-45 l0,-4 l-127,-59 l107,-97 l215,156 l4,0 l0,-147 l140,0 l0,281 c0,51,34,91,86,91 c44,0,75,-30,75,-74 c0,-60,-47,-93,-113,-79 l22,-121 c118,-11,230,58,230,198 c0,116,-83,191,-187,191 c-49,0,-87,-19,-109,-40 l-4,0 l0,115 l358,0 l0,109 l-1200,0 l0,-109 l101,0 l0,-221 c0,-107,60,-182,184,-182 Z M255,159" fill="rgb(0,0,0)" transform="matrix(1,0,0,-1,571,1243)"/>
</svg>