<?xml version="1.0" encoding="UTF-8"?>
<svg height="1743" version="1.1" width="2679" xmlns="http://www.w3.org/2000/svg" xmlns:xlink="http://www.w3.org/1999/xlink">
 <path d="M0,0 l2679,0 l0,1743 l-2679,0 Z M0,0" fill="rgb(255,255,255)" transform="matrix(1,0,0,-1,0,1743)"/>
 <path d="M731,-154 l153,32 l-155,161 c111,34,170,126,170,220 c0,94,-45,164,-137,214 l0,89 l203,0 l0,109 l-995,0 l0,-109 l101,0 l0,-221 c0,-107,60,-182,184,-182 c51,0,91,8,124,22 c29,-72,95,-129,183,-148 l-152,-149 l154,-38 l87,117 Z M224,562 l394,0 l0,-71 l-76,-21 c-69,-19,-117,-46,-146,-83 Z M285,275 c-45,0,-78,24,-78,76 l0,37 l-8,95 l59,-68 l106,-106 c-21,-19,-47,-34,-79,-34 Z M615,146 c-86,0,-119,52,-119,97 c0,50,15,87,121,114 l78,20 c44,-24,74,-64,74,-111 c0,-65,-54,-120,-154,-120 Z M615,146" fill="rgb(0,0,0)" transform="matrix(1,0,0,-1,571,1243)"/>
</svg>