<?xml version="1.0" encoding="UTF-8"?>
<svg height="1743" version="1.1" width="2679" xmlns="http://www.w3.org/2000/svg" xmlns:xlink="http://www.w3.org/1999/xlink">
 <path d="M0,0 l2679,0 l0,1743 l-2679,0 Z M0,0" fill="rgb(255,255,255)" transform="matrix(1,0,0,-1,0,1743)"/>
 <path d="M255,159 c89,0,145,25,184,59 c31,-48,85,-72,160,-72 c123,0,195,68,195,199 l0,217 l187,0 c19,-24,29,-63,29,-83 c0,-63,-56,-90,-133,-105 c6,-165,107,-262,241,-262 c61,0,109,20,135,47 l4,0 l0,-159 l141,0 l0,562 l105,0 l0,109 l-1533,0 l0,-109 l101,0 l0,-221 c0,-107,60,-182,184,-182 Z M408,374 l-184,188 l184,0 Z M285,275 c-45,0,-78,24,-78,76 l0,37 l-8,95 l59,-68 l106,-106 c-21,-19,-47,-34,-79,-34 Z M602,265 c-35,0,-54,19,-54,68 l0,229 l107,0 l0,-228 c0,-49,-16,-69,-53,-69 Z M1028,326 c65,12,122,62,122,134 c0,31,-10,70,-43,98 l0,4 l150,0 l0,-217 c0,-68,-40,-115,-118,-115 c-65,0,-103,39,-111,96 Z M1028,326" fill="rgb(0,0,0)" transform="matrix(1,0,0,-1,571,1243)"/>
</svg>