<?xml version="1.0" encoding="UTF-8"?>
<svg height="1743" version="1.1" width="2679" xmlns="http://www.w3.org/2000/svg" xmlns:xlink="http://www.w3.org/1999/xlink">
 <path d="M0,0 l2679,0 l0,1743 l-2679,0 Z M0,0" fill="rgb(255,255,255)" transform="matrix(1,0,0,-1,0,1743)"/>
 <path d="M285,275 c-45,0,-78,24,-78,76 l0,37 l-8,95 l59,-68 l106,-106 c-21,-19,-47,-34,-79,-34 Z M255,159 c110,0,170,38,209,85 c24,-17,53,-25,84,-28 l0,-4 l-200,-151 l128,-85 l237,220 l4,0 l0,-196 l142,0 l0,562 l105,0 l0,109 l-994,0 l0,-109 l101,0 l0,-221 c0,-107,60,-182,184,-182 Z M411,562 l0,-191 l-187,191 Z M717,354 c-18,-24,-56,-42,-96,-42 c-47,0,-69,24,-69,76 l0,174 l165,0 Z M717,354" fill="rgb(0,0,0)" transform="matrix(1,0,0,-1,571,1243)"/>
</svg>