<?xml version="1.0" encoding="UTF-8"?>
<svg height="1743" version="1.1" width="2679" xmlns="http://www.w3.org/2000/svg" xmlns:xlink="http://www.w3.org/1999/xlink">
 <path d="M0,0 l2679,0 l0,1743 l-2679,0 Z M0,0" fill="rgb(255,255,255)" transform="matrix(1,0,0,-1,0,1743)"/>
 <path d="M418,365 c-23,0,-41,2,-57,5 c2,11,3,23,3,35 l0,157 l422,0 l0,-254 c0,-51,-32,-91,-84,-91 c-45,0,-79,31,-79,75 c0,60,49,92,115,78 l-22,121 c-90,8,-179,-30,-215,-111 c-25,-11,-54,-15,-83,-15 Z M227,257 c10,1,20,3,30,5 c17,4,33,10,47,19 c34,-25,76,-39,133,-39 c18,0,35,1,52,4 c20,-88,95,-144,184,-144 c55,0,91,21,109,38 l4,0 l0,-140 l140,0 l0,281 c0,51,34,91,86,91 c44,0,75,-30,75,-74 c0,-60,-47,-93,-113,-79 l22,-121 c118,-11,230,58,230,198 c0,116,-83,191,-187,191 c-49,0,-87,-19,-109,-40 l-4,0 l0,115 l358,0 l0,109 l-1314,0 l0,-109 l254,0 l0,-154 c0,-36,-18,-49,-41,-49 c-29,0,-48,18,-76,56 l-106,-84 l284,-350 l115,72 l-92,110 c-40,48,-60,69,-81,90 Z M227,257" fill="rgb(0,0,0)" transform="matrix(1,0,0,-1,571,1243)"/>
</svg>