<?xml version="1.0" encoding="UTF-8"?>
<svg height="1743" version="1.1" width="2679" xmlns="http://www.w3.org/2000/svg" xmlns:xlink="http://www.w3.org/1999/xlink">
 <path d="M0,0 l2679,0 l0,1743 l-2679,0 Z M0,0" fill="rgb(255,255,255)" transform="matrix(1,0,0,-1,0,1743)"/>
 <path d="M418,365 c-23,0,-41,2,-57,5 c2,11,3,23,3,35 l0,157 l644,0 l0,-99 l-234,0 l-54,-99 l0,-10 c51,-20,78,-58,78,-96 c0,-40,-25,-60,-58,-60 c-92,0,-136,142,-143,271 l-126,-64 c1,-10,3,-22,5,-33 c-19,-5,-38,-7,-58,-7 Z M227,257 c10,1,20,3,30,5 c17,4,33,10,47,19 c34,-25,76,-39,133,-39 c26,0,52,3,77,10 c42,-91,116,-174,237,-174 c109,0,181,67,181,165 c0,45,-17,84,-47,106 l0,4 l123,0 l0,-353 l142,0 l0,562 l105,0 l0,109 l-1285,0 l0,-109 l254,0 l0,-154 c0,-36,-18,-49,-41,-49 c-29,0,-48,18,-76,56 l-106,-84 l284,-350 l115,72 l-92,110 c-40,48,-60,69,-81,90 Z M227,257" fill="rgb(0,0,0)" transform="matrix(1,0,0,-1,571,1243)"/>
</svg>