<?xml version="1.0" encoding="UTF-8"?>
<svg height="1743" version="1.1" width="2679" xmlns="http://www.w3.org/2000/svg" xmlns:xlink="http://www.w3.org/1999/xlink">
 <path d="M0,0 l2679,0 l0,1743 l-2679,0 Z M0,0" fill="rgb(255,255,255)" transform="matrix(1,0,0,-1,0,1743)"/>
 <path d="M405,50 l-107,132 c-35,43,-47,55,-67,75 l-2,2 c33,4,56,10,82,27 c31,-24,79,-44,139,-44 c70,0,101,38,110,85 l8,41 c9,2,17,3,30,3 c39,0,75,-25,84,-76 l-228,-152 l108,-93 l215,160 l4,0 l0,-210 l142,0 l0,562 l105,0 l0,109 l-1058,0 l0,-109 l262,0 l0,-151 c0,-36,-18,-49,-41,-49 c-29,0,-50,21,-78,59 l-102,-89 l276,-351 Z M368,372 c2,12,4,25,4,40 l0,150 l409,0 l0,-179 l-4,0 c-25,58,-80,119,-193,119 c-77,0,-114,-46,-123,-91 l-9,-43 c-8,-2,-19,-3,-30,-3 c-21,0,-44,3,-54,7 Z M368,372" fill="rgb(0,0,0)" transform="matrix(1,0,0,-1,571,1243)"/>
</svg>