<?xml version="1.0" encoding="UTF-8"?>
<svg height="1743" version="1.1" width="2679" xmlns="http://www.w3.org/2000/svg" xmlns:xlink="http://www.w3.org/1999/xlink">
 <path d="M0,0 l2679,0 l0,1743 l-2679,0 Z M0,0" fill="rgb(255,255,255)" transform="matrix(1,0,0,-1,0,1743)"/>
 <path d="M363,9 c75,0,121,40,121,120 l0,58 c25,-21,35,-51,35,-85 c0,-34,-10,-68,-25,-102 l116,0 c11,26,20,67,20,102 c0,124,-85,213,-262,213 c-52,0,-98,-8,-138,-22 c-28,16,-42,46,-42,66 c0,20,11,34,48,34 l333,0 l0,169 l121,0 l0,109 l-720,0 l0,-109 l463,0 l0,-60 l-231,0 c-93,0,-150,-47,-150,-116 c0,-54,26,-112,88,-145 c-44,-41,-68,-94,-68,-153 c0,-152,126,-247,302,-275 l68,95 c-222,32,-239,120,-239,177 c0,39,14,72,41,95 l0,-53 c0,-79,43,-118,119,-118 Z M369,217 c8,0,15,-1,23,-1 l0,-95 c0,-28,-10,-38,-28,-38 c-18,0,-29,9,-29,37 l0,95 c10,1,22,2,34,2 Z M369,217" fill="rgb(0,0,0)" transform="matrix(1,0,0,-1,571,1243)"/>
</svg>