<?xml version="1.0" encoding="UTF-8"?>
<svg height="1743" version="1.1" width="2679" xmlns="http://www.w3.org/2000/svg" xmlns:xlink="http://www.w3.org/1999/xlink">
 <path d="M0,0 l2679,0 l0,1743 l-2679,0 Z M0,0" fill="rgb(255,255,255)" transform="matrix(1,0,0,-1,0,1743)"/>
 <path d="M204,119 c0,50,32,96,115,96 l160,0 l-173,-62 l-31,-71 c21,-41,54,-67,96,-72 l57,33 l-23,56 l74,28 l0,-127 l116,0 l0,247 l-89,74 l-189,0 c-30,0,-57,-4,-82,-10 c-25,8,-44,33,-44,50 c0,20,11,29,52,29 l321,0 l0,172 l124,0 l0,109 l-718,0 l0,-109 l458,0 l0,-58 l-222,0 c-93,0,-150,-49,-150,-118 c0,-45,19,-99,73,-128 c-42,-34,-61,-84,-61,-134 c0,-128,86,-232,273,-277 l82,96 c-179,22,-219,114,-219,176 Z M204,119" fill="rgb(0,0,0)" transform="matrix(1,0,0,-1,571,1243)"/>
</svg>