<?xml version="1.0" encoding="UTF-8"?>
<svg height="1743" version="1.1" width="2679" xmlns="http://www.w3.org/2000/svg" xmlns:xlink="http://www.w3.org/1999/xlink">
 <path d="M0,0 l2679,0 l0,1743 l-2679,0 Z M0,0" fill="rgb(255,255,255)" transform="matrix(1,0,0,-1,0,1743)"/>
 <path d="M321,-153 c-110,50,-165,132,-165,227 c0,96,69,149,171,149 c35,0,71,-10,98,-30 c-25,-6,-42,-21,-46,-32 c-22,23,-43,29,-73,29 c-67,0,-105,-56,-105,-110 c0,-75,50,-149,142,-209 l54,50 c-74,48,-112,96,-112,147 c0,32,12,47,31,47 c13,0,26,-6,26,-38 l0,-49 l69,0 l0,41 c0,37,21,59,56,63 c2,-10,4,-20,4,-31 c0,-29,-5,-62,-24,-101 l115,0 c6,20,13,61,13,95 c0,99,-56,226,-250,226 c-27,0,-58,-3,-91,-8 c-25,8,-36,29,-36,46 c0,20,6,31,47,31 l245,0 l0,172 l140,0 l0,109 l-660,0 l0,-109 l384,0 l0,-68 l-151,0 c-93,0,-145,-41,-145,-110 c0,-45,24,-92,78,-121 c-74,-45,-93,-134,-93,-184 c0,-100,51,-225,204,-300 Z M321,-153" fill="rgb(0,0,0)" transform="matrix(1,0,0,-1,571,1243)"/>
</svg>