<?xml version="1.0" encoding="UTF-8"?>
<svg height="1743" version="1.1" width="2679" xmlns="http://www.w3.org/2000/svg" xmlns:xlink="http://www.w3.org/1999/xlink">
 <path d="M0,0 l2679,0 l0,1743 l-2679,0 Z M0,0" fill="rgb(255,255,255)" transform="matrix(1,0,0,-1,0,1743)"/>
 <path d="M448,-14 c0,-11,-5,-35,-7,-48 l104,0 c6,20,15,99,15,146 c0,113,-50,237,-244,237 c-27,0,-47,-3,-80,-8 c-25,8,-36,29,-36,46 c0,20,6,31,47,31 l245,0 l0,172 l139,0 l0,109 l-661,0 l0,-109 l386,0 l0,-68 l-151,0 c-93,0,-145,-41,-145,-110 c0,-45,24,-92,78,-121 c-69,-51,-84,-123,-84,-173 c0,-100,73,-224,259,-308 l74,68 c-152,67,-220,140,-220,235 c0,91,83,140,160,140 c65,0,127,-35,127,-111 c0,-44,-29,-85,-81,-85 c-31,0,-49,19,-49,42 c0,27,15,40,40,40 c13,0,27,-3,41,-11 l0,73 c-18,10,-39,13,-56,13 c-74,0,-118,-45,-118,-112 c0,-64,55,-117,122,-117 c31,0,63,4,90,29 Z M448,-14" fill="rgb(0,0,0)" transform="matrix(1,0,0,-1,571,1243)"/>
</svg>