<?xml version="1.0" encoding="UTF-8"?>
<svg height="1743" version="1.1" width="2679" xmlns="http://www.w3.org/2000/svg" xmlns:xlink="http://www.w3.org/1999/xlink">
 <path d="M0,0 l2679,0 l0,1743 l-2679,0 Z M0,0" fill="rgb(255,255,255)" transform="matrix(1,0,0,-1,0,1743)"/>
 <path d="M321,562 l0,109 l-105,0 l0,41 c0,83,54,135,254,135 c210,0,423,-58,529,-128 l53,98 c-93,66,-325,150,-580,150 c-279,0,-397,-99,-397,-256 l0,-40 l-105,0 l0,-109 l105,0 l0,-562 l141,0 l0,562 Z M321,562" fill="rgb(0,0,0)" transform="matrix(1,0,0,-1,571,1243)"/>
</svg>