<?xml version="1.0" encoding="UTF-8"?>
<svg height="1743" version="1.1" width="2679" xmlns="http://www.w3.org/2000/svg" xmlns:xlink="http://www.w3.org/1999/xlink">
 <path d="M0,0 l2679,0 l0,1743 l-2679,0 Z M0,0" fill="rgb(255,255,255)" transform="matrix(1,0,0,-1,0,1743)"/>
 <path d="M474,448 l-4,0 l0,114 l390,0 l0,-61 l-86,-21 c-28,-7,-53,-16,-74,-26 c-28,18,-65,33,-118,33 c-43,0,-87,-18,-108,-39 Z M330,140 l0,-140 l140,0 l0,281 c0,52,36,91,90,91 c19,0,35,-3,48,-9 c-10,-24,-15,-52,-15,-83 c0,-149,128,-237,262,-237 c24,0,47,3,71,9 l14,-112 l144,-80 l-62,251 c24,25,42,53,42,93 c0,61,-39,90,-79,110 l-89,-33 l0,-96 c-18,-16,-40,-22,-65,-22 c-51,0,-103,32,-103,90 c0,58,35,90,141,117 l135,34 l0,158 l144,0 l0,109 l-1178,0 l0,-109 l360,0 l0,-254 c0,-51,-32,-91,-84,-91 c-45,0,-79,31,-79,75 c0,60,49,92,115,78 l-22,121 c-118,11,-232,-57,-232,-197 c0,-116,85,-192,189,-192 c55,0,91,21,109,38 Z M330,140" fill="rgb(0,0,0)" transform="matrix(1,0,0,-1,571,1243)"/>
</svg>