<?xml version="1.0" encoding="UTF-8"?>
<svg height="1743" version="1.1" width="2679" xmlns="http://www.w3.org/2000/svg" xmlns:xlink="http://www.w3.org/1999/xlink">
 <path d="M0,0 l2679,0 l0,1743 l-2679,0 Z M0,0" fill="rgb(255,255,255)" transform="matrix(1,0,0,-1,0,1743)"/>
 <path d="M1047,-140 l-62,251 c24,25,42,53,42,93 c0,61,-39,90,-79,110 l-89,-33 l0,-96 c-18,-16,-40,-22,-65,-22 c-51,0,-103,32,-103,90 c0,58,35,90,141,117 l135,34 l0,158 l144,0 l0,109 l-1141,0 l0,-109 l853,0 l0,-61 l-86,-21 c-20,-5,-38,-10,-54,-17 l-365,0 l-54,-99 l0,-10 c51,-20,78,-58,78,-96 c0,-40,-25,-60,-58,-60 c-92,0,-136,142,-143,271 l-126,-64 c14,-120,89,-327,280,-327 c109,0,181,67,181,165 c0,45,-17,84,-47,106 l0,4 l138,0 c-7,-22,-11,-46,-11,-73 c0,-149,128,-237,262,-237 c24,0,47,3,71,9 l14,-112 Z M1047,-140" fill="rgb(0,0,0)" transform="matrix(1,0,0,-1,571,1243)"/>
</svg>