<?xml version="1.0" encoding="UTF-8"?>
<svg height="1743" version="1.1" width="2679" xmlns="http://www.w3.org/2000/svg" xmlns:xlink="http://www.w3.org/1999/xlink">
 <path d="M0,0 l2679,0 l0,1743 l-2679,0 Z M0,0" fill="rgb(255,255,255)" transform="matrix(1,0,0,-1,0,1743)"/>
 <path d="M246,1001 c-23,7,-51,12,-83,12 c-118,0,-188,-88,-188,-193 c0,-37,9,-75,25,-101 l101,40 c-7,13,-10,31,-10,46 c0,48,32,84,77,84 c20,0,34,-3,47,-7 Z M236,884 c0,-28,21,-50,50,-50 c30,0,51,22,51,50 c0,30,-21,52,-51,52 c-29,0,-50,-22,-50,-52 Z M286,715 c73,0,128,40,146,93 l-68,45 c-8,-24,-33,-55,-78,-55 c-45,0,-70,31,-78,55 l-68,-45 c18,-53,73,-93,146,-93 Z M286,715" fill="rgb(0,0,0)" transform="matrix(1,0,0,-1,571,1243)"/>
</svg>