<?xml version="1.0" encoding="UTF-8"?>
<svg height="1743" version="1.1" width="2679" xmlns="http://www.w3.org/2000/svg" xmlns:xlink="http://www.w3.org/1999/xlink">
 <path d="M0,0 l2679,0 l0,1743 l-2679,0 Z M0,0" fill="rgb(255,255,255)" transform="matrix(1,0,0,-1,0,1743)"/>
 <path d="M360,34 c87,17,147,77,147,159 c0,83,-42,139,-101,157 l-163,-39 c-27,8,-40,33,-40,48 c0,21,3,37,61,37 l190,0 l0,166 l127,0 l0,109 l-158,0 c-42,21,-82,66,-82,125 c0,58,44,95,93,95 c35,0,57,-9,73,-18 l35,109 c-18,10,-61,26,-117,26 c-131,0,-208,-90,-208,-189 c0,-77,38,-126,66,-148 l-313,0 l0,-109 l346,0 l0,-56 l-120,0 c-89,0,-135,-41,-135,-108 c0,-81,57,-169,169,-206 l133,34 c7,-4,16,-18,16,-35 c0,-54,-59,-76,-117,-76 l-14,0 l-157,96 c-33,-15,-54,-44,-54,-84 c0,-54,45,-118,169,-118 l178,-156 l145,77 l-169,100 Z M400,771 c0,-33,28,-60,61,-60 c36,0,63,27,63,60 c0,37,-27,64,-63,64 c-33,0,-61,-27,-61,-64 Z M400,771" fill="rgb(0,0,0)" transform="matrix(1,0,0,-1,571,1243)"/>
</svg>