<?xml version="1.0" encoding="UTF-8"?>
<svg height="1743" version="1.1" width="2679" xmlns="http://www.w3.org/2000/svg" xmlns:xlink="http://www.w3.org/1999/xlink">
 <path d="M0,0 l2679,0 l0,1743 l-2679,0 Z M0,0" fill="rgb(255,255,255)" transform="matrix(1,0,0,-1,0,1743)"/>
 <path d="M-420,918 l62,-84 c65,-88,119,-137,149,-162 l10,-8 l124,0 l-194,279 Z M-109,845 c0,-47,38,-85,86,-85 c51,0,89,38,89,85 c0,52,-38,90,-89,90 c-48,0,-86,-38,-86,-90 Z M-109,845" fill="rgb(0,0,0)" transform="matrix(1,0,0,-1,571,1243)"/>
</svg>