<?xml version="1.0" encoding="UTF-8"?>
<svg height="1743" version="1.1" width="2679" xmlns="http://www.w3.org/2000/svg" xmlns:xlink="http://www.w3.org/1999/xlink">
 <path d="M0,0 l2679,0 l0,1743 l-2679,0 Z M0,0" fill="rgb(255,255,255)" transform="matrix(1,0,0,-1,0,1743)"/>
 <path d="M-11,892 c25,0,52,-7,70,-16 l26,115 c-22,10,-56,15,-88,15 c-114,0,-179,-84,-181,-153 l-4,0 l-37,118 l-149,-32 l194,-265 l-3,-2 l-274,284 l-114,-76 l99,-89 c102,-91,241,-173,314,-201 l70,69 c-18,28,-35,65,-35,110 c0,70,44,123,112,123 Z M-66,773 c0,-33,28,-60,61,-60 c36,0,63,27,63,60 c0,37,-27,64,-63,64 c-33,0,-61,-27,-61,-64 Z M-66,773" fill="rgb(0,0,0)" transform="matrix(1,0,0,-1,571,1243)"/>
</svg>