<?xml version="1.0" encoding="UTF-8"?>
<svg height="1743" version="1.1" width="2679" xmlns="http://www.w3.org/2000/svg" xmlns:xlink="http://www.w3.org/1999/xlink">
 <path d="M0,0 l2679,0 l0,1743 l-2679,0 Z M0,0" fill="rgb(255,255,255)" transform="matrix(1,0,0,-1,0,1743)"/>
 <path d="M-75,845 c0,-47,38,-85,86,-85 c51,0,89,38,89,85 c0,52,-38,90,-89,90 c-48,0,-86,-38,-86,-90 Z M-474,795 c102,-79,238,-161,311,-199 l96,57 l-90,289 l-139,-23 l146,-252 l-13,-5 l-184,195 Z M-474,795" fill="rgb(0,0,0)" transform="matrix(1,0,0,-1,571,1243)"/>
</svg>