<?xml version="1.0" encoding="UTF-8"?>
<svg height="1743" version="1.1" width="2679" xmlns="http://www.w3.org/2000/svg" xmlns:xlink="http://www.w3.org/1999/xlink">
 <path d="M0,0 l2679,0 l0,1743 l-2679,0 Z M0,0" fill="rgb(255,255,255)" transform="matrix(1,0,0,-1,0,1743)"/>
 <path d="M35,750 c73,0,128,40,146,93 l-68,45 c-8,-24,-33,-55,-78,-55 c-45,0,-70,31,-78,55 l-68,-45 c18,-53,73,-93,146,-93 Z M-15,919 c0,-28,21,-50,50,-50 c30,0,51,22,51,50 c0,30,-21,52,-51,52 c-29,0,-50,-22,-50,-52 Z M-474,795 c102,-79,238,-161,311,-199 l96,57 l-90,289 l-139,-23 l146,-252 l-13,-5 l-184,195 Z M-474,795" fill="rgb(0,0,0)" transform="matrix(1,0,0,-1,571,1243)"/>
</svg>