<?xml version="1.0" encoding="UTF-8"?>
<svg height="1743" version="1.1" width="2679" xmlns="http://www.w3.org/2000/svg" xmlns:xlink="http://www.w3.org/1999/xlink">
 <path d="M0,0 l2679,0 l0,1743 l-2679,0 Z M0,0" fill="rgb(255,255,255)" transform="matrix(1,0,0,-1,0,1743)"/>
 <path d="M-74,653 c-28,35,-49,73,-49,118 c0,92,56,131,118,131 l6,114 l-14,0 c-118,0,-156,-97,-158,-164 l-5,0 l-19,93 l-121,-26 l156,-252 l-13,-5 l-184,195 l-127,-62 c102,-79,238,-161,311,-199 Z M196,788 l-68,45 c-8,-24,-33,-55,-78,-55 c-45,0,-70,31,-78,55 l-68,-45 c18,-53,73,-93,146,-93 c73,0,128,40,146,93 Z M101,864 c0,30,-21,52,-51,52 c-29,0,-50,-22,-50,-52 c0,-28,21,-50,50,-50 c30,0,51,22,51,50 Z M101,864" fill="rgb(0,0,0)" transform="matrix(1,0,0,-1,571,1243)"/>
</svg>