<?xml version="1.0" encoding="UTF-8"?>
<svg height="1743" version="1.1" width="2679" xmlns="http://www.w3.org/2000/svg" xmlns:xlink="http://www.w3.org/1999/xlink">
 <path d="M0,0 l2679,0 l0,1743 l-2679,0 Z M0,0" fill="rgb(255,255,255)" transform="matrix(1,0,0,-1,0,1743)"/>
 <path d="M321,562 l0,109 l-86,0 c-15,27,-28,64,-28,103 c0,92,66,128,128,128 l6,114 l-14,0 c-118,0,-179,-96,-181,-163 l-4,0 l-37,118 l-149,-32 l194,-265 l-3,-2 l-274,284 l-114,-76 l99,-89 c49,-44,107,-85,161,-120 l-49,0 l0,-109 l105,0 l0,-562 l141,0 l0,562 Z M390,695 c73,0,128,40,146,93 l-68,45 c-8,-24,-33,-55,-78,-55 c-45,0,-70,31,-78,55 l-68,-45 c18,-53,73,-93,146,-93 Z M390,814 c30,0,51,22,51,50 c0,30,-21,52,-51,52 c-29,0,-50,-22,-50,-52 c0,-28,21,-50,50,-50 Z M390,814" fill="rgb(0,0,0)" transform="matrix(1,0,0,-1,571,1243)"/>
</svg>