<?xml version="1.0" encoding="UTF-8"?>
<svg height="1743" version="1.1" width="2679" xmlns="http://www.w3.org/2000/svg" xmlns:xlink="http://www.w3.org/1999/xlink">
 <path d="M0,0 l2679,0 l0,1743 l-2679,0 Z M0,0" fill="rgb(255,255,255)" transform="matrix(1,0,0,-1,0,1743)"/>
 <path d="M992,-137 c0,103,-79,160,-181,160 c-13,0,-25,-1,-36,-2 c-85,24,-107,63,-107,102 c0,50,49,86,121,86 c30,0,53,-12,53,-35 c0,-25,-16,-45,-35,-65 l118,-64 c22,29,43,74,43,122 c0,78,-69,150,-176,150 c-34,0,-65,-4,-94,-12 c-28,14,-42,34,-42,54 c0,20,11,34,48,34 l223,0 l0,169 l110,0 l0,109 l-1067,0 l0,-109 l821,0 l0,-60 l-121,0 c-51,0,-92,-14,-118,-39 c-23,11,-51,19,-87,19 c-72,0,-107,-40,-119,-80 l-4,0 c-20,48,-66,74,-127,74 c-91,0,-186,-60,-186,-199 c0,-122,73,-234,195,-297 l89,94 c-110,58,-143,135,-143,197 c0,69,33,86,60,86 c33,0,55,-22,55,-69 l0,-102 l128,0 l0,101 c0,49,22,73,59,73 c25,0,43,-10,56,-23 c12,-31,35,-58,72,-79 c-43,-34,-68,-80,-68,-130 c0,-121,100,-194,232,-227 c10,6,23,9,37,9 c29,0,53,-17,53,-49 c0,-49,-41,-64,-86,-64 c-94,0,-182,66,-236,147 l-95,-78 c52,-72,163,-179,334,-179 c159,0,221,86,221,176 Z M992,-137" fill="rgb(0,0,0)" transform="matrix(1,0,0,-1,571,1243)"/>
</svg>