<?xml version="1.0" encoding="UTF-8"?>
<svg height="1743" version="1.1" width="2679" xmlns="http://www.w3.org/2000/svg" xmlns:xlink="http://www.w3.org/1999/xlink">
 <path d="M0,0 l2679,0 l0,1743 l-2679,0 Z M0,0" fill="rgb(255,255,255)" transform="matrix(1,0,0,-1,0,1743)"/>
 <path d="M521,-33 l-173,95 l-4,2 c87,7,147,76,147,183 l0,414 l-139,0 l0,-232 c-19,-13,-45,-23,-78,-23 c-39,0,-73,29,-73,83 c0,57,18,108,45,162 l-123,43 c-28,-48,-61,-118,-61,-221 c0,-107,86,-181,180,-181 c49,0,84,11,110,27 l0,-67 c0,-82,-36,-111,-114,-97 l-137,89 l-58,-59 c-1,-9,-1,-17,-1,-26 c0,-54,45,-119,169,-119 l175,-153 Z M521,-33" fill="rgb(0,0,0)" transform="matrix(1,0,0,-1,571,1243)"/>
</svg>