<?xml version="1.0" encoding="UTF-8"?>
<svg height="1743" version="1.1" width="2679" xmlns="http://www.w3.org/2000/svg" xmlns:xlink="http://www.w3.org/1999/xlink">
 <path d="M0,0 l2679,0 l0,1743 l-2679,0 Z M0,0" fill="rgb(255,255,255)" transform="matrix(1,0,0,-1,0,1743)"/>
 <path d="M42,423 l0,-120 l159,0 l0,-4 c-10,-6,-64,-46,-64,-120 c0,-79,53,-143,173,-143 l96,0 c53,0,69,-14,69,-38 c0,-16,-11,-36,-42,-61 l97,-87 c62,58,70,107,70,154 c0,89,-65,154,-174,154 l-80,0 c-53,0,-66,18,-66,40 c0,41,34,79,95,106 l154,0 l0,119 l-179,0 c-34,14,-56,42,-56,72 c0,37,26,57,77,57 c45,0,97,-15,118,-26 l37,113 c-30,16,-99,32,-153,32 c-146,0,-225,-67,-225,-156 c0,-45,19,-75,39,-88 l0,-4 Z M42,423" fill="rgb(0,0,0)" transform="matrix(1,0,0,-1,571,1243)"/>
</svg>