<?xml version="1.0" encoding="UTF-8"?>
<svg height="1743" version="1.1" width="2679" xmlns="http://www.w3.org/2000/svg" xmlns:xlink="http://www.w3.org/1999/xlink">
 <path d="M0,0 l2679,0 l0,1743 l-2679,0 Z M0,0" fill="rgb(255,255,255)" transform="matrix(1,0,0,-1,0,1743)"/>
 <path d="M526,319 c0,162,-83,238,-187,238 c-83,0,-154,-65,-154,-169 c0,-100,74,-195,198,-186 c-22,-42,-59,-59,-101,-59 c-66,0,-139,61,-139,244 c0,68,23,212,45,265 l-125,26 c-29,-82,-43,-215,-43,-289 c0,-251,113,-361,271,-361 c128,0,235,108,235,291 Z M307,383 c0,37,20,55,42,55 c28,0,59,-28,59,-110 c0,-10,0,-19,-1,-27 c-69,-6,-100,47,-100,82 Z M307,383" fill="rgb(0,0,0)" transform="matrix(1,0,0,-1,571,1243)"/>
</svg>