<?xml version="1.0" encoding="UTF-8"?>
<svg height="1743" version="1.1" width="2679" xmlns="http://www.w3.org/2000/svg" xmlns:xlink="http://www.w3.org/1999/xlink">
 <path d="M0,0 l2679,0 l0,1743 l-2679,0 Z M0,0" fill="rgb(255,255,255)" transform="matrix(1,0,0,-1,0,1743)"/>
 <path d="M543,235 c0,62,-36,119,-92,135 l-194,-30 c-22,6,-33,26,-33,39 c0,19,13,30,42,30 l222,0 l0,153 l217,0 l0,-514 l-211,0 l0,76 c32,30,49,69,49,111 Z M842,-231 l0,793 l155,0 l0,109 l-1027,0 l0,-109 l384,0 l0,-57 l-146,0 c-82,0,-122,-44,-122,-99 c0,-63,47,-139,162,-172 l155,30 c11,-6,18,-21,18,-36 c0,-38,-40,-60,-106,-60 c-83,0,-163,36,-221,110 l-69,-75 c66,-93,181,-138,287,-138 c21,0,41,2,59,4 l0,-24 l-62,-54 c0,-46,30,-102,66,-127 l115,0 l0,70 l215,0 l0,-165 Z M671,403 c0,38,-29,69,-68,69 c-39,0,-70,-31,-70,-69 c0,-38,30,-69,69,-69 c39,0,69,31,69,69 Z M671,403" fill="rgb(0,0,0)" transform="matrix(1,0,0,-1,571,1243)"/>
</svg>