<?xml version="1.0" encoding="UTF-8"?>
<svg height="1743" version="1.1" width="2679" xmlns="http://www.w3.org/2000/svg" xmlns:xlink="http://www.w3.org/1999/xlink">
 <path d="M0,0 l2679,0 l0,1743 l-2679,0 Z M0,0" fill="rgb(255,255,255)" transform="matrix(1,0,0,-1,0,1743)"/>
 <path d="M532,562 l0,-205 c-44,12,-102,29,-146,60 c-1,7,-2,14,-4,20 c-19,64,-79,100,-160,100 c-51,0,-92,-13,-123,-30 l44,-92 c12,8,41,22,74,22 c36,0,64,-17,64,-49 c0,-35,-27,-64,-85,-64 c-56,0,-121,23,-167,63 l-55,-89 c63,-47,142,-72,221,-72 c79,0,144,31,174,82 c51,-34,122,-54,180,-69 l0,-37 c-29,-77,-104,-170,-181,-170 c-41,0,-57,25,-57,49 c0,22,12,43,34,53 l67,30 l-68,78 l-297,-129 l72,-86 l100,49 c-4,-12,-6,-25,-6,-34 c0,-60,47,-115,139,-115 c89,0,145,45,176,88 l4,0 l0,-61 l136,0 l0,608 l105,0 l0,109 l-803,0 l0,-109 Z M532,562" fill="rgb(0,0,0)" transform="matrix(1,0,0,-1,571,1243)"/>
</svg>