<?xml version="1.0" encoding="UTF-8"?>
<svg height="1743" version="1.1" width="2679" xmlns="http://www.w3.org/2000/svg" xmlns:xlink="http://www.w3.org/1999/xlink">
 <path d="M0,0 l2679,0 l0,1743 l-2679,0 Z M0,0" fill="rgb(255,255,255)" transform="matrix(1,0,0,-1,0,1743)"/>
 <path d="M352,-43 c89,0,145,45,176,88 l4,0 l0,-61 l136,0 l0,578 l105,0 l0,109 l-241,0 l0,-321 c-50,18,-95,36,-131,54 c38,37,57,75,57,125 c0,90,-82,154,-176,154 c-115,0,-186,-65,-186,-144 c0,-47,24,-89,81,-133 c-45,-17,-101,-35,-170,-53 l84,-104 c83,29,152,56,208,85 c56,-29,151,-69,250,-102 c-29,-77,-104,-165,-181,-165 c-41,0,-57,23,-57,47 c0,22,12,40,34,50 l67,30 l-74,85 l-297,-129 l78,-93 l100,49 c-4,-12,-4,-25,-4,-34 c0,-60,45,-115,137,-115 Z M231,534 c0,27,19,48,55,48 c28,0,51,-19,51,-50 c0,-24,-14,-48,-49,-72 c-37,24,-57,48,-57,74 Z M231,534" fill="rgb(0,0,0)" transform="matrix(1,0,0,-1,571,1243)"/>
</svg>