<?xml version="1.0" encoding="UTF-8"?>
<svg height="1743" version="1.1" width="2679" xmlns="http://www.w3.org/2000/svg" xmlns:xlink="http://www.w3.org/1999/xlink">
 <path d="M0,0 l2679,0 l0,1743 l-2679,0 Z M0,0" fill="rgb(255,255,255)" transform="matrix(1,0,0,-1,0,1743)"/>
 <path d="M310,301 c-59,-11,-110,-59,-110,-130 c0,-83,71,-158,188,-158 c56,0,100,17,134,42 l4,0 l0,-75 l136,0 l0,582 l105,0 l0,109 l-241,0 l0,-342 c-47,15,-105,36,-156,62 c43,38,66,81,66,134 c0,91,-85,155,-176,155 c-114,0,-186,-66,-186,-145 c0,-45,16,-88,75,-135 c-44,-17,-98,-33,-164,-51 l84,-104 c77,26,146,53,200,81 c11,-6,27,-15,41,-21 Z M394,115 c-47,0,-70,24,-70,56 c0,44,43,69,103,69 c31,0,81,-16,99,-30 c-25,-65,-81,-95,-132,-95 Z M209,530 c0,27,19,49,55,49 c28,0,51,-20,51,-51 c0,-26,-16,-51,-56,-77 c-35,26,-50,51,-50,79 Z M209,530" fill="rgb(0,0,0)" transform="matrix(1,0,0,-1,571,1243)"/>
</svg>