<?xml version="1.0" encoding="UTF-8"?>
<svg height="1743" version="1.1" width="2679" xmlns="http://www.w3.org/2000/svg" xmlns:xlink="http://www.w3.org/1999/xlink">
 <path d="M0,0 l2679,0 l0,1743 l-2679,0 Z M0,0" fill="rgb(255,255,255)" transform="matrix(1,0,0,-1,0,1743)"/>
 <path d="M688,671 l-718,0 l0,-109 l384,0 l0,-47 l-146,0 c-82,0,-122,-44,-122,-99 c0,-63,47,-139,162,-172 l155,30 c11,-6,18,-21,18,-36 c0,-38,-40,-60,-106,-60 c-83,0,-163,36,-221,110 l-70,-82 c66,-93,182,-131,288,-131 c14,0,28,1,41,2 l0,-57 l-196,0 l-85,-61 c0,-81,48,-131,97,-148 l63,23 l0,80 l121,0 l0,-180 l120,0 l0,384 c46,31,70,77,70,127 c0,62,-36,119,-92,135 l-194,-30 c-22,6,-33,26,-33,39 c0,19,13,30,42,30 l222,0 l0,143 l200,0 Z M672,409 c0,36,-28,66,-65,66 c-37,0,-67,-30,-67,-66 c0,-36,29,-66,66,-66 c37,0,66,30,66,66 Z M672,409" fill="rgb(0,0,0)" transform="matrix(1,0,0,-1,571,1243)"/>
</svg>