<?xml version="1.0" encoding="UTF-8"?>
<svg height="1743" version="1.1" width="2679" xmlns="http://www.w3.org/2000/svg" xmlns:xlink="http://www.w3.org/1999/xlink">
 <path d="M0,0 l2679,0 l0,1743 l-2679,0 Z M0,0" fill="rgb(255,255,255)" transform="matrix(1,0,0,-1,0,1743)"/>
 <path d="M694,562 l0,-184 c-63,-55,-132,-63,-174,-63 c-47,0,-89,19,-118,33 l-157,-37 c-27,8,-40,33,-40,48 c0,21,3,37,61,37 l190,0 l0,166 Z M603,168 l-99,-77 l-20,-62 c17,-50,60,-84,122,-90 l65,56 l-40,55 l70,60 l4,0 l0,-110 l125,0 l0,562 l105,0 l0,109 l-965,0 l0,-109 l348,0 l0,-56 l-120,0 c-89,0,-135,-41,-135,-108 c0,-81,57,-169,169,-206 l133,34 c7,-4,16,-18,16,-35 c0,-54,-59,-76,-117,-76 l-14,0 l-157,96 c-33,-15,-54,-44,-54,-84 c0,-54,45,-118,169,-118 l178,-156 l145,77 l-169,100 l0,4 c87,17,147,77,147,159 c0,7,0,13,-1,20 c13,-2,27,-3,42,-3 c28,0,95,3,149,37 l2,-3 Z M603,168" fill="rgb(0,0,0)" transform="matrix(1,0,0,-1,571,1243)"/>
</svg>