<?xml version="1.0" encoding="UTF-8"?>
<svg height="1743" version="1.1" width="2679" xmlns="http://www.w3.org/2000/svg" xmlns:xlink="http://www.w3.org/1999/xlink">
 <path d="M0,0 l2679,0 l0,1743 l-2679,0 Z M0,0" fill="rgb(255,255,255)" transform="matrix(1,0,0,-1,0,1743)"/>
 <path d="M292,77 c-71,50,-116,108,-116,184 c0,62,36,96,84,96 l221,0 l0,-4 l-203,-58 l-43,-73 c16,-62,71,-92,121,-98 l50,39 l-15,46 l79,27 l-6,-236 l132,0 l0,562 l105,0 l0,109 l-731,0 l0,-109 l485,0 l0,-89 l-209,0 c-100,0,-203,-67,-203,-207 c0,-132,78,-226,153,-277 Z M292,77" fill="rgb(0,0,0)" transform="matrix(1,0,0,-1,571,1243)"/>
</svg>