<?xml version="1.0" encoding="UTF-8"?>
<svg height="1743" version="1.1" width="2679" xmlns="http://www.w3.org/2000/svg" xmlns:xlink="http://www.w3.org/1999/xlink">
 <path d="M0,0 l2679,0 l0,1743 l-2679,0 Z M0,0" fill="rgb(255,255,255)" transform="matrix(1,0,0,-1,0,1743)"/>
 <path d="M270,-22 l-39,58 l154,103 l4,0 l0,-139 l142,0 l0,562 l105,0 l0,109 l-666,0 l0,-109 l420,0 l0,-279 l-5,-3 l-158,112 c12,6,26,9,41,9 c21,0,45,-2,69,-10 l-7,118 c-27,7,-45,9,-77,9 c-101,0,-209,-70,-209,-201 c0,-117,86,-170,138,-174 l0,-4 l-42,-22 l-47,-33 l-22,-76 c30,-59,102,-86,161,-82 Z M177,314 c0,12,2,23,6,33 l155,-109 c-18,-13,-39,-20,-62,-20 c-55,0,-99,36,-99,96 Z M177,314" fill="rgb(0,0,0)" transform="matrix(1,0,0,-1,571,1243)"/>
</svg>