<?xml version="1.0" encoding="UTF-8"?>
<svg height="1743" version="1.1" width="2679" xmlns="http://www.w3.org/2000/svg" xmlns:xlink="http://www.w3.org/1999/xlink">
 <path d="M0,0 l2679,0 l0,1743 l-2679,0 Z M0,0" fill="rgb(255,255,255)" transform="matrix(1,0,0,-1,0,1743)"/>
 <path d="M189,346 c72,13,123,47,123,118 c0,29,-9,65,-40,94 l0,4 l148,0 l0,-257 c-19,-33,-60,-61,-117,-61 c-66,0,-105,44,-114,102 Z M415,170 l4,0 l0,-170 l141,0 l0,562 l105,0 l0,109 l-695,0 l0,-109 l173,0 c19,-24,29,-58,29,-78 c0,-64,-58,-76,-133,-92 c0,-149,93,-214,164,-223 l0,-4 l-47,-26 l-69,-48 l-22,-76 c30,-59,102,-86,161,-82 l38,52 l-39,58 Z M415,170" fill="rgb(0,0,0)" transform="matrix(1,0,0,-1,571,1243)"/>
</svg>