<?xml version="1.0" encoding="UTF-8"?>
<svg height="1743" version="1.1" width="2679" xmlns="http://www.w3.org/2000/svg" xmlns:xlink="http://www.w3.org/1999/xlink">
 <path d="M0,0 l2679,0 l0,1743 l-2679,0 Z M0,0" fill="rgb(255,255,255)" transform="matrix(1,0,0,-1,0,1743)"/>
 <path d="M42,294 l-15,-109 l119,0 l-26,-185 l127,0 l26,185 l125,0 l-26,-185 l127,0 l26,185 l99,0 l15,109 l-99,0 l15,113 l100,0 l15,109 l-99,0 l26,185 l-127,0 l-26,-185 l-125,0 l26,185 l-127,0 l-26,-185 l-119,0 l-15,-109 l119,0 l-18,-113 Z M304,407 l124,0 l-15,-113 l-127,0 Z M304,407" fill="rgb(0,0,0)" transform="matrix(1,0,0,-1,571,1243)"/>
</svg>