<?xml version="1.0" encoding="UTF-8"?>
<svg height="1743" version="1.1" width="2679" xmlns="http://www.w3.org/2000/svg" xmlns:xlink="http://www.w3.org/1999/xlink">
 <path d="M0,0 l2679,0 l0,1743 l-2679,0 Z M0,0" fill="rgb(255,255,255)" transform="matrix(1,0,0,-1,0,1743)"/>
 <path d="M296,289 c0,313,-165,508,-219,553 l-137,0 l0,-14 c116,-110,231,-297,231,-539 c0,-242,-115,-429,-231,-539 l0,-14 l137,0 c54,45,219,240,219,553 Z M296,289" fill="rgb(0,0,0)" transform="matrix(1,0,0,-1,571,1243)"/>
</svg>