<?xml version="1.0" encoding="UTF-8"?>
<svg height="1743" version="1.1" width="2679" xmlns="http://www.w3.org/2000/svg" xmlns:xlink="http://www.w3.org/1999/xlink">
 <path d="M0,0 l2679,0 l0,1743 l-2679,0 Z M0,0" fill="rgb(255,255,255)" transform="matrix(1,0,0,-1,0,1743)"/>
 <path d="M261,-10 c151,0,237,98,237,242 c0,128,-60,202,-198,202 c-29,0,-68,-12,-85,-25 l-4,0 l14,142 l239,0 l0,120 l-368,0 l-28,-339 l121,-43 c18,19,42,32,73,32 c59,0,91,-37,91,-107 c0,-64,-27,-103,-82,-103 c-50,0,-78,33,-94,81 l-144,-61 c26,-69,84,-141,228,-141 Z M261,-10" fill="rgb(0,0,0)" transform="matrix(1,0,0,-1,571,1243)"/>
</svg>