<?xml version="1.0" encoding="UTF-8"?>
<svg height="1743" version="1.1" width="2679" xmlns="http://www.w3.org/2000/svg" xmlns:xlink="http://www.w3.org/1999/xlink">
 <path d="M0,0 l2679,0 l0,1743 l-2679,0 Z M0,0" fill="rgb(255,255,255)" transform="matrix(1,0,0,-1,0,1743)"/>
 <path d="M242,441 c40,72,100,145,214,211 l0,19 l-186,0 c-119,-84,-221,-242,-221,-422 c0,-153,59,-259,223,-259 c141,0,237,97,237,248 c0,150,-87,210,-205,210 c-21,0,-48,-4,-60,-10 Z M263,329 c67,0,101,-43,101,-108 c0,-77,-23,-110,-77,-110 c-48,0,-94,31,-94,142 c0,22,1,45,5,67 c21,6,37,9,65,9 Z M263,329" fill="rgb(0,0,0)" transform="matrix(1,0,0,-1,571,1243)"/>
</svg>