<?xml version="1.0" encoding="UTF-8"?>
<svg height="1743" version="1.1" width="2679" xmlns="http://www.w3.org/2000/svg" xmlns:xlink="http://www.w3.org/1999/xlink">
 <path d="M0,0 l2679,0 l0,1743 l-2679,0 Z M0,0" fill="rgb(255,255,255)" transform="matrix(1,0,0,-1,0,1743)"/>
 <path d="M231,0 l0,25 c0,116,26,187,77,272 l137,232 l-23,142 l-432,0 l0,-129 l178,0 c63,0,118,7,118,7 l0,-4 l-73,-124 l-51,-96 c-41,-80,-78,-173,-78,-298 l0,-27 Z M231,0" fill="rgb(0,0,0)" transform="matrix(1,0,0,-1,571,1243)"/>
</svg>