<?xml version="1.0" encoding="UTF-8"?>
<svg height="1743" version="1.1" width="2679" xmlns="http://www.w3.org/2000/svg" xmlns:xlink="http://www.w3.org/1999/xlink">
 <path d="M0,0 l2679,0 l0,1743 l-2679,0 Z M0,0" fill="rgb(255,255,255)" transform="matrix(1,0,0,-1,0,1743)"/>
 <path d="M282,397 c-58,0,-76,34,-76,88 c0,46,20,77,76,77 c52,0,75,-32,75,-77 c0,-55,-18,-88,-75,-88 Z M280,-10 c145,0,238,68,238,210 c0,95,-58,135,-121,148 l0,4 c56,20,104,72,104,145 c0,123,-74,184,-218,184 c-140,0,-221,-70,-221,-195 c0,-78,47,-129,104,-143 l0,-4 c-69,-21,-121,-72,-121,-155 c0,-135,86,-194,235,-194 Z M281,281 c76,0,94,-41,94,-86 c0,-56,-26,-88,-92,-88 c-67,0,-95,33,-95,86 c0,43,20,88,93,88 Z M281,281" fill="rgb(0,0,0)" transform="matrix(1,0,0,-1,571,1243)"/>
</svg>