<?xml version="1.0" encoding="UTF-8"?>
<svg height="1743" version="1.1" width="2679" xmlns="http://www.w3.org/2000/svg" xmlns:xlink="http://www.w3.org/1999/xlink">
 <path d="M0,0 l2679,0 l0,1743 l-2679,0 Z M0,0" fill="rgb(255,255,255)" transform="matrix(1,0,0,-1,0,1743)"/>
 <path d="M298,236 c-34,-70,-102,-152,-215,-217 l0,-19 l186,0 c118,86,217,254,217,425 c0,154,-61,256,-221,256 c-141,0,-238,-87,-238,-240 c0,-149,94,-207,213,-207 c21,0,39,0,56,5 Z M269,353 c-66,0,-98,38,-98,106 c0,75,28,101,80,101 c45,0,91,-34,91,-141 c0,-21,-1,-33,-4,-55 c-20,-7,-40,-11,-69,-11 Z M269,353" fill="rgb(0,0,0)" transform="matrix(1,0,0,-1,571,1243)"/>
</svg>