<?xml version="1.0" encoding="UTF-8"?>
<svg height="1743" version="1.1" width="2679" xmlns="http://www.w3.org/2000/svg" xmlns:xlink="http://www.w3.org/1999/xlink">
 <path d="M0,0 l2679,0 l0,1743 l-2679,0 Z M0,0" fill="rgb(255,255,255)" transform="matrix(1,0,0,-1,0,1743)"/>
 <path d="M664,-112 l-45,100 c-31,-19,-88,-36,-148,-36 c-181,0,-285,89,-285,279 c0,205,138,370,358,370 c190,0,287,-92,287,-246 c0,-80,-39,-193,-121,-193 c-24,0,-31,15,-31,35 c0,10,2,22,4,34 l38,229 c-38,27,-104,41,-156,41 c-122,0,-272,-62,-272,-282 c0,-92,48,-165,161,-165 c40,0,84,14,112,52 l4,0 c19,-33,57,-54,122,-54 c159,0,264,127,264,322 c0,207,-154,340,-392,340 c-302,0,-504,-210,-504,-500 c0,-229,129,-374,390,-374 c95,0,164,20,214,48 Z M482,164 c-39,0,-59,18,-59,78 c0,94,57,147,119,147 c16,0,28,-3,38,-5 l-25,-146 c-2,-11,-5,-40,-5,-48 c-16,-13,-37,-26,-68,-26 Z M482,164" fill="rgb(0,0,0)" transform="matrix(1,0,0,-1,571,1243)"/>
</svg>