<?xml version="1.0" encoding="UTF-8"?>
<svg height="1743" version="1.1" width="2679" xmlns="http://www.w3.org/2000/svg" xmlns:xlink="http://www.w3.org/1999/xlink">
 <path d="M0,0 l2679,0 l0,1743 l-2679,0 Z M0,0" fill="rgb(255,255,255)" transform="matrix(1,0,0,-1,0,1743)"/>
 <path d="M452,367 l0,4 c53,19,102,69,102,148 c0,141,-102,182,-226,182 l-251,0 l0,-701 l232,0 c233,0,279,124,279,215 c0,99,-69,144,-136,152 Z M407,498 c0,-40,-29,-78,-103,-78 l-76,0 l0,155 l82,0 c72,0,97,-34,97,-77 Z M333,126 l-105,0 l0,168 l97,0 c57,0,108,-23,108,-84 c0,-40,-23,-84,-100,-84 Z M333,126" fill="rgb(0,0,0)" transform="matrix(1,0,0,-1,571,1243)"/>
</svg>