<?xml version="1.0" encoding="UTF-8"?>
<svg height="1743" version="1.1" width="2679" xmlns="http://www.w3.org/2000/svg" xmlns:xlink="http://www.w3.org/1999/xlink">
 <path d="M0,0 l2679,0 l0,1743 l-2679,0 Z M0,0" fill="rgb(255,255,255)" transform="matrix(1,0,0,-1,0,1743)"/>
 <path d="M451,323 l-133,378 l-235,0 l0,-701 l140,0 l0,519 l6,0 l154,-435 l126,0 c52,145,104,290,156,435 l4,0 l0,-519 l146,0 l0,701 l-229,0 l-131,-378 Z M451,323" fill="rgb(0,0,0)" transform="matrix(1,0,0,-1,571,1243)"/>
</svg>