<?xml version="1.0" encoding="UTF-8"?>
<svg height="1743" version="1.1" width="2679" xmlns="http://www.w3.org/2000/svg" xmlns:xlink="http://www.w3.org/1999/xlink">
 <path d="M0,0 l2679,0 l0,1743 l-2679,0 Z M0,0" fill="rgb(255,255,255)" transform="matrix(1,0,0,-1,0,1743)"/>
 <path d="M321,701 l-240,0 l0,-701 l153,0 l0,249 l58,0 c205,0,274,113,274,244 c0,155,-103,208,-245,208 Z M296,572 c78,0,112,-31,112,-100 c0,-54,-22,-98,-124,-98 l-50,0 l0,198 Z M296,572" fill="rgb(0,0,0)" transform="matrix(1,0,0,-1,571,1243)"/>
</svg>