<?xml version="1.0" encoding="UTF-8"?>
<svg height="1743" version="1.1" width="2679" xmlns="http://www.w3.org/2000/svg" xmlns:xlink="http://www.w3.org/1999/xlink">
 <path d="M0,0 l2679,0 l0,1743 l-2679,0 Z M0,0" fill="rgb(255,255,255)" transform="matrix(1,0,0,-1,0,1743)"/>
 <path d="M68,26 c48,-22,104,-36,197,-36 c188,0,289,131,289,303 c0,208,-95,278,-223,278 c-47,0,-88,-16,-110,-31 l-4,0 l0,218 l-149,0 Z M276,110 c-21,0,-40,2,-57,8 l0,299 c14,16,41,30,76,30 c65,0,109,-40,109,-166 c0,-120,-48,-171,-128,-171 Z M276,110" fill="rgb(0,0,0)" transform="matrix(1,0,0,-1,571,1243)"/>
</svg>