<?xml version="1.0" encoding="UTF-8"?>
<svg height="1743" version="1.1" width="2679" xmlns="http://www.w3.org/2000/svg" xmlns:xlink="http://www.w3.org/1999/xlink">
 <path d="M0,0 l2679,0 l0,1743 l-2679,0 Z M0,0" fill="rgb(255,255,255)" transform="matrix(1,0,0,-1,0,1743)"/>
 <path d="M448,159 c-21,-22,-63,-51,-124,-51 c-96,0,-136,49,-138,138 l337,0 c6,44,7,72,7,101 c0,138,-83,229,-227,229 c-163,0,-265,-109,-265,-292 c0,-195,91,-295,269,-295 c108,0,163,27,207,63 Z M299,462 c61,0,89,-35,89,-101 l0,-15 l-199,0 c2,66,42,116,110,116 Z M299,462" fill="rgb(0,0,0)" transform="matrix(1,0,0,-1,571,1243)"/>
</svg>