<?xml version="1.0" encoding="UTF-8"?>
<svg height="1743" version="1.1" width="2679" xmlns="http://www.w3.org/2000/svg" xmlns:xlink="http://www.w3.org/1999/xlink">
 <path d="M0,0 l2679,0 l0,1743 l-2679,0 Z M0,0" fill="rgb(255,255,255)" transform="matrix(1,0,0,-1,0,1743)"/>
 <path d="M398,772 c-24,6,-51,10,-92,10 c-140,0,-202,-83,-202,-177 l0,-40 l-86,0 l0,-104 l83,0 l0,-461 l151,0 l0,461 l126,0 l0,104 l-123,0 l0,36 c0,39,15,59,57,59 c19,0,42,-4,65,-10 Z M398,772" fill="rgb(0,0,0)" transform="matrix(1,0,0,-1,571,1243)"/>
</svg>