<?xml version="1.0" encoding="UTF-8"?>
<svg height="1743" version="1.1" width="2679" xmlns="http://www.w3.org/2000/svg" xmlns:xlink="http://www.w3.org/1999/xlink">
 <path d="M0,0 l2679,0 l0,1743 l-2679,0 Z M0,0" fill="rgb(255,255,255)" transform="matrix(1,0,0,-1,0,1743)"/>
 <path d="M372,569 c-65,0,-117,-28,-149,-61 l-4,0 l0,250 l-151,0 l0,-758 l151,0 l0,379 c19,35,61,62,97,62 c51,0,78,-30,78,-90 l0,-351 l151,0 l0,381 c0,127,-63,188,-173,188 Z M372,569" fill="rgb(0,0,0)" transform="matrix(1,0,0,-1,571,1243)"/>
</svg>