<?xml version="1.0" encoding="UTF-8"?>
<svg height="1743" version="1.1" width="2679" xmlns="http://www.w3.org/2000/svg" xmlns:xlink="http://www.w3.org/1999/xlink">
 <path d="M0,0 l2679,0 l0,1743 l-2679,0 Z M0,0" fill="rgb(255,255,255)" transform="matrix(1,0,0,-1,0,1743)"/>
 <path d="M559,306 c0,176,-85,269,-209,269 c-71,0,-114,-33,-135,-58 l-4,0 l-32,48 l-111,0 l0,-759 l150,0 l0,200 c27,-6,54,-9,87,-9 c136,0,254,101,254,309 Z M216,136 l0,274 c18,27,49,43,83,43 c59,0,106,-48,106,-160 c0,-132,-45,-174,-118,-174 c-15,0,-49,4,-71,17 Z M216,136" fill="rgb(0,0,0)" transform="matrix(1,0,0,-1,571,1243)"/>
</svg>