<?xml version="1.0" encoding="UTF-8"?>
<svg height="1743" version="1.1" width="2679" xmlns="http://www.w3.org/2000/svg" xmlns:xlink="http://www.w3.org/1999/xlink">
 <path d="M0,0 l2679,0 l0,1743 l-2679,0 Z M0,0" fill="rgb(255,255,255)" transform="matrix(1,0,0,-1,0,1743)"/>
 <path d="M522,535 c-44,21,-113,35,-205,35 c-191,0,-279,-133,-279,-299 c0,-209,97,-281,217,-281 c53,0,98,15,118,31 l4,0 l0,-215 l145,0 Z M306,451 c31,0,49,-3,70,-10 l0,-299 c-14,-15,-44,-28,-79,-28 c-62,0,-109,28,-109,163 c0,112,37,174,118,174 Z M306,451" fill="rgb(0,0,0)" transform="matrix(1,0,0,-1,571,1243)"/>
</svg>