<?xml version="1.0" encoding="UTF-8"?>
<svg height="1743" version="1.1" width="2679" xmlns="http://www.w3.org/2000/svg" xmlns:xlink="http://www.w3.org/1999/xlink">
 <path d="M0,0 l2679,0 l0,1743 l-2679,0 Z M0,0" fill="rgb(255,255,255)" transform="matrix(1,0,0,-1,0,1743)"/>
 <path d="M302,354 c-70,0,-88,36,-88,65 c0,109,30,172,30,265 c0,100,-51,157,-164,157 c-23,0,-54,-2,-78,-12 l13,-98 c12,3,25,6,44,6 c43,0,55,-29,55,-56 c0,-94,-27,-152,-27,-244 c0,-69,30,-122,98,-139 l0,-4 c-68,-17,-98,-70,-98,-139 c0,-92,27,-162,27,-256 c0,-27,-12,-56,-55,-56 c-19,0,-32,3,-44,6 l-13,-98 c24,-10,46,-12,69,-12 c113,0,173,57,173,157 c0,93,-30,168,-30,277 c0,29,18,65,88,65 Z M302,354" fill="rgb(0,0,0)" transform="matrix(1,0,0,-1,571,1243)"/>
</svg>