<?xml version="1.0" encoding="UTF-8"?>
<svg height="1743" version="1.1" width="2679" xmlns="http://www.w3.org/2000/svg" xmlns:xlink="http://www.w3.org/1999/xlink">
 <path d="M0,0 l2679,0 l0,1743 l-2679,0 Z M0,0" fill="rgb(255,255,255)" transform="matrix(1,0,0,-1,0,1743)"/>
 <path d="M221,131 c20,16,42,42,46,108 l4,59 l184,0 l0,117 l-177,0 l7,86 c5,58,26,86,75,86 c49,0,79,-23,102,-56 l95,97 c-34,46,-80,85,-189,85 c-119,0,-219,-71,-231,-214 l-7,-84 l-80,0 l0,-117 l72,0 l-4,-73 c-4,-78,-36,-103,-73,-118 l24,-107 l466,0 l0,127 l-314,0 Z M221,131" fill="rgb(0,0,0)" transform="matrix(1,0,0,-1,571,1243)"/>
</svg>