<?xml version="1.0" encoding="UTF-8"?>
<svg height="1743" version="1.1" width="2679" xmlns="http://www.w3.org/2000/svg" xmlns:xlink="http://www.w3.org/1999/xlink">
 <path d="M0,0 l2679,0 l0,1743 l-2679,0 Z M0,0" fill="rgb(255,255,255)" transform="matrix(1,0,0,-1,0,1743)"/>
 <path d="M140,347 c0,156,109,268,274,268 c165,0,272,-110,272,-268 c0,-153,-115,-267,-272,-267 c-162,0,-274,111,-274,267 Z M35,347 c0,-213,163,-368,379,-368 c212,0,377,158,377,368 c0,216,-161,370,-377,370 c-213,0,-379,-157,-379,-370 Z M244,348 c0,-118,51,-209,178,-209 c72,0,112,33,130,54 l-57,70 c-14,-21,-30,-38,-73,-38 c-50,0,-72,40,-72,123 c0,86,23,123,72,123 c42,0,57,-15,72,-38 l59,71 c-12,19,-50,51,-131,51 c-117,0,-178,-84,-178,-207 Z M244,348" fill="rgb(0,0,0)" transform="matrix(1,0,0,-1,571,1243)"/>
</svg>