<?xml version="1.0" encoding="UTF-8"?>
<svg height="1743" version="1.1" width="2679" xmlns="http://www.w3.org/2000/svg" xmlns:xlink="http://www.w3.org/1999/xlink">
 <path d="M0,0 l2679,0 l0,1743 l-2679,0 Z M0,0" fill="rgb(255,255,255)" transform="matrix(1,0,0,-1,0,1743)"/>
 <path d="M42,551 c0,-95,67,-156,161,-156 c95,0,165,65,165,160 c0,95,-66,156,-161,156 c-94,0,-165,-65,-165,-160 Z M127,555 c0,47,28,80,76,80 c49,0,79,-37,79,-84 c0,-47,-26,-81,-75,-81 c-48,0,-80,38,-80,85 Z M127,555" fill="rgb(0,0,0)" transform="matrix(1,0,0,-1,571,1243)"/>
</svg>