<?xml version="1.0" encoding="UTF-8"?>
<svg height="1743" version="1.1" width="2679" xmlns="http://www.w3.org/2000/svg" xmlns:xlink="http://www.w3.org/1999/xlink">
 <path d="M0,0 l2679,0 l0,1743 l-2679,0 Z M0,0" fill="rgb(255,255,255)" transform="matrix(1,0,0,-1,0,1743)"/>
 <path d="M216,498 c26,23,51,47,72,73 c28,35,47,70,47,115 c0,70,-44,117,-142,117 c-106,0,-152,-53,-160,-119 l110,-18 c1,29,14,56,43,56 c23,0,38,-12,38,-44 c0,-14,-8,-32,-20,-51 c-43,-64,-146,-144,-176,-171 l18,-77 l296,0 l0,80 l-104,0 l-75,-4 Z M216,498" fill="rgb(0,0,0)" transform="matrix(1,0,0,-1,571,1243)"/>
</svg>