<?xml version="1.0" encoding="UTF-8"?>
<svg height="1743" version="1.1" width="2679" xmlns="http://www.w3.org/2000/svg" xmlns:xlink="http://www.w3.org/1999/xlink">
 <path d="M0,0 l2679,0 l0,1743 l-2679,0 Z M0,0" fill="rgb(255,255,255)" transform="matrix(1,0,0,-1,0,1743)"/>
 <path d="M545,701 l-108,0 l0,-701 l108,0 Z M347,701 l-67,0 c-143,0,-243,-74,-243,-213 c0,-127,61,-186,171,-186 c8,0,19,1,28,2 l0,-257 c0,-102,-23,-130,-82,-181 l77,-77 c61,45,116,119,116,236 Z M347,701" fill="rgb(0,0,0)" transform="matrix(1,0,0,-1,571,1243)"/>
</svg>