<?xml version="1.0" encoding="UTF-8"?>
<svg height="1743" version="1.1" width="2679" xmlns="http://www.w3.org/2000/svg" xmlns:xlink="http://www.w3.org/1999/xlink">
 <path d="M0,0 l2679,0 l0,1743 l-2679,0 Z M0,0" fill="rgb(255,255,255)" transform="matrix(1,0,0,-1,0,1743)"/>
 <path d="M245,-46 c-43,0,-70,27,-70,66 c0,93,162,111,162,215 c0,44,-29,70,-67,83 l-139,-118 c-86,-73,-108,-123,-108,-202 c0,-108,76,-172,205,-172 c131,0,200,50,231,84 l-98,110 c-19,-24,-56,-66,-116,-66 Z M319,485 c0,52,-37,89,-90,89 c-55,0,-93,-39,-93,-89 c0,-57,36,-94,92,-94 c50,0,91,39,91,94 Z M319,485" fill="rgb(0,0,0)" transform="matrix(1,0,0,-1,571,1243)"/>
</svg>