<?xml version="1.0" encoding="UTF-8"?>
<svg height="1743" version="1.1" width="2679" xmlns="http://www.w3.org/2000/svg" xmlns:xlink="http://www.w3.org/1999/xlink">
 <path d="M0,0 l2679,0 l0,1743 l-2679,0 Z M0,0" fill="rgb(255,255,255)" transform="matrix(1,0,0,-1,0,1743)"/>
 <path d="M870,0 l0,126 l-281,0 l0,167 l232,0 l0,126 l-232,0 l0,156 l269,0 l0,126 l-514,0 l-350,-701 l159,0 l89,181 l201,0 l0,-181 Z M443,579 l0,-274 l-139,0 l135,274 Z M443,579" fill="rgb(0,0,0)" transform="matrix(1,0,0,-1,571,1243)"/>
</svg>