<?xml version="1.0" encoding="UTF-8"?>
<svg height="1743" version="1.1" width="2679" xmlns="http://www.w3.org/2000/svg" xmlns:xlink="http://www.w3.org/1999/xlink">
 <path d="M0,0 l2679,0 l0,1743 l-2679,0 Z M0,0" fill="rgb(255,255,255)" transform="matrix(1,0,0,-1,0,1743)"/>
 <path d="M223,510 c29,-77,58,-146,93,-214 l154,-296 l179,0 l0,701 l-145,0 l0,-222 c0,-74,0,-171,8,-269 l-4,0 c-26,70,-64,148,-99,215 l-143,276 l-183,0 l0,-701 l146,0 l0,265 c0,121,-3,175,-10,245 Z M277,925 c-59,0,-100,-44,-115,-69 l59,-86 c21,30,42,44,76,44 c39,0,103,-41,157,-41 c59,0,100,44,115,69 l-59,86 c-24,-32,-39,-44,-75,-44 c-46,0,-96,41,-158,41 Z M277,925" fill="rgb(0,0,0)" transform="matrix(1,0,0,-1,571,1243)"/>
</svg>