<?xml version="1.0" encoding="UTF-8"?>
<svg height="1743" version="1.1" width="2679" xmlns="http://www.w3.org/2000/svg" xmlns:xlink="http://www.w3.org/1999/xlink">
 <path d="M0,0 l2679,0 l0,1743 l-2679,0 Z M0,0" fill="rgb(255,255,255)" transform="matrix(1,0,0,-1,0,1743)"/>
 <path d="M356,118 c-90,0,-125,55,-125,155 l0,428 l-153,0 l0,-458 c0,-144,76,-253,257,-253 c155,0,286,72,286,286 l0,425 l-153,0 l0,-447 c0,-97,-39,-136,-112,-136 Z M144,853 c0,-44,34,-79,80,-79 c46,0,80,35,80,79 c0,44,-34,79,-80,79 c-46,0,-80,-35,-80,-79 Z M394,853 c0,-44,34,-79,80,-79 c46,0,80,35,80,79 c0,44,-34,79,-80,79 c-46,0,-80,-35,-80,-79 Z M394,853" fill="rgb(0,0,0)" transform="matrix(1,0,0,-1,571,1243)"/>
</svg>