<?xml version="1.0" encoding="UTF-8"?>
<svg height="1743" version="1.1" width="2679" xmlns="http://www.w3.org/2000/svg" xmlns:xlink="http://www.w3.org/1999/xlink">
 <path d="M0,0 l2679,0 l0,1743 l-2679,0 Z M0,0" fill="rgb(255,255,255)" transform="matrix(1,0,0,-1,0,1743)"/>
 <path d="M277,389 c25,89,40,146,52,206 l4,0 c12,-62,26,-113,53,-210 l27,-98 l-165,0 Z M664,-235 l-28,85 c-20,-11,-41,-18,-62,-18 c-30,0,-45,16,-45,42 c0,54,82,103,123,126 l-213,701 l-213,0 l-212,-701 l154,0 l45,161 l235,0 l44,-161 l5,0 c-43,-35,-79,-83,-79,-143 c0,-63,38,-117,137,-117 c46,0,88,13,109,25 Z M664,-235" fill="rgb(0,0,0)" transform="matrix(1,0,0,-1,571,1243)"/>
</svg>