<?xml version="1.0" encoding="UTF-8"?>
<svg height="1743" version="1.1" width="2679" xmlns="http://www.w3.org/2000/svg" xmlns:xlink="http://www.w3.org/1999/xlink">
 <path d="M0,0 l2679,0 l0,1743 l-2679,0 Z M0,0" fill="rgb(255,255,255)" transform="matrix(1,0,0,-1,0,1743)"/>
 <path d="M46,343 c0,-209,84,-353,299,-353 c121,0,192,46,222,82 l-84,108 c-21,-25,-60,-59,-125,-59 c-105,0,-155,87,-155,232 c0,157,48,228,142,228 c74,0,107,-36,130,-64 l100,111 c-19,21,-81,82,-219,82 c-205,0,-310,-146,-310,-367 Z M556,867 l-56,90 l-151,-85 l-154,84 l-50,-89 l204,-125 Z M556,867" fill="rgb(0,0,0)" transform="matrix(1,0,0,-1,571,1243)"/>
</svg>