<?xml version="1.0" encoding="UTF-8"?>
<svg height="1743" version="1.1" width="2679" xmlns="http://www.w3.org/2000/svg" xmlns:xlink="http://www.w3.org/1999/xlink">
 <path d="M0,0 l2679,0 l0,1743 l-2679,0 Z M0,0" fill="rgb(255,255,255)" transform="matrix(1,0,0,-1,0,1743)"/>
 <path d="M293,-351 c71,23,151,89,151,192 c0,58,-34,103,-91,103 c-47,0,-75,-34,-75,-75 l0,-5 c35,-16,79,-35,79,-76 c0,-32,-27,-71,-88,-92 Z M379,711 c-186,0,-333,-114,-333,-367 c0,-234,99,-354,298,-354 c130,0,200,27,251,62 l0,309 l-153,0 l0,-237 c-14,-6,-45,-10,-66,-10 c-117,0,-173,75,-173,248 c0,166,78,217,170,217 c65,0,102,-28,128,-56 l98,107 c-19,22,-82,81,-220,81 Z M379,711" fill="rgb(0,0,0)" transform="matrix(1,0,0,-1,571,1243)"/>
</svg>