<?xml version="1.0" encoding="UTF-8"?>
<svg height="1743" version="1.1" width="2679" xmlns="http://www.w3.org/2000/svg" xmlns:xlink="http://www.w3.org/1999/xlink">
 <path d="M0,0 l2679,0 l0,1743 l-2679,0 Z M0,0" fill="rgb(255,255,255)" transform="matrix(1,0,0,-1,0,1743)"/>
 <path d="M376,927 c-78,-26,-151,-105,-151,-197 c0,-56,32,-98,87,-98 c44,0,73,33,73,71 l0,12 c-32,10,-57,28,-57,63 c0,38,32,70,87,94 Z M523,538 c-50,22,-111,34,-210,34 c-185,0,-275,-129,-275,-288 c0,-203,105,-261,222,-261 c51,0,90,13,111,32 l4,0 l0,-29 c0,-80,-33,-109,-111,-109 c-59,0,-114,27,-142,66 l-85,-111 c32,-38,88,-77,227,-77 c151,0,259,76,259,230 Z M374,443 l0,-269 c-19,-19,-46,-29,-79,-29 c-67,0,-107,29,-107,145 c0,108,45,163,124,163 c24,0,41,-3,62,-10 Z M374,443" fill="rgb(0,0,0)" transform="matrix(1,0,0,-1,571,1243)"/>
</svg>