<?xml version="1.0" encoding="UTF-8"?>
<svg height="1743" version="1.1" width="2679" xmlns="http://www.w3.org/2000/svg" xmlns:xlink="http://www.w3.org/1999/xlink">
 <path d="M0,0 l2679,0 l0,1743 l-2679,0 Z M0,0" fill="rgb(255,255,255)" transform="matrix(1,0,0,-1,0,1743)"/>
 <path d="M720,515 l0,82 l-70,0 l0,104 l-153,0 l0,-104 l-255,0 l0,104 l-153,0 l0,-104 l-70,0 l0,-82 l70,0 l0,-515 l153,0 l0,287 l255,0 l0,-287 l153,0 l0,515 Z M242,413 l0,102 l255,0 l0,-102 Z M242,413" fill="rgb(0,0,0)" transform="matrix(1,0,0,-1,571,1243)"/>
</svg>