<?xml version="1.0" encoding="UTF-8"?>
<svg height="1743" version="1.1" width="2679" xmlns="http://www.w3.org/2000/svg" xmlns:xlink="http://www.w3.org/1999/xlink">
 <path d="M0,0 l2679,0 l0,1743 l-2679,0 Z M0,0" fill="rgb(255,255,255)" transform="matrix(1,0,0,-1,0,1743)"/>
 <path d="M262,-341 c71,23,151,89,151,192 c0,58,-34,103,-91,103 c-47,0,-75,-34,-75,-75 l0,-5 c35,-16,79,-35,79,-76 c0,-32,-27,-71,-88,-92 Z M234,701 l-153,0 l0,-701 l153,0 Z M238,357 l0,-4 l215,-353 l191,0 l-240,360 l218,341 l-176,0 Z M238,357" fill="rgb(0,0,0)" transform="matrix(1,0,0,-1,571,1243)"/>
</svg>