<?xml version="1.0" encoding="UTF-8"?>
<svg height="1743" version="1.1" width="2679" xmlns="http://www.w3.org/2000/svg" xmlns:xlink="http://www.w3.org/1999/xlink">
 <path d="M0,0 l2679,0 l0,1743 l-2679,0 Z M0,0" fill="rgb(255,255,255)" transform="matrix(1,0,0,-1,0,1743)"/>
 <path d="M292,457 c80,26,156,107,156,202 c0,57,-34,101,-90,101 c-45,0,-75,-34,-75,-73 l0,-12 c33,-11,58,-29,58,-66 c0,-39,-33,-71,-89,-96 Z M68,758 l0,-619 c0,-94,55,-148,147,-148 c33,0,54,7,72,14 l0,119 c-5,-1,-10,-2,-21,-2 c-28,0,-47,14,-47,56 l0,580 Z M68,758" fill="rgb(0,0,0)" transform="matrix(1,0,0,-1,571,1243)"/>
</svg>