<?xml version="1.0" encoding="UTF-8"?>
<svg height="1743" version="1.1" width="2679" xmlns="http://www.w3.org/2000/svg" xmlns:xlink="http://www.w3.org/1999/xlink">
 <path d="M0,0 l2679,0 l0,1743 l-2679,0 Z M0,0" fill="rgb(255,255,255)" transform="matrix(1,0,0,-1,0,1743)"/>
 <path d="M223,510 c29,-77,58,-146,93,-214 l154,-296 l179,0 l0,701 l-145,0 l0,-222 c0,-74,0,-171,8,-269 l-4,0 c-26,70,-64,148,-99,215 l-143,276 l-183,0 l0,-701 l146,0 l0,265 c0,121,-3,175,-10,245 Z M605,893 l-131,77 l-184,-152 l78,-66 Z M605,893" fill="rgb(0,0,0)" transform="matrix(1,0,0,-1,571,1243)"/>
</svg>