<?xml version="1.0" encoding="UTF-8"?>
<svg height="1743" version="1.1" width="2679" xmlns="http://www.w3.org/2000/svg" xmlns:xlink="http://www.w3.org/1999/xlink">
 <path d="M0,0 l2679,0 l0,1743 l-2679,0 Z M0,0" fill="rgb(255,255,255)" transform="matrix(1,0,0,-1,0,1743)"/>
 <path d="M545,391 c0,127,-63,188,-173,188 c-59,0,-118,-26,-152,-67 l-4,0 l-30,53 l-118,0 l0,-565 l151,0 l0,384 c17,41,53,67,97,67 c51,0,78,-34,78,-92 l0,-359 l151,0 Z M543,757 l-131,77 l-184,-152 l78,-66 Z M543,757" fill="rgb(0,0,0)" transform="matrix(1,0,0,-1,571,1243)"/>
</svg>