<?xml version="1.0" encoding="UTF-8"?>
<svg height="1743" version="1.1" width="2679" xmlns="http://www.w3.org/2000/svg" xmlns:xlink="http://www.w3.org/1999/xlink">
 <path d="M0,0 l2679,0 l0,1743 l-2679,0 Z M0,0" fill="rgb(255,255,255)" transform="matrix(1,0,0,-1,0,1743)"/>
 <path d="M193,286 c0,115,30,171,99,171 c78,0,107,-62,107,-179 c0,-115,-24,-171,-101,-171 c-76,0,-105,62,-105,179 Z M293,-11 c187,0,261,121,261,295 c0,175,-61,291,-256,291 c-187,0,-260,-121,-260,-295 c0,-175,61,-291,255,-291 Z M296,616 c116,0,172,62,205,125 l-96,57 c-11,-26,-43,-75,-109,-75 c-66,0,-97,49,-108,75 l-97,-57 c33,-63,90,-125,205,-125 Z M296,616" fill="rgb(0,0,0)" transform="matrix(1,0,0,-1,571,1243)"/>
</svg>