<?xml version="1.0" encoding="UTF-8"?>
<svg height="1743" version="1.1" width="2679" xmlns="http://www.w3.org/2000/svg" xmlns:xlink="http://www.w3.org/1999/xlink">
 <path d="M0,0 l2679,0 l0,1743 l-2679,0 Z M0,0" fill="rgb(255,255,255)" transform="matrix(1,0,0,-1,0,1743)"/>
 <path d="M216,356 c0,174,53,228,128,228 c85,0,138,-62,138,-237 c0,-173,-49,-230,-129,-230 c-85,0,-137,62,-137,239 Z M640,354 c0,261,-113,357,-287,357 c-170,0,-294,-110,-294,-365 c0,-262,110,-356,285,-356 c171,0,296,109,296,364 Z M680,841 l-55,108 l-227,-128 l46,-91 Z M420,888 l-79,92 l-191,-174 l66,-78 Z M420,888" fill="rgb(0,0,0)" transform="matrix(1,0,0,-1,571,1243)"/>
</svg>