<?xml version="1.0" encoding="UTF-8"?>
<svg height="1743" version="1.1" width="2679" xmlns="http://www.w3.org/2000/svg" xmlns:xlink="http://www.w3.org/1999/xlink">
 <path d="M0,0 l2679,0 l0,1743 l-2679,0 Z M0,0" fill="rgb(255,255,255)" transform="matrix(1,0,0,-1,0,1743)"/>
 <path d="M935,0 l0,126 l-281,0 l0,167 l232,0 l0,126 l-232,0 l0,156 l269,0 l0,126 l-398,0 l0,-50 l-1,0 c-26,34,-83,60,-170,60 c-174,0,-308,-110,-308,-365 c0,-262,120,-356,298,-356 c99,0,158,35,180,70 l1,0 l0,-60 Z M203,356 c0,174,61,228,143,228 c87,0,149,-62,149,-237 c0,-173,-56,-230,-140,-230 c-84,0,-152,62,-152,239 Z M203,356" fill="rgb(0,0,0)" transform="matrix(1,0,0,-1,571,1243)"/>
</svg>