<?xml version="1.0" encoding="UTF-8"?>
<svg height="1743" version="1.1" width="2679" xmlns="http://www.w3.org/2000/svg" xmlns:xlink="http://www.w3.org/1999/xlink">
 <path d="M0,0 l2679,0 l0,1743 l-2679,0 Z M0,0" fill="rgb(255,255,255)" transform="matrix(1,0,0,-1,0,1743)"/>
 <path d="M475,70 c40,-52,105,-81,196,-81 c112,0,179,32,223,77 l-76,99 c-25,-26,-60,-57,-132,-57 c-83,0,-137,55,-137,133 l332,0 c5,13,13,62,13,100 c0,145,-84,235,-235,235 c-81,0,-141,-23,-184,-75 l-5,0 c-35,47,-87,74,-174,74 c-189,0,-258,-121,-258,-295 c0,-175,61,-291,255,-291 c87,0,141,30,178,81 Z M193,286 c0,115,26,171,97,171 c78,0,109,-62,109,-179 c0,-115,-20,-171,-99,-171 c-76,0,-107,62,-107,179 Z M652,462 c52,0,94,-26,94,-101 l0,-16 l-196,0 c0,57,39,117,102,117 Z M652,462" fill="rgb(0,0,0)" transform="matrix(1,0,0,-1,571,1243)"/>
</svg>