<?xml version="1.0" encoding="UTF-8"?>
<svg height="1743" version="1.1" width="2679" xmlns="http://www.w3.org/2000/svg" xmlns:xlink="http://www.w3.org/1999/xlink">
 <path d="M0,0 l2679,0 l0,1743 l-2679,0 Z M0,0" fill="rgb(255,255,255)" transform="matrix(1,0,0,-1,0,1743)"/>
 <path d="M300,625 c80,26,156,107,156,202 c0,57,-34,101,-90,101 c-45,0,-75,-34,-75,-73 l0,-12 c33,-11,58,-29,58,-66 c0,-39,-33,-71,-89,-96 Z M247,-5 c94,0,138,21,157,35 l-39,113 c-22,-17,-53,-25,-77,-25 c-37,0,-59,20,-59,59 l0,273 l141,0 l0,115 l-141,0 l0,142 l-96,0 l-52,-133 l-73,-30 l0,-94 l72,0 l0,-269 c0,-137,70,-186,167,-186 Z M247,-5" fill="rgb(0,0,0)" transform="matrix(1,0,0,-1,571,1243)"/>
</svg>