<?xml version="1.0" encoding="UTF-8"?>
<svg height="1743" version="1.1" width="2679" xmlns="http://www.w3.org/2000/svg" xmlns:xlink="http://www.w3.org/1999/xlink">
 <path d="M0,0 l2679,0 l0,1743 l-2679,0 Z M0,0" fill="rgb(255,255,255)" transform="matrix(1,0,0,-1,0,1743)"/>
 <path d="M66,186 c0,-134,58,-197,179,-197 c71,0,116,23,149,63 l4,0 l21,-52 l128,0 l0,565 l-151,0 l0,-391 c-8,-18,-32,-68,-98,-68 c-51,0,-81,32,-81,94 l0,365 l-151,0 Z M219,789 c-59,0,-100,-44,-115,-69 l59,-86 c21,30,42,44,76,44 c39,0,103,-41,157,-41 c59,0,100,44,115,69 l-59,86 c-24,-32,-39,-44,-75,-44 c-46,0,-96,41,-158,41 Z M219,789" fill="rgb(0,0,0)" transform="matrix(1,0,0,-1,571,1243)"/>
</svg>