<?xml version="1.0" encoding="UTF-8"?>
<svg height="1743" version="1.1" width="2679" xmlns="http://www.w3.org/2000/svg" xmlns:xlink="http://www.w3.org/1999/xlink">
 <path d="M0,0 l2679,0 l0,1743 l-2679,0 Z M0,0" fill="rgb(255,255,255)" transform="matrix(1,0,0,-1,0,1743)"/>
 <path d="M559,-235 l-28,85 c-20,-11,-41,-18,-62,-18 c-30,0,-45,16,-45,42 c0,54,82,103,123,126 l0,565 l-151,0 l0,-391 c-8,-18,-32,-68,-98,-68 c-51,0,-81,32,-81,94 l0,365 l-151,0 l0,-379 c0,-134,58,-197,179,-197 c71,0,116,23,149,63 l4,0 l15,-36 c-51,-36,-100,-90,-100,-159 c0,-63,38,-117,137,-117 c46,0,88,13,109,25 Z M559,-235" fill="rgb(0,0,0)" transform="matrix(1,0,0,-1,571,1243)"/>
</svg>