<?xml version="1.0" encoding="UTF-8"?>
<svg height="1743" version="1.1" width="2679" xmlns="http://www.w3.org/2000/svg" xmlns:xlink="http://www.w3.org/1999/xlink">
 <path d="M0,0 l2679,0 l0,1743 l-2679,0 Z M0,0" fill="rgb(255,255,255)" transform="matrix(1,0,0,-1,0,1743)"/>
 <path d="M221,125 l238,326 l-20,114 l-387,0 l0,-121 l228,0 l0,-4 l-242,-327 l20,-113 l414,0 l0,121 l-251,0 Z M161,723 c0,-51,39,-91,92,-91 c53,0,92,40,92,91 c0,51,-39,91,-92,91 c-53,0,-92,-40,-92,-91 Z M161,723" fill="rgb(0,0,0)" transform="matrix(1,0,0,-1,571,1243)"/>
</svg>