<?xml version="1.0" encoding="UTF-8"?>
<svg height="1743" version="1.1" width="2679" xmlns="http://www.w3.org/2000/svg" xmlns:xlink="http://www.w3.org/1999/xlink">
 <path d="M0,0 l2679,0 l0,1743 l-2679,0 Z M0,0" fill="rgb(255,255,255)" transform="matrix(1,0,0,-1,0,1743)"/>
 <path d="M212,133 l307,448 l-21,120 l-440,0 l0,-129 l275,0 l0,-4 l-310,-448 l21,-120 l478,0 l0,129 l-310,0 Z M483,867 l-56,90 l-151,-85 l-154,84 l-50,-89 l204,-125 Z M483,867" fill="rgb(0,0,0)" transform="matrix(1,0,0,-1,571,1243)"/>
</svg>