<?xml version="1.0" encoding="UTF-8"?>
<svg height="1743" version="1.1" width="2679" xmlns="http://www.w3.org/2000/svg" xmlns:xlink="http://www.w3.org/1999/xlink">
 <path d="M0,0 l2679,0 l0,1743 l-2679,0 Z M0,0" fill="rgb(255,255,255)" transform="matrix(1,0,0,-1,0,1743)"/>
 <path d="M377,-221 l-28,85 c-20,-11,-41,-18,-62,-18 c-30,0,-45,16,-45,42 c0,54,82,103,123,126 l-49,64 c-58,-25,-185,-95,-185,-207 c0,-63,38,-117,137,-117 c46,0,88,13,109,25 Z M377,-221" fill="rgb(0,0,0)" transform="matrix(1,0,0,-1,571,1243)"/>
</svg>