<?xml version="1.0" encoding="UTF-8"?>
<svg height="1743" version="1.1" width="2679" xmlns="http://www.w3.org/2000/svg" xmlns:xlink="http://www.w3.org/1999/xlink">
 <path d="M0,0 l2679,0 l0,1743 l-2679,0 Z M0,0" fill="rgb(255,255,255)" transform="matrix(1,0,0,-1,0,1743)"/>
 <path d="M65,59 l126,-73 c43,50,69,128,69,241 l0,212 l116,0 l0,-439 l149,0 l0,439 l77,0 l0,126 l-567,0 l0,-126 l77,0 l0,-208 c0,-101,-17,-130,-47,-172 Z M65,59" fill="rgb(0,0,0)" transform="matrix(1,0,0,-1,571,1243)"/>
</svg>