<?xml version="1.0" encoding="UTF-8"?>
<svg height="1743" version="1.1" width="2679" xmlns="http://www.w3.org/2000/svg" xmlns:xlink="http://www.w3.org/1999/xlink">
 <path d="M0,0 l2679,0 l0,1743 l-2679,0 Z M0,0" fill="rgb(255,255,255)" transform="matrix(1,0,0,-1,0,1743)"/>
 <path d="M316,380 c91,30,193,114,193,246 c0,74,-43,132,-117,132 c-60,0,-95,-44,-95,-96 l0,-6 c46,-24,101,-45,101,-98 c0,-41,-35,-90,-113,-117 Z M55,380 c91,30,193,114,193,246 c0,74,-43,132,-117,132 c-60,0,-95,-44,-95,-96 l0,-6 c46,-24,101,-45,101,-98 c0,-41,-35,-90,-113,-117 Z M55,380" fill="rgb(0,0,0)" transform="matrix(1,0,0,-1,571,1243)"/>
</svg>