<?xml version="1.0" encoding="UTF-8"?>
<svg height="1743" version="1.1" width="2679" xmlns="http://www.w3.org/2000/svg" xmlns:xlink="http://www.w3.org/1999/xlink">
 <path d="M0,0 l2679,0 l0,1743 l-2679,0 Z M0,0" fill="rgb(255,255,255)" transform="matrix(1,0,0,-1,0,1743)"/>
 <path d="M545,613 l-6,-100 l0,-92 l76,0 l0,280 l-104,0 l-55,-172 l-59,172 l-104,0 l0,-280 l76,0 l0,104 l-5,89 l4,0 l56,-163 l61,0 l56,162 Z M5,634 l86,0 l0,-213 l82,0 l0,213 l78,0 l0,67 l-246,0 Z M5,634" fill="rgb(0,0,0)" transform="matrix(1,0,0,-1,571,1243)"/>
</svg>