<?xml version="1.0" encoding="UTF-8"?>
<svg height="1743" version="1.1" width="2679" xmlns="http://www.w3.org/2000/svg" xmlns:xlink="http://www.w3.org/1999/xlink">
 <path d="M0,0 l2679,0 l0,1743 l-2679,0 Z M0,0" fill="rgb(255,255,255)" transform="matrix(1,0,0,-1,0,1743)"/>
 <path d="M205,123 l0,-4 l-141,9 l0,-128 l292,0 l0,140 c-59,23,-106,73,-106,226 c0,160,52,221,148,221 c96,0,153,-67,153,-227 c0,-153,-47,-197,-106,-220 l0,-140 l292,0 l0,128 l-143,-9 l0,4 c57,36,115,134,115,247 c0,224,-108,339,-305,339 c-197,0,-312,-121,-312,-345 c0,-112,47,-197,113,-241 Z M205,123" fill="rgb(0,0,0)" transform="matrix(1,0,0,-1,571,1243)"/>
</svg>