<?xml version="1.0" encoding="UTF-8"?>
<svg height="1743" version="1.1" width="2679" xmlns="http://www.w3.org/2000/svg" xmlns:xlink="http://www.w3.org/1999/xlink">
 <path d="M0,0 l2679,0 l0,1743 l-2679,0 Z M0,0" fill="rgb(255,255,255)" transform="matrix(1,0,0,-1,0,1743)"/>
 <path d="M506,292 c0,210,-136,361,-237,409 l-207,0 l0,-10 c76,-33,238,-140,279,-253 l-1,0 c-18,8,-45,16,-88,16 c-114,0,-214,-90,-214,-243 c0,-153,87,-220,228,-220 c142,0,240,101,240,301 Z M176,224 c0,84,37,114,102,114 c30,0,65,-7,86,-15 c3,-16,4,-47,4,-64 c0,-107,-32,-148,-100,-148 c-52,0,-92,33,-92,113 Z M176,224" fill="rgb(0,0,0)" transform="matrix(1,0,0,-1,571,1243)"/>
</svg>