<?xml version="1.0" encoding="UTF-8"?>
<svg height="1743" version="1.1" width="2679" xmlns="http://www.w3.org/2000/svg" xmlns:xlink="http://www.w3.org/1999/xlink">
 <path d="M0,0 l2679,0 l0,1743 l-2679,0 Z M0,0" fill="rgb(255,255,255)" transform="matrix(1,0,0,-1,0,1743)"/>
 <path d="M271,64 l81,201 l-81,201 l-55,113 l0,4 l108,-4 l170,0 l0,122 l-388,0 l-51,-84 l156,-352 l-156,-352 l51,-84 l388,0 l0,122 l-164,0 l-114,-4 l0,4 Z M271,64" fill="rgb(0,0,0)" transform="matrix(1,0,0,-1,571,1243)"/>
</svg>