<?xml version="1.0" encoding="UTF-8"?>
<svg height="200.0" version="1.1" width="70.0" xmlns="http://www.w3.org/2000/svg" xmlns:xlink="http://www.w3.org/1999/xlink">
 <path d="M0,0 l70,0 l0,200 l-70,0 Z M0,0" fill="rgb(255,255,255)" transform="matrix(1,0,0,-1,0.0,200.0)"/>
 <path d="M0,0 l70,0" fill="none" stroke="rgb(229,229,229)" stroke-width="2" transform="matrix(1,0,0,-1,0.0,135.0)"/>
 <path d="M0,1 l0,-5" fill="none" stroke="rgb(204,204,204)" stroke-width="2" transform="matrix(1,0,0,-1,8.0,135.0)"/>
 <path d="M0,1 l0,-5" fill="none" stroke="rgb(204,204,204)" stroke-width="2" transform="matrix(1,0,0,-1,62.0,135.0)"/>
 <path d="M423,848 c22,0,44,-5,63,-16 l31,92 c-24,11,-57,21,-107,21 c-87,0,-165,-58,-165,-150 c0,-65,35,-109,70,-131 l0,-4 l-342,0 l0,-92 l351,0 l0,-73 l-132,0 c-82,0,-127,-41,-127,-106 c0,-80,58,-159,154,-191 l141,34 c9,-6,21,-22,21,-45 c0,-58,-62,-83,-124,-83 l-22,0 l-146,93 c-26,-12,-45,-37,-45,-72 c0,-51,45,-110,162,-111 l170,-150 l121,64 l-165,101 l0,4 c86,11,156,66,156,156 c0,80,-43,131,-91,147 l-165,-37 c-30,8,-49,37,-49,59 c0,26,7,44,65,44 l189,0 l0,166 l134,0 l0,92 l-144,0 c-45,26,-76,71,-76,115 c0,44,28,73,72,73 Z M423,848" fill="rgb(0,0,0)" transform="matrix(0.1,0.0,0.0,-0.1,8.0,135.0)"/>
</svg>