<?xml version="1.0" encoding="UTF-8"?>
<svg height="200.0" version="1.1" width="104.0" xmlns="http://www.w3.org/2000/svg" xmlns:xlink="http://www.w3.org/1999/xlink">
 <path d="M0,0 l104,0 l0,200 l-104,0 Z M0,0" fill="rgb(255,255,255)" transform="matrix(1,0,0,-1,0.0,200.0)"/>
 <path d="M0,0 l104,0" fill="none" stroke="rgb(229,229,229)" stroke-width="2" transform="matrix(1,0,0,-1,0.0,135.0)"/>
 <path d="M0,1 l0,-5" fill="none" stroke="rgb(204,204,204)" stroke-width="2" transform="matrix(1,0,0,-1,8.0,135.0)"/>
 <path d="M0,1 l0,-5" fill="none" stroke="rgb(204,204,204)" stroke-width="2" transform="matrix(1,0,0,-1,96.0,135.0)"/>
 <path d="M729,484 l0,14 l-108,0 l0,-12 c0,-53,-29,-82,-116,-130 l-14,-8 l0,220 l412,0 l0,92 l-930,0 l0,-92 l402,0 l0,-219 l-4,0 c-31,70,-94,115,-179,115 c-73,0,-129,-25,-174,-64 l74,-91 c31,33,67,48,107,48 c55,0,102,-32,127,-101 l-271,-152 l76,-82 l245,151 l0,-173 l115,0 l0,235 l67,40 c16,10,31,19,45,28 c22,-17,51,-27,92,-28 l0,-4 c-62,-41,-116,-84,-116,-146 c0,-85,68,-131,172,-131 c51,0,99,20,124,36 l-37,89 c-22,-15,-52,-30,-89,-30 c-39,0,-59,17,-59,40 c0,30,21,49,139,128 l-35,84 l-21,0 c-42,0,-68,14,-85,31 c27,31,41,66,41,112 Z M729,484" fill="rgb(0,0,0)" transform="matrix(0.1,0.0,0.0,-0.1,8.0,135.0)"/>
</svg>