<?xml version="1.0" encoding="UTF-8"?>
<svg height="200.0" version="1.1" width="104.0" xmlns="http://www.w3.org/2000/svg" xmlns:xlink="http://www.w3.org/1999/xlink">
 <path d="M0,0 l104,0 l0,200 l-104,0 Z M0,0" fill="rgb(255,255,255)" transform="matrix(1,0,0,-1,0.0,200.0)"/>
 <path d="M0,0 l104,0" fill="none" stroke="rgb(229,229,229)" stroke-width="2" transform="matrix(1,0,0,-1,0.0,135.0)"/>
 <path d="M0,1 l0,-5" fill="none" stroke="rgb(204,204,204)" stroke-width="2" transform="matrix(1,0,0,-1,8.0,135.0)"/>
 <path d="M0,1 l0,-5" fill="none" stroke="rgb(204,204,204)" stroke-width="2" transform="matrix(1,0,0,-1,96.0,135.0)"/>
 <path d="M491,0 l0,235 l66,42 c4,2,8,5,12,7 c21,-15,51,-26,85,-26 l0,-3 c-53,-17,-85,-46,-85,-87 c0,-54,45,-74,85,-76 l0,-4 c-31,-9,-58,-31,-58,-69 c0,-67,72,-96,149,-96 c49,0,103,12,139,35 l-36,71 c-27,-16,-68,-27,-103,-27 c-29,0,-48,9,-48,29 c0,27,35,37,107,56 l-25,69 c-6,-1,-35,-10,-67,-10 c-25,0,-40,7,-40,24 c0,18,12,36,106,65 l-27,74 l-31,0 c-33,0,-57,15,-71,28 c51,40,80,81,80,147 l0,14 l-106,0 l0,-12 c0,-53,-31,-82,-118,-130 l-14,-8 l0,220 l412,0 l0,92 l-930,0 l0,-92 l402,0 l0,-219 l-4,0 c-31,70,-94,115,-179,115 c-73,0,-129,-25,-174,-64 l74,-91 c31,33,67,48,107,48 c55,0,102,-32,127,-101 l-271,-152 l76,-82 l245,151 l0,-173 Z M491,0" fill="rgb(0,0,0)" transform="matrix(0.1,0.0,0.0,-0.1,8.0,135.0)"/>
</svg>