<?xml version="1.0" encoding="UTF-8"?>
<svg height="200.0" version="1.1" width="88.0" xmlns="http://www.w3.org/2000/svg" xmlns:xlink="http://www.w3.org/1999/xlink">
 <path d="M0,0 l88,0 l0,200 l-88,0 Z M0,0" fill="rgb(255,255,255)" transform="matrix(1,0,0,-1,0.0,200.0)"/>
 <path d="M0,0 l88,0" fill="none" stroke="rgb(229,229,229)" stroke-width="2" transform="matrix(1,0,0,-1,0.0,135.0)"/>
 <path d="M0,1 l0,-5" fill="none" stroke="rgb(204,204,204)" stroke-width="2" transform="matrix(1,0,0,-1,8.0,135.0)"/>
 <path d="M0,1 l0,-5" fill="none" stroke="rgb(204,204,204)" stroke-width="2" transform="matrix(1,0,0,-1,81.0,135.0)"/>
 <path d="M727,-16 l-37,87 c-21,-18,-60,-31,-95,-31 c-40,0,-70,16,-70,49 c0,72,117,111,117,235 c0,63,-36,116,-99,137 l0,107 l213,0 l0,92 l-783,0 l0,-92 l458,0 l0,-103 c-41,-11,-74,-37,-89,-72 l-4,0 c-15,44,-61,76,-126,76 c-88,0,-172,-61,-172,-192 c0,-123,75,-232,186,-289 l77,77 c-109,54,-147,136,-147,208 c0,72,34,97,72,97 c38,0,62,-26,62,-80 l0,-73 l107,0 l0,73 c0,55,30,83,73,83 c38,0,60,-23,60,-60 c0,-76,-113,-119,-113,-225 c0,-98,86,-142,176,-142 c51,0,100,14,134,38 Z M727,-16" fill="rgb(0,0,0)" transform="matrix(0.1,0.0,0.0,-0.1,8.0,135.0)"/>
</svg>