<?xml version="1.0" encoding="UTF-8"?>
<svg height="200.0" version="1.1" width="90.0" xmlns="http://www.w3.org/2000/svg" xmlns:xlink="http://www.w3.org/1999/xlink">
 <path d="M0,0 l90,0 l0,200 l-90,0 Z M0,0" fill="rgb(255,255,255)" transform="matrix(1,0,0,-1,0.0,200.0)"/>
 <path d="M0,0 l90,0" fill="none" stroke="rgb(229,229,229)" stroke-width="2" transform="matrix(1,0,0,-1,0.0,135.0)"/>
 <path d="M0,1 l0,-5" fill="none" stroke="rgb(204,204,204)" stroke-width="2" transform="matrix(1,0,0,-1,8.0,135.0)"/>
 <path d="M0,1 l0,-5" fill="none" stroke="rgb(204,204,204)" stroke-width="2" transform="matrix(1,0,0,-1,81.0,135.0)"/>
 <path d="M769,-65 l-36,77 c-28,-18,-70,-31,-106,-31 c-31,0,-49,10,-49,30 c0,29,37,45,111,64 l-28,74 c-6,-2,-31,-11,-63,-11 c-27,0,-39,9,-39,25 c0,40,79,76,79,163 c0,63,-33,114,-95,135 l0,107 l213,0 l0,92 l-783,0 l0,-92 l458,0 l0,-103 c-41,-11,-74,-36,-89,-72 l-4,0 c-15,44,-61,76,-126,76 c-88,0,-172,-61,-172,-192 c0,-123,75,-232,186,-289 l77,77 c-109,54,-147,136,-147,208 c0,72,34,97,72,97 c38,0,62,-26,62,-80 l0,-73 l107,0 l0,73 c0,56,32,83,73,83 c38,0,60,-22,60,-55 c0,-57,-85,-101,-85,-169 c0,-55,44,-73,84,-75 l1,-3 c-32,-12,-57,-36,-57,-76 c0,-68,71,-99,151,-99 c50,0,109,15,145,39 Z M769,-65" fill="rgb(0,0,0)" transform="matrix(0.1,0.0,0.0,-0.1,8.0,135.0)"/>
</svg>