<?xml version="1.0" encoding="UTF-8"?>
<svg height="200.0" version="1.1" width="94.0" xmlns="http://www.w3.org/2000/svg" xmlns:xlink="http://www.w3.org/1999/xlink">
 <path d="M0,0 l94,0 l0,200 l-94,0 Z M0,0" fill="rgb(255,255,255)" transform="matrix(1,0,0,-1,0.0,200.0)"/>
 <path d="M0,0 l94,0" fill="none" stroke="rgb(229,229,229)" stroke-width="2" transform="matrix(1,0,0,-1,0.0,135.0)"/>
 <path d="M0,1 l0,-5" fill="none" stroke="rgb(204,204,204)" stroke-width="2" transform="matrix(1,0,0,-1,5.0,135.0)"/>
 <path d="M0,1 l0,-5" fill="none" stroke="rgb(204,204,204)" stroke-width="2" transform="matrix(1,0,0,-1,80.0,135.0)"/>
 <path d="M776,660 l-316,0 l0,-92 l89,0 l0,-222 c-19,-10,-45,-18,-82,-18 c-30,0,-58,7,-83,20 c-16,12,-34,20,-51,24 l0,4 c41,20,72,67,72,126 c0,95,-71,161,-182,161 c-76,0,-134,-34,-164,-76 l75,-70 c18,29,45,48,86,48 c47,0,76,-30,76,-73 c0,-51,-31,-85,-92,-85 l-34,0 l0,-98 l54,0 c67,0,101,-29,101,-77 c0,-48,-34,-85,-95,-85 c-64,0,-107,39,-128,72 l-80,-75 c27,-35,93,-96,207,-96 c128,0,208,80,208,187 c0,4,0,9,0,13 c17,-8,36,-13,59,-13 c21,0,39,4,53,10 l0,-245 l116,0 l0,568 l111,0 Z M609,740 c119,0,194,61,227,141 l-90,45 c-21,-56,-67,-90,-137,-90 c-70,0,-115,34,-137,90 l-89,-45 c32,-80,108,-141,226,-141 Z M609,740" fill="rgb(0,0,0)" transform="matrix(0.1,0.0,0.0,-0.1,5.0,135.0)"/>
</svg>