<?xml version="1.0" encoding="UTF-8"?>
<svg height="200.0" version="1.1" width="64.0" xmlns="http://www.w3.org/2000/svg" xmlns:xlink="http://www.w3.org/1999/xlink">
 <path d="M0,0 l64,0 l0,200 l-64,0 Z M0,0" fill="rgb(255,255,255)" transform="matrix(1,0,0,-1,0.0,200.0)"/>
 <path d="M0,0 l64,0" fill="none" stroke="rgb(229,229,229)" stroke-width="2" transform="matrix(1,0,0,-1,0.0,135.0)"/>
 <path d="M0,-4 l0,8" fill="none" stroke="rgb(255,76,25)" stroke-width="2" transform="matrix(1,0,0,-1,56.0,135.0)"/>
 <path d="M-425,-58 l-82,-76 c56,-69,165,-166,322,-166 c151,0,211,88,211,173 c0,97,-74,156,-171,156 c-76,0,-124,-27,-159,-71 l77,-68 c16,25,38,43,75,43 c36,0,63,-25,63,-62 c0,-54,-47,-78,-98,-78 c-101,0,-178,64,-238,149 Z M-425,-58" fill="rgb(0,0,0)" transform="matrix(0.1,0.0,0.0,-0.1,56.0,135.0)"/>
</svg>