<?xml version="1.0" encoding="UTF-8"?>
<svg height="200.0" version="1.1" width="58.0" xmlns="http://www.w3.org/2000/svg" xmlns:xlink="http://www.w3.org/1999/xlink">
 <path d="M0,0 l58,0 l0,200 l-58,0 Z M0,0" fill="rgb(255,255,255)" transform="matrix(1,0,0,-1,0.0,200.0)"/>
 <path d="M0,0 l58,0" fill="none" stroke="rgb(229,229,229)" stroke-width="2" transform="matrix(1,0,0,-1,0.0,135.0)"/>
 <path d="M0,-4 l0,8" fill="none" stroke="rgb(255,76,25)" stroke-width="2" transform="matrix(1,0,0,-1,37.0,135.0)"/>
 <path d="M163,-269 c-21,129,-127,296,-302,296 c-103,0,-180,-65,-180,-160 c0,-85,61,-152,154,-152 c23,0,52,3,77,15 l0,101 c-18,-11,-37,-19,-59,-19 c-35,0,-60,25,-60,58 c0,36,28,61,67,61 c87,0,168,-92,193,-230 Z M163,-269" fill="rgb(0,0,0)" transform="matrix(0.1,0.0,0.0,-0.1,37.0,135.0)"/>
</svg>