<?xml version="1.0" encoding="UTF-8"?>
<svg height="200.0" version="1.1" width="68.0" xmlns="http://www.w3.org/2000/svg" xmlns:xlink="http://www.w3.org/1999/xlink">
 <path d="M0,0 l68,0 l0,200 l-68,0 Z M0,0" fill="rgb(255,255,255)" transform="matrix(1,0,0,-1,0.0,200.0)"/>
 <path d="M0,0 l68,0" fill="none" stroke="rgb(229,229,229)" stroke-width="2" transform="matrix(1,0,0,-1,0.0,135.0)"/>
 <path d="M0,-4 l0,8" fill="none" stroke="rgb(255,76,25)" stroke-width="2" transform="matrix(1,0,0,-1,46.0,135.0)"/>
 <path d="M-108,-368 c0,-67,57,-119,152,-119 c45,0,92,9,133,39 l-40,70 c-23,-17,-56,-29,-90,-29 c-38,0,-60,12,-60,40 c0,59,118,86,118,186 c0,76,-58,129,-138,129 c-62,0,-103,-32,-117,-67 l-4,0 c-16,40,-55,67,-110,67 c-84,0,-145,-63,-145,-161 c0,-88,51,-158,108,-194 l62,63 c-45,33,-74,78,-74,132 c0,50,25,76,59,76 c36,0,57,-23,57,-77 l0,-35 l91,0 l0,35 c0,56,33,77,65,77 c34,0,55,-17,55,-47 c0,-58,-122,-93,-122,-185 Z M-108,-368" fill="rgb(0,0,0)" transform="matrix(0.1,0.0,0.0,-0.1,46.0,135.0)"/>
</svg>