<?xml version="1.0" encoding="UTF-8"?>
<svg height="200.0" version="1.1" width="76.0" xmlns="http://www.w3.org/2000/svg" xmlns:xlink="http://www.w3.org/1999/xlink">
 <path d="M0,0 l76,0 l0,200 l-76,0 Z M0,0" fill="rgb(255,255,255)" transform="matrix(1,0,0,-1,0.0,200.0)"/>
 <path d="M0,0 l76,0" fill="none" stroke="rgb(229,229,229)" stroke-width="2" transform="matrix(1,0,0,-1,0.0,135.0)"/>
 <path d="M0,-4 l0,8" fill="none" stroke="rgb(255,76,25)" stroke-width="2" transform="matrix(1,0,0,-1,46.0,135.0)"/>
 <path d="M118,-427 c-32,0,-47,9,-47,28 c0,27,33,38,93,54 l-18,63 c-11,-4,-39,-11,-61,-11 c-22,0,-37,6,-37,22 c0,34,62,52,62,113 c0,61,-52,106,-135,106 c-61,0,-110,-34,-123,-69 l-4,0 c-17,41,-55,69,-110,69 c-85,0,-146,-63,-146,-161 c0,-88,51,-158,109,-194 l61,63 c-45,33,-74,78,-74,132 c0,50,25,76,59,76 c36,0,57,-23,57,-77 l0,-35 l90,0 l0,30 c0,50,35,85,80,85 c25,0,41,-12,41,-31 c0,-30,-53,-54,-53,-106 c0,-38,26,-64,65,-69 l0,-3 c-26,-14,-41,-39,-41,-68 c0,-59,53,-91,132,-91 c47,0,89,12,136,43 l-38,65 c-26,-20,-60,-34,-98,-34 Z M118,-427" fill="rgb(0,0,0)" transform="matrix(0.1,0.0,0.0,-0.1,46.0,135.0)"/>
</svg>