<?xml version="1.0" encoding="UTF-8"?>
<svg height="200.0" version="1.1" width="50.0" xmlns="http://www.w3.org/2000/svg" xmlns:xlink="http://www.w3.org/1999/xlink">
 <path d="M0,0 l50,0 l0,200 l-50,0 Z M0,0" fill="rgb(255,255,255)" transform="matrix(1,0,0,-1,0.0,200.0)"/>
 <path d="M0,0 l50,0" fill="none" stroke="rgb(229,229,229)" stroke-width="2" transform="matrix(1,0,0,-1,0.0,135.0)"/>
 <path d="M0,-4 l0,8" fill="none" stroke="rgb(255,76,25)" stroke-width="2" transform="matrix(1,0,0,-1,39.0,135.0)"/>
 <path d="M-142,835 c103,0,168,53,197,123 l-77,38 c-19,-48,-59,-78,-120,-78 c-61,0,-101,30,-120,78 l-78,-38 c29,-70,94,-123,198,-123 Z M39,722 l0,76 l-363,0 l0,-76 Z M39,722" fill="rgb(0,0,0)" transform="matrix(0.1,0.0,0.0,-0.1,39.0,135.0)"/>
</svg>