<?xml version="1.0" encoding="UTF-8"?>
<svg height="200.0" version="1.1" width="98.0" xmlns="http://www.w3.org/2000/svg" xmlns:xlink="http://www.w3.org/1999/xlink">
 <path d="M0,0 l98,0 l0,200 l-98,0 Z M0,0" fill="rgb(255,255,255)" transform="matrix(1,0,0,-1,0.0,200.0)"/>
 <path d="M0,0 l98,0" fill="none" stroke="rgb(229,229,229)" stroke-width="2" transform="matrix(1,0,0,-1,0.0,135.0)"/>
 <path d="M0,1 l0,-5" fill="none" stroke="rgb(204,204,204)" stroke-width="2" transform="matrix(1,0,0,-1,8.0,135.0)"/>
 <path d="M0,1 l0,-5" fill="none" stroke="rgb(204,204,204)" stroke-width="2" transform="matrix(1,0,0,-1,90.0,135.0)"/>
 <path d="M630,105 l0,-105 l107,0 l0,568 l111,0 l0,92 l-875,0 l0,-92 l251,0 l0,-156 c0,-35,-19,-49,-42,-49 c-29,0,-45,19,-57,50 l-99,-35 c28,-196,148,-364,367,-364 c123,0,199,53,233,91 Z M626,473 c-17,13,-43,25,-88,25 c-91,0,-163,-68,-163,-161 c0,-93,71,-144,139,-152 l61,66 c-52,3,-95,33,-95,83 c0,42,30,72,73,72 c43,0,79,-32,79,-91 c0,-122,-102,-208,-230,-208 c-120,0,-206,73,-233,175 c10,-3,24,-6,39,-6 c73,0,126,46,126,143 l0,149 l296,0 l0,-95 Z M626,473" fill="rgb(0,0,0)" transform="matrix(0.1,0.0,0.0,-0.1,8.0,135.0)"/>
</svg>