<?xml version="1.0" encoding="UTF-8"?>
<svg height="200.0" version="1.1" width="80.0" xmlns="http://www.w3.org/2000/svg" xmlns:xlink="http://www.w3.org/1999/xlink">
 <path d="M0,0 l80,0 l0,200 l-80,0 Z M0,0" fill="rgb(255,255,255)" transform="matrix(1,0,0,-1,0.0,200.0)"/>
 <path d="M0,0 l80,0" fill="none" stroke="rgb(229,229,229)" stroke-width="2" transform="matrix(1,0,0,-1,0.0,135.0)"/>
 <path d="M0,1 l0,-5" fill="none" stroke="rgb(204,204,204)" stroke-width="2" transform="matrix(1,0,0,-1,8.0,135.0)"/>
 <path d="M0,1 l0,-5" fill="none" stroke="rgb(204,204,204)" stroke-width="2" transform="matrix(1,0,0,-1,73.0,135.0)"/>
 <path d="M561,0 l0,568 l111,0 l0,92 l-301,0 l0,-92 l74,0 l0,-212 c0,-80,-63,-155,-164,-155 c-75,0,-99,37,-99,72 c0,42,30,69,93,69 l62,0 l0,92 l-71,0 c-60,0,-89,27,-89,65 c0,37,32,63,61,74 l-17,87 l-248,0 l0,-92 l123,0 l0,-4 c-20,-12,-39,-37,-39,-73 c0,-61,45,-96,101,-101 l0,-4 c-44,-10,-95,-47,-95,-122 c0,-87,72,-156,197,-156 c94,0,154,39,181,67 l4,0 l0,-175 Z M561,0" fill="rgb(0,0,0)" transform="matrix(0.1,0.0,0.0,-0.1,8.0,135.0)"/>
</svg>