<?xml version="1.0" encoding="UTF-8"?>
<svg height="200.0" version="1.1" width="88.0" xmlns="http://www.w3.org/2000/svg" xmlns:xlink="http://www.w3.org/1999/xlink">
 <path d="M0,0 l88,0 l0,200 l-88,0 Z M0,0" fill="rgb(255,255,255)" transform="matrix(1,0,0,-1,0.0,200.0)"/>
 <path d="M0,0 l88,0" fill="none" stroke="rgb(229,229,229)" stroke-width="2" transform="matrix(1,0,0,-1,0.0,135.0)"/>
 <path d="M0,1 l0,-5" fill="none" stroke="rgb(204,204,204)" stroke-width="2" transform="matrix(1,0,0,-1,8.0,135.0)"/>
 <path d="M0,1 l0,-5" fill="none" stroke="rgb(204,204,204)" stroke-width="2" transform="matrix(1,0,0,-1,81.0,135.0)"/>
 <path d="M523,445 c-17,17,-47,26,-77,26 c-43,0,-89,-26,-102,-80 l-4,0 c-18,48,-63,76,-125,76 c-88,0,-177,-61,-177,-192 c0,-124,76,-231,188,-290 l75,79 c-105,56,-146,133,-146,206 c0,74,37,98,71,98 c40,0,66,-28,66,-81 l0,-99 l107,0 l0,94 c0,60,24,88,68,88 c24,0,49,-12,60,-21 l0,-349 l117,0 l0,568 l111,0 l0,92 l-782,0 l0,-92 l554,0 l0,-123 Z M523,445" fill="rgb(0,0,0)" transform="matrix(0.1,0.0,0.0,-0.1,8.0,135.0)"/>
</svg>