<?xml version="1.0" encoding="UTF-8"?>
<svg height="200.0" version="1.1" width="90.0" xmlns="http://www.w3.org/2000/svg" xmlns:xlink="http://www.w3.org/1999/xlink">
 <path d="M0,0 l90,0 l0,200 l-90,0 Z M0,0" fill="rgb(255,255,255)" transform="matrix(1,0,0,-1,0.0,200.0)"/>
 <path d="M0,0 l90,0" fill="none" stroke="rgb(229,229,229)" stroke-width="2" transform="matrix(1,0,0,-1,0.0,135.0)"/>
 <path d="M0,1 l0,-5" fill="none" stroke="rgb(204,204,204)" stroke-width="2" transform="matrix(1,0,0,-1,5.0,135.0)"/>
 <path d="M0,1 l0,-5" fill="none" stroke="rgb(204,204,204)" stroke-width="2" transform="matrix(1,0,0,-1,82.0,135.0)"/>
 <path d="M530,-77 l-98,139 c21,18,33,46,33,83 c0,47,-33,80,-60,92 l-72,-24 l0,-87 c-15,-13,-49,-21,-79,-21 c-67,0,-111,41,-111,93 c0,57,49,85,140,116 c37,-18,100,-30,164,-30 c41,0,84,4,123,15 l1,-299 l116,0 l0,568 l110,0 l0,92 l-226,0 l0,-255 c-34,-18,-81,-28,-126,-28 c-20,0,-43,3,-62,6 l0,4 c26,14,77,52,77,128 c0,89,-74,155,-185,155 c-107,0,-192,-65,-192,-156 c0,-64,40,-113,93,-138 c-81,-35,-148,-85,-148,-172 c0,-114,91,-196,239,-196 c36,0,65,5,86,11 l45,-126 Z M191,512 c0,39,31,68,83,68 c51,0,80,-29,80,-66 c0,-52,-44,-82,-81,-93 c-49,15,-82,49,-82,91 Z M191,512" fill="rgb(0,0,0)" transform="matrix(0.1,0.0,0.0,-0.1,5.0,135.0)"/>
</svg>