<?xml version="1.0" encoding="UTF-8"?>
<svg height="200.0" version="1.1" width="92.0" xmlns="http://www.w3.org/2000/svg" xmlns:xlink="http://www.w3.org/1999/xlink">
 <path d="M0,0 l92,0 l0,200 l-92,0 Z M0,0" fill="rgb(255,255,255)" transform="matrix(1,0,0,-1,0.0,200.0)"/>
 <path d="M0,0 l92,0" fill="none" stroke="rgb(229,229,229)" stroke-width="2" transform="matrix(1,0,0,-1,0.0,135.0)"/>
 <path d="M0,1 l0,-5" fill="none" stroke="rgb(204,204,204)" stroke-width="2" transform="matrix(1,0,0,-1,8.0,135.0)"/>
 <path d="M0,1 l0,-5" fill="none" stroke="rgb(204,204,204)" stroke-width="2" transform="matrix(1,0,0,-1,84.0,135.0)"/>
 <path d="M268,362 c46,-17,83,-53,83,-101 c0,-43,-28,-68,-69,-68 c-98,0,-150,137,-156,263 l-106,-52 c14,-120,90,-312,271,-312 c104,0,172,67,172,158 c0,51,-23,88,-48,107 l0,4 l142,0 l0,-361 l117,0 l0,568 l111,0 l0,92 l-812,0 l0,-92 l584,0 l0,-114 l-243,0 l-46,-84 Z M93,-12 c0,-35,28,-63,64,-63 c38,0,66,28,66,63 c0,39,-28,67,-66,67 c-36,0,-64,-28,-64,-67 Z M93,-12" fill="rgb(0,0,0)" transform="matrix(0.1,0.0,0.0,-0.1,8.0,135.0)"/>
</svg>