<?xml version="1.0" encoding="UTF-8"?>
<svg height="200.0" version="1.1" width="74.0" xmlns="http://www.w3.org/2000/svg" xmlns:xlink="http://www.w3.org/1999/xlink">
 <path d="M0,0 l74,0 l0,200 l-74,0 Z M0,0" fill="rgb(255,255,255)" transform="matrix(1,0,0,-1,0.0,200.0)"/>
 <path d="M0,0 l74,0" fill="none" stroke="rgb(229,229,229)" stroke-width="2" transform="matrix(1,0,0,-1,0.0,135.0)"/>
 <path d="M0,1 l0,-5" fill="none" stroke="rgb(204,204,204)" stroke-width="2" transform="matrix(1,0,0,-1,8.0,135.0)"/>
 <path d="M0,1 l0,-5" fill="none" stroke="rgb(204,204,204)" stroke-width="2" transform="matrix(1,0,0,-1,66.0,135.0)"/>
 <path d="M280,61 c-68,49,-115,116,-115,201 c0,66,42,97,97,97 l115,0 l0,-359 l116,0 l0,568 l112,0 l0,92 l-632,0 l0,-92 l404,0 l0,-108 l-136,0 c-98,0,-195,-61,-195,-195 c0,-127,75,-223,148,-276 Z M-34,-39 c0,-35,28,-63,64,-63 c38,0,66,28,66,63 c0,39,-28,67,-66,67 c-36,0,-64,-28,-64,-67 Z M-34,-39" fill="rgb(0,0,0)" transform="matrix(0.1,0.0,0.0,-0.1,8.0,135.0)"/>
</svg>