<?xml version="1.0" encoding="UTF-8"?>
<svg height="200.0" version="1.1" width="74.0" xmlns="http://www.w3.org/2000/svg" xmlns:xlink="http://www.w3.org/1999/xlink">
 <path d="M0,0 l74,0 l0,200 l-74,0 Z M0,0" fill="rgb(255,255,255)" transform="matrix(1,0,0,-1,0.0,200.0)"/>
 <path d="M0,0 l74,0" fill="none" stroke="rgb(229,229,229)" stroke-width="2" transform="matrix(1,0,0,-1,0.0,135.0)"/>
 <path d="M0,1 l0,-5" fill="none" stroke="rgb(204,204,204)" stroke-width="2" transform="matrix(1,0,0,-1,8.0,135.0)"/>
 <path d="M0,1 l0,-5" fill="none" stroke="rgb(204,204,204)" stroke-width="2" transform="matrix(1,0,0,-1,66.0,135.0)"/>
 <path d="M498,568 l111,0 l0,92 l-636,0 l0,-92 l409,0 l0,-221 c0,-22,-5,-43,-15,-62 l-170,120 c18,9,38,13,58,13 c22,0,44,-3,67,-11 l-6,100 c-24,6,-45,8,-73,8 c-105,0,-211,-71,-211,-200 c0,-116,89,-191,207,-191 c65,0,114,26,138,53 l4,0 l0,-115 l-326,0 l0,-87 l443,0 Z M256,219 c-68,0,-114,37,-114,98 c0,18,4,34,12,47 l173,-123 c-20,-14,-44,-22,-71,-22 Z M256,219" fill="rgb(0,0,0)" transform="matrix(0.1,0.0,0.0,-0.1,8.0,135.0)"/>
</svg>