<?xml version="1.0" encoding="UTF-8"?>
<svg height="200.0" version="1.1" width="78.0" xmlns="http://www.w3.org/2000/svg" xmlns:xlink="http://www.w3.org/1999/xlink">
 <path d="M0,0 l78,0 l0,200 l-78,0 Z M0,0" fill="rgb(255,255,255)" transform="matrix(1,0,0,-1,0.0,200.0)"/>
 <path d="M0,0 l78,0" fill="none" stroke="rgb(229,229,229)" stroke-width="2" transform="matrix(1,0,0,-1,0.0,135.0)"/>
 <path d="M0,1 l0,-5" fill="none" stroke="rgb(204,204,204)" stroke-width="2" transform="matrix(1,0,0,-1,8.0,135.0)"/>
 <path d="M0,1 l0,-5" fill="none" stroke="rgb(204,204,204)" stroke-width="2" transform="matrix(1,0,0,-1,70.0,135.0)"/>
 <path d="M420,178 l0,-178 l116,0 l0,568 l111,0 l0,92 l-674,0 l0,-92 l166,0 c22,-24,34,-61,34,-87 c0,-63,-54,-92,-137,-109 c10,-158,108,-250,236,-250 c73,0,121,30,144,56 Z M420,568 l0,-213 c0,-8,0,-15,-1,-22 l-171,235 Z M163,329 c50,10,94,39,115,81 l111,-149 c-23,-26,-57,-40,-100,-40 c-78,0,-118,52,-126,108 Z M163,329" fill="rgb(0,0,0)" transform="matrix(0.1,0.0,0.0,-0.1,8.0,135.0)"/>
</svg>