<?xml version="1.0" encoding="UTF-8"?>
<svg height="200.0" version="1.1" width="40.0" xmlns="http://www.w3.org/2000/svg" xmlns:xlink="http://www.w3.org/1999/xlink">
 <path d="M0,0 l40,0 l0,200 l-40,0 Z M0,0" fill="rgb(255,255,255)" transform="matrix(1,0,0,-1,0.0,200.0)"/>
 <path d="M0,0 l40,0" fill="none" stroke="rgb(229,229,229)" stroke-width="2" transform="matrix(1,0,0,-1,0.0,135.0)"/>
 <path d="M0,1 l0,-5" fill="none" stroke="rgb(204,204,204)" stroke-width="2" transform="matrix(1,0,0,-1,5.0,135.0)"/>
 <path d="M0,1 l0,-5" fill="none" stroke="rgb(204,204,204)" stroke-width="2" transform="matrix(1,0,0,-1,35.0,135.0)"/>
 <path d="M73,463 c0,-41,33,-73,75,-73 c44,0,76,32,76,73 c0,45,-32,78,-76,78 c-42,0,-75,-33,-75,-78 Z M73,138 c0,-41,33,-74,75,-74 c44,0,76,33,76,74 c0,45,-32,78,-76,78 c-42,0,-75,-33,-75,-78 Z M73,138" fill="rgb(0,0,0)" transform="matrix(0.1,0.0,0.0,-0.1,5.0,135.0)"/>
</svg>