<?xml version="1.0" encoding="UTF-8"?>
<svg height="200.0" version="1.1" width="44.0" xmlns="http://www.w3.org/2000/svg" xmlns:xlink="http://www.w3.org/1999/xlink">
 <path d="M0,0 l44,0 l0,200 l-44,0 Z M0,0" fill="rgb(255,255,255)" transform="matrix(1,0,0,-1,0.0,200.0)"/>
 <path d="M0,0 l44,0" fill="none" stroke="rgb(229,229,229)" stroke-width="2" transform="matrix(1,0,0,-1,0.0,135.0)"/>
 <path d="M0,-4 l0,8" fill="none" stroke="rgb(255,76,25)" stroke-width="2" transform="matrix(1,0,0,-1,40.0,135.0)"/>
 <path d="M-345,-93 c0,-35,28,-63,64,-63 c38,0,66,28,66,63 c0,39,-28,67,-66,67 c-36,0,-64,-28,-64,-67 Z M-345,-93" fill="rgb(0,0,0)" transform="matrix(0.1,0.0,0.0,-0.1,40.0,135.0)"/>
</svg>