<?xml version="1.0" encoding="UTF-8"?>
<svg height="200.0" version="1.1" width="62.0" xmlns="http://www.w3.org/2000/svg" xmlns:xlink="http://www.w3.org/1999/xlink">
 <path d="M0,0 l62,0 l0,200 l-62,0 Z M0,0" fill="rgb(255,255,255)" transform="matrix(1,0,0,-1,0.0,200.0)"/>
 <path d="M0,0 l62,0" fill="none" stroke="rgb(229,229,229)" stroke-width="2" transform="matrix(1,0,0,-1,0.0,135.0)"/>
 <path d="M0,1 l0,-5" fill="none" stroke="rgb(204,204,204)" stroke-width="2" transform="matrix(1,0,0,-1,5.0,135.0)"/>
 <path d="M0,1 l0,-5" fill="none" stroke="rgb(204,204,204)" stroke-width="2" transform="matrix(1,0,0,-1,57.0,135.0)"/>
 <path d="M258,111 c-77,0,-139,43,-171,76 l-69,-90 c27,-26,111,-90,238,-90 c153,0,226,86,226,190 c0,103,-73,153,-150,190 c-74,37,-138,64,-138,113 c0,40,29,59,79,59 l168,0 l0,101 l-180,0 c-115,0,-186,-64,-186,-160 c0,-97,74,-142,145,-178 c77,-38,144,-66,144,-129 c0,-51,-37,-82,-106,-82 Z M258,111" fill="rgb(0,0,0)" transform="matrix(0.1,0.0,0.0,-0.1,5.0,135.0)"/>
</svg>