<?xml version="1.0" encoding="UTF-8"?>
<svg height="200.0" version="1.1" width="56.0" xmlns="http://www.w3.org/2000/svg" xmlns:xlink="http://www.w3.org/1999/xlink">
 <path d="M0,0 l56,0 l0,200 l-56,0 Z M0,0" fill="rgb(255,255,255)" transform="matrix(1,0,0,-1,0.0,200.0)"/>
 <path d="M0,0 l56,0" fill="none" stroke="rgb(229,229,229)" stroke-width="2" transform="matrix(1,0,0,-1,0.0,135.0)"/>
 <path d="M0,1 l0,-5" fill="none" stroke="rgb(204,204,204)" stroke-width="2" transform="matrix(1,0,0,-1,5.0,135.0)"/>
 <path d="M0,1 l0,-5" fill="none" stroke="rgb(204,204,204)" stroke-width="2" transform="matrix(1,0,0,-1,52.0,135.0)"/>
 <path d="M343,0 c12,17,21,41,21,64 c0,52,-31,92,-152,176 c122,60,201,149,201,264 c0,96,-74,167,-177,167 c-102,0,-170,-66,-170,-159 c0,-89,79,-148,151,-148 c2,0,5,0,7,0 c-34,-25,-82,-51,-145,-79 l0,-62 c146,-98,172,-127,172,-162 c0,-18,-6,-38,-16,-51 l0,-10 Z M274,423 c-56,0,-102,32,-102,83 c0,43,26,69,66,69 c43,0,69,-28,69,-70 c0,-29,-7,-55,-24,-81 c-3,-1,-6,-1,-9,-1 Z M274,423" fill="rgb(0,0,0)" transform="matrix(0.1,0.0,0.0,-0.1,5.0,135.0)"/>
</svg>