<?xml version="1.0" encoding="UTF-8"?>
<svg height="200.0" version="1.1" width="62.0" xmlns="http://www.w3.org/2000/svg" xmlns:xlink="http://www.w3.org/1999/xlink">
 <path d="M0,0 l62,0 l0,200 l-62,0 Z M0,0" fill="rgb(255,255,255)" transform="matrix(1,0,0,-1,0.0,200.0)"/>
 <path d="M0,0 l62,0" fill="none" stroke="rgb(229,229,229)" stroke-width="2" transform="matrix(1,0,0,-1,0.0,135.0)"/>
 <path d="M0,1 l0,-5" fill="none" stroke="rgb(204,204,204)" stroke-width="2" transform="matrix(1,0,0,-1,5.0,135.0)"/>
 <path d="M0,1 l0,-5" fill="none" stroke="rgb(204,204,204)" stroke-width="2" transform="matrix(1,0,0,-1,57.0,135.0)"/>
 <path d="M455,199 c0,79,-51,131,-111,175 c70,52,136,112,136,207 c0,43,-9,70,-20,89 l-107,-35 c7,-12,14,-34,14,-59 c0,-61,-49,-103,-107,-144 c-58,41,-106,83,-106,144 c0,25,7,47,14,59 l-107,35 c-10,-19,-20,-46,-20,-89 c0,-95,66,-155,136,-206 c-60,-45,-111,-97,-111,-176 c0,-103,78,-172,195,-172 c117,0,194,68,194,172 Z M261,121 c-52,0,-83,28,-83,79 c0,45,36,81,82,115 c47,-34,83,-70,83,-115 c0,-51,-31,-79,-82,-79 Z M261,121" fill="rgb(0,0,0)" transform="matrix(0.1,0.0,0.0,-0.1,5.0,135.0)"/>
</svg>