<?xml version="1.0" encoding="UTF-8"?>
<svg height="200.0" version="1.1" width="76.0" xmlns="http://www.w3.org/2000/svg" xmlns:xlink="http://www.w3.org/1999/xlink">
 <path d="M0,0 l76,0 l0,200 l-76,0 Z M0,0" fill="rgb(255,255,255)" transform="matrix(1,0,0,-1,0.0,200.0)"/>
 <path d="M0,0 l76,0" fill="none" stroke="rgb(229,229,229)" stroke-width="2" transform="matrix(1,0,0,-1,0.0,135.0)"/>
 <path d="M0,1 l0,-5" fill="none" stroke="rgb(204,204,204)" stroke-width="2" transform="matrix(1,0,0,-1,5.0,135.0)"/>
 <path d="M0,1 l0,-5" fill="none" stroke="rgb(204,204,204)" stroke-width="2" transform="matrix(1,0,0,-1,71.0,135.0)"/>
 <path d="M611,317 c0,142,-84,217,-181,217 c-87,0,-155,-62,-155,-150 c0,-101,75,-154,157,-154 c27,0,49,4,69,12 c-21,-76,-75,-112,-147,-112 c-124,0,-183,137,-183,297 c0,92,13,175,28,230 l-108,-9 c-18,-69,-26,-148,-26,-223 c0,-204,92,-390,299,-390 c147,0,247,107,247,282 Z M460,310 c-48,0,-80,25,-80,69 c0,38,24,59,53,59 c40,0,78,-30,78,-116 l0,-2 c-15,-6,-34,-10,-51,-10 Z M460,310" fill="rgb(0,0,0)" transform="matrix(0.1,0.0,0.0,-0.1,5.0,135.0)"/>
</svg>