<?xml version="1.0" encoding="UTF-8"?>
<svg height="200.0" version="1.1" width="58.0" xmlns="http://www.w3.org/2000/svg" xmlns:xlink="http://www.w3.org/1999/xlink">
 <path d="M0,0 l58,0 l0,200 l-58,0 Z M0,0" fill="rgb(255,255,255)" transform="matrix(1,0,0,-1,0.0,200.0)"/>
 <path d="M0,0 l58,0" fill="none" stroke="rgb(229,229,229)" stroke-width="2" transform="matrix(1,0,0,-1,0.0,135.0)"/>
 <path d="M0,1 l0,-5" fill="none" stroke="rgb(204,204,204)" stroke-width="2" transform="matrix(1,0,0,-1,5.0,135.0)"/>
 <path d="M0,1 l0,-5" fill="none" stroke="rgb(204,204,204)" stroke-width="2" transform="matrix(1,0,0,-1,54.0,135.0)"/>
 <path d="M387,0 c17,26,30,57,30,97 c0,46,-23,88,-53,124 l-92,102 c80,14,151,71,151,172 c0,96,-70,176,-183,176 c-113,0,-184,-73,-184,-177 c0,-55,26,-112,71,-164 l143,-159 c21,-25,33,-54,33,-82 c0,-34,-14,-61,-32,-82 l0,-7 Z M168,493 c0,48,32,77,72,77 c46,0,73,-29,73,-75 c0,-52,-36,-87,-112,-89 c-19,27,-33,55,-33,87 Z M168,493" fill="rgb(0,0,0)" transform="matrix(0.1,0.0,0.0,-0.1,5.0,135.0)"/>
</svg>