<?xml version="1.0" encoding="UTF-8"?>
<svg height="200.0" version="1.1" width="132.0" xmlns="http://www.w3.org/2000/svg" xmlns:xlink="http://www.w3.org/1999/xlink">
 <path d="M0,0 l132,0 l0,200 l-132,0 Z M0,0" fill="rgb(255,255,255)" transform="matrix(1,0,0,-1,0.0,200.0)"/>
 <path d="M0,0 l132,0" fill="none" stroke="rgb(229,229,229)" stroke-width="2" transform="matrix(1,0,0,-1,0.0,135.0)"/>
 <path d="M0,1 l0,-5" fill="none" stroke="rgb(204,204,204)" stroke-width="2" transform="matrix(1,0,0,-1,5.0,135.0)"/>
 <path d="M0,1 l0,-5" fill="none" stroke="rgb(204,204,204)" stroke-width="2" transform="matrix(1,0,0,-1,127.0,135.0)"/>
 <path d="M932,144 c-46,0,-85,35,-108,93 c1,2,2,3,3,5 c63,96,92,158,141,158 c41,0,73,-37,73,-100 c0,-94,-48,-156,-109,-156 Z M393,336 l0,4 c41,22,73,65,73,126 c0,98,-72,162,-181,162 c-78,0,-135,-36,-166,-77 l74,-67 c18,26,46,46,88,46 c48,0,76,-30,76,-73 c0,-56,-40,-88,-147,-98 l22,-97 l48,7 c7,1,15,1,21,1 c58,0,83,-36,83,-76 c0,-47,-34,-88,-96,-88 c-66,0,-107,40,-136,88 l-86,-67 c40,-60,113,-120,219,-120 c108,0,179,56,202,127 c19,-33,58,-73,125,-73 c72,0,121,46,161,100 c34,-65,91,-114,179,-114 c122,0,194,121,194,236 c0,137,-75,218,-188,218 c-113,0,-160,-111,-226,-213 c-49,-75,-81,-125,-141,-125 c-59,0,-77,42,-99,83 c-25,48,-58,82,-99,90 Z M700,519 c118,0,205,70,235,151 l-91,37 c-24,-54,-74,-89,-144,-89 c-71,0,-116,38,-141,89 l-92,-37 c30,-81,113,-151,233,-151 Z M637,783 c0,-36,29,-65,66,-65 c39,0,68,29,68,65 c0,40,-29,70,-68,70 c-37,0,-66,-30,-66,-70 Z M637,783" fill="rgb(0,0,0)" transform="matrix(0.1,0.0,0.0,-0.1,5.0,135.0)"/>
</svg>