<?xml version="1.0" encoding="UTF-8"?>
<svg height="200.0" version="1.1" width="62.0" xmlns="http://www.w3.org/2000/svg" xmlns:xlink="http://www.w3.org/1999/xlink">
 <path d="M0,0 l62,0 l0,200 l-62,0 Z M0,0" fill="rgb(255,255,255)" transform="matrix(1,0,0,-1,0.0,200.0)"/>
 <path d="M0,0 l62,0" fill="none" stroke="rgb(229,229,229)" stroke-width="2" transform="matrix(1,0,0,-1,0.0,135.0)"/>
 <path d="M0,1 l0,-5" fill="none" stroke="rgb(204,204,204)" stroke-width="2" transform="matrix(1,0,0,-1,5.0,135.0)"/>
 <path d="M0,1 l0,-5" fill="none" stroke="rgb(204,204,204)" stroke-width="2" transform="matrix(1,0,0,-1,57.0,135.0)"/>
 <path d="M401,10 l-143,165 c-26,30,-54,60,-81,84 l1,4 c78,-3,197,46,213,163 l93,0 l41,88 l-143,0 c-13,31,-33,49,-48,58 l0,4 l150,0 l41,88 l-483,0 l0,-88 l103,0 c60,0,100,-21,116,-62 l-219,0 l0,-88 l224,0 c-21,-85,-120,-102,-208,-80 l-25,-92 l66,-65 l157,-189 l145,0 Z M401,10" fill="rgb(0,0,0)" transform="matrix(0.1,0.0,0.0,-0.1,5.0,135.0)"/>
</svg>