<?xml version="1.0" encoding="UTF-8"?>
<svg height="200.0" version="1.1" width="76.0" xmlns="http://www.w3.org/2000/svg" xmlns:xlink="http://www.w3.org/1999/xlink">
 <path d="M0,0 l76,0 l0,200 l-76,0 Z M0,0" fill="rgb(255,255,255)" transform="matrix(1,0,0,-1,0.0,200.0)"/>
 <path d="M0,0 l76,0" fill="none" stroke="rgb(229,229,229)" stroke-width="2" transform="matrix(1,0,0,-1,0.0,135.0)"/>
 <path d="M0,1 l0,-5" fill="none" stroke="rgb(204,204,204)" stroke-width="2" transform="matrix(1,0,0,-1,5.0,135.0)"/>
 <path d="M0,1 l0,-5" fill="none" stroke="rgb(204,204,204)" stroke-width="2" transform="matrix(1,0,0,-1,71.0,135.0)"/>
 <path d="M139,517 c0,-26,18,-45,44,-45 c26,0,44,19,44,45 c0,25,-18,44,-44,44 c-26,0,-44,-19,-44,-44 Z M57,407 c0,-25,20,-44,46,-44 c24,0,44,19,44,44 c0,25,-20,44,-44,44 c-26,0,-46,-19,-46,-44 Z M44,281 c0,-25,19,-43,44,-43 c26,0,44,18,44,43 c0,26,-18,45,-44,45 c-25,0,-44,-19,-44,-45 Z M96,165 c0,-26,18,-44,44,-44 c25,0,44,18,44,44 c0,25,-19,44,-44,44 c-26,0,-44,-19,-44,-44 Z M197,90 c0,-26,19,-46,45,-46 c25,0,44,20,44,46 c0,24,-19,44,-44,44 c-26,0,-45,-20,-45,-44 Z M324,74 c0,-26,18,-44,44,-44 c26,0,45,18,45,44 c0,26,-19,44,-45,44 c-26,0,-44,-18,-44,-44 Z M445,127 c0,-26,19,-44,44,-44 c25,0,45,18,45,44 c0,25,-20,44,-45,44 c-25,0,-44,-19,-44,-44 Z M518,225 c0,-25,19,-44,45,-44 c24,0,43,19,43,44 c0,26,-19,45,-43,45 c-26,0,-45,-19,-45,-45 Z M528,359 c0,-26,18,-44,44,-44 c25,0,44,18,44,44 c0,26,-19,44,-44,44 c-26,0,-44,-18,-44,-44 Z M478,477 c0,-25,19,-44,44,-44 c26,0,44,19,44,44 c0,26,-18,45,-44,45 c-25,0,-44,-19,-44,-45 Z M383,545 c0,-24,19,-44,45,-44 c25,0,43,20,43,44 c0,26,-18,45,-43,45 c-26,0,-45,-19,-45,-45 Z M257,560 c0,-26,18,-44,44,-44 c26,0,44,18,44,44 c0,26,-18,44,-44,44 c-26,0,-44,-18,-44,-44 Z M257,560" fill="rgb(0,0,0)" transform="matrix(0.1,0.0,0.0,-0.1,5.0,135.0)"/>
</svg>