<?xml version="1.0" encoding="UTF-8"?>
<svg height="200.0" version="1.1" width="38.0" xmlns="http://www.w3.org/2000/svg" xmlns:xlink="http://www.w3.org/1999/xlink">
 <path d="M0,0 l38,0 l0,200 l-38,0 Z M0,0" fill="rgb(255,255,255)" transform="matrix(1,0,0,-1,0.0,200.0)"/>
 <path d="M0,0 l38,0" fill="none" stroke="rgb(229,229,229)" stroke-width="2" transform="matrix(1,0,0,-1,0.0,135.0)"/>
 <path d="M0,-4 l0,8" fill="none" stroke="rgb(255,76,25)" stroke-width="2" transform="matrix(1,0,0,-1,32.0,135.0)"/>
 <path d="M-86,846 c23,0,44,-6,62,-16 l29,92 c-22,11,-54,23,-105,23 c-89,0,-165,-66,-165,-156 c0,-61,30,-102,64,-125 l0,-8 l116,0 l0,4 c-44,26,-76,65,-76,112 c0,45,31,74,75,74 Z M-86,846" fill="rgb(0,0,0)" transform="matrix(0.1,0.0,0.0,-0.1,32.0,135.0)"/>
</svg>