<?xml version="1.0" encoding="UTF-8"?>
<svg height="200.0" version="1.1" width="80.0" xmlns="http://www.w3.org/2000/svg" xmlns:xlink="http://www.w3.org/1999/xlink">
 <path d="M0,0 l80,0 l0,200 l-80,0 Z M0,0" fill="rgb(255,255,255)" transform="matrix(1,0,0,-1,0.0,200.0)"/>
 <path d="M0,0 l80,0" fill="none" stroke="rgb(229,229,229)" stroke-width="2" transform="matrix(1,0,0,-1,0.0,135.0)"/>
 <path d="M0,1 l0,-5" fill="none" stroke="rgb(204,204,204)" stroke-width="2" transform="matrix(1,0,0,-1,8.0,135.0)"/>
 <path d="M0,1 l0,-5" fill="none" stroke="rgb(204,204,204)" stroke-width="2" transform="matrix(1,0,0,-1,63.0,135.0)"/>
 <path d="M645,334 c-32,-24,-81,-38,-133,-38 c-24,0,-48,4,-66,9 c-14,15,-31,25,-48,31 l-165,-37 c-30,8,-49,37,-49,59 c0,26,7,44,65,44 l190,0 l0,166 l136,0 l0,92 l-602,0 l0,-92 l352,0 l0,-73 l-132,0 c-82,0,-127,-41,-127,-106 c0,-80,58,-159,154,-191 l142,34 c8,-6,20,-22,20,-45 c0,-58,-62,-83,-124,-83 l-21,0 l-147,93 c-26,-12,-44,-37,-44,-72 c0,-51,45,-110,161,-111 l170,-150 l121,64 l-163,101 l-2,4 c86,12,156,68,156,156 c0,8,0,16,-1,23 c16,-4,35,-6,54,-6 c47,0,94,10,129,29 Z M645,334" fill="rgb(0,0,0)" transform="matrix(0.1,0.0,0.0,-0.1,8.0,135.0)"/>
</svg>