<?xml version="1.0" encoding="UTF-8"?>
<svg height="200.0" version="1.1" width="70.0" xmlns="http://www.w3.org/2000/svg" xmlns:xlink="http://www.w3.org/1999/xlink">
 <path d="M0,0 l70,0 l0,200 l-70,0 Z M0,0" fill="rgb(255,255,255)" transform="matrix(1,0,0,-1,0.0,200.0)"/>
 <path d="M0,0 l70,0" fill="none" stroke="rgb(229,229,229)" stroke-width="2" transform="matrix(1,0,0,-1,0.0,135.0)"/>
 <path d="M0,1 l0,-5" fill="none" stroke="rgb(204,204,204)" stroke-width="2" transform="matrix(1,0,0,-1,8.0,135.0)"/>
 <path d="M0,1 l0,-5" fill="none" stroke="rgb(204,204,204)" stroke-width="2" transform="matrix(1,0,0,-1,56.0,135.0)"/>
 <path d="M503,660 l-530,0 l0,-92 l530,0 Z M574,459 l-429,0 l-37,-76 l0,-8 c110,-27,190,-83,190,-148 c0,-54,-38,-83,-95,-83 c-12,0,-25,2,-38,5 l-106,94 c-33,-18,-47,-43,-47,-76 c0,-54,46,-98,130,-104 l138,-150 l118,55 l-144,104 l6,3 c80,-2,153,48,153,138 c0,87,-76,133,-139,149 l0,4 l300,0 Z M574,459" fill="rgb(0,0,0)" transform="matrix(0.1,0.0,0.0,-0.1,8.0,135.0)"/>
</svg>