<?xml version="1.0" encoding="UTF-8"?>
<svg height="200.0" version="1.1" width="88.0" xmlns="http://www.w3.org/2000/svg" xmlns:xlink="http://www.w3.org/1999/xlink">
 <path d="M0,0 l88,0 l0,200 l-88,0 Z M0,0" fill="rgb(255,255,255)" transform="matrix(1,0,0,-1,0.0,200.0)"/>
 <path d="M0,0 l88,0" fill="none" stroke="rgb(229,229,229)" stroke-width="2" transform="matrix(1,0,0,-1,0.0,135.0)"/>
 <path d="M0,1 l0,-5" fill="none" stroke="rgb(204,204,204)" stroke-width="2" transform="matrix(1,0,0,-1,8.0,135.0)"/>
 <path d="M0,1 l0,-5" fill="none" stroke="rgb(204,204,204)" stroke-width="2" transform="matrix(1,0,0,-1,81.0,135.0)"/>
 <path d="M219,151 c-51,0,-73,44,-73,112 c0,68,35,115,87,115 c42,0,74,-29,93,-72 l-1,-2 c-17,-59,-37,-153,-106,-153 Z M501,147 c-44,0,-74,29,-94,71 l1,3 c18,58,35,152,105,152 c51,0,75,-44,75,-111 c0,-69,-34,-115,-87,-115 Z M519,470 c-75,0,-121,-28,-153,-75 c-20,33,-64,75,-142,75 c-110,0,-188,-85,-188,-209 c0,-124,69,-207,177,-207 c73,0,120,29,153,77 c19,-34,64,-76,144,-76 c108,0,187,82,187,208 c0,125,-69,207,-178,207 Z M759,568 l0,92 l-786,0 l0,-92 Z M302,-33 c0,-35,28,-63,64,-63 c38,0,66,28,66,63 c0,39,-28,67,-66,67 c-36,0,-64,-28,-64,-67 Z M302,-33" fill="rgb(0,0,0)" transform="matrix(0.1,0.0,0.0,-0.1,8.0,135.0)"/>
</svg>