<?xml version="1.0" encoding="UTF-8"?>
<svg height="200.0" version="1.1" width="80.0" xmlns="http://www.w3.org/2000/svg" xmlns:xlink="http://www.w3.org/1999/xlink">
 <path d="M0,0 l80,0 l0,200 l-80,0 Z M0,0" fill="rgb(255,255,255)" transform="matrix(1,0,0,-1,0.0,200.0)"/>
 <path d="M0,0 l80,0" fill="none" stroke="rgb(229,229,229)" stroke-width="2" transform="matrix(1,0,0,-1,0.0,135.0)"/>
 <path d="M0,1 l0,-5" fill="none" stroke="rgb(204,204,204)" stroke-width="2" transform="matrix(1,0,0,-1,8.0,135.0)"/>
 <path d="M0,1 l0,-5" fill="none" stroke="rgb(204,204,204)" stroke-width="2" transform="matrix(1,0,0,-1,72.0,135.0)"/>
 <path d="M398,-167 l128,28 l-146,150 c84,26,134,94,134,174 c0,75,-40,131,-97,150 l-162,-35 c-33,12,-49,42,-49,64 c0,27,12,39,71,39 l184,0 l0,165 l208,0 l0,92 l-696,0 l0,-92 l374,0 l0,-72 l-129,0 c-82,0,-127,-42,-127,-107 c0,-75,55,-152,152,-190 l143,34 c14,-10,23,-29,23,-50 c0,-55,-42,-87,-108,-87 c-84,0,-157,57,-196,142 l-77,-58 c34,-67,95,-143,192,-170 l-147,-145 l128,-32 l101,128 Z M511,365 c0,-36,28,-64,64,-64 c37,0,65,28,65,64 c0,36,-28,64,-64,64 c-37,0,-65,-28,-65,-64 Z M511,365" fill="rgb(0,0,0)" transform="matrix(0.1,0.0,0.0,-0.1,8.0,135.0)"/>
</svg>