<?xml version="1.0" encoding="UTF-8"?>
<svg height="200.0" version="1.1" width="82.0" xmlns="http://www.w3.org/2000/svg" xmlns:xlink="http://www.w3.org/1999/xlink">
 <path d="M0,0 l82,0 l0,200 l-82,0 Z M0,0" fill="rgb(255,255,255)" transform="matrix(1,0,0,-1,0.0,200.0)"/>
 <path d="M0,0 l82,0" fill="none" stroke="rgb(229,229,229)" stroke-width="2" transform="matrix(1,0,0,-1,0.0,135.0)"/>
 <path d="M0,1 l0,-5" fill="none" stroke="rgb(204,204,204)" stroke-width="2" transform="matrix(1,0,0,-1,8.0,135.0)"/>
 <path d="M0,1 l0,-5" fill="none" stroke="rgb(204,204,204)" stroke-width="2" transform="matrix(1,0,0,-1,75.0,135.0)"/>
 <path d="M465,153 l4,0 l0,-153 l117,0 l0,568 l111,0 l0,92 l-724,0 l0,-92 l496,0 l0,-305 c-12,-22,-65,-70,-144,-70 c-70,0,-106,38,-106,88 c0,58,40,93,113,93 l68,0 l0,99 l-383,0 l0,-100 l132,0 l0,-4 c-20,-17,-49,-48,-49,-102 c0,-76,50,-121,106,-136 l0,-4 l-147,-66 l94,-81 Z M465,153" fill="rgb(0,0,0)" transform="matrix(0.1,0.0,0.0,-0.1,8.0,135.0)"/>
</svg>