<?xml version="1.0" encoding="UTF-8"?>
<svg height="200.0" version="1.1" width="74.0" xmlns="http://www.w3.org/2000/svg" xmlns:xlink="http://www.w3.org/1999/xlink">
 <path d="M0,0 l74,0 l0,200 l-74,0 Z M0,0" fill="rgb(255,255,255)" transform="matrix(1,0,0,-1,0.0,200.0)"/>
 <path d="M0,0 l74,0" fill="none" stroke="rgb(229,229,229)" stroke-width="2" transform="matrix(1,0,0,-1,0.0,135.0)"/>
 <path d="M0,1 l0,-5" fill="none" stroke="rgb(204,204,204)" stroke-width="2" transform="matrix(1,0,0,-1,8.0,135.0)"/>
 <path d="M0,1 l0,-5" fill="none" stroke="rgb(204,204,204)" stroke-width="2" transform="matrix(1,0,0,-1,66.0,135.0)"/>
 <path d="M176,129 l-129,-71 l93,-81 l251,172 l4,0 l0,-149 l117,0 l0,568 l95,0 l0,92 l-634,0 l0,-92 l423,0 l0,-306 l-7,-6 l-177,140 c17,10,37,15,57,15 c21,0,45,-2,68,-10 l-6,100 c-24,6,-45,8,-73,8 c-107,0,-209,-77,-209,-199 c0,-115,79,-164,127,-177 Z M274,195 c-64,0,-113,43,-113,109 c0,18,3,35,11,49 l173,-136 c-20,-13,-43,-22,-71,-22 Z M274,195" fill="rgb(0,0,0)" transform="matrix(0.1,0.0,0.0,-0.1,8.0,135.0)"/>
</svg>