<?xml version="1.0" encoding="UTF-8"?>
<svg height="200.0" version="1.1" width="98.0" xmlns="http://www.w3.org/2000/svg" xmlns:xlink="http://www.w3.org/1999/xlink">
 <path d="M0,0 l98,0 l0,200 l-98,0 Z M0,0" fill="rgb(255,255,255)" transform="matrix(1,0,0,-1,0.0,200.0)"/>
 <path d="M0,0 l98,0" fill="none" stroke="rgb(229,229,229)" stroke-width="2" transform="matrix(1,0,0,-1,0.0,135.0)"/>
 <path d="M0,1 l0,-5" fill="none" stroke="rgb(204,204,204)" stroke-width="2" transform="matrix(1,0,0,-1,8.0,135.0)"/>
 <path d="M0,1 l0,-5" fill="none" stroke="rgb(204,204,204)" stroke-width="2" transform="matrix(1,0,0,-1,91.0,135.0)"/>
 <path d="M451,93 l172,112 l4,0 l0,-205 l117,0 l0,568 l111,0 l0,92 l-882,0 l0,-92 l260,0 l0,-161 c0,-40,-20,-55,-51,-55 c-36,0,-59,23,-83,54 l-85,-73 l269,-346 l97,58 l-112,141 c-32,39,-48,54,-68,76 l0,3 c101,-8,141,92,237,92 c56,0,86,-41,97,-89 l-168,-98 Z M450,463 c-40,0,-77,-12,-102,-26 l0,131 l279,0 l0,-241 l-4,0 c-23,75,-71,136,-173,136 Z M450,463" fill="rgb(0,0,0)" transform="matrix(0.1,0.0,0.0,-0.1,8.0,135.0)"/>
</svg>