<?xml version="1.0" encoding="UTF-8"?>
<svg height="200.0" version="1.1" width="88.0" xmlns="http://www.w3.org/2000/svg" xmlns:xlink="http://www.w3.org/1999/xlink">
 <path d="M0,0 l88,0 l0,200 l-88,0 Z M0,0" fill="rgb(255,255,255)" transform="matrix(1,0,0,-1,0.0,200.0)"/>
 <path d="M0,0 l88,0" fill="none" stroke="rgb(229,229,229)" stroke-width="2" transform="matrix(1,0,0,-1,0.0,135.0)"/>
 <path d="M0,1 l0,-5" fill="none" stroke="rgb(204,204,204)" stroke-width="2" transform="matrix(1,0,0,-1,8.0,135.0)"/>
 <path d="M0,1 l0,-5" fill="none" stroke="rgb(204,204,204)" stroke-width="2" transform="matrix(1,0,0,-1,81.0,135.0)"/>
 <path d="M618,-113 l127,27 l-154,159 c64,30,106,98,106,190 c0,108,-51,183,-135,202 l0,103 l197,0 l0,92 l-786,0 l0,-92 l477,0 l0,-108 c-37,-12,-63,-34,-84,-65 c-20,33,-64,75,-142,75 c-110,0,-188,-84,-188,-209 c0,-124,68,-207,177,-207 c73,0,120,29,153,77 c13,-23,38,-49,77,-64 l-151,-148 l129,-32 l101,128 Z M219,151 c-51,0,-73,44,-73,112 c0,68,33,115,86,115 c44,0,75,-29,94,-72 l-1,-2 c-27,-94,-43,-153,-106,-153 Z M502,147 c-47,0,-76,29,-95,71 l1,3 c27,82,46,152,105,152 c51,0,75,-44,75,-111 c0,-69,-34,-115,-86,-115 Z M502,147" fill="rgb(0,0,0)" transform="matrix(0.1,0.0,0.0,-0.1,8.0,135.0)"/>
</svg>