<?xml version="1.0" encoding="UTF-8"?>
<svg height="200.0" version="1.1" width="98.0" xmlns="http://www.w3.org/2000/svg" xmlns:xlink="http://www.w3.org/1999/xlink">
 <path d="M0,0 l98,0 l0,200 l-98,0 Z M0,0" fill="rgb(255,255,255)" transform="matrix(1,0,0,-1,0.0,200.0)"/>
 <path d="M0,0 l98,0" fill="none" stroke="rgb(229,229,229)" stroke-width="2" transform="matrix(1,0,0,-1,0.0,135.0)"/>
 <path d="M0,1 l0,-5" fill="none" stroke="rgb(204,204,204)" stroke-width="2" transform="matrix(1,0,0,-1,8.0,135.0)"/>
 <path d="M0,1 l0,-5" fill="none" stroke="rgb(204,204,204)" stroke-width="2" transform="matrix(1,0,0,-1,91.0,135.0)"/>
 <path d="M626,107 l4,0 l0,-107 l107,0 l0,568 l111,0 l0,92 l-875,0 l0,-92 l251,0 l0,-142 c0,-35,-19,-49,-42,-49 c-29,0,-45,19,-57,50 l-94,-34 c42,-240,176,-318,267,-332 l0,-4 l-210,-57 l84,-89 l274,101 c86,32,143,64,180,95 Z M626,480 c-21,16,-47,26,-88,26 c-91,0,-166,-68,-166,-160 c0,-93,70,-143,138,-149 l56,66 c-50,3,-90,30,-90,81 c0,43,32,72,77,72 c48,0,86,-37,86,-97 c0,-116,-97,-195,-232,-195 c-112,0,-207,70,-232,177 c11,-4,24,-6,39,-6 c73,0,120,43,120,132 l0,141 l296,0 l0,-88 Z M433,-93 c0,-35,28,-63,64,-63 c38,0,66,28,66,63 c0,39,-28,67,-66,67 c-36,0,-64,-28,-64,-67 Z M433,-93" fill="rgb(0,0,0)" transform="matrix(0.1,0.0,0.0,-0.1,8.0,135.0)"/>
</svg>