<?xml version="1.0" encoding="UTF-8"?>
<svg height="200.0" version="1.1" width="80.0" xmlns="http://www.w3.org/2000/svg" xmlns:xlink="http://www.w3.org/1999/xlink">
 <path d="M0,0 l80,0 l0,200 l-80,0 Z M0,0" fill="rgb(255,255,255)" transform="matrix(1,0,0,-1,0.0,200.0)"/>
 <path d="M0,0 l80,0" fill="none" stroke="rgb(229,229,229)" stroke-width="2" transform="matrix(1,0,0,-1,0.0,135.0)"/>
 <path d="M0,1 l0,-5" fill="none" stroke="rgb(204,204,204)" stroke-width="2" transform="matrix(1,0,0,-1,8.0,135.0)"/>
 <path d="M0,1 l0,-5" fill="none" stroke="rgb(204,204,204)" stroke-width="2" transform="matrix(1,0,0,-1,74.0,135.0)"/>
 <path d="M455,568 l0,-293 c-16,-29,-76,-79,-158,-79 c-75,0,-102,38,-102,75 c0,40,27,68,90,68 l56,0 l0,92 l-63,0 c-62,0,-91,28,-91,67 c0,40,26,70,84,70 Z M169,383 c-42,-11,-94,-47,-94,-118 c0,-83,68,-132,136,-136 l0,-4 l-136,-74 l94,-81 l282,191 l4,0 l0,-161 l116,0 l0,568 l111,0 l0,92 l-709,0 l0,-92 l131,0 l0,-4 c-19,-14,-38,-38,-38,-75 c0,-60,46,-97,103,-102 Z M288,-74 c0,-35,28,-63,64,-63 c38,0,66,28,66,63 c0,39,-28,67,-66,67 c-36,0,-64,-28,-64,-67 Z M288,-74" fill="rgb(0,0,0)" transform="matrix(0.1,0.0,0.0,-0.1,8.0,135.0)"/>
</svg>