<?xml version="1.0" encoding="UTF-8"?>
<svg height="200.0" version="1.1" width="84.0" xmlns="http://www.w3.org/2000/svg" xmlns:xlink="http://www.w3.org/1999/xlink">
 <path d="M0,0 l84,0 l0,200 l-84,0 Z M0,0" fill="rgb(255,255,255)" transform="matrix(1,0,0,-1,0.0,200.0)"/>
 <path d="M0,0 l84,0" fill="none" stroke="rgb(229,229,229)" stroke-width="2" transform="matrix(1,0,0,-1,0.0,135.0)"/>
 <path d="M0,1 l0,-5" fill="none" stroke="rgb(204,204,204)" stroke-width="2" transform="matrix(1,0,0,-1,8.0,135.0)"/>
 <path d="M0,1 l0,-5" fill="none" stroke="rgb(204,204,204)" stroke-width="2" transform="matrix(1,0,0,-1,77.0,135.0)"/>
 <path d="M455,-137 l128,28 l-150,153 c136,45,216,165,216,279 c0,76,-34,131,-89,155 l0,90 l158,0 l0,92 l-745,0 l0,-92 l128,0 l0,-4 c-18,-15,-41,-43,-41,-93 c0,-59,37,-109,101,-121 l0,-4 c-41,-15,-85,-55,-85,-132 c0,-88,69,-167,191,-185 l-137,-134 l128,-32 l101,128 Z M496,300 c-32,8,-52,27,-52,56 c0,27,20,44,45,44 c31,0,56,-24,56,-75 c0,-109,-98,-201,-219,-201 c-86,0,-130,43,-130,95 c0,45,27,78,88,81 c6,1,13,1,19,1 l0,96 l-34,0 c-57,0,-88,35,-88,82 c0,50,34,89,96,89 l173,0 l0,-79 c-69,-14,-114,-68,-114,-131 c0,-69,46,-111,91,-125 Z M-11,-17 c0,-35,28,-63,64,-63 c38,0,66,28,66,63 c0,39,-28,67,-66,67 c-36,0,-64,-28,-64,-67 Z M-11,-17" fill="rgb(0,0,0)" transform="matrix(0.1,0.0,0.0,-0.1,8.0,135.0)"/>
</svg>