<?xml version="1.0" encoding="UTF-8"?>
<svg height="200.0" version="1.1" width="74.0" xmlns="http://www.w3.org/2000/svg" xmlns:xlink="http://www.w3.org/1999/xlink">
 <path d="M0,0 l74,0 l0,200 l-74,0 Z M0,0" fill="rgb(255,255,255)" transform="matrix(1,0,0,-1,0.0,200.0)"/>
 <path d="M0,0 l74,0" fill="none" stroke="rgb(229,229,229)" stroke-width="2" transform="matrix(1,0,0,-1,0.0,135.0)"/>
 <path d="M0,1 l0,-5" fill="none" stroke="rgb(204,204,204)" stroke-width="2" transform="matrix(1,0,0,-1,8.0,135.0)"/>
 <path d="M0,1 l0,-5" fill="none" stroke="rgb(204,204,204)" stroke-width="2" transform="matrix(1,0,0,-1,66.0,135.0)"/>
 <path d="M381,219 l0,-219 l117,0 l0,568 l111,0 l0,92 l-636,0 l0,-92 l408,0 l0,-194 l-4,0 c-28,57,-92,118,-200,118 c-73,0,-133,-26,-181,-63 l75,-98 c39,35,77,50,118,50 c64,0,102,-36,125,-81 l-265,-171 l83,-86 l245,176 Z M190,-60 c0,-35,28,-63,64,-63 c38,0,66,28,66,63 c0,39,-28,67,-66,67 c-36,0,-64,-28,-64,-67 Z M190,-60" fill="rgb(0,0,0)" transform="matrix(0.1,0.0,0.0,-0.1,8.0,135.0)"/>
</svg>