<?xml version="1.0" encoding="UTF-8"?>
<svg height="200.0" version="1.1" width="70.0" xmlns="http://www.w3.org/2000/svg" xmlns:xlink="http://www.w3.org/1999/xlink">
 <path d="M0,0 l70,0 l0,200 l-70,0 Z M0,0" fill="rgb(255,255,255)" transform="matrix(1,0,0,-1,0.0,200.0)"/>
 <path d="M0,0 l70,0" fill="none" stroke="rgb(229,229,229)" stroke-width="2" transform="matrix(1,0,0,-1,0.0,135.0)"/>
 <path d="M0,1 l0,-5" fill="none" stroke="rgb(204,204,204)" stroke-width="2" transform="matrix(1,0,0,-1,8.0,135.0)"/>
 <path d="M0,1 l0,-5" fill="none" stroke="rgb(204,204,204)" stroke-width="2" transform="matrix(1,0,0,-1,63.0,135.0)"/>
 <path d="M209,74 l-166,-94 l95,-80 l237,168 l65,-129 l133,32 l-120,147 c22,23,39,47,39,88 c0,54,-35,83,-68,99 l-76,-28 l0,-98 c-18,-15,-43,-23,-74,-23 c-64,0,-117,41,-117,103 c0,60,27,91,126,116 l149,38 l0,155 l148,0 l0,92 l-607,0 l0,-92 l341,0 l0,-74 l-98,-26 c-119,-32,-172,-89,-172,-188 c0,-111,79,-189,165,-202 Z M195,-154 c0,-35,28,-63,64,-63 c38,0,66,28,66,63 c0,39,-28,67,-66,67 c-36,0,-64,-28,-64,-67 Z M195,-154" fill="rgb(0,0,0)" transform="matrix(0.1,0.0,0.0,-0.1,8.0,135.0)"/>
</svg>