<?xml version="1.0" encoding="UTF-8"?>
<svg height="200.0" version="1.1" width="98.0" xmlns="http://www.w3.org/2000/svg" xmlns:xlink="http://www.w3.org/1999/xlink">
 <path d="M0,0 l98,0 l0,200 l-98,0 Z M0,0" fill="rgb(255,255,255)" transform="matrix(1,0,0,-1,0.0,200.0)"/>
 <path d="M0,0 l98,0" fill="none" stroke="rgb(229,229,229)" stroke-width="2" transform="matrix(1,0,0,-1,0.0,135.0)"/>
 <path d="M0,1 l0,-5" fill="none" stroke="rgb(204,204,204)" stroke-width="2" transform="matrix(1,0,0,-1,8.0,135.0)"/>
 <path d="M0,1 l0,-5" fill="none" stroke="rgb(204,204,204)" stroke-width="2" transform="matrix(1,0,0,-1,91.0,135.0)"/>
 <path d="M200,191 l-166,-132 l106,-73 l226,226 l4,0 l0,-212 l113,0 l0,265 c0,65,40,119,108,119 c51,0,86,-34,86,-85 c0,-63,-49,-106,-125,-91 l18,-101 c120,-12,223,61,223,194 c0,110,-80,182,-180,182 c-68,0,-108,-30,-126,-51 l-4,0 l0,136 l371,0 l0,92 l-881,0 l0,-92 l112,0 l0,-223 c0,-87,45,-137,115,-150 Z M274,277 c-51,0,-72,27,-72,88 l0,203 l168,0 l0,-241 c-13,-24,-51,-50,-96,-50 Z M209,-80 c0,-35,28,-63,64,-63 c38,0,66,28,66,63 c0,39,-28,67,-66,67 c-36,0,-64,-28,-64,-67 Z M209,-80" fill="rgb(0,0,0)" transform="matrix(0.1,0.0,0.0,-0.1,8.0,135.0)"/>
</svg>