<?xml version="1.0" encoding="UTF-8"?>
<svg height="200.0" version="1.1" width="72.0" xmlns="http://www.w3.org/2000/svg" xmlns:xlink="http://www.w3.org/1999/xlink">
 <path d="M0,0 l72,0 l0,200 l-72,0 Z M0,0" fill="rgb(255,255,255)" transform="matrix(1,0,0,-1,0.0,200.0)"/>
 <path d="M0,0 l72,0" fill="none" stroke="rgb(229,229,229)" stroke-width="2" transform="matrix(1,0,0,-1,0.0,135.0)"/>
 <path d="M0,1 l0,-5" fill="none" stroke="rgb(204,204,204)" stroke-width="2" transform="matrix(1,0,0,-1,8.0,135.0)"/>
 <path d="M0,1 l0,-5" fill="none" stroke="rgb(204,204,204)" stroke-width="2" transform="matrix(1,0,0,-1,65.0,135.0)"/>
 <path d="M388,226 l0,-4 l-149,-114 l93,-40 l84,81 l4,0 l-2,-93 l99,0 l0,188 l-73,72 l-139,0 c-29,0,-55,-2,-80,-9 c-29,12,-51,33,-51,55 c0,23,13,37,57,37 l256,0 l0,169 l114,0 l0,92 l-628,0 l0,-92 l402,0 l0,-75 l-175,0 c-85,0,-139,-47,-139,-112 c0,-47,24,-92,75,-119 c-41,-33,-63,-79,-63,-129 c0,-125,103,-204,260,-231 l64,86 c-170,17,-211,83,-211,142 c0,53,35,96,113,96 Z M12,-110 c0,-35,28,-63,64,-63 c38,0,66,28,66,63 c0,39,-28,67,-66,67 c-36,0,-64,-28,-64,-67 Z M12,-110" fill="rgb(0,0,0)" transform="matrix(0.1,0.0,0.0,-0.1,8.0,135.0)"/>
</svg>