<?xml version="1.0" encoding="UTF-8"?>
<svg height="200.0" version="1.1" width="86.0" xmlns="http://www.w3.org/2000/svg" xmlns:xlink="http://www.w3.org/1999/xlink">
 <path d="M0,0 l86,0 l0,200 l-86,0 Z M0,0" fill="rgb(255,255,255)" transform="matrix(1,0,0,-1,0.0,200.0)"/>
 <path d="M0,0 l86,0" fill="none" stroke="rgb(229,229,229)" stroke-width="2" transform="matrix(1,0,0,-1,0.0,135.0)"/>
 <path d="M0,1 l0,-5" fill="none" stroke="rgb(204,204,204)" stroke-width="2" transform="matrix(1,0,0,-1,7.0,135.0)"/>
 <path d="M0,1 l0,-5" fill="none" stroke="rgb(204,204,204)" stroke-width="2" transform="matrix(1,0,0,-1,67.0,135.0)"/>
 <path d="M410,116 c-112,0,-206,71,-231,178 c10,-4,24,-6,39,-6 c73,0,120,43,120,132 l0,148 l276,0 l0,92 l-638,0 l0,-92 l251,0 l0,-149 c0,-35,-19,-49,-41,-49 c-29,0,-46,19,-57,50 l-95,-34 c43,-240,176,-318,267,-332 l0,-4 l-209,-57 l83,-89 l279,103 c181,66,279,165,279,308 c0,114,-85,185,-179,185 c-100,0,-174,-68,-174,-161 c0,-92,71,-140,137,-147 l58,66 c-50,3,-90,32,-90,79 c0,42,26,72,71,72 c42,0,80,-32,80,-93 c0,-110,-95,-200,-226,-200 Z M410,116" fill="rgb(0,0,0)" transform="matrix(0.1,0.0,0.0,-0.1,7.0,135.0)"/>
</svg>