<?xml version="1.0" encoding="UTF-8"?>
<svg height="200.0" version="1.1" width="66.0" xmlns="http://www.w3.org/2000/svg" xmlns:xlink="http://www.w3.org/1999/xlink">
 <path d="M0,0 l66,0 l0,200 l-66,0 Z M0,0" fill="rgb(255,255,255)" transform="matrix(1,0,0,-1,0.0,200.0)"/>
 <path d="M0,0 l66,0" fill="none" stroke="rgb(229,229,229)" stroke-width="2" transform="matrix(1,0,0,-1,0.0,135.0)"/>
 <path d="M0,1 l0,-5" fill="none" stroke="rgb(204,204,204)" stroke-width="2" transform="matrix(1,0,0,-1,8.0,135.0)"/>
 <path d="M0,1 l0,-5" fill="none" stroke="rgb(204,204,204)" stroke-width="2" transform="matrix(1,0,0,-1,47.0,135.0)"/>
 <path d="M467,293 c-31,-51,-95,-97,-170,-97 c-75,0,-102,38,-102,75 c0,40,27,68,90,68 l56,0 l0,92 l-63,0 c-62,0,-91,28,-91,67 c0,40,26,70,84,70 l143,0 l0,92 l-441,0 l0,-92 l131,0 l0,-4 c-19,-14,-38,-38,-38,-75 c0,-60,46,-97,103,-102 l0,-4 c-42,-11,-94,-47,-94,-118 c0,-83,68,-132,136,-136 l0,-4 l-136,-74 l94,-81 l271,177 c32,21,63,45,90,68 Z M467,293" fill="rgb(0,0,0)" transform="matrix(0.1,0.0,0.0,-0.1,8.0,135.0)"/>
</svg>