<?xml version="1.0" encoding="UTF-8"?>
<svg height="200.0" version="1.1" width="76.0" xmlns="http://www.w3.org/2000/svg" xmlns:xlink="http://www.w3.org/1999/xlink">
 <path d="M0,0 l76,0 l0,200 l-76,0 Z M0,0" fill="rgb(255,255,255)" transform="matrix(1,0,0,-1,0.0,200.0)"/>
 <path d="M0,0 l76,0" fill="none" stroke="rgb(229,229,229)" stroke-width="2" transform="matrix(1,0,0,-1,0.0,135.0)"/>
 <path d="M0,1 l0,-5" fill="none" stroke="rgb(204,204,204)" stroke-width="2" transform="matrix(1,0,0,-1,8.0,135.0)"/>
 <path d="M0,1 l0,-5" fill="none" stroke="rgb(204,204,204)" stroke-width="2" transform="matrix(1,0,0,-1,58.0,135.0)"/>
 <path d="M528,660 l-555,0 l0,-92 l100,0 l0,-196 c0,-121,70,-183,184,-183 c113,0,187,64,187,186 l0,193 l84,0 Z M631,183 l0,103 l-405,-235 l96,-77 Z M259,288 c-43,0,-70,24,-70,79 l0,201 l140,0 l0,-200 c0,-55,-25,-80,-70,-80 Z M259,288" fill="rgb(0,0,0)" transform="matrix(0.1,0.0,0.0,-0.1,8.0,135.0)"/>
</svg>