<?xml version="1.0" encoding="UTF-8"?>
<svg height="200.0" version="1.1" width="66.0" xmlns="http://www.w3.org/2000/svg" xmlns:xlink="http://www.w3.org/1999/xlink">
 <path d="M0,0 l66,0 l0,200 l-66,0 Z M0,0" fill="rgb(255,255,255)" transform="matrix(1,0,0,-1,0.0,200.0)"/>
 <path d="M0,0 l66,0" fill="none" stroke="rgb(229,229,229)" stroke-width="2" transform="matrix(1,0,0,-1,0.0,135.0)"/>
 <path d="M0,1 l0,-5" fill="none" stroke="rgb(204,204,204)" stroke-width="2" transform="matrix(1,0,0,-1,5.0,135.0)"/>
 <path d="M0,1 l0,-5" fill="none" stroke="rgb(204,204,204)" stroke-width="2" transform="matrix(1,0,0,-1,53.0,135.0)"/>
 <path d="M498,296 c-23,-45,-84,-106,-185,-106 c-106,0,-141,72,-146,112 c23,5,46,10,67,16 c111,32,178,93,178,193 c0,92,-61,159,-165,159 c-99,0,-165,-65,-165,-145 c0,-37,13,-69,33,-89 l100,29 c-15,17,-21,37,-21,55 c0,33,22,53,53,53 c34,0,53,-22,53,-60 c0,-50,-31,-90,-147,-122 l-122,-32 c8,-155,103,-224,171,-236 l0,-4 l-141,-69 l98,-84 l284,156 c54,31,96,64,122,98 Z M498,296" fill="rgb(0,0,0)" transform="matrix(0.1,0.0,0.0,-0.1,5.0,135.0)"/>
</svg>