<?xml version="1.0" encoding="UTF-8"?>
<svg height="200.0" version="1.1" width="66.0" xmlns="http://www.w3.org/2000/svg" xmlns:xlink="http://www.w3.org/1999/xlink">
 <path d="M0,0 l66,0 l0,200 l-66,0 Z M0,0" fill="rgb(255,255,255)" transform="matrix(1,0,0,-1,0.0,200.0)"/>
 <path d="M0,0 l66,0" fill="none" stroke="rgb(229,229,229)" stroke-width="2" transform="matrix(1,0,0,-1,0.0,135.0)"/>
 <path d="M0,1 l0,-5" fill="none" stroke="rgb(204,204,204)" stroke-width="2" transform="matrix(1,0,0,-1,8.0,135.0)"/>
 <path d="M0,1 l0,-5" fill="none" stroke="rgb(204,204,204)" stroke-width="2" transform="matrix(1,0,0,-1,48.0,135.0)"/>
 <path d="M431,660 l-49,0 l0,-92 l49,0 Z M213,129 l0,-4 l-137,-74 l95,-81 l257,163 c60,38,83,64,99,85 l-61,71 c-31,-45,-89,-90,-172,-90 c-76,0,-101,38,-101,74 c0,42,29,69,93,69 l62,0 l0,92 l-71,0 c-60,0,-89,27,-89,65 c0,37,31,63,61,74 l-17,87 l-259,0 l0,-92 l133,0 l0,-4 c-19,-12,-38,-37,-38,-73 c0,-61,44,-96,100,-101 l0,-4 c-43,-10,-95,-47,-95,-122 c0,-86,70,-133,140,-135 Z M213,129" fill="rgb(0,0,0)" transform="matrix(0.1,0.0,0.0,-0.1,8.0,135.0)"/>
</svg>