<?xml version="1.0" encoding="UTF-8"?>
<svg height="200.0" version="1.1" width="86.0" xmlns="http://www.w3.org/2000/svg" xmlns:xlink="http://www.w3.org/1999/xlink">
 <path d="M0,0 l86,0 l0,200 l-86,0 Z M0,0" fill="rgb(255,255,255)" transform="matrix(1,0,0,-1,0.0,200.0)"/>
 <path d="M0,0 l86,0" fill="none" stroke="rgb(229,229,229)" stroke-width="2" transform="matrix(1,0,0,-1,0.0,135.0)"/>
 <path d="M0,1 l0,-5" fill="none" stroke="rgb(204,204,204)" stroke-width="2" transform="matrix(1,0,0,-1,8.0,135.0)"/>
 <path d="M0,1 l0,-5" fill="none" stroke="rgb(204,204,204)" stroke-width="2" transform="matrix(1,0,0,-1,68.0,135.0)"/>
 <path d="M274,277 c-51,0,-72,27,-72,88 l0,203 l168,0 l0,-241 c-13,-24,-51,-50,-96,-50 Z M483,275 c0,64,43,109,103,109 c42,0,69,-17,84,-37 l62,85 c-31,31,-76,49,-124,49 c-55,0,-100,-24,-121,-47 l-4,0 l0,134 l140,0 l0,92 l-650,0 l0,-92 l112,0 l0,-223 c0,-87,45,-137,115,-150 l0,-4 l-166,-132 l106,-73 l226,226 l4,0 l0,-212 l113,0 Z M483,275" fill="rgb(0,0,0)" transform="matrix(0.1,0.0,0.0,-0.1,8.0,135.0)"/>
</svg>