<?xml version="1.0" encoding="UTF-8"?>
<svg height="200.0" version="1.1" width="82.0" xmlns="http://www.w3.org/2000/svg" xmlns:xlink="http://www.w3.org/1999/xlink">
 <path d="M0,0 l82,0 l0,200 l-82,0 Z M0,0" fill="rgb(255,255,255)" transform="matrix(1,0,0,-1,0.0,200.0)"/>
 <path d="M0,0 l82,0" fill="none" stroke="rgb(229,229,229)" stroke-width="2" transform="matrix(1,0,0,-1,0.0,135.0)"/>
 <path d="M0,1 l0,-5" fill="none" stroke="rgb(204,204,204)" stroke-width="2" transform="matrix(1,0,0,-1,10.0,135.0)"/>
 <path d="M0,1 l0,-5" fill="none" stroke="rgb(204,204,204)" stroke-width="2" transform="matrix(1,0,0,-1,74.0,135.0)"/>
 <path d="M410,-167 l127,28 l-148,153 c78,28,125,93,125,171 c0,75,-40,131,-97,150 l-162,-35 c-33,12,-49,42,-49,64 c0,27,12,39,71,39 l184,0 l0,165 l208,0 l0,92 l-696,0 l0,-92 l374,0 l0,-72 l-129,0 c-82,0,-127,-42,-127,-107 c0,-75,55,-152,152,-190 l143,34 c14,-10,23,-29,23,-50 c0,-55,-42,-87,-108,-87 c-84,0,-157,57,-196,142 l-77,-58 c35,-69,99,-147,200,-172 l-144,-143 l128,-32 l101,128 Z M511,365 c0,-36,28,-64,64,-64 c37,0,65,28,65,64 c0,36,-28,64,-64,64 c-37,0,-65,-28,-65,-64 Z M-48,-24 c0,-35,28,-63,64,-63 c38,0,66,28,66,63 c0,39,-28,67,-66,67 c-36,0,-64,-28,-64,-67 Z M501,-390 l-170,185 l-89,-35 l108,-154 l151,0 Z M501,-390" fill="rgb(0,0,0)" transform="matrix(0.1,0.0,0.0,-0.1,10.0,135.0)"/>
</svg>