<?xml version="1.0" encoding="UTF-8"?>
<svg height="200.0" version="1.1" width="68.0" xmlns="http://www.w3.org/2000/svg" xmlns:xlink="http://www.w3.org/1999/xlink">
 <path d="M0,0 l68,0 l0,200 l-68,0 Z M0,0" fill="rgb(255,255,255)" transform="matrix(1,0,0,-1,0.0,200.0)"/>
 <path d="M0,0 l68,0" fill="none" stroke="rgb(229,229,229)" stroke-width="2" transform="matrix(1,0,0,-1,0.0,135.0)"/>
 <path d="M0,1 l0,-5" fill="none" stroke="rgb(204,204,204)" stroke-width="2" transform="matrix(1,0,0,-1,8.0,135.0)"/>
 <path d="M0,1 l0,-5" fill="none" stroke="rgb(204,204,204)" stroke-width="2" transform="matrix(1,0,0,-1,50.0,135.0)"/>
 <path d="M453,660 l-480,0 l0,-92 l480,0 Z M491,296 c-19,-39,-67,-103,-166,-103 c-70,0,-106,38,-106,88 c0,58,40,93,113,93 l68,0 l0,99 l-383,0 l0,-100 l132,0 l0,-4 c-20,-17,-49,-48,-49,-102 c0,-76,50,-121,106,-136 l0,-4 l-147,-66 l94,-81 l279,150 c49,26,92,58,117,93 Z M293,-74 c0,-35,28,-63,64,-63 c38,0,66,28,66,63 c0,39,-28,67,-66,67 c-36,0,-64,-28,-64,-67 Z M293,-74" fill="rgb(0,0,0)" transform="matrix(0.1,0.0,0.0,-0.1,8.0,135.0)"/>
</svg>