<?xml version="1.0" encoding="UTF-8"?>
<svg height="200.0" version="1.1" width="84.0" xmlns="http://www.w3.org/2000/svg" xmlns:xlink="http://www.w3.org/1999/xlink">
 <path d="M0,0 l84,0 l0,200 l-84,0 Z M0,0" fill="rgb(255,255,255)" transform="matrix(1,0,0,-1,0.0,200.0)"/>
 <path d="M0,0 l84,0" fill="none" stroke="rgb(229,229,229)" stroke-width="2" transform="matrix(1,0,0,-1,0.0,135.0)"/>
 <path d="M0,1 l0,-5" fill="none" stroke="rgb(204,204,204)" stroke-width="2" transform="matrix(1,0,0,-1,8.0,135.0)"/>
 <path d="M0,1 l0,-5" fill="none" stroke="rgb(204,204,204)" stroke-width="2" transform="matrix(1,0,0,-1,77.0,135.0)"/>
 <path d="M459,-137 l128,28 l-152,156 c138,48,214,175,214,289 c0,106,-66,170,-162,170 c-90,0,-151,-62,-151,-136 c0,-68,46,-111,91,-124 l69,67 c-32,8,-52,27,-52,56 c0,26,20,44,44,44 c30,0,57,-23,57,-76 c0,-116,-103,-213,-225,-213 c-85,0,-124,43,-124,95 c0,46,27,79,89,81 l18,1 l0,96 l-34,0 c-57,0,-88,35,-88,82 c0,50,34,89,96,89 l441,0 l0,92 l-745,0 l0,-92 l128,0 l0,-4 c-18,-15,-41,-43,-41,-93 c0,-59,37,-109,101,-121 l0,-4 c-41,-15,-85,-55,-85,-132 c0,-90,67,-171,194,-186 l-136,-133 l128,-32 l101,128 Z M-16,-16 c0,-35,28,-63,64,-63 c38,0,66,28,66,63 c0,39,-28,67,-66,67 c-36,0,-64,-28,-64,-67 Z M-16,-16" fill="rgb(0,0,0)" transform="matrix(0.1,0.0,0.0,-0.1,8.0,135.0)"/>
</svg>