<?xml version="1.0" encoding="UTF-8"?>
<svg height="200.0" version="1.1" width="84.0" xmlns="http://www.w3.org/2000/svg" xmlns:xlink="http://www.w3.org/1999/xlink">
 <path d="M0,0 l84,0 l0,200 l-84,0 Z M0,0" fill="rgb(255,255,255)" transform="matrix(1,0,0,-1,0.0,200.0)"/>
 <path d="M0,0 l84,0" fill="none" stroke="rgb(229,229,229)" stroke-width="2" transform="matrix(1,0,0,-1,0.0,135.0)"/>
 <path d="M0,1 l0,-5" fill="none" stroke="rgb(204,204,204)" stroke-width="2" transform="matrix(1,0,0,-1,8.0,135.0)"/>
 <path d="M0,1 l0,-5" fill="none" stroke="rgb(204,204,204)" stroke-width="2" transform="matrix(1,0,0,-1,63.0,135.0)"/>
 <path d="M691,242 l-226,-208 l95,-55 l155,175 l0,208 c-44,-32,-104,-60,-190,-60 c-57,0,-102,19,-131,33 l-160,-36 c-30,8,-49,37,-49,59 c0,26,7,44,65,44 l189,0 l0,166 l136,0 l0,92 l-602,0 l0,-92 l353,0 l0,-73 l-132,0 c-82,0,-127,-41,-127,-106 c0,-80,58,-159,154,-191 l141,34 c9,-6,21,-22,21,-45 c0,-58,-61,-83,-124,-83 l-22,0 l-147,94 c-26,-13,-44,-39,-44,-73 c0,-51,45,-110,161,-111 l170,-152 l123,65 l-165,102 l-1,4 c86,12,156,68,156,156 c0,10,-1,20,-4,29 c18,-4,39,-6,61,-6 c36,0,96,5,143,33 Z M89,-105 c0,-35,28,-63,64,-63 c38,0,66,28,66,63 c0,39,-28,67,-66,67 c-36,0,-64,-28,-64,-67 Z M89,-105" fill="rgb(0,0,0)" transform="matrix(0.1,0.0,0.0,-0.1,8.0,135.0)"/>
</svg>