<?xml version="1.0" encoding="UTF-8"?>
<svg height="200.0" version="1.1" width="78.0" xmlns="http://www.w3.org/2000/svg" xmlns:xlink="http://www.w3.org/1999/xlink">
 <path d="M0,0 l78,0 l0,200 l-78,0 Z M0,0" fill="rgb(255,255,255)" transform="matrix(1,0,0,-1,0.0,200.0)"/>
 <path d="M0,0 l78,0" fill="none" stroke="rgb(229,229,229)" stroke-width="2" transform="matrix(1,0,0,-1,0.0,135.0)"/>
 <path d="M0,1 l0,-5" fill="none" stroke="rgb(204,204,204)" stroke-width="2" transform="matrix(1,0,0,-1,10.0,135.0)"/>
 <path d="M0,1 l0,-5" fill="none" stroke="rgb(204,204,204)" stroke-width="2" transform="matrix(1,0,0,-1,70.0,135.0)"/>
 <path d="M418,-140 l128,28 l-152,156 c104,32,163,118,163,211 c0,100,-61,166,-139,207 l0,106 l206,0 l0,92 l-651,0 l0,-92 l327,0 l0,-87 l-92,-27 c-114,-33,-167,-89,-167,-187 c0,-110,79,-206,199,-230 l-147,-145 l128,-32 l101,128 Z M287,132 c-92,0,-133,59,-133,113 c0,53,17,90,119,117 l79,21 c46,-18,95,-60,95,-121 c0,-70,-54,-130,-160,-130 Z M501,-359 l-170,185 l-89,-35 l108,-154 l151,0 Z M-48,7 c0,-35,28,-63,64,-63 c38,0,66,28,66,63 c0,39,-28,67,-66,67 c-36,0,-64,-28,-64,-67 Z M-48,7" fill="rgb(0,0,0)" transform="matrix(0.1,0.0,0.0,-0.1,10.0,135.0)"/>
</svg>