<?xml version="1.0" encoding="UTF-8"?>
<svg height="200.0" version="1.1" width="150.0" xmlns="http://www.w3.org/2000/svg" xmlns:xlink="http://www.w3.org/1999/xlink">
 <path d="M0,0 l150,0 l0,200 l-150,0 Z M0,0" fill="rgb(255,255,255)" transform="matrix(1,0,0,-1,0.0,200.0)"/>
 <path d="M0,0 l150,0" fill="none" stroke="rgb(229,229,229)" stroke-width="2" transform="matrix(1,0,0,-1,0.0,135.0)"/>
 <path d="M0,1 l0,-5" fill="none" stroke="rgb(204,204,204)" stroke-width="2" transform="matrix(1,0,0,-1,8.0,135.0)"/>
 <path d="M0,1 l0,-5" fill="none" stroke="rgb(204,204,204)" stroke-width="2" transform="matrix(1,0,0,-1,144.0,135.0)"/>
 <path d="M809,208 c-52,0,-90,36,-90,86 c0,69,58,101,127,88 l-19,101 c-54,6,-107,-6,-148,-35 c-30,20,-68,32,-107,32 c-52,0,-96,-23,-116,-46 l-4,0 l0,134 l454,0 l0,-255 c0,-60,-38,-105,-97,-105 Z M337,157 l0,-157 l115,0 l0,279 c0,61,41,104,101,104 c26,0,47,-7,63,-17 c-8,-21,-12,-45,-12,-71 c0,-111,82,-184,181,-184 c61,0,99,26,117,46 l4,0 l0,-157 l115,0 l0,279 c0,60,39,104,99,104 c50,0,86,-35,86,-85 c0,-69,-57,-102,-125,-88 l18,-101 c114,-13,223,55,223,188 c0,111,-81,183,-180,183 c-56,0,-96,-24,-117,-46 l-4,0 l0,134 l362,0 l0,92 l-1410,0 l0,-92 l364,0 l0,-255 c0,-60,-38,-105,-97,-105 c-52,0,-89,36,-89,86 c0,69,58,101,126,88 l-18,101 c-115,12,-224,-55,-224,-188 c0,-111,82,-184,181,-184 c61,0,99,26,117,46 Z M69,9 c0,-34,27,-62,62,-62 c37,0,64,28,64,62 c0,38,-27,64,-64,64 c-35,0,-62,-26,-62,-64 Z M636,9 c0,-33,27,-61,62,-61 c37,0,64,28,64,61 c0,38,-27,65,-64,65 c-35,0,-62,-27,-62,-65 Z M636,9" fill="rgb(0,0,0)" transform="matrix(0.1,0.0,0.0,-0.1,8.0,135.0)"/>
</svg>