<?xml version="1.0" encoding="UTF-8"?>
<svg height="200.0" version="1.1" width="154.0" xmlns="http://www.w3.org/2000/svg" xmlns:xlink="http://www.w3.org/1999/xlink">
 <path d="M0,0 l154,0 l0,200 l-154,0 Z M0,0" fill="rgb(255,255,255)" transform="matrix(1,0,0,-1,0.0,200.0)"/>
 <path d="M0,0 l154,0" fill="none" stroke="rgb(229,229,229)" stroke-width="2" transform="matrix(1,0,0,-1,0.0,135.0)"/>
 <path d="M0,1 l0,-5" fill="none" stroke="rgb(204,204,204)" stroke-width="2" transform="matrix(1,0,0,-1,8.0,135.0)"/>
 <path d="M0,1 l0,-5" fill="none" stroke="rgb(204,204,204)" stroke-width="2" transform="matrix(1,0,0,-1,147.0,135.0)"/>
 <path d="M751,363 c-25,0,-41,15,-53,40 l-11,32 c-31,31,-69,45,-115,45 c-52,0,-96,-23,-116,-46 l-4,0 l0,134 l341,0 l0,-156 c0,-35,-19,-49,-42,-49 Z M337,157 l0,-157 l115,0 l0,279 c0,61,41,104,101,104 c19,0,36,-4,50,-10 c20,-189,140,-359,359,-359 c123,0,199,53,234,91 l4,0 l0,-105 l106,0 l0,568 l111,0 l0,92 l-1444,0 l0,-92 l364,0 l0,-255 c0,-60,-38,-105,-97,-105 c-52,0,-89,36,-89,86 c0,69,58,101,126,88 l-18,101 c-115,12,-224,-55,-224,-188 c0,-111,82,-184,181,-184 c61,0,99,26,117,46 Z M1195,473 c-17,13,-43,25,-88,25 c-91,0,-162,-68,-162,-161 c0,-93,71,-144,138,-152 l61,66 c-52,3,-95,33,-95,83 c0,42,30,72,73,72 c44,0,80,-32,80,-91 c0,-122,-103,-208,-231,-208 c-119,0,-207,73,-233,175 c11,-3,24,-6,39,-6 c73,0,126,46,126,143 l0,149 l296,0 l0,-95 Z M1195,473" fill="rgb(0,0,0)" transform="matrix(0.1,0.0,0.0,-0.1,8.0,135.0)"/>
</svg>