<?xml version="1.0" encoding="UTF-8"?>
<svg height="200.0" version="1.1" width="148.0" xmlns="http://www.w3.org/2000/svg" xmlns:xlink="http://www.w3.org/1999/xlink">
 <path d="M0,0 l148,0 l0,200 l-148,0 Z M0,0" fill="rgb(255,255,255)" transform="matrix(1,0,0,-1,0.0,200.0)"/>
 <path d="M0,0 l148,0" fill="none" stroke="rgb(229,229,229)" stroke-width="2" transform="matrix(1,0,0,-1,0.0,135.0)"/>
 <path d="M0,1 l0,-5" fill="none" stroke="rgb(204,204,204)" stroke-width="2" transform="matrix(1,0,0,-1,8.0,135.0)"/>
 <path d="M0,1 l0,-5" fill="none" stroke="rgb(204,204,204)" stroke-width="2" transform="matrix(1,0,0,-1,140.0,135.0)"/>
 <path d="M572,480 c-52,0,-96,-23,-116,-46 l-4,0 l0,134 l668,0 l0,-114 l-244,0 l-46,-84 l0,-8 c46,-17,83,-53,83,-101 c0,-43,-27,-68,-69,-68 c-94,0,-148,128,-156,250 c-31,24,-73,37,-116,37 Z M452,279 c0,61,41,104,101,104 c15,0,28,-2,39,-6 c20,-120,93,-285,261,-285 c104,0,172,67,172,158 c0,51,-22,88,-48,107 l0,4 l143,0 l0,-361 l117,0 l0,568 l111,0 l0,92 l-1375,0 l0,-92 l364,0 l0,-255 c0,-60,-38,-105,-97,-105 c-52,0,-89,36,-89,86 c0,69,58,101,126,88 l-18,101 c-115,12,-224,-55,-224,-188 c0,-111,82,-184,181,-184 c61,0,99,26,117,46 l4,0 l0,-157 l115,0 Z M452,279" fill="rgb(0,0,0)" transform="matrix(0.1,0.0,0.0,-0.1,8.0,135.0)"/>
</svg>