<?xml version="1.0" encoding="UTF-8"?>
<svg height="200.0" version="1.1" width="126.0" xmlns="http://www.w3.org/2000/svg" xmlns:xlink="http://www.w3.org/1999/xlink">
 <path d="M0,0 l126,0 l0,200 l-126,0 Z M0,0" fill="rgb(255,255,255)" transform="matrix(1,0,0,-1,0.0,200.0)"/>
 <path d="M0,0 l126,0" fill="none" stroke="rgb(229,229,229)" stroke-width="2" transform="matrix(1,0,0,-1,0.0,135.0)"/>
 <path d="M0,1 l0,-5" fill="none" stroke="rgb(204,204,204)" stroke-width="2" transform="matrix(1,0,0,-1,8.0,135.0)"/>
 <path d="M0,1 l0,-5" fill="none" stroke="rgb(204,204,204)" stroke-width="2" transform="matrix(1,0,0,-1,118.0,135.0)"/>
 <path d="M572,480 c-52,0,-96,-23,-116,-46 l-4,0 l0,134 l420,0 l0,-87 l-92,-27 c-30,-8,-56,-18,-77,-30 c-26,30,-69,56,-131,56 Z M337,157 l0,-157 l115,0 l0,279 c0,61,41,104,101,104 c39,0,63,-16,77,-32 c-11,-24,-17,-52,-17,-84 c0,-125,107,-236,261,-236 c75,0,151,21,214,83 l-58,93 c-50,-53,-102,-75,-170,-75 c-91,0,-133,59,-133,113 c0,53,16,89,119,117 l144,39 l0,167 l134,0 l0,92 l-1151,0 l0,-92 l364,0 l0,-255 c0,-60,-38,-105,-97,-105 c-52,0,-89,36,-89,86 c0,69,58,101,126,88 l-18,101 c-115,12,-224,-55,-224,-188 c0,-111,82,-184,181,-184 c61,0,99,26,117,46 Z M337,157" fill="rgb(0,0,0)" transform="matrix(0.1,0.0,0.0,-0.1,8.0,135.0)"/>
</svg>