<?xml version="1.0" encoding="UTF-8"?>
<svg height="200.0" version="1.1" width="150.0" xmlns="http://www.w3.org/2000/svg" xmlns:xlink="http://www.w3.org/1999/xlink">
 <path d="M0,0 l150,0 l0,200 l-150,0 Z M0,0" fill="rgb(255,255,255)" transform="matrix(1,0,0,-1,0.0,200.0)"/>
 <path d="M0,0 l150,0" fill="none" stroke="rgb(229,229,229)" stroke-width="2" transform="matrix(1,0,0,-1,0.0,135.0)"/>
 <path d="M0,1 l0,-5" fill="none" stroke="rgb(204,204,204)" stroke-width="2" transform="matrix(1,0,0,-1,8.0,135.0)"/>
 <path d="M0,1 l0,-5" fill="none" stroke="rgb(204,204,204)" stroke-width="2" transform="matrix(1,0,0,-1,142.0,135.0)"/>
 <path d="M456,434 l-4,0 l0,134 l184,0 l0,-97 c-19,6,-40,9,-64,9 c-52,0,-96,-23,-116,-46 Z M337,157 l0,-157 l115,0 l0,279 c0,61,41,104,101,104 c38,0,64,-13,83,-32 l0,-9 c0,-122,69,-184,183,-184 c113,0,187,64,187,186 l0,224 l137,0 l0,-568 l116,0 l0,568 l110,0 l0,92 l-1396,0 l0,-92 l364,0 l0,-255 c0,-60,-38,-105,-97,-105 c-52,0,-89,36,-89,86 c0,69,58,101,126,88 l-18,101 c-115,12,-224,-55,-224,-188 c0,-111,82,-184,181,-184 c61,0,99,26,117,46 Z M821,258 c-43,0,-70,23,-70,78 l0,232 l140,0 l0,-231 c0,-55,-25,-79,-70,-79 Z M821,258" fill="rgb(0,0,0)" transform="matrix(0.1,0.0,0.0,-0.1,8.0,135.0)"/>
</svg>