<?xml version="1.0" encoding="UTF-8"?>
<svg height="200.0" version="1.1" width="168.0" xmlns="http://www.w3.org/2000/svg" xmlns:xlink="http://www.w3.org/1999/xlink">
 <path d="M0,0 l168,0 l0,200 l-168,0 Z M0,0" fill="rgb(255,255,255)" transform="matrix(1,0,0,-1,0.0,200.0)"/>
 <path d="M0,0 l168,0" fill="none" stroke="rgb(229,229,229)" stroke-width="2" transform="matrix(1,0,0,-1,0.0,135.0)"/>
 <path d="M0,1 l0,-5" fill="none" stroke="rgb(204,204,204)" stroke-width="2" transform="matrix(1,0,0,-1,8.0,135.0)"/>
 <path d="M0,1 l0,-5" fill="none" stroke="rgb(204,204,204)" stroke-width="2" transform="matrix(1,0,0,-1,160.0,135.0)"/>
 <path d="M872,460 l-45,0 c-44,0,-88,-12,-123,-38 c-19,24,-58,58,-131,58 c-52,0,-97,-23,-117,-46 l-4,0 l0,134 l587,0 c22,-24,34,-61,34,-87 c0,-33,-15,-56,-40,-74 c-39,38,-101,53,-161,53 Z M337,157 l0,-157 l115,0 l0,279 c0,61,42,104,102,104 c50,0,77,-29,87,-52 c-6,-20,-9,-42,-9,-66 c0,-127,75,-223,148,-276 l86,72 c-68,49,-115,116,-115,201 c0,66,42,97,97,97 l18,0 c33,0,55,-5,73,-14 c18,-141,112,-223,233,-223 c73,0,121,30,144,56 l4,0 l0,-178 l116,0 l0,568 l111,0 l0,92 l-1574,0 l0,-92 l364,0 l0,-255 c0,-60,-38,-105,-97,-105 c-52,0,-89,36,-89,86 c0,69,58,101,126,88 l-18,101 c-115,12,-224,-55,-224,-188 c0,-111,82,-184,181,-184 c61,0,99,26,117,46 Z M1063,329 c69,14,127,64,127,136 c0,36,-13,72,-43,99 l0,4 l173,0 l0,-213 c0,-82,-49,-134,-131,-134 c-78,0,-118,52,-126,108 Z M1063,329" fill="rgb(0,0,0)" transform="matrix(0.1,0.0,0.0,-0.1,8.0,135.0)"/>
</svg>