<?xml version="1.0" encoding="UTF-8"?>
<svg height="200.0" version="1.1" width="160.0" xmlns="http://www.w3.org/2000/svg" xmlns:xlink="http://www.w3.org/1999/xlink">
 <path d="M0,0 l160,0 l0,200 l-160,0 Z M0,0" fill="rgb(255,255,255)" transform="matrix(1,0,0,-1,0.0,200.0)"/>
 <path d="M0,0 l160,0" fill="none" stroke="rgb(229,229,229)" stroke-width="2" transform="matrix(1,0,0,-1,0.0,135.0)"/>
 <path d="M0,1 l0,-5" fill="none" stroke="rgb(204,204,204)" stroke-width="2" transform="matrix(1,0,0,-1,8.0,135.0)"/>
 <path d="M0,1 l0,-5" fill="none" stroke="rgb(204,204,204)" stroke-width="2" transform="matrix(1,0,0,-1,153.0,135.0)"/>
 <path d="M1361,568 l111,0 l0,92 l-1499,0 l0,-92 l364,0 l0,-255 c0,-60,-38,-105,-97,-105 c-52,0,-89,36,-89,86 c0,69,58,101,126,88 l-18,101 c-115,12,-224,-55,-224,-188 c0,-111,82,-184,181,-184 c61,0,99,26,117,46 l4,0 l0,-157 l115,0 l0,279 c0,61,41,104,101,104 c40,0,65,-17,78,-37 c-9,-23,-14,-50,-14,-81 c0,-127,74,-223,148,-276 l86,72 c-68,49,-116,116,-116,201 c0,66,43,97,98,97 l93,0 c-6,-20,-10,-42,-10,-67 c0,-116,88,-192,195,-192 c68,0,110,27,130,49 l4,0 l0,-149 l116,0 Z M1132,200 c-58,0,-96,37,-96,93 c0,78,73,107,137,88 l-9,102 c-56,10,-111,2,-155,-23 l-198,0 c-40,0,-80,-10,-113,-32 c-25,26,-67,52,-126,52 c-52,0,-96,-23,-116,-46 l-4,0 l0,134 l793,0 l0,-241 c0,-70,-40,-127,-113,-127 Z M1132,200" fill="rgb(0,0,0)" transform="matrix(0.1,0.0,0.0,-0.1,8.0,135.0)"/>
</svg>