<?xml version="1.0" encoding="UTF-8"?>
<svg height="200.0" version="1.1" width="142.0" xmlns="http://www.w3.org/2000/svg" xmlns:xlink="http://www.w3.org/1999/xlink">
 <path d="M0,0 l142,0 l0,200 l-142,0 Z M0,0" fill="rgb(255,255,255)" transform="matrix(1,0,0,-1,0.0,200.0)"/>
 <path d="M0,0 l142,0" fill="none" stroke="rgb(229,229,229)" stroke-width="2" transform="matrix(1,0,0,-1,0.0,135.0)"/>
 <path d="M0,1 l0,-5" fill="none" stroke="rgb(204,204,204)" stroke-width="2" transform="matrix(1,0,0,-1,8.0,135.0)"/>
 <path d="M0,1 l0,-5" fill="none" stroke="rgb(204,204,204)" stroke-width="2" transform="matrix(1,0,0,-1,135.0,135.0)"/>
 <path d="M451,0 l0,254 c0,67,41,102,92,102 c46,0,70,-22,84,-50 c24,-133,121,-218,259,-218 c105,0,164,49,186,79 l4,0 l0,-167 l114,0 l0,568 l111,0 l0,92 l-226,0 l0,-290 c0,-93,-55,-181,-176,-181 c-102,0,-137,77,-143,113 c20,4,40,9,59,14 c115,30,187,91,187,195 c0,92,-61,159,-166,159 c-99,0,-165,-65,-165,-145 c0,-37,13,-69,33,-89 l100,29 c-14,17,-20,37,-20,55 c0,33,22,53,52,53 c35,0,53,-22,53,-60 c0,-50,-30,-90,-147,-122 l-47,-12 c-26,49,-71,77,-134,77 c-50,0,-85,-21,-106,-43 l-4,0 l0,155 l143,0 l0,92 l-622,0 l0,-92 l364,0 l0,-255 c0,-60,-38,-105,-97,-105 c-52,0,-89,36,-89,86 c0,69,58,101,126,88 l-18,101 c-114,12,-224,-55,-224,-188 c0,-111,83,-184,181,-184 c61,0,99,26,117,46 l4,0 l0,-157 Z M451,0" fill="rgb(0,0,0)" transform="matrix(0.1,0.0,0.0,-0.1,8.0,135.0)"/>
</svg>