<?xml version="1.0" encoding="UTF-8"?>
<svg height="200.0" version="1.1" width="154.0" xmlns="http://www.w3.org/2000/svg" xmlns:xlink="http://www.w3.org/1999/xlink">
 <path d="M0,0 l154,0 l0,200 l-154,0 Z M0,0" fill="rgb(255,255,255)" transform="matrix(1,0,0,-1,0.0,200.0)"/>
 <path d="M0,0 l154,0" fill="none" stroke="rgb(229,229,229)" stroke-width="2" transform="matrix(1,0,0,-1,0.0,135.0)"/>
 <path d="M0,1 l0,-5" fill="none" stroke="rgb(204,204,204)" stroke-width="2" transform="matrix(1,0,0,-1,8.0,135.0)"/>
 <path d="M0,1 l0,-5" fill="none" stroke="rgb(204,204,204)" stroke-width="2" transform="matrix(1,0,0,-1,146.0,135.0)"/>
 <path d="M456,434 l-4,0 l0,134 l185,0 l0,-99 c-21,7,-43,11,-65,11 c-52,0,-96,-23,-116,-46 Z M452,0 l0,279 c0,61,41,104,101,104 c40,0,69,-16,84,-36 c0,-99,55,-168,167,-168 c59,0,96,24,113,44 l4,0 l0,-223 l113,0 l0,265 c0,65,40,119,108,119 c51,0,86,-34,86,-85 c0,-63,-49,-106,-125,-91 l18,-102 c120,-12,223,62,223,195 c0,110,-80,182,-180,182 c-67,0,-107,-31,-126,-51 l-4,0 l0,136 l370,0 l0,92 l-1431,0 l0,-92 l364,0 l0,-255 c0,-60,-38,-105,-97,-105 c-52,0,-89,36,-89,86 c0,69,58,101,126,88 l-18,101 c-115,12,-224,-55,-224,-188 c0,-111,82,-184,181,-184 c61,0,99,26,117,46 l4,0 l0,-157 Z M195,9 c0,38,-27,64,-64,64 c-35,0,-62,-26,-62,-64 c0,-34,27,-62,62,-62 c37,0,64,28,64,62 Z M753,368 l0,200 l168,0 l0,-187 c0,-56,-31,-100,-97,-100 c-50,0,-71,26,-71,87 Z M777,38 c0,38,-27,65,-65,65 c-34,0,-62,-27,-62,-65 c0,-34,28,-61,62,-61 c38,0,65,27,65,61 Z M777,38" fill="rgb(0,0,0)" transform="matrix(0.1,0.0,0.0,-0.1,8.0,135.0)"/>
</svg>