<?xml version="1.0" encoding="UTF-8"?>
<svg height="200.0" version="1.1" width="132.0" xmlns="http://www.w3.org/2000/svg" xmlns:xlink="http://www.w3.org/1999/xlink">
 <path d="M0,0 l132,0 l0,200 l-132,0 Z M0,0" fill="rgb(255,255,255)" transform="matrix(1,0,0,-1,0.0,200.0)"/>
 <path d="M0,0 l132,0" fill="none" stroke="rgb(229,229,229)" stroke-width="2" transform="matrix(1,0,0,-1,0.0,135.0)"/>
 <path d="M0,1 l0,-5" fill="none" stroke="rgb(204,204,204)" stroke-width="2" transform="matrix(1,0,0,-1,8.0,135.0)"/>
 <path d="M0,1 l0,-5" fill="none" stroke="rgb(204,204,204)" stroke-width="2" transform="matrix(1,0,0,-1,125.0,135.0)"/>
 <path d="M840,408 c21,0,44,-2,67,-10 l-6,100 c-24,7,-45,9,-74,9 c-53,0,-106,-21,-146,-58 c-27,19,-63,31,-109,31 c-52,0,-96,-23,-116,-46 l-4,0 l0,134 l514,0 l0,-246 c0,-22,-5,-42,-15,-61 l-169,132 c17,10,37,15,58,15 Z M337,157 l0,-157 l115,0 l0,279 c0,61,41,104,101,104 c32,0,56,-10,75,-25 c-5,-18,-8,-37,-8,-58 c0,-117,86,-201,203,-201 c65,0,114,26,138,53 l4,0 l0,-152 l117,0 l0,568 l111,0 l0,92 l-1220,0 l0,-92 l364,0 l0,-255 c0,-60,-38,-105,-97,-105 c-52,0,-89,36,-89,86 c0,69,58,101,126,88 l-18,101 c-115,12,-224,-55,-224,-188 c0,-111,82,-184,181,-184 c61,0,99,26,117,46 Z M840,194 c-62,0,-110,45,-110,108 c0,18,4,35,11,49 l171,-134 c-20,-15,-44,-23,-72,-23 Z M840,194" fill="rgb(0,0,0)" transform="matrix(0.1,0.0,0.0,-0.1,8.0,135.0)"/>
</svg>