<?xml version="1.0" encoding="UTF-8"?>
<svg height="200.0" version="1.1" width="166.0" xmlns="http://www.w3.org/2000/svg" xmlns:xlink="http://www.w3.org/1999/xlink">
 <path d="M0,0 l166,0 l0,200 l-166,0 Z M0,0" fill="rgb(255,255,255)" transform="matrix(1,0,0,-1,0.0,200.0)"/>
 <path d="M0,0 l166,0" fill="none" stroke="rgb(229,229,229)" stroke-width="2" transform="matrix(1,0,0,-1,0.0,135.0)"/>
 <path d="M0,1 l0,-5" fill="none" stroke="rgb(204,204,204)" stroke-width="2" transform="matrix(1,0,0,-1,8.0,135.0)"/>
 <path d="M0,1 l0,-5" fill="none" stroke="rgb(204,204,204)" stroke-width="2" transform="matrix(1,0,0,-1,160.0,135.0)"/>
 <path d="M825,200 c-57,0,-97,35,-97,93 c0,60,43,94,96,93 c14,0,26,0,41,-5 l-9,102 c-15,3,-31,4,-45,4 c-45,0,-92,-12,-128,-39 c-28,19,-64,32,-111,32 c-52,0,-96,-23,-116,-46 l-4,0 l0,134 l583,0 c22,-24,34,-61,34,-87 c0,-63,-54,-92,-137,-109 c2,-30,7,-58,15,-83 c-16,-35,-49,-89,-122,-89 Z M337,157 l0,-157 l115,0 l0,279 c0,61,41,104,101,104 c28,0,50,-7,67,-19 c-8,-21,-12,-45,-12,-72 c0,-116,90,-192,208,-192 c94,0,152,41,189,88 c42,-43,99,-66,163,-66 c73,0,121,30,144,56 l4,0 l0,-178 l116,0 l0,568 l111,0 l0,92 l-1570,0 l0,-92 l364,0 l0,-255 c0,-60,-38,-105,-97,-105 c-52,0,-89,36,-89,86 c0,69,58,101,126,88 l-18,101 c-115,12,-224,-55,-224,-188 c0,-111,82,-184,181,-184 c61,0,99,26,117,46 Z M1059,329 c69,14,127,64,127,136 c0,36,-13,72,-43,99 l0,4 l173,0 l0,-213 c0,-82,-49,-134,-131,-134 c-78,0,-118,52,-126,108 Z M1059,329" fill="rgb(0,0,0)" transform="matrix(0.1,0.0,0.0,-0.1,8.0,135.0)"/>
</svg>