<?xml version="1.0" encoding="UTF-8"?>
<svg height="200.0" version="1.1" width="152.0" xmlns="http://www.w3.org/2000/svg" xmlns:xlink="http://www.w3.org/1999/xlink">
 <path d="M0,0 l152,0 l0,200 l-152,0 Z M0,0" fill="rgb(255,255,255)" transform="matrix(1,0,0,-1,0.0,200.0)"/>
 <path d="M0,0 l152,0" fill="none" stroke="rgb(229,229,229)" stroke-width="2" transform="matrix(1,0,0,-1,0.0,135.0)"/>
 <path d="M0,1 l0,-5" fill="none" stroke="rgb(204,204,204)" stroke-width="2" transform="matrix(1,0,0,-1,8.0,135.0)"/>
 <path d="M0,1 l0,-5" fill="none" stroke="rgb(204,204,204)" stroke-width="2" transform="matrix(1,0,0,-1,144.0,135.0)"/>
 <path d="M69,14 c0,-34,27,-61,62,-61 c37,0,64,27,64,61 c0,38,-27,65,-64,65 c-35,0,-62,-27,-62,-65 Z M862,456 c-34,10,-52,35,-52,62 c0,31,19,57,60,57 c41,0,77,-34,77,-101 c0,-88,-68,-141,-161,-141 c-24,0,-54,3,-82,12 c-16,66,-68,111,-138,111 c-52,0,-89,-21,-110,-43 l-4,0 l0,155 l140,0 l0,92 l-619,0 l0,-92 l364,0 l0,-255 c0,-60,-38,-105,-97,-105 c-52,0,-89,36,-89,86 c0,59,42,90,96,90 c10,0,20,0,30,-2 l-18,101 c-9,1,-18,1,-27,1 c-104,0,-197,-66,-197,-189 c0,-111,82,-184,181,-184 c61,0,99,26,117,46 l4,0 l0,-157 l115,0 l0,258 c0,60,34,104,91,104 c48,0,76,-36,76,-79 c0,-6,-1,-12,-2,-17 l79,-61 l240,-226 l96,67 l-108,100 c-48,45,-88,72,-119,92 l0,4 c11,0,22,0,33,2 c118,11,227,88,227,231 c0,99,-63,194,-199,194 c-102,0,-171,-70,-171,-153 c0,-64,35,-112,98,-129 Z M1159,0 l116,0 l0,568 l111,0 l0,92 l-227,0 Z M1159,0" fill="rgb(0,0,0)" transform="matrix(0.1,0.0,0.0,-0.1,8.0,135.0)"/>
</svg>