<?xml version="1.0" encoding="UTF-8"?>
<svg height="200.0" version="1.1" width="122.0" xmlns="http://www.w3.org/2000/svg" xmlns:xlink="http://www.w3.org/1999/xlink">
 <path d="M0,0 l122,0 l0,200 l-122,0 Z M0,0" fill="rgb(255,255,255)" transform="matrix(1,0,0,-1,0.0,200.0)"/>
 <path d="M0,0 l122,0" fill="none" stroke="rgb(229,229,229)" stroke-width="2" transform="matrix(1,0,0,-1,0.0,135.0)"/>
 <path d="M0,1 l0,-5" fill="none" stroke="rgb(204,204,204)" stroke-width="2" transform="matrix(1,0,0,-1,5.0,135.0)"/>
 <path d="M0,1 l0,-5" fill="none" stroke="rgb(204,204,204)" stroke-width="2" transform="matrix(1,0,0,-1,114.0,135.0)"/>
 <path d="M530,-77 l-98,139 c21,18,33,46,33,83 c0,47,-33,80,-60,92 l-72,-24 l0,-87 c-15,-13,-49,-21,-79,-21 c-67,0,-111,41,-111,93 c0,57,49,85,140,116 c37,-18,100,-30,164,-30 c35,0,73,4,108,11 c0,0,0,-2,0,-3 c0,-116,88,-192,196,-192 c67,0,109,27,130,49 l4,0 l0,-149 l116,0 l0,568 l111,0 l0,92 l-580,0 l0,-92 l353,0 l0,-241 c0,-70,-41,-127,-114,-127 c-57,0,-96,37,-96,93 c0,78,73,107,138,88 l-9,102 c-86,15,-169,-12,-214,-75 c-50,-20,-104,-31,-145,-31 c-20,0,-43,3,-62,6 l0,4 c26,14,77,52,77,128 c0,89,-74,155,-185,155 c-107,0,-192,-65,-192,-156 c0,-64,40,-113,93,-138 c-81,-35,-148,-85,-148,-172 c0,-114,91,-196,239,-196 c36,0,65,5,86,11 l45,-126 Z M191,512 c0,39,31,68,83,68 c51,0,80,-29,80,-66 c0,-52,-44,-82,-81,-93 c-49,15,-82,49,-82,91 Z M191,512" fill="rgb(0,0,0)" transform="matrix(0.1,0.0,0.0,-0.1,5.0,135.0)"/>
</svg>