<?xml version="1.0" encoding="UTF-8"?>
<svg height="200.0" version="1.1" width="144.0" xmlns="http://www.w3.org/2000/svg" xmlns:xlink="http://www.w3.org/1999/xlink">
 <path d="M0,0 l144,0 l0,200 l-144,0 Z M0,0" fill="rgb(255,255,255)" transform="matrix(1,0,0,-1,0.0,200.0)"/>
 <path d="M0,0 l144,0" fill="none" stroke="rgb(229,229,229)" stroke-width="2" transform="matrix(1,0,0,-1,0.0,135.0)"/>
 <path d="M0,1 l0,-5" fill="none" stroke="rgb(204,204,204)" stroke-width="2" transform="matrix(1,0,0,-1,8.0,135.0)"/>
 <path d="M0,1 l0,-5" fill="none" stroke="rgb(204,204,204)" stroke-width="2" transform="matrix(1,0,0,-1,136.0,135.0)"/>
 <path d="M777,264 c5,-1,13,-1,18,-1 c27,2,51,10,72,24 c35,-22,83,-35,139,-35 c27,0,51,3,75,8 l0,-260 l117,0 l0,568 l111,0 l0,92 l-1336,0 l0,-92 l364,0 l0,-255 c0,-60,-38,-105,-97,-105 c-52,0,-89,36,-89,86 c0,69,58,101,126,88 l-18,101 c-115,12,-224,-55,-224,-188 c0,-111,82,-184,181,-184 c61,0,99,26,117,46 l4,0 l0,-157 l115,0 l0,268 c0,65,32,102,73,102 c31,0,50,-25,81,-64 l254,-319 l94,60 l-101,126 c-35,43,-55,65,-77,87 Z M993,355 c-29,0,-54,3,-76,9 c3,12,4,25,4,39 l0,165 l160,0 l0,-198 c-26,-11,-56,-15,-88,-15 Z M755,350 c-36,0,-56,19,-82,52 c-44,50,-76,65,-124,65 c-41,0,-73,-20,-93,-42 l-4,0 l0,143 l353,0 l0,-162 c0,-40,-20,-56,-50,-56 Z M755,350" fill="rgb(0,0,0)" transform="matrix(0.1,0.0,0.0,-0.1,8.0,135.0)"/>
</svg>