<?xml version="1.0" encoding="UTF-8"?>
<svg height="200.0" version="1.1" width="170.0" xmlns="http://www.w3.org/2000/svg" xmlns:xlink="http://www.w3.org/1999/xlink">
 <path d="M0,0 l170,0 l0,200 l-170,0 Z M0,0" fill="rgb(255,255,255)" transform="matrix(1,0,0,-1,0.0,200.0)"/>
 <path d="M0,0 l170,0" fill="none" stroke="rgb(229,229,229)" stroke-width="2" transform="matrix(1,0,0,-1,0.0,135.0)"/>
 <path d="M0,1 l0,-5" fill="none" stroke="rgb(204,204,204)" stroke-width="2" transform="matrix(1,0,0,-1,8.0,135.0)"/>
 <path d="M0,1 l0,-5" fill="none" stroke="rgb(204,204,204)" stroke-width="2" transform="matrix(1,0,0,-1,163.0,135.0)"/>
 <path d="M999,355 c-31,0,-59,4,-81,10 c2,11,3,23,3,36 l0,167 l400,0 l0,-87 l-92,-27 c-70,-19,-117,-48,-142,-90 c-29,-7,-59,-9,-88,-9 Z M755,350 c-32,0,-53,17,-74,42 c-3,4,-5,7,-8,10 c-44,50,-76,65,-124,65 c-41,0,-73,-20,-93,-42 l-4,0 l0,143 l353,0 l0,-163 c0,-40,-20,-55,-50,-55 Z M337,157 l0,-157 l115,0 l0,268 c0,65,32,102,73,102 c31,0,50,-25,81,-64 l254,-319 l94,60 l-101,126 c-35,43,-55,65,-77,87 l1,4 c10,-1,23,1,33,2 c22,4,42,11,60,23 c35,-23,84,-37,142,-37 c17,0,34,0,50,2 c8,-120,112,-223,261,-223 c74,0,150,21,213,83 l-58,93 c-50,-53,-101,-75,-169,-75 c-91,0,-134,59,-134,113 c0,53,17,89,119,117 l145,39 l0,167 l134,0 l0,92 l-1600,0 l0,-92 l364,0 l0,-255 c0,-60,-38,-105,-97,-105 c-52,0,-89,36,-89,86 c0,69,58,101,126,88 l-18,101 c-115,12,-224,-55,-224,-188 c0,-111,82,-184,181,-184 c61,0,99,26,117,46 Z M337,157" fill="rgb(0,0,0)" transform="matrix(0.1,0.0,0.0,-0.1,8.0,135.0)"/>
</svg>