<?xml version="1.0" encoding="UTF-8"?>
<svg height="200.0" version="1.1" width="174.0" xmlns="http://www.w3.org/2000/svg" xmlns:xlink="http://www.w3.org/1999/xlink">
 <path d="M0,0 l174,0 l0,200 l-174,0 Z M0,0" fill="rgb(255,255,255)" transform="matrix(1,0,0,-1,0.0,200.0)"/>
 <path d="M0,0 l174,0" fill="none" stroke="rgb(229,229,229)" stroke-width="2" transform="matrix(1,0,0,-1,0.0,135.0)"/>
 <path d="M0,1 l0,-5" fill="none" stroke="rgb(204,204,204)" stroke-width="2" transform="matrix(1,0,0,-1,8.0,135.0)"/>
 <path d="M0,1 l0,-5" fill="none" stroke="rgb(204,204,204)" stroke-width="2" transform="matrix(1,0,0,-1,166.0,135.0)"/>
 <path d="M1272,300 c-34,12,-50,42,-50,64 c0,27,12,39,71,39 l184,0 l0,165 l128,0 l0,92 l-1632,0 l0,-92 l364,0 l0,-255 c0,-60,-38,-105,-97,-105 c-52,0,-89,36,-89,86 c0,69,58,101,126,88 l-18,101 c-115,12,-224,-55,-224,-188 c0,-111,82,-184,181,-184 c61,0,99,26,117,46 l4,0 l0,-157 l115,0 l0,268 c0,65,32,102,73,102 c26,0,43,-16,66,-45 l13,-16 c0,-1,1,-2,2,-3 l254,-319 l94,60 l-101,126 c-35,43,-55,65,-77,87 l1,4 c10,-1,23,1,33,2 c23,4,44,12,62,24 c37,-21,89,-34,142,-34 c47,0,87,4,134,22 c26,-32,63,-60,111,-79 l144,34 c13,-10,22,-29,22,-50 c0,-55,-42,-87,-107,-87 c-79,0,-147,50,-188,125 l-77,-58 c46,-82,131,-164,262,-164 c132,0,216,82,216,186 c0,75,-41,131,-98,150 Z M999,355 c-31,0,-59,4,-81,10 c2,11,3,23,3,36 l0,167 l442,0 l0,-72 l-129,0 c-82,0,-127,-42,-127,-107 c0,-6,0,-12,1,-18 c-34,-13,-72,-16,-109,-16 Z M755,350 c-32,0,-53,18,-74,42 c-48,58,-81,75,-132,75 c-41,0,-73,-20,-93,-42 l-4,0 l0,143 l353,0 l0,-163 c0,-40,-20,-55,-50,-55 Z M755,350" fill="rgb(0,0,0)" transform="matrix(0.1,0.0,0.0,-0.1,8.0,135.0)"/>
</svg>