<?xml version="1.0" encoding="UTF-8"?>
<svg height="200.0" version="1.1" width="176.0" xmlns="http://www.w3.org/2000/svg" xmlns:xlink="http://www.w3.org/1999/xlink">
 <path d="M0,0 l176,0 l0,200 l-176,0 Z M0,0" fill="rgb(255,255,255)" transform="matrix(1,0,0,-1,0.0,200.0)"/>
 <path d="M0,0 l176,0" fill="none" stroke="rgb(229,229,229)" stroke-width="2" transform="matrix(1,0,0,-1,0.0,135.0)"/>
 <path d="M0,1 l0,-5" fill="none" stroke="rgb(204,204,204)" stroke-width="2" transform="matrix(1,0,0,-1,8.0,135.0)"/>
 <path d="M0,1 l0,-5" fill="none" stroke="rgb(204,204,204)" stroke-width="2" transform="matrix(1,0,0,-1,168.0,135.0)"/>
 <path d="M999,355 c-31,0,-59,4,-81,10 c2,11,3,23,3,36 l0,167 l479,0 l0,-108 l-136,0 c-69,0,-137,-30,-172,-94 c-30,-9,-62,-11,-93,-11 Z M755,350 c-32,0,-53,17,-74,42 c-3,4,-5,7,-8,10 c-44,50,-76,65,-124,65 c-41,0,-73,-20,-93,-42 l-4,0 l0,143 l353,0 l0,-163 c0,-40,-20,-55,-50,-55 Z M337,157 l0,-157 l115,0 l0,268 c0,65,32,102,73,102 c31,0,50,-25,81,-64 l254,-319 l94,60 l-101,126 c-35,43,-55,65,-77,87 l1,4 c10,-1,23,1,33,2 c22,4,42,11,60,23 c35,-23,84,-37,142,-37 c20,0,39,1,57,2 c4,-122,77,-214,149,-265 l85,72 c-68,49,-115,116,-115,201 c0,66,42,97,97,97 l115,0 l0,-359 l116,0 l0,568 l112,0 l0,92 l-1655,0 l0,-92 l364,0 l0,-255 c0,-60,-38,-105,-97,-105 c-52,0,-89,36,-89,86 c0,69,58,101,126,88 l-18,101 c-115,12,-224,-55,-224,-188 c0,-111,82,-184,181,-184 c61,0,99,26,117,46 Z M337,157" fill="rgb(0,0,0)" transform="matrix(0.1,0.0,0.0,-0.1,8.0,135.0)"/>
</svg>