<?xml version="1.0" encoding="UTF-8"?>
<svg height="200.0" version="1.1" width="222.0" xmlns="http://www.w3.org/2000/svg" xmlns:xlink="http://www.w3.org/1999/xlink">
 <path d="M0,0 l222,0 l0,200 l-222,0 Z M0,0" fill="rgb(255,255,255)" transform="matrix(1,0,0,-1,0.0,200.0)"/>
 <path d="M0,0 l222,0" fill="none" stroke="rgb(229,229,229)" stroke-width="2" transform="matrix(1,0,0,-1,0.0,135.0)"/>
 <path d="M0,1 l0,-5" fill="none" stroke="rgb(204,204,204)" stroke-width="2" transform="matrix(1,0,0,-1,8.0,135.0)"/>
 <path d="M0,1 l0,-5" fill="none" stroke="rgb(204,204,204)" stroke-width="2" transform="matrix(1,0,0,-1,214.0,135.0)"/>
 <path d="M993,355 c-29,0,-54,3,-76,9 c3,11,4,23,4,37 l0,167 l175,0 l0,-191 c-29,-16,-65,-22,-103,-22 Z M1276,180 c40,0,74,7,103,18 c24,-90,89,-167,177,-213 l75,79 c-105,56,-145,133,-145,206 c0,74,36,98,71,98 c39,0,65,-28,65,-81 l0,-99 l107,0 l0,94 c0,60,24,88,68,88 c24,0,49,-12,60,-21 l0,-349 l117,0 l0,568 l111,0 l0,92 l-2112,0 l0,-92 l364,0 l0,-255 c0,-60,-38,-105,-97,-105 c-52,0,-89,36,-89,86 c0,69,58,101,126,88 l-18,101 c-115,12,-224,-55,-224,-188 c0,-111,82,-184,181,-184 c61,0,99,26,117,46 l4,0 l0,-157 l115,0 l0,268 c0,65,32,102,73,102 c31,0,50,-25,81,-64 l254,-319 l94,60 l-101,126 c-35,43,-55,65,-77,87 l1,4 c10,-1,23,1,33,2 c21,3,40,10,57,21 c35,-22,83,-35,139,-35 c40,0,75,6,108,18 c25,-55,79,-90,162,-90 Z M1853,445 c-16,17,-47,26,-77,26 c-43,0,-89,-26,-102,-80 l-4,0 c-18,48,-63,76,-125,76 c-80,0,-161,-51,-174,-160 c-22,-17,-49,-28,-80,-28 c-52,0,-79,27,-79,88 l0,201 l645,0 l0,-123 Z M755,350 c-32,0,-53,17,-74,42 c-3,4,-5,7,-8,10 c-44,50,-76,65,-124,65 c-41,0,-73,-20,-93,-42 l-4,0 l0,143 l353,0 l0,-163 c0,-40,-20,-55,-50,-55 Z M755,350" fill="rgb(0,0,0)" transform="matrix(0.1,0.0,0.0,-0.1,8.0,135.0)"/>
</svg>