<?xml version="1.0" encoding="UTF-8"?>
<svg height="200.0" version="1.1" width="156.0" xmlns="http://www.w3.org/2000/svg" xmlns:xlink="http://www.w3.org/1999/xlink">
 <path d="M0,0 l156,0 l0,200 l-156,0 Z M0,0" fill="rgb(255,255,255)" transform="matrix(1,0,0,-1,0.0,200.0)"/>
 <path d="M0,0 l156,0" fill="none" stroke="rgb(229,229,229)" stroke-width="2" transform="matrix(1,0,0,-1,0.0,135.0)"/>
 <path d="M0,1 l0,-5" fill="none" stroke="rgb(204,204,204)" stroke-width="2" transform="matrix(1,0,0,-1,7.0,135.0)"/>
 <path d="M0,1 l0,-5" fill="none" stroke="rgb(204,204,204)" stroke-width="2" transform="matrix(1,0,0,-1,148.0,135.0)"/>
 <path d="M408,109 c-120,0,-208,69,-236,173 c11,-3,24,-6,39,-6 c73,0,126,46,126,143 l0,149 l473,0 l0,-156 c0,-35,-18,-49,-40,-49 c-26,0,-39,13,-53,34 c-28,65,-89,105,-165,105 c-101,0,-171,-70,-171,-163 c0,-93,67,-144,134,-150 l61,66 c-51,4,-93,32,-93,82 c0,42,30,71,73,71 c43,0,83,-32,83,-92 c0,-122,-102,-207,-231,-207 Z M1213,105 l4,0 l0,-105 l107,0 l0,568 l111,0 l0,92 l-1459,0 l0,-92 l251,0 l0,-156 c0,-35,-16,-48,-39,-48 c-29,0,-48,18,-59,49 l-99,-35 c26,-196,152,-362,369,-362 c140,0,244,68,296,157 c58,-95,154,-159,285,-159 c123,0,199,53,233,91 Z M1213,473 c-16,13,-44,25,-89,25 c-90,0,-162,-68,-162,-161 c0,-93,71,-144,139,-152 l60,66 c-51,3,-95,33,-95,83 c0,42,31,72,74,72 c43,0,79,-32,79,-91 c0,-122,-102,-208,-230,-208 c-128,0,-211,74,-236,176 c10,-3,24,-6,39,-6 c73,0,129,45,129,142 l0,149 l296,0 l0,-95 Z M1213,473" fill="rgb(0,0,0)" transform="matrix(0.1,0.0,0.0,-0.1,7.0,135.0)"/>
</svg>