<?xml version="1.0" encoding="UTF-8"?>
<svg height="200.0" version="1.1" width="132.0" xmlns="http://www.w3.org/2000/svg" xmlns:xlink="http://www.w3.org/1999/xlink">
 <path d="M0,0 l132,0 l0,200 l-132,0 Z M0,0" fill="rgb(255,255,255)" transform="matrix(1,0,0,-1,0.0,200.0)"/>
 <path d="M0,0 l132,0" fill="none" stroke="rgb(229,229,229)" stroke-width="2" transform="matrix(1,0,0,-1,0.0,135.0)"/>
 <path d="M0,1 l0,-5" fill="none" stroke="rgb(204,204,204)" stroke-width="2" transform="matrix(1,0,0,-1,7.0,135.0)"/>
 <path d="M0,1 l0,-5" fill="none" stroke="rgb(204,204,204)" stroke-width="2" transform="matrix(1,0,0,-1,123.0,135.0)"/>
 <path d="M408,109 c-120,0,-208,69,-236,173 c11,-3,24,-6,39,-6 c73,0,126,46,126,143 l0,149 l626,0 l0,-108 l-136,0 c-44,0,-87,-12,-122,-38 c-32,50,-87,80,-153,80 c-101,0,-171,-70,-171,-163 c0,-93,67,-144,134,-150 l61,66 c-51,4,-93,32,-93,82 c0,42,30,71,73,71 c43,0,80,-33,80,-91 c0,-122,-99,-208,-228,-208 Z M865,60 c-68,49,-118,117,-118,202 c0,67,42,97,97,97 l119,0 l0,-359 l116,0 l0,568 l112,0 l0,92 l-1215,0 l0,-92 l251,0 l0,-156 c0,-35,-16,-48,-39,-48 c-29,0,-48,18,-59,49 l-99,-35 c26,-196,152,-362,369,-362 c116,0,207,46,265,113 c28,-61,72,-108,117,-140 Z M97,-46 c0,-35,28,-63,64,-63 c38,0,66,28,66,63 c0,39,-28,67,-66,67 c-36,0,-64,-28,-64,-67 Z M97,-46" fill="rgb(0,0,0)" transform="matrix(0.1,0.0,0.0,-0.1,7.0,135.0)"/>
</svg>