<?xml version="1.0" encoding="UTF-8"?>
<svg height="200.0" version="1.1" width="136.0" xmlns="http://www.w3.org/2000/svg" xmlns:xlink="http://www.w3.org/1999/xlink">
 <path d="M0,0 l136,0 l0,200 l-136,0 Z M0,0" fill="rgb(255,255,255)" transform="matrix(1,0,0,-1,0.0,200.0)"/>
 <path d="M0,0 l136,0" fill="none" stroke="rgb(229,229,229)" stroke-width="2" transform="matrix(1,0,0,-1,0.0,135.0)"/>
 <path d="M0,1 l0,-5" fill="none" stroke="rgb(204,204,204)" stroke-width="2" transform="matrix(1,0,0,-1,8.0,135.0)"/>
 <path d="M0,1 l0,-5" fill="none" stroke="rgb(204,204,204)" stroke-width="2" transform="matrix(1,0,0,-1,129.0,135.0)"/>
 <path d="M405,109 c-120,0,-209,69,-236,173 c10,-3,24,-6,39,-6 c73,0,126,46,126,143 l0,149 l391,0 l0,-204 c-20,83,-88,138,-176,138 c-101,0,-171,-70,-171,-163 c0,-93,67,-144,134,-150 l61,66 c-51,4,-93,32,-93,82 c0,42,30,71,73,71 c43,0,79,-33,79,-91 c0,-122,-98,-208,-227,-208 Z M1008,568 l0,-208 l-169,0 l0,208 Z M1122,0 l0,568 l111,0 l0,92 l-1260,0 l0,-92 l251,0 l0,-156 c0,-35,-17,-48,-39,-48 c-29,0,-48,18,-60,49 l-99,-35 c27,-196,153,-362,370,-362 c155,0,264,82,311,185 c10,-17,23,-32,39,-44 l90,0 l0,100 l172,0 l0,-257 Z M1122,0" fill="rgb(0,0,0)" transform="matrix(0.1,0.0,0.0,-0.1,8.0,135.0)"/>
</svg>