<?xml version="1.0" encoding="UTF-8"?>
<svg height="200.0" version="1.1" width="136.0" xmlns="http://www.w3.org/2000/svg" xmlns:xlink="http://www.w3.org/1999/xlink">
 <path d="M0,0 l136,0 l0,200 l-136,0 Z M0,0" fill="rgb(255,255,255)" transform="matrix(1,0,0,-1,0.0,200.0)"/>
 <path d="M0,0 l136,0" fill="none" stroke="rgb(229,229,229)" stroke-width="2" transform="matrix(1,0,0,-1,0.0,135.0)"/>
 <path d="M0,1 l0,-5" fill="none" stroke="rgb(204,204,204)" stroke-width="2" transform="matrix(1,0,0,-1,7.0,135.0)"/>
 <path d="M0,1 l0,-5" fill="none" stroke="rgb(204,204,204)" stroke-width="2" transform="matrix(1,0,0,-1,128.0,135.0)"/>
 <path d="M408,109 c-120,0,-208,69,-236,173 c11,-3,24,-6,39,-6 c73,0,126,46,126,143 l0,149 l389,0 c21,-24,34,-61,34,-87 c0,-37,-15,-62,-44,-80 c-29,62,-90,101,-164,101 c-101,0,-171,-70,-171,-163 c0,-93,67,-144,134,-150 l61,66 c-51,4,-93,32,-93,82 c0,42,30,71,73,71 c44,0,80,-34,80,-91 c0,-122,-99,-208,-228,-208 Z M1007,178 l0,-178 l116,0 l0,568 l111,0 l0,92 l-1258,0 l0,-92 l251,0 l0,-156 c0,-35,-16,-48,-39,-48 c-29,0,-48,18,-59,49 l-99,-35 c26,-196,152,-362,369,-362 c147,0,254,74,304,169 c39,-41,93,-63,156,-63 c73,0,121,30,144,56 Z M747,329 c70,15,129,64,129,136 c0,36,-12,72,-42,99 l0,4 l173,0 l0,-213 c0,-82,-49,-134,-131,-134 c-78,0,-121,53,-129,108 Z M747,329" fill="rgb(0,0,0)" transform="matrix(0.1,0.0,0.0,-0.1,7.0,135.0)"/>
</svg>