<?xml version="1.0" encoding="UTF-8"?>
<svg height="200.0" version="1.1" width="132.0" xmlns="http://www.w3.org/2000/svg" xmlns:xlink="http://www.w3.org/1999/xlink">
 <path d="M0,0 l132,0 l0,200 l-132,0 Z M0,0" fill="rgb(255,255,255)" transform="matrix(1,0,0,-1,0.0,200.0)"/>
 <path d="M0,0 l132,0" fill="none" stroke="rgb(229,229,229)" stroke-width="2" transform="matrix(1,0,0,-1,0.0,135.0)"/>
 <path d="M0,1 l0,-5" fill="none" stroke="rgb(204,204,204)" stroke-width="2" transform="matrix(1,0,0,-1,7.0,135.0)"/>
 <path d="M0,1 l0,-5" fill="none" stroke="rgb(204,204,204)" stroke-width="2" transform="matrix(1,0,0,-1,123.0,135.0)"/>
 <path d="M408,109 c-120,0,-208,69,-236,173 c11,-3,24,-6,39,-6 c73,0,126,46,126,143 l0,149 l623,0 l0,-241 c0,-70,-41,-127,-114,-127 c-58,0,-99,37,-99,94 c0,78,76,108,140,87 l-9,102 c-71,12,-139,-4,-185,-45 c-33,40,-82,64,-141,64 c-101,0,-171,-70,-171,-163 c0,-93,67,-144,134,-150 l61,66 c-51,4,-93,32,-93,82 c0,42,30,71,73,71 c43,0,79,-33,79,-91 c0,-122,-98,-208,-227,-208 Z M1076,568 l111,0 l0,92 l-1211,0 l0,-92 l251,0 l0,-156 c0,-35,-16,-48,-39,-48 c-29,0,-48,18,-59,49 l-99,-35 c26,-196,152,-362,369,-362 c132,0,232,60,287,142 c35,-37,84,-58,140,-58 c68,0,110,27,130,49 l4,0 l0,-149 l116,0 Z M1076,568" fill="rgb(0,0,0)" transform="matrix(0.1,0.0,0.0,-0.1,7.0,135.0)"/>
</svg>