<?xml version="1.0" encoding="UTF-8"?>
<svg height="200.0" version="1.1" width="146.0" xmlns="http://www.w3.org/2000/svg" xmlns:xlink="http://www.w3.org/1999/xlink">
 <path d="M0,0 l146,0 l0,200 l-146,0 Z M0,0" fill="rgb(255,255,255)" transform="matrix(1,0,0,-1,0.0,200.0)"/>
 <path d="M0,0 l146,0" fill="none" stroke="rgb(229,229,229)" stroke-width="2" transform="matrix(1,0,0,-1,0.0,135.0)"/>
 <path d="M0,1 l0,-5" fill="none" stroke="rgb(204,204,204)" stroke-width="2" transform="matrix(1,0,0,-1,7.0,135.0)"/>
 <path d="M0,1 l0,-5" fill="none" stroke="rgb(204,204,204)" stroke-width="2" transform="matrix(1,0,0,-1,138.0,135.0)"/>
 <path d="M98,-46 c0,-34,28,-62,62,-62 c38,0,65,28,65,62 c0,38,-27,65,-65,65 c-34,0,-62,-27,-62,-65 Z M408,109 c-120,0,-208,69,-236,173 c11,-3,24,-6,39,-6 c73,0,126,46,126,143 l0,149 l497,0 l0,-165 c0,-40,-20,-56,-51,-56 c-23,0,-39,8,-56,24 c-22,80,-89,131,-175,131 c-101,0,-171,-70,-171,-163 c0,-93,67,-144,134,-150 l61,66 c-51,4,-93,32,-93,82 c0,42,30,71,73,71 c43,0,79,-33,79,-91 c0,-122,-98,-208,-227,-208 Z M1022,355 c-29,0,-55,3,-76,9 c2,11,3,23,3,36 l0,168 l160,0 l0,-198 c-26,-11,-56,-15,-87,-15 Z M983,44 l-102,126 c-35,43,-55,65,-76,87 l1,4 c5,-1,13,-1,18,-1 c28,2,53,11,74,26 c35,-20,82,-33,137,-33 c27,0,52,2,74,8 l0,-261 l118,0 l0,568 l111,0 l0,92 l-1362,0 l0,-92 l251,0 l0,-156 c0,-35,-16,-48,-39,-48 c-29,0,-48,18,-59,49 l-99,-35 c26,-196,152,-362,369,-362 c157,0,268,85,313,189 l176,-221 Z M983,44" fill="rgb(0,0,0)" transform="matrix(0.1,0.0,0.0,-0.1,7.0,135.0)"/>
</svg>