<?xml version="1.0" encoding="UTF-8"?>
<svg height="200.0" version="1.1" width="124.0" xmlns="http://www.w3.org/2000/svg" xmlns:xlink="http://www.w3.org/1999/xlink">
 <path d="M0,0 l124,0 l0,200 l-124,0 Z M0,0" fill="rgb(255,255,255)" transform="matrix(1,0,0,-1,0.0,200.0)"/>
 <path d="M0,0 l124,0" fill="none" stroke="rgb(229,229,229)" stroke-width="2" transform="matrix(1,0,0,-1,0.0,135.0)"/>
 <path d="M0,1 l0,-5" fill="none" stroke="rgb(204,204,204)" stroke-width="2" transform="matrix(1,0,0,-1,8.0,135.0)"/>
 <path d="M0,1 l0,-5" fill="none" stroke="rgb(204,204,204)" stroke-width="2" transform="matrix(1,0,0,-1,117.0,135.0)"/>
 <path d="M1117,568 l0,92 l-1144,0 l0,-92 l145,0 l0,-184 l-71,-52 c0,-46,20,-111,71,-149 l114,0 l0,385 l152,0 l0,-226 c0,-122,69,-184,183,-184 c113,0,187,64,187,186 l0,224 l137,0 l0,-568 l116,0 l0,568 Z M569,258 c-43,0,-70,23,-70,78 l0,232 l140,0 l0,-231 c0,-55,-25,-79,-70,-79 Z M569,258" fill="rgb(0,0,0)" transform="matrix(0.1,0.0,0.0,-0.1,8.0,135.0)"/>
</svg>