<?xml version="1.0" encoding="UTF-8"?>
<svg height="200.0" version="1.1" width="148.0" xmlns="http://www.w3.org/2000/svg" xmlns:xlink="http://www.w3.org/1999/xlink">
 <path d="M0,0 l148,0 l0,200 l-148,0 Z M0,0" fill="rgb(255,255,255)" transform="matrix(1,0,0,-1,0.0,200.0)"/>
 <path d="M0,0 l148,0" fill="none" stroke="rgb(229,229,229)" stroke-width="2" transform="matrix(1,0,0,-1,0.0,135.0)"/>
 <path d="M0,1 l0,-5" fill="none" stroke="rgb(204,204,204)" stroke-width="2" transform="matrix(1,0,0,-1,8.0,135.0)"/>
 <path d="M0,1 l0,-5" fill="none" stroke="rgb(204,204,204)" stroke-width="2" transform="matrix(1,0,0,-1,140.0,135.0)"/>
 <path d="M1122,178 l0,-178 l117,0 l0,568 l111,0 l0,92 l-670,0 l0,-92 l162,0 c21,-24,34,-61,34,-87 c0,-63,-54,-92,-137,-109 c2,-34,8,-65,18,-93 c-35,-43,-90,-78,-167,-78 c-75,0,-99,37,-99,72 c0,42,30,69,93,69 l62,0 l0,92 l-71,0 c-60,0,-89,27,-89,65 c0,37,32,63,61,74 l-17,87 l-557,0 l0,-92 l145,0 l0,-184 l-71,-52 c0,-46,20,-111,71,-149 l114,0 l0,385 l173,0 l0,-4 c-20,-12,-39,-37,-39,-73 c0,-61,45,-96,101,-101 l0,-4 c-44,-10,-95,-47,-95,-122 c0,-87,72,-156,197,-156 c118,0,194,41,238,85 c42,-46,101,-71,168,-71 c73,0,120,30,143,56 Z M866,329 c69,14,126,64,126,136 c0,36,-12,72,-42,99 l0,4 l173,0 l0,-213 c0,-82,-49,-134,-131,-134 c-78,0,-118,52,-126,108 Z M866,329" fill="rgb(0,0,0)" transform="matrix(0.1,0.0,0.0,-0.1,8.0,135.0)"/>
</svg>