<?xml version="1.0" encoding="UTF-8"?>
<svg height="200.0" version="1.1" width="102.0" xmlns="http://www.w3.org/2000/svg" xmlns:xlink="http://www.w3.org/1999/xlink">
 <path d="M0,0 l102,0 l0,200 l-102,0 Z M0,0" fill="rgb(255,255,255)" transform="matrix(1,0,0,-1,0.0,200.0)"/>
 <path d="M0,0 l102,0" fill="none" stroke="rgb(229,229,229)" stroke-width="2" transform="matrix(1,0,0,-1,0.0,135.0)"/>
 <path d="M0,1 l0,-5" fill="none" stroke="rgb(204,204,204)" stroke-width="2" transform="matrix(1,0,0,-1,8.0,135.0)"/>
 <path d="M0,1 l0,-5" fill="none" stroke="rgb(204,204,204)" stroke-width="2" transform="matrix(1,0,0,-1,94.0,135.0)"/>
 <path d="M489,211 l0,103 l169,0 l0,-314 l116,0 l0,568 l111,0 l0,92 l-912,0 l0,-92 l145,0 l0,-184 l-71,-52 c0,-46,20,-111,71,-149 l114,0 l0,385 l426,0 l0,-153 l-240,0 l-82,-59 c1,-89,43,-145,95,-171 Z M489,211" fill="rgb(0,0,0)" transform="matrix(0.1,0.0,0.0,-0.1,8.0,135.0)"/>
</svg>