<?xml version="1.0" encoding="UTF-8"?>
<svg height="200.0" version="1.1" width="108.0" xmlns="http://www.w3.org/2000/svg" xmlns:xlink="http://www.w3.org/1999/xlink">
 <path d="M0,0 l108,0 l0,200 l-108,0 Z M0,0" fill="rgb(255,255,255)" transform="matrix(1,0,0,-1,0.0,200.0)"/>
 <path d="M0,0 l108,0" fill="none" stroke="rgb(229,229,229)" stroke-width="2" transform="matrix(1,0,0,-1,0.0,135.0)"/>
 <path d="M0,1 l0,-5" fill="none" stroke="rgb(204,204,204)" stroke-width="2" transform="matrix(1,0,0,-1,8.0,135.0)"/>
 <path d="M0,1 l0,-5" fill="none" stroke="rgb(204,204,204)" stroke-width="2" transform="matrix(1,0,0,-1,100.0,135.0)"/>
 <path d="M-27,568 l129,0 l0,-4 c-19,-14,-38,-38,-38,-75 c0,-61,46,-98,103,-102 l0,-4 c-42,-11,-94,-49,-94,-123 c0,-88,75,-156,199,-156 c111,0,204,42,283,126 l0,80 l169,0 l0,-310 l116,0 l0,568 l111,0 l0,92 l-978,0 Z M294,196 c-75,0,-101,38,-101,74 c0,40,28,69,90,69 l56,0 l0,91 l-63,0 c-62,0,-90,29,-90,68 c0,40,27,70,85,70 l453,0 l0,-157 l-241,0 l-81,-59 c0,-41,9,-76,25,-103 c-33,-30,-79,-53,-133,-53 Z M294,196" fill="rgb(0,0,0)" transform="matrix(0.1,0.0,0.0,-0.1,8.0,135.0)"/>
</svg>