<?xml version="1.0" encoding="UTF-8"?>
<svg height="200.0" version="1.1" width="116.0" xmlns="http://www.w3.org/2000/svg" xmlns:xlink="http://www.w3.org/1999/xlink">
 <path d="M0,0 l116,0 l0,200 l-116,0 Z M0,0" fill="rgb(255,255,255)" transform="matrix(1,0,0,-1,0.0,200.0)"/>
 <path d="M0,0 l116,0" fill="none" stroke="rgb(229,229,229)" stroke-width="2" transform="matrix(1,0,0,-1,0.0,135.0)"/>
 <path d="M0,1 l0,-5" fill="none" stroke="rgb(204,204,204)" stroke-width="2" transform="matrix(1,0,0,-1,8.0,135.0)"/>
 <path d="M0,1 l0,-5" fill="none" stroke="rgb(204,204,204)" stroke-width="2" transform="matrix(1,0,0,-1,109.0,135.0)"/>
 <path d="M294,196 c-75,0,-101,38,-101,74 c0,40,28,69,90,69 l56,0 l0,91 l-63,0 c-62,0,-90,29,-90,68 c0,40,27,70,85,70 l254,0 c22,-24,34,-61,34,-87 c0,-63,-54,-92,-137,-109 c2,-39,10,-74,23,-104 c-34,-39,-87,-72,-151,-72 Z M806,178 l0,-178 l116,0 l0,568 l111,0 l0,92 l-1060,0 l0,-92 l129,0 l0,-4 c-19,-14,-38,-38,-38,-75 c0,-61,46,-98,103,-102 l0,-4 c-42,-11,-94,-49,-94,-123 c0,-88,75,-156,199,-156 c109,0,180,38,227,81 c41,-41,97,-63,159,-63 c73,0,121,30,144,56 Z M549,329 c69,14,127,64,127,136 c0,36,-13,72,-43,99 l0,4 l173,0 l0,-213 c0,-82,-49,-134,-131,-134 c-78,0,-118,52,-126,108 Z M549,329" fill="rgb(0,0,0)" transform="matrix(0.1,0.0,0.0,-0.1,8.0,135.0)"/>
</svg>