<?xml version="1.0" encoding="UTF-8"?>
<svg height="200.0" version="1.1" width="78.0" xmlns="http://www.w3.org/2000/svg" xmlns:xlink="http://www.w3.org/1999/xlink">
 <path d="M0,0 l78,0 l0,200 l-78,0 Z M0,0" fill="rgb(255,255,255)" transform="matrix(1,0,0,-1,0.0,200.0)"/>
 <path d="M0,0 l78,0" fill="none" stroke="rgb(229,229,229)" stroke-width="2" transform="matrix(1,0,0,-1,0.0,135.0)"/>
 <path d="M0,1 l0,-5" fill="none" stroke="rgb(204,204,204)" stroke-width="2" transform="matrix(1,0,0,-1,8.0,135.0)"/>
 <path d="M0,1 l0,-5" fill="none" stroke="rgb(204,204,204)" stroke-width="2" transform="matrix(1,0,0,-1,71.0,135.0)"/>
 <path d="M521,-59 c0,57,-34,105,-80,122 l-198,-32 c-29,7,-40,30,-40,47 c0,17,7,27,15,33 c24,-5,59,-8,89,-8 c135,0,214,70,214,161 c0,57,-32,106,-80,122 l-196,-31 c-28,5,-41,27,-41,43 c0,19,12,30,45,30 l220,0 l0,140 l191,0 l0,92 l-687,0 l0,-92 l386,0 l0,-59 l-153,0 c-77,0,-113,-44,-113,-95 c0,-61,47,-125,146,-152 l164,30 c11,-7,19,-16,19,-33 c0,-39,-40,-70,-115,-70 c-88,0,-159,33,-213,101 l-62,-56 c20,-28,55,-64,93,-85 c-17,-21,-24,-45,-24,-69 c0,-59,44,-119,138,-139 l165,29 c11,-6,18,-17,18,-33 c0,-39,-42,-71,-115,-71 c-88,0,-160,37,-213,104 l-62,-58 c43,-59,139,-132,273,-132 c134,0,216,71,216,161 Z M639,90 c0,33,-25,59,-58,59 c-33,0,-59,-26,-59,-59 c0,-32,25,-58,59,-58 c33,0,58,26,58,58 Z M639,412 c0,33,-25,59,-58,59 c-33,0,-59,-26,-59,-59 c0,-32,25,-58,59,-58 c33,0,58,26,58,58 Z M639,412" fill="rgb(0,0,0)" transform="matrix(0.1,0.0,0.0,-0.1,8.0,135.0)"/>
</svg>