<?xml version="1.0" encoding="UTF-8"?>
<svg height="200.0" version="1.1" width="132.0" xmlns="http://www.w3.org/2000/svg" xmlns:xlink="http://www.w3.org/1999/xlink">
 <path d="M0,0 l132,0 l0,200 l-132,0 Z M0,0" fill="rgb(255,255,255)" transform="matrix(1,0,0,-1,0.0,200.0)"/>
 <path d="M0,0 l132,0" fill="none" stroke="rgb(229,229,229)" stroke-width="2" transform="matrix(1,0,0,-1,0.0,135.0)"/>
 <path d="M0,1 l0,-5" fill="none" stroke="rgb(204,204,204)" stroke-width="2" transform="matrix(1,0,0,-1,8.0,135.0)"/>
 <path d="M0,1 l0,-5" fill="none" stroke="rgb(204,204,204)" stroke-width="2" transform="matrix(1,0,0,-1,125.0,135.0)"/>
 <path d="M837,148 c-61,0,-93,33,-103,71 c69,29,124,69,124,143 c0,77,-54,133,-169,133 l-228,0 l0,73 l509,0 l0,-285 c0,-73,-51,-135,-133,-135 Z M1086,0 l0,568 l111,0 l0,92 l-1224,0 l0,-92 l374,0 l0,-72 l-129,0 c-82,0,-127,-42,-127,-107 c0,-75,55,-152,152,-190 l143,34 c14,-10,23,-29,23,-50 c0,-55,-42,-87,-108,-87 c-84,0,-157,57,-196,142 l-77,-58 c42,-84,128,-181,271,-181 c131,0,215,82,215,186 c0,75,-40,131,-97,150 l-162,-35 c-33,12,-49,42,-49,64 c0,27,12,39,71,39 l413,0 c56,0,67,-19,67,-43 c0,-29,-21,-48,-54,-65 l-101,-49 c27,-113,108,-190,224,-190 c61,0,114,30,140,57 l4,0 l0,-113 Z M611,326 c0,31,-23,54,-53,54 c-29,0,-52,-23,-52,-54 c0,-28,23,-51,52,-51 c31,0,53,23,53,51 Z M611,326" fill="rgb(0,0,0)" transform="matrix(0.1,0.0,0.0,-0.1,8.0,135.0)"/>
</svg>