<?xml version="1.0" encoding="UTF-8"?>
<svg height="200.0" version="1.1" width="78.0" xmlns="http://www.w3.org/2000/svg" xmlns:xlink="http://www.w3.org/1999/xlink">
 <path d="M0,0 l78,0 l0,200 l-78,0 Z M0,0" fill="rgb(255,255,255)" transform="matrix(1,0,0,-1,0.0,200.0)"/>
 <path d="M0,0 l78,0" fill="none" stroke="rgb(229,229,229)" stroke-width="2" transform="matrix(1,0,0,-1,0.0,135.0)"/>
 <path d="M0,1 l0,-5" fill="none" stroke="rgb(204,204,204)" stroke-width="2" transform="matrix(1,0,0,-1,8.0,135.0)"/>
 <path d="M0,1 l0,-5" fill="none" stroke="rgb(204,204,204)" stroke-width="2" transform="matrix(1,0,0,-1,71.0,135.0)"/>
 <path d="M470,-297 l0,392 c28,31,42,71,42,113 c0,74,-39,127,-92,143 l-169,-34 c-34,12,-46,42,-46,60 c0,23,11,33,65,33 l191,0 l0,158 l191,0 l0,92 l-679,0 l0,-92 l375,0 l0,-65 l-134,0 c-82,0,-123,-42,-123,-102 c0,-71,50,-147,148,-185 l150,34 c10,-8,19,-25,19,-44 c0,-48,-34,-84,-110,-84 c-86,0,-154,54,-192,130 l-76,-58 c21,-39,55,-87,105,-121 c-36,-25,-66,-67,-66,-130 c0,-98,73,-170,176,-170 c59,0,97,23,114,41 l4,0 l0,-111 Z M180,-55 c0,53,38,88,108,88 c23,0,49,-1,76,-5 l0,-57 c0,-63,-38,-105,-98,-105 c-58,0,-86,35,-86,79 Z M637,383 c0,36,-28,65,-64,65 c-37,0,-65,-29,-65,-65 c0,-36,28,-64,64,-64 c37,0,65,28,65,64 Z M637,383" fill="rgb(0,0,0)" transform="matrix(0.1,0.0,0.0,-0.1,8.0,135.0)"/>
</svg>