<?xml version="1.0" encoding="UTF-8"?>
<svg height="200.0" version="1.1" width="126.0" xmlns="http://www.w3.org/2000/svg" xmlns:xlink="http://www.w3.org/1999/xlink">
 <path d="M0,0 l126,0 l0,200 l-126,0 Z M0,0" fill="rgb(255,255,255)" transform="matrix(1,0,0,-1,0.0,200.0)"/>
 <path d="M0,0 l126,0" fill="none" stroke="rgb(229,229,229)" stroke-width="2" transform="matrix(1,0,0,-1,0.0,135.0)"/>
 <path d="M0,1 l0,-5" fill="none" stroke="rgb(204,204,204)" stroke-width="2" transform="matrix(1,0,0,-1,8.0,135.0)"/>
 <path d="M0,1 l0,-5" fill="none" stroke="rgb(204,204,204)" stroke-width="2" transform="matrix(1,0,0,-1,118.0,135.0)"/>
 <path d="M553,-62 c0,-101,79,-175,184,-175 c64,0,100,25,117,43 l4,0 l0,-106 l107,0 l0,424 c59,57,90,131,90,205 c0,76,-34,130,-89,155 l0,84 l158,0 l0,92 l-1151,0 l0,-92 l534,0 l0,-4 c-18,-15,-41,-43,-41,-93 c0,-59,37,-109,101,-121 l0,-4 c-25,-9,-51,-28,-68,-58 c-34,-49,-86,-95,-178,-95 c-69,0,-107,38,-107,87 c0,57,39,93,111,93 l40,0 l0,100 l-353,0 l0,-101 l131,0 l0,-4 c-21,-17,-48,-47,-48,-107 c0,-88,71,-167,205,-167 c84,0,147,23,194,57 c17,-44,54,-82,106,-102 c-27,-25,-47,-60,-47,-111 Z M902,306 c-32,8,-52,27,-52,56 c0,26,20,44,44,44 c30,0,57,-23,57,-76 c0,-116,-103,-206,-225,-206 c-85,0,-124,43,-124,95 c0,45,27,78,88,81 c6,1,13,1,19,1 l0,96 l-34,0 c-57,0,-88,35,-88,82 c0,50,34,89,96,89 l173,0 l0,-74 c-69,-13,-114,-68,-114,-131 c0,-68,46,-111,91,-124 Z M755,-143 c-60,0,-90,38,-90,84 c0,52,35,91,106,93 l27,0 c20,1,41,3,61,6 l0,-75 c0,-63,-39,-108,-104,-108 Z M755,-143" fill="rgb(0,0,0)" transform="matrix(0.1,0.0,0.0,-0.1,8.0,135.0)"/>
</svg>