<?xml version="1.0" encoding="UTF-8"?>
<svg height="200.0" version="1.1" width="144.0" xmlns="http://www.w3.org/2000/svg" xmlns:xlink="http://www.w3.org/1999/xlink">
 <path d="M0,0 l144,0 l0,200 l-144,0 Z M0,0" fill="rgb(255,255,255)" transform="matrix(1,0,0,-1,0.0,200.0)"/>
 <path d="M0,0 l144,0" fill="none" stroke="rgb(229,229,229)" stroke-width="2" transform="matrix(1,0,0,-1,0.0,135.0)"/>
 <path d="M0,1 l0,-5" fill="none" stroke="rgb(204,204,204)" stroke-width="2" transform="matrix(1,0,0,-1,8.0,135.0)"/>
 <path d="M0,1 l0,-5" fill="none" stroke="rgb(204,204,204)" stroke-width="2" transform="matrix(1,0,0,-1,136.0,135.0)"/>
 <path d="M1080,106 l4,0 l0,-106 l116,0 l0,568 l111,0 l0,92 l-1338,0 l0,-92 l128,0 l0,-4 c-18,-15,-41,-43,-41,-93 c0,-59,37,-109,101,-121 l0,-4 c-41,-15,-85,-55,-85,-132 c0,-99,82,-188,235,-188 c215,0,338,165,338,310 c0,14,-1,28,-4,41 c53,12,112,22,167,22 c39,0,58,-15,58,-42 c0,-26,-13,-53,-85,-89 l-69,-35 c23,-115,102,-185,223,-185 c63,0,116,30,141,58 Z M496,313 c-32,8,-52,27,-52,56 c0,26,20,44,44,44 c30,0,57,-23,57,-76 c0,-116,-103,-213,-225,-213 c-85,0,-124,43,-124,95 c0,46,27,79,89,81 l18,1 l0,96 l-34,0 c-57,0,-88,35,-88,82 c0,50,34,89,96,89 l807,0 l0,-290 c0,-77,-46,-137,-133,-137 c-58,0,-92,32,-101,65 c76,34,122,89,122,150 c0,88,-71,137,-171,137 c-64,0,-136,-15,-197,-32 c-28,29,-69,45,-117,45 c-90,0,-151,-62,-151,-136 c0,-68,46,-111,91,-124 Z M496,313" fill="rgb(0,0,0)" transform="matrix(0.1,0.0,0.0,-0.1,8.0,135.0)"/>
</svg>