<?xml version="1.0" encoding="UTF-8"?>
<svg height="200.0" version="1.1" width="144.0" xmlns="http://www.w3.org/2000/svg" xmlns:xlink="http://www.w3.org/1999/xlink">
 <path d="M0,0 l144,0 l0,200 l-144,0 Z M0,0" fill="rgb(255,255,255)" transform="matrix(1,0,0,-1,0.0,200.0)"/>
 <path d="M0,0 l144,0" fill="none" stroke="rgb(229,229,229)" stroke-width="2" transform="matrix(1,0,0,-1,0.0,135.0)"/>
 <path d="M0,1 l0,-5" fill="none" stroke="rgb(204,204,204)" stroke-width="2" transform="matrix(1,0,0,-1,8.0,135.0)"/>
 <path d="M0,1 l0,-5" fill="none" stroke="rgb(204,204,204)" stroke-width="2" transform="matrix(1,0,0,-1,136.0,135.0)"/>
 <path d="M430,-143 l128,28 l-149,153 c154,42,240,177,240,298 c0,15,-1,28,-4,41 c52,13,110,22,164,22 c39,0,58,-15,58,-42 c0,-26,-13,-53,-85,-89 l-69,-35 c23,-115,102,-185,222,-185 c63,0,117,30,141,58 l4,0 l0,-106 l116,0 l0,568 l111,0 l0,92 l-1334,0 l0,-92 l128,0 l0,-4 c-18,-15,-41,-43,-41,-93 c0,-59,37,-109,101,-121 l0,-4 c-41,-15,-85,-55,-85,-132 c0,-85,60,-162,173,-183 l-144,-142 l128,-32 l101,128 Z M496,313 c-32,8,-52,27,-52,56 c0,26,20,44,44,44 c30,0,57,-23,57,-76 c0,-116,-103,-213,-225,-213 c-85,0,-124,43,-124,95 c0,46,27,79,89,81 l18,1 l0,96 l-34,0 c-57,0,-88,35,-88,82 c0,50,34,89,96,89 l803,0 l0,-290 c0,-77,-46,-137,-132,-137 c-59,0,-92,32,-101,65 c76,34,121,89,121,150 c0,88,-70,137,-170,137 c-63,0,-134,-15,-195,-32 c-28,29,-68,45,-116,45 c-90,0,-151,-62,-151,-136 c0,-68,46,-111,91,-124 Z M496,313" fill="rgb(0,0,0)" transform="matrix(0.1,0.0,0.0,-0.1,8.0,135.0)"/>
</svg>