<?xml version="1.0" encoding="UTF-8"?>
<svg height="200.0" version="1.1" width="178.0" xmlns="http://www.w3.org/2000/svg" xmlns:xlink="http://www.w3.org/1999/xlink">
 <path d="M0,0 l178,0 l0,200 l-178,0 Z M0,0" fill="rgb(255,255,255)" transform="matrix(1,0,0,-1,0.0,200.0)"/>
 <path d="M0,0 l178,0" fill="none" stroke="rgb(229,229,229)" stroke-width="2" transform="matrix(1,0,0,-1,0.0,135.0)"/>
 <path d="M0,1 l0,-5" fill="none" stroke="rgb(204,204,204)" stroke-width="2" transform="matrix(1,0,0,-1,8.0,135.0)"/>
 <path d="M0,1 l0,-5" fill="none" stroke="rgb(204,204,204)" stroke-width="2" transform="matrix(1,0,0,-1,171.0,135.0)"/>
 <path d="M634,454 l-320,0 l-46,-84 l0,-8 c46,-17,83,-53,83,-101 c0,-43,-28,-68,-69,-68 c-98,0,-150,137,-156,263 l-106,-52 c14,-120,90,-312,271,-312 c104,0,172,67,172,158 c0,51,-23,88,-48,107 l0,4 l120,0 c26,-118,103,-269,264,-269 c104,0,172,67,172,158 c0,51,-23,88,-48,107 l0,4 l52,0 c37,0,61,-6,79,-17 c19,-141,112,-222,233,-222 c73,0,120,30,143,56 l4,0 l0,-178 l116,0 l0,568 l111,0 l0,92 l-1688,0 l0,-92 l1180,0 c22,-24,35,-61,35,-87 c0,-36,-18,-61,-48,-79 c-39,38,-99,52,-159,52 l-159,0 l-46,-84 l0,-8 c46,-17,83,-53,83,-101 c0,-43,-28,-68,-69,-68 c-96,0,-149,133,-156,258 Z M1177,329 c70,14,127,64,127,136 c0,36,-12,72,-42,99 l0,4 l173,0 l0,-213 c0,-82,-49,-134,-131,-134 c-79,0,-119,52,-127,108 Z M1177,329" fill="rgb(0,0,0)" transform="matrix(0.1,0.0,0.0,-0.1,8.0,135.0)"/>
</svg>