<?xml version="1.0" encoding="UTF-8"?>
<svg height="200.0" version="1.1" width="144.0" xmlns="http://www.w3.org/2000/svg" xmlns:xlink="http://www.w3.org/1999/xlink">
 <path d="M0,0 l144,0 l0,200 l-144,0 Z M0,0" fill="rgb(255,255,255)" transform="matrix(1,0,0,-1,0.0,200.0)"/>
 <path d="M0,0 l144,0" fill="none" stroke="rgb(229,229,229)" stroke-width="2" transform="matrix(1,0,0,-1,0.0,135.0)"/>
 <path d="M0,1 l0,-5" fill="none" stroke="rgb(204,204,204)" stroke-width="2" transform="matrix(1,0,0,-1,8.0,135.0)"/>
 <path d="M0,1 l0,-5" fill="none" stroke="rgb(204,204,204)" stroke-width="2" transform="matrix(1,0,0,-1,138.0,135.0)"/>
 <path d="M1323,568 l0,92 l-1350,0 l0,-92 l858,0 l0,-73 l-130,0 c-49,0,-85,-15,-106,-41 l-281,0 l-46,-84 l0,-8 c46,-17,83,-53,83,-101 c0,-43,-28,-68,-69,-68 c-98,0,-150,137,-156,263 l-106,-52 c14,-120,90,-312,271,-312 c104,0,172,67,172,158 c0,51,-23,88,-48,107 l0,4 l161,0 c12,-70,65,-135,151,-163 l143,34 c8,-6,20,-22,20,-45 c0,-58,-63,-83,-125,-83 l-22,0 l-146,93 c-26,-12,-45,-37,-45,-72 c0,-51,45,-110,162,-111 l170,-150 l119,64 l-164,101 l0,4 c85,11,155,68,155,156 c0,9,-1,17,-1,25 c18,-5,38,-8,59,-8 c16,0,32,1,48,3 l0,-209 l112,0 l0,568 Z M1023,296 c-26,0,-55,5,-72,11 c-14,14,-30,23,-46,29 l-167,-37 c-30,8,-49,37,-49,59 c0,26,7,45,65,45 l190,0 l0,165 l156,0 l0,-261 c-24,-7,-50,-11,-77,-11 Z M1023,296" fill="rgb(0,0,0)" transform="matrix(0.1,0.0,0.0,-0.1,8.0,135.0)"/>
</svg>