<?xml version="1.0" encoding="UTF-8"?>
<svg height="200.0" version="1.1" width="126.0" xmlns="http://www.w3.org/2000/svg" xmlns:xlink="http://www.w3.org/1999/xlink">
 <path d="M0,0 l126,0 l0,200 l-126,0 Z M0,0" fill="rgb(255,255,255)" transform="matrix(1,0,0,-1,0.0,200.0)"/>
 <path d="M0,0 l126,0" fill="none" stroke="rgb(229,229,229)" stroke-width="2" transform="matrix(1,0,0,-1,0.0,135.0)"/>
 <path d="M0,1 l0,-5" fill="none" stroke="rgb(204,204,204)" stroke-width="2" transform="matrix(1,0,0,-1,8.0,135.0)"/>
 <path d="M0,1 l0,-5" fill="none" stroke="rgb(204,204,204)" stroke-width="2" transform="matrix(1,0,0,-1,118.0,135.0)"/>
 <path d="M895,178 l4,0 l0,-178 l116,0 l0,568 l111,0 l0,92 l-1153,0 l0,-92 l645,0 c22,-24,34,-61,34,-87 c0,-44,-26,-71,-71,-90 c-40,46,-101,65,-157,68 l-279,0 l-37,-76 l0,-8 c110,-27,190,-83,190,-148 c0,-54,-38,-83,-95,-83 c-12,0,-25,2,-38,5 l-106,94 c-33,-18,-47,-43,-47,-76 c0,-54,46,-98,130,-104 l138,-150 l118,55 l-144,104 c1,1,4,2,6,3 c80,-2,153,48,153,138 c0,87,-76,133,-139,149 l0,4 l128,0 c61,0,103,-18,127,-75 c33,-108,118,-169,222,-169 c73,0,121,30,144,56 Z M642,329 c69,14,127,64,127,136 c0,36,-13,72,-43,99 l0,4 l173,0 l0,-213 c0,-82,-49,-134,-131,-134 c-78,0,-118,52,-126,108 Z M642,329" fill="rgb(0,0,0)" transform="matrix(0.1,0.0,0.0,-0.1,8.0,135.0)"/>
</svg>