<?xml version="1.0" encoding="UTF-8"?>
<svg height="200.0" version="1.1" width="118.0" xmlns="http://www.w3.org/2000/svg" xmlns:xlink="http://www.w3.org/1999/xlink">
 <path d="M0,0 l118,0 l0,200 l-118,0 Z M0,0" fill="rgb(255,255,255)" transform="matrix(1,0,0,-1,0.0,200.0)"/>
 <path d="M0,0 l118,0" fill="none" stroke="rgb(229,229,229)" stroke-width="2" transform="matrix(1,0,0,-1,0.0,135.0)"/>
 <path d="M0,1 l0,-5" fill="none" stroke="rgb(204,204,204)" stroke-width="2" transform="matrix(1,0,0,-1,8.0,135.0)"/>
 <path d="M0,1 l0,-5" fill="none" stroke="rgb(204,204,204)" stroke-width="2" transform="matrix(1,0,0,-1,111.0,135.0)"/>
 <path d="M810,31 c74,0,150,21,213,83 l-58,93 c-50,-53,-101,-75,-169,-75 c-91,0,-134,59,-134,113 c0,53,17,89,119,117 l145,39 l0,167 l134,0 l0,92 l-1087,0 l0,-92 l835,0 l0,-87 l-92,-27 c-31,-9,-58,-19,-80,-32 c-42,24,-95,32,-141,32 l-181,0 l-46,-84 l0,-8 c46,-17,83,-53,83,-101 c0,-43,-28,-68,-69,-68 c-96,0,-149,133,-156,258 l-106,-47 c14,-120,90,-312,271,-312 c104,0,172,67,172,158 c0,51,-23,88,-48,107 l0,4 l77,0 c31,0,53,-5,73,-13 c-11,-24,-16,-50,-16,-81 c0,-125,106,-236,261,-236 Z M810,31" fill="rgb(0,0,0)" transform="matrix(0.1,0.0,0.0,-0.1,8.0,135.0)"/>
</svg>