<?xml version="1.0" encoding="UTF-8"?>
<svg height="200.0" version="1.1" width="120.0" xmlns="http://www.w3.org/2000/svg" xmlns:xlink="http://www.w3.org/1999/xlink">
 <path d="M0,0 l120,0 l0,200 l-120,0 Z M0,0" fill="rgb(255,255,255)" transform="matrix(1,0,0,-1,0.0,200.0)"/>
 <path d="M0,0 l120,0" fill="none" stroke="rgb(229,229,229)" stroke-width="2" transform="matrix(1,0,0,-1,0.0,135.0)"/>
 <path d="M0,1 l0,-5" fill="none" stroke="rgb(204,204,204)" stroke-width="2" transform="matrix(1,0,0,-1,8.0,135.0)"/>
 <path d="M0,1 l0,-5" fill="none" stroke="rgb(204,204,204)" stroke-width="2" transform="matrix(1,0,0,-1,113.0,135.0)"/>
 <path d="M934,412 l0,156 l146,0 l0,92 l-1107,0 l0,-92 l843,0 l0,-76 l-99,-24 c-16,-4,-31,-9,-45,-14 l-358,0 l-46,-84 l0,-8 c46,-17,83,-53,83,-101 c0,-43,-28,-68,-69,-68 c-98,0,-150,137,-156,263 l-106,-52 c14,-120,90,-312,271,-312 c104,0,172,67,172,158 c0,51,-23,88,-48,107 l0,4 l147,0 c-11,-23,-16,-50,-16,-81 c0,-132,113,-226,250,-226 c28,0,56,5,81,13 l68,-131 l132,33 l-121,147 c22,22,39,49,39,89 c0,54,-35,83,-68,99 l-76,-28 l0,-98 c-17,-14,-41,-23,-70,-23 c-64,-2,-122,40,-122,105 c0,58,33,91,132,116 Z M934,412" fill="rgb(0,0,0)" transform="matrix(0.1,0.0,0.0,-0.1,8.0,135.0)"/>
</svg>