<?xml version="1.0" encoding="UTF-8"?>
<svg height="200.0" version="1.1" width="120.0" xmlns="http://www.w3.org/2000/svg" xmlns:xlink="http://www.w3.org/1999/xlink">
 <path d="M0,0 l120,0 l0,200 l-120,0 Z M0,0" fill="rgb(255,255,255)" transform="matrix(1,0,0,-1,0.0,200.0)"/>
 <path d="M0,0 l120,0" fill="none" stroke="rgb(229,229,229)" stroke-width="2" transform="matrix(1,0,0,-1,0.0,135.0)"/>
 <path d="M0,1 l0,-5" fill="none" stroke="rgb(204,204,204)" stroke-width="2" transform="matrix(1,0,0,-1,8.0,135.0)"/>
 <path d="M0,1 l0,-5" fill="none" stroke="rgb(204,204,204)" stroke-width="2" transform="matrix(1,0,0,-1,113.0,135.0)"/>
 <path d="M687,214 l0,103 l159,0 l0,-317 l116,0 l0,568 l111,0 l0,92 l-1100,0 l0,-92 l873,0 l0,-150 l-179,0 c-27,11,-87,30,-176,30 l-178,0 l-46,-84 l0,-8 c46,-17,83,-53,83,-101 c0,-43,-28,-69,-69,-69 c-97,0,-149,138,-155,263 l-107,-51 c15,-120,90,-312,271,-312 c104,0,172,66,172,158 c0,50,-22,87,-48,107 l0,4 l119,0 c1,-83,43,-141,95,-167 Z M93,-15 c0,-35,28,-63,64,-63 c38,0,66,28,66,63 c0,39,-28,67,-66,67 c-36,0,-64,-28,-64,-67 Z M93,-15" fill="rgb(0,0,0)" transform="matrix(0.1,0.0,0.0,-0.1,8.0,135.0)"/>
</svg>