<?xml version="1.0" encoding="UTF-8"?>
<svg height="200.0" version="1.1" width="124.0" xmlns="http://www.w3.org/2000/svg" xmlns:xlink="http://www.w3.org/1999/xlink">
 <path d="M0,0 l124,0 l0,200 l-124,0 Z M0,0" fill="rgb(255,255,255)" transform="matrix(1,0,0,-1,0.0,200.0)"/>
 <path d="M0,0 l124,0" fill="none" stroke="rgb(229,229,229)" stroke-width="2" transform="matrix(1,0,0,-1,0.0,135.0)"/>
 <path d="M0,1 l0,-5" fill="none" stroke="rgb(204,204,204)" stroke-width="2" transform="matrix(1,0,0,-1,8.0,135.0)"/>
 <path d="M0,1 l0,-5" fill="none" stroke="rgb(204,204,204)" stroke-width="2" transform="matrix(1,0,0,-1,117.0,135.0)"/>
 <path d="M1005,568 l111,0 l0,92 l-1143,0 l0,-92 l916,0 l0,-246 c0,-22,-5,-42,-15,-61 l-168,132 c17,10,37,15,57,15 c22,0,44,-2,67,-10 l-6,100 c-24,7,-45,9,-73,9 c-51,0,-102,-19,-141,-53 l-296,0 l-46,-84 l0,-8 c46,-17,83,-53,83,-101 c0,-43,-28,-68,-69,-68 c-98,0,-150,137,-156,263 l-106,-52 c14,-120,90,-312,271,-312 c104,0,172,67,172,158 c0,51,-23,88,-48,107 l0,4 l136,0 c-5,-19,-8,-39,-8,-61 c0,-117,86,-201,204,-201 c64,0,113,26,138,53 l4,0 l0,-152 l116,0 Z M763,194 c-62,0,-109,45,-109,108 c0,18,4,34,11,48 l171,-133 c-20,-14,-45,-23,-73,-23 Z M763,194" fill="rgb(0,0,0)" transform="matrix(0.1,0.0,0.0,-0.1,8.0,135.0)"/>
</svg>