<?xml version="1.0" encoding="UTF-8"?>
<svg height="200.0" version="1.1" width="122.0" xmlns="http://www.w3.org/2000/svg" xmlns:xlink="http://www.w3.org/1999/xlink">
 <path d="M0,0 l122,0 l0,200 l-122,0 Z M0,0" fill="rgb(255,255,255)" transform="matrix(1,0,0,-1,0.0,200.0)"/>
 <path d="M0,0 l122,0" fill="none" stroke="rgb(229,229,229)" stroke-width="2" transform="matrix(1,0,0,-1,0.0,135.0)"/>
 <path d="M0,1 l0,-5" fill="none" stroke="rgb(204,204,204)" stroke-width="2" transform="matrix(1,0,0,-1,8.0,135.0)"/>
 <path d="M0,1 l0,-5" fill="none" stroke="rgb(204,204,204)" stroke-width="2" transform="matrix(1,0,0,-1,115.0,135.0)"/>
 <path d="M987,568 l111,0 l0,92 l-1125,0 l0,-92 l898,0 l0,-241 c0,-70,-40,-127,-113,-127 c-57,0,-96,37,-96,93 c0,78,73,107,137,88 l-8,102 c-61,11,-120,0,-166,-29 l-311,0 l-46,-84 l0,-8 c46,-17,83,-53,83,-101 c0,-43,-28,-68,-69,-68 c-98,0,-150,137,-156,263 l-106,-52 c14,-120,90,-312,271,-312 c104,0,172,67,172,158 c0,51,-23,88,-48,107 l0,4 l138,0 c-7,-21,-11,-44,-11,-69 c0,-116,88,-192,195,-192 c68,0,110,27,130,49 l4,0 l0,-149 l116,0 Z M987,568" fill="rgb(0,0,0)" transform="matrix(0.1,0.0,0.0,-0.1,8.0,135.0)"/>
</svg>