<?xml version="1.0" encoding="UTF-8"?>
<svg height="200.0" version="1.1" width="124.0" xmlns="http://www.w3.org/2000/svg" xmlns:xlink="http://www.w3.org/1999/xlink">
 <path d="M0,0 l124,0 l0,200 l-124,0 Z M0,0" fill="rgb(255,255,255)" transform="matrix(1,0,0,-1,0.0,200.0)"/>
 <path d="M0,0 l124,0" fill="none" stroke="rgb(229,229,229)" stroke-width="2" transform="matrix(1,0,0,-1,0.0,135.0)"/>
 <path d="M0,1 l0,-5" fill="none" stroke="rgb(204,204,204)" stroke-width="2" transform="matrix(1,0,0,-1,8.0,135.0)"/>
 <path d="M0,1 l0,-5" fill="none" stroke="rgb(204,204,204)" stroke-width="2" transform="matrix(1,0,0,-1,117.0,135.0)"/>
 <path d="M717,233 l0,91 l169,0 l0,-324 l116,0 l0,568 l111,0 l0,92 l-1140,0 l0,-92 l352,0 l0,-73 l-132,0 c-82,0,-127,-41,-127,-106 c0,-80,58,-159,154,-191 l142,34 c8,-6,20,-22,20,-45 c0,-58,-62,-83,-124,-83 l-21,0 l-147,93 c-26,-12,-44,-37,-44,-72 c0,-51,45,-110,161,-111 l170,-150 l121,64 l-163,101 l-2,4 c86,12,156,68,156,156 c0,3,0,5,0,8 c18,-5,38,-7,58,-7 c71,0,135,22,170,43 Z M512,280 c-17,0,-35,2,-50,5 c-17,26,-40,43,-64,51 l-165,-37 c-30,8,-49,37,-49,59 c0,26,7,44,65,44 l190,0 l0,166 l447,0 l0,-143 l-241,0 l-74,-55 c0,-32,4,-59,13,-81 c-23,-6,-47,-9,-72,-9 Z M512,280" fill="rgb(0,0,0)" transform="matrix(0.1,0.0,0.0,-0.1,8.0,135.0)"/>
</svg>