<?xml version="1.0" encoding="UTF-8"?>
<svg height="200.0" version="1.1" width="132.0" xmlns="http://www.w3.org/2000/svg" xmlns:xlink="http://www.w3.org/1999/xlink">
 <path d="M0,0 l132,0 l0,200 l-132,0 Z M0,0" fill="rgb(255,255,255)" transform="matrix(1,0,0,-1,0.0,200.0)"/>
 <path d="M0,0 l132,0" fill="none" stroke="rgb(229,229,229)" stroke-width="2" transform="matrix(1,0,0,-1,0.0,135.0)"/>
 <path d="M0,1 l0,-5" fill="none" stroke="rgb(204,204,204)" stroke-width="2" transform="matrix(1,0,0,-1,8.0,135.0)"/>
 <path d="M0,1 l0,-5" fill="none" stroke="rgb(204,204,204)" stroke-width="2" transform="matrix(1,0,0,-1,125.0,135.0)"/>
 <path d="M512,296 c-24,0,-48,4,-66,9 c-14,15,-31,25,-48,31 l-165,-37 c-30,8,-49,37,-49,59 c0,26,7,44,65,44 l190,0 l0,166 l248,0 c22,-24,34,-61,34,-87 c0,-63,-54,-92,-137,-109 c1,-23,5,-44,10,-64 c-25,-8,-53,-12,-82,-12 Z M382,187 c0,-58,-62,-83,-124,-83 l-21,0 l-147,93 c-26,-12,-44,-37,-44,-72 c0,-51,45,-110,161,-111 l170,-150 l121,64 l-163,101 l-2,4 c86,12,156,68,156,156 c0,8,0,16,-1,23 c16,-4,35,-6,54,-6 c31,0,63,4,90,13 c43,-63,110,-97,188,-97 c73,0,121,30,144,56 l4,0 l0,-178 l116,0 l0,568 l111,0 l0,92 l-1222,0 l0,-92 l352,0 l0,-73 l-132,0 c-82,0,-127,-41,-127,-106 c0,-80,58,-159,154,-191 l142,34 c8,-6,20,-22,20,-45 Z M711,329 c69,14,127,64,127,136 c0,36,-13,72,-43,99 l0,4 l173,0 l0,-213 c0,-82,-49,-134,-131,-134 c-78,0,-118,52,-126,108 Z M711,329" fill="rgb(0,0,0)" transform="matrix(0.1,0.0,0.0,-0.1,8.0,135.0)"/>
</svg>