<?xml version="1.0" encoding="UTF-8"?>
<svg height="200.0" version="1.1" width="132.0" xmlns="http://www.w3.org/2000/svg" xmlns:xlink="http://www.w3.org/1999/xlink">
 <path d="M0,0 l132,0 l0,200 l-132,0 Z M0,0" fill="rgb(255,255,255)" transform="matrix(1,0,0,-1,0.0,200.0)"/>
 <path d="M0,0 l132,0" fill="none" stroke="rgb(229,229,229)" stroke-width="2" transform="matrix(1,0,0,-1,0.0,135.0)"/>
 <path d="M0,1 l0,-5" fill="none" stroke="rgb(204,204,204)" stroke-width="2" transform="matrix(1,0,0,-1,8.0,135.0)"/>
 <path d="M0,1 l0,-5" fill="none" stroke="rgb(204,204,204)" stroke-width="2" transform="matrix(1,0,0,-1,125.0,135.0)"/>
 <path d="M174,368 c15,10,40,20,69,20 c53,0,93,-32,93,-94 c0,-64,-49,-103,-106,-103 c-73,0,-123,43,-159,104 l-72,-87 c39,-60,122,-123,233,-123 c93,0,169,47,202,122 c23,-5,56,-8,90,-8 c31,0,58,4,81,8 c23,-63,86,-113,187,-113 c100,0,151,44,172,71 l4,0 l0,-165 l117,0 l0,568 l111,0 l0,92 l-1223,0 l0,-92 l995,0 l0,-199 c0,-111,-61,-176,-150,-176 c-67,0,-103,38,-103,87 c0,57,40,94,112,94 l67,0 l0,99 l-374,0 l0,-100 l125,0 l0,-4 c-15,-12,-32,-30,-42,-59 c-27,-6,-60,-10,-92,-10 c-17,0,-39,2,-60,4 c-5,123,-91,191,-208,191 c-42,0,-82,-12,-113,-28 Z M174,368" fill="rgb(0,0,0)" transform="matrix(0.1,0.0,0.0,-0.1,8.0,135.0)"/>
</svg>