<?xml version="1.0" encoding="UTF-8"?>
<svg height="200.0" version="1.1" width="134.0" xmlns="http://www.w3.org/2000/svg" xmlns:xlink="http://www.w3.org/1999/xlink">
 <path d="M0,0 l134,0 l0,200 l-134,0 Z M0,0" fill="rgb(255,255,255)" transform="matrix(1,0,0,-1,0.0,200.0)"/>
 <path d="M0,0 l134,0" fill="none" stroke="rgb(229,229,229)" stroke-width="2" transform="matrix(1,0,0,-1,0.0,135.0)"/>
 <path d="M0,1 l0,-5" fill="none" stroke="rgb(204,204,204)" stroke-width="2" transform="matrix(1,0,0,-1,8.0,135.0)"/>
 <path d="M0,1 l0,-5" fill="none" stroke="rgb(204,204,204)" stroke-width="2" transform="matrix(1,0,0,-1,127.0,135.0)"/>
 <path d="M174,368 c15,10,40,20,69,20 c53,0,93,-32,93,-94 c0,-64,-49,-103,-106,-103 c-73,0,-123,43,-159,104 l-72,-87 c39,-60,122,-123,233,-123 c108,0,194,63,214,162 c22,-5,50,-8,78,-8 c14,0,30,1,48,2 c-1,-8,-2,-17,-2,-27 c0,-99,88,-188,241,-188 c204,0,332,153,332,297 c0,76,-35,131,-90,155 l0,90 l159,0 l0,92 l-1239,0 l0,-92 l621,0 l0,-4 c-17,-15,-40,-43,-40,-93 c0,-59,36,-109,101,-121 c-41,-8,-108,-10,-139,-10 c-24,0,-48,2,-70,5 c-20,97,-100,150,-203,150 c-42,0,-82,-12,-113,-28 Z M990,300 c-32,8,-52,27,-52,56 c0,27,20,44,45,44 c31,0,56,-24,56,-75 c0,-109,-98,-201,-219,-201 c-86,0,-130,43,-130,95 c0,45,27,78,88,81 c6,1,13,1,19,1 l0,96 l-34,0 c-58,0,-88,35,-88,82 c0,50,33,89,96,89 l173,0 l0,-79 c-69,-14,-114,-67,-114,-131 c0,-69,46,-111,90,-125 Z M990,300" fill="rgb(0,0,0)" transform="matrix(0.1,0.0,0.0,-0.1,8.0,135.0)"/>
</svg>