<?xml version="1.0" encoding="UTF-8"?>
<svg height="200.0" version="1.1" width="142.0" xmlns="http://www.w3.org/2000/svg" xmlns:xlink="http://www.w3.org/1999/xlink">
 <path d="M0,0 l142,0 l0,200 l-142,0 Z M0,0" fill="rgb(255,255,255)" transform="matrix(1,0,0,-1,0.0,200.0)"/>
 <path d="M0,0 l142,0" fill="none" stroke="rgb(229,229,229)" stroke-width="2" transform="matrix(1,0,0,-1,0.0,135.0)"/>
 <path d="M0,1 l0,-5" fill="none" stroke="rgb(204,204,204)" stroke-width="2" transform="matrix(1,0,0,-1,8.0,135.0)"/>
 <path d="M0,1 l0,-5" fill="none" stroke="rgb(204,204,204)" stroke-width="2" transform="matrix(1,0,0,-1,135.0,135.0)"/>
 <path d="M174,368 c15,10,40,20,69,20 c53,0,93,-32,93,-94 c0,-64,-49,-103,-106,-103 c-73,0,-123,43,-159,104 l-72,-87 c39,-60,122,-123,233,-123 c114,0,201,69,217,176 c18,-3,39,-5,61,-5 c21,0,41,2,59,5 c41,-89,114,-169,231,-169 c104,0,172,67,172,158 c0,51,-23,88,-48,107 l0,4 l142,0 l0,-361 l117,0 l0,568 l111,0 l0,92 l-1321,0 l0,-92 l1093,0 l0,-114 l-243,0 l-46,-84 l0,-8 c46,-17,83,-53,83,-101 c0,-43,-28,-68,-69,-68 c-98,0,-150,137,-156,263 l-106,-52 c2,-14,4,-30,8,-45 c-11,-1,-23,-2,-35,-2 c-19,0,-40,1,-60,3 c-25,87,-102,135,-199,135 c-42,0,-82,-12,-113,-28 Z M174,368" fill="rgb(0,0,0)" transform="matrix(0.1,0.0,0.0,-0.1,8.0,135.0)"/>
</svg>