<?xml version="1.0" encoding="UTF-8"?>
<svg height="200.0" version="1.1" width="142.0" xmlns="http://www.w3.org/2000/svg" xmlns:xlink="http://www.w3.org/1999/xlink">
 <path d="M0,0 l142,0 l0,200 l-142,0 Z M0,0" fill="rgb(255,255,255)" transform="matrix(1,0,0,-1,0.0,200.0)"/>
 <path d="M0,0 l142,0" fill="none" stroke="rgb(229,229,229)" stroke-width="2" transform="matrix(1,0,0,-1,0.0,135.0)"/>
 <path d="M0,1 l0,-5" fill="none" stroke="rgb(204,204,204)" stroke-width="2" transform="matrix(1,0,0,-1,8.0,135.0)"/>
 <path d="M0,1 l0,-5" fill="none" stroke="rgb(204,204,204)" stroke-width="2" transform="matrix(1,0,0,-1,135.0,135.0)"/>
 <path d="M1184,0 l0,568 l111,0 l0,92 l-1322,0 l0,-92 l1094,0 l0,-209 c-13,-1,-27,-2,-41,-2 c-18,0,-36,1,-55,3 c-27,89,-108,137,-199,135 c-42,-1,-80,-12,-112,-28 l44,-100 c21,16,54,25,86,19 c43,-6,76,-36,76,-92 c0,-68,-49,-102,-105,-102 c-72,0,-136,57,-173,175 c-21,-5,-56,-10,-86,-10 c-19,0,-40,1,-60,3 c-25,87,-102,135,-199,135 c-42,0,-82,-12,-113,-28 l44,-99 c15,10,40,20,69,20 c53,0,93,-32,93,-94 c0,-64,-49,-103,-106,-103 c-73,0,-123,43,-159,104 l-72,-87 c39,-60,122,-123,233,-123 c114,0,201,69,217,176 c18,-3,39,-5,61,-5 c2,0,4,0,6,0 c46,-102,131,-170,246,-170 c110,0,202,67,217,175 c16,-3,32,-4,49,-5 c13,-1,26,0,39,0 l0,-256 Z M1184,0" fill="rgb(0,0,0)" transform="matrix(0.1,0.0,0.0,-0.1,8.0,135.0)"/>
</svg>