<?xml version="1.0" encoding="UTF-8"?>
<svg height="200.0" version="1.1" width="144.0" xmlns="http://www.w3.org/2000/svg" xmlns:xlink="http://www.w3.org/1999/xlink">
 <path d="M0,0 l144,0 l0,200 l-144,0 Z M0,0" fill="rgb(255,255,255)" transform="matrix(1,0,0,-1,0.0,200.0)"/>
 <path d="M0,0 l144,0" fill="none" stroke="rgb(229,229,229)" stroke-width="2" transform="matrix(1,0,0,-1,0.0,135.0)"/>
 <path d="M0,1 l0,-5" fill="none" stroke="rgb(204,204,204)" stroke-width="2" transform="matrix(1,0,0,-1,8.0,135.0)"/>
 <path d="M0,1 l0,-5" fill="none" stroke="rgb(204,204,204)" stroke-width="2" transform="matrix(1,0,0,-1,136.0,135.0)"/>
 <path d="M519,660 l-546,0 l0,-92 l546,0 Z M589,364 c-21,-5,-59,-7,-87,-7 c-19,0,-40,1,-60,3 c-25,87,-102,135,-199,135 c-42,0,-82,-12,-113,-28 l44,-99 c15,10,40,20,69,20 c53,0,93,-32,93,-94 c0,-64,-49,-103,-106,-103 c-73,0,-123,43,-159,104 l-72,-87 c39,-60,122,-123,233,-123 c114,0,202,69,217,176 c19,-3,42,-5,64,-5 c11,0,22,1,34,2 l68,-53 l240,-226 l96,67 l-108,100 c-49,45,-88,72,-120,92 l1,4 c130,-1,257,76,257,233 c0,99,-64,194,-199,194 c-102,0,-175,-70,-175,-153 c0,-64,34,-114,97,-131 l69,70 c-34,10,-50,36,-50,63 c0,31,22,57,63,57 c41,0,77,-34,77,-101 c0,-88,-65,-141,-158,-141 c-31,0,-68,6,-102,20 Z M1077,0 l117,0 l0,568 l111,0 l0,92 l-228,0 Z M1077,0" fill="rgb(0,0,0)" transform="matrix(0.1,0.0,0.0,-0.1,8.0,135.0)"/>
</svg>