<?xml version="1.0" encoding="UTF-8"?>
<svg height="200.0" version="1.1" width="74.0" xmlns="http://www.w3.org/2000/svg" xmlns:xlink="http://www.w3.org/1999/xlink">
 <path d="M0,0 l74,0 l0,200 l-74,0 Z M0,0" fill="rgb(255,255,255)" transform="matrix(1,0,0,-1,0.0,200.0)"/>
 <path d="M0,0 l74,0" fill="none" stroke="rgb(229,229,229)" stroke-width="2" transform="matrix(1,0,0,-1,0.0,135.0)"/>
 <path d="M0,1 l0,-5" fill="none" stroke="rgb(204,204,204)" stroke-width="2" transform="matrix(1,0,0,-1,8.0,135.0)"/>
 <path d="M0,1 l0,-5" fill="none" stroke="rgb(204,204,204)" stroke-width="2" transform="matrix(1,0,0,-1,67.0,135.0)"/>
 <path d="M506,338 c-37,-30,-113,-70,-198,-70 c-102,0,-145,46,-145,85 c0,39,26,64,94,73 l201,28 l0,114 l160,0 l0,92 l-645,0 l0,-92 l376,0 l0,-39 l-141,-19 c-103,-14,-160,-69,-160,-151 c0,-97,90,-187,262,-187 c13,0,27,1,41,2 l0,-38 l-141,-19 c-102,-14,-162,-70,-162,-152 c0,-98,90,-188,262,-188 c79,0,180,24,247,83 l-51,84 c-37,-30,-105,-70,-198,-70 c-103,0,-145,46,-145,85 c0,40,29,63,96,72 l199,29 l0,137 c37,13,72,32,99,57 Z M506,338" fill="rgb(0,0,0)" transform="matrix(0.1,0.0,0.0,-0.1,8.0,135.0)"/>
</svg>