<?xml version="1.0" encoding="UTF-8"?>
<svg height="200.0" version="1.1" width="76.0" xmlns="http://www.w3.org/2000/svg" xmlns:xlink="http://www.w3.org/1999/xlink">
 <path d="M0,0 l76,0 l0,200 l-76,0 Z M0,0" fill="rgb(255,255,255)" transform="matrix(1,0,0,-1,0.0,200.0)"/>
 <path d="M0,0 l76,0" fill="none" stroke="rgb(229,229,229)" stroke-width="2" transform="matrix(1,0,0,-1,0.0,135.0)"/>
 <path d="M0,1 l0,-5" fill="none" stroke="rgb(204,204,204)" stroke-width="2" transform="matrix(1,0,0,-1,8.0,135.0)"/>
 <path d="M0,1 l0,-5" fill="none" stroke="rgb(204,204,204)" stroke-width="2" transform="matrix(1,0,0,-1,69.0,135.0)"/>
 <path d="M557,254 l-51,84 c-37,-30,-113,-70,-198,-70 c-102,0,-145,46,-145,85 c0,39,26,64,94,73 l201,28 l0,114 l166,0 l0,92 l-651,0 l0,-92 l376,0 l0,-39 l-141,-19 c-103,-14,-160,-69,-160,-151 c0,-97,90,-187,262,-187 c6,0,13,0,20,1 l0,-40 l-125,-21 c-94,-16,-154,-71,-154,-153 c0,-106,100,-189,264,-189 c173,0,272,85,272,192 c0,91,-61,142,-149,167 l0,63 c44,13,88,33,119,62 Z M304,-131 c-108,0,-140,55,-140,87 c0,32,19,58,90,69 l145,24 c42,-12,79,-40,79,-81 c0,-51,-56,-99,-174,-99 Z M304,-131" fill="rgb(0,0,0)" transform="matrix(0.1,0.0,0.0,-0.1,8.0,135.0)"/>
</svg>