<?xml version="1.0" encoding="UTF-8"?>
<svg height="200.0" version="1.1" width="122.0" xmlns="http://www.w3.org/2000/svg" xmlns:xlink="http://www.w3.org/1999/xlink">
 <path d="M0,0 l122,0 l0,200 l-122,0 Z M0,0" fill="rgb(255,255,255)" transform="matrix(1,0,0,-1,0.0,200.0)"/>
 <path d="M0,0 l122,0" fill="none" stroke="rgb(229,229,229)" stroke-width="2" transform="matrix(1,0,0,-1,0.0,135.0)"/>
 <path d="M0,1 l0,-5" fill="none" stroke="rgb(204,204,204)" stroke-width="2" transform="matrix(1,0,0,-1,8.0,135.0)"/>
 <path d="M0,1 l0,-5" fill="none" stroke="rgb(204,204,204)" stroke-width="2" transform="matrix(1,0,0,-1,115.0,135.0)"/>
 <path d="M983,0 l0,568 l111,0 l0,92 l-1121,0 l0,-92 l327,0 l0,-115 l-92,-26 c-115,-33,-167,-78,-167,-176 c0,-125,106,-229,261,-229 c64,0,129,15,184,58 l-55,94 c-43,-31,-85,-51,-143,-51 c-91,0,-134,52,-134,106 c0,53,17,77,119,105 l145,39 c98,24,144,31,178,31 c39,0,58,-16,58,-43 c0,-24,-14,-52,-85,-89 l-69,-34 c24,-112,107,-190,222,-190 c64,0,117,30,141,58 l4,0 l0,-106 Z M735,141 c-60,0,-92,36,-101,70 c76,33,122,88,122,149 c0,88,-73,137,-171,137 c-53,0,-122,-15,-167,-29 l0,100 l449,0 l0,-289 c0,-76,-45,-138,-132,-138 Z M735,141" fill="rgb(0,0,0)" transform="matrix(0.1,0.0,0.0,-0.1,8.0,135.0)"/>
</svg>