<?xml version="1.0" encoding="UTF-8"?>
<svg height="200.0" version="1.1" width="80.0" xmlns="http://www.w3.org/2000/svg" xmlns:xlink="http://www.w3.org/1999/xlink">
 <path d="M0,0 l80,0 l0,200 l-80,0 Z M0,0" fill="rgb(255,255,255)" transform="matrix(1,0,0,-1,0.0,200.0)"/>
 <path d="M0,0 l80,0" fill="none" stroke="rgb(229,229,229)" stroke-width="2" transform="matrix(1,0,0,-1,0.0,135.0)"/>
 <path d="M0,1 l0,-5" fill="none" stroke="rgb(204,204,204)" stroke-width="2" transform="matrix(1,0,0,-1,8.0,135.0)"/>
 <path d="M0,1 l0,-5" fill="none" stroke="rgb(204,204,204)" stroke-width="2" transform="matrix(1,0,0,-1,72.0,135.0)"/>
 <path d="M317,169 c8,0,16,0,24,1 l0,-31 l-154,-38 c-97,-24,-144,-66,-144,-142 c0,-104,106,-189,273,-189 c180,0,271,90,271,193 c0,86,-56,135,-138,162 l0,64 c93,32,140,99,140,173 c0,87,-57,136,-139,162 l0,44 l214,0 l0,92 l-691,0 l0,-92 l368,0 l0,-30 l-153,-38 c-96,-24,-143,-66,-143,-142 c0,-104,105,-189,272,-189 Z M301,267 c-115,0,-144,48,-144,76 c0,30,16,49,83,66 l153,38 c46,-11,87,-34,87,-80 c0,-53,-55,-100,-179,-100 Z M299,-132 c-114,0,-143,48,-143,76 c0,30,15,49,83,66 l153,38 c46,-11,86,-34,86,-80 c0,-53,-55,-100,-179,-100 Z M299,-132" fill="rgb(0,0,0)" transform="matrix(0.1,0.0,0.0,-0.1,8.0,135.0)"/>
</svg>