<?xml version="1.0" encoding="UTF-8"?>
<svg height="200.0" version="1.1" width="134.0" xmlns="http://www.w3.org/2000/svg" xmlns:xlink="http://www.w3.org/1999/xlink">
 <path d="M0,0 l134,0 l0,200 l-134,0 Z M0,0" fill="rgb(255,255,255)" transform="matrix(1,0,0,-1,0.0,200.0)"/>
 <path d="M0,0 l134,0" fill="none" stroke="rgb(229,229,229)" stroke-width="2" transform="matrix(1,0,0,-1,0.0,135.0)"/>
 <path d="M0,1 l0,-5" fill="none" stroke="rgb(204,204,204)" stroke-width="2" transform="matrix(1,0,0,-1,8.0,135.0)"/>
 <path d="M0,1 l0,-5" fill="none" stroke="rgb(204,204,204)" stroke-width="2" transform="matrix(1,0,0,-1,127.0,135.0)"/>
 <path d="M982,107 l4,0 l0,-107 l116,0 l0,568 l111,0 l0,92 l-1240,0 l0,-92 l327,0 l0,-87 l-92,-27 c-114,-33,-167,-89,-167,-187 c0,-128,106,-236,260,-236 c161,0,256,106,256,224 c0,39,-9,73,-25,102 c58,34,122,49,170,49 c56,0,71,-24,71,-48 c0,-28,-20,-46,-53,-63 l-102,-57 c27,-113,107,-190,222,-190 c66,0,117,31,142,59 Z M852,140 c-61,0,-92,33,-102,71 c69,35,124,74,124,148 c0,87,-79,141,-185,141 c-94,0,-181,-41,-225,-67 c-14,11,-30,20,-46,29 l0,106 l568,0 l0,-293 c0,-74,-52,-135,-134,-135 Z M287,132 c-92,0,-133,59,-133,113 c0,53,17,90,119,117 l79,21 c46,-18,95,-60,95,-121 c0,-70,-54,-130,-160,-130 Z M287,132" fill="rgb(0,0,0)" transform="matrix(0.1,0.0,0.0,-0.1,8.0,135.0)"/>
</svg>