<?xml version="1.0" encoding="UTF-8"?>
<svg height="200.0" version="1.1" width="80.0" xmlns="http://www.w3.org/2000/svg" xmlns:xlink="http://www.w3.org/1999/xlink">
 <path d="M0,0 l80,0 l0,200 l-80,0 Z M0,0" fill="rgb(255,255,255)" transform="matrix(1,0,0,-1,0.0,200.0)"/>
 <path d="M0,0 l80,0" fill="none" stroke="rgb(229,229,229)" stroke-width="2" transform="matrix(1,0,0,-1,0.0,135.0)"/>
 <path d="M0,1 l0,-5" fill="none" stroke="rgb(204,204,204)" stroke-width="2" transform="matrix(1,0,0,-1,8.0,135.0)"/>
 <path d="M0,1 l0,-5" fill="none" stroke="rgb(204,204,204)" stroke-width="2" transform="matrix(1,0,0,-1,72.0,135.0)"/>
 <path d="M301,238 c-115,0,-143,48,-143,76 c0,32,19,53,88,70 l146,34 c46,-11,88,-34,88,-80 c0,-53,-55,-100,-179,-100 Z M501,-195 l0,380 c59,35,88,89,88,148 c0,87,-57,136,-139,162 l0,73 l214,0 l0,92 l-691,0 l0,-92 l368,0 l0,-59 l-148,-34 c-96,-23,-148,-67,-148,-145 c0,-67,41,-124,113,-157 c-41,-25,-69,-62,-69,-127 c0,-103,79,-175,184,-175 c64,0,100,25,117,43 l4,0 l0,-109 Z M201,48 c0,50,33,92,109,92 c28,0,58,-4,85,-9 l0,-59 c0,-61,-35,-108,-102,-108 c-55,0,-92,33,-92,84 Z M201,48" fill="rgb(0,0,0)" transform="matrix(0.1,0.0,0.0,-0.1,8.0,135.0)"/>
</svg>