<?xml version="1.0" encoding="UTF-8"?>
<svg height="200.0" version="1.1" width="74.0" xmlns="http://www.w3.org/2000/svg" xmlns:xlink="http://www.w3.org/1999/xlink">
 <path d="M0,0 l74,0 l0,200 l-74,0 Z M0,0" fill="rgb(255,255,255)" transform="matrix(1,0,0,-1,0.0,200.0)"/>
 <path d="M0,0 l74,0" fill="none" stroke="rgb(229,229,229)" stroke-width="2" transform="matrix(1,0,0,-1,0.0,135.0)"/>
 <path d="M0,1 l0,-5" fill="none" stroke="rgb(204,204,204)" stroke-width="2" transform="matrix(1,0,0,-1,8.0,135.0)"/>
 <path d="M0,1 l0,-5" fill="none" stroke="rgb(204,204,204)" stroke-width="2" transform="matrix(1,0,0,-1,66.0,135.0)"/>
 <path d="M525,262 c0,56,-33,102,-81,118 l-193,-31 c-27,6,-41,31,-41,47 c0,20,13,34,46,34 l216,0 l0,138 l133,0 l0,92 l-632,0 l0,-92 l389,0 l0,-56 l-152,0 c-77,0,-114,-44,-114,-95 c0,-61,47,-130,147,-157 l157,30 c11,-7,18,-20,18,-37 c0,-33,-34,-67,-113,-67 c-114,0,-167,48,-210,104 l-63,-69 c27,-39,71,-72,117,-93 c-56,-26,-84,-78,-84,-136 c0,-117,106,-210,262,-210 c122,0,193,73,193,156 c0,66,-53,124,-136,124 c-88,0,-126,-61,-132,-95 l78,-43 c2,25,17,49,48,49 c26,0,40,-18,40,-39 c0,-31,-28,-63,-89,-63 c-102,0,-156,59,-156,117 c0,59,45,96,143,109 c106,10,208,48,209,165 Z M525,262" fill="rgb(0,0,0)" transform="matrix(0.1,0.0,0.0,-0.1,8.0,135.0)"/>
</svg>