<?xml version="1.0" encoding="UTF-8"?>
<svg height="200.0" version="1.1" width="72.0" xmlns="http://www.w3.org/2000/svg" xmlns:xlink="http://www.w3.org/1999/xlink">
 <path d="M0,0 l72,0 l0,200 l-72,0 Z M0,0" fill="rgb(255,255,255)" transform="matrix(1,0,0,-1,0.0,200.0)"/>
 <path d="M0,0 l72,0" fill="none" stroke="rgb(229,229,229)" stroke-width="2" transform="matrix(1,0,0,-1,0.0,135.0)"/>
 <path d="M0,1 l0,-5" fill="none" stroke="rgb(204,204,204)" stroke-width="2" transform="matrix(1,0,0,-1,8.0,135.0)"/>
 <path d="M0,1 l0,-5" fill="none" stroke="rgb(204,204,204)" stroke-width="2" transform="matrix(1,0,0,-1,64.0,135.0)"/>
 <path d="M175,159 c-79,-27,-116,-82,-116,-146 c0,-121,118,-217,272,-217 c120,0,190,63,190,146 c0,65,-54,125,-134,125 c-73,0,-112,-37,-127,-68 c-4,-6,-7,-12,-9,-17 l74,-51 c2,7,4,14,8,20 c7,16,21,29,43,29 c26,0,40,-16,40,-37 c0,-30,-26,-57,-82,-57 c-102,0,-158,65,-158,116 c0,61,59,91,158,107 c95,16,187,51,187,156 c0,62,-54,118,-134,118 c-73,0,-112,-36,-127,-67 c-4,-7,-7,-12,-9,-17 l74,-51 c1,5,3,10,5,16 c7,18,23,33,46,33 c26,0,40,-16,40,-37 c0,-30,-27,-57,-83,-57 c-106,0,-158,64,-158,115 c0,46,24,77,118,98 l170,36 l0,116 l127,0 l0,92 l-617,0 l0,-92 l372,0 l0,-42 l-120,-28 c-114,-26,-167,-85,-167,-168 c0,-67,37,-135,117,-167 Z M175,159" fill="rgb(0,0,0)" transform="matrix(0.1,0.0,0.0,-0.1,8.0,135.0)"/>
</svg>