<?xml version="1.0" encoding="UTF-8"?>
<svg height="200.0" version="1.1" width="126.0" xmlns="http://www.w3.org/2000/svg" xmlns:xlink="http://www.w3.org/1999/xlink">
 <path d="M0,0 l126,0 l0,200 l-126,0 Z M0,0" fill="rgb(255,255,255)" transform="matrix(1,0,0,-1,0.0,200.0)"/>
 <path d="M0,0 l126,0" fill="none" stroke="rgb(229,229,229)" stroke-width="2" transform="matrix(1,0,0,-1,0.0,135.0)"/>
 <path d="M0,1 l0,-5" fill="none" stroke="rgb(204,204,204)" stroke-width="2" transform="matrix(1,0,0,-1,8.0,135.0)"/>
 <path d="M0,1 l0,-5" fill="none" stroke="rgb(204,204,204)" stroke-width="2" transform="matrix(1,0,0,-1,118.0,135.0)"/>
 <path d="M896,112 l4,0 l0,-112 l116,0 l0,568 l111,0 l0,92 l-1154,0 l0,-92 l352,0 l0,-95 l-115,-32 c-107,-28,-171,-96,-171,-194 c0,-147,130,-251,275,-251 c117,0,190,74,190,169 c0,76,-61,137,-137,137 c-86,0,-128,-54,-137,-95 l72,-58 c1,32,22,56,53,56 c27,0,45,-19,45,-43 c0,-39,-30,-67,-83,-67 c-98,0,-161,71,-161,138 c0,57,24,94,118,118 l169,42 l0,1 c75,13,137,22,180,22 c44,0,63,-18,63,-47 c0,-24,-16,-50,-85,-89 l-64,-34 c20,-114,103,-190,218,-190 c62,0,116,29,141,56 Z M767,148 c-61,0,-91,33,-102,72 c78,34,123,81,123,148 c0,92,-63,140,-163,140 c-62,0,-136,-11,-182,-20 l0,80 l457,0 l0,-285 c0,-74,-51,-135,-133,-135 Z M767,148" fill="rgb(0,0,0)" transform="matrix(0.1,0.0,0.0,-0.1,8.0,135.0)"/>
</svg>