<?xml version="1.0" encoding="UTF-8"?>
<svg height="200.0" version="1.1" width="118.0" xmlns="http://www.w3.org/2000/svg" xmlns:xlink="http://www.w3.org/1999/xlink">
 <path d="M0,0 l118,0 l0,200 l-118,0 Z M0,0" fill="rgb(255,255,255)" transform="matrix(1,0,0,-1,0.0,200.0)"/>
 <path d="M0,0 l118,0" fill="none" stroke="rgb(229,229,229)" stroke-width="2" transform="matrix(1,0,0,-1,0.0,135.0)"/>
 <path d="M0,1 l0,-5" fill="none" stroke="rgb(204,204,204)" stroke-width="2" transform="matrix(1,0,0,-1,8.0,135.0)"/>
 <path d="M0,1 l0,-5" fill="none" stroke="rgb(204,204,204)" stroke-width="2" transform="matrix(1,0,0,-1,110.0,135.0)"/>
 <path d="M253,158 c113,0,183,64,183,186 l0,224 l363,0 l0,-87 l-92,-27 c-114,-32,-166,-89,-166,-187 c0,-125,106,-236,260,-236 c75,0,151,21,214,83 l-58,93 c-50,-53,-102,-75,-170,-75 c-91,0,-133,59,-133,113 c0,53,16,89,119,117 l145,39 l0,167 l134,0 l0,92 l-1079,0 l0,-92 l100,0 l0,-226 c0,-121,66,-184,180,-184 Z M255,258 c-44,0,-67,25,-67,80 l0,230 l133,0 l0,-229 c0,-55,-21,-81,-66,-81 Z M255,258" fill="rgb(0,0,0)" transform="matrix(0.1,0.0,0.0,-0.1,8.0,135.0)"/>
</svg>