<?xml version="1.0" encoding="UTF-8"?>
<svg height="200.0" version="1.1" width="122.0" xmlns="http://www.w3.org/2000/svg" xmlns:xlink="http://www.w3.org/1999/xlink">
 <path d="M0,0 l122,0 l0,200 l-122,0 Z M0,0" fill="rgb(255,255,255)" transform="matrix(1,0,0,-1,0.0,200.0)"/>
 <path d="M0,0 l122,0" fill="none" stroke="rgb(229,229,229)" stroke-width="2" transform="matrix(1,0,0,-1,0.0,135.0)"/>
 <path d="M0,1 l0,-5" fill="none" stroke="rgb(204,204,204)" stroke-width="2" transform="matrix(1,0,0,-1,8.0,135.0)"/>
 <path d="M0,1 l0,-5" fill="none" stroke="rgb(204,204,204)" stroke-width="2" transform="matrix(1,0,0,-1,114.0,135.0)"/>
 <path d="M255,258 c-44,0,-67,25,-67,80 l0,230 l133,0 l0,-229 c0,-55,-21,-81,-66,-81 Z M253,158 c113,0,183,64,183,186 l0,224 l410,0 l0,-72 l-129,0 c-82,0,-127,-42,-127,-107 c0,-75,55,-152,152,-190 l143,34 c14,-10,23,-29,23,-50 c0,-55,-42,-87,-108,-87 c-84,0,-157,57,-196,142 l-77,-58 c42,-84,128,-181,271,-181 c131,0,215,82,215,186 c0,75,-40,131,-97,150 l-162,-35 c-33,12,-49,42,-49,64 c0,27,12,39,71,39 l184,0 l0,165 l127,0 l0,92 l-1114,0 l0,-92 l100,0 l0,-226 c0,-121,66,-184,180,-184 Z M253,158" fill="rgb(0,0,0)" transform="matrix(0.1,0.0,0.0,-0.1,8.0,135.0)"/>
</svg>