<?xml version="1.0" encoding="UTF-8"?>
<svg height="200.0" version="1.1" width="166.0" xmlns="http://www.w3.org/2000/svg" xmlns:xlink="http://www.w3.org/1999/xlink">
 <path d="M0,0 l166,0 l0,200 l-166,0 Z M0,0" fill="rgb(255,255,255)" transform="matrix(1,0,0,-1,0.0,200.0)"/>
 <path d="M0,0 l166,0" fill="none" stroke="rgb(229,229,229)" stroke-width="2" transform="matrix(1,0,0,-1,0.0,135.0)"/>
 <path d="M0,1 l0,-5" fill="none" stroke="rgb(204,204,204)" stroke-width="2" transform="matrix(1,0,0,-1,8.0,135.0)"/>
 <path d="M0,1 l0,-5" fill="none" stroke="rgb(204,204,204)" stroke-width="2" transform="matrix(1,0,0,-1,160.0,135.0)"/>
 <path d="M888,477 c-45,0,-85,-21,-105,-44 l-4,0 l0,135 l255,0 c22,-24,35,-61,35,-87 c0,-37,-19,-62,-51,-80 c-29,54,-78,76,-130,76 Z M660,157 l4,0 l0,-157 l115,0 l0,275 c0,66,40,101,90,101 c34,0,54,-16,66,-43 c23,-134,115,-211,232,-211 c73,0,121,30,144,56 l4,0 l0,-178 l116,0 l0,568 l111,0 l0,92 l-1569,0 l0,-92 l691,0 l0,-255 c0,-60,-38,-105,-98,-105 c-51,0,-89,36,-89,86 c0,69,58,101,126,88 l-18,101 c-46,5,-91,-3,-129,-23 l-215,0 c-98,0,-195,-61,-195,-195 c0,-127,75,-223,148,-276 l86,72 c-68,49,-115,116,-115,201 c0,66,42,97,97,97 l109,0 c-7,-19,-10,-41,-10,-64 c0,-111,83,-184,182,-184 c61,0,98,26,117,46 Z M1058,329 c70,14,127,64,127,136 c0,36,-12,72,-42,99 l0,4 l172,0 l0,-213 c0,-82,-49,-134,-131,-134 c-78,0,-118,52,-126,108 Z M1058,329" fill="rgb(0,0,0)" transform="matrix(0.1,0.0,0.0,-0.1,8.0,135.0)"/>
</svg>