<?xml version="1.0" encoding="UTF-8"?>
<svg height="200.0" version="1.1" width="128.0" xmlns="http://www.w3.org/2000/svg" xmlns:xlink="http://www.w3.org/1999/xlink">
 <path d="M0,0 l128,0 l0,200 l-128,0 Z M0,0" fill="rgb(255,255,255)" transform="matrix(1,0,0,-1,0.0,200.0)"/>
 <path d="M0,0 l128,0" fill="none" stroke="rgb(229,229,229)" stroke-width="2" transform="matrix(1,0,0,-1,0.0,135.0)"/>
 <path d="M0,1 l0,-5" fill="none" stroke="rgb(204,204,204)" stroke-width="2" transform="matrix(1,0,0,-1,8.0,135.0)"/>
 <path d="M0,1 l0,-5" fill="none" stroke="rgb(204,204,204)" stroke-width="2" transform="matrix(1,0,0,-1,121.0,135.0)"/>
 <path d="M677,159 l0,-159 l115,0 l0,279 c0,60,39,104,98,104 c51,0,87,-35,87,-85 c0,-64,-50,-102,-125,-88 l18,-101 c117,-12,223,57,223,188 c0,111,-81,183,-180,183 c-57,0,-96,-24,-117,-46 l-4,0 l0,134 l362,0 l0,92 l-1181,0 l0,-92 l704,0 l0,-250 c0,-61,-41,-104,-99,-104 c-51,0,-88,36,-88,86 c0,64,51,101,126,87 l-18,102 c-49,5,-98,-6,-137,-29 l-220,0 c-98,0,-195,-61,-195,-195 c0,-127,75,-223,148,-276 l86,72 c-68,49,-115,116,-115,201 c0,66,42,97,97,97 l119,0 c-5,-16,-7,-33,-7,-51 c0,-96,63,-149,117,-161 l0,-4 l-133,-69 l90,-81 l225,166 Z M677,159" fill="rgb(0,0,0)" transform="matrix(0.1,0.0,0.0,-0.1,8.0,135.0)"/>
</svg>