<?xml version="1.0" encoding="UTF-8"?>
<svg height="200.0" version="1.1" width="162.0" xmlns="http://www.w3.org/2000/svg" xmlns:xlink="http://www.w3.org/1999/xlink">
 <path d="M0,0 l162,0 l0,200 l-162,0 Z M0,0" fill="rgb(255,255,255)" transform="matrix(1,0,0,-1,0.0,200.0)"/>
 <path d="M0,0 l162,0" fill="none" stroke="rgb(229,229,229)" stroke-width="2" transform="matrix(1,0,0,-1,0.0,135.0)"/>
 <path d="M0,1 l0,-5" fill="none" stroke="rgb(204,204,204)" stroke-width="2" transform="matrix(1,0,0,-1,8.0,135.0)"/>
 <path d="M0,1 l0,-5" fill="none" stroke="rgb(204,204,204)" stroke-width="2" transform="matrix(1,0,0,-1,154.0,135.0)"/>
 <path d="M1149,200 c-57,0,-95,37,-95,93 c0,78,72,107,137,88 l-9,102 c-65,11,-129,-1,-176,-36 c-30,21,-69,33,-108,33 c-52,0,-96,-23,-116,-46 l-4,0 l0,134 l485,0 l0,-241 c0,-70,-40,-127,-114,-127 Z M663,157 l0,-157 l115,0 l0,279 c0,61,41,104,101,104 c28,0,50,-8,66,-19 c-8,-21,-12,-45,-12,-72 c0,-116,88,-192,196,-192 c67,0,110,27,130,49 l4,0 l0,-149 l116,0 l0,568 l111,0 l0,92 l-1517,0 l0,-92 l690,0 l0,-255 c0,-60,-38,-105,-97,-105 c-52,0,-89,36,-89,86 c0,69,58,101,126,88 l-18,101 c-46,5,-91,-3,-129,-23 l-215,0 c-98,0,-195,-61,-195,-195 c0,-127,75,-223,148,-276 l86,72 c-68,49,-115,116,-115,201 c0,66,42,97,97,97 l109,0 c-7,-19,-10,-41,-10,-64 c0,-111,82,-184,181,-184 c61,0,99,26,117,46 Z M663,157" fill="rgb(0,0,0)" transform="matrix(0.1,0.0,0.0,-0.1,8.0,135.0)"/>
</svg>