<?xml version="1.0" encoding="UTF-8"?>
<svg height="200.0" version="1.1" width="178.0" xmlns="http://www.w3.org/2000/svg" xmlns:xlink="http://www.w3.org/1999/xlink">
 <path d="M0,0 l178,0 l0,200 l-178,0 Z M0,0" fill="rgb(255,255,255)" transform="matrix(1,0,0,-1,0.0,200.0)"/>
 <path d="M0,0 l178,0" fill="none" stroke="rgb(229,229,229)" stroke-width="2" transform="matrix(1,0,0,-1,0.0,135.0)"/>
 <path d="M0,1 l0,-5" fill="none" stroke="rgb(204,204,204)" stroke-width="2" transform="matrix(1,0,0,-1,8.0,135.0)"/>
 <path d="M0,1 l0,-5" fill="none" stroke="rgb(204,204,204)" stroke-width="2" transform="matrix(1,0,0,-1,170.0,135.0)"/>
 <path d="M1253,211 l0,103 l169,0 l0,-314 l116,0 l0,568 l111,0 l0,92 l-1676,0 l0,-92 l577,0 l0,-156 c0,-35,-17,-48,-39,-48 c-29,0,-48,18,-60,49 l-19,47 l-191,0 c-98,0,-195,-61,-195,-195 c0,-127,75,-223,148,-276 l86,72 c-68,49,-115,116,-115,201 c0,66,42,97,97,97 l93,0 c32,-188,157,-343,367,-343 c208,0,335,149,335,296 c0,112,-77,190,-182,190 c-101,0,-171,-70,-171,-163 c0,-93,67,-144,134,-150 l61,66 c-51,4,-93,32,-93,82 c0,42,30,71,73,71 c43,0,79,-33,79,-91 c0,-122,-98,-208,-227,-208 c-120,0,-209,69,-236,173 c10,-3,24,-6,39,-6 c73,0,126,46,126,143 l0,149 l762,0 l0,-153 l-241,0 l-81,-59 c0,-89,43,-145,94,-171 Z M1253,211" fill="rgb(0,0,0)" transform="matrix(0.1,0.0,0.0,-0.1,8.0,135.0)"/>
</svg>