<?xml version="1.0" encoding="UTF-8"?>
<svg height="200.0" version="1.1" width="130.0" xmlns="http://www.w3.org/2000/svg" xmlns:xlink="http://www.w3.org/1999/xlink">
 <path d="M0,0 l130,0 l0,200 l-130,0 Z M0,0" fill="rgb(255,255,255)" transform="matrix(1,0,0,-1,0.0,200.0)"/>
 <path d="M0,0 l130,0" fill="none" stroke="rgb(229,229,229)" stroke-width="2" transform="matrix(1,0,0,-1,0.0,135.0)"/>
 <path d="M0,1 l0,-5" fill="none" stroke="rgb(204,204,204)" stroke-width="2" transform="matrix(1,0,0,-1,8.0,135.0)"/>
 <path d="M0,1 l0,-5" fill="none" stroke="rgb(204,204,204)" stroke-width="2" transform="matrix(1,0,0,-1,123.0,135.0)"/>
 <path d="M241,460 c-98,0,-195,-61,-195,-195 c0,-127,75,-223,148,-276 l86,72 c-68,49,-115,116,-115,201 c0,66,42,97,97,97 l103,0 c49,-215,174,-285,260,-298 l0,-4 l-210,-57 l83,-89 l275,101 c86,31,142,64,180,95 l4,0 l0,-107 l107,0 l0,568 l111,0 l0,92 l-1202,0 l0,-92 l577,0 l0,-142 c0,-35,-19,-49,-41,-49 c-28,0,-45,17,-57,47 c-4,13,-6,26,-8,36 Z M956,480 c-22,16,-51,26,-92,26 c-90,0,-165,-68,-165,-160 c0,-93,70,-143,138,-149 l56,66 c-51,3,-90,30,-90,81 c0,43,32,72,77,72 c48,0,85,-37,85,-97 c0,-116,-96,-195,-231,-195 c-112,0,-207,70,-232,177 c10,-4,24,-6,39,-6 c73,0,120,43,120,132 l0,141 l296,0 l0,-86 Z M956,480" fill="rgb(0,0,0)" transform="matrix(0.1,0.0,0.0,-0.1,8.0,135.0)"/>
</svg>