<?xml version="1.0" encoding="UTF-8"?>
<svg height="200.0" version="1.1" width="58.0" xmlns="http://www.w3.org/2000/svg" xmlns:xlink="http://www.w3.org/1999/xlink">
 <path d="M0,0 l58,0 l0,200 l-58,0 Z M0,0" fill="rgb(255,255,255)" transform="matrix(1,0,0,-1,0.0,200.0)"/>
 <path d="M0,0 l58,0" fill="none" stroke="rgb(229,229,229)" stroke-width="2" transform="matrix(1,0,0,-1,0.0,135.0)"/>
 <path d="M0,1 l0,-5" fill="none" stroke="rgb(204,204,204)" stroke-width="2" transform="matrix(1,0,0,-1,8.0,135.0)"/>
 <path d="M0,1 l0,-5" fill="none" stroke="rgb(204,204,204)" stroke-width="2" transform="matrix(1,0,0,-1,43.0,135.0)"/>
 <path d="M374,660 l-401,0 l0,-92 l401,0 Z M462,458 l-439,0 l0,-103 l101,0 l0,-4 c-18,-17,-43,-48,-43,-111 c0,-103,71,-198,147,-251 l83,73 c-63,46,-114,106,-114,190 c0,66,39,105,102,105 l163,0 Z M462,458" fill="rgb(0,0,0)" transform="matrix(0.1,0.0,0.0,-0.1,8.0,135.0)"/>
</svg>