<?xml version="1.0" encoding="UTF-8"?>
<svg height="200.0" version="1.1" width="112.0" xmlns="http://www.w3.org/2000/svg" xmlns:xlink="http://www.w3.org/1999/xlink">
 <path d="M0,0 l112,0 l0,200 l-112,0 Z M0,0" fill="rgb(255,255,255)" transform="matrix(1,0,0,-1,0.0,200.0)"/>
 <path d="M0,0 l112,0" fill="none" stroke="rgb(229,229,229)" stroke-width="2" transform="matrix(1,0,0,-1,0.0,135.0)"/>
 <path d="M0,1 l0,-5" fill="none" stroke="rgb(204,204,204)" stroke-width="2" transform="matrix(1,0,0,-1,8.0,135.0)"/>
 <path d="M0,1 l0,-5" fill="none" stroke="rgb(204,204,204)" stroke-width="2" transform="matrix(1,0,0,-1,105.0,135.0)"/>
 <path d="M767,178 l0,-178 l116,0 l0,568 l111,0 l0,92 l-1021,0 l0,-92 l513,0 c22,-24,34,-61,34,-87 c0,-35,-17,-60,-46,-77 c-39,37,-93,53,-157,53 l-294,0 l0,-102 l101,0 l0,-4 c-18,-17,-43,-49,-43,-112 c0,-103,71,-197,147,-250 l83,73 c-63,46,-114,105,-114,190 c0,65,39,104,102,104 l19,0 c29,0,50,-5,68,-17 c21,-138,114,-217,233,-217 c73,0,121,30,144,56 Z M510,329 c69,14,127,64,127,136 c0,36,-13,72,-42,99 l0,4 l172,0 l0,-213 c0,-82,-49,-134,-131,-134 c-78,0,-118,52,-126,108 Z M510,329" fill="rgb(0,0,0)" transform="matrix(0.1,0.0,0.0,-0.1,8.0,135.0)"/>
</svg>