<?xml version="1.0" encoding="UTF-8"?>
<svg height="200.0" version="1.1" width="118.0" xmlns="http://www.w3.org/2000/svg" xmlns:xlink="http://www.w3.org/1999/xlink">
 <path d="M0,0 l118,0 l0,200 l-118,0 Z M0,0" fill="rgb(255,255,255)" transform="matrix(1,0,0,-1,0.0,200.0)"/>
 <path d="M0,0 l118,0" fill="none" stroke="rgb(229,229,229)" stroke-width="2" transform="matrix(1,0,0,-1,0.0,135.0)"/>
 <path d="M0,1 l0,-5" fill="none" stroke="rgb(204,204,204)" stroke-width="2" transform="matrix(1,0,0,-1,8.0,135.0)"/>
 <path d="M0,1 l0,-5" fill="none" stroke="rgb(204,204,204)" stroke-width="2" transform="matrix(1,0,0,-1,111.0,135.0)"/>
 <path d="M346,660 l-373,0 l0,-92 l373,0 Z M512,302 c20,4,39,9,58,14 c116,30,187,91,187,195 c0,92,-61,159,-166,159 c-99,0,-163,-64,-163,-143 c0,-33,12,-64,27,-81 l102,23 c-13,15,-18,34,-18,51 c0,33,22,53,52,53 c35,0,53,-22,53,-60 c0,-50,-30,-90,-147,-122 l-36,-10 c-41,56,-107,79,-180,79 l-41,0 c-97,0,-195,-61,-195,-195 c0,-127,75,-223,149,-276 l85,72 c-68,49,-115,116,-115,201 c0,66,43,97,97,97 l14,0 c57,0,83,-15,104,-37 c20,-141,118,-234,262,-234 c106,0,164,49,187,79 l4,0 l0,-167 l113,0 l0,568 l111,0 l0,92 l-226,0 l0,-290 c0,-93,-55,-181,-176,-181 c-102,0,-137,77,-142,113 Z M512,302" fill="rgb(0,0,0)" transform="matrix(0.1,0.0,0.0,-0.1,8.0,135.0)"/>
</svg>