<?xml version="1.0" encoding="UTF-8"?>
<svg height="200.0" version="1.1" width="138.0" xmlns="http://www.w3.org/2000/svg" xmlns:xlink="http://www.w3.org/1999/xlink">
 <path d="M0,0 l138,0 l0,200 l-138,0 Z M0,0" fill="rgb(255,255,255)" transform="matrix(1,0,0,-1,0.0,200.0)"/>
 <path d="M0,0 l138,0" fill="none" stroke="rgb(229,229,229)" stroke-width="2" transform="matrix(1,0,0,-1,0.0,135.0)"/>
 <path d="M0,1 l0,-5" fill="none" stroke="rgb(204,204,204)" stroke-width="2" transform="matrix(1,0,0,-1,8.0,135.0)"/>
 <path d="M0,1 l0,-5" fill="none" stroke="rgb(204,204,204)" stroke-width="2" transform="matrix(1,0,0,-1,131.0,135.0)"/>
 <path d="M276,58 c-66,49,-111,114,-111,196 c0,64,42,92,97,92 l80,0 c4,-83,45,-136,95,-161 l58,26 l0,103 l162,0 c28,-122,117,-192,228,-192 c73,0,121,30,144,56 l4,0 l0,-178 l116,0 l0,568 l111,0 l0,92 l-1287,0 l0,-92 l779,0 c22,-24,34,-61,34,-87 c0,-28,-11,-49,-30,-66 l-283,0 c-27,13,-79,32,-163,32 l-69,0 c-98,0,-195,-57,-195,-190 c0,-124,73,-218,144,-271 Z M776,329 c69,14,127,64,127,136 c0,36,-13,72,-42,99 l0,4 l172,0 l0,-213 c0,-82,-49,-134,-131,-134 c-78,0,-118,52,-126,108 Z M776,329" fill="rgb(0,0,0)" transform="matrix(0.1,0.0,0.0,-0.1,8.0,135.0)"/>
</svg>