<?xml version="1.0" encoding="UTF-8"?>
<svg height="200.0" version="1.1" width="130.0" xmlns="http://www.w3.org/2000/svg" xmlns:xlink="http://www.w3.org/1999/xlink">
 <path d="M0,0 l130,0 l0,200 l-130,0 Z M0,0" fill="rgb(255,255,255)" transform="matrix(1,0,0,-1,0.0,200.0)"/>
 <path d="M0,0 l130,0" fill="none" stroke="rgb(229,229,229)" stroke-width="2" transform="matrix(1,0,0,-1,0.0,135.0)"/>
 <path d="M0,1 l0,-5" fill="none" stroke="rgb(204,204,204)" stroke-width="2" transform="matrix(1,0,0,-1,8.0,135.0)"/>
 <path d="M0,1 l0,-5" fill="none" stroke="rgb(204,204,204)" stroke-width="2" transform="matrix(1,0,0,-1,122.0,135.0)"/>
 <path d="M686,223 l0,-223 l114,0 l0,265 c0,65,40,119,107,119 c52,0,87,-34,87,-85 c0,-63,-49,-106,-125,-91 l18,-102 c120,-12,223,62,223,195 c0,110,-80,182,-180,182 c-68,0,-108,-31,-126,-51 l-4,0 l0,136 l370,0 l0,92 l-1197,0 l0,-92 l429,0 l0,-108 l-161,0 c-98,0,-195,-61,-195,-195 c0,-127,75,-223,148,-276 l86,72 c-68,49,-115,116,-115,201 c0,66,42,97,97,97 l140,0 l0,-7 c0,-104,56,-173,167,-173 c60,0,96,24,113,44 Z M687,381 c0,-56,-31,-100,-98,-100 c-50,0,-71,26,-71,87 l0,200 l169,0 Z M687,381" fill="rgb(0,0,0)" transform="matrix(0.1,0.0,0.0,-0.1,8.0,135.0)"/>
</svg>