<?xml version="1.0" encoding="UTF-8"?>
<svg height="200.0" version="1.1" width="146.0" xmlns="http://www.w3.org/2000/svg" xmlns:xlink="http://www.w3.org/1999/xlink">
 <path d="M0,0 l146,0 l0,200 l-146,0 Z M0,0" fill="rgb(255,255,255)" transform="matrix(1,0,0,-1,0.0,200.0)"/>
 <path d="M0,0 l146,0" fill="none" stroke="rgb(229,229,229)" stroke-width="2" transform="matrix(1,0,0,-1,0.0,135.0)"/>
 <path d="M0,1 l0,-5" fill="none" stroke="rgb(204,204,204)" stroke-width="2" transform="matrix(1,0,0,-1,8.0,135.0)"/>
 <path d="M0,1 l0,-5" fill="none" stroke="rgb(204,204,204)" stroke-width="2" transform="matrix(1,0,0,-1,138.0,135.0)"/>
 <path d="M818,568 c22,-24,34,-61,34,-87 c0,-63,-54,-92,-137,-109 c0,-4,1,-8,1,-12 l-160,0 l0,208 Z M1099,178 l0,-178 l116,0 l0,568 l111,0 l0,92 l-1353,0 l0,-92 l469,0 l0,-108 l-201,0 c-98,0,-195,-61,-195,-195 c0,-127,75,-223,148,-276 l86,72 c-68,49,-115,116,-115,201 c0,66,42,97,97,97 l180,0 l0,-4 l-53,-41 c0,-47,25,-120,74,-157 l90,0 l0,100 l189,0 c39,-87,116,-135,209,-135 c73,0,121,30,144,56 Z M842,329 c69,14,127,64,127,136 c0,36,-13,72,-43,99 l0,4 l173,0 l0,-213 c0,-82,-49,-134,-131,-134 c-78,0,-118,52,-126,108 Z M842,329" fill="rgb(0,0,0)" transform="matrix(0.1,0.0,0.0,-0.1,8.0,135.0)"/>
</svg>