<?xml version="1.0" encoding="UTF-8"?>
<svg height="200.0" version="1.1" width="120.0" xmlns="http://www.w3.org/2000/svg" xmlns:xlink="http://www.w3.org/1999/xlink">
 <path d="M0,0 l120,0 l0,200 l-120,0 Z M0,0" fill="rgb(255,255,255)" transform="matrix(1,0,0,-1,0.0,200.0)"/>
 <path d="M0,0 l120,0" fill="none" stroke="rgb(229,229,229)" stroke-width="2" transform="matrix(1,0,0,-1,0.0,135.0)"/>
 <path d="M0,1 l0,-5" fill="none" stroke="rgb(204,204,204)" stroke-width="2" transform="matrix(1,0,0,-1,8.0,135.0)"/>
 <path d="M0,1 l0,-5" fill="none" stroke="rgb(204,204,204)" stroke-width="2" transform="matrix(1,0,0,-1,113.0,135.0)"/>
 <path d="M849,445 c-17,17,-47,26,-77,26 c-43,0,-89,-26,-102,-80 l-4,0 c-18,48,-63,76,-125,76 c-36,0,-72,-10,-103,-32 c-35,18,-77,25,-119,25 l-79,0 c-97,0,-195,-61,-195,-195 c0,-127,75,-223,149,-276 l85,72 c-68,49,-115,116,-115,201 c0,66,43,97,97,97 l51,0 c27,0,47,-3,63,-9 c-7,-22,-11,-47,-11,-75 c0,-124,76,-231,188,-290 l75,79 c-105,56,-146,133,-146,206 c0,74,37,98,71,98 c40,0,66,-28,66,-81 l0,-99 l107,0 l0,94 c0,60,24,88,68,88 c24,0,49,-12,60,-21 l0,-349 l117,0 l0,568 l111,0 l0,92 l-1108,0 l0,-92 l880,0 l0,-123 Z M849,445" fill="rgb(0,0,0)" transform="matrix(0.1,0.0,0.0,-0.1,8.0,135.0)"/>
</svg>