<?xml version="1.0" encoding="UTF-8"?>
<svg height="200.0" version="1.1" width="104.0" xmlns="http://www.w3.org/2000/svg" xmlns:xlink="http://www.w3.org/1999/xlink">
 <path d="M0,0 l104,0 l0,200 l-104,0 Z M0,0" fill="rgb(255,255,255)" transform="matrix(1,0,0,-1,0.0,200.0)"/>
 <path d="M0,0 l104,0" fill="none" stroke="rgb(229,229,229)" stroke-width="2" transform="matrix(1,0,0,-1,0.0,135.0)"/>
 <path d="M0,1 l0,-5" fill="none" stroke="rgb(204,204,204)" stroke-width="2" transform="matrix(1,0,0,-1,8.0,135.0)"/>
 <path d="M0,1 l0,-5" fill="none" stroke="rgb(204,204,204)" stroke-width="2" transform="matrix(1,0,0,-1,97.0,135.0)"/>
 <path d="M806,568 l111,0 l0,92 l-944,0 l0,-92 l717,0 l0,-241 c0,-70,-40,-127,-113,-127 c-58,0,-96,37,-96,93 c0,78,72,107,137,88 l-9,102 c-56,10,-111,2,-155,-23 l-213,0 c-98,0,-195,-61,-195,-195 c0,-127,75,-223,148,-276 l86,72 c-68,49,-115,116,-115,201 c0,66,42,97,97,97 l109,0 c-6,-20,-10,-42,-10,-67 c0,-116,87,-192,195,-192 c68,0,110,27,130,49 l4,0 l0,-149 l116,0 Z M806,568" fill="rgb(0,0,0)" transform="matrix(0.1,0.0,0.0,-0.1,8.0,135.0)"/>
</svg>