<?xml version="1.0" encoding="UTF-8"?>
<svg height="200.0" version="1.1" width="120.0" xmlns="http://www.w3.org/2000/svg" xmlns:xlink="http://www.w3.org/1999/xlink">
 <path d="M0,0 l120,0 l0,200 l-120,0 Z M0,0" fill="rgb(255,255,255)" transform="matrix(1,0,0,-1,0.0,200.0)"/>
 <path d="M0,0 l120,0" fill="none" stroke="rgb(229,229,229)" stroke-width="2" transform="matrix(1,0,0,-1,0.0,135.0)"/>
 <path d="M0,1 l0,-5" fill="none" stroke="rgb(204,204,204)" stroke-width="2" transform="matrix(1,0,0,-1,8.0,135.0)"/>
 <path d="M0,1 l0,-5" fill="none" stroke="rgb(204,204,204)" stroke-width="2" transform="matrix(1,0,0,-1,112.0,135.0)"/>
 <path d="M531,264 c6,-1,14,-1,18,-1 c27,2,51,10,72,24 c35,-22,83,-35,139,-35 c27,0,52,3,75,8 l0,-260 l117,0 l0,568 l111,0 l0,92 l-1090,0 l0,-92 l586,0 l0,-162 c0,-40,-19,-56,-50,-56 c-34,0,-54,17,-77,46 l0,1 l-48,58 l-143,0 c-98,0,-195,-60,-195,-194 c0,-126,76,-221,148,-273 l86,72 c-68,48,-115,113,-115,198 c0,66,42,96,97,96 l61,0 l43,-55 l0,1 l248,-313 l94,60 l-101,126 c-35,43,-55,65,-76,87 Z M747,355 c-29,0,-54,3,-76,9 c3,12,4,25,4,39 l0,165 l160,0 l0,-198 c-26,-11,-56,-15,-88,-15 Z M747,355" fill="rgb(0,0,0)" transform="matrix(0.1,0.0,0.0,-0.1,8.0,135.0)"/>
</svg>