<?xml version="1.0" encoding="UTF-8"?>
<svg height="200.0" version="1.1" width="146.0" xmlns="http://www.w3.org/2000/svg" xmlns:xlink="http://www.w3.org/1999/xlink">
 <path d="M0,0 l146,0 l0,200 l-146,0 Z M0,0" fill="rgb(255,255,255)" transform="matrix(1,0,0,-1,0.0,200.0)"/>
 <path d="M0,0 l146,0" fill="none" stroke="rgb(229,229,229)" stroke-width="2" transform="matrix(1,0,0,-1,0.0,135.0)"/>
 <path d="M0,1 l0,-5" fill="none" stroke="rgb(204,204,204)" stroke-width="2" transform="matrix(1,0,0,-1,8.0,135.0)"/>
 <path d="M0,1 l0,-5" fill="none" stroke="rgb(204,204,204)" stroke-width="2" transform="matrix(1,0,0,-1,139.0,135.0)"/>
 <path d="M747,355 c-29,0,-54,3,-76,9 c3,11,4,23,4,37 l0,167 l438,0 l0,-153 l-240,0 l-78,-56 c-16,-3,-32,-4,-48,-4 Z M531,264 c10,-1,23,1,33,2 c21,3,40,10,57,21 c35,-22,83,-35,139,-35 c19,0,37,1,54,4 c18,-33,43,-57,72,-71 l58,26 l0,103 l169,0 l0,-314 l116,0 l0,568 l111,0 l0,92 l-1367,0 l0,-92 l586,0 l0,-163 c0,-40,-19,-55,-50,-55 c-34,0,-55,18,-77,46 l0,1 l-48,58 l-143,0 c-98,0,-195,-60,-195,-194 c0,-126,76,-221,148,-273 l86,72 c-68,48,-115,113,-115,198 c0,66,42,96,97,96 l61,0 l43,-55 l0,1 l248,-313 l94,60 l-101,126 c-35,43,-55,65,-76,87 Z M531,264" fill="rgb(0,0,0)" transform="matrix(0.1,0.0,0.0,-0.1,8.0,135.0)"/>
</svg>