<?xml version="1.0" encoding="UTF-8"?>
<svg height="200.0" version="1.1" width="154.0" xmlns="http://www.w3.org/2000/svg" xmlns:xlink="http://www.w3.org/1999/xlink">
 <path d="M0,0 l154,0 l0,200 l-154,0 Z M0,0" fill="rgb(255,255,255)" transform="matrix(1,0,0,-1,0.0,200.0)"/>
 <path d="M0,0 l154,0" fill="none" stroke="rgb(229,229,229)" stroke-width="2" transform="matrix(1,0,0,-1,0.0,135.0)"/>
 <path d="M0,1 l0,-5" fill="none" stroke="rgb(204,204,204)" stroke-width="2" transform="matrix(1,0,0,-1,8.0,135.0)"/>
 <path d="M0,1 l0,-5" fill="none" stroke="rgb(204,204,204)" stroke-width="2" transform="matrix(1,0,0,-1,147.0,135.0)"/>
 <path d="M749,356 c-29,0,-56,3,-77,9 c2,11,3,23,3,36 l0,167 l238,0 c22,-24,35,-61,35,-87 c0,-63,-55,-92,-137,-109 c0,-3,0,-7,1,-10 c-20,-4,-41,-6,-63,-6 Z M531,264 c10,-1,23,1,33,2 c22,4,42,11,59,23 c35,-22,84,-35,139,-35 c26,0,51,2,73,8 c39,-90,117,-140,211,-140 c73,0,121,30,144,56 l4,0 l0,-178 l116,0 l0,568 l111,0 l0,92 l-1448,0 l0,-92 l586,0 l0,-163 c0,-40,-19,-55,-50,-55 c-32,0,-54,20,-77,47 l-48,58 l-143,0 c-98,0,-195,-60,-195,-194 c0,-126,76,-221,148,-273 l86,72 c-68,48,-115,113,-115,198 c0,66,42,96,97,96 l61,0 l43,-55 l0,1 l248,-313 l94,60 l-101,126 c-35,43,-55,65,-76,87 Z M937,329 c70,14,127,64,127,136 c0,36,-12,72,-42,99 l0,4 l172,0 l0,-213 c0,-82,-49,-134,-130,-134 c-79,0,-119,52,-127,108 Z M937,329" fill="rgb(0,0,0)" transform="matrix(0.1,0.0,0.0,-0.1,8.0,135.0)"/>
</svg>