<?xml version="1.0" encoding="UTF-8"?>
<svg height="200.0" version="1.1" width="150.0" xmlns="http://www.w3.org/2000/svg" xmlns:xlink="http://www.w3.org/1999/xlink">
 <path d="M0,0 l150,0 l0,200 l-150,0 Z M0,0" fill="rgb(255,255,255)" transform="matrix(1,0,0,-1,0.0,200.0)"/>
 <path d="M0,0 l150,0" fill="none" stroke="rgb(229,229,229)" stroke-width="2" transform="matrix(1,0,0,-1,0.0,135.0)"/>
 <path d="M0,1 l0,-5" fill="none" stroke="rgb(204,204,204)" stroke-width="2" transform="matrix(1,0,0,-1,8.0,135.0)"/>
 <path d="M0,1 l0,-5" fill="none" stroke="rgb(204,204,204)" stroke-width="2" transform="matrix(1,0,0,-1,142.0,135.0)"/>
 <path d="M747,355 c-29,0,-54,3,-76,9 c3,11,4,23,4,37 l0,167 l464,0 l0,-241 c0,-70,-41,-127,-114,-127 c-57,0,-96,37,-96,93 c0,78,73,107,138,88 l-9,102 c-103,18,-203,-24,-237,-118 c-23,-7,-48,-10,-74,-10 Z M531,264 c10,-1,23,1,33,2 c21,3,40,10,57,21 c35,-22,83,-35,139,-35 c18,0,36,1,52,4 c16,-96,97,-156,193,-156 c67,0,109,27,130,49 l4,0 l0,-149 l116,0 l0,568 l111,0 l0,92 l-1393,0 l0,-92 l586,0 l0,-163 c0,-40,-19,-55,-50,-55 c-34,0,-55,18,-77,46 l0,1 l-48,58 l-143,0 c-98,0,-195,-60,-195,-194 c0,-126,76,-221,148,-273 l86,72 c-68,48,-115,113,-115,198 c0,66,42,96,97,96 l61,0 l43,-55 l0,1 l248,-313 l94,60 l-101,126 c-35,43,-55,65,-76,87 Z M531,264" fill="rgb(0,0,0)" transform="matrix(0.1,0.0,0.0,-0.1,8.0,135.0)"/>
</svg>