<?xml version="1.0" encoding="UTF-8"?>
<svg height="200.0" version="1.1" width="120.0" xmlns="http://www.w3.org/2000/svg" xmlns:xlink="http://www.w3.org/1999/xlink">
 <path d="M0,0 l120,0 l0,200 l-120,0 Z M0,0" fill="rgb(255,255,255)" transform="matrix(1,0,0,-1,0.0,200.0)"/>
 <path d="M0,0 l120,0" fill="none" stroke="rgb(229,229,229)" stroke-width="2" transform="matrix(1,0,0,-1,0.0,135.0)"/>
 <path d="M0,1 l0,-5" fill="none" stroke="rgb(204,204,204)" stroke-width="2" transform="matrix(1,0,0,-1,5.0,135.0)"/>
 <path d="M0,1 l0,-5" fill="none" stroke="rgb(204,204,204)" stroke-width="2" transform="matrix(1,0,0,-1,112.0,135.0)"/>
 <path d="M303,88 c135,0,208,53,253,105 c42,-46,100,-71,167,-71 c73,0,121,30,144,56 l4,0 l0,-178 l116,0 l0,568 l111,0 l0,92 l-603,0 l0,-92 l95,0 c22,-24,35,-61,35,-87 c0,-63,-55,-92,-137,-109 c2,-30,7,-57,14,-82 c-26,-44,-83,-101,-186,-101 c-102,0,-145,74,-150,113 c21,4,42,9,62,15 c113,31,184,92,184,195 c0,92,-63,158,-167,158 c-99,0,-164,-65,-164,-145 c0,-37,13,-69,33,-89 l100,29 c-15,17,-21,37,-21,55 c0,33,22,53,52,53 c34,0,54,-22,54,-59 c0,-50,-31,-91,-147,-123 l-122,-32 c7,-160,115,-271,273,-271 Z M614,329 c70,14,127,64,127,136 c0,36,-12,72,-42,99 l0,4 l172,0 l0,-213 c0,-82,-49,-134,-130,-134 c-79,0,-119,52,-127,108 Z M614,329" fill="rgb(0,0,0)" transform="matrix(0.1,0.0,0.0,-0.1,5.0,135.0)"/>
</svg>