<?xml version="1.0" encoding="UTF-8"?>
<svg height="200.0" version="1.1" width="116.0" xmlns="http://www.w3.org/2000/svg" xmlns:xlink="http://www.w3.org/1999/xlink">
 <path d="M0,0 l116,0 l0,200 l-116,0 Z M0,0" fill="rgb(255,255,255)" transform="matrix(1,0,0,-1,0.0,200.0)"/>
 <path d="M0,0 l116,0" fill="none" stroke="rgb(229,229,229)" stroke-width="2" transform="matrix(1,0,0,-1,0.0,135.0)"/>
 <path d="M0,1 l0,-5" fill="none" stroke="rgb(204,204,204)" stroke-width="2" transform="matrix(1,0,0,-1,5.0,135.0)"/>
 <path d="M0,1 l0,-5" fill="none" stroke="rgb(204,204,204)" stroke-width="2" transform="matrix(1,0,0,-1,107.0,135.0)"/>
 <path d="M303,88 c114,0,185,38,231,82 c36,-44,92,-70,155,-70 c67,0,110,27,130,49 l4,0 l0,-149 l116,0 l0,568 l111,0 l0,92 l-555,0 l0,-92 l328,0 l0,-241 c0,-70,-40,-127,-114,-127 c-57,0,-95,37,-95,93 c0,78,72,107,137,88 l-9,102 c-127,22,-249,-47,-249,-191 c0,-5,0,-10,0,-14 c-28,-42,-82,-89,-177,-89 c-102,0,-145,74,-150,113 c21,4,42,9,62,15 c113,31,184,92,184,195 c0,92,-63,158,-167,158 c-99,0,-164,-65,-164,-145 c0,-37,13,-69,33,-89 l100,29 c-15,17,-21,37,-21,55 c0,33,22,53,52,53 c34,0,54,-22,54,-59 c0,-50,-31,-91,-147,-123 l-122,-32 c7,-160,115,-271,273,-271 Z M303,88" fill="rgb(0,0,0)" transform="matrix(0.1,0.0,0.0,-0.1,5.0,135.0)"/>
</svg>