<?xml version="1.0" encoding="UTF-8"?>
<svg height="200.0" version="1.1" width="86.0" xmlns="http://www.w3.org/2000/svg" xmlns:xlink="http://www.w3.org/1999/xlink">
 <path d="M0,0 l86,0 l0,200 l-86,0 Z M0,0" fill="rgb(255,255,255)" transform="matrix(1,0,0,-1,0.0,200.0)"/>
 <path d="M0,0 l86,0" fill="none" stroke="rgb(229,229,229)" stroke-width="2" transform="matrix(1,0,0,-1,0.0,135.0)"/>
 <path d="M0,1 l0,-5" fill="none" stroke="rgb(204,204,204)" stroke-width="2" transform="matrix(1,0,0,-1,8.0,135.0)"/>
 <path d="M0,1 l0,-5" fill="none" stroke="rgb(204,204,204)" stroke-width="2" transform="matrix(1,0,0,-1,77.0,135.0)"/>
 <path d="M160,69 c-39,0,-58,23,-58,56 c0,38,31,71,88,88 c9,-30,26,-57,46,-78 c-19,-19,-37,-39,-51,-62 c-8,-2,-14,-4,-25,-4 Z M506,67 l4,0 l82,-153 l132,33 l-139,169 c23,22,40,49,40,89 c0,54,-35,83,-69,99 l-76,-28 l0,-100 c-16,-15,-43,-23,-72,-23 c-63,0,-119,43,-119,107 c0,58,33,91,132,116 l143,36 l0,156 l157,0 l0,92 l-748,0 l0,-92 l473,0 l0,-76 l-99,-24 c-111,-27,-162,-83,-167,-171 c-106,-23,-176,-88,-176,-176 c0,-66,47,-120,133,-120 c7,0,13,0,20,1 c-1,-5,-2,-12,-2,-17 c0,-65,55,-126,145,-126 c108,0,178,84,206,208 Z M300,-66 c-34,0,-50,21,-50,45 c0,25,9,57,62,102 c30,-14,66,-19,95,-20 c-16,-76,-59,-127,-107,-127 Z M300,-66" fill="rgb(0,0,0)" transform="matrix(0.1,0.0,0.0,-0.1,8.0,135.0)"/>
</svg>