<?xml version="1.0" encoding="UTF-8"?>
<svg height="200.0" version="1.1" width="68.0" xmlns="http://www.w3.org/2000/svg" xmlns:xlink="http://www.w3.org/1999/xlink">
 <path d="M0,0 l68,0 l0,200 l-68,0 Z M0,0" fill="rgb(255,255,255)" transform="matrix(1,0,0,-1,0.0,200.0)"/>
 <path d="M0,0 l68,0" fill="none" stroke="rgb(229,229,229)" stroke-width="2" transform="matrix(1,0,0,-1,0.0,135.0)"/>
 <path d="M0,1 l0,-5" fill="none" stroke="rgb(204,204,204)" stroke-width="2" transform="matrix(1,0,0,-1,8.0,135.0)"/>
 <path d="M0,1 l0,-5" fill="none" stroke="rgb(204,204,204)" stroke-width="2" transform="matrix(1,0,0,-1,60.0,135.0)"/>
 <path d="M428,-124 l124,24 l-99,140 c19,19,31,42,31,69 c0,38,-20,62,-40,79 l-81,-21 l0,-81 c-22,-9,-49,-15,-81,-15 c-57,0,-86,23,-86,60 c0,61,85,86,182,98 l-29,88 c-12,-3,-55,-10,-90,-10 c-66,0,-91,26,-91,57 c0,31,22,54,99,54 l137,0 l0,150 l138,0 l0,92 l-569,0 l0,-92 l316,0 l0,-60 l-56,0 c-129,0,-182,-65,-182,-134 c0,-79,64,-117,111,-128 l0,-4 c-41,-20,-81,-56,-81,-116 c0,-80,65,-145,197,-145 c35,0,69,6,100,16 Z M428,-124" fill="rgb(0,0,0)" transform="matrix(0.1,0.0,0.0,-0.1,8.0,135.0)"/>
</svg>