<?xml version="1.0" encoding="UTF-8"?>
<svg height="200.0" version="1.1" width="86.0" xmlns="http://www.w3.org/2000/svg" xmlns:xlink="http://www.w3.org/1999/xlink">
 <path d="M0,0 l86,0 l0,200 l-86,0 Z M0,0" fill="rgb(255,255,255)" transform="matrix(1,0,0,-1,0.0,200.0)"/>
 <path d="M0,0 l86,0" fill="none" stroke="rgb(229,229,229)" stroke-width="2" transform="matrix(1,0,0,-1,0.0,135.0)"/>
 <path d="M0,1 l0,-5" fill="none" stroke="rgb(204,204,204)" stroke-width="2" transform="matrix(1,0,0,-1,8.0,135.0)"/>
 <path d="M0,1 l0,-5" fill="none" stroke="rgb(204,204,204)" stroke-width="2" transform="matrix(1,0,0,-1,77.0,135.0)"/>
 <path d="M510,69 l82,-155 l132,33 l-139,169 c23,22,40,49,40,89 c0,54,-35,83,-69,99 l-76,-28 l0,-100 c-17,-15,-42,-23,-71,-23 c-63,0,-120,43,-120,107 c0,58,33,91,132,116 l143,36 l0,156 l155,0 l0,92 l-746,0 l0,-92 l473,0 l0,-76 l-99,-24 c-118,-29,-168,-90,-168,-188 c0,-63,24,-112,60,-150 c-24,-33,-47,-68,-88,-68 c-32,0,-48,17,-48,45 c0,45,46,82,46,141 l-90,44 c0,-85,-54,-115,-54,-193 c0,-61,38,-109,120,-109 c9,0,31,3,40,4 c-2,-5,-3,-15,-3,-25 c0,-52,41,-110,137,-110 c108,0,179,86,207,210 Z M300,-66 c-35,0,-51,22,-51,47 c0,28,12,55,61,100 c30,-14,66,-19,97,-20 c-16,-76,-59,-127,-107,-127 Z M300,-66" fill="rgb(0,0,0)" transform="matrix(0.1,0.0,0.0,-0.1,8.0,135.0)"/>
</svg>