<?xml version="1.0" encoding="UTF-8"?>
<svg height="200.0" version="1.1" width="114.0" xmlns="http://www.w3.org/2000/svg" xmlns:xlink="http://www.w3.org/1999/xlink">
 <path d="M0,0 l114,0 l0,200 l-114,0 Z M0,0" fill="rgb(255,255,255)" transform="matrix(1,0,0,-1,0.0,200.0)"/>
 <path d="M0,0 l114,0" fill="none" stroke="rgb(229,229,229)" stroke-width="2" transform="matrix(1,0,0,-1,0.0,135.0)"/>
 <path d="M0,1 l0,-5" fill="none" stroke="rgb(204,204,204)" stroke-width="2" transform="matrix(1,0,0,-1,8.0,135.0)"/>
 <path d="M0,1 l0,-5" fill="none" stroke="rgb(204,204,204)" stroke-width="2" transform="matrix(1,0,0,-1,107.0,135.0)"/>
 <path d="M505,97 c28,-64,85,-110,162,-110 c63,0,98,25,123,49 l4,0 l0,-101 l116,0 l0,633 l99,0 l0,92 l-1036,0 l0,-92 l473,0 l0,-50 l-99,-25 c-117,-29,-167,-84,-167,-182 c0,-63,23,-109,59,-147 c-23,-33,-47,-68,-88,-68 c-32,0,-48,16,-48,44 c0,46,46,83,46,141 l-89,44 c0,-85,-54,-114,-54,-193 c0,-61,38,-108,119,-108 c10,0,32,2,40,4 c-1,-6,-3,-16,-3,-26 c0,-51,41,-109,137,-109 c108,0,178,84,206,204 Z M249,14 c0,29,13,56,62,101 c30,-14,66,-20,96,-20 c-16,-76,-58,-127,-107,-127 c-35,0,-51,22,-51,46 Z M586,151 c25,24,39,50,39,88 c0,54,-35,82,-68,99 l-76,-28 l0,-101 c-17,-15,-43,-22,-72,-22 c-63,0,-120,40,-120,104 c0,57,33,85,132,111 l143,35 l0,131 l230,0 l0,-364 c0,-72,-33,-123,-112,-123 c-57,0,-89,45,-96,70 Z M586,151" fill="rgb(0,0,0)" transform="matrix(0.1,0.0,0.0,-0.1,8.0,135.0)"/>
</svg>