<?xml version="1.0" encoding="UTF-8"?>
<svg height="200.0" version="1.1" width="74.0" xmlns="http://www.w3.org/2000/svg" xmlns:xlink="http://www.w3.org/1999/xlink">
 <path d="M0,0 l74,0 l0,200 l-74,0 Z M0,0" fill="rgb(255,255,255)" transform="matrix(1,0,0,-1,0.0,200.0)"/>
 <path d="M0,0 l74,0" fill="none" stroke="rgb(229,229,229)" stroke-width="2" transform="matrix(1,0,0,-1,0.0,135.0)"/>
 <path d="M0,1 l0,-5" fill="none" stroke="rgb(204,204,204)" stroke-width="2" transform="matrix(1,0,0,-1,8.0,135.0)"/>
 <path d="M0,1 l0,-5" fill="none" stroke="rgb(204,204,204)" stroke-width="2" transform="matrix(1,0,0,-1,66.0,135.0)"/>
 <path d="M378,103 c-4,-40,-18,-75,-40,-99 l-62,102 c7,1,16,1,25,1 c27,0,61,-2,77,-4 Z M252,-34 c-51,0,-71,31,-71,63 c0,26,12,48,40,62 l72,-118 c-12,-5,-26,-7,-41,-7 Z M437,5 l4,0 l41,-69 l124,42 l-144,173 c23,23,40,49,40,88 c0,55,-36,82,-69,99 l-76,-28 l0,-99 c-17,-13,-46,-21,-78,-21 c-62,0,-113,38,-113,98 c0,59,33,85,133,110 l142,36 l0,134 l166,0 l0,92 l-634,0 l0,-92 l350,0 l0,-54 l-99,-25 c-119,-29,-171,-82,-171,-180 c0,-79,31,-138,88,-167 l0,-4 c-32,-17,-66,-53,-66,-111 c0,-84,66,-147,168,-147 c106,0,172,67,194,125 Z M437,5" fill="rgb(0,0,0)" transform="matrix(0.1,0.0,0.0,-0.1,8.0,135.0)"/>
</svg>