<?xml version="1.0" encoding="UTF-8"?>
<svg height="200.0" version="1.1" width="74.0" xmlns="http://www.w3.org/2000/svg" xmlns:xlink="http://www.w3.org/1999/xlink">
 <path d="M0,0 l74,0 l0,200 l-74,0 Z M0,0" fill="rgb(255,255,255)" transform="matrix(1,0,0,-1,0.0,200.0)"/>
 <path d="M0,0 l74,0" fill="none" stroke="rgb(229,229,229)" stroke-width="2" transform="matrix(1,0,0,-1,0.0,135.0)"/>
 <path d="M0,1 l0,-5" fill="none" stroke="rgb(204,204,204)" stroke-width="2" transform="matrix(1,0,0,-1,8.0,135.0)"/>
 <path d="M0,1 l0,-5" fill="none" stroke="rgb(204,204,204)" stroke-width="2" transform="matrix(1,0,0,-1,65.0,135.0)"/>
 <path d="M400,64 c-11,-22,-35,-49,-65,-68 l-67,111 c11,1,23,2,36,2 c28,0,59,-6,75,-7 Z M245,-34 c-51,0,-71,33,-71,64 c0,25,15,46,41,60 l71,-117 c-13,-5,-27,-7,-41,-7 Z M155,-91 l-115,-54 l98,-69 l308,198 l33,-57 l125,41 l-149,183 c23,23,40,49,40,88 c0,55,-36,82,-69,99 l-76,-28 l0,-99 c-17,-13,-46,-21,-78,-21 c-62,0,-113,38,-113,98 c0,59,33,85,133,110 l142,36 l0,134 l160,0 l0,92 l-621,0 l0,-92 l343,0 l0,-54 l-99,-25 c-119,-29,-171,-81,-171,-180 c0,-79,31,-138,88,-167 l0,-4 c-32,-17,-66,-52,-66,-110 c0,-64,43,-102,87,-115 Z M155,-91" fill="rgb(0,0,0)" transform="matrix(0.1,0.0,0.0,-0.1,8.0,135.0)"/>
</svg>