<?xml version="1.0" encoding="UTF-8"?>
<svg height="200.0" version="1.1" width="90.0" xmlns="http://www.w3.org/2000/svg" xmlns:xlink="http://www.w3.org/1999/xlink">
 <path d="M0,0 l90,0 l0,200 l-90,0 Z M0,0" fill="rgb(255,255,255)" transform="matrix(1,0,0,-1,0.0,200.0)"/>
 <path d="M0,0 l90,0" fill="none" stroke="rgb(229,229,229)" stroke-width="2" transform="matrix(1,0,0,-1,0.0,135.0)"/>
 <path d="M0,1 l0,-5" fill="none" stroke="rgb(204,204,204)" stroke-width="2" transform="matrix(1,0,0,-1,8.0,135.0)"/>
 <path d="M0,1 l0,-5" fill="none" stroke="rgb(204,204,204)" stroke-width="2" transform="matrix(1,0,0,-1,83.0,135.0)"/>
 <path d="M619,412 l0,156 l154,0 l0,92 l-800,0 l0,-92 l528,0 l0,-76 l-99,-25 c-118,-28,-171,-89,-171,-187 c0,-81,42,-147,105,-186 l-90,-48 l-40,76 c-29,56,-69,72,-110,72 c-45,0,-90,-18,-129,-56 l49,-78 c24,25,47,33,60,33 c17,0,27,-6,38,-26 l38,-72 l-35,-68 c19,-37,60,-77,117,-85 l90,47 l-37,71 l181,94 c4,0,8,0,12,0 c28,0,57,4,82,12 l68,-130 l132,32 l-122,148 c23,22,40,48,40,88 c0,54,-35,83,-68,100 l-77,-29 l0,-98 c-17,-15,-43,-23,-73,-23 c-63,0,-118,42,-118,106 c0,57,33,91,132,116 Z M619,412" fill="rgb(0,0,0)" transform="matrix(0.1,0.0,0.0,-0.1,8.0,135.0)"/>
</svg>