<?xml version="1.0" encoding="UTF-8"?>
<svg height="200.0" version="1.1" width="120.0" xmlns="http://www.w3.org/2000/svg" xmlns:xlink="http://www.w3.org/1999/xlink">
 <path d="M0,0 l120,0 l0,200 l-120,0 Z M0,0" fill="rgb(255,255,255)" transform="matrix(1,0,0,-1,0.0,200.0)"/>
 <path d="M0,0 l120,0" fill="none" stroke="rgb(229,229,229)" stroke-width="2" transform="matrix(1,0,0,-1,0.0,135.0)"/>
 <path d="M0,1 l0,-5" fill="none" stroke="rgb(204,204,204)" stroke-width="2" transform="matrix(1,0,0,-1,8.0,135.0)"/>
 <path d="M0,1 l0,-5" fill="none" stroke="rgb(204,204,204)" stroke-width="2" transform="matrix(1,0,0,-1,113.0,135.0)"/>
 <path d="M-27,660 l0,-92 l528,0 l0,-53 l-98,-26 c-117,-31,-172,-84,-172,-182 c0,-88,46,-159,120,-194 l-105,-54 l-40,76 c-29,56,-69,71,-110,71 c-45,0,-90,-18,-129,-55 l49,-78 c24,25,47,33,60,33 c17,0,27,-7,38,-26 l38,-72 l-35,-68 c19,-38,60,-77,117,-85 l90,46 l-37,72 l215,111 c17,1,33,4,48,9 c29,-55,81,-106,172,-106 c63,0,98,25,123,49 l4,0 l0,-101 l116,0 l0,633 l109,0 l0,92 Z M737,81 c-57,0,-89,44,-96,70 c23,22,39,48,39,88 c0,54,-35,83,-68,100 l-77,-29 l0,-98 c-17,-15,-42,-23,-72,-23 c-64,0,-119,35,-119,98 c0,57,27,84,126,109 l149,38 l0,134 l230,0 l0,-364 c0,-72,-33,-123,-112,-123 Z M737,81" fill="rgb(0,0,0)" transform="matrix(0.1,0.0,0.0,-0.1,8.0,135.0)"/>
</svg>