<?xml version="1.0" encoding="UTF-8"?>
<svg height="200.0" version="1.1" width="90.0" xmlns="http://www.w3.org/2000/svg" xmlns:xlink="http://www.w3.org/1999/xlink">
 <path d="M0,0 l90,0 l0,200 l-90,0 Z M0,0" fill="rgb(255,255,255)" transform="matrix(1,0,0,-1,0.0,200.0)"/>
 <path d="M0,0 l90,0" fill="none" stroke="rgb(229,229,229)" stroke-width="2" transform="matrix(1,0,0,-1,0.0,135.0)"/>
 <path d="M0,1 l0,-5" fill="none" stroke="rgb(204,204,204)" stroke-width="2" transform="matrix(1,0,0,-1,8.0,135.0)"/>
 <path d="M0,1 l0,-5" fill="none" stroke="rgb(204,204,204)" stroke-width="2" transform="matrix(1,0,0,-1,82.0,135.0)"/>
 <path d="M388,321 l-87,31 c-29,-35,-60,-52,-105,-52 c-49,0,-73,25,-73,59 c0,32,21,56,70,56 l196,0 l0,153 l147,0 l0,-365 l-148,0 Z M291,248 l0,-48 l-62,-49 c1,-40,27,-94,62,-117 l94,0 l0,73 l151,0 l0,-107 l115,0 l0,568 l112,0 l0,92 l-790,0 l0,-92 l301,0 l0,-67 l-98,0 c-90,0,-161,-53,-161,-141 c0,-91,63,-149,162,-149 c56,0,92,19,110,37 Z M291,248" fill="rgb(0,0,0)" transform="matrix(0.1,0.0,0.0,-0.1,8.0,135.0)"/>
</svg>