<?xml version="1.0" encoding="UTF-8"?>
<svg height="200.0" version="1.1" width="100.0" xmlns="http://www.w3.org/2000/svg" xmlns:xlink="http://www.w3.org/1999/xlink">
 <path d="M0,0 l100,0 l0,200 l-100,0 Z M0,0" fill="rgb(255,255,255)" transform="matrix(1,0,0,-1,0.0,200.0)"/>
 <path d="M0,0 l100,0" fill="none" stroke="rgb(229,229,229)" stroke-width="2" transform="matrix(1,0,0,-1,0.0,135.0)"/>
 <path d="M0,1 l0,-5" fill="none" stroke="rgb(204,204,204)" stroke-width="2" transform="matrix(1,0,0,-1,8.0,135.0)"/>
 <path d="M0,1 l0,-5" fill="none" stroke="rgb(204,204,204)" stroke-width="2" transform="matrix(1,0,0,-1,94.0,135.0)"/>
 <path d="M438,18 c25,-19,57,-31,98,-31 c63,0,99,25,123,49 l4,0 l0,-101 l116,0 l0,633 l99,0 l0,92 l-905,0 l0,-92 l342,0 l0,-53 l-97,-25 c-119,-29,-169,-80,-169,-179 c0,-79,31,-137,87,-166 l0,-4 c-31,-17,-65,-52,-65,-111 c0,-85,66,-147,169,-147 c95,0,178,61,198,135 Z M180,32 c0,45,35,75,116,75 c14,0,50,0,75,-2 c-8,-84,-54,-134,-121,-134 c-50,0,-70,29,-70,61 Z M455,150 c23,23,40,49,40,89 c0,54,-34,82,-67,98 l-78,-28 l0,-99 c-17,-13,-46,-21,-78,-21 c-62,0,-114,41,-114,101 c0,59,34,84,134,109 l142,36 l0,133 l229,0 l0,-364 c0,-72,-33,-123,-112,-123 c-56,0,-89,43,-96,69 Z M455,150" fill="rgb(0,0,0)" transform="matrix(0.1,0.0,0.0,-0.1,8.0,135.0)"/>
</svg>