<?xml version="1.0" encoding="UTF-8"?>
<svg height="200.0" version="1.1" width="144.0" xmlns="http://www.w3.org/2000/svg" xmlns:xlink="http://www.w3.org/1999/xlink">
 <path d="M0,0 l144,0 l0,200 l-144,0 Z M0,0" fill="rgb(255,255,255)" transform="matrix(1,0,0,-1,0.0,200.0)"/>
 <path d="M0,0 l144,0" fill="none" stroke="rgb(229,229,229)" stroke-width="2" transform="matrix(1,0,0,-1,0.0,135.0)"/>
 <path d="M0,1 l0,-5" fill="none" stroke="rgb(204,204,204)" stroke-width="2" transform="matrix(1,0,0,-1,8.0,135.0)"/>
 <path d="M0,1 l0,-5" fill="none" stroke="rgb(204,204,204)" stroke-width="2" transform="matrix(1,0,0,-1,137.0,135.0)"/>
 <path d="M1201,0 l0,568 l111,0 l0,92 l-939,0 l0,-92 l431,0 c22,-24,35,-61,35,-87 c0,-28,-11,-49,-30,-66 l-332,0 l-81,-59 c0,-39,9,-75,24,-102 c-35,-29,-79,-53,-139,-53 c-75,0,-99,37,-99,72 c0,42,30,69,93,69 l62,0 l0,92 l-71,0 c-60,0,-89,27,-89,65 c0,37,32,63,61,74 l-17,87 l-248,0 l0,-92 l123,0 l0,-4 c-20,-12,-39,-37,-39,-73 c0,-61,45,-96,101,-101 l0,-4 c-44,-10,-95,-47,-95,-122 c0,-87,72,-156,197,-156 c114,0,201,40,288,122 l1,84 l161,0 c28,-122,116,-192,228,-192 c73,0,120,30,143,56 l4,0 l0,-178 Z M828,329 c70,14,127,64,127,136 c0,36,-12,72,-42,99 l0,4 l173,0 l0,-213 c0,-82,-49,-134,-131,-134 c-79,0,-119,52,-127,108 Z M828,329" fill="rgb(0,0,0)" transform="matrix(0.1,0.0,0.0,-0.1,8.0,135.0)"/>
</svg>