<?xml version="1.0" encoding="UTF-8"?>
<svg height="200.0" version="1.1" width="112.0" xmlns="http://www.w3.org/2000/svg" xmlns:xlink="http://www.w3.org/1999/xlink">
 <path d="M0,0 l112,0 l0,200 l-112,0 Z M0,0" fill="rgb(255,255,255)" transform="matrix(1,0,0,-1,0.0,200.0)"/>
 <path d="M0,0 l112,0" fill="none" stroke="rgb(229,229,229)" stroke-width="2" transform="matrix(1,0,0,-1,0.0,135.0)"/>
 <path d="M0,1 l0,-5" fill="none" stroke="rgb(204,204,204)" stroke-width="2" transform="matrix(1,0,0,-1,8.0,135.0)"/>
 <path d="M0,1 l0,-5" fill="none" stroke="rgb(204,204,204)" stroke-width="2" transform="matrix(1,0,0,-1,104.0,135.0)"/>
 <path d="M874,0 l0,568 l111,0 l0,92 l-614,0 l0,-92 l387,0 l0,-241 c0,-70,-41,-127,-114,-127 c-57,0,-96,37,-96,93 c0,78,73,107,138,88 l-9,102 c-127,22,-249,-47,-249,-191 c0,-11,1,-22,2,-33 c-35,-34,-84,-58,-149,-58 c-75,0,-99,37,-99,72 c0,42,30,69,93,69 l62,0 l0,92 l-71,0 c-60,0,-89,27,-89,65 c0,37,32,63,61,74 l-17,87 l-248,0 l0,-92 l123,0 l0,-4 c-20,-12,-39,-37,-39,-73 c0,-61,45,-96,101,-101 l0,-4 c-44,-10,-95,-47,-95,-122 c0,-87,72,-156,197,-156 c98,0,165,28,210,61 c36,-44,92,-69,154,-69 c67,0,109,27,130,49 l4,0 l0,-149 Z M874,0" fill="rgb(0,0,0)" transform="matrix(0.1,0.0,0.0,-0.1,8.0,135.0)"/>
</svg>