<?xml version="1.0" encoding="UTF-8"?>
<svg height="200.0" version="1.1" width="106.0" xmlns="http://www.w3.org/2000/svg" xmlns:xlink="http://www.w3.org/1999/xlink">
 <path d="M0,0 l106,0 l0,200 l-106,0 Z M0,0" fill="rgb(255,255,255)" transform="matrix(1,0,0,-1,0.0,200.0)"/>
 <path d="M0,0 l106,0" fill="none" stroke="rgb(229,229,229)" stroke-width="2" transform="matrix(1,0,0,-1,0.0,135.0)"/>
 <path d="M0,1 l0,-5" fill="none" stroke="rgb(204,204,204)" stroke-width="2" transform="matrix(1,0,0,-1,8.0,135.0)"/>
 <path d="M0,1 l0,-5" fill="none" stroke="rgb(204,204,204)" stroke-width="2" transform="matrix(1,0,0,-1,98.0,135.0)"/>
 <path d="M694,157 l4,0 l0,-157 l116,0 l0,568 l111,0 l0,92 l-952,0 l0,-92 l725,0 l0,-208 c0,-111,-61,-175,-150,-175 c-67,0,-103,37,-103,87 c0,57,39,93,111,93 l67,0 l0,99 l-525,0 l-82,-59 c1,-89,43,-145,95,-171 l58,26 l0,103 l205,0 l0,-4 c-21,-16,-48,-46,-48,-107 c0,-86,68,-167,196,-167 c100,0,151,45,172,72 Z M694,157" fill="rgb(0,0,0)" transform="matrix(0.1,0.0,0.0,-0.1,8.0,135.0)"/>
</svg>