<?xml version="1.0" encoding="UTF-8"?>
<svg height="200.0" version="1.1" width="114.0" xmlns="http://www.w3.org/2000/svg" xmlns:xlink="http://www.w3.org/1999/xlink">
 <path d="M0,0 l114,0 l0,200 l-114,0 Z M0,0" fill="rgb(255,255,255)" transform="matrix(1,0,0,-1,0.0,200.0)"/>
 <path d="M0,0 l114,0" fill="none" stroke="rgb(229,229,229)" stroke-width="2" transform="matrix(1,0,0,-1,0.0,135.0)"/>
 <path d="M0,1 l0,-5" fill="none" stroke="rgb(204,204,204)" stroke-width="2" transform="matrix(1,0,0,-1,8.0,135.0)"/>
 <path d="M0,1 l0,-5" fill="none" stroke="rgb(204,204,204)" stroke-width="2" transform="matrix(1,0,0,-1,106.0,135.0)"/>
 <path d="M604,26 c204,0,333,153,333,297 c0,76,-35,131,-90,155 l0,90 l158,0 l0,92 l-1032,0 l0,-92 l415,0 l0,-4 c-18,-15,-41,-43,-41,-93 c0,-23,6,-45,16,-63 l-265,0 l-82,-59 c1,-89,43,-145,95,-171 l58,26 l0,103 l225,0 c-18,-22,-30,-52,-30,-93 c0,-99,87,-188,240,-188 Z M783,300 c-32,8,-51,27,-51,56 c0,27,19,44,44,44 c32,0,56,-24,56,-75 c0,-109,-98,-201,-219,-201 c-86,0,-130,43,-130,95 c0,45,27,78,88,81 c6,1,13,1,20,1 l0,96 l-35,0 c-57,0,-88,35,-88,82 c0,50,34,89,96,89 l174,0 l0,-78 c-70,-14,-115,-68,-115,-132 c0,-69,46,-111,91,-125 Z M783,300" fill="rgb(0,0,0)" transform="matrix(0.1,0.0,0.0,-0.1,8.0,135.0)"/>
</svg>