<?xml version="1.0" encoding="UTF-8"?>
<svg height="200.0" version="1.1" width="138.0" xmlns="http://www.w3.org/2000/svg" xmlns:xlink="http://www.w3.org/1999/xlink">
 <path d="M0,0 l138,0 l0,200 l-138,0 Z M0,0" fill="rgb(255,255,255)" transform="matrix(1,0,0,-1,0.0,200.0)"/>
 <path d="M0,0 l138,0" fill="none" stroke="rgb(229,229,229)" stroke-width="2" transform="matrix(1,0,0,-1,0.0,135.0)"/>
 <path d="M0,1 l0,-5" fill="none" stroke="rgb(204,204,204)" stroke-width="2" transform="matrix(1,0,0,-1,8.0,135.0)"/>
 <path d="M0,1 l0,-5" fill="none" stroke="rgb(204,204,204)" stroke-width="2" transform="matrix(1,0,0,-1,131.0,135.0)"/>
 <path d="M1029,178 l4,0 l0,-178 l116,0 l0,568 l111,0 l0,92 l-1287,0 l0,-92 l779,0 c22,-24,34,-61,34,-87 c0,-36,-18,-61,-48,-79 c-39,42,-102,58,-165,58 l-45,0 c-48,0,-95,-15,-132,-45 l-298,0 l-82,-59 c1,-89,43,-145,95,-171 l58,26 l0,103 l169,0 c-3,-15,-5,-31,-5,-49 c0,-127,75,-223,149,-276 l85,72 c-68,49,-115,116,-115,201 c0,66,42,97,97,97 l18,0 c41,0,66,-8,86,-21 c21,-137,114,-216,232,-216 c73,0,121,30,144,56 Z M776,329 c69,14,127,64,127,136 c0,36,-13,72,-42,99 l0,4 l172,0 l0,-213 c0,-82,-49,-134,-131,-134 c-78,0,-118,52,-126,108 Z M776,329" fill="rgb(0,0,0)" transform="matrix(0.1,0.0,0.0,-0.1,8.0,135.0)"/>
</svg>