<?xml version="1.0" encoding="UTF-8"?>
<svg height="200.0" version="1.1" width="114.0" xmlns="http://www.w3.org/2000/svg" xmlns:xlink="http://www.w3.org/1999/xlink">
 <path d="M0,0 l114,0 l0,200 l-114,0 Z M0,0" fill="rgb(255,255,255)" transform="matrix(1,0,0,-1,0.0,200.0)"/>
 <path d="M0,0 l114,0" fill="none" stroke="rgb(229,229,229)" stroke-width="2" transform="matrix(1,0,0,-1,0.0,135.0)"/>
 <path d="M0,1 l0,-5" fill="none" stroke="rgb(204,204,204)" stroke-width="2" transform="matrix(1,0,0,-1,8.0,135.0)"/>
 <path d="M0,1 l0,-5" fill="none" stroke="rgb(204,204,204)" stroke-width="2" transform="matrix(1,0,0,-1,106.0,135.0)"/>
 <path d="M308,660 l-335,0 l0,-92 l335,0 Z M464,302 c20,4,40,9,58,14 c116,30,188,91,188,195 c0,92,-62,159,-166,159 c-99,0,-165,-65,-165,-145 c0,-37,13,-69,33,-89 l100,29 c-15,17,-21,37,-21,55 c0,33,22,53,53,53 c34,0,53,-22,53,-60 c0,-50,-31,-90,-147,-122 l-38,-10 c-41,17,-90,27,-145,27 l-169,0 l-82,-60 c1,-88,43,-145,95,-170 l58,26 l0,103 l105,0 c20,0,42,-3,61,-8 c27,-128,122,-211,259,-211 c105,0,163,49,186,79 l4,0 l0,-167 l113,0 l0,568 l111,0 l0,92 l-226,0 l0,-290 c0,-93,-54,-181,-176,-181 c-102,0,-136,77,-142,113 Z M464,302" fill="rgb(0,0,0)" transform="matrix(0.1,0.0,0.0,-0.1,8.0,135.0)"/>
</svg>