<?xml version="1.0" encoding="UTF-8"?>
<svg height="200.0" version="1.1" width="150.0" xmlns="http://www.w3.org/2000/svg" xmlns:xlink="http://www.w3.org/1999/xlink">
 <path d="M0,0 l150,0 l0,200 l-150,0 Z M0,0" fill="rgb(255,255,255)" transform="matrix(1,0,0,-1,0.0,200.0)"/>
 <path d="M0,0 l150,0" fill="none" stroke="rgb(229,229,229)" stroke-width="2" transform="matrix(1,0,0,-1,0.0,135.0)"/>
 <path d="M0,1 l0,-5" fill="none" stroke="rgb(204,204,204)" stroke-width="2" transform="matrix(1,0,0,-1,8.0,135.0)"/>
 <path d="M0,1 l0,-5" fill="none" stroke="rgb(204,204,204)" stroke-width="2" transform="matrix(1,0,0,-1,143.0,135.0)"/>
 <path d="M304,660 l-331,0 l0,-92 l331,0 Z M591,88 c132,0,205,53,247,104 c42,-45,100,-70,167,-70 c73,0,120,30,143,56 l4,0 l0,-178 l116,0 l0,568 l111,0 l0,92 l-622,0 l0,-92 l115,0 c21,-24,34,-61,34,-87 c0,-63,-55,-92,-137,-109 c2,-30,7,-57,15,-82 c-26,-45,-77,-101,-180,-101 c-102,0,-147,74,-152,113 c21,4,42,9,62,15 c113,31,184,92,184,195 c0,92,-63,158,-167,158 c-99,0,-164,-65,-164,-145 c0,-37,13,-69,33,-89 l100,29 c-15,17,-21,37,-21,55 c0,33,22,53,52,53 c34,0,54,-22,54,-59 c0,-50,-31,-91,-147,-123 l-50,-13 c-40,16,-87,24,-138,24 l-155,0 l-81,-60 c0,-88,43,-144,94,-170 l59,26 l0,103 l89,0 c24,0,48,-3,70,-9 c31,-123,131,-204,265,-204 Z M895,329 c70,14,127,64,127,136 c0,36,-12,72,-42,99 l0,4 l173,0 l0,-213 c0,-82,-49,-134,-131,-134 c-78,0,-119,52,-127,108 Z M895,329" fill="rgb(0,0,0)" transform="matrix(0.1,0.0,0.0,-0.1,8.0,135.0)"/>
</svg>