<?xml version="1.0" encoding="UTF-8"?>
<svg height="200.0" version="1.1" width="146.0" xmlns="http://www.w3.org/2000/svg" xmlns:xlink="http://www.w3.org/1999/xlink">
 <path d="M0,0 l146,0 l0,200 l-146,0 Z M0,0" fill="rgb(255,255,255)" transform="matrix(1,0,0,-1,0.0,200.0)"/>
 <path d="M0,0 l146,0" fill="none" stroke="rgb(229,229,229)" stroke-width="2" transform="matrix(1,0,0,-1,0.0,135.0)"/>
 <path d="M0,1 l0,-5" fill="none" stroke="rgb(204,204,204)" stroke-width="2" transform="matrix(1,0,0,-1,8.0,135.0)"/>
 <path d="M0,1 l0,-5" fill="none" stroke="rgb(204,204,204)" stroke-width="2" transform="matrix(1,0,0,-1,139.0,135.0)"/>
 <path d="M1227,568 l111,0 l0,92 l-574,0 l0,-92 l347,0 l0,-241 c0,-70,-40,-127,-113,-127 c-58,0,-96,37,-96,93 c0,78,72,107,137,88 l-9,102 c-126,22,-248,-47,-248,-191 c0,-3,0,-6,0,-9 c-27,-42,-80,-94,-178,-94 c-102,0,-147,74,-152,113 c21,4,42,9,62,15 c113,31,184,92,184,195 c0,92,-63,158,-167,158 c-99,0,-164,-65,-164,-145 c0,-37,13,-69,33,-89 l100,29 c-15,17,-21,37,-21,55 c0,33,22,53,52,53 c34,0,54,-22,54,-59 c0,-50,-31,-91,-147,-123 l-50,-13 c-40,16,-87,24,-138,24 l-155,0 l-81,-60 c0,-88,43,-144,94,-170 l59,26 l0,103 l89,0 c24,0,48,-3,70,-9 c31,-123,131,-204,265,-204 c116,0,185,42,227,88 c36,-48,94,-76,159,-76 c68,0,110,27,130,49 l4,0 l0,-149 l116,0 Z M297,660 l-324,0 l0,-92 l324,0 Z M297,660" fill="rgb(0,0,0)" transform="matrix(0.1,0.0,0.0,-0.1,8.0,135.0)"/>
</svg>