<?xml version="1.0" encoding="UTF-8"?>
<svg height="200.0" version="1.1" width="98.0" xmlns="http://www.w3.org/2000/svg" xmlns:xlink="http://www.w3.org/1999/xlink">
 <path d="M0,0 l98,0 l0,200 l-98,0 Z M0,0" fill="rgb(255,255,255)" transform="matrix(1,0,0,-1,0.0,200.0)"/>
 <path d="M0,0 l98,0" fill="none" stroke="rgb(229,229,229)" stroke-width="2" transform="matrix(1,0,0,-1,0.0,135.0)"/>
 <path d="M0,1 l0,-5" fill="none" stroke="rgb(204,204,204)" stroke-width="2" transform="matrix(1,0,0,-1,8.0,135.0)"/>
 <path d="M0,1 l0,-5" fill="none" stroke="rgb(204,204,204)" stroke-width="2" transform="matrix(1,0,0,-1,91.0,135.0)"/>
 <path d="M714,412 l0,156 l145,0 l0,92 l-886,0 l0,-92 l623,0 l0,-76 l-99,-24 c-49,-12,-87,-30,-114,-53 l-285,0 l-82,-59 c1,-89,43,-145,95,-171 l58,26 l0,103 l159,0 c-1,-11,-2,-22,-2,-34 c0,-132,113,-226,250,-226 c27,0,56,5,81,13 l68,-131 l132,33 l-122,147 c23,22,40,49,40,89 c0,54,-35,83,-69,99 l-76,-28 l0,-98 c-16,-14,-40,-23,-69,-23 c-64,-2,-122,40,-122,105 c0,58,33,91,132,116 Z M714,412" fill="rgb(0,0,0)" transform="matrix(0.1,0.0,0.0,-0.1,8.0,135.0)"/>
</svg>