<?xml version="1.0" encoding="UTF-8"?>
<svg height="200.0" version="1.1" width="102.0" xmlns="http://www.w3.org/2000/svg" xmlns:xlink="http://www.w3.org/1999/xlink">
 <path d="M0,0 l102,0 l0,200 l-102,0 Z M0,0" fill="rgb(255,255,255)" transform="matrix(1,0,0,-1,0.0,200.0)"/>
 <path d="M0,0 l102,0" fill="none" stroke="rgb(229,229,229)" stroke-width="2" transform="matrix(1,0,0,-1,0.0,135.0)"/>
 <path d="M0,1 l0,-5" fill="none" stroke="rgb(204,204,204)" stroke-width="2" transform="matrix(1,0,0,-1,8.0,135.0)"/>
 <path d="M0,1 l0,-5" fill="none" stroke="rgb(204,204,204)" stroke-width="2" transform="matrix(1,0,0,-1,94.0,135.0)"/>
 <path d="M655,102 c-8,-84,-54,-133,-121,-133 c-49,0,-70,29,-70,61 c0,45,36,75,117,75 c13,0,49,-1,74,-3 Z M721,5 l41,-69 l124,42 l-144,173 c23,23,40,49,40,88 c0,55,-36,82,-69,99 l-76,-28 l0,-99 c-17,-13,-46,-21,-78,-21 c-62,0,-113,38,-113,98 c0,59,33,85,133,110 l142,36 l0,134 l156,0 l0,92 l-904,0 l0,-92 l630,0 l0,-54 l-99,-25 c-66,-16,-111,-40,-139,-74 l-267,0 l-82,-59 c1,-89,43,-145,95,-171 l58,26 l0,103 l164,0 c0,-1,0,-3,0,-5 c0,-79,31,-138,88,-167 l0,-4 c-31,-16,-66,-52,-66,-110 c0,-85,66,-148,169,-148 c105,0,170,65,193,125 Z M721,5" fill="rgb(0,0,0)" transform="matrix(0.1,0.0,0.0,-0.1,8.0,135.0)"/>
</svg>