<?xml version="1.0" encoding="UTF-8"?>
<svg height="200.0" version="1.1" width="146.0" xmlns="http://www.w3.org/2000/svg" xmlns:xlink="http://www.w3.org/1999/xlink">
 <path d="M0,0 l146,0 l0,200 l-146,0 Z M0,0" fill="rgb(255,255,255)" transform="matrix(1,0,0,-1,0.0,200.0)"/>
 <path d="M0,0 l146,0" fill="none" stroke="rgb(229,229,229)" stroke-width="2" transform="matrix(1,0,0,-1,0.0,135.0)"/>
 <path d="M0,1 l0,-5" fill="none" stroke="rgb(204,204,204)" stroke-width="2" transform="matrix(1,0,0,-1,8.0,135.0)"/>
 <path d="M0,1 l0,-5" fill="none" stroke="rgb(204,204,204)" stroke-width="2" transform="matrix(1,0,0,-1,138.0,135.0)"/>
 <path d="M1100,178 l0,-178 l116,0 l0,568 l111,0 l0,92 l-669,0 l0,-92 l161,0 c22,-24,35,-61,35,-87 c0,-63,-55,-92,-137,-109 c2,-34,8,-65,18,-93 c-35,-43,-90,-78,-167,-78 c-75,0,-99,37,-99,72 c0,42,30,69,93,69 l63,0 l0,92 l-72,0 c-60,0,-89,27,-89,65 c0,37,32,63,62,74 l-18,87 l-535,0 l0,-92 l410,0 l0,-4 c-20,-12,-39,-37,-39,-73 c0,-42,22,-72,54,-88 l-300,0 l-82,-60 c1,-88,43,-144,95,-170 l58,26 l0,103 l186,0 c-3,-11,-5,-24,-5,-38 c0,-87,73,-156,198,-156 c117,0,193,41,237,85 c42,-46,101,-71,168,-71 c73,0,120,30,143,56 Z M843,329 c70,14,127,64,127,136 c0,36,-12,72,-42,99 l0,4 l173,0 l0,-213 c0,-82,-49,-134,-131,-134 c-79,0,-119,52,-127,108 Z M843,329" fill="rgb(0,0,0)" transform="matrix(0.1,0.0,0.0,-0.1,8.0,135.0)"/>
</svg>