<?xml version="1.0" encoding="UTF-8"?>
<svg height="200.0" version="1.1" width="140.0" xmlns="http://www.w3.org/2000/svg" xmlns:xlink="http://www.w3.org/1999/xlink">
 <path d="M0,0 l140,0 l0,200 l-140,0 Z M0,0" fill="rgb(255,255,255)" transform="matrix(1,0,0,-1,0.0,200.0)"/>
 <path d="M0,0 l140,0" fill="none" stroke="rgb(229,229,229)" stroke-width="2" transform="matrix(1,0,0,-1,0.0,135.0)"/>
 <path d="M0,1 l0,-5" fill="none" stroke="rgb(204,204,204)" stroke-width="2" transform="matrix(1,0,0,-1,8.0,135.0)"/>
 <path d="M0,1 l0,-5" fill="none" stroke="rgb(204,204,204)" stroke-width="2" transform="matrix(1,0,0,-1,133.0,135.0)"/>
 <path d="M1161,0 l0,568 l111,0 l0,92 l-612,0 l0,-92 l385,0 l0,-241 c0,-70,-41,-127,-114,-127 c-57,0,-96,37,-96,93 c0,78,73,107,138,88 l-9,102 c-127,22,-249,-47,-249,-191 c0,-12,1,-23,3,-34 c-35,-33,-84,-57,-148,-57 c-75,0,-99,37,-99,72 c0,42,30,69,93,69 l63,0 l0,92 l-71,0 c-60,0,-90,27,-90,65 c0,37,32,63,62,74 l-18,87 l-537,0 l0,-92 l412,0 l0,-4 c-19,-12,-39,-37,-39,-73 c0,-42,22,-72,54,-88 l-302,0 l-82,-60 c1,-88,43,-144,95,-170 l58,26 l0,103 l188,0 c-3,-11,-5,-24,-5,-38 c0,-87,73,-156,198,-156 c96,0,163,28,208,60 c36,-43,91,-68,153,-68 c67,0,109,27,130,49 l4,0 l0,-149 Z M1161,0" fill="rgb(0,0,0)" transform="matrix(0.1,0.0,0.0,-0.1,8.0,135.0)"/>
</svg>