<?xml version="1.0" encoding="UTF-8"?>
<svg height="200.0" version="1.1" width="126.0" xmlns="http://www.w3.org/2000/svg" xmlns:xlink="http://www.w3.org/1999/xlink">
 <path d="M0,0 l126,0 l0,200 l-126,0 Z M0,0" fill="rgb(255,255,255)" transform="matrix(1,0,0,-1,0.0,200.0)"/>
 <path d="M0,0 l126,0" fill="none" stroke="rgb(229,229,229)" stroke-width="2" transform="matrix(1,0,0,-1,0.0,135.0)"/>
 <path d="M0,1 l0,-5" fill="none" stroke="rgb(204,204,204)" stroke-width="2" transform="matrix(1,0,0,-1,8.0,135.0)"/>
 <path d="M0,1 l0,-5" fill="none" stroke="rgb(204,204,204)" stroke-width="2" transform="matrix(1,0,0,-1,118.0,135.0)"/>
 <path d="M647,223 l0,-223 l114,0 l0,265 c0,65,40,119,107,119 c52,0,87,-34,87,-85 c0,-63,-49,-106,-125,-91 l18,-102 c120,-12,223,62,223,195 c0,110,-80,182,-180,182 c-68,0,-108,-31,-126,-51 l-4,0 l0,136 l370,0 l0,92 l-1158,0 l0,-92 l390,0 l0,-153 l-265,0 l-82,-59 c1,-89,43,-145,95,-171 l58,26 l0,103 l197,0 c12,-83,67,-135,164,-135 c60,0,96,24,113,44 Z M648,381 c0,-56,-31,-100,-98,-100 c-50,0,-71,26,-71,87 l0,200 l169,0 Z M648,381" fill="rgb(0,0,0)" transform="matrix(0.1,0.0,0.0,-0.1,8.0,135.0)"/>
</svg>