<?xml version="1.0" encoding="UTF-8"?>
<svg height="200.0" version="1.1" width="136.0" xmlns="http://www.w3.org/2000/svg" xmlns:xlink="http://www.w3.org/1999/xlink">
 <path d="M0,0 l136,0 l0,200 l-136,0 Z M0,0" fill="rgb(255,255,255)" transform="matrix(1,0,0,-1,0.0,200.0)"/>
 <path d="M0,0 l136,0" fill="none" stroke="rgb(229,229,229)" stroke-width="2" transform="matrix(1,0,0,-1,0.0,135.0)"/>
 <path d="M0,1 l0,-5" fill="none" stroke="rgb(204,204,204)" stroke-width="2" transform="matrix(1,0,0,-1,8.0,135.0)"/>
 <path d="M0,1 l0,-5" fill="none" stroke="rgb(204,204,204)" stroke-width="2" transform="matrix(1,0,0,-1,129.0,135.0)"/>
 <path d="M1121,568 l111,0 l0,92 l-608,0 l0,-92 l381,0 l0,-241 c0,-70,-40,-127,-113,-127 c-58,0,-96,37,-96,93 c0,78,73,107,137,88 l-9,102 c-104,18,-206,-26,-238,-123 l-171,0 l0,149 c0,103,-64,151,-158,151 l-384,0 l0,-92 l360,0 c51,0,68,-20,68,-66 l0,-87 l-303,0 l-82,-59 c1,-89,43,-145,95,-171 l58,26 l0,103 l179,0 c0,-47,25,-120,74,-157 l90,0 l0,100 l167,0 c16,-96,96,-157,192,-157 c68,0,110,27,130,49 l4,0 l0,-149 l116,0 Z M1121,568" fill="rgb(0,0,0)" transform="matrix(0.1,0.0,0.0,-0.1,8.0,135.0)"/>
</svg>