<?xml version="1.0" encoding="UTF-8"?>
<svg height="200.0" version="1.1" width="140.0" xmlns="http://www.w3.org/2000/svg" xmlns:xlink="http://www.w3.org/1999/xlink">
 <path d="M0,0 l140,0 l0,200 l-140,0 Z M0,0" fill="rgb(255,255,255)" transform="matrix(1,0,0,-1,0.0,200.0)"/>
 <path d="M0,0 l140,0" fill="none" stroke="rgb(229,229,229)" stroke-width="2" transform="matrix(1,0,0,-1,0.0,135.0)"/>
 <path d="M0,1 l0,-5" fill="none" stroke="rgb(204,204,204)" stroke-width="2" transform="matrix(1,0,0,-1,8.0,135.0)"/>
 <path d="M0,1 l0,-5" fill="none" stroke="rgb(204,204,204)" stroke-width="2" transform="matrix(1,0,0,-1,133.0,135.0)"/>
 <path d="M374,413 l-276,0 l-82,-60 c1,-88,43,-144,95,-170 l58,26 l0,103 l142,0 l258,-325 l94,60 l-101,126 c-35,43,-55,65,-77,87 l1,4 c10,-1,23,1,33,2 c21,3,40,10,57,21 c35,-22,83,-35,139,-35 c19,0,38,1,55,4 c6,-120,110,-225,261,-225 c75,0,150,21,214,83 l-58,93 c-51,-53,-102,-75,-170,-75 c-91,0,-134,59,-134,113 c0,53,17,89,119,117 l145,39 l0,167 l134,0 l0,92 l-1308,0 l0,-92 l541,0 l0,-163 c0,-40,-20,-55,-50,-55 c-33,0,-54,19,-76,45 Z M702,355 c-29,0,-54,3,-76,9 c3,11,4,23,4,37 l0,167 l399,0 l0,-87 l-92,-27 c-65,-18,-110,-44,-137,-82 c-28,-13,-63,-17,-98,-17 Z M702,355" fill="rgb(0,0,0)" transform="matrix(0.1,0.0,0.0,-0.1,8.0,135.0)"/>
</svg>