<?xml version="1.0" encoding="UTF-8"?>
<svg height="200.0" version="1.1" width="184.0" xmlns="http://www.w3.org/2000/svg" xmlns:xlink="http://www.w3.org/1999/xlink">
 <path d="M0,0 l184,0 l0,200 l-184,0 Z M0,0" fill="rgb(255,255,255)" transform="matrix(1,0,0,-1,0.0,200.0)"/>
 <path d="M0,0 l184,0" fill="none" stroke="rgb(229,229,229)" stroke-width="2" transform="matrix(1,0,0,-1,0.0,135.0)"/>
 <path d="M0,1 l0,-5" fill="none" stroke="rgb(204,204,204)" stroke-width="2" transform="matrix(1,0,0,-1,8.0,135.0)"/>
 <path d="M0,1 l0,-5" fill="none" stroke="rgb(204,204,204)" stroke-width="2" transform="matrix(1,0,0,-1,176.0,135.0)"/>
 <path d="M371,415 l-273,0 l-82,-59 c1,-89,43,-145,95,-171 l58,26 l0,103 l140,0 l259,-327 l94,60 l-101,126 c-35,43,-55,65,-76,87 l0,4 c11,-1,24,1,33,2 c21,3,40,10,57,21 c35,-22,83,-35,139,-35 c34,0,64,4,91,13 c12,-33,32,-65,60,-87 l90,0 l0,101 l163,0 c36,-101,118,-157,218,-157 c73,0,121,30,144,56 l4,0 l0,-178 l116,0 l0,568 l111,0 l0,92 l-1738,0 l0,-92 l540,0 l0,-163 c0,-40,-19,-55,-50,-55 c-36,0,-58,21,-82,52 l-1,0 Z M701,355 c-29,0,-54,3,-76,9 c3,11,4,23,4,37 l0,167 l215,0 l0,-187 c-44,-21,-102,-26,-143,-26 Z M1203,568 c22,-24,34,-61,34,-87 c0,-52,-37,-81,-97,-99 l-182,0 l0,186 Z M1227,329 c69,14,127,64,127,136 c0,36,-13,72,-43,99 l0,4 l173,0 l0,-213 c0,-82,-49,-134,-131,-134 c-78,0,-118,52,-126,108 Z M1227,329" fill="rgb(0,0,0)" transform="matrix(0.1,0.0,0.0,-0.1,8.0,135.0)"/>
</svg>