<?xml version="1.0" encoding="UTF-8"?>
<svg height="200.0" version="1.1" width="150.0" xmlns="http://www.w3.org/2000/svg" xmlns:xlink="http://www.w3.org/1999/xlink">
 <path d="M0,0 l150,0 l0,200 l-150,0 Z M0,0" fill="rgb(255,255,255)" transform="matrix(1,0,0,-1,0.0,200.0)"/>
 <path d="M0,0 l150,0" fill="none" stroke="rgb(229,229,229)" stroke-width="2" transform="matrix(1,0,0,-1,0.0,135.0)"/>
 <path d="M0,1 l0,-5" fill="none" stroke="rgb(204,204,204)" stroke-width="2" transform="matrix(1,0,0,-1,8.0,135.0)"/>
 <path d="M0,1 l0,-5" fill="none" stroke="rgb(204,204,204)" stroke-width="2" transform="matrix(1,0,0,-1,143.0,135.0)"/>
 <path d="M702,355 c-29,0,-54,3,-76,9 c3,11,4,23,4,37 l0,167 l237,0 c22,-24,35,-61,35,-87 c0,-63,-55,-92,-137,-109 c0,-4,1,-7,1,-11 c-20,-4,-41,-6,-64,-6 Z M1144,178 l4,0 l0,-178 l116,0 l0,568 l111,0 l0,92 l-1402,0 l0,-92 l541,0 l0,-163 c0,-40,-20,-55,-50,-55 c-33,0,-54,19,-76,45 l-14,18 l-276,0 l-82,-60 c1,-88,43,-144,95,-170 l58,26 l0,103 l142,0 l258,-325 l94,60 l-101,126 c-35,43,-55,65,-77,87 l1,4 c10,-1,23,1,33,2 c21,3,40,10,57,21 c35,-22,83,-35,139,-35 c27,0,52,3,75,9 c39,-89,116,-139,211,-139 c73,0,120,30,143,56 Z M891,329 c70,14,127,64,127,136 c0,36,-12,72,-42,99 l0,4 l173,0 l0,-213 c0,-82,-49,-134,-131,-134 c-79,0,-119,52,-127,108 Z M891,329" fill="rgb(0,0,0)" transform="matrix(0.1,0.0,0.0,-0.1,8.0,135.0)"/>
</svg>