<?xml version="1.0" encoding="UTF-8"?>
<svg height="200.0" version="1.1" width="110.0" xmlns="http://www.w3.org/2000/svg" xmlns:xlink="http://www.w3.org/1999/xlink">
 <path d="M0,0 l110,0 l0,200 l-110,0 Z M0,0" fill="rgb(255,255,255)" transform="matrix(1,0,0,-1,0.0,200.0)"/>
 <path d="M0,0 l110,0" fill="none" stroke="rgb(229,229,229)" stroke-width="2" transform="matrix(1,0,0,-1,0.0,135.0)"/>
 <path d="M0,1 l0,-5" fill="none" stroke="rgb(204,204,204)" stroke-width="2" transform="matrix(1,0,0,-1,8.0,135.0)"/>
 <path d="M0,1 l0,-5" fill="none" stroke="rgb(204,204,204)" stroke-width="2" transform="matrix(1,0,0,-1,103.0,135.0)"/>
 <path d="M603,193 c-67,0,-103,38,-103,87 c0,57,39,94,111,94 l67,0 l0,99 l-365,0 l0,-100 l117,0 l0,-4 c-19,-14,-41,-39,-47,-83 c-30,-18,-66,-27,-105,-27 c-55,0,-86,28,-86,88 l0,221 l561,0 l0,-199 c0,-111,-61,-176,-150,-176 Z M753,165 l0,-165 l116,0 l0,568 l111,0 l0,92 l-1007,0 l0,-92 l103,0 l0,-231 c0,-103,64,-178,186,-178 c62,0,106,11,138,26 c28,-53,88,-91,177,-91 c100,0,151,44,172,71 Z M753,165" fill="rgb(0,0,0)" transform="matrix(0.1,0.0,0.0,-0.1,8.0,135.0)"/>
</svg>