<?xml version="1.0" encoding="UTF-8"?>
<svg height="200.0" version="1.1" width="100.0" xmlns="http://www.w3.org/2000/svg" xmlns:xlink="http://www.w3.org/1999/xlink">
 <path d="M0,0 l100,0 l0,200 l-100,0 Z M0,0" fill="rgb(255,255,255)" transform="matrix(1,0,0,-1,0.0,200.0)"/>
 <path d="M0,0 l100,0" fill="none" stroke="rgb(229,229,229)" stroke-width="2" transform="matrix(1,0,0,-1,0.0,135.0)"/>
 <path d="M0,1 l0,-5" fill="none" stroke="rgb(204,204,204)" stroke-width="2" transform="matrix(1,0,0,-1,8.0,135.0)"/>
 <path d="M0,1 l0,-5" fill="none" stroke="rgb(204,204,204)" stroke-width="2" transform="matrix(1,0,0,-1,92.0,135.0)"/>
 <path d="M256,180 c42,0,77,8,106,20 c31,-95,124,-169,250,-169 c75,0,151,21,214,83 l-58,93 c-50,-53,-102,-75,-170,-75 c-91,0,-133,59,-133,113 c0,53,16,89,119,117 l145,39 l0,167 l134,0 l0,92 l-890,0 l0,-92 l103,0 l0,-211 c0,-103,60,-177,180,-177 Z M271,279 c-51,0,-79,27,-79,88 l0,201 l418,0 l0,-87 l-92,-27 c-96,-27,-148,-71,-162,-143 c-23,-19,-51,-32,-85,-32 Z M271,279" fill="rgb(0,0,0)" transform="matrix(0.1,0.0,0.0,-0.1,8.0,135.0)"/>
</svg>