<?xml version="1.0" encoding="UTF-8"?>
<svg height="200.0" version="1.1" width="142.0" xmlns="http://www.w3.org/2000/svg" xmlns:xlink="http://www.w3.org/1999/xlink">
 <path d="M0,0 l142,0 l0,200 l-142,0 Z M0,0" fill="rgb(255,255,255)" transform="matrix(1,0,0,-1,0.0,200.0)"/>
 <path d="M0,0 l142,0" fill="none" stroke="rgb(229,229,229)" stroke-width="2" transform="matrix(1,0,0,-1,0.0,135.0)"/>
 <path d="M0,1 l0,-5" fill="none" stroke="rgb(204,204,204)" stroke-width="2" transform="matrix(1,0,0,-1,8.0,135.0)"/>
 <path d="M0,1 l0,-5" fill="none" stroke="rgb(204,204,204)" stroke-width="2" transform="matrix(1,0,0,-1,134.0,135.0)"/>
 <path d="M271,279 c-51,0,-79,27,-79,88 l0,201 l588,0 c21,-24,34,-61,34,-87 c0,-36,-18,-61,-48,-79 c-39,42,-103,58,-166,58 l-43,0 c-82,0,-164,-43,-188,-137 c-25,-25,-57,-44,-98,-44 Z M256,180 c45,0,82,9,112,22 c20,-96,82,-169,143,-213 l85,72 c-68,49,-115,116,-115,201 c0,66,42,97,97,97 l16,0 c43,0,67,-9,87,-22 c21,-137,114,-215,232,-215 c73,0,121,30,144,56 l4,0 l0,-178 l116,0 l0,568 l111,0 l0,92 l-1315,0 l0,-92 l103,0 l0,-211 c0,-103,60,-177,180,-177 Z M804,329 c69,14,126,64,126,136 c0,36,-12,72,-42,99 l0,4 l173,0 l0,-213 c0,-82,-49,-134,-131,-134 c-78,0,-118,52,-126,108 Z M804,329" fill="rgb(0,0,0)" transform="matrix(0.1,0.0,0.0,-0.1,8.0,135.0)"/>
</svg>