<?xml version="1.0" encoding="UTF-8"?>
<svg height="200.0" version="1.1" width="106.0" xmlns="http://www.w3.org/2000/svg" xmlns:xlink="http://www.w3.org/1999/xlink">
 <path d="M0,0 l106,0 l0,200 l-106,0 Z M0,0" fill="rgb(255,255,255)" transform="matrix(1,0,0,-1,0.0,200.0)"/>
 <path d="M0,0 l106,0" fill="none" stroke="rgb(229,229,229)" stroke-width="2" transform="matrix(1,0,0,-1,0.0,135.0)"/>
 <path d="M0,1 l0,-5" fill="none" stroke="rgb(204,204,204)" stroke-width="2" transform="matrix(1,0,0,-1,8.0,135.0)"/>
 <path d="M0,1 l0,-5" fill="none" stroke="rgb(204,204,204)" stroke-width="2" transform="matrix(1,0,0,-1,98.0,135.0)"/>
 <path d="M271,282 c-51,0,-79,26,-79,87 l0,199 l230,0 l0,-213 l-53,-41 c-33,-23,-66,-32,-98,-32 Z M819,0 l0,568 l111,0 l0,92 l-957,0 l0,-92 l103,0 l0,-209 c0,-103,60,-177,180,-177 c60,0,105,15,138,36 c12,-23,28,-45,49,-61 l90,0 l0,100 l172,0 l0,-257 Z M705,568 l0,-208 l-169,0 l0,208 Z M705,568" fill="rgb(0,0,0)" transform="matrix(0.1,0.0,0.0,-0.1,8.0,135.0)"/>
</svg>