<?xml version="1.0" encoding="UTF-8"?>
<svg height="200.0" version="1.1" width="104.0" xmlns="http://www.w3.org/2000/svg" xmlns:xlink="http://www.w3.org/1999/xlink">
 <path d="M0,0 l104,0 l0,200 l-104,0 Z M0,0" fill="rgb(255,255,255)" transform="matrix(1,0,0,-1,0.0,200.0)"/>
 <path d="M0,0 l104,0" fill="none" stroke="rgb(229,229,229)" stroke-width="2" transform="matrix(1,0,0,-1,0.0,135.0)"/>
 <path d="M0,1 l0,-5" fill="none" stroke="rgb(204,204,204)" stroke-width="2" transform="matrix(1,0,0,-1,8.0,135.0)"/>
 <path d="M0,1 l0,-5" fill="none" stroke="rgb(204,204,204)" stroke-width="2" transform="matrix(1,0,0,-1,96.0,135.0)"/>
 <path d="M256,180 c46,0,83,9,114,23 c32,-64,98,-103,175,-103 c68,0,110,27,130,49 l4,0 l0,-149 l116,0 l0,568 l111,0 l0,92 l-933,0 l0,-92 l103,0 l0,-211 c0,-103,60,-177,180,-177 Z M566,200 c-58,0,-96,37,-96,93 c0,78,72,107,137,88 l-9,102 c-122,21,-239,-42,-248,-176 c-21,-17,-48,-28,-79,-28 c-51,0,-79,27,-79,88 l0,201 l487,0 l0,-241 c0,-70,-40,-127,-113,-127 Z M566,200" fill="rgb(0,0,0)" transform="matrix(0.1,0.0,0.0,-0.1,8.0,135.0)"/>
</svg>