<?xml version="1.0" encoding="UTF-8"?>
<svg height="200.0" version="1.1" width="122.0" xmlns="http://www.w3.org/2000/svg" xmlns:xlink="http://www.w3.org/1999/xlink">
 <path d="M0,0 l122,0 l0,200 l-122,0 Z M0,0" fill="rgb(255,255,255)" transform="matrix(1,0,0,-1,0.0,200.0)"/>
 <path d="M0,0 l122,0" fill="none" stroke="rgb(229,229,229)" stroke-width="2" transform="matrix(1,0,0,-1,0.0,135.0)"/>
 <path d="M0,1 l0,-5" fill="none" stroke="rgb(204,204,204)" stroke-width="2" transform="matrix(1,0,0,-1,8.0,135.0)"/>
 <path d="M0,1 l0,-5" fill="none" stroke="rgb(204,204,204)" stroke-width="2" transform="matrix(1,0,0,-1,115.0,135.0)"/>
 <path d="M256,180 c59,0,103,15,136,36 l15,-11 l240,-226 l96,67 l-108,100 c-49,45,-88,72,-120,92 l1,4 c130,-1,257,76,257,233 c0,99,-64,194,-199,194 c-102,0,-175,-70,-175,-153 c0,-64,34,-114,97,-131 l69,70 c-34,10,-51,36,-51,63 c0,31,23,57,64,57 c41,0,77,-34,77,-101 c0,-88,-66,-141,-158,-141 c-31,0,-69,6,-103,20 l-3,-3 c-29,-40,-67,-71,-120,-71 c-51,0,-79,27,-79,88 l0,201 l142,0 l0,92 l-361,0 l0,-92 l103,0 l0,-211 c0,-103,60,-177,180,-177 Z M869,0 l117,0 l0,568 l111,0 l0,92 l-228,0 Z M869,0" fill="rgb(0,0,0)" transform="matrix(0.1,0.0,0.0,-0.1,8.0,135.0)"/>
</svg>