<?xml version="1.0" encoding="UTF-8"?>
<svg height="200.0" version="1.1" width="116.0" xmlns="http://www.w3.org/2000/svg" xmlns:xlink="http://www.w3.org/1999/xlink">
 <path d="M0,0 l116,0 l0,200 l-116,0 Z M0,0" fill="rgb(255,255,255)" transform="matrix(1,0,0,-1,0.0,200.0)"/>
 <path d="M0,0 l116,0" fill="none" stroke="rgb(229,229,229)" stroke-width="2" transform="matrix(1,0,0,-1,0.0,135.0)"/>
 <path d="M0,1 l0,-5" fill="none" stroke="rgb(204,204,204)" stroke-width="2" transform="matrix(1,0,0,-1,8.0,135.0)"/>
 <path d="M0,1 l0,-5" fill="none" stroke="rgb(204,204,204)" stroke-width="2" transform="matrix(1,0,0,-1,109.0,135.0)"/>
 <path d="M271,279 c-51,0,-79,27,-79,88 l0,201 l345,0 l0,-165 c0,-40,-20,-56,-51,-56 c-35,0,-55,19,-81,52 l-88,-69 l24,-30 c-20,-13,-43,-21,-70,-21 Z M725,355 c-29,0,-55,3,-76,9 c2,11,3,23,3,36 l0,168 l161,0 l0,-198 c-26,-10,-57,-15,-88,-15 Z M509,261 c5,-1,13,-1,18,-1 c28,2,53,11,74,26 c34,-20,82,-33,137,-33 c28,0,52,3,75,8 l0,-261 l117,0 l0,568 l111,0 l0,92 l-1068,0 l0,-92 l103,0 l0,-211 c0,-103,60,-177,180,-177 c64,0,111,17,147,42 l188,-238 l95,60 l-101,126 c-35,43,-55,65,-77,87 Z M509,261" fill="rgb(0,0,0)" transform="matrix(0.1,0.0,0.0,-0.1,8.0,135.0)"/>
</svg>