<?xml version="1.0" encoding="UTF-8"?>
<svg height="200.0" version="1.1" width="150.0" xmlns="http://www.w3.org/2000/svg" xmlns:xlink="http://www.w3.org/1999/xlink">
 <path d="M0,0 l150,0 l0,200 l-150,0 Z M0,0" fill="rgb(255,255,255)" transform="matrix(1,0,0,-1,0.0,200.0)"/>
 <path d="M0,0 l150,0" fill="none" stroke="rgb(229,229,229)" stroke-width="2" transform="matrix(1,0,0,-1,0.0,135.0)"/>
 <path d="M0,1 l0,-5" fill="none" stroke="rgb(204,204,204)" stroke-width="2" transform="matrix(1,0,0,-1,8.0,135.0)"/>
 <path d="M0,1 l0,-5" fill="none" stroke="rgb(204,204,204)" stroke-width="2" transform="matrix(1,0,0,-1,142.0,135.0)"/>
 <path d="M598,480 c-54,0,-99,-24,-120,-47 l-4,0 l0,135 l669,0 l0,-114 l-244,0 l-46,-84 l0,-8 c46,-17,83,-53,83,-101 c0,-43,-28,-68,-69,-68 c-95,0,-146,128,-155,250 c-31,24,-71,37,-114,37 Z M361,381 c0,-56,-31,-100,-98,-100 c-50,0,-71,26,-71,87 l0,200 l169,0 Z M474,274 c0,64,43,109,103,109 c13,0,25,-2,35,-5 c21,-119,96,-286,264,-286 c104,0,172,67,172,158 c0,51,-22,88,-48,107 l0,4 l143,0 l0,-361 l117,0 l0,568 l111,0 l0,92 l-1398,0 l0,-92 l103,0 l0,-216 c0,-104,56,-173,167,-173 c60,0,96,24,113,44 l4,0 l0,-223 l114,0 Z M679,-12 c0,-35,28,-63,64,-63 c38,0,66,28,66,63 c0,39,-28,67,-66,67 c-36,0,-64,-28,-64,-67 Z M85,44 c0,-35,28,-63,64,-63 c38,0,66,28,66,63 c0,39,-28,67,-66,67 c-36,0,-64,-28,-64,-67 Z M85,44" fill="rgb(0,0,0)" transform="matrix(0.1,0.0,0.0,-0.1,8.0,135.0)"/>
</svg>