<?xml version="1.0" encoding="UTF-8"?>
<svg height="200.0" version="1.1" width="126.0" xmlns="http://www.w3.org/2000/svg" xmlns:xlink="http://www.w3.org/1999/xlink">
 <path d="M0,0 l126,0 l0,200 l-126,0 Z M0,0" fill="rgb(255,255,255)" transform="matrix(1,0,0,-1,0.0,200.0)"/>
 <path d="M0,0 l126,0" fill="none" stroke="rgb(229,229,229)" stroke-width="2" transform="matrix(1,0,0,-1,0.0,135.0)"/>
 <path d="M0,1 l0,-5" fill="none" stroke="rgb(204,204,204)" stroke-width="2" transform="matrix(1,0,0,-1,8.0,135.0)"/>
 <path d="M0,1 l0,-5" fill="none" stroke="rgb(204,204,204)" stroke-width="2" transform="matrix(1,0,0,-1,119.0,135.0)"/>
 <path d="M604,483 c-68,0,-108,-31,-126,-51 l-4,0 l0,136 l413,0 l0,-87 l-92,-27 c-23,-7,-44,-14,-62,-23 c-33,33,-78,52,-129,52 Z M361,381 c0,-56,-31,-100,-98,-100 c-50,0,-71,26,-71,87 l0,200 l169,0 Z M474,265 c0,65,40,119,107,119 c29,0,52,-10,67,-28 c-13,-25,-20,-54,-20,-89 c0,-125,106,-236,261,-236 c74,0,150,21,213,83 l-58,93 c-50,-53,-101,-75,-169,-75 c-91,0,-134,59,-134,113 c0,53,17,89,119,117 l145,39 l0,167 l134,0 l0,92 l-1166,0 l0,-92 l103,0 l0,-216 c0,-104,56,-173,167,-173 c60,0,96,24,113,44 l4,0 l0,-223 l114,0 Z M85,44 c0,-35,28,-63,64,-63 c38,0,66,28,66,63 c0,39,-28,67,-66,67 c-36,0,-64,-28,-64,-67 Z M85,44" fill="rgb(0,0,0)" transform="matrix(0.1,0.0,0.0,-0.1,8.0,135.0)"/>
</svg>