<?xml version="1.0" encoding="UTF-8"?>
<svg height="200.0" version="1.1" width="130.0" xmlns="http://www.w3.org/2000/svg" xmlns:xlink="http://www.w3.org/1999/xlink">
 <path d="M0,0 l130,0 l0,200 l-130,0 Z M0,0" fill="rgb(255,255,255)" transform="matrix(1,0,0,-1,0.0,200.0)"/>
 <path d="M0,0 l130,0" fill="none" stroke="rgb(229,229,229)" stroke-width="2" transform="matrix(1,0,0,-1,0.0,135.0)"/>
 <path d="M0,1 l0,-5" fill="none" stroke="rgb(204,204,204)" stroke-width="2" transform="matrix(1,0,0,-1,8.0,135.0)"/>
 <path d="M0,1 l0,-5" fill="none" stroke="rgb(204,204,204)" stroke-width="2" transform="matrix(1,0,0,-1,123.0,135.0)"/>
 <path d="M478,433 l-4,0 l0,135 l479,0 l0,-108 l-136,0 c-35,0,-70,-8,-100,-24 c-31,28,-74,44,-119,44 c-54,0,-99,-24,-120,-47 Z M361,381 c0,-56,-31,-100,-98,-100 c-50,0,-71,26,-71,87 l0,200 l169,0 Z M856,61 c-68,49,-115,116,-115,201 c0,66,42,97,97,97 l115,0 l0,-359 l116,0 l0,568 l112,0 l0,92 l-1208,0 l0,-92 l103,0 l0,-216 c0,-104,56,-173,167,-173 c60,0,96,24,113,44 l4,0 l0,-223 l114,0 l0,274 c0,64,43,109,103,109 c29,0,51,-8,67,-20 c-14,-27,-22,-59,-22,-98 c0,-127,75,-223,148,-276 Z M85,44 c0,-35,28,-63,64,-63 c38,0,66,28,66,63 c0,39,-28,67,-66,67 c-36,0,-64,-28,-64,-67 Z M85,44" fill="rgb(0,0,0)" transform="matrix(0.1,0.0,0.0,-0.1,8.0,135.0)"/>
</svg>