<?xml version="1.0" encoding="UTF-8"?>
<svg height="200.0" version="1.1" width="132.0" xmlns="http://www.w3.org/2000/svg" xmlns:xlink="http://www.w3.org/1999/xlink">
 <path d="M0,0 l132,0 l0,200 l-132,0 Z M0,0" fill="rgb(255,255,255)" transform="matrix(1,0,0,-1,0.0,200.0)"/>
 <path d="M0,0 l132,0" fill="none" stroke="rgb(229,229,229)" stroke-width="2" transform="matrix(1,0,0,-1,0.0,135.0)"/>
 <path d="M0,1 l0,-5" fill="none" stroke="rgb(204,204,204)" stroke-width="2" transform="matrix(1,0,0,-1,8.0,135.0)"/>
 <path d="M0,1 l0,-5" fill="none" stroke="rgb(204,204,204)" stroke-width="2" transform="matrix(1,0,0,-1,124.0,135.0)"/>
 <path d="M478,433 l-4,0 l0,135 l186,0 l0,-99 c-19,7,-40,11,-62,11 c-54,0,-99,-24,-120,-47 Z M577,383 c40,0,68,-16,83,-36 c4,-102,67,-167,171,-167 c49,0,99,16,130,52 l4,0 l0,-232 l116,0 l0,568 l111,0 l0,92 l-1219,0 l0,-92 l103,0 l0,-216 c0,-104,56,-173,167,-173 c60,0,96,24,113,44 l4,0 l0,-223 l114,0 l0,274 c0,64,43,109,103,109 Z M361,381 c0,-56,-31,-100,-98,-100 c-50,0,-71,26,-71,87 l0,200 l169,0 Z M965,408 c0,-76,-41,-129,-110,-129 c-51,0,-79,27,-79,88 l0,201 l189,0 Z M965,408" fill="rgb(0,0,0)" transform="matrix(0.1,0.0,0.0,-0.1,8.0,135.0)"/>
</svg>