<?xml version="1.0" encoding="UTF-8"?>
<svg height="200.0" version="1.1" width="156.0" xmlns="http://www.w3.org/2000/svg" xmlns:xlink="http://www.w3.org/1999/xlink">
 <path d="M0,0 l156,0 l0,200 l-156,0 Z M0,0" fill="rgb(255,255,255)" transform="matrix(1,0,0,-1,0.0,200.0)"/>
 <path d="M0,0 l156,0" fill="none" stroke="rgb(229,229,229)" stroke-width="2" transform="matrix(1,0,0,-1,0.0,135.0)"/>
 <path d="M0,1 l0,-5" fill="none" stroke="rgb(204,204,204)" stroke-width="2" transform="matrix(1,0,0,-1,8.0,135.0)"/>
 <path d="M0,1 l0,-5" fill="none" stroke="rgb(204,204,204)" stroke-width="2" transform="matrix(1,0,0,-1,148.0,135.0)"/>
 <path d="M478,433 l-4,0 l0,135 l184,0 l0,-98 c-19,7,-39,10,-60,10 c-54,0,-99,-24,-120,-47 Z M577,383 c38,0,65,-15,81,-33 c0,-102,56,-171,168,-171 c59,0,96,24,113,44 l4,0 l0,-223 l113,0 l0,265 c0,65,40,119,108,119 c51,0,86,-34,86,-85 c0,-63,-49,-106,-125,-91 l18,-102 c120,-12,223,62,223,195 c0,110,-80,182,-180,182 c-68,0,-108,-31,-126,-51 l-4,0 l0,136 l370,0 l0,92 l-1453,0 l0,-92 l103,0 l0,-216 c0,-104,56,-173,167,-173 c60,0,96,24,113,44 l4,0 l0,-223 l114,0 l0,274 c0,64,43,109,103,109 Z M361,381 c0,-56,-31,-100,-98,-100 c-50,0,-71,26,-71,87 l0,200 l169,0 Z M943,381 c0,-56,-31,-100,-98,-100 c-49,0,-71,26,-71,87 l0,200 l169,0 Z M672,45 c0,-34,27,-62,62,-62 c37,0,64,28,64,62 c0,38,-27,64,-64,64 c-35,0,-62,-26,-62,-64 Z M86,45 c0,-34,28,-62,62,-62 c38,0,64,28,64,62 c0,38,-26,64,-64,64 c-34,0,-62,-26,-62,-64 Z M86,45" fill="rgb(0,0,0)" transform="matrix(0.1,0.0,0.0,-0.1,8.0,135.0)"/>
</svg>