<?xml version="1.0" encoding="UTF-8"?>
<svg height="200.0" version="1.1" width="146.0" xmlns="http://www.w3.org/2000/svg" xmlns:xlink="http://www.w3.org/1999/xlink">
 <path d="M0,0 l146,0 l0,200 l-146,0 Z M0,0" fill="rgb(255,255,255)" transform="matrix(1,0,0,-1,0.0,200.0)"/>
 <path d="M0,0 l146,0" fill="none" stroke="rgb(229,229,229)" stroke-width="2" transform="matrix(1,0,0,-1,0.0,135.0)"/>
 <path d="M0,1 l0,-5" fill="none" stroke="rgb(204,204,204)" stroke-width="2" transform="matrix(1,0,0,-1,8.0,135.0)"/>
 <path d="M0,1 l0,-5" fill="none" stroke="rgb(204,204,204)" stroke-width="2" transform="matrix(1,0,0,-1,138.0,135.0)"/>
 <path d="M799,264 c5,-1,13,-1,18,-1 c27,2,51,10,72,24 c35,-21,83,-35,139,-35 c27,0,51,3,75,8 l0,-260 l117,0 l0,568 l111,0 l0,92 l-1358,0 l0,-92 l103,0 l0,-216 c0,-104,56,-173,167,-173 c60,0,96,24,113,44 l4,0 l0,-223 l114,0 l0,270 c0,65,32,100,73,100 c31,0,50,-25,81,-64 l253,-319 l95,60 l-101,126 c-35,43,-55,65,-77,87 Z M776,350 c-35,0,-55,19,-81,52 l-1,-1 c-43,51,-75,66,-123,66 c-41,0,-74,-20,-93,-42 l-4,0 l0,143 l353,0 l0,-162 c0,-40,-20,-56,-51,-56 Z M361,381 c0,-56,-31,-100,-98,-100 c-50,0,-71,26,-71,87 l0,200 l169,0 Z M1015,355 c-29,0,-55,3,-77,9 c3,12,4,25,4,39 l0,165 l161,0 l0,-198 c-26,-11,-56,-15,-88,-15 Z M86,45 c0,-34,28,-62,62,-62 c38,0,64,28,64,62 c0,38,-26,64,-64,64 c-34,0,-62,-26,-62,-64 Z M86,45" fill="rgb(0,0,0)" transform="matrix(0.1,0.0,0.0,-0.1,8.0,135.0)"/>
</svg>