<?xml version="1.0" encoding="UTF-8"?>
<svg height="200.0" version="1.1" width="164.0" xmlns="http://www.w3.org/2000/svg" xmlns:xlink="http://www.w3.org/1999/xlink">
 <path d="M0,0 l164,0 l0,200 l-164,0 Z M0,0" fill="rgb(255,255,255)" transform="matrix(1,0,0,-1,0.0,200.0)"/>
 <path d="M0,0 l164,0" fill="none" stroke="rgb(229,229,229)" stroke-width="2" transform="matrix(1,0,0,-1,0.0,135.0)"/>
 <path d="M0,1 l0,-5" fill="none" stroke="rgb(204,204,204)" stroke-width="2" transform="matrix(1,0,0,-1,8.0,135.0)"/>
 <path d="M0,1 l0,-5" fill="none" stroke="rgb(204,204,204)" stroke-width="2" transform="matrix(1,0,0,-1,156.0,135.0)"/>
 <path d="M254,99 c88,0,154,43,195,97 c43,-60,106,-104,193,-104 c104,0,172,67,172,158 c0,51,-22,88,-47,107 l0,4 l61,0 c32,0,53,-5,69,-13 c18,-143,113,-226,234,-226 c73,0,121,30,144,56 l4,0 l0,-178 l116,0 l0,568 l111,0 l0,92 l-1533,0 l0,-92 l1025,0 c21,-24,34,-61,34,-87 c0,-36,-17,-61,-48,-78 c-36,37,-92,51,-150,51 l-169,0 l-46,-84 l0,-8 c46,-17,83,-53,83,-101 c0,-43,-27,-68,-69,-68 c-97,0,-149,137,-155,263 l-107,-52 c4,-35,14,-77,30,-118 c-6,-10,-13,-22,-23,-33 l-179,140 c17,10,38,15,59,15 c21,0,40,-1,63,-9 l-4,99 c-24,7,-45,9,-74,9 c-104,0,-206,-77,-206,-206 c0,-125,98,-202,217,-202 Z M260,194 c-66,0,-113,46,-113,110 c0,18,4,33,11,47 l175,-138 c-19,-11,-44,-19,-73,-19 Z M1022,329 c69,14,126,64,126,136 c0,36,-12,72,-42,99 l0,4 l173,0 l0,-213 c0,-82,-49,-134,-131,-134 c-78,0,-118,52,-126,108 Z M1022,329" fill="rgb(0,0,0)" transform="matrix(0.1,0.0,0.0,-0.1,8.0,135.0)"/>
</svg>