<?xml version="1.0" encoding="UTF-8"?>
<svg height="200.0" version="1.1" width="132.0" xmlns="http://www.w3.org/2000/svg" xmlns:xlink="http://www.w3.org/1999/xlink">
 <path d="M0,0 l132,0 l0,200 l-132,0 Z M0,0" fill="rgb(255,255,255)" transform="matrix(1,0,0,-1,0.0,200.0)"/>
 <path d="M0,0 l132,0" fill="none" stroke="rgb(229,229,229)" stroke-width="2" transform="matrix(1,0,0,-1,0.0,135.0)"/>
 <path d="M0,1 l0,-5" fill="none" stroke="rgb(204,204,204)" stroke-width="2" transform="matrix(1,0,0,-1,8.0,135.0)"/>
 <path d="M0,1 l0,-5" fill="none" stroke="rgb(204,204,204)" stroke-width="2" transform="matrix(1,0,0,-1,124.0,135.0)"/>
 <path d="M261,197 c-66,0,-114,44,-114,107 c0,18,4,33,10,47 l174,-138 c-22,-11,-45,-16,-70,-16 Z M256,102 c107,0,198,57,240,156 c25,-26,57,-47,97,-60 l142,34 c9,-6,21,-22,21,-45 c0,-58,-63,-83,-125,-83 l-22,0 l-125,79 c-29,-17,-41,-42,-41,-68 c0,-49,46,-96,136,-101 l171,-150 l119,64 l-164,101 l0,4 c85,11,155,68,155,156 c0,9,0,17,-1,25 c18,-5,38,-8,59,-8 c16,0,32,1,48,3 l0,-209 l112,0 l0,568 l111,0 l0,92 l-1216,0 l0,-92 l724,0 l0,-73 l-130,0 c-82,0,-127,-41,-127,-106 c0,-2,0,-4,0,-5 c-7,-57,-29,-103,-60,-135 l-182,144 c17,10,37,15,58,15 c21,0,44,-2,67,-10 l-6,100 c-24,7,-45,9,-74,9 c-104,0,-206,-76,-206,-205 c0,-124,97,-200,219,-200 Z M888,296 c-25,0,-54,5,-72,11 c-14,14,-29,23,-46,29 l-166,-37 c-30,8,-49,37,-49,59 c0,26,7,45,65,45 l189,0 l0,165 l157,0 l0,-260 c-24,-8,-51,-12,-78,-12 Z M888,296" fill="rgb(0,0,0)" transform="matrix(0.1,0.0,0.0,-0.1,8.0,135.0)"/>
</svg>