<?xml version="1.0" encoding="UTF-8"?>
<svg height="200.0" version="1.1" width="106.0" xmlns="http://www.w3.org/2000/svg" xmlns:xlink="http://www.w3.org/1999/xlink">
 <path d="M0,0 l106,0 l0,200 l-106,0 Z M0,0" fill="rgb(255,255,255)" transform="matrix(1,0,0,-1,0.0,200.0)"/>
 <path d="M0,0 l106,0" fill="none" stroke="rgb(229,229,229)" stroke-width="2" transform="matrix(1,0,0,-1,0.0,135.0)"/>
 <path d="M0,1 l0,-5" fill="none" stroke="rgb(204,204,204)" stroke-width="2" transform="matrix(1,0,0,-1,8.0,135.0)"/>
 <path d="M0,1 l0,-5" fill="none" stroke="rgb(204,204,204)" stroke-width="2" transform="matrix(1,0,0,-1,98.0,135.0)"/>
 <path d="M254,99 c72,0,131,28,174,67 c43,-69,125,-112,218,-112 c27,0,56,5,81,13 l68,-131 l132,33 l-122,147 c23,22,40,49,40,89 c0,54,-35,83,-69,99 l-76,-28 l0,-98 c-16,-14,-40,-23,-69,-23 c-64,-2,-122,40,-122,105 c0,58,33,91,132,116 l143,36 l0,156 l145,0 l0,92 l-956,0 l0,-92 l693,0 l0,-76 l-99,-24 c-117,-29,-170,-89,-171,-187 c-5,-9,-11,-18,-19,-28 l-179,140 c17,10,37,15,58,15 c21,0,44,-2,67,-10 l-6,100 c-24,7,-45,9,-74,9 c-104,0,-207,-78,-207,-207 c0,-130,100,-201,218,-201 Z M260,194 c-66,0,-114,45,-114,108 c0,18,4,35,11,49 l176,-137 c-20,-12,-44,-20,-73,-20 Z M260,194" fill="rgb(0,0,0)" transform="matrix(0.1,0.0,0.0,-0.1,8.0,135.0)"/>
</svg>