<?xml version="1.0" encoding="UTF-8"?>
<svg height="200.0" version="1.1" width="144.0" xmlns="http://www.w3.org/2000/svg" xmlns:xlink="http://www.w3.org/1999/xlink">
 <path d="M0,0 l144,0 l0,200 l-144,0 Z M0,0" fill="rgb(255,255,255)" transform="matrix(1,0,0,-1,0.0,200.0)"/>
 <path d="M0,0 l144,0" fill="none" stroke="rgb(229,229,229)" stroke-width="2" transform="matrix(1,0,0,-1,0.0,135.0)"/>
 <path d="M0,1 l0,-5" fill="none" stroke="rgb(204,204,204)" stroke-width="2" transform="matrix(1,0,0,-1,8.0,135.0)"/>
 <path d="M0,1 l0,-5" fill="none" stroke="rgb(204,204,204)" stroke-width="2" transform="matrix(1,0,0,-1,137.0,135.0)"/>
 <path d="M1205,0 l0,568 l111,0 l0,92 l-607,0 l0,-92 l380,0 l0,-241 c0,-70,-41,-127,-114,-127 c-57,0,-96,37,-96,93 c0,78,73,107,138,88 l-9,102 c-127,22,-249,-47,-249,-191 c0,-13,1,-26,3,-38 c-35,-31,-82,-53,-143,-53 c-75,0,-99,37,-99,72 c0,42,29,69,93,69 l62,0 l0,92 l-71,0 c-60,0,-89,27,-89,65 c0,37,31,63,61,74 l-17,87 l-586,0 l0,-92 l461,0 l0,-4 c-20,-12,-39,-37,-39,-73 c0,-61,44,-96,101,-101 l0,-4 c-38,-9,-82,-37,-93,-93 c-5,-10,-14,-25,-26,-40 l-179,140 c17,10,37,15,58,15 c21,0,44,-2,67,-10 l-6,100 c-24,7,-45,9,-74,9 c-104,0,-207,-78,-207,-207 c0,-130,100,-201,218,-201 c75,0,136,31,180,73 c33,-39,89,-64,164,-64 c95,0,161,27,206,58 c36,-42,90,-66,151,-66 c67,0,109,27,130,49 l4,0 l0,-149 Z M260,194 c-66,0,-114,45,-114,108 c0,18,4,35,11,49 l176,-137 c-20,-12,-44,-20,-73,-20 Z M260,194" fill="rgb(0,0,0)" transform="matrix(0.1,0.0,0.0,-0.1,8.0,135.0)"/>
</svg>