<?xml version="1.0" encoding="UTF-8"?>
<svg height="200.0" version="1.1" width="104.0" xmlns="http://www.w3.org/2000/svg" xmlns:xlink="http://www.w3.org/1999/xlink">
 <path d="M0,0 l104,0 l0,200 l-104,0 Z M0,0" fill="rgb(255,255,255)" transform="matrix(1,0,0,-1,0.0,200.0)"/>
 <path d="M0,0 l104,0" fill="none" stroke="rgb(229,229,229)" stroke-width="2" transform="matrix(1,0,0,-1,0.0,135.0)"/>
 <path d="M0,1 l0,-5" fill="none" stroke="rgb(204,204,204)" stroke-width="2" transform="matrix(1,0,0,-1,8.0,135.0)"/>
 <path d="M0,1 l0,-5" fill="none" stroke="rgb(204,204,204)" stroke-width="2" transform="matrix(1,0,0,-1,97.0,135.0)"/>
 <path d="M254,99 c86,0,154,41,198,92 c4,-2,7,-4,11,-6 l58,26 l0,103 l169,0 l0,-314 l116,0 l0,568 l111,0 l0,92 l-944,0 l0,-92 l717,0 l0,-153 l-240,0 l-82,-59 c0,-35,7,-65,18,-90 c-2,-4,-6,-9,-9,-13 l-179,140 c17,10,37,15,58,15 c21,0,44,-2,67,-10 l-6,100 c-24,7,-45,9,-74,9 c-104,0,-207,-78,-207,-207 c0,-130,100,-201,218,-201 Z M260,194 c-66,0,-114,45,-114,108 c0,18,4,35,11,49 l176,-137 c-20,-12,-44,-20,-73,-20 Z M260,194" fill="rgb(0,0,0)" transform="matrix(0.1,0.0,0.0,-0.1,8.0,135.0)"/>
</svg>