<?xml version="1.0" encoding="UTF-8"?>
<svg height="200.0" version="1.1" width="108.0" xmlns="http://www.w3.org/2000/svg" xmlns:xlink="http://www.w3.org/1999/xlink">
 <path d="M0,0 l108,0 l0,200 l-108,0 Z M0,0" fill="rgb(255,255,255)" transform="matrix(1,0,0,-1,0.0,200.0)"/>
 <path d="M0,0 l108,0" fill="none" stroke="rgb(229,229,229)" stroke-width="2" transform="matrix(1,0,0,-1,0.0,135.0)"/>
 <path d="M0,1 l0,-5" fill="none" stroke="rgb(204,204,204)" stroke-width="2" transform="matrix(1,0,0,-1,8.0,135.0)"/>
 <path d="M0,1 l0,-5" fill="none" stroke="rgb(204,204,204)" stroke-width="2" transform="matrix(1,0,0,-1,102.0,135.0)"/>
 <path d="M260,194 c-66,0,-114,45,-114,108 c0,18,4,35,11,49 l176,-137 c-20,-12,-44,-20,-73,-20 Z M851,568 l111,0 l0,92 l-989,0 l0,-92 l762,0 l0,-246 c0,-22,-5,-42,-15,-61 l-169,132 c17,10,37,15,58,15 c21,0,44,-2,67,-10 l-6,100 c-24,7,-45,9,-74,9 c-104,0,-207,-78,-207,-207 c0,-9,1,-19,2,-28 c-4,-6,-9,-12,-14,-19 l-179,140 c17,10,37,15,58,15 c21,0,44,-2,67,-10 l-6,100 c-24,7,-45,9,-74,9 c-104,0,-207,-78,-207,-207 c0,-130,100,-201,218,-201 c75,0,136,31,179,72 c36,-45,93,-72,159,-72 c65,0,114,26,138,53 l4,0 l0,-152 l117,0 Z M609,194 c-62,0,-110,45,-110,108 c0,18,4,35,11,49 l171,-134 c-20,-15,-44,-23,-72,-23 Z M609,194" fill="rgb(0,0,0)" transform="matrix(0.1,0.0,0.0,-0.1,8.0,135.0)"/>
</svg>