<?xml version="1.0" encoding="UTF-8"?>
<svg height="200.0" version="1.1" width="110.0" xmlns="http://www.w3.org/2000/svg" xmlns:xlink="http://www.w3.org/1999/xlink">
 <path d="M0,0 l110,0 l0,200 l-110,0 Z M0,0" fill="rgb(255,255,255)" transform="matrix(1,0,0,-1,0.0,200.0)"/>
 <path d="M0,0 l110,0" fill="none" stroke="rgb(229,229,229)" stroke-width="2" transform="matrix(1,0,0,-1,0.0,135.0)"/>
 <path d="M0,1 l0,-5" fill="none" stroke="rgb(204,204,204)" stroke-width="2" transform="matrix(1,0,0,-1,8.0,135.0)"/>
 <path d="M0,1 l0,-5" fill="none" stroke="rgb(204,204,204)" stroke-width="2" transform="matrix(1,0,0,-1,103.0,135.0)"/>
 <path d="M751,173 l4,0 l0,-173 l114,0 l0,568 l111,0 l0,92 l-300,0 l0,-92 l75,0 l0,-161 l-184,0 l0,102 c0,103,-64,151,-158,151 l-440,0 l0,-92 l416,0 c51,0,68,-20,68,-66 l0,-100 l-53,-41 c0,-15,3,-32,8,-51 c-5,-16,-16,-38,-33,-59 l-181,142 c17,10,37,15,58,15 c21,0,44,-2,67,-10 l-6,100 c-24,7,-45,9,-74,9 c-104,0,-206,-77,-206,-206 c0,-124,97,-202,217,-202 c97,0,172,50,214,114 c3,-3,6,-6,10,-9 l90,0 l0,102 l202,0 l0,-12 l-361,-239 l95,-77 Z M261,195 c-69,0,-114,45,-114,109 c0,18,4,33,10,47 l177,-138 c-20,-11,-44,-18,-73,-18 Z M261,195" fill="rgb(0,0,0)" transform="matrix(0.1,0.0,0.0,-0.1,8.0,135.0)"/>
</svg>