<?xml version="1.0" encoding="UTF-8"?>
<svg height="200.0" version="1.1" width="160.0" xmlns="http://www.w3.org/2000/svg" xmlns:xlink="http://www.w3.org/1999/xlink">
 <path d="M0,0 l160,0 l0,200 l-160,0 Z M0,0" fill="rgb(255,255,255)" transform="matrix(1,0,0,-1,0.0,200.0)"/>
 <path d="M0,0 l160,0" fill="none" stroke="rgb(229,229,229)" stroke-width="2" transform="matrix(1,0,0,-1,0.0,135.0)"/>
 <path d="M0,1 l0,-5" fill="none" stroke="rgb(204,204,204)" stroke-width="2" transform="matrix(1,0,0,-1,8.0,135.0)"/>
 <path d="M0,1 l0,-5" fill="none" stroke="rgb(204,204,204)" stroke-width="2" transform="matrix(1,0,0,-1,152.0,135.0)"/>
 <path d="M254,99 c65,0,120,24,161,57 c31,-72,89,-132,163,-171 l75,79 c-105,56,-145,133,-145,206 c0,74,36,97,71,97 c39,0,65,-26,65,-80 l0,-99 l107,0 l0,99 c0,55,23,83,60,83 c30,0,47,-21,54,-42 c24,-131,115,-206,231,-206 c73,0,121,30,144,56 l4,0 l0,-178 l116,0 l0,568 l111,0 l0,92 l-1498,0 l0,-92 l990,0 c22,-24,34,-61,34,-87 c0,-40,-21,-66,-58,-84 c-26,47,-67,75,-126,75 c-62,0,-103,-39,-116,-81 l-4,0 c-19,48,-63,76,-126,76 c-88,0,-176,-61,-176,-192 l0,-1 c-4,-7,-9,-14,-14,-21 l-179,140 c17,10,37,15,58,15 c21,0,44,-2,67,-10 l-6,100 c-24,7,-45,9,-74,9 c-104,0,-207,-78,-207,-207 c0,-130,100,-201,218,-201 Z M260,194 c-66,0,-114,45,-114,108 c0,18,4,35,11,49 l176,-137 c-20,-12,-44,-20,-73,-20 Z M987,329 c69,14,127,64,127,136 c0,36,-13,72,-43,99 l0,4 l173,0 l0,-213 c0,-82,-49,-134,-131,-134 c-78,0,-118,52,-126,108 Z M987,329" fill="rgb(0,0,0)" transform="matrix(0.1,0.0,0.0,-0.1,8.0,135.0)"/>
</svg>