<?xml version="1.0" encoding="UTF-8"?>
<svg height="200.0" version="1.1" width="130.0" xmlns="http://www.w3.org/2000/svg" xmlns:xlink="http://www.w3.org/1999/xlink">
 <path d="M0,0 l130,0 l0,200 l-130,0 Z M0,0" fill="rgb(255,255,255)" transform="matrix(1,0,0,-1,0.0,200.0)"/>
 <path d="M0,0 l130,0" fill="none" stroke="rgb(229,229,229)" stroke-width="2" transform="matrix(1,0,0,-1,0.0,135.0)"/>
 <path d="M0,1 l0,-5" fill="none" stroke="rgb(204,204,204)" stroke-width="2" transform="matrix(1,0,0,-1,8.0,135.0)"/>
 <path d="M0,1 l0,-5" fill="none" stroke="rgb(204,204,204)" stroke-width="2" transform="matrix(1,0,0,-1,122.0,135.0)"/>
 <path d="M379,660 l-406,0 l0,-92 l406,0 Z M255,100 c107,0,177,51,218,109 l6,-4 l240,-226 l96,67 l-108,100 c-48,45,-88,72,-119,92 l0,4 c130,-1,257,76,257,233 c0,99,-63,194,-199,194 c-102,0,-175,-70,-175,-153 c0,-64,35,-114,97,-131 l69,70 c-33,10,-50,36,-50,63 c0,31,22,57,63,57 c41,0,78,-34,78,-101 c0,-88,-66,-141,-159,-141 c-31,0,-69,6,-103,20 l-66,-87 l2,-1 c-5,-6,-11,-12,-17,-18 l-187,146 c17,10,37,15,58,15 c21,0,44,-2,67,-10 l-6,100 c-24,7,-45,9,-74,9 c-104,0,-208,-76,-208,-205 c0,-130,102,-202,220,-202 Z M261,195 c-70,0,-115,46,-115,109 c0,18,4,34,11,47 l179,-140 c-21,-10,-46,-16,-75,-16 Z M942,0 l116,0 l0,568 l111,0 l0,92 l-227,0 Z M942,0" fill="rgb(0,0,0)" transform="matrix(0.1,0.0,0.0,-0.1,8.0,135.0)"/>
</svg>