<?xml version="1.0" encoding="UTF-8"?>
<svg height="200.0" version="1.1" width="122.0" xmlns="http://www.w3.org/2000/svg" xmlns:xlink="http://www.w3.org/1999/xlink">
 <path d="M0,0 l122,0 l0,200 l-122,0 Z M0,0" fill="rgb(255,255,255)" transform="matrix(1,0,0,-1,0.0,200.0)"/>
 <path d="M0,0 l122,0" fill="none" stroke="rgb(229,229,229)" stroke-width="2" transform="matrix(1,0,0,-1,0.0,135.0)"/>
 <path d="M0,1 l0,-5" fill="none" stroke="rgb(204,204,204)" stroke-width="2" transform="matrix(1,0,0,-1,8.0,135.0)"/>
 <path d="M0,1 l0,-5" fill="none" stroke="rgb(204,204,204)" stroke-width="2" transform="matrix(1,0,0,-1,115.0,135.0)"/>
 <path d="M260,194 c-66,0,-114,45,-114,108 c0,18,4,35,11,49 l176,-137 c-20,-12,-44,-20,-73,-20 Z M254,99 c98,0,172,53,214,113 l181,-228 l95,60 l-101,126 c-35,43,-55,65,-77,87 l1,4 c5,-1,13,-1,18,-1 c28,2,53,11,74,26 c34,-20,82,-33,137,-33 c28,0,52,3,75,8 l0,-261 l117,0 l0,568 l111,0 l0,92 l-1126,0 l0,-92 l622,0 l0,-165 c0,-40,-20,-56,-51,-56 c-35,0,-55,19,-81,52 l-88,-69 l28,-36 c-5,-11,-14,-26,-26,-41 l-179,140 c17,10,37,15,58,15 c21,0,44,-2,67,-10 l-6,100 c-24,7,-45,9,-74,9 c-104,0,-207,-78,-207,-207 c0,-130,100,-201,218,-201 Z M783,355 c-29,0,-55,3,-76,9 c2,11,3,23,3,36 l0,168 l161,0 l0,-198 c-26,-10,-57,-15,-88,-15 Z M783,355" fill="rgb(0,0,0)" transform="matrix(0.1,0.0,0.0,-0.1,8.0,135.0)"/>
</svg>