<?xml version="1.0" encoding="UTF-8"?>
<svg height="200.0" version="1.1" width="114.0" xmlns="http://www.w3.org/2000/svg" xmlns:xlink="http://www.w3.org/1999/xlink">
 <path d="M0,0 l114,0 l0,200 l-114,0 Z M0,0" fill="rgb(255,255,255)" transform="matrix(1,0,0,-1,0.0,200.0)"/>
 <path d="M0,0 l114,0" fill="none" stroke="rgb(229,229,229)" stroke-width="2" transform="matrix(1,0,0,-1,0.0,135.0)"/>
 <path d="M0,1 l0,-5" fill="none" stroke="rgb(204,204,204)" stroke-width="2" transform="matrix(1,0,0,-1,8.0,135.0)"/>
 <path d="M0,1 l0,-5" fill="none" stroke="rgb(204,204,204)" stroke-width="2" transform="matrix(1,0,0,-1,106.0,135.0)"/>
 <path d="M776,178 l0,-178 l116,0 l0,568 l111,0 l0,92 l-664,0 l0,-92 l156,0 c22,-24,35,-61,35,-87 c0,-63,-55,-92,-138,-109 c0,-4,1,-8,1,-12 l-163,0 l0,149 c0,103,-64,151,-158,151 l-99,0 l0,-92 l75,0 c51,0,68,-20,68,-66 l0,-147 l-53,-41 c0,-47,25,-120,74,-157 l90,0 l0,100 l192,0 c39,-87,116,-135,209,-135 c73,0,121,30,144,56 Z M519,329 c70,14,127,64,127,136 c0,36,-12,72,-42,99 l0,4 l172,0 l0,-213 c0,-82,-49,-134,-131,-134 c-78,0,-118,52,-126,108 Z M519,329" fill="rgb(0,0,0)" transform="matrix(0.1,0.0,0.0,-0.1,8.0,135.0)"/>
</svg>