<?xml version="1.0" encoding="UTF-8"?>
<svg height="200.0" version="1.1" width="114.0" xmlns="http://www.w3.org/2000/svg" xmlns:xlink="http://www.w3.org/1999/xlink">
 <path d="M0,0 l114,0 l0,200 l-114,0 Z M0,0" fill="rgb(255,255,255)" transform="matrix(1,0,0,-1,0.0,200.0)"/>
 <path d="M0,0 l114,0" fill="none" stroke="rgb(229,229,229)" stroke-width="2" transform="matrix(1,0,0,-1,0.0,135.0)"/>
 <path d="M0,1 l0,-5" fill="none" stroke="rgb(204,204,204)" stroke-width="2" transform="matrix(1,0,0,-1,8.0,135.0)"/>
 <path d="M0,1 l0,-5" fill="none" stroke="rgb(204,204,204)" stroke-width="2" transform="matrix(1,0,0,-1,106.0,135.0)"/>
 <path d="M774,178 l4,0 l0,-178 l116,0 l0,568 l111,0 l0,92 l-665,0 l0,-92 l157,0 c21,-24,34,-61,34,-87 c0,-33,-15,-57,-41,-74 l-258,0 l0,102 c0,103,-64,151,-159,151 l-100,0 l0,-92 l77,0 c50,0,68,-20,68,-66 l0,-100 l-54,-41 c1,-46,26,-119,75,-157 l89,0 l0,102 l176,0 c5,-19,11,-37,19,-53 l-332,-198 l94,-77 l293,200 c41,-37,93,-56,152,-56 c73,0,121,30,144,56 Z M521,329 c69,14,126,64,126,136 c0,36,-12,72,-42,99 l0,4 l173,0 l0,-213 c0,-82,-49,-134,-131,-134 c-78,0,-118,52,-126,108 Z M521,329" fill="rgb(0,0,0)" transform="matrix(0.1,0.0,0.0,-0.1,8.0,135.0)"/>
</svg>