<?xml version="1.0" encoding="UTF-8"?>
<svg height="200.0" version="1.1" width="124.0" xmlns="http://www.w3.org/2000/svg" xmlns:xlink="http://www.w3.org/1999/xlink">
 <path d="M0,0 l124,0 l0,200 l-124,0 Z M0,0" fill="rgb(255,255,255)" transform="matrix(1,0,0,-1,0.0,200.0)"/>
 <path d="M0,0 l124,0" fill="none" stroke="rgb(229,229,229)" stroke-width="2" transform="matrix(1,0,0,-1,0.0,135.0)"/>
 <path d="M0,1 l0,-5" fill="none" stroke="rgb(204,204,204)" stroke-width="2" transform="matrix(1,0,0,-1,8.0,135.0)"/>
 <path d="M0,1 l0,-5" fill="none" stroke="rgb(204,204,204)" stroke-width="2" transform="matrix(1,0,0,-1,116.0,135.0)"/>
 <path d="M880,445 c-17,17,-48,26,-78,26 c-43,0,-88,-26,-101,-80 l-4,0 c-19,48,-63,76,-126,76 c-66,0,-132,-34,-161,-107 l-180,0 l0,149 c0,103,-64,151,-158,151 l-99,0 l0,-92 l75,0 c51,0,68,-20,68,-66 l0,-147 l-53,-41 c0,-47,25,-120,74,-157 l90,0 l0,100 l169,0 c6,-116,80,-216,187,-272 l74,79 c-105,56,-145,133,-145,206 c0,74,36,98,71,98 c39,0,65,-28,65,-81 l0,-99 l107,0 l0,94 c0,60,24,88,69,88 c23,0,49,-12,60,-21 l0,-349 l116,0 l0,568 l111,0 l0,92 l-772,0 l0,-92 l545,0 l0,-123 Z M880,445" fill="rgb(0,0,0)" transform="matrix(0.1,0.0,0.0,-0.1,8.0,135.0)"/>
</svg>