<?xml version="1.0" encoding="UTF-8"?>
<svg height="200.0" version="1.1" width="146.0" xmlns="http://www.w3.org/2000/svg" xmlns:xlink="http://www.w3.org/1999/xlink">
 <path d="M0,0 l146,0 l0,200 l-146,0 Z M0,0" fill="rgb(255,255,255)" transform="matrix(1,0,0,-1,0.0,200.0)"/>
 <path d="M0,0 l146,0" fill="none" stroke="rgb(229,229,229)" stroke-width="2" transform="matrix(1,0,0,-1,0.0,135.0)"/>
 <path d="M0,1 l0,-5" fill="none" stroke="rgb(204,204,204)" stroke-width="2" transform="matrix(1,0,0,-1,8.0,135.0)"/>
 <path d="M0,1 l0,-5" fill="none" stroke="rgb(204,204,204)" stroke-width="2" transform="matrix(1,0,0,-1,138.0,135.0)"/>
 <path d="M1102,178 l0,-178 l116,0 l0,568 l111,0 l0,92 l-654,0 l0,-92 l147,0 c21,-24,34,-61,34,-87 c0,-63,-54,-94,-137,-111 c0,-3,0,-7,1,-10 l-154,0 l0,149 c0,103,-64,151,-158,151 l-435,0 l0,-92 l143,0 l0,-213 l-53,-41 c0,-47,25,-120,74,-157 l90,0 l0,100 l181,0 c12,-37,33,-76,65,-100 l90,0 l0,100 l182,0 c39,-87,116,-135,210,-135 c73,0,120,30,143,56 Z M845,329 c70,14,127,64,127,136 c0,36,-12,72,-42,99 l0,4 l173,0 l0,-213 c0,-82,-49,-134,-131,-134 c-78,0,-119,52,-127,108 Z M384,568 c51,0,68,-20,68,-66 l0,-142 l-222,0 l0,208 Z M384,568" fill="rgb(0,0,0)" transform="matrix(0.1,0.0,0.0,-0.1,8.0,135.0)"/>
</svg>