<?xml version="1.0" encoding="UTF-8"?>
<svg height="200.0" version="1.1" width="110.0" xmlns="http://www.w3.org/2000/svg" xmlns:xlink="http://www.w3.org/1999/xlink">
 <path d="M0,0 l110,0 l0,200 l-110,0 Z M0,0" fill="rgb(255,255,255)" transform="matrix(1,0,0,-1,0.0,200.0)"/>
 <path d="M0,0 l110,0" fill="none" stroke="rgb(229,229,229)" stroke-width="2" transform="matrix(1,0,0,-1,0.0,135.0)"/>
 <path d="M0,1 l0,-5" fill="none" stroke="rgb(204,204,204)" stroke-width="2" transform="matrix(1,0,0,-1,8.0,135.0)"/>
 <path d="M0,1 l0,-5" fill="none" stroke="rgb(204,204,204)" stroke-width="2" transform="matrix(1,0,0,-1,104.0,135.0)"/>
 <path d="M392,568 c50,0,68,-20,68,-66 l0,-100 l-54,-41 l0,-1 l-176,0 l0,208 Z M753,173 l4,0 l0,-173 l114,0 l0,568 l111,0 l0,92 l-300,0 l0,-92 l75,0 l0,-161 l-183,0 l0,102 c0,103,-64,151,-159,151 l-442,0 l0,-92 l143,0 l0,-213 l-53,-41 c0,-47,25,-120,74,-157 l90,0 l0,100 l210,0 c11,-20,26,-39,44,-53 l89,0 l0,102 l202,0 l0,-12 l-360,-239 l94,-77 Z M753,173" fill="rgb(0,0,0)" transform="matrix(0.1,0.0,0.0,-0.1,8.0,135.0)"/>
</svg>