<?xml version="1.0" encoding="UTF-8"?>
<svg height="200.0" version="1.1" width="124.0" xmlns="http://www.w3.org/2000/svg" xmlns:xlink="http://www.w3.org/1999/xlink">
 <path d="M0,0 l124,0 l0,200 l-124,0 Z M0,0" fill="rgb(255,255,255)" transform="matrix(1,0,0,-1,0.0,200.0)"/>
 <path d="M0,0 l124,0" fill="none" stroke="rgb(229,229,229)" stroke-width="2" transform="matrix(1,0,0,-1,0.0,135.0)"/>
 <path d="M0,1 l0,-5" fill="none" stroke="rgb(204,204,204)" stroke-width="2" transform="matrix(1,0,0,-1,8.0,135.0)"/>
 <path d="M0,1 l0,-5" fill="none" stroke="rgb(204,204,204)" stroke-width="2" transform="matrix(1,0,0,-1,116.0,135.0)"/>
 <path d="M876,445 c-17,17,-47,26,-77,26 c-43,0,-89,-26,-102,-80 l-4,0 c-18,48,-63,76,-125,76 c-66,0,-133,-34,-162,-107 l-176,0 l0,208 l650,0 l0,-123 Z M654,64 c-105,56,-146,133,-146,206 c0,74,37,98,71,98 c40,0,66,-28,66,-81 l0,-99 l107,0 l0,94 c0,60,24,88,68,88 c24,0,49,-12,60,-21 l0,-349 l117,0 l0,568 l111,0 l0,92 l-1135,0 l0,-92 l143,0 l0,-213 l-53,-41 c0,-47,25,-120,74,-157 l90,0 l0,100 l165,0 c7,-116,81,-216,187,-272 Z M654,64" fill="rgb(0,0,0)" transform="matrix(0.1,0.0,0.0,-0.1,8.0,135.0)"/>
</svg>