<?xml version="1.0" encoding="UTF-8"?>
<svg height="200.0" version="1.1" width="128.0" xmlns="http://www.w3.org/2000/svg" xmlns:xlink="http://www.w3.org/1999/xlink">
 <path d="M0,0 l128,0 l0,200 l-128,0 Z M0,0" fill="rgb(255,255,255)" transform="matrix(1,0,0,-1,0.0,200.0)"/>
 <path d="M0,0 l128,0" fill="none" stroke="rgb(229,229,229)" stroke-width="2" transform="matrix(1,0,0,-1,0.0,135.0)"/>
 <path d="M0,1 l0,-5" fill="none" stroke="rgb(204,204,204)" stroke-width="2" transform="matrix(1,0,0,-1,8.0,135.0)"/>
 <path d="M0,1 l0,-5" fill="none" stroke="rgb(204,204,204)" stroke-width="2" transform="matrix(1,0,0,-1,121.0,135.0)"/>
 <path d="M798,46 l-108,100 c-49,45,-88,72,-120,92 l1,4 c130,-1,257,76,257,233 c0,99,-64,194,-199,194 c-102,0,-175,-70,-175,-153 c0,-64,34,-114,97,-131 l69,70 c-34,10,-51,36,-51,63 c0,31,23,57,64,57 c41,0,77,-34,77,-101 c0,-88,-66,-141,-158,-141 c-29,0,-64,5,-97,18 l-17,9 l-208,0 l0,208 l143,0 l0,92 l-400,0 l0,-92 l143,0 l0,-213 l-53,-41 c0,-46,25,-119,74,-157 l90,0 l0,101 l166,0 l69,-53 l240,-226 Z M1041,0 l0,568 l111,0 l0,92 l-228,0 l0,-660 Z M1041,0" fill="rgb(0,0,0)" transform="matrix(0.1,0.0,0.0,-0.1,8.0,135.0)"/>
</svg>