<?xml version="1.0" encoding="UTF-8"?>
<svg height="200.0" version="1.1" width="182.0" xmlns="http://www.w3.org/2000/svg" xmlns:xlink="http://www.w3.org/1999/xlink">
 <path d="M0,0 l182,0 l0,200 l-182,0 Z M0,0" fill="rgb(255,255,255)" transform="matrix(1,0,0,-1,0.0,200.0)"/>
 <path d="M0,0 l182,0" fill="none" stroke="rgb(229,229,229)" stroke-width="2" transform="matrix(1,0,0,-1,0.0,135.0)"/>
 <path d="M0,1 l0,-5" fill="none" stroke="rgb(204,204,204)" stroke-width="2" transform="matrix(1,0,0,-1,8.0,135.0)"/>
 <path d="M0,1 l0,-5" fill="none" stroke="rgb(204,204,204)" stroke-width="2" transform="matrix(1,0,0,-1,174.0,135.0)"/>
 <path d="M215,467 c-88,0,-177,-61,-177,-192 c0,-124,76,-231,188,-290 l75,79 c-105,56,-146,133,-146,206 c0,74,37,97,71,97 c40,0,66,-26,66,-80 l0,-99 l107,0 l0,99 c0,55,27,83,70,83 c16,0,30,-4,41,-9 c-6,-20,-10,-42,-10,-66 c0,-111,83,-184,182,-184 c60,0,98,26,116,46 l4,0 l0,-157 l115,0 l0,275 c0,66,41,101,92,101 c35,0,55,-16,67,-40 c21,-136,114,-214,232,-214 c73,0,121,30,144,56 l4,0 l0,-178 l116,0 l0,568 l111,0 l0,92 l-1710,0 l0,-92 l829,0 l0,-255 c0,-60,-38,-105,-97,-105 c-52,0,-89,36,-89,86 c0,74,65,101,126,88 l-18,101 c-59,7,-115,-8,-156,-41 c-26,17,-60,30,-105,30 c-68,0,-106,-38,-119,-81 l-4,0 c-18,48,-63,76,-125,76 Z M1031,477 c-50,0,-89,-21,-110,-44 l-4,0 l0,135 l258,0 c22,-24,35,-61,35,-87 c0,-37,-19,-62,-51,-80 c-27,51,-74,76,-128,76 Z M1199,329 c70,14,127,64,127,136 c0,36,-12,72,-42,99 l0,4 l172,0 l0,-213 c0,-82,-49,-134,-131,-134 c-78,0,-118,52,-126,108 Z M1199,329" fill="rgb(0,0,0)" transform="matrix(0.1,0.0,0.0,-0.1,8.0,135.0)"/>
</svg>