<?xml version="1.0" encoding="UTF-8"?>
<svg height="200.0" version="1.1" width="144.0" xmlns="http://www.w3.org/2000/svg" xmlns:xlink="http://www.w3.org/1999/xlink">
 <path d="M0,0 l144,0 l0,200 l-144,0 Z M0,0" fill="rgb(255,255,255)" transform="matrix(1,0,0,-1,0.0,200.0)"/>
 <path d="M0,0 l144,0" fill="none" stroke="rgb(229,229,229)" stroke-width="2" transform="matrix(1,0,0,-1,0.0,135.0)"/>
 <path d="M0,1 l0,-5" fill="none" stroke="rgb(204,204,204)" stroke-width="2" transform="matrix(1,0,0,-1,8.0,135.0)"/>
 <path d="M0,1 l0,-5" fill="none" stroke="rgb(204,204,204)" stroke-width="2" transform="matrix(1,0,0,-1,137.0,135.0)"/>
 <path d="M215,467 c-88,0,-177,-61,-177,-192 c0,-124,76,-231,188,-290 l75,79 c-105,56,-146,133,-146,206 c0,74,37,97,71,97 c40,0,66,-26,66,-80 l0,-99 l107,0 l0,99 c0,55,27,83,70,83 c13,0,23,-2,31,-5 c26,-187,146,-351,361,-351 c123,0,199,53,233,91 l4,0 l0,-105 l107,0 l0,568 l111,0 l0,92 l-1343,0 l0,-92 l719,0 l0,-156 c0,-35,-19,-49,-42,-49 c-27,0,-42,16,-54,43 l-7,20 c-26,25,-66,46,-126,46 c-68,0,-106,-38,-119,-81 l-4,0 c-18,48,-63,76,-125,76 Z M1094,473 c-17,13,-43,25,-88,25 c-91,0,-162,-68,-162,-161 c0,-93,70,-144,138,-152 l61,66 c-52,3,-95,33,-95,83 c0,42,30,72,73,72 c43,0,79,-32,79,-91 c0,-122,-102,-208,-230,-208 c-119,0,-205,73,-233,175 c10,-3,24,-6,39,-6 c73,0,126,46,126,143 l0,149 l296,0 l0,-95 Z M1094,473" fill="rgb(0,0,0)" transform="matrix(0.1,0.0,0.0,-0.1,8.0,135.0)"/>
</svg>