<?xml version="1.0" encoding="UTF-8"?>
<svg height="200.0" version="1.1" width="128.0" xmlns="http://www.w3.org/2000/svg" xmlns:xlink="http://www.w3.org/1999/xlink">
 <path d="M0,0 l128,0 l0,200 l-128,0 Z M0,0" fill="rgb(255,255,255)" transform="matrix(1,0,0,-1,0.0,200.0)"/>
 <path d="M0,0 l128,0" fill="none" stroke="rgb(229,229,229)" stroke-width="2" transform="matrix(1,0,0,-1,0.0,135.0)"/>
 <path d="M0,1 l0,-5" fill="none" stroke="rgb(204,204,204)" stroke-width="2" transform="matrix(1,0,0,-1,8.0,135.0)"/>
 <path d="M0,1 l0,-5" fill="none" stroke="rgb(204,204,204)" stroke-width="2" transform="matrix(1,0,0,-1,121.0,135.0)"/>
 <path d="M214,480 c-87,0,-176,-62,-176,-193 c0,-124,75,-237,187,-295 l75,78 c-105,56,-145,139,-145,212 c0,74,36,98,71,98 c40,0,66,-26,66,-80 l0,-99 l107,0 l0,100 c0,55,25,84,66,84 c28,0,44,-14,53,-26 l90,0 l0,-4 c-21,-17,-48,-47,-48,-108 c0,-86,68,-167,195,-167 c100,0,151,45,173,72 l4,0 l0,-152 l116,0 l0,568 l111,0 l0,92 l-1186,0 l0,-92 l959,0 l0,-213 c0,-111,-62,-175,-151,-175 c-66,0,-103,37,-103,87 c0,57,40,93,112,93 l67,0 l0,99 l-319,0 c-18,14,-47,26,-80,26 c-67,0,-102,-39,-114,-81 l-4,0 c-18,48,-63,76,-126,76 Z M214,480" fill="rgb(0,0,0)" transform="matrix(0.1,0.0,0.0,-0.1,8.0,135.0)"/>
</svg>