<?xml version="1.0" encoding="UTF-8"?>
<svg height="200.0" version="1.1" width="122.0" xmlns="http://www.w3.org/2000/svg" xmlns:xlink="http://www.w3.org/1999/xlink">
 <path d="M0,0 l122,0 l0,200 l-122,0 Z M0,0" fill="rgb(255,255,255)" transform="matrix(1,0,0,-1,0.0,200.0)"/>
 <path d="M0,0 l122,0" fill="none" stroke="rgb(229,229,229)" stroke-width="2" transform="matrix(1,0,0,-1,0.0,135.0)"/>
 <path d="M0,1 l0,-5" fill="none" stroke="rgb(204,204,204)" stroke-width="2" transform="matrix(1,0,0,-1,8.0,135.0)"/>
 <path d="M0,1 l0,-5" fill="none" stroke="rgb(204,204,204)" stroke-width="2" transform="matrix(1,0,0,-1,114.0,135.0)"/>
 <path d="M215,467 c-88,0,-177,-61,-177,-192 c0,-124,76,-231,188,-290 l75,79 c-105,56,-146,133,-146,206 c0,74,37,97,71,97 c40,0,66,-26,66,-80 l0,-99 l107,0 l0,99 c0,55,27,83,70,83 c23,0,42,-8,55,-18 c-12,-24,-18,-52,-18,-85 c0,-128,106,-236,260,-236 c161,0,256,106,256,224 c0,100,-61,166,-139,207 l0,106 l206,0 l0,92 l-1116,0 l0,-92 l792,0 l0,-87 l-92,-27 c-31,-9,-57,-20,-80,-32 c-24,24,-66,50,-130,50 c-68,0,-106,-38,-119,-81 l-4,0 c-18,48,-63,76,-125,76 Z M752,132 c-92,0,-133,59,-133,113 c0,53,17,90,119,117 l79,21 c46,-18,95,-60,95,-121 c0,-70,-54,-130,-160,-130 Z M752,132" fill="rgb(0,0,0)" transform="matrix(0.1,0.0,0.0,-0.1,8.0,135.0)"/>
</svg>