<?xml version="1.0" encoding="UTF-8"?>
<svg height="200.0" version="1.1" width="118.0" xmlns="http://www.w3.org/2000/svg" xmlns:xlink="http://www.w3.org/1999/xlink">
 <path d="M0,0 l118,0 l0,200 l-118,0 Z M0,0" fill="rgb(255,255,255)" transform="matrix(1,0,0,-1,0.0,200.0)"/>
 <path d="M0,0 l118,0" fill="none" stroke="rgb(229,229,229)" stroke-width="2" transform="matrix(1,0,0,-1,0.0,135.0)"/>
 <path d="M0,1 l0,-5" fill="none" stroke="rgb(204,204,204)" stroke-width="2" transform="matrix(1,0,0,-1,8.0,135.0)"/>
 <path d="M0,1 l0,-5" fill="none" stroke="rgb(204,204,204)" stroke-width="2" transform="matrix(1,0,0,-1,110.0,135.0)"/>
 <path d="M215,467 c-88,0,-177,-61,-177,-192 c0,-124,76,-231,188,-290 l75,79 c-105,56,-146,133,-146,206 c0,74,37,97,71,97 c40,0,66,-26,66,-80 l0,-99 l107,0 l0,99 c0,55,30,83,76,83 c37,0,66,-15,82,-31 c18,-57,68,-110,144,-140 l144,34 c13,-10,22,-29,22,-50 c0,-55,-41,-87,-107,-87 c-81,0,-151,52,-191,131 l-75,-62 c45,-83,130,-166,264,-166 c131,0,215,82,215,186 c0,75,-41,131,-98,150 l-161,-35 c-34,12,-50,42,-50,64 c0,27,12,39,71,39 l184,0 l0,165 l128,0 l0,92 l-1074,0 l0,-92 l832,0 l0,-72 l-129,0 c-52,0,-90,-17,-110,-47 c-25,14,-56,23,-95,23 c-66,0,-114,-38,-127,-81 l-4,0 c-18,48,-63,76,-125,76 Z M215,467" fill="rgb(0,0,0)" transform="matrix(0.1,0.0,0.0,-0.1,8.0,135.0)"/>
</svg>