<?xml version="1.0" encoding="UTF-8"?>
<svg height="200.0" version="1.1" width="118.0" xmlns="http://www.w3.org/2000/svg" xmlns:xlink="http://www.w3.org/1999/xlink">
 <path d="M0,0 l118,0 l0,200 l-118,0 Z M0,0" fill="rgb(255,255,255)" transform="matrix(1,0,0,-1,0.0,200.0)"/>
 <path d="M0,0 l118,0" fill="none" stroke="rgb(229,229,229)" stroke-width="2" transform="matrix(1,0,0,-1,0.0,135.0)"/>
 <path d="M0,1 l0,-5" fill="none" stroke="rgb(204,204,204)" stroke-width="2" transform="matrix(1,0,0,-1,8.0,135.0)"/>
 <path d="M0,1 l0,-5" fill="none" stroke="rgb(204,204,204)" stroke-width="2" transform="matrix(1,0,0,-1,110.0,135.0)"/>
 <path d="M215,467 c-88,0,-177,-61,-177,-192 c0,-124,76,-231,188,-290 l75,79 c-105,56,-146,133,-146,206 c0,74,37,97,71,97 c40,0,66,-26,66,-80 l0,-99 l107,0 l0,99 c0,55,27,83,70,83 c23,0,40,-8,54,-17 c-11,-24,-17,-50,-17,-80 c0,-147,131,-251,275,-251 c117,0,191,74,191,169 c0,76,-62,137,-138,137 c-86,0,-128,-54,-137,-95 l72,-59 c1,33,22,57,53,57 c27,0,45,-19,45,-43 c0,-39,-30,-67,-83,-67 c-98,0,-161,71,-161,138 c0,57,24,94,118,117 l170,43 l0,149 l133,0 l0,92 l-1071,0 l0,-92 l819,0 l0,-69 l-115,-32 c-35,-9,-65,-23,-90,-40 c-27,24,-66,45,-124,45 c-68,0,-106,-38,-119,-81 l-4,0 c-18,48,-63,76,-125,76 Z M215,467" fill="rgb(0,0,0)" transform="matrix(0.1,0.0,0.0,-0.1,8.0,135.0)"/>
</svg>