<?xml version="1.0" encoding="UTF-8"?>
<svg height="200.0" version="1.1" width="132.0" xmlns="http://www.w3.org/2000/svg" xmlns:xlink="http://www.w3.org/1999/xlink">
 <path d="M0,0 l132,0 l0,200 l-132,0 Z M0,0" fill="rgb(255,255,255)" transform="matrix(1,0,0,-1,0.0,200.0)"/>
 <path d="M0,0 l132,0" fill="none" stroke="rgb(229,229,229)" stroke-width="2" transform="matrix(1,0,0,-1,0.0,135.0)"/>
 <path d="M0,1 l0,-5" fill="none" stroke="rgb(204,204,204)" stroke-width="2" transform="matrix(1,0,0,-1,8.0,135.0)"/>
 <path d="M0,1 l0,-5" fill="none" stroke="rgb(204,204,204)" stroke-width="2" transform="matrix(1,0,0,-1,126.0,135.0)"/>
 <path d="M492,660 l-519,0 l0,-92 l519,0 Z M461,369 c33,0,54,-18,65,-55 c22,-137,120,-226,261,-226 c106,0,164,49,187,79 l4,0 l0,-167 l113,0 l0,568 l111,0 l0,92 l-226,0 l0,-290 c0,-93,-55,-181,-176,-181 c-102,0,-137,77,-142,113 c20,4,39,9,58,14 c115,30,189,91,189,195 c0,92,-61,159,-166,159 c-99,0,-164,-65,-164,-145 c0,-37,13,-69,32,-89 l101,29 c-15,17,-21,37,-21,55 c0,33,22,53,52,53 c35,0,53,-22,53,-60 c0,-50,-32,-90,-149,-122 l-43,-11 c-21,54,-70,92,-136,92 c-64,0,-106,-39,-120,-82 l-4,0 c-18,48,-63,77,-125,77 c-88,0,-177,-61,-177,-192 c0,-124,76,-231,188,-290 l75,79 c-105,56,-146,133,-146,206 c0,74,37,97,71,97 c40,0,66,-26,66,-80 l0,-99 l107,0 l0,99 c0,55,23,82,62,82 Z M461,369" fill="rgb(0,0,0)" transform="matrix(0.1,0.0,0.0,-0.1,8.0,135.0)"/>
</svg>