<?xml version="1.0" encoding="UTF-8"?>
<svg height="200.0" version="1.1" width="170.0" xmlns="http://www.w3.org/2000/svg" xmlns:xlink="http://www.w3.org/1999/xlink">
 <path d="M0,0 l170,0 l0,200 l-170,0 Z M0,0" fill="rgb(255,255,255)" transform="matrix(1,0,0,-1,0.0,200.0)"/>
 <path d="M0,0 l170,0" fill="none" stroke="rgb(229,229,229)" stroke-width="2" transform="matrix(1,0,0,-1,0.0,135.0)"/>
 <path d="M0,1 l0,-5" fill="none" stroke="rgb(204,204,204)" stroke-width="2" transform="matrix(1,0,0,-1,8.0,135.0)"/>
 <path d="M0,1 l0,-5" fill="none" stroke="rgb(204,204,204)" stroke-width="2" transform="matrix(1,0,0,-1,163.0,135.0)"/>
 <path d="M499,660 l-526,0 l0,-92 l526,0 Z M460,367 c32,0,48,-19,59,-57 c25,-133,127,-222,268,-222 c135,0,207,55,249,108 c43,-48,102,-74,170,-74 c73,0,121,30,144,56 l4,0 l0,-178 l116,0 l0,568 l111,0 l0,92 l-600,0 l0,-92 l92,0 c22,-24,34,-61,34,-87 c0,-63,-54,-92,-137,-109 c2,-30,7,-58,15,-83 c-27,-44,-83,-100,-185,-100 c-102,0,-145,74,-150,113 c21,4,42,9,62,15 c113,31,197,95,197,195 c0,92,-64,158,-168,158 c-99,0,-164,-65,-164,-145 c0,-37,13,-69,33,-89 l100,29 c-15,17,-21,37,-21,55 c0,33,22,53,52,53 c34,0,55,-23,55,-60 c0,-50,-44,-90,-160,-122 l-47,-12 c-24,58,-68,90,-129,90 c-60,0,-102,-37,-116,-78 l-4,0 c-18,48,-63,76,-125,76 c-88,0,-177,-61,-177,-192 c0,-124,76,-231,188,-290 l75,79 c-105,56,-146,133,-146,206 c0,74,37,97,71,97 c40,0,66,-26,66,-80 l0,-99 l107,0 l0,99 c0,56,23,80,61,80 Z M1097,329 c69,14,127,64,127,136 c0,36,-13,72,-43,99 l0,4 l173,0 l0,-213 c0,-82,-49,-134,-131,-134 c-78,0,-118,52,-126,108 Z M1097,329" fill="rgb(0,0,0)" transform="matrix(0.1,0.0,0.0,-0.1,8.0,135.0)"/>
</svg>