<?xml version="1.0" encoding="UTF-8"?>
<svg height="200.0" version="1.1" width="118.0" xmlns="http://www.w3.org/2000/svg" xmlns:xlink="http://www.w3.org/1999/xlink">
 <path d="M0,0 l118,0 l0,200 l-118,0 Z M0,0" fill="rgb(255,255,255)" transform="matrix(1,0,0,-1,0.0,200.0)"/>
 <path d="M0,0 l118,0" fill="none" stroke="rgb(229,229,229)" stroke-width="2" transform="matrix(1,0,0,-1,0.0,135.0)"/>
 <path d="M0,1 l0,-5" fill="none" stroke="rgb(204,204,204)" stroke-width="2" transform="matrix(1,0,0,-1,8.0,135.0)"/>
 <path d="M0,1 l0,-5" fill="none" stroke="rgb(204,204,204)" stroke-width="2" transform="matrix(1,0,0,-1,110.0,135.0)"/>
 <path d="M215,467 c-88,0,-177,-61,-177,-192 c0,-124,76,-231,188,-290 l75,79 c-105,56,-146,133,-146,206 c0,74,37,97,71,97 c40,0,66,-26,66,-80 l0,-99 l107,0 l0,99 c0,55,27,83,70,83 c22,0,39,-7,53,-16 c-9,-22,-13,-46,-13,-74 c0,-111,79,-189,165,-202 l0,-4 l-166,-94 l95,-80 l237,168 l65,-129 l133,32 l-120,147 c22,23,39,47,39,88 c0,54,-35,83,-68,99 l-76,-28 l0,-98 c-18,-15,-43,-23,-74,-23 c-64,0,-117,41,-117,103 c0,60,27,91,126,116 l149,38 l0,155 l148,0 l0,92 l-1072,0 l0,-92 l806,0 l0,-74 l-98,-26 c-39,-10,-70,-23,-95,-40 c-27,24,-67,44,-123,44 c-68,0,-106,-38,-119,-81 l-4,0 c-18,48,-63,76,-125,76 Z M215,467" fill="rgb(0,0,0)" transform="matrix(0.1,0.0,0.0,-0.1,8.0,135.0)"/>
</svg>