<?xml version="1.0" encoding="UTF-8"?>
<svg height="200.0" version="1.1" width="172.0" xmlns="http://www.w3.org/2000/svg" xmlns:xlink="http://www.w3.org/1999/xlink">
 <path d="M0,0 l172,0 l0,200 l-172,0 Z M0,0" fill="rgb(255,255,255)" transform="matrix(1,0,0,-1,0.0,200.0)"/>
 <path d="M0,0 l172,0" fill="none" stroke="rgb(229,229,229)" stroke-width="2" transform="matrix(1,0,0,-1,0.0,135.0)"/>
 <path d="M0,1 l0,-5" fill="none" stroke="rgb(204,204,204)" stroke-width="2" transform="matrix(1,0,0,-1,8.0,135.0)"/>
 <path d="M0,1 l0,-5" fill="none" stroke="rgb(204,204,204)" stroke-width="2" transform="matrix(1,0,0,-1,164.0,135.0)"/>
 <path d="M215,467 c-88,0,-177,-61,-177,-192 c0,-124,76,-231,188,-290 l75,79 c-105,56,-146,133,-146,206 c0,74,37,97,71,97 c40,0,66,-26,66,-80 l0,-99 l107,0 l0,99 c0,55,27,83,70,83 c20,0,36,-6,49,-13 c-9,-24,-14,-51,-14,-82 c0,-124,75,-231,188,-290 l74,79 c-105,56,-145,133,-145,206 c0,74,36,97,71,97 c39,0,65,-26,65,-80 l0,-99 l107,0 l0,99 c0,54,23,82,61,82 c27,0,43,-17,52,-37 c22,-133,114,-210,231,-210 c73,0,121,30,144,56 l4,0 l0,-178 l116,0 l0,568 l111,0 l0,92 l-1610,0 l0,-92 l1102,0 c22,-24,35,-61,35,-87 c0,-40,-22,-66,-59,-84 c-25,47,-66,75,-125,75 c-62,0,-103,-39,-116,-82 l-4,0 c-18,49,-63,77,-126,77 c-36,0,-73,-10,-103,-32 c-26,21,-63,37,-114,37 c-68,0,-106,-38,-119,-81 l-4,0 c-18,48,-63,76,-125,76 Z M1099,329 c70,14,127,64,127,136 c0,36,-12,72,-42,99 l0,4 l172,0 l0,-213 c0,-82,-49,-134,-131,-134 c-78,0,-118,52,-126,108 Z M1099,329" fill="rgb(0,0,0)" transform="matrix(0.1,0.0,0.0,-0.1,8.0,135.0)"/>
</svg>