<?xml version="1.0" encoding="UTF-8"?>
<svg height="200.0" version="1.1" width="118.0" xmlns="http://www.w3.org/2000/svg" xmlns:xlink="http://www.w3.org/1999/xlink">
 <path d="M0,0 l118,0 l0,200 l-118,0 Z M0,0" fill="rgb(255,255,255)" transform="matrix(1,0,0,-1,0.0,200.0)"/>
 <path d="M0,0 l118,0" fill="none" stroke="rgb(229,229,229)" stroke-width="2" transform="matrix(1,0,0,-1,0.0,135.0)"/>
 <path d="M0,1 l0,-5" fill="none" stroke="rgb(204,204,204)" stroke-width="2" transform="matrix(1,0,0,-1,8.0,135.0)"/>
 <path d="M0,1 l0,-5" fill="none" stroke="rgb(204,204,204)" stroke-width="2" transform="matrix(1,0,0,-1,111.0,135.0)"/>
 <path d="M215,467 c-88,0,-177,-61,-177,-192 c0,-124,76,-231,188,-290 l75,79 c-105,56,-146,133,-146,206 c0,74,37,97,71,97 c40,0,66,-26,66,-80 l0,-99 l107,0 l0,99 c0,55,27,83,70,83 c16,0,30,-4,42,-9 c-7,-21,-11,-44,-11,-69 c0,-116,87,-192,195,-192 c68,0,110,27,130,49 l4,0 l0,-149 l116,0 l0,568 l111,0 l0,92 l-1083,0 l0,-92 l856,0 l0,-241 c0,-70,-40,-127,-113,-127 c-58,0,-96,37,-96,93 c0,78,72,107,137,88 l-9,102 c-67,12,-134,-3,-181,-40 c-25,16,-59,29,-104,29 c-68,0,-106,-38,-119,-81 l-4,0 c-18,48,-63,76,-125,76 Z M215,467" fill="rgb(0,0,0)" transform="matrix(0.1,0.0,0.0,-0.1,8.0,135.0)"/>
</svg>