<?xml version="1.0" encoding="UTF-8"?>
<svg height="200.0" version="1.1" width="150.0" xmlns="http://www.w3.org/2000/svg" xmlns:xlink="http://www.w3.org/1999/xlink">
 <path d="M0,0 l150,0 l0,200 l-150,0 Z M0,0" fill="rgb(255,255,255)" transform="matrix(1,0,0,-1,0.0,200.0)"/>
 <path d="M0,0 l150,0" fill="none" stroke="rgb(229,229,229)" stroke-width="2" transform="matrix(1,0,0,-1,0.0,135.0)"/>
 <path d="M0,1 l0,-5" fill="none" stroke="rgb(204,204,204)" stroke-width="2" transform="matrix(1,0,0,-1,8.0,135.0)"/>
 <path d="M0,1 l0,-5" fill="none" stroke="rgb(204,204,204)" stroke-width="2" transform="matrix(1,0,0,-1,143.0,135.0)"/>
 <path d="M215,467 c-88,0,-177,-61,-177,-192 c0,-124,76,-231,188,-290 l75,79 c-105,56,-146,133,-146,206 c0,74,37,97,71,97 c40,0,66,-26,66,-80 l0,-99 l107,0 l0,99 c0,55,27,83,70,83 c16,0,30,-4,42,-9 c-7,-21,-11,-44,-11,-69 c0,-116,89,-192,207,-192 c53,0,92,14,122,33 c50,-65,142,-134,260,-134 c131,0,214,82,214,186 c0,75,-40,131,-97,150 l-155,-35 c-34,13,-50,42,-50,64 c0,27,12,39,71,39 l178,0 l0,165 l127,0 l0,92 l-1404,0 l0,-92 l1163,0 l0,-72 l-123,0 c-82,0,-127,-42,-127,-107 c0,-75,55,-152,152,-190 l137,34 c14,-10,23,-29,23,-50 c0,-55,-40,-86,-106,-86 c-85,0,-147,48,-195,106 c1,1,1,2,2,3 l-50,63 l-19,0 c-19,-30,-50,-70,-113,-70 c-57,0,-97,36,-97,94 c0,60,43,94,97,93 c13,0,26,0,41,-5 l-9,102 c-15,3,-32,4,-46,4 c-49,0,-98,-14,-136,-45 c-25,17,-59,30,-104,30 c-68,0,-106,-38,-119,-81 l-4,0 c-18,48,-63,76,-125,76 Z M215,467" fill="rgb(0,0,0)" transform="matrix(0.1,0.0,0.0,-0.1,8.0,135.0)"/>
</svg>