<?xml version="1.0" encoding="UTF-8"?>
<svg height="200.0" version="1.1" width="132.0" xmlns="http://www.w3.org/2000/svg" xmlns:xlink="http://www.w3.org/1999/xlink">
 <path d="M0,0 l132,0 l0,200 l-132,0 Z M0,0" fill="rgb(255,255,255)" transform="matrix(1,0,0,-1,0.0,200.0)"/>
 <path d="M0,0 l132,0" fill="none" stroke="rgb(229,229,229)" stroke-width="2" transform="matrix(1,0,0,-1,0.0,135.0)"/>
 <path d="M0,1 l0,-5" fill="none" stroke="rgb(204,204,204)" stroke-width="2" transform="matrix(1,0,0,-1,8.0,135.0)"/>
 <path d="M0,1 l0,-5" fill="none" stroke="rgb(204,204,204)" stroke-width="2" transform="matrix(1,0,0,-1,126.0,135.0)"/>
 <path d="M215,467 c-88,0,-177,-61,-177,-192 c0,-124,76,-231,188,-290 l75,79 c-105,56,-146,133,-146,206 c0,74,37,97,71,97 c40,0,66,-26,66,-80 l0,-99 l107,0 l0,100 c0,55,28,83,67,83 c31,0,50,-19,58,-40 l-28,-23 l257,-324 l94,60 l-101,126 c-35,43,-55,65,-76,87 l0,4 c6,-1,14,-1,19,-1 c27,2,53,11,74,26 c35,-20,82,-33,136,-33 c28,0,52,2,75,8 l0,-261 l117,0 l0,568 l111,0 l0,92 l-1229,0 l0,-92 l725,0 l0,-165 c0,-40,-19,-56,-50,-56 c-9,0,-16,1,-22,2 c-20,79,-78,124,-160,124 c-68,0,-110,-39,-122,-82 l-4,0 c-18,48,-63,76,-125,76 Z M886,355 c-29,0,-54,3,-75,9 c2,11,3,23,3,36 l0,168 l160,0 l0,-198 c-26,-11,-56,-15,-88,-15 Z M886,355" fill="rgb(0,0,0)" transform="matrix(0.1,0.0,0.0,-0.1,8.0,135.0)"/>
</svg>