<?xml version="1.0" encoding="UTF-8"?>
<svg height="200.0" version="1.1" width="114.0" xmlns="http://www.w3.org/2000/svg" xmlns:xlink="http://www.w3.org/1999/xlink">
 <path d="M0,0 l114,0 l0,200 l-114,0 Z M0,0" fill="rgb(255,255,255)" transform="matrix(1,0,0,-1,0.0,200.0)"/>
 <path d="M0,0 l114,0" fill="none" stroke="rgb(229,229,229)" stroke-width="2" transform="matrix(1,0,0,-1,0.0,135.0)"/>
 <path d="M0,1 l0,-5" fill="none" stroke="rgb(204,204,204)" stroke-width="2" transform="matrix(1,0,0,-1,8.0,135.0)"/>
 <path d="M0,1 l0,-5" fill="none" stroke="rgb(204,204,204)" stroke-width="2" transform="matrix(1,0,0,-1,107.0,135.0)"/>
 <path d="M895,42 c25,28,50,67,50,120 c0,77,-57,148,-169,148 c-33,0,-64,-4,-92,-13 c-30,16,-48,41,-48,65 c0,22,12,39,53,39 l219,0 l0,167 l109,0 l0,92 l-1044,0 l0,-92 l823,0 l0,-75 l-134,0 c-51,0,-89,-15,-113,-40 c-23,11,-51,19,-86,19 c-68,0,-106,-38,-119,-81 l-4,0 c-18,48,-63,76,-125,76 c-88,0,-177,-61,-177,-192 c0,-124,76,-231,188,-290 l75,79 c-105,56,-146,133,-146,206 c0,74,37,97,71,97 c40,0,66,-26,66,-80 l0,-99 l107,0 l0,99 c0,55,27,83,70,83 c24,0,43,-8,56,-18 c9,-40,36,-73,75,-96 c-42,-33,-66,-78,-66,-127 c0,-142,143,-215,329,-231 l50,95 c-210,14,-266,69,-266,132 c0,53,50,93,129,93 c41,0,65,-20,65,-47 c0,-28,-18,-51,-42,-73 Z M895,42" fill="rgb(0,0,0)" transform="matrix(0.1,0.0,0.0,-0.1,8.0,135.0)"/>
</svg>