<?xml version="1.0" encoding="UTF-8"?>
<svg height="200.0" version="1.1" width="120.0" xmlns="http://www.w3.org/2000/svg" xmlns:xlink="http://www.w3.org/1999/xlink">
 <path d="M0,0 l120,0 l0,200 l-120,0 Z M0,0" fill="rgb(255,255,255)" transform="matrix(1,0,0,-1,0.0,200.0)"/>
 <path d="M0,0 l120,0" fill="none" stroke="rgb(229,229,229)" stroke-width="2" transform="matrix(1,0,0,-1,0.0,135.0)"/>
 <path d="M0,1 l0,-5" fill="none" stroke="rgb(204,204,204)" stroke-width="2" transform="matrix(1,0,0,-1,8.0,135.0)"/>
 <path d="M0,1 l0,-5" fill="none" stroke="rgb(204,204,204)" stroke-width="2" transform="matrix(1,0,0,-1,113.0,135.0)"/>
 <path d="M243,100 c64,0,112,19,148,47 c32,-68,88,-125,159,-162 l75,79 c-105,56,-146,133,-146,206 c0,74,37,98,71,98 c40,0,66,-28,66,-81 l0,-99 l107,0 l0,94 c0,60,24,88,68,88 c24,0,49,-12,60,-21 l0,-349 l117,0 l0,568 l111,0 l0,92 l-1106,0 l0,-92 l878,0 l0,-123 l-4,0 c-17,17,-47,26,-77,26 c-43,0,-89,-26,-102,-80 l-4,0 c-18,48,-63,76,-125,76 c-88,0,-177,-61,-177,-192 c0,-3,0,-6,0,-9 c-19,-32,-52,-66,-110,-66 c-57,0,-97,35,-97,93 c0,60,43,94,96,93 c14,0,26,0,41,-5 l-9,102 c-15,3,-31,4,-45,4 c-100,1,-203,-62,-203,-195 c0,-116,90,-192,208,-192 Z M243,100" fill="rgb(0,0,0)" transform="matrix(0.1,0.0,0.0,-0.1,8.0,135.0)"/>
</svg>