<?xml version="1.0" encoding="UTF-8"?>
<svg height="200.0" version="1.1" width="104.0" xmlns="http://www.w3.org/2000/svg" xmlns:xlink="http://www.w3.org/1999/xlink">
 <path d="M0,0 l104,0 l0,200 l-104,0 Z M0,0" fill="rgb(255,255,255)" transform="matrix(1,0,0,-1,0.0,200.0)"/>
 <path d="M0,0 l104,0" fill="none" stroke="rgb(229,229,229)" stroke-width="2" transform="matrix(1,0,0,-1,0.0,135.0)"/>
 <path d="M0,1 l0,-5" fill="none" stroke="rgb(204,204,204)" stroke-width="2" transform="matrix(1,0,0,-1,8.0,135.0)"/>
 <path d="M0,1 l0,-5" fill="none" stroke="rgb(204,204,204)" stroke-width="2" transform="matrix(1,0,0,-1,97.0,135.0)"/>
 <path d="M804,568 l111,0 l0,92 l-942,0 l0,-92 l715,0 l0,-241 c0,-70,-40,-127,-113,-127 c-58,0,-96,37,-96,93 c0,78,72,107,137,88 l-9,102 c-126,22,-248,-47,-248,-191 c0,-10,1,-19,2,-28 c-19,-31,-52,-64,-109,-64 c-57,0,-97,35,-97,93 c0,60,43,94,96,93 c14,0,26,0,41,-5 l-9,102 c-15,3,-31,4,-45,4 c-100,1,-203,-62,-203,-195 c0,-116,90,-192,208,-192 c75,0,127,26,164,61 c36,-39,88,-61,147,-61 c68,0,110,27,130,49 l4,0 l0,-149 l116,0 Z M804,568" fill="rgb(0,0,0)" transform="matrix(0.1,0.0,0.0,-0.1,8.0,135.0)"/>
</svg>