<?xml version="1.0" encoding="UTF-8"?>
<svg height="200.0" version="1.1" width="100.0" xmlns="http://www.w3.org/2000/svg" xmlns:xlink="http://www.w3.org/1999/xlink">
 <path d="M0,0 l100,0 l0,200 l-100,0 Z M0,0" fill="rgb(255,255,255)" transform="matrix(1,0,0,-1,0.0,200.0)"/>
 <path d="M0,0 l100,0" fill="none" stroke="rgb(229,229,229)" stroke-width="2" transform="matrix(1,0,0,-1,0.0,135.0)"/>
 <path d="M0,1 l0,-5" fill="none" stroke="rgb(204,204,204)" stroke-width="2" transform="matrix(1,0,0,-1,8.0,135.0)"/>
 <path d="M0,1 l0,-5" fill="none" stroke="rgb(204,204,204)" stroke-width="2" transform="matrix(1,0,0,-1,93.0,135.0)"/>
 <path d="M753,42 c26,28,50,67,50,120 c0,77,-57,148,-169,148 c-33,0,-64,-4,-92,-13 c-30,16,-48,41,-48,65 c0,22,13,39,53,39 l220,0 l0,167 l108,0 l0,92 l-902,0 l0,-92 l681,0 l0,-75 l-134,0 c-88,0,-139,-45,-139,-111 c0,-52,28,-97,77,-126 c-8,-7,-17,-15,-24,-23 c-55,-52,-103,-67,-169,-67 c-62,0,-106,38,-106,96 c0,59,42,94,103,94 c13,0,30,-1,45,-6 l-9,103 c-15,2,-36,4,-50,4 c-102,0,-209,-63,-209,-196 c0,-117,94,-195,216,-195 c58,0,104,13,140,31 c20,-121,155,-184,326,-199 l50,95 c-210,14,-266,69,-266,132 c0,53,51,93,130,93 c40,0,64,-20,64,-47 c0,-28,-18,-51,-42,-73 Z M753,42" fill="rgb(0,0,0)" transform="matrix(0.1,0.0,0.0,-0.1,8.0,135.0)"/>
</svg>