<?xml version="1.0" encoding="UTF-8"?>
<svg height="200.0" version="1.1" width="124.0" xmlns="http://www.w3.org/2000/svg" xmlns:xlink="http://www.w3.org/1999/xlink">
 <path d="M0,0 l124,0 l0,200 l-124,0 Z M0,0" fill="rgb(255,255,255)" transform="matrix(1,0,0,-1,0.0,200.0)"/>
 <path d="M0,0 l124,0" fill="none" stroke="rgb(229,229,229)" stroke-width="2" transform="matrix(1,0,0,-1,0.0,135.0)"/>
 <path d="M0,1 l0,-5" fill="none" stroke="rgb(204,204,204)" stroke-width="2" transform="matrix(1,0,0,-1,5.0,135.0)"/>
 <path d="M0,1 l0,-5" fill="none" stroke="rgb(204,204,204)" stroke-width="2" transform="matrix(1,0,0,-1,116.0,135.0)"/>
 <path d="M901,178 l4,0 l0,-178 l116,0 l0,568 l111,0 l0,92 l-603,0 l0,-92 l95,0 c22,-24,34,-61,34,-87 c0,-63,-54,-92,-137,-109 c10,-158,108,-250,236,-250 c73,0,121,30,144,56 Z M648,329 c69,14,127,64,127,136 c0,36,-13,72,-42,99 l0,4 l172,0 l0,-213 c0,-82,-49,-134,-131,-134 c-78,0,-118,52,-126,108 Z M248,455 c-33,10,-50,36,-50,63 c0,31,22,57,63,57 c41,0,78,-34,78,-101 c0,-88,-66,-141,-159,-141 c-30,0,-69,6,-102,20 l-67,-87 l79,-61 l240,-226 l96,67 l-108,100 c-48,45,-88,72,-119,92 l0,4 c130,-1,257,76,257,233 c0,99,-63,194,-199,194 c-102,0,-174,-70,-174,-153 c0,-64,34,-114,97,-131 Z M248,455" fill="rgb(0,0,0)" transform="matrix(0.1,0.0,0.0,-0.1,5.0,135.0)"/>
</svg>