<?xml version="1.0" encoding="UTF-8"?>
<svg height="200.0" version="1.1" width="126.0" xmlns="http://www.w3.org/2000/svg" xmlns:xlink="http://www.w3.org/1999/xlink">
 <path d="M0,0 l126,0 l0,200 l-126,0 Z M0,0" fill="rgb(255,255,255)" transform="matrix(1,0,0,-1,0.0,200.0)"/>
 <path d="M0,0 l126,0" fill="none" stroke="rgb(229,229,229)" stroke-width="2" transform="matrix(1,0,0,-1,0.0,135.0)"/>
 <path d="M0,1 l0,-5" fill="none" stroke="rgb(204,204,204)" stroke-width="2" transform="matrix(1,0,0,-1,8.0,135.0)"/>
 <path d="M0,1 l0,-5" fill="none" stroke="rgb(204,204,204)" stroke-width="2" transform="matrix(1,0,0,-1,119.0,135.0)"/>
 <path d="M278,268 c-52,0,-89,26,-89,87 l0,45 l-6,94 l61,-67 l114,-111 c-1,-6,-1,-12,-1,-19 c-21,-17,-47,-29,-79,-29 Z M562,208 c-52,0,-89,36,-89,86 c0,69,58,101,126,88 l-18,101 c-83,9,-163,-24,-201,-94 l-180,179 l459,0 l0,-255 c0,-60,-38,-105,-97,-105 Z M959,298 c0,-69,-56,-102,-124,-88 l18,-101 c114,-13,222,55,222,188 c0,111,-81,183,-180,183 c-56,0,-96,-24,-117,-46 l-4,0 l0,134 l363,0 l0,92 l-1164,0 l0,-92 l104,0 l0,-222 c0,-108,65,-176,178,-176 c54,0,95,11,128,27 c32,-54,90,-86,155,-86 c61,0,99,26,117,46 l4,0 l0,-157 l115,0 l0,279 c0,60,40,104,99,104 c51,0,86,-35,86,-85 Z M959,298" fill="rgb(0,0,0)" transform="matrix(0.1,0.0,0.0,-0.1,8.0,135.0)"/>
</svg>