<?xml version="1.0" encoding="UTF-8"?>
<svg height="200.0" version="1.1" width="128.0" xmlns="http://www.w3.org/2000/svg" xmlns:xlink="http://www.w3.org/1999/xlink">
 <path d="M0,0 l128,0 l0,200 l-128,0 Z M0,0" fill="rgb(255,255,255)" transform="matrix(1,0,0,-1,0.0,200.0)"/>
 <path d="M0,0 l128,0" fill="none" stroke="rgb(229,229,229)" stroke-width="2" transform="matrix(1,0,0,-1,0.0,135.0)"/>
 <path d="M0,1 l0,-5" fill="none" stroke="rgb(204,204,204)" stroke-width="2" transform="matrix(1,0,0,-1,8.0,135.0)"/>
 <path d="M0,1 l0,-5" fill="none" stroke="rgb(204,204,204)" stroke-width="2" transform="matrix(1,0,0,-1,121.0,135.0)"/>
 <path d="M580,214 c-52,0,-88,36,-88,86 c0,64,50,101,126,87 l-18,102 c-90,9,-177,-33,-211,-110 l-189,189 l478,0 l0,-250 c0,-61,-40,-104,-98,-104 Z M278,268 c-52,0,-89,26,-89,87 l0,45 l-6,94 l61,-67 l123,-121 c-23,-21,-52,-38,-89,-38 Z M255,170 c66,0,113,16,149,39 c23,-34,57,-55,88,-62 l0,-4 l-133,-69 l90,-81 l225,166 l4,0 l0,-159 l115,0 l0,279 c0,60,40,104,99,104 c51,0,86,-35,86,-85 c0,-64,-49,-102,-125,-88 l19,-101 c116,-12,222,57,222,188 c0,111,-81,183,-180,183 c-56,0,-96,-24,-117,-46 l-4,0 l0,134 l362,0 l0,92 l-1182,0 l0,-92 l104,0 l0,-222 c0,-108,65,-176,178,-176 Z M255,170" fill="rgb(0,0,0)" transform="matrix(0.1,0.0,0.0,-0.1,8.0,135.0)"/>
</svg>