<?xml version="1.0" encoding="UTF-8"?>
<svg height="200.0" version="1.1" width="154.0" xmlns="http://www.w3.org/2000/svg" xmlns:xlink="http://www.w3.org/1999/xlink">
 <path d="M0,0 l154,0 l0,200 l-154,0 Z M0,0" fill="rgb(255,255,255)" transform="matrix(1,0,0,-1,0.0,200.0)"/>
 <path d="M0,0 l154,0" fill="none" stroke="rgb(229,229,229)" stroke-width="2" transform="matrix(1,0,0,-1,0.0,135.0)"/>
 <path d="M0,1 l0,-5" fill="none" stroke="rgb(204,204,204)" stroke-width="2" transform="matrix(1,0,0,-1,8.0,135.0)"/>
 <path d="M0,1 l0,-5" fill="none" stroke="rgb(204,204,204)" stroke-width="2" transform="matrix(1,0,0,-1,147.0,135.0)"/>
 <path d="M1307,0 l0,568 l111,0 l0,92 l-1445,0 l0,-92 l104,0 l0,-222 c0,-108,65,-176,178,-176 c49,0,88,9,120,23 c30,-93,125,-162,250,-162 c64,0,129,15,184,58 l-55,94 c-43,-31,-85,-51,-143,-51 c-91,0,-134,52,-134,106 c0,53,17,77,120,105 l144,39 c98,24,144,31,179,31 c38,0,57,-16,57,-43 c0,-24,-14,-52,-85,-89 l-69,-34 c24,-112,108,-190,223,-190 c63,0,116,30,141,58 l4,0 l0,-115 Z M1058,150 c-59,0,-92,36,-101,70 c76,33,122,88,122,149 c0,88,-72,137,-171,137 c-53,0,-122,-15,-167,-30 l0,92 l450,0 l0,-280 c0,-76,-45,-138,-133,-138 Z M200,568 l423,0 l0,-106 l-92,-26 c-61,-17,-104,-38,-131,-68 Z M278,268 c-52,0,-89,26,-89,87 l0,45 l-6,94 l61,-67 l123,-121 c-23,-21,-52,-38,-89,-38 Z M278,268" fill="rgb(0,0,0)" transform="matrix(0.1,0.0,0.0,-0.1,8.0,135.0)"/>
</svg>