<?xml version="1.0" encoding="UTF-8"?>
<svg height="200.0" version="1.1" width="108.0" xmlns="http://www.w3.org/2000/svg" xmlns:xlink="http://www.w3.org/1999/xlink">
 <path d="M0,0 l108,0 l0,200 l-108,0 Z M0,0" fill="rgb(255,255,255)" transform="matrix(1,0,0,-1,0.0,200.0)"/>
 <path d="M0,0 l108,0" fill="none" stroke="rgb(229,229,229)" stroke-width="2" transform="matrix(1,0,0,-1,0.0,135.0)"/>
 <path d="M0,1 l0,-5" fill="none" stroke="rgb(204,204,204)" stroke-width="2" transform="matrix(1,0,0,-1,8.0,135.0)"/>
 <path d="M0,1 l0,-5" fill="none" stroke="rgb(204,204,204)" stroke-width="2" transform="matrix(1,0,0,-1,100.0,135.0)"/>
 <path d="M255,170 c87,0,142,28,179,64 c13,-16,29,-31,48,-44 l0,-3 c-47,-25,-81,-62,-81,-134 c0,-103,79,-175,183,-175 c64,0,101,25,117,43 l4,0 l0,-109 l108,0 l0,357 c36,13,70,32,97,56 l-51,84 c-36,-30,-113,-70,-197,-70 c-102,0,-145,46,-145,85 c0,39,26,64,93,73 l203,28 l0,143 l130,0 l0,92 l-970,0 l0,-92 l104,0 l0,-222 c0,-108,65,-176,178,-176 Z M200,568 l503,0 l0,-68 l-142,-19 c-88,-11,-142,-54,-156,-118 Z M278,268 c-52,0,-89,26,-89,87 l0,45 l-6,94 l61,-67 l123,-121 c-23,-21,-52,-38,-89,-38 Z M605,-29 c-55,0,-93,33,-93,84 c0,50,33,92,109,92 c28,0,58,-4,85,-10 l0,-58 c0,-61,-34,-108,-101,-108 Z M605,-29" fill="rgb(0,0,0)" transform="matrix(0.1,0.0,0.0,-0.1,8.0,135.0)"/>
</svg>