<?xml version="1.0" encoding="UTF-8"?>
<svg height="200.0" version="1.1" width="166.0" xmlns="http://www.w3.org/2000/svg" xmlns:xlink="http://www.w3.org/1999/xlink">
 <path d="M0,0 l166,0 l0,200 l-166,0 Z M0,0" fill="rgb(255,255,255)" transform="matrix(1,0,0,-1,0.0,200.0)"/>
 <path d="M0,0 l166,0" fill="none" stroke="rgb(229,229,229)" stroke-width="2" transform="matrix(1,0,0,-1,0.0,135.0)"/>
 <path d="M0,1 l0,-5" fill="none" stroke="rgb(204,204,204)" stroke-width="2" transform="matrix(1,0,0,-1,8.0,135.0)"/>
 <path d="M0,1 l0,-5" fill="none" stroke="rgb(204,204,204)" stroke-width="2" transform="matrix(1,0,0,-1,159.0,135.0)"/>
 <path d="M1310,107 l4,0 l0,-107 l116,0 l0,568 l111,0 l0,92 l-1568,0 l0,-92 l104,0 l0,-222 c0,-108,65,-176,178,-176 c51,0,91,9,123,25 c31,-94,124,-164,248,-164 c161,0,256,106,256,224 c0,38,-9,72,-25,101 c59,35,124,50,173,50 c56,0,71,-24,71,-48 c0,-28,-20,-46,-53,-63 l-102,-57 c27,-113,107,-190,222,-190 c66,0,116,31,142,59 Z M200,568 l425,0 l0,-87 l-92,-27 c-65,-19,-110,-45,-137,-82 Z M278,268 c-52,0,-89,26,-89,87 l0,45 l-6,94 l61,-67 l123,-121 c-23,-21,-52,-38,-89,-38 Z M1179,140 c-60,0,-91,33,-101,71 c69,35,124,74,124,148 c0,87,-79,141,-185,141 c-96,0,-184,-42,-227,-68 c-14,11,-30,21,-47,30 l0,106 l571,0 l0,-293 c0,-74,-52,-135,-135,-135 Z M612,132 c-92,0,-133,59,-133,113 c0,53,17,90,119,117 l79,21 c46,-18,95,-60,95,-121 c0,-70,-54,-130,-160,-130 Z M612,132" fill="rgb(0,0,0)" transform="matrix(0.1,0.0,0.0,-0.1,8.0,135.0)"/>
</svg>