<?xml version="1.0" encoding="UTF-8"?>
<svg height="200.0" version="1.1" width="102.0" xmlns="http://www.w3.org/2000/svg" xmlns:xlink="http://www.w3.org/1999/xlink">
 <path d="M0,0 l102,0 l0,200 l-102,0 Z M0,0" fill="rgb(255,255,255)" transform="matrix(1,0,0,-1,0.0,200.0)"/>
 <path d="M0,0 l102,0" fill="none" stroke="rgb(229,229,229)" stroke-width="2" transform="matrix(1,0,0,-1,0.0,135.0)"/>
 <path d="M0,1 l0,-5" fill="none" stroke="rgb(204,204,204)" stroke-width="2" transform="matrix(1,0,0,-1,8.0,135.0)"/>
 <path d="M0,1 l0,-5" fill="none" stroke="rgb(204,204,204)" stroke-width="2" transform="matrix(1,0,0,-1,94.0,135.0)"/>
 <path d="M420,415 l-39,-28 l-181,181 l461,0 l0,-153 Z M278,268 c-52,0,-89,26,-89,87 l0,45 c-2,40,-4,72,-6,94 c14,-16,34,-39,61,-67 l96,-95 c1,-15,4,-28,8,-41 c-20,-14,-43,-23,-70,-23 Z M492,211 l0,103 l169,0 l0,-314 l116,0 l0,568 l111,0 l0,92 l-915,0 l0,-92 l104,0 l0,-222 c0,-108,65,-176,178,-176 c64,0,110,15,145,37 c10,-9,22,-16,33,-22 Z M492,211" fill="rgb(0,0,0)" transform="matrix(0.1,0.0,0.0,-0.1,8.0,135.0)"/>
</svg>