<?xml version="1.0" encoding="UTF-8"?>
<svg height="200.0" version="1.1" width="106.0" xmlns="http://www.w3.org/2000/svg" xmlns:xlink="http://www.w3.org/1999/xlink">
 <path d="M0,0 l106,0 l0,200 l-106,0 Z M0,0" fill="rgb(255,255,255)" transform="matrix(1,0,0,-1,0.0,200.0)"/>
 <path d="M0,0 l106,0" fill="none" stroke="rgb(229,229,229)" stroke-width="2" transform="matrix(1,0,0,-1,0.0,135.0)"/>
 <path d="M0,1 l0,-5" fill="none" stroke="rgb(204,204,204)" stroke-width="2" transform="matrix(1,0,0,-1,8.0,135.0)"/>
 <path d="M0,1 l0,-5" fill="none" stroke="rgb(204,204,204)" stroke-width="2" transform="matrix(1,0,0,-1,99.0,135.0)"/>
 <path d="M255,170 c93,0,149,31,186,71 c29,-39,76,-61,137,-61 c49,0,99,16,130,52 l4,0 l0,-232 l116,0 l0,568 l111,0 l0,92 l-966,0 l0,-92 l104,0 l0,-222 c0,-108,65,-176,178,-176 Z M278,268 c-52,0,-89,26,-89,87 l0,45 l-6,94 l61,-67 l123,-121 c-23,-21,-52,-38,-89,-38 Z M407,568 l0,-207 l-207,207 Z M712,408 c0,-76,-41,-129,-110,-129 c-51,0,-79,27,-79,88 l0,201 l189,0 Z M712,408" fill="rgb(0,0,0)" transform="matrix(0.1,0.0,0.0,-0.1,8.0,135.0)"/>
</svg>