<?xml version="1.0" encoding="UTF-8"?>
<svg height="200.0" version="1.1" width="130.0" xmlns="http://www.w3.org/2000/svg" xmlns:xlink="http://www.w3.org/1999/xlink">
 <path d="M0,0 l130,0 l0,200 l-130,0 Z M0,0" fill="rgb(255,255,255)" transform="matrix(1,0,0,-1,0.0,200.0)"/>
 <path d="M0,0 l130,0" fill="none" stroke="rgb(229,229,229)" stroke-width="2" transform="matrix(1,0,0,-1,0.0,135.0)"/>
 <path d="M0,1 l0,-5" fill="none" stroke="rgb(204,204,204)" stroke-width="2" transform="matrix(1,0,0,-1,8.0,135.0)"/>
 <path d="M0,1 l0,-5" fill="none" stroke="rgb(204,204,204)" stroke-width="2" transform="matrix(1,0,0,-1,123.0,135.0)"/>
 <path d="M278,268 c-52,0,-89,26,-89,87 l0,45 l-6,94 l61,-67 l123,-121 c-23,-21,-52,-38,-89,-38 Z M255,170 c91,0,147,30,185,69 c27,-38,72,-60,135,-60 c60,0,96,24,113,44 l4,0 l0,-223 l114,0 l0,265 c0,65,40,119,107,119 c52,0,87,-34,87,-85 c0,-63,-49,-106,-125,-91 l18,-102 c120,-12,223,62,223,195 c0,110,-80,182,-180,182 c-68,0,-108,-31,-126,-51 l-4,0 l0,136 l370,0 l0,92 l-1203,0 l0,-92 l104,0 l0,-222 c0,-108,65,-176,178,-176 Z M408,568 l0,-208 l-208,208 Z M693,381 c0,-56,-31,-100,-98,-100 c-50,0,-71,26,-71,87 l0,200 l169,0 Z M693,381" fill="rgb(0,0,0)" transform="matrix(0.1,0.0,0.0,-0.1,8.0,135.0)"/>
</svg>