<?xml version="1.0" encoding="UTF-8"?>
<svg height="200.0" version="1.1" width="144.0" xmlns="http://www.w3.org/2000/svg" xmlns:xlink="http://www.w3.org/1999/xlink">
 <path d="M0,0 l144,0 l0,200 l-144,0 Z M0,0" fill="rgb(255,255,255)" transform="matrix(1,0,0,-1,0.0,200.0)"/>
 <path d="M0,0 l144,0" fill="none" stroke="rgb(229,229,229)" stroke-width="2" transform="matrix(1,0,0,-1,0.0,135.0)"/>
 <path d="M0,1 l0,-5" fill="none" stroke="rgb(204,204,204)" stroke-width="2" transform="matrix(1,0,0,-1,8.0,135.0)"/>
 <path d="M0,1 l0,-5" fill="none" stroke="rgb(204,204,204)" stroke-width="2" transform="matrix(1,0,0,-1,138.0,135.0)"/>
 <path d="M255,170 c71,0,121,18,157,45 c12,-23,27,-43,47,-58 l90,0 l0,100 l188,0 c39,-87,117,-135,210,-135 c73,0,121,30,144,56 l4,0 l0,-178 l116,0 l0,568 l111,0 l0,92 l-1349,0 l0,-92 l104,0 l0,-222 c0,-108,65,-176,178,-176 Z M200,568 l238,0 l0,-213 l-13,-11 Z M278,268 c-52,0,-89,26,-89,87 l0,45 l-6,94 l61,-67 l121,-119 c-20,-22,-49,-40,-87,-40 Z M814,568 c22,-24,34,-61,34,-87 c0,-63,-54,-94,-137,-111 c0,-3,0,-7,1,-10 l-160,0 l0,208 Z M838,329 c69,14,127,64,127,136 c0,36,-13,72,-42,99 l0,4 l172,0 l0,-213 c0,-82,-49,-134,-131,-134 c-78,0,-118,52,-126,108 Z M838,329" fill="rgb(0,0,0)" transform="matrix(0.1,0.0,0.0,-0.1,8.0,135.0)"/>
</svg>