<?xml version="1.0" encoding="UTF-8"?>
<svg height="200.0" version="1.1" width="106.0" xmlns="http://www.w3.org/2000/svg" xmlns:xlink="http://www.w3.org/1999/xlink">
 <path d="M0,0 l106,0 l0,200 l-106,0 Z M0,0" fill="rgb(255,255,255)" transform="matrix(1,0,0,-1,0.0,200.0)"/>
 <path d="M0,0 l106,0" fill="none" stroke="rgb(229,229,229)" stroke-width="2" transform="matrix(1,0,0,-1,0.0,135.0)"/>
 <path d="M0,1 l0,-5" fill="none" stroke="rgb(204,204,204)" stroke-width="2" transform="matrix(1,0,0,-1,8.0,135.0)"/>
 <path d="M0,1 l0,-5" fill="none" stroke="rgb(204,204,204)" stroke-width="2" transform="matrix(1,0,0,-1,97.0,135.0)"/>
 <path d="M255,170 c57,0,99,12,132,32 c32,-64,99,-102,175,-102 c67,0,109,27,129,49 l4,0 l0,-149 l117,0 l0,568 l111,0 l0,92 l-950,0 l0,-92 l104,0 l0,-222 c0,-108,65,-176,178,-176 Z M278,268 c-52,0,-89,26,-89,87 l0,45 l-6,94 l61,-67 l122,-121 c-22,-21,-51,-38,-88,-38 Z M582,200 c-57,0,-96,37,-96,93 c0,78,73,107,138,88 l-9,102 c-97,17,-190,-19,-230,-100 l-185,185 l495,0 l0,-241 c0,-70,-40,-127,-113,-127 Z M582,200" fill="rgb(0,0,0)" transform="matrix(0.1,0.0,0.0,-0.1,8.0,135.0)"/>
</svg>