<?xml version="1.0" encoding="UTF-8"?>
<svg height="200.0" version="1.1" width="142.0" xmlns="http://www.w3.org/2000/svg" xmlns:xlink="http://www.w3.org/1999/xlink">
 <path d="M0,0 l142,0 l0,200 l-142,0 Z M0,0" fill="rgb(255,255,255)" transform="matrix(1,0,0,-1,0.0,200.0)"/>
 <path d="M0,0 l142,0" fill="none" stroke="rgb(229,229,229)" stroke-width="2" transform="matrix(1,0,0,-1,0.0,135.0)"/>
 <path d="M0,1 l0,-5" fill="none" stroke="rgb(204,204,204)" stroke-width="2" transform="matrix(1,0,0,-1,8.0,135.0)"/>
 <path d="M0,1 l0,-5" fill="none" stroke="rgb(204,204,204)" stroke-width="2" transform="matrix(1,0,0,-1,134.0,135.0)"/>
 <path d="M415,355 c-29,0,-54,3,-76,9 c2,10,3,22,3,34 l0,170 l324,0 l0,-156 c0,-35,-19,-49,-42,-49 c-29,0,-45,19,-57,50 l-99,-35 c1,-6,2,-12,3,-18 c-18,-3,-37,-5,-56,-5 Z M199,261 c10,-1,23,1,33,2 c22,4,42,11,59,23 c35,-21,82,-34,137,-34 c25,0,48,2,70,7 c53,-140,164,-245,337,-245 c123,0,199,53,233,91 l4,0 l0,-105 l107,0 l0,568 l111,0 l0,92 l-1317,0 l0,-92 l254,0 l0,-166 c0,-40,-20,-55,-51,-55 c-35,0,-57,21,-81,52 l-88,-69 l274,-346 l95,60 l-101,126 c-35,43,-55,65,-77,87 Z M1068,473 c-17,13,-43,25,-88,25 c-91,0,-163,-68,-163,-161 c0,-93,71,-144,139,-152 l61,66 c-52,3,-95,33,-95,83 c0,42,30,72,73,72 c43,0,79,-32,79,-91 c0,-122,-102,-208,-230,-208 c-120,0,-206,73,-233,175 c10,-3,24,-6,39,-6 c73,0,126,46,126,143 l0,149 l296,0 l0,-95 Z M1068,473" fill="rgb(0,0,0)" transform="matrix(0.1,0.0,0.0,-0.1,8.0,135.0)"/>
</svg>