<?xml version="1.0" encoding="UTF-8"?>
<svg height="200.0" version="1.1" width="118.0" xmlns="http://www.w3.org/2000/svg" xmlns:xlink="http://www.w3.org/1999/xlink">
 <path d="M0,0 l118,0 l0,200 l-118,0 Z M0,0" fill="rgb(255,255,255)" transform="matrix(1,0,0,-1,0.0,200.0)"/>
 <path d="M0,0 l118,0" fill="none" stroke="rgb(229,229,229)" stroke-width="2" transform="matrix(1,0,0,-1,0.0,135.0)"/>
 <path d="M0,1 l0,-5" fill="none" stroke="rgb(204,204,204)" stroke-width="2" transform="matrix(1,0,0,-1,8.0,135.0)"/>
 <path d="M0,1 l0,-5" fill="none" stroke="rgb(204,204,204)" stroke-width="2" transform="matrix(1,0,0,-1,110.0,135.0)"/>
 <path d="M415,355 c-29,0,-54,3,-76,9 c2,10,3,22,3,34 l0,170 l474,0 l0,-108 l-136,0 c-66,0,-131,-27,-167,-86 c-28,-14,-62,-19,-98,-19 Z M199,261 c10,-1,23,1,33,2 c22,4,42,11,59,23 c35,-21,82,-34,137,-34 c20,0,39,2,57,5 c3,-123,77,-216,148,-268 l86,72 c-68,49,-115,116,-115,201 c0,66,42,97,97,97 l115,0 l0,-359 l116,0 l0,568 l112,0 l0,92 l-1071,0 l0,-92 l254,0 l0,-166 c0,-40,-20,-55,-51,-55 c-35,0,-57,21,-81,52 l-88,-69 l274,-346 l95,60 l-101,126 c-35,43,-55,65,-77,87 Z M199,261" fill="rgb(0,0,0)" transform="matrix(0.1,0.0,0.0,-0.1,8.0,135.0)"/>
</svg>