<?xml version="1.0" encoding="UTF-8"?>
<svg height="200.0" version="1.1" width="112.0" xmlns="http://www.w3.org/2000/svg" xmlns:xlink="http://www.w3.org/1999/xlink">
 <path d="M0,0 l112,0 l0,200 l-112,0 Z M0,0" fill="rgb(255,255,255)" transform="matrix(1,0,0,-1,0.0,200.0)"/>
 <path d="M0,0 l112,0" fill="none" stroke="rgb(229,229,229)" stroke-width="2" transform="matrix(1,0,0,-1,0.0,135.0)"/>
 <path d="M0,1 l0,-5" fill="none" stroke="rgb(204,204,204)" stroke-width="2" transform="matrix(1,0,0,-1,8.0,135.0)"/>
 <path d="M0,1 l0,-5" fill="none" stroke="rgb(204,204,204)" stroke-width="2" transform="matrix(1,0,0,-1,105.0,135.0)"/>
 <path d="M380,45 l-112,141 c-32,40,-46,55,-67,77 l-1,2 c32,0,65,6,93,25 c30,-21,76,-40,134,-40 c72,0,108,33,119,81 l12,46 c11,3,22,5,37,5 c51,0,93,-39,104,-91 l-242,-155 l90,-78 l226,159 l4,0 l0,-217 l117,0 l0,568 l102,0 l0,92 l-1023,0 l0,-92 l260,0 l0,-161 c0,-40,-20,-55,-51,-55 c-36,0,-59,23,-83,54 l-85,-73 l269,-346 Z M343,363 c3,12,5,27,5,42 l0,163 l430,0 l0,-197 l-4,0 c-22,51,-77,119,-188,119 c-74,0,-111,-39,-122,-85 l-13,-46 c-13,-4,-29,-6,-45,-6 c-25,0,-50,5,-63,10 Z M343,363" fill="rgb(0,0,0)" transform="matrix(0.1,0.0,0.0,-0.1,8.0,135.0)"/>
</svg>