<?xml version="1.0" encoding="UTF-8"?>
<svg height="200.0" version="1.1" width="94.0" xmlns="http://www.w3.org/2000/svg" xmlns:xlink="http://www.w3.org/1999/xlink">
 <path d="M0,0 l94,0 l0,200 l-94,0 Z M0,0" fill="rgb(255,255,255)" transform="matrix(1,0,0,-1,0.0,200.0)"/>
 <path d="M0,0 l94,0" fill="none" stroke="rgb(229,229,229)" stroke-width="2" transform="matrix(1,0,0,-1,0.0,135.0)"/>
 <path d="M0,1 l0,-5" fill="none" stroke="rgb(204,204,204)" stroke-width="2" transform="matrix(1,0,0,-1,8.0,135.0)"/>
 <path d="M0,1 l0,-5" fill="none" stroke="rgb(204,204,204)" stroke-width="2" transform="matrix(1,0,0,-1,77.0,135.0)"/>
 <path d="M380,45 l-112,141 c-32,40,-48,56,-68,76 l0,3 c32,0,65,6,93,25 c30,-21,76,-40,134,-40 c72,0,108,33,119,81 l12,46 c11,3,22,5,37,5 c52,0,93,-39,104,-91 l-242,-155 l90,-78 l274,193 c-25,144,-107,239,-235,239 c-74,0,-111,-39,-122,-85 l-13,-46 c-13,-4,-29,-6,-45,-6 c-25,0,-50,5,-63,10 c3,12,5,27,5,42 l0,163 l368,0 l0,92 l-743,0 l0,-92 l260,0 l0,-161 c0,-40,-20,-55,-51,-55 c-36,0,-59,23,-83,54 l-85,-73 l269,-346 Z M380,45" fill="rgb(0,0,0)" transform="matrix(0.1,0.0,0.0,-0.1,8.0,135.0)"/>
</svg>