<?xml version="1.0" encoding="UTF-8"?>
<svg height="200.0" version="1.1" width="130.0" xmlns="http://www.w3.org/2000/svg" xmlns:xlink="http://www.w3.org/1999/xlink">
 <path d="M0,0 l130,0 l0,200 l-130,0 Z M0,0" fill="rgb(255,255,255)" transform="matrix(1,0,0,-1,0.0,200.0)"/>
 <path d="M0,0 l130,0" fill="none" stroke="rgb(229,229,229)" stroke-width="2" transform="matrix(1,0,0,-1,0.0,135.0)"/>
 <path d="M0,1 l0,-5" fill="none" stroke="rgb(204,204,204)" stroke-width="2" transform="matrix(1,0,0,-1,8.0,135.0)"/>
 <path d="M0,1 l0,-5" fill="none" stroke="rgb(204,204,204)" stroke-width="2" transform="matrix(1,0,0,-1,122.0,135.0)"/>
 <path d="M376,47 l-101,126 c-35,43,-55,65,-77,87 l1,4 c10,-1,23,1,33,2 c23,4,45,12,62,25 c35,-23,83,-37,141,-37 c26,0,48,2,68,6 c36,-106,126,-172,247,-172 c105,0,164,49,186,79 l4,0 l0,-167 l114,0 l0,568 l111,0 l0,92 l-226,0 l0,-290 c0,-93,-55,-181,-176,-181 c-102,0,-137,77,-143,113 c20,4,40,9,59,14 c115,30,187,91,187,195 c0,92,-61,159,-166,159 c-99,0,-165,-65,-165,-145 c0,-37,13,-69,33,-89 l100,29 c-14,17,-20,37,-20,55 c0,33,22,53,52,53 c35,0,53,-22,53,-60 c0,-50,-30,-90,-147,-122 l-121,-32 c-19,-5,-41,-6,-63,-6 c-33,0,-61,4,-84,10 c3,12,4,24,4,38 l0,167 l116,0 l0,92 l-485,0 l0,-92 l254,0 l0,-163 c0,-40,-20,-55,-51,-55 c-35,0,-57,21,-81,52 l-88,-69 l274,-346 Z M376,47" fill="rgb(0,0,0)" transform="matrix(0.1,0.0,0.0,-0.1,8.0,135.0)"/>
</svg>