<?xml version="1.0" encoding="UTF-8"?>
<svg height="200.0" version="1.1" width="166.0" xmlns="http://www.w3.org/2000/svg" xmlns:xlink="http://www.w3.org/1999/xlink">
 <path d="M0,0 l166,0 l0,200 l-166,0 Z M0,0" fill="rgb(255,255,255)" transform="matrix(1,0,0,-1,0.0,200.0)"/>
 <path d="M0,0 l166,0" fill="none" stroke="rgb(229,229,229)" stroke-width="2" transform="matrix(1,0,0,-1,0.0,135.0)"/>
 <path d="M0,1 l0,-5" fill="none" stroke="rgb(204,204,204)" stroke-width="2" transform="matrix(1,0,0,-1,8.0,135.0)"/>
 <path d="M0,1 l0,-5" fill="none" stroke="rgb(204,204,204)" stroke-width="2" transform="matrix(1,0,0,-1,159.0,135.0)"/>
 <path d="M411,358 c-28,0,-52,3,-72,8 c2,11,3,22,3,35 l0,167 l100,0 l0,92 l-469,0 l0,-92 l254,0 l0,-163 c0,-40,-20,-55,-51,-55 c-35,0,-57,21,-81,52 l-88,-69 l274,-346 l95,60 l-101,126 c-35,43,-55,65,-77,87 l1,4 c10,-1,23,1,33,2 c22,4,42,11,59,23 c33,-21,78,-33,133,-33 c24,0,46,2,66,7 c39,-107,134,-174,258,-174 c133,0,204,51,248,102 c42,-45,99,-69,165,-69 c73,0,121,30,144,56 l4,0 l0,-178 l116,0 l0,568 l111,0 l0,92 l-604,0 l0,-92 l96,0 c22,-24,35,-61,35,-87 c0,-63,-55,-92,-138,-109 c2,-30,7,-58,15,-83 c-27,-44,-80,-99,-179,-99 c-103,0,-149,73,-154,112 c151,29,246,88,246,210 c0,92,-62,158,-166,158 c-99,0,-165,-65,-165,-145 c0,-37,13,-69,33,-89 l100,29 c-14,17,-20,37,-20,55 c0,33,21,53,52,53 c34,0,53,-22,53,-59 c0,-50,-30,-91,-147,-123 l-91,-24 c-30,-6,-61,-9,-91,-9 Z M1052,329 c70,14,127,64,127,136 c0,36,-13,72,-42,99 l0,4 l172,0 l0,-213 c0,-82,-49,-134,-131,-134 c-78,0,-118,52,-126,108 Z M1052,329" fill="rgb(0,0,0)" transform="matrix(0.1,0.0,0.0,-0.1,8.0,135.0)"/>
</svg>