<?xml version="1.0" encoding="UTF-8"?>
<svg height="200.0" version="1.1" width="118.0" xmlns="http://www.w3.org/2000/svg" xmlns:xlink="http://www.w3.org/1999/xlink">
 <path d="M0,0 l118,0 l0,200 l-118,0 Z M0,0" fill="rgb(255,255,255)" transform="matrix(1,0,0,-1,0.0,200.0)"/>
 <path d="M0,0 l118,0" fill="none" stroke="rgb(229,229,229)" stroke-width="2" transform="matrix(1,0,0,-1,0.0,135.0)"/>
 <path d="M0,1 l0,-5" fill="none" stroke="rgb(204,204,204)" stroke-width="2" transform="matrix(1,0,0,-1,8.0,135.0)"/>
 <path d="M0,1 l0,-5" fill="none" stroke="rgb(204,204,204)" stroke-width="2" transform="matrix(1,0,0,-1,110.0,135.0)"/>
 <path d="M415,355 c-29,0,-54,3,-76,9 c2,10,3,22,3,34 l0,170 l177,0 l0,-191 c-29,-16,-66,-22,-104,-22 Z M199,261 c10,-1,23,1,33,2 c22,4,42,11,59,23 c35,-21,82,-34,137,-34 c40,0,75,6,108,19 c25,-57,79,-91,154,-91 c49,0,99,16,130,52 l4,0 l0,-232 l116,0 l0,568 l111,0 l0,92 l-1078,0 l0,-92 l254,0 l0,-166 c0,-40,-20,-55,-51,-55 c-35,0,-57,21,-81,52 l-88,-69 l274,-346 l95,60 l-101,126 c-35,43,-55,65,-77,87 Z M824,408 c0,-76,-41,-129,-110,-129 c-51,0,-79,27,-79,88 l0,201 l189,0 Z M824,408" fill="rgb(0,0,0)" transform="matrix(0.1,0.0,0.0,-0.1,8.0,135.0)"/>
</svg>