<?xml version="1.0" encoding="UTF-8"?>
<svg height="200.0" version="1.1" width="142.0" xmlns="http://www.w3.org/2000/svg" xmlns:xlink="http://www.w3.org/1999/xlink">
 <path d="M0,0 l142,0 l0,200 l-142,0 Z M0,0" fill="rgb(255,255,255)" transform="matrix(1,0,0,-1,0.0,200.0)"/>
 <path d="M0,0 l142,0" fill="none" stroke="rgb(229,229,229)" stroke-width="2" transform="matrix(1,0,0,-1,0.0,135.0)"/>
 <path d="M0,1 l0,-5" fill="none" stroke="rgb(204,204,204)" stroke-width="2" transform="matrix(1,0,0,-1,8.0,135.0)"/>
 <path d="M0,1 l0,-5" fill="none" stroke="rgb(204,204,204)" stroke-width="2" transform="matrix(1,0,0,-1,134.0,135.0)"/>
 <path d="M415,355 c-29,0,-54,3,-76,9 c2,10,3,22,3,34 l0,170 l176,0 l0,-191 c-29,-16,-65,-22,-103,-22 Z M199,261 c10,-1,23,1,33,2 c22,4,42,11,59,23 c35,-21,82,-34,137,-34 c38,0,73,6,105,18 c23,-57,74,-91,152,-91 c60,0,96,24,113,44 l4,0 l0,-223 l114,0 l0,265 c0,65,40,119,107,119 c52,0,87,-34,87,-85 c0,-63,-49,-106,-125,-91 l18,-102 c120,-12,223,62,223,195 c0,110,-80,182,-180,182 c-68,0,-108,-31,-126,-51 l-4,0 l0,136 l370,0 l0,92 l-1313,0 l0,-92 l254,0 l0,-166 c0,-40,-20,-55,-51,-55 c-35,0,-57,21,-81,52 l-88,-69 l274,-346 l95,60 l-101,126 c-35,43,-55,65,-77,87 Z M803,381 c0,-56,-31,-100,-98,-100 c-50,0,-71,26,-71,87 l0,200 l169,0 Z M803,381" fill="rgb(0,0,0)" transform="matrix(0.1,0.0,0.0,-0.1,8.0,135.0)"/>
</svg>