<?xml version="1.0" encoding="UTF-8"?>
<svg height="200.0" version="1.1" width="118.0" xmlns="http://www.w3.org/2000/svg" xmlns:xlink="http://www.w3.org/1999/xlink">
 <path d="M0,0 l118,0 l0,200 l-118,0 Z M0,0" fill="rgb(255,255,255)" transform="matrix(1,0,0,-1,0.0,200.0)"/>
 <path d="M0,0 l118,0" fill="none" stroke="rgb(229,229,229)" stroke-width="2" transform="matrix(1,0,0,-1,0.0,135.0)"/>
 <path d="M0,1 l0,-5" fill="none" stroke="rgb(204,204,204)" stroke-width="2" transform="matrix(1,0,0,-1,8.0,135.0)"/>
 <path d="M0,1 l0,-5" fill="none" stroke="rgb(204,204,204)" stroke-width="2" transform="matrix(1,0,0,-1,110.0,135.0)"/>
 <path d="M415,355 c-29,0,-54,3,-76,9 c2,10,3,22,3,34 l0,170 l482,0 l0,-246 c0,-22,-5,-42,-15,-61 l-169,132 c17,10,37,15,58,15 c21,0,44,-2,67,-10 l-6,100 c-24,7,-45,9,-74,9 c-85,0,-170,-53,-198,-143 c-22,-6,-47,-9,-72,-9 Z M199,261 c10,-1,23,1,33,2 c22,4,42,11,59,23 c35,-21,82,-34,137,-34 c19,0,37,1,54,4 c19,-93,97,-157,199,-157 c65,0,114,26,138,53 l4,0 l0,-152 l117,0 l0,568 l111,0 l0,92 l-1078,0 l0,-92 l254,0 l0,-166 c0,-40,-20,-55,-51,-55 c-35,0,-57,21,-81,52 l-88,-69 l274,-346 l95,60 l-101,126 c-35,43,-55,65,-77,87 Z M698,194 c-62,0,-110,45,-110,108 c0,18,4,35,11,49 l171,-134 c-20,-15,-44,-23,-72,-23 Z M698,194" fill="rgb(0,0,0)" transform="matrix(0.1,0.0,0.0,-0.1,8.0,135.0)"/>
</svg>