<?xml version="1.0" encoding="UTF-8"?>
<svg height="200.0" version="1.1" width="154.0" xmlns="http://www.w3.org/2000/svg" xmlns:xlink="http://www.w3.org/1999/xlink">
 <path d="M0,0 l154,0 l0,200 l-154,0 Z M0,0" fill="rgb(255,255,255)" transform="matrix(1,0,0,-1,0.0,200.0)"/>
 <path d="M0,0 l154,0" fill="none" stroke="rgb(229,229,229)" stroke-width="2" transform="matrix(1,0,0,-1,0.0,135.0)"/>
 <path d="M0,1 l0,-5" fill="none" stroke="rgb(204,204,204)" stroke-width="2" transform="matrix(1,0,0,-1,8.0,135.0)"/>
 <path d="M0,1 l0,-5" fill="none" stroke="rgb(204,204,204)" stroke-width="2" transform="matrix(1,0,0,-1,148.0,135.0)"/>
 <path d="M417,355 c-29,0,-56,3,-79,9 c3,11,4,23,4,37 l0,167 l210,0 l0,-187 c-32,-16,-81,-26,-135,-26 Z M199,264 c10,-1,23,1,33,2 c21,3,40,10,57,21 c35,-20,87,-32,143,-32 c27,0,52,2,75,7 c11,-39,33,-80,66,-105 l90,0 l0,100 l174,0 c39,-87,117,-135,210,-135 c73,0,121,30,144,56 l4,0 l0,-178 l116,0 l0,568 l111,0 l0,92 l-1449,0 l0,-92 l254,0 l0,-163 c0,-40,-20,-55,-51,-55 c-35,0,-57,21,-81,52 l-88,-69 l274,-346 l95,60 l-101,126 c-35,43,-55,65,-77,87 Z M914,568 c22,-24,34,-61,34,-87 c0,-63,-54,-94,-137,-111 c0,-3,0,-7,1,-10 l-146,0 l0,208 Z M938,329 c69,14,127,64,127,136 c0,36,-13,72,-42,99 l0,4 l172,0 l0,-213 c0,-82,-49,-134,-131,-134 c-78,0,-118,52,-126,108 Z M938,329" fill="rgb(0,0,0)" transform="matrix(0.1,0.0,0.0,-0.1,8.0,135.0)"/>
</svg>