<?xml version="1.0" encoding="UTF-8"?>
<svg height="200.0" version="1.1" width="126.0" xmlns="http://www.w3.org/2000/svg" xmlns:xlink="http://www.w3.org/1999/xlink">
 <path d="M0,0 l126,0 l0,200 l-126,0 Z M0,0" fill="rgb(255,255,255)" transform="matrix(1,0,0,-1,0.0,200.0)"/>
 <path d="M0,0 l126,0" fill="none" stroke="rgb(229,229,229)" stroke-width="2" transform="matrix(1,0,0,-1,0.0,135.0)"/>
 <path d="M0,1 l0,-5" fill="none" stroke="rgb(204,204,204)" stroke-width="2" transform="matrix(1,0,0,-1,8.0,135.0)"/>
 <path d="M0,1 l0,-5" fill="none" stroke="rgb(204,204,204)" stroke-width="2" transform="matrix(1,0,0,-1,119.0,135.0)"/>
 <path d="M415,355 c-29,0,-55,3,-76,9 c2,11,3,23,3,37 l0,167 l294,0 l0,-165 c0,-40,-20,-56,-51,-56 c-36,0,-56,19,-82,52 l-53,-42 c-11,-1,-23,-2,-35,-2 Z M199,264 c10,-1,23,1,33,2 c21,3,40,10,57,21 c35,-21,82,-35,139,-35 c17,0,32,1,47,3 l215,-271 l95,60 l-102,126 c-35,43,-55,65,-76,87 l0,4 c6,-1,14,-1,19,-1 c28,2,53,11,74,26 c35,-20,82,-33,137,-33 c27,0,52,2,74,8 l0,-261 l118,0 l0,568 l111,0 l0,92 l-1167,0 l0,-92 l254,0 l0,-163 c0,-40,-20,-55,-51,-55 c-35,0,-57,21,-81,52 l-88,-69 l274,-346 l95,60 l-101,126 c-35,43,-55,65,-77,87 Z M824,355 c-29,0,-55,3,-76,9 c2,11,3,23,3,36 l0,168 l160,0 l0,-198 c-26,-11,-56,-15,-87,-15 Z M824,355" fill="rgb(0,0,0)" transform="matrix(0.1,0.0,0.0,-0.1,8.0,135.0)"/>
</svg>