<?xml version="1.0" encoding="UTF-8"?>
<svg height="200.0" version="1.1" width="78.0" xmlns="http://www.w3.org/2000/svg" xmlns:xlink="http://www.w3.org/1999/xlink">
 <path d="M0,0 l78,0 l0,200 l-78,0 Z M0,0" fill="rgb(255,255,255)" transform="matrix(1,0,0,-1,0.0,200.0)"/>
 <path d="M0,0 l78,0" fill="none" stroke="rgb(229,229,229)" stroke-width="2" transform="matrix(1,0,0,-1,0.0,135.0)"/>
 <path d="M0,1 l0,-5" fill="none" stroke="rgb(204,204,204)" stroke-width="2" transform="matrix(1,0,0,-1,8.0,135.0)"/>
 <path d="M0,1 l0,-5" fill="none" stroke="rgb(204,204,204)" stroke-width="2" transform="matrix(1,0,0,-1,71.0,135.0)"/>
 <path d="M350,26 c69,0,111,38,111,110 l0,65 c26,-20,39,-51,39,-90 c0,-32,-9,-68,-23,-100 l98,0 c11,26,19,66,19,97 c0,124,-85,206,-245,206 c-54,0,-100,-9,-136,-24 c-31,18,-45,49,-45,72 c0,22,13,39,53,39 l318,0 l0,167 l117,0 l0,92 l-683,0 l0,-92 l454,0 l0,-75 l-235,0 c-85,0,-138,-46,-138,-111 c0,-52,29,-106,83,-137 c-42,-39,-66,-90,-66,-145 c0,-141,119,-237,298,-261 l55,83 c-213,25,-243,111,-243,174 c0,45,22,82,60,105 l0,-66 c0,-71,38,-109,109,-109 Z M351,230 c10,0,20,-1,30,-2 l0,-96 c0,-28,-9,-41,-30,-41 c-21,0,-31,12,-31,40 l0,97 c9,1,20,2,31,2 Z M351,230" fill="rgb(0,0,0)" transform="matrix(0.1,0.0,0.0,-0.1,8.0,135.0)"/>
</svg>