<?xml version="1.0" encoding="UTF-8"?>
<svg height="200.0" version="1.1" width="78.0" xmlns="http://www.w3.org/2000/svg" xmlns:xlink="http://www.w3.org/1999/xlink">
 <path d="M0,0 l78,0 l0,200 l-78,0 Z M0,0" fill="rgb(255,255,255)" transform="matrix(1,0,0,-1,0.0,200.0)"/>
 <path d="M0,0 l78,0" fill="none" stroke="rgb(229,229,229)" stroke-width="2" transform="matrix(1,0,0,-1,0.0,135.0)"/>
 <path d="M0,1 l0,-5" fill="none" stroke="rgb(204,204,204)" stroke-width="2" transform="matrix(1,0,0,-1,8.0,135.0)"/>
 <path d="M0,1 l0,-5" fill="none" stroke="rgb(204,204,204)" stroke-width="2" transform="matrix(1,0,0,-1,71.0,135.0)"/>
 <path d="M188,126 c0,54,37,97,118,97 l166,0 l0,-2 l-173,-70 l-27,-63 c21,-38,52,-60,89,-65 l48,31 l-23,53 l86,37 l0,-128 l97,0 l0,235 l-77,63 l-189,0 c-28,0,-54,-4,-78,-10 c-28,11,-49,39,-49,59 c0,23,13,36,57,36 l302,0 l0,169 l122,0 l0,92 l-684,0 l0,-92 l449,0 l0,-73 l-220,0 c-85,0,-138,-47,-138,-113 c0,-46,22,-96,71,-123 c-41,-33,-60,-80,-60,-130 c0,-124,92,-221,279,-259 l65,83 c-183,20,-231,106,-231,173 Z M188,126" fill="rgb(0,0,0)" transform="matrix(0.1,0.0,0.0,-0.1,8.0,135.0)"/>
</svg>