<?xml version="1.0" encoding="UTF-8"?>
<svg height="200.0" version="1.1" width="94.0" xmlns="http://www.w3.org/2000/svg" xmlns:xlink="http://www.w3.org/1999/xlink">
 <path d="M0,0 l94,0 l0,200 l-94,0 Z M0,0" fill="rgb(255,255,255)" transform="matrix(1,0,0,-1,0.0,200.0)"/>
 <path d="M0,0 l94,0" fill="none" stroke="rgb(229,229,229)" stroke-width="2" transform="matrix(1,0,0,-1,0.0,135.0)"/>
 <path d="M0,1 l0,-5" fill="none" stroke="rgb(204,204,204)" stroke-width="2" transform="matrix(1,0,0,-1,8.0,135.0)"/>
 <path d="M0,1 l0,-5" fill="none" stroke="rgb(204,204,204)" stroke-width="2" transform="matrix(1,0,0,-1,87.0,135.0)"/>
 <path d="M455,-51 c-208,16,-291,101,-291,183 c0,77,89,121,180,127 c24,1,39,-7,39,-19 c0,-25,-36,-54,-109,-92 c24,-80,104,-131,191,-131 c54,0,102,22,128,54 l4,0 l0,-100 l108,0 l0,597 l107,0 l0,92 l-839,0 l0,-92 l369,0 l0,-77 l-154,0 c-86,0,-135,-42,-135,-107 c0,-46,26,-91,73,-118 c-44,-39,-65,-81,-65,-131 c0,-118,119,-240,346,-270 Z M397,140 c53,27,84,59,84,102 c0,58,-49,94,-137,94 c-41,0,-89,-9,-135,-25 c-24,11,-40,35,-40,54 c0,23,13,37,53,37 l232,0 l0,166 l143,0 l0,-372 c-5,-38,-38,-95,-119,-95 c-39,0,-68,16,-81,39 Z M397,140" fill="rgb(0,0,0)" transform="matrix(0.1,0.0,0.0,-0.1,8.0,135.0)"/>
</svg>