<?xml version="1.0" encoding="UTF-8"?>
<svg height="200.0" version="1.1" width="76.0" xmlns="http://www.w3.org/2000/svg" xmlns:xlink="http://www.w3.org/1999/xlink">
 <path d="M0,0 l76,0 l0,200 l-76,0 Z M0,0" fill="rgb(255,255,255)" transform="matrix(1,0,0,-1,0.0,200.0)"/>
 <path d="M0,0 l76,0" fill="none" stroke="rgb(229,229,229)" stroke-width="2" transform="matrix(1,0,0,-1,0.0,135.0)"/>
 <path d="M0,1 l0,-5" fill="none" stroke="rgb(204,204,204)" stroke-width="2" transform="matrix(1,0,0,-1,8.0,135.0)"/>
 <path d="M0,1 l0,-5" fill="none" stroke="rgb(204,204,204)" stroke-width="2" transform="matrix(1,0,0,-1,68.0,135.0)"/>
 <path d="M318,-137 c-112,49,-166,127,-166,221 c0,92,69,149,174,149 c40,0,77,-12,104,-35 c-28,-6,-46,-23,-51,-35 c-19,21,-41,29,-70,29 c-63,0,-100,-50,-100,-104 c0,-68,43,-138,131,-191 l46,45 c-72,44,-102,90,-102,138 c0,30,14,45,33,45 c15,0,29,-8,29,-38 l0,-47 l63,0 l0,40 c0,37,22,60,57,62 c4,-12,6,-24,6,-38 c0,-31,-7,-68,-25,-104 l98,0 c8,23,16,65,16,100 c0,101,-64,217,-241,217 c-32,0,-66,-5,-100,-14 c-27,12,-41,38,-41,59 c0,23,9,37,53,37 l253,0 l0,169 l138,0 l0,92 l-650,0 l0,-92 l400,0 l0,-80 l-175,0 c-86,0,-135,-42,-135,-107 c0,-47,28,-93,76,-122 c-64,-41,-84,-118,-84,-170 c0,-104,58,-218,199,-287 Z M318,-137" fill="rgb(0,0,0)" transform="matrix(0.1,0.0,0.0,-0.1,8.0,135.0)"/>
</svg>