<?xml version="1.0" encoding="UTF-8"?>
<svg height="200.0" version="1.1" width="76.0" xmlns="http://www.w3.org/2000/svg" xmlns:xlink="http://www.w3.org/1999/xlink">
 <path d="M0,0 l76,0 l0,200 l-76,0 Z M0,0" fill="rgb(255,255,255)" transform="matrix(1,0,0,-1,0.0,200.0)"/>
 <path d="M0,0 l76,0" fill="none" stroke="rgb(229,229,229)" stroke-width="2" transform="matrix(1,0,0,-1,0.0,135.0)"/>
 <path d="M0,1 l0,-5" fill="none" stroke="rgb(204,204,204)" stroke-width="2" transform="matrix(1,0,0,-1,8.0,135.0)"/>
 <path d="M0,1 l0,-5" fill="none" stroke="rgb(204,204,204)" stroke-width="2" transform="matrix(1,0,0,-1,68.0,135.0)"/>
 <path d="M451,3 c0,-14,-8,-42,-9,-51 l89,0 c4,14,15,83,15,139 c0,109,-56,223,-234,223 c-30,0,-54,-4,-86,-11 c-28,11,-43,37,-43,59 c0,23,9,37,53,37 l253,0 l0,169 l134,0 l0,92 l-650,0 l0,-92 l404,0 l0,-80 l-175,0 c-86,0,-135,-42,-135,-107 c0,-47,28,-93,76,-121 c-60,-45,-78,-109,-78,-163 c0,-108,86,-219,264,-287 l63,62 c-157,55,-229,125,-229,222 c0,84,74,137,163,137 c71,0,128,-40,128,-112 c0,-45,-30,-84,-82,-84 c-34,0,-51,22,-51,46 c0,28,17,43,44,43 c15,0,29,-4,40,-10 l0,66 c-15,8,-34,11,-52,11 c-67,0,-114,-42,-114,-107 c0,-60,51,-114,119,-114 c37,0,68,12,89,33 Z M451,3" fill="rgb(0,0,0)" transform="matrix(0.1,0.0,0.0,-0.1,8.0,135.0)"/>
</svg>