<?xml version="1.0" encoding="UTF-8"?>
<svg height="200.0" version="1.1" width="132.0" xmlns="http://www.w3.org/2000/svg" xmlns:xlink="http://www.w3.org/1999/xlink">
 <path d="M0,0 l132,0 l0,200 l-132,0 Z M0,0" fill="rgb(255,255,255)" transform="matrix(1,0,0,-1,0.0,200.0)"/>
 <path d="M0,0 l132,0" fill="none" stroke="rgb(229,229,229)" stroke-width="2" transform="matrix(1,0,0,-1,0.0,135.0)"/>
 <path d="M0,1 l0,-5" fill="none" stroke="rgb(204,204,204)" stroke-width="2" transform="matrix(1,0,0,-1,8.0,135.0)"/>
 <path d="M0,1 l0,-5" fill="none" stroke="rgb(204,204,204)" stroke-width="2" transform="matrix(1,0,0,-1,124.0,135.0)"/>
 <path d="M519,470 c-75,0,-121,-28,-153,-75 c-20,33,-64,75,-142,75 c-110,0,-188,-85,-188,-209 c0,-124,69,-207,177,-207 c73,0,120,29,153,77 c19,-34,64,-76,144,-76 c76,0,137,40,167,108 c37,-27,83,-41,133,-41 c73,0,121,30,144,56 l4,0 l0,-178 l116,0 l0,568 l111,0 l0,92 l-1212,0 l0,-92 l704,0 c22,-24,34,-61,34,-87 c0,-37,-19,-63,-52,-81 c-31,44,-79,70,-140,70 Z M219,151 c-51,0,-73,44,-73,112 c0,68,35,115,87,115 c42,0,74,-29,93,-72 l-1,-2 c-17,-59,-37,-153,-106,-153 Z M501,147 c-44,0,-74,29,-94,71 l1,3 c18,58,35,152,105,152 c51,0,75,-44,75,-111 c0,-69,-34,-115,-87,-115 Z M701,329 c69,14,127,64,127,136 c0,36,-13,72,-43,99 l0,4 l173,0 l0,-213 c0,-82,-49,-134,-131,-134 c-78,0,-118,52,-126,108 Z M701,329" fill="rgb(0,0,0)" transform="matrix(0.1,0.0,0.0,-0.1,8.0,135.0)"/>
</svg>