<?xml version="1.0" encoding="UTF-8"?>
<svg height="200.0" version="1.1" width="96.0" xmlns="http://www.w3.org/2000/svg" xmlns:xlink="http://www.w3.org/1999/xlink">
 <path d="M0,0 l96,0 l0,200 l-96,0 Z M0,0" fill="rgb(255,255,255)" transform="matrix(1,0,0,-1,0.0,200.0)"/>
 <path d="M0,0 l96,0" fill="none" stroke="rgb(229,229,229)" stroke-width="2" transform="matrix(1,0,0,-1,0.0,135.0)"/>
 <path d="M0,1 l0,-5" fill="none" stroke="rgb(204,204,204)" stroke-width="2" transform="matrix(1,0,0,-1,8.0,135.0)"/>
 <path d="M0,1 l0,-5" fill="none" stroke="rgb(204,204,204)" stroke-width="2" transform="matrix(1,0,0,-1,36.0,135.0)"/>
 <path d="M311,568 l0,92 l-111,0 l0,65 c0,81,55,126,191,126 c173,0,309,-69,380,-138 l64,74 c-62,64,-224,164,-443,164 c-201,0,-308,-85,-308,-227 l0,-64 l-111,0 l0,-92 l111,0 l0,-568 l116,0 l0,568 Z M311,568" fill="rgb(0,0,0)" transform="matrix(0.1,0.0,0.0,-0.1,8.0,135.0)"/>
</svg>