<?xml version="1.0" encoding="UTF-8"?>
<svg height="200.0" version="1.1" width="112.0" xmlns="http://www.w3.org/2000/svg" xmlns:xlink="http://www.w3.org/1999/xlink">
 <path d="M0,0 l112,0 l0,200 l-112,0 Z M0,0" fill="rgb(255,255,255)" transform="matrix(1,0,0,-1,0.0,200.0)"/>
 <path d="M0,0 l112,0" fill="none" stroke="rgb(229,229,229)" stroke-width="2" transform="matrix(1,0,0,-1,0.0,135.0)"/>
 <path d="M0,1 l0,-5" fill="none" stroke="rgb(204,204,204)" stroke-width="2" transform="matrix(1,0,0,-1,8.0,135.0)"/>
 <path d="M0,1 l0,-5" fill="none" stroke="rgb(204,204,204)" stroke-width="2" transform="matrix(1,0,0,-1,36.0,135.0)"/>
 <path d="M311,568 l0,92 l-111,0 l0,52 c0,87,60,139,249,139 c211,0,396,-66,487,-136 l52,78 c-82,68,-287,158,-538,158 c-255,0,-366,-92,-366,-239 l0,-52 l-111,0 l0,-92 l111,0 l0,-568 l116,0 l0,568 Z M311,568" fill="rgb(0,0,0)" transform="matrix(0.1,0.0,0.0,-0.1,8.0,135.0)"/>
</svg>