<?xml version="1.0" encoding="UTF-8"?>
<svg height="200.0" version="1.1" width="168.0" xmlns="http://www.w3.org/2000/svg" xmlns:xlink="http://www.w3.org/1999/xlink">
 <path d="M0,0 l168,0 l0,200 l-168,0 Z M0,0" fill="rgb(255,255,255)" transform="matrix(1,0,0,-1,0.0,200.0)"/>
 <path d="M0,0 l168,0" fill="none" stroke="rgb(229,229,229)" stroke-width="2" transform="matrix(1,0,0,-1,0.0,135.0)"/>
 <path d="M0,1 l0,-5" fill="none" stroke="rgb(204,204,204)" stroke-width="2" transform="matrix(1,0,0,-1,8.0,135.0)"/>
 <path d="M0,1 l0,-5" fill="none" stroke="rgb(204,204,204)" stroke-width="2" transform="matrix(1,0,0,-1,36.0,135.0)"/>
 <path d="M311,568 l0,92 l-111,0 l0,6 c0,110,80,185,457,185 c350,0,696,-58,859,-136 l38,89 c-152,82,-528,147,-896,147 c-447,0,-574,-119,-574,-286 l0,-5 l-111,0 l0,-92 l111,0 l0,-568 l116,0 l0,568 Z M311,568" fill="rgb(0,0,0)" transform="matrix(0.1,0.0,0.0,-0.1,8.0,135.0)"/>
</svg>