<?xml version="1.0" encoding="UTF-8"?>
<svg height="200.0" version="1.1" width="54.0" xmlns="http://www.w3.org/2000/svg" xmlns:xlink="http://www.w3.org/1999/xlink">
 <path d="M0,0 l54,0 l0,200 l-54,0 Z M0,0" fill="rgb(255,255,255)" transform="matrix(1,0,0,-1,0.0,200.0)"/>
 <path d="M0,0 l54,0" fill="none" stroke="rgb(229,229,229)" stroke-width="2" transform="matrix(1,0,0,-1,0.0,135.0)"/>
 <path d="M0,-4 l0,8" fill="none" stroke="rgb(255,76,25)" stroke-width="2" transform="matrix(1,0,0,-1,50.0,135.0)"/>
 <path d="M-447,-118 c41,-56,135,-147,271,-147 c115,0,178,65,178,150 c0,82,-66,135,-151,135 c-65,0,-106,-25,-135,-59 l71,-69 c12,17,33,33,60,33 c30,0,48,-18,48,-43 c0,-34,-27,-55,-67,-55 c-94,0,-165,72,-202,123 Z M-447,-118" fill="rgb(0,0,0)" transform="matrix(0.1,0.0,0.0,-0.1,50.0,135.0)"/>
</svg>