<?xml version="1.0" encoding="UTF-8"?>
<svg height="200.0" version="1.1" width="54.0" xmlns="http://www.w3.org/2000/svg" xmlns:xlink="http://www.w3.org/1999/xlink">
 <path d="M0,0 l54,0 l0,200 l-54,0 Z M0,0" fill="rgb(255,255,255)" transform="matrix(1,0,0,-1,0.0,200.0)"/>
 <path d="M0,0 l54,0" fill="none" stroke="rgb(229,229,229)" stroke-width="2" transform="matrix(1,0,0,-1,0.0,135.0)"/>
 <path d="M0,-4 l0,8" fill="none" stroke="rgb(255,76,25)" stroke-width="2" transform="matrix(1,0,0,-1,37.0,135.0)"/>
 <path d="M130,-249 c-21,117,-118,276,-281,276 c-96,0,-168,-60,-168,-149 c0,-79,58,-142,145,-142 c22,0,48,3,70,14 l0,95 c-16,-9,-34,-15,-54,-15 c-34,0,-54,21,-54,51 c0,33,26,54,61,54 c77,0,155,-87,179,-213 Z M130,-249" fill="rgb(0,0,0)" transform="matrix(0.1,0.0,0.0,-0.1,37.0,135.0)"/>
</svg>