<?xml version="1.0" encoding="UTF-8"?>
<svg height="200.0" version="1.1" width="46.0" xmlns="http://www.w3.org/2000/svg" xmlns:xlink="http://www.w3.org/1999/xlink">
 <path d="M0,0 l46,0 l0,200 l-46,0 Z M0,0" fill="rgb(255,255,255)" transform="matrix(1,0,0,-1,0.0,200.0)"/>
 <path d="M0,0 l46,0" fill="none" stroke="rgb(229,229,229)" stroke-width="2" transform="matrix(1,0,0,-1,0.0,135.0)"/>
 <path d="M0,-4 l0,8" fill="none" stroke="rgb(255,76,25)" stroke-width="2" transform="matrix(1,0,0,-1,34.0,135.0)"/>
 <path d="M75,-213 c-13,82,-81,226,-225,226 c-85,0,-143,-54,-143,-125 c0,-81,61,-126,130,-126 c17,0,35,4,51,10 l0,81 c-8,-7,-22,-9,-35,-9 c-27,0,-50,13,-50,41 c0,25,19,41,49,41 c63,0,114,-66,135,-162 Z M75,-213" fill="rgb(0,0,0)" transform="matrix(0.1,0.0,0.0,-0.1,34.0,135.0)"/>
</svg>