<?xml version="1.0" encoding="UTF-8"?>
<svg height="200.0" version="1.1" width="38.0" xmlns="http://www.w3.org/2000/svg" xmlns:xlink="http://www.w3.org/1999/xlink">
 <path d="M0,0 l38,0 l0,200 l-38,0 Z M0,0" fill="rgb(255,255,255)" transform="matrix(1,0,0,-1,0.0,200.0)"/>
 <path d="M0,0 l38,0" fill="none" stroke="rgb(229,229,229)" stroke-width="2" transform="matrix(1,0,0,-1,0.0,135.0)"/>
 <path d="M0,-4 l0,8" fill="none" stroke="rgb(255,76,25)" stroke-width="2" transform="matrix(1,0,0,-1,33.0,135.0)"/>
 <path d="M-142,749 c71,0,119,43,135,89 l-60,38 c-9,-25,-32,-55,-75,-55 c-44,0,-67,30,-75,55 l-61,-38 c17,-46,65,-89,136,-89 Z M-142,858 c27,0,46,20,46,45 c0,28,-19,47,-46,47 c-26,0,-46,-19,-46,-47 c0,-25,20,-45,46,-45 Z M-142,858" fill="rgb(0,0,0)" transform="matrix(0.1,0.0,0.0,-0.1,33.0,135.0)"/>
</svg>