<?xml version="1.0" encoding="UTF-8"?>
<svg height="200.0" version="1.1" width="116.0" xmlns="http://www.w3.org/2000/svg" xmlns:xlink="http://www.w3.org/1999/xlink">
 <path d="M0,0 l116,0 l0,200 l-116,0 Z M0,0" fill="rgb(255,255,255)" transform="matrix(1,0,0,-1,0.0,200.0)"/>
 <path d="M0,0 l116,0" fill="none" stroke="rgb(229,229,229)" stroke-width="2" transform="matrix(1,0,0,-1,0.0,135.0)"/>
 <path d="M0,1 l0,-5" fill="none" stroke="rgb(204,204,204)" stroke-width="2" transform="matrix(1,0,0,-1,8.0,135.0)"/>
 <path d="M0,1 l0,-5" fill="none" stroke="rgb(204,204,204)" stroke-width="2" transform="matrix(1,0,0,-1,109.0,135.0)"/>
 <path d="M974,-130 l-60,246 c21,22,39,49,39,89 c0,54,-35,83,-69,99 l-76,-28 l0,-98 c-17,-16,-43,-23,-74,-23 c-63,0,-117,42,-117,105 c0,58,33,91,132,116 l143,36 l0,156 l145,0 l0,92 l-1064,0 l0,-92 l801,0 l0,-76 l-99,-24 c-37,-9,-68,-21,-92,-37 c-27,22,-66,41,-120,41 c-68,0,-106,-38,-119,-81 l-4,0 c-18,48,-63,76,-125,76 c-88,0,-177,-61,-177,-192 c0,-124,76,-231,188,-290 l75,79 c-105,56,-146,133,-146,206 c0,74,37,97,71,97 c40,0,66,-26,66,-80 l0,-99 l107,0 l0,99 c0,55,27,83,70,83 c20,0,36,-6,49,-14 c-9,-22,-14,-47,-14,-76 c0,-132,113,-226,250,-226 c27,0,54,4,79,12 l15,-119 Z M974,-130" fill="rgb(0,0,0)" transform="matrix(0.1,0.0,0.0,-0.1,8.0,135.0)"/>
</svg>