<?xml version="1.0" encoding="UTF-8"?>
<svg height="200.0" version="1.1" width="114.0" xmlns="http://www.w3.org/2000/svg" xmlns:xlink="http://www.w3.org/1999/xlink">
 <path d="M0,0 l114,0 l0,200 l-114,0 Z M0,0" fill="rgb(255,255,255)" transform="matrix(1,0,0,-1,0.0,200.0)"/>
 <path d="M0,0 l114,0" fill="none" stroke="rgb(229,229,229)" stroke-width="2" transform="matrix(1,0,0,-1,0.0,135.0)"/>
 <path d="M0,1 l0,-5" fill="none" stroke="rgb(204,204,204)" stroke-width="2" transform="matrix(1,0,0,-1,8.0,135.0)"/>
 <path d="M0,1 l0,-5" fill="none" stroke="rgb(204,204,204)" stroke-width="2" transform="matrix(1,0,0,-1,107.0,135.0)"/>
 <path d="M415,355 c-29,0,-54,3,-76,9 c2,10,3,22,3,34 l0,170 l409,0 l0,-76 l-99,-24 c-77,-19,-127,-52,-151,-99 c-26,-10,-55,-14,-86,-14 Z M951,-130 l-60,246 c21,22,39,49,39,89 c0,54,-35,83,-69,99 l-76,-28 l0,-98 c-17,-16,-43,-23,-74,-23 c-63,0,-117,42,-117,105 c0,58,33,91,132,116 l143,36 l0,156 l145,0 l0,92 l-1041,0 l0,-92 l254,0 l0,-166 c0,-40,-20,-55,-51,-55 c-35,0,-57,21,-81,52 l-88,-69 l274,-346 l95,60 l-101,126 c-35,43,-55,65,-77,87 l1,4 c10,-1,23,1,33,2 c22,4,42,11,59,23 c35,-21,82,-34,137,-34 c19,0,37,1,54,4 c13,-119,120,-202,249,-202 c27,0,54,4,79,12 l15,-119 Z M951,-130" fill="rgb(0,0,0)" transform="matrix(0.1,0.0,0.0,-0.1,8.0,135.0)"/>
</svg>