<?xml version="1.0" encoding="UTF-8"?>
<svg height="200.0" version="1.1" width="144.0" xmlns="http://www.w3.org/2000/svg" xmlns:xlink="http://www.w3.org/1999/xlink">
 <path d="M0,0 l144,0 l0,200 l-144,0 Z M0,0" fill="rgb(255,255,255)" transform="matrix(1,0,0,-1,0.0,200.0)"/>
 <path d="M0,0 l144,0" fill="none" stroke="rgb(229,229,229)" stroke-width="2" transform="matrix(1,0,0,-1,0.0,135.0)"/>
 <path d="M0,1 l0,-5" fill="none" stroke="rgb(204,204,204)" stroke-width="2" transform="matrix(1,0,0,-1,8.0,135.0)"/>
 <path d="M0,1 l0,-5" fill="none" stroke="rgb(204,204,204)" stroke-width="2" transform="matrix(1,0,0,-1,138.0,135.0)"/>
 <path d="M1022,296 c-25,0,-54,5,-72,11 c-14,14,-29,23,-46,29 l-166,-37 c-30,8,-49,37,-49,59 c0,26,7,45,65,45 l189,0 l0,165 l157,0 l0,-260 c-24,-8,-51,-12,-78,-12 Z M954,-42 l-115,71 l0,4 c85,11,155,68,155,156 c0,9,0,17,-1,25 c18,-5,38,-8,59,-8 c16,0,32,1,48,3 l0,-263 l112,0 l0,622 l111,0 l0,92 l-1350,0 l0,-92 l858,0 l0,-73 l-130,0 c-49,0,-85,-15,-106,-41 l-281,0 l-46,-84 l0,-8 c46,-17,83,-53,83,-101 c0,-43,-28,-68,-69,-68 c-98,0,-150,137,-156,263 l-106,-52 c14,-120,90,-312,271,-312 c104,0,172,67,172,158 c0,51,-23,88,-48,107 l0,4 l161,0 c12,-70,65,-135,151,-163 l142,34 c9,-6,21,-22,21,-45 c0,-58,-63,-83,-125,-83 l-22,0 l-147,93 c-26,-12,-44,-37,-44,-72 c0,-51,45,-110,161,-111 l133,-117 Z M954,-42" fill="rgb(0,0,0)" transform="matrix(0.1,0.0,0.0,-0.1,8.0,135.0)"/>
</svg>