<?xml version="1.0" encoding="UTF-8"?>
<svg height="200.0" version="1.1" width="140.0" xmlns="http://www.w3.org/2000/svg" xmlns:xlink="http://www.w3.org/1999/xlink">
 <path d="M0,0 l140,0 l0,200 l-140,0 Z M0,0" fill="rgb(255,255,255)" transform="matrix(1,0,0,-1,0.0,200.0)"/>
 <path d="M0,0 l140,0" fill="none" stroke="rgb(229,229,229)" stroke-width="2" transform="matrix(1,0,0,-1,0.0,135.0)"/>
 <path d="M0,1 l0,-5" fill="none" stroke="rgb(204,204,204)" stroke-width="2" transform="matrix(1,0,0,-1,8.0,135.0)"/>
 <path d="M0,1 l0,-5" fill="none" stroke="rgb(204,204,204)" stroke-width="2" transform="matrix(1,0,0,-1,132.0,135.0)"/>
 <path d="M905,-27 l-138,99 l6,3 c80,-2,153,48,153,138 c0,87,-76,133,-139,149 l0,4 l249,0 l0,-412 l117,0 l0,614 l111,0 l0,92 l-1291,0 l0,-92 l1063,0 l0,-109 l-722,0 l-46,-84 l0,-8 c46,-16,83,-53,83,-101 c0,-43,-28,-68,-69,-68 c-98,0,-150,137,-156,263 l-106,-52 c14,-120,90,-312,271,-312 c104,0,172,67,172,158 c0,51,-23,88,-48,107 l0,4 l238,0 c93,-29,158,-81,158,-139 c0,-54,-38,-83,-95,-83 c-12,0,-25,2,-38,5 l-106,94 c-33,-18,-47,-43,-47,-76 c0,-54,46,-98,130,-104 l134,-145 Z M905,-27" fill="rgb(0,0,0)" transform="matrix(0.1,0.0,0.0,-0.1,8.0,135.0)"/>
</svg>