<?xml version="1.0" encoding="UTF-8"?>
<svg height="200.0" version="1.1" width="84.0" xmlns="http://www.w3.org/2000/svg" xmlns:xlink="http://www.w3.org/1999/xlink">
 <path d="M0,0 l84,0 l0,200 l-84,0 Z M0,0" fill="rgb(255,255,255)" transform="matrix(1,0,0,-1,0.0,200.0)"/>
 <path d="M0,0 l84,0" fill="none" stroke="rgb(229,229,229)" stroke-width="2" transform="matrix(1,0,0,-1,0.0,135.0)"/>
 <path d="M0,1 l0,-5" fill="none" stroke="rgb(204,204,204)" stroke-width="2" transform="matrix(1,0,0,-1,8.0,135.0)"/>
 <path d="M0,1 l0,-5" fill="none" stroke="rgb(204,204,204)" stroke-width="2" transform="matrix(1,0,0,-1,77.0,135.0)"/>
 <path d="M317,26 c204,0,332,153,332,297 c0,76,-34,131,-89,155 l0,90 l158,0 l0,92 l-745,0 l0,-92 l128,0 l0,-4 c-18,-15,-41,-43,-41,-93 c0,-59,37,-109,101,-121 l0,-4 c-41,-15,-85,-55,-85,-132 c0,-99,88,-188,241,-188 Z M496,300 c-32,8,-52,27,-52,56 c0,27,20,44,45,44 c31,0,56,-24,56,-75 c0,-109,-98,-201,-219,-201 c-86,0,-130,43,-130,95 c0,45,27,78,88,81 c6,1,13,1,19,1 l0,96 l-34,0 c-57,0,-88,35,-88,82 c0,50,34,89,96,89 l173,0 l0,-79 c-69,-14,-114,-68,-114,-131 c0,-69,46,-111,91,-125 Z M14,-34 c0,-34,28,-61,62,-61 c37,0,64,27,64,61 c0,38,-27,65,-64,65 c-34,0,-62,-27,-62,-65 Z M14,-34" fill="rgb(0,0,0)" transform="matrix(0.1,0.0,0.0,-0.1,8.0,135.0)"/>
</svg>