<?xml version="1.0" encoding="UTF-8"?>
<svg height="200.0" version="1.1" width="54.0" xmlns="http://www.w3.org/2000/svg" xmlns:xlink="http://www.w3.org/1999/xlink">
 <path d="M0,0 l54,0 l0,200 l-54,0 Z M0,0" fill="rgb(255,255,255)" transform="matrix(1,0,0,-1,0.0,200.0)"/>
 <path d="M0,0 l54,0" fill="none" stroke="rgb(229,229,229)" stroke-width="2" transform="matrix(1,0,0,-1,0.0,135.0)"/>
 <path d="M0,-4 l0,8" fill="none" stroke="rgb(255,76,25)" stroke-width="2" transform="matrix(1,0,0,-1,32.0,135.0)"/>
 <path d="M-17,973 c-18,3,-36,6,-59,6 c-117,0,-192,-83,-192,-177 c0,-81,44,-129,71,-146 l7,-2 l109,0 l0,6 c-40,19,-82,62,-82,124 c0,58,44,96,94,96 c13,0,26,-1,36,-3 Z M-16,854 c0,-25,19,-45,45,-45 c27,0,47,20,47,45 c0,28,-20,47,-47,47 c-26,0,-45,-19,-45,-47 Z M29,698 c73,0,123,42,141,89 l-60,38 c-9,-24,-35,-55,-81,-55 c-45,0,-71,31,-81,55 l-59,-38 c17,-47,68,-89,140,-89 Z M29,698" fill="rgb(0,0,0)" transform="matrix(0.1,0.0,0.0,-0.1,32.0,135.0)"/>
</svg>