<?xml version="1.0" encoding="UTF-8"?>
<svg height="200.0" version="1.1" width="34.0" xmlns="http://www.w3.org/2000/svg" xmlns:xlink="http://www.w3.org/1999/xlink">
 <path d="M0,0 l34,0 l0,200 l-34,0 Z M0,0" fill="rgb(255,255,255)" transform="matrix(1,0,0,-1,0.0,200.0)"/>
 <path d="M0,0 l34,0" fill="none" stroke="rgb(229,229,229)" stroke-width="2" transform="matrix(1,0,0,-1,0.0,135.0)"/>
 <path d="M0,-4 l0,8" fill="none" stroke="rgb(255,76,25)" stroke-width="2" transform="matrix(1,0,0,-1,5.0,135.0)"/>
 <path d="M95,833 c0,-40,33,-73,74,-73 c44,0,77,33,77,73 c0,46,-33,78,-77,78 c-41,0,-74,-32,-74,-78 Z M95,833" fill="rgb(0,0,0)" transform="matrix(0.1,0.0,0.0,-0.1,5.0,135.0)"/>
</svg>