<?xml version="1.0" encoding="UTF-8"?>
<svg height="200.0" version="1.1" width="44.0" xmlns="http://www.w3.org/2000/svg" xmlns:xlink="http://www.w3.org/1999/xlink">
 <path d="M0,0 l44,0 l0,200 l-44,0 Z M0,0" fill="rgb(255,255,255)" transform="matrix(1,0,0,-1,0.0,200.0)"/>
 <path d="M0,0 l44,0" fill="none" stroke="rgb(229,229,229)" stroke-width="2" transform="matrix(1,0,0,-1,0.0,135.0)"/>
 <path d="M0,-4 l0,8" fill="none" stroke="rgb(255,76,25)" stroke-width="2" transform="matrix(1,0,0,-1,5.0,135.0)"/>
 <path d="M145,915 c0,-25,20,-45,46,-45 c27,0,46,20,46,45 c0,27,-19,47,-46,47 c-26,0,-46,-20,-46,-47 Z M191,758 c72,0,123,42,140,89 l-59,39 c-10,-25,-36,-55,-81,-55 c-45,0,-71,30,-81,55 l-59,-39 c17,-47,68,-89,140,-89 Z M191,758" fill="rgb(0,0,0)" transform="matrix(0.1,0.0,0.0,-0.1,5.0,135.0)"/>
</svg>