<?xml version="1.0" encoding="UTF-8"?>
<svg height="200.0" version="1.1" width="38.0" xmlns="http://www.w3.org/2000/svg" xmlns:xlink="http://www.w3.org/1999/xlink">
 <path d="M0,0 l38,0 l0,200 l-38,0 Z M0,0" fill="rgb(255,255,255)" transform="matrix(1,0,0,-1,0.0,200.0)"/>
 <path d="M0,0 l38,0" fill="none" stroke="rgb(229,229,229)" stroke-width="2" transform="matrix(1,0,0,-1,0.0,135.0)"/>
 <path d="M0,-4 l0,8" fill="none" stroke="rgb(255,76,25)" stroke-width="2" transform="matrix(1,0,0,-1,7.0,135.0)"/>
 <path d="M86,750 c-6,11,-11,31,-11,50 c0,52,32,87,82,87 c34,0,53,-9,72,-19 l34,96 c-27,14,-60,26,-111,26 c-108,0,-174,-79,-174,-178 c0,-34,8,-71,22,-97 Z M86,750" fill="rgb(0,0,0)" transform="matrix(0.1,0.0,0.0,-0.1,7.0,135.0)"/>
</svg>