<?xml version="1.0" encoding="UTF-8"?>
<svg height="200.0" version="1.1" width="70.0" xmlns="http://www.w3.org/2000/svg" xmlns:xlink="http://www.w3.org/1999/xlink">
 <path d="M0,0 l70,0 l0,200 l-70,0 Z M0,0" fill="rgb(255,255,255)" transform="matrix(1,0,0,-1,0.0,200.0)"/>
 <path d="M0,0 l70,0" fill="none" stroke="rgb(229,229,229)" stroke-width="2" transform="matrix(1,0,0,-1,0.0,135.0)"/>
 <path d="M0,1 l0,-5" fill="none" stroke="rgb(204,204,204)" stroke-width="2" transform="matrix(1,0,0,-1,8.0,135.0)"/>
 <path d="M0,1 l0,-5" fill="none" stroke="rgb(204,204,204)" stroke-width="2" transform="matrix(1,0,0,-1,62.0,135.0)"/>
 <path d="M332,33 c86,11,156,66,156,156 c0,80,-43,131,-91,147 l-165,-37 c-30,8,-49,37,-49,59 c0,26,7,44,65,44 l189,0 l0,166 l134,0 l0,92 l-158,0 c-41,19,-83,62,-83,124 c0,58,44,96,95,96 c33,0,56,-9,71,-19 l33,92 c-16,9,-55,26,-111,26 c-118,0,-192,-83,-192,-177 c0,-75,38,-122,64,-142 l-317,0 l0,-92 l351,0 l0,-73 l-132,0 c-82,0,-127,-41,-127,-106 c0,-80,58,-159,154,-191 l141,34 c9,-6,21,-22,21,-45 c0,-58,-62,-83,-124,-83 l-22,0 l-146,93 c-26,-12,-45,-37,-45,-72 c0,-51,45,-110,162,-111 l170,-150 l121,64 l-165,101 Z M393,762 c0,-30,25,-55,56,-55 c33,0,58,25,58,55 c0,34,-25,59,-58,59 c-31,0,-56,-25,-56,-59 Z M393,762" fill="rgb(0,0,0)" transform="matrix(0.1,0.0,0.0,-0.1,8.0,135.0)"/>
</svg>