<?xml version="1.0" encoding="UTF-8"?>
<svg height="200.0" version="1.1" width="80.0" xmlns="http://www.w3.org/2000/svg" xmlns:xlink="http://www.w3.org/1999/xlink">
 <path d="M0,0 l80,0 l0,200 l-80,0 Z M0,0" fill="rgb(255,255,255)" transform="matrix(1,0,0,-1,0.0,200.0)"/>
 <path d="M0,0 l80,0" fill="none" stroke="rgb(229,229,229)" stroke-width="2" transform="matrix(1,0,0,-1,0.0,135.0)"/>
 <path d="M0,1 l0,-5" fill="none" stroke="rgb(204,204,204)" stroke-width="2" transform="matrix(1,0,0,-1,8.0,135.0)"/>
 <path d="M0,1 l0,-5" fill="none" stroke="rgb(204,204,204)" stroke-width="2" transform="matrix(1,0,0,-1,62.0,135.0)"/>
 <path d="M332,33 c86,11,156,66,156,156 c0,80,-43,131,-91,147 l-165,-37 c-30,8,-49,37,-49,59 c0,26,7,44,65,44 l189,0 l0,166 l134,0 l0,92 l-158,0 c-41,19,-83,62,-83,124 c0,58,44,96,95,96 c12,0,25,-1,35,-3 l16,96 c-17,3,-36,6,-58,6 c-118,0,-192,-83,-192,-177 c0,-75,38,-122,64,-142 l-317,0 l0,-92 l351,0 l0,-73 l-132,0 c-82,0,-127,-41,-127,-106 c0,-80,58,-159,154,-191 l141,34 c9,-6,21,-22,21,-45 c0,-58,-62,-83,-124,-83 l-22,0 l-146,93 c-26,-12,-45,-37,-45,-72 c0,-51,45,-110,162,-111 l170,-150 l121,64 l-165,101 Z M523,698 c72,0,123,42,140,89 l-59,38 c-10,-24,-36,-55,-81,-55 c-46,0,-71,31,-81,55 l-60,-38 c18,-47,68,-89,141,-89 Z M477,854 c0,-25,19,-45,46,-45 c27,0,46,20,46,45 c0,28,-19,47,-46,47 c-27,0,-46,-19,-46,-47 Z M477,854" fill="rgb(0,0,0)" transform="matrix(0.1,0.0,0.0,-0.1,8.0,135.0)"/>
</svg>