<?xml version="1.0" encoding="UTF-8"?>
<svg height="200.0" version="1.1" width="78.0" xmlns="http://www.w3.org/2000/svg" xmlns:xlink="http://www.w3.org/1999/xlink">
 <path d="M0,0 l78,0 l0,200 l-78,0 Z M0,0" fill="rgb(255,255,255)" transform="matrix(1,0,0,-1,0.0,200.0)"/>
 <path d="M0,0 l78,0" fill="none" stroke="rgb(229,229,229)" stroke-width="2" transform="matrix(1,0,0,-1,0.0,135.0)"/>
 <path d="M0,1 l0,-5" fill="none" stroke="rgb(204,204,204)" stroke-width="2" transform="matrix(1,0,0,-1,30.0,135.0)"/>
 <path d="M0,1 l0,-5" fill="none" stroke="rgb(204,204,204)" stroke-width="2" transform="matrix(1,0,0,-1,58.0,135.0)"/>
 <path d="M311,568 l0,92 l-114,0 c-17,161,-111,291,-275,291 c-106,0,-174,-67,-174,-149 c0,-37,13,-72,38,-97 l110,22 c-24,23,-32,48,-32,70 c0,36,23,62,65,62 c90,0,149,-104,155,-199 l-111,0 l0,-92 l111,0 l0,-568 l116,0 l0,568 Z M300,758 c71,0,119,43,136,89 l-61,38 c-8,-25,-31,-55,-75,-55 c-43,0,-66,30,-75,55 l-60,-38 c16,-46,64,-89,135,-89 Z M300,867 c27,0,47,20,47,45 c0,28,-20,47,-47,47 c-26,0,-45,-19,-45,-46 c0,-26,19,-46,45,-46 Z M300,867" fill="rgb(0,0,0)" transform="matrix(0.1,0.0,0.0,-0.1,30.0,135.0)"/>
</svg>