<?xml version="1.0" encoding="UTF-8"?>
<svg height="200.0" version="1.1" width="84.0" xmlns="http://www.w3.org/2000/svg" xmlns:xlink="http://www.w3.org/1999/xlink">
 <path d="M0,0 l84,0 l0,200 l-84,0 Z M0,0" fill="rgb(255,255,255)" transform="matrix(1,0,0,-1,0.0,200.0)"/>
 <path d="M0,0 l84,0" fill="none" stroke="rgb(229,229,229)" stroke-width="2" transform="matrix(1,0,0,-1,0.0,135.0)"/>
 <path d="M0,1 l0,-5" fill="none" stroke="rgb(204,204,204)" stroke-width="2" transform="matrix(1,0,0,-1,30.0,135.0)"/>
 <path d="M0,1 l0,-5" fill="none" stroke="rgb(204,204,204)" stroke-width="2" transform="matrix(1,0,0,-1,58.0,135.0)"/>
 <path d="M326,1013 c-9,2,-23,3,-33,3 c-97,0,-160,-70,-176,-169 l-4,0 c-19,34,-80,104,-190,104 c-110,0,-175,-69,-175,-149 c0,-37,13,-73,38,-97 l110,22 c-23,23,-32,46,-32,70 c0,35,24,62,65,62 c86,0,148,-93,155,-199 l-111,0 l0,-92 l111,0 l0,-568 l116,0 l0,568 l111,0 l0,92 l-116,0 c-8,24,-14,75,-14,110 c0,95,46,148,115,148 c6,0,12,-1,19,-2 Z M306,864 c0,-26,19,-46,45,-46 c27,0,47,20,47,45 c0,28,-20,47,-47,47 c-26,0,-45,-19,-45,-46 Z M351,709 c72,0,120,43,136,89 l-60,38 c-9,-25,-32,-55,-76,-55 c-43,0,-66,30,-75,55 l-60,-38 c16,-46,64,-89,135,-89 Z M351,709" fill="rgb(0,0,0)" transform="matrix(0.1,0.0,0.0,-0.1,30.0,135.0)"/>
</svg>