<?xml version="1.0" encoding="UTF-8"?>
<svg height="200.0" version="1.1" width="96.0" xmlns="http://www.w3.org/2000/svg" xmlns:xlink="http://www.w3.org/1999/xlink">
 <path d="M0,0 l96,0 l0,200 l-96,0 Z M0,0" fill="rgb(255,255,255)" transform="matrix(1,0,0,-1,0.0,200.0)"/>
 <path d="M0,0 l96,0" fill="none" stroke="rgb(229,229,229)" stroke-width="2" transform="matrix(1,0,0,-1,0.0,135.0)"/>
 <path d="M0,1 l0,-5" fill="none" stroke="rgb(204,204,204)" stroke-width="2" transform="matrix(1,0,0,-1,54.0,135.0)"/>
 <path d="M0,1 l0,-5" fill="none" stroke="rgb(204,204,204)" stroke-width="2" transform="matrix(1,0,0,-1,82.0,135.0)"/>
 <path d="M238,758 c72,0,120,43,136,89 l-60,38 c-9,-25,-32,-55,-76,-55 c-43,0,-66,30,-75,55 l-60,-38 c16,-46,64,-89,135,-89 Z M193,913 c0,-26,19,-46,45,-46 c27,0,47,20,47,45 c0,28,-20,47,-47,47 c-26,0,-45,-19,-45,-46 Z M311,568 l0,92 l-121,0 c-51,140,-204,297,-450,297 c-139,0,-225,-74,-225,-161 c0,-50,23,-82,43,-96 l105,24 c-20,16,-32,40,-32,66 c0,43,40,75,115,75 c175,0,289,-112,330,-205 l-103,0 l0,-92 l111,0 l0,-568 l116,0 l0,568 Z M311,568" fill="rgb(0,0,0)" transform="matrix(0.1,0.0,0.0,-0.1,54.0,135.0)"/>
</svg>