<?xml version="1.0" encoding="UTF-8"?>
<svg height="200.0" version="1.1" width="96.0" xmlns="http://www.w3.org/2000/svg" xmlns:xlink="http://www.w3.org/1999/xlink">
 <path d="M0,0 l96,0 l0,200 l-96,0 Z M0,0" fill="rgb(255,255,255)" transform="matrix(1,0,0,-1,0.0,200.0)"/>
 <path d="M0,0 l96,0" fill="none" stroke="rgb(229,229,229)" stroke-width="2" transform="matrix(1,0,0,-1,0.0,135.0)"/>
 <path d="M0,1 l0,-5" fill="none" stroke="rgb(204,204,204)" stroke-width="2" transform="matrix(1,0,0,-1,54.0,135.0)"/>
 <path d="M0,1 l0,-5" fill="none" stroke="rgb(204,204,204)" stroke-width="2" transform="matrix(1,0,0,-1,82.0,135.0)"/>
 <path d="M-27,568 l111,0 l0,-568 l116,0 l0,568 l111,0 l0,92 l-121,0 c-20,29,-30,66,-30,104 c0,63,41,112,109,112 c34,0,60,-10,77,-19 l36,92 c-16,9,-60,25,-115,25 c-106,0,-183,-76,-184,-169 l-4,0 c-60,71,-197,152,-346,152 c-136,0,-218,-74,-218,-161 c0,-50,23,-81,43,-96 l110,24 c-22,14,-37,41,-37,67 c0,42,34,74,109,74 c143,0,272,-93,333,-205 l-100,0 Z M218,762 c0,-31,25,-55,56,-55 c33,0,57,24,57,55 c0,34,-24,58,-57,58 c-31,0,-56,-24,-56,-58 Z M218,762" fill="rgb(0,0,0)" transform="matrix(0.1,0.0,0.0,-0.1,54.0,135.0)"/>
</svg>