<?xml version="1.0" encoding="UTF-8"?>
<svg height="200.0" version="1.1" width="106.0" xmlns="http://www.w3.org/2000/svg" xmlns:xlink="http://www.w3.org/1999/xlink">
 <path d="M0,0 l106,0 l0,200 l-106,0 Z M0,0" fill="rgb(255,255,255)" transform="matrix(1,0,0,-1,0.0,200.0)"/>
 <path d="M0,0 l106,0" fill="none" stroke="rgb(229,229,229)" stroke-width="2" transform="matrix(1,0,0,-1,0.0,135.0)"/>
 <path d="M0,1 l0,-5" fill="none" stroke="rgb(204,204,204)" stroke-width="2" transform="matrix(1,0,0,-1,54.0,135.0)"/>
 <path d="M0,1 l0,-5" fill="none" stroke="rgb(204,204,204)" stroke-width="2" transform="matrix(1,0,0,-1,82.0,135.0)"/>
 <path d="M280,1005 c-9,1,-16,1,-25,1 c-102,0,-166,-70,-172,-173 l0,-28 l-4,0 c-60,72,-195,152,-346,152 c-136,0,-218,-74,-218,-161 c0,-50,23,-81,43,-96 l110,24 c-22,14,-37,41,-37,67 c0,42,34,74,109,74 c143,0,273,-93,334,-205 l-101,0 l0,-92 l111,0 l0,-568 l116,0 l0,568 l111,0 l0,92 l-123,0 c-20,33,-30,85,-30,122 c0,87,44,126,101,126 c7,0,14,0,20,-1 Z M335,702 c71,0,119,43,136,89 l-61,38 c-8,-25,-31,-55,-75,-55 c-43,0,-66,30,-75,55 l-60,-38 c16,-46,64,-89,135,-89 Z M335,811 c27,0,47,20,47,45 c0,28,-20,47,-47,47 c-26,0,-45,-19,-45,-46 c0,-26,19,-46,45,-46 Z M335,811" fill="rgb(0,0,0)" transform="matrix(0.1,0.0,0.0,-0.1,54.0,135.0)"/>
</svg>