<?xml version="1.0" encoding="UTF-8"?>
<svg height="200.0" version="1.1" width="62.0" xmlns="http://www.w3.org/2000/svg" xmlns:xlink="http://www.w3.org/1999/xlink">
 <path d="M0,0 l62,0 l0,200 l-62,0 Z M0,0" fill="rgb(255,255,255)" transform="matrix(1,0,0,-1,0.0,200.0)"/>
 <path d="M0,0 l62,0" fill="none" stroke="rgb(229,229,229)" stroke-width="2" transform="matrix(1,0,0,-1,0.0,135.0)"/>
 <path d="M0,-4 l0,8" fill="none" stroke="rgb(255,76,25)" stroke-width="2" transform="matrix(1,0,0,-1,45.0,135.0)"/>
 <path d="M-403,903 l62,-82 c55,-74,114,-134,148,-164 l9,-6 l98,3 l-191,271 Z M-25,749 c71,0,119,43,136,89 l-61,38 c-9,-25,-31,-55,-75,-55 c-44,0,-66,30,-75,55 l-61,-38 c17,-46,65,-89,136,-89 Z M-25,858 c27,0,47,20,47,45 c0,28,-20,47,-47,47 c-26,0,-46,-19,-46,-46 c0,-26,20,-46,46,-46 Z M-25,858" fill="rgb(0,0,0)" transform="matrix(0.1,0.0,0.0,-0.1,45.0,135.0)"/>
</svg>