<?xml version="1.0" encoding="UTF-8"?>
<svg height="200.0" version="1.1" width="68.0" xmlns="http://www.w3.org/2000/svg" xmlns:xlink="http://www.w3.org/1999/xlink">
 <path d="M0,0 l68,0 l0,200 l-68,0 Z M0,0" fill="rgb(255,255,255)" transform="matrix(1,0,0,-1,0.0,200.0)"/>
 <path d="M0,0 l68,0" fill="none" stroke="rgb(229,229,229)" stroke-width="2" transform="matrix(1,0,0,-1,0.0,135.0)"/>
 <path d="M0,-4 l0,8" fill="none" stroke="rgb(255,76,25)" stroke-width="2" transform="matrix(1,0,0,-1,45.0,135.0)"/>
 <path d="M-85,654 l0,7 c-26,25,-51,76,-51,121 c0,81,50,127,115,117 l9,97 c-10,1,-19,2,-30,2 c-119,-3,-171,-99,-162,-207 l-4,0 l-70,134 l-125,-22 l61,-82 c45,-60,102,-123,156,-169 Z M175,799 l-60,38 c-9,-25,-32,-55,-76,-55 c-43,0,-66,30,-75,55 l-60,-38 c16,-46,64,-89,135,-89 c72,0,120,43,136,89 Z M86,864 c0,28,-20,47,-47,47 c-26,0,-45,-19,-45,-46 c0,-26,19,-46,45,-46 c27,0,47,20,47,45 Z M86,864" fill="rgb(0,0,0)" transform="matrix(0.1,0.0,0.0,-0.1,45.0,135.0)"/>
</svg>