<?xml version="1.0" encoding="UTF-8"?>
<svg height="200.0" version="1.1" width="80.0" xmlns="http://www.w3.org/2000/svg" xmlns:xlink="http://www.w3.org/1999/xlink">
 <path d="M0,0 l80,0 l0,200 l-80,0 Z M0,0" fill="rgb(255,255,255)" transform="matrix(1,0,0,-1,0.0,200.0)"/>
 <path d="M0,0 l80,0" fill="none" stroke="rgb(229,229,229)" stroke-width="2" transform="matrix(1,0,0,-1,0.0,135.0)"/>
 <path d="M0,-4 l0,8" fill="none" stroke="rgb(255,76,25)" stroke-width="2" transform="matrix(1,0,0,-1,59.0,135.0)"/>
 <path d="M-161,656 l-279,283 l-102,-63 c118,-109,284,-222,380,-278 l83,47 l-113,300 l-125,-28 l159,-260 Z M15,752 c71,0,120,42,136,89 l-60,37 c-9,-24,-32,-54,-76,-54 c-43,0,-66,30,-75,54 l-60,-37 c16,-47,64,-89,135,-89 Z M15,861 c27,0,47,19,47,45 c0,27,-20,47,-47,47 c-26,0,-45,-20,-45,-47 c0,-25,19,-45,45,-45 Z M15,861" fill="rgb(0,0,0)" transform="matrix(0.1,0.0,0.0,-0.1,59.0,135.0)"/>
</svg>