<?xml version="1.0" encoding="UTF-8"?>
<svg height="200.0" version="1.1" width="72.0" xmlns="http://www.w3.org/2000/svg" xmlns:xlink="http://www.w3.org/1999/xlink">
 <path d="M0,0 l72,0 l0,200 l-72,0 Z M0,0" fill="rgb(255,255,255)" transform="matrix(1,0,0,-1,0.0,200.0)"/>
 <path d="M0,0 l72,0" fill="none" stroke="rgb(229,229,229)" stroke-width="2" transform="matrix(1,0,0,-1,0.0,135.0)"/>
 <path d="M0,-4 l0,8" fill="none" stroke="rgb(255,76,25)" stroke-width="2" transform="matrix(1,0,0,-1,59.0,135.0)"/>
 <path d="M-18,853 c23,0,48,-7,65,-15 l22,97 c-19,9,-49,14,-81,14 c-99,0,-152,-63,-165,-125 l-4,0 l-49,122 l-126,-25 l182,-250 l-3,-2 l-269,264 l-97,-64 l88,-78 c92,-80,232,-167,303,-196 l59,56 c-18,28,-29,63,-29,93 c0,65,42,109,104,109 Z M-18,853" fill="rgb(0,0,0)" transform="matrix(0.1,0.0,0.0,-0.1,59.0,135.0)"/>
</svg>