<?xml version="1.0" encoding="UTF-8"?>
<svg height="200.0" version="1.1" width="72.0" xmlns="http://www.w3.org/2000/svg" xmlns:xlink="http://www.w3.org/1999/xlink">
 <path d="M0,0 l72,0 l0,200 l-72,0 Z M0,0" fill="rgb(255,255,255)" transform="matrix(1,0,0,-1,0.0,200.0)"/>
 <path d="M0,0 l72,0" fill="none" stroke="rgb(229,229,229)" stroke-width="2" transform="matrix(1,0,0,-1,0.0,135.0)"/>
 <path d="M0,-4 l0,8" fill="none" stroke="rgb(255,76,25)" stroke-width="2" transform="matrix(1,0,0,-1,59.0,135.0)"/>
 <path d="M-16,877 c23,0,48,-6,65,-14 l22,97 c-19,8,-49,13,-81,13 c-105,0,-168,-76,-171,-145 l-4,0 l-45,118 l-126,-25 l182,-250 l-3,-2 l-269,264 l-97,-64 l88,-78 c92,-80,232,-167,303,-196 l60,56 c-18,27,-34,65,-34,107 c0,69,45,119,110,119 Z M-67,760 c0,-30,26,-54,56,-54 c33,0,57,24,57,54 c0,34,-24,59,-57,59 c-30,0,-56,-25,-56,-59 Z M-67,760" fill="rgb(0,0,0)" transform="matrix(0.1,0.0,0.0,-0.1,59.0,135.0)"/>
</svg>