<?xml version="1.0" encoding="UTF-8"?>
<svg height="200.0" version="1.1" width="82.0" xmlns="http://www.w3.org/2000/svg" xmlns:xlink="http://www.w3.org/1999/xlink">
 <path d="M0,0 l82,0 l0,200 l-82,0 Z M0,0" fill="rgb(255,255,255)" transform="matrix(1,0,0,-1,0.0,200.0)"/>
 <path d="M0,0 l82,0" fill="none" stroke="rgb(229,229,229)" stroke-width="2" transform="matrix(1,0,0,-1,0.0,135.0)"/>
 <path d="M0,-4 l0,8" fill="none" stroke="rgb(255,76,25)" stroke-width="2" transform="matrix(1,0,0,-1,59.0,135.0)"/>
 <path d="M-92,651 c-19,29,-35,72,-35,116 c0,83,55,126,120,126 l4,96 l-11,0 c-108,-1,-165,-88,-167,-161 l-4,0 l-45,118 l-126,-25 l182,-250 l-3,-2 l-269,264 l-97,-64 l88,-78 c92,-80,232,-167,303,-196 Z M179,784 l-60,38 c-9,-25,-32,-54,-76,-54 c-43,0,-66,29,-75,54 l-60,-38 c16,-46,64,-88,135,-88 c71,0,120,42,136,88 Z M90,850 c0,27,-20,47,-47,47 c-26,0,-45,-20,-45,-47 c0,-26,19,-46,45,-46 c27,0,47,20,47,46 Z M90,850" fill="rgb(0,0,0)" transform="matrix(0.1,0.0,0.0,-0.1,59.0,135.0)"/>
</svg>