<?xml version="1.0" encoding="UTF-8"?>
<svg height="200.0" version="1.1" width="58.0" xmlns="http://www.w3.org/2000/svg" xmlns:xlink="http://www.w3.org/1999/xlink">
 <path d="M0,0 l58,0 l0,200 l-58,0 Z M0,0" fill="rgb(255,255,255)" transform="matrix(1,0,0,-1,0.0,200.0)"/>
 <path d="M0,0 l58,0" fill="none" stroke="rgb(229,229,229)" stroke-width="2" transform="matrix(1,0,0,-1,0.0,135.0)"/>
 <path d="M0,-4 l0,8" fill="none" stroke="rgb(255,76,25)" stroke-width="2" transform="matrix(1,0,0,-1,50.0,135.0)"/>
 <path d="M37,941 c-14,2,-29,4,-43,4 c-99,0,-135,-54,-143,-120 l-4,0 l-27,98 l-117,-19 l145,-247 l-11,-5 l-180,190 l-108,-52 c103,-81,214,-151,286,-192 l83,48 l1,2 c-18,28,-31,63,-31,92 c0,66,37,108,100,108 c13,0,27,-2,39,-5 Z M37,941" fill="rgb(0,0,0)" transform="matrix(0.1,0.0,0.0,-0.1,50.0,135.0)"/>
</svg>