<?xml version="1.0" encoding="UTF-8"?>
<svg height="200.0" version="1.1" width="72.0" xmlns="http://www.w3.org/2000/svg" xmlns:xlink="http://www.w3.org/1999/xlink">
 <path d="M0,0 l72,0 l0,200 l-72,0 Z M0,0" fill="rgb(255,255,255)" transform="matrix(1,0,0,-1,0.0,200.0)"/>
 <path d="M0,0 l72,0" fill="none" stroke="rgb(229,229,229)" stroke-width="2" transform="matrix(1,0,0,-1,0.0,135.0)"/>
 <path d="M0,-4 l0,8" fill="none" stroke="rgb(255,76,25)" stroke-width="2" transform="matrix(1,0,0,-1,50.0,135.0)"/>
 <path d="M-82,647 c-26,34,-45,74,-45,118 c0,83,48,128,113,128 l4,96 l-11,0 c-108,-1,-147,-87,-148,-160 l-4,0 l-23,96 l-104,-21 l148,-247 l-11,-5 l-180,190 l-108,-52 c103,-81,214,-151,286,-192 Z M172,784 l-60,38 c-9,-25,-32,-54,-76,-54 c-43,0,-66,29,-75,54 l-60,-38 c16,-46,64,-88,135,-88 c71,0,120,42,136,88 Z M83,850 c0,27,-20,47,-47,47 c-26,0,-45,-20,-45,-47 c0,-26,19,-46,45,-46 c27,0,47,20,47,46 Z M83,850" fill="rgb(0,0,0)" transform="matrix(0.1,0.0,0.0,-0.1,50.0,135.0)"/>
</svg>