<?xml version="1.0" encoding="UTF-8"?>
<svg height="200.0" version="1.1" width="80.0" xmlns="http://www.w3.org/2000/svg" xmlns:xlink="http://www.w3.org/1999/xlink">
 <path d="M0,0 l80,0 l0,200 l-80,0 Z M0,0" fill="rgb(255,255,255)" transform="matrix(1,0,0,-1,0.0,200.0)"/>
 <path d="M0,0 l80,0" fill="none" stroke="rgb(229,229,229)" stroke-width="2" transform="matrix(1,0,0,-1,0.0,135.0)"/>
 <path d="M0,1 l0,-5" fill="none" stroke="rgb(204,204,204)" stroke-width="2" transform="matrix(1,0,0,-1,30.0,135.0)"/>
 <path d="M0,1 l0,-5" fill="none" stroke="rgb(204,204,204)" stroke-width="2" transform="matrix(1,0,0,-1,58.0,135.0)"/>
 <path d="M311,568 l0,92 l-105,0 l-107,285 l-125,-28 l157,-257 l-5,0 l-275,279 l-102,-63 c84,-77,191,-156,281,-216 l-57,0 l0,-92 l111,0 l0,-568 l116,0 l0,568 Z M306,752 c71,0,119,42,136,89 l-61,37 c-9,-24,-31,-54,-75,-54 c-43,0,-66,30,-75,54 l-60,-37 c16,-47,64,-89,135,-89 Z M306,861 c27,0,47,19,47,45 c0,27,-20,47,-47,47 c-26,0,-45,-20,-45,-47 c0,-25,19,-45,45,-45 Z M306,861" fill="rgb(0,0,0)" transform="matrix(0.1,0.0,0.0,-0.1,30.0,135.0)"/>
</svg>