<?xml version="1.0" encoding="UTF-8"?>
<svg height="200.0" version="1.1" width="72.0" xmlns="http://www.w3.org/2000/svg" xmlns:xlink="http://www.w3.org/1999/xlink">
 <path d="M0,0 l72,0 l0,200 l-72,0 Z M0,0" fill="rgb(255,255,255)" transform="matrix(1,0,0,-1,0.0,200.0)"/>
 <path d="M0,0 l72,0" fill="none" stroke="rgb(229,229,229)" stroke-width="2" transform="matrix(1,0,0,-1,0.0,135.0)"/>
 <path d="M0,1 l0,-5" fill="none" stroke="rgb(204,204,204)" stroke-width="2" transform="matrix(1,0,0,-1,28.0,135.0)"/>
 <path d="M0,1 l0,-5" fill="none" stroke="rgb(204,204,204)" stroke-width="2" transform="matrix(1,0,0,-1,56.0,135.0)"/>
 <path d="M311,568 l0,92 l-99,0 c-15,26,-24,57,-24,84 c0,65,42,109,104,109 c23,0,48,-7,65,-15 l22,97 c-19,9,-49,14,-81,14 c-99,0,-152,-63,-165,-125 l-4,0 l-49,122 l-126,-25 l182,-250 l-3,-2 l-269,264 l-97,-64 l88,-78 c52,-45,120,-93,181,-131 l-63,0 l0,-92 l111,0 l0,-568 l116,0 l0,568 Z M311,568" fill="rgb(0,0,0)" transform="matrix(0.1,0.0,0.0,-0.1,28.0,135.0)"/>
</svg>