<?xml version="1.0" encoding="UTF-8"?>
<svg height="200.0" version="1.1" width="82.0" xmlns="http://www.w3.org/2000/svg" xmlns:xlink="http://www.w3.org/1999/xlink">
 <path d="M0,0 l82,0 l0,200 l-82,0 Z M0,0" fill="rgb(255,255,255)" transform="matrix(1,0,0,-1,0.0,200.0)"/>
 <path d="M0,0 l82,0" fill="none" stroke="rgb(229,229,229)" stroke-width="2" transform="matrix(1,0,0,-1,0.0,135.0)"/>
 <path d="M0,1 l0,-5" fill="none" stroke="rgb(204,204,204)" stroke-width="2" transform="matrix(1,0,0,-1,28.0,135.0)"/>
 <path d="M0,1 l0,-5" fill="none" stroke="rgb(204,204,204)" stroke-width="2" transform="matrix(1,0,0,-1,56.0,135.0)"/>
 <path d="M311,568 l0,92 l-98,0 c-17,28,-29,67,-29,107 c0,83,55,126,119,126 l4,96 l-11,0 c-108,-1,-165,-88,-167,-161 l-4,0 l-44,118 l-127,-25 l182,-250 l-3,-2 l-269,264 l-97,-64 l89,-78 c52,-45,119,-93,181,-131 l-64,0 l0,-92 l111,0 l0,-568 l116,0 l0,568 Z M353,696 c72,0,120,42,136,88 l-60,38 c-9,-25,-32,-54,-76,-54 c-43,0,-66,29,-75,54 l-60,-38 c16,-46,64,-88,135,-88 Z M353,804 c27,0,47,20,47,46 c0,27,-20,47,-47,47 c-26,0,-45,-20,-45,-47 c0,-26,19,-46,45,-46 Z M353,804" fill="rgb(0,0,0)" transform="matrix(0.1,0.0,0.0,-0.1,28.0,135.0)"/>
</svg>