<?xml version="1.0" encoding="UTF-8"?>
<svg height="200.0" version="1.1" width="56.0" xmlns="http://www.w3.org/2000/svg" xmlns:xlink="http://www.w3.org/1999/xlink">
 <path d="M0,0 l56,0 l0,200 l-56,0 Z M0,0" fill="rgb(255,255,255)" transform="matrix(1,0,0,-1,0.0,200.0)"/>
 <path d="M0,0 l56,0" fill="none" stroke="rgb(229,229,229)" stroke-width="2" transform="matrix(1,0,0,-1,0.0,135.0)"/>
 <path d="M0,1 l0,-5" fill="none" stroke="rgb(204,204,204)" stroke-width="2" transform="matrix(1,0,0,-1,13.0,135.0)"/>
 <path d="M0,1 l0,-5" fill="none" stroke="rgb(204,204,204)" stroke-width="2" transform="matrix(1,0,0,-1,41.0,135.0)"/>
 <path d="M311,568 l0,92 l-338,0 l0,-92 l111,0 l0,-568 l116,0 l0,568 Z M142,740 c119,0,194,61,227,141 l-89,45 c-22,-56,-68,-90,-138,-90 c-69,0,-115,34,-137,90 l-89,-45 c33,-80,108,-141,226,-141 Z M74,980 c0,-38,30,-68,68,-68 c41,0,71,30,71,68 c0,41,-30,71,-71,71 c-38,0,-68,-30,-68,-71 Z M74,980" fill="rgb(0,0,0)" transform="matrix(0.1,0.0,0.0,-0.1,13.0,135.0)"/>
</svg>