<?xml version="1.0" encoding="UTF-8"?>
<svg height="200.0" version="1.1" width="96.0" xmlns="http://www.w3.org/2000/svg" xmlns:xlink="http://www.w3.org/1999/xlink">
 <path d="M0,0 l96,0 l0,200 l-96,0 Z M0,0" fill="rgb(255,255,255)" transform="matrix(1,0,0,-1,0.0,200.0)"/>
 <path d="M0,0 l96,0" fill="none" stroke="rgb(229,229,229)" stroke-width="2" transform="matrix(1,0,0,-1,0.0,135.0)"/>
 <path d="M0,1 l0,-5" fill="none" stroke="rgb(204,204,204)" stroke-width="2" transform="matrix(1,0,0,-1,8.0,135.0)"/>
 <path d="M0,1 l0,-5" fill="none" stroke="rgb(204,204,204)" stroke-width="2" transform="matrix(1,0,0,-1,89.0,135.0)"/>
 <path d="M794,-137 c0,97,-75,154,-171,154 c-15,0,-29,-2,-42,-4 c-92,24,-119,67,-119,112 c0,53,51,93,127,93 c41,0,67,-19,67,-47 c0,-26,-16,-47,-37,-67 l99,-54 c23,27,44,68,44,116 c0,75,-64,144,-172,144 c-33,0,-64,-4,-92,-13 c-30,16,-47,40,-47,65 c0,22,12,39,53,39 l219,0 l0,167 l109,0 l0,92 l-859,0 l0,-92 l638,0 l0,-75 l-135,0 c-72,0,-119,-30,-134,-78 l-244,0 l-82,-59 c1,-89,43,-145,95,-171 l58,26 l0,103 l186,0 c13,-23,33,-43,59,-58 c-42,-33,-66,-79,-66,-127 c0,-122,106,-189,227,-217 c11,6,25,9,41,9 c35,0,62,-23,62,-60 c0,-54,-45,-75,-96,-75 c-101,0,-188,70,-241,150 l-80,-66 c51,-70,157,-178,322,-178 c152,0,211,86,211,171 Z M794,-137" fill="rgb(0,0,0)" transform="matrix(0.1,0.0,0.0,-0.1,8.0,135.0)"/>
</svg>