<?xml version="1.0" encoding="UTF-8"?>
<svg height="200.0" version="1.1" width="100.0" xmlns="http://www.w3.org/2000/svg" xmlns:xlink="http://www.w3.org/1999/xlink">
 <path d="M0,0 l100,0 l0,200 l-100,0 Z M0,0" fill="rgb(255,255,255)" transform="matrix(1,0,0,-1,0.0,200.0)"/>
 <path d="M0,0 l100,0" fill="none" stroke="rgb(229,229,229)" stroke-width="2" transform="matrix(1,0,0,-1,0.0,135.0)"/>
 <path d="M0,1 l0,-5" fill="none" stroke="rgb(204,204,204)" stroke-width="2" transform="matrix(1,0,0,-1,8.0,135.0)"/>
 <path d="M0,1 l0,-5" fill="none" stroke="rgb(204,204,204)" stroke-width="2" transform="matrix(1,0,0,-1,89.0,135.0)"/>
 <path d="M863,-269 c-21,129,-127,296,-302,296 c-7,0,-14,0,-21,-1 c-60,25,-78,61,-78,99 c0,53,50,93,129,93 c41,0,65,-20,65,-47 c0,-28,-19,-51,-42,-73 l95,-56 c26,28,51,67,51,120 c0,77,-58,148,-170,148 c-33,0,-64,-4,-91,-12 c-30,15,-48,40,-48,64 c0,22,12,39,53,39 l219,0 l0,167 l109,0 l0,92 l-859,0 l0,-92 l638,0 l0,-75 l-135,0 c-72,0,-119,-30,-134,-78 l-244,0 l-82,-59 c1,-89,43,-145,95,-171 l58,26 l0,103 l186,0 c13,-23,33,-43,60,-58 c-43,-33,-67,-78,-67,-127 c0,-66,30,-114,81,-149 c-30,-28,-48,-67,-48,-113 c0,-85,61,-152,154,-152 c24,0,53,3,77,15 l0,101 c-18,-11,-37,-19,-58,-19 c-36,0,-61,25,-61,58 c0,36,28,61,67,61 c87,0,168,-92,193,-230 Z M863,-269" fill="rgb(0,0,0)" transform="matrix(0.1,0.0,0.0,-0.1,8.0,135.0)"/>
</svg>