<?xml version="1.0" encoding="UTF-8"?>
<svg height="200.0" version="1.1" width="102.0" xmlns="http://www.w3.org/2000/svg" xmlns:xlink="http://www.w3.org/1999/xlink">
 <path d="M0,0 l102,0 l0,200 l-102,0 Z M0,0" fill="rgb(255,255,255)" transform="matrix(1,0,0,-1,0.0,200.0)"/>
 <path d="M0,0 l102,0" fill="none" stroke="rgb(229,229,229)" stroke-width="2" transform="matrix(1,0,0,-1,0.0,135.0)"/>
 <path d="M0,1 l0,-5" fill="none" stroke="rgb(204,204,204)" stroke-width="2" transform="matrix(1,0,0,-1,8.0,135.0)"/>
 <path d="M0,1 l0,-5" fill="none" stroke="rgb(204,204,204)" stroke-width="2" transform="matrix(1,0,0,-1,95.0,135.0)"/>
 <path d="M675,568 l0,-75 l-134,0 c-88,0,-139,-45,-139,-111 c0,-8,1,-15,2,-22 l-174,0 l0,208 Z M858,-137 c0,97,-75,154,-171,154 c-15,0,-29,-2,-42,-4 c-91,24,-119,67,-119,112 c0,53,51,93,127,93 c41,0,67,-19,67,-47 c0,-26,-15,-47,-36,-67 l98,-54 c23,27,44,68,44,116 c0,75,-63,144,-171,144 c-34,0,-65,-4,-93,-13 c-29,16,-47,40,-47,65 c0,22,13,39,53,39 l220,0 l0,167 l108,0 l0,92 l-923,0 l0,-92 l143,0 l0,-213 l-53,-41 c0,-47,25,-120,74,-157 l90,0 l0,100 l250,0 c1,0,1,-1,2,-1 c-42,-33,-66,-79,-66,-127 c0,-122,106,-189,227,-217 c11,6,25,9,40,9 c35,0,63,-23,63,-60 c0,-54,-46,-75,-97,-75 c-101,0,-187,70,-240,150 l-81,-66 c52,-70,157,-178,323,-178 c151,0,210,86,210,171 Z M858,-137" fill="rgb(0,0,0)" transform="matrix(0.1,0.0,0.0,-0.1,8.0,135.0)"/>
</svg>