<?xml version="1.0" encoding="UTF-8"?>
<svg height="200.0" version="1.1" width="106.0" xmlns="http://www.w3.org/2000/svg" xmlns:xlink="http://www.w3.org/1999/xlink">
 <path d="M0,0 l106,0 l0,200 l-106,0 Z M0,0" fill="rgb(255,255,255)" transform="matrix(1,0,0,-1,0.0,200.0)"/>
 <path d="M0,0 l106,0" fill="none" stroke="rgb(229,229,229)" stroke-width="2" transform="matrix(1,0,0,-1,0.0,135.0)"/>
 <path d="M0,1 l0,-5" fill="none" stroke="rgb(204,204,204)" stroke-width="2" transform="matrix(1,0,0,-1,8.0,135.0)"/>
 <path d="M0,1 l0,-5" fill="none" stroke="rgb(204,204,204)" stroke-width="2" transform="matrix(1,0,0,-1,95.0,135.0)"/>
 <path d="M675,568 l0,-75 l-134,0 c-88,0,-139,-45,-139,-111 c0,-8,1,-15,2,-22 l-174,0 l0,208 Z M927,-269 c-21,129,-127,296,-301,296 c-7,0,-15,0,-22,-1 c-60,25,-78,61,-78,99 c0,53,51,93,130,93 c40,0,64,-20,64,-47 c0,-28,-18,-51,-42,-73 l96,-56 c26,28,50,67,50,120 c0,77,-57,148,-169,148 c-33,0,-64,-4,-92,-13 c-30,16,-48,41,-48,65 c0,22,13,39,53,39 l220,0 l0,167 l108,0 l0,92 l-923,0 l0,-92 l143,0 l0,-213 l-53,-41 c0,-47,25,-120,74,-157 l90,0 l0,100 l250,0 l2,-1 c-42,-33,-66,-78,-66,-127 c0,-66,30,-115,81,-150 c-30,-27,-48,-66,-48,-112 c0,-85,60,-152,154,-152 c23,0,52,3,77,15 l0,101 c-18,-11,-37,-19,-59,-19 c-36,0,-60,25,-60,58 c0,36,28,61,67,61 c87,0,167,-92,193,-230 Z M927,-269" fill="rgb(0,0,0)" transform="matrix(0.1,0.0,0.0,-0.1,8.0,135.0)"/>
</svg>