<?xml version="1.0" encoding="UTF-8"?>
<svg height="200.0" version="1.1" width="88.0" xmlns="http://www.w3.org/2000/svg" xmlns:xlink="http://www.w3.org/1999/xlink">
 <path d="M0,0 l88,0 l0,200 l-88,0 Z M0,0" fill="rgb(255,255,255)" transform="matrix(1,0,0,-1,0.0,200.0)"/>
 <path d="M0,0 l88,0" fill="none" stroke="rgb(229,229,229)" stroke-width="2" transform="matrix(1,0,0,-1,0.0,135.0)"/>
 <path d="M0,1 l0,-5" fill="none" stroke="rgb(204,204,204)" stroke-width="2" transform="matrix(1,0,0,-1,8.0,135.0)"/>
 <path d="M0,1 l0,-5" fill="none" stroke="rgb(204,204,204)" stroke-width="2" transform="matrix(1,0,0,-1,79.0,135.0)"/>
 <path d="M701,-137 c0,97,-74,154,-170,154 c-15,0,-30,-2,-42,-4 c-92,24,-119,67,-119,112 c0,53,51,93,127,93 c41,0,66,-19,66,-47 c0,-26,-15,-47,-36,-67 l99,-54 c23,27,44,68,44,116 c0,75,-64,144,-172,144 c-34,0,-64,-4,-92,-13 c-30,16,-47,40,-47,65 c0,22,12,39,53,39 l219,0 l0,167 l109,0 l0,92 l-767,0 l0,-92 l546,0 l0,-75 l-135,0 c-87,0,-139,-45,-139,-111 c0,-3,0,-5,0,-7 c-32,-14,-70,-25,-115,-25 c-66,0,-105,22,-128,38 l-35,-77 c23,-21,82,-54,165,-54 c64,0,114,15,151,30 c11,-11,24,-22,39,-31 c-42,-33,-66,-79,-66,-127 c0,-122,106,-189,227,-217 c11,6,25,9,41,9 c35,0,62,-23,62,-60 c0,-54,-45,-75,-97,-75 c-100,0,-187,70,-240,150 l-80,-66 c51,-70,157,-178,322,-178 c151,0,210,86,210,171 Z M701,-137" fill="rgb(0,0,0)" transform="matrix(0.1,0.0,0.0,-0.1,8.0,135.0)"/>
</svg>