<?xml version="1.0" encoding="UTF-8"?>
<svg height="200.0" version="1.1" width="114.0" xmlns="http://www.w3.org/2000/svg" xmlns:xlink="http://www.w3.org/1999/xlink">
 <path d="M0,0 l114,0 l0,200 l-114,0 Z M0,0" fill="rgb(255,255,255)" transform="matrix(1,0,0,-1,0.0,200.0)"/>
 <path d="M0,0 l114,0" fill="none" stroke="rgb(229,229,229)" stroke-width="2" transform="matrix(1,0,0,-1,0.0,135.0)"/>
 <path d="M0,1 l0,-5" fill="none" stroke="rgb(204,204,204)" stroke-width="2" transform="matrix(1,0,0,-1,8.0,135.0)"/>
 <path d="M0,1 l0,-5" fill="none" stroke="rgb(204,204,204)" stroke-width="2" transform="matrix(1,0,0,-1,107.0,135.0)"/>
 <path d="M979,-137 c0,97,-75,154,-171,154 c-15,0,-29,-2,-42,-4 c-91,24,-119,67,-119,112 c0,53,51,93,127,93 c41,0,67,-19,67,-47 c0,-26,-16,-47,-36,-67 l98,-54 c23,27,44,68,44,116 c0,75,-64,144,-171,144 c-34,0,-65,-4,-93,-13 c-29,16,-47,40,-47,65 c0,22,12,39,53,39 l219,0 l0,167 l109,0 l0,92 l-1044,0 l0,-92 l823,0 l0,-75 l-134,0 c-51,0,-89,-15,-113,-40 c-23,11,-51,19,-86,19 c-68,0,-106,-38,-119,-81 l-4,0 c-18,48,-63,76,-125,76 c-88,0,-177,-61,-177,-192 c0,-124,76,-231,188,-290 l75,79 c-105,56,-146,133,-146,206 c0,74,37,97,71,97 c40,0,66,-26,66,-80 l0,-99 l107,0 l0,99 c0,55,27,83,70,83 c24,0,43,-8,56,-18 c9,-39,35,-73,75,-96 c-42,-33,-66,-79,-66,-127 c0,-122,106,-189,227,-217 c11,6,25,9,40,9 c35,0,63,-23,63,-60 c0,-54,-46,-75,-97,-75 c-101,0,-188,70,-240,150 l-81,-66 c51,-70,157,-178,323,-178 c151,0,210,86,210,171 Z M979,-137" fill="rgb(0,0,0)" transform="matrix(0.1,0.0,0.0,-0.1,8.0,135.0)"/>
</svg>