<?xml version="1.0" encoding="UTF-8"?>
<svg height="200.0" version="1.1" width="100.0" xmlns="http://www.w3.org/2000/svg" xmlns:xlink="http://www.w3.org/1999/xlink">
 <path d="M0,0 l100,0 l0,200 l-100,0 Z M0,0" fill="rgb(255,255,255)" transform="matrix(1,0,0,-1,0.0,200.0)"/>
 <path d="M0,0 l100,0" fill="none" stroke="rgb(229,229,229)" stroke-width="2" transform="matrix(1,0,0,-1,0.0,135.0)"/>
 <path d="M0,1 l0,-5" fill="none" stroke="rgb(204,204,204)" stroke-width="2" transform="matrix(1,0,0,-1,8.0,135.0)"/>
 <path d="M0,1 l0,-5" fill="none" stroke="rgb(204,204,204)" stroke-width="2" transform="matrix(1,0,0,-1,93.0,135.0)"/>
 <path d="M837,-137 c0,97,-74,154,-170,154 c-15,0,-30,-2,-42,-4 c-92,24,-119,67,-119,112 c0,53,51,93,127,93 c41,0,66,-19,66,-47 c0,-26,-15,-47,-36,-67 l99,-54 c23,27,44,68,44,116 c0,75,-64,144,-172,144 c-34,0,-64,-4,-92,-13 c-30,16,-47,40,-47,65 c0,22,12,39,53,39 l219,0 l0,167 l109,0 l0,92 l-903,0 l0,-92 l682,0 l0,-75 l-135,0 c-87,0,-139,-45,-139,-111 c0,-52,28,-97,77,-126 c-10,-8,-18,-16,-26,-25 c-56,-51,-103,-65,-167,-65 c-62,0,-106,38,-106,96 c0,59,42,94,103,94 c13,0,30,-1,45,-6 l-9,103 c-15,2,-36,4,-50,4 c-102,0,-209,-63,-209,-196 c0,-117,94,-195,216,-195 c58,0,104,13,140,31 c17,-102,114,-160,224,-185 c11,6,25,9,41,9 c35,0,62,-23,62,-60 c0,-54,-45,-75,-97,-75 c-100,0,-187,70,-240,150 l-80,-66 c51,-70,157,-178,322,-178 c151,0,210,86,210,171 Z M837,-137" fill="rgb(0,0,0)" transform="matrix(0.1,0.0,0.0,-0.1,8.0,135.0)"/>
</svg>