<?xml version="1.0" encoding="UTF-8"?>
<svg height="200.0" version="1.1" width="104.0" xmlns="http://www.w3.org/2000/svg" xmlns:xlink="http://www.w3.org/1999/xlink">
 <path d="M0,0 l104,0 l0,200 l-104,0 Z M0,0" fill="rgb(255,255,255)" transform="matrix(1,0,0,-1,0.0,200.0)"/>
 <path d="M0,0 l104,0" fill="none" stroke="rgb(229,229,229)" stroke-width="2" transform="matrix(1,0,0,-1,0.0,135.0)"/>
 <path d="M0,1 l0,-5" fill="none" stroke="rgb(204,204,204)" stroke-width="2" transform="matrix(1,0,0,-1,8.0,135.0)"/>
 <path d="M0,1 l0,-5" fill="none" stroke="rgb(204,204,204)" stroke-width="2" transform="matrix(1,0,0,-1,93.0,135.0)"/>
 <path d="M906,-269 c-21,129,-127,296,-302,296 c-7,0,-14,0,-21,-1 c-60,25,-78,61,-78,99 c0,53,50,93,129,93 c41,0,64,-20,64,-47 c0,-28,-18,-51,-41,-73 l95,-56 c26,28,51,67,51,120 c0,77,-58,148,-170,148 c-33,0,-64,-4,-92,-12 c-30,15,-47,40,-47,64 c0,22,12,39,53,39 l219,0 l0,167 l109,0 l0,92 l-902,0 l0,-92 l681,0 l0,-75 l-135,0 c-87,0,-139,-45,-139,-111 c0,-52,28,-97,77,-126 c-10,-8,-20,-18,-28,-27 c-54,-49,-101,-63,-164,-63 c-62,0,-106,38,-106,96 c0,59,42,94,103,94 c13,0,30,-1,45,-6 l-9,103 c-15,2,-36,4,-50,4 c-102,0,-209,-63,-209,-196 c0,-117,94,-195,216,-195 c58,0,103,12,139,30 c8,-49,35,-88,78,-116 c-30,-28,-48,-67,-48,-113 c0,-85,61,-152,154,-152 c24,0,53,3,77,15 l0,101 c-18,-11,-37,-19,-59,-19 c-35,0,-60,25,-60,58 c0,36,28,61,67,61 c87,0,168,-92,193,-230 Z M906,-269" fill="rgb(0,0,0)" transform="matrix(0.1,0.0,0.0,-0.1,8.0,135.0)"/>
</svg>