<?xml version="1.0" encoding="UTF-8"?>
<svg height="200.0" version="1.1" width="84.0" xmlns="http://www.w3.org/2000/svg" xmlns:xlink="http://www.w3.org/1999/xlink">
 <path d="M0,0 l84,0 l0,200 l-84,0 Z M0,0" fill="rgb(255,255,255)" transform="matrix(1,0,0,-1,0.0,200.0)"/>
 <path d="M0,0 l84,0" fill="none" stroke="rgb(229,229,229)" stroke-width="2" transform="matrix(1,0,0,-1,0.0,135.0)"/>
 <path d="M0,1 l0,-5" fill="none" stroke="rgb(204,204,204)" stroke-width="2" transform="matrix(1,0,0,-1,5.0,135.0)"/>
 <path d="M0,1 l0,-5" fill="none" stroke="rgb(204,204,204)" stroke-width="2" transform="matrix(1,0,0,-1,77.0,135.0)"/>
 <path d="M735,-131 l-49,87 c-39,-29,-93,-46,-143,-46 c-56,0,-89,25,-89,63 c0,52,53,82,168,82 l14,0 l0,513 l111,0 l0,92 l-228,0 l0,-339 c-56,7,-111,20,-158,38 c54,45,78,96,78,155 c0,91,-62,157,-167,157 c-101,0,-169,-71,-169,-159 c0,-45,22,-93,65,-138 c-44,-12,-98,-23,-163,-31 l62,-106 c80,19,145,40,198,64 c66,-37,151,-66,254,-81 l0,-84 c-85,-11,-179,-60,-179,-162 c0,-104,88,-162,201,-162 c76,0,147,24,194,57 Z M209,509 c0,43,26,67,62,67 c35,0,59,-23,59,-65 c0,-39,-22,-72,-67,-98 c-34,27,-54,59,-54,96 Z M209,509" fill="rgb(0,0,0)" transform="matrix(0.1,0.0,0.0,-0.1,5.0,135.0)"/>
</svg>