<?xml version="1.0" encoding="UTF-8"?>
<svg height="200.0" version="1.1" width="70.0" xmlns="http://www.w3.org/2000/svg" xmlns:xlink="http://www.w3.org/1999/xlink">
 <path d="M0,0 l70,0 l0,200 l-70,0 Z M0,0" fill="rgb(255,255,255)" transform="matrix(1,0,0,-1,0.0,200.0)"/>
 <path d="M0,0 l70,0" fill="none" stroke="rgb(229,229,229)" stroke-width="2" transform="matrix(1,0,0,-1,0.0,135.0)"/>
 <path d="M0,1 l0,-5" fill="none" stroke="rgb(204,204,204)" stroke-width="2" transform="matrix(1,0,0,-1,8.0,135.0)"/>
 <path d="M0,1 l0,-5" fill="none" stroke="rgb(204,204,204)" stroke-width="2" transform="matrix(1,0,0,-1,61.0,135.0)"/>
 <path d="M443,-59 c-186,33,-269,96,-269,186 c0,61,53,112,141,112 c30,0,35,-9,35,-19 c0,-20,-72,-47,-72,-96 c0,-64,73,-111,150,-111 c50,0,99,11,141,41 l-37,81 c-28,-27,-62,-43,-101,-43 c-35,0,-56,12,-56,30 c0,30,78,59,78,109 c0,49,-37,91,-138,91 c-43,0,-80,-7,-113,-19 c-24,15,-36,38,-36,59 c0,23,14,39,51,39 l226,0 l0,167 l109,0 l0,92 l-579,0 l0,-92 l358,0 l0,-75 l-135,0 c-87,0,-139,-45,-139,-111 c0,-51,25,-94,73,-123 c-38,-35,-59,-80,-59,-128 c0,-143,155,-239,307,-273 Z M443,-59" fill="rgb(0,0,0)" transform="matrix(0.1,0.0,0.0,-0.1,8.0,135.0)"/>
</svg>