<?xml version="1.0" encoding="UTF-8"?>
<svg height="200.0" version="1.1" width="72.0" xmlns="http://www.w3.org/2000/svg" xmlns:xlink="http://www.w3.org/1999/xlink">
 <path d="M0,0 l72,0 l0,200 l-72,0 Z M0,0" fill="rgb(255,255,255)" transform="matrix(1,0,0,-1,0.0,200.0)"/>
 <path d="M0,0 l72,0" fill="none" stroke="rgb(229,229,229)" stroke-width="2" transform="matrix(1,0,0,-1,0.0,135.0)"/>
 <path d="M0,1 l0,-5" fill="none" stroke="rgb(204,204,204)" stroke-width="2" transform="matrix(1,0,0,-1,8.0,135.0)"/>
 <path d="M0,1 l0,-5" fill="none" stroke="rgb(204,204,204)" stroke-width="2" transform="matrix(1,0,0,-1,60.0,135.0)"/>
 <path d="M597,302 l-292,0 c-25,0,-48,-2,-69,-6 c-47,14,-68,45,-68,67 c0,28,20,39,54,39 l230,0 l0,166 l93,0 l0,92 l-572,0 l0,-92 l367,0 l0,-76 l-151,0 c-85,0,-134,-48,-134,-110 c0,-50,30,-98,83,-122 c-48,-30,-75,-75,-75,-126 c0,-146,156,-215,332,-227 l41,91 c-172,10,-256,59,-256,131 c0,40,28,80,112,80 l305,0 Z M597,302" fill="rgb(0,0,0)" transform="matrix(0.1,0.0,0.0,-0.1,8.0,135.0)"/>
</svg>