<?xml version="1.0" encoding="UTF-8"?>
<svg height="200.0" version="1.1" width="78.0" xmlns="http://www.w3.org/2000/svg" xmlns:xlink="http://www.w3.org/1999/xlink">
 <path d="M0,0 l78,0 l0,200 l-78,0 Z M0,0" fill="rgb(255,255,255)" transform="matrix(1,0,0,-1,0.0,200.0)"/>
 <path d="M0,0 l78,0" fill="none" stroke="rgb(229,229,229)" stroke-width="2" transform="matrix(1,0,0,-1,0.0,135.0)"/>
 <path d="M0,1 l0,-5" fill="none" stroke="rgb(204,204,204)" stroke-width="2" transform="matrix(1,0,0,-1,8.0,135.0)"/>
 <path d="M0,1 l0,-5" fill="none" stroke="rgb(204,204,204)" stroke-width="2" transform="matrix(1,0,0,-1,65.0,135.0)"/>
 <path d="M599,660 l-626,0 l0,-92 l386,0 l0,-55 l-152,0 c-77,0,-114,-43,-114,-95 c0,-62,45,-130,145,-157 l164,30 c11,-7,18,-21,18,-39 c0,-38,-37,-68,-115,-68 c-87,0,-160,39,-213,108 l-61,-65 c31,-43,74,-77,124,-99 l0,-71 l-61,-47 c0,-43,22,-88,66,-117 l95,0 l0,206 c16,-2,32,-3,48,-3 c19,0,37,1,54,4 l0,-352 l102,0 l0,391 c42,30,63,73,63,118 c0,60,-33,109,-80,124 l-195,-30 c-27,7,-39,29,-39,46 c0,20,12,33,45,33 l216,0 l0,138 l130,0 Z M528,409 c0,-33,26,-61,61,-61 c34,0,61,28,61,61 c0,34,-26,61,-61,61 c-34,0,-61,-27,-61,-61 Z M528,409" fill="rgb(0,0,0)" transform="matrix(0.1,0.0,0.0,-0.1,8.0,135.0)"/>
</svg>