<?xml version="1.0" encoding="UTF-8"?>
<svg height="200.0" version="1.1" width="106.0" xmlns="http://www.w3.org/2000/svg" xmlns:xlink="http://www.w3.org/1999/xlink">
 <path d="M0,0 l106,0 l0,200 l-106,0 Z M0,0" fill="rgb(255,255,255)" transform="matrix(1,0,0,-1,0.0,200.0)"/>
 <path d="M0,0 l106,0" fill="none" stroke="rgb(229,229,229)" stroke-width="2" transform="matrix(1,0,0,-1,0.0,135.0)"/>
 <path d="M0,1 l0,-5" fill="none" stroke="rgb(204,204,204)" stroke-width="2" transform="matrix(1,0,0,-1,8.0,135.0)"/>
 <path d="M0,1 l0,-5" fill="none" stroke="rgb(204,204,204)" stroke-width="2" transform="matrix(1,0,0,-1,100.0,135.0)"/>
 <path d="M516,256 c0,57,-32,108,-81,124 l-186,-31 c-27,6,-42,29,-42,45 c0,20,13,32,46,32 l210,0 l0,142 l221,0 l0,-494 l-217,0 l0,75 c33,29,49,67,49,107 Z M797,-171 l0,739 l138,0 l0,92 l-962,0 l0,-92 l380,0 l0,-60 l-146,0 c-77,0,-114,-41,-114,-93 c0,-61,47,-129,147,-156 l156,31 c11,-7,18,-22,18,-39 c0,-37,-34,-66,-110,-66 c-87,0,-159,39,-212,109 l-61,-65 c61,-84,163,-131,271,-131 c22,0,43,2,62,5 l0,-31 l-57,-51 c1,-42,27,-88,59,-111 l98,0 l0,68 l220,0 l0,-149 Z M638,412 c0,34,-26,61,-60,61 c-35,0,-62,-27,-62,-61 c0,-33,27,-61,61,-61 c35,0,61,28,61,61 Z M638,412" fill="rgb(0,0,0)" transform="matrix(0.1,0.0,0.0,-0.1,8.0,135.0)"/>
</svg>