<?xml version="1.0" encoding="UTF-8"?>
<svg height="200.0" version="1.1" width="90.0" xmlns="http://www.w3.org/2000/svg" xmlns:xlink="http://www.w3.org/1999/xlink">
 <path d="M0,0 l90,0 l0,200 l-90,0 Z M0,0" fill="rgb(255,255,255)" transform="matrix(1,0,0,-1,0.0,200.0)"/>
 <path d="M0,0 l90,0" fill="none" stroke="rgb(229,229,229)" stroke-width="2" transform="matrix(1,0,0,-1,0.0,135.0)"/>
 <path d="M0,1 l0,-5" fill="none" stroke="rgb(204,204,204)" stroke-width="2" transform="matrix(1,0,0,-1,8.0,135.0)"/>
 <path d="M0,1 l0,-5" fill="none" stroke="rgb(204,204,204)" stroke-width="2" transform="matrix(1,0,0,-1,81.0,135.0)"/>
 <path d="M534,568 l0,-219 c-44,13,-105,34,-147,63 c0,7,-1,13,-2,19 c-14,64,-71,108,-157,108 c-45,0,-92,-14,-119,-30 l40,-79 c13,9,44,23,77,23 c40,0,71,-21,71,-57 c0,-41,-31,-71,-94,-71 c-60,0,-129,27,-169,66 l-49,-77 c55,-44,135,-73,217,-73 c84,0,139,31,169,79 c51,-34,120,-55,175,-70 l0,-47 c-33,-85,-117,-172,-196,-172 c-46,0,-64,27,-64,55 c0,25,14,47,37,57 l73,30 l-54,69 l-297,-122 l59,-74 l102,47 c-4,-12,-6,-28,-6,-37 c0,-57,43,-114,136,-114 c86,0,152,41,194,99 l4,0 l0,-76 l112,0 l0,603 l111,0 l0,92 l-791,0 l0,-92 Z M534,568" fill="rgb(0,0,0)" transform="matrix(0.1,0.0,0.0,-0.1,8.0,135.0)"/>
</svg>