<?xml version="1.0" encoding="UTF-8"?>
<svg height="200.0" version="1.1" width="84.0" xmlns="http://www.w3.org/2000/svg" xmlns:xlink="http://www.w3.org/1999/xlink">
 <path d="M0,0 l84,0 l0,200 l-84,0 Z M0,0" fill="rgb(255,255,255)" transform="matrix(1,0,0,-1,0.0,200.0)"/>
 <path d="M0,0 l84,0" fill="none" stroke="rgb(229,229,229)" stroke-width="2" transform="matrix(1,0,0,-1,0.0,135.0)"/>
 <path d="M0,1 l0,-5" fill="none" stroke="rgb(204,204,204)" stroke-width="2" transform="matrix(1,0,0,-1,5.0,135.0)"/>
 <path d="M0,1 l0,-5" fill="none" stroke="rgb(204,204,204)" stroke-width="2" transform="matrix(1,0,0,-1,77.0,135.0)"/>
 <path d="M338,-33 c85,0,147,45,181,95 l4,0 l0,-79 l112,0 l0,585 l111,0 l0,92 l-223,0 l0,-327 c-57,22,-108,42,-148,61 c44,37,67,76,67,129 c0,87,-76,148,-167,148 c-107,0,-174,-63,-174,-141 c0,-50,24,-91,81,-133 c-48,-18,-106,-34,-171,-51 l69,-88 c81,26,150,51,206,78 c58,-29,149,-68,250,-104 c-26,-84,-103,-172,-185,-172 c-46,0,-66,27,-66,54 c0,25,13,43,36,53 l69,29 l-61,73 l-291,-119 l65,-79 l104,47 c-5,-12,-6,-26,-6,-36 c0,-56,43,-115,137,-115 Z M213,527 c0,33,25,58,65,58 c35,0,61,-23,61,-60 c0,-30,-20,-58,-61,-83 c-42,26,-65,53,-65,85 Z M213,527" fill="rgb(0,0,0)" transform="matrix(0.1,0.0,0.0,-0.1,5.0,135.0)"/>
</svg>