<?xml version="1.0" encoding="UTF-8"?>
<svg height="200.0" version="1.1" width="84.0" xmlns="http://www.w3.org/2000/svg" xmlns:xlink="http://www.w3.org/1999/xlink">
 <path d="M0,0 l84,0 l0,200 l-84,0 Z M0,0" fill="rgb(255,255,255)" transform="matrix(1,0,0,-1,0.0,200.0)"/>
 <path d="M0,0 l84,0" fill="none" stroke="rgb(229,229,229)" stroke-width="2" transform="matrix(1,0,0,-1,0.0,135.0)"/>
 <path d="M0,1 l0,-5" fill="none" stroke="rgb(204,204,204)" stroke-width="2" transform="matrix(1,0,0,-1,5.0,135.0)"/>
 <path d="M0,1 l0,-5" fill="none" stroke="rgb(204,204,204)" stroke-width="2" transform="matrix(1,0,0,-1,76.0,135.0)"/>
 <path d="M383,-41 c-89,10,-138,63,-138,119 c0,35,23,53,46,53 c19,0,35,-7,48,-31 c8,-16,16,-35,24,-56 l82,33 c-7,16,-14,32,-19,47 c-4,11,-7,23,-7,33 c0,33,18,59,55,59 c12,0,28,-4,40,-9 l0,-207 l115,0 l0,568 l111,0 l0,92 l-226,0 l0,-346 c-62,15,-121,35,-168,60 c53,34,82,86,82,145 c0,88,-71,151,-166,151 c-104,0,-167,-71,-167,-147 c0,-42,15,-95,67,-137 c-50,-18,-110,-32,-162,-44 l72,-89 c70,21,131,41,181,65 c43,-23,92,-42,140,-49 l1,-3 c-26,-14,-44,-40,-47,-76 l-3,0 c-17,14,-37,23,-67,23 c-71,0,-130,-55,-130,-131 c0,-104,86,-184,185,-200 Z M200,519 c0,36,24,61,64,61 c32,0,58,-20,58,-61 c0,-35,-22,-68,-69,-92 c-40,30,-53,63,-53,92 Z M200,519" fill="rgb(0,0,0)" transform="matrix(0.1,0.0,0.0,-0.1,5.0,135.0)"/>
</svg>