<?xml version="1.0" encoding="UTF-8"?>
<svg height="200.0" version="1.1" width="86.0" xmlns="http://www.w3.org/2000/svg" xmlns:xlink="http://www.w3.org/1999/xlink">
 <path d="M0,0 l86,0 l0,200 l-86,0 Z M0,0" fill="rgb(255,255,255)" transform="matrix(1,0,0,-1,0.0,200.0)"/>
 <path d="M0,0 l86,0" fill="none" stroke="rgb(229,229,229)" stroke-width="2" transform="matrix(1,0,0,-1,0.0,135.0)"/>
 <path d="M0,1 l0,-5" fill="none" stroke="rgb(204,204,204)" stroke-width="2" transform="matrix(1,0,0,-1,6.0,135.0)"/>
 <path d="M0,1 l0,-5" fill="none" stroke="rgb(204,204,204)" stroke-width="2" transform="matrix(1,0,0,-1,78.0,135.0)"/>
 <path d="M317,297 c-55,-10,-110,-57,-110,-129 c0,-80,64,-153,178,-153 c60,0,106,23,138,51 l4,0 l0,-86 l112,0 l0,588 l111,0 l0,92 l-248,0 l0,-92 l25,0 l0,-253 c-61,18,-126,40,-180,68 c47,39,73,84,73,139 c0,88,-76,148,-164,148 c-107,0,-174,-65,-174,-141 c0,-47,20,-92,77,-138 c-49,-19,-107,-34,-167,-50 l70,-88 c76,23,144,48,198,76 c16,-9,37,-20,57,-28 Z M390,102 c-53,0,-79,29,-79,65 c0,47,44,76,109,76 c30,0,78,-13,108,-28 c-19,-70,-77,-113,-138,-113 Z M195,526 c0,33,23,57,63,57 c34,0,59,-22,59,-59 c0,-34,-22,-63,-64,-89 c-39,28,-58,57,-58,91 Z M195,526" fill="rgb(0,0,0)" transform="matrix(0.1,0.0,0.0,-0.1,6.0,135.0)"/>
</svg>