<?xml version="1.0" encoding="UTF-8"?>
<svg height="200.0" version="1.1" width="98.0" xmlns="http://www.w3.org/2000/svg" xmlns:xlink="http://www.w3.org/1999/xlink">
 <path d="M0,0 l98,0 l0,200 l-98,0 Z M0,0" fill="rgb(255,255,255)" transform="matrix(1,0,0,-1,0.0,200.0)"/>
 <path d="M0,0 l98,0" fill="none" stroke="rgb(229,229,229)" stroke-width="2" transform="matrix(1,0,0,-1,0.0,135.0)"/>
 <path d="M0,1 l0,-5" fill="none" stroke="rgb(204,204,204)" stroke-width="2" transform="matrix(1,0,0,-1,6.0,135.0)"/>
 <path d="M0,1 l0,-5" fill="none" stroke="rgb(204,204,204)" stroke-width="2" transform="matrix(1,0,0,-1,89.0,135.0)"/>
 <path d="M640,480 c-21,16,-47,26,-88,26 c-91,0,-166,-68,-166,-160 c0,-93,70,-143,138,-149 l56,66 c-50,3,-90,30,-90,81 c0,43,32,72,77,72 c48,0,86,-37,86,-97 c0,-116,-97,-195,-232,-195 c-116,0,-207,60,-232,166 c11,-3,24,-6,39,-6 c73,0,120,44,120,133 l0,151 l296,0 l0,-88 Z M312,57 l-75,-23 l-91,-34 l-36,-65 c15,-54,68,-91,119,-100 l46,36 l-24,63 l209,78 c86,31,141,60,180,95 l4,0 l0,-107 l107,0 l0,568 l111,0 l0,92 l-875,0 l0,-92 l251,0 l0,-152 c0,-35,-19,-49,-42,-49 c-29,0,-45,18,-57,50 l-94,-35 c42,-240,177,-311,267,-321 Z M312,57" fill="rgb(0,0,0)" transform="matrix(0.1,0.0,0.0,-0.1,6.0,135.0)"/>
</svg>