<?xml version="1.0" encoding="UTF-8"?>
<svg height="200.0" version="1.1" width="78.0" xmlns="http://www.w3.org/2000/svg" xmlns:xlink="http://www.w3.org/1999/xlink">
 <path d="M0,0 l78,0 l0,200 l-78,0 Z M0,0" fill="rgb(255,255,255)" transform="matrix(1,0,0,-1,0.0,200.0)"/>
 <path d="M0,0 l78,0" fill="none" stroke="rgb(229,229,229)" stroke-width="2" transform="matrix(1,0,0,-1,0.0,135.0)"/>
 <path d="M0,1 l0,-5" fill="none" stroke="rgb(204,204,204)" stroke-width="2" transform="matrix(1,0,0,-1,8.0,135.0)"/>
 <path d="M0,1 l0,-5" fill="none" stroke="rgb(204,204,204)" stroke-width="2" transform="matrix(1,0,0,-1,71.0,135.0)"/>
 <path d="M660,660 l-687,0 l0,-92 l386,0 l0,-58 l-152,0 c-77,0,-114,-43,-114,-95 c0,-62,45,-130,145,-157 l164,30 c11,-7,18,-21,18,-39 c0,-38,-37,-68,-115,-68 c-87,0,-161,41,-212,108 l-62,-69 c59,-83,164,-127,272,-127 c20,0,38,1,55,4 l0,-70 l-198,0 l-71,-54 c0,-68,40,-112,82,-129 l57,19 l0,74 l130,0 l0,-179 l101,0 l0,378 c42,30,63,73,63,118 c0,60,-33,109,-80,124 l-195,-30 c-27,7,-39,29,-39,46 c0,20,12,33,45,33 l216,0 l0,141 l191,0 Z M639,412 c0,33,-25,59,-58,59 c-33,0,-59,-26,-59,-59 c0,-32,25,-58,59,-58 c33,0,58,26,58,58 Z M639,412" fill="rgb(0,0,0)" transform="matrix(0.1,0.0,0.0,-0.1,8.0,135.0)"/>
</svg>