<?xml version="1.0" encoding="UTF-8"?>
<svg height="200.0" version="1.1" width="84.0" xmlns="http://www.w3.org/2000/svg" xmlns:xlink="http://www.w3.org/1999/xlink">
 <path d="M0,0 l84,0 l0,200 l-84,0 Z M0,0" fill="rgb(255,255,255)" transform="matrix(1,0,0,-1,0.0,200.0)"/>
 <path d="M0,0 l84,0" fill="none" stroke="rgb(229,229,229)" stroke-width="2" transform="matrix(1,0,0,-1,0.0,135.0)"/>
 <path d="M0,1 l0,-5" fill="none" stroke="rgb(204,204,204)" stroke-width="2" transform="matrix(1,0,0,-1,8.0,135.0)"/>
 <path d="M0,1 l0,-5" fill="none" stroke="rgb(204,204,204)" stroke-width="2" transform="matrix(1,0,0,-1,77.0,135.0)"/>
 <path d="M558,-292 l0,423 c58,54,90,127,90,200 c0,76,-35,130,-90,154 l0,83 l161,0 l0,92 l-746,0 l0,-92 l125,0 l0,-4 c-19,-16,-40,-44,-40,-90 c0,-60,36,-107,101,-119 l0,-4 c-41,-16,-84,-50,-84,-127 c0,-99,84,-184,237,-184 c54,0,103,10,145,27 l0,-101 l-214,0 l-71,-54 c0,-68,40,-112,82,-129 l57,19 l0,74 l146,0 l0,-168 Z M495,308 c-33,8,-52,27,-52,56 c0,26,19,43,43,43 c31,0,57,-23,57,-75 c0,-116,-106,-194,-222,-194 c-85,0,-127,39,-127,91 c0,45,27,73,89,76 c5,1,12,1,19,1 l0,96 l-35,0 c-58,0,-88,32,-88,79 c0,49,33,87,96,87 l174,0 l0,-71 c-70,-14,-114,-68,-114,-132 c0,-68,45,-111,90,-124 Z M495,308" fill="rgb(0,0,0)" transform="matrix(0.1,0.0,0.0,-0.1,8.0,135.0)"/>
</svg>