<?xml version="1.0" encoding="UTF-8"?>
<svg height="200.0" version="1.1" width="90.0" xmlns="http://www.w3.org/2000/svg" xmlns:xlink="http://www.w3.org/1999/xlink">
 <path d="M0,0 l90,0 l0,200 l-90,0 Z M0,0" fill="rgb(255,255,255)" transform="matrix(1,0,0,-1,0.0,200.0)"/>
 <path d="M0,0 l90,0" fill="none" stroke="rgb(229,229,229)" stroke-width="2" transform="matrix(1,0,0,-1,0.0,135.0)"/>
 <path d="M0,1 l0,-5" fill="none" stroke="rgb(204,204,204)" stroke-width="2" transform="matrix(1,0,0,-1,8.0,135.0)"/>
 <path d="M0,1 l0,-5" fill="none" stroke="rgb(204,204,204)" stroke-width="2" transform="matrix(1,0,0,-1,83.0,135.0)"/>
 <path d="M547,223 l-267,-173 l-20,-71 c26,-50,87,-75,140,-73 l34,46 l-37,56 l150,101 l4,0 l0,-109 l113,0 l0,568 l111,0 l0,92 l-802,0 l0,-92 l574,0 l0,-75 l-244,0 l-45,-84 l0,-8 c43,-10,83,-39,83,-88 c0,-38,-26,-63,-71,-63 c-96,0,-148,119,-154,244 l-106,-51 c11,-124,91,-293,268,-293 c102,0,172,64,172,150 c0,46,-20,78,-42,96 l0,4 l139,0 Z M547,223" fill="rgb(0,0,0)" transform="matrix(0.1,0.0,0.0,-0.1,8.0,135.0)"/>
</svg>