<?xml version="1.0" encoding="UTF-8"?>
<svg height="200.0" version="1.1" width="72.0" xmlns="http://www.w3.org/2000/svg" xmlns:xlink="http://www.w3.org/1999/xlink">
 <path d="M0,0 l72,0 l0,200 l-72,0 Z M0,0" fill="rgb(255,255,255)" transform="matrix(1,0,0,-1,0.0,200.0)"/>
 <path d="M0,0 l72,0" fill="none" stroke="rgb(229,229,229)" stroke-width="2" transform="matrix(1,0,0,-1,0.0,135.0)"/>
 <path d="M0,1 l0,-5" fill="none" stroke="rgb(204,204,204)" stroke-width="2" transform="matrix(1,0,0,-1,8.0,135.0)"/>
 <path d="M0,1 l0,-5" fill="none" stroke="rgb(204,204,204)" stroke-width="2" transform="matrix(1,0,0,-1,65.0,135.0)"/>
 <path d="M495,317 c-37,-30,-114,-70,-198,-70 c-102,0,-145,46,-145,85 c0,39,26,64,93,73 l202,28 l0,135 l151,0 l0,92 l-625,0 l0,-92 l364,0 l0,-60 l-141,-19 c-102,-14,-159,-69,-159,-151 c0,-97,90,-187,262,-187 c15,0,31,1,47,3 l0,-83 l-207,0 l-71,-54 c0,-68,40,-112,82,-129 l57,19 l0,74 l139,0 l0,-178 l101,0 l0,373 c37,14,71,32,98,57 Z M495,317" fill="rgb(0,0,0)" transform="matrix(0.1,0.0,0.0,-0.1,8.0,135.0)"/>
</svg>