<?xml version="1.0" encoding="UTF-8"?>
<svg height="200.0" version="1.1" width="76.0" xmlns="http://www.w3.org/2000/svg" xmlns:xlink="http://www.w3.org/1999/xlink">
 <path d="M0,0 l76,0 l0,200 l-76,0 Z M0,0" fill="rgb(255,255,255)" transform="matrix(1,0,0,-1,0.0,200.0)"/>
 <path d="M0,0 l76,0" fill="none" stroke="rgb(229,229,229)" stroke-width="2" transform="matrix(1,0,0,-1,0.0,135.0)"/>
 <path d="M0,1 l0,-5" fill="none" stroke="rgb(204,204,204)" stroke-width="2" transform="matrix(1,0,0,-1,8.0,135.0)"/>
 <path d="M0,1 l0,-5" fill="none" stroke="rgb(204,204,204)" stroke-width="2" transform="matrix(1,0,0,-1,69.0,135.0)"/>
 <path d="M310,147 c14,0,27,1,39,1 l0,-77 l-203,0 l-71,-54 c1,-68,40,-112,83,-129 l56,19 l0,74 l135,0 l0,-178 l101,0 l0,367 c87,33,131,98,131,169 c0,86,-56,136,-138,163 l0,66 l191,0 l0,92 l-661,0 l0,-92 l360,0 l0,-52 l-153,-38 c-96,-24,-143,-67,-143,-143 c0,-104,105,-188,273,-188 Z M293,245 c-114,0,-143,47,-143,75 c0,31,15,50,83,67 l153,38 c45,-11,86,-34,86,-81 c0,-53,-55,-99,-179,-99 Z M293,245" fill="rgb(0,0,0)" transform="matrix(0.1,0.0,0.0,-0.1,8.0,135.0)"/>
</svg>