<?xml version="1.0" encoding="UTF-8"?>
<svg height="200.0" version="1.1" width="82.0" xmlns="http://www.w3.org/2000/svg" xmlns:xlink="http://www.w3.org/1999/xlink">
 <path d="M0,0 l82,0 l0,200 l-82,0 Z M0,0" fill="rgb(255,255,255)" transform="matrix(1,0,0,-1,0.0,200.0)"/>
 <path d="M0,0 l82,0" fill="none" stroke="rgb(229,229,229)" stroke-width="2" transform="matrix(1,0,0,-1,0.0,135.0)"/>
 <path d="M0,1 l0,-5" fill="none" stroke="rgb(204,204,204)" stroke-width="2" transform="matrix(1,0,0,-1,8.0,135.0)"/>
 <path d="M0,1 l0,-5" fill="none" stroke="rgb(204,204,204)" stroke-width="2" transform="matrix(1,0,0,-1,74.0,135.0)"/>
 <path d="M267,-42 l-37,56 l221,142 l4,0 l0,-156 l117,0 l0,568 l111,0 l0,92 l-301,0 l0,-92 l73,0 l0,-288 c-18,-27,-76,-81,-161,-81 c-76,0,-101,37,-101,74 c0,42,29,69,93,69 l62,0 l0,92 l-71,0 c-60,0,-89,27,-89,65 c0,37,31,63,61,74 l-17,87 l-259,0 l0,-92 l133,0 l0,-4 c-19,-12,-38,-37,-38,-73 c0,-61,44,-96,100,-101 l0,-4 c-43,-10,-95,-47,-95,-122 c0,-87,68,-136,148,-135 l0,-4 l-48,-28 l-60,-40 l-20,-72 c25,-50,86,-75,139,-74 Z M267,-42" fill="rgb(0,0,0)" transform="matrix(0.1,0.0,0.0,-0.1,8.0,135.0)"/>
</svg>