<?xml version="1.0" encoding="UTF-8"?>
<svg height="200.0" version="1.1" width="76.0" xmlns="http://www.w3.org/2000/svg" xmlns:xlink="http://www.w3.org/1999/xlink">
 <path d="M0,0 l76,0 l0,200 l-76,0 Z M0,0" fill="rgb(255,255,255)" transform="matrix(1,0,0,-1,0.0,200.0)"/>
 <path d="M0,0 l76,0" fill="none" stroke="rgb(229,229,229)" stroke-width="2" transform="matrix(1,0,0,-1,0.0,135.0)"/>
 <path d="M0,1 l0,-5" fill="none" stroke="rgb(204,204,204)" stroke-width="2" transform="matrix(1,0,0,-1,8.0,135.0)"/>
 <path d="M0,1 l0,-5" fill="none" stroke="rgb(204,204,204)" stroke-width="2" transform="matrix(1,0,0,-1,68.0,135.0)"/>
 <path d="M252,-24 l-37,56 l177,116 l4,0 l0,-148 l117,0 l0,568 l111,0 l0,92 l-651,0 l0,-92 l424,0 l0,-299 l-6,-4 l-178,135 c16,9,36,14,56,14 c22,0,45,-2,68,-10 l-5,99 c-25,7,-45,9,-74,9 c-104,0,-208,-73,-208,-197 c0,-116,85,-173,145,-179 l0,-4 l-46,-24 l-52,-36 l-19,-70 c25,-50,86,-74,139,-72 Z M161,312 c0,17,4,32,11,45 l174,-131 c-20,-14,-44,-23,-72,-23 c-64,0,-113,42,-113,109 Z M161,312" fill="rgb(0,0,0)" transform="matrix(0.1,0.0,0.0,-0.1,8.0,135.0)"/>
</svg>