<?xml version="1.0" encoding="UTF-8"?>
<svg height="200.0" version="1.1" width="74.0" xmlns="http://www.w3.org/2000/svg" xmlns:xlink="http://www.w3.org/1999/xlink">
 <path d="M0,0 l74,0 l0,200 l-74,0 Z M0,0" fill="rgb(255,255,255)" transform="matrix(1,0,0,-1,0.0,200.0)"/>
 <path d="M0,0 l74,0" fill="none" stroke="rgb(229,229,229)" stroke-width="2" transform="matrix(1,0,0,-1,0.0,135.0)"/>
 <path d="M0,1 l0,-5" fill="none" stroke="rgb(204,204,204)" stroke-width="2" transform="matrix(1,0,0,-1,8.0,135.0)"/>
 <path d="M0,1 l0,-5" fill="none" stroke="rgb(204,204,204)" stroke-width="2" transform="matrix(1,0,0,-1,66.0,135.0)"/>
 <path d="M181,149 l-41,-23 l-52,-36 l-18,-71 c26,-49,87,-73,139,-71 l35,46 l-38,56 l172,115 l4,0 l0,-165 l116,0 l0,568 l111,0 l0,92 l-636,0 l0,-92 l409,0 l0,-276 c-12,-33,-51,-72,-111,-72 c-59,0,-99,38,-99,95 c0,79,79,107,138,88 l-10,101 c-128,22,-248,-49,-248,-184 c0,-104,74,-158,129,-167 Z M181,149" fill="rgb(0,0,0)" transform="matrix(0.1,0.0,0.0,-0.1,8.0,135.0)"/>
</svg>