<?xml version="1.0" encoding="UTF-8"?>
<svg height="200.0" version="1.1" width="64.0" xmlns="http://www.w3.org/2000/svg" xmlns:xlink="http://www.w3.org/1999/xlink">
 <path d="M0,0 l64,0 l0,200 l-64,0 Z M0,0" fill="rgb(255,255,255)" transform="matrix(1,0,0,-1,0.0,200.0)"/>
 <path d="M0,0 l64,0" fill="none" stroke="rgb(229,229,229)" stroke-width="2" transform="matrix(1,0,0,-1,0.0,135.0)"/>
 <path d="M0,1 l0,-5" fill="none" stroke="rgb(204,204,204)" stroke-width="2" transform="matrix(1,0,0,-1,8.0,135.0)"/>
 <path d="M0,1 l0,-5" fill="none" stroke="rgb(204,204,204)" stroke-width="2" transform="matrix(1,0,0,-1,57.0,135.0)"/>
 <path d="M356,282 c-31,-8,-69,-15,-104,-15 c-57,0,-88,20,-88,57 c0,42,30,69,138,69 l106,0 l0,175 l112,0 l0,92 l-547,0 l0,-92 l317,0 l0,-83 l-30,0 c-144,0,-219,-57,-219,-151 c0,-85,68,-131,134,-136 l1,-4 c-36,-16,-71,-51,-71,-107 c0,-92,82,-145,198,-145 c74,0,133,20,177,47 l-39,96 c-38,-26,-89,-43,-137,-43 c-49,0,-80,19,-80,53 c0,51,51,75,157,96 Z M356,282" fill="rgb(0,0,0)" transform="matrix(0.1,0.0,0.0,-0.1,8.0,135.0)"/>
</svg>