<?xml version="1.0" encoding="UTF-8"?>
<svg height="1743" version="1.1" width="2679" xmlns="http://www.w3.org/2000/svg" xmlns:xlink="http://www.w3.org/1999/xlink">
 <path d="M0,0 l2679,0 l0,1743 l-2679,0 Z M0,0" fill="rgb(255,255,255)" transform="matrix(1,0,0,-1,0,1743)"/>
 <path d="M0,0 l2679,0" fill="none" stroke="rgb(229,229,229)" stroke-width="10" transform="matrix(1,0,0,-1,0,1243)"/>
 <path d="M0,5 l0,-25" fill="none" stroke="rgb(204,204,204)" stroke-width="10" transform="matrix(1,0,0,-1,571,1243)"/>
 <path d="M0,5 l0,-25" fill="none" stroke="rgb(204,204,204)" stroke-width="10" transform="matrix(1,0,0,-1,1122,1243)"/>
 <path d="M436,858 c19,0,40,-5,60,-15 l34,110 c-28,12,-63,20,-112,20 c-94,0,-176,-62,-176,-159 c0,-70,37,-115,74,-139 l0,-4 l-346,0 l0,-109 l346,0 l0,-56 l-120,0 c-89,0,-135,-41,-135,-108 c0,-81,57,-169,169,-206 l133,34 c7,-4,16,-18,16,-35 c0,-54,-59,-76,-117,-76 l-14,0 l-157,96 c-33,-15,-54,-44,-54,-84 c0,-54,45,-118,169,-118 l178,-156 l145,77 l-169,100 l0,4 c87,17,147,77,147,159 c0,83,-42,139,-101,157 l-163,-39 c-27,8,-40,33,-40,48 c0,21,3,37,61,37 l190,0 l0,166 l127,0 l0,109 l-141,0 c-44,30,-73,75,-73,116 c0,44,27,71,69,71 Z M436,858" fill="rgb(0,0,0)" transform="matrix(1,0,0,-1,571,1243)"/>
</svg>