<?xml version="1.0" encoding="UTF-8"?>
<svg height="1743" version="1.1" width="2679" xmlns="http://www.w3.org/2000/svg" xmlns:xlink="http://www.w3.org/1999/xlink">
 <path d="M0,0 l2679,0 l0,1743 l-2679,0 Z M0,0" fill="rgb(255,255,255)" transform="matrix(1,0,0,-1,0,1743)"/>
 <path d="M0,0 l2679,0" fill="none" stroke="rgb(229,229,229)" stroke-width="10" transform="matrix(1,0,0,-1,0,1243)"/>
 <path d="M0,-20 l0,40" fill="none" stroke="rgb(255,76,25)" stroke-width="10" transform="matrix(1,0,0,-1,571,1243)"/>
 <path d="M-125,-363 c0,-70,60,-124,158,-124 c46,0,95,8,140,40 l-47,80 c-19,-15,-54,-28,-89,-28 c-30,0,-52,9,-52,33 c0,54,121,77,121,180 c0,83,-63,134,-144,134 c-59,0,-103,-30,-118,-67 l-4,0 c-19,43,-58,67,-110,67 c-88,0,-148,-67,-148,-165 c0,-88,52,-160,114,-198 l71,72 c-47,34,-74,79,-74,128 c0,44,21,66,50,66 c29,0,46,-20,46,-67 l0,-39 l107,0 l0,39 c0,49,29,67,56,67 c30,0,48,-15,48,-39 c0,-56,-125,-85,-125,-179 Z M-125,-363" fill="rgb(0,0,0)" transform="matrix(1,0,0,-1,571,1243)"/>
</svg>