<?xml version="1.0" encoding="UTF-8"?>
<svg height="1743" version="1.1" width="2679" xmlns="http://www.w3.org/2000/svg" xmlns:xlink="http://www.w3.org/1999/xlink">
 <path d="M0,0 l2679,0 l0,1743 l-2679,0 Z M0,0" fill="rgb(255,255,255)" transform="matrix(1,0,0,-1,0,1743)"/>
 <path d="M0,0 l2679,0" fill="none" stroke="rgb(229,229,229)" stroke-width="10" transform="matrix(1,0,0,-1,0,1243)"/>
 <path d="M0,-20 l0,40" fill="none" stroke="rgb(255,76,25)" stroke-width="10" transform="matrix(1,0,0,-1,571,1243)"/>
 <path d="M113,-415 c-26,0,-37,8,-37,23 c0,21,30,30,91,49 l-20,72 c-11,-4,-41,-13,-65,-13 c-16,0,-28,5,-28,17 c0,31,63,48,63,110 c0,62,-55,109,-143,109 c-59,0,-113,-32,-128,-69 l-4,0 c-19,43,-58,69,-110,69 c-88,0,-148,-67,-148,-165 c0,-88,52,-160,114,-198 l71,72 c-47,34,-74,79,-74,128 c0,44,21,66,50,66 c29,0,46,-20,46,-67 l0,-39 l104,0 l0,31 c0,45,33,80,78,80 c22,0,35,-9,35,-24 c0,-27,-53,-51,-53,-103 c0,-35,24,-62,64,-70 l0,-3 c-24,-14,-41,-39,-41,-68 c0,-62,56,-92,136,-92 c48,0,92,13,142,46 l-43,75 c-27,-21,-59,-36,-100,-36 Z M113,-415" fill="rgb(0,0,0)" transform="matrix(1,0,0,-1,571,1243)"/>
</svg>