<?xml version="1.0" encoding="UTF-8"?>
<svg height="1743" version="1.1" width="2679" xmlns="http://www.w3.org/2000/svg" xmlns:xlink="http://www.w3.org/1999/xlink">
 <path d="M0,0 l2679,0 l0,1743 l-2679,0 Z M0,0" fill="rgb(255,255,255)" transform="matrix(1,0,0,-1,0,1743)"/>
 <path d="M0,0 l2679,0" fill="none" stroke="rgb(229,229,229)" stroke-width="10" transform="matrix(1,0,0,-1,0,1243)"/>
 <path d="M0,-20 l0,40" fill="none" stroke="rgb(255,76,25)" stroke-width="10" transform="matrix(1,0,0,-1,571,1243)"/>
 <path d="M-272,-189 c87,0,169,17,222,44 l-23,81 c-62,-17,-131,-25,-199,-25 c-68,0,-137,8,-199,25 l-23,-81 c53,-27,135,-44,222,-44 Z M-272,-340 c87,0,169,17,222,44 l-23,81 c-62,-17,-131,-25,-199,-25 c-68,0,-137,8,-199,25 l-23,-81 c53,-27,135,-44,222,-44 Z M-272,-340" fill="rgb(0,0,0)" transform="matrix(1,0,0,-1,571,1243)"/>
</svg>