<?xml version="1.0" encoding="UTF-8"?>
<svg height="1743" version="1.1" width="2679" xmlns="http://www.w3.org/2000/svg" xmlns:xlink="http://www.w3.org/1999/xlink">
 <path d="M0,0 l2679,0 l0,1743 l-2679,0 Z M0,0" fill="rgb(255,255,255)" transform="matrix(1,0,0,-1,0,1743)"/>
 <path d="M0,0 l2679,0" fill="none" stroke="rgb(229,229,229)" stroke-width="10" transform="matrix(1,0,0,-1,0,1243)"/>
 <path d="M0,5 l0,-25" fill="none" stroke="rgb(204,204,204)" stroke-width="10" transform="matrix(1,0,0,-1,571,1243)"/>
 <path d="M0,5 l0,-25" fill="none" stroke="rgb(204,204,204)" stroke-width="10" transform="matrix(1,0,0,-1,1125,1243)"/>
 <path d="M188,198 l0,110 l150,0 l0,-308 l141,0 l0,562 l105,0 l0,109 l-614,0 l0,-109 l368,0 l0,-133 l-231,0 l-97,-69 c0,-108,52,-167,112,-194 Z M188,198" fill="rgb(0,0,0)" transform="matrix(1,0,0,-1,571,1243)"/>
</svg>