<?xml version="1.0" encoding="UTF-8"?>
<svg height="1743" version="1.1" width="2679" xmlns="http://www.w3.org/2000/svg" xmlns:xlink="http://www.w3.org/1999/xlink">
 <path d="M0,0 l2679,0 l0,1743 l-2679,0 Z M0,0" fill="rgb(255,255,255)" transform="matrix(1,0,0,-1,0,1743)"/>
 <path d="M0,0 l2679,0" fill="none" stroke="rgb(229,229,229)" stroke-width="10" transform="matrix(1,0,0,-1,0,1243)"/>
 <path d="M0,5 l0,-25" fill="none" stroke="rgb(204,204,204)" stroke-width="10" transform="matrix(1,0,0,-1,571,1243)"/>
 <path d="M0,5 l0,-25" fill="none" stroke="rgb(204,204,204)" stroke-width="10" transform="matrix(1,0,0,-1,1355,1243)"/>
 <path d="M550,-81 l-102,140 c23,20,33,47,33,84 c0,52,-37,86,-68,100 l-82,-27 l0,-80 c-15,-13,-49,-20,-74,-20 c-58,0,-98,35,-98,82 c0,51,47,77,133,108 c34,-18,96,-30,161,-30 c39,0,79,4,114,14 l1,-290 l141,0 l0,562 l104,0 l0,109 l-245,0 l0,-256 c-35,-20,-74,-28,-113,-28 c-17,0,-34,2,-51,4 l0,4 c22,13,70,51,70,125 c0,94,-77,161,-196,161 c-110,0,-201,-66,-201,-161 c0,-66,38,-114,91,-139 c-75,-35,-147,-85,-147,-175 c0,-122,98,-205,252,-205 c35,0,61,3,79,7 l41,-127 Z M206,516 c0,35,27,59,72,59 c46,0,70,-26,70,-56 c0,-47,-40,-74,-70,-83 c-42,11,-72,41,-72,80 Z M206,516" fill="rgb(0,0,0)" transform="matrix(1,0,0,-1,571,1243)"/>
</svg>