<?xml version="1.0" encoding="UTF-8"?>
<svg height="1743" version="1.1" width="2679" xmlns="http://www.w3.org/2000/svg" xmlns:xlink="http://www.w3.org/1999/xlink">
 <path d="M0,0 l2679,0 l0,1743 l-2679,0 Z M0,0" fill="rgb(255,255,255)" transform="matrix(1,0,0,-1,0,1743)"/>
 <path d="M0,0 l2679,0" fill="none" stroke="rgb(229,229,229)" stroke-width="10" transform="matrix(1,0,0,-1,0,1243)"/>
 <path d="M0,5 l0,-25" fill="none" stroke="rgb(204,204,204)" stroke-width="10" transform="matrix(1,0,0,-1,571,1243)"/>
 <path d="M0,5 l0,-25" fill="none" stroke="rgb(204,204,204)" stroke-width="10" transform="matrix(1,0,0,-1,1252,1243)"/>
 <path d="M465,149 l0,-149 l141,0 l0,562 l105,0 l0,109 l-741,0 l0,-109 l495,0 l0,-190 c0,-110,-56,-172,-140,-172 c-62,0,-92,33,-92,77 c0,54,37,86,107,86 l60,0 l0,119 l-391,0 l0,-120 l128,0 l0,-4 c-23,-19,-47,-48,-47,-108 c0,-86,65,-169,201,-169 c100,0,149,43,170,68 Z M47,-15 c0,-40,33,-73,74,-73 c44,0,77,33,77,73 c0,45,-33,78,-77,78 c-41,0,-74,-33,-74,-78 Z M47,-15" fill="rgb(0,0,0)" transform="matrix(1,0,0,-1,571,1243)"/>
</svg>