<?xml version="1.0" encoding="UTF-8"?>
<svg height="1743" version="1.1" width="2679" xmlns="http://www.w3.org/2000/svg" xmlns:xlink="http://www.w3.org/1999/xlink">
 <path d="M0,0 l2679,0 l0,1743 l-2679,0 Z M0,0" fill="rgb(255,255,255)" transform="matrix(1,0,0,-1,0,1743)"/>
 <path d="M0,0 l2679,0" fill="none" stroke="rgb(229,229,229)" stroke-width="10" transform="matrix(1,0,0,-1,0,1243)"/>
 <path d="M0,5 l0,-25" fill="none" stroke="rgb(204,204,204)" stroke-width="10" transform="matrix(1,0,0,-1,571,1243)"/>
 <path d="M0,5 l0,-25" fill="none" stroke="rgb(204,204,204)" stroke-width="10" transform="matrix(1,0,0,-1,1331,1243)"/>
 <path d="M187,352 c21,19,58,27,89,19 c32,-8,58,-32,58,-79 c0,-62,-45,-91,-95,-91 c-68,0,-122,40,-161,108 l-85,-109 c43,-64,133,-127,248,-127 c113,0,209,67,227,178 c11,-1,23,-3,35,-3 c13,-1,27,-1,41,-1 l0,-247 l141,0 l0,562 l105,0 l0,109 l-820,0 l0,-109 l574,0 l0,-193 c-12,-1,-24,-1,-37,-1 c-16,0,-32,1,-49,2 c-32,91,-119,135,-209,133 c-39,-1,-79,-10,-116,-29 Z M24,-22 c0,-40,33,-73,74,-73 c44,0,77,33,77,73 c0,45,-33,78,-77,78 c-41,0,-74,-33,-74,-78 Z M24,-22" fill="rgb(0,0,0)" transform="matrix(1,0,0,-1,571,1243)"/>
</svg>