<?xml version="1.0" encoding="UTF-8"?>
<svg height="1743" version="1.1" width="2679" xmlns="http://www.w3.org/2000/svg" xmlns:xlink="http://www.w3.org/1999/xlink">
 <path d="M0,0 l2679,0 l0,1743 l-2679,0 Z M0,0" fill="rgb(255,255,255)" transform="matrix(1,0,0,-1,0,1743)"/>
 <path d="M0,0 l2679,0" fill="none" stroke="rgb(229,229,229)" stroke-width="10" transform="matrix(1,0,0,-1,0,1243)"/>
 <path d="M0,5 l0,-25" fill="none" stroke="rgb(204,204,204)" stroke-width="10" transform="matrix(1,0,0,-1,571,1243)"/>
 <path d="M0,5 l0,-25" fill="none" stroke="rgb(204,204,204)" stroke-width="10" transform="matrix(1,0,0,-1,1302,1243)"/>
 <path d="M510,43 c111,0,194,86,194,215 c0,109,-50,187,-134,209 l0,95 l191,0 l0,109 l-791,0 l0,-109 l464,0 l0,-102 c-30,-11,-54,-30,-73,-55 c-16,29,-58,69,-140,69 c-111,0,-194,-84,-194,-215 c0,-130,71,-216,187,-216 c71,0,120,25,155,71 c17,-31,59,-71,141,-71 Z M220,158 c-44,0,-62,36,-62,101 c0,63,28,107,76,107 c36,0,64,-23,80,-62 c-27,-96,-40,-146,-94,-146 Z M497,151 c-36,0,-64,25,-80,62 c25,80,45,146,94,146 c44,0,62,-36,62,-101 c0,-62,-29,-107,-76,-107 Z M294,-64 c0,-40,33,-73,74,-73 c44,0,77,33,77,73 c0,45,-33,78,-77,78 c-41,0,-74,-33,-74,-78 Z M294,-64" fill="rgb(0,0,0)" transform="matrix(1,0,0,-1,571,1243)"/>
</svg>