<?xml version="1.0" encoding="UTF-8"?>
<svg height="1743" version="1.1" width="2679" xmlns="http://www.w3.org/2000/svg" xmlns:xlink="http://www.w3.org/1999/xlink">
 <path d="M0,0 l2679,0 l0,1743 l-2679,0 Z M0,0" fill="rgb(255,255,255)" transform="matrix(1,0,0,-1,0,1743)"/>
 <path d="M0,0 l2679,0" fill="none" stroke="rgb(229,229,229)" stroke-width="10" transform="matrix(1,0,0,-1,0,1243)"/>
 <path d="M0,5 l0,-25" fill="none" stroke="rgb(204,204,204)" stroke-width="10" transform="matrix(1,0,0,-1,571,1243)"/>
 <path d="M0,5 l0,-25" fill="none" stroke="rgb(204,204,204)" stroke-width="10" transform="matrix(1,0,0,-1,1197,1243)"/>
 <path d="M410,159 l0,-159 l141,0 l0,562 l105,0 l0,109 l-686,0 l0,-109 l164,0 c19,-24,29,-63,29,-83 c0,-63,-56,-90,-133,-105 c6,-165,107,-262,241,-262 c61,0,109,20,135,47 Z M410,562 l0,-209 l-129,181 c-1,2,-2,3,-3,5 l-16,23 Z M181,326 c43,8,82,32,104,68 l96,-131 c-20,-21,-49,-33,-89,-33 c-65,0,-103,39,-111,96 Z M181,326" fill="rgb(0,0,0)" transform="matrix(1,0,0,-1,571,1243)"/>
</svg>