<?xml version="1.0" encoding="UTF-8"?>
<svg height="1743" version="1.1" width="2679" xmlns="http://www.w3.org/2000/svg" xmlns:xlink="http://www.w3.org/1999/xlink">
 <path d="M0,0 l2679,0 l0,1743 l-2679,0 Z M0,0" fill="rgb(255,255,255)" transform="matrix(1,0,0,-1,0,1743)"/>
 <path d="M0,0 l2679,0" fill="none" stroke="rgb(229,229,229)" stroke-width="10" transform="matrix(1,0,0,-1,0,1243)"/>
 <path d="M0,-20 l0,40" fill="none" stroke="rgb(255,76,25)" stroke-width="10" transform="matrix(1,0,0,-1,571,1243)"/>
 <path d="M-144,1096 c-125,0,-207,-65,-240,-153 l108,-53 c20,60,64,93,132,93 c68,0,112,-33,132,-93 l108,53 c-33,88,-115,153,-240,153 Z M-226,847 c0,-48,35,-83,79,-83 c47,0,82,35,82,83 c0,43,-35,78,-82,78 c-44,0,-79,-35,-79,-78 Z M-226,847" fill="rgb(0,0,0)" transform="matrix(1,0,0,-1,571,1243)"/>
</svg>