<?xml version="1.0" encoding="UTF-8"?>
<svg height="1743" version="1.1" width="2679" xmlns="http://www.w3.org/2000/svg" xmlns:xlink="http://www.w3.org/1999/xlink">
 <path d="M0,0 l2679,0 l0,1743 l-2679,0 Z M0,0" fill="rgb(255,255,255)" transform="matrix(1,0,0,-1,0,1743)"/>
 <path d="M0,0 l2679,0" fill="none" stroke="rgb(229,229,229)" stroke-width="10" transform="matrix(1,0,0,-1,0,1243)"/>
 <path d="M0,5 l0,-25" fill="none" stroke="rgb(204,204,204)" stroke-width="10" transform="matrix(1,0,0,-1,571,1243)"/>
 <path d="M0,5 l0,-25" fill="none" stroke="rgb(204,204,204)" stroke-width="10" transform="matrix(1,0,0,-1,1101,1243)"/>
 <path d="M474,207 c0,80,-51,133,-111,178 c70,52,135,114,135,209 c0,47,-10,76,-21,95 l-127,-40 c6,-11,13,-35,13,-61 c0,-56,-44,-96,-98,-134 c-55,38,-98,78,-98,134 c0,26,8,50,14,61 l-128,40 c-10,-19,-21,-47,-21,-95 c0,-94,65,-156,135,-208 c-60,-45,-111,-99,-111,-179 c0,-109,85,-183,209,-183 c125,0,209,73,209,183 Z M265,136 c-46,0,-74,26,-74,73 c0,41,32,74,74,107 c43,-33,75,-66,75,-107 c0,-47,-29,-73,-75,-73 Z M265,136" fill="rgb(0,0,0)" transform="matrix(1,0,0,-1,571,1243)"/>
</svg>