<?xml version="1.0" encoding="UTF-8"?>
<svg height="1743" version="1.1" width="2679" xmlns="http://www.w3.org/2000/svg" xmlns:xlink="http://www.w3.org/1999/xlink">
 <path d="M0,0 l2679,0 l0,1743 l-2679,0 Z M0,0" fill="rgb(255,255,255)" transform="matrix(1,0,0,-1,0,1743)"/>
 <path d="M0,0 l2679,0" fill="none" stroke="rgb(229,229,229)" stroke-width="10" transform="matrix(1,0,0,-1,0,1243)"/>
 <path d="M0,5 l0,-25" fill="none" stroke="rgb(204,204,204)" stroke-width="10" transform="matrix(1,0,0,-1,571,1243)"/>
 <path d="M0,5 l0,-25" fill="none" stroke="rgb(204,204,204)" stroke-width="10" transform="matrix(1,0,0,-1,1088,1243)"/>
 <path d="M439,616 l-122,57 l-198,-266 c-45,-61,-65,-107,-65,-174 c0,-129,111,-207,246,-207 c110,0,166,34,210,67 l-64,110 c-45,-39,-100,-52,-152,-52 c-65,0,-99,35,-99,87 c0,36,14,63,47,109 Z M439,616" fill="rgb(0,0,0)" transform="matrix(1,0,0,-1,571,1243)"/>
</svg>