<?xml version="1.0" encoding="UTF-8"?>
<svg height="1743" version="1.1" width="2679" xmlns="http://www.w3.org/2000/svg" xmlns:xlink="http://www.w3.org/1999/xlink">
 <path d="M0,0 l2679,0 l0,1743 l-2679,0 Z M0,0" fill="rgb(255,255,255)" transform="matrix(1,0,0,-1,0,1743)"/>
 <path d="M0,0 l2679,0" fill="none" stroke="rgb(229,229,229)" stroke-width="10" transform="matrix(1,0,0,-1,0,1243)"/>
 <path d="M0,5 l0,-25" fill="none" stroke="rgb(204,204,204)" stroke-width="10" transform="matrix(1,0,0,-1,571,1243)"/>
 <path d="M0,5 l0,-25" fill="none" stroke="rgb(204,204,204)" stroke-width="10" transform="matrix(1,0,0,-1,1120,1243)"/>
 <path d="M425,11 l-136,153 c-26,30,-56,59,-83,82 l1,4 c68,-2,193,43,215,159 l86,0 l48,103 l-145,0 c-14,27,-34,43,-47,52 l0,4 l144,0 l48,103 l-514,0 l0,-103 l103,0 c65,0,102,-19,118,-56 l-221,0 l0,-103 l223,0 c-28,-75,-127,-85,-204,-64 l-29,-110 l73,-69 l142,-166 l178,0 Z M425,11" fill="rgb(0,0,0)" transform="matrix(1,0,0,-1,571,1243)"/>
</svg>