<?xml version="1.0" encoding="UTF-8"?>
<svg height="1743" version="1.1" width="2679" xmlns="http://www.w3.org/2000/svg" xmlns:xlink="http://www.w3.org/1999/xlink">
 <path d="M0,0 l2679,0 l0,1743 l-2679,0 Z M0,0" fill="rgb(255,255,255)" transform="matrix(1,0,0,-1,0,1743)"/>
 <path d="M0,0 l2679,0" fill="none" stroke="rgb(229,229,229)" stroke-width="10" transform="matrix(1,0,0,-1,0,1243)"/>
 <path d="M0,5 l0,-25" fill="none" stroke="rgb(204,204,204)" stroke-width="10" transform="matrix(1,0,0,-1,571,1243)"/>
 <path d="M0,5 l0,-25" fill="none" stroke="rgb(204,204,204)" stroke-width="10" transform="matrix(1,0,0,-1,972,1243)"/>
 <path d="M431,671 l-61,0 l0,-109 l61,0 Z M521,202 l-74,87 c-36,-43,-87,-78,-163,-78 c-69,0,-89,32,-89,62 c0,38,27,62,86,62 l63,0 l0,108 l-75,0 c-51,0,-78,23,-78,57 c0,37,35,61,54,69 l-19,102 l-256,0 l0,-109 l110,0 l0,-4 c-19,-13,-34,-36,-34,-68 c0,-60,45,-94,105,-99 l0,-4 c-45,-10,-100,-46,-100,-126 c0,-93,79,-160,204,-160 c149,0,228,59,266,101 Z M521,202" fill="rgb(0,0,0)" transform="matrix(1,0,0,-1,571,1243)"/>
</svg>