<?xml version="1.0" encoding="UTF-8"?>
<svg height="1743" version="1.1" width="2679" xmlns="http://www.w3.org/2000/svg" xmlns:xlink="http://www.w3.org/1999/xlink">
 <path d="M0,0 l2679,0 l0,1743 l-2679,0 Z M0,0" fill="rgb(255,255,255)" transform="matrix(1,0,0,-1,0,1743)"/>
 <path d="M0,0 l2679,0" fill="none" stroke="rgb(229,229,229)" stroke-width="10" transform="matrix(1,0,0,-1,0,1243)"/>
 <path d="M0,5 l0,-25" fill="none" stroke="rgb(204,204,204)" stroke-width="10" transform="matrix(1,0,0,-1,571,1243)"/>
 <path d="M0,5 l0,-25" fill="none" stroke="rgb(204,204,204)" stroke-width="10" transform="matrix(1,0,0,-1,1167,1243)"/>
 <path d="M379,210 l0,-210 l142,0 l0,562 l105,0 l0,109 l-656,0 l0,-109 l409,0 l0,-177 l-4,0 c-31,64,-101,117,-201,117 c-73,0,-137,-24,-194,-67 l89,-119 c42,39,80,53,118,53 c51,0,83,-22,109,-63 l-260,-173 l98,-104 l241,181 Z M379,210" fill="rgb(0,0,0)" transform="matrix(1,0,0,-1,571,1243)"/>
</svg>