<?xml version="1.0" encoding="UTF-8"?>
<svg height="1743" version="1.1" width="2679" xmlns="http://www.w3.org/2000/svg" xmlns:xlink="http://www.w3.org/1999/xlink">
 <path d="M0,0 l2679,0 l0,1743 l-2679,0 Z M0,0" fill="rgb(255,255,255)" transform="matrix(1,0,0,-1,0,1743)"/>
 <path d="M0,0 l2679,0" fill="none" stroke="rgb(229,229,229)" stroke-width="10" transform="matrix(1,0,0,-1,0,1243)"/>
 <path d="M0,5 l0,-25" fill="none" stroke="rgb(204,204,204)" stroke-width="10" transform="matrix(1,0,0,-1,571,1243)"/>
 <path d="M0,5 l0,-25" fill="none" stroke="rgb(204,204,204)" stroke-width="10" transform="matrix(1,0,0,-1,1162,1243)"/>
 <path d="M375,146 l0,-146 l141,0 l0,562 l105,0 l0,109 l-651,0 l0,-109 l405,0 l0,-278 c-9,-27,-42,-60,-100,-60 c-50,0,-85,30,-85,81 c0,64,69,88,120,69 l-11,121 c-135,22,-255,-55,-255,-189 c0,-99,67,-149,102,-164 l0,-4 l-118,-64 l118,-95 l225,167 Z M375,146" fill="rgb(0,0,0)" transform="matrix(1,0,0,-1,571,1243)"/>
</svg>