<?xml version="1.0" encoding="UTF-8"?>
<svg height="1743" version="1.1" width="2679" xmlns="http://www.w3.org/2000/svg" xmlns:xlink="http://www.w3.org/1999/xlink">
 <path d="M0,0 l2679,0 l0,1743 l-2679,0 Z M0,0" fill="rgb(255,255,255)" transform="matrix(1,0,0,-1,0,1743)"/>
 <path d="M0,0 l2679,0" fill="none" stroke="rgb(229,229,229)" stroke-width="10" transform="matrix(1,0,0,-1,0,1243)"/>
 <path d="M0,5 l0,-25" fill="none" stroke="rgb(204,204,204)" stroke-width="10" transform="matrix(1,0,0,-1,571,1243)"/>
 <path d="M0,5 l0,-25" fill="none" stroke="rgb(204,204,204)" stroke-width="10" transform="matrix(1,0,0,-1,1379,1243)"/>
 <path d="M426,-24 l-144,94 l0,4 c74,-3,148,45,148,136 c0,81,-67,124,-135,139 l0,4 l296,0 l0,-168 l-206,-117 l125,-74 l77,62 l4,0 l0,-86 l142,0 l0,592 l105,0 l0,109 l-868,0 l0,-109 l621,0 l0,-99 l-442,0 l-41,-88 l0,-10 c123,-30,185,-88,185,-137 c0,-50,-33,-74,-83,-74 c-11,0,-22,2,-32,4 l-109,94 c-40,-21,-56,-50,-56,-86 c0,-60,50,-105,136,-110 l138,-147 Z M426,-24" fill="rgb(0,0,0)" transform="matrix(1,0,0,-1,571,1243)"/>
</svg>