<?xml version="1.0" encoding="UTF-8"?>
<svg height="1743" version="1.1" width="2679" xmlns="http://www.w3.org/2000/svg" xmlns:xlink="http://www.w3.org/1999/xlink">
 <path d="M0,0 l2679,0 l0,1743 l-2679,0 Z M0,0" fill="rgb(255,255,255)" transform="matrix(1,0,0,-1,0,1743)"/>
 <path d="M0,0 l2679,0" fill="none" stroke="rgb(229,229,229)" stroke-width="10" transform="matrix(1,0,0,-1,0,1243)"/>
 <path d="M0,5 l0,-25" fill="none" stroke="rgb(204,204,204)" stroke-width="10" transform="matrix(1,0,0,-1,571,1243)"/>
 <path d="M0,5 l0,-25" fill="none" stroke="rgb(204,204,204)" stroke-width="10" transform="matrix(1,0,0,-1,1351,1243)"/>
 <path d="M810,671 l-840,0 l0,-109 l594,0 l0,-203 c-32,1,-69,4,-96,11 c-1,7,-3,13,-4,20 c-26,90,-108,136,-196,136 c-44,0,-90,-12,-130,-35 l54,-118 c18,17,46,26,72,26 c37,0,72,-19,72,-65 c0,-42,-30,-71,-88,-71 c-58,0,-115,41,-151,102 l-92,-102 c41,-60,125,-125,242,-125 c88,0,173,40,208,114 c22,-7,67,-13,105,-13 c6,0,11,1,17,1 l0,-4 l-372,-220 l112,-95 l243,176 l4,0 l0,-97 l141,0 l0,562 l105,0 Z M-5,33 c0,-40,33,-73,74,-73 c44,0,77,33,77,73 c0,45,-33,78,-77,78 c-41,0,-74,-33,-74,-78 Z M-5,33" fill="rgb(0,0,0)" transform="matrix(1,0,0,-1,571,1243)"/>
</svg>