<?xml version="1.0" encoding="UTF-8"?>
<svg height="1743" version="1.1" width="2679" xmlns="http://www.w3.org/2000/svg" xmlns:xlink="http://www.w3.org/1999/xlink">
 <path d="M0,0 l2679,0 l0,1743 l-2679,0 Z M0,0" fill="rgb(255,255,255)" transform="matrix(1,0,0,-1,0,1743)"/>
 <path d="M0,0 l2679,0" fill="none" stroke="rgb(229,229,229)" stroke-width="10" transform="matrix(1,0,0,-1,0,1243)"/>
 <path d="M0,5 l0,-25" fill="none" stroke="rgb(204,204,204)" stroke-width="10" transform="matrix(1,0,0,-1,571,1243)"/>
 <path d="M0,5 l0,-25" fill="none" stroke="rgb(204,204,204)" stroke-width="10" transform="matrix(1,0,0,-1,1139,1243)"/>
 <path d="M394,-169 l153,32 l-152,158 c82,23,131,88,131,171 c0,80,-66,145,-144,145 c-88,0,-132,-50,-147,-85 l79,-74 c5,29,26,45,50,45 c23,0,38,-15,38,-36 c0,-34,-25,-57,-71,-57 c-93,0,-153,67,-153,127 c0,56,24,88,118,111 l172,42 l0,152 l130,0 l0,109 l-628,0 l0,-109 l354,0 l0,-56 l-102,-27 c-117,-31,-185,-99,-185,-204 c0,-126,88,-216,196,-249 l-160,-157 l154,-38 l87,117 Z M-53,-6 c0,-40,33,-73,74,-73 c44,0,77,33,77,73 c0,45,-33,78,-77,78 c-41,0,-74,-33,-74,-78 Z M-53,-6" fill="rgb(0,0,0)" transform="matrix(1,0,0,-1,571,1243)"/>
</svg>