<?xml version="1.0" encoding="UTF-8"?>
<svg height="1743" version="1.1" width="2679" xmlns="http://www.w3.org/2000/svg" xmlns:xlink="http://www.w3.org/1999/xlink">
 <path d="M0,0 l2679,0 l0,1743 l-2679,0 Z M0,0" fill="rgb(255,255,255)" transform="matrix(1,0,0,-1,0,1743)"/>
 <path d="M0,0 l2679,0" fill="none" stroke="rgb(229,229,229)" stroke-width="10" transform="matrix(1,0,0,-1,0,1243)"/>
 <path d="M0,5 l0,-25" fill="none" stroke="rgb(204,204,204)" stroke-width="10" transform="matrix(1,0,0,-1,571,1243)"/>
 <path d="M0,5 l0,-25" fill="none" stroke="rgb(204,204,204)" stroke-width="10" transform="matrix(1,0,0,-1,1204,1243)"/>
 <path d="M306,283 l-251,-177 l110,-95 l248,203 l4,0 l0,-214 l141,0 l0,562 l105,0 l0,109 l-693,0 l0,-109 l447,0 l0,-233 l-4,0 c-42,110,-134,163,-245,163 c-21,0,-52,-3,-71,-8 l-80,-62 c3,-71,50,-125,94,-149 l68,30 l0,67 c4,0,9,1,13,1 c57,0,97,-34,114,-88 Z M230,-96 c0,-40,33,-73,74,-73 c44,0,77,33,77,73 c0,45,-33,78,-77,78 c-41,0,-74,-33,-74,-78 Z M230,-96" fill="rgb(0,0,0)" transform="matrix(1,0,0,-1,571,1243)"/>
</svg>