<?xml version="1.0" encoding="UTF-8"?>
<svg height="1743" version="1.1" width="2679" xmlns="http://www.w3.org/2000/svg" xmlns:xlink="http://www.w3.org/1999/xlink">
 <path d="M0,0 l2679,0 l0,1743 l-2679,0 Z M0,0" fill="rgb(255,255,255)" transform="matrix(1,0,0,-1,0,1743)"/>
 <path d="M0,0 l2679,0" fill="none" stroke="rgb(229,229,229)" stroke-width="10" transform="matrix(1,0,0,-1,0,1243)"/>
 <path d="M0,5 l0,-25" fill="none" stroke="rgb(204,204,204)" stroke-width="10" transform="matrix(1,0,0,-1,571,1243)"/>
 <path d="M0,5 l0,-25" fill="none" stroke="rgb(204,204,204)" stroke-width="10" transform="matrix(1,0,0,-1,1207,1243)"/>
 <path d="M184,149 l-145,-83 l112,-95 l265,185 l4,0 l0,-156 l141,0 l0,562 l105,0 l0,109 l-696,0 l0,-109 l174,0 c19,-24,29,-63,29,-83 c0,-64,-58,-85,-133,-101 c3,-136,73,-204,144,-225 Z M189,332 c68,13,124,52,124,127 c0,29,-7,69,-41,99 l0,4 l148,0 l0,-271 c-19,-33,-60,-61,-117,-61 c-66,0,-105,44,-114,102 Z M248,-77 c0,-40,33,-73,74,-73 c44,0,77,33,77,73 c0,45,-33,78,-77,78 c-41,0,-74,-33,-74,-78 Z M248,-77" fill="rgb(0,0,0)" transform="matrix(1,0,0,-1,571,1243)"/>
</svg>