<?xml version="1.0" encoding="UTF-8"?>
<svg height="1743" version="1.1" width="2679" xmlns="http://www.w3.org/2000/svg" xmlns:xlink="http://www.w3.org/1999/xlink">
 <path d="M0,0 l2679,0 l0,1743 l-2679,0 Z M0,0" fill="rgb(255,255,255)" transform="matrix(1,0,0,-1,0,1743)"/>
 <path d="M0,0 l2679,0" fill="none" stroke="rgb(229,229,229)" stroke-width="10" transform="matrix(1,0,0,-1,0,1243)"/>
 <path d="M0,5 l0,-25" fill="none" stroke="rgb(204,204,204)" stroke-width="10" transform="matrix(1,0,0,-1,571,1243)"/>
 <path d="M0,5 l0,-25" fill="none" stroke="rgb(204,204,204)" stroke-width="10" transform="matrix(1,0,0,-1,1270,1243)"/>
 <path d="M441,-151 l153,32 l-151,157 c145,50,222,183,222,300 c0,115,-72,178,-173,178 c-97,0,-162,-65,-162,-143 c0,-75,51,-116,90,-130 l84,78 c-27,9,-44,25,-44,50 c0,21,15,35,33,35 c25,0,48,-18,48,-66 c0,-112,-98,-206,-214,-206 c-81,0,-115,37,-115,84 c0,39,20,70,79,74 l16,1 l0,114 l-33,0 c-52,0,-78,32,-78,74 c0,43,26,81,86,81 l447,0 l0,109 l-759,0 l0,-109 l115,0 l0,-4 c-18,-17,-35,-44,-35,-86 c0,-60,36,-110,103,-121 l0,-4 c-41,-15,-85,-54,-85,-135 c0,-90,65,-172,189,-191 l-137,-134 l154,-38 l87,117 Z M441,-151" fill="rgb(0,0,0)" transform="matrix(1,0,0,-1,571,1243)"/>
</svg>