<?xml version="1.0" encoding="UTF-8"?>
<svg height="1743" version="1.1" width="2679" xmlns="http://www.w3.org/2000/svg" xmlns:xlink="http://www.w3.org/1999/xlink">
 <path d="M0,0 l2679,0 l0,1743 l-2679,0 Z M0,0" fill="rgb(255,255,255)" transform="matrix(1,0,0,-1,0,1743)"/>
 <path d="M0,0 l2679,0" fill="none" stroke="rgb(229,229,229)" stroke-width="10" transform="matrix(1,0,0,-1,0,1243)"/>
 <path d="M0,5 l0,-25" fill="none" stroke="rgb(204,204,204)" stroke-width="10" transform="matrix(1,0,0,-1,571,1243)"/>
 <path d="M0,5 l0,-25" fill="none" stroke="rgb(204,204,204)" stroke-width="10" transform="matrix(1,0,0,-1,1078,1243)"/>
 <path d="M537,671 l-567,0 l0,-109 l567,0 Z M624,140 l0,225 c-55,-6,-129,-2,-156,5 l-4,20 c-26,90,-108,136,-196,136 c-44,0,-90,-12,-130,-35 l54,-118 c18,17,46,26,72,26 c37,0,72,-19,72,-65 c0,-42,-30,-71,-88,-71 c-58,0,-115,41,-151,102 l-92,-102 c41,-60,125,-125,242,-125 c88,0,173,40,208,114 c22,-7,67,-10,105,-10 c6,0,11,1,17,1 l0,-4 l-372,-223 l112,-95 Z M624,140" fill="rgb(0,0,0)" transform="matrix(1,0,0,-1,571,1243)"/>
</svg>