<?xml version="1.0" encoding="UTF-8"?>
<svg height="1743" version="1.1" width="2679" xmlns="http://www.w3.org/2000/svg" xmlns:xlink="http://www.w3.org/1999/xlink">
 <path d="M0,0 l2679,0 l0,1743 l-2679,0 Z M0,0" fill="rgb(255,255,255)" transform="matrix(1,0,0,-1,0,1743)"/>
 <path d="M0,0 l2679,0" fill="none" stroke="rgb(229,229,229)" stroke-width="10" transform="matrix(1,0,0,-1,0,1243)"/>
 <path d="M0,5 l0,-25" fill="none" stroke="rgb(204,204,204)" stroke-width="10" transform="matrix(1,0,0,-1,571,1243)"/>
 <path d="M0,5 l0,-25" fill="none" stroke="rgb(204,204,204)" stroke-width="10" transform="matrix(1,0,0,-1,1182,1243)"/>
 <path d="M407,-154 l153,32 l-155,161 c111,34,170,126,170,220 c0,94,-45,164,-137,214 l0,89 l203,0 l0,109 l-671,0 l0,-109 l324,0 l0,-71 l-76,-21 c-126,-35,-181,-95,-181,-200 c0,-111,78,-210,201,-237 l-152,-149 l154,-38 l87,117 Z M291,146 c-86,0,-119,52,-119,97 c0,50,15,87,121,114 l78,20 c44,-24,74,-64,74,-111 c0,-65,-54,-120,-154,-120 Z M525,-385 l-184,197 l-107,-43 l108,-158 l183,0 Z M525,-385" fill="rgb(0,0,0)" transform="matrix(1,0,0,-1,571,1243)"/>
</svg>