<?xml version="1.0" encoding="UTF-8"?>
<svg height="1743" version="1.1" width="2679" xmlns="http://www.w3.org/2000/svg" xmlns:xlink="http://www.w3.org/1999/xlink">
 <path d="M0,0 l2679,0 l0,1743 l-2679,0 Z M0,0" fill="rgb(255,255,255)" transform="matrix(1,0,0,-1,0,1743)"/>
 <path d="M0,0 l2679,0" fill="none" stroke="rgb(229,229,229)" stroke-width="10" transform="matrix(1,0,0,-1,0,1243)"/>
 <path d="M0,5 l0,-25" fill="none" stroke="rgb(204,204,204)" stroke-width="10" transform="matrix(1,0,0,-1,571,1243)"/>
 <path d="M0,5 l0,-25" fill="none" stroke="rgb(204,204,204)" stroke-width="10" transform="matrix(1,0,0,-1,893,1243)"/>
 <path d="M352,671 l-382,0 l0,-109 l382,0 Z M55,106 l110,-95 l281,234 c-40,173,-144,247,-278,247 c-21,0,-52,-3,-71,-8 l-80,-62 c3,-71,50,-125,94,-149 l68,30 l0,67 c4,0,9,1,13,1 c57,0,97,-34,114,-88 Z M55,106" fill="rgb(0,0,0)" transform="matrix(1,0,0,-1,571,1243)"/>
</svg>