<?xml version="1.0" encoding="UTF-8"?>
<svg height="1743" version="1.1" width="2679" xmlns="http://www.w3.org/2000/svg" xmlns:xlink="http://www.w3.org/1999/xlink">
 <path d="M0,0 l2679,0 l0,1743 l-2679,0 Z M0,0" fill="rgb(255,255,255)" transform="matrix(1,0,0,-1,0,1743)"/>
 <path d="M0,0 l2679,0" fill="none" stroke="rgb(229,229,229)" stroke-width="10" transform="matrix(1,0,0,-1,0,1243)"/>
 <path d="M0,5 l0,-25" fill="none" stroke="rgb(204,204,204)" stroke-width="10" transform="matrix(1,0,0,-1,571,1243)"/>
 <path d="M0,5 l0,-25" fill="none" stroke="rgb(204,204,204)" stroke-width="10" transform="matrix(1,0,0,-1,933,1243)"/>
 <path d="M143,-30 l247,170 c32,22,65,51,90,88 l-74,66 c-5,-8,-12,-19,-21,-28 l-161,121 c12,7,28,10,46,10 c21,0,40,-2,64,-10 l-7,118 c-27,7,-45,9,-77,9 c-104,0,-209,-76,-209,-204 c0,-115,76,-158,111,-172 l0,-4 l-121,-69 Z M274,207 c-55,0,-100,36,-100,96 c0,14,2,26,7,38 l153,-116 c-17,-11,-37,-18,-60,-18 Z M392,671 l-412,0 l0,-109 l412,0 Z M392,671" fill="rgb(0,0,0)" transform="matrix(1,0,0,-1,571,1243)"/>
</svg>