<?xml version="1.0" encoding="UTF-8"?>
<svg height="1743" version="1.1" width="2679" xmlns="http://www.w3.org/2000/svg" xmlns:xlink="http://www.w3.org/1999/xlink">
 <path d="M0,0 l2679,0 l0,1743 l-2679,0 Z M0,0" fill="rgb(255,255,255)" transform="matrix(1,0,0,-1,0,1743)"/>
 <path d="M0,0 l2679,0" fill="none" stroke="rgb(229,229,229)" stroke-width="10" transform="matrix(1,0,0,-1,0,1243)"/>
 <path d="M0,5 l0,-25" fill="none" stroke="rgb(204,204,204)" stroke-width="10" transform="matrix(1,0,0,-1,571,1243)"/>
 <path d="M0,5 l0,-25" fill="none" stroke="rgb(204,204,204)" stroke-width="10" transform="matrix(1,0,0,-1,947,1243)"/>
 <path d="M439,309 c-18,-31,-58,-79,-136,-79 c-66,0,-105,44,-114,102 c68,13,124,52,124,127 c0,29,-7,69,-41,99 l0,4 l134,0 l0,109 l-436,0 l0,-109 l174,0 c19,-24,29,-63,29,-83 c0,-64,-58,-85,-133,-101 c3,-136,73,-204,144,-225 l0,-4 l-145,-83 l112,-95 l292,199 c23,15,45,31,68,46 Z M439,309" fill="rgb(0,0,0)" transform="matrix(1,0,0,-1,571,1243)"/>
</svg>