<?xml version="1.0" encoding="UTF-8"?>
<svg height="1743" version="1.1" width="2679" xmlns="http://www.w3.org/2000/svg" xmlns:xlink="http://www.w3.org/1999/xlink">
 <path d="M0,0 l2679,0 l0,1743 l-2679,0 Z M0,0" fill="rgb(255,255,255)" transform="matrix(1,0,0,-1,0,1743)"/>
 <path d="M0,0 l2679,0" fill="none" stroke="rgb(229,229,229)" stroke-width="10" transform="matrix(1,0,0,-1,0,1243)"/>
 <path d="M0,5 l0,-25" fill="none" stroke="rgb(204,204,204)" stroke-width="10" transform="matrix(1,0,0,-1,571,1243)"/>
 <path d="M0,5 l0,-25" fill="none" stroke="rgb(204,204,204)" stroke-width="10" transform="matrix(1,0,0,-1,896,1243)"/>
 <path d="M284,295 c-45,0,-77,19,-77,71 l0,45 c0,59,-8,93,-8,93 c0,0,21,-26,59,-67 l105,-113 c-21,-19,-48,-29,-79,-29 Z M486,305 l-244,257 l113,0 l0,109 l-385,0 l0,-109 l101,0 l0,-206 c0,-105,63,-144,137,-150 l0,-4 l-176,-129 l128,-85 l326,303 Z M486,305" fill="rgb(0,0,0)" transform="matrix(1,0,0,-1,571,1243)"/>
</svg>