<?xml version="1.0" encoding="UTF-8"?>
<svg height="1743" version="1.1" width="2679" xmlns="http://www.w3.org/2000/svg" xmlns:xlink="http://www.w3.org/1999/xlink">
 <path d="M0,0 l2679,0 l0,1743 l-2679,0 Z M0,0" fill="rgb(255,255,255)" transform="matrix(1,0,0,-1,0,1743)"/>
 <path d="M0,0 l2679,0" fill="none" stroke="rgb(229,229,229)" stroke-width="10" transform="matrix(1,0,0,-1,0,1243)"/>
 <path d="M0,5 l0,-25" fill="none" stroke="rgb(204,204,204)" stroke-width="10" transform="matrix(1,0,0,-1,571,1243)"/>
 <path d="M0,5 l0,-25" fill="none" stroke="rgb(204,204,204)" stroke-width="10" transform="matrix(1,0,0,-1,1156,1243)"/>
 <path d="M599,487 c-43,0,-87,-18,-108,-39 l-4,-1 l0,115 l128,0 l0,109 l-645,0 l0,-109 l377,0 l0,-246 c0,-53,-35,-91,-86,-91 c-45,0,-77,31,-77,75 c0,60,49,92,115,78 l-22,121 c-115,10,-233,-61,-233,-187 c0,-95,58,-146,104,-161 l0,-4 l-127,-59 l107,-97 l215,156 l4,0 l0,-147 l140,0 l0,281 c0,52,36,91,90,91 c38,0,62,-14,76,-27 l67,106 c-32,23,-78,36,-121,36 Z M180,-96 c0,-40,33,-73,74,-73 c44,0,77,33,77,73 c0,45,-33,78,-77,78 c-41,0,-74,-33,-74,-78 Z M180,-96" fill="rgb(0,0,0)" transform="matrix(1,0,0,-1,571,1243)"/>
</svg>