<?xml version="1.0" encoding="UTF-8"?>
<svg height="1743" version="1.1" width="2679" xmlns="http://www.w3.org/2000/svg" xmlns:xlink="http://www.w3.org/1999/xlink">
 <path d="M0,0 l2679,0 l0,1743 l-2679,0 Z M0,0" fill="rgb(255,255,255)" transform="matrix(1,0,0,-1,0,1743)"/>
 <path d="M0,0 l2679,0" fill="none" stroke="rgb(229,229,229)" stroke-width="10" transform="matrix(1,0,0,-1,0,1243)"/>
 <path d="M0,5 l0,-25" fill="none" stroke="rgb(204,204,204)" stroke-width="10" transform="matrix(1,0,0,-1,571,1243)"/>
 <path d="M0,5 l0,-25" fill="none" stroke="rgb(204,204,204)" stroke-width="10" transform="matrix(1,0,0,-1,963,1243)"/>
 <path d="M463,296 c-28,-49,-91,-93,-157,-93 c-70,0,-93,34,-93,66 c0,36,25,61,83,61 l53,0 l0,108 l-63,0 c-54,0,-80,25,-80,61 c0,37,24,63,75,63 l141,0 l0,109 l-452,0 l0,-109 l122,0 l0,-4 c-19,-17,-33,-39,-33,-71 c0,-59,47,-97,108,-101 l0,-4 c-43,-10,-98,-45,-98,-120 c0,-83,66,-127,119,-135 l0,-4 l-121,-68 l112,-95 l268,180 c30,20,59,40,89,60 Z M282,-96 c0,-40,33,-73,74,-73 c44,0,77,33,77,73 c0,45,-33,78,-77,78 c-41,0,-74,-33,-74,-78 Z M282,-96" fill="rgb(0,0,0)" transform="matrix(1,0,0,-1,571,1243)"/>
</svg>