<?xml version="1.0" encoding="UTF-8"?>
<svg height="1743" version="1.1" width="2679" xmlns="http://www.w3.org/2000/svg" xmlns:xlink="http://www.w3.org/1999/xlink">
 <path d="M0,0 l2679,0 l0,1743 l-2679,0 Z M0,0" fill="rgb(255,255,255)" transform="matrix(1,0,0,-1,0,1743)"/>
 <path d="M0,0 l2679,0" fill="none" stroke="rgb(229,229,229)" stroke-width="10" transform="matrix(1,0,0,-1,0,1243)"/>
 <path d="M0,5 l0,-25" fill="none" stroke="rgb(204,204,204)" stroke-width="10" transform="matrix(1,0,0,-1,571,1243)"/>
 <path d="M0,5 l0,-25" fill="none" stroke="rgb(204,204,204)" stroke-width="10" transform="matrix(1,0,0,-1,1143,1243)"/>
 <path d="M391,-181 l153,32 l-150,155 c85,29,135,99,135,182 c0,82,-44,142,-110,160 l-157,-36 c-32,13,-41,41,-41,55 c0,23,10,29,69,29 l186,0 l0,166 l126,0 l0,109 l-632,0 l0,-109 l368,0 l0,-56 l-120,0 c-89,0,-135,-41,-135,-108 c0,-74,53,-160,166,-206 l136,36 c10,-8,19,-25,19,-42 c0,-50,-36,-79,-98,-79 c-81,0,-155,56,-193,141 l-90,-67 c29,-62,90,-147,197,-178 l-150,-146 l154,-38 l87,117 Z M515,-415 l-184,197 l-107,-43 l108,-158 l183,0 Z M-72,-28 c0,-40,33,-73,74,-73 c44,0,77,33,77,73 c0,45,-33,78,-77,78 c-41,0,-74,-33,-74,-78 Z M-72,-28" fill="rgb(0,0,0)" transform="matrix(1,0,0,-1,571,1243)"/>
</svg>