<?xml version="1.0" encoding="UTF-8"?>
<svg height="1743" version="1.1" width="2679" xmlns="http://www.w3.org/2000/svg" xmlns:xlink="http://www.w3.org/1999/xlink">
 <path d="M0,0 l2679,0 l0,1743 l-2679,0 Z M0,0" fill="rgb(255,255,255)" transform="matrix(1,0,0,-1,0,1743)"/>
 <path d="M0,0 l2679,0" fill="none" stroke="rgb(229,229,229)" stroke-width="10" transform="matrix(1,0,0,-1,0,1243)"/>
 <path d="M0,5 l0,-25" fill="none" stroke="rgb(204,204,204)" stroke-width="10" transform="matrix(1,0,0,-1,571,1243)"/>
 <path d="M0,5 l0,-25" fill="none" stroke="rgb(204,204,204)" stroke-width="10" transform="matrix(1,0,0,-1,904,1243)"/>
 <path d="M451,259 c20,19,26,27,31,34 l-80,93 c-28,-43,-67,-74,-115,-74 c-47,0,-69,24,-69,76 l0,174 l145,0 l0,109 l-393,0 l0,-109 l107,0 l0,-196 c0,-105,63,-144,137,-150 l0,-4 l-200,-151 l128,-85 Z M219,-96 c0,-40,33,-73,74,-73 c44,0,77,33,77,73 c0,45,-33,78,-77,78 c-41,0,-74,-33,-74,-78 Z M219,-96" fill="rgb(0,0,0)" transform="matrix(1,0,0,-1,571,1243)"/>
</svg>