<?xml version="1.0" encoding="UTF-8"?>
<svg height="1743" version="1.1" width="2679" xmlns="http://www.w3.org/2000/svg" xmlns:xlink="http://www.w3.org/1999/xlink">
 <path d="M0,0 l2679,0 l0,1743 l-2679,0 Z M0,0" fill="rgb(255,255,255)" transform="matrix(1,0,0,-1,0,1743)"/>
 <path d="M0,0 l2679,0" fill="none" stroke="rgb(229,229,229)" stroke-width="10" transform="matrix(1,0,0,-1,0,1243)"/>
 <path d="M0,5 l0,-25" fill="none" stroke="rgb(204,204,204)" stroke-width="10" transform="matrix(1,0,0,-1,571,1243)"/>
 <path d="M0,5 l0,-25" fill="none" stroke="rgb(204,204,204)" stroke-width="10" transform="matrix(1,0,0,-1,1167,1243)"/>
 <path d="M278,290 c-45,0,-60,25,-60,77 l0,195 l143,0 l0,-234 c-12,-19,-46,-38,-83,-38 Z M498,282 c0,52,36,91,90,91 c38,0,62,-14,76,-27 l67,106 c-32,23,-73,36,-116,36 c-46,0,-90,-17,-113,-39 l-4,0 l0,113 l128,0 l0,109 l-656,0 l0,-109 l107,0 l0,-220 c0,-78,36,-130,103,-147 l0,-4 l-155,-125 l126,-89 l206,221 l4,0 l0,-198 l137,0 Z M198,-105 c0,-40,33,-73,74,-73 c44,0,77,33,77,73 c0,45,-33,78,-77,78 c-41,0,-74,-33,-74,-78 Z M198,-105" fill="rgb(0,0,0)" transform="matrix(1,0,0,-1,571,1243)"/>
</svg>