<?xml version="1.0" encoding="UTF-8"?>
<svg height="1743" version="1.1" width="2679" xmlns="http://www.w3.org/2000/svg" xmlns:xlink="http://www.w3.org/1999/xlink">
 <path d="M0,0 l2679,0 l0,1743 l-2679,0 Z M0,0" fill="rgb(255,255,255)" transform="matrix(1,0,0,-1,0,1743)"/>
 <path d="M0,0 l2679,0" fill="none" stroke="rgb(229,229,229)" stroke-width="10" transform="matrix(1,0,0,-1,0,1243)"/>
 <path d="M0,5 l0,-25" fill="none" stroke="rgb(204,204,204)" stroke-width="10" transform="matrix(1,0,0,-1,571,1243)"/>
 <path d="M0,5 l0,-25" fill="none" stroke="rgb(204,204,204)" stroke-width="10" transform="matrix(1,0,0,-1,1302,1243)"/>
 <path d="M601,-131 l153,32 l-157,162 c65,33,107,103,107,195 c0,130,-72,216,-187,216 c-74,0,-122,-24,-155,-70 c-17,30,-59,70,-141,70 c-111,0,-194,-86,-194,-215 c0,-130,72,-216,187,-216 c71,0,120,25,155,71 c10,-19,31,-42,65,-57 l-154,-150 l154,-38 l87,117 Z M220,158 c-44,0,-62,36,-62,101 c0,62,30,107,77,107 c34,0,63,-23,80,-62 c-14,-46,-32,-146,-95,-146 Z M496,151 c-34,0,-63,23,-80,62 c14,46,31,146,95,146 c44,0,62,-36,62,-101 c0,-62,-30,-107,-77,-107 Z M761,562 l0,109 l-791,0 l0,-109 Z M25,-73 c0,-40,33,-73,74,-73 c44,0,77,33,77,73 c0,45,-33,78,-77,78 c-41,0,-74,-33,-74,-78 Z M25,-73" fill="rgb(0,0,0)" transform="matrix(1,0,0,-1,571,1243)"/>
</svg>