<?xml version="1.0" encoding="UTF-8"?>
<svg height="1743" version="1.1" width="2679" xmlns="http://www.w3.org/2000/svg" xmlns:xlink="http://www.w3.org/1999/xlink">
 <path d="M0,0 l2679,0 l0,1743 l-2679,0 Z M0,0" fill="rgb(255,255,255)" transform="matrix(1,0,0,-1,0,1743)"/>
 <path d="M0,0 l2679,0" fill="none" stroke="rgb(229,229,229)" stroke-width="10" transform="matrix(1,0,0,-1,0,1243)"/>
 <path d="M0,5 l0,-25" fill="none" stroke="rgb(204,204,204)" stroke-width="10" transform="matrix(1,0,0,-1,571,1243)"/>
 <path d="M0,5 l0,-25" fill="none" stroke="rgb(204,204,204)" stroke-width="10" transform="matrix(1,0,0,-1,1978,1243)"/>
 <path d="M748,370 c-21,0,-35,13,-45,39 l-15,42 c-31,26,-63,36,-106,36 c-43,0,-87,-18,-108,-39 l-4,0 l0,114 l314,0 l0,-150 c0,-30,-18,-42,-36,-42 Z M330,140 l0,-140 l140,0 l0,281 c0,52,36,91,90,91 c11,0,21,-1,29,-3 c26,-189,149,-365,377,-365 c132,0,205,56,234,84 l4,0 l0,-88 l128,0 l0,562 l105,0 l0,109 l-1467,0 l0,-109 l360,0 l0,-254 c0,-51,-32,-91,-84,-91 c-45,0,-79,31,-79,75 c0,60,49,92,115,78 l-22,121 c-118,11,-232,-57,-232,-197 c0,-116,85,-192,189,-192 c55,0,91,21,109,38 Z M1200,481 c-16,10,-41,20,-83,20 c-94,0,-167,-71,-167,-166 c0,-93,70,-143,137,-152 l73,73 c-42,4,-86,28,-86,76 c0,35,26,61,63,61 c39,0,69,-28,69,-80 c0,-111,-98,-199,-227,-199 c-119,0,-201,72,-226,156 c9,-2,21,-3,29,-3 c79,0,135,47,135,154 l0,141 l287,0 l0,-81 Z M1200,481" fill="rgb(0,0,0)" transform="matrix(1,0,0,-1,571,1243)"/>
</svg>