<?xml version="1.0" encoding="UTF-8"?>
<svg height="1743" version="1.1" width="2679" xmlns="http://www.w3.org/2000/svg" xmlns:xlink="http://www.w3.org/1999/xlink">
 <path d="M0,0 l2679,0 l0,1743 l-2679,0 Z M0,0" fill="rgb(255,255,255)" transform="matrix(1,0,0,-1,0,1743)"/>
 <path d="M0,0 l2679,0" fill="none" stroke="rgb(229,229,229)" stroke-width="10" transform="matrix(1,0,0,-1,0,1243)"/>
 <path d="M0,5 l0,-25" fill="none" stroke="rgb(204,204,204)" stroke-width="10" transform="matrix(1,0,0,-1,571,1243)"/>
 <path d="M0,5 l0,-25" fill="none" stroke="rgb(204,204,204)" stroke-width="10" transform="matrix(1,0,0,-1,1837,1243)"/>
 <path d="M1050,139 l0,-139 l141,0 l0,562 l105,0 l0,109 l-1326,0 l0,-109 l360,0 l0,-254 c0,-51,-32,-91,-84,-91 c-45,0,-79,31,-79,75 c0,60,49,92,115,78 l-22,121 c-118,11,-232,-57,-232,-197 c0,-116,85,-192,189,-192 c55,0,91,21,109,38 l4,0 l0,-140 l140,0 l0,281 c0,52,36,91,90,91 c33,0,53,-9,69,-30 l93,0 l0,-4 c-23,-19,-47,-47,-47,-103 c0,-86,65,-164,201,-164 c100,0,149,43,170,68 Z M910,190 c-62,0,-92,28,-92,72 c0,50,37,81,107,81 l60,0 l0,119 l-309,0 c-20,14,-49,25,-94,25 c-43,0,-87,-18,-108,-39 l-4,0 l0,114 l580,0 l0,-200 c0,-110,-56,-172,-140,-172 Z M910,190" fill="rgb(0,0,0)" transform="matrix(1,0,0,-1,571,1243)"/>
</svg>