<?xml version="1.0" encoding="UTF-8"?>
<svg height="1743" version="1.1" width="2679" xmlns="http://www.w3.org/2000/svg" xmlns:xlink="http://www.w3.org/1999/xlink">
 <path d="M0,0 l2679,0 l0,1743 l-2679,0 Z M0,0" fill="rgb(255,255,255)" transform="matrix(1,0,0,-1,0,1743)"/>
 <path d="M0,0 l2679,0" fill="none" stroke="rgb(229,229,229)" stroke-width="10" transform="matrix(1,0,0,-1,0,1243)"/>
 <path d="M0,5 l0,-25" fill="none" stroke="rgb(204,204,204)" stroke-width="10" transform="matrix(1,0,0,-1,571,1243)"/>
 <path d="M0,5 l0,-25" fill="none" stroke="rgb(204,204,204)" stroke-width="10" transform="matrix(1,0,0,-1,2103,1243)"/>
 <path d="M871,473 l-37,0 c-42,0,-86,-10,-122,-34 c-19,18,-56,48,-129,48 c-43,0,-88,-18,-109,-39 l-4,0 l0,114 l570,0 c19,-24,29,-63,29,-83 c0,-27,-11,-48,-29,-64 c-43,44,-108,58,-169,58 Z M330,140 l0,-140 l140,0 l0,281 c0,52,37,91,91,91 c41,0,64,-19,77,-31 c-7,-21,-10,-44,-10,-70 c0,-132,83,-233,158,-284 l101,88 c-71,50,-115,115,-115,191 c0,61,40,86,87,86 l7,0 c34,0,56,-6,73,-16 c19,-142,115,-224,238,-224 c61,0,109,20,135,47 l4,0 l0,-159 l141,0 l0,562 l105,0 l0,109 l-1592,0 l0,-109 l360,0 l0,-254 c0,-51,-32,-91,-84,-91 c-45,0,-79,31,-79,75 c0,60,49,92,115,78 l-22,121 c-118,11,-232,-57,-232,-197 c0,-116,85,-192,189,-192 c55,0,91,21,109,38 Z M1087,326 c65,12,122,62,122,134 c0,31,-10,70,-43,98 l0,4 l150,0 l0,-217 c0,-68,-40,-115,-118,-115 c-65,0,-103,39,-111,96 Z M1087,326" fill="rgb(0,0,0)" transform="matrix(1,0,0,-1,571,1243)"/>
</svg>