<?xml version="1.0" encoding="UTF-8"?>
<svg height="1743" version="1.1" width="2679" xmlns="http://www.w3.org/2000/svg" xmlns:xlink="http://www.w3.org/1999/xlink">
 <path d="M0,0 l2679,0 l0,1743 l-2679,0 Z M0,0" fill="rgb(255,255,255)" transform="matrix(1,0,0,-1,0,1743)"/>
 <path d="M0,0 l2679,0" fill="none" stroke="rgb(229,229,229)" stroke-width="10" transform="matrix(1,0,0,-1,0,1243)"/>
 <path d="M0,5 l0,-25" fill="none" stroke="rgb(204,204,204)" stroke-width="10" transform="matrix(1,0,0,-1,571,1243)"/>
 <path d="M0,5 l0,-25" fill="none" stroke="rgb(204,204,204)" stroke-width="10" transform="matrix(1,0,0,-1,1966,1243)"/>
 <path d="M474,448 l-4,0 l0,114 l165,0 l0,-81 c-17,4,-35,6,-53,6 c-43,0,-87,-18,-108,-39 Z M470,0 l0,281 c0,52,36,91,90,91 c37,0,61,-13,75,-26 c0,-100,51,-175,174,-175 c54,0,89,18,106,34 l4,0 l0,-205 l137,0 l0,268 c0,54,32,106,97,106 c44,0,75,-30,75,-74 c0,-57,-46,-94,-113,-79 l22,-121 c122,-11,230,62,230,202 c0,115,-82,189,-186,189 c-65,0,-102,-26,-121,-45 l-4,0 l0,116 l369,0 l0,109 l-1455,0 l0,-109 l360,0 l0,-254 c0,-51,-32,-91,-84,-91 c-45,0,-79,31,-79,75 c0,60,49,92,115,78 l-22,121 c-118,11,-232,-57,-232,-197 c0,-116,85,-192,189,-192 c55,0,91,21,109,38 l4,0 l0,-140 Z M200,4 c0,44,-31,75,-74,75 c-39,0,-71,-31,-71,-75 c0,-38,32,-70,71,-70 c43,0,74,32,74,70 Z M776,369 l0,193 l143,0 l0,-192 c0,-39,-21,-78,-83,-78 c-45,0,-60,25,-60,77 Z M787,46 c0,44,-31,75,-74,75 c-39,0,-71,-31,-71,-75 c0,-38,32,-70,71,-70 c43,0,74,32,74,70 Z M787,46" fill="rgb(0,0,0)" transform="matrix(1,0,0,-1,571,1243)"/>
</svg>