<?xml version="1.0" encoding="UTF-8"?>
<svg height="1743" version="1.1" width="2679" xmlns="http://www.w3.org/2000/svg" xmlns:xlink="http://www.w3.org/1999/xlink">
 <path d="M0,0 l2679,0 l0,1743 l-2679,0 Z M0,0" fill="rgb(255,255,255)" transform="matrix(1,0,0,-1,0,1743)"/>
 <path d="M0,0 l2679,0" fill="none" stroke="rgb(229,229,229)" stroke-width="10" transform="matrix(1,0,0,-1,0,1243)"/>
 <path d="M0,5 l0,-25" fill="none" stroke="rgb(204,204,204)" stroke-width="10" transform="matrix(1,0,0,-1,571,1243)"/>
 <path d="M0,5 l0,-25" fill="none" stroke="rgb(204,204,204)" stroke-width="10" transform="matrix(1,0,0,-1,1730,1243)"/>
 <path d="M823,397 c21,0,43,-2,67,-10 l-7,118 c-27,7,-45,9,-77,9 c-46,0,-93,-16,-131,-46 c-24,11,-54,19,-93,19 c-43,0,-87,-18,-108,-39 l-4,0 l0,114 l473,0 l0,-234 c0,-19,-4,-38,-13,-54 l-150,113 c13,7,28,10,43,10 Z M330,140 l0,-140 l140,0 l0,281 c0,52,36,91,90,91 c18,0,33,-3,46,-8 c-5,-20,-8,-41,-8,-63 c0,-119,86,-206,209,-206 c57,0,106,21,131,46 l4,0 l0,-141 l142,0 l0,562 l105,0 l0,109 l-1219,0 l0,-109 l360,0 l0,-254 c0,-51,-32,-91,-84,-91 c-45,0,-79,31,-79,75 c0,60,49,92,115,78 l-22,121 c-118,11,-232,-57,-232,-197 c0,-116,85,-192,189,-192 c55,0,91,21,109,38 Z M828,207 c-53,0,-98,39,-98,97 c0,14,3,26,7,37 l153,-115 c-18,-12,-39,-19,-62,-19 Z M52,4 c0,-40,33,-73,74,-73 c44,0,77,33,77,73 c0,45,-33,78,-77,78 c-41,0,-74,-33,-74,-78 Z M52,4" fill="rgb(0,0,0)" transform="matrix(1,0,0,-1,571,1243)"/>
</svg>