<?xml version="1.0" encoding="UTF-8"?>
<svg height="1743" version="1.1" width="2679" xmlns="http://www.w3.org/2000/svg" xmlns:xlink="http://www.w3.org/1999/xlink">
 <path d="M0,0 l2679,0 l0,1743 l-2679,0 Z M0,0" fill="rgb(255,255,255)" transform="matrix(1,0,0,-1,0,1743)"/>
 <path d="M0,0 l2679,0" fill="none" stroke="rgb(229,229,229)" stroke-width="10" transform="matrix(1,0,0,-1,0,1243)"/>
 <path d="M0,5 l0,-25" fill="none" stroke="rgb(204,204,204)" stroke-width="10" transform="matrix(1,0,0,-1,571,1243)"/>
 <path d="M0,5 l0,-25" fill="none" stroke="rgb(204,204,204)" stroke-width="10" transform="matrix(1,0,0,-1,1946,1243)"/>
 <path d="M55,12 c0,-38,32,-70,71,-70 c43,0,74,32,74,70 c0,44,-31,75,-74,75 c-39,0,-71,-31,-71,-75 Z M872,463 c-31,10,-49,32,-49,58 c0,24,13,48,49,48 c37,0,67,-32,67,-93 c0,-83,-62,-133,-148,-133 c-25,0,-56,3,-85,14 c-19,59,-68,97,-131,97 c-44,0,-79,-16,-101,-37 l-4,0 l0,145 l117,0 l0,109 l-617,0 l0,-109 l360,0 l0,-254 c0,-51,-32,-91,-84,-91 c-45,0,-79,31,-79,75 c0,50,35,81,85,81 c10,0,20,-1,30,-3 l-22,121 c-8,1,-17,1,-25,1 c-109,0,-207,-68,-207,-198 c0,-116,85,-192,189,-192 c55,0,91,21,109,38 l4,0 l0,-140 l140,0 l0,251 c0,51,26,91,77,91 c40,0,63,-29,63,-67 c0,-4,0,-9,-1,-13 l85,-62 l245,-227 l117,81 l-93,84 c-49,44,-98,77,-131,94 l0,4 c11,0,22,1,33,3 c108,16,216,92,216,239 c0,102,-66,202,-215,202 c-108,0,-182,-75,-182,-162 c0,-68,38,-118,105,-136 Z M1158,0 l142,0 l0,562 l105,0 l0,109 l-247,0 Z M1158,0" fill="rgb(0,0,0)" transform="matrix(1,0,0,-1,571,1243)"/>
</svg>