<?xml version="1.0" encoding="UTF-8"?>
<svg height="1743" version="1.1" width="2679" xmlns="http://www.w3.org/2000/svg" xmlns:xlink="http://www.w3.org/1999/xlink">
 <path d="M0,0 l2679,0 l0,1743 l-2679,0 Z M0,0" fill="rgb(255,255,255)" transform="matrix(1,0,0,-1,0,1743)"/>
 <path d="M0,0 l2679,0" fill="none" stroke="rgb(229,229,229)" stroke-width="10" transform="matrix(1,0,0,-1,0,1243)"/>
 <path d="M0,5 l0,-25" fill="none" stroke="rgb(204,204,204)" stroke-width="10" transform="matrix(1,0,0,-1,571,1243)"/>
 <path d="M0,5 l0,-25" fill="none" stroke="rgb(204,204,204)" stroke-width="10" transform="matrix(1,0,0,-1,2145,1243)"/>
 <path d="M1005,365 c-27,0,-48,3,-64,7 c1,10,2,21,2,33 l0,157 l386,0 l0,-71 l-76,-21 c-75,-21,-125,-51,-153,-94 c-32,-9,-65,-11,-95,-11 Z M762,359 c-25,0,-43,14,-65,42 c-2,3,-4,5,-6,8 c-2,2,-3,4,-5,6 c-45,52,-79,63,-125,63 c-36,0,-66,-15,-87,-35 l-4,0 l0,119 l333,0 l0,-154 c0,-36,-18,-49,-41,-49 Z M330,140 l0,-140 l140,0 l0,278 c0,58,28,85,58,85 c23,0,38,-16,55,-35 l281,-347 l115,72 l-92,110 c-40,48,-60,69,-81,90 l0,4 c10,1,20,3,30,5 c19,4,36,11,51,22 c35,-27,78,-42,137,-42 c16,0,33,0,50,2 c13,-120,118,-219,269,-219 c77,0,156,21,227,89 l-68,113 c-58,-61,-112,-81,-176,-81 c-86,0,-119,52,-119,97 c0,50,15,87,121,114 l145,37 l0,168 l131,0 l0,109 l-1634,0 l0,-109 l360,0 l0,-254 c0,-51,-32,-91,-84,-91 c-45,0,-79,31,-79,75 c0,60,49,92,115,78 l-22,121 c-118,11,-232,-57,-232,-197 c0,-116,85,-192,189,-192 c55,0,91,21,109,38 Z M330,140" fill="rgb(0,0,0)" transform="matrix(1,0,0,-1,571,1243)"/>
</svg>