<?xml version="1.0" encoding="UTF-8"?>
<svg height="1743" version="1.1" width="2679" xmlns="http://www.w3.org/2000/svg" xmlns:xlink="http://www.w3.org/1999/xlink">
 <path d="M0,0 l2679,0 l0,1743 l-2679,0 Z M0,0" fill="rgb(255,255,255)" transform="matrix(1,0,0,-1,0,1743)"/>
 <path d="M0,0 l2679,0" fill="none" stroke="rgb(229,229,229)" stroke-width="10" transform="matrix(1,0,0,-1,0,1243)"/>
 <path d="M0,5 l0,-25" fill="none" stroke="rgb(204,204,204)" stroke-width="10" transform="matrix(1,0,0,-1,571,1243)"/>
 <path d="M0,5 l0,-25" fill="none" stroke="rgb(204,204,204)" stroke-width="10" transform="matrix(1,0,0,-1,1753,1243)"/>
 <path d="M415,117 c-120,0,-203,66,-230,153 c9,-2,21,-3,29,-3 c79,0,135,47,135,154 l0,141 l617,0 l0,-89 l-125,0 c-44,0,-89,-11,-127,-37 c-34,45,-88,70,-150,70 c-107,0,-179,-73,-179,-168 c0,-93,65,-142,131,-150 l73,74 c-41,4,-83,26,-83,74 c0,35,26,60,63,60 c38,0,69,-26,69,-79 c0,-113,-93,-200,-223,-200 Z M892,74 c-71,50,-118,116,-118,192 c0,61,40,86,87,86 l105,0 l0,-352 l141,0 l0,562 l106,0 l0,109 l-1243,0 l0,-109 l246,0 l0,-150 c0,-30,-14,-41,-32,-41 c-24,0,-43,16,-54,51 l-119,-42 c31,-196,162,-373,391,-373 c119,0,213,45,274,110 c30,-57,75,-101,117,-130 Z M892,74" fill="rgb(0,0,0)" transform="matrix(1,0,0,-1,571,1243)"/>
</svg>