<?xml version="1.0" encoding="UTF-8"?>
<svg height="1743" version="1.1" width="2679" xmlns="http://www.w3.org/2000/svg" xmlns:xlink="http://www.w3.org/1999/xlink">
 <path d="M0,0 l2679,0 l0,1743 l-2679,0 Z M0,0" fill="rgb(255,255,255)" transform="matrix(1,0,0,-1,0,1743)"/>
 <path d="M0,0 l2679,0" fill="none" stroke="rgb(229,229,229)" stroke-width="10" transform="matrix(1,0,0,-1,0,1243)"/>
 <path d="M0,5 l0,-25" fill="none" stroke="rgb(204,204,204)" stroke-width="10" transform="matrix(1,0,0,-1,571,1243)"/>
 <path d="M0,5 l0,-25" fill="none" stroke="rgb(204,204,204)" stroke-width="10" transform="matrix(1,0,0,-1,1589,1243)"/>
 <path d="M305,205 c-70,0,-93,33,-93,65 c0,36,25,62,83,62 l53,0 l0,108 l-63,0 c-54,0,-80,24,-80,60 c0,37,25,62,76,62 l245,0 c19,-24,29,-63,29,-83 c0,-63,-56,-90,-133,-105 c1,-38,8,-73,19,-103 c-32,-35,-81,-66,-136,-66 Z M802,159 l0,-159 l141,0 l0,562 l105,0 l0,109 l-1078,0 l0,-109 l121,0 l0,-4 c-19,-17,-33,-38,-33,-70 c0,-59,47,-96,108,-100 l0,-4 c-43,-11,-98,-48,-98,-128 c0,-94,82,-160,206,-160 c113,0,183,37,230,76 c42,-39,97,-60,159,-60 c61,0,109,20,135,47 Z M573,326 c65,12,122,62,122,134 c0,31,-10,70,-43,98 l0,4 l150,0 l0,-217 c0,-68,-40,-115,-118,-115 c-65,0,-103,39,-111,96 Z M573,326" fill="rgb(0,0,0)" transform="matrix(1,0,0,-1,571,1243)"/>
</svg>