<?xml version="1.0" encoding="UTF-8"?>
<svg height="1743" version="1.1" width="2679" xmlns="http://www.w3.org/2000/svg" xmlns:xlink="http://www.w3.org/1999/xlink">
 <path d="M0,0 l2679,0 l0,1743 l-2679,0 Z M0,0" fill="rgb(255,255,255)" transform="matrix(1,0,0,-1,0,1743)"/>
 <path d="M0,0 l2679,0" fill="none" stroke="rgb(229,229,229)" stroke-width="10" transform="matrix(1,0,0,-1,0,1243)"/>
 <path d="M0,5 l0,-25" fill="none" stroke="rgb(204,204,204)" stroke-width="10" transform="matrix(1,0,0,-1,571,1243)"/>
 <path d="M0,5 l0,-25" fill="none" stroke="rgb(204,204,204)" stroke-width="10" transform="matrix(1,0,0,-1,1691,1243)"/>
 <path d="M925,303 c-27,9,-44,25,-44,50 c0,21,15,35,35,35 c26,0,46,-19,46,-66 c0,-101,-91,-188,-206,-188 c-81,0,-123,37,-123,84 c0,38,20,69,78,74 c5,1,11,1,17,1 l0,114 l-33,0 c-52,0,-78,32,-78,74 c0,43,26,81,86,81 l163,0 l0,-70 c-70,-17,-115,-72,-115,-137 c0,-75,51,-116,90,-130 Z M743,17 c214,0,343,156,343,303 c0,79,-34,133,-88,160 l0,82 l152,0 l0,109 l-1180,0 l0,-109 l536,0 l0,-4 c-18,-17,-35,-44,-35,-86 c0,-60,36,-110,103,-121 l0,-4 c-24,-9,-50,-26,-67,-56 c-37,-55,-89,-91,-177,-91 c-64,0,-97,33,-97,77 c0,54,37,86,107,86 l42,0 l0,119 l-373,0 l0,-120 l128,0 l0,-4 c-23,-19,-47,-48,-47,-108 c0,-87,70,-169,212,-169 c85,0,152,22,203,58 c34,-70,117,-122,238,-122 Z M743,17" fill="rgb(0,0,0)" transform="matrix(1,0,0,-1,571,1243)"/>
</svg>