<?xml version="1.0" encoding="UTF-8"?>
<svg height="1743" version="1.1" width="2679" xmlns="http://www.w3.org/2000/svg" xmlns:xlink="http://www.w3.org/1999/xlink">
 <path d="M0,0 l2679,0 l0,1743 l-2679,0 Z M0,0" fill="rgb(255,255,255)" transform="matrix(1,0,0,-1,0,1743)"/>
 <path d="M0,0 l2679,0" fill="none" stroke="rgb(229,229,229)" stroke-width="10" transform="matrix(1,0,0,-1,0,1243)"/>
 <path d="M0,5 l0,-25" fill="none" stroke="rgb(204,204,204)" stroke-width="10" transform="matrix(1,0,0,-1,571,1243)"/>
 <path d="M0,5 l0,-25" fill="none" stroke="rgb(204,204,204)" stroke-width="10" transform="matrix(1,0,0,-1,1270,1243)"/>
 <path d="M143,-59 c0,-108,84,-180,190,-180 c58,0,92,19,110,37 l4,0 l0,-108 l130,0 l0,432 c58,58,88,132,88,206 c0,79,-34,133,-88,160 l0,74 l152,0 l0,109 l-759,0 l0,-109 l115,0 l0,-4 c-18,-17,-35,-44,-35,-86 c0,-60,36,-110,103,-121 l0,-4 c-41,-15,-85,-54,-85,-135 c0,-69,38,-133,111,-168 c-22,-26,-36,-59,-36,-103 Z M504,311 c-27,9,-44,25,-44,50 c0,21,15,35,33,35 c25,0,48,-18,48,-66 c0,-112,-98,-196,-214,-196 c-81,0,-115,37,-115,84 c0,38,20,69,78,74 c5,1,11,1,17,1 l0,114 l-33,0 c-52,0,-78,32,-78,74 c0,43,26,81,86,81 l163,0 l0,-62 c-71,-17,-115,-73,-115,-137 c0,-75,51,-116,90,-130 Z M354,-129 c-51,0,-78,32,-78,73 c0,50,35,83,102,83 c7,0,15,0,24,-1 c14,-1,31,-3,47,-6 l0,-50 c0,-57,-34,-99,-95,-99 Z M354,-129" fill="rgb(0,0,0)" transform="matrix(1,0,0,-1,571,1243)"/>
</svg>