<?xml version="1.0" encoding="UTF-8"?>
<svg height="1743" version="1.1" width="2679" xmlns="http://www.w3.org/2000/svg" xmlns:xlink="http://www.w3.org/1999/xlink">
 <path d="M0,0 l2679,0 l0,1743 l-2679,0 Z M0,0" fill="rgb(255,255,255)" transform="matrix(1,0,0,-1,0,1743)"/>
 <path d="M0,0 l2679,0" fill="none" stroke="rgb(229,229,229)" stroke-width="10" transform="matrix(1,0,0,-1,0,1243)"/>
 <path d="M0,5 l0,-25" fill="none" stroke="rgb(204,204,204)" stroke-width="10" transform="matrix(1,0,0,-1,571,1243)"/>
 <path d="M0,5 l0,-25" fill="none" stroke="rgb(204,204,204)" stroke-width="10" transform="matrix(1,0,0,-1,1835,1243)"/>
 <path d="M952,-24 l-144,94 l0,4 c74,-3,148,45,148,136 c0,81,-67,124,-135,139 l0,4 l226,0 l0,-353 l142,0 l0,562 l105,0 l0,109 l-1324,0 l0,-109 l1077,0 l0,-99 l-729,0 l-54,-99 l0,-10 c51,-20,78,-58,78,-96 c0,-40,-25,-60,-58,-60 c-92,0,-136,142,-143,271 l-126,-64 c14,-120,89,-327,280,-327 c109,0,181,67,181,165 c0,45,-17,84,-47,106 l0,4 l247,0 c95,-32,143,-82,143,-125 c0,-50,-33,-74,-83,-74 c-11,0,-22,2,-32,4 l-109,94 c-40,-21,-56,-50,-56,-86 c0,-60,50,-105,136,-110 l138,-147 Z M952,-24" fill="rgb(0,0,0)" transform="matrix(1,0,0,-1,571,1243)"/>
</svg>