<?xml version="1.0" encoding="UTF-8"?>
<svg height="1743" version="1.1" width="2679" xmlns="http://www.w3.org/2000/svg" xmlns:xlink="http://www.w3.org/1999/xlink">
 <path d="M0,0 l2679,0 l0,1743 l-2679,0 Z M0,0" fill="rgb(255,255,255)" transform="matrix(1,0,0,-1,0,1743)"/>
 <path d="M0,0 l2679,0" fill="none" stroke="rgb(229,229,229)" stroke-width="10" transform="matrix(1,0,0,-1,0,1243)"/>
 <path d="M0,5 l0,-25" fill="none" stroke="rgb(204,204,204)" stroke-width="10" transform="matrix(1,0,0,-1,571,1243)"/>
 <path d="M0,5 l0,-25" fill="none" stroke="rgb(204,204,204)" stroke-width="10" transform="matrix(1,0,0,-1,1747,1243)"/>
 <path d="M512,305 c-13,0,-29,1,-42,3 c-17,20,-38,34,-63,42 l-163,-39 c-27,8,-40,33,-40,48 c0,21,3,37,61,37 l190,0 l0,166 l229,0 c19,-24,29,-63,29,-83 c0,-63,-56,-90,-133,-105 c1,-21,3,-40,7,-59 c-25,-7,-50,-10,-75,-10 Z M380,191 c0,-54,-59,-76,-117,-76 l-14,0 l-157,96 c-33,-15,-54,-44,-54,-84 c0,-54,45,-118,169,-118 l178,-156 l145,77 l-169,100 l0,4 c87,17,147,77,147,159 c0,4,0,7,0,11 c14,-3,29,-4,44,-4 c23,0,51,2,78,9 c43,-63,111,-97,191,-97 c61,0,109,20,135,47 l4,0 l0,-159 l141,0 l0,562 l105,0 l0,109 l-1236,0 l0,-109 l347,0 l0,-56 l-120,0 c-89,0,-135,-41,-135,-108 c0,-81,57,-169,169,-206 l133,34 c7,-4,16,-18,16,-35 Z M731,326 c65,12,122,62,122,134 c0,31,-10,70,-43,98 l0,4 l150,0 l0,-217 c0,-68,-40,-115,-118,-115 c-65,0,-103,39,-111,96 Z M731,326" fill="rgb(0,0,0)" transform="matrix(1,0,0,-1,571,1243)"/>
</svg>