<?xml version="1.0" encoding="UTF-8"?>
<svg height="1743" version="1.1" width="2679" xmlns="http://www.w3.org/2000/svg" xmlns:xlink="http://www.w3.org/1999/xlink">
 <path d="M0,0 l2679,0 l0,1743 l-2679,0 Z M0,0" fill="rgb(255,255,255)" transform="matrix(1,0,0,-1,0,1743)"/>
 <path d="M0,0 l2679,0" fill="none" stroke="rgb(229,229,229)" stroke-width="10" transform="matrix(1,0,0,-1,0,1243)"/>
 <path d="M0,5 l0,-25" fill="none" stroke="rgb(204,204,204)" stroke-width="10" transform="matrix(1,0,0,-1,571,1243)"/>
 <path d="M0,5 l0,-25" fill="none" stroke="rgb(204,204,204)" stroke-width="10" transform="matrix(1,0,0,-1,1768,1243)"/>
 <path d="M186,354 c14,9,39,20,66,20 c45,0,82,-27,82,-82 c0,-56,-44,-91,-97,-91 c-68,0,-120,40,-159,108 l-85,-109 c43,-64,133,-127,248,-127 c87,0,160,38,199,103 c22,-6,57,-10,97,-10 c33,0,62,4,87,10 c27,-54,88,-95,183,-95 c100,0,149,43,170,68 l4,0 l0,-149 l141,0 l0,562 l105,0 l0,109 l-1257,0 l0,-109 l1011,0 l0,-190 c0,-110,-56,-172,-140,-172 c-62,0,-92,33,-92,77 c0,54,37,86,107,86 l60,0 l0,119 l-382,0 l0,-120 l119,0 l0,-4 c-16,-13,-33,-32,-42,-63 c-27,-5,-57,-9,-86,-9 c-15,0,-34,2,-54,4 l0,1 c0,140,-95,212,-220,212 c-39,0,-83,-11,-119,-29 Z M186,354" fill="rgb(0,0,0)" transform="matrix(1,0,0,-1,571,1243)"/>
</svg>