<?xml version="1.0" encoding="UTF-8"?>
<svg height="1743" version="1.1" width="2679" xmlns="http://www.w3.org/2000/svg" xmlns:xlink="http://www.w3.org/1999/xlink">
 <path d="M0,0 l2679,0 l0,1743 l-2679,0 Z M0,0" fill="rgb(255,255,255)" transform="matrix(1,0,0,-1,0,1743)"/>
 <path d="M0,0 l2679,0" fill="none" stroke="rgb(229,229,229)" stroke-width="10" transform="matrix(1,0,0,-1,0,1243)"/>
 <path d="M0,5 l0,-25" fill="none" stroke="rgb(204,204,204)" stroke-width="10" transform="matrix(1,0,0,-1,571,1243)"/>
 <path d="M0,5 l0,-25" fill="none" stroke="rgb(204,204,204)" stroke-width="10" transform="matrix(1,0,0,-1,1777,1243)"/>
 <path d="M186,354 c14,9,39,20,66,20 c45,0,82,-27,82,-82 c0,-56,-44,-91,-97,-91 c-68,0,-120,40,-159,108 l-85,-109 c43,-64,133,-127,248,-127 c111,0,199,63,223,162 c19,-4,45,-7,73,-7 c10,0,24,0,39,1 c-1,-5,-1,-11,-1,-17 c0,-103,93,-195,254,-195 c214,0,343,156,343,303 c0,79,-34,133,-88,160 l0,82 l152,0 l0,109 l-1266,0 l0,-109 l622,0 l0,-4 c-18,-17,-35,-44,-35,-86 c0,-57,32,-105,93,-119 c-39,-3,-98,-5,-118,-5 c-24,0,-46,1,-68,4 c-23,100,-108,151,-213,151 c-39,0,-83,-11,-119,-29 Z M1011,303 c-27,9,-44,25,-44,50 c0,21,15,35,35,35 c26,0,46,-19,46,-66 c0,-101,-91,-188,-206,-188 c-81,0,-123,37,-123,84 c0,38,20,69,78,74 c5,1,11,1,17,1 l0,114 l-33,0 c-52,0,-78,32,-78,74 c0,43,26,81,86,81 l163,0 l0,-70 c-70,-17,-115,-72,-115,-137 c0,-75,51,-116,90,-130 Z M1011,303" fill="rgb(0,0,0)" transform="matrix(1,0,0,-1,571,1243)"/>
</svg>