<?xml version="1.0" encoding="UTF-8"?>
<svg height="1743" version="1.1" width="2679" xmlns="http://www.w3.org/2000/svg" xmlns:xlink="http://www.w3.org/1999/xlink">
 <path d="M0,0 l2679,0 l0,1743 l-2679,0 Z M0,0" fill="rgb(255,255,255)" transform="matrix(1,0,0,-1,0,1743)"/>
 <path d="M0,0 l2679,0" fill="none" stroke="rgb(229,229,229)" stroke-width="10" transform="matrix(1,0,0,-1,0,1243)"/>
 <path d="M0,5 l0,-25" fill="none" stroke="rgb(204,204,204)" stroke-width="10" transform="matrix(1,0,0,-1,571,1243)"/>
 <path d="M0,5 l0,-25" fill="none" stroke="rgb(204,204,204)" stroke-width="10" transform="matrix(1,0,0,-1,1226,1243)"/>
 <path d="M324,164 c5,0,10,0,15,0 l0,-12 l-148,-36 c-103,-26,-153,-67,-153,-151 c0,-114,113,-199,286,-199 c188,0,282,92,282,201 c0,84,-49,135,-137,167 l0,53 c91,34,137,102,137,178 c0,84,-49,135,-137,167 l0,30 l216,0 l0,109 l-715,0 l0,-109 l366,0 l0,-12 l-145,-36 c-103,-26,-153,-67,-153,-151 c0,-114,113,-199,286,-199 Z M301,281 c-106,0,-128,41,-128,63 c0,25,11,43,83,61 l146,36 c39,-13,74,-32,74,-71 c0,-46,-52,-89,-175,-89 Z M301,-117 c-106,0,-128,41,-128,63 c0,25,11,43,83,61 l146,36 c39,-13,74,-32,74,-71 c0,-46,-52,-89,-175,-89 Z M301,-117" fill="rgb(0,0,0)" transform="matrix(1,0,0,-1,571,1243)"/>
</svg>