<?xml version="1.0" encoding="UTF-8"?>
<svg height="1743" version="1.1" width="2679" xmlns="http://www.w3.org/2000/svg" xmlns:xlink="http://www.w3.org/1999/xlink">
 <path d="M0,0 l2679,0 l0,1743 l-2679,0 Z M0,0" fill="rgb(255,255,255)" transform="matrix(1,0,0,-1,0,1743)"/>
 <path d="M0,0 l2679,0" fill="none" stroke="rgb(229,229,229)" stroke-width="10" transform="matrix(1,0,0,-1,0,1243)"/>
 <path d="M0,5 l0,-25" fill="none" stroke="rgb(204,204,204)" stroke-width="10" transform="matrix(1,0,0,-1,571,1243)"/>
 <path d="M0,5 l0,-25" fill="none" stroke="rgb(204,204,204)" stroke-width="10" transform="matrix(1,0,0,-1,1149,1243)"/>
 <path d="M172,154 c-78,-27,-120,-80,-120,-149 c0,-135,131,-228,290,-228 c130,0,200,66,200,153 c0,70,-58,132,-144,132 c-70,0,-113,-28,-135,-55 c-6,-7,-10,-14,-13,-20 l81,-63 c3,7,7,15,13,21 c9,10,22,17,38,17 c21,0,35,-13,35,-31 c0,-27,-23,-48,-70,-48 c-97,0,-153,61,-153,107 c0,68,73,85,152,104 c94,23,196,48,196,166 c0,67,-58,124,-144,124 c-70,0,-113,-28,-135,-55 c-6,-7,-10,-14,-13,-20 l81,-63 c2,5,5,10,8,15 c10,13,25,23,43,23 c21,0,35,-13,35,-31 c0,-27,-24,-48,-71,-48 c-103,0,-152,61,-152,107 c0,45,24,75,121,96 l170,36 l0,118 l123,0 l0,109 l-638,0 l0,-109 l370,0 l0,-31 l-103,-24 c-126,-30,-185,-89,-185,-180 c0,-70,35,-140,120,-169 Z M172,154" fill="rgb(0,0,0)" transform="matrix(1,0,0,-1,571,1243)"/>
</svg>