<?xml version="1.0" encoding="UTF-8"?>
<svg height="1743" version="1.1" width="2679" xmlns="http://www.w3.org/2000/svg" xmlns:xlink="http://www.w3.org/1999/xlink">
 <path d="M0,0 l2679,0 l0,1743 l-2679,0 Z M0,0" fill="rgb(255,255,255)" transform="matrix(1,0,0,-1,0,1743)"/>
 <path d="M0,0 l2679,0" fill="none" stroke="rgb(229,229,229)" stroke-width="10" transform="matrix(1,0,0,-1,0,1243)"/>
 <path d="M0,5 l0,-25" fill="none" stroke="rgb(204,204,204)" stroke-width="10" transform="matrix(1,0,0,-1,571,1243)"/>
 <path d="M0,5 l0,-25" fill="none" stroke="rgb(204,204,204)" stroke-width="10" transform="matrix(1,0,0,-1,920,1243)"/>
 <path d="M379,671 l-409,0 l0,-109 l409,0 Z M457,473 l-438,0 l0,-123 l94,0 l0,-4 c-20,-20,-38,-51,-38,-105 c0,-105,77,-201,155,-254 l101,87 c-71,50,-116,107,-116,182 c0,63,40,96,94,96 l148,0 Z M457,473" fill="rgb(0,0,0)" transform="matrix(1,0,0,-1,571,1243)"/>
</svg>