<?xml version="1.0" encoding="UTF-8"?>
<svg height="1743" version="1.1" width="2679" xmlns="http://www.w3.org/2000/svg" xmlns:xlink="http://www.w3.org/1999/xlink">
 <path d="M0,0 l2679,0 l0,1743 l-2679,0 Z M0,0" fill="rgb(255,255,255)" transform="matrix(1,0,0,-1,0,1743)"/>
 <path d="M0,0 l2679,0" fill="none" stroke="rgb(229,229,229)" stroke-width="10" transform="matrix(1,0,0,-1,0,1243)"/>
 <path d="M0,5 l0,-25" fill="none" stroke="rgb(204,204,204)" stroke-width="10" transform="matrix(1,0,0,-1,571,1243)"/>
 <path d="M0,5 l0,-25" fill="none" stroke="rgb(204,204,204)" stroke-width="10" transform="matrix(1,0,0,-1,1627,1243)"/>
 <path d="M358,671 l-388,0 l0,-109 l388,0 Z M542,299 c20,3,40,7,58,12 c108,27,183,88,183,200 c0,99,-65,170,-179,170 c-108,0,-176,-67,-176,-152 c0,-29,9,-61,25,-80 l121,25 c-11,17,-13,32,-13,47 c0,28,18,45,43,45 c29,0,43,-19,43,-53 c0,-47,-33,-87,-135,-114 l-40,-11 c-48,67,-122,85,-188,85 l-36,0 c-97,0,-206,-55,-206,-202 c0,-132,83,-233,158,-284 l101,88 c-71,50,-115,115,-115,191 c0,61,40,86,87,86 l6,0 c61,0,85,-20,104,-41 c25,-146,128,-233,272,-233 c107,0,163,48,185,74 l4,0 l0,-152 l137,0 l0,562 l105,0 l0,109 l-245,0 l0,-299 c0,-88,-50,-173,-168,-173 c-94,0,-125,66,-131,100 Z M542,299" fill="rgb(0,0,0)" transform="matrix(1,0,0,-1,571,1243)"/>
</svg>