<?xml version="1.0" encoding="UTF-8"?>
<svg height="1743" version="1.1" width="2679" xmlns="http://www.w3.org/2000/svg" xmlns:xlink="http://www.w3.org/1999/xlink">
 <path d="M0,0 l2679,0 l0,1743 l-2679,0 Z M0,0" fill="rgb(255,255,255)" transform="matrix(1,0,0,-1,0,1743)"/>
 <path d="M0,0 l2679,0" fill="none" stroke="rgb(229,229,229)" stroke-width="10" transform="matrix(1,0,0,-1,0,1243)"/>
 <path d="M0,5 l0,-25" fill="none" stroke="rgb(204,204,204)" stroke-width="10" transform="matrix(1,0,0,-1,571,1243)"/>
 <path d="M0,5 l0,-25" fill="none" stroke="rgb(204,204,204)" stroke-width="10" transform="matrix(1,0,0,-1,1509,1243)"/>
 <path d="M552,212 l-200,-151 l128,-85 l237,220 l4,0 l0,-196 l142,0 l0,562 l105,0 l0,109 l-998,0 l0,-109 l445,0 l0,-89 l-166,0 c-97,0,-206,-55,-206,-202 c0,-132,83,-233,158,-284 l101,88 c-71,50,-115,115,-115,191 c0,61,40,86,87,86 l141,0 c6,-95,66,-130,137,-136 Z M721,354 c-18,-24,-56,-42,-96,-42 c-47,0,-69,24,-69,76 l0,174 l165,0 Z M721,354" fill="rgb(0,0,0)" transform="matrix(1,0,0,-1,571,1243)"/>
</svg>