<?xml version="1.0" encoding="UTF-8"?>
<svg height="1743" version="1.1" width="2679" xmlns="http://www.w3.org/2000/svg" xmlns:xlink="http://www.w3.org/1999/xlink">
 <path d="M0,0 l2679,0 l0,1743 l-2679,0 Z M0,0" fill="rgb(255,255,255)" transform="matrix(1,0,0,-1,0,1743)"/>
 <path d="M0,0 l2679,0" fill="none" stroke="rgb(229,229,229)" stroke-width="10" transform="matrix(1,0,0,-1,0,1243)"/>
 <path d="M0,5 l0,-25" fill="none" stroke="rgb(204,204,204)" stroke-width="10" transform="matrix(1,0,0,-1,571,1243)"/>
 <path d="M0,5 l0,-25" fill="none" stroke="rgb(204,204,204)" stroke-width="10" transform="matrix(1,0,0,-1,1646,1243)"/>
 <path d="M854,458 c-18,18,-49,23,-73,23 c-39,0,-85,-25,-97,-79 l-4,0 c-20,48,-66,74,-127,74 c-36,0,-72,-9,-103,-29 c-38,19,-83,26,-126,26 l-76,0 c-97,0,-206,-55,-206,-202 c0,-132,83,-233,158,-284 l101,88 c-71,50,-115,115,-115,191 c0,61,40,86,87,86 l46,0 c24,0,42,-3,56,-8 c-5,-20,-8,-42,-8,-67 c0,-122,73,-234,195,-297 l89,94 c-110,58,-143,135,-143,197 c0,69,33,88,60,88 c33,0,55,-25,55,-72 l0,-101 l128,0 l0,94 c0,54,18,80,59,80 c17,0,39,-8,48,-14 l0,-346 l142,0 l0,562 l105,0 l0,109 l-1135,0 l0,-109 l888,0 l0,-104 Z M854,458" fill="rgb(0,0,0)" transform="matrix(1,0,0,-1,571,1243)"/>
</svg>