<?xml version="1.0" encoding="UTF-8"?>
<svg height="1743" version="1.1" width="2679" xmlns="http://www.w3.org/2000/svg" xmlns:xlink="http://www.w3.org/1999/xlink">
 <path d="M0,0 l2679,0 l0,1743 l-2679,0 Z M0,0" fill="rgb(255,255,255)" transform="matrix(1,0,0,-1,0,1743)"/>
 <path d="M0,0 l2679,0" fill="none" stroke="rgb(229,229,229)" stroke-width="10" transform="matrix(1,0,0,-1,0,1243)"/>
 <path d="M0,5 l0,-25" fill="none" stroke="rgb(204,204,204)" stroke-width="10" transform="matrix(1,0,0,-1,571,1243)"/>
 <path d="M0,5 l0,-25" fill="none" stroke="rgb(204,204,204)" stroke-width="10" transform="matrix(1,0,0,-1,1275,1243)"/>
 <path d="M167,71 c-36,0,-52,23,-52,51 c0,33,27,61,77,77 c9,-24,22,-45,36,-62 c-17,-18,-36,-40,-50,-65 c-4,0,-7,-1,-11,-1 Z M507,53 l4,0 l81,-154 l158,39 l-147,174 c26,26,42,52,42,92 c0,61,-39,90,-79,110 l-89,-33 l0,-99 c-16,-15,-39,-21,-62,-21 c-51,0,-106,33,-106,92 c0,58,35,90,141,117 l135,34 l0,158 l149,0 l0,109 l-764,0 l0,-109 l471,0 l0,-61 l-86,-21 c-120,-29,-171,-88,-177,-183 c-106,-23,-178,-89,-178,-180 c0,-66,46,-123,141,-123 l10,0 l0,-7 c0,-70,61,-134,153,-134 c114,0,181,94,203,200 Z M304,-61 c-28,0,-41,19,-41,38 c0,21,4,53,54,95 c24,-10,49,-16,75,-20 c-11,-67,-48,-113,-88,-113 Z M304,-61" fill="rgb(0,0,0)" transform="matrix(1,0,0,-1,571,1243)"/>
</svg>