<?xml version="1.0" encoding="UTF-8"?>
<svg height="1743" version="1.1" width="2679" xmlns="http://www.w3.org/2000/svg" xmlns:xlink="http://www.w3.org/1999/xlink">
 <path d="M0,0 l2679,0 l0,1743 l-2679,0 Z M0,0" fill="rgb(255,255,255)" transform="matrix(1,0,0,-1,0,1743)"/>
 <path d="M0,0 l2679,0" fill="none" stroke="rgb(229,229,229)" stroke-width="10" transform="matrix(1,0,0,-1,0,1243)"/>
 <path d="M0,5 l0,-25" fill="none" stroke="rgb(204,204,204)" stroke-width="10" transform="matrix(1,0,0,-1,571,1243)"/>
 <path d="M0,5 l0,-25" fill="none" stroke="rgb(204,204,204)" stroke-width="10" transform="matrix(1,0,0,-1,1598,1243)"/>
 <path d="M811,159 l0,-159 l141,0 l0,562 l105,0 l0,109 l-687,0 l0,-109 l165,0 c19,-24,29,-63,29,-83 c0,-63,-56,-90,-133,-105 c1,-32,6,-61,14,-88 c-34,-40,-85,-75,-161,-75 c-69,0,-89,32,-89,62 c0,38,27,62,86,62 l63,0 l0,108 l-75,0 c-51,0,-78,23,-78,57 c0,37,35,61,54,69 l-19,102 l-256,0 l0,-109 l110,0 l0,-4 c-19,-13,-34,-36,-34,-68 c0,-60,45,-94,105,-99 l0,-4 c-45,-10,-100,-46,-100,-126 c0,-93,79,-160,204,-160 c127,0,204,43,247,82 c43,-46,102,-71,170,-71 c61,0,109,20,135,47 Z M582,326 c65,12,122,62,122,134 c0,31,-10,70,-43,98 l0,4 l150,0 l0,-217 c0,-68,-40,-115,-118,-115 c-65,0,-103,39,-111,96 Z M582,326" fill="rgb(0,0,0)" transform="matrix(1,0,0,-1,571,1243)"/>
</svg>