<?xml version="1.0" encoding="UTF-8"?>
<svg height="1743" version="1.1" width="2679" xmlns="http://www.w3.org/2000/svg" xmlns:xlink="http://www.w3.org/1999/xlink">
 <path d="M0,0 l2679,0 l0,1743 l-2679,0 Z M0,0" fill="rgb(255,255,255)" transform="matrix(1,0,0,-1,0,1743)"/>
 <path d="M0,0 l2679,0" fill="none" stroke="rgb(229,229,229)" stroke-width="10" transform="matrix(1,0,0,-1,0,1243)"/>
 <path d="M0,5 l0,-25" fill="none" stroke="rgb(204,204,204)" stroke-width="10" transform="matrix(1,0,0,-1,571,1243)"/>
 <path d="M0,5 l0,-25" fill="none" stroke="rgb(204,204,204)" stroke-width="10" transform="matrix(1,0,0,-1,1407,1243)"/>
 <path d="M605,25 c77,0,156,21,227,89 l-68,113 c-58,-61,-112,-81,-176,-81 c-86,0,-119,52,-119,97 c0,50,15,87,121,114 l145,37 l0,168 l131,0 l0,109 l-896,0 l0,-109 l621,0 l0,-71 l-76,-21 c-40,-11,-72,-24,-98,-41 l-310,0 l-97,-69 c0,-108,52,-167,112,-194 l66,32 l0,110 l149,0 c-2,-12,-3,-25,-3,-38 c0,-131,109,-245,271,-245 Z M605,25" fill="rgb(0,0,0)" transform="matrix(1,0,0,-1,571,1243)"/>
</svg>