<?xml version="1.0" encoding="UTF-8"?>
<svg height="1743" version="1.1" width="2679" xmlns="http://www.w3.org/2000/svg" xmlns:xlink="http://www.w3.org/1999/xlink">
 <path d="M0,0 l2679,0 l0,1743 l-2679,0 Z M0,0" fill="rgb(255,255,255)" transform="matrix(1,0,0,-1,0,1743)"/>
 <path d="M0,0 l2679,0" fill="none" stroke="rgb(229,229,229)" stroke-width="10" transform="matrix(1,0,0,-1,0,1243)"/>
 <path d="M0,5 l0,-25" fill="none" stroke="rgb(204,204,204)" stroke-width="10" transform="matrix(1,0,0,-1,571,1243)"/>
 <path d="M0,5 l0,-25" fill="none" stroke="rgb(204,204,204)" stroke-width="10" transform="matrix(1,0,0,-1,1458,1243)"/>
 <path d="M599,75 c-71,50,-115,115,-115,191 c0,61,40,86,87,86 l100,0 l0,-352 l141,0 l0,562 l106,0 l0,109 l-948,0 l0,-109 l701,0 l0,-89 l-125,0 c-48,0,-98,-13,-137,-44 l-302,0 l-97,-69 c0,-108,52,-167,112,-194 l66,32 l0,110 l155,0 c-2,-12,-3,-24,-3,-37 c0,-132,83,-233,158,-284 Z M599,75" fill="rgb(0,0,0)" transform="matrix(1,0,0,-1,571,1243)"/>
</svg>