<?xml version="1.0" encoding="UTF-8"?>
<svg height="1743" version="1.1" width="2679" xmlns="http://www.w3.org/2000/svg" xmlns:xlink="http://www.w3.org/1999/xlink">
 <path d="M0,0 l2679,0 l0,1743 l-2679,0 Z M0,0" fill="rgb(255,255,255)" transform="matrix(1,0,0,-1,0,1743)"/>
 <path d="M0,0 l2679,0" fill="none" stroke="rgb(229,229,229)" stroke-width="10" transform="matrix(1,0,0,-1,0,1243)"/>
 <path d="M0,5 l0,-25" fill="none" stroke="rgb(204,204,204)" stroke-width="10" transform="matrix(1,0,0,-1,571,1243)"/>
 <path d="M0,5 l0,-25" fill="none" stroke="rgb(204,204,204)" stroke-width="10" transform="matrix(1,0,0,-1,1520,1243)"/>
 <path d="M874,0 l0,562 l105,0 l0,109 l-312,0 l0,-109 l67,0 l0,-206 c0,-75,-63,-145,-153,-145 c-69,0,-89,32,-89,62 c0,38,27,62,86,62 l63,0 l0,108 l-75,0 c-51,0,-78,23,-78,57 c0,37,35,61,54,69 l-19,102 l-553,0 l0,-109 l407,0 l0,-4 c-19,-13,-34,-36,-34,-68 c0,-25,8,-45,21,-61 l-257,0 l-97,-69 c0,-108,52,-167,112,-194 l66,32 l0,110 l167,0 c-4,-14,-7,-29,-7,-47 c0,-93,79,-160,204,-160 c87,0,148,32,178,60 l4,0 l0,-161 Z M874,0" fill="rgb(0,0,0)" transform="matrix(1,0,0,-1,571,1243)"/>
</svg>