<?xml version="1.0" encoding="UTF-8"?>
<svg height="1743" version="1.1" width="2679" xmlns="http://www.w3.org/2000/svg" xmlns:xlink="http://www.w3.org/1999/xlink">
 <path d="M0,0 l2679,0 l0,1743 l-2679,0 Z M0,0" fill="rgb(255,255,255)" transform="matrix(1,0,0,-1,0,1743)"/>
 <path d="M0,0 l2679,0" fill="none" stroke="rgb(229,229,229)" stroke-width="10" transform="matrix(1,0,0,-1,0,1243)"/>
 <path d="M0,5 l0,-25" fill="none" stroke="rgb(204,204,204)" stroke-width="10" transform="matrix(1,0,0,-1,571,1243)"/>
 <path d="M0,5 l0,-25" fill="none" stroke="rgb(204,204,204)" stroke-width="10" transform="matrix(1,0,0,-1,1846,1243)"/>
 <path d="M1059,159 l0,-159 l141,0 l0,562 l105,0 l0,109 l-664,0 l0,-109 l142,0 c19,-24,29,-63,29,-83 c0,-63,-56,-90,-133,-105 l0,-2 l-129,0 l0,136 c0,114,-70,163,-169,163 l-411,0 l0,-109 l379,0 c48,0,63,-19,63,-62 l0,-71 l-305,0 l-97,-69 c0,-108,52,-167,112,-194 l66,32 l0,110 l169,0 c4,-49,30,-121,82,-159 l106,0 l0,100 l161,0 c40,-88,119,-137,214,-137 c61,0,109,20,135,47 Z M830,326 c65,12,122,62,122,134 c0,31,-10,70,-43,98 l0,4 l150,0 l0,-217 c0,-68,-40,-115,-118,-115 c-65,0,-103,39,-111,96 Z M830,326" fill="rgb(0,0,0)" transform="matrix(1,0,0,-1,571,1243)"/>
</svg>