<?xml version="1.0" encoding="UTF-8"?>
<svg height="1743" version="1.1" width="2679" xmlns="http://www.w3.org/2000/svg" xmlns:xlink="http://www.w3.org/1999/xlink">
 <path d="M0,0 l2679,0 l0,1743 l-2679,0 Z M0,0" fill="rgb(255,255,255)" transform="matrix(1,0,0,-1,0,1743)"/>
 <path d="M0,0 l2679,0" fill="none" stroke="rgb(229,229,229)" stroke-width="10" transform="matrix(1,0,0,-1,0,1243)"/>
 <path d="M0,5 l0,-25" fill="none" stroke="rgb(204,204,204)" stroke-width="10" transform="matrix(1,0,0,-1,571,1243)"/>
 <path d="M0,5 l0,-25" fill="none" stroke="rgb(204,204,204)" stroke-width="10" transform="matrix(1,0,0,-1,2288,1243)"/>
 <path d="M394,429 l-287,0 l-97,-69 c0,-108,52,-167,112,-194 l66,32 l0,110 l128,0 l265,-327 l115,72 l-92,110 c-40,48,-60,69,-81,90 l0,4 c10,1,20,3,30,5 c17,4,33,10,47,19 c34,-25,76,-39,133,-39 c34,0,66,5,97,17 c14,-32,34,-63,63,-84 l106,0 l0,100 l139,0 c35,-104,120,-163,224,-163 c61,0,109,20,135,47 l4,0 l0,-159 l141,0 l0,562 l105,0 l0,109 l-1777,0 l0,-109 l550,0 l0,-154 c0,-36,-18,-49,-41,-49 c-29,0,-48,18,-76,56 Z M714,365 c-23,0,-41,2,-57,5 c2,11,3,23,3,35 l0,157 l206,0 l0,-165 c-51,-26,-112,-32,-152,-32 Z M1225,562 c19,-24,29,-63,29,-83 c0,-39,-21,-64,-56,-81 l-194,0 l0,164 Z M1272,326 c65,12,122,62,122,134 c0,31,-10,70,-43,98 l0,4 l150,0 l0,-217 c0,-68,-40,-115,-118,-115 c-65,0,-103,39,-111,96 Z M1272,326" fill="rgb(0,0,0)" transform="matrix(1,0,0,-1,571,1243)"/>
</svg>