<?xml version="1.0" encoding="UTF-8"?>
<svg height="1743" version="1.1" width="2679" xmlns="http://www.w3.org/2000/svg" xmlns:xlink="http://www.w3.org/1999/xlink">
 <path d="M0,0 l2679,0 l0,1743 l-2679,0 Z M0,0" fill="rgb(255,255,255)" transform="matrix(1,0,0,-1,0,1743)"/>
 <path d="M0,0 l2679,0" fill="none" stroke="rgb(229,229,229)" stroke-width="10" transform="matrix(1,0,0,-1,0,1243)"/>
 <path d="M0,5 l0,-25" fill="none" stroke="rgb(204,204,204)" stroke-width="10" transform="matrix(1,0,0,-1,571,1243)"/>
 <path d="M0,5 l0,-25" fill="none" stroke="rgb(204,204,204)" stroke-width="10" transform="matrix(1,0,0,-1,1393,1243)"/>
 <path d="M728,33 c26,31,52,73,52,129 c0,80,-60,155,-173,155 c-34,0,-65,-4,-93,-12 c-29,14,-43,35,-43,54 c0,20,11,34,48,34 l223,0 l0,169 l110,0 l0,109 l-882,0 l0,-109 l636,0 l0,-60 l-121,0 c-72,0,-122,-28,-142,-73 l-236,0 l-97,-69 c0,-108,52,-167,112,-194 l66,32 l0,110 l171,0 c13,-19,31,-36,56,-50 c-43,-34,-68,-80,-68,-130 c0,-152,157,-224,339,-242 l61,113 c-215,17,-264,67,-264,124 c0,50,48,86,124,86 c30,0,50,-13,50,-35 c0,-28,-20,-51,-43,-74 Z M728,33" fill="rgb(0,0,0)" transform="matrix(1,0,0,-1,571,1243)"/>
</svg>