<?xml version="1.0" encoding="UTF-8"?>
<svg height="1743" version="1.1" width="2679" xmlns="http://www.w3.org/2000/svg" xmlns:xlink="http://www.w3.org/1999/xlink">
 <path d="M0,0 l2679,0 l0,1743 l-2679,0 Z M0,0" fill="rgb(255,255,255)" transform="matrix(1,0,0,-1,0,1743)"/>
 <path d="M0,0 l2679,0" fill="none" stroke="rgb(229,229,229)" stroke-width="10" transform="matrix(1,0,0,-1,0,1243)"/>
 <path d="M0,5 l0,-25" fill="none" stroke="rgb(204,204,204)" stroke-width="10" transform="matrix(1,0,0,-1,571,1243)"/>
 <path d="M0,5 l0,-25" fill="none" stroke="rgb(204,204,204)" stroke-width="10" transform="matrix(1,0,0,-1,1469,1243)"/>
 <path d="M278,289 c-45,0,-67,24,-67,76 l0,197 l470,0 l0,-89 l-125,0 c-86,0,-182,-43,-202,-156 c-22,-17,-48,-28,-76,-28 Z M609,75 c-71,50,-115,115,-115,191 c0,61,40,86,87,86 l100,0 l0,-352 l141,0 l0,562 l106,0 l0,109 l-958,0 l0,-109 l100,0 l0,-207 c0,-101,55,-185,188,-185 c40,0,75,6,104,17 c25,-91,88,-161,146,-200 Z M609,75" fill="rgb(0,0,0)" transform="matrix(1,0,0,-1,571,1243)"/>
</svg>