<?xml version="1.0" encoding="UTF-8"?>
<svg height="1743" version="1.1" width="2679" xmlns="http://www.w3.org/2000/svg" xmlns:xlink="http://www.w3.org/1999/xlink">
 <path d="M0,0 l2679,0 l0,1743 l-2679,0 Z M0,0" fill="rgb(255,255,255)" transform="matrix(1,0,0,-1,0,1743)"/>
 <path d="M0,0 l2679,0" fill="none" stroke="rgb(229,229,229)" stroke-width="10" transform="matrix(1,0,0,-1,0,1243)"/>
 <path d="M0,5 l0,-25" fill="none" stroke="rgb(204,204,204)" stroke-width="10" transform="matrix(1,0,0,-1,571,1243)"/>
 <path d="M0,5 l0,-25" fill="none" stroke="rgb(204,204,204)" stroke-width="10" transform="matrix(1,0,0,-1,1849,1243)"/>
 <path d="M278,289 c-45,0,-67,24,-67,76 l0,197 l575,0 c19,-24,29,-63,29,-83 c0,-32,-15,-55,-39,-72 c-43,51,-113,66,-177,66 l-36,0 c-84,0,-178,-41,-201,-149 c-24,-21,-52,-35,-84,-35 Z M258,170 c43,0,80,7,110,19 c25,-92,88,-162,147,-202 l101,88 c-71,50,-115,115,-115,191 c0,61,40,86,87,86 l6,0 c50,0,75,-14,93,-30 c24,-133,117,-210,236,-210 c61,0,109,20,135,47 l4,0 l0,-159 l141,0 l0,562 l105,0 l0,109 l-1338,0 l0,-109 l100,0 l0,-207 c0,-101,55,-185,188,-185 Z M833,326 c65,12,122,62,122,134 c0,31,-10,70,-43,98 l0,4 l150,0 l0,-217 c0,-68,-40,-115,-118,-115 c-65,0,-103,39,-111,96 Z M833,326" fill="rgb(0,0,0)" transform="matrix(1,0,0,-1,571,1243)"/>
</svg>