<?xml version="1.0" encoding="UTF-8"?>
<svg height="1743" version="1.1" width="2679" xmlns="http://www.w3.org/2000/svg" xmlns:xlink="http://www.w3.org/1999/xlink">
 <path d="M0,0 l2679,0 l0,1743 l-2679,0 Z M0,0" fill="rgb(255,255,255)" transform="matrix(1,0,0,-1,0,1743)"/>
 <path d="M0,0 l2679,0" fill="none" stroke="rgb(229,229,229)" stroke-width="10" transform="matrix(1,0,0,-1,0,1243)"/>
 <path d="M0,5 l0,-25" fill="none" stroke="rgb(204,204,204)" stroke-width="10" transform="matrix(1,0,0,-1,571,1243)"/>
 <path d="M0,5 l0,-25" fill="none" stroke="rgb(204,204,204)" stroke-width="10" transform="matrix(1,0,0,-1,1615,1243)"/>
 <path d="M258,170 c36,0,66,5,93,13 c27,-84,90,-157,180,-203 l89,94 c-110,58,-143,135,-143,197 c0,69,33,88,60,88 c33,0,55,-25,55,-72 l0,-101 l128,0 l0,94 c0,54,18,80,59,80 c17,0,39,-8,48,-14 l0,-346 l142,0 l0,562 l105,0 l0,109 l-1104,0 l0,-109 l100,0 l0,-207 c0,-101,55,-185,188,-185 Z M823,458 c-18,18,-49,23,-73,23 c-39,0,-85,-25,-97,-79 l-4,0 c-20,48,-66,74,-127,74 c-84,0,-172,-52,-185,-170 c-18,-11,-38,-17,-59,-17 c-45,0,-67,24,-67,76 l0,197 l616,0 l0,-104 Z M823,458" fill="rgb(0,0,0)" transform="matrix(1,0,0,-1,571,1243)"/>
</svg>