<?xml version="1.0" encoding="UTF-8"?>
<svg height="1743" version="1.1" width="2679" xmlns="http://www.w3.org/2000/svg" xmlns:xlink="http://www.w3.org/1999/xlink">
 <path d="M0,0 l2679,0 l0,1743 l-2679,0 Z M0,0" fill="rgb(255,255,255)" transform="matrix(1,0,0,-1,0,1743)"/>
 <path d="M0,0 l2679,0" fill="none" stroke="rgb(229,229,229)" stroke-width="10" transform="matrix(1,0,0,-1,0,1243)"/>
 <path d="M0,5 l0,-25" fill="none" stroke="rgb(204,204,204)" stroke-width="10" transform="matrix(1,0,0,-1,571,1243)"/>
 <path d="M0,5 l0,-25" fill="none" stroke="rgb(204,204,204)" stroke-width="10" transform="matrix(1,0,0,-1,1452,1243)"/>
 <path d="M258,170 c40,0,74,6,103,16 c35,-59,100,-95,177,-95 c63,0,103,23,123,42 l4,0 l0,-133 l141,0 l0,562 l105,0 l0,109 l-941,0 l0,-109 l100,0 l0,-207 c0,-101,55,-185,188,-185 Z M563,210 c-49,0,-83,29,-83,79 c0,71,67,94,120,76 l-10,122 c-131,21,-246,-48,-255,-182 c-17,-10,-36,-16,-57,-16 c-45,0,-67,24,-67,76 l0,197 l454,0 l0,-235 c0,-63,-34,-117,-102,-117 Z M563,210" fill="rgb(0,0,0)" transform="matrix(1,0,0,-1,571,1243)"/>
</svg>