<?xml version="1.0" encoding="UTF-8"?>
<svg height="1743" version="1.1" width="2679" xmlns="http://www.w3.org/2000/svg" xmlns:xlink="http://www.w3.org/1999/xlink">
 <path d="M0,0 l2679,0 l0,1743 l-2679,0 Z M0,0" fill="rgb(255,255,255)" transform="matrix(1,0,0,-1,0,1743)"/>
 <path d="M0,0 l2679,0" fill="none" stroke="rgb(229,229,229)" stroke-width="10" transform="matrix(1,0,0,-1,0,1243)"/>
 <path d="M0,5 l0,-25" fill="none" stroke="rgb(204,204,204)" stroke-width="10" transform="matrix(1,0,0,-1,571,1243)"/>
 <path d="M0,5 l0,-25" fill="none" stroke="rgb(204,204,204)" stroke-width="10" transform="matrix(1,0,0,-1,1985,1243)"/>
 <path d="M495,448 l-4,0 l0,114 l163,0 l0,-80 c-15,3,-30,5,-46,5 c-46,0,-90,-17,-113,-39 Z M581,372 c35,0,59,-12,73,-24 c0,-102,51,-177,174,-177 c54,0,89,18,106,34 l4,0 l0,-205 l137,0 l0,268 c0,54,32,106,97,106 c44,0,75,-30,75,-74 c0,-57,-46,-94,-113,-79 l22,-121 c122,-11,230,62,230,202 c0,115,-82,189,-186,189 c-65,0,-102,-26,-121,-45 l-4,0 l0,116 l369,0 l0,109 l-1474,0 l0,-109 l100,0 l0,-212 c0,-104,51,-179,174,-179 c54,0,89,18,106,34 l4,0 l0,-205 l137,0 l0,281 c0,52,36,91,90,91 Z M354,370 c0,-39,-21,-78,-83,-78 c-45,0,-60,25,-60,77 l0,193 l143,0 Z M938,370 c0,-39,-21,-78,-83,-78 c-45,0,-60,25,-60,77 l0,193 l143,0 Z M656,46 c0,-38,32,-70,71,-70 c43,0,74,32,74,70 c0,44,-31,75,-74,75 c-39,0,-71,-31,-71,-75 Z M77,46 c0,-38,32,-70,71,-70 c43,0,74,32,74,70 c0,44,-31,75,-74,75 c-39,0,-71,-31,-71,-75 Z M77,46" fill="rgb(0,0,0)" transform="matrix(1,0,0,-1,571,1243)"/>
</svg>