<?xml version="1.0" encoding="UTF-8"?>
<svg height="1743" version="1.1" width="2679" xmlns="http://www.w3.org/2000/svg" xmlns:xlink="http://www.w3.org/1999/xlink">
 <path d="M0,0 l2679,0 l0,1743 l-2679,0 Z M0,0" fill="rgb(255,255,255)" transform="matrix(1,0,0,-1,0,1743)"/>
 <path d="M0,0 l2679,0" fill="none" stroke="rgb(229,229,229)" stroke-width="10" transform="matrix(1,0,0,-1,0,1243)"/>
 <path d="M0,5 l0,-25" fill="none" stroke="rgb(204,204,204)" stroke-width="10" transform="matrix(1,0,0,-1,571,1243)"/>
 <path d="M0,5 l0,-25" fill="none" stroke="rgb(204,204,204)" stroke-width="10" transform="matrix(1,0,0,-1,1477,1243)"/>
 <path d="M257,95 c74,0,146,29,196,82 c7,-4,14,-8,21,-11 l66,32 l0,110 l150,0 l0,-308 l141,0 l0,562 l105,0 l0,109 l-966,0 l0,-109 l720,0 l0,-133 l-231,0 l-97,-69 c0,-36,6,-66,15,-91 c0,-1,-1,-2,-2,-3 l-162,121 c12,7,27,10,42,10 c21,0,43,-2,67,-10 l-7,118 c-27,7,-45,9,-77,9 c-102,0,-208,-78,-208,-213 c0,-137,107,-206,227,-206 Z M262,207 c-53,0,-100,39,-100,97 c0,14,3,26,7,37 l158,-117 c-18,-10,-40,-17,-65,-17 Z M262,207" fill="rgb(0,0,0)" transform="matrix(1,0,0,-1,571,1243)"/>
</svg>