<?xml version="1.0" encoding="UTF-8"?>
<svg height="1743" version="1.1" width="2679" xmlns="http://www.w3.org/2000/svg" xmlns:xlink="http://www.w3.org/1999/xlink">
 <path d="M0,0 l2679,0 l0,1743 l-2679,0 Z M0,0" fill="rgb(255,255,255)" transform="matrix(1,0,0,-1,0,1743)"/>
 <path d="M0,0 l2679,0" fill="none" stroke="rgb(229,229,229)" stroke-width="10" transform="matrix(1,0,0,-1,0,1243)"/>
 <path d="M0,5 l0,-25" fill="none" stroke="rgb(204,204,204)" stroke-width="10" transform="matrix(1,0,0,-1,571,1243)"/>
 <path d="M0,5 l0,-25" fill="none" stroke="rgb(204,204,204)" stroke-width="10" transform="matrix(1,0,0,-1,1514,1243)"/>
 <path d="M262,207 c-53,0,-100,39,-100,97 c0,14,3,26,7,37 l158,-117 c-18,-10,-40,-17,-65,-17 Z M868,562 l105,0 l0,109 l-1003,0 l0,-109 l757,0 l0,-234 c0,-19,-4,-38,-13,-54 l-150,113 c13,7,28,10,43,10 c21,0,43,-2,67,-10 l-7,118 c-27,7,-45,9,-77,9 c-102,0,-208,-78,-208,-213 c0,-8,0,-17,1,-25 c-2,-3,-5,-7,-8,-10 l-162,121 c12,7,27,10,42,10 c21,0,43,-2,67,-10 l-7,118 c-27,7,-45,9,-77,9 c-102,0,-208,-78,-208,-213 c0,-137,107,-206,227,-206 c65,0,129,22,178,64 c37,-40,91,-64,156,-64 c57,0,106,21,131,46 l4,0 l0,-141 l142,0 Z M612,207 c-53,0,-98,39,-98,97 c0,14,3,26,7,37 l153,-115 c-18,-12,-39,-19,-62,-19 Z M612,207" fill="rgb(0,0,0)" transform="matrix(1,0,0,-1,571,1243)"/>
</svg>