<?xml version="1.0" encoding="UTF-8"?>
<svg height="1743" version="1.1" width="2679" xmlns="http://www.w3.org/2000/svg" xmlns:xlink="http://www.w3.org/1999/xlink">
 <path d="M0,0 l2679,0 l0,1743 l-2679,0 Z M0,0" fill="rgb(255,255,255)" transform="matrix(1,0,0,-1,0,1743)"/>
 <path d="M0,0 l2679,0" fill="none" stroke="rgb(229,229,229)" stroke-width="10" transform="matrix(1,0,0,-1,0,1243)"/>
 <path d="M0,5 l0,-25" fill="none" stroke="rgb(204,204,204)" stroke-width="10" transform="matrix(1,0,0,-1,571,1243)"/>
 <path d="M0,5 l0,-25" fill="none" stroke="rgb(204,204,204)" stroke-width="10" transform="matrix(1,0,0,-1,1541,1243)"/>
 <path d="M753,157 l4,0 l0,-157 l138,0 l0,562 l105,0 l0,109 l-315,0 l0,-109 l72,0 l0,-138 l-163,0 l0,84 c0,114,-70,163,-169,163 l-455,0 l0,-109 l423,0 c48,0,63,-19,63,-62 l0,-83 l-56,-44 c0,-15,3,-34,8,-54 c-6,-18,-16,-38,-30,-56 l-166,124 c13,7,28,10,43,10 c21,0,43,-2,67,-10 l-7,118 c-27,7,-45,9,-77,9 c-102,0,-207,-76,-207,-211 c0,-129,103,-208,226,-208 c86,0,170,39,218,112 c3,-2,5,-4,8,-6 l106,0 l0,102 l189,0 l0,-4 l-378,-233 l112,-95 Z M263,208 c-57,0,-100,40,-100,98 c0,13,2,25,6,35 l159,-119 c-18,-9,-40,-14,-65,-14 Z M263,208" fill="rgb(0,0,0)" transform="matrix(1,0,0,-1,571,1243)"/>
</svg>