<?xml version="1.0" encoding="UTF-8"?>
<svg height="1743" version="1.1" width="2679" xmlns="http://www.w3.org/2000/svg" xmlns:xlink="http://www.w3.org/1999/xlink">
 <path d="M0,0 l2679,0 l0,1743 l-2679,0 Z M0,0" fill="rgb(255,255,255)" transform="matrix(1,0,0,-1,0,1743)"/>
 <path d="M0,0 l2679,0" fill="none" stroke="rgb(229,229,229)" stroke-width="10" transform="matrix(1,0,0,-1,0,1243)"/>
 <path d="M0,5 l0,-25" fill="none" stroke="rgb(204,204,204)" stroke-width="10" transform="matrix(1,0,0,-1,571,1243)"/>
 <path d="M0,5 l0,-25" fill="none" stroke="rgb(204,204,204)" stroke-width="10" transform="matrix(1,0,0,-1,1538,1243)"/>
 <path d="M744,268 l-156,119 c12,7,27,10,41,10 c21,0,45,-2,69,-10 l-7,118 c-27,7,-45,9,-77,9 c-86,0,-172,-52,-200,-142 l-161,0 l0,190 l498,0 l0,-289 Z M516,134 l-121,-69 l112,-95 l239,171 l4,0 l0,-141 l142,0 l0,562 l82,0 l0,109 l-1004,0 l0,-109 l145,0 l0,-197 l-56,-44 c0,-48,26,-130,83,-172 l106,0 l0,100 l165,0 c21,-70,75,-100,103,-111 Z M638,207 c-55,0,-100,36,-100,96 c0,14,2,26,7,38 l153,-116 c-17,-11,-37,-18,-60,-18 Z M638,207" fill="rgb(0,0,0)" transform="matrix(1,0,0,-1,571,1243)"/>
</svg>