<?xml version="1.0" encoding="UTF-8"?>
<svg height="1743" version="1.1" width="2679" xmlns="http://www.w3.org/2000/svg" xmlns:xlink="http://www.w3.org/1999/xlink">
 <path d="M0,0 l2679,0 l0,1743 l-2679,0 Z M0,0" fill="rgb(255,255,255)" transform="matrix(1,0,0,-1,0,1743)"/>
 <path d="M0,0 l2679,0" fill="none" stroke="rgb(229,229,229)" stroke-width="10" transform="matrix(1,0,0,-1,0,1243)"/>
 <path d="M0,5 l0,-25" fill="none" stroke="rgb(204,204,204)" stroke-width="10" transform="matrix(1,0,0,-1,571,1243)"/>
 <path d="M0,5 l0,-25" fill="none" stroke="rgb(204,204,204)" stroke-width="10" transform="matrix(1,0,0,-1,1841,1243)"/>
 <path d="M215,476 c-91,0,-186,-60,-186,-199 c0,-122,73,-234,195,-297 l89,94 c-110,58,-143,135,-143,197 c0,69,33,86,60,86 c33,0,55,-22,55,-69 l0,-102 l128,0 l0,101 c0,49,22,73,59,73 c14,0,25,-3,35,-8 c-4,-18,-7,-37,-7,-58 c0,-116,85,-192,189,-192 c55,0,91,21,109,38 l4,0 l0,-140 l140,0 l0,281 c0,51,34,91,86,91 c44,0,75,-30,75,-74 c0,-60,-47,-93,-113,-79 l22,-121 c118,-11,230,58,230,198 c0,116,-83,191,-187,191 c-49,0,-87,-19,-109,-40 l-4,0 l0,115 l358,0 l0,109 l-1330,0 l0,-109 l832,0 l0,-254 c0,-51,-32,-91,-84,-91 c-45,0,-79,31,-79,75 c0,60,49,92,115,78 l-22,121 c-58,5,-115,-8,-158,-40 c-26,17,-61,31,-109,31 c-72,0,-107,-40,-119,-80 l-4,0 c-20,48,-66,74,-127,74 Z M215,476" fill="rgb(0,0,0)" transform="matrix(1,0,0,-1,571,1243)"/>
</svg>