<?xml version="1.0" encoding="UTF-8"?>
<svg height="1743" version="1.1" width="2679" xmlns="http://www.w3.org/2000/svg" xmlns:xlink="http://www.w3.org/1999/xlink">
 <path d="M0,0 l2679,0 l0,1743 l-2679,0 Z M0,0" fill="rgb(255,255,255)" transform="matrix(1,0,0,-1,0,1743)"/>
 <path d="M0,0 l2679,0" fill="none" stroke="rgb(229,229,229)" stroke-width="10" transform="matrix(1,0,0,-1,0,1243)"/>
 <path d="M0,5 l0,-25" fill="none" stroke="rgb(204,204,204)" stroke-width="10" transform="matrix(1,0,0,-1,571,1243)"/>
 <path d="M0,5 l0,-25" fill="none" stroke="rgb(204,204,204)" stroke-width="10" transform="matrix(1,0,0,-1,1723,1243)"/>
 <path d="M215,488 c-91,0,-186,-60,-186,-199 c0,-122,72,-241,194,-304 l89,94 c-110,58,-142,142,-142,204 c0,69,33,86,60,86 c33,0,55,-22,55,-69 l0,-102 l128,0 l0,103 c0,48,23,73,59,73 c27,0,41,-15,47,-26 l89,0 l0,-4 c-23,-19,-47,-48,-47,-108 c0,-86,65,-169,201,-169 c100,0,149,43,170,68 l4,0 l0,-135 l141,0 l0,562 l105,0 l0,109 l-1212,0 l0,-109 l966,0 l0,-204 c0,-110,-56,-172,-140,-172 c-62,0,-92,33,-92,77 c0,54,37,86,107,86 l60,0 l0,119 l-327,0 c-20,14,-50,26,-81,26 c-72,0,-105,-40,-117,-80 l-4,0 c-20,48,-66,74,-127,74 Z M215,488" fill="rgb(0,0,0)" transform="matrix(1,0,0,-1,571,1243)"/>
</svg>