<?xml version="1.0" encoding="UTF-8"?>
<svg height="1743" version="1.1" width="2679" xmlns="http://www.w3.org/2000/svg" xmlns:xlink="http://www.w3.org/1999/xlink">
 <path d="M0,0 l2679,0 l0,1743 l-2679,0 Z M0,0" fill="rgb(255,255,255)" transform="matrix(1,0,0,-1,0,1743)"/>
 <path d="M0,0 l2679,0" fill="none" stroke="rgb(229,229,229)" stroke-width="10" transform="matrix(1,0,0,-1,0,1243)"/>
 <path d="M0,5 l0,-25" fill="none" stroke="rgb(204,204,204)" stroke-width="10" transform="matrix(1,0,0,-1,571,1243)"/>
 <path d="M0,5 l0,-25" fill="none" stroke="rgb(204,204,204)" stroke-width="10" transform="matrix(1,0,0,-1,1771,1243)"/>
 <path d="M502,671 l-532,0 l0,-109 l532,0 Z M466,360 c27,0,49,-14,62,-54 c26,-143,128,-228,271,-228 c107,0,163,48,185,74 l4,0 l0,-152 l137,0 l0,562 l105,0 l0,109 l-245,0 l0,-299 c0,-88,-50,-173,-168,-173 c-94,0,-125,66,-131,100 c20,3,40,7,58,12 c108,27,186,88,186,200 c0,99,-65,170,-179,170 c-108,0,-178,-69,-178,-154 c0,-36,11,-69,33,-92 l119,34 c-14,19,-17,35,-17,52 c0,28,18,45,43,45 c29,0,43,-19,43,-53 c0,-47,-36,-87,-138,-114 l-46,-12 c-26,61,-79,95,-142,95 c-70,0,-108,-42,-122,-80 l-4,0 c-20,48,-66,74,-127,74 c-91,0,-186,-60,-186,-199 c0,-122,73,-234,195,-297 l89,94 c-110,58,-143,135,-143,197 c0,69,33,86,60,86 c33,0,55,-22,55,-69 l0,-102 l128,0 l0,101 c0,49,16,73,53,73 Z M466,360" fill="rgb(0,0,0)" transform="matrix(1,0,0,-1,571,1243)"/>
</svg>