<?xml version="1.0" encoding="UTF-8"?>
<svg height="1743" version="1.1" width="2679" xmlns="http://www.w3.org/2000/svg" xmlns:xlink="http://www.w3.org/1999/xlink">
 <path d="M0,0 l2679,0 l0,1743 l-2679,0 Z M0,0" fill="rgb(255,255,255)" transform="matrix(1,0,0,-1,0,1743)"/>
 <path d="M0,0 l2679,0" fill="none" stroke="rgb(229,229,229)" stroke-width="10" transform="matrix(1,0,0,-1,0,1243)"/>
 <path d="M0,5 l0,-25" fill="none" stroke="rgb(204,204,204)" stroke-width="10" transform="matrix(1,0,0,-1,571,1243)"/>
 <path d="M0,5 l0,-25" fill="none" stroke="rgb(204,204,204)" stroke-width="10" transform="matrix(1,0,0,-1,1509,1243)"/>
 <path d="M255,159 c97,0,155,30,194,68 c9,-11,20,-21,33,-30 l0,-3 c-49,-27,-77,-61,-77,-131 c0,-109,85,-180,190,-180 c58,0,92,19,110,37 l4,0 l0,-108 l130,0 l0,361 c35,14,69,33,96,59 l-60,100 c-38,-32,-120,-74,-200,-74 c-95,0,-130,41,-130,73 c0,36,23,58,86,66 l208,27 l0,138 l129,0 l0,109 l-998,0 l0,-109 l101,0 l0,-221 c0,-107,60,-182,184,-182 Z M224,562 l482,0 l0,-49 l-135,-17 c-93,-11,-148,-56,-161,-124 Z M285,275 c-45,0,-78,24,-78,76 l0,37 l-8,95 l59,-68 l106,-106 c-21,-19,-47,-34,-79,-34 Z M620,-7 c-45,0,-82,25,-82,72 c0,46,30,83,99,83 c20,0,48,-3,74,-8 l0,-48 c0,-55,-28,-99,-91,-99 Z M620,-7" fill="rgb(0,0,0)" transform="matrix(1,0,0,-1,571,1243)"/>
</svg>