<?xml version="1.0" encoding="UTF-8"?>
<svg height="1743" version="1.1" width="2679" xmlns="http://www.w3.org/2000/svg" xmlns:xlink="http://www.w3.org/1999/xlink">
 <path d="M0,0 l2679,0 l0,1743 l-2679,0 Z M0,0" fill="rgb(255,255,255)" transform="matrix(1,0,0,-1,0,1743)"/>
 <path d="M0,0 l2679,0" fill="none" stroke="rgb(229,229,229)" stroke-width="10" transform="matrix(1,0,0,-1,0,1243)"/>
 <path d="M0,5 l0,-25" fill="none" stroke="rgb(204,204,204)" stroke-width="10" transform="matrix(1,0,0,-1,571,1243)"/>
 <path d="M0,5 l0,-25" fill="none" stroke="rgb(204,204,204)" stroke-width="10" transform="matrix(1,0,0,-1,1712,1243)"/>
 <path d="M255,159 c91,0,148,26,187,62 c32,-50,89,-75,166,-75 c123,0,200,67,200,198 l0,218 l-139,0 l0,-230 c0,-49,-21,-67,-58,-67 c-35,0,-59,17,-59,66 l0,231 l-140,0 l0,-189 l-1,-2 l-187,191 l701,0 l0,-562 l141,0 l0,562 l104,0 l0,109 l-1200,0 l0,-109 l101,0 l0,-221 c0,-107,60,-182,184,-182 Z M285,275 c-45,0,-78,24,-78,76 l0,37 l-8,95 l59,-68 l106,-106 c-21,-19,-47,-34,-79,-34 Z M285,275" fill="rgb(0,0,0)" transform="matrix(1,0,0,-1,571,1243)"/>
</svg>