<?xml version="1.0" encoding="UTF-8"?>
<svg height="1743" version="1.1" width="2679" xmlns="http://www.w3.org/2000/svg" xmlns:xlink="http://www.w3.org/1999/xlink">
 <path d="M0,0 l2679,0 l0,1743 l-2679,0 Z M0,0" fill="rgb(255,255,255)" transform="matrix(1,0,0,-1,0,1743)"/>
 <path d="M0,0 l2679,0" fill="none" stroke="rgb(229,229,229)" stroke-width="10" transform="matrix(1,0,0,-1,0,1243)"/>
 <path d="M0,5 l0,-25" fill="none" stroke="rgb(204,204,204)" stroke-width="10" transform="matrix(1,0,0,-1,571,1243)"/>
 <path d="M0,5 l0,-25" fill="none" stroke="rgb(204,204,204)" stroke-width="10" transform="matrix(1,0,0,-1,1450,1243)"/>
 <path d="M432,429 l-46,-32 l-162,165 l439,0 l0,-133 Z M285,275 c-45,0,-78,24,-78,76 l0,37 c-3,32,-5,63,-8,95 c20,-23,39,-45,59,-68 l78,-78 c1,-16,3,-31,7,-44 c-17,-11,-36,-18,-58,-18 Z M513,198 l0,110 l150,0 l0,-308 l141,0 l0,562 l105,0 l0,109 l-939,0 l0,-109 l101,0 l0,-221 c0,-107,60,-182,184,-182 c65,0,113,13,149,34 c13,-11,28,-20,43,-27 Z M513,198" fill="rgb(0,0,0)" transform="matrix(1,0,0,-1,571,1243)"/>
</svg>