<?xml version="1.0" encoding="UTF-8"?>
<svg height="1743" version="1.1" width="2679" xmlns="http://www.w3.org/2000/svg" xmlns:xlink="http://www.w3.org/1999/xlink">
 <path d="M0,0 l2679,0 l0,1743 l-2679,0 Z M0,0" fill="rgb(255,255,255)" transform="matrix(1,0,0,-1,0,1743)"/>
 <path d="M0,0 l2679,0" fill="none" stroke="rgb(229,229,229)" stroke-width="10" transform="matrix(1,0,0,-1,0,1243)"/>
 <path d="M0,5 l0,-25" fill="none" stroke="rgb(204,204,204)" stroke-width="10" transform="matrix(1,0,0,-1,571,1243)"/>
 <path d="M0,5 l0,-25" fill="none" stroke="rgb(204,204,204)" stroke-width="10" transform="matrix(1,0,0,-1,1503,1243)"/>
 <path d="M255,159 c97,0,155,30,195,69 c29,-36,74,-58,136,-58 c37,0,91,9,126,47 l4,0 l0,-217 l141,0 l0,562 l105,0 l0,109 l-992,0 l0,-109 l101,0 l0,-221 c0,-107,60,-182,184,-182 Z M285,275 c-45,0,-78,24,-78,76 l0,37 l-8,95 l59,-68 l106,-106 c-21,-19,-47,-34,-79,-34 Z M410,562 l0,-190 l-186,190 Z M716,407 c0,-70,-38,-118,-98,-118 c-45,0,-67,24,-67,76 l0,197 l165,0 Z M716,407" fill="rgb(0,0,0)" transform="matrix(1,0,0,-1,571,1243)"/>
</svg>