<?xml version="1.0" encoding="UTF-8"?>
<svg height="1743" version="1.1" width="2679" xmlns="http://www.w3.org/2000/svg" xmlns:xlink="http://www.w3.org/1999/xlink">
 <path d="M0,0 l2679,0 l0,1743 l-2679,0 Z M0,0" fill="rgb(255,255,255)" transform="matrix(1,0,0,-1,0,1743)"/>
 <path d="M0,0 l2679,0" fill="none" stroke="rgb(229,229,229)" stroke-width="10" transform="matrix(1,0,0,-1,0,1243)"/>
 <path d="M0,5 l0,-25" fill="none" stroke="rgb(204,204,204)" stroke-width="10" transform="matrix(1,0,0,-1,571,1243)"/>
 <path d="M0,5 l0,-25" fill="none" stroke="rgb(204,204,204)" stroke-width="10" transform="matrix(1,0,0,-1,1842,1243)"/>
 <path d="M418,365 c-23,0,-41,2,-57,5 c2,11,3,23,3,35 l0,157 l439,0 l0,-246 c0,-53,-35,-91,-86,-91 c-45,0,-77,31,-77,75 c0,60,49,92,115,78 l-22,121 c-89,8,-181,-33,-217,-111 c-29,-17,-63,-23,-98,-23 Z M227,257 c10,1,20,3,30,5 c17,4,33,10,47,19 c34,-25,76,-39,133,-39 c25,0,49,3,72,9 c18,-57,60,-89,95,-100 l0,-4 l-127,-59 l107,-97 l215,156 l4,0 l0,-147 l140,0 l0,281 c0,51,34,91,86,91 c44,0,75,-30,75,-74 c0,-60,-47,-93,-113,-79 l22,-121 c118,-11,230,58,230,198 c0,116,-83,191,-187,191 c-49,0,-87,-19,-109,-40 l-4,0 l0,115 l358,0 l0,109 l-1331,0 l0,-109 l254,0 l0,-154 c0,-36,-18,-49,-41,-49 c-29,0,-48,18,-76,56 l-106,-84 l284,-350 l115,72 l-92,110 c-40,48,-60,69,-81,90 Z M227,257" fill="rgb(0,0,0)" transform="matrix(1,0,0,-1,571,1243)"/>
</svg>