<?xml version="1.0" encoding="UTF-8"?>
<svg height="1743" version="1.1" width="2679" xmlns="http://www.w3.org/2000/svg" xmlns:xlink="http://www.w3.org/1999/xlink">
 <path d="M0,0 l2679,0 l0,1743 l-2679,0 Z M0,0" fill="rgb(255,255,255)" transform="matrix(1,0,0,-1,0,1743)"/>
 <path d="M0,0 l2679,0" fill="none" stroke="rgb(229,229,229)" stroke-width="10" transform="matrix(1,0,0,-1,0,1243)"/>
 <path d="M0,5 l0,-25" fill="none" stroke="rgb(204,204,204)" stroke-width="10" transform="matrix(1,0,0,-1,571,1243)"/>
 <path d="M0,5 l0,-25" fill="none" stroke="rgb(204,204,204)" stroke-width="10" transform="matrix(1,0,0,-1,2169,1243)"/>
 <path d="M418,365 c-23,0,-41,2,-57,5 c2,11,3,23,3,35 l0,157 l422,0 l0,-254 c0,-51,-32,-91,-84,-91 c-45,0,-79,31,-79,75 c0,60,49,92,115,78 l-22,121 c-90,8,-179,-30,-215,-111 c-25,-11,-54,-15,-83,-15 Z M227,257 c10,1,20,3,30,5 c17,4,33,10,47,19 c34,-25,76,-39,133,-39 c18,0,35,1,52,4 c20,-88,95,-144,184,-144 c55,0,91,21,109,38 l4,0 l0,-140 l140,0 l0,281 c0,52,36,91,90,91 c19,0,35,-3,48,-9 c-8,-22,-12,-47,-12,-74 c0,-119,89,-198,203,-198 c63,0,103,23,123,42 l4,0 l0,-133 l141,0 l0,562 l105,0 l0,109 l-1658,0 l0,-109 l254,0 l0,-154 c0,-36,-18,-49,-41,-49 c-29,0,-48,18,-76,56 l-106,-84 l284,-350 l115,72 l-92,110 c-40,48,-60,69,-81,90 Z M1280,210 c-49,0,-83,29,-83,79 c0,71,67,94,120,76 l-10,122 c-61,10,-118,0,-163,-26 c-26,15,-60,26,-106,26 c-43,0,-87,-18,-108,-39 l-4,0 l0,114 l456,0 l0,-235 c0,-63,-34,-117,-102,-117 Z M1280,210" fill="rgb(0,0,0)" transform="matrix(1,0,0,-1,571,1243)"/>
</svg>