<?xml version="1.0" encoding="UTF-8"?>
<svg height="1743" version="1.1" width="2679" xmlns="http://www.w3.org/2000/svg" xmlns:xlink="http://www.w3.org/1999/xlink">
 <path d="M0,0 l2679,0 l0,1743 l-2679,0 Z M0,0" fill="rgb(255,255,255)" transform="matrix(1,0,0,-1,0,1743)"/>
 <path d="M0,0 l2679,0" fill="none" stroke="rgb(229,229,229)" stroke-width="10" transform="matrix(1,0,0,-1,0,1243)"/>
 <path d="M0,5 l0,-25" fill="none" stroke="rgb(204,204,204)" stroke-width="10" transform="matrix(1,0,0,-1,571,1243)"/>
 <path d="M0,5 l0,-25" fill="none" stroke="rgb(204,204,204)" stroke-width="10" transform="matrix(1,0,0,-1,1269,1243)"/>
 <path d="M405,50 l-107,132 c-35,43,-49,56,-69,73 l0,4 c33,4,56,10,82,27 c31,-24,79,-44,139,-44 c70,0,101,38,110,85 l8,41 c9,2,17,3,30,3 c39,0,75,-25,84,-76 l-228,-152 l108,-93 l268,199 c-31,161,-114,253,-246,253 c-77,0,-114,-46,-123,-91 l-9,-43 c-8,-2,-19,-3,-30,-3 c-21,0,-44,3,-54,7 c2,12,4,25,4,40 l0,150 l357,0 l0,109 l-759,0 l0,-109 l262,0 l0,-151 c0,-36,-18,-49,-41,-49 c-29,0,-50,21,-78,59 l-102,-89 l276,-351 Z M405,50" fill="rgb(0,0,0)" transform="matrix(1,0,0,-1,571,1243)"/>
</svg>