<?xml version="1.0" encoding="UTF-8"?>
<svg height="1743" version="1.1" width="2679" xmlns="http://www.w3.org/2000/svg" xmlns:xlink="http://www.w3.org/1999/xlink">
 <path d="M0,0 l2679,0 l0,1743 l-2679,0 Z M0,0" fill="rgb(255,255,255)" transform="matrix(1,0,0,-1,0,1743)"/>
 <path d="M0,0 l2679,0" fill="none" stroke="rgb(229,229,229)" stroke-width="10" transform="matrix(1,0,0,-1,0,1243)"/>
 <path d="M0,5 l0,-25" fill="none" stroke="rgb(204,204,204)" stroke-width="10" transform="matrix(1,0,0,-1,571,1243)"/>
 <path d="M0,5 l0,-25" fill="none" stroke="rgb(204,204,204)" stroke-width="10" transform="matrix(1,0,0,-1,1940,1243)"/>
 <path d="M418,365 c-23,0,-41,2,-57,5 c2,11,3,23,3,35 l0,157 l789,0 l0,-235 c0,-63,-34,-117,-102,-117 c-49,0,-83,29,-83,79 c0,71,67,94,120,76 l-10,122 c-50,8,-98,3,-139,-14 l-233,0 c-63,0,-131,-23,-171,-80 c-32,-20,-78,-28,-117,-28 Z M227,257 c10,1,20,3,30,5 c17,4,33,10,47,19 c34,-25,76,-39,133,-39 c21,0,42,2,64,6 c9,-121,86,-213,157,-261 l101,88 c-71,50,-115,115,-115,191 c0,61,40,86,87,86 l100,0 c-5,-19,-8,-40,-8,-63 c0,-119,89,-198,203,-198 c63,0,103,23,123,42 l4,0 l0,-133 l141,0 l0,562 l105,0 l0,109 l-1429,0 l0,-109 l254,0 l0,-154 c0,-36,-18,-49,-41,-49 c-29,0,-48,18,-76,56 l-106,-84 l284,-350 l115,72 l-92,110 c-40,48,-60,69,-81,90 Z M227,257" fill="rgb(0,0,0)" transform="matrix(1,0,0,-1,571,1243)"/>
</svg>