<?xml version="1.0" encoding="UTF-8"?>
<svg height="1743" version="1.1" width="2679" xmlns="http://www.w3.org/2000/svg" xmlns:xlink="http://www.w3.org/1999/xlink">
 <path d="M0,0 l2679,0 l0,1743 l-2679,0 Z M0,0" fill="rgb(255,255,255)" transform="matrix(1,0,0,-1,0,1743)"/>
 <path d="M0,0 l2679,0" fill="none" stroke="rgb(229,229,229)" stroke-width="10" transform="matrix(1,0,0,-1,0,1243)"/>
 <path d="M0,5 l0,-25" fill="none" stroke="rgb(204,204,204)" stroke-width="10" transform="matrix(1,0,0,-1,571,1243)"/>
 <path d="M0,5 l0,-25" fill="none" stroke="rgb(204,204,204)" stroke-width="10" transform="matrix(1,0,0,-1,1653,1243)"/>
 <path d="M418,365 c-23,0,-41,2,-57,5 c2,11,3,23,3,35 l0,157 l226,0 c19,-24,29,-63,29,-83 c0,-63,-56,-90,-133,-105 c-22,-7,-44,-9,-68,-9 Z M227,257 c10,1,20,3,30,5 c17,4,33,10,47,19 c34,-25,76,-39,133,-39 c26,0,51,3,75,9 c40,-89,119,-139,215,-139 c61,0,109,20,135,47 l4,0 l0,-159 l141,0 l0,562 l105,0 l0,109 l-1142,0 l0,-109 l254,0 l0,-154 c0,-36,-18,-49,-41,-49 c-29,0,-48,18,-76,56 l-106,-84 l284,-350 l115,72 l-92,110 c-40,48,-60,69,-81,90 Z M637,326 c65,12,122,62,122,134 c0,31,-10,70,-43,98 l0,4 l150,0 l0,-217 c0,-68,-40,-115,-118,-115 c-65,0,-103,39,-111,96 Z M637,326" fill="rgb(0,0,0)" transform="matrix(1,0,0,-1,571,1243)"/>
</svg>