<?xml version="1.0" encoding="UTF-8"?>
<svg height="1743" version="1.1" width="2679" xmlns="http://www.w3.org/2000/svg" xmlns:xlink="http://www.w3.org/1999/xlink">
 <path d="M0,0 l2679,0 l0,1743 l-2679,0 Z M0,0" fill="rgb(255,255,255)" transform="matrix(1,0,0,-1,0,1743)"/>
 <path d="M0,0 l2679,0" fill="none" stroke="rgb(229,229,229)" stroke-width="10" transform="matrix(1,0,0,-1,0,1243)"/>
 <path d="M0,5 l0,-25" fill="none" stroke="rgb(204,204,204)" stroke-width="10" transform="matrix(1,0,0,-1,571,1243)"/>
 <path d="M0,5 l0,-25" fill="none" stroke="rgb(204,204,204)" stroke-width="10" transform="matrix(1,0,0,-1,1389,1243)"/>
 <path d="M466,-69 c-214,18,-289,111,-289,187 c0,76,84,115,168,124 c23,2,40,-6,40,-18 c0,-24,-34,-55,-105,-92 c29,-92,117,-137,202,-137 c45,0,98,16,127,50 l4,0 l0,-86 l130,0 l0,603 l105,0 l0,109 l-878,0 l0,-109 l375,0 l0,-68 l-151,0 c-93,0,-145,-41,-145,-110 c0,-45,24,-92,78,-121 c-50,-44,-71,-88,-71,-142 c0,-113,110,-252,353,-288 Z M422,127 c51,24,78,57,78,100 c0,66,-57,105,-150,105 c-37,0,-79,-6,-125,-19 c-21,8,-36,29,-36,46 c0,20,12,31,47,31 l245,0 l0,172 l132,0 l0,-393 c-7,-31,-38,-77,-114,-77 c-32,0,-62,11,-77,35 Z M422,127" fill="rgb(0,0,0)" transform="matrix(1,0,0,-1,571,1243)"/>
</svg>