<?xml version="1.0" encoding="UTF-8"?>
<svg height="1743" version="1.1" width="2679" xmlns="http://www.w3.org/2000/svg" xmlns:xlink="http://www.w3.org/1999/xlink">
 <path d="M0,0 l2679,0 l0,1743 l-2679,0 Z M0,0" fill="rgb(255,255,255)" transform="matrix(1,0,0,-1,0,1743)"/>
 <path d="M0,0 l2679,0" fill="none" stroke="rgb(229,229,229)" stroke-width="10" transform="matrix(1,0,0,-1,0,1243)"/>
 <path d="M0,5 l0,-25" fill="none" stroke="rgb(204,204,204)" stroke-width="10" transform="matrix(1,0,0,-1,571,1243)"/>
 <path d="M0,5 l0,-25" fill="none" stroke="rgb(204,204,204)" stroke-width="10" transform="matrix(1,0,0,-1,862,1243)"/>
 <path d="M645,801 c-32,52,-132,166,-322,166 c-139,0,-249,-77,-249,-223 l0,-73 l-104,0 l0,-109 l105,0 l0,-562 l141,0 l0,562 l105,0 l0,109 l-106,0 l0,74 c0,69,46,102,106,102 c122,0,189,-64,233,-128 Z M645,801" fill="rgb(0,0,0)" transform="matrix(1,0,0,-1,571,1243)"/>
</svg>