<?xml version="1.0" encoding="UTF-8"?>
<svg height="1743" version="1.1" width="2679" xmlns="http://www.w3.org/2000/svg" xmlns:xlink="http://www.w3.org/1999/xlink">
 <path d="M0,0 l2679,0 l0,1743 l-2679,0 Z M0,0" fill="rgb(255,255,255)" transform="matrix(1,0,0,-1,0,1743)"/>
 <path d="M0,0 l2679,0" fill="none" stroke="rgb(229,229,229)" stroke-width="10" transform="matrix(1,0,0,-1,0,1243)"/>
 <path d="M0,-20 l0,40" fill="none" stroke="rgb(255,76,25)" stroke-width="10" transform="matrix(1,0,0,-1,571,1243)"/>
 <path d="M-394,-40 l-90,-85 c53,-65,157,-151,300,-151 c145,0,203,82,203,164 c0,94,-71,148,-164,148 c-79,0,-123,-27,-156,-68 l83,-76 c14,22,35,39,63,39 c28,0,45,-20,45,-45 c0,-36,-31,-59,-77,-59 c-85,0,-152,57,-207,133 Z M-394,-40" fill="rgb(0,0,0)" transform="matrix(1,0,0,-1,571,1243)"/>
</svg>