<?xml version="1.0" encoding="UTF-8"?>
<svg height="1743" version="1.1" width="2679" xmlns="http://www.w3.org/2000/svg" xmlns:xlink="http://www.w3.org/1999/xlink">
 <path d="M0,0 l2679,0 l0,1743 l-2679,0 Z M0,0" fill="rgb(255,255,255)" transform="matrix(1,0,0,-1,0,1743)"/>
 <path d="M0,0 l2679,0" fill="none" stroke="rgb(229,229,229)" stroke-width="10" transform="matrix(1,0,0,-1,0,1243)"/>
 <path d="M0,-20 l0,40" fill="none" stroke="rgb(255,76,25)" stroke-width="10" transform="matrix(1,0,0,-1,571,1243)"/>
 <path d="M-456,-126 c44,-56,140,-143,276,-143 c121,0,186,69,186,157 c0,84,-67,137,-157,137 c-69,0,-111,-25,-143,-61 l82,-81 c10,15,30,30,54,30 c25,0,37,-13,37,-30 c0,-27,-22,-43,-54,-43 c-90,0,-161,71,-196,116 Z M-456,-126" fill="rgb(0,0,0)" transform="matrix(1,0,0,-1,571,1243)"/>
</svg>