<?xml version="1.0" encoding="UTF-8"?>
<svg height="1743" version="1.1" width="2679" xmlns="http://www.w3.org/2000/svg" xmlns:xlink="http://www.w3.org/1999/xlink">
 <path d="M0,0 l2679,0 l0,1743 l-2679,0 Z M0,0" fill="rgb(255,255,255)" transform="matrix(1,0,0,-1,0,1743)"/>
 <path d="M0,0 l2679,0" fill="none" stroke="rgb(229,229,229)" stroke-width="10" transform="matrix(1,0,0,-1,0,1243)"/>
 <path d="M0,-20 l0,40" fill="none" stroke="rgb(255,76,25)" stroke-width="10" transform="matrix(1,0,0,-1,571,1243)"/>
 <path d="M-421,-117 c38,-49,124,-126,243,-126 c107,0,164,61,164,138 c0,74,-59,121,-138,121 c-61,0,-98,-22,-126,-53 l72,-72 c9,13,26,27,48,27 c21,0,32,-12,32,-27 c0,-24,-19,-38,-47,-38 c-80,0,-142,63,-173,102 Z M-421,-117" fill="rgb(0,0,0)" transform="matrix(1,0,0,-1,571,1243)"/>
</svg>