<?xml version="1.0" encoding="UTF-8"?>
<svg height="1743" version="1.1" width="2679" xmlns="http://www.w3.org/2000/svg" xmlns:xlink="http://www.w3.org/1999/xlink">
 <path d="M0,0 l2679,0 l0,1743 l-2679,0 Z M0,0" fill="rgb(255,255,255)" transform="matrix(1,0,0,-1,0,1743)"/>
 <path d="M0,0 l2679,0" fill="none" stroke="rgb(229,229,229)" stroke-width="10" transform="matrix(1,0,0,-1,0,1243)"/>
 <path d="M0,5 l0,-25" fill="none" stroke="rgb(204,204,204)" stroke-width="10" transform="matrix(1,0,0,-1,571,1243)"/>
 <path d="M0,5 l0,-25" fill="none" stroke="rgb(204,204,204)" stroke-width="10" transform="matrix(1,0,0,-1,1892,1243)"/>
 <path d="M1039,305 c-16,0,-37,2,-50,5 c-16,19,-37,33,-61,40 l-165,-39 c-27,8,-40,33,-40,48 c0,21,3,39,61,39 l190,0 l0,164 l136,0 l0,-248 c-23,-6,-47,-9,-71,-9 Z M992,-36 l-112,66 l0,4 c87,17,147,77,147,159 c0,4,0,8,0,12 c16,-3,34,-5,52,-5 c10,0,20,0,31,1 l0,-257 l136,0 l0,618 l105,0 l0,109 l-1381,0 l0,-109 l868,0 l0,-56 l-118,0 c-55,0,-93,-15,-115,-43 l-287,0 l-54,-99 l0,-10 c51,-20,78,-58,78,-96 c0,-40,-25,-60,-58,-60 c-92,0,-136,142,-143,271 l-126,-64 c14,-120,89,-327,280,-327 c109,0,181,67,181,165 c0,45,-17,84,-47,106 l0,4 l162,0 c16,-67,70,-131,161,-161 l135,34 c7,-4,16,-18,16,-35 c0,-54,-61,-76,-119,-76 l-14,0 l-157,96 c-33,-15,-54,-44,-54,-84 c0,-54,45,-118,169,-118 l137,-120 Z M992,-36" fill="rgb(0,0,0)" transform="matrix(1,0,0,-1,571,1243)"/>
</svg>