<?xml version="1.0" encoding="UTF-8"?>
<svg height="1743" version="1.1" width="2679" xmlns="http://www.w3.org/2000/svg" xmlns:xlink="http://www.w3.org/1999/xlink">
 <path d="M0,0 l2679,0 l0,1743 l-2679,0 Z M0,0" fill="rgb(255,255,255)" transform="matrix(1,0,0,-1,0,1743)"/>
 <path d="M0,0 l2679,0" fill="none" stroke="rgb(229,229,229)" stroke-width="10" transform="matrix(1,0,0,-1,0,1243)"/>
 <path d="M0,-20 l0,40" fill="none" stroke="rgb(255,76,25)" stroke-width="10" transform="matrix(1,0,0,-1,571,1243)"/>
 <path d="M101,759 c-7,13,-10,31,-10,46 c0,48,32,84,77,84 c36,0,54,-9,76,-20 l38,118 c-34,17,-68,26,-119,26 c-118,0,-188,-88,-188,-193 c0,-37,9,-75,25,-101 Z M135,792 c0,-30,26,-55,56,-55 c32,0,57,25,57,55 c0,33,-25,58,-57,58 c-30,0,-56,-25,-56,-58 Z M135,792" fill="rgb(0,0,0)" transform="matrix(1,0,0,-1,571,1243)"/>
</svg>