<?xml version="1.0" encoding="UTF-8"?>
<svg height="1743" version="1.1" width="2679" xmlns="http://www.w3.org/2000/svg" xmlns:xlink="http://www.w3.org/1999/xlink">
 <path d="M0,0 l2679,0 l0,1743 l-2679,0 Z M0,0" fill="rgb(255,255,255)" transform="matrix(1,0,0,-1,0,1743)"/>
 <path d="M0,0 l2679,0" fill="none" stroke="rgb(229,229,229)" stroke-width="10" transform="matrix(1,0,0,-1,0,1243)"/>
 <path d="M0,5 l0,-25" fill="none" stroke="rgb(204,204,204)" stroke-width="10" transform="matrix(1,0,0,-1,571,1243)"/>
 <path d="M0,5 l0,-25" fill="none" stroke="rgb(204,204,204)" stroke-width="10" transform="matrix(1,0,0,-1,862,1243)"/>
 <path d="M116,878 c-25,33,-86,89,-197,89 c-115,0,-188,-73,-188,-157 c0,-38,14,-76,42,-102 l130,26 c-25,23,-33,47,-33,70 c0,31,22,55,59,55 c76,0,136,-87,146,-188 l-105,0 l0,-109 l105,0 l0,-562 l141,0 l0,562 l105,0 l0,109 l-113,0 c-11,25,-19,52,-19,89 c0,51,34,89,84,89 c23,0,49,-8,66,-20 l44,112 c-21,13,-60,27,-110,27 c-88,0,-134,-48,-153,-90 Z M116,878" fill="rgb(0,0,0)" transform="matrix(1,0,0,-1,571,1243)"/>
</svg>