<?xml version="1.0" encoding="UTF-8"?>
<svg height="1743" version="1.1" width="2679" xmlns="http://www.w3.org/2000/svg" xmlns:xlink="http://www.w3.org/1999/xlink">
 <path d="M0,0 l2679,0 l0,1743 l-2679,0 Z M0,0" fill="rgb(255,255,255)" transform="matrix(1,0,0,-1,0,1743)"/>
 <path d="M0,0 l2679,0" fill="none" stroke="rgb(229,229,229)" stroke-width="10" transform="matrix(1,0,0,-1,0,1243)"/>
 <path d="M0,5 l0,-25" fill="none" stroke="rgb(204,204,204)" stroke-width="10" transform="matrix(1,0,0,-1,571,1243)"/>
 <path d="M0,5 l0,-25" fill="none" stroke="rgb(204,204,204)" stroke-width="10" transform="matrix(1,0,0,-1,862,1243)"/>
 <path d="M338,1046 c-8,1,-21,2,-32,2 c-102,0,-170,-74,-188,-180 l-4,0 c-22,33,-83,99,-195,99 c-119,0,-188,-73,-188,-157 c0,-38,14,-76,42,-102 l131,26 c-25,23,-34,46,-34,69 c0,31,21,56,58,56 c79,0,139,-89,147,-188 l-105,0 l0,-109 l105,0 l0,-562 l141,0 l0,562 l105,0 l0,109 l-113,0 c-8,23,-15,71,-15,108 c0,101,46,152,117,152 c5,0,10,-1,15,-1 Z M329,881 c0,-28,21,-50,50,-50 c30,0,51,22,51,50 c0,30,-21,52,-51,52 c-29,0,-50,-22,-50,-52 Z M379,712 c73,0,128,40,146,93 l-68,45 c-8,-24,-33,-55,-78,-55 c-45,0,-70,31,-78,55 l-68,-45 c18,-53,73,-93,146,-93 Z M379,712" fill="rgb(0,0,0)" transform="matrix(1,0,0,-1,571,1243)"/>
</svg>