<?xml version="1.0" encoding="UTF-8"?>
<svg height="1743" version="1.1" width="2679" xmlns="http://www.w3.org/2000/svg" xmlns:xlink="http://www.w3.org/1999/xlink">
 <path d="M0,0 l2679,0 l0,1743 l-2679,0 Z M0,0" fill="rgb(255,255,255)" transform="matrix(1,0,0,-1,0,1743)"/>
 <path d="M0,0 l2679,0" fill="none" stroke="rgb(229,229,229)" stroke-width="10" transform="matrix(1,0,0,-1,0,1243)"/>
 <path d="M0,5 l0,-25" fill="none" stroke="rgb(204,204,204)" stroke-width="10" transform="matrix(1,0,0,-1,571,1243)"/>
 <path d="M0,5 l0,-25" fill="none" stroke="rgb(204,204,204)" stroke-width="10" transform="matrix(1,0,0,-1,862,1243)"/>
 <path d="M-30,562 l105,0 l0,-562 l141,0 l0,562 l105,0 l0,109 l-120,0 c-9,24,-18,53,-18,90 c0,60,32,100,96,100 c23,0,49,-8,66,-20 l44,112 c-21,13,-60,27,-110,27 c-108,0,-182,-77,-186,-162 l-4,0 c-61,71,-191,158,-359,158 c-147,0,-236,-79,-236,-170 c0,-49,22,-81,42,-96 l133,26 c-24,15,-36,41,-36,62 c0,40,34,70,105,70 c144,0,271,-89,327,-197 l-95,0 Z M-30,562" fill="rgb(0,0,0)" transform="matrix(1,0,0,-1,571,1243)"/>
</svg>