<?xml version="1.0" encoding="UTF-8"?>
<svg height="1743" version="1.1" width="2679" xmlns="http://www.w3.org/2000/svg" xmlns:xlink="http://www.w3.org/1999/xlink">
 <path d="M0,0 l2679,0 l0,1743 l-2679,0 Z M0,0" fill="rgb(255,255,255)" transform="matrix(1,0,0,-1,0,1743)"/>
 <path d="M0,0 l2679,0" fill="none" stroke="rgb(229,229,229)" stroke-width="10" transform="matrix(1,0,0,-1,0,1243)"/>
 <path d="M0,5 l0,-25" fill="none" stroke="rgb(204,204,204)" stroke-width="10" transform="matrix(1,0,0,-1,571,1243)"/>
 <path d="M0,5 l0,-25" fill="none" stroke="rgb(204,204,204)" stroke-width="10" transform="matrix(1,0,0,-1,862,1243)"/>
 <path d="M321,562 l0,109 l-96,0 l-112,294 l-151,-33 l169,-261 l-6,0 l-274,286 l-121,-76 c69,-67,181,-148,277,-210 l-37,0 l0,-109 l105,0 l0,-562 l141,0 l0,562 Z M226,845 c0,-47,38,-85,86,-85 c51,0,89,38,89,85 c0,52,-38,90,-89,90 c-48,0,-86,-38,-86,-90 Z M226,845" fill="rgb(0,0,0)" transform="matrix(1,0,0,-1,571,1243)"/>
</svg>