<?xml version="1.0" encoding="UTF-8"?>
<svg height="1743" version="1.1" width="2679" xmlns="http://www.w3.org/2000/svg" xmlns:xlink="http://www.w3.org/1999/xlink">
 <path d="M0,0 l2679,0 l0,1743 l-2679,0 Z M0,0" fill="rgb(255,255,255)" transform="matrix(1,0,0,-1,0,1743)"/>
 <path d="M0,0 l2679,0" fill="none" stroke="rgb(229,229,229)" stroke-width="10" transform="matrix(1,0,0,-1,0,1243)"/>
 <path d="M0,5 l0,-25" fill="none" stroke="rgb(204,204,204)" stroke-width="10" transform="matrix(1,0,0,-1,571,1243)"/>
 <path d="M0,5 l0,-25" fill="none" stroke="rgb(204,204,204)" stroke-width="10" transform="matrix(1,0,0,-1,1349,1243)"/>
 <path d="M408,56 l-92,110 c-40,48,-60,69,-81,90 l0,4 c4,0,7,1,11,1 c68,9,126,52,126,147 l0,154 l436,0 l0,109 l-838,0 l0,-109 l262,0 l0,-151 c0,-36,-18,-49,-41,-49 c-29,0,-50,17,-81,62 l-106,-84 l289,-356 Z M766,300 c0,108,-71,197,-199,197 c-110,0,-184,-79,-184,-175 c0,-68,42,-124,105,-144 l72,85 c-31,9,-48,33,-48,59 c0,31,22,56,59,56 c38,0,66,-28,66,-79 c0,-80,-59,-127,-159,-170 l76,-97 c109,41,212,125,212,268 Z M766,300" fill="rgb(0,0,0)" transform="matrix(1,0,0,-1,571,1243)"/>
</svg>