<?xml version="1.0" encoding="UTF-8"?>
<svg height="1743" version="1.1" width="2679" xmlns="http://www.w3.org/2000/svg" xmlns:xlink="http://www.w3.org/1999/xlink">
 <path d="M0,0 l2679,0 l0,1743 l-2679,0 Z M0,0" fill="rgb(255,255,255)" transform="matrix(1,0,0,-1,0,1743)"/>
 <path d="M0,0 l2679,0" fill="none" stroke="rgb(229,229,229)" stroke-width="10" transform="matrix(1,0,0,-1,0,1243)"/>
 <path d="M0,5 l0,-25" fill="none" stroke="rgb(204,204,204)" stroke-width="10" transform="matrix(1,0,0,-1,571,1243)"/>
 <path d="M0,5 l0,-25" fill="none" stroke="rgb(204,204,204)" stroke-width="10" transform="matrix(1,0,0,-1,1130,1243)"/>
 <path d="M630,-252 l-59,98 c-44,-33,-103,-53,-157,-53 c-55,0,-84,24,-84,58 c0,37,51,64,180,75 l-47,185 c24,25,42,53,42,93 c0,61,-39,90,-79,110 l-89,-33 l0,-96 c-18,-16,-40,-22,-65,-22 c-51,0,-103,32,-103,90 c0,58,35,90,141,117 l135,34 l0,158 l144,0 l0,109 l-619,0 l0,-109 l331,0 l0,-61 l-86,-21 c-127,-31,-181,-95,-181,-200 c0,-149,128,-237,262,-237 c24,0,47,3,71,9 l10,-49 c-118,-24,-177,-75,-177,-155 c0,-97,90,-166,217,-166 c76,0,151,21,213,66 Z M630,-252" fill="rgb(0,0,0)" transform="matrix(1,0,0,-1,571,1243)"/>
</svg>