<?xml version="1.0" encoding="UTF-8"?>
<svg height="1743" version="1.1" width="2679" xmlns="http://www.w3.org/2000/svg" xmlns:xlink="http://www.w3.org/1999/xlink">
 <path d="M0,0 l2679,0 l0,1743 l-2679,0 Z M0,0" fill="rgb(255,255,255)" transform="matrix(1,0,0,-1,0,1743)"/>
 <path d="M0,0 l2679,0" fill="none" stroke="rgb(229,229,229)" stroke-width="10" transform="matrix(1,0,0,-1,0,1243)"/>
 <path d="M0,5 l0,-25" fill="none" stroke="rgb(204,204,204)" stroke-width="10" transform="matrix(1,0,0,-1,571,1243)"/>
 <path d="M0,5 l0,-25" fill="none" stroke="rgb(204,204,204)" stroke-width="10" transform="matrix(1,0,0,-1,1316,1243)"/>
 <path d="M772,-138 l-59,102 c-40,-30,-95,-47,-143,-47 c-55,0,-83,25,-83,55 c0,47,45,78,166,78 l17,0 l0,512 l105,0 l0,109 l-247,0 l0,-330 c-47,4,-91,13,-129,24 c47,45,65,96,65,151 c0,93,-62,166,-180,166 c-107,0,-180,-75,-180,-169 c0,-45,22,-91,61,-134 c-42,-11,-95,-20,-161,-28 l71,-129 c86,21,155,44,209,69 c67,-35,150,-61,244,-71 l0,-77 c-73,-10,-177,-58,-177,-170 c0,-118,103,-173,216,-173 c75,0,153,25,205,62 Z M231,508 c0,39,21,61,52,61 c30,0,51,-20,51,-57 c0,-32,-9,-63,-54,-91 c-31,25,-49,54,-49,87 Z M231,508" fill="rgb(0,0,0)" transform="matrix(1,0,0,-1,571,1243)"/>
</svg>