<?xml version="1.0" encoding="UTF-8"?>
<svg height="1743" version="1.1" width="2679" xmlns="http://www.w3.org/2000/svg" xmlns:xlink="http://www.w3.org/1999/xlink">
 <path d="M0,0 l2679,0 l0,1743 l-2679,0 Z M0,0" fill="rgb(255,255,255)" transform="matrix(1,0,0,-1,0,1743)"/>
 <path d="M0,0 l2679,0" fill="none" stroke="rgb(229,229,229)" stroke-width="10" transform="matrix(1,0,0,-1,0,1243)"/>
 <path d="M0,5 l0,-25" fill="none" stroke="rgb(204,204,204)" stroke-width="10" transform="matrix(1,0,0,-1,571,1243)"/>
 <path d="M0,5 l0,-25" fill="none" stroke="rgb(204,204,204)" stroke-width="10" transform="matrix(1,0,0,-1,1106,1243)"/>
 <path d="M453,-75 c-180,44,-268,105,-268,201 c0,61,50,105,126,105 c33,0,34,-11,34,-19 c0,-19,-75,-46,-75,-99 c0,-73,79,-124,162,-124 c51,0,104,9,153,45 l-42,93 c-34,-34,-69,-48,-105,-48 c-36,0,-56,14,-56,33 c0,32,84,64,84,117 c0,55,-42,99,-151,99 c-40,0,-77,-6,-109,-17 c-20,13,-29,31,-29,48 c0,21,13,34,46,34 l232,0 l0,169 l110,0 l0,109 l-595,0 l0,-109 l349,0 l0,-60 l-121,0 c-93,0,-150,-47,-150,-116 c0,-50,20,-91,75,-124 c-38,-35,-59,-81,-59,-131 c0,-153,174,-259,307,-301 Z M453,-75" fill="rgb(0,0,0)" transform="matrix(1,0,0,-1,571,1243)"/>
</svg>