<?xml version="1.0" encoding="UTF-8"?>
<svg height="1743" version="1.1" width="2679" xmlns="http://www.w3.org/2000/svg" xmlns:xlink="http://www.w3.org/1999/xlink">
 <path d="M0,0 l2679,0 l0,1743 l-2679,0 Z M0,0" fill="rgb(255,255,255)" transform="matrix(1,0,0,-1,0,1743)"/>
 <path d="M0,0 l2679,0" fill="none" stroke="rgb(229,229,229)" stroke-width="10" transform="matrix(1,0,0,-1,0,1243)"/>
 <path d="M0,5 l0,-25" fill="none" stroke="rgb(204,204,204)" stroke-width="10" transform="matrix(1,0,0,-1,571,1243)"/>
 <path d="M0,5 l0,-25" fill="none" stroke="rgb(204,204,204)" stroke-width="10" transform="matrix(1,0,0,-1,1177,1243)"/>
 <path d="M601,98 c0,89,-68,150,-177,150 l-82,0 c-63,0,-86,24,-86,70 c0,65,65,122,107,146 l154,0 l0,119 l-497,0 l0,-120 l166,0 l0,-4 c-23,-19,-73,-79,-73,-160 c0,-110,84,-173,194,-173 l100,0 c53,0,69,-14,69,-38 c0,-19,-12,-42,-42,-61 l97,-87 c51,46,70,100,70,158 Z M601,98" fill="rgb(0,0,0)" transform="matrix(1,0,0,-1,571,1243)"/>
</svg>