<?xml version="1.0" encoding="UTF-8"?>
<svg height="1743" version="1.1" width="2679" xmlns="http://www.w3.org/2000/svg" xmlns:xlink="http://www.w3.org/1999/xlink">
 <path d="M0,0 l2679,0 l0,1743 l-2679,0 Z M0,0" fill="rgb(255,255,255)" transform="matrix(1,0,0,-1,0,1743)"/>
 <path d="M0,0 l2679,0" fill="none" stroke="rgb(229,229,229)" stroke-width="10" transform="matrix(1,0,0,-1,0,1243)"/>
 <path d="M0,5 l0,-25" fill="none" stroke="rgb(204,204,204)" stroke-width="10" transform="matrix(1,0,0,-1,571,1243)"/>
 <path d="M0,5 l0,-25" fill="none" stroke="rgb(204,204,204)" stroke-width="10" transform="matrix(1,0,0,-1,1470,1243)"/>
 <path d="M158,350 l0,-4 c-14,-9,-58,-41,-58,-120 c0,-101,66,-173,151,-219 l90,93 c-75,43,-104,90,-104,147 c0,67,41,105,103,105 l58,0 l0,-352 l137,0 l0,250 c0,57,39,99,93,99 c52,0,91,-34,91,-94 c0,-67,-56,-110,-122,-96 l24,-121 c118,-11,237,67,237,216 c0,135,-91,211,-203,211 c-63,0,-98,-24,-117,-40 l-3,1 l0,136 l394,0 l0,109 l-959,0 l0,-109 l428,0 l0,-92 l-340,0 l0,-120 Z M158,350" fill="rgb(0,0,0)" transform="matrix(1,0,0,-1,571,1243)"/>
</svg>