<?xml version="1.0" encoding="UTF-8"?>
<svg height="1743" version="1.1" width="2679" xmlns="http://www.w3.org/2000/svg" xmlns:xlink="http://www.w3.org/1999/xlink">
 <path d="M0,0 l2679,0 l0,1743 l-2679,0 Z M0,0" fill="rgb(255,255,255)" transform="matrix(1,0,0,-1,0,1743)"/>
 <path d="M0,0 l2679,0" fill="none" stroke="rgb(229,229,229)" stroke-width="10" transform="matrix(1,0,0,-1,0,1243)"/>
 <path d="M0,5 l0,-25" fill="none" stroke="rgb(204,204,204)" stroke-width="10" transform="matrix(1,0,0,-1,571,1243)"/>
 <path d="M0,5 l0,-25" fill="none" stroke="rgb(204,204,204)" stroke-width="10" transform="matrix(1,0,0,-1,1153,1243)"/>
 <path d="M617,671 l-647,0 l0,-109 l384,0 l0,-47 l-146,0 c-82,0,-122,-44,-122,-99 c0,-63,47,-139,162,-172 l155,30 c11,-6,18,-21,18,-36 c0,-38,-40,-60,-106,-60 c-83,0,-163,36,-221,110 l-69,-75 c32,-44,74,-78,122,-101 l0,-57 l-70,-53 c0,-48,28,-100,79,-130 l110,0 l0,206 c15,-2,31,-3,46,-3 c14,0,27,1,40,2 l0,-349 l121,0 l0,390 c46,31,70,77,70,127 c0,62,-36,119,-92,135 l-194,-30 c-22,6,-33,26,-33,39 c0,19,13,30,42,30 l222,0 l0,143 l129,0 Z M543,403 c0,-38,30,-69,69,-69 c39,0,69,31,69,69 c0,38,-29,69,-68,69 c-39,0,-70,-31,-70,-69 Z M543,403" fill="rgb(0,0,0)" transform="matrix(1,0,0,-1,571,1243)"/>
</svg>