<?xml version="1.0" encoding="UTF-8"?>
<svg height="1743" version="1.1" width="2679" xmlns="http://www.w3.org/2000/svg" xmlns:xlink="http://www.w3.org/1999/xlink">
 <path d="M0,0 l2679,0 l0,1743 l-2679,0 Z M0,0" fill="rgb(255,255,255)" transform="matrix(1,0,0,-1,0,1743)"/>
 <path d="M0,0 l2679,0" fill="none" stroke="rgb(229,229,229)" stroke-width="10" transform="matrix(1,0,0,-1,0,1243)"/>
 <path d="M0,5 l0,-25" fill="none" stroke="rgb(204,204,204)" stroke-width="10" transform="matrix(1,0,0,-1,571,1243)"/>
 <path d="M0,5 l0,-25" fill="none" stroke="rgb(204,204,204)" stroke-width="10" transform="matrix(1,0,0,-1,1391,1243)"/>
 <path d="M129,117 l-53,-41 l-17,-78 c35,-57,108,-78,167,-70 l33,55 l-42,55 l131,100 l4,0 l0,-138 l140,0 l0,281 c0,51,34,91,86,91 c44,0,75,-30,75,-74 c0,-60,-47,-93,-113,-79 l22,-121 c118,-11,230,58,230,198 c0,116,-83,191,-187,191 c-49,0,-87,-19,-109,-40 l-4,0 l0,115 l358,0 l0,109 l-880,0 l0,-109 l382,0 l0,-246 c0,-53,-35,-91,-86,-91 c-45,0,-77,31,-77,75 c0,60,49,92,115,78 l-22,121 c-115,10,-233,-61,-233,-187 c0,-93,59,-149,121,-165 l0,-4 Z M129,117" fill="rgb(0,0,0)" transform="matrix(1,0,0,-1,571,1243)"/>
</svg>