<?xml version="1.0" encoding="UTF-8"?>
<svg height="1743" version="1.1" width="2679" xmlns="http://www.w3.org/2000/svg" xmlns:xlink="http://www.w3.org/1999/xlink">
 <path d="M0,0 l2679,0 l0,1743 l-2679,0 Z M0,0" fill="rgb(255,255,255)" transform="matrix(1,0,0,-1,0,1743)"/>
 <path d="M0,0 l2679,0" fill="none" stroke="rgb(229,229,229)" stroke-width="10" transform="matrix(1,0,0,-1,0,1243)"/>
 <path d="M0,5 l0,-25" fill="none" stroke="rgb(204,204,204)" stroke-width="10" transform="matrix(1,0,0,-1,571,1243)"/>
 <path d="M0,5 l0,-25" fill="none" stroke="rgb(204,204,204)" stroke-width="10" transform="matrix(1,0,0,-1,1147,1243)"/>
 <path d="M495,324 c-38,-32,-120,-74,-200,-74 c-95,0,-130,41,-130,73 c0,36,23,58,86,66 l207,27 l0,146 l148,0 l0,109 l-636,0 l0,-109 l355,0 l0,-57 l-134,-17 c-107,-14,-164,-71,-164,-157 c0,-103,92,-196,270,-196 c12,0,26,1,40,2 l0,-77 l-196,0 l-85,-61 c0,-81,48,-131,97,-148 l63,23 l0,80 l121,0 l0,-180 l120,0 l0,390 c36,14,70,34,98,60 Z M495,324" fill="rgb(0,0,0)" transform="matrix(1,0,0,-1,571,1243)"/>
</svg>