<?xml version="1.0" encoding="UTF-8"?>
<svg height="1743" version="1.1" width="2679" xmlns="http://www.w3.org/2000/svg" xmlns:xlink="http://www.w3.org/1999/xlink">
 <path d="M0,0 l2679,0 l0,1743 l-2679,0 Z M0,0" fill="rgb(255,255,255)" transform="matrix(1,0,0,-1,0,1743)"/>
 <path d="M0,0 l2679,0" fill="none" stroke="rgb(229,229,229)" stroke-width="10" transform="matrix(1,0,0,-1,0,1243)"/>
 <path d="M0,5 l0,-25" fill="none" stroke="rgb(204,204,204)" stroke-width="10" transform="matrix(1,0,0,-1,571,1243)"/>
 <path d="M0,5 l0,-25" fill="none" stroke="rgb(204,204,204)" stroke-width="10" transform="matrix(1,0,0,-1,1183,1243)"/>
 <path d="M313,132 c12,0,24,0,35,1 l0,-73 l-196,0 l-85,-61 c0,-81,48,-131,97,-148 l63,23 l0,80 l121,0 l0,-180 l120,0 l0,385 c85,35,127,101,127,174 c0,84,-49,135,-137,167 l0,62 l184,0 l0,109 l-672,0 l0,-109 l355,0 l0,-44 l-145,-36 c-103,-26,-153,-67,-153,-151 c0,-114,113,-199,286,-199 Z M290,249 c-106,0,-128,41,-128,63 c0,25,11,43,83,61 l146,36 c39,-13,74,-32,74,-71 c0,-46,-52,-89,-175,-89 Z M290,249" fill="rgb(0,0,0)" transform="matrix(1,0,0,-1,571,1243)"/>
</svg>