<?xml version="1.0" encoding="UTF-8"?>
<svg height="1743" version="1.1" width="2679" xmlns="http://www.w3.org/2000/svg" xmlns:xlink="http://www.w3.org/1999/xlink">
 <path d="M0,0 l2679,0 l0,1743 l-2679,0 Z M0,0" fill="rgb(255,255,255)" transform="matrix(1,0,0,-1,0,1743)"/>
 <path d="M0,0 l2679,0" fill="none" stroke="rgb(229,229,229)" stroke-width="10" transform="matrix(1,0,0,-1,0,1243)"/>
 <path d="M0,5 l0,-25" fill="none" stroke="rgb(204,204,204)" stroke-width="10" transform="matrix(1,0,0,-1,571,1243)"/>
 <path d="M0,5 l0,-25" fill="none" stroke="rgb(204,204,204)" stroke-width="10" transform="matrix(1,0,0,-1,1406,1243)"/>
 <path d="M360,340 c-13,-18,-43,-35,-75,-35 c-41,0,-62,23,-62,74 l0,183 l137,0 Z M209,220 l-52,-32 l-65,-46 l-22,-76 c30,-59,102,-86,161,-82 l38,52 l-39,58 l126,89 l4,0 l0,-183 l137,0 l0,268 c0,54,32,106,97,106 c44,0,75,-30,75,-74 c0,-57,-46,-94,-113,-79 l22,-121 c122,-11,230,62,230,202 c0,115,-82,189,-186,189 c-65,0,-102,-26,-121,-45 l-4,0 l0,116 l368,0 l0,109 l-895,0 l0,-109 l112,0 l0,-195 c0,-113,76,-141,127,-143 Z M209,220" fill="rgb(0,0,0)" transform="matrix(1,0,0,-1,571,1243)"/>
</svg>