<?xml version="1.0" encoding="UTF-8"?>
<svg height="1743" version="1.1" width="2679" xmlns="http://www.w3.org/2000/svg" xmlns:xlink="http://www.w3.org/1999/xlink">
 <path d="M0,0 l2679,0 l0,1743 l-2679,0 Z M0,0" fill="rgb(255,255,255)" transform="matrix(1,0,0,-1,0,1743)"/>
 <path d="M0,0 l2679,0" fill="none" stroke="rgb(229,229,229)" stroke-width="10" transform="matrix(1,0,0,-1,0,1243)"/>
 <path d="M0,5 l0,-25" fill="none" stroke="rgb(204,204,204)" stroke-width="10" transform="matrix(1,0,0,-1,571,1243)"/>
 <path d="M0,5 l0,-25" fill="none" stroke="rgb(204,204,204)" stroke-width="10" transform="matrix(1,0,0,-1,1200,1243)"/>
 <path d="M282,-9 l-38,58 l166,106 l4,0 l0,-155 l140,0 l0,562 l105,0 l0,109 l-315,0 l0,-109 l72,0 l0,-138 l-163,0 l0,84 c0,114,-70,163,-169,163 l-114,0 l0,-109 l82,0 c48,0,63,-19,63,-62 l0,-83 l-56,-44 c0,-48,26,-124,83,-166 l106,0 l0,103 l190,0 l0,-4 l-337,-212 l-22,-76 c30,-60,101,-87,161,-84 Z M282,-9" fill="rgb(0,0,0)" transform="matrix(1,0,0,-1,571,1243)"/>
</svg>