<?xml version="1.0" encoding="UTF-8"?>
<svg height="1743" version="1.1" width="2679" xmlns="http://www.w3.org/2000/svg" xmlns:xlink="http://www.w3.org/1999/xlink">
 <path d="M0,0 l2679,0 l0,1743 l-2679,0 Z M0,0" fill="rgb(255,255,255)" transform="matrix(1,0,0,-1,0,1743)"/>
 <path d="M0,0 l2679,0" fill="none" stroke="rgb(229,229,229)" stroke-width="10" transform="matrix(1,0,0,-1,0,1243)"/>
 <path d="M0,5 l0,-25" fill="none" stroke="rgb(204,204,204)" stroke-width="10" transform="matrix(1,0,0,-1,571,1243)"/>
 <path d="M0,5 l0,-25" fill="none" stroke="rgb(204,204,204)" stroke-width="10" transform="matrix(1,0,0,-1,1164,1243)"/>
 <path d="M165,158 l-37,-20 l-47,-33 l-22,-76 c30,-59,102,-86,161,-82 l38,52 l-39,58 l154,103 l4,0 l0,-160 l141,0 l0,562 l106,0 l0,109 l-654,0 l0,-109 l407,0 l0,-254 c-11,-34,-44,-72,-101,-72 c-49,0,-84,31,-84,82 c0,68,69,94,120,75 l-11,121 c-135,22,-254,-52,-254,-188 c0,-105,73,-155,118,-164 Z M165,158" fill="rgb(0,0,0)" transform="matrix(1,0,0,-1,571,1243)"/>
</svg>