<?xml version="1.0" encoding="UTF-8"?>
<svg height="1743" version="1.1" width="2679" xmlns="http://www.w3.org/2000/svg" xmlns:xlink="http://www.w3.org/1999/xlink">
 <path d="M0,0 l2679,0 l0,1743 l-2679,0 Z M0,0" fill="rgb(255,255,255)" transform="matrix(1,0,0,-1,0,1743)"/>
 <path d="M0,0 l2679,0" fill="none" stroke="rgb(229,229,229)" stroke-width="10" transform="matrix(1,0,0,-1,0,1243)"/>
 <path d="M0,5 l0,-25" fill="none" stroke="rgb(204,204,204)" stroke-width="10" transform="matrix(1,0,0,-1,571,1243)"/>
 <path d="M0,5 l0,-25" fill="none" stroke="rgb(204,204,204)" stroke-width="10" transform="matrix(1,0,0,-1,1445,1243)"/>
 <path d="M185,29 l581,587 l-65,63 l-580,-587 Z M836,186 c0,125,-60,186,-168,186 c-108,0,-174,-68,-174,-192 c0,-131,59,-189,168,-189 c108,0,174,64,174,195 Z M666,76 c-38,0,-62,33,-62,105 c0,73,19,106,58,106 c43,0,64,-34,64,-106 c0,-73,-16,-105,-60,-105 Z M210,414 c-38,0,-62,33,-62,105 c0,73,19,106,58,106 c43,0,64,-34,64,-106 c0,-73,-16,-105,-60,-105 Z M380,524 c0,125,-60,186,-168,186 c-108,0,-174,-68,-174,-192 c0,-131,59,-189,168,-189 c108,0,174,64,174,195 Z M380,524" fill="rgb(0,0,0)" transform="matrix(1,0,0,-1,571,1243)"/>
</svg>