<?xml version="1.0" encoding="UTF-8"?>
<svg height="1743" version="1.1" width="2679" xmlns="http://www.w3.org/2000/svg" xmlns:xlink="http://www.w3.org/1999/xlink">
 <path d="M0,0 l2679,0 l0,1743 l-2679,0 Z M0,0" fill="rgb(255,255,255)" transform="matrix(1,0,0,-1,0,1743)"/>
 <path d="M0,0 l2679,0" fill="none" stroke="rgb(229,229,229)" stroke-width="10" transform="matrix(1,0,0,-1,0,1243)"/>
 <path d="M0,5 l0,-25" fill="none" stroke="rgb(204,204,204)" stroke-width="10" transform="matrix(1,0,0,-1,571,1243)"/>
 <path d="M0,5 l0,-25" fill="none" stroke="rgb(204,204,204)" stroke-width="10" transform="matrix(1,0,0,-1,1295,1243)"/>
 <path d="M21,185 c0,-99,73,-206,251,-206 c122,0,193,36,236,70 c16,-12,45,-35,66,-49 l180,0 l0,20 c-45,34,-116,85,-159,123 c42,55,71,148,71,233 l-130,0 c0,-61,-14,-126,-35,-157 c-52,40,-81,71,-123,113 c92,34,150,99,150,192 c0,104,-73,182,-197,182 c-126,0,-204,-85,-204,-187 c0,-54,25,-105,52,-136 c-89,-37,-158,-91,-158,-198 Z M295,97 c-81,0,-130,46,-130,100 c0,48,33,75,82,89 c59,-65,98,-99,164,-157 c-25,-17,-57,-32,-116,-32 Z M260,519 c0,48,28,71,66,71 c43,0,70,-28,70,-71 c0,-50,-32,-77,-92,-98 c-18,13,-44,61,-44,98 Z M260,519" fill="rgb(0,0,0)" transform="matrix(1,0,0,-1,571,1243)"/>
</svg>