<?xml version="1.0" encoding="UTF-8"?>
<svg height="1743" version="1.1" width="2679" xmlns="http://www.w3.org/2000/svg" xmlns:xlink="http://www.w3.org/1999/xlink">
 <path d="M0,0 l2679,0 l0,1743 l-2679,0 Z M0,0" fill="rgb(255,255,255)" transform="matrix(1,0,0,-1,0,1743)"/>
 <path d="M0,0 l2679,0" fill="none" stroke="rgb(229,229,229)" stroke-width="10" transform="matrix(1,0,0,-1,0,1243)"/>
 <path d="M0,5 l0,-25" fill="none" stroke="rgb(204,204,204)" stroke-width="10" transform="matrix(1,0,0,-1,571,1243)"/>
 <path d="M0,5 l0,-25" fill="none" stroke="rgb(204,204,204)" stroke-width="10" transform="matrix(1,0,0,-1,988,1243)"/>
 <path d="M265,631 l0,58 l-112,0 l0,-59 l17,-64 l-55,37 l-55,18 l-35,-106 l56,-18 l67,-4 l-53,-41 l-34,-47 l90,-66 l35,48 l23,62 l24,-63 l34,-46 l91,65 l-35,48 l-53,42 l68,2 l54,18 l-33,107 l-57,-18 l-55,-37 Z M265,631" fill="rgb(0,0,0)" transform="matrix(1,0,0,-1,571,1243)"/>
</svg>