<?xml version="1.0" encoding="UTF-8"?>
<svg height="1743" version="1.1" width="2679" xmlns="http://www.w3.org/2000/svg" xmlns:xlink="http://www.w3.org/1999/xlink">
 <path d="M0,0 l2679,0 l0,1743 l-2679,0 Z M0,0" fill="rgb(255,255,255)" transform="matrix(1,0,0,-1,0,1743)"/>
 <path d="M0,0 l2679,0" fill="none" stroke="rgb(229,229,229)" stroke-width="10" transform="matrix(1,0,0,-1,0,1243)"/>
 <path d="M0,5 l0,-25" fill="none" stroke="rgb(204,204,204)" stroke-width="10" transform="matrix(1,0,0,-1,571,1243)"/>
 <path d="M0,5 l0,-25" fill="none" stroke="rgb(204,204,204)" stroke-width="10" transform="matrix(1,0,0,-1,1138,1243)"/>
 <path d="M276,-10 c163,0,254,108,254,346 c0,233,-70,345,-240,345 c-165,0,-253,-108,-253,-350 c0,-229,67,-341,239,-341 Z M184,336 c0,153,18,221,96,221 c72,0,104,-73,104,-226 c0,-151,-20,-217,-99,-217 c-71,0,-101,68,-101,222 Z M184,336" fill="rgb(0,0,0)" transform="matrix(1,0,0,-1,571,1243)"/>
</svg>