<?xml version="1.0" encoding="UTF-8"?>
<svg height="1743" version="1.1" width="2679" xmlns="http://www.w3.org/2000/svg" xmlns:xlink="http://www.w3.org/1999/xlink">
 <path d="M0,0 l2679,0 l0,1743 l-2679,0 Z M0,0" fill="rgb(255,255,255)" transform="matrix(1,0,0,-1,0,1743)"/>
 <path d="M0,0 l2679,0" fill="none" stroke="rgb(229,229,229)" stroke-width="10" transform="matrix(1,0,0,-1,0,1243)"/>
 <path d="M0,5 l0,-25" fill="none" stroke="rgb(204,204,204)" stroke-width="10" transform="matrix(1,0,0,-1,571,1243)"/>
 <path d="M0,5 l0,-25" fill="none" stroke="rgb(204,204,204)" stroke-width="10" transform="matrix(1,0,0,-1,1083,1243)"/>
 <path d="M350,352 c56,19,101,69,101,147 c0,122,-72,182,-213,182 c-132,0,-205,-83,-209,-186 l141,-12 c1,48,26,77,69,77 c46,0,67,-25,67,-74 c0,-63,-27,-87,-91,-87 l-44,0 l0,-120 l45,0 c79,0,114,-30,114,-80 c0,-58,-26,-88,-82,-88 c-62,0,-91,50,-104,82 l-137,-62 c25,-73,99,-141,222,-141 c150,0,246,75,246,216 c0,100,-63,137,-125,143 Z M350,352" fill="rgb(0,0,0)" transform="matrix(1,0,0,-1,571,1243)"/>
</svg>