<?xml version="1.0" encoding="UTF-8"?>
<svg height="1743" version="1.1" width="2679" xmlns="http://www.w3.org/2000/svg" xmlns:xlink="http://www.w3.org/1999/xlink">
 <path d="M0,0 l2679,0 l0,1743 l-2679,0 Z M0,0" fill="rgb(255,255,255)" transform="matrix(1,0,0,-1,0,1743)"/>
 <path d="M0,0 l2679,0" fill="none" stroke="rgb(229,229,229)" stroke-width="10" transform="matrix(1,0,0,-1,0,1243)"/>
 <path d="M0,5 l0,-25" fill="none" stroke="rgb(204,204,204)" stroke-width="10" transform="matrix(1,0,0,-1,571,1243)"/>
 <path d="M0,5 l0,-25" fill="none" stroke="rgb(204,204,204)" stroke-width="10" transform="matrix(1,0,0,-1,1101,1243)"/>
 <path d="M266,613 c43,0,70,-27,70,-66 c0,-93,-162,-111,-162,-215 c0,-44,29,-70,67,-83 l139,118 c86,73,108,123,108,202 c0,108,-76,172,-205,172 c-131,0,-200,-50,-231,-84 l98,-110 c19,24,56,66,116,66 Z M192,82 c0,-52,37,-89,90,-89 c55,0,93,39,93,89 c0,57,-36,94,-92,94 c-50,0,-91,-39,-91,-94 Z M192,82" fill="rgb(0,0,0)" transform="matrix(1,0,0,-1,571,1243)"/>
</svg>