<?xml version="1.0" encoding="UTF-8"?>
<svg height="1743" version="1.1" width="2679" xmlns="http://www.w3.org/2000/svg" xmlns:xlink="http://www.w3.org/1999/xlink">
 <path d="M0,0 l2679,0 l0,1743 l-2679,0 Z M0,0" fill="rgb(255,255,255)" transform="matrix(1,0,0,-1,0,1743)"/>
 <path d="M0,0 l2679,0" fill="none" stroke="rgb(229,229,229)" stroke-width="10" transform="matrix(1,0,0,-1,0,1243)"/>
 <path d="M0,5 l0,-25" fill="none" stroke="rgb(204,204,204)" stroke-width="10" transform="matrix(1,0,0,-1,571,1243)"/>
 <path d="M0,5 l0,-25" fill="none" stroke="rgb(204,204,204)" stroke-width="10" transform="matrix(1,0,0,-1,1270,1243)"/>
 <path d="M507,32 l0,4 c74,34,136,136,136,317 c0,261,-114,358,-291,358 c-171,0,-296,-110,-296,-364 c0,-273,127,-352,294,-352 l185,-153 l145,84 Z M213,356 c0,174,53,228,132,228 c87,0,140,-60,140,-236 c0,-175,-49,-231,-133,-231 c-82,0,-139,62,-139,239 Z M213,356" fill="rgb(0,0,0)" transform="matrix(1,0,0,-1,571,1243)"/>
</svg>