<?xml version="1.0" encoding="UTF-8"?>
<svg height="1743" version="1.1" width="2679" xmlns="http://www.w3.org/2000/svg" xmlns:xlink="http://www.w3.org/1999/xlink">
 <path d="M0,0 l2679,0 l0,1743 l-2679,0 Z M0,0" fill="rgb(255,255,255)" transform="matrix(1,0,0,-1,0,1743)"/>
 <path d="M0,0 l2679,0" fill="none" stroke="rgb(229,229,229)" stroke-width="10" transform="matrix(1,0,0,-1,0,1243)"/>
 <path d="M0,5 l0,-25" fill="none" stroke="rgb(204,204,204)" stroke-width="10" transform="matrix(1,0,0,-1,571,1243)"/>
 <path d="M0,5 l0,-25" fill="none" stroke="rgb(204,204,204)" stroke-width="10" transform="matrix(1,0,0,-1,1492,1243)"/>
 <path d="M515,502 l-4,0 c-20,40,-55,76,-141,76 c-56,0,-114,-21,-149,-66 l-4,0 l-25,53 l-124,0 l0,-565 l151,0 l0,384 c14,37,50,67,87,67 c52,0,80,-33,80,-99 l0,-352 l151,0 l0,386 c17,40,56,65,94,65 c39,0,73,-22,73,-88 l0,-363 l151,0 l0,390 c0,129,-63,188,-174,188 c-80,0,-137,-37,-166,-76 Z M515,502" fill="rgb(0,0,0)" transform="matrix(1,0,0,-1,571,1243)"/>
</svg>