<?xml version="1.0" encoding="UTF-8"?>
<svg height="1743" version="1.1" width="2679" xmlns="http://www.w3.org/2000/svg" xmlns:xlink="http://www.w3.org/1999/xlink">
 <path d="M0,0 l2679,0 l0,1743 l-2679,0 Z M0,0" fill="rgb(255,255,255)" transform="matrix(1,0,0,-1,0,1743)"/>
 <path d="M0,0 l2679,0" fill="none" stroke="rgb(229,229,229)" stroke-width="10" transform="matrix(1,0,0,-1,0,1243)"/>
 <path d="M0,5 l0,-25" fill="none" stroke="rgb(204,204,204)" stroke-width="10" transform="matrix(1,0,0,-1,571,1243)"/>
 <path d="M0,5 l0,-25" fill="none" stroke="rgb(204,204,204)" stroke-width="10" transform="matrix(1,0,0,-1,1400,1243)"/>
 <path d="M424,378 l75,-378 l176,0 l146,565 l-134,0 l-60,-256 c-15,-63,-27,-119,-34,-181 l-4,0 c-3,62,-17,120,-31,179 l-61,258 l-144,0 l-70,-262 c-13,-51,-25,-111,-31,-175 l-4,0 c-7,70,-16,117,-29,176 l-60,261 l-151,0 l147,-565 l173,0 l92,378 Z M424,378" fill="rgb(0,0,0)" transform="matrix(1,0,0,-1,571,1243)"/>
</svg>