<?xml version="1.0" encoding="UTF-8"?>
<svg height="1743" version="1.1" width="2679" xmlns="http://www.w3.org/2000/svg" xmlns:xlink="http://www.w3.org/1999/xlink">
 <path d="M0,0 l2679,0 l0,1743 l-2679,0 Z M0,0" fill="rgb(255,255,255)" transform="matrix(1,0,0,-1,0,1743)"/>
 <path d="M0,0 l2679,0" fill="none" stroke="rgb(229,229,229)" stroke-width="10" transform="matrix(1,0,0,-1,0,1243)"/>
 <path d="M0,5 l0,-25" fill="none" stroke="rgb(204,204,204)" stroke-width="10" transform="matrix(1,0,0,-1,571,1243)"/>
 <path d="M0,5 l0,-25" fill="none" stroke="rgb(204,204,204)" stroke-width="10" transform="matrix(1,0,0,-1,1129,1243)"/>
 <path d="M51,326 c0,-40,11,-80,29,-112 l-59,-57 l85,-82 l58,57 c34,-18,73,-27,115,-27 c42,0,80,9,113,26 l59,-56 l85,82 l-59,57 c18,32,30,72,30,112 c0,40,-12,79,-29,110 l58,57 l-85,82 l-58,-56 c-33,17,-72,27,-114,27 c-43,0,-82,-10,-115,-28 l-58,57 l-85,-82 l58,-57 c-17,-31,-28,-71,-28,-110 Z M173,326 c0,57,43,107,106,107 c63,0,106,-50,106,-107 c0,-57,-43,-107,-106,-107 c-63,0,-106,50,-106,107 Z M173,326" fill="rgb(0,0,0)" transform="matrix(1,0,0,-1,571,1243)"/>
</svg>