<?xml version="1.0" encoding="UTF-8"?>
<svg height="1743" version="1.1" width="2679" xmlns="http://www.w3.org/2000/svg" xmlns:xlink="http://www.w3.org/1999/xlink">
 <path d="M0,0 l2679,0 l0,1743 l-2679,0 Z M0,0" fill="rgb(255,255,255)" transform="matrix(1,0,0,-1,0,1743)"/>
 <path d="M0,0 l2679,0" fill="none" stroke="rgb(229,229,229)" stroke-width="10" transform="matrix(1,0,0,-1,0,1243)"/>
 <path d="M0,5 l0,-25" fill="none" stroke="rgb(204,204,204)" stroke-width="10" transform="matrix(1,0,0,-1,571,1243)"/>
 <path d="M0,5 l0,-25" fill="none" stroke="rgb(204,204,204)" stroke-width="10" transform="matrix(1,0,0,-1,1181,1243)"/>
 <path d="M42,331 l0,-117 l186,0 l0,-214 l153,0 l0,214 l182,0 l0,117 l-128,0 l170,370 l-162,0 l-83,-197 l-51,-159 l-4,0 l-50,159 l-80,197 l-170,0 l168,-370 Z M42,331" fill="rgb(0,0,0)" transform="matrix(1,0,0,-1,571,1243)"/>
</svg>