<?xml version="1.0" encoding="UTF-8"?>
<svg height="1743" version="1.1" width="2679" xmlns="http://www.w3.org/2000/svg" xmlns:xlink="http://www.w3.org/1999/xlink">
 <path d="M0,0 l2679,0 l0,1743 l-2679,0 Z M0,0" fill="rgb(255,255,255)" transform="matrix(1,0,0,-1,0,1743)"/>
 <path d="M0,0 l2679,0" fill="none" stroke="rgb(229,229,229)" stroke-width="10" transform="matrix(1,0,0,-1,0,1243)"/>
 <path d="M0,5 l0,-25" fill="none" stroke="rgb(204,204,204)" stroke-width="10" transform="matrix(1,0,0,-1,571,1243)"/>
 <path d="M0,5 l0,-25" fill="none" stroke="rgb(204,204,204)" stroke-width="10" transform="matrix(1,0,0,-1,1055,1243)"/>
 <path d="M241,328 c-86,0,-160,54,-160,164 c0,113,77,165,161,165 c83,0,161,-52,161,-165 c0,-110,-74,-164,-162,-164 Z M241,277 c124,0,219,80,219,215 c0,138,-99,216,-218,216 c-118,0,-218,-78,-218,-216 c0,-138,99,-215,217,-215 Z M237,465 l46,-84 l63,0 l-60,96 c25,5,44,23,44,67 c0,49,-36,70,-84,70 l-79,0 l0,-233 l53,0 l0,84 Z M220,508 l0,63 l23,0 c21,0,33,-8,33,-30 c0,-23,-9,-33,-37,-33 Z M220,508" fill="rgb(0,0,0)" transform="matrix(1,0,0,-1,571,1243)"/>
</svg>