<?xml version="1.0" encoding="UTF-8"?>
<svg height="1743" version="1.1" width="2679" xmlns="http://www.w3.org/2000/svg" xmlns:xlink="http://www.w3.org/1999/xlink">
 <path d="M0,0 l2679,0 l0,1743 l-2679,0 Z M0,0" fill="rgb(255,255,255)" transform="matrix(1,0,0,-1,0,1743)"/>
 <path d="M0,0 l2679,0" fill="none" stroke="rgb(229,229,229)" stroke-width="10" transform="matrix(1,0,0,-1,0,1243)"/>
 <path d="M0,5 l0,-25" fill="none" stroke="rgb(204,204,204)" stroke-width="10" transform="matrix(1,0,0,-1,571,1243)"/>
 <path d="M0,5 l0,-25" fill="none" stroke="rgb(204,204,204)" stroke-width="10" transform="matrix(1,0,0,-1,948,1243)"/>
 <path d="M332,694 c0,79,-55,110,-149,110 c-94,0,-147,-52,-149,-119 l107,-8 c1,30,16,48,39,48 c34,0,47,-21,47,-45 c0,-32,-10,-51,-62,-51 l-33,0 l0,-76 l29,0 c61,0,80,-21,80,-49 c0,-31,-10,-51,-50,-51 c-33,0,-57,23,-68,55 l-101,-44 c18,-47,67,-90,153,-90 c106,0,173,49,173,137 c0,58,-36,83,-78,89 c40,14,62,45,62,94 Z M332,694" fill="rgb(0,0,0)" transform="matrix(1,0,0,-1,571,1243)"/>
</svg>