<?xml version="1.0" encoding="UTF-8"?>
<svg height="1743" version="1.1" width="2679" xmlns="http://www.w3.org/2000/svg" xmlns:xlink="http://www.w3.org/1999/xlink">
 <path d="M0,0 l2679,0 l0,1743 l-2679,0 Z M0,0" fill="rgb(255,255,255)" transform="matrix(1,0,0,-1,0,1743)"/>
 <path d="M0,0 l2679,0" fill="none" stroke="rgb(229,229,229)" stroke-width="10" transform="matrix(1,0,0,-1,0,1243)"/>
 <path d="M0,5 l0,-25" fill="none" stroke="rgb(204,204,204)" stroke-width="10" transform="matrix(1,0,0,-1,571,1243)"/>
 <path d="M0,5 l0,-25" fill="none" stroke="rgb(204,204,204)" stroke-width="10" transform="matrix(1,0,0,-1,1201,1243)"/>
 <path d="M590,113 c-28,0,-41,19,-41,50 l0,402 l-151,0 l0,-343 c0,-71,-18,-116,-98,-116 c-50,0,-81,34,-81,94 l0,365 l-151,0 l0,-759 l150,0 l0,200 c19,-8,42,-13,64,-13 c90,0,127,43,145,85 l4,0 c10,-62,57,-86,109,-86 c26,0,52,6,74,19 l0,106 c-9,-3,-17,-4,-24,-4 Z M590,113" fill="rgb(0,0,0)" transform="matrix(1,0,0,-1,571,1243)"/>
</svg>