<?xml version="1.0" encoding="UTF-8"?>
<svg height="1743" version="1.1" width="2679" xmlns="http://www.w3.org/2000/svg" xmlns:xlink="http://www.w3.org/1999/xlink">
 <path d="M0,0 l2679,0 l0,1743 l-2679,0 Z M0,0" fill="rgb(255,255,255)" transform="matrix(1,0,0,-1,0,1743)"/>
 <path d="M0,0 l2679,0" fill="none" stroke="rgb(229,229,229)" stroke-width="10" transform="matrix(1,0,0,-1,0,1243)"/>
 <path d="M0,5 l0,-25" fill="none" stroke="rgb(204,204,204)" stroke-width="10" transform="matrix(1,0,0,-1,571,1243)"/>
 <path d="M0,5 l0,-25" fill="none" stroke="rgb(204,204,204)" stroke-width="10" transform="matrix(1,0,0,-1,1161,1243)"/>
 <path d="M234,0 l0,133 l57,0 c207,0,275,115,275,244 c0,156,-103,208,-244,208 l-88,0 l0,116 l-153,0 l0,-701 Z M234,258 l0,198 l61,0 c79,0,113,-32,113,-101 c0,-46,-18,-97,-131,-97 Z M234,258" fill="rgb(0,0,0)" transform="matrix(1,0,0,-1,571,1243)"/>
</svg>