<?xml version="1.0" encoding="UTF-8"?>
<svg height="1743" version="1.1" width="2679" xmlns="http://www.w3.org/2000/svg" xmlns:xlink="http://www.w3.org/1999/xlink">
 <path d="M0,0 l2679,0 l0,1743 l-2679,0 Z M0,0" fill="rgb(255,255,255)" transform="matrix(1,0,0,-1,0,1743)"/>
 <path d="M0,0 l2679,0" fill="none" stroke="rgb(229,229,229)" stroke-width="10" transform="matrix(1,0,0,-1,0,1243)"/>
 <path d="M0,5 l0,-25" fill="none" stroke="rgb(204,204,204)" stroke-width="10" transform="matrix(1,0,0,-1,571,1243)"/>
 <path d="M0,5 l0,-25" fill="none" stroke="rgb(204,204,204)" stroke-width="10" transform="matrix(1,0,0,-1,1438,1243)"/>
 <path d="M410,72 c30,-46,82,-83,197,-83 c112,0,178,32,222,77 l-76,99 c-25,-26,-60,-57,-132,-57 c-87,0,-131,41,-140,133 l335,0 c5,13,13,62,13,100 c0,145,-83,235,-234,235 c-90,0,-133,-40,-158,-71 l-4,0 c-25,37,-69,70,-177,70 c-129,0,-188,-47,-214,-80 l88,-104 c16,21,48,63,124,63 c57,0,86,-36,86,-90 l0,-29 c-255,0,-326,-85,-326,-190 c0,-85,57,-159,194,-159 c127,0,169,37,198,86 Z M238,100 c-51,0,-72,35,-72,60 c0,58,52,76,174,76 l0,-35 c0,-74,-42,-101,-102,-101 Z M587,462 c52,0,94,-26,94,-101 l0,-16 l-198,0 c8,77,47,117,104,117 Z M587,462" fill="rgb(0,0,0)" transform="matrix(1,0,0,-1,571,1243)"/>
</svg>