<?xml version="1.0" encoding="UTF-8"?>
<svg height="1743" version="1.1" width="2679" xmlns="http://www.w3.org/2000/svg" xmlns:xlink="http://www.w3.org/1999/xlink">
 <path d="M0,0 l2679,0 l0,1743 l-2679,0 Z M0,0" fill="rgb(255,255,255)" transform="matrix(1,0,0,-1,0,1743)"/>
 <path d="M0,0 l2679,0" fill="none" stroke="rgb(229,229,229)" stroke-width="10" transform="matrix(1,0,0,-1,0,1243)"/>
 <path d="M0,5 l0,-25" fill="none" stroke="rgb(204,204,204)" stroke-width="10" transform="matrix(1,0,0,-1,571,1243)"/>
 <path d="M0,5 l0,-25" fill="none" stroke="rgb(204,204,204)" stroke-width="10" transform="matrix(1,0,0,-1,866,1243)"/>
 <path d="M72,0 l151,0 l0,565 l-151,0 Z M-57,717 c0,-44,34,-79,80,-79 c46,0,80,35,80,79 c0,44,-34,79,-80,79 c-46,0,-80,-35,-80,-79 Z M193,717 c0,-44,34,-79,80,-79 c46,0,80,35,80,79 c0,44,-34,79,-80,79 c-46,0,-80,-35,-80,-79 Z M193,717" fill="rgb(0,0,0)" transform="matrix(1,0,0,-1,571,1243)"/>
</svg>