<?xml version="1.0" encoding="UTF-8"?>
<svg height="1743" version="1.1" width="2679" xmlns="http://www.w3.org/2000/svg" xmlns:xlink="http://www.w3.org/1999/xlink">
 <path d="M0,0 l2679,0 l0,1743 l-2679,0 Z M0,0" fill="rgb(255,255,255)" transform="matrix(1,0,0,-1,0,1743)"/>
 <path d="M0,0 l2679,0" fill="none" stroke="rgb(229,229,229)" stroke-width="10" transform="matrix(1,0,0,-1,0,1243)"/>
 <path d="M0,5 l0,-25" fill="none" stroke="rgb(204,204,204)" stroke-width="10" transform="matrix(1,0,0,-1,571,1243)"/>
 <path d="M0,5 l0,-25" fill="none" stroke="rgb(204,204,204)" stroke-width="10" transform="matrix(1,0,0,-1,1163,1243)"/>
 <path d="M293,-11 c187,0,261,121,261,295 c0,86,-15,158,-53,208 l53,79 l0,4 l-122,0 l-14,-20 c-33,13,-72,20,-120,20 c-187,0,-260,-121,-260,-295 c0,-86,15,-158,53,-209 l-53,-78 l0,-4 l122,0 l13,20 c33,-13,72,-20,120,-20 Z M403,278 c0,-115,-28,-171,-105,-171 c-20,0,-37,4,-50,12 l151,222 c2,-18,4,-41,4,-63 Z M189,286 c0,115,34,171,103,171 c20,0,37,-4,51,-13 l-150,-222 c-2,18,-4,42,-4,64 Z M189,286" fill="rgb(0,0,0)" transform="matrix(1,0,0,-1,571,1243)"/>
</svg>