<?xml version="1.0" encoding="UTF-8"?>
<svg height="1743" version="1.1" width="2679" xmlns="http://www.w3.org/2000/svg" xmlns:xlink="http://www.w3.org/1999/xlink">
 <path d="M0,0 l2679,0 l0,1743 l-2679,0 Z M0,0" fill="rgb(255,255,255)" transform="matrix(1,0,0,-1,0,1743)"/>
 <path d="M0,0 l2679,0" fill="none" stroke="rgb(229,229,229)" stroke-width="10" transform="matrix(1,0,0,-1,0,1243)"/>
 <path d="M0,5 l0,-25" fill="none" stroke="rgb(204,204,204)" stroke-width="10" transform="matrix(1,0,0,-1,571,1243)"/>
 <path d="M0,5 l0,-25" fill="none" stroke="rgb(204,204,204)" stroke-width="10" transform="matrix(1,0,0,-1,1127,1243)"/>
 <path d="M334,146 c-17,-23,-50,-40,-87,-40 c-39,0,-61,23,-61,55 c0,49,49,72,148,65 Z M252,575 c-125,0,-181,-75,-203,-106 l107,-79 c14,33,43,64,97,64 c46,0,81,-19,81,-82 l0,-44 c-178,9,-295,-51,-295,-181 c0,-81,57,-156,167,-156 c81,0,123,35,144,63 l4,0 c7,-14,16,-27,28,-37 c-45,-36,-85,-85,-85,-148 c0,-63,38,-117,137,-117 c46,0,88,13,109,25 l-28,85 c-20,-11,-41,-18,-62,-18 c-30,0,-45,16,-45,42 c0,51,72,97,115,121 c3,2,5,3,8,5 l0,104 l-16,0 c-27,0,-39,14,-39,46 l0,226 c0,137,-80,187,-224,187 Z M252,575" fill="rgb(0,0,0)" transform="matrix(1,0,0,-1,571,1243)"/>
</svg>