<?xml version="1.0" encoding="UTF-8"?>
<svg height="1743" version="1.1" width="2679" xmlns="http://www.w3.org/2000/svg" xmlns:xlink="http://www.w3.org/1999/xlink">
 <path d="M0,0 l2679,0 l0,1743 l-2679,0 Z M0,0" fill="rgb(255,255,255)" transform="matrix(1,0,0,-1,0,1743)"/>
 <path d="M0,0 l2679,0" fill="none" stroke="rgb(229,229,229)" stroke-width="10" transform="matrix(1,0,0,-1,0,1243)"/>
 <path d="M0,5 l0,-25" fill="none" stroke="rgb(204,204,204)" stroke-width="10" transform="matrix(1,0,0,-1,571,1243)"/>
 <path d="M0,5 l0,-25" fill="none" stroke="rgb(204,204,204)" stroke-width="10" transform="matrix(1,0,0,-1,1075,1243)"/>
 <path d="M38,277 c0,-204,93,-288,246,-288 c120,0,174,47,206,90 l-96,89 c-14,-25,-46,-55,-96,-55 c-71,0,-106,56,-106,176 c0,123,42,163,107,163 c57,0,86,-40,94,-54 l101,96 c-38,51,-104,82,-195,82 c-153,0,-261,-100,-261,-299 Z M190,723 c0,-51,39,-91,92,-91 c53,0,92,40,92,91 c0,51,-39,91,-92,91 c-53,0,-92,-40,-92,-91 Z M190,723" fill="rgb(0,0,0)" transform="matrix(1,0,0,-1,571,1243)"/>
</svg>