<?xml version="1.0" encoding="UTF-8"?>
<svg height="1743" version="1.1" width="2679" xmlns="http://www.w3.org/2000/svg" xmlns:xlink="http://www.w3.org/1999/xlink">
 <path d="M0,0 l2679,0 l0,1743 l-2679,0 Z M0,0" fill="rgb(255,255,255)" transform="matrix(1,0,0,-1,0,1743)"/>
 <path d="M0,0 l2679,0" fill="none" stroke="rgb(229,229,229)" stroke-width="10" transform="matrix(1,0,0,-1,0,1243)"/>
 <path d="M0,5 l0,-25" fill="none" stroke="rgb(204,204,204)" stroke-width="10" transform="matrix(1,0,0,-1,571,1243)"/>
 <path d="M0,5 l0,-25" fill="none" stroke="rgb(204,204,204)" stroke-width="10" transform="matrix(1,0,0,-1,1167,1243)"/>
 <path d="M378,556 c-18,5,-40,12,-93,12 c-119,0,-247,-77,-247,-315 c0,-184,87,-262,206,-262 c76,0,122,39,138,55 l4,0 l24,-46 l118,0 l0,619 l55,0 l0,82 l-55,0 l0,57 l-150,0 l0,-57 l-149,0 l0,-82 l149,0 Z M289,110 c-58,0,-98,46,-98,156 c0,153,54,180,116,180 c28,0,61,-9,75,-20 l0,-268 c-21,-29,-51,-48,-93,-48 Z M289,110" fill="rgb(0,0,0)" transform="matrix(1,0,0,-1,571,1243)"/>
</svg>