<?xml version="1.0" encoding="UTF-8"?>
<svg height="1743" version="1.1" width="2679" xmlns="http://www.w3.org/2000/svg" xmlns:xlink="http://www.w3.org/1999/xlink">
 <path d="M0,0 l2679,0 l0,1743 l-2679,0 Z M0,0" fill="rgb(255,255,255)" transform="matrix(1,0,0,-1,0,1743)"/>
 <path d="M0,0 l2679,0" fill="none" stroke="rgb(229,229,229)" stroke-width="10" transform="matrix(1,0,0,-1,0,1243)"/>
 <path d="M0,5 l0,-25" fill="none" stroke="rgb(204,204,204)" stroke-width="10" transform="matrix(1,0,0,-1,571,1243)"/>
 <path d="M0,5 l0,-25" fill="none" stroke="rgb(204,204,204)" stroke-width="10" transform="matrix(1,0,0,-1,1142,1243)"/>
 <path d="M448,159 c-21,-22,-63,-51,-124,-51 c-96,0,-136,49,-138,138 l337,0 c6,44,7,72,7,101 c0,138,-83,229,-227,229 c-163,0,-265,-109,-265,-292 c0,-181,79,-280,232,-293 c-30,-33,-53,-73,-53,-120 c0,-63,38,-117,137,-117 c46,0,88,13,109,25 l-28,85 c-20,-11,-41,-18,-62,-18 c-30,0,-45,16,-45,42 c0,52,76,100,119,123 c26,11,48,25,67,41 Z M299,462 c61,0,89,-35,89,-101 l0,-15 l-199,0 c2,66,42,116,110,116 Z M299,462" fill="rgb(0,0,0)" transform="matrix(1,0,0,-1,571,1243)"/>
</svg>