<?xml version="1.0" encoding="UTF-8"?>
<svg height="1743" version="1.1" width="2679" xmlns="http://www.w3.org/2000/svg" xmlns:xlink="http://www.w3.org/1999/xlink">
 <path d="M0,0 l2679,0 l0,1743 l-2679,0 Z M0,0" fill="rgb(255,255,255)" transform="matrix(1,0,0,-1,0,1743)"/>
 <path d="M0,0 l2679,0" fill="none" stroke="rgb(229,229,229)" stroke-width="10" transform="matrix(1,0,0,-1,0,1243)"/>
 <path d="M0,5 l0,-25" fill="none" stroke="rgb(204,204,204)" stroke-width="10" transform="matrix(1,0,0,-1,571,1243)"/>
 <path d="M0,5 l0,-25" fill="none" stroke="rgb(204,204,204)" stroke-width="10" transform="matrix(1,0,0,-1,1229,1243)"/>
 <path d="M379,711 c-186,0,-333,-114,-333,-367 c0,-234,99,-354,298,-354 c130,0,200,27,251,62 l0,309 l-153,0 l0,-237 c-14,-6,-45,-10,-66,-10 c-117,0,-173,75,-173,248 c0,166,78,217,170,217 c65,0,102,-28,128,-56 l98,107 c-19,22,-82,81,-220,81 Z M568,841 l-207,125 l-204,-125 l50,-89 l154,84 l151,-85 Z M568,841" fill="rgb(0,0,0)" transform="matrix(1,0,0,-1,571,1243)"/>
</svg>