<?xml version="1.0" encoding="UTF-8"?>
<svg height="1743" version="1.1" width="2679" xmlns="http://www.w3.org/2000/svg" xmlns:xlink="http://www.w3.org/1999/xlink">
 <path d="M0,0 l2679,0 l0,1743 l-2679,0 Z M0,0" fill="rgb(255,255,255)" transform="matrix(1,0,0,-1,0,1743)"/>
 <path d="M0,0 l2679,0" fill="none" stroke="rgb(229,229,229)" stroke-width="10" transform="matrix(1,0,0,-1,0,1243)"/>
 <path d="M0,5 l0,-25" fill="none" stroke="rgb(204,204,204)" stroke-width="10" transform="matrix(1,0,0,-1,571,1243)"/>
 <path d="M0,5 l0,-25" fill="none" stroke="rgb(204,204,204)" stroke-width="10" transform="matrix(1,0,0,-1,1162,1243)"/>
 <path d="M523,538 c-50,22,-111,34,-210,34 c-185,0,-275,-129,-275,-288 c0,-203,105,-261,222,-261 c51,0,90,13,111,32 l4,0 l0,-29 c0,-80,-33,-109,-111,-109 c-59,0,-114,27,-142,66 l-85,-111 c32,-38,88,-77,227,-77 c151,0,259,76,259,230 Z M374,443 l0,-269 c-19,-19,-46,-29,-79,-29 c-67,0,-107,29,-107,145 c0,108,45,163,124,163 c24,0,41,-3,62,-10 Z M203,723 c0,-51,39,-91,92,-91 c53,0,92,40,92,91 c0,51,-39,91,-92,91 c-53,0,-92,-40,-92,-91 Z M203,723" fill="rgb(0,0,0)" transform="matrix(1,0,0,-1,571,1243)"/>
</svg>