<?xml version="1.0" encoding="UTF-8"?>
<svg height="1743" version="1.1" width="2679" xmlns="http://www.w3.org/2000/svg" xmlns:xlink="http://www.w3.org/1999/xlink">
 <path d="M0,0 l2679,0 l0,1743 l-2679,0 Z M0,0" fill="rgb(255,255,255)" transform="matrix(1,0,0,-1,0,1743)"/>
 <path d="M0,0 l2679,0" fill="none" stroke="rgb(229,229,229)" stroke-width="10" transform="matrix(1,0,0,-1,0,1243)"/>
 <path d="M0,5 l0,-25" fill="none" stroke="rgb(204,204,204)" stroke-width="10" transform="matrix(1,0,0,-1,571,1243)"/>
 <path d="M0,5 l0,-25" fill="none" stroke="rgb(204,204,204)" stroke-width="10" transform="matrix(1,0,0,-1,1184,1243)"/>
 <path d="M357,619 l0,82 l-138,0 l0,57 l-151,0 l0,-57 l-65,0 l0,-82 l65,0 l0,-619 l151,0 l0,379 c19,35,61,62,97,62 c51,0,78,-30,78,-90 l0,-351 l151,0 l0,381 c0,127,-63,188,-173,188 c-65,0,-117,-28,-149,-61 l-4,0 l0,111 Z M357,619" fill="rgb(0,0,0)" transform="matrix(1,0,0,-1,571,1243)"/>
</svg>