<?xml version="1.0" encoding="UTF-8"?>
<svg height="1743" version="1.1" width="2679" xmlns="http://www.w3.org/2000/svg" xmlns:xlink="http://www.w3.org/1999/xlink">
 <path d="M0,0 l2679,0 l0,1743 l-2679,0 Z M0,0" fill="rgb(255,255,255)" transform="matrix(1,0,0,-1,0,1743)"/>
 <path d="M0,0 l2679,0" fill="none" stroke="rgb(229,229,229)" stroke-width="10" transform="matrix(1,0,0,-1,0,1243)"/>
 <path d="M0,5 l0,-25" fill="none" stroke="rgb(204,204,204)" stroke-width="10" transform="matrix(1,0,0,-1,571,1243)"/>
 <path d="M0,5 l0,-25" fill="none" stroke="rgb(204,204,204)" stroke-width="10" transform="matrix(1,0,0,-1,1015,1243)"/>
 <path d="M9,17 c13,-8,61,-30,146,-30 c147,0,208,78,208,183 l0,531 l-153,0 l0,-520 c0,-42,-14,-61,-59,-61 c-33,0,-72,15,-95,32 Z M492,841 l-207,125 l-204,-125 l50,-89 l154,84 l151,-85 Z M492,841" fill="rgb(0,0,0)" transform="matrix(1,0,0,-1,571,1243)"/>
</svg>