<?xml version="1.0" encoding="UTF-8"?>
<svg height="1743" version="1.1" width="2679" xmlns="http://www.w3.org/2000/svg" xmlns:xlink="http://www.w3.org/1999/xlink">
 <path d="M0,0 l2679,0 l0,1743 l-2679,0 Z M0,0" fill="rgb(255,255,255)" transform="matrix(1,0,0,-1,0,1743)"/>
 <path d="M0,0 l2679,0" fill="none" stroke="rgb(229,229,229)" stroke-width="10" transform="matrix(1,0,0,-1,0,1243)"/>
 <path d="M0,5 l0,-25" fill="none" stroke="rgb(204,204,204)" stroke-width="10" transform="matrix(1,0,0,-1,571,1243)"/>
 <path d="M0,5 l0,-25" fill="none" stroke="rgb(204,204,204)" stroke-width="10" transform="matrix(1,0,0,-1,1270,1243)"/>
 <path d="M216,356 c0,174,53,228,128,228 c85,0,138,-62,138,-237 c0,-173,-49,-230,-129,-230 c-85,0,-137,62,-137,239 Z M640,354 c0,261,-113,357,-287,357 c-170,0,-294,-110,-294,-365 c0,-262,110,-356,285,-356 c171,0,296,109,296,364 Z M349,752 c116,0,172,62,205,125 l-96,57 c-11,-26,-43,-75,-109,-75 c-66,0,-97,49,-108,75 l-97,-57 c33,-63,90,-125,205,-125 Z M349,752" fill="rgb(0,0,0)" transform="matrix(1,0,0,-1,571,1243)"/>
</svg>