<?xml version="1.0" encoding="UTF-8"?>
<svg height="1743" version="1.1" width="2679" xmlns="http://www.w3.org/2000/svg" xmlns:xlink="http://www.w3.org/1999/xlink">
 <path d="M0,0 l2679,0 l0,1743 l-2679,0 Z M0,0" fill="rgb(255,255,255)" transform="matrix(1,0,0,-1,0,1743)"/>
 <path d="M0,0 l2679,0" fill="none" stroke="rgb(229,229,229)" stroke-width="10" transform="matrix(1,0,0,-1,0,1243)"/>
 <path d="M0,5 l0,-25" fill="none" stroke="rgb(204,204,204)" stroke-width="10" transform="matrix(1,0,0,-1,571,1243)"/>
 <path d="M0,5 l0,-25" fill="none" stroke="rgb(204,204,204)" stroke-width="10" transform="matrix(1,0,0,-1,1184,1243)"/>
 <path d="M250,-341 c71,23,151,89,151,192 c0,58,-34,103,-91,103 c-47,0,-75,-34,-75,-75 l0,-5 c35,-16,79,-35,79,-76 c0,-32,-27,-71,-88,-92 Z M81,701 l0,-701 l151,0 l0,261 l10,0 c32,0,51,-8,64,-33 l116,-228 l182,0 l-107,193 c-33,59,-56,85,-93,103 l0,4 c82,16,148,73,148,195 c0,147,-88,206,-243,206 Z M232,575 l60,0 c67,0,105,-29,105,-93 c0,-65,-26,-100,-107,-100 l-58,0 Z M232,575" fill="rgb(0,0,0)" transform="matrix(1,0,0,-1,571,1243)"/>
</svg>