<?xml version="1.0" encoding="UTF-8"?>
<svg height="1743" version="1.1" width="2679" xmlns="http://www.w3.org/2000/svg" xmlns:xlink="http://www.w3.org/1999/xlink">
 <path d="M0,0 l2679,0 l0,1743 l-2679,0 Z M0,0" fill="rgb(255,255,255)" transform="matrix(1,0,0,-1,0,1743)"/>
 <path d="M0,0 l2679,0" fill="none" stroke="rgb(229,229,229)" stroke-width="10" transform="matrix(1,0,0,-1,0,1243)"/>
 <path d="M0,5 l0,-25" fill="none" stroke="rgb(204,204,204)" stroke-width="10" transform="matrix(1,0,0,-1,571,1243)"/>
 <path d="M0,5 l0,-25" fill="none" stroke="rgb(204,204,204)" stroke-width="10" transform="matrix(1,0,0,-1,1144,1243)"/>
 <path d="M289,119 c-85,0,-146,54,-176,84 l-87,-126 c24,-27,108,-87,243,-87 c178,0,265,102,265,207 c0,223,-322,206,-322,319 c0,35,28,63,78,63 c74,0,114,-44,131,-65 l95,113 c-23,30,-96,84,-213,84 c-145,0,-247,-91,-247,-207 c0,-221,323,-206,323,-317 c0,-37,-29,-68,-90,-68 Z M500,867 l-56,90 l-151,-85 l-154,84 l-50,-89 l204,-125 Z M500,867" fill="rgb(0,0,0)" transform="matrix(1,0,0,-1,571,1243)"/>
</svg>