<?xml version="1.0" encoding="UTF-8"?>
<svg height="1743" version="1.1" width="2679" xmlns="http://www.w3.org/2000/svg" xmlns:xlink="http://www.w3.org/1999/xlink">
 <path d="M0,0 l2679,0 l0,1743 l-2679,0 Z M0,0" fill="rgb(255,255,255)" transform="matrix(1,0,0,-1,0,1743)"/>
 <path d="M0,0 l2679,0" fill="none" stroke="rgb(229,229,229)" stroke-width="10" transform="matrix(1,0,0,-1,0,1243)"/>
 <path d="M0,5 l0,-25" fill="none" stroke="rgb(204,204,204)" stroke-width="10" transform="matrix(1,0,0,-1,571,1243)"/>
 <path d="M0,5 l0,-25" fill="none" stroke="rgb(204,204,204)" stroke-width="10" transform="matrix(1,0,0,-1,1270,1243)"/>
 <path d="M356,118 c-90,0,-125,55,-125,155 l0,428 l-153,0 l0,-458 c0,-144,76,-253,257,-253 c155,0,286,72,286,286 l0,425 l-153,0 l0,-447 c0,-97,-39,-136,-112,-136 Z M692,841 l-55,108 l-227,-128 l46,-91 Z M432,888 l-79,92 l-191,-174 l66,-78 Z M432,888" fill="rgb(0,0,0)" transform="matrix(1,0,0,-1,571,1243)"/>
</svg>