<?xml version="1.0" encoding="UTF-8"?>
<svg height="1743" version="1.1" width="2679" xmlns="http://www.w3.org/2000/svg" xmlns:xlink="http://www.w3.org/1999/xlink">
 <path d="M0,0 l2679,0 l0,1743 l-2679,0 Z M0,0" fill="rgb(255,255,255)" transform="matrix(1,0,0,-1,0,1743)"/>
 <path d="M0,0 l2679,0" fill="none" stroke="rgb(229,229,229)" stroke-width="10" transform="matrix(1,0,0,-1,0,1243)"/>
 <path d="M0,5 l0,-25" fill="none" stroke="rgb(204,204,204)" stroke-width="10" transform="matrix(1,0,0,-1,571,1243)"/>
 <path d="M0,5 l0,-25" fill="none" stroke="rgb(204,204,204)" stroke-width="10" transform="matrix(1,0,0,-1,1186,1243)"/>
 <path d="M66,186 c0,-134,58,-197,179,-197 c71,0,116,23,149,63 l4,0 l21,-52 l128,0 l0,565 l-151,0 l0,-391 c-8,-18,-32,-68,-98,-68 c-51,0,-81,32,-81,94 l0,365 l-151,0 Z M632,705 l-55,108 l-227,-128 l46,-91 Z M372,752 l-79,92 l-191,-174 l66,-78 Z M372,752" fill="rgb(0,0,0)" transform="matrix(1,0,0,-1,571,1243)"/>
</svg>