<?xml version="1.0" encoding="UTF-8"?>
<svg height="1743" version="1.1" width="2679" xmlns="http://www.w3.org/2000/svg" xmlns:xlink="http://www.w3.org/1999/xlink">
 <path d="M0,0 l2679,0 l0,1743 l-2679,0 Z M0,0" fill="rgb(255,255,255)" transform="matrix(1,0,0,-1,0,1743)"/>
 <path d="M0,0 l2679,0" fill="none" stroke="rgb(229,229,229)" stroke-width="10" transform="matrix(1,0,0,-1,0,1243)"/>
 <path d="M0,5 l0,-25" fill="none" stroke="rgb(204,204,204)" stroke-width="10" transform="matrix(1,0,0,-1,571,1243)"/>
 <path d="M0,5 l0,-25" fill="none" stroke="rgb(204,204,204)" stroke-width="10" transform="matrix(1,0,0,-1,1116,1243)"/>
 <path d="M40,-196 c14,-7,52,-17,92,-17 c132,0,188,86,220,185 l190,593 l-156,0 l-53,-192 c-21,-76,-34,-146,-42,-197 l-4,0 c-7,48,-29,133,-50,197 l-63,192 l-169,0 l212,-563 c-5,-57,-37,-88,-91,-88 c-25,0,-46,6,-61,14 Z M478,705 l-207,125 l-204,-125 l50,-89 l154,84 l151,-85 Z M478,705" fill="rgb(0,0,0)" transform="matrix(1,0,0,-1,571,1243)"/>
</svg>