<?xml version="1.0" encoding="UTF-8"?>
<svg height="1743" version="1.1" width="2679" xmlns="http://www.w3.org/2000/svg" xmlns:xlink="http://www.w3.org/1999/xlink">
 <path d="M0,0 l2679,0 l0,1743 l-2679,0 Z M0,0" fill="rgb(255,255,255)" transform="matrix(1,0,0,-1,0,1743)"/>
 <path d="M0,0 l2679,0" fill="none" stroke="rgb(229,229,229)" stroke-width="10" transform="matrix(1,0,0,-1,0,1243)"/>
 <path d="M0,5 l0,-25" fill="none" stroke="rgb(204,204,204)" stroke-width="10" transform="matrix(1,0,0,-1,571,1243)"/>
 <path d="M0,5 l0,-25" fill="none" stroke="rgb(204,204,204)" stroke-width="10" transform="matrix(1,0,0,-1,1127,1243)"/>
 <path d="M212,133 l307,448 l-21,120 l-440,0 l0,-129 l275,0 l0,-4 l-310,-448 l21,-120 l478,0 l0,129 l-310,0 Z M186,859 c0,-51,39,-91,92,-91 c53,0,92,40,92,91 c0,51,-39,91,-92,91 c-53,0,-92,-40,-92,-91 Z M186,859" fill="rgb(0,0,0)" transform="matrix(1,0,0,-1,571,1243)"/>
</svg>