<?xml version="1.0" encoding="UTF-8"?>
<svg height="1743" version="1.1" width="2679" xmlns="http://www.w3.org/2000/svg" xmlns:xlink="http://www.w3.org/1999/xlink">
 <path d="M0,0 l2679,0 l0,1743 l-2679,0 Z M0,0" fill="rgb(255,255,255)" transform="matrix(1,0,0,-1,0,1743)"/>
 <path d="M0,0 l2679,0" fill="none" stroke="rgb(229,229,229)" stroke-width="10" transform="matrix(1,0,0,-1,0,1243)"/>
 <path d="M0,5 l0,-25" fill="none" stroke="rgb(204,204,204)" stroke-width="10" transform="matrix(1,0,0,-1,571,1243)"/>
 <path d="M0,5 l0,-25" fill="none" stroke="rgb(204,204,204)" stroke-width="10" transform="matrix(1,0,0,-1,1077,1243)"/>
 <path d="M221,125 l238,326 l-20,114 l-387,0 l0,-121 l228,0 l0,-4 l-242,-327 l20,-113 l414,0 l0,121 l-251,0 Z M459,731 l-56,90 l-151,-85 l-154,84 l-50,-89 l204,-125 Z M459,731" fill="rgb(0,0,0)" transform="matrix(1,0,0,-1,571,1243)"/>
</svg>