<?xml version="1.0" encoding="UTF-8"?>
<svg height="1743" version="1.1" width="2679" xmlns="http://www.w3.org/2000/svg" xmlns:xlink="http://www.w3.org/1999/xlink">
 <path d="M0,0 l2679,0 l0,1743 l-2679,0 Z M0,0" fill="rgb(255,255,255)" transform="matrix(1,0,0,-1,0,1743)"/>
 <path d="M0,0 l2679,0" fill="none" stroke="rgb(229,229,229)" stroke-width="10" transform="matrix(1,0,0,-1,0,1243)"/>
 <path d="M0,5 l0,-25" fill="none" stroke="rgb(204,204,204)" stroke-width="10" transform="matrix(1,0,0,-1,571,1243)"/>
 <path d="M0,5 l0,-25" fill="none" stroke="rgb(204,204,204)" stroke-width="10" transform="matrix(1,0,0,-1,1135,1243)"/>
 <path d="M154,13 c-9,-75,-40,-90,-87,-90 c-30,0,-65,18,-83,31 l-50,-128 c19,-12,51,-27,134,-27 c109,0,217,68,236,212 l40,293 l135,0 l0,114 l-121,0 l8,68 c9,75,37,89,84,89 c30,0,65,-13,83,-26 l48,125 c-19,12,-51,26,-134,26 c-111,0,-212,-68,-231,-212 l-9,-70 l-117,0 l0,-114 l103,0 Z M154,13" fill="rgb(0,0,0)" transform="matrix(1,0,0,-1,571,1243)"/>
</svg>