<?xml version="1.0" encoding="UTF-8"?>
<svg height="1743" version="1.1" width="2679" xmlns="http://www.w3.org/2000/svg" xmlns:xlink="http://www.w3.org/1999/xlink">
 <path d="M0,0 l2679,0 l0,1743 l-2679,0 Z M0,0" fill="rgb(255,255,255)" transform="matrix(1,0,0,-1,0,1743)"/>
 <path d="M0,0 l2679,0" fill="none" stroke="rgb(229,229,229)" stroke-width="10" transform="matrix(1,0,0,-1,0,1243)"/>
 <path d="M0,5 l0,-25" fill="none" stroke="rgb(204,204,204)" stroke-width="10" transform="matrix(1,0,0,-1,571,1243)"/>
 <path d="M0,5 l0,-25" fill="none" stroke="rgb(204,204,204)" stroke-width="10" transform="matrix(1,0,0,-1,1079,1243)"/>
 <path d="M122,710 c0,-71,49,-122,130,-122 c81,0,133,57,133,128 c0,71,-50,122,-131,122 c-81,0,-132,-57,-132,-128 Z M307,712 c0,-32,-17,-52,-54,-52 c-36,0,-53,23,-53,54 c0,31,17,52,53,52 c37,0,54,-22,54,-54 Z M307,712" fill="rgb(0,0,0)" transform="matrix(1,0,0,-1,571,1243)"/>
</svg>