<?xml version="1.0" encoding="UTF-8"?>
<svg height="1743" version="1.1" width="2679" xmlns="http://www.w3.org/2000/svg" xmlns:xlink="http://www.w3.org/1999/xlink">
 <path d="M0,0 l2679,0 l0,1743 l-2679,0 Z M0,0" fill="rgb(255,255,255)" transform="matrix(1,0,0,-1,0,1743)"/>
 <path d="M0,0 l2679,0" fill="none" stroke="rgb(229,229,229)" stroke-width="10" transform="matrix(1,0,0,-1,0,1243)"/>
 <path d="M0,5 l0,-25" fill="none" stroke="rgb(204,204,204)" stroke-width="10" transform="matrix(1,0,0,-1,571,1243)"/>
 <path d="M0,5 l0,-25" fill="none" stroke="rgb(204,204,204)" stroke-width="10" transform="matrix(1,0,0,-1,1119,1243)"/>
 <path d="M206,439 l0,-301 l-164,10 l0,-135 l169,10 l-15,-206 l156,0 l-15,206 l168,-10 l0,135 l-163,-9 l0,301 l164,-10 l0,135 l-169,-10 l15,206 l-156,0 l15,-206 l-168,10 l0,-135 Z M206,439" fill="rgb(0,0,0)" transform="matrix(1,0,0,-1,571,1243)"/>
</svg>