<?xml version="1.0" encoding="UTF-8"?>
<svg height="1743" version="1.1" width="2679" xmlns="http://www.w3.org/2000/svg" xmlns:xlink="http://www.w3.org/1999/xlink">
 <path d="M0,0 l2679,0 l0,1743 l-2679,0 Z M0,0" fill="rgb(255,255,255)" transform="matrix(1,0,0,-1,0,1743)"/>
 <path d="M0,0 l2679,0" fill="none" stroke="rgb(229,229,229)" stroke-width="10" transform="matrix(1,0,0,-1,0,1243)"/>
 <path d="M0,5 l0,-25" fill="none" stroke="rgb(204,204,204)" stroke-width="10" transform="matrix(1,0,0,-1,571,1243)"/>
 <path d="M0,5 l0,-25" fill="none" stroke="rgb(204,204,204)" stroke-width="10" transform="matrix(1,0,0,-1,976,1243)"/>
 <path d="M221,465 l0,-86 l108,0 l0,86 l62,0 l0,81 l-62,0 l0,253 l-123,0 l-186,-261 l21,-73 Z M230,697 l-9,-93 l0,-58 l-89,0 l54,82 l42,69 Z M230,697" fill="rgb(0,0,0)" transform="matrix(1,0,0,-1,571,1243)"/>
</svg>