<?xml version="1.0" encoding="UTF-8"?>
<svg height="1743" version="1.1" width="2679" xmlns="http://www.w3.org/2000/svg" xmlns:xlink="http://www.w3.org/1999/xlink">
 <path d="M0,0 l2679,0 l0,1743 l-2679,0 Z M0,0" fill="rgb(255,255,255)" transform="matrix(1,0,0,-1,0,1743)"/>
 <path d="M0,0 l2679,0" fill="none" stroke="rgb(229,229,229)" stroke-width="10" transform="matrix(1,0,0,-1,0,1243)"/>
 <path d="M0,5 l0,-25" fill="none" stroke="rgb(204,204,204)" stroke-width="10" transform="matrix(1,0,0,-1,571,1243)"/>
 <path d="M0,5 l0,-25" fill="none" stroke="rgb(204,204,204)" stroke-width="10" transform="matrix(1,0,0,-1,1179,1243)"/>
 <path d="M463,478 l-215,0 c18,70,67,104,133,104 c71,0,100,-37,125,-67 l100,113 c-22,23,-74,82,-212,82 c-160,0,-250,-89,-285,-232 l-77,0 l0,-105 l64,0 l0,-50 l-64,0 l0,-105 l74,0 c29,-140,107,-228,276,-228 c121,0,185,46,215,82 l-82,111 c-21,-25,-54,-65,-119,-65 c-84,0,-124,40,-141,100 l138,0 l26,105 l-179,0 c-1,7,-1,14,-1,50 l193,0 Z M463,478" fill="rgb(0,0,0)" transform="matrix(1,0,0,-1,571,1243)"/>
</svg>