<?xml version="1.0" encoding="UTF-8"?>
<svg height="1743" version="1.1" width="2679" xmlns="http://www.w3.org/2000/svg" xmlns:xlink="http://www.w3.org/1999/xlink">
 <path d="M0,0 l2679,0 l0,1743 l-2679,0 Z M0,0" fill="rgb(255,255,255)" transform="matrix(1,0,0,-1,0,1743)"/>
 <path d="M0,0 l2679,0" fill="none" stroke="rgb(229,229,229)" stroke-width="10" transform="matrix(1,0,0,-1,0,1243)"/>
 <path d="M0,5 l0,-25" fill="none" stroke="rgb(204,204,204)" stroke-width="10" transform="matrix(1,0,0,-1,571,1243)"/>
 <path d="M0,5 l0,-25" fill="none" stroke="rgb(204,204,204)" stroke-width="10" transform="matrix(1,0,0,-1,1423,1243)"/>
 <path d="M183,339 c0,40,25,64,68,64 c38,0,71,-31,99,-59 c-18,-26,-49,-68,-99,-68 c-42,0,-68,23,-68,63 Z M426,259 c43,-50,97,-91,181,-91 c113,0,189,72,189,178 c0,108,-67,172,-185,172 c-95,0,-152,-54,-186,-93 c-45,50,-97,90,-179,90 c-115,0,-190,-70,-190,-178 c0,-110,65,-172,186,-172 c99,0,149,55,184,94 Z M668,344 c0,-44,-25,-64,-67,-64 c-38,0,-70,31,-99,59 c19,26,48,68,102,68 c41,0,64,-28,64,-63 Z M668,344" fill="rgb(0,0,0)" transform="matrix(1,0,0,-1,571,1243)"/>
</svg>