<?xml version="1.0" encoding="UTF-8"?>
<svg height="1743" version="1.1" width="2679" xmlns="http://www.w3.org/2000/svg" xmlns:xlink="http://www.w3.org/1999/xlink">
 <path d="M0,0 l2679,0 l0,1743 l-2679,0 Z M0,0" fill="rgb(255,255,255)" transform="matrix(1,0,0,-1,0,1743)"/>
 <path d="M0,0 l2679,0" fill="none" stroke="rgb(229,229,229)" stroke-width="10" transform="matrix(1,0,0,-1,0,1243)"/>
 <path d="M0,5 l0,-25" fill="none" stroke="rgb(204,204,204)" stroke-width="10" transform="matrix(1,0,0,-1,571,1243)"/>
 <path d="M0,5 l0,-25" fill="none" stroke="rgb(204,204,204)" stroke-width="10" transform="matrix(1,0,0,-1,1073,1243)"/>
 <path d="M360,681 c9,70,41,88,90,88 c15,0,40,-5,57,-16 l64,110 c-31,18,-74,32,-131,32 c-124,0,-208,-60,-228,-218 l-85,-672 c-9,-70,-41,-88,-90,-88 c-15,0,-40,5,-57,16 l-64,-110 c31,-18,74,-32,131,-32 c124,0,208,60,228,218 Z M360,681" fill="rgb(0,0,0)" transform="matrix(1,0,0,-1,571,1243)"/>
</svg>