<?xml version="1.0" encoding="UTF-8"?>
<svg height="1743" version="1.1" width="2679" xmlns="http://www.w3.org/2000/svg" xmlns:xlink="http://www.w3.org/1999/xlink">
 <path d="M0,0 l2679,0 l0,1743 l-2679,0 Z M0,0" fill="rgb(255,255,255)" transform="matrix(1,0,0,-1,0,1743)"/>
 <path d="M0,0 l2679,0" fill="none" stroke="rgb(229,229,229)" stroke-width="10" transform="matrix(1,0,0,-1,0,1243)"/>
 <path d="M0,5 l0,-25" fill="none" stroke="rgb(204,204,204)" stroke-width="10" transform="matrix(1,0,0,-1,571,1243)"/>
 <path d="M0,5 l0,-25" fill="none" stroke="rgb(204,204,204)" stroke-width="10" transform="matrix(1,0,0,-1,1151,1243)"/>
 <path d="M462,547 c-14,-50,-32,-63,-65,-63 c-28,0,-62,13,-95,27 c-36,15,-80,32,-119,32 c-101,0,-158,-61,-173,-161 l107,-19 c15,50,34,64,68,64 c29,0,61,-13,94,-27 c37,-16,77,-32,118,-32 c101,0,157,61,172,161 Z M462,333 c-14,-50,-32,-63,-65,-63 c-28,0,-62,13,-95,27 c-36,15,-80,32,-119,32 c-101,0,-158,-61,-173,-161 l107,-19 c15,50,34,64,68,64 c29,0,61,-13,94,-27 c37,-16,77,-32,118,-32 c101,0,157,61,172,161 Z M462,333" fill="rgb(0,0,0)" transform="matrix(1,0,0,-1,571,1243)"/>
</svg>