<?xml version="1.0" encoding="UTF-8"?>
<svg height="1743" version="1.1" width="2679" xmlns="http://www.w3.org/2000/svg" xmlns:xlink="http://www.w3.org/1999/xlink">
 <path d="M0,0 l2679,0 l0,1743 l-2679,0 Z M0,0" fill="rgb(255,255,255)" transform="matrix(1,0,0,-1,0,1743)"/>
 <path d="M0,0 l2679,0" fill="none" stroke="rgb(229,229,229)" stroke-width="10" transform="matrix(1,0,0,-1,0,1243)"/>
 <path d="M0,5 l0,-25" fill="none" stroke="rgb(204,204,204)" stroke-width="10" transform="matrix(1,0,0,-1,571,1243)"/>
 <path d="M0,5 l0,-25" fill="none" stroke="rgb(204,204,204)" stroke-width="10" transform="matrix(1,0,0,-1,1121,1243)"/>
 <path d="M124,80 l106,0 l36,95 l256,0 l0,119 l-212,0 l41,110 l171,0 l0,119 l-126,0 l33,89 l-106,0 l-33,-89 l-262,0 l0,-119 l217,0 l-41,-110 l-176,0 l0,-119 l132,0 Z M124,80" fill="rgb(0,0,0)" transform="matrix(1,0,0,-1,571,1243)"/>
</svg>