<?xml version="1.0" encoding="UTF-8"?>
<svg height="1743" version="1.1" width="2679" xmlns="http://www.w3.org/2000/svg" xmlns:xlink="http://www.w3.org/1999/xlink">
 <path d="M0,0 l2679,0 l0,1743 l-2679,0 Z M0,0" fill="rgb(255,255,255)" transform="matrix(1,0,0,-1,0,1743)"/>
 <path d="M0,0 l2679,0" fill="none" stroke="rgb(229,229,229)" stroke-width="10" transform="matrix(1,0,0,-1,0,1243)"/>
 <path d="M0,5 l0,-25" fill="none" stroke="rgb(204,204,204)" stroke-width="10" transform="matrix(1,0,0,-1,571,1243)"/>
 <path d="M0,5 l0,-25" fill="none" stroke="rgb(204,204,204)" stroke-width="10" transform="matrix(1,0,0,-1,1287,1243)"/>
 <path d="M429,565 l-174,0 l0,27 c0,42,9,71,86,71 c32,0,63,-4,93,-12 c-3,-15,-5,-30,-5,-46 Z M723,772 c-24,6,-51,10,-92,10 c-51,0,-92,-11,-123,-30 c-39,18,-113,30,-161,30 c-171,0,-243,-63,-243,-175 l0,-42 l-86,0 l0,-104 l83,0 l0,-461 l151,0 l0,461 l174,0 l0,-461 l151,0 l0,461 l126,0 l0,104 l-123,0 l0,36 c0,39,15,59,57,59 c19,0,42,-4,65,-10 Z M723,772" fill="rgb(0,0,0)" transform="matrix(1,0,0,-1,571,1243)"/>
</svg>