<?xml version="1.0" encoding="UTF-8"?>
<svg height="1743" version="1.1" width="2679" xmlns="http://www.w3.org/2000/svg" xmlns:xlink="http://www.w3.org/1999/xlink">
 <path d="M0,0 l2679,0 l0,1743 l-2679,0 Z M0,0" fill="rgb(255,255,255)" transform="matrix(1,0,0,-1,0,1743)"/>
 <path d="M0,0 l2679,0" fill="none" stroke="rgb(229,229,229)" stroke-width="10" transform="matrix(1,0,0,-1,0,1243)"/>
 <path d="M0,5 l0,-25" fill="none" stroke="rgb(204,204,204)" stroke-width="10" transform="matrix(1,0,0,-1,571,1243)"/>
 <path d="M0,5 l0,-25" fill="none" stroke="rgb(204,204,204)" stroke-width="10" transform="matrix(1,0,0,-1,1568,1243)"/>
 <path d="M429,565 l-174,0 l0,27 c0,42,9,71,86,71 c32,0,62,-4,92,-12 c-3,-14,-4,-28,-4,-44 Z M902,745 c-36,20,-114,37,-229,37 c-70,0,-124,-11,-163,-31 c-38,18,-114,31,-163,31 c-171,0,-243,-63,-243,-175 l0,-42 l-86,0 l0,-104 l83,0 l0,-461 l151,0 l0,461 l174,0 l0,-461 l151,0 l0,461 l97,0 l0,104 l-94,0 l0,27 c0,42,9,71,86,71 c29,0,58,-1,85,-4 l0,-520 c0,-94,55,-148,147,-148 c33,0,54,7,72,14 l0,119 c-5,-1,-10,-2,-21,-2 c-28,0,-47,14,-47,56 Z M902,745" fill="rgb(0,0,0)" transform="matrix(1,0,0,-1,571,1243)"/>
</svg>