<?xml version="1.0" encoding="UTF-8"?>
<svg height="200.0" version="1.1" width="68.0" xmlns="http://www.w3.org/2000/svg" xmlns:xlink="http://www.w3.org/1999/xlink">
 <path d="M0,0 l68,0 l0,200 l-68,0 Z M0,0" fill="rgb(255,255,255)" transform="matrix(1,0,0,-1,0.0,200.0)"/>
 <path d="M0,0 l68,0" fill="none" stroke="rgb(229,229,229)" stroke-width="2" transform="matrix(1,0,0,-1,0.0,135.0)"/>
 <path d="M0,1 l0,-5" fill="none" stroke="rgb(204,204,204)" stroke-width="2" transform="matrix(1,0,0,-1,7.0,135.0)"/>
 <path d="M0,1 l0,-5" fill="none" stroke="rgb(204,204,204)" stroke-width="2" transform="matrix(1,0,0,-1,60.0,135.0)"/>
 <path d="M403,833 c24,0,49,-8,66,-19 l26,62 c-17,11,-48,24,-98,24 c-76,0,-147,-52,-147,-136 c0,-57,32,-98,64,-118 l0,-4 l-336,0 l0,-64 l358,0 l0,-101 l-150,0 c-72,0,-115,-42,-115,-103 c0,-78,59,-143,130,-165 l155,32 c12,-8,28,-27,28,-60 c0,-66,-66,-96,-135,-96 l-34,0 l-130,89 c-14,-8,-29,-26,-29,-52 c0,-47,45,-96,149,-99 l158,-142 l81,43 l-157,104 l0,4 c83,2,171,48,171,150 c0,74,-47,118,-76,132 l-169,-35 c-35,9,-64,43,-64,78 c0,32,14,55,72,55 l189,0 l0,166 l143,0 l0,64 l-146,0 c-49,20,-83,65,-83,114 c0,44,31,77,79,77 Z M403,833" fill="rgb(0,0,0)" transform="matrix(0.1,0.0,0.0,-0.1,7.0,135.0)"/>
</svg>