<?xml version="1.0" encoding="UTF-8"?>
<svg height="200.0" version="1.1" width="82.0" xmlns="http://www.w3.org/2000/svg" xmlns:xlink="http://www.w3.org/1999/xlink">
 <path d="M0,0 l82,0 l0,200 l-82,0 Z M0,0" fill="rgb(255,255,255)" transform="matrix(1,0,0,-1,0.0,200.0)"/>
 <path d="M0,0 l82,0" fill="none" stroke="rgb(229,229,229)" stroke-width="2" transform="matrix(1,0,0,-1,0.0,135.0)"/>
 <path d="M0,1 l0,-5" fill="none" stroke="rgb(204,204,204)" stroke-width="2" transform="matrix(1,0,0,-1,7.0,135.0)"/>
 <path d="M0,1 l0,-5" fill="none" stroke="rgb(204,204,204)" stroke-width="2" transform="matrix(1,0,0,-1,75.0,135.0)"/>
 <path d="M502,46 c69,12,157,70,157,178 c0,96,-69,155,-152,155 c-69,0,-114,-41,-132,-81 c-19,22,-45,38,-75,45 l0,4 c46,17,82,64,82,122 c0,63,-35,93,-53,103 l0,6 l368,0 l0,64 l-719,0 l0,-64 l197,0 c85,0,128,-32,128,-106 c0,-69,-52,-99,-105,-99 l-51,0 l0,-68 l61,0 c82,0,124,-42,124,-103 c0,-65,-46,-110,-124,-110 c-70,0,-120,43,-149,96 l-63,-42 c27,-52,96,-123,212,-123 c129,0,202,79,202,178 l0,5 c-2,65,39,104,92,104 c42,0,81,-30,81,-86 c0,-67,-52,-103,-110,-111 Z M502,46" fill="rgb(0,0,0)" transform="matrix(0.1,0.0,0.0,-0.1,7.0,135.0)"/>
</svg>