<?xml version="1.0" encoding="UTF-8"?>
<svg height="200.0" version="1.1" width="96.0" xmlns="http://www.w3.org/2000/svg" xmlns:xlink="http://www.w3.org/1999/xlink">
 <path d="M0,0 l96,0 l0,200 l-96,0 Z M0,0" fill="rgb(255,255,255)" transform="matrix(1,0,0,-1,0.0,200.0)"/>
 <path d="M0,0 l96,0" fill="none" stroke="rgb(229,229,229)" stroke-width="2" transform="matrix(1,0,0,-1,0.0,135.0)"/>
 <path d="M0,1 l0,-5" fill="none" stroke="rgb(204,204,204)" stroke-width="2" transform="matrix(1,0,0,-1,7.0,135.0)"/>
 <path d="M0,1 l0,-5" fill="none" stroke="rgb(204,204,204)" stroke-width="2" transform="matrix(1,0,0,-1,89.0,135.0)"/>
 <path d="M663,492 l0,10 l-71,0 l0,-11 c0,-42,-18,-73,-96,-120 l-51,-31 l0,238 l401,0 l0,64 l-868,0 l0,-64 l393,0 l0,-252 l-4,0 c-33,78,-94,128,-187,128 c-71,0,-124,-29,-158,-59 l53,-58 c29,29,67,46,109,46 c58,0,114,-34,143,-113 l-267,-160 l53,-53 l259,168 l0,-225 l73,0 l0,264 l85,52 c17,10,32,20,45,30 c19,-19,48,-33,86,-35 l0,-4 c-82,-62,-117,-103,-117,-157 c0,-73,56,-123,150,-123 c58,0,105,26,128,45 l-32,57 c-19,-17,-54,-37,-96,-37 c-50,0,-76,26,-76,57 c0,39,24,68,142,156 l-25,58 l-30,0 c-38,0,-62,13,-77,32 c23,29,35,60,35,97 Z M663,492" fill="rgb(0,0,0)" transform="matrix(0.1,0.0,0.0,-0.1,7.0,135.0)"/>
</svg>