<?xml version="1.0" encoding="UTF-8"?>
<svg height="200.0" version="1.1" width="96.0" xmlns="http://www.w3.org/2000/svg" xmlns:xlink="http://www.w3.org/1999/xlink">
 <path d="M0,0 l96,0 l0,200 l-96,0 Z M0,0" fill="rgb(255,255,255)" transform="matrix(1,0,0,-1,0.0,200.0)"/>
 <path d="M0,0 l96,0" fill="none" stroke="rgb(229,229,229)" stroke-width="2" transform="matrix(1,0,0,-1,0.0,135.0)"/>
 <path d="M0,1 l0,-5" fill="none" stroke="rgb(204,204,204)" stroke-width="2" transform="matrix(1,0,0,-1,7.0,135.0)"/>
 <path d="M0,1 l0,-5" fill="none" stroke="rgb(204,204,204)" stroke-width="2" transform="matrix(1,0,0,-1,89.0,135.0)"/>
 <path d="M445,0 l0,264 l76,47 c22,-23,59,-32,91,-31 l1,-3 c-48,-19,-78,-49,-78,-87 c0,-49,39,-71,79,-72 l1,-3 c-27,-12,-48,-36,-48,-67 c0,-61,57,-89,126,-89 c43,0,95,14,128,38 l-30,47 c-25,-17,-61,-30,-101,-30 c-35,0,-56,14,-56,39 c0,36,46,49,105,66 l-17,48 c-14,-4,-40,-11,-67,-11 c-30,0,-52,7,-52,35 c0,23,18,42,100,77 l-23,54 l-36,0 c-29,0,-53,13,-66,26 c56,43,85,86,85,144 l0,10 l-71,0 l0,-11 c0,-42,-18,-73,-96,-120 l-51,-31 l0,238 l401,0 l0,64 l-868,0 l0,-64 l393,0 l0,-252 l-4,0 c-33,78,-94,128,-187,128 c-71,0,-124,-29,-158,-59 l53,-58 c29,29,67,46,109,46 c58,0,114,-34,143,-113 l-267,-160 l53,-53 l259,168 l0,-225 Z M445,0" fill="rgb(0,0,0)" transform="matrix(0.1,0.0,0.0,-0.1,7.0,135.0)"/>
</svg>