<?xml version="1.0" encoding="UTF-8"?>
<svg height="200.0" version="1.1" width="86.0" xmlns="http://www.w3.org/2000/svg" xmlns:xlink="http://www.w3.org/1999/xlink">
 <path d="M0,0 l86,0 l0,200 l-86,0 Z M0,0" fill="rgb(255,255,255)" transform="matrix(1,0,0,-1,0.0,200.0)"/>
 <path d="M0,0 l86,0" fill="none" stroke="rgb(229,229,229)" stroke-width="2" transform="matrix(1,0,0,-1,0.0,135.0)"/>
 <path d="M0,1 l0,-5" fill="none" stroke="rgb(204,204,204)" stroke-width="2" transform="matrix(1,0,0,-1,7.0,135.0)"/>
 <path d="M0,1 l0,-5" fill="none" stroke="rgb(204,204,204)" stroke-width="2" transform="matrix(1,0,0,-1,79.0,135.0)"/>
 <path d="M723,-16 l-28,61 c-26,-19,-69,-33,-109,-33 c-51,0,-88,21,-88,63 c0,79,133,114,133,238 c0,66,-39,120,-107,138 l0,127 l215,0 l0,64 l-761,0 l0,-64 l472,0 l0,-123 c-49,-8,-92,-39,-107,-82 l-4,0 c-15,46,-55,79,-123,79 c-81,0,-159,-62,-159,-180 c0,-126,80,-228,177,-278 l50,54 c-103,51,-150,133,-150,222 c0,80,41,114,90,114 c50,0,81,-32,81,-97 l0,-81 l73,0 l0,82 c0,67,42,100,96,100 c51,0,78,-30,78,-77 c0,-93,-130,-131,-130,-236 c0,-87,77,-128,165,-128 c53,0,102,14,136,37 Z M723,-16" fill="rgb(0,0,0)" transform="matrix(0.1,0.0,0.0,-0.1,7.0,135.0)"/>
</svg>