<?xml version="1.0" encoding="UTF-8"?>
<svg height="200.0" version="1.1" width="88.0" xmlns="http://www.w3.org/2000/svg" xmlns:xlink="http://www.w3.org/1999/xlink">
 <path d="M0,0 l88,0 l0,200 l-88,0 Z M0,0" fill="rgb(255,255,255)" transform="matrix(1,0,0,-1,0.0,200.0)"/>
 <path d="M0,0 l88,0" fill="none" stroke="rgb(229,229,229)" stroke-width="2" transform="matrix(1,0,0,-1,0.0,135.0)"/>
 <path d="M0,1 l0,-5" fill="none" stroke="rgb(204,204,204)" stroke-width="2" transform="matrix(1,0,0,-1,7.0,135.0)"/>
 <path d="M0,1 l0,-5" fill="none" stroke="rgb(204,204,204)" stroke-width="2" transform="matrix(1,0,0,-1,79.0,135.0)"/>
 <path d="M749,-63 l-31,51 c-27,-19,-67,-33,-109,-33 c-38,0,-60,15,-60,42 c0,39,50,55,113,73 l-19,51 c-16,-6,-42,-12,-68,-12 c-34,0,-56,13,-56,37 c0,51,103,85,103,177 c0,60,-34,110,-98,128 l0,127 l215,0 l0,64 l-761,0 l0,-64 l472,0 l0,-123 c-49,-7,-92,-38,-107,-82 l-4,0 c-15,46,-55,79,-123,79 c-81,0,-159,-62,-159,-180 c0,-126,80,-228,177,-278 l50,54 c-103,51,-150,133,-150,222 c0,80,41,114,90,114 c50,0,81,-32,81,-97 l0,-81 l73,0 l0,82 c0,68,47,100,95,100 c42,0,74,-25,74,-63 c0,-70,-105,-107,-105,-181 c0,-56,42,-77,84,-78 l1,-3 c-28,-13,-49,-41,-49,-74 c0,-63,58,-94,133,-94 c46,0,102,15,138,42 Z M749,-63" fill="rgb(0,0,0)" transform="matrix(0.1,0.0,0.0,-0.1,7.0,135.0)"/>
</svg>