<?xml version="1.0" encoding="UTF-8"?>
<svg height="200.0" version="1.1" width="70.0" xmlns="http://www.w3.org/2000/svg" xmlns:xlink="http://www.w3.org/1999/xlink">
 <path d="M0,0 l70,0 l0,200 l-70,0 Z M0,0" fill="rgb(255,255,255)" transform="matrix(1,0,0,-1,0.0,200.0)"/>
 <path d="M0,0 l70,0" fill="none" stroke="rgb(229,229,229)" stroke-width="2" transform="matrix(1,0,0,-1,0.0,135.0)"/>
 <path d="M0,1 l0,-5" fill="none" stroke="rgb(204,204,204)" stroke-width="2" transform="matrix(1,0,0,-1,7.0,135.0)"/>
 <path d="M0,1 l0,-5" fill="none" stroke="rgb(204,204,204)" stroke-width="2" transform="matrix(1,0,0,-1,62.0,135.0)"/>
 <path d="M382,101 l-221,191 l0,286 l222,0 l0,-168 c0,-56,-26,-81,-69,-99 l58,-50 c58,29,86,73,86,148 l0,169 l112,0 l0,64 l-112,0 c-3,69,-31,103,-90,127 l-154,62 c-43,17,-72,33,-69,81 l-73,1 c-5,-75,34,-114,95,-137 l154,-60 c39,-15,59,-28,62,-74 l-405,0 l0,-64 l108,0 l0,-317 l254,-219 c23,-19,37,-39,37,-64 c0,-29,-16,-55,-34,-75 l0,-5 l81,0 c16,21,29,52,29,83 c0,46,-25,79,-71,120 Z M382,101" fill="rgb(0,0,0)" transform="matrix(0.1,0.0,0.0,-0.1,7.0,135.0)"/>
</svg>