<?xml version="1.0" encoding="UTF-8"?>
<svg height="200.0" version="1.1" width="84.0" xmlns="http://www.w3.org/2000/svg" xmlns:xlink="http://www.w3.org/1999/xlink">
 <path d="M0,0 l84,0 l0,200 l-84,0 Z M0,0" fill="rgb(255,255,255)" transform="matrix(1,0,0,-1,0.0,200.0)"/>
 <path d="M0,0 l84,0" fill="none" stroke="rgb(229,229,229)" stroke-width="2" transform="matrix(1,0,0,-1,0.0,135.0)"/>
 <path d="M0,1 l0,-5" fill="none" stroke="rgb(204,204,204)" stroke-width="2" transform="matrix(1,0,0,-1,5.0,135.0)"/>
 <path d="M0,1 l0,-5" fill="none" stroke="rgb(204,204,204)" stroke-width="2" transform="matrix(1,0,0,-1,78.0,135.0)"/>
 <path d="M747,642 l-121,0 l0,165 l-75,0 l0,-165 l-108,0 l0,-64 l107,0 l0,-246 c-18,-11,-46,-21,-86,-21 c-40,0,-71,11,-95,25 c-18,16,-39,27,-59,32 l0,4 c32,16,71,60,71,122 c0,83,-60,149,-161,149 c-66,0,-115,-29,-142,-64 l53,-48 c17,24,44,44,87,44 c54,0,87,-34,87,-86 c0,-60,-42,-97,-104,-97 l-31,0 l0,-67 l54,0 c71,0,110,-33,110,-89 c0,-56,-37,-102,-112,-102 c-62,0,-104,33,-128,61 l-52,-52 c32,-33,93,-76,180,-76 c116,0,188,75,188,170 c0,9,-1,17,-2,25 c21,-10,46,-16,75,-16 c29,0,51,7,67,14 l0,-260 l76,0 l0,578 l121,0 Z M747,642" fill="rgb(0,0,0)" transform="matrix(0.1,0.0,0.0,-0.1,5.0,135.0)"/>
</svg>