<?xml version="1.0" encoding="UTF-8"?>
<svg height="200.0" version="1.1" width="60.0" xmlns="http://www.w3.org/2000/svg" xmlns:xlink="http://www.w3.org/1999/xlink">
 <path d="M0,0 l60,0 l0,200 l-60,0 Z M0,0" fill="rgb(255,255,255)" transform="matrix(1,0,0,-1,0.0,200.0)"/>
 <path d="M0,0 l60,0" fill="none" stroke="rgb(229,229,229)" stroke-width="2" transform="matrix(1,0,0,-1,0.0,135.0)"/>
 <path d="M0,-4 l0,8" fill="none" stroke="rgb(255,76,25)" stroke-width="2" transform="matrix(1,0,0,-1,54.0,135.0)"/>
 <path d="M-427,-68 l-58,-52 c51,-67,152,-170,305,-170 c139,0,193,86,193,162 c0,89,-67,145,-154,145 c-65,0,-110,-27,-141,-66 l55,-46 c15,23,41,45,84,45 c46,0,78,-34,78,-78 c0,-64,-53,-95,-114,-95 c-110,0,-193,74,-248,155 Z M-427,-68" fill="rgb(0,0,0)" transform="matrix(0.1,0.0,0.0,-0.1,54.0,135.0)"/>
</svg>