<?xml version="1.0" encoding="UTF-8"?>
<svg height="200.0" version="1.1" width="54.0" xmlns="http://www.w3.org/2000/svg" xmlns:xlink="http://www.w3.org/1999/xlink">
 <path d="M0,0 l54,0 l0,200 l-54,0 Z M0,0" fill="rgb(255,255,255)" transform="matrix(1,0,0,-1,0.0,200.0)"/>
 <path d="M0,0 l54,0" fill="none" stroke="rgb(229,229,229)" stroke-width="2" transform="matrix(1,0,0,-1,0.0,135.0)"/>
 <path d="M0,-4 l0,8" fill="none" stroke="rgb(255,76,25)" stroke-width="2" transform="matrix(1,0,0,-1,35.0,135.0)"/>
 <path d="M144,-258 c-24,119,-119,273,-277,273 c-94,0,-166,-61,-166,-147 c0,-77,57,-140,145,-140 c15,0,39,1,58,10 l0,69 c-16,-7,-30,-12,-52,-12 c-46,0,-74,34,-74,74 c0,46,37,79,88,79 c96,0,178,-94,205,-227 Z M144,-258" fill="rgb(0,0,0)" transform="matrix(0.1,0.0,0.0,-0.1,35.0,135.0)"/>
</svg>