<?xml version="1.0" encoding="UTF-8"?>
<svg height="200.0" version="1.1" width="40.0" xmlns="http://www.w3.org/2000/svg" xmlns:xlink="http://www.w3.org/1999/xlink">
 <path d="M0,0 l40,0 l0,200 l-40,0 Z M0,0" fill="rgb(255,255,255)" transform="matrix(1,0,0,-1,0.0,200.0)"/>
 <path d="M0,0 l40,0" fill="none" stroke="rgb(229,229,229)" stroke-width="2" transform="matrix(1,0,0,-1,0.0,135.0)"/>
 <path d="M0,-4 l0,8" fill="none" stroke="rgb(255,76,25)" stroke-width="2" transform="matrix(1,0,0,-1,35.0,135.0)"/>
 <path d="M-34,-144 c-23,-16,-61,-29,-101,-29 c-59,0,-88,29,-88,71 c0,49,44,78,124,87 l0,15 l-10,45 c-106,-7,-187,-59,-187,-147 c0,-85,65,-136,158,-136 c55,0,101,15,133,34 Z M-34,-144" fill="rgb(0,0,0)" transform="matrix(0.1,0.0,0.0,-0.1,35.0,135.0)"/>
</svg>