<?xml version="1.0" encoding="UTF-8"?>
<svg height="200.0" version="1.1" width="40.0" xmlns="http://www.w3.org/2000/svg" xmlns:xlink="http://www.w3.org/1999/xlink">
 <path d="M0,0 l40,0 l0,200 l-40,0 Z M0,0" fill="rgb(255,255,255)" transform="matrix(1,0,0,-1,0.0,200.0)"/>
 <path d="M0,0 l40,0" fill="none" stroke="rgb(229,229,229)" stroke-width="2" transform="matrix(1,0,0,-1,0.0,135.0)"/>
 <path d="M0,-4 l0,8" fill="none" stroke="rgb(255,76,25)" stroke-width="2" transform="matrix(1,0,0,-1,35.0,135.0)"/>
 <path d="M-91,-123 c-15,-3,-35,-5,-54,-5 c-43,0,-80,14,-80,52 c0,38,41,60,126,60 l0,16 l-9,44 c-107,2,-189,-41,-189,-115 c0,-60,49,-88,86,-91 c-37,-9,-74,-36,-74,-86 c0,-74,68,-108,150,-108 c53,0,108,14,145,38 l-28,58 c-25,-21,-75,-34,-119,-34 c-49,0,-77,19,-77,49 c0,36,37,60,134,66 Z M-91,-123" fill="rgb(0,0,0)" transform="matrix(0.1,0.0,0.0,-0.1,35.0,135.0)"/>
</svg>