<?xml version="1.0" encoding="UTF-8"?>
<svg height="200.0" version="1.1" width="68.0" xmlns="http://www.w3.org/2000/svg" xmlns:xlink="http://www.w3.org/1999/xlink">
 <path d="M0,0 l68,0 l0,200 l-68,0 Z M0,0" fill="rgb(255,255,255)" transform="matrix(1,0,0,-1,0.0,200.0)"/>
 <path d="M0,0 l68,0" fill="none" stroke="rgb(229,229,229)" stroke-width="2" transform="matrix(1,0,0,-1,0.0,135.0)"/>
 <path d="M0,-4 l0,8" fill="none" stroke="rgb(255,76,25)" stroke-width="2" transform="matrix(1,0,0,-1,45.0,135.0)"/>
 <path d="M-79,-375 c0,-64,50,-111,141,-111 c44,0,88,11,122,37 l-30,53 c-28,-21,-59,-31,-91,-31 c-50,0,-72,17,-72,52 c0,66,112,101,112,195 c0,66,-51,123,-128,123 c-66,0,-102,-37,-114,-69 l-4,0 c-13,36,-51,69,-110,69 c-80,0,-142,-59,-142,-157 c0,-87,50,-153,100,-185 l46,47 c-42,32,-75,76,-75,138 c0,60,32,93,75,93 c46,0,74,-28,74,-93 l0,-30 l67,0 l0,30 c0,68,38,93,79,93 c39,0,65,-22,65,-61 c0,-61,-115,-105,-115,-193 Z M-79,-375" fill="rgb(0,0,0)" transform="matrix(0.1,0.0,0.0,-0.1,45.0,135.0)"/>
</svg>