<?xml version="1.0" encoding="UTF-8"?>
<svg height="200.0" version="1.1" width="74.0" xmlns="http://www.w3.org/2000/svg" xmlns:xlink="http://www.w3.org/1999/xlink">
 <path d="M0,0 l74,0 l0,200 l-74,0 Z M0,0" fill="rgb(255,255,255)" transform="matrix(1,0,0,-1,0.0,200.0)"/>
 <path d="M0,0 l74,0" fill="none" stroke="rgb(229,229,229)" stroke-width="2" transform="matrix(1,0,0,-1,0.0,135.0)"/>
 <path d="M0,-4 l0,8" fill="none" stroke="rgb(255,76,25)" stroke-width="2" transform="matrix(1,0,0,-1,45.0,135.0)"/>
 <path d="M126,-447 c-41,0,-63,12,-63,38 c0,36,38,49,95,61 l-13,49 c-12,-4,-37,-9,-56,-9 c-32,0,-52,9,-52,30 c0,40,61,59,60,118 c0,59,-47,103,-120,103 c-64,0,-104,-40,-116,-69 l-4,0 c-13,35,-50,69,-110,69 c-79,0,-142,-59,-142,-157 c0,-87,50,-153,100,-185 l47,47 c-43,32,-75,76,-75,138 c0,60,31,93,74,93 c47,0,75,-28,75,-93 l0,-30 l66,0 l0,29 c0,59,39,95,83,95 c32,0,52,-17,52,-45 c0,-34,-53,-59,-53,-111 c0,-41,29,-65,66,-67 l0,-3 c-28,-14,-41,-38,-41,-67 c0,-54,47,-89,126,-89 c46,0,83,10,125,38 l-28,49 c-26,-18,-62,-32,-96,-32 Z M126,-447" fill="rgb(0,0,0)" transform="matrix(0.1,0.0,0.0,-0.1,45.0,135.0)"/>
</svg>