<?xml version="1.0" encoding="UTF-8"?>
<svg height="200.0" version="1.1" width="52.0" xmlns="http://www.w3.org/2000/svg" xmlns:xlink="http://www.w3.org/1999/xlink">
 <path d="M0,0 l52,0 l0,200 l-52,0 Z M0,0" fill="rgb(255,255,255)" transform="matrix(1,0,0,-1,0.0,200.0)"/>
 <path d="M0,0 l52,0" fill="none" stroke="rgb(229,229,229)" stroke-width="2" transform="matrix(1,0,0,-1,0.0,135.0)"/>
 <path d="M0,-4 l0,8" fill="none" stroke="rgb(255,76,25)" stroke-width="2" transform="matrix(1,0,0,-1,46.0,135.0)"/>
 <path d="M-105,638 l-220,272 l-86,-20 l82,-94 c39,-45,114,-124,163,-164 l5,-4 Z M-105,638" fill="rgb(0,0,0)" transform="matrix(0.1,0.0,0.0,-0.1,46.0,135.0)"/>
</svg>