<?xml version="1.0" encoding="UTF-8"?>
<svg height="200.0" version="1.1" width="58.0" xmlns="http://www.w3.org/2000/svg" xmlns:xlink="http://www.w3.org/1999/xlink">
 <path d="M0,0 l58,0 l0,200 l-58,0 Z M0,0" fill="rgb(255,255,255)" transform="matrix(1,0,0,-1,0.0,200.0)"/>
 <path d="M0,0 l58,0" fill="none" stroke="rgb(229,229,229)" stroke-width="2" transform="matrix(1,0,0,-1,0.0,135.0)"/>
 <path d="M0,-4 l0,8" fill="none" stroke="rgb(255,76,25)" stroke-width="2" transform="matrix(1,0,0,-1,54.0,135.0)"/>
 <path d="M-99,632 c0,76,-28,112,-90,137 l-154,62 c-43,17,-72,33,-69,81 l-73,1 c-5,-75,34,-114,95,-137 l154,-60 c42,-16,62,-30,62,-84 Z M-99,632" fill="rgb(0,0,0)" transform="matrix(0.1,0.0,0.0,-0.1,54.0,135.0)"/>
</svg>