<?xml version="1.0" encoding="UTF-8"?>
<svg height="200.0" version="1.1" width="58.0" xmlns="http://www.w3.org/2000/svg" xmlns:xlink="http://www.w3.org/1999/xlink">
 <path d="M0,0 l58,0 l0,200 l-58,0 Z M0,0" fill="rgb(255,255,255)" transform="matrix(1,0,0,-1,0.0,200.0)"/>
 <path d="M0,0 l58,0" fill="none" stroke="rgb(229,229,229)" stroke-width="2" transform="matrix(1,0,0,-1,0.0,135.0)"/>
 <path d="M0,1 l0,-5" fill="none" stroke="rgb(204,204,204)" stroke-width="2" transform="matrix(1,0,0,-1,24.0,135.0)"/>
 <path d="M0,1 l0,-5" fill="none" stroke="rgb(204,204,204)" stroke-width="2" transform="matrix(1,0,0,-1,51.0,135.0)"/>
 <path d="M-49,781 c-45,20,-70,39,-69,86 l-75,0 c-3,-68,39,-109,99,-132 c78,-31,166,-43,193,-93 l-121,0 l0,-64 l121,0 l0,-578 l75,0 l0,578 l121,0 l0,64 l-121,0 l0,9 c0,107,-110,143,-110,247 c0,15,4,32,4,34 l-71,0 c-1,-2,-4,-18,-4,-33 c0,-123,139,-157,145,-250 l-5,0 c-24,80,-99,95,-182,132 Z M-49,781" fill="rgb(0,0,0)" transform="matrix(0.1,0.0,0.0,-0.1,24.0,135.0)"/>
</svg>