<?xml version="1.0" encoding="UTF-8"?>
<svg height="200.0" version="1.1" width="84.0" xmlns="http://www.w3.org/2000/svg" xmlns:xlink="http://www.w3.org/1999/xlink">
 <path d="M0,0 l84,0 l0,200 l-84,0 Z M0,0" fill="rgb(255,255,255)" transform="matrix(1,0,0,-1,0.0,200.0)"/>
 <path d="M0,0 l84,0" fill="none" stroke="rgb(229,229,229)" stroke-width="2" transform="matrix(1,0,0,-1,0.0,135.0)"/>
 <path d="M0,1 l0,-5" fill="none" stroke="rgb(204,204,204)" stroke-width="2" transform="matrix(1,0,0,-1,7.0,135.0)"/>
 <path d="M0,1 l0,-5" fill="none" stroke="rgb(204,204,204)" stroke-width="2" transform="matrix(1,0,0,-1,77.0,135.0)"/>
 <path d="M154,391 c19,12,47,21,79,20 c62,-2,107,-42,107,-113 c0,-79,-58,-122,-122,-122 c-80,0,-127,48,-158,97 l-52,-53 c33,-52,104,-115,209,-115 c107,0,189,70,199,173 c23,-6,49,-8,74,-9 c13,0,25,0,37,2 l0,-271 l75,0 l0,578 l121,0 l0,64 l-745,0 l0,-64 l549,0 l0,-236 c-16,-2,-33,-3,-48,-3 c-23,0,-46,2,-67,6 c-19,85,-89,137,-182,137 c-48,-1,-81,-14,-104,-27 Z M154,391" fill="rgb(0,0,0)" transform="matrix(0.1,0.0,0.0,-0.1,7.0,135.0)"/>
</svg>