<?xml version="1.0" encoding="UTF-8"?>
<svg height="200.0" version="1.1" width="76.0" xmlns="http://www.w3.org/2000/svg" xmlns:xlink="http://www.w3.org/1999/xlink">
 <path d="M0,0 l76,0 l0,200 l-76,0 Z M0,0" fill="rgb(255,255,255)" transform="matrix(1,0,0,-1,0.0,200.0)"/>
 <path d="M0,0 l76,0" fill="none" stroke="rgb(229,229,229)" stroke-width="2" transform="matrix(1,0,0,-1,0.0,135.0)"/>
 <path d="M0,1 l0,-5" fill="none" stroke="rgb(204,204,204)" stroke-width="2" transform="matrix(1,0,0,-1,5.0,135.0)"/>
 <path d="M0,1 l0,-5" fill="none" stroke="rgb(204,204,204)" stroke-width="2" transform="matrix(1,0,0,-1,70.0,135.0)"/>
 <path d="M546,0 l0,578 l121,0 l0,64 l-196,0 l0,-276 c0,-102,-61,-193,-188,-193 c-115,0,-156,94,-161,135 c20,5,39,10,59,16 c127,35,194,96,194,188 c0,81,-56,140,-144,140 c-85,0,-144,-59,-144,-130 c0,-39,17,-69,32,-84 l71,21 c-16,14,-28,39,-28,60 c0,41,29,65,69,65 c43,0,69,-28,69,-70 c0,-55,-26,-96,-167,-136 l-101,-28 c8,-138,98,-246,246,-246 c103,0,165,51,189,88 l4,0 l0,-192 Z M546,0" fill="rgb(0,0,0)" transform="matrix(0.1,0.0,0.0,-0.1,5.0,135.0)"/>
</svg>