<?xml version="1.0" encoding="UTF-8"?>
<svg height="200.0" version="1.1" width="66.0" xmlns="http://www.w3.org/2000/svg" xmlns:xlink="http://www.w3.org/1999/xlink">
 <path d="M0,0 l66,0 l0,200 l-66,0 Z M0,0" fill="rgb(255,255,255)" transform="matrix(1,0,0,-1,0.0,200.0)"/>
 <path d="M0,0 l66,0" fill="none" stroke="rgb(229,229,229)" stroke-width="2" transform="matrix(1,0,0,-1,0.0,135.0)"/>
 <path d="M0,1 l0,-5" fill="none" stroke="rgb(204,204,204)" stroke-width="2" transform="matrix(1,0,0,-1,7.0,135.0)"/>
 <path d="M0,1 l0,-5" fill="none" stroke="rgb(204,204,204)" stroke-width="2" transform="matrix(1,0,0,-1,58.0,135.0)"/>
 <path d="M410,56 c25,23,48,59,48,106 c0,71,-53,137,-164,137 c-33,0,-63,-5,-89,-15 c-33,19,-57,51,-57,83 c0,26,15,47,62,47 l213,0 l0,164 l106,0 l0,64 l-551,0 l0,-64 l372,0 l0,-99 l-157,0 c-78,0,-121,-43,-121,-102 c0,-55,33,-100,73,-125 c-41,-31,-64,-75,-64,-122 c0,-126,121,-199,315,-213 l32,65 c-203,11,-270,73,-270,146 c0,59,54,104,138,104 c59,0,88,-30,88,-67 c0,-27,-15,-51,-40,-71 Z M410,56" fill="rgb(0,0,0)" transform="matrix(0.1,0.0,0.0,-0.1,7.0,135.0)"/>
</svg>