<?xml version="1.0" encoding="UTF-8"?>
<svg height="200.0" version="1.1" width="94.0" xmlns="http://www.w3.org/2000/svg" xmlns:xlink="http://www.w3.org/1999/xlink">
 <path d="M0,0 l94,0 l0,200 l-94,0 Z M0,0" fill="rgb(255,255,255)" transform="matrix(1,0,0,-1,0.0,200.0)"/>
 <path d="M0,0 l94,0" fill="none" stroke="rgb(229,229,229)" stroke-width="2" transform="matrix(1,0,0,-1,0.0,135.0)"/>
 <path d="M0,1 l0,-5" fill="none" stroke="rgb(204,204,204)" stroke-width="2" transform="matrix(1,0,0,-1,7.0,135.0)"/>
 <path d="M0,1 l0,-5" fill="none" stroke="rgb(204,204,204)" stroke-width="2" transform="matrix(1,0,0,-1,86.0,135.0)"/>
 <path d="M621,131 l0,-131 l72,0 l0,578 l121,0 l0,64 l-836,0 l0,-64 l258,0 l0,-166 c0,-43,-21,-59,-50,-59 c-37,0,-56,20,-69,45 l-66,-23 c20,-196,136,-346,334,-346 c109,0,189,49,232,102 Z M616,459 c-18,18,-46,34,-97,34 c-85,0,-154,-64,-154,-154 c0,-93,72,-145,141,-150 l40,53 c-68,3,-110,42,-110,96 c0,53,38,89,91,89 c50,0,96,-39,96,-110 c0,-139,-109,-221,-236,-221 c-120,0,-216,75,-244,206 c12,-6,28,-11,55,-11 c63,0,112,44,112,124 l0,163 l310,0 l0,-119 Z M83,-14 c0,-27,20,-48,48,-48 c28,0,48,21,48,48 c0,28,-20,49,-48,49 c-28,0,-48,-21,-48,-49 Z M83,-14" fill="rgb(0,0,0)" transform="matrix(0.1,0.0,0.0,-0.1,7.0,135.0)"/>
</svg>