<?xml version="1.0" encoding="UTF-8"?>
<svg height="200.0" version="1.1" width="92.0" xmlns="http://www.w3.org/2000/svg" xmlns:xlink="http://www.w3.org/1999/xlink">
 <path d="M0,0 l92,0 l0,200 l-92,0 Z M0,0" fill="rgb(255,255,255)" transform="matrix(1,0,0,-1,0.0,200.0)"/>
 <path d="M0,0 l92,0" fill="none" stroke="rgb(229,229,229)" stroke-width="2" transform="matrix(1,0,0,-1,0.0,135.0)"/>
 <path d="M0,1 l0,-5" fill="none" stroke="rgb(204,204,204)" stroke-width="2" transform="matrix(1,0,0,-1,7.0,135.0)"/>
 <path d="M0,1 l0,-5" fill="none" stroke="rgb(204,204,204)" stroke-width="2" transform="matrix(1,0,0,-1,84.0,135.0)"/>
 <path d="M795,578 l0,64 l-817,0 l0,-64 l359,0 l0,-101 l-149,0 c-72,0,-115,-42,-115,-103 c0,-78,58,-143,129,-165 l156,32 c12,-8,28,-27,28,-60 c0,-66,-67,-96,-136,-96 l-34,0 l-130,89 c-14,-8,-28,-26,-28,-52 c0,-47,45,-96,149,-99 l157,-142 l82,43 l-158,104 l0,4 c84,2,170,52,170,150 c0,17,-2,32,-6,45 c22,-7,47,-12,73,-12 c29,0,54,3,75,10 l0,-225 l74,0 l0,578 Z M383,314 l-169,-35 c-35,9,-64,43,-64,78 c0,32,14,55,73,55 l188,0 l0,166 l189,0 l0,-280 c-22,-10,-53,-17,-88,-17 c-43,0,-84,10,-110,21 c-7,5,-13,9,-19,12 Z M66,-85 c0,-27,20,-48,48,-48 c28,0,48,21,48,48 c0,28,-20,49,-48,49 c-28,0,-48,-21,-48,-49 Z M66,-85" fill="rgb(0,0,0)" transform="matrix(0.1,0.0,0.0,-0.1,7.0,135.0)"/>
</svg>