<?xml version="1.0" encoding="UTF-8"?>
<svg height="200.0" version="1.1" width="42.0" xmlns="http://www.w3.org/2000/svg" xmlns:xlink="http://www.w3.org/1999/xlink">
 <path d="M0,0 l42,0 l0,200 l-42,0 Z M0,0" fill="rgb(255,255,255)" transform="matrix(1,0,0,-1,0.0,200.0)"/>
 <path d="M0,0 l42,0" fill="none" stroke="rgb(229,229,229)" stroke-width="2" transform="matrix(1,0,0,-1,0.0,135.0)"/>
 <path d="M0,-4 l0,8" fill="none" stroke="rgb(255,76,25)" stroke-width="2" transform="matrix(1,0,0,-1,37.0,135.0)"/>
 <path d="M-321,-109 c0,-27,20,-48,48,-48 c28,0,48,21,48,48 c0,28,-20,49,-48,49 c-28,0,-48,-21,-48,-49 Z M-321,-109" fill="rgb(0,0,0)" transform="matrix(0.1,0.0,0.0,-0.1,37.0,135.0)"/>
</svg>