<?xml version="1.0" encoding="UTF-8"?>
<svg height="200.0" version="1.1" width="60.0" xmlns="http://www.w3.org/2000/svg" xmlns:xlink="http://www.w3.org/1999/xlink">
 <path d="M0,0 l60,0 l0,200 l-60,0 Z M0,0" fill="rgb(255,255,255)" transform="matrix(1,0,0,-1,0.0,200.0)"/>
 <path d="M0,0 l60,0" fill="none" stroke="rgb(229,229,229)" stroke-width="2" transform="matrix(1,0,0,-1,0.0,135.0)"/>
 <path d="M0,1 l0,-5" fill="none" stroke="rgb(204,204,204)" stroke-width="2" transform="matrix(1,0,0,-1,5.0,135.0)"/>
 <path d="M0,1 l0,-5" fill="none" stroke="rgb(204,204,204)" stroke-width="2" transform="matrix(1,0,0,-1,54.0,135.0)"/>
 <path d="M238,107 c-72,0,-130,32,-165,65 l-47,-62 c32,-27,107,-74,210,-74 c133,0,202,74,202,168 c0,100,-71,140,-153,180 c-76,38,-128,64,-128,117 c0,44,34,72,95,72 l158,0 l0,69 l-164,0 c-99,0,-167,-55,-167,-141 c0,-94,74,-133,142,-166 c84,-40,140,-65,140,-132 c0,-55,-40,-96,-123,-96 Z M238,107" fill="rgb(0,0,0)" transform="matrix(0.1,0.0,0.0,-0.1,5.0,135.0)"/>
</svg>