<?xml version="1.0" encoding="UTF-8"?>
<svg height="200.0" version="1.1" width="50.0" xmlns="http://www.w3.org/2000/svg" xmlns:xlink="http://www.w3.org/1999/xlink">
 <path d="M0,0 l50,0 l0,200 l-50,0 Z M0,0" fill="rgb(255,255,255)" transform="matrix(1,0,0,-1,0.0,200.0)"/>
 <path d="M0,0 l50,0" fill="none" stroke="rgb(229,229,229)" stroke-width="2" transform="matrix(1,0,0,-1,0.0,135.0)"/>
 <path d="M0,-4 l0,8" fill="none" stroke="rgb(255,76,25)" stroke-width="2" transform="matrix(1,0,0,-1,39.0,135.0)"/>
 <path d="M-136,1033 c-109,0,-172,-56,-205,-122 l59,-31 c25,48,73,86,146,86 c73,0,121,-38,145,-86 l59,31 c-33,66,-96,122,-204,122 Z M-188,808 c0,-31,22,-53,51,-53 c30,0,52,22,52,53 c0,28,-22,50,-52,50 c-29,0,-51,-22,-51,-50 Z M-188,808" fill="rgb(0,0,0)" transform="matrix(0.1,0.0,0.0,-0.1,39.0,135.0)"/>
</svg>