<?xml version="1.0" encoding="UTF-8"?>
<svg height="200.0" version="1.1" width="132.0" xmlns="http://www.w3.org/2000/svg" xmlns:xlink="http://www.w3.org/1999/xlink">
 <path d="M0,0 l132,0 l0,200 l-132,0 Z M0,0" fill="rgb(255,255,255)" transform="matrix(1,0,0,-1,0.0,200.0)"/>
 <path d="M0,0 l132,0" fill="none" stroke="rgb(229,229,229)" stroke-width="2" transform="matrix(1,0,0,-1,0.0,135.0)"/>
 <path d="M0,1 l0,-5" fill="none" stroke="rgb(204,204,204)" stroke-width="2" transform="matrix(1,0,0,-1,5.0,135.0)"/>
 <path d="M0,1 l0,-5" fill="none" stroke="rgb(204,204,204)" stroke-width="2" transform="matrix(1,0,0,-1,127.0,135.0)"/>
 <path d="M927,114 c-62,0,-106,49,-128,110 c3,5,5,9,8,14 c52,90,88,169,146,169 c51,0,92,-46,92,-120 c0,-104,-53,-173,-118,-173 Z M378,330 l0,4 c34,19,72,59,72,127 c0,90,-68,152,-163,152 c-69,0,-120,-30,-149,-66 l51,-48 c19,23,46,46,94,46 c57,0,91,-36,91,-87 c0,-72,-51,-103,-149,-111 l12,-69 l40,5 c6,1,17,2,23,2 c67,0,103,-42,103,-92 c0,-54,-36,-105,-114,-105 c-77,0,-118,50,-138,82 l-60,-48 c30,-45,93,-105,195,-105 c108,0,168,63,181,125 c19,-34,61,-80,132,-80 c71,0,120,44,160,99 c28,-59,82,-115,178,-115 c117,0,183,123,183,230 c0,130,-74,201,-172,201 c-102,0,-149,-109,-204,-207 c-44,-76,-83,-139,-151,-139 c-72,0,-92,57,-119,110 c-22,42,-49,77,-96,89 Z M694,543 c109,0,179,58,211,124 l-59,29 c-25,-47,-79,-85,-152,-85 c-73,0,-124,39,-150,86 l-60,-30 c32,-66,101,-124,210,-124 Z M643,770 c0,-28,24,-51,54,-51 c31,0,54,23,54,51 c0,33,-23,56,-54,56 c-30,0,-54,-23,-54,-56 Z M643,770" fill="rgb(0,0,0)" transform="matrix(0.1,0.0,0.0,-0.1,5.0,135.0)"/>
</svg>