<?xml version="1.0" encoding="UTF-8"?>
<svg height="200.0" version="1.1" width="36.0" xmlns="http://www.w3.org/2000/svg" xmlns:xlink="http://www.w3.org/1999/xlink">
 <path d="M0,0 l36,0 l0,200 l-36,0 Z M0,0" fill="rgb(255,255,255)" transform="matrix(1,0,0,-1,0.0,200.0)"/>
 <path d="M0,0 l36,0" fill="none" stroke="rgb(229,229,229)" stroke-width="2" transform="matrix(1,0,0,-1,0.0,135.0)"/>
 <path d="M0,-4 l0,8" fill="none" stroke="rgb(255,76,25)" stroke-width="2" transform="matrix(1,0,0,-1,18.0,135.0)"/>
 <path d="M129,593 l-96,95 l96,96 l-32,32 l-96,-95 l-95,95 l-33,-33 l95,-95 l-93,-93 l33,-33 l69,73 l0,-865 l47,0 l0,865 l72,-75 Z M129,593" fill="rgb(0,0,0)" transform="matrix(0.1,0.0,0.0,-0.1,18.0,135.0)"/>
</svg>