<?xml version="1.0" encoding="UTF-8"?>
<svg height="200.0" version="1.1" width="58.0" xmlns="http://www.w3.org/2000/svg" xmlns:xlink="http://www.w3.org/1999/xlink">
 <path d="M0,0 l58,0 l0,200 l-58,0 Z M0,0" fill="rgb(255,255,255)" transform="matrix(1,0,0,-1,0.0,200.0)"/>
 <path d="M0,0 l58,0" fill="none" stroke="rgb(229,229,229)" stroke-width="2" transform="matrix(1,0,0,-1,0.0,135.0)"/>
 <path d="M0,1 l0,-5" fill="none" stroke="rgb(204,204,204)" stroke-width="2" transform="matrix(1,0,0,-1,7.0,135.0)"/>
 <path d="M0,1 l0,-5" fill="none" stroke="rgb(204,204,204)" stroke-width="2" transform="matrix(1,0,0,-1,39.0,135.0)"/>
 <path d="M256,189 c116,0,172,64,206,122 l-49,46 c-3,-5,-6,-10,-9,-16 l-244,237 l180,0 l0,64 l-362,0 l0,-64 l108,0 l0,-225 c0,-108,75,-164,170,-164 Z M267,255 c-63,0,-108,30,-108,106 l0,58 l-3,94 l64,-67 l152,-146 c-25,-25,-59,-45,-105,-45 Z M267,255" fill="rgb(0,0,0)" transform="matrix(0.1,0.0,0.0,-0.1,7.0,135.0)"/>
</svg>