<?xml version="1.0" encoding="UTF-8"?>
<svg height="200.0" version="1.1" width="78.0" xmlns="http://www.w3.org/2000/svg" xmlns:xlink="http://www.w3.org/1999/xlink">
 <path d="M0,0 l78,0 l0,200 l-78,0 Z M0,0" fill="rgb(255,255,255)" transform="matrix(1,0,0,-1,0.0,200.0)"/>
 <path d="M0,0 l78,0" fill="none" stroke="rgb(229,229,229)" stroke-width="2" transform="matrix(1,0,0,-1,0.0,135.0)"/>
 <path d="M0,1 l0,-5" fill="none" stroke="rgb(204,204,204)" stroke-width="2" transform="matrix(1,0,0,-1,7.0,135.0)"/>
 <path d="M0,1 l0,-5" fill="none" stroke="rgb(204,204,204)" stroke-width="2" transform="matrix(1,0,0,-1,61.0,135.0)"/>
 <path d="M66,-85 c0,-27,20,-48,48,-48 c28,0,48,21,48,48 c0,28,-20,49,-48,49 c-28,0,-48,-21,-48,-49 Z M642,317 c-21,-16,-69,-36,-129,-36 c-45,0,-84,9,-110,19 c-7,6,-14,11,-20,14 l-168,-35 c-35,9,-64,43,-64,78 c0,32,13,55,72,55 l189,0 l0,166 l154,0 l0,64 l-588,0 l0,-64 l360,0 l0,-101 l-150,0 c-72,0,-115,-42,-115,-103 c0,-78,59,-143,130,-165 l155,32 c11,-8,28,-27,28,-60 c0,-66,-67,-96,-136,-96 l-33,0 l-131,89 c-14,-8,-28,-26,-28,-52 c0,-47,45,-96,149,-99 l157,-142 l82,43 l-155,104 l-3,2 c83,4,170,56,170,152 c0,17,-2,32,-6,45 c21,-6,46,-11,73,-11 c64,0,110,17,138,34 Z M642,317" fill="rgb(0,0,0)" transform="matrix(0.1,0.0,0.0,-0.1,7.0,135.0)"/>
</svg>