<?xml version="1.0" encoding="UTF-8"?>
<svg height="200.0" version="1.1" width="68.0" xmlns="http://www.w3.org/2000/svg" xmlns:xlink="http://www.w3.org/1999/xlink">
 <path d="M0,0 l68,0 l0,200 l-68,0 Z M0,0" fill="rgb(255,255,255)" transform="matrix(1,0,0,-1,0.0,200.0)"/>
 <path d="M0,0 l68,0" fill="none" stroke="rgb(229,229,229)" stroke-width="2" transform="matrix(1,0,0,-1,0.0,135.0)"/>
 <path d="M0,1 l0,-5" fill="none" stroke="rgb(204,204,204)" stroke-width="2" transform="matrix(1,0,0,-1,7.0,135.0)"/>
 <path d="M0,1 l0,-5" fill="none" stroke="rgb(204,204,204)" stroke-width="2" transform="matrix(1,0,0,-1,59.0,135.0)"/>
 <path d="M398,425 l0,153 l147,0 l0,64 l-567,0 l0,-64 l344,0 l0,-100 l-120,-30 c-103,-25,-155,-80,-155,-167 c0,-106,88,-209,229,-209 c35,0,70,7,97,20 l73,-132 l89,22 l-111,141 c18,16,35,43,35,83 c0,43,-28,71,-50,82 l-55,-20 l0,-102 c-17,-15,-49,-25,-88,-25 c-83,-1,-142,58,-142,131 c0,56,29,92,117,115 Z M72,-28 c0,-27,20,-48,48,-48 c28,0,48,21,48,48 c0,28,-20,49,-48,49 c-28,0,-48,-21,-48,-49 Z M555,-245 l-145,166 l-62,-24 l110,-146 l97,0 Z M555,-245" fill="rgb(0,0,0)" transform="matrix(0.1,0.0,0.0,-0.1,7.0,135.0)"/>
</svg>