<?xml version="1.0" encoding="UTF-8"?>
<svg height="200.0" version="1.1" width="92.0" xmlns="http://www.w3.org/2000/svg" xmlns:xlink="http://www.w3.org/1999/xlink">
 <path d="M0,0 l92,0 l0,200 l-92,0 Z M0,0" fill="rgb(255,255,255)" transform="matrix(1,0,0,-1,0.0,200.0)"/>
 <path d="M0,0 l92,0" fill="none" stroke="rgb(229,229,229)" stroke-width="2" transform="matrix(1,0,0,-1,0.0,135.0)"/>
 <path d="M0,1 l0,-5" fill="none" stroke="rgb(204,204,204)" stroke-width="2" transform="matrix(1,0,0,-1,7.0,135.0)"/>
 <path d="M0,1 l0,-5" fill="none" stroke="rgb(204,204,204)" stroke-width="2" transform="matrix(1,0,0,-1,85.0,135.0)"/>
 <path d="M355,178 l0,-178 l74,0 l0,275 c0,75,49,126,120,126 c62,0,105,-42,105,-104 c0,-69,-54,-116,-144,-102 l11,-69 c115,-14,211,55,211,172 c0,104,-78,171,-168,171 c-69,0,-111,-32,-131,-58 l-4,0 l0,167 l369,0 l0,64 l-820,0 l0,-64 l377,0 l0,-256 c0,-76,-49,-126,-118,-126 c-63,0,-107,43,-107,104 c0,69,54,116,145,102 l-12,69 c-114,14,-211,-57,-211,-169 c0,-99,73,-155,138,-160 l0,-4 l-142,-87 l61,-54 l242,181 Z M355,178" fill="rgb(0,0,0)" transform="matrix(0.1,0.0,0.0,-0.1,7.0,135.0)"/>
</svg>