<?xml version="1.0" encoding="UTF-8"?>
<svg height="200.0" version="1.1" width="94.0" xmlns="http://www.w3.org/2000/svg" xmlns:xlink="http://www.w3.org/1999/xlink">
 <path d="M0,0 l94,0 l0,200 l-94,0 Z M0,0" fill="rgb(255,255,255)" transform="matrix(1,0,0,-1,0.0,200.0)"/>
 <path d="M0,0 l94,0" fill="none" stroke="rgb(229,229,229)" stroke-width="2" transform="matrix(1,0,0,-1,0.0,135.0)"/>
 <path d="M0,1 l0,-5" fill="none" stroke="rgb(204,204,204)" stroke-width="2" transform="matrix(1,0,0,-1,7.0,135.0)"/>
 <path d="M0,1 l0,-5" fill="none" stroke="rgb(204,204,204)" stroke-width="2" transform="matrix(1,0,0,-1,87.0,135.0)"/>
 <path d="M621,132 l4,0 l0,-132 l72,0 l0,578 l121,0 l0,64 l-836,0 l0,-64 l258,0 l0,-162 c0,-42,-20,-59,-50,-59 c-37,0,-56,20,-68,46 l-65,-23 c29,-240,175,-323,282,-327 l0,-4 l-222,-65 l60,-64 l249,96 c121,48,168,86,195,116 Z M620,461 c-19,19,-47,35,-97,35 c-84,0,-155,-64,-155,-154 c0,-93,72,-145,141,-149 l39,53 c-68,3,-108,41,-108,95 c0,54,37,89,91,89 c52,0,98,-39,98,-112 c0,-144,-114,-215,-235,-215 c-118,0,-219,71,-245,205 c12,-6,28,-11,55,-11 c63,0,110,43,110,120 l0,161 l310,0 l0,-117 Z M620,461" fill="rgb(0,0,0)" transform="matrix(0.1,0.0,0.0,-0.1,7.0,135.0)"/>
</svg>