<?xml version="1.0" encoding="UTF-8"?>
<svg height="200.0" version="1.1" width="76.0" xmlns="http://www.w3.org/2000/svg" xmlns:xlink="http://www.w3.org/1999/xlink">
 <path d="M0,0 l76,0 l0,200 l-76,0 Z M0,0" fill="rgb(255,255,255)" transform="matrix(1,0,0,-1,0.0,200.0)"/>
 <path d="M0,0 l76,0" fill="none" stroke="rgb(229,229,229)" stroke-width="2" transform="matrix(1,0,0,-1,0.0,135.0)"/>
 <path d="M0,1 l0,-5" fill="none" stroke="rgb(204,204,204)" stroke-width="2" transform="matrix(1,0,0,-1,7.0,135.0)"/>
 <path d="M0,1 l0,-5" fill="none" stroke="rgb(204,204,204)" stroke-width="2" transform="matrix(1,0,0,-1,69.0,135.0)"/>
 <path d="M412,-144 l86,21 l-141,143 c83,21,133,85,133,159 c0,63,-34,115,-77,135 l-168,-34 c-36,10,-64,45,-64,79 c0,33,14,55,73,55 l182,0 l0,164 l208,0 l0,64 l-666,0 l0,-64 l384,0 l0,-99 l-144,0 c-72,0,-114,-43,-114,-105 c0,-76,57,-140,128,-165 l156,33 c20,-15,29,-37,29,-63 c0,-64,-51,-101,-124,-101 c-89,0,-159,58,-201,142 l-56,-41 c40,-76,103,-136,186,-158 l-143,-143 l86,-22 l124,146 Z M496,361 c0,-27,20,-48,48,-48 c28,0,49,21,49,48 c0,28,-21,49,-49,49 c-27,0,-48,-21,-48,-49 Z M496,361" fill="rgb(0,0,0)" transform="matrix(0.1,0.0,0.0,-0.1,7.0,135.0)"/>
</svg>