<?xml version="1.0" encoding="UTF-8"?>
<svg height="200.0" version="1.1" width="76.0" xmlns="http://www.w3.org/2000/svg" xmlns:xlink="http://www.w3.org/1999/xlink">
 <path d="M0,0 l76,0 l0,200 l-76,0 Z M0,0" fill="rgb(255,255,255)" transform="matrix(1,0,0,-1,0.0,200.0)"/>
 <path d="M0,0 l76,0" fill="none" stroke="rgb(229,229,229)" stroke-width="2" transform="matrix(1,0,0,-1,0.0,135.0)"/>
 <path d="M0,1 l0,-5" fill="none" stroke="rgb(204,204,204)" stroke-width="2" transform="matrix(1,0,0,-1,7.0,135.0)"/>
 <path d="M0,1 l0,-5" fill="none" stroke="rgb(204,204,204)" stroke-width="2" transform="matrix(1,0,0,-1,68.0,135.0)"/>
 <path d="M244,146 l-186,-104 l67,-58 l308,204 l4,0 l0,-188 l75,0 l0,578 l120,0 l0,64 l-654,0 l0,-64 l170,0 c26,-23,43,-59,43,-95 c0,-61,-52,-94,-143,-114 c13,-140,101,-212,196,-219 Z M134,334 c77,19,135,67,135,138 c0,44,-16,76,-40,102 l0,4 l209,0 l0,-299 c-16,-27,-72,-73,-148,-73 c-108,0,-147,74,-156,128 Z M134,334" fill="rgb(0,0,0)" transform="matrix(0.1,0.0,0.0,-0.1,7.0,135.0)"/>
</svg>