<?xml version="1.0" encoding="UTF-8"?>
<svg height="200.0" version="1.1" width="72.0" xmlns="http://www.w3.org/2000/svg" xmlns:xlink="http://www.w3.org/1999/xlink">
 <path d="M0,0 l72,0 l0,200 l-72,0 Z M0,0" fill="rgb(255,255,255)" transform="matrix(1,0,0,-1,0.0,200.0)"/>
 <path d="M0,0 l72,0" fill="none" stroke="rgb(229,229,229)" stroke-width="2" transform="matrix(1,0,0,-1,0.0,135.0)"/>
 <path d="M0,1 l0,-5" fill="none" stroke="rgb(204,204,204)" stroke-width="2" transform="matrix(1,0,0,-1,7.0,135.0)"/>
 <path d="M0,1 l0,-5" fill="none" stroke="rgb(204,204,204)" stroke-width="2" transform="matrix(1,0,0,-1,65.0,135.0)"/>
 <path d="M272,207 l-213,-176 l76,-42 l272,248 l4,0 l0,-237 l75,0 l0,578 l121,0 l0,64 l-629,0 l0,-64 l121,0 l0,-216 c0,-112,78,-157,173,-151 Z M280,268 c-63,0,-108,30,-108,100 l0,51 c0,64,-4,92,-4,92 c0,0,28,-29,67,-67 l148,-142 c-20,-19,-59,-34,-103,-34 Z M413,402 c0,-19,-2,-35,-7,-49 l-233,225 l240,0 Z M413,402" fill="rgb(0,0,0)" transform="matrix(0.1,0.0,0.0,-0.1,7.0,135.0)"/>
</svg>