<?xml version="1.0" encoding="UTF-8"?>
<svg height="200.0" version="1.1" width="88.0" xmlns="http://www.w3.org/2000/svg" xmlns:xlink="http://www.w3.org/1999/xlink">
 <path d="M0,0 l88,0 l0,200 l-88,0 Z M0,0" fill="rgb(255,255,255)" transform="matrix(1,0,0,-1,0.0,200.0)"/>
 <path d="M0,0 l88,0" fill="none" stroke="rgb(229,229,229)" stroke-width="2" transform="matrix(1,0,0,-1,0.0,135.0)"/>
 <path d="M0,1 l0,-5" fill="none" stroke="rgb(204,204,204)" stroke-width="2" transform="matrix(1,0,0,-1,7.0,135.0)"/>
 <path d="M0,1 l0,-5" fill="none" stroke="rgb(204,204,204)" stroke-width="2" transform="matrix(1,0,0,-1,80.0,135.0)"/>
 <path d="M645,-84 l86,21 l-150,151 c64,28,106,94,106,183 c0,105,-55,178,-138,191 l0,116 l206,0 l0,64 l-777,0 l0,-64 l497,0 l0,-119 c-48,-12,-79,-41,-101,-80 c-22,35,-67,83,-144,83 c-109,0,-179,-81,-179,-197 c0,-115,63,-193,161,-193 c77,0,121,36,150,87 c16,-27,46,-62,95,-77 l-145,-144 l86,-22 l125,145 Z M510,139 c-62,0,-95,39,-118,88 c1,3,2,7,3,10 c28,82,46,160,122,160 c62,0,95,-57,95,-129 c0,-81,-41,-129,-102,-129 Z M218,139 c-63,0,-92,58,-92,129 c0,78,42,129,102,129 c57,0,93,-39,117,-86 c-2,-4,-3,-7,-4,-11 c-26,-86,-46,-161,-123,-161 Z M218,139" fill="rgb(0,0,0)" transform="matrix(0.1,0.0,0.0,-0.1,7.0,135.0)"/>
</svg>