<?xml version="1.0" encoding="UTF-8"?>
<svg height="200.0" version="1.1" width="82.0" xmlns="http://www.w3.org/2000/svg" xmlns:xlink="http://www.w3.org/1999/xlink">
 <path d="M0,0 l82,0 l0,200 l-82,0 Z M0,0" fill="rgb(255,255,255)" transform="matrix(1,0,0,-1,0.0,200.0)"/>
 <path d="M0,0 l82,0" fill="none" stroke="rgb(229,229,229)" stroke-width="2" transform="matrix(1,0,0,-1,0.0,135.0)"/>
 <path d="M0,1 l0,-5" fill="none" stroke="rgb(204,204,204)" stroke-width="2" transform="matrix(1,0,0,-1,7.0,135.0)"/>
 <path d="M0,1 l0,-5" fill="none" stroke="rgb(204,204,204)" stroke-width="2" transform="matrix(1,0,0,-1,75.0,135.0)"/>
 <path d="M470,-115 l86,21 l-147,150 c132,41,215,159,215,273 c0,70,-36,126,-93,147 l0,102 l169,0 l0,64 l-722,0 l0,-64 l148,0 l0,-4 c-16,-13,-50,-42,-50,-104 c0,-59,38,-107,98,-122 l0,-4 c-42,-16,-84,-56,-84,-126 c0,-85,65,-162,183,-175 l-135,-135 l86,-23 l124,146 Z M483,296 c-41,6,-64,30,-64,66 c0,35,27,58,60,58 c40,0,72,-32,72,-91 c0,-121,-110,-220,-240,-220 c-93,0,-142,50,-142,111 c0,57,39,93,106,94 l23,0 l0,67 l-37,0 c-67,0,-105,38,-105,94 c0,62,46,103,113,103 l190,0 l0,-94 c-68,-8,-113,-61,-113,-122 c0,-58,37,-102,91,-115 Z M28,-4 c0,-27,20,-48,48,-48 c28,0,48,21,48,48 c0,28,-20,49,-48,49 c-28,0,-48,-21,-48,-49 Z M28,-4" fill="rgb(0,0,0)" transform="matrix(0.1,0.0,0.0,-0.1,7.0,135.0)"/>
</svg>