<?xml version="1.0" encoding="UTF-8"?>
<svg height="200.0" version="1.1" width="100.0" xmlns="http://www.w3.org/2000/svg" xmlns:xlink="http://www.w3.org/1999/xlink">
 <path d="M0,0 l100,0 l0,200 l-100,0 Z M0,0" fill="rgb(255,255,255)" transform="matrix(1,0,0,-1,0.0,200.0)"/>
 <path d="M0,0 l100,0" fill="none" stroke="rgb(229,229,229)" stroke-width="2" transform="matrix(1,0,0,-1,0.0,135.0)"/>
 <path d="M0,1 l0,-5" fill="none" stroke="rgb(204,204,204)" stroke-width="2" transform="matrix(1,0,0,-1,7.0,135.0)"/>
 <path d="M0,1 l0,-5" fill="none" stroke="rgb(204,204,204)" stroke-width="2" transform="matrix(1,0,0,-1,92.0,135.0)"/>
 <path d="M685,156 l0,-162 l73,0 l0,584 l115,0 l0,64 l-895,0 l0,-64 l360,0 l0,-101 l-150,0 c-72,0,-115,-42,-115,-103 c0,-78,59,-143,130,-165 l155,32 c12,-8,28,-27,28,-60 c0,-66,-65,-96,-135,-96 l-34,0 l-133,90 c-14,-7,-26,-29,-26,-53 c0,-46,44,-98,148,-100 l156,-146 l88,46 l-160,106 l-1,2 c83,4,169,56,169,152 c0,16,-3,32,-8,45 c25,-8,60,-13,93,-13 c55,0,108,12,146,31 l1,-4 l-228,-199 l71,-38 l148,152 Z M684,578 l0,-265 c-40,-22,-94,-34,-151,-34 c-73,0,-123,19,-152,34 l-166,-34 c-35,9,-64,43,-64,78 c0,32,14,55,72,55 l189,0 l0,166 Z M93,-96 c0,-27,20,-48,48,-48 c28,0,48,21,48,48 c0,28,-20,49,-48,49 c-28,0,-48,-21,-48,-49 Z M93,-96" fill="rgb(0,0,0)" transform="matrix(0.1,0.0,0.0,-0.1,7.0,135.0)"/>
</svg>