<?xml version="1.0" encoding="UTF-8"?>
<svg height="200.0" version="1.1" width="70.0" xmlns="http://www.w3.org/2000/svg" xmlns:xlink="http://www.w3.org/1999/xlink">
 <path d="M0,0 l70,0 l0,200 l-70,0 Z M0,0" fill="rgb(255,255,255)" transform="matrix(1,0,0,-1,0.0,200.0)"/>
 <path d="M0,0 l70,0" fill="none" stroke="rgb(229,229,229)" stroke-width="2" transform="matrix(1,0,0,-1,0.0,135.0)"/>
 <path d="M0,1 l0,-5" fill="none" stroke="rgb(204,204,204)" stroke-width="2" transform="matrix(1,0,0,-1,7.0,135.0)"/>
 <path d="M0,1 l0,-5" fill="none" stroke="rgb(204,204,204)" stroke-width="2" transform="matrix(1,0,0,-1,63.0,135.0)"/>
 <path d="M384,233 l0,-233 l75,0 l0,578 l121,0 l0,64 l-602,0 l0,-64 l407,0 l0,-223 l-4,0 c-24,47,-79,121,-199,121 c-74,0,-127,-30,-160,-56 l53,-64 c33,29,72,45,118,45 c85,0,133,-60,150,-111 l-272,-167 l57,-57 l252,167 Z M205,-19 c0,-27,20,-48,48,-48 c28,0,48,21,48,48 c0,28,-20,49,-48,49 c-28,0,-48,-21,-48,-49 Z M205,-19" fill="rgb(0,0,0)" transform="matrix(0.1,0.0,0.0,-0.1,7.0,135.0)"/>
</svg>