<?xml version="1.0" encoding="UTF-8"?>
<svg height="200.0" version="1.1" width="72.0" xmlns="http://www.w3.org/2000/svg" xmlns:xlink="http://www.w3.org/1999/xlink">
 <path d="M0,0 l72,0 l0,200 l-72,0 Z M0,0" fill="rgb(255,255,255)" transform="matrix(1,0,0,-1,0.0,200.0)"/>
 <path d="M0,0 l72,0" fill="none" stroke="rgb(229,229,229)" stroke-width="2" transform="matrix(1,0,0,-1,0.0,135.0)"/>
 <path d="M0,1 l0,-5" fill="none" stroke="rgb(204,204,204)" stroke-width="2" transform="matrix(1,0,0,-1,7.0,135.0)"/>
 <path d="M0,1 l0,-5" fill="none" stroke="rgb(204,204,204)" stroke-width="2" transform="matrix(1,0,0,-1,65.0,135.0)"/>
 <path d="M407,198 l4,0 l0,-198 l75,0 l0,578 l119,0 l0,64 l-627,0 l0,-64 l145,0 l0,-200 l-49,-37 c1,-43,24,-97,58,-125 l65,0 l0,96 l219,0 l0,-27 l-329,-247 l65,-49 Z M197,578 l214,0 l0,-198 l-214,0 Z M264,-48 c0,-27,20,-48,48,-48 c28,0,48,21,48,48 c0,28,-20,49,-48,49 c-28,0,-48,-21,-48,-49 Z M264,-48" fill="rgb(0,0,0)" transform="matrix(0.1,0.0,0.0,-0.1,7.0,135.0)"/>
</svg>