<?xml version="1.0" encoding="UTF-8"?>
<svg height="200.0" version="1.1" width="86.0" xmlns="http://www.w3.org/2000/svg" xmlns:xlink="http://www.w3.org/1999/xlink">
 <path d="M0,0 l86,0 l0,200 l-86,0 Z M0,0" fill="rgb(255,255,255)" transform="matrix(1,0,0,-1,0.0,200.0)"/>
 <path d="M0,0 l86,0" fill="none" stroke="rgb(229,229,229)" stroke-width="2" transform="matrix(1,0,0,-1,0.0,135.0)"/>
 <path d="M0,1 l0,-5" fill="none" stroke="rgb(204,204,204)" stroke-width="2" transform="matrix(1,0,0,-1,7.0,135.0)"/>
 <path d="M0,1 l0,-5" fill="none" stroke="rgb(204,204,204)" stroke-width="2" transform="matrix(1,0,0,-1,78.0,135.0)"/>
 <path d="M260,60 c-84,52,-129,125,-129,209 c0,80,42,114,90,114 c50,0,82,-32,82,-97 l0,-87 l73,0 l0,87 c0,68,34,101,83,101 c34,0,66,-18,81,-33 l0,-140 l-237,-181 l62,-42 l172,141 l4,0 l0,-138 l74,0 l0,584 l120,0 l0,64 l-757,0 l0,-64 l561,0 l0,-155 l-4,0 c-14,17,-45,33,-85,33 c-50,0,-94,-30,-109,-84 l-4,0 c-15,48,-58,80,-123,80 c-82,0,-161,-63,-161,-181 c0,-115,68,-208,151,-262 Z M19,-72 c0,-27,20,-48,48,-48 c28,0,48,21,48,48 c0,28,-20,49,-48,49 c-28,0,-48,-21,-48,-49 Z M19,-72" fill="rgb(0,0,0)" transform="matrix(0.1,0.0,0.0,-0.1,7.0,135.0)"/>
</svg>