<?xml version="1.0" encoding="UTF-8"?>
<svg height="200.0" version="1.1" width="64.0" xmlns="http://www.w3.org/2000/svg" xmlns:xlink="http://www.w3.org/1999/xlink">
 <path d="M0,0 l64,0 l0,200 l-64,0 Z M0,0" fill="rgb(255,255,255)" transform="matrix(1,0,0,-1,0.0,200.0)"/>
 <path d="M0,0 l64,0" fill="none" stroke="rgb(229,229,229)" stroke-width="2" transform="matrix(1,0,0,-1,0.0,135.0)"/>
 <path d="M0,1 l0,-5" fill="none" stroke="rgb(204,204,204)" stroke-width="2" transform="matrix(1,0,0,-1,7.0,135.0)"/>
 <path d="M0,1 l0,-5" fill="none" stroke="rgb(204,204,204)" stroke-width="2" transform="matrix(1,0,0,-1,57.0,135.0)"/>
 <path d="M410,-114 l85,21 l-138,140 c48,9,92,30,128,66 l-42,61 c-37,-40,-85,-64,-159,-64 c-100,0,-158,70,-158,139 c0,57,20,92,116,121 l145,42 l0,166 l139,0 l0,64 l-548,0 l0,-64 l333,0 l0,-113 l-118,-36 c-97,-30,-144,-80,-144,-166 c0,-95,68,-183,171,-212 l-143,-143 l86,-22 l124,145 Z M450,-307 l-145,166 l-62,-24 l110,-146 l97,0 Z M450,-307" fill="rgb(0,0,0)" transform="matrix(0.1,0.0,0.0,-0.1,7.0,135.0)"/>
</svg>