<?xml version="1.0" encoding="UTF-8"?>
<svg height="200.0" version="1.1" width="72.0" xmlns="http://www.w3.org/2000/svg" xmlns:xlink="http://www.w3.org/1999/xlink">
 <path d="M0,0 l72,0 l0,200 l-72,0 Z M0,0" fill="rgb(255,255,255)" transform="matrix(1,0,0,-1,0.0,200.0)"/>
 <path d="M0,0 l72,0" fill="none" stroke="rgb(229,229,229)" stroke-width="2" transform="matrix(1,0,0,-1,0.0,135.0)"/>
 <path d="M0,1 l0,-5" fill="none" stroke="rgb(204,204,204)" stroke-width="2" transform="matrix(1,0,0,-1,7.0,135.0)"/>
 <path d="M0,1 l0,-5" fill="none" stroke="rgb(204,204,204)" stroke-width="2" transform="matrix(1,0,0,-1,53.0,135.0)"/>
 <path d="M477,642 l-499,0 l0,-64 l499,0 Z M214,452 c-82,0,-161,-63,-161,-181 c0,-114,68,-208,150,-262 l57,51 c-84,52,-129,125,-129,209 c0,80,42,114,90,114 c50,0,82,-32,82,-97 l0,-88 l73,0 l0,89 c0,65,35,100,88,100 c49,0,80,-30,91,-43 l36,56 c-26,29,-70,56,-132,56 c-60,0,-103,-35,-118,-84 l-4,0 c-15,48,-58,80,-123,80 Z M557,227 l-254,-194 l62,-42 l229,188 Z M557,227" fill="rgb(0,0,0)" transform="matrix(0.1,0.0,0.0,-0.1,7.0,135.0)"/>
</svg>