<?xml version="1.0" encoding="UTF-8"?>
<svg height="200.0" version="1.1" width="74.0" xmlns="http://www.w3.org/2000/svg" xmlns:xlink="http://www.w3.org/1999/xlink">
 <path d="M0,0 l74,0 l0,200 l-74,0 Z M0,0" fill="rgb(255,255,255)" transform="matrix(1,0,0,-1,0.0,200.0)"/>
 <path d="M0,0 l74,0" fill="none" stroke="rgb(229,229,229)" stroke-width="2" transform="matrix(1,0,0,-1,0.0,135.0)"/>
 <path d="M0,1 l0,-5" fill="none" stroke="rgb(204,204,204)" stroke-width="2" transform="matrix(1,0,0,-1,7.0,135.0)"/>
 <path d="M0,1 l0,-5" fill="none" stroke="rgb(204,204,204)" stroke-width="2" transform="matrix(1,0,0,-1,55.0,135.0)"/>
 <path d="M353,-44 l-146,120 l16,0 c90,0,161,54,161,142 c0,97,-91,148,-144,166 l0,4 l377,0 l0,65 l-479,0 l-29,-57 l0,-5 c87,-22,198,-75,198,-165 c0,-62,-47,-97,-115,-97 c-15,0,-32,2,-48,6 l-102,93 c-20,-13,-31,-32,-31,-59 c0,-45,39,-87,119,-94 l140,-154 Z M617,157 l0,76 l-252,-181 l66,-43 Z M501,578 l0,64 l-523,0 l0,-64 Z M501,578" fill="rgb(0,0,0)" transform="matrix(0.1,0.0,0.0,-0.1,7.0,135.0)"/>
</svg>