<?xml version="1.0" encoding="UTF-8"?>
<svg height="200.0" version="1.1" width="82.0" xmlns="http://www.w3.org/2000/svg" xmlns:xlink="http://www.w3.org/1999/xlink">
 <path d="M0,0 l82,0 l0,200 l-82,0 Z M0,0" fill="rgb(255,255,255)" transform="matrix(1,0,0,-1,0.0,200.0)"/>
 <path d="M0,0 l82,0" fill="none" stroke="rgb(229,229,229)" stroke-width="2" transform="matrix(1,0,0,-1,0.0,135.0)"/>
 <path d="M0,1 l0,-5" fill="none" stroke="rgb(204,204,204)" stroke-width="2" transform="matrix(1,0,0,-1,7.0,135.0)"/>
 <path d="M0,1 l0,-5" fill="none" stroke="rgb(204,204,204)" stroke-width="2" transform="matrix(1,0,0,-1,63.0,135.0)"/>
 <path d="M389,99 c-118,0,-218,73,-244,207 c12,-6,28,-11,55,-11 c63,0,110,43,110,120 l0,163 l279,0 l0,64 l-611,0 l0,-64 l258,0 l0,-164 c0,-43,-21,-59,-50,-59 c-37,0,-56,20,-69,45 l-64,-22 c28,-240,175,-323,282,-328 l0,-4 l-222,-64 l60,-64 l261,101 c175,67,258,167,258,300 c0,101,-71,175,-167,175 c-91,0,-160,-65,-160,-154 c0,-93,72,-145,141,-149 l41,53 c-68,3,-110,42,-110,95 c0,53,36,89,90,89 c50,0,97,-39,97,-108 c0,-134,-113,-221,-235,-221 Z M450,-71 c0,-27,20,-48,48,-48 c28,0,48,21,48,48 c0,28,-20,49,-48,49 c-28,0,-48,-21,-48,-49 Z M450,-71" fill="rgb(0,0,0)" transform="matrix(0.1,0.0,0.0,-0.1,7.0,135.0)"/>
</svg>