<?xml version="1.0" encoding="UTF-8"?>
<svg height="200.0" version="1.1" width="82.0" xmlns="http://www.w3.org/2000/svg" xmlns:xlink="http://www.w3.org/1999/xlink">
 <path d="M0,0 l82,0 l0,200 l-82,0 Z M0,0" fill="rgb(255,255,255)" transform="matrix(1,0,0,-1,0.0,200.0)"/>
 <path d="M0,0 l82,0" fill="none" stroke="rgb(229,229,229)" stroke-width="2" transform="matrix(1,0,0,-1,0.0,135.0)"/>
 <path d="M0,1 l0,-5" fill="none" stroke="rgb(204,204,204)" stroke-width="2" transform="matrix(1,0,0,-1,7.0,135.0)"/>
 <path d="M0,1 l0,-5" fill="none" stroke="rgb(204,204,204)" stroke-width="2" transform="matrix(1,0,0,-1,61.0,135.0)"/>
 <path d="M678,234 l-216,-192 l71,-38 l166,169 l0,146 c-31,-18,-87,-40,-166,-40 c-73,0,-123,19,-152,34 l-166,-34 c-35,9,-64,43,-64,78 c0,32,14,55,72,55 l189,0 l0,166 l154,0 l0,64 l-588,0 l0,-64 l360,0 l0,-101 l-150,0 c-72,0,-115,-42,-115,-103 c0,-78,59,-143,130,-165 l155,32 c12,-8,28,-27,28,-60 c0,-66,-65,-96,-135,-96 l-34,0 l-133,90 c-14,-7,-26,-29,-26,-53 c0,-46,44,-98,148,-100 l156,-146 l88,46 l-160,106 l-1,2 c83,4,169,56,169,152 c0,16,-3,32,-8,45 c25,-8,60,-13,93,-13 c48,0,99,7,134,23 Z M116,-80 c0,-27,20,-48,48,-48 c28,0,48,21,48,48 c0,28,-20,49,-48,49 c-28,0,-48,-21,-48,-49 Z M116,-80" fill="rgb(0,0,0)" transform="matrix(0.1,0.0,0.0,-0.1,7.0,135.0)"/>
</svg>