<?xml version="1.0" encoding="UTF-8"?>
<svg height="200.0" version="1.1" width="70.0" xmlns="http://www.w3.org/2000/svg" xmlns:xlink="http://www.w3.org/1999/xlink">
 <path d="M0,0 l70,0 l0,200 l-70,0 Z M0,0" fill="rgb(255,255,255)" transform="matrix(1,0,0,-1,0.0,200.0)"/>
 <path d="M0,0 l70,0" fill="none" stroke="rgb(229,229,229)" stroke-width="2" transform="matrix(1,0,0,-1,0.0,135.0)"/>
 <path d="M0,1 l0,-5" fill="none" stroke="rgb(204,204,204)" stroke-width="2" transform="matrix(1,0,0,-1,9.0,135.0)"/>
 <path d="M0,1 l0,-5" fill="none" stroke="rgb(204,204,204)" stroke-width="2" transform="matrix(1,0,0,-1,62.0,135.0)"/>
 <path d="M418,-119 l86,21 l-143,145 c70,21,114,78,114,143 c0,68,-55,123,-127,123 c-82,0,-122,-62,-122,-112 l61,-32 c-6,39,15,75,58,75 c33,0,56,-25,56,-55 c0,-48,-37,-83,-102,-83 c-106,0,-174,78,-174,156 c0,58,24,104,117,128 l167,44 l0,144 l139,0 l0,64 l-570,0 l0,-64 l355,0 l0,-91 l-136,-39 c-92,-25,-150,-91,-150,-179 c0,-104,76,-194,183,-222 l-144,-144 l86,-22 l124,145 Z M456,-321 l-145,166 l-62,-24 l110,-146 l97,0 Z M-44,30 c0,-27,20,-48,48,-48 c28,0,48,21,48,48 c0,28,-20,49,-48,49 c-28,0,-48,-21,-48,-49 Z M-44,30" fill="rgb(0,0,0)" transform="matrix(0.1,0.0,0.0,-0.1,9.0,135.0)"/>
</svg>