<?xml version="1.0" encoding="UTF-8"?>
<svg height="200.0" version="1.1" width="68.0" xmlns="http://www.w3.org/2000/svg" xmlns:xlink="http://www.w3.org/1999/xlink">
 <path d="M0,0 l68,0 l0,200 l-68,0 Z M0,0" fill="rgb(255,255,255)" transform="matrix(1,0,0,-1,0.0,200.0)"/>
 <path d="M0,0 l68,0" fill="none" stroke="rgb(229,229,229)" stroke-width="2" transform="matrix(1,0,0,-1,0.0,135.0)"/>
 <path d="M0,1 l0,-5" fill="none" stroke="rgb(204,204,204)" stroke-width="2" transform="matrix(1,0,0,-1,7.0,135.0)"/>
 <path d="M0,1 l0,-5" fill="none" stroke="rgb(204,204,204)" stroke-width="2" transform="matrix(1,0,0,-1,60.0,135.0)"/>
 <path d="M241,80 l-178,-101 l68,-56 l244,172 l66,-129 l90,22 l-106,140 c16,17,35,38,35,82 c0,42,-28,70,-51,81 l-56,-20 l0,-101 c-19,-17,-47,-27,-89,-27 c-84,0,-139,58,-139,127 c0,61,28,97,117,119 l157,39 l0,150 l149,0 l0,64 l-570,0 l0,-64 l345,0 l0,-97 l-121,-31 c-106,-27,-154,-81,-154,-169 c0,-103,77,-194,193,-197 Z M555,-245 l-145,166 l-62,-24 l110,-146 l97,0 Z M219,-106 c0,-27,20,-48,48,-48 c28,0,48,21,48,48 c0,28,-20,49,-48,49 c-28,0,-48,-21,-48,-49 Z M219,-106" fill="rgb(0,0,0)" transform="matrix(0.1,0.0,0.0,-0.1,7.0,135.0)"/>
</svg>