<?xml version="1.0" encoding="UTF-8"?>
<svg height="200.0" version="1.1" width="54.0" xmlns="http://www.w3.org/2000/svg" xmlns:xlink="http://www.w3.org/1999/xlink">
 <path d="M0,0 l54,0 l0,200 l-54,0 Z M0,0" fill="rgb(255,255,255)" transform="matrix(1,0,0,-1,0.0,200.0)"/>
 <path d="M0,0 l54,0" fill="none" stroke="rgb(229,229,229)" stroke-width="2" transform="matrix(1,0,0,-1,0.0,135.0)"/>
 <path d="M0,1 l0,-5" fill="none" stroke="rgb(204,204,204)" stroke-width="2" transform="matrix(1,0,0,-1,7.0,135.0)"/>
 <path d="M0,1 l0,-5" fill="none" stroke="rgb(204,204,204)" stroke-width="2" transform="matrix(1,0,0,-1,40.0,135.0)"/>
 <path d="M352,642 l-374,0 l0,-64 l374,0 Z M83,123 l61,-52 l267,186 c-25,133,-109,215,-243,215 c-32,0,-64,-7,-80,-12 l-53,-45 c1,-44,29,-83,55,-99 l47,14 l0,67 c14,4,25,6,45,6 c84,0,133,-56,150,-120 Z M225,-20 c0,-27,20,-48,48,-48 c28,0,48,21,48,48 c0,28,-20,49,-48,49 c-28,0,-48,-21,-48,-49 Z M225,-20" fill="rgb(0,0,0)" transform="matrix(0.1,0.0,0.0,-0.1,7.0,135.0)"/>
</svg>