<?xml version="1.0" encoding="UTF-8"?>
<svg height="200.0" version="1.1" width="150.0" xmlns="http://www.w3.org/2000/svg" xmlns:xlink="http://www.w3.org/1999/xlink">
 <path d="M0,0 l150,0 l0,200 l-150,0 Z M0,0" fill="rgb(255,255,255)" transform="matrix(1,0,0,-1,0.0,200.0)"/>
 <path d="M0,0 l150,0" fill="none" stroke="rgb(229,229,229)" stroke-width="2" transform="matrix(1,0,0,-1,0.0,135.0)"/>
 <path d="M0,1 l0,-5" fill="none" stroke="rgb(204,204,204)" stroke-width="2" transform="matrix(1,0,0,-1,7.0,135.0)"/>
 <path d="M0,1 l0,-5" fill="none" stroke="rgb(204,204,204)" stroke-width="2" transform="matrix(1,0,0,-1,143.0,135.0)"/>
 <path d="M757,353 c-36,0,-55,19,-67,43 l-6,14 c-30,38,-76,59,-127,59 c-68,0,-111,-32,-130,-57 l-4,0 l0,166 l384,0 l0,-166 c0,-43,-20,-59,-50,-59 Z M348,183 l0,-183 l75,0 l0,275 c0,75,48,126,120,126 c36,0,63,-12,82,-33 c21,-192,136,-339,331,-339 c109,0,189,49,232,102 l4,0 l0,-131 l72,0 l0,578 l121,0 l0,64 l-1407,0 l0,-64 l370,0 l0,-258 c0,-75,-48,-126,-119,-126 c-63,0,-105,44,-105,104 c0,84,72,115,144,103 l-12,69 c-108,14,-211,-52,-211,-173 c0,-102,79,-171,170,-171 c70,0,110,33,129,57 Z M1187,459 c-18,18,-46,34,-97,34 c-84,0,-154,-64,-154,-154 c0,-93,72,-145,142,-150 l39,53 c-68,3,-109,42,-109,96 c0,53,37,89,90,89 c50,0,96,-39,96,-110 c0,-139,-109,-221,-236,-221 c-120,0,-216,75,-244,206 c12,-6,28,-11,55,-11 c64,0,112,44,112,124 l0,163 l310,0 l0,-119 Z M1187,459" fill="rgb(0,0,0)" transform="matrix(0.1,0.0,0.0,-0.1,7.0,135.0)"/>
</svg>