<?xml version="1.0" encoding="UTF-8"?>
<svg height="200.0" version="1.1" width="136.0" xmlns="http://www.w3.org/2000/svg" xmlns:xlink="http://www.w3.org/1999/xlink">
 <path d="M0,0 l136,0 l0,200 l-136,0 Z M0,0" fill="rgb(255,255,255)" transform="matrix(1,0,0,-1,0.0,200.0)"/>
 <path d="M0,0 l136,0" fill="none" stroke="rgb(229,229,229)" stroke-width="2" transform="matrix(1,0,0,-1,0.0,135.0)"/>
 <path d="M0,1 l0,-5" fill="none" stroke="rgb(204,204,204)" stroke-width="2" transform="matrix(1,0,0,-1,7.0,135.0)"/>
 <path d="M0,1 l0,-5" fill="none" stroke="rgb(204,204,204)" stroke-width="2" transform="matrix(1,0,0,-1,129.0,135.0)"/>
 <path d="M1041,182 l0,-182 l75,0 l0,578 l121,0 l0,64 l-1259,0 l0,-64 l370,0 l0,-258 c0,-75,-48,-126,-119,-126 c-63,0,-105,44,-105,104 c0,84,72,115,144,103 l-12,69 c-108,14,-211,-52,-211,-173 c0,-102,79,-171,170,-171 c70,0,110,33,129,57 l4,0 l0,-183 l75,0 l0,275 c0,75,48,126,120,126 c46,0,64,-21,77,-39 l104,0 l0,-4 c-19,-14,-51,-47,-51,-100 c0,-94,73,-154,188,-154 c99,0,154,47,176,78 Z M874,173 c-75,0,-122,33,-122,92 c0,64,44,98,119,98 l78,0 l0,67 l-294,0 c-24,24,-56,39,-98,39 c-68,0,-111,-32,-130,-57 l-4,0 l0,166 l618,0 l0,-225 c0,-112,-71,-180,-167,-180 Z M874,173" fill="rgb(0,0,0)" transform="matrix(0.1,0.0,0.0,-0.1,7.0,135.0)"/>
</svg>