<?xml version="1.0" encoding="UTF-8"?>
<svg height="200.0" version="1.1" width="144.0" xmlns="http://www.w3.org/2000/svg" xmlns:xlink="http://www.w3.org/1999/xlink">
 <path d="M0,0 l144,0 l0,200 l-144,0 Z M0,0" fill="rgb(255,255,255)" transform="matrix(1,0,0,-1,0.0,200.0)"/>
 <path d="M0,0 l144,0" fill="none" stroke="rgb(229,229,229)" stroke-width="2" transform="matrix(1,0,0,-1,0.0,135.0)"/>
 <path d="M0,1 l0,-5" fill="none" stroke="rgb(204,204,204)" stroke-width="2" transform="matrix(1,0,0,-1,7.0,135.0)"/>
 <path d="M0,1 l0,-5" fill="none" stroke="rgb(204,204,204)" stroke-width="2" transform="matrix(1,0,0,-1,138.0,135.0)"/>
 <path d="M557,469 c-68,0,-111,-32,-130,-57 l-4,0 l0,166 l708,0 l0,-139 l-260,0 l-33,-58 l0,-6 c38,-11,92,-45,92,-108 c0,-48,-32,-83,-87,-83 c-106,0,-171,126,-176,246 c-30,25,-68,39,-110,39 Z M423,275 c0,75,48,126,120,126 c19,0,37,-4,53,-11 c18,-119,94,-275,252,-275 c96,0,157,66,157,146 c0,60,-30,94,-48,109 l0,4 l174,0 l0,-374 l76,0 l0,578 l121,0 l0,64 l-1350,0 l0,-64 l370,0 l0,-258 c0,-75,-48,-126,-119,-126 c-63,0,-105,44,-105,104 c0,84,72,115,144,103 l-12,69 c-108,14,-211,-52,-211,-173 c0,-102,79,-171,170,-171 c70,0,110,33,129,57 l4,0 l0,-183 l75,0 Z M423,275" fill="rgb(0,0,0)" transform="matrix(0.1,0.0,0.0,-0.1,7.0,135.0)"/>
</svg>