<?xml version="1.0" encoding="UTF-8"?>
<svg height="200.0" version="1.1" width="122.0" xmlns="http://www.w3.org/2000/svg" xmlns:xlink="http://www.w3.org/1999/xlink">
 <path d="M0,0 l122,0 l0,200 l-122,0 Z M0,0" fill="rgb(255,255,255)" transform="matrix(1,0,0,-1,0.0,200.0)"/>
 <path d="M0,0 l122,0" fill="none" stroke="rgb(229,229,229)" stroke-width="2" transform="matrix(1,0,0,-1,0.0,135.0)"/>
 <path d="M0,1 l0,-5" fill="none" stroke="rgb(204,204,204)" stroke-width="2" transform="matrix(1,0,0,-1,7.0,135.0)"/>
 <path d="M0,1 l0,-5" fill="none" stroke="rgb(204,204,204)" stroke-width="2" transform="matrix(1,0,0,-1,115.0,135.0)"/>
 <path d="M557,469 c-68,0,-111,-32,-130,-57 l-4,0 l0,166 l466,0 l0,-113 l-118,-36 c-31,-10,-57,-21,-78,-36 c-24,41,-68,76,-136,76 Z M348,183 l0,-183 l75,0 l0,275 c0,75,48,126,120,126 c57,0,87,-31,100,-63 c-11,-21,-16,-46,-16,-75 c0,-116,102,-222,244,-222 c71,0,141,21,193,72 l-42,61 c-38,-40,-86,-64,-160,-64 c-99,0,-158,70,-158,139 c0,57,20,92,117,121 l144,42 l0,166 l139,0 l0,64 l-1126,0 l0,-64 l370,0 l0,-258 c0,-75,-48,-126,-119,-126 c-63,0,-105,44,-105,104 c0,84,72,115,144,103 l-12,69 c-108,14,-211,-52,-211,-173 c0,-102,79,-171,170,-171 c70,0,110,33,129,57 Z M348,183" fill="rgb(0,0,0)" transform="matrix(0.1,0.0,0.0,-0.1,7.0,135.0)"/>
</svg>