<?xml version="1.0" encoding="UTF-8"?>
<svg height="200.0" version="1.1" width="146.0" xmlns="http://www.w3.org/2000/svg" xmlns:xlink="http://www.w3.org/1999/xlink">
 <path d="M0,0 l146,0 l0,200 l-146,0 Z M0,0" fill="rgb(255,255,255)" transform="matrix(1,0,0,-1,0.0,200.0)"/>
 <path d="M0,0 l146,0" fill="none" stroke="rgb(229,229,229)" stroke-width="2" transform="matrix(1,0,0,-1,0.0,135.0)"/>
 <path d="M0,1 l0,-5" fill="none" stroke="rgb(204,204,204)" stroke-width="2" transform="matrix(1,0,0,-1,7.0,135.0)"/>
 <path d="M0,1 l0,-5" fill="none" stroke="rgb(204,204,204)" stroke-width="2" transform="matrix(1,0,0,-1,138.0,135.0)"/>
 <path d="M427,412 l-4,0 l0,166 l216,0 l0,-128 c-24,12,-52,19,-82,19 c-68,0,-111,-32,-130,-57 Z M348,183 l0,-183 l75,0 l0,275 c0,75,48,126,120,126 c43,0,76,-19,96,-47 l0,-11 c0,-108,67,-166,163,-166 c97,0,165,59,165,166 l0,235 l169,0 l0,-578 l75,0 l0,578 l121,0 l0,64 l-1354,0 l0,-64 l370,0 l0,-258 c0,-75,-48,-126,-119,-126 c-63,0,-105,44,-105,104 c0,84,72,115,144,103 l-12,69 c-108,14,-211,-52,-211,-173 c0,-102,79,-171,170,-171 c70,0,110,33,129,57 Z M803,245 c-57,0,-89,35,-89,100 l0,233 l178,0 l0,-233 c0,-64,-31,-100,-89,-100 Z M803,245" fill="rgb(0,0,0)" transform="matrix(0.1,0.0,0.0,-0.1,7.0,135.0)"/>
</svg>