<?xml version="1.0" encoding="UTF-8"?>
<svg height="200.0" version="1.1" width="164.0" xmlns="http://www.w3.org/2000/svg" xmlns:xlink="http://www.w3.org/1999/xlink">
 <path d="M0,0 l164,0 l0,200 l-164,0 Z M0,0" fill="rgb(255,255,255)" transform="matrix(1,0,0,-1,0.0,200.0)"/>
 <path d="M0,0 l164,0" fill="none" stroke="rgb(229,229,229)" stroke-width="2" transform="matrix(1,0,0,-1,0.0,135.0)"/>
 <path d="M0,1 l0,-5" fill="none" stroke="rgb(204,204,204)" stroke-width="2" transform="matrix(1,0,0,-1,7.0,135.0)"/>
 <path d="M0,1 l0,-5" fill="none" stroke="rgb(204,204,204)" stroke-width="2" transform="matrix(1,0,0,-1,157.0,135.0)"/>
 <path d="M557,469 c-68,0,-111,-32,-130,-57 l-4,0 l0,166 l614,0 c26,-23,43,-59,43,-95 c0,-40,-22,-68,-62,-88 c-33,28,-85,43,-144,43 l-59,0 c-49,0,-92,-17,-124,-47 c-18,35,-58,78,-134,78 Z M348,183 l0,-183 l75,0 l0,275 c0,75,48,126,120,126 c66,0,97,-46,102,-88 c-4,-17,-7,-36,-7,-57 c0,-119,62,-209,133,-263 l61,45 c-63,47,-116,117,-116,217 c0,74,46,115,114,115 l36,0 c31,0,53,-3,71,-10 c19,-141,110,-223,227,-223 c92,0,139,48,157,72 l4,0 l0,-209 l76,0 l0,578 l121,0 l0,64 l-1544,0 l0,-64 l370,0 l0,-258 c0,-75,-48,-126,-119,-126 c-63,0,-105,44,-105,104 c0,84,72,115,144,103 l-12,69 c-108,14,-211,-52,-211,-173 c0,-102,79,-171,170,-171 c70,0,110,33,129,57 Z M1023,333 c77,18,135,69,135,139 c0,44,-17,76,-41,102 l0,4 l209,0 l0,-208 c0,-105,-63,-164,-152,-164 c-99,0,-143,73,-151,127 Z M1023,333" fill="rgb(0,0,0)" transform="matrix(0.1,0.0,0.0,-0.1,7.0,135.0)"/>
</svg>