<?xml version="1.0" encoding="UTF-8"?>
<svg height="200.0" version="1.1" width="158.0" xmlns="http://www.w3.org/2000/svg" xmlns:xlink="http://www.w3.org/1999/xlink">
 <path d="M0,0 l158,0 l0,200 l-158,0 Z M0,0" fill="rgb(255,255,255)" transform="matrix(1,0,0,-1,0.0,200.0)"/>
 <path d="M0,0 l158,0" fill="none" stroke="rgb(229,229,229)" stroke-width="2" transform="matrix(1,0,0,-1,0.0,135.0)"/>
 <path d="M0,1 l0,-5" fill="none" stroke="rgb(204,204,204)" stroke-width="2" transform="matrix(1,0,0,-1,7.0,135.0)"/>
 <path d="M0,1 l0,-5" fill="none" stroke="rgb(204,204,204)" stroke-width="2" transform="matrix(1,0,0,-1,150.0,135.0)"/>
 <path d="M1334,578 l121,0 l0,64 l-1477,0 l0,-64 l370,0 l0,-258 c0,-75,-48,-126,-119,-126 c-63,0,-105,44,-105,104 c0,84,72,115,144,103 l-12,69 c-108,14,-211,-52,-211,-173 c0,-102,79,-171,170,-171 c70,0,110,33,129,57 l4,0 l0,-183 l75,0 l0,275 c0,75,48,126,120,126 c62,0,92,-41,100,-81 c-6,-20,-9,-41,-9,-64 c0,-119,61,-209,132,-263 l61,45 c-63,47,-116,117,-116,217 c0,74,47,115,114,115 l118,0 c-8,-21,-13,-45,-13,-72 c0,-111,86,-183,183,-183 c75,0,121,34,141,60 l4,0 l0,-175 l76,0 Z M1126,183 c-71,0,-117,50,-117,116 c0,89,82,130,166,108 l-7,71 c-62,11,-128,-2,-175,-40 l-183,0 c-47,0,-90,-16,-121,-45 c-20,36,-61,76,-132,76 c-68,0,-111,-32,-130,-57 l-4,0 l0,166 l835,0 l0,-250 c0,-81,-50,-145,-132,-145 Z M1126,183" fill="rgb(0,0,0)" transform="matrix(0.1,0.0,0.0,-0.1,7.0,135.0)"/>
</svg>