<?xml version="1.0" encoding="UTF-8"?>
<svg height="200.0" version="1.1" width="140.0" xmlns="http://www.w3.org/2000/svg" xmlns:xlink="http://www.w3.org/1999/xlink">
 <path d="M0,0 l140,0 l0,200 l-140,0 Z M0,0" fill="rgb(255,255,255)" transform="matrix(1,0,0,-1,0.0,200.0)"/>
 <path d="M0,0 l140,0" fill="none" stroke="rgb(229,229,229)" stroke-width="2" transform="matrix(1,0,0,-1,0.0,135.0)"/>
 <path d="M0,1 l0,-5" fill="none" stroke="rgb(204,204,204)" stroke-width="2" transform="matrix(1,0,0,-1,7.0,135.0)"/>
 <path d="M0,1 l0,-5" fill="none" stroke="rgb(204,204,204)" stroke-width="2" transform="matrix(1,0,0,-1,132.0,135.0)"/>
 <path d="M422,0 l0,268 c0,77,49,125,117,125 c55,0,83,-25,98,-59 c14,-130,103,-230,245,-230 c104,0,165,51,189,88 l4,0 l0,-192 l75,0 l0,578 l121,0 l0,64 l-195,0 l0,-276 c0,-102,-62,-193,-189,-193 c-115,0,-156,94,-161,135 c20,5,39,10,59,16 c128,35,194,96,194,188 c0,81,-56,140,-144,140 c-85,0,-144,-59,-144,-130 c0,-39,17,-69,33,-84 l70,21 c-16,14,-28,39,-28,60 c0,41,29,65,69,65 c43,0,69,-28,69,-70 c0,-55,-26,-96,-167,-136 l-38,-11 c-26,57,-71,95,-146,95 c-66,0,-107,-31,-127,-57 l-4,0 l0,173 l178,0 l0,64 l-622,0 l0,-64 l370,0 l0,-258 c0,-75,-48,-126,-119,-126 c-63,0,-106,44,-106,104 c0,84,73,115,145,103 l-12,69 c-108,14,-211,-52,-211,-173 c0,-102,79,-171,169,-171 c70,0,111,33,130,57 l4,0 l0,-183 Z M422,0" fill="rgb(0,0,0)" transform="matrix(0.1,0.0,0.0,-0.1,7.0,135.0)"/>
</svg>