<?xml version="1.0" encoding="UTF-8"?>
<svg height="200.0" version="1.1" width="124.0" xmlns="http://www.w3.org/2000/svg" xmlns:xlink="http://www.w3.org/1999/xlink">
 <path d="M0,0 l124,0 l0,200 l-124,0 Z M0,0" fill="rgb(255,255,255)" transform="matrix(1,0,0,-1,0.0,200.0)"/>
 <path d="M0,0 l124,0" fill="none" stroke="rgb(229,229,229)" stroke-width="2" transform="matrix(1,0,0,-1,0.0,135.0)"/>
 <path d="M0,1 l0,-5" fill="none" stroke="rgb(204,204,204)" stroke-width="2" transform="matrix(1,0,0,-1,7.0,135.0)"/>
 <path d="M0,1 l0,-5" fill="none" stroke="rgb(204,204,204)" stroke-width="2" transform="matrix(1,0,0,-1,117.0,135.0)"/>
 <path d="M971,425 l0,153 l147,0 l0,64 l-1140,0 l0,-64 l370,0 l0,-258 c0,-75,-48,-126,-119,-126 c-63,0,-105,44,-105,104 c0,84,72,115,144,103 l-12,69 c-108,14,-211,-52,-211,-173 c0,-102,79,-171,170,-171 c70,0,110,33,129,57 l4,0 l0,-183 l75,0 l0,275 c0,75,48,126,120,126 c42,0,74,-18,94,-44 c-11,-22,-17,-47,-17,-76 c0,-106,88,-209,229,-209 c35,0,70,7,97,20 l73,-132 l89,22 l-111,141 c18,16,35,43,35,83 c0,43,-28,71,-50,82 l-55,-20 l0,-102 c-17,-15,-49,-25,-88,-25 c-83,-1,-142,58,-142,131 c0,56,29,92,117,115 Z M427,412 l-4,0 l0,166 l472,0 l0,-100 l-120,-30 c-35,-8,-64,-20,-87,-36 c-32,36,-78,57,-131,57 c-68,0,-111,-32,-130,-57 Z M427,412" fill="rgb(0,0,0)" transform="matrix(0.1,0.0,0.0,-0.1,7.0,135.0)"/>
</svg>