<?xml version="1.0" encoding="UTF-8"?>
<svg height="200.0" version="1.1" width="150.0" xmlns="http://www.w3.org/2000/svg" xmlns:xlink="http://www.w3.org/1999/xlink">
 <path d="M0,0 l150,0 l0,200 l-150,0 Z M0,0" fill="rgb(255,255,255)" transform="matrix(1,0,0,-1,0.0,200.0)"/>
 <path d="M0,0 l150,0" fill="none" stroke="rgb(229,229,229)" stroke-width="2" transform="matrix(1,0,0,-1,0.0,135.0)"/>
 <path d="M0,1 l0,-5" fill="none" stroke="rgb(204,204,204)" stroke-width="2" transform="matrix(1,0,0,-1,7.0,135.0)"/>
 <path d="M0,1 l0,-5" fill="none" stroke="rgb(204,204,204)" stroke-width="2" transform="matrix(1,0,0,-1,142.0,135.0)"/>
 <path d="M427,412 l-4,0 l0,166 l216,0 l0,-130 c-24,14,-53,21,-82,21 c-68,0,-111,-32,-130,-57 Z M423,0 l0,275 c0,75,48,126,120,126 c45,0,80,-21,96,-52 c3,-102,65,-156,157,-156 c67,0,107,32,124,59 l4,0 l0,-252 l74,0 l0,260 c0,83,54,140,126,140 c63,0,105,-41,105,-103 c0,-73,-54,-127,-145,-110 l12,-70 c116,-14,211,61,211,181 c0,103,-77,171,-170,171 c-72,0,-117,-37,-135,-61 l-4,0 l0,170 l372,0 l0,64 l-1392,0 l0,-64 l370,0 l0,-258 c0,-75,-48,-126,-119,-126 c-63,0,-105,44,-105,104 c0,84,72,115,144,103 l-12,69 c-108,14,-211,-52,-211,-173 c0,-102,79,-171,170,-171 c70,0,110,33,129,57 l4,0 l0,-183 Z M187,16 c0,28,-20,48,-48,48 c-28,0,-48,-20,-48,-48 c0,-27,20,-47,48,-47 c28,0,48,20,48,47 Z M714,367 l0,211 l211,0 l0,-180 c0,-83,-48,-136,-121,-136 c-58,0,-90,30,-90,105 Z M759,25 c0,29,-20,49,-48,49 c-27,0,-47,-20,-47,-49 c0,-26,20,-47,47,-47 c28,0,48,21,48,47 Z M759,25" fill="rgb(0,0,0)" transform="matrix(0.1,0.0,0.0,-0.1,7.0,135.0)"/>
</svg>