<?xml version="1.0" encoding="UTF-8"?>
<svg height="200.0" version="1.1" width="130.0" xmlns="http://www.w3.org/2000/svg" xmlns:xlink="http://www.w3.org/1999/xlink">
 <path d="M0,0 l130,0 l0,200 l-130,0 Z M0,0" fill="rgb(255,255,255)" transform="matrix(1,0,0,-1,0.0,200.0)"/>
 <path d="M0,0 l130,0" fill="none" stroke="rgb(229,229,229)" stroke-width="2" transform="matrix(1,0,0,-1,0.0,135.0)"/>
 <path d="M0,1 l0,-5" fill="none" stroke="rgb(204,204,204)" stroke-width="2" transform="matrix(1,0,0,-1,7.0,135.0)"/>
 <path d="M0,1 l0,-5" fill="none" stroke="rgb(204,204,204)" stroke-width="2" transform="matrix(1,0,0,-1,122.0,135.0)"/>
 <path d="M838,427 c22,0,45,-3,67,-11 l-3,70 c-21,6,-45,8,-69,8 c-61,0,-119,-25,-158,-69 c-31,28,-72,44,-118,44 c-68,0,-111,-32,-130,-57 l-4,0 l0,166 l551,0 l0,-267 c0,-26,-6,-50,-18,-71 l-199,164 c23,15,51,23,81,23 Z M348,183 l0,-183 l75,0 l0,275 c0,75,48,126,120,126 c41,0,73,-17,93,-43 c-6,-19,-9,-39,-9,-61 c0,-113,86,-193,194,-193 c77,0,126,36,149,65 l4,0 l0,-169 l76,0 l0,578 l120,0 l0,64 l-1192,0 l0,-64 l370,0 l0,-258 c0,-75,-48,-126,-119,-126 c-63,0,-105,44,-105,104 c0,84,72,115,144,103 l-12,69 c-108,14,-211,-52,-211,-173 c0,-102,79,-171,170,-171 c70,0,110,33,129,57 Z M831,171 c-79,0,-129,55,-129,128 c0,26,7,48,18,67 l202,-166 c-24,-18,-55,-29,-91,-29 Z M91,16 c0,-27,20,-48,48,-48 c28,0,48,21,48,48 c0,28,-20,49,-48,49 c-28,0,-48,-21,-48,-49 Z M91,16" fill="rgb(0,0,0)" transform="matrix(0.1,0.0,0.0,-0.1,7.0,135.0)"/>
</svg>