<?xml version="1.0" encoding="UTF-8"?>
<svg height="200.0" version="1.1" width="126.0" xmlns="http://www.w3.org/2000/svg" xmlns:xlink="http://www.w3.org/1999/xlink">
 <path d="M0,0 l126,0 l0,200 l-126,0 Z M0,0" fill="rgb(255,255,255)" transform="matrix(1,0,0,-1,0.0,200.0)"/>
 <path d="M0,0 l126,0" fill="none" stroke="rgb(229,229,229)" stroke-width="2" transform="matrix(1,0,0,-1,0.0,135.0)"/>
 <path d="M0,1 l0,-5" fill="none" stroke="rgb(204,204,204)" stroke-width="2" transform="matrix(1,0,0,-1,7.0,135.0)"/>
 <path d="M0,1 l0,-5" fill="none" stroke="rgb(204,204,204)" stroke-width="2" transform="matrix(1,0,0,-1,118.0,135.0)"/>
 <path d="M427,405 l-4,0 l0,173 l227,0 l0,-149 c-26,21,-58,33,-94,33 c-68,0,-110,-31,-129,-57 Z M348,183 l0,-183 l75,0 l0,269 c0,75,48,126,120,126 c44,0,82,-24,98,-64 l-40,-30 c1,-43,24,-102,60,-132 l63,0 l0,102 l213,0 l0,-271 l75,0 l0,578 l121,0 l0,64 l-1155,0 l0,-64 l370,0 l0,-258 c0,-75,-48,-126,-119,-126 c-63,0,-105,44,-105,104 c0,84,72,115,144,103 l-12,69 c-108,14,-211,-52,-211,-173 c0,-102,79,-171,170,-171 c70,0,110,33,129,57 Z M937,578 l0,-238 l-212,0 l0,238 Z M91,16 c0,-27,20,-48,48,-48 c28,0,48,21,48,48 c0,28,-20,49,-48,49 c-28,0,-48,-21,-48,-49 Z M91,16" fill="rgb(0,0,0)" transform="matrix(0.1,0.0,0.0,-0.1,7.0,135.0)"/>
</svg>