<?xml version="1.0" encoding="UTF-8"?>
<svg height="200.0" version="1.1" width="130.0" xmlns="http://www.w3.org/2000/svg" xmlns:xlink="http://www.w3.org/1999/xlink">
 <path d="M0,0 l130,0 l0,200 l-130,0 Z M0,0" fill="rgb(255,255,255)" transform="matrix(1,0,0,-1,0.0,200.0)"/>
 <path d="M0,0 l130,0" fill="none" stroke="rgb(229,229,229)" stroke-width="2" transform="matrix(1,0,0,-1,0.0,135.0)"/>
 <path d="M0,1 l0,-5" fill="none" stroke="rgb(204,204,204)" stroke-width="2" transform="matrix(1,0,0,-1,7.0,135.0)"/>
 <path d="M0,1 l0,-5" fill="none" stroke="rgb(204,204,204)" stroke-width="2" transform="matrix(1,0,0,-1,123.0,135.0)"/>
 <path d="M537,460 c-53,0,-94,-32,-110,-57 l-4,0 l0,175 l276,0 c26,-23,43,-59,43,-95 c0,-47,-30,-77,-84,-98 c-22,46,-65,75,-121,75 Z M525,391 c54,0,73,-35,79,-61 c27,-123,114,-193,222,-193 c92,0,139,48,157,72 l4,0 l0,-209 l76,0 l0,578 l121,0 l0,64 l-1206,0 l0,-64 l370,0 l0,-258 c0,-75,-48,-126,-119,-126 c-63,0,-105,44,-105,104 c0,85,74,115,144,103 l-12,69 c-109,14,-211,-53,-211,-173 c0,-102,79,-171,170,-171 c70,0,110,33,129,57 l4,0 l0,-183 l75,0 l0,266 c0,77,47,125,102,125 Z M685,333 c77,18,135,69,135,139 c0,44,-17,76,-41,102 l0,4 l209,0 l0,-208 c0,-105,-63,-164,-152,-164 c-99,0,-143,73,-151,127 Z M685,333" fill="rgb(0,0,0)" transform="matrix(0.1,0.0,0.0,-0.1,7.0,135.0)"/>
</svg>