<?xml version="1.0" encoding="UTF-8"?>
<svg height="200.0" version="1.1" width="140.0" xmlns="http://www.w3.org/2000/svg" xmlns:xlink="http://www.w3.org/1999/xlink">
 <path d="M0,0 l140,0 l0,200 l-140,0 Z M0,0" fill="rgb(255,255,255)" transform="matrix(1,0,0,-1,0.0,200.0)"/>
 <path d="M0,0 l140,0" fill="none" stroke="rgb(229,229,229)" stroke-width="2" transform="matrix(1,0,0,-1,0.0,135.0)"/>
 <path d="M0,1 l0,-5" fill="none" stroke="rgb(204,204,204)" stroke-width="2" transform="matrix(1,0,0,-1,7.0,135.0)"/>
 <path d="M0,1 l0,-5" fill="none" stroke="rgb(204,204,204)" stroke-width="2" transform="matrix(1,0,0,-1,134.0,135.0)"/>
 <path d="M348,183 l0,-183 l75,0 l0,275 c0,75,48,126,120,126 c36,0,64,-13,84,-33 c-14,-26,-22,-59,-22,-97 c0,-125,81,-226,177,-278 l51,54 c-98,53,-150,131,-150,222 c0,80,42,114,90,114 c50,0,82,-32,82,-97 l0,-95 l73,0 l0,95 c0,68,34,101,83,101 c34,0,65,-18,80,-33 l0,-354 l76,0 l0,578 l120,0 l0,64 l-1309,0 l0,-64 l370,0 l0,-258 c0,-75,-48,-126,-119,-126 c-63,0,-105,44,-105,104 c0,84,72,115,144,103 l-12,69 c-108,14,-211,-52,-211,-173 c0,-102,79,-171,170,-171 c70,0,110,33,129,57 Z M1087,423 c-15,17,-45,33,-85,33 c-50,0,-94,-30,-109,-84 l-4,0 c-15,48,-58,80,-123,80 c-32,0,-63,-9,-90,-28 c-30,28,-72,45,-119,45 c-68,0,-111,-32,-130,-57 l-4,0 l0,166 l668,0 l0,-155 Z M1087,423" fill="rgb(0,0,0)" transform="matrix(0.1,0.0,0.0,-0.1,7.0,135.0)"/>
</svg>