<?xml version="1.0" encoding="UTF-8"?>
<svg height="200.0" version="1.1" width="166.0" xmlns="http://www.w3.org/2000/svg" xmlns:xlink="http://www.w3.org/1999/xlink">
 <path d="M0,0 l166,0 l0,200 l-166,0 Z M0,0" fill="rgb(255,255,255)" transform="matrix(1,0,0,-1,0.0,200.0)"/>
 <path d="M0,0 l166,0" fill="none" stroke="rgb(229,229,229)" stroke-width="2" transform="matrix(1,0,0,-1,0.0,135.0)"/>
 <path d="M0,1 l0,-5" fill="none" stroke="rgb(204,204,204)" stroke-width="2" transform="matrix(1,0,0,-1,7.0,135.0)"/>
 <path d="M0,1 l0,-5" fill="none" stroke="rgb(204,204,204)" stroke-width="2" transform="matrix(1,0,0,-1,158.0,135.0)"/>
 <path d="M824,184 c-70,0,-118,47,-118,115 c0,73,55,114,122,114 c14,0,29,-2,44,-6 l-7,71 c-14,2,-28,4,-41,4 c-55,0,-110,-18,-149,-57 c-30,28,-72,44,-118,44 c-68,0,-111,-32,-130,-57 l-4,0 l0,166 l621,0 c26,-23,43,-59,43,-95 c0,-62,-52,-95,-144,-115 c3,-29,9,-55,18,-79 c-15,-47,-55,-105,-137,-105 Z M348,183 l0,-183 l75,0 l0,275 c0,75,48,126,120,126 c41,0,72,-17,92,-42 c-6,-18,-9,-38,-9,-61 c0,-113,88,-183,190,-183 c98,0,154,52,185,101 c41,-51,101,-79,169,-79 c93,0,140,48,158,72 l4,0 l0,-209 l76,0 l0,578 l121,0 l0,64 l-1551,0 l0,-64 l370,0 l0,-258 c0,-75,-48,-126,-119,-126 c-63,0,-105,44,-105,104 c0,84,72,115,144,103 l-12,69 c-108,14,-211,-52,-211,-173 c0,-102,79,-171,170,-171 c70,0,110,33,129,57 Z M1030,333 c77,18,134,69,134,139 c0,44,-16,76,-40,102 l0,4 l209,0 l0,-208 c0,-105,-64,-164,-152,-164 c-100,0,-143,73,-151,127 Z M1030,333" fill="rgb(0,0,0)" transform="matrix(0.1,0.0,0.0,-0.1,7.0,135.0)"/>
</svg>