<?xml version="1.0" encoding="UTF-8"?>
<svg height="200.0" version="1.1" width="148.0" xmlns="http://www.w3.org/2000/svg" xmlns:xlink="http://www.w3.org/1999/xlink">
 <path d="M0,0 l148,0 l0,200 l-148,0 Z M0,0" fill="rgb(255,255,255)" transform="matrix(1,0,0,-1,0.0,200.0)"/>
 <path d="M0,0 l148,0" fill="none" stroke="rgb(229,229,229)" stroke-width="2" transform="matrix(1,0,0,-1,0.0,135.0)"/>
 <path d="M0,1 l0,-5" fill="none" stroke="rgb(204,204,204)" stroke-width="2" transform="matrix(1,0,0,-1,7.0,135.0)"/>
 <path d="M0,1 l0,-5" fill="none" stroke="rgb(204,204,204)" stroke-width="2" transform="matrix(1,0,0,-1,140.0,135.0)"/>
 <path d="M91,18 c0,-27,20,-48,48,-48 c28,0,48,21,48,48 c0,28,-20,48,-48,48 c-28,0,-48,-20,-48,-48 Z M846,446 c-38,9,-57,38,-57,68 c0,41,28,72,77,72 c49,0,95,-40,95,-116 c0,-97,-79,-154,-183,-154 c-23,0,-52,3,-79,10 c-9,76,-68,134,-148,134 c-66,0,-105,-29,-124,-55 l-4,0 l0,173 l176,0 l0,64 l-621,0 l0,-64 l370,0 l0,-258 c0,-75,-48,-126,-119,-126 c-63,0,-105,44,-105,104 c0,72,54,105,114,105 c10,0,20,0,30,-2 l-12,69 c-10,1,-19,1,-29,1 c-96,0,-182,-64,-182,-174 c0,-102,79,-171,170,-171 c70,0,110,33,129,57 l4,0 l0,-183 l75,0 l0,269 c0,75,45,124,113,124 c62,0,97,-47,97,-97 c0,-8,-1,-17,-3,-24 l70,-59 l231,-224 l63,43 l-133,128 c-48,46,-73,64,-101,88 l2,4 c11,-1,22,-1,33,0 c134,3,243,81,243,219 c0,93,-59,181,-173,181 c-91,0,-153,-63,-153,-139 c0,-57,32,-104,88,-119 Z M1160,0 l75,0 l0,578 l121,0 l0,64 l-196,0 Z M1160,0" fill="rgb(0,0,0)" transform="matrix(0.1,0.0,0.0,-0.1,7.0,135.0)"/>
</svg>