<?xml version="1.0" encoding="UTF-8"?>
<svg height="200.0" version="1.1" width="124.0" xmlns="http://www.w3.org/2000/svg" xmlns:xlink="http://www.w3.org/1999/xlink">
 <path d="M0,0 l124,0 l0,200 l-124,0 Z M0,0" fill="rgb(255,255,255)" transform="matrix(1,0,0,-1,0.0,200.0)"/>
 <path d="M0,0 l124,0" fill="none" stroke="rgb(229,229,229)" stroke-width="2" transform="matrix(1,0,0,-1,0.0,135.0)"/>
 <path d="M0,1 l0,-5" fill="none" stroke="rgb(204,204,204)" stroke-width="2" transform="matrix(1,0,0,-1,5.0,135.0)"/>
 <path d="M0,1 l0,-5" fill="none" stroke="rgb(204,204,204)" stroke-width="2" transform="matrix(1,0,0,-1,117.0,135.0)"/>
 <path d="M496,-70 l-90,138 c17,14,33,42,33,81 c0,39,-27,68,-48,77 l-54,-19 l0,-96 c-16,-14,-49,-23,-89,-23 c-80,0,-131,49,-131,111 c0,66,53,98,151,128 c44,-18,110,-31,174,-31 c48,0,90,5,123,13 c32,-110,115,-172,217,-172 c92,0,139,48,157,72 l4,0 l0,-209 l76,0 l0,578 l121,0 l0,64 l-632,0 l0,-64 l147,0 c26,-23,43,-59,43,-95 c0,-62,-52,-95,-144,-115 c-32,-6,-60,-9,-114,-9 c-32,0,-69,6,-91,11 l0,4 c33,15,87,52,87,132 c0,82,-67,146,-166,146 c-103,0,-176,-65,-176,-147 c0,-63,42,-113,95,-137 c-92,-35,-150,-86,-150,-168 c0,-99,79,-180,219,-180 c37,0,71,7,96,18 l52,-125 Z M167,504 c0,48,38,84,100,84 c60,0,96,-34,96,-82 c0,-62,-49,-97,-99,-109 c-60,20,-97,60,-97,107 Z M641,333 c77,18,135,69,135,139 c0,44,-17,76,-41,102 l0,4 l209,0 l0,-208 c0,-105,-63,-164,-152,-164 c-99,0,-143,73,-151,127 Z M641,333" fill="rgb(0,0,0)" transform="matrix(0.1,0.0,0.0,-0.1,5.0,135.0)"/>
</svg>