<?xml version="1.0" encoding="UTF-8"?>
<svg height="200.0" version="1.1" width="140.0" xmlns="http://www.w3.org/2000/svg" xmlns:xlink="http://www.w3.org/1999/xlink">
 <path d="M0,0 l140,0 l0,200 l-140,0 Z M0,0" fill="rgb(255,255,255)" transform="matrix(1,0,0,-1,0.0,200.0)"/>
 <path d="M0,0 l140,0" fill="none" stroke="rgb(229,229,229)" stroke-width="2" transform="matrix(1,0,0,-1,0.0,135.0)"/>
 <path d="M0,1 l0,-5" fill="none" stroke="rgb(204,204,204)" stroke-width="2" transform="matrix(1,0,0,-1,7.0,135.0)"/>
 <path d="M0,1 l0,-5" fill="none" stroke="rgb(204,204,204)" stroke-width="2" transform="matrix(1,0,0,-1,133.0,135.0)"/>
 <path d="M729,275 c10,-3,26,-4,34,-4 c29,1,57,9,79,27 c38,-18,94,-29,148,-29 c37,0,65,3,92,9 l0,-278 l75,0 l0,578 l121,0 l0,64 l-1300,0 l0,-64 l370,0 l0,-258 c0,-75,-48,-126,-119,-126 c-63,0,-105,44,-105,104 c0,84,72,115,144,103 l-12,69 c-108,14,-211,-52,-211,-173 c0,-102,79,-171,170,-171 c70,0,110,33,129,57 l4,0 l0,-183 l75,0 l0,251 c0,78,39,130,97,130 c32,0,53,-19,89,-65 l243,-319 l61,40 l-116,152 c-27,35,-47,58,-69,83 Z M987,338 c-37,0,-76,5,-108,15 c3,12,5,26,5,41 l0,184 l198,0 l0,-227 c-25,-9,-58,-13,-95,-13 Z M742,335 c-44,0,-70,22,-88,42 c-43,49,-73,71,-125,71 c-50,0,-85,-27,-102,-53 l-4,0 l0,183 l386,0 l0,-178 c0,-46,-23,-65,-67,-65 Z M742,335" fill="rgb(0,0,0)" transform="matrix(0.1,0.0,0.0,-0.1,7.0,135.0)"/>
</svg>