<?xml version="1.0" encoding="UTF-8"?>
<svg height="200.0" version="1.1" width="164.0" xmlns="http://www.w3.org/2000/svg" xmlns:xlink="http://www.w3.org/1999/xlink">
 <path d="M0,0 l164,0 l0,200 l-164,0 Z M0,0" fill="rgb(255,255,255)" transform="matrix(1,0,0,-1,0.0,200.0)"/>
 <path d="M0,0 l164,0" fill="none" stroke="rgb(229,229,229)" stroke-width="2" transform="matrix(1,0,0,-1,0.0,135.0)"/>
 <path d="M0,1 l0,-5" fill="none" stroke="rgb(204,204,204)" stroke-width="2" transform="matrix(1,0,0,-1,7.0,135.0)"/>
 <path d="M0,1 l0,-5" fill="none" stroke="rgb(204,204,204)" stroke-width="2" transform="matrix(1,0,0,-1,157.0,135.0)"/>
 <path d="M988,338 c-37,0,-77,6,-109,15 c3,12,5,25,5,40 l0,185 l423,0 l0,-113 l-118,-36 c-61,-19,-103,-46,-125,-85 c-22,-4,-48,-6,-76,-6 Z M742,335 c-43,0,-71,22,-88,42 c-43,49,-73,71,-125,71 c-50,0,-85,-27,-102,-53 l-4,0 l0,183 l386,0 l0,-178 c0,-46,-23,-65,-67,-65 Z M348,183 l0,-183 l75,0 l0,251 c0,78,39,130,97,130 c32,0,53,-19,89,-65 l243,-319 l61,40 l-116,152 c-27,35,-47,58,-69,83 l1,3 c11,-3,29,-3,38,-3 c28,1,55,10,76,26 c37,-18,94,-29,149,-29 c20,0,37,1,53,2 c0,-2,0,-5,0,-8 c0,-116,102,-222,244,-222 c71,0,141,21,193,72 l-42,61 c-38,-40,-86,-64,-160,-64 c-99,0,-158,70,-158,139 c0,57,20,92,117,121 l144,42 l0,166 l139,0 l0,64 l-1544,0 l0,-64 l370,0 l0,-258 c0,-75,-48,-126,-119,-126 c-63,0,-105,44,-105,104 c0,84,72,115,144,103 l-12,69 c-108,14,-211,-52,-211,-173 c0,-102,79,-171,170,-171 c70,0,110,33,129,57 Z M348,183" fill="rgb(0,0,0)" transform="matrix(0.1,0.0,0.0,-0.1,7.0,135.0)"/>
</svg>