<?xml version="1.0" encoding="UTF-8"?>
<svg height="200.0" version="1.1" width="168.0" xmlns="http://www.w3.org/2000/svg" xmlns:xlink="http://www.w3.org/1999/xlink">
 <path d="M0,0 l168,0 l0,200 l-168,0 Z M0,0" fill="rgb(255,255,255)" transform="matrix(1,0,0,-1,0.0,200.0)"/>
 <path d="M0,0 l168,0" fill="none" stroke="rgb(229,229,229)" stroke-width="2" transform="matrix(1,0,0,-1,0.0,135.0)"/>
 <path d="M0,1 l0,-5" fill="none" stroke="rgb(204,204,204)" stroke-width="2" transform="matrix(1,0,0,-1,7.0,135.0)"/>
 <path d="M0,1 l0,-5" fill="none" stroke="rgb(204,204,204)" stroke-width="2" transform="matrix(1,0,0,-1,160.0,135.0)"/>
 <path d="M1232,280 c-36,10,-64,45,-64,79 c0,33,15,55,74,55 l181,0 l0,164 l130,0 l0,64 l-1575,0 l0,-64 l370,0 l0,-258 c0,-75,-48,-126,-119,-126 c-63,0,-105,44,-105,104 c0,84,72,115,144,103 l-12,69 c-108,14,-211,-52,-211,-173 c0,-102,79,-171,170,-171 c70,0,110,33,129,57 l4,0 l0,-183 l75,0 l0,251 c0,78,39,130,97,130 c32,0,53,-19,89,-65 l243,-319 l61,40 l-116,152 c-27,35,-47,58,-69,83 l1,3 c11,-3,29,-3,38,-3 c29,1,56,10,76,26 c38,-17,96,-28,149,-28 c52,0,85,3,126,17 c23,-35,61,-63,102,-78 l156,33 c19,-15,28,-37,28,-63 c0,-64,-51,-101,-123,-101 c-87,0,-157,56,-199,138 l-56,-42 c53,-95,140,-162,254,-162 c120,0,198,75,198,167 c0,63,-35,115,-78,135 Z M988,338 c-37,0,-77,6,-109,15 c3,12,5,25,5,40 l0,185 l465,0 l0,-99 l-144,0 c-71,0,-114,-43,-114,-105 c0,-8,1,-15,2,-23 c-28,-9,-65,-13,-105,-13 Z M742,335 c-43,0,-71,23,-88,42 c-43,49,-73,71,-125,71 c-50,0,-85,-27,-102,-53 l-4,0 l0,183 l386,0 l0,-178 c0,-46,-23,-65,-67,-65 Z M742,335" fill="rgb(0,0,0)" transform="matrix(0.1,0.0,0.0,-0.1,7.0,135.0)"/>
</svg>