<?xml version="1.0" encoding="UTF-8"?>
<svg height="200.0" version="1.1" width="218.0" xmlns="http://www.w3.org/2000/svg" xmlns:xlink="http://www.w3.org/1999/xlink">
 <path d="M0,0 l218,0 l0,200 l-218,0 Z M0,0" fill="rgb(255,255,255)" transform="matrix(1,0,0,-1,0.0,200.0)"/>
 <path d="M0,0 l218,0" fill="none" stroke="rgb(229,229,229)" stroke-width="2" transform="matrix(1,0,0,-1,0.0,135.0)"/>
 <path d="M0,1 l0,-5" fill="none" stroke="rgb(204,204,204)" stroke-width="2" transform="matrix(1,0,0,-1,7.0,135.0)"/>
 <path d="M0,1 l0,-5" fill="none" stroke="rgb(204,204,204)" stroke-width="2" transform="matrix(1,0,0,-1,210.0,135.0)"/>
 <path d="M988,338 c-37,0,-77,5,-109,15 c3,12,5,25,5,40 l0,185 l199,0 l0,-218 c0,-3,0,-6,0,-9 c-25,-9,-58,-13,-95,-13 Z M1249,195 c50,0,89,13,120,33 c16,-105,88,-189,173,-235 l52,54 c-98,53,-150,131,-150,222 c0,80,42,114,89,114 c50,0,83,-32,83,-97 l0,-95 l72,0 l0,95 c0,68,34,101,84,101 c34,0,65,-18,80,-33 l0,-354 l75,0 l0,578 l121,0 l0,64 l-2070,0 l0,-64 l370,0 l0,-258 c0,-75,-48,-126,-119,-126 c-63,0,-105,44,-105,104 c0,84,72,115,144,103 l-12,69 c-108,14,-211,-52,-211,-173 c0,-102,79,-171,170,-171 c70,0,110,33,129,57 l4,0 l0,-183 l75,0 l0,251 c0,78,39,130,97,130 c32,0,53,-19,89,-65 l243,-319 l61,40 l-116,152 c-27,35,-47,58,-69,83 l1,3 c11,-3,29,-3,38,-3 c28,1,55,10,75,26 c37,-18,94,-29,149,-29 c47,0,80,6,107,14 c25,-57,81,-88,151,-88 Z M1848,423 c-15,17,-46,33,-85,33 c-50,0,-95,-30,-109,-84 l-4,0 c-15,48,-58,80,-123,80 c-72,0,-140,-47,-157,-137 c-25,-27,-62,-51,-113,-51 c-63,0,-99,29,-99,106 l0,208 l694,0 l0,-155 Z M742,335 c-43,0,-71,22,-88,42 c-43,49,-73,71,-125,71 c-50,0,-85,-27,-102,-53 l-4,0 l0,183 l386,0 l0,-178 c0,-46,-23,-65,-67,-65 Z M742,335" fill="rgb(0,0,0)" transform="matrix(0.1,0.0,0.0,-0.1,7.0,135.0)"/>
</svg>