<?xml version="1.0" encoding="UTF-8"?>
<svg height="200.0" version="1.1" width="150.0" xmlns="http://www.w3.org/2000/svg" xmlns:xlink="http://www.w3.org/1999/xlink">
 <path d="M0,0 l150,0 l0,200 l-150,0 Z M0,0" fill="rgb(255,255,255)" transform="matrix(1,0,0,-1,0.0,200.0)"/>
 <path d="M0,0 l150,0" fill="none" stroke="rgb(229,229,229)" stroke-width="2" transform="matrix(1,0,0,-1,0.0,135.0)"/>
 <path d="M0,1 l0,-5" fill="none" stroke="rgb(204,204,204)" stroke-width="2" transform="matrix(1,0,0,-1,6.0,135.0)"/>
 <path d="M0,1 l0,-5" fill="none" stroke="rgb(204,204,204)" stroke-width="2" transform="matrix(1,0,0,-1,142.0,135.0)"/>
 <path d="M396,96 c-120,0,-216,74,-244,206 c12,-6,28,-11,55,-11 c63,0,111,44,111,124 l0,163 l488,0 l0,-166 c0,-43,-20,-59,-50,-59 c-35,0,-54,15,-68,34 c-24,64,-80,107,-155,107 c-91,0,-159,-65,-159,-154 c0,-93,71,-146,140,-150 l42,53 c-68,3,-111,42,-111,96 c0,53,37,89,91,89 c50,0,99,-44,99,-111 c0,-136,-111,-221,-239,-221 Z M1187,131 l4,0 l0,-131 l72,0 l0,578 l121,0 l0,64 l-1397,0 l0,-64 l257,0 l0,-166 c0,-43,-19,-59,-49,-59 c-37,0,-56,20,-69,45 l-66,-23 c20,-196,137,-345,334,-345 c137,0,238,74,282,172 c53,-105,147,-173,279,-173 c109,0,189,49,232,102 Z M1186,459 c-16,18,-49,34,-97,34 c-84,0,-154,-64,-154,-154 c0,-93,72,-145,142,-150 l39,53 c-68,3,-109,42,-109,96 c0,53,37,89,90,89 c50,0,96,-39,96,-110 c0,-139,-109,-221,-236,-221 c-123,0,-219,75,-246,207 c12,-6,30,-11,57,-11 c63,0,112,43,112,123 l0,163 l310,0 l0,-119 Z M1186,459" fill="rgb(0,0,0)" transform="matrix(0.1,0.0,0.0,-0.1,6.0,135.0)"/>
</svg>