<?xml version="1.0" encoding="UTF-8"?>
<svg height="200.0" version="1.1" width="126.0" xmlns="http://www.w3.org/2000/svg" xmlns:xlink="http://www.w3.org/1999/xlink">
 <path d="M0,0 l126,0 l0,200 l-126,0 Z M0,0" fill="rgb(255,255,255)" transform="matrix(1,0,0,-1,0.0,200.0)"/>
 <path d="M0,0 l126,0" fill="none" stroke="rgb(229,229,229)" stroke-width="2" transform="matrix(1,0,0,-1,0.0,135.0)"/>
 <path d="M0,1 l0,-5" fill="none" stroke="rgb(204,204,204)" stroke-width="2" transform="matrix(1,0,0,-1,6.0,135.0)"/>
 <path d="M0,1 l0,-5" fill="none" stroke="rgb(204,204,204)" stroke-width="2" transform="matrix(1,0,0,-1,119.0,135.0)"/>
 <path d="M396,96 c-120,0,-216,74,-244,206 c12,-6,28,-11,55,-11 c63,0,111,44,111,124 l0,163 l641,0 l0,-140 l-154,0 c-47,0,-88,-15,-119,-44 c-26,60,-81,100,-153,100 c-91,0,-159,-65,-159,-154 c0,-93,71,-146,140,-150 l42,53 c-68,3,-111,42,-111,96 c0,53,37,89,91,89 c50,0,97,-44,97,-110 c0,-137,-109,-222,-237,-222 Z M821,38 c-63,47,-119,117,-119,217 c0,77,47,115,115,115 l142,0 l0,-370 l75,0 l0,578 l121,0 l0,64 l-1168,0 l0,-64 l257,0 l0,-166 c0,-43,-19,-59,-49,-59 c-37,0,-56,20,-69,45 l-66,-23 c20,-196,137,-345,334,-345 c113,0,200,50,253,121 c22,-68,66,-121,114,-158 Z M92,-14 c0,-27,20,-48,48,-48 c28,0,48,21,48,48 c0,28,-20,49,-48,49 c-28,0,-48,-21,-48,-49 Z M92,-14" fill="rgb(0,0,0)" transform="matrix(0.1,0.0,0.0,-0.1,6.0,135.0)"/>
</svg>