<?xml version="1.0" encoding="UTF-8"?>
<svg height="200.0" version="1.1" width="136.0" xmlns="http://www.w3.org/2000/svg" xmlns:xlink="http://www.w3.org/1999/xlink">
 <path d="M0,0 l136,0 l0,200 l-136,0 Z M0,0" fill="rgb(255,255,255)" transform="matrix(1,0,0,-1,0.0,200.0)"/>
 <path d="M0,0 l136,0" fill="none" stroke="rgb(229,229,229)" stroke-width="2" transform="matrix(1,0,0,-1,0.0,135.0)"/>
 <path d="M0,1 l0,-5" fill="none" stroke="rgb(204,204,204)" stroke-width="2" transform="matrix(1,0,0,-1,7.0,135.0)"/>
 <path d="M0,1 l0,-5" fill="none" stroke="rgb(204,204,204)" stroke-width="2" transform="matrix(1,0,0,-1,130.0,135.0)"/>
 <path d="M828,233 l0,92 l200,0 l0,-325 l76,0 l0,578 l120,0 l0,64 l-1246,0 l0,-64 l258,0 l0,-166 c0,-43,-20,-59,-50,-59 c-36,0,-56,20,-69,45 l-66,-23 c20,-196,138,-345,334,-345 c188,0,308,139,308,286 c0,100,-68,178,-168,178 c-92,0,-160,-65,-160,-154 c0,-93,72,-146,141,-150 l41,53 c-68,3,-111,42,-111,96 c0,53,38,89,91,89 c50,0,97,-44,97,-110 c0,-137,-109,-222,-237,-222 c-120,0,-216,74,-244,206 c12,-6,28,-11,55,-11 c63,0,112,44,112,124 l0,163 l718,0 l0,-185 l-256,0 l-56,-45 c1,-56,28,-108,66,-131 Z M83,-14 c0,-27,20,-48,48,-48 c28,0,48,21,48,48 c0,28,-20,49,-48,49 c-28,0,-48,-21,-48,-49 Z M83,-14" fill="rgb(0,0,0)" transform="matrix(0.1,0.0,0.0,-0.1,7.0,135.0)"/>
</svg>