<?xml version="1.0" encoding="UTF-8"?>
<svg height="200.0" version="1.1" width="132.0" xmlns="http://www.w3.org/2000/svg" xmlns:xlink="http://www.w3.org/1999/xlink">
 <path d="M0,0 l132,0 l0,200 l-132,0 Z M0,0" fill="rgb(255,255,255)" transform="matrix(1,0,0,-1,0.0,200.0)"/>
 <path d="M0,0 l132,0" fill="none" stroke="rgb(229,229,229)" stroke-width="2" transform="matrix(1,0,0,-1,0.0,135.0)"/>
 <path d="M0,1 l0,-5" fill="none" stroke="rgb(204,204,204)" stroke-width="2" transform="matrix(1,0,0,-1,6.0,135.0)"/>
 <path d="M0,1 l0,-5" fill="none" stroke="rgb(204,204,204)" stroke-width="2" transform="matrix(1,0,0,-1,124.0,135.0)"/>
 <path d="M396,96 c-120,0,-216,74,-244,206 c12,-6,28,-11,55,-11 c63,0,111,44,111,124 l0,163 l402,0 c26,-23,44,-59,44,-95 c0,-46,-24,-77,-74,-97 c-24,64,-82,108,-157,108 c-91,0,-159,-65,-159,-154 c0,-93,71,-146,140,-150 l42,53 c-68,3,-111,42,-111,96 c0,53,37,89,91,89 c52,0,97,-48,97,-110 c0,-137,-109,-222,-237,-222 Z M1009,209 l0,-209 l75,0 l0,578 l121,0 l0,64 l-1218,0 l0,-64 l257,0 l0,-166 c0,-43,-19,-59,-49,-59 c-37,0,-56,20,-69,45 l-66,-23 c20,-196,137,-345,334,-345 c144,0,248,82,289,186 c39,-51,96,-79,164,-79 c93,0,140,48,158,72 Z M705,333 c77,19,136,69,136,139 c0,44,-16,76,-41,102 l0,4 l210,0 l0,-208 c0,-105,-64,-164,-152,-164 c-100,0,-145,73,-153,127 Z M705,333" fill="rgb(0,0,0)" transform="matrix(0.1,0.0,0.0,-0.1,6.0,135.0)"/>
</svg>