<?xml version="1.0" encoding="UTF-8"?>
<svg height="200.0" version="1.1" width="140.0" xmlns="http://www.w3.org/2000/svg" xmlns:xlink="http://www.w3.org/1999/xlink">
 <path d="M0,0 l140,0 l0,200 l-140,0 Z M0,0" fill="rgb(255,255,255)" transform="matrix(1,0,0,-1,0.0,200.0)"/>
 <path d="M0,0 l140,0" fill="none" stroke="rgb(229,229,229)" stroke-width="2" transform="matrix(1,0,0,-1,0.0,135.0)"/>
 <path d="M0,1 l0,-5" fill="none" stroke="rgb(204,204,204)" stroke-width="2" transform="matrix(1,0,0,-1,6.0,135.0)"/>
 <path d="M0,1 l0,-5" fill="none" stroke="rgb(204,204,204)" stroke-width="2" transform="matrix(1,0,0,-1,133.0,135.0)"/>
 <path d="M93,-14 c0,-27,20,-47,47,-47 c28,0,48,20,48,47 c0,28,-20,48,-48,48 c-27,0,-47,-20,-47,-48 Z M396,96 c-120,0,-216,74,-244,206 c12,-6,28,-11,55,-11 c63,0,111,44,111,124 l0,163 l505,0 l0,-186 c0,-46,-22,-65,-66,-65 c-24,0,-42,7,-58,17 c-11,86,-75,150,-166,150 c-91,0,-159,-65,-159,-154 c0,-93,71,-146,140,-150 l42,53 c-68,3,-111,42,-111,96 c0,53,37,89,91,89 c50,0,96,-44,96,-110 c0,-137,-108,-222,-236,-222 Z M1002,338 c-37,0,-75,5,-107,14 c3,10,4,22,4,34 l0,192 l197,0 l0,-227 c-26,-8,-59,-13,-94,-13 Z M928,29 l-116,152 c-28,36,-48,58,-69,83 l1,3 c10,-3,26,-3,34,-3 c33,1,63,11,86,31 c37,-14,90,-24,141,-24 c39,0,68,3,91,8 l0,-279 l76,0 l0,578 l121,0 l0,64 l-1306,0 l0,-64 l257,0 l0,-166 c0,-43,-19,-59,-49,-59 c-37,0,-56,20,-69,45 l-66,-23 c20,-196,137,-345,334,-345 c149,0,254,87,292,196 l181,-237 Z M928,29" fill="rgb(0,0,0)" transform="matrix(0.1,0.0,0.0,-0.1,6.0,135.0)"/>
</svg>