<?xml version="1.0" encoding="UTF-8"?>
<svg height="200.0" version="1.1" width="136.0" xmlns="http://www.w3.org/2000/svg" xmlns:xlink="http://www.w3.org/1999/xlink">
 <path d="M0,0 l136,0 l0,200 l-136,0 Z M0,0" fill="rgb(255,255,255)" transform="matrix(1,0,0,-1,0.0,200.0)"/>
 <path d="M0,0 l136,0" fill="none" stroke="rgb(229,229,229)" stroke-width="2" transform="matrix(1,0,0,-1,0.0,135.0)"/>
 <path d="M0,1 l0,-5" fill="none" stroke="rgb(204,204,204)" stroke-width="2" transform="matrix(1,0,0,-1,7.0,135.0)"/>
 <path d="M0,1 l0,-5" fill="none" stroke="rgb(204,204,204)" stroke-width="2" transform="matrix(1,0,0,-1,128.0,135.0)"/>
 <path d="M1118,0 l0,578 l121,0 l0,64 l-582,0 l0,-64 l386,0 l0,-250 c0,-81,-51,-145,-133,-145 c-71,0,-116,50,-116,116 c0,89,82,130,165,108 l-7,71 c-111,20,-238,-38,-238,-180 c0,-18,2,-36,7,-52 c-38,-36,-91,-61,-161,-61 c-85,0,-115,45,-115,88 c0,48,33,80,104,80 l61,0 l0,66 l-65,0 c-74,0,-107,34,-107,77 c0,39,26,67,73,82 l-14,64 l-519,0 l0,-64 l148,0 l0,-204 l-62,-44 c1,-43,18,-93,55,-123 l81,0 l0,371 l205,0 l0,-4 c-20,-10,-46,-38,-46,-82 c0,-63,44,-98,94,-104 l0,-4 c-42,-11,-88,-49,-88,-114 c0,-78,63,-152,188,-152 c87,0,152,28,198,66 c35,-44,88,-69,146,-69 c75,0,121,34,142,60 l4,0 l0,-175 Z M1118,0" fill="rgb(0,0,0)" transform="matrix(0.1,0.0,0.0,-0.1,7.0,135.0)"/>
</svg>