<?xml version="1.0" encoding="UTF-8"?>
<svg height="200.0" version="1.1" width="110.0" xmlns="http://www.w3.org/2000/svg" xmlns:xlink="http://www.w3.org/1999/xlink">
 <path d="M0,0 l110,0 l0,200 l-110,0 Z M0,0" fill="rgb(255,255,255)" transform="matrix(1,0,0,-1,0.0,200.0)"/>
 <path d="M0,0 l110,0" fill="none" stroke="rgb(229,229,229)" stroke-width="2" transform="matrix(1,0,0,-1,0.0,135.0)"/>
 <path d="M0,1 l0,-5" fill="none" stroke="rgb(204,204,204)" stroke-width="2" transform="matrix(1,0,0,-1,7.0,135.0)"/>
 <path d="M0,1 l0,-5" fill="none" stroke="rgb(204,204,204)" stroke-width="2" transform="matrix(1,0,0,-1,102.0,135.0)"/>
 <path d="M277,182 c-85,0,-116,45,-116,87 c0,48,33,80,103,80 l60,0 l0,66 l-63,0 c-75,0,-107,36,-107,79 c0,46,31,84,99,84 l240,0 l0,-240 l-49,-37 c0,-12,2,-26,6,-40 c-37,-44,-96,-79,-173,-79 Z M855,0 l0,578 l121,0 l0,64 l-998,0 l0,-64 l141,0 l0,-4 c-19,-10,-45,-38,-45,-84 c0,-63,44,-100,94,-106 l0,-4 c-41,-11,-87,-49,-87,-115 c0,-77,63,-149,188,-149 c94,0,164,34,211,79 c7,-10,15,-19,24,-26 l63,0 l0,102 l213,0 l0,-271 Z M780,578 l0,-238 l-212,0 l0,238 Z M780,578" fill="rgb(0,0,0)" transform="matrix(0.1,0.0,0.0,-0.1,7.0,135.0)"/>
</svg>