<?xml version="1.0" encoding="UTF-8"?>
<svg height="200.0" version="1.1" width="112.0" xmlns="http://www.w3.org/2000/svg" xmlns:xlink="http://www.w3.org/1999/xlink">
 <path d="M0,0 l112,0 l0,200 l-112,0 Z M0,0" fill="rgb(255,255,255)" transform="matrix(1,0,0,-1,0.0,200.0)"/>
 <path d="M0,0 l112,0" fill="none" stroke="rgb(229,229,229)" stroke-width="2" transform="matrix(1,0,0,-1,0.0,135.0)"/>
 <path d="M0,1 l0,-5" fill="none" stroke="rgb(204,204,204)" stroke-width="2" transform="matrix(1,0,0,-1,7.0,135.0)"/>
 <path d="M0,1 l0,-5" fill="none" stroke="rgb(204,204,204)" stroke-width="2" transform="matrix(1,0,0,-1,106.0,135.0)"/>
 <path d="M277,182 c-85,0,-116,45,-116,87 c0,48,33,80,103,80 l60,0 l0,66 l-63,0 c-75,0,-107,36,-107,79 c0,46,31,84,99,84 l269,0 c26,-23,43,-59,43,-95 c0,-62,-52,-95,-144,-115 c4,-40,15,-76,30,-107 c-37,-44,-96,-79,-174,-79 Z M810,209 l0,-209 l76,0 l0,578 l121,0 l0,64 l-1029,0 l0,-64 l141,0 l0,-4 c-19,-10,-45,-38,-45,-84 c0,-63,44,-100,94,-106 l0,-4 c-41,-11,-87,-49,-87,-115 c0,-77,63,-149,188,-149 c100,0,173,39,220,89 c41,-44,96,-68,159,-68 c93,0,140,48,158,72 Z M508,333 c77,18,134,69,134,139 c0,44,-16,76,-40,102 l0,4 l209,0 l0,-208 c0,-105,-64,-164,-152,-164 c-100,0,-143,73,-151,127 Z M508,333" fill="rgb(0,0,0)" transform="matrix(0.1,0.0,0.0,-0.1,7.0,135.0)"/>
</svg>