<?xml version="1.0" encoding="UTF-8"?>
<svg height="200.0" version="1.1" width="74.0" xmlns="http://www.w3.org/2000/svg" xmlns:xlink="http://www.w3.org/1999/xlink">
 <path d="M0,0 l74,0 l0,200 l-74,0 Z M0,0" fill="rgb(255,255,255)" transform="matrix(1,0,0,-1,0.0,200.0)"/>
 <path d="M0,0 l74,0" fill="none" stroke="rgb(229,229,229)" stroke-width="2" transform="matrix(1,0,0,-1,0.0,135.0)"/>
 <path d="M0,1 l0,-5" fill="none" stroke="rgb(204,204,204)" stroke-width="2" transform="matrix(1,0,0,-1,7.0,135.0)"/>
 <path d="M0,1 l0,-5" fill="none" stroke="rgb(204,204,204)" stroke-width="2" transform="matrix(1,0,0,-1,66.0,135.0)"/>
 <path d="M486,-32 c0,48,-27,89,-63,105 l-193,-33 c-37,6,-53,35,-53,56 c0,22,10,36,26,44 c26,-7,62,-11,95,-11 c107,0,188,54,188,144 c0,47,-26,89,-63,105 l-192,-32 c-36,5,-54,33,-54,54 c0,21,12,42,52,42 l208,0 l0,136 l178,0 l0,64 l-637,0 l0,-64 l388,0 l0,-77 l-164,0 c-67,0,-99,-44,-99,-90 c0,-57,47,-113,121,-130 l174,31 c11,-8,20,-21,20,-40 c0,-40,-35,-81,-124,-81 c-96,0,-160,39,-205,98 l-45,-40 c23,-30,54,-61,93,-82 c-19,-17,-29,-41,-29,-66 c0,-57,43,-110,116,-125 l174,30 c11,-7,20,-19,20,-39 c0,-40,-39,-82,-124,-82 c-96,0,-160,40,-205,99 l-45,-40 c46,-61,132,-120,250,-120 c106,0,192,54,192,144 Z M586,110 c0,28,-20,48,-47,48 c-27,0,-47,-20,-47,-48 c0,-25,20,-46,47,-46 c27,0,47,21,47,46 Z M586,418 c0,27,-20,48,-47,48 c-27,0,-47,-21,-47,-48 c0,-26,20,-47,47,-47 c27,0,47,21,47,47 Z M586,418" fill="rgb(0,0,0)" transform="matrix(0.1,0.0,0.0,-0.1,7.0,135.0)"/>
</svg>