<?xml version="1.0" encoding="UTF-8"?>
<svg height="200.0" version="1.1" width="120.0" xmlns="http://www.w3.org/2000/svg" xmlns:xlink="http://www.w3.org/1999/xlink">
 <path d="M0,0 l120,0 l0,200 l-120,0 Z M0,0" fill="rgb(255,255,255)" transform="matrix(1,0,0,-1,0.0,200.0)"/>
 <path d="M0,0 l120,0" fill="none" stroke="rgb(229,229,229)" stroke-width="2" transform="matrix(1,0,0,-1,0.0,135.0)"/>
 <path d="M0,1 l0,-5" fill="none" stroke="rgb(204,204,204)" stroke-width="2" transform="matrix(1,0,0,-1,7.0,135.0)"/>
 <path d="M0,1 l0,-5" fill="none" stroke="rgb(204,204,204)" stroke-width="2" transform="matrix(1,0,0,-1,113.0,135.0)"/>
 <path d="M485,280 c-31,-50,-88,-97,-178,-97 c-78,0,-125,44,-125,103 c0,62,43,104,119,104 l54,0 l0,68 l-339,0 l0,-69 l138,0 l0,-4 c-19,-14,-51,-45,-51,-107 c0,-88,74,-164,193,-164 c83,0,140,26,182,61 c20,-74,94,-134,212,-134 c189,0,315,147,315,288 c0,70,-35,125,-92,147 l0,102 l168,0 l0,64 l-1103,0 l0,-64 l530,0 l0,-4 c-17,-13,-50,-42,-50,-104 c0,-59,37,-107,97,-122 l0,-4 c-28,-10,-55,-31,-70,-64 Z M865,296 c-41,6,-65,30,-65,66 c0,35,27,58,61,58 c40,0,72,-32,72,-91 c0,-121,-110,-220,-240,-220 c-94,0,-143,50,-143,111 c0,57,40,93,106,94 l23,0 l0,67 l-36,0 c-67,0,-106,38,-106,94 c0,62,47,103,114,103 l190,0 l0,-94 c-68,-8,-114,-60,-114,-122 c0,-58,38,-102,92,-115 Z M865,296" fill="rgb(0,0,0)" transform="matrix(0.1,0.0,0.0,-0.1,7.0,135.0)"/>
</svg>