<?xml version="1.0" encoding="UTF-8"?>
<svg height="200.0" version="1.1" width="120.0" xmlns="http://www.w3.org/2000/svg" xmlns:xlink="http://www.w3.org/1999/xlink">
 <path d="M0,0 l120,0 l0,200 l-120,0 Z M0,0" fill="rgb(255,255,255)" transform="matrix(1,0,0,-1,0.0,200.0)"/>
 <path d="M0,0 l120,0" fill="none" stroke="rgb(229,229,229)" stroke-width="2" transform="matrix(1,0,0,-1,0.0,135.0)"/>
 <path d="M0,1 l0,-5" fill="none" stroke="rgb(204,204,204)" stroke-width="2" transform="matrix(1,0,0,-1,7.0,135.0)"/>
 <path d="M0,1 l0,-5" fill="none" stroke="rgb(204,204,204)" stroke-width="2" transform="matrix(1,0,0,-1,114.0,135.0)"/>
 <path d="M541,-66 c0,-92,69,-167,173,-167 c73,0,115,35,128,53 l4,0 l0,-104 l71,0 l0,411 c60,55,94,129,94,203 c0,71,-36,126,-93,147 l0,101 l169,0 l0,64 l-1109,0 l0,-64 l535,0 l0,-4 c-16,-13,-50,-42,-50,-104 c0,-59,38,-107,98,-122 l0,-4 c-28,-11,-56,-32,-72,-66 c-33,-49,-85,-95,-182,-95 c-78,0,-125,44,-125,103 c0,62,43,104,119,104 l56,0 l0,68 l-341,0 l0,-69 l138,0 l0,-4 c-19,-14,-51,-45,-51,-107 c0,-88,74,-164,193,-164 c87,0,146,28,187,62 c14,-54,58,-104,123,-118 c-37,-24,-65,-62,-65,-124 Z M870,298 c-41,5,-64,30,-64,65 c0,36,27,58,60,58 c40,0,72,-31,72,-90 c0,-124,-111,-222,-241,-222 c-94,0,-141,50,-141,111 c0,57,39,93,106,94 l23,0 l0,67 l-37,0 c-67,0,-105,38,-105,94 c0,62,46,103,113,103 l190,0 l0,-94 c-68,-7,-113,-59,-113,-120 c0,-59,37,-103,91,-115 Z M727,-167 c-73,0,-110,49,-110,104 c0,55,36,102,114,107 c10,1,21,2,31,3 c31,5,59,14,84,26 l0,-116 c0,-73,-46,-124,-119,-124 Z M727,-167" fill="rgb(0,0,0)" transform="matrix(0.1,0.0,0.0,-0.1,7.0,135.0)"/>
</svg>