<?xml version="1.0" encoding="UTF-8"?>
<svg height="200.0" version="1.1" width="108.0" xmlns="http://www.w3.org/2000/svg" xmlns:xlink="http://www.w3.org/1999/xlink">
 <path d="M0,0 l108,0 l0,200 l-108,0 Z M0,0" fill="rgb(255,255,255)" transform="matrix(1,0,0,-1,0.0,200.0)"/>
 <path d="M0,0 l108,0" fill="none" stroke="rgb(229,229,229)" stroke-width="2" transform="matrix(1,0,0,-1,0.0,135.0)"/>
 <path d="M0,1 l0,-5" fill="none" stroke="rgb(204,204,204)" stroke-width="2" transform="matrix(1,0,0,-1,7.0,135.0)"/>
 <path d="M0,1 l0,-5" fill="none" stroke="rgb(204,204,204)" stroke-width="2" transform="matrix(1,0,0,-1,100.0,135.0)"/>
 <path d="M296,114 c117,0,202,58,257,141 l0,70 l200,0 l0,-325 l75,0 l0,578 l121,0 l0,64 l-971,0 l0,-64 l775,0 l0,-185 l-256,0 l-56,-45 c0,-31,9,-63,24,-88 c-30,-39,-82,-77,-158,-77 c-78,0,-125,44,-125,103 c0,62,43,104,119,104 l76,0 l0,68 l-361,0 l0,-69 l138,0 l0,-4 c-19,-14,-51,-45,-51,-107 c0,-88,74,-164,193,-164 Z M296,114" fill="rgb(0,0,0)" transform="matrix(0.1,0.0,0.0,-0.1,7.0,135.0)"/>
</svg>