<?xml version="1.0" encoding="UTF-8"?>
<svg height="200.0" version="1.1" width="116.0" xmlns="http://www.w3.org/2000/svg" xmlns:xlink="http://www.w3.org/1999/xlink">
 <path d="M0,0 l116,0 l0,200 l-116,0 Z M0,0" fill="rgb(255,255,255)" transform="matrix(1,0,0,-1,0.0,200.0)"/>
 <path d="M0,0 l116,0" fill="none" stroke="rgb(229,229,229)" stroke-width="2" transform="matrix(1,0,0,-1,0.0,135.0)"/>
 <path d="M0,1 l0,-5" fill="none" stroke="rgb(204,204,204)" stroke-width="2" transform="matrix(1,0,0,-1,7.0,135.0)"/>
 <path d="M0,1 l0,-5" fill="none" stroke="rgb(204,204,204)" stroke-width="2" transform="matrix(1,0,0,-1,109.0,135.0)"/>
 <path d="M296,114 c112,0,181,49,223,102 c41,-51,100,-79,168,-79 c93,0,140,48,158,72 l4,0 l0,-209 l76,0 l0,578 l121,0 l0,64 l-1068,0 l0,-64 l583,0 c26,-23,43,-59,43,-95 c0,-62,-52,-95,-144,-115 c3,-32,11,-61,21,-87 c-27,-45,-83,-98,-174,-98 c-78,0,-125,44,-125,103 c0,62,43,104,119,104 l78,0 l0,68 l-363,0 l0,-69 l138,0 l0,-4 c-19,-14,-51,-45,-51,-107 c0,-88,74,-164,193,-164 Z M547,333 c77,18,134,69,134,139 c0,44,-16,76,-40,102 l0,4 l209,0 l0,-208 c0,-105,-64,-164,-152,-164 c-100,0,-143,73,-151,127 Z M547,333" fill="rgb(0,0,0)" transform="matrix(0.1,0.0,0.0,-0.1,7.0,135.0)"/>
</svg>