<?xml version="1.0" encoding="UTF-8"?>
<svg height="200.0" version="1.1" width="138.0" xmlns="http://www.w3.org/2000/svg" xmlns:xlink="http://www.w3.org/1999/xlink">
 <path d="M0,0 l138,0 l0,200 l-138,0 Z M0,0" fill="rgb(255,255,255)" transform="matrix(1,0,0,-1,0.0,200.0)"/>
 <path d="M0,0 l138,0" fill="none" stroke="rgb(229,229,229)" stroke-width="2" transform="matrix(1,0,0,-1,0.0,135.0)"/>
 <path d="M0,1 l0,-5" fill="none" stroke="rgb(204,204,204)" stroke-width="2" transform="matrix(1,0,0,-1,7.0,135.0)"/>
 <path d="M0,1 l0,-5" fill="none" stroke="rgb(204,204,204)" stroke-width="2" transform="matrix(1,0,0,-1,130.0,135.0)"/>
 <path d="M439,-119 l86,21 l-145,147 c150,32,244,162,244,283 c0,23,-4,44,-11,63 c48,11,100,19,146,19 c54,0,81,-17,81,-55 c0,-39,-24,-68,-88,-99 l-52,-25 c21,-100,94,-173,206,-173 c72,0,122,38,143,65 l4,0 l0,-127 l75,0 l0,578 l121,0 l0,64 l-1271,0 l0,-64 l148,0 l0,-4 c-16,-13,-50,-42,-50,-104 c0,-59,38,-107,98,-122 l0,-4 c-42,-16,-84,-56,-84,-126 c0,-80,56,-153,160,-172 l-144,-143 l86,-22 l125,145 Z M483,300 c-41,6,-64,30,-64,65 c0,36,27,58,60,58 c40,0,72,-31,72,-90 c0,-124,-111,-224,-241,-224 c-94,0,-141,50,-141,111 c0,58,39,93,106,94 l23,0 l0,67 l-37,0 c-67,0,-105,38,-105,94 c0,62,46,103,113,103 l784,0 l0,-296 c0,-87,-51,-154,-143,-154 c-68,0,-107,44,-118,84 c67,29,122,80,122,147 c0,74,-61,121,-153,121 c-58,0,-129,-13,-185,-29 c-25,24,-58,37,-98,37 c-78,0,-132,-55,-132,-122 c0,-59,37,-103,91,-115 Z M483,300" fill="rgb(0,0,0)" transform="matrix(0.1,0.0,0.0,-0.1,7.0,135.0)"/>
</svg>