<?xml version="1.0" encoding="UTF-8"?>
<svg height="200.0" version="1.1" width="140.0" xmlns="http://www.w3.org/2000/svg" xmlns:xlink="http://www.w3.org/1999/xlink">
 <path d="M0,0 l140,0 l0,200 l-140,0 Z M0,0" fill="rgb(255,255,255)" transform="matrix(1,0,0,-1,0.0,200.0)"/>
 <path d="M0,0 l140,0" fill="none" stroke="rgb(229,229,229)" stroke-width="2" transform="matrix(1,0,0,-1,0.0,135.0)"/>
 <path d="M0,1 l0,-5" fill="none" stroke="rgb(204,204,204)" stroke-width="2" transform="matrix(1,0,0,-1,7.0,135.0)"/>
 <path d="M0,1 l0,-5" fill="none" stroke="rgb(204,204,204)" stroke-width="2" transform="matrix(1,0,0,-1,133.0,135.0)"/>
 <path d="M1138,297 c0,-83,-72,-115,-144,-102 l12,-69 c108,-15,210,51,210,172 c0,104,-77,171,-168,171 c-68,0,-110,-32,-130,-58 l-4,0 l0,167 l370,0 l0,64 l-1306,0 l0,-64 l862,0 l0,-258 c0,-75,-48,-126,-119,-126 c-63,0,-106,44,-106,104 c0,84,73,115,144,103 l-12,69 c-50,7,-100,-5,-138,-31 l-303,0 l-33,-58 l0,-6 c38,-11,92,-45,92,-108 c0,-48,-32,-83,-87,-83 c-107,0,-171,129,-176,249 l-74,-30 c14,-120,91,-288,255,-288 c97,0,157,66,157,146 c0,60,-30,94,-48,109 l0,4 l161,0 c-10,-22,-16,-48,-16,-77 c0,-102,78,-171,169,-171 c70,0,111,33,130,57 l4,0 l0,-183 l74,0 l0,275 c0,75,48,126,119,126 c62,0,105,-42,105,-104 Z M1138,297" fill="rgb(0,0,0)" transform="matrix(0.1,0.0,0.0,-0.1,7.0,135.0)"/>
</svg>