<?xml version="1.0" encoding="UTF-8"?>
<svg height="200.0" version="1.1" width="172.0" xmlns="http://www.w3.org/2000/svg" xmlns:xlink="http://www.w3.org/1999/xlink">
 <path d="M0,0 l172,0 l0,200 l-172,0 Z M0,0" fill="rgb(255,255,255)" transform="matrix(1,0,0,-1,0.0,200.0)"/>
 <path d="M0,0 l172,0" fill="none" stroke="rgb(229,229,229)" stroke-width="2" transform="matrix(1,0,0,-1,0.0,135.0)"/>
 <path d="M0,1 l0,-5" fill="none" stroke="rgb(204,204,204)" stroke-width="2" transform="matrix(1,0,0,-1,7.0,135.0)"/>
 <path d="M0,1 l0,-5" fill="none" stroke="rgb(204,204,204)" stroke-width="2" transform="matrix(1,0,0,-1,165.0,135.0)"/>
 <path d="M586,439 l-280,0 l-33,-58 l0,-6 c38,-11,92,-45,92,-108 c0,-48,-32,-83,-87,-83 c-107,0,-171,129,-176,249 l-74,-30 c14,-120,91,-288,255,-288 c97,0,157,66,157,146 c0,60,-30,94,-48,109 l0,4 l124,0 c23,-116,100,-259,251,-259 c96,0,157,66,157,146 c0,60,-30,94,-49,109 l0,4 l57,0 c36,0,61,-4,81,-14 c20,-141,110,-223,227,-223 c93,0,140,48,158,72 l4,0 l0,-209 l75,0 l0,578 l121,0 l0,64 l-1620,0 l0,-64 l1135,0 c26,-23,43,-59,43,-95 c0,-42,-24,-71,-69,-91 c-33,31,-86,47,-147,47 l-150,0 l-33,-58 l0,-6 c38,-11,91,-45,91,-108 c0,-48,-32,-83,-87,-83 c-106,0,-170,128,-175,248 Z M1099,333 c77,18,135,69,135,139 c0,44,-16,76,-41,102 l0,4 l210,0 l0,-208 c0,-105,-64,-164,-152,-164 c-100,0,-144,73,-152,127 Z M1099,333" fill="rgb(0,0,0)" transform="matrix(0.1,0.0,0.0,-0.1,7.0,135.0)"/>
</svg>