<?xml version="1.0" encoding="UTF-8"?>
<svg height="200.0" version="1.1" width="166.0" xmlns="http://www.w3.org/2000/svg" xmlns:xlink="http://www.w3.org/1999/xlink">
 <path d="M0,0 l166,0 l0,200 l-166,0 Z M0,0" fill="rgb(255,255,255)" transform="matrix(1,0,0,-1,0.0,200.0)"/>
 <path d="M0,0 l166,0" fill="none" stroke="rgb(229,229,229)" stroke-width="2" transform="matrix(1,0,0,-1,0.0,135.0)"/>
 <path d="M0,1 l0,-5" fill="none" stroke="rgb(204,204,204)" stroke-width="2" transform="matrix(1,0,0,-1,7.0,135.0)"/>
 <path d="M0,1 l0,-5" fill="none" stroke="rgb(204,204,204)" stroke-width="2" transform="matrix(1,0,0,-1,159.0,135.0)"/>
 <path d="M1416,578 l121,0 l0,64 l-1559,0 l0,-64 l1363,0 l0,-250 c0,-81,-51,-145,-132,-145 c-72,0,-117,50,-117,116 c0,89,82,130,165,108 l-6,71 c-62,11,-128,-2,-175,-39 l-286,0 l-33,-58 l0,-6 c38,-11,91,-45,91,-108 c0,-48,-32,-83,-87,-83 c-106,0,-170,128,-175,248 l0,7 l-280,0 l-33,-58 l0,-6 c38,-11,92,-45,92,-108 c0,-48,-32,-83,-87,-83 c-107,0,-171,129,-176,249 l-74,-30 c14,-120,91,-288,255,-288 c97,0,157,66,157,146 c0,60,-30,94,-48,109 l0,4 l124,0 c23,-116,100,-259,251,-259 c96,0,157,66,157,146 c0,60,-30,94,-49,109 l0,4 l151,0 c-9,-22,-14,-47,-14,-76 c0,-111,86,-183,183,-183 c75,0,121,34,142,60 l4,0 l0,-175 l75,0 Z M1416,578" fill="rgb(0,0,0)" transform="matrix(0.1,0.0,0.0,-0.1,7.0,135.0)"/>
</svg>