<?xml version="1.0" encoding="UTF-8"?>
<svg height="200.0" version="1.1" width="140.0" xmlns="http://www.w3.org/2000/svg" xmlns:xlink="http://www.w3.org/1999/xlink">
 <path d="M0,0 l140,0 l0,200 l-140,0 Z M0,0" fill="rgb(255,255,255)" transform="matrix(1,0,0,-1,0.0,200.0)"/>
 <path d="M0,0 l140,0" fill="none" stroke="rgb(229,229,229)" stroke-width="2" transform="matrix(1,0,0,-1,0.0,135.0)"/>
 <path d="M0,1 l0,-5" fill="none" stroke="rgb(204,204,204)" stroke-width="2" transform="matrix(1,0,0,-1,7.0,135.0)"/>
 <path d="M0,1 l0,-5" fill="none" stroke="rgb(204,204,204)" stroke-width="2" transform="matrix(1,0,0,-1,133.0,135.0)"/>
 <path d="M1278,578 l0,64 l-1300,0 l0,-64 l843,0 l0,-101 l-150,0 c-42,0,-74,-14,-93,-38 l-272,0 l-33,-58 l0,-6 c38,-11,92,-45,92,-108 c0,-48,-32,-83,-87,-83 c-107,0,-171,129,-176,249 l-74,-30 c14,-120,91,-288,255,-288 c97,0,157,66,157,146 c0,60,-30,94,-48,109 l0,4 l165,0 c0,-78,58,-143,129,-165 l155,32 c12,-8,28,-27,28,-60 c0,-66,-66,-96,-136,-96 l-33,0 l-130,89 c-14,-8,-29,-26,-29,-52 c0,-47,45,-96,149,-99 l158,-142 l81,43 l-157,104 l0,4 c83,2,169,52,169,150 c0,17,-2,32,-6,45 c22,-7,47,-12,73,-12 c29,0,54,3,75,10 l0,-225 l75,0 l0,578 Z M866,314 l-169,-35 c-34,9,-63,43,-63,78 c0,32,13,55,72,55 l188,0 l0,166 l189,0 l0,-280 c-22,-10,-52,-17,-87,-17 c-44,0,-87,10,-112,22 c-6,5,-12,8,-18,11 Z M866,314" fill="rgb(0,0,0)" transform="matrix(0.1,0.0,0.0,-0.1,7.0,135.0)"/>
</svg>