<?xml version="1.0" encoding="UTF-8"?>
<svg height="200.0" version="1.1" width="122.0" xmlns="http://www.w3.org/2000/svg" xmlns:xlink="http://www.w3.org/1999/xlink">
 <path d="M0,0 l122,0 l0,200 l-122,0 Z M0,0" fill="rgb(255,255,255)" transform="matrix(1,0,0,-1,0.0,200.0)"/>
 <path d="M0,0 l122,0" fill="none" stroke="rgb(229,229,229)" stroke-width="2" transform="matrix(1,0,0,-1,0.0,135.0)"/>
 <path d="M0,1 l0,-5" fill="none" stroke="rgb(204,204,204)" stroke-width="2" transform="matrix(1,0,0,-1,7.0,135.0)"/>
 <path d="M0,1 l0,-5" fill="none" stroke="rgb(204,204,204)" stroke-width="2" transform="matrix(1,0,0,-1,114.0,135.0)"/>
 <path d="M891,209 l4,0 l0,-209 l75,0 l0,578 l121,0 l0,64 l-1113,0 l0,-64 l628,0 c26,-23,43,-59,43,-95 c0,-50,-33,-81,-94,-101 c-38,48,-99,71,-161,71 l-256,0 l-29,-57 l0,-5 c87,-22,198,-75,198,-165 c0,-62,-47,-97,-115,-97 c-15,0,-32,2,-48,6 l-102,93 c-20,-13,-31,-32,-31,-59 c0,-45,39,-87,119,-94 l140,-154 l83,35 l-146,120 l16,0 c90,0,161,54,161,142 c0,97,-91,148,-144,166 l0,4 l150,0 c50,0,100,-13,126,-76 c2,-8,5,-17,8,-25 l0,-1 c36,-95,114,-149,209,-149 c92,0,140,48,158,72 Z M592,333 c77,18,135,69,135,139 c0,44,-16,76,-41,102 l0,4 l209,0 l0,-208 c0,-105,-63,-164,-151,-164 c-100,0,-144,73,-152,127 Z M592,333" fill="rgb(0,0,0)" transform="matrix(0.1,0.0,0.0,-0.1,7.0,135.0)"/>
</svg>