<?xml version="1.0" encoding="UTF-8"?>
<svg height="200.0" version="1.1" width="114.0" xmlns="http://www.w3.org/2000/svg" xmlns:xlink="http://www.w3.org/1999/xlink">
 <path d="M0,0 l114,0 l0,200 l-114,0 Z M0,0" fill="rgb(255,255,255)" transform="matrix(1,0,0,-1,0.0,200.0)"/>
 <path d="M0,0 l114,0" fill="none" stroke="rgb(229,229,229)" stroke-width="2" transform="matrix(1,0,0,-1,0.0,135.0)"/>
 <path d="M0,1 l0,-5" fill="none" stroke="rgb(204,204,204)" stroke-width="2" transform="matrix(1,0,0,-1,7.0,135.0)"/>
 <path d="M0,1 l0,-5" fill="none" stroke="rgb(204,204,204)" stroke-width="2" transform="matrix(1,0,0,-1,106.0,135.0)"/>
 <path d="M776,41 c71,0,141,21,193,72 l-42,61 c-38,-40,-86,-64,-160,-64 c-99,0,-158,70,-158,139 c0,57,20,92,117,121 l144,42 l0,166 l139,0 l0,64 l-1031,0 l0,-64 l816,0 l0,-113 l-118,-36 c-16,-5,-31,-11,-44,-17 c-45,21,-102,27,-145,27 l-181,0 l-33,-58 l0,-6 c38,-11,92,-45,92,-108 c0,-48,-32,-83,-87,-83 c-106,0,-171,128,-176,248 l-74,-29 c14,-120,91,-288,255,-288 c97,0,157,66,157,146 c0,60,-30,94,-48,109 l0,4 l96,0 c25,0,51,-2,77,-10 c-22,-26,-33,-59,-33,-101 c0,-116,102,-222,244,-222 Z M776,41" fill="rgb(0,0,0)" transform="matrix(0.1,0.0,0.0,-0.1,7.0,135.0)"/>
</svg>