<?xml version="1.0" encoding="UTF-8"?>
<svg height="200.0" version="1.1" width="120.0" xmlns="http://www.w3.org/2000/svg" xmlns:xlink="http://www.w3.org/1999/xlink">
 <path d="M0,0 l120,0 l0,200 l-120,0 Z M0,0" fill="rgb(255,255,255)" transform="matrix(1,0,0,-1,0.0,200.0)"/>
 <path d="M0,0 l120,0" fill="none" stroke="rgb(229,229,229)" stroke-width="2" transform="matrix(1,0,0,-1,0.0,135.0)"/>
 <path d="M0,1 l0,-5" fill="none" stroke="rgb(204,204,204)" stroke-width="2" transform="matrix(1,0,0,-1,7.0,135.0)"/>
 <path d="M0,1 l0,-5" fill="none" stroke="rgb(204,204,204)" stroke-width="2" transform="matrix(1,0,0,-1,112.0,135.0)"/>
 <path d="M952,578 l121,0 l0,64 l-1095,0 l0,-64 l898,0 l0,-267 c0,-26,-6,-50,-18,-71 l-199,163 c23,16,52,24,82,24 c21,0,44,-3,66,-11 l-3,70 c-21,6,-45,8,-68,8 c-55,0,-107,-20,-146,-55 l-284,0 l-33,-58 l0,-6 c38,-11,92,-45,92,-108 c0,-48,-32,-83,-87,-83 c-107,0,-171,129,-176,249 l-74,-30 c14,-120,91,-288,255,-288 c97,0,157,66,157,146 c0,60,-30,94,-48,109 l0,4 l152,0 c-10,-23,-15,-49,-15,-77 c0,-113,86,-193,194,-193 c78,0,127,36,149,65 l4,0 l0,-169 l76,0 Z M733,171 c-78,0,-129,55,-129,128 c0,26,7,48,18,67 l202,-166 c-24,-18,-55,-29,-91,-29 Z M733,171" fill="rgb(0,0,0)" transform="matrix(0.1,0.0,0.0,-0.1,7.0,135.0)"/>
</svg>