<?xml version="1.0" encoding="UTF-8"?>
<svg height="200.0" version="1.1" width="120.0" xmlns="http://www.w3.org/2000/svg" xmlns:xlink="http://www.w3.org/1999/xlink">
 <path d="M0,0 l120,0 l0,200 l-120,0 Z M0,0" fill="rgb(255,255,255)" transform="matrix(1,0,0,-1,0.0,200.0)"/>
 <path d="M0,0 l120,0" fill="none" stroke="rgb(229,229,229)" stroke-width="2" transform="matrix(1,0,0,-1,0.0,135.0)"/>
 <path d="M0,1 l0,-5" fill="none" stroke="rgb(204,204,204)" stroke-width="2" transform="matrix(1,0,0,-1,7.0,135.0)"/>
 <path d="M0,1 l0,-5" fill="none" stroke="rgb(204,204,204)" stroke-width="2" transform="matrix(1,0,0,-1,113.0,135.0)"/>
 <path d="M683,250 l0,85 l199,0 l0,-335 l76,0 l0,578 l121,0 l0,64 l-1101,0 l0,-64 l360,0 l0,-101 l-150,0 c-72,0,-115,-42,-115,-103 c0,-78,59,-143,130,-165 l155,32 c11,-8,28,-27,28,-60 c0,-66,-67,-96,-136,-96 l-33,0 l-131,89 c-14,-8,-28,-26,-28,-52 c0,-47,45,-96,149,-99 l157,-142 l82,43 l-155,104 l-3,2 c83,4,170,56,170,152 c0,15,-2,28,-5,40 c22,-6,47,-11,74,-11 c54,0,110,14,156,39 Z M513,276 c-40,0,-75,7,-101,17 c-10,10,-20,17,-29,21 l-168,-35 c-35,9,-64,43,-64,78 c0,32,13,55,72,55 l189,0 l0,166 l470,0 l0,-175 l-256,0 l-54,-44 c0,-25,7,-51,16,-72 c-21,-7,-47,-11,-75,-11 Z M513,276" fill="rgb(0,0,0)" transform="matrix(0.1,0.0,0.0,-0.1,7.0,135.0)"/>
</svg>