<?xml version="1.0" encoding="UTF-8"?>
<svg height="200.0" version="1.1" width="126.0" xmlns="http://www.w3.org/2000/svg" xmlns:xlink="http://www.w3.org/1999/xlink">
 <path d="M0,0 l126,0 l0,200 l-126,0 Z M0,0" fill="rgb(255,255,255)" transform="matrix(1,0,0,-1,0.0,200.0)"/>
 <path d="M0,0 l126,0" fill="none" stroke="rgb(229,229,229)" stroke-width="2" transform="matrix(1,0,0,-1,0.0,135.0)"/>
 <path d="M0,1 l0,-5" fill="none" stroke="rgb(204,204,204)" stroke-width="2" transform="matrix(1,0,0,-1,7.0,135.0)"/>
 <path d="M0,1 l0,-5" fill="none" stroke="rgb(204,204,204)" stroke-width="2" transform="matrix(1,0,0,-1,119.0,135.0)"/>
 <path d="M383,314 l-168,-35 c-35,9,-64,43,-64,78 c0,32,13,55,72,55 l189,0 l0,166 l250,0 l0,-240 l-49,-37 c-25,-11,-60,-20,-100,-20 c-45,0,-84,9,-110,19 c-7,6,-14,11,-20,14 Z M386,181 c0,-66,-67,-96,-136,-96 l-33,0 l-131,89 c-14,-8,-28,-26,-28,-52 c0,-47,45,-96,149,-99 l157,-142 l82,43 l-155,104 l-3,2 c83,4,170,56,170,152 c0,17,-2,32,-6,45 c21,-6,46,-11,73,-11 c42,0,77,7,103,17 c11,-25,26,-48,45,-64 l63,0 l0,102 l213,0 l0,-271 l75,0 l0,578 l121,0 l0,64 l-1167,0 l0,-64 l360,0 l0,-101 l-150,0 c-72,0,-115,-42,-115,-103 c0,-78,59,-143,130,-165 l155,32 c11,-8,28,-27,28,-60 Z M949,578 l0,-238 l-212,0 l0,238 Z M949,578" fill="rgb(0,0,0)" transform="matrix(0.1,0.0,0.0,-0.1,7.0,135.0)"/>
</svg>