<?xml version="1.0" encoding="UTF-8"?>
<svg height="200.0" version="1.1" width="126.0" xmlns="http://www.w3.org/2000/svg" xmlns:xlink="http://www.w3.org/1999/xlink">
 <path d="M0,0 l126,0 l0,200 l-126,0 Z M0,0" fill="rgb(255,255,255)" transform="matrix(1,0,0,-1,0.0,200.0)"/>
 <path d="M0,0 l126,0" fill="none" stroke="rgb(229,229,229)" stroke-width="2" transform="matrix(1,0,0,-1,0.0,135.0)"/>
 <path d="M0,1 l0,-5" fill="none" stroke="rgb(204,204,204)" stroke-width="2" transform="matrix(1,0,0,-1,7.0,135.0)"/>
 <path d="M0,1 l0,-5" fill="none" stroke="rgb(204,204,204)" stroke-width="2" transform="matrix(1,0,0,-1,119.0,135.0)"/>
 <path d="M154,391 c18,11,43,20,74,20 c65,0,112,-40,112,-113 c0,-78,-58,-122,-123,-122 c-80,0,-126,48,-157,97 l-52,-53 c33,-52,104,-115,209,-115 c103,0,180,62,197,156 c26,-6,58,-9,87,-9 c32,0,60,3,81,8 c10,-80,80,-146,186,-146 c100,0,154,47,176,78 l4,0 l0,-192 l75,0 l0,578 l121,0 l0,64 l-1166,0 l0,-64 l970,0 l0,-215 c0,-112,-70,-180,-167,-180 c-75,0,-121,44,-121,103 c0,62,43,105,119,105 l78,0 l0,67 l-361,0 l0,-68 l136,0 l0,-4 c-12,-9,-30,-25,-41,-52 c-25,-7,-62,-12,-103,-12 c-22,0,-49,2,-73,6 c-12,94,-84,154,-185,154 c-47,0,-81,-14,-104,-27 Z M154,391" fill="rgb(0,0,0)" transform="matrix(0.1,0.0,0.0,-0.1,7.0,135.0)"/>
</svg>