<?xml version="1.0" encoding="UTF-8"?>
<svg height="200.0" version="1.1" width="130.0" xmlns="http://www.w3.org/2000/svg" xmlns:xlink="http://www.w3.org/1999/xlink">
 <path d="M0,0 l130,0 l0,200 l-130,0 Z M0,0" fill="rgb(255,255,255)" transform="matrix(1,0,0,-1,0.0,200.0)"/>
 <path d="M0,0 l130,0" fill="none" stroke="rgb(229,229,229)" stroke-width="2" transform="matrix(1,0,0,-1,0.0,135.0)"/>
 <path d="M0,1 l0,-5" fill="none" stroke="rgb(204,204,204)" stroke-width="2" transform="matrix(1,0,0,-1,7.0,135.0)"/>
 <path d="M0,1 l0,-5" fill="none" stroke="rgb(204,204,204)" stroke-width="2" transform="matrix(1,0,0,-1,122.0,135.0)"/>
 <path d="M154,391 c18,11,43,20,74,20 c65,0,112,-40,112,-113 c0,-78,-58,-122,-123,-122 c-80,0,-126,48,-157,97 l-52,-53 c33,-52,104,-115,209,-115 c105,0,183,64,198,162 c25,-7,57,-10,86,-10 c23,0,44,1,67,5 c-4,-13,-6,-28,-6,-44 c0,-93,78,-177,219,-177 c189,0,315,147,315,288 c0,70,-35,126,-93,147 l0,102 l169,0 l0,64 l-1194,0 l0,-64 l620,0 l0,-4 c-16,-13,-50,-42,-50,-104 c0,-59,38,-107,98,-122 l0,-4 c-55,-15,-112,-17,-157,-17 c-24,0,-51,2,-75,7 c-14,90,-85,148,-184,148 c-47,0,-81,-14,-104,-27 Z M956,296 c-42,6,-65,30,-65,66 c0,35,27,58,60,58 c41,0,73,-32,73,-91 c0,-121,-110,-220,-240,-220 c-94,0,-142,50,-142,111 c0,57,39,93,105,94 l23,0 l0,67 l-36,0 c-67,0,-106,38,-106,94 c0,62,46,103,114,103 l189,0 l0,-94 c-68,-8,-113,-61,-113,-122 c0,-58,38,-102,92,-115 Z M956,296" fill="rgb(0,0,0)" transform="matrix(0.1,0.0,0.0,-0.1,7.0,135.0)"/>
</svg>