<?xml version="1.0" encoding="UTF-8"?>
<svg height="200.0" version="1.1" width="140.0" xmlns="http://www.w3.org/2000/svg" xmlns:xlink="http://www.w3.org/1999/xlink">
 <path d="M0,0 l140,0 l0,200 l-140,0 Z M0,0" fill="rgb(255,255,255)" transform="matrix(1,0,0,-1,0.0,200.0)"/>
 <path d="M0,0 l140,0" fill="none" stroke="rgb(229,229,229)" stroke-width="2" transform="matrix(1,0,0,-1,0.0,135.0)"/>
 <path d="M0,1 l0,-5" fill="none" stroke="rgb(204,204,204)" stroke-width="2" transform="matrix(1,0,0,-1,7.0,135.0)"/>
 <path d="M0,1 l0,-5" fill="none" stroke="rgb(204,204,204)" stroke-width="2" transform="matrix(1,0,0,-1,132.0,135.0)"/>
 <path d="M154,391 c18,11,43,20,74,20 c65,0,112,-40,112,-113 c0,-78,-58,-122,-123,-122 c-80,0,-126,48,-157,97 l-52,-53 c33,-52,104,-115,209,-115 c109,0,189,69,199,173 c25,-6,54,-9,81,-9 c29,0,54,3,74,6 c39,-85,110,-160,219,-160 c97,0,157,66,157,146 c0,60,-30,94,-48,109 l0,4 l174,0 l0,-374 l76,0 l0,578 l121,0 l0,64 l-1292,0 l0,-64 l1095,0 l0,-139 l-260,0 l-33,-58 l0,-6 c38,-11,92,-45,92,-108 c0,-48,-32,-83,-87,-83 c-107,0,-171,129,-176,249 l-74,-30 c2,-19,6,-39,11,-60 c-17,-2,-38,-4,-61,-4 c-23,0,-50,2,-73,6 c-18,84,-87,137,-182,137 c-47,0,-81,-14,-104,-27 Z M154,391" fill="rgb(0,0,0)" transform="matrix(0.1,0.0,0.0,-0.1,7.0,135.0)"/>
</svg>