<?xml version="1.0" encoding="UTF-8"?>
<svg height="200.0" version="1.1" width="138.0" xmlns="http://www.w3.org/2000/svg" xmlns:xlink="http://www.w3.org/1999/xlink">
 <path d="M0,0 l138,0 l0,200 l-138,0 Z M0,0" fill="rgb(255,255,255)" transform="matrix(1,0,0,-1,0.0,200.0)"/>
 <path d="M0,0 l138,0" fill="none" stroke="rgb(229,229,229)" stroke-width="2" transform="matrix(1,0,0,-1,0.0,135.0)"/>
 <path d="M0,1 l0,-5" fill="none" stroke="rgb(204,204,204)" stroke-width="2" transform="matrix(1,0,0,-1,7.0,135.0)"/>
 <path d="M0,1 l0,-5" fill="none" stroke="rgb(204,204,204)" stroke-width="2" transform="matrix(1,0,0,-1,130.0,135.0)"/>
 <path d="M1132,0 l0,578 l121,0 l0,64 l-1275,0 l0,-64 l1079,0 l0,-236 c-16,-2,-33,-3,-48,-3 c-23,0,-46,2,-67,6 c-19,85,-89,137,-182,137 c-48,-1,-81,-14,-104,-27 l28,-64 c19,12,47,21,79,20 c62,-2,107,-42,107,-113 c0,-79,-57,-121,-122,-121 c-79,0,-139,59,-177,171 c-22,-5,-52,-9,-86,-9 c-23,0,-50,2,-73,6 c-18,84,-87,137,-182,137 c-47,0,-81,-14,-104,-27 l28,-64 c18,11,43,20,74,20 c65,0,112,-40,112,-113 c0,-78,-58,-122,-123,-122 c-80,0,-126,48,-157,97 l-52,-53 c33,-52,104,-115,209,-115 c109,0,189,69,199,173 c25,-6,54,-9,81,-9 c10,0,19,0,28,1 c38,-89,112,-163,223,-163 c107,0,188,68,198,171 c23,-6,49,-8,74,-9 c13,0,25,0,37,2 l0,-271 Z M1132,0" fill="rgb(0,0,0)" transform="matrix(0.1,0.0,0.0,-0.1,7.0,135.0)"/>
</svg>