<?xml version="1.0" encoding="UTF-8"?>
<svg height="200.0" version="1.1" width="138.0" xmlns="http://www.w3.org/2000/svg" xmlns:xlink="http://www.w3.org/1999/xlink">
 <path d="M0,0 l138,0 l0,200 l-138,0 Z M0,0" fill="rgb(255,255,255)" transform="matrix(1,0,0,-1,0.0,200.0)"/>
 <path d="M0,0 l138,0" fill="none" stroke="rgb(229,229,229)" stroke-width="2" transform="matrix(1,0,0,-1,0.0,135.0)"/>
 <path d="M0,1 l0,-5" fill="none" stroke="rgb(204,204,204)" stroke-width="2" transform="matrix(1,0,0,-1,7.0,135.0)"/>
 <path d="M0,1 l0,-5" fill="none" stroke="rgb(204,204,204)" stroke-width="2" transform="matrix(1,0,0,-1,131.0,135.0)"/>
 <path d="M506,642 l-528,0 l0,-64 l528,0 Z M563,344 c-21,-4,-48,-5,-78,-5 c-23,0,-50,2,-73,6 c-18,84,-87,137,-182,137 c-47,0,-81,-14,-104,-27 l28,-64 c18,11,43,20,74,20 c65,0,112,-40,112,-113 c0,-78,-58,-122,-123,-122 c-80,0,-126,48,-157,97 l-52,-53 c33,-52,104,-115,209,-115 c109,0,189,69,199,173 c27,-6,61,-9,89,-9 c11,0,22,1,32,2 l67,-58 l231,-224 l62,43 l-132,128 c-49,46,-73,64,-101,88 l1,4 c149,-10,276,70,276,219 c0,93,-59,181,-173,181 c-92,0,-154,-63,-154,-139 c0,-57,31,-104,87,-120 l46,52 c-38,9,-56,39,-56,69 c0,41,29,72,78,72 c48,0,95,-40,95,-116 c0,-97,-79,-154,-182,-154 c-30,0,-70,5,-102,17 Z M1063,0 l76,0 l0,578 l121,0 l0,64 l-197,0 Z M1063,0" fill="rgb(0,0,0)" transform="matrix(0.1,0.0,0.0,-0.1,7.0,135.0)"/>
</svg>