<?xml version="1.0" encoding="UTF-8"?>
<svg height="200.0" version="1.1" width="72.0" xmlns="http://www.w3.org/2000/svg" xmlns:xlink="http://www.w3.org/1999/xlink">
 <path d="M0,0 l72,0 l0,200 l-72,0 Z M0,0" fill="rgb(255,255,255)" transform="matrix(1,0,0,-1,0.0,200.0)"/>
 <path d="M0,0 l72,0" fill="none" stroke="rgb(229,229,229)" stroke-width="2" transform="matrix(1,0,0,-1,0.0,135.0)"/>
 <path d="M0,1 l0,-5" fill="none" stroke="rgb(204,204,204)" stroke-width="2" transform="matrix(1,0,0,-1,7.0,135.0)"/>
 <path d="M0,1 l0,-5" fill="none" stroke="rgb(204,204,204)" stroke-width="2" transform="matrix(1,0,0,-1,65.0,135.0)"/>
 <path d="M498,312 c-35,-27,-103,-63,-195,-63 c-113,0,-169,55,-169,104 c0,44,31,74,105,85 l194,29 l0,111 l164,0 l0,64 l-619,0 l0,-64 l383,0 l0,-60 l-152,-21 c-95,-14,-153,-66,-153,-142 c0,-88,86,-173,248,-173 c19,0,38,1,57,4 l0,-60 l-151,-22 c-94,-13,-154,-65,-154,-141 c0,-88,86,-173,248,-173 c84,0,174,26,229,71 l-35,58 c-35,-27,-101,-62,-195,-62 c-113,0,-169,54,-169,103 c0,44,33,74,107,85 l192,29 l0,128 c39,13,74,30,100,52 Z M498,312" fill="rgb(0,0,0)" transform="matrix(0.1,0.0,0.0,-0.1,7.0,135.0)"/>
</svg>