<?xml version="1.0" encoding="UTF-8"?>
<svg height="200.0" version="1.1" width="72.0" xmlns="http://www.w3.org/2000/svg" xmlns:xlink="http://www.w3.org/1999/xlink">
 <path d="M0,0 l72,0 l0,200 l-72,0 Z M0,0" fill="rgb(255,255,255)" transform="matrix(1,0,0,-1,0.0,200.0)"/>
 <path d="M0,0 l72,0" fill="none" stroke="rgb(229,229,229)" stroke-width="2" transform="matrix(1,0,0,-1,0.0,135.0)"/>
 <path d="M0,1 l0,-5" fill="none" stroke="rgb(204,204,204)" stroke-width="2" transform="matrix(1,0,0,-1,7.0,135.0)"/>
 <path d="M0,1 l0,-5" fill="none" stroke="rgb(204,204,204)" stroke-width="2" transform="matrix(1,0,0,-1,66.0,135.0)"/>
 <path d="M533,254 l-35,58 c-35,-27,-103,-63,-195,-63 c-113,0,-169,55,-169,104 c0,44,31,74,105,85 l194,29 l0,111 l166,0 l0,64 l-621,0 l0,-64 l383,0 l0,-60 l-152,-21 c-95,-14,-153,-66,-153,-142 c0,-88,86,-173,248,-173 c12,0,24,1,37,2 l0,-64 l-132,-25 c-89,-16,-143,-67,-143,-141 c0,-94,93,-176,245,-176 c165,0,253,83,253,179 c0,94,-70,142,-151,161 l0,79 c46,12,90,32,120,57 Z M306,-155 c-111,0,-163,61,-163,109 c0,42,28,67,97,80 l141,28 c58,-11,109,-44,109,-100 c0,-62,-61,-117,-184,-117 Z M306,-155" fill="rgb(0,0,0)" transform="matrix(0.1,0.0,0.0,-0.1,7.0,135.0)"/>
</svg>