<?xml version="1.0" encoding="UTF-8"?>
<svg height="200.0" version="1.1" width="118.0" xmlns="http://www.w3.org/2000/svg" xmlns:xlink="http://www.w3.org/1999/xlink">
 <path d="M0,0 l118,0 l0,200 l-118,0 Z M0,0" fill="rgb(255,255,255)" transform="matrix(1,0,0,-1,0.0,200.0)"/>
 <path d="M0,0 l118,0" fill="none" stroke="rgb(229,229,229)" stroke-width="2" transform="matrix(1,0,0,-1,0.0,135.0)"/>
 <path d="M0,1 l0,-5" fill="none" stroke="rgb(204,204,204)" stroke-width="2" transform="matrix(1,0,0,-1,7.0,135.0)"/>
 <path d="M0,1 l0,-5" fill="none" stroke="rgb(204,204,204)" stroke-width="2" transform="matrix(1,0,0,-1,111.0,135.0)"/>
 <path d="M943,0 l0,578 l121,0 l0,64 l-1086,0 l0,-64 l331,0 l0,-142 l-118,-36 c-97,-30,-144,-77,-144,-163 c0,-116,102,-220,244,-220 c68,0,135,19,184,65 l-41,61 c-36,-33,-80,-57,-152,-57 c-99,0,-157,68,-157,138 c0,57,19,88,116,116 l144,43 c75,19,142,33,189,33 c54,0,81,-19,81,-56 c0,-33,-24,-67,-88,-99 l-52,-24 c19,-98,93,-175,206,-175 c72,0,122,38,143,65 l4,0 l0,-127 Z M725,128 c-70,0,-106,44,-118,85 c67,30,122,79,122,147 c0,74,-65,122,-153,122 c-54,0,-139,-18,-191,-33 l0,129 l483,0 l0,-294 c0,-85,-49,-156,-143,-156 Z M725,128" fill="rgb(0,0,0)" transform="matrix(0.1,0.0,0.0,-0.1,7.0,135.0)"/>
</svg>