<?xml version="1.0" encoding="UTF-8"?>
<svg height="200.0" version="1.1" width="76.0" xmlns="http://www.w3.org/2000/svg" xmlns:xlink="http://www.w3.org/1999/xlink">
 <path d="M0,0 l76,0 l0,200 l-76,0 Z M0,0" fill="rgb(255,255,255)" transform="matrix(1,0,0,-1,0.0,200.0)"/>
 <path d="M0,0 l76,0" fill="none" stroke="rgb(229,229,229)" stroke-width="2" transform="matrix(1,0,0,-1,0.0,135.0)"/>
 <path d="M0,1 l0,-5" fill="none" stroke="rgb(204,204,204)" stroke-width="2" transform="matrix(1,0,0,-1,7.0,135.0)"/>
 <path d="M0,1 l0,-5" fill="none" stroke="rgb(204,204,204)" stroke-width="2" transform="matrix(1,0,0,-1,68.0,135.0)"/>
 <path d="M307,177 c13,0,26,1,38,2 l0,-60 l-166,-42 c-85,-21,-128,-65,-128,-129 c0,-88,94,-171,252,-171 c167,0,254,87,254,179 c0,89,-67,136,-141,155 l0,81 c96,29,145,95,145,164 c0,89,-67,136,-141,155 l0,67 l210,0 l0,64 l-652,0 l0,-64 l370,0 l0,-59 l-165,-41 c-85,-22,-128,-66,-128,-129 c0,-88,94,-172,252,-172 Z M300,245 c-128,0,-168,58,-168,95 c0,39,23,60,83,75 l162,41 c57,-7,109,-37,109,-95 c0,-64,-60,-116,-186,-116 Z M296,-156 c-128,0,-168,59,-168,96 c0,39,23,60,83,75 l164,41 c56,-8,107,-38,107,-95 c0,-64,-60,-117,-186,-117 Z M296,-156" fill="rgb(0,0,0)" transform="matrix(0.1,0.0,0.0,-0.1,7.0,135.0)"/>
</svg>