<?xml version="1.0" encoding="UTF-8"?>
<svg height="200.0" version="1.1" width="128.0" xmlns="http://www.w3.org/2000/svg" xmlns:xlink="http://www.w3.org/1999/xlink">
 <path d="M0,0 l128,0 l0,200 l-128,0 Z M0,0" fill="rgb(255,255,255)" transform="matrix(1,0,0,-1,0.0,200.0)"/>
 <path d="M0,0 l128,0" fill="none" stroke="rgb(229,229,229)" stroke-width="2" transform="matrix(1,0,0,-1,0.0,135.0)"/>
 <path d="M0,1 l0,-5" fill="none" stroke="rgb(204,204,204)" stroke-width="2" transform="matrix(1,0,0,-1,7.0,135.0)"/>
 <path d="M0,1 l0,-5" fill="none" stroke="rgb(204,204,204)" stroke-width="2" transform="matrix(1,0,0,-1,121.0,135.0)"/>
 <path d="M965,127 l4,0 l0,-127 l76,0 l0,578 l121,0 l0,64 l-1188,0 l0,-64 l331,0 l0,-114 l-116,-36 c-97,-29,-146,-80,-146,-167 c0,-121,101,-220,241,-220 c142,0,239,91,239,207 c0,52,-19,93,-45,125 c54,23,126,45,190,45 c63,0,84,-25,84,-59 c0,-40,-27,-67,-80,-92 l-62,-32 c21,-98,94,-174,207,-174 c72,0,123,40,144,66 Z M825,127 c-71,0,-107,42,-118,85 c62,31,122,74,122,147 c0,73,-61,125,-155,125 c-98,0,-199,-39,-249,-62 c-14,9,-27,16,-40,21 l0,135 l584,0 l0,-295 c0,-85,-52,-156,-144,-156 Z M279,110 c-101,0,-155,70,-155,139 c0,57,20,93,117,121 l80,24 c49,-11,130,-54,130,-140 c0,-76,-54,-144,-172,-144 Z M279,110" fill="rgb(0,0,0)" transform="matrix(0.1,0.0,0.0,-0.1,7.0,135.0)"/>
</svg>