<?xml version="1.0" encoding="UTF-8"?>
<svg height="200.0" version="1.1" width="76.0" xmlns="http://www.w3.org/2000/svg" xmlns:xlink="http://www.w3.org/1999/xlink">
 <path d="M0,0 l76,0 l0,200 l-76,0 Z M0,0" fill="rgb(255,255,255)" transform="matrix(1,0,0,-1,0.0,200.0)"/>
 <path d="M0,0 l76,0" fill="none" stroke="rgb(229,229,229)" stroke-width="2" transform="matrix(1,0,0,-1,0.0,135.0)"/>
 <path d="M0,1 l0,-5" fill="none" stroke="rgb(204,204,204)" stroke-width="2" transform="matrix(1,0,0,-1,7.0,135.0)"/>
 <path d="M0,1 l0,-5" fill="none" stroke="rgb(204,204,204)" stroke-width="2" transform="matrix(1,0,0,-1,68.0,135.0)"/>
 <path d="M300,201 c-128,0,-167,58,-167,98 c0,43,34,69,95,82 l147,32 c58,-7,111,-37,111,-95 c0,-65,-60,-117,-186,-117 Z M477,-200 l0,376 c56,34,84,84,84,137 c0,89,-67,136,-141,155 l0,110 l210,0 l0,64 l-652,0 l0,-64 l370,0 l0,-103 l-151,-32 c-86,-18,-141,-66,-141,-136 c0,-64,44,-121,122,-151 c-41,-22,-77,-62,-77,-132 c0,-91,69,-166,173,-166 c73,0,114,34,128,52 l4,0 l0,-110 Z M177,27 c0,57,38,108,125,108 c41,0,76,-7,104,-13 l0,-75 c0,-72,-45,-124,-118,-124 c-72,0,-111,48,-111,104 Z M177,27" fill="rgb(0,0,0)" transform="matrix(0.1,0.0,0.0,-0.1,7.0,135.0)"/>
</svg>