<?xml version="1.0" encoding="UTF-8"?>
<svg height="200.0" version="1.1" width="70.0" xmlns="http://www.w3.org/2000/svg" xmlns:xlink="http://www.w3.org/1999/xlink">
 <path d="M0,0 l70,0 l0,200 l-70,0 Z M0,0" fill="rgb(255,255,255)" transform="matrix(1,0,0,-1,0.0,200.0)"/>
 <path d="M0,0 l70,0" fill="none" stroke="rgb(229,229,229)" stroke-width="2" transform="matrix(1,0,0,-1,0.0,135.0)"/>
 <path d="M0,1 l0,-5" fill="none" stroke="rgb(204,204,204)" stroke-width="2" transform="matrix(1,0,0,-1,7.0,135.0)"/>
 <path d="M0,1 l0,-5" fill="none" stroke="rgb(204,204,204)" stroke-width="2" transform="matrix(1,0,0,-1,63.0,135.0)"/>
 <path d="M491,278 c0,47,-27,87,-63,103 l-192,-33 c-36,6,-53,37,-53,58 c0,22,11,42,51,42 l207,0 l0,130 l140,0 l0,64 l-603,0 l0,-64 l392,0 l0,-70 l-163,0 c-68,0,-100,-45,-100,-90 c0,-58,48,-115,122,-132 l171,30 c11,-7,19,-21,19,-41 c0,-38,-32,-81,-122,-81 c-104,0,-163,44,-206,100 l-45,-44 c30,-40,74,-75,128,-95 c-64,-21,-102,-73,-102,-136 c0,-97,89,-195,239,-195 c111,0,169,66,169,139 c0,57,-45,111,-118,111 c-83,0,-118,-64,-116,-104 l64,-29 c-5,32,10,69,53,69 c32,0,49,-23,49,-48 c0,-38,-32,-76,-103,-76 c-107,0,-163,68,-163,129 c0,50,30,98,168,118 c93,8,176,51,177,145 Z M491,278" fill="rgb(0,0,0)" transform="matrix(0.1,0.0,0.0,-0.1,7.0,135.0)"/>
</svg>