<?xml version="1.0" encoding="UTF-8"?>
<svg height="200.0" version="1.1" width="124.0" xmlns="http://www.w3.org/2000/svg" xmlns:xlink="http://www.w3.org/1999/xlink">
 <path d="M0,0 l124,0 l0,200 l-124,0 Z M0,0" fill="rgb(255,255,255)" transform="matrix(1,0,0,-1,0.0,200.0)"/>
 <path d="M0,0 l124,0" fill="none" stroke="rgb(229,229,229)" stroke-width="2" transform="matrix(1,0,0,-1,0.0,135.0)"/>
 <path d="M0,1 l0,-5" fill="none" stroke="rgb(204,204,204)" stroke-width="2" transform="matrix(1,0,0,-1,7.0,135.0)"/>
 <path d="M0,1 l0,-5" fill="none" stroke="rgb(204,204,204)" stroke-width="2" transform="matrix(1,0,0,-1,116.0,135.0)"/>
 <path d="M772,129 c-71,0,-107,43,-118,85 c62,30,122,74,122,146 c0,70,-50,119,-147,119 l-193,0 l0,99 l480,0 l0,-293 c0,-84,-52,-156,-144,-156 Z M912,129 l4,0 l0,-129 l75,0 l0,578 l121,0 l0,64 l-1134,0 l0,-64 l384,0 l0,-99 l-144,0 c-72,0,-114,-43,-114,-105 c0,-76,57,-140,128,-165 l156,33 c20,-15,29,-37,29,-63 c0,-64,-51,-101,-124,-101 c-89,0,-159,58,-201,142 l-56,-41 c51,-96,139,-167,257,-167 c120,0,197,75,197,167 c0,63,-34,115,-77,135 l-168,-34 c-36,10,-64,45,-64,79 c0,33,14,55,73,55 l369,0 c64,0,80,-21,80,-55 c0,-41,-27,-67,-80,-92 l-62,-29 c20,-99,94,-175,207,-175 c71,0,123,40,144,66 Z M912,129" fill="rgb(0,0,0)" transform="matrix(0.1,0.0,0.0,-0.1,7.0,135.0)"/>
</svg>