<?xml version="1.0" encoding="UTF-8"?>
<svg height="200.0" version="1.1" width="68.0" xmlns="http://www.w3.org/2000/svg" xmlns:xlink="http://www.w3.org/1999/xlink">
 <path d="M0,0 l68,0 l0,200 l-68,0 Z M0,0" fill="rgb(255,255,255)" transform="matrix(1,0,0,-1,0.0,200.0)"/>
 <path d="M0,0 l68,0" fill="none" stroke="rgb(229,229,229)" stroke-width="2" transform="matrix(1,0,0,-1,0.0,135.0)"/>
 <path d="M0,1 l0,-5" fill="none" stroke="rgb(204,204,204)" stroke-width="2" transform="matrix(1,0,0,-1,7.0,135.0)"/>
 <path d="M0,1 l0,-5" fill="none" stroke="rgb(204,204,204)" stroke-width="2" transform="matrix(1,0,0,-1,62.0,135.0)"/>
 <path d="M566,642 l-588,0 l0,-64 l385,0 l0,-81 l-157,0 c-69,0,-102,-43,-102,-91 c0,-65,46,-127,119,-151 l173,31 c10,-9,17,-25,17,-46 c0,-46,-29,-93,-128,-93 c-93,0,-154,50,-192,112 l-52,-45 c26,-36,63,-77,114,-103 c-35,-23,-64,-62,-64,-121 c0,-86,63,-154,160,-154 c65,0,100,31,113,47 l4,0 l0,-116 l70,0 l0,366 c32,29,47,68,47,107 c0,61,-31,102,-64,117 l-187,-33 c-37,11,-54,45,-54,70 c0,22,11,40,57,40 l199,0 l0,144 l130,0 Z M264,-98 c-69,0,-97,40,-97,90 c0,58,42,95,118,95 c27,0,56,-1,84,-2 l0,-67 c0,-72,-46,-116,-105,-116 Z M264,-98" fill="rgb(0,0,0)" transform="matrix(0.1,0.0,0.0,-0.1,7.0,135.0)"/>
</svg>