<?xml version="1.0" encoding="UTF-8"?>
<svg height="200.0" version="1.1" width="120.0" xmlns="http://www.w3.org/2000/svg" xmlns:xlink="http://www.w3.org/1999/xlink">
 <path d="M0,0 l120,0 l0,200 l-120,0 Z M0,0" fill="rgb(255,255,255)" transform="matrix(1,0,0,-1,0.0,200.0)"/>
 <path d="M0,0 l120,0" fill="none" stroke="rgb(229,229,229)" stroke-width="2" transform="matrix(1,0,0,-1,0.0,135.0)"/>
 <path d="M0,1 l0,-5" fill="none" stroke="rgb(204,204,204)" stroke-width="2" transform="matrix(1,0,0,-1,7.0,135.0)"/>
 <path d="M0,1 l0,-5" fill="none" stroke="rgb(204,204,204)" stroke-width="2" transform="matrix(1,0,0,-1,113.0,135.0)"/>
 <path d="M879,129 l4,0 l0,-129 l75,0 l0,578 l121,0 l0,64 l-1101,0 l0,-64 l354,0 l0,-99 l-136,-39 c-92,-25,-149,-91,-149,-178 c0,-127,112,-232,253,-232 c104,0,174,70,174,152 c0,68,-55,123,-127,123 c-82,0,-122,-61,-121,-111 l61,-33 c-7,39,14,76,57,76 c34,0,57,-26,57,-56 c0,-48,-37,-83,-103,-83 c-106,0,-174,79,-174,156 c0,58,24,104,118,128 l156,42 c65,5,127,7,183,7 c62,0,89,-24,89,-68 c0,-33,-25,-68,-89,-99 l-50,-25 c18,-99,92,-175,205,-175 c71,0,122,38,143,65 Z M740,131 c-71,0,-107,42,-118,85 c66,30,121,77,121,146 c0,90,-64,133,-162,133 c-58,0,-118,-3,-173,-5 l0,88 l475,0 l0,-293 c0,-84,-51,-154,-143,-154 Z M740,131" fill="rgb(0,0,0)" transform="matrix(0.1,0.0,0.0,-0.1,7.0,135.0)"/>
</svg>