<?xml version="1.0" encoding="UTF-8"?>
<svg height="200.0" version="1.1" width="68.0" xmlns="http://www.w3.org/2000/svg" xmlns:xlink="http://www.w3.org/1999/xlink">
 <path d="M0,0 l68,0 l0,200 l-68,0 Z M0,0" fill="rgb(255,255,255)" transform="matrix(1,0,0,-1,0.0,200.0)"/>
 <path d="M0,0 l68,0" fill="none" stroke="rgb(229,229,229)" stroke-width="2" transform="matrix(1,0,0,-1,0.0,135.0)"/>
 <path d="M0,1 l0,-5" fill="none" stroke="rgb(204,204,204)" stroke-width="2" transform="matrix(1,0,0,-1,7.0,135.0)"/>
 <path d="M0,1 l0,-5" fill="none" stroke="rgb(204,204,204)" stroke-width="2" transform="matrix(1,0,0,-1,61.0,135.0)"/>
 <path d="M451,-192 l0,378 c23,22,36,51,36,86 c0,56,-47,110,-119,110 c-76,0,-109,-50,-114,-89 c-1,-4,-1,-8,-2,-12 l63,-30 c-1,6,-1,11,0,17 c2,26,19,50,51,50 c33,0,49,-21,49,-48 c0,-34,-32,-71,-104,-71 c-111,0,-167,70,-167,130 c0,46,24,80,113,100 l170,36 l0,113 l134,0 l0,64 l-583,0 l0,-64 l375,0 l0,-60 l-148,-34 c-93,-21,-137,-80,-137,-149 c0,-61,39,-121,101,-159 c-52,-22,-94,-67,-94,-143 c0,-92,69,-167,172,-167 c74,0,115,35,128,53 l4,0 l0,-111 Z M151,35 c0,57,38,108,125,108 c41,0,62,-2,104,3 l0,-91 c0,-72,-46,-123,-119,-123 c-72,0,-110,47,-110,103 Z M151,35" fill="rgb(0,0,0)" transform="matrix(0.1,0.0,0.0,-0.1,7.0,135.0)"/>
</svg>