<?xml version="1.0" encoding="UTF-8"?>
<svg height="200.0" version="1.1" width="118.0" xmlns="http://www.w3.org/2000/svg" xmlns:xlink="http://www.w3.org/1999/xlink">
 <path d="M0,0 l118,0 l0,200 l-118,0 Z M0,0" fill="rgb(255,255,255)" transform="matrix(1,0,0,-1,0.0,200.0)"/>
 <path d="M0,0 l118,0" fill="none" stroke="rgb(229,229,229)" stroke-width="2" transform="matrix(1,0,0,-1,0.0,135.0)"/>
 <path d="M0,1 l0,-5" fill="none" stroke="rgb(204,204,204)" stroke-width="2" transform="matrix(1,0,0,-1,7.0,135.0)"/>
 <path d="M0,1 l0,-5" fill="none" stroke="rgb(204,204,204)" stroke-width="2" transform="matrix(1,0,0,-1,110.0,135.0)"/>
 <path d="M248,245 c-57,0,-88,36,-88,101 l0,232 l176,0 l0,-232 c0,-65,-31,-101,-88,-101 Z M247,177 c96,0,164,59,164,166 l0,235 l441,0 l0,-99 l-144,0 c-72,0,-114,-43,-114,-105 c0,-76,57,-140,128,-165 l156,33 c20,-15,29,-37,29,-63 c0,-64,-51,-101,-124,-101 c-89,0,-159,58,-201,142 l-56,-41 c51,-96,139,-167,257,-167 c120,0,197,75,197,167 c0,63,-34,115,-77,135 l-168,-34 c-36,10,-64,45,-64,79 c0,33,14,55,73,55 l182,0 l0,164 l130,0 l0,64 l-1078,0 l0,-64 l107,0 l0,-235 c0,-107,66,-166,162,-166 Z M247,177" fill="rgb(0,0,0)" transform="matrix(0.1,0.0,0.0,-0.1,7.0,135.0)"/>
</svg>