<?xml version="1.0" encoding="UTF-8"?>
<svg height="200.0" version="1.1" width="116.0" xmlns="http://www.w3.org/2000/svg" xmlns:xlink="http://www.w3.org/1999/xlink">
 <path d="M0,0 l116,0 l0,200 l-116,0 Z M0,0" fill="rgb(255,255,255)" transform="matrix(1,0,0,-1,0.0,200.0)"/>
 <path d="M0,0 l116,0" fill="none" stroke="rgb(229,229,229)" stroke-width="2" transform="matrix(1,0,0,-1,0.0,135.0)"/>
 <path d="M0,1 l0,-5" fill="none" stroke="rgb(204,204,204)" stroke-width="2" transform="matrix(1,0,0,-1,7.0,135.0)"/>
 <path d="M0,1 l0,-5" fill="none" stroke="rgb(204,204,204)" stroke-width="2" transform="matrix(1,0,0,-1,109.0,135.0)"/>
 <path d="M247,177 c96,0,164,59,164,166 l0,235 l412,0 l0,-91 l-136,-39 c-92,-25,-150,-91,-150,-179 c0,-126,112,-231,254,-231 c103,0,174,70,174,152 c0,68,-55,123,-127,123 c-82,0,-122,-62,-122,-112 l61,-32 c-6,39,15,75,58,75 c33,0,56,-25,56,-55 c0,-48,-37,-83,-102,-83 c-106,0,-174,78,-174,156 c0,58,24,104,117,128 l167,44 l0,144 l139,0 l0,64 l-1060,0 l0,-64 l107,0 l0,-235 c0,-107,66,-166,162,-166 Z M248,245 c-57,0,-88,36,-88,101 l0,232 l176,0 l0,-232 c0,-65,-31,-101,-88,-101 Z M248,245" fill="rgb(0,0,0)" transform="matrix(0.1,0.0,0.0,-0.1,7.0,135.0)"/>
</svg>