<?xml version="1.0" encoding="UTF-8"?>
<svg height="200.0" version="1.1" width="122.0" xmlns="http://www.w3.org/2000/svg" xmlns:xlink="http://www.w3.org/1999/xlink">
 <path d="M0,0 l122,0 l0,200 l-122,0 Z M0,0" fill="rgb(255,255,255)" transform="matrix(1,0,0,-1,0.0,200.0)"/>
 <path d="M0,0 l122,0" fill="none" stroke="rgb(229,229,229)" stroke-width="2" transform="matrix(1,0,0,-1,0.0,135.0)"/>
 <path d="M0,1 l0,-5" fill="none" stroke="rgb(204,204,204)" stroke-width="2" transform="matrix(1,0,0,-1,7.0,135.0)"/>
 <path d="M0,1 l0,-5" fill="none" stroke="rgb(204,204,204)" stroke-width="2" transform="matrix(1,0,0,-1,114.0,135.0)"/>
 <path d="M248,245 c-57,0,-88,36,-88,101 l0,232 l176,0 l0,-232 c0,-65,-31,-101,-88,-101 Z M970,0 l0,578 l121,0 l0,64 l-1113,0 l0,-64 l107,0 l0,-235 c0,-107,66,-166,162,-166 c96,0,164,59,164,166 l0,235 l197,0 l0,-240 l-49,-37 c1,-43,24,-102,60,-132 l63,0 l0,102 l213,0 l0,-271 Z M895,578 l0,-238 l-212,0 l0,238 Z M895,578" fill="rgb(0,0,0)" transform="matrix(0.1,0.0,0.0,-0.1,7.0,135.0)"/>
</svg>