<?xml version="1.0" encoding="UTF-8"?>
<svg height="200.0" version="1.1" width="118.0" xmlns="http://www.w3.org/2000/svg" xmlns:xlink="http://www.w3.org/1999/xlink">
 <path d="M0,0 l118,0 l0,200 l-118,0 Z M0,0" fill="rgb(255,255,255)" transform="matrix(1,0,0,-1,0.0,200.0)"/>
 <path d="M0,0 l118,0" fill="none" stroke="rgb(229,229,229)" stroke-width="2" transform="matrix(1,0,0,-1,0.0,135.0)"/>
 <path d="M0,1 l0,-5" fill="none" stroke="rgb(204,204,204)" stroke-width="2" transform="matrix(1,0,0,-1,7.0,135.0)"/>
 <path d="M0,1 l0,-5" fill="none" stroke="rgb(204,204,204)" stroke-width="2" transform="matrix(1,0,0,-1,111.0,135.0)"/>
 <path d="M247,177 c96,0,164,59,164,166 l0,235 l453,0 l0,-250 c0,-81,-51,-145,-132,-145 c-71,0,-117,50,-117,116 c0,89,82,130,166,108 l-7,71 c-112,20,-239,-38,-239,-180 c0,-111,86,-183,184,-183 c74,0,120,34,141,60 l4,0 l0,-175 l75,0 l0,578 l121,0 l0,64 l-1082,0 l0,-64 l107,0 l0,-235 c0,-107,66,-166,162,-166 Z M248,245 c-57,0,-88,36,-88,101 l0,232 l176,0 l0,-232 c0,-65,-31,-101,-88,-101 Z M248,245" fill="rgb(0,0,0)" transform="matrix(0.1,0.0,0.0,-0.1,7.0,135.0)"/>
</svg>