<?xml version="1.0" encoding="UTF-8"?>
<svg height="200.0" version="1.1" width="122.0" xmlns="http://www.w3.org/2000/svg" xmlns:xlink="http://www.w3.org/1999/xlink">
 <path d="M0,0 l122,0 l0,200 l-122,0 Z M0,0" fill="rgb(255,255,255)" transform="matrix(1,0,0,-1,0.0,200.0)"/>
 <path d="M0,0 l122,0" fill="none" stroke="rgb(229,229,229)" stroke-width="2" transform="matrix(1,0,0,-1,0.0,135.0)"/>
 <path d="M0,1 l0,-5" fill="none" stroke="rgb(204,204,204)" stroke-width="2" transform="matrix(1,0,0,-1,7.0,135.0)"/>
 <path d="M0,1 l0,-5" fill="none" stroke="rgb(204,204,204)" stroke-width="2" transform="matrix(1,0,0,-1,115.0,135.0)"/>
 <path d="M953,297 c0,-83,-72,-115,-144,-102 l12,-69 c108,-15,210,51,210,172 c0,104,-77,171,-168,171 c-68,0,-110,-32,-130,-58 l-4,0 l0,167 l370,0 l0,64 l-1121,0 l0,-64 l677,0 l0,-258 c0,-75,-48,-126,-119,-126 c-63,0,-106,44,-106,104 c0,84,73,115,144,103 l-12,69 c-51,7,-101,-5,-140,-32 l-194,0 c-99,0,-177,-69,-177,-182 c0,-119,62,-209,133,-263 l60,45 c-63,47,-115,117,-115,217 c0,74,46,115,113,115 l125,0 c-10,-21,-15,-46,-15,-73 c0,-102,78,-171,169,-171 c70,0,111,33,130,57 l4,0 l0,-183 l74,0 l0,275 c0,75,48,126,119,126 c62,0,105,-42,105,-104 Z M953,297" fill="rgb(0,0,0)" transform="matrix(0.1,0.0,0.0,-0.1,7.0,135.0)"/>
</svg>