<?xml version="1.0" encoding="UTF-8"?>
<svg height="200.0" version="1.1" width="162.0" xmlns="http://www.w3.org/2000/svg" xmlns:xlink="http://www.w3.org/1999/xlink">
 <path d="M0,0 l162,0 l0,200 l-162,0 Z M0,0" fill="rgb(255,255,255)" transform="matrix(1,0,0,-1,0.0,200.0)"/>
 <path d="M0,0 l162,0" fill="none" stroke="rgb(229,229,229)" stroke-width="2" transform="matrix(1,0,0,-1,0.0,135.0)"/>
 <path d="M0,1 l0,-5" fill="none" stroke="rgb(204,204,204)" stroke-width="2" transform="matrix(1,0,0,-1,7.0,135.0)"/>
 <path d="M0,1 l0,-5" fill="none" stroke="rgb(204,204,204)" stroke-width="2" transform="matrix(1,0,0,-1,155.0,135.0)"/>
 <path d="M851,468 c-56,0,-98,-31,-118,-57 l-4,0 l0,167 l292,0 c27,-23,44,-59,44,-95 c0,-45,-27,-75,-77,-95 c-28,57,-78,80,-137,80 Z M651,183 l4,0 l0,-183 l74,0 l0,274 c0,77,46,125,113,125 c40,0,66,-16,81,-44 c20,-138,110,-218,225,-218 c93,0,140,48,158,72 l4,0 l0,-209 l76,0 l0,578 l120,0 l0,64 l-1528,0 l0,-64 l677,0 l0,-258 c0,-75,-48,-126,-119,-126 c-63,0,-106,44,-106,104 c0,84,73,115,144,103 l-11,69 c-52,7,-102,-5,-141,-32 l-194,0 c-99,0,-177,-69,-177,-182 c0,-119,62,-209,133,-263 l60,45 c-63,47,-115,117,-115,217 c0,74,46,115,113,115 l125,0 c-10,-21,-15,-46,-15,-73 c0,-102,79,-171,169,-171 c70,0,111,33,130,57 Z M1008,333 c76,18,134,69,134,139 c0,44,-16,76,-40,102 l0,4 l209,0 l0,-208 c0,-105,-64,-164,-152,-164 c-100,0,-143,73,-151,127 Z M1008,333" fill="rgb(0,0,0)" transform="matrix(0.1,0.0,0.0,-0.1,7.0,135.0)"/>
</svg>