<?xml version="1.0" encoding="UTF-8"?>
<svg height="200.0" version="1.1" width="122.0" xmlns="http://www.w3.org/2000/svg" xmlns:xlink="http://www.w3.org/1999/xlink">
 <path d="M0,0 l122,0 l0,200 l-122,0 Z M0,0" fill="rgb(255,255,255)" transform="matrix(1,0,0,-1,0.0,200.0)"/>
 <path d="M0,0 l122,0" fill="none" stroke="rgb(229,229,229)" stroke-width="2" transform="matrix(1,0,0,-1,0.0,135.0)"/>
 <path d="M0,1 l0,-5" fill="none" stroke="rgb(204,204,204)" stroke-width="2" transform="matrix(1,0,0,-1,7.0,135.0)"/>
 <path d="M0,1 l0,-5" fill="none" stroke="rgb(204,204,204)" stroke-width="2" transform="matrix(1,0,0,-1,115.0,135.0)"/>
 <path d="M662,178 l0,-178 l74,0 l0,275 c0,75,48,126,119,126 c62,0,105,-42,105,-104 c0,-69,-53,-116,-144,-102 l12,-69 c114,-14,210,55,210,172 c0,104,-77,171,-168,171 c-68,0,-110,-32,-130,-58 l-4,0 l0,167 l370,0 l0,64 l-1128,0 l0,-64 l684,0 l0,-256 c0,-76,-50,-126,-119,-126 c-62,0,-106,43,-106,104 c0,69,54,116,144,102 l-12,69 c-54,7,-104,-6,-142,-33 l-199,0 c-99,0,-177,-69,-177,-182 c0,-119,62,-209,133,-263 l60,45 c-63,47,-115,117,-115,217 c0,74,46,115,113,115 l130,0 c-8,-20,-13,-43,-13,-68 c0,-99,73,-155,137,-160 l0,-4 l-142,-87 l62,-54 l242,181 Z M662,178" fill="rgb(0,0,0)" transform="matrix(0.1,0.0,0.0,-0.1,7.0,135.0)"/>
</svg>