<?xml version="1.0" encoding="UTF-8"?>
<svg height="200.0" version="1.1" width="158.0" xmlns="http://www.w3.org/2000/svg" xmlns:xlink="http://www.w3.org/1999/xlink">
 <path d="M0,0 l158,0 l0,200 l-158,0 Z M0,0" fill="rgb(255,255,255)" transform="matrix(1,0,0,-1,0.0,200.0)"/>
 <path d="M0,0 l158,0" fill="none" stroke="rgb(229,229,229)" stroke-width="2" transform="matrix(1,0,0,-1,0.0,135.0)"/>
 <path d="M0,1 l0,-5" fill="none" stroke="rgb(204,204,204)" stroke-width="2" transform="matrix(1,0,0,-1,7.0,135.0)"/>
 <path d="M0,1 l0,-5" fill="none" stroke="rgb(204,204,204)" stroke-width="2" transform="matrix(1,0,0,-1,151.0,135.0)"/>
 <path d="M1129,183 c-71,0,-117,50,-117,116 c0,89,82,130,166,108 l-7,71 c-70,12,-145,-5,-192,-54 c-30,28,-72,45,-116,45 c-67,0,-111,-32,-130,-57 l-4,0 l0,166 l532,0 l0,-250 c0,-81,-51,-145,-132,-145 Z M655,183 l0,-183 l74,0 l0,275 c0,75,49,126,120,126 c41,0,73,-18,91,-44 c-5,-18,-8,-37,-8,-59 c0,-111,86,-183,184,-183 c75,0,120,34,141,60 l4,0 l0,-175 l75,0 l0,578 l121,0 l0,64 l-1479,0 l0,-64 l677,0 l0,-258 c0,-75,-48,-126,-119,-126 c-63,0,-106,44,-106,104 c0,84,73,115,144,103 l-12,69 c-51,7,-101,-5,-140,-32 l-194,0 c-99,0,-177,-69,-177,-182 c0,-119,62,-209,133,-263 l60,45 c-63,47,-115,117,-115,217 c0,74,46,115,113,115 l125,0 c-10,-21,-15,-46,-15,-73 c0,-102,78,-171,169,-171 c70,0,111,33,130,57 Z M655,183" fill="rgb(0,0,0)" transform="matrix(0.1,0.0,0.0,-0.1,7.0,135.0)"/>
</svg>