<?xml version="1.0" encoding="UTF-8"?>
<svg height="200.0" version="1.1" width="124.0" xmlns="http://www.w3.org/2000/svg" xmlns:xlink="http://www.w3.org/1999/xlink">
 <path d="M0,0 l124,0 l0,200 l-124,0 Z M0,0" fill="rgb(255,255,255)" transform="matrix(1,0,0,-1,0.0,200.0)"/>
 <path d="M0,0 l124,0" fill="none" stroke="rgb(229,229,229)" stroke-width="2" transform="matrix(1,0,0,-1,0.0,135.0)"/>
 <path d="M0,1 l0,-5" fill="none" stroke="rgb(204,204,204)" stroke-width="2" transform="matrix(1,0,0,-1,7.0,135.0)"/>
 <path d="M0,1 l0,-5" fill="none" stroke="rgb(204,204,204)" stroke-width="2" transform="matrix(1,0,0,-1,116.0,135.0)"/>
 <path d="M329,642 l-351,0 l0,-64 l351,0 Z M836,-70 l-90,138 c17,14,33,42,33,81 c0,39,-27,68,-48,77 l-54,-19 l0,-96 c-16,-14,-49,-23,-89,-23 c-80,0,-131,49,-131,111 c0,66,53,98,151,128 c43,-17,106,-29,169,-29 c45,0,91,4,138,16 l0,-314 l76,0 l0,578 l120,0 l0,64 l-196,0 l0,-252 c-31,-17,-91,-28,-147,-28 c-26,0,-58,4,-79,8 l0,4 c33,15,87,52,87,132 c0,82,-67,146,-166,146 c-103,0,-176,-65,-176,-147 c0,-63,42,-113,95,-137 c-16,-6,-31,-13,-45,-20 c-32,43,-92,88,-176,88 l-80,0 c-99,0,-177,-69,-177,-182 c0,-119,62,-209,133,-264 l61,46 c-64,47,-116,117,-116,217 c0,74,46,115,114,115 l64,0 c67,0,103,-28,123,-56 c-33,-30,-51,-66,-51,-112 c0,-99,79,-180,219,-180 c37,0,71,7,96,18 l52,-125 Z M507,504 c0,48,38,84,100,84 c60,0,96,-34,96,-82 c0,-62,-49,-97,-99,-109 c-60,20,-97,60,-97,107 Z M507,504" fill="rgb(0,0,0)" transform="matrix(0.1,0.0,0.0,-0.1,7.0,135.0)"/>
</svg>