<?xml version="1.0" encoding="UTF-8"?>
<svg height="200.0" version="1.1" width="124.0" xmlns="http://www.w3.org/2000/svg" xmlns:xlink="http://www.w3.org/1999/xlink">
 <path d="M0,0 l124,0 l0,200 l-124,0 Z M0,0" fill="rgb(255,255,255)" transform="matrix(1,0,0,-1,0.0,200.0)"/>
 <path d="M0,0 l124,0" fill="none" stroke="rgb(229,229,229)" stroke-width="2" transform="matrix(1,0,0,-1,0.0,135.0)"/>
 <path d="M0,1 l0,-5" fill="none" stroke="rgb(204,204,204)" stroke-width="2" transform="matrix(1,0,0,-1,7.0,135.0)"/>
 <path d="M0,1 l0,-5" fill="none" stroke="rgb(204,204,204)" stroke-width="2" transform="matrix(1,0,0,-1,117.0,135.0)"/>
 <path d="M400,438 l-172,0 c-99,0,-177,-69,-177,-182 c0,-119,62,-209,133,-263 l60,45 c-63,47,-115,117,-115,217 c0,74,46,115,113,115 l117,0 c22,-196,137,-341,332,-341 c109,0,189,49,232,102 l4,0 l0,-131 l72,0 l0,578 l121,0 l0,64 l-1142,0 l0,-64 l564,0 l0,-166 c0,-43,-20,-59,-50,-59 c-37,0,-55,21,-69,45 l-1,0 Z M923,459 c-19,18,-47,34,-98,34 c-84,0,-154,-64,-154,-154 c0,-93,72,-145,142,-150 l40,53 c-68,3,-110,42,-110,96 c0,53,37,89,91,89 c50,0,95,-39,95,-110 c0,-139,-109,-221,-236,-221 c-120,0,-216,75,-243,206 c12,-6,28,-11,55,-11 c63,0,111,44,111,124 l0,163 l311,0 l0,-119 Z M923,459" fill="rgb(0,0,0)" transform="matrix(0.1,0.0,0.0,-0.1,7.0,135.0)"/>
</svg>