<?xml version="1.0" encoding="UTF-8"?>
<svg height="200.0" version="1.1" width="168.0" xmlns="http://www.w3.org/2000/svg" xmlns:xlink="http://www.w3.org/1999/xlink">
 <path d="M0,0 l168,0 l0,200 l-168,0 Z M0,0" fill="rgb(255,255,255)" transform="matrix(1,0,0,-1,0.0,200.0)"/>
 <path d="M0,0 l168,0" fill="none" stroke="rgb(229,229,229)" stroke-width="2" transform="matrix(1,0,0,-1,0.0,135.0)"/>
 <path d="M0,1 l0,-5" fill="none" stroke="rgb(204,204,204)" stroke-width="2" transform="matrix(1,0,0,-1,7.0,135.0)"/>
 <path d="M0,1 l0,-5" fill="none" stroke="rgb(204,204,204)" stroke-width="2" transform="matrix(1,0,0,-1,161.0,135.0)"/>
 <path d="M1163,233 l0,92 l199,0 l0,-325 l76,0 l0,578 l121,0 l0,64 l-1581,0 l0,-64 l564,0 l0,-166 c0,-43,-19,-59,-49,-59 c-37,0,-57,20,-69,45 l-1,0 l-23,40 l-172,0 c-99,0,-177,-69,-177,-182 c0,-119,62,-209,133,-263 l60,45 c-63,47,-115,117,-115,217 c0,74,46,115,113,115 l117,0 c19,-191,136,-340,333,-340 c188,0,307,139,307,286 c0,100,-67,178,-168,178 c-91,0,-159,-65,-159,-154 c0,-93,71,-146,140,-150 l42,53 c-68,3,-111,42,-111,96 c0,53,37,89,91,89 c49,0,96,-44,96,-110 c0,-137,-109,-222,-236,-222 c-120,0,-217,74,-244,206 c12,-6,28,-11,55,-11 c63,0,111,44,111,124 l0,163 l746,0 l0,-185 l-256,0 l-56,-45 c1,-56,29,-108,66,-131 Z M1163,233" fill="rgb(0,0,0)" transform="matrix(0.1,0.0,0.0,-0.1,7.0,135.0)"/>
</svg>