<?xml version="1.0" encoding="UTF-8"?>
<svg height="200.0" version="1.1" width="124.0" xmlns="http://www.w3.org/2000/svg" xmlns:xlink="http://www.w3.org/1999/xlink">
 <path d="M0,0 l124,0 l0,200 l-124,0 Z M0,0" fill="rgb(255,255,255)" transform="matrix(1,0,0,-1,0.0,200.0)"/>
 <path d="M0,0 l124,0" fill="none" stroke="rgb(229,229,229)" stroke-width="2" transform="matrix(1,0,0,-1,0.0,135.0)"/>
 <path d="M0,1 l0,-5" fill="none" stroke="rgb(204,204,204)" stroke-width="2" transform="matrix(1,0,0,-1,7.0,135.0)"/>
 <path d="M0,1 l0,-5" fill="none" stroke="rgb(204,204,204)" stroke-width="2" transform="matrix(1,0,0,-1,117.0,135.0)"/>
 <path d="M228,438 c-99,0,-177,-69,-177,-182 c0,-119,62,-209,133,-263 l60,45 c-63,47,-115,117,-115,217 c0,74,46,115,113,115 l121,0 c31,-234,174,-313,279,-317 l0,-4 l-223,-65 l60,-64 l250,96 c122,46,167,86,195,116 l4,0 l0,-132 l72,0 l0,578 l120,0 l0,64 l-1142,0 l0,-64 l564,0 l0,-162 c0,-42,-20,-59,-50,-59 c-35,0,-57,18,-69,44 c-5,13,-8,27,-10,37 Z M924,461 c-20,19,-49,35,-98,35 c-85,0,-156,-64,-156,-154 c0,-93,72,-145,142,-149 l38,53 c-67,3,-108,41,-108,95 c0,54,38,89,92,89 c51,0,97,-39,97,-112 c0,-144,-114,-215,-234,-215 c-119,0,-220,71,-245,205 c12,-6,28,-11,55,-11 c63,0,109,43,109,120 l0,161 l311,0 l0,-116 Z M924,461" fill="rgb(0,0,0)" transform="matrix(0.1,0.0,0.0,-0.1,7.0,135.0)"/>
</svg>