<?xml version="1.0" encoding="UTF-8"?>
<svg height="200.0" version="1.1" width="110.0" xmlns="http://www.w3.org/2000/svg" xmlns:xlink="http://www.w3.org/1999/xlink">
 <path d="M0,0 l110,0 l0,200 l-110,0 Z M0,0" fill="rgb(255,255,255)" transform="matrix(1,0,0,-1,0.0,200.0)"/>
 <path d="M0,0 l110,0" fill="none" stroke="rgb(229,229,229)" stroke-width="2" transform="matrix(1,0,0,-1,0.0,135.0)"/>
 <path d="M0,1 l0,-5" fill="none" stroke="rgb(204,204,204)" stroke-width="2" transform="matrix(1,0,0,-1,7.0,135.0)"/>
 <path d="M0,1 l0,-5" fill="none" stroke="rgb(204,204,204)" stroke-width="2" transform="matrix(1,0,0,-1,102.0,135.0)"/>
 <path d="M780,209 l0,-209 l75,0 l0,578 l121,0 l0,64 l-998,0 l0,-64 l513,0 c26,-23,43,-59,43,-95 c0,-46,-29,-76,-82,-97 c-34,30,-76,45,-134,45 l-290,0 l0,-68 l114,0 l0,-4 c-15,-13,-51,-46,-51,-124 c0,-98,62,-189,133,-242 l55,49 c-51,39,-111,102,-111,202 c0,69,38,119,116,119 l31,0 c34,0,58,-6,79,-21 c24,-130,112,-205,224,-205 c92,0,139,48,158,72 Z M477,333 c77,18,135,69,135,139 c0,44,-17,76,-41,102 l0,4 l209,0 l0,-208 c0,-105,-63,-164,-152,-164 c-99,0,-143,73,-151,127 Z M477,333" fill="rgb(0,0,0)" transform="matrix(0.1,0.0,0.0,-0.1,7.0,135.0)"/>
</svg>