<?xml version="1.0" encoding="UTF-8"?>
<svg height="200.0" version="1.1" width="112.0" xmlns="http://www.w3.org/2000/svg" xmlns:xlink="http://www.w3.org/1999/xlink">
 <path d="M0,0 l112,0 l0,200 l-112,0 Z M0,0" fill="rgb(255,255,255)" transform="matrix(1,0,0,-1,0.0,200.0)"/>
 <path d="M0,0 l112,0" fill="none" stroke="rgb(229,229,229)" stroke-width="2" transform="matrix(1,0,0,-1,0.0,135.0)"/>
 <path d="M0,1 l0,-5" fill="none" stroke="rgb(204,204,204)" stroke-width="2" transform="matrix(1,0,0,-1,7.0,135.0)"/>
 <path d="M0,1 l0,-5" fill="none" stroke="rgb(204,204,204)" stroke-width="2" transform="matrix(1,0,0,-1,106.0,135.0)"/>
 <path d="M326,642 l-348,0 l0,-64 l348,0 Z M462,308 c20,5,39,10,59,16 c128,35,194,96,194,188 c0,81,-55,140,-144,140 c-84,0,-143,-59,-143,-129 c0,-38,16,-68,31,-82 l70,19 c-15,14,-26,38,-26,59 c0,41,29,65,68,65 c43,0,69,-28,69,-70 c0,-55,-26,-96,-167,-136 l-30,-8 c-28,38,-84,68,-167,68 l-49,0 c-98,0,-176,-69,-176,-182 c0,-119,61,-209,132,-263 l61,45 c-63,47,-116,117,-116,217 c0,74,47,115,114,115 l26,0 c51,0,81,-10,105,-31 c12,-133,101,-235,246,-235 c103,0,164,51,189,88 l4,0 l0,-192 l74,0 l0,578 l121,0 l0,64 l-195,0 l0,-276 c0,-102,-62,-193,-189,-193 c-115,0,-156,94,-161,135 Z M462,308" fill="rgb(0,0,0)" transform="matrix(0.1,0.0,0.0,-0.1,7.0,135.0)"/>
</svg>