<?xml version="1.0" encoding="UTF-8"?>
<svg height="200.0" version="1.1" width="124.0" xmlns="http://www.w3.org/2000/svg" xmlns:xlink="http://www.w3.org/1999/xlink">
 <path d="M0,0 l124,0 l0,200 l-124,0 Z M0,0" fill="rgb(255,255,255)" transform="matrix(1,0,0,-1,0.0,200.0)"/>
 <path d="M0,0 l124,0" fill="none" stroke="rgb(229,229,229)" stroke-width="2" transform="matrix(1,0,0,-1,0.0,135.0)"/>
 <path d="M0,1 l0,-5" fill="none" stroke="rgb(204,204,204)" stroke-width="2" transform="matrix(1,0,0,-1,7.0,135.0)"/>
 <path d="M0,1 l0,-5" fill="none" stroke="rgb(204,204,204)" stroke-width="2" transform="matrix(1,0,0,-1,117.0,135.0)"/>
 <path d="M677,252 l0,-252 l74,0 l0,260 c0,83,54,140,126,140 c63,0,105,-41,105,-103 c0,-73,-54,-127,-145,-110 l12,-70 c115,-14,211,61,211,181 c0,103,-77,171,-170,171 c-72,0,-117,-37,-135,-61 l-4,0 l0,170 l372,0 l0,64 l-1145,0 l0,-64 l414,0 l0,-140 l-164,0 c-99,0,-177,-69,-177,-182 c0,-119,62,-209,133,-263 l60,45 c-63,47,-115,117,-115,217 c0,74,46,115,113,115 l150,0 l0,-14 c0,-106,63,-163,156,-163 c68,0,108,32,125,59 Z M677,398 c0,-83,-47,-136,-121,-136 c-57,0,-89,30,-89,105 l0,211 l210,0 Z M677,398" fill="rgb(0,0,0)" transform="matrix(0.1,0.0,0.0,-0.1,7.0,135.0)"/>
</svg>