<?xml version="1.0" encoding="UTF-8"?>
<svg height="200.0" version="1.1" width="116.0" xmlns="http://www.w3.org/2000/svg" xmlns:xlink="http://www.w3.org/1999/xlink">
 <path d="M0,0 l116,0 l0,200 l-116,0 Z M0,0" fill="rgb(255,255,255)" transform="matrix(1,0,0,-1,0.0,200.0)"/>
 <path d="M0,0 l116,0" fill="none" stroke="rgb(229,229,229)" stroke-width="2" transform="matrix(1,0,0,-1,0.0,135.0)"/>
 <path d="M0,1 l0,-5" fill="none" stroke="rgb(204,204,204)" stroke-width="2" transform="matrix(1,0,0,-1,7.0,135.0)"/>
 <path d="M0,1 l0,-5" fill="none" stroke="rgb(204,204,204)" stroke-width="2" transform="matrix(1,0,0,-1,109.0,135.0)"/>
 <path d="M841,423 c-14,17,-45,33,-84,33 c-51,0,-95,-30,-109,-84 l-4,0 c-16,48,-58,80,-123,80 c-37,0,-72,-12,-101,-36 c-31,14,-69,22,-110,22 l-83,0 c-98,0,-176,-69,-176,-182 c0,-119,61,-209,132,-263 l61,45 c-63,47,-116,117,-116,217 c0,74,47,115,114,115 l60,0 c32,0,56,-4,75,-12 c-11,-25,-17,-54,-17,-87 c0,-125,80,-226,176,-278 l52,54 c-98,53,-150,131,-150,222 c0,80,41,114,89,114 c50,0,83,-32,83,-97 l0,-95 l72,0 l0,95 c0,68,34,101,84,101 c33,0,65,-18,79,-33 l0,-354 l76,0 l0,578 l121,0 l0,64 l-1064,0 l0,-64 l867,0 l0,-155 Z M841,423" fill="rgb(0,0,0)" transform="matrix(0.1,0.0,0.0,-0.1,7.0,135.0)"/>
</svg>