<?xml version="1.0" encoding="UTF-8"?>
<svg height="200.0" version="1.1" width="114.0" xmlns="http://www.w3.org/2000/svg" xmlns:xlink="http://www.w3.org/1999/xlink">
 <path d="M0,0 l114,0 l0,200 l-114,0 Z M0,0" fill="rgb(255,255,255)" transform="matrix(1,0,0,-1,0.0,200.0)"/>
 <path d="M0,0 l114,0" fill="none" stroke="rgb(229,229,229)" stroke-width="2" transform="matrix(1,0,0,-1,0.0,135.0)"/>
 <path d="M0,1 l0,-5" fill="none" stroke="rgb(204,204,204)" stroke-width="2" transform="matrix(1,0,0,-1,7.0,135.0)"/>
 <path d="M0,1 l0,-5" fill="none" stroke="rgb(204,204,204)" stroke-width="2" transform="matrix(1,0,0,-1,106.0,135.0)"/>
 <path d="M461,275 c9,-3,26,-4,34,-4 c29,1,57,9,79,27 c37,-18,93,-29,148,-29 c37,0,67,4,91,10 l0,-279 l76,0 l0,578 l121,0 l0,64 l-1032,0 l0,-64 l562,0 l0,-178 c0,-46,-23,-65,-66,-65 c-40,0,-67,19,-84,38 l-43,53 l-119,0 c-99,0,-177,-68,-177,-181 c0,-115,63,-203,133,-256 l60,46 c-64,45,-115,110,-115,209 c0,74,46,114,113,114 l67,0 l17,-23 l258,-338 l61,40 l-116,152 c-28,35,-48,58,-70,83 Z M718,338 c-37,0,-76,5,-108,15 c3,12,5,26,5,41 l0,184 l198,0 l0,-227 c-25,-9,-58,-13,-95,-13 Z M718,338" fill="rgb(0,0,0)" transform="matrix(0.1,0.0,0.0,-0.1,7.0,135.0)"/>
</svg>