<?xml version="1.0" encoding="UTF-8"?>
<svg height="200.0" version="1.1" width="148.0" xmlns="http://www.w3.org/2000/svg" xmlns:xlink="http://www.w3.org/1999/xlink">
 <path d="M0,0 l148,0 l0,200 l-148,0 Z M0,0" fill="rgb(255,255,255)" transform="matrix(1,0,0,-1,0.0,200.0)"/>
 <path d="M0,0 l148,0" fill="none" stroke="rgb(229,229,229)" stroke-width="2" transform="matrix(1,0,0,-1,0.0,135.0)"/>
 <path d="M0,1 l0,-5" fill="none" stroke="rgb(204,204,204)" stroke-width="2" transform="matrix(1,0,0,-1,7.0,135.0)"/>
 <path d="M0,1 l0,-5" fill="none" stroke="rgb(204,204,204)" stroke-width="2" transform="matrix(1,0,0,-1,141.0,135.0)"/>
 <path d="M719,339 c-37,0,-77,5,-109,15 c3,11,5,24,5,39 l0,185 l260,0 c26,-23,43,-59,43,-95 c0,-62,-52,-95,-144,-115 c1,-9,2,-17,4,-25 c-18,-3,-38,-4,-59,-4 Z M461,275 c11,-3,29,-3,38,-3 c28,1,54,10,75,26 c37,-18,94,-29,148,-29 c30,0,54,2,75,6 c38,-88,113,-138,204,-138 c93,0,140,48,158,72 l4,0 l0,-209 l76,0 l0,578 l120,0 l0,64 l-1381,0 l0,-64 l562,0 l0,-178 c0,-46,-23,-65,-66,-65 c-40,0,-67,20,-84,38 l-43,53 l-119,0 c-99,0,-177,-68,-177,-181 c0,-115,63,-203,133,-256 l60,46 c-64,45,-115,110,-115,209 c0,74,46,114,113,114 l67,0 l17,-23 l258,-338 l61,40 l-116,152 c-28,35,-48,58,-70,83 Z M861,333 c77,18,134,69,134,139 c0,44,-16,76,-40,102 l0,4 l209,0 l0,-208 c0,-105,-64,-164,-152,-164 c-100,0,-143,73,-151,127 Z M861,333" fill="rgb(0,0,0)" transform="matrix(0.1,0.0,0.0,-0.1,7.0,135.0)"/>
</svg>