<?xml version="1.0" encoding="UTF-8"?>
<svg height="200.0" version="1.1" width="142.0" xmlns="http://www.w3.org/2000/svg" xmlns:xlink="http://www.w3.org/1999/xlink">
 <path d="M0,0 l142,0 l0,200 l-142,0 Z M0,0" fill="rgb(255,255,255)" transform="matrix(1,0,0,-1,0.0,200.0)"/>
 <path d="M0,0 l142,0" fill="none" stroke="rgb(229,229,229)" stroke-width="2" transform="matrix(1,0,0,-1,0.0,135.0)"/>
 <path d="M0,1 l0,-5" fill="none" stroke="rgb(204,204,204)" stroke-width="2" transform="matrix(1,0,0,-1,7.0,135.0)"/>
 <path d="M0,1 l0,-5" fill="none" stroke="rgb(204,204,204)" stroke-width="2" transform="matrix(1,0,0,-1,135.0,135.0)"/>
 <path d="M718,338 c-37,0,-76,5,-108,15 c3,12,5,25,5,40 l0,185 l487,0 l0,-250 c0,-81,-51,-145,-132,-145 c-71,0,-117,50,-117,116 c0,89,82,130,166,108 l-7,71 c-100,18,-211,-26,-234,-136 c-18,-3,-39,-4,-60,-4 Z M461,275 c11,-3,29,-3,38,-3 c28,1,54,10,75,26 c37,-18,93,-29,148,-29 c20,0,37,1,53,3 c12,-96,92,-157,182,-157 c74,0,120,34,141,60 l4,0 l0,-175 l75,0 l0,578 l121,0 l0,64 l-1320,0 l0,-64 l562,0 l0,-178 c0,-46,-23,-65,-66,-65 c-40,0,-67,19,-84,38 l-43,53 l-119,0 c-99,0,-177,-68,-177,-181 c0,-115,63,-203,133,-256 l60,46 c-64,45,-115,110,-115,209 c0,74,46,114,113,114 l67,0 l17,-23 l258,-338 l61,40 l-116,152 c-28,35,-48,58,-70,83 Z M461,275" fill="rgb(0,0,0)" transform="matrix(0.1,0.0,0.0,-0.1,7.0,135.0)"/>
</svg>