<?xml version="1.0" encoding="UTF-8"?>
<svg height="200.0" version="1.1" width="116.0" xmlns="http://www.w3.org/2000/svg" xmlns:xlink="http://www.w3.org/1999/xlink">
 <path d="M0,0 l116,0 l0,200 l-116,0 Z M0,0" fill="rgb(255,255,255)" transform="matrix(1,0,0,-1,0.0,200.0)"/>
 <path d="M0,0 l116,0" fill="none" stroke="rgb(229,229,229)" stroke-width="2" transform="matrix(1,0,0,-1,0.0,135.0)"/>
 <path d="M0,1 l0,-5" fill="none" stroke="rgb(204,204,204)" stroke-width="2" transform="matrix(1,0,0,-1,5.0,135.0)"/>
 <path d="M0,1 l0,-5" fill="none" stroke="rgb(204,204,204)" stroke-width="2" transform="matrix(1,0,0,-1,108.0,135.0)"/>
 <path d="M290,105 c121,0,196,52,240,110 c41,-50,100,-78,168,-78 c93,0,140,48,158,72 l4,0 l0,-209 l75,0 l0,578 l121,0 l0,64 l-584,0 l0,-64 l99,0 c26,-23,43,-59,43,-95 c0,-62,-52,-95,-144,-115 c4,-32,11,-61,22,-87 c-30,-54,-95,-107,-197,-107 c-118,0,-168,90,-173,134 c20,5,40,10,60,16 c127,36,194,99,194,189 c0,80,-59,139,-146,139 c-85,0,-143,-59,-143,-130 c0,-39,17,-69,32,-84 l71,21 c-16,14,-28,39,-28,60 c0,41,29,65,68,65 c41,0,70,-27,70,-69 c0,-55,-26,-96,-167,-137 l-101,-28 c8,-138,108,-245,258,-245 Z M557,333 c77,18,135,69,135,139 c0,44,-16,76,-41,102 l0,4 l210,0 l0,-208 c0,-105,-64,-164,-152,-164 c-100,0,-144,73,-152,127 Z M557,333" fill="rgb(0,0,0)" transform="matrix(0.1,0.0,0.0,-0.1,5.0,135.0)"/>
</svg>