<?xml version="1.0" encoding="UTF-8"?>
<svg height="200.0" version="1.1" width="110.0" xmlns="http://www.w3.org/2000/svg" xmlns:xlink="http://www.w3.org/1999/xlink">
 <path d="M0,0 l110,0 l0,200 l-110,0 Z M0,0" fill="rgb(255,255,255)" transform="matrix(1,0,0,-1,0.0,200.0)"/>
 <path d="M0,0 l110,0" fill="none" stroke="rgb(229,229,229)" stroke-width="2" transform="matrix(1,0,0,-1,0.0,135.0)"/>
 <path d="M0,1 l0,-5" fill="none" stroke="rgb(204,204,204)" stroke-width="2" transform="matrix(1,0,0,-1,5.0,135.0)"/>
 <path d="M0,1 l0,-5" fill="none" stroke="rgb(204,204,204)" stroke-width="2" transform="matrix(1,0,0,-1,103.0,135.0)"/>
 <path d="M290,105 c104,0,175,38,220,86 c34,-48,90,-76,151,-76 c75,0,120,34,141,60 l4,0 l0,-175 l76,0 l0,578 l120,0 l0,64 l-530,0 l0,-64 l334,0 l0,-250 c0,-81,-50,-145,-132,-145 c-71,0,-117,50,-117,116 c0,89,82,130,166,108 l-7,71 c-111,20,-238,-38,-238,-180 c0,-12,1,-24,3,-35 c-34,-47,-94,-89,-186,-89 c-118,0,-168,90,-173,134 c20,5,40,10,60,16 c127,36,194,99,194,189 c0,80,-59,139,-146,139 c-85,0,-143,-59,-143,-130 c0,-39,17,-69,32,-84 l71,21 c-16,14,-28,39,-28,60 c0,41,29,65,68,65 c41,0,70,-27,70,-69 c0,-55,-26,-96,-167,-137 l-101,-28 c8,-138,108,-245,258,-245 Z M290,105" fill="rgb(0,0,0)" transform="matrix(0.1,0.0,0.0,-0.1,5.0,135.0)"/>
</svg>