<?xml version="1.0" encoding="UTF-8"?>
<svg height="200.0" version="1.1" width="82.0" xmlns="http://www.w3.org/2000/svg" xmlns:xlink="http://www.w3.org/1999/xlink">
 <path d="M0,0 l82,0 l0,200 l-82,0 Z M0,0" fill="rgb(255,255,255)" transform="matrix(1,0,0,-1,0.0,200.0)"/>
 <path d="M0,0 l82,0" fill="none" stroke="rgb(229,229,229)" stroke-width="2" transform="matrix(1,0,0,-1,0.0,135.0)"/>
 <path d="M0,1 l0,-5" fill="none" stroke="rgb(204,204,204)" stroke-width="2" transform="matrix(1,0,0,-1,7.0,135.0)"/>
 <path d="M0,1 l0,-5" fill="none" stroke="rgb(204,204,204)" stroke-width="2" transform="matrix(1,0,0,-1,75.0,135.0)"/>
 <path d="M147,65 c-41,0,-67,24,-67,65 c0,45,37,89,106,105 c9,-39,30,-76,62,-104 c-20,-20,-38,-38,-51,-57 c-15,-6,-27,-9,-50,-9 Z M503,90 l4,0 l86,-152 l89,23 l-126,162 c18,16,35,43,35,83 c0,43,-28,71,-50,82 l-55,-20 l0,-103 c-17,-15,-50,-25,-89,-25 c-82,0,-141,60,-141,132 c0,56,29,92,117,115 l157,38 l0,153 l168,0 l0,64 l-720,0 l0,-64 l476,0 l0,-100 l-120,-30 c-97,-24,-148,-74,-154,-153 c-102,-22,-170,-86,-170,-167 c0,-67,48,-117,122,-117 c12,0,22,1,34,3 c-3,-9,-4,-23,-4,-33 c0,-57,45,-112,130,-112 c99,0,175,69,211,221 Z M294,-73 c-45,0,-64,24,-64,56 c0,31,16,62,73,112 c40,-20,94,-23,128,-19 c-24,-91,-76,-149,-137,-149 Z M294,-73" fill="rgb(0,0,0)" transform="matrix(0.1,0.0,0.0,-0.1,7.0,135.0)"/>
</svg>