<?xml version="1.0" encoding="UTF-8"?>
<svg height="200.0" version="1.1" width="82.0" xmlns="http://www.w3.org/2000/svg" xmlns:xlink="http://www.w3.org/1999/xlink">
 <path d="M0,0 l82,0 l0,200 l-82,0 Z M0,0" fill="rgb(255,255,255)" transform="matrix(1,0,0,-1,0.0,200.0)"/>
 <path d="M0,0 l82,0" fill="none" stroke="rgb(229,229,229)" stroke-width="2" transform="matrix(1,0,0,-1,0.0,135.0)"/>
 <path d="M0,1 l0,-5" fill="none" stroke="rgb(204,204,204)" stroke-width="2" transform="matrix(1,0,0,-1,7.0,135.0)"/>
 <path d="M0,1 l0,-5" fill="none" stroke="rgb(204,204,204)" stroke-width="2" transform="matrix(1,0,0,-1,75.0,135.0)"/>
 <path d="M512,91 l86,-153 l89,23 l-126,162 c18,16,35,43,35,83 c0,43,-28,71,-50,82 l-55,-20 l0,-103 c-17,-15,-49,-25,-89,-25 c-82,0,-141,60,-141,132 c0,56,29,92,117,115 l157,38 l0,153 l165,0 l0,64 l-722,0 l0,-64 l481,0 l0,-100 l-120,-30 c-103,-25,-154,-80,-154,-167 c0,-57,24,-112,69,-151 c-37,-39,-51,-67,-107,-67 c-39,0,-62,17,-62,54 c0,52,50,86,50,156 l-64,27 c0,-85,-55,-111,-55,-186 c0,-63,44,-106,114,-106 c13,0,30,0,43,4 c-3,-9,-5,-23,-5,-34 c0,-53,43,-109,129,-109 c99,0,175,69,211,222 Z M299,-73 c-45,0,-65,24,-65,57 c0,31,18,61,73,111 c44,-19,88,-23,129,-19 c-24,-91,-76,-149,-137,-149 Z M299,-73" fill="rgb(0,0,0)" transform="matrix(0.1,0.0,0.0,-0.1,7.0,135.0)"/>
</svg>