<?xml version="1.0" encoding="UTF-8"?>
<svg height="200.0" version="1.1" width="110.0" xmlns="http://www.w3.org/2000/svg" xmlns:xlink="http://www.w3.org/1999/xlink">
 <path d="M0,0 l110,0 l0,200 l-110,0 Z M0,0" fill="rgb(255,255,255)" transform="matrix(1,0,0,-1,0.0,200.0)"/>
 <path d="M0,0 l110,0" fill="none" stroke="rgb(229,229,229)" stroke-width="2" transform="matrix(1,0,0,-1,0.0,135.0)"/>
 <path d="M0,1 l0,-5" fill="none" stroke="rgb(204,204,204)" stroke-width="2" transform="matrix(1,0,0,-1,7.0,135.0)"/>
 <path d="M0,1 l0,-5" fill="none" stroke="rgb(204,204,204)" stroke-width="2" transform="matrix(1,0,0,-1,103.0,135.0)"/>
 <path d="M506,117 c26,-54,80,-100,155,-100 c72,0,103,29,124,54 l4,0 l0,-125 l76,0 l0,632 l117,0 l0,64 l-1004,0 l0,-64 l481,0 l0,-63 l-120,-30 c-102,-25,-154,-79,-154,-166 c0,-56,25,-110,69,-150 c-36,-39,-50,-67,-107,-67 c-38,0,-61,17,-61,55 c0,51,50,86,50,156 l-64,26 c0,-85,-56,-111,-56,-185 c0,-64,45,-107,115,-107 c13,0,30,1,43,4 c-3,-9,-5,-22,-5,-34 c0,-53,43,-109,129,-109 c96,0,171,66,208,209 Z M235,23 c0,32,18,62,73,112 c43,-19,88,-23,128,-19 c-23,-92,-75,-149,-137,-149 c-44,0,-64,24,-64,56 Z M562,163 c22,20,35,48,35,83 c0,43,-28,71,-51,81 l-55,-20 l0,-102 c-17,-15,-49,-25,-88,-25 c-82,0,-141,58,-141,131 c0,56,28,90,117,113 l156,38 l0,116 l254,0 l0,-354 c0,-77,-34,-140,-123,-140 c-59,0,-95,51,-104,79 Z M562,163" fill="rgb(0,0,0)" transform="matrix(0.1,0.0,0.0,-0.1,7.0,135.0)"/>
</svg>