<?xml version="1.0" encoding="UTF-8"?>
<svg height="200.0" version="1.1" width="68.0" xmlns="http://www.w3.org/2000/svg" xmlns:xlink="http://www.w3.org/1999/xlink">
 <path d="M0,0 l68,0 l0,200 l-68,0 Z M0,0" fill="rgb(255,255,255)" transform="matrix(1,0,0,-1,0.0,200.0)"/>
 <path d="M0,0 l68,0" fill="none" stroke="rgb(229,229,229)" stroke-width="2" transform="matrix(1,0,0,-1,0.0,135.0)"/>
 <path d="M0,1 l0,-5" fill="none" stroke="rgb(204,204,204)" stroke-width="2" transform="matrix(1,0,0,-1,7.0,135.0)"/>
 <path d="M0,1 l0,-5" fill="none" stroke="rgb(204,204,204)" stroke-width="2" transform="matrix(1,0,0,-1,62.0,135.0)"/>
 <path d="M365,114 c-2,-47,-15,-91,-42,-120 l-74,120 c10,1,21,2,33,2 c22,0,63,-1,83,-2 Z M235,-45 c-54,0,-78,37,-78,73 c0,30,15,56,45,72 l83,-135 c-15,-6,-31,-10,-50,-10 Z M417,55 l4,0 l50,-86 l86,24 l-127,165 c18,18,35,44,35,83 c0,44,-30,70,-51,80 l-56,-20 l0,-103 c-17,-13,-48,-23,-90,-23 c-83,0,-138,52,-138,120 c0,61,30,94,119,116 l155,39 l0,128 l163,0 l0,64 l-589,0 l0,-64 l350,0 l0,-75 l-122,-31 c-105,-27,-153,-78,-153,-166 c0,-71,35,-138,98,-163 l0,-4 c-36,-19,-68,-58,-68,-111 c0,-77,61,-135,150,-135 c112,0,174,90,184,162 Z M417,55" fill="rgb(0,0,0)" transform="matrix(0.1,0.0,0.0,-0.1,7.0,135.0)"/>
</svg>