<?xml version="1.0" encoding="UTF-8"?>
<svg height="200.0" version="1.1" width="68.0" xmlns="http://www.w3.org/2000/svg" xmlns:xlink="http://www.w3.org/1999/xlink">
 <path d="M0,0 l68,0 l0,200 l-68,0 Z M0,0" fill="rgb(255,255,255)" transform="matrix(1,0,0,-1,0.0,200.0)"/>
 <path d="M0,0 l68,0" fill="none" stroke="rgb(229,229,229)" stroke-width="2" transform="matrix(1,0,0,-1,0.0,135.0)"/>
 <path d="M0,1 l0,-5" fill="none" stroke="rgb(204,204,204)" stroke-width="2" transform="matrix(1,0,0,-1,7.0,135.0)"/>
 <path d="M0,1 l0,-5" fill="none" stroke="rgb(204,204,204)" stroke-width="2" transform="matrix(1,0,0,-1,61.0,135.0)"/>
 <path d="M416,58 c-16,-19,-50,-50,-91,-73 l-80,130 c19,4,40,6,61,6 c25,0,59,-4,77,-6 Z M232,-43 c-57,0,-78,38,-78,73 c0,32,18,55,46,69 l82,-133 c-16,-6,-33,-9,-50,-9 Z M172,-92 l-130,-64 l69,-53 l339,211 l31,-58 l86,25 l-139,189 c18,18,35,44,35,83 c0,44,-30,70,-51,80 l-56,-20 l0,-103 c-18,-13,-48,-23,-90,-23 c-83,0,-138,52,-138,120 c0,61,30,94,119,116 l155,39 l0,128 l161,0 l0,64 l-585,0 l0,-64 l348,0 l0,-75 l-122,-31 c-105,-27,-153,-77,-153,-166 c0,-71,34,-138,98,-163 l0,-4 c-36,-19,-69,-56,-69,-110 c0,-70,48,-109,92,-117 Z M172,-92" fill="rgb(0,0,0)" transform="matrix(0.1,0.0,0.0,-0.1,7.0,135.0)"/>
</svg>