<?xml version="1.0" encoding="UTF-8"?>
<svg height="200.0" version="1.1" width="112.0" xmlns="http://www.w3.org/2000/svg" xmlns:xlink="http://www.w3.org/1999/xlink">
 <path d="M0,0 l112,0 l0,200 l-112,0 Z M0,0" fill="rgb(255,255,255)" transform="matrix(1,0,0,-1,0.0,200.0)"/>
 <path d="M0,0 l112,0" fill="none" stroke="rgb(229,229,229)" stroke-width="2" transform="matrix(1,0,0,-1,0.0,135.0)"/>
 <path d="M0,1 l0,-5" fill="none" stroke="rgb(204,204,204)" stroke-width="2" transform="matrix(1,0,0,-1,9.0,135.0)"/>
 <path d="M0,1 l0,-5" fill="none" stroke="rgb(204,204,204)" stroke-width="2" transform="matrix(1,0,0,-1,106.0,135.0)"/>
 <path d="M-22,642 l0,-64 l485,0 l0,-71 l-119,-31 c-103,-26,-156,-79,-156,-165 c0,-81,51,-157,140,-187 l-130,-69 l-42,79 c-22,42,-51,57,-89,57 c-33,0,-74,-19,-104,-49 l34,-56 c20,22,44,35,60,35 c17,0,27,-7,37,-25 l40,-75 l-29,-56 c18,-33,52,-59,90,-65 l65,33 l-33,64 l213,113 c22,2,45,6,62,14 c26,-55,79,-107,163,-107 c72,0,103,29,124,54 l4,0 l0,-125 l75,0 l0,632 l121,0 l0,64 Z M670,84 c-59,0,-95,49,-104,77 c17,16,35,44,35,84 c0,43,-28,71,-51,81 l-55,-20 l0,-102 c-17,-15,-49,-25,-89,-25 c-82,0,-140,50,-140,123 c0,56,27,90,115,112 l158,40 l0,124 l254,0 l0,-354 c0,-77,-34,-140,-123,-140 Z M670,84" fill="rgb(0,0,0)" transform="matrix(0.1,0.0,0.0,-0.1,9.0,135.0)"/>
</svg>