<?xml version="1.0" encoding="UTF-8"?>
<svg height="200.0" version="1.1" width="80.0" xmlns="http://www.w3.org/2000/svg" xmlns:xlink="http://www.w3.org/1999/xlink">
 <path d="M0,0 l80,0 l0,200 l-80,0 Z M0,0" fill="rgb(255,255,255)" transform="matrix(1,0,0,-1,0.0,200.0)"/>
 <path d="M0,0 l80,0" fill="none" stroke="rgb(229,229,229)" stroke-width="2" transform="matrix(1,0,0,-1,0.0,135.0)"/>
 <path d="M0,1 l0,-5" fill="none" stroke="rgb(204,204,204)" stroke-width="2" transform="matrix(1,0,0,-1,7.0,135.0)"/>
 <path d="M0,1 l0,-5" fill="none" stroke="rgb(204,204,204)" stroke-width="2" transform="matrix(1,0,0,-1,72.0,135.0)"/>
 <path d="M136,296 c-43,-15,-67,-49,-67,-96 c0,-75,59,-143,190,-143 c111,0,182,48,213,93 l4,0 l0,-150 l76,0 l0,578 l121,0 l0,64 l-695,0 l0,-64 l266,0 l0,-76 l-73,0 c-60,0,-108,-36,-108,-99 c0,-53,34,-91,73,-103 Z M263,124 c-91,0,-116,42,-116,77 c0,40,28,61,79,61 l88,0 l0,64 l-113,0 c-33,8,-60,35,-60,71 c0,25,17,42,48,42 l130,0 l0,139 l157,0 l0,-248 c0,-125,-76,-206,-213,-206 Z M263,124" fill="rgb(0,0,0)" transform="matrix(0.1,0.0,0.0,-0.1,7.0,135.0)"/>
</svg>