<?xml version="1.0" encoding="UTF-8"?>
<svg height="200.0" version="1.1" width="98.0" xmlns="http://www.w3.org/2000/svg" xmlns:xlink="http://www.w3.org/1999/xlink">
 <path d="M0,0 l98,0 l0,200 l-98,0 Z M0,0" fill="rgb(255,255,255)" transform="matrix(1,0,0,-1,0.0,200.0)"/>
 <path d="M0,0 l98,0" fill="none" stroke="rgb(229,229,229)" stroke-width="2" transform="matrix(1,0,0,-1,0.0,135.0)"/>
 <path d="M0,1 l0,-5" fill="none" stroke="rgb(204,204,204)" stroke-width="2" transform="matrix(1,0,0,-1,7.0,135.0)"/>
 <path d="M0,1 l0,-5" fill="none" stroke="rgb(204,204,204)" stroke-width="2" transform="matrix(1,0,0,-1,90.0,135.0)"/>
 <path d="M728,578 l120,0 l0,64 l-870,0 l0,-64 l345,0 l0,-70 l-113,-30 c-106,-28,-162,-75,-162,-164 c0,-102,77,-187,193,-190 l0,-4 l-178,-101 l68,-56 l230,162 c26,-55,79,-108,164,-108 c71,0,103,29,124,54 l4,0 l0,-125 l75,0 Z M424,167 c17,17,36,38,36,82 c0,43,-28,71,-51,82 l-56,-20 l0,-101 c-19,-17,-47,-27,-89,-27 c-84,0,-139,52,-139,120 c0,61,36,92,125,114 l149,38 l0,123 l254,0 l0,-354 c0,-77,-34,-140,-123,-140 c-63,0,-100,57,-106,83 Z M424,167" fill="rgb(0,0,0)" transform="matrix(0.1,0.0,0.0,-0.1,7.0,135.0)"/>
</svg>