<?xml version="1.0" encoding="UTF-8"?>
<svg height="200.0" version="1.1" width="98.0" xmlns="http://www.w3.org/2000/svg" xmlns:xlink="http://www.w3.org/1999/xlink">
 <path d="M0,0 l98,0 l0,200 l-98,0 Z M0,0" fill="rgb(255,255,255)" transform="matrix(1,0,0,-1,0.0,200.0)"/>
 <path d="M0,0 l98,0" fill="none" stroke="rgb(229,229,229)" stroke-width="2" transform="matrix(1,0,0,-1,0.0,135.0)"/>
 <path d="M0,1 l0,-5" fill="none" stroke="rgb(204,204,204)" stroke-width="2" transform="matrix(1,0,0,-1,7.0,135.0)"/>
 <path d="M0,1 l0,-5" fill="none" stroke="rgb(204,204,204)" stroke-width="2" transform="matrix(1,0,0,-1,90.0,135.0)"/>
 <path d="M417,59 c27,-25,64,-42,111,-42 c71,0,103,29,123,54 l4,0 l0,-125 l76,0 l0,632 l117,0 l0,64 l-870,0 l0,-64 l348,0 l0,-69 l-121,-32 c-106,-26,-153,-76,-153,-165 c0,-71,34,-137,98,-163 l0,-4 c-36,-17,-69,-53,-69,-109 c0,-78,63,-136,151,-136 c107,0,171,79,185,159 Z M157,36 c0,51,39,85,124,85 c18,0,59,0,81,-2 c-3,-86,-44,-155,-127,-155 c-54,0,-78,35,-78,72 Z M428,163 c18,18,35,44,35,84 c0,43,-29,69,-50,80 l-57,-21 l0,-103 c-18,-13,-48,-22,-90,-22 c-83,0,-138,53,-138,120 c0,61,30,94,119,116 l155,39 l0,122 l253,0 l0,-354 c0,-77,-33,-140,-123,-140 c-60,0,-97,49,-104,79 Z M428,163" fill="rgb(0,0,0)" transform="matrix(0.1,0.0,0.0,-0.1,7.0,135.0)"/>
</svg>