<?xml version="1.0" encoding="UTF-8"?>
<svg height="200.0" version="1.1" width="140.0" xmlns="http://www.w3.org/2000/svg" xmlns:xlink="http://www.w3.org/1999/xlink">
 <path d="M0,0 l140,0 l0,200 l-140,0 Z M0,0" fill="rgb(255,255,255)" transform="matrix(1,0,0,-1,0.0,200.0)"/>
 <path d="M0,0 l140,0" fill="none" stroke="rgb(229,229,229)" stroke-width="2" transform="matrix(1,0,0,-1,0.0,135.0)"/>
 <path d="M0,1 l0,-5" fill="none" stroke="rgb(204,204,204)" stroke-width="2" transform="matrix(1,0,0,-1,7.0,135.0)"/>
 <path d="M0,1 l0,-5" fill="none" stroke="rgb(204,204,204)" stroke-width="2" transform="matrix(1,0,0,-1,133.0,135.0)"/>
 <path d="M1158,0 l0,578 l120,0 l0,64 l-904,0 l0,-64 l420,0 c26,-23,43,-59,43,-95 c0,-42,-24,-71,-68,-91 l0,1 l-310,0 l-56,-45 c1,-34,12,-70,30,-96 c-37,-35,-89,-67,-157,-67 c-85,0,-115,45,-115,88 c0,48,33,80,104,80 l62,0 l0,66 l-65,0 c-75,0,-107,34,-107,77 c0,39,25,67,73,82 l-15,64 l-235,0 l0,-64 l144,0 l0,-4 c-21,-10,-47,-38,-47,-82 c0,-63,44,-98,94,-104 l0,-4 c-42,-11,-87,-49,-87,-114 c0,-78,62,-152,187,-152 c109,0,188,52,246,120 l0,87 l185,0 c28,-120,113,-188,220,-188 c93,0,140,48,158,72 l4,0 l0,-209 Z M780,333 c77,18,134,69,134,139 c0,44,-16,76,-40,102 l0,4 l209,0 l0,-208 c0,-105,-64,-164,-152,-164 c-100,0,-143,73,-151,127 Z M780,333" fill="rgb(0,0,0)" transform="matrix(0.1,0.0,0.0,-0.1,7.0,135.0)"/>
</svg>