<?xml version="1.0" encoding="UTF-8"?>
<svg height="200.0" version="1.1" width="166.0" xmlns="http://www.w3.org/2000/svg" xmlns:xlink="http://www.w3.org/1999/xlink">
 <path d="M0,0 l166,0 l0,200 l-166,0 Z M0,0" fill="rgb(255,255,255)" transform="matrix(1,0,0,-1,0.0,200.0)"/>
 <path d="M0,0 l166,0" fill="none" stroke="rgb(229,229,229)" stroke-width="2" transform="matrix(1,0,0,-1,0.0,135.0)"/>
 <path d="M0,1 l0,-5" fill="none" stroke="rgb(204,204,204)" stroke-width="2" transform="matrix(1,0,0,-1,7.0,135.0)"/>
 <path d="M0,1 l0,-5" fill="none" stroke="rgb(204,204,204)" stroke-width="2" transform="matrix(1,0,0,-1,160.0,135.0)"/>
 <path d="M1258,338 c-37,0,-76,6,-108,15 c3,12,5,26,5,41 l0,184 l198,0 l0,-227 c-26,-8,-60,-13,-95,-13 Z M1000,275 c10,-3,26,-4,34,-4 c30,1,58,10,80,27 c36,-16,93,-27,147,-27 c40,0,69,3,92,8 l0,-279 l75,0 l0,578 l121,0 l0,64 l-1569,0 l0,-64 l639,0 l0,-258 c0,-75,-48,-126,-119,-126 c-63,0,-106,44,-106,104 c0,84,73,115,145,103 l-12,69 c-74,10,-147,-19,-184,-77 l-258,0 l-56,-45 c1,-56,28,-108,66,-131 l46,16 l0,92 l177,0 c-1,-9,-2,-18,-2,-28 c0,-102,79,-171,170,-171 c70,0,110,33,129,57 l4,0 l0,-183 l75,0 l0,251 c0,78,39,130,97,130 c32,0,53,-19,89,-65 l243,-319 l61,40 l-116,152 c-27,35,-47,58,-69,83 Z M1013,335 c-46,0,-73,25,-91,45 c-40,46,-70,68,-122,68 c-50,0,-85,-27,-102,-53 l-4,0 l0,183 l385,0 l0,-178 c0,-46,-22,-65,-66,-65 Z M1013,335" fill="rgb(0,0,0)" transform="matrix(0.1,0.0,0.0,-0.1,7.0,135.0)"/>
</svg>