<?xml version="1.0" encoding="UTF-8"?>
<svg height="200.0" version="1.1" width="100.0" xmlns="http://www.w3.org/2000/svg" xmlns:xlink="http://www.w3.org/1999/xlink">
 <path d="M0,0 l100,0 l0,200 l-100,0 Z M0,0" fill="rgb(255,255,255)" transform="matrix(1,0,0,-1,0.0,200.0)"/>
 <path d="M0,0 l100,0" fill="none" stroke="rgb(229,229,229)" stroke-width="2" transform="matrix(1,0,0,-1,0.0,135.0)"/>
 <path d="M0,1 l0,-5" fill="none" stroke="rgb(204,204,204)" stroke-width="2" transform="matrix(1,0,0,-1,7.0,135.0)"/>
 <path d="M0,1 l0,-5" fill="none" stroke="rgb(204,204,204)" stroke-width="2" transform="matrix(1,0,0,-1,92.0,135.0)"/>
 <path d="M671,189 l4,0 l0,-189 l75,0 l0,578 l121,0 l0,64 l-893,0 l0,-64 l697,0 l0,-217 c0,-113,-70,-181,-167,-181 c-75,0,-121,44,-121,103 c0,62,43,105,119,105 l78,0 l0,67 l-501,0 l-56,-45 c0,-55,28,-107,66,-131 l46,16 l0,92 l220,0 l0,-4 c-19,-14,-51,-45,-51,-107 c0,-88,73,-164,187,-164 c100,0,154,47,176,77 Z M671,189" fill="rgb(0,0,0)" transform="matrix(0.1,0.0,0.0,-0.1,7.0,135.0)"/>
</svg>