<?xml version="1.0" encoding="UTF-8"?>
<svg height="200.0" version="1.1" width="110.0" xmlns="http://www.w3.org/2000/svg" xmlns:xlink="http://www.w3.org/1999/xlink">
 <path d="M0,0 l110,0 l0,200 l-110,0 Z M0,0" fill="rgb(255,255,255)" transform="matrix(1,0,0,-1,0.0,200.0)"/>
 <path d="M0,0 l110,0" fill="none" stroke="rgb(229,229,229)" stroke-width="2" transform="matrix(1,0,0,-1,0.0,135.0)"/>
 <path d="M0,1 l0,-5" fill="none" stroke="rgb(204,204,204)" stroke-width="2" transform="matrix(1,0,0,-1,7.0,135.0)"/>
 <path d="M0,1 l0,-5" fill="none" stroke="rgb(204,204,204)" stroke-width="2" transform="matrix(1,0,0,-1,102.0,135.0)"/>
 <path d="M580,41 c188,0,315,147,315,288 c0,70,-36,126,-93,147 l0,102 l169,0 l0,64 l-993,0 l0,-64 l419,0 l0,-4 c-16,-13,-50,-42,-50,-104 c0,-30,10,-58,28,-79 l-292,0 l-56,-45 c0,-56,28,-108,66,-132 l46,17 l0,91 l268,0 c-26,-22,-46,-56,-46,-104 c0,-93,78,-177,219,-177 Z M754,296 c-41,6,-64,30,-64,66 c0,35,27,58,60,58 c40,0,72,-32,72,-91 c0,-121,-110,-220,-240,-220 c-93,0,-142,50,-142,111 c0,57,39,93,106,94 l22,0 l0,67 l-36,0 c-67,0,-105,38,-105,94 c0,62,46,103,113,103 l190,0 l0,-94 c-68,-8,-113,-61,-113,-122 c0,-58,37,-102,91,-115 Z M754,296" fill="rgb(0,0,0)" transform="matrix(0.1,0.0,0.0,-0.1,7.0,135.0)"/>
</svg>