<?xml version="1.0" encoding="UTF-8"?>
<svg height="200.0" version="1.1" width="134.0" xmlns="http://www.w3.org/2000/svg" xmlns:xlink="http://www.w3.org/1999/xlink">
 <path d="M0,0 l134,0 l0,200 l-134,0 Z M0,0" fill="rgb(255,255,255)" transform="matrix(1,0,0,-1,0.0,200.0)"/>
 <path d="M0,0 l134,0" fill="none" stroke="rgb(229,229,229)" stroke-width="2" transform="matrix(1,0,0,-1,0.0,135.0)"/>
 <path d="M0,1 l0,-5" fill="none" stroke="rgb(204,204,204)" stroke-width="2" transform="matrix(1,0,0,-1,7.0,135.0)"/>
 <path d="M0,1 l0,-5" fill="none" stroke="rgb(204,204,204)" stroke-width="2" transform="matrix(1,0,0,-1,126.0,135.0)"/>
 <path d="M1009,209 l4,0 l0,-209 l75,0 l0,578 l121,0 l0,64 l-1231,0 l0,-64 l746,0 c26,-23,43,-59,43,-95 c0,-41,-22,-69,-64,-89 c-34,28,-86,44,-145,44 l-59,0 c-48,0,-90,-16,-122,-45 l-294,0 l-56,-45 c0,-56,28,-108,66,-131 l46,16 l0,92 l194,0 c-7,-21,-11,-44,-11,-69 c0,-119,62,-209,133,-263 l60,45 c-63,47,-116,117,-116,217 c0,74,47,115,114,115 l36,0 c33,0,56,-3,75,-11 c19,-141,111,-222,227,-222 c92,0,140,48,158,72 Z M710,333 c77,18,135,69,135,139 c0,44,-17,76,-41,102 l0,4 l209,0 l0,-208 c0,-105,-63,-164,-152,-164 c-99,0,-143,73,-151,127 Z M710,333" fill="rgb(0,0,0)" transform="matrix(0.1,0.0,0.0,-0.1,7.0,135.0)"/>
</svg>