<?xml version="1.0" encoding="UTF-8"?>
<svg height="200.0" version="1.1" width="108.0" xmlns="http://www.w3.org/2000/svg" xmlns:xlink="http://www.w3.org/1999/xlink">
 <path d="M0,0 l108,0 l0,200 l-108,0 Z M0,0" fill="rgb(255,255,255)" transform="matrix(1,0,0,-1,0.0,200.0)"/>
 <path d="M0,0 l108,0" fill="none" stroke="rgb(229,229,229)" stroke-width="2" transform="matrix(1,0,0,-1,0.0,135.0)"/>
 <path d="M0,1 l0,-5" fill="none" stroke="rgb(204,204,204)" stroke-width="2" transform="matrix(1,0,0,-1,7.0,135.0)"/>
 <path d="M0,1 l0,-5" fill="none" stroke="rgb(204,204,204)" stroke-width="2" transform="matrix(1,0,0,-1,101.0,135.0)"/>
 <path d="M288,642 l-310,0 l0,-64 l310,0 Z M415,308 c20,5,39,10,59,16 c128,35,194,96,194,188 c0,81,-56,140,-144,140 c-85,0,-144,-59,-144,-130 c0,-39,17,-69,33,-84 l70,21 c-16,14,-28,39,-28,60 c0,41,29,65,69,65 c43,0,69,-28,69,-70 c0,-55,-26,-96,-167,-136 l-26,-7 c-36,13,-83,19,-126,19 l-191,0 l-56,-44 c0,-56,28,-108,66,-132 l46,16 l0,92 l144,0 c13,0,30,-2,45,-4 c20,-122,107,-214,243,-214 c104,0,165,51,189,88 l4,0 l0,-192 l75,0 l0,578 l121,0 l0,64 l-195,0 l0,-276 c0,-102,-62,-193,-189,-193 c-115,0,-156,94,-161,135 Z M415,308" fill="rgb(0,0,0)" transform="matrix(0.1,0.0,0.0,-0.1,7.0,135.0)"/>
</svg>