<?xml version="1.0" encoding="UTF-8"?>
<svg height="200.0" version="1.1" width="144.0" xmlns="http://www.w3.org/2000/svg" xmlns:xlink="http://www.w3.org/1999/xlink">
 <path d="M0,0 l144,0 l0,200 l-144,0 Z M0,0" fill="rgb(255,255,255)" transform="matrix(1,0,0,-1,0.0,200.0)"/>
 <path d="M0,0 l144,0" fill="none" stroke="rgb(229,229,229)" stroke-width="2" transform="matrix(1,0,0,-1,0.0,135.0)"/>
 <path d="M0,1 l0,-5" fill="none" stroke="rgb(204,204,204)" stroke-width="2" transform="matrix(1,0,0,-1,7.0,135.0)"/>
 <path d="M0,1 l0,-5" fill="none" stroke="rgb(204,204,204)" stroke-width="2" transform="matrix(1,0,0,-1,137.0,135.0)"/>
 <path d="M283,642 l-305,0 l0,-64 l305,0 Z M557,105 c119,0,193,51,237,109 c41,-50,100,-77,167,-77 c93,0,140,48,158,72 l4,0 l0,-209 l76,0 l0,578 l121,0 l0,64 l-613,0 l0,-64 l128,0 c26,-23,43,-59,43,-95 c0,-62,-52,-95,-144,-115 c4,-33,11,-63,22,-89 c-31,-53,-92,-105,-194,-105 c-118,0,-169,90,-174,134 c21,5,40,10,60,16 c127,36,194,99,194,189 c0,80,-59,139,-146,139 c-84,0,-142,-59,-142,-130 c0,-39,16,-69,32,-84 l70,21 c-16,14,-27,39,-27,60 c0,41,28,65,67,65 c42,0,71,-27,71,-69 c0,-55,-27,-96,-168,-137 l-57,-16 c-34,9,-75,14,-106,14 l-154,0 l-56,-44 c1,-56,28,-108,66,-132 l46,16 l0,92 l104,0 c22,0,45,-3,64,-8 c26,-113,120,-195,251,-195 Z M821,333 c77,18,135,69,135,139 c0,44,-17,76,-41,102 l0,4 l209,0 l0,-208 c0,-105,-64,-164,-152,-164 c-100,0,-143,73,-151,127 Z M821,333" fill="rgb(0,0,0)" transform="matrix(0.1,0.0,0.0,-0.1,7.0,135.0)"/>
</svg>