<?xml version="1.0" encoding="UTF-8"?>
<svg height="200.0" version="1.1" width="140.0" xmlns="http://www.w3.org/2000/svg" xmlns:xlink="http://www.w3.org/1999/xlink">
 <path d="M0,0 l140,0 l0,200 l-140,0 Z M0,0" fill="rgb(255,255,255)" transform="matrix(1,0,0,-1,0.0,200.0)"/>
 <path d="M0,0 l140,0" fill="none" stroke="rgb(229,229,229)" stroke-width="2" transform="matrix(1,0,0,-1,0.0,135.0)"/>
 <path d="M0,1 l0,-5" fill="none" stroke="rgb(204,204,204)" stroke-width="2" transform="matrix(1,0,0,-1,7.0,135.0)"/>
 <path d="M0,1 l0,-5" fill="none" stroke="rgb(204,204,204)" stroke-width="2" transform="matrix(1,0,0,-1,132.0,135.0)"/>
 <path d="M1152,578 l121,0 l0,64 l-559,0 l0,-64 l363,0 l0,-250 c0,-81,-51,-145,-132,-145 c-71,0,-117,50,-117,116 c0,89,82,130,166,108 l-7,71 c-112,20,-239,-38,-239,-180 c0,-10,1,-20,2,-30 c-33,-48,-93,-94,-188,-94 c-118,0,-169,90,-174,134 c21,5,40,10,60,16 c127,36,194,99,194,189 c0,80,-59,139,-146,139 c-84,0,-142,-59,-142,-130 c0,-39,16,-69,32,-84 l70,21 c-16,14,-27,39,-27,60 c0,41,28,65,67,65 c42,0,71,-27,71,-69 c0,-55,-27,-96,-168,-137 l-57,-16 c-34,9,-75,14,-106,14 l-154,0 l-56,-44 c1,-56,28,-108,66,-132 l46,16 l0,92 l104,0 c22,0,45,-3,64,-8 c26,-113,120,-195,251,-195 c106,0,176,41,220,91 c34,-51,92,-81,155,-81 c74,0,120,34,141,60 l4,0 l0,-175 l75,0 Z M281,642 l-303,0 l0,-64 l303,0 Z M281,642" fill="rgb(0,0,0)" transform="matrix(0.1,0.0,0.0,-0.1,7.0,135.0)"/>
</svg>