<?xml version="1.0" encoding="UTF-8"?>
<svg height="200.0" version="1.1" width="94.0" xmlns="http://www.w3.org/2000/svg" xmlns:xlink="http://www.w3.org/1999/xlink">
 <path d="M0,0 l94,0 l0,200 l-94,0 Z M0,0" fill="rgb(255,255,255)" transform="matrix(1,0,0,-1,0.0,200.0)"/>
 <path d="M0,0 l94,0" fill="none" stroke="rgb(229,229,229)" stroke-width="2" transform="matrix(1,0,0,-1,0.0,135.0)"/>
 <path d="M0,1 l0,-5" fill="none" stroke="rgb(204,204,204)" stroke-width="2" transform="matrix(1,0,0,-1,7.0,135.0)"/>
 <path d="M0,1 l0,-5" fill="none" stroke="rgb(204,204,204)" stroke-width="2" transform="matrix(1,0,0,-1,87.0,135.0)"/>
 <path d="M512,80 l-178,-101 l68,-56 l244,172 l66,-129 l90,22 l-106,140 c16,17,35,38,35,82 c0,42,-28,70,-51,81 l-56,-20 l0,-101 c-19,-17,-47,-27,-89,-27 c-84,0,-139,58,-139,127 c0,61,28,97,117,119 l157,39 l0,150 l149,0 l0,64 l-841,0 l0,-64 l616,0 l0,-97 l-121,-31 c-50,-13,-87,-31,-112,-57 l-278,0 l-56,-45 c0,-56,28,-108,66,-131 l46,16 l0,92 l185,0 c-3,-14,-5,-28,-5,-44 c0,-103,77,-194,193,-197 Z M512,80" fill="rgb(0,0,0)" transform="matrix(0.1,0.0,0.0,-0.1,7.0,135.0)"/>
</svg>