<?xml version="1.0" encoding="UTF-8"?>
<svg height="200.0" version="1.1" width="96.0" xmlns="http://www.w3.org/2000/svg" xmlns:xlink="http://www.w3.org/1999/xlink">
 <path d="M0,0 l96,0 l0,200 l-96,0 Z M0,0" fill="rgb(255,255,255)" transform="matrix(1,0,0,-1,0.0,200.0)"/>
 <path d="M0,0 l96,0" fill="none" stroke="rgb(229,229,229)" stroke-width="2" transform="matrix(1,0,0,-1,0.0,135.0)"/>
 <path d="M0,1 l0,-5" fill="none" stroke="rgb(204,204,204)" stroke-width="2" transform="matrix(1,0,0,-1,7.0,135.0)"/>
 <path d="M0,1 l0,-5" fill="none" stroke="rgb(204,204,204)" stroke-width="2" transform="matrix(1,0,0,-1,89.0,135.0)"/>
 <path d="M632,113 c-3,-87,-43,-155,-127,-155 c-54,0,-78,35,-78,72 c0,50,39,85,124,85 c18,0,59,0,81,-2 Z M690,55 l50,-86 l86,24 l-127,165 c18,18,35,44,35,83 c0,44,-30,70,-51,80 l-56,-20 l0,-103 c-18,-13,-48,-23,-90,-23 c-83,0,-138,52,-138,120 c0,61,30,94,119,116 l155,39 l0,128 l160,0 l0,64 l-855,0 l0,-64 l619,0 l0,-75 l-122,-31 c-64,-16,-107,-42,-130,-79 l-262,0 l-56,-45 c0,-56,28,-108,66,-131 l46,16 l0,92 l184,0 c-1,-6,-1,-12,-1,-19 c0,-71,34,-138,98,-163 l0,-4 c-36,-18,-68,-54,-68,-109 c0,-79,62,-136,150,-136 c112,0,171,84,184,161 Z M690,55" fill="rgb(0,0,0)" transform="matrix(0.1,0.0,0.0,-0.1,7.0,135.0)"/>
</svg>