<?xml version="1.0" encoding="UTF-8"?>
<svg height="200.0" version="1.1" width="104.0" xmlns="http://www.w3.org/2000/svg" xmlns:xlink="http://www.w3.org/1999/xlink">
 <path d="M0,0 l104,0 l0,200 l-104,0 Z M0,0" fill="rgb(255,255,255)" transform="matrix(1,0,0,-1,0.0,200.0)"/>
 <path d="M0,0 l104,0" fill="none" stroke="rgb(229,229,229)" stroke-width="2" transform="matrix(1,0,0,-1,0.0,135.0)"/>
 <path d="M0,1 l0,-5" fill="none" stroke="rgb(204,204,204)" stroke-width="2" transform="matrix(1,0,0,-1,7.0,135.0)"/>
 <path d="M0,1 l0,-5" fill="none" stroke="rgb(204,204,204)" stroke-width="2" transform="matrix(1,0,0,-1,97.0,135.0)"/>
 <path d="M805,0 l0,578 l120,0 l0,64 l-281,0 l0,-64 l86,0 l0,-222 c0,-89,-63,-171,-183,-171 c-85,0,-115,45,-115,88 c0,48,33,80,104,80 l62,0 l0,66 l-65,0 c-75,0,-107,34,-107,77 c0,39,25,67,73,82 l-15,64 l-506,0 l0,-64 l415,0 l0,-4 c-21,-10,-47,-38,-47,-82 c0,-53,31,-86,71,-99 l-334,0 l-56,-45 c0,-56,28,-108,66,-131 l46,16 l0,92 l227,0 c-8,-15,-13,-34,-13,-55 c0,-78,62,-152,187,-152 c105,0,163,51,185,80 l4,0 l0,-198 Z M805,0" fill="rgb(0,0,0)" transform="matrix(0.1,0.0,0.0,-0.1,7.0,135.0)"/>
</svg>