<?xml version="1.0" encoding="UTF-8"?>
<svg height="200.0" version="1.1" width="140.0" xmlns="http://www.w3.org/2000/svg" xmlns:xlink="http://www.w3.org/1999/xlink">
 <path d="M0,0 l140,0 l0,200 l-140,0 Z M0,0" fill="rgb(255,255,255)" transform="matrix(1,0,0,-1,0.0,200.0)"/>
 <path d="M0,0 l140,0" fill="none" stroke="rgb(229,229,229)" stroke-width="2" transform="matrix(1,0,0,-1,0.0,135.0)"/>
 <path d="M0,1 l0,-5" fill="none" stroke="rgb(204,204,204)" stroke-width="2" transform="matrix(1,0,0,-1,7.0,135.0)"/>
 <path d="M0,1 l0,-5" fill="none" stroke="rgb(204,204,204)" stroke-width="2" transform="matrix(1,0,0,-1,133.0,135.0)"/>
 <path d="M1087,209 l0,-209 l76,0 l0,578 l121,0 l0,64 l-640,0 l0,-64 l155,0 c26,-23,43,-59,43,-95 c0,-62,-52,-95,-144,-115 c4,-38,14,-72,28,-102 c-38,-45,-98,-81,-179,-81 c-85,0,-115,45,-115,88 c0,48,33,80,104,80 l62,0 l0,66 l-65,0 c-75,0,-107,34,-107,77 c0,39,25,67,73,82 l-15,64 l-506,0 l0,-64 l415,0 l0,-4 c-21,-10,-47,-38,-47,-82 c0,-63,44,-98,94,-104 l-357,0 l-56,-45 c0,-56,28,-108,66,-132 l46,17 l0,91 l224,0 c-6,-14,-10,-30,-10,-49 c0,-78,62,-152,187,-152 c103,0,177,40,223,91 c41,-47,98,-72,163,-72 c92,0,139,48,157,72 Z M785,333 c77,18,135,69,135,139 c0,44,-17,76,-41,102 l0,4 l209,0 l0,-208 c0,-105,-63,-164,-152,-164 c-99,0,-143,73,-151,127 Z M785,333" fill="rgb(0,0,0)" transform="matrix(0.1,0.0,0.0,-0.1,7.0,135.0)"/>
</svg>