<?xml version="1.0" encoding="UTF-8"?>
<svg height="200.0" version="1.1" width="134.0" xmlns="http://www.w3.org/2000/svg" xmlns:xlink="http://www.w3.org/1999/xlink">
 <path d="M0,0 l134,0 l0,200 l-134,0 Z M0,0" fill="rgb(255,255,255)" transform="matrix(1,0,0,-1,0.0,200.0)"/>
 <path d="M0,0 l134,0" fill="none" stroke="rgb(229,229,229)" stroke-width="2" transform="matrix(1,0,0,-1,0.0,135.0)"/>
 <path d="M0,1 l0,-5" fill="none" stroke="rgb(204,204,204)" stroke-width="2" transform="matrix(1,0,0,-1,7.0,135.0)"/>
 <path d="M0,1 l0,-5" fill="none" stroke="rgb(204,204,204)" stroke-width="2" transform="matrix(1,0,0,-1,127.0,135.0)"/>
 <path d="M1101,0 l0,578 l121,0 l0,64 l-577,0 l0,-64 l381,0 l0,-250 c0,-81,-51,-145,-132,-145 c-71,0,-117,50,-117,116 c0,89,82,130,166,108 l-7,71 c-112,20,-238,-38,-238,-180 c0,-20,3,-38,8,-55 c-38,-34,-91,-58,-158,-58 c-85,0,-115,45,-115,88 c0,48,33,80,104,80 l61,0 l0,66 l-65,0 c-74,0,-107,34,-107,77 c0,39,26,67,73,82 l-14,64 l-507,0 l0,-64 l415,0 l0,-4 c-20,-10,-46,-38,-46,-82 c0,-63,44,-98,94,-104 l-358,0 l-56,-44 c0,-56,28,-108,66,-132 l46,16 l0,92 l225,0 c-7,-14,-11,-31,-11,-50 c0,-78,63,-152,188,-152 c86,0,150,28,195,65 c34,-43,88,-68,145,-68 c75,0,120,34,141,60 l4,0 l0,-175 Z M1101,0" fill="rgb(0,0,0)" transform="matrix(0.1,0.0,0.0,-0.1,7.0,135.0)"/>
</svg>