<?xml version="1.0" encoding="UTF-8"?>
<svg height="200.0" version="1.1" width="98.0" xmlns="http://www.w3.org/2000/svg" xmlns:xlink="http://www.w3.org/1999/xlink">
 <path d="M0,0 l98,0 l0,200 l-98,0 Z M0,0" fill="rgb(255,255,255)" transform="matrix(1,0,0,-1,0.0,200.0)"/>
 <path d="M0,0 l98,0" fill="none" stroke="rgb(229,229,229)" stroke-width="2" transform="matrix(1,0,0,-1,0.0,135.0)"/>
 <path d="M0,1 l0,-5" fill="none" stroke="rgb(204,204,204)" stroke-width="2" transform="matrix(1,0,0,-1,7.0,135.0)"/>
 <path d="M0,1 l0,-5" fill="none" stroke="rgb(204,204,204)" stroke-width="2" transform="matrix(1,0,0,-1,90.0,135.0)"/>
 <path d="M659,257 l0,-257 l75,0 l0,578 l121,0 l0,64 l-877,0 l0,-64 l379,0 l0,-185 l-274,0 l-56,-45 c0,-56,28,-108,66,-131 l46,16 l0,92 l221,0 c13,-85,78,-130,160,-130 c68,0,112,27,135,62 Z M659,409 c0,-86,-45,-145,-127,-145 c-64,0,-100,29,-100,106 l0,208 l227,0 Z M659,409" fill="rgb(0,0,0)" transform="matrix(0.1,0.0,0.0,-0.1,7.0,135.0)"/>
</svg>