<?xml version="1.0" encoding="UTF-8"?>
<svg height="200.0" version="1.1" width="100.0" xmlns="http://www.w3.org/2000/svg" xmlns:xlink="http://www.w3.org/1999/xlink">
 <path d="M0,0 l100,0 l0,200 l-100,0 Z M0,0" fill="rgb(255,255,255)" transform="matrix(1,0,0,-1,0.0,200.0)"/>
 <path d="M0,0 l100,0" fill="none" stroke="rgb(229,229,229)" stroke-width="2" transform="matrix(1,0,0,-1,0.0,135.0)"/>
 <path d="M0,1 l0,-5" fill="none" stroke="rgb(204,204,204)" stroke-width="2" transform="matrix(1,0,0,-1,7.0,135.0)"/>
 <path d="M0,1 l0,-5" fill="none" stroke="rgb(204,204,204)" stroke-width="2" transform="matrix(1,0,0,-1,92.0,135.0)"/>
 <path d="M543,210 l-216,-178 l77,-43 l272,250 l4,0 l0,-239 l76,0 l0,578 l121,0 l0,64 l-899,0 l0,-64 l392,0 l0,-185 l-287,0 l-56,-45 c0,-56,28,-108,66,-131 l46,16 l0,92 l235,0 c16,-83,86,-116,169,-111 Z M680,324 c-24,-23,-80,-51,-132,-51 c-70,0,-102,31,-102,105 l0,200 l234,0 Z M680,324" fill="rgb(0,0,0)" transform="matrix(0.1,0.0,0.0,-0.1,7.0,135.0)"/>
</svg>