<?xml version="1.0" encoding="UTF-8"?>
<svg height="200.0" version="1.1" width="120.0" xmlns="http://www.w3.org/2000/svg" xmlns:xlink="http://www.w3.org/1999/xlink">
 <path d="M0,0 l120,0 l0,200 l-120,0 Z M0,0" fill="rgb(255,255,255)" transform="matrix(1,0,0,-1,0.0,200.0)"/>
 <path d="M0,0 l120,0" fill="none" stroke="rgb(229,229,229)" stroke-width="2" transform="matrix(1,0,0,-1,0.0,135.0)"/>
 <path d="M0,1 l0,-5" fill="none" stroke="rgb(204,204,204)" stroke-width="2" transform="matrix(1,0,0,-1,7.0,135.0)"/>
 <path d="M0,1 l0,-5" fill="none" stroke="rgb(204,204,204)" stroke-width="2" transform="matrix(1,0,0,-1,114.0,135.0)"/>
 <path d="M484,192 l-183,-143 l72,-49 l259,236 l4,0 l0,-236 l75,0 l0,261 c0,83,53,140,125,140 c63,0,105,-41,105,-103 c0,-73,-54,-127,-145,-110 l12,-71 c116,-13,211,62,211,182 c0,103,-76,171,-170,171 c-72,0,-117,-37,-134,-61 l-4,0 l0,169 l376,0 l0,64 l-1109,0 l0,-64 l373,0 l0,-185 l-268,0 l-56,-45 c0,-56,28,-108,66,-131 l46,16 l0,92 l213,0 c9,-84,65,-124,132,-129 Z M521,254 c-61,0,-94,31,-94,107 l0,217 l209,0 l0,-253 c-15,-31,-58,-71,-115,-71 Z M521,254" fill="rgb(0,0,0)" transform="matrix(0.1,0.0,0.0,-0.1,7.0,135.0)"/>
</svg>