<?xml version="1.0" encoding="UTF-8"?>
<svg height="200.0" version="1.1" width="100.0" xmlns="http://www.w3.org/2000/svg" xmlns:xlink="http://www.w3.org/1999/xlink">
 <path d="M0,0 l100,0 l0,200 l-100,0 Z M0,0" fill="rgb(255,255,255)" transform="matrix(1,0,0,-1,0.0,200.0)"/>
 <path d="M0,0 l100,0" fill="none" stroke="rgb(229,229,229)" stroke-width="2" transform="matrix(1,0,0,-1,0.0,135.0)"/>
 <path d="M0,1 l0,-5" fill="none" stroke="rgb(204,204,204)" stroke-width="2" transform="matrix(1,0,0,-1,7.0,135.0)"/>
 <path d="M0,1 l0,-5" fill="none" stroke="rgb(204,204,204)" stroke-width="2" transform="matrix(1,0,0,-1,92.0,135.0)"/>
 <path d="M675,0 l75,0 l0,578 l120,0 l0,64 l-275,0 l0,-64 l80,0 l0,-238 l-217,0 l0,171 c0,85,-54,131,-141,131 l-339,0 l0,-64 l330,0 c53,0,75,-22,75,-72 l0,-113 l-300,0 l-56,-45 c0,-56,28,-108,66,-131 l46,16 l0,92 l227,0 l-32,-24 c1,-43,24,-102,60,-132 l63,0 l0,102 l218,0 Z M675,0" fill="rgb(0,0,0)" transform="matrix(0.1,0.0,0.0,-0.1,7.0,135.0)"/>
</svg>