<?xml version="1.0" encoding="UTF-8"?>
<svg height="200.0" version="1.1" width="118.0" xmlns="http://www.w3.org/2000/svg" xmlns:xlink="http://www.w3.org/1999/xlink">
 <path d="M0,0 l118,0 l0,200 l-118,0 Z M0,0" fill="rgb(255,255,255)" transform="matrix(1,0,0,-1,0.0,200.0)"/>
 <path d="M0,0 l118,0" fill="none" stroke="rgb(229,229,229)" stroke-width="2" transform="matrix(1,0,0,-1,0.0,135.0)"/>
 <path d="M0,1 l0,-5" fill="none" stroke="rgb(204,204,204)" stroke-width="2" transform="matrix(1,0,0,-1,7.0,135.0)"/>
 <path d="M0,1 l0,-5" fill="none" stroke="rgb(204,204,204)" stroke-width="2" transform="matrix(1,0,0,-1,111.0,135.0)"/>
 <path d="M574,652 c-91,0,-154,-63,-154,-139 c0,-57,31,-104,87,-120 l46,52 c-38,9,-56,39,-56,69 c0,41,29,72,78,72 c48,0,95,-40,95,-116 c0,-97,-79,-154,-182,-154 c-77,0,-139,38,-182,72 l-223,0 l-56,-44 c0,-56,28,-108,66,-132 l46,17 l0,91 l140,0 l131,-107 l231,-224 l62,43 l-132,128 c-49,46,-73,64,-101,88 l1,4 c149,-10,276,70,276,219 c0,93,-59,181,-173,181 Z M-22,642 l0,-64 l315,0 l0,64 Z M869,0 l76,0 l0,578 l121,0 l0,64 l-197,0 Z M869,0" fill="rgb(0,0,0)" transform="matrix(0.1,0.0,0.0,-0.1,7.0,135.0)"/>
</svg>