<?xml version="1.0" encoding="UTF-8"?>
<svg height="200.0" version="1.1" width="110.0" xmlns="http://www.w3.org/2000/svg" xmlns:xlink="http://www.w3.org/1999/xlink">
 <path d="M0,0 l110,0 l0,200 l-110,0 Z M0,0" fill="rgb(255,255,255)" transform="matrix(1,0,0,-1,0.0,200.0)"/>
 <path d="M0,0 l110,0" fill="none" stroke="rgb(229,229,229)" stroke-width="2" transform="matrix(1,0,0,-1,0.0,135.0)"/>
 <path d="M0,1 l0,-5" fill="none" stroke="rgb(204,204,204)" stroke-width="2" transform="matrix(1,0,0,-1,7.0,135.0)"/>
 <path d="M0,1 l0,-5" fill="none" stroke="rgb(204,204,204)" stroke-width="2" transform="matrix(1,0,0,-1,102.0,135.0)"/>
 <path d="M325,393 l-242,0 l-56,-45 c0,-56,28,-108,66,-131 l46,16 l0,92 l151,0 l256,-336 l62,40 l-117,152 c-27,36,-47,58,-69,83 l2,3 c9,-3,25,-3,33,-3 c33,1,64,11,86,31 c37,-14,91,-24,141,-24 c40,0,69,3,92,8 l0,-279 l76,0 l0,578 l121,0 l0,64 l-995,0 l0,-64 l525,0 l0,-186 c0,-46,-23,-65,-66,-65 c-47,0,-74,25,-91,45 l-1,-1 Z M681,338 c-37,0,-75,5,-107,14 c3,10,4,22,4,34 l0,192 l198,0 l0,-227 c-26,-8,-59,-13,-95,-13 Z M681,338" fill="rgb(0,0,0)" transform="matrix(0.1,0.0,0.0,-0.1,7.0,135.0)"/>
</svg>