<?xml version="1.0" encoding="UTF-8"?>
<svg height="200.0" version="1.1" width="134.0" xmlns="http://www.w3.org/2000/svg" xmlns:xlink="http://www.w3.org/1999/xlink">
 <path d="M0,0 l134,0 l0,200 l-134,0 Z M0,0" fill="rgb(255,255,255)" transform="matrix(1,0,0,-1,0.0,200.0)"/>
 <path d="M0,0 l134,0" fill="none" stroke="rgb(229,229,229)" stroke-width="2" transform="matrix(1,0,0,-1,0.0,135.0)"/>
 <path d="M0,1 l0,-5" fill="none" stroke="rgb(204,204,204)" stroke-width="2" transform="matrix(1,0,0,-1,7.0,135.0)"/>
 <path d="M0,1 l0,-5" fill="none" stroke="rgb(204,204,204)" stroke-width="2" transform="matrix(1,0,0,-1,126.0,135.0)"/>
 <path d="M339,387 l-256,0 l-56,-44 c0,-56,28,-108,66,-132 l46,16 l0,92 l162,0 l245,-322 l62,40 l-117,152 c-27,35,-47,58,-69,83 l2,3 c10,-3,28,-3,38,-3 c28,1,54,10,75,26 c37,-18,93,-29,147,-29 c21,0,39,1,55,3 c0,-3,0,-6,0,-9 c0,-116,102,-222,244,-222 c71,0,141,21,193,72 l-42,61 c-38,-40,-85,-64,-160,-64 c-99,0,-157,70,-157,139 c0,57,19,92,116,121 l144,42 l0,166 l139,0 l0,64 l-1238,0 l0,-64 l525,0 l0,-178 c0,-46,-23,-65,-66,-65 c-42,0,-68,22,-86,38 Z M681,338 c-37,0,-76,5,-108,15 c3,12,5,25,5,40 l0,185 l423,0 l0,-113 l-118,-36 c-61,-19,-102,-45,-124,-83 c-22,-5,-49,-8,-78,-8 Z M681,338" fill="rgb(0,0,0)" transform="matrix(0.1,0.0,0.0,-0.1,7.0,135.0)"/>
</svg>