<?xml version="1.0" encoding="UTF-8"?>
<svg height="200.0" version="1.1" width="178.0" xmlns="http://www.w3.org/2000/svg" xmlns:xlink="http://www.w3.org/1999/xlink">
 <path d="M0,0 l178,0 l0,200 l-178,0 Z M0,0" fill="rgb(255,255,255)" transform="matrix(1,0,0,-1,0.0,200.0)"/>
 <path d="M0,0 l178,0" fill="none" stroke="rgb(229,229,229)" stroke-width="2" transform="matrix(1,0,0,-1,0.0,135.0)"/>
 <path d="M0,1 l0,-5" fill="none" stroke="rgb(204,204,204)" stroke-width="2" transform="matrix(1,0,0,-1,7.0,135.0)"/>
 <path d="M0,1 l0,-5" fill="none" stroke="rgb(204,204,204)" stroke-width="2" transform="matrix(1,0,0,-1,170.0,135.0)"/>
 <path d="M333,393 l-250,0 l-56,-45 c0,-56,28,-108,66,-131 l46,16 l0,92 l157,0 l250,-328 l62,40 l-117,152 c-27,35,-47,58,-69,83 l1,3 c11,-3,29,-3,38,-3 c28,1,55,10,75,26 c37,-18,94,-29,148,-29 c33,0,59,2,81,7 c9,-35,29,-71,55,-92 l62,0 l0,102 l203,0 c36,-95,113,-149,208,-149 c93,0,140,48,158,72 l4,0 l0,-209 l76,0 l0,578 l120,0 l0,64 l-1673,0 l0,-64 l525,0 l0,-178 c0,-46,-23,-65,-67,-65 c-42,0,-69,21,-86,39 l0,1 c-2,2,-4,3,-5,5 Z M681,338 c-37,0,-76,5,-108,15 c3,12,5,25,5,40 l0,185 l230,0 l0,-223 c-32,-11,-85,-17,-127,-17 Z M1167,578 c26,-23,43,-59,43,-95 c0,-62,-52,-95,-144,-115 c0,-4,1,-9,2,-13 l-185,0 l0,223 Z M1153,333 c77,18,134,69,134,139 c0,44,-16,76,-40,102 l0,4 l209,0 l0,-208 c0,-105,-64,-164,-152,-164 c-100,0,-143,73,-151,127 Z M1153,333" fill="rgb(0,0,0)" transform="matrix(0.1,0.0,0.0,-0.1,7.0,135.0)"/>
</svg>