<?xml version="1.0" encoding="UTF-8"?>
<svg height="200.0" version="1.1" width="144.0" xmlns="http://www.w3.org/2000/svg" xmlns:xlink="http://www.w3.org/1999/xlink">
 <path d="M0,0 l144,0 l0,200 l-144,0 Z M0,0" fill="rgb(255,255,255)" transform="matrix(1,0,0,-1,0.0,200.0)"/>
 <path d="M0,0 l144,0" fill="none" stroke="rgb(229,229,229)" stroke-width="2" transform="matrix(1,0,0,-1,0.0,135.0)"/>
 <path d="M0,1 l0,-5" fill="none" stroke="rgb(204,204,204)" stroke-width="2" transform="matrix(1,0,0,-1,7.0,135.0)"/>
 <path d="M0,1 l0,-5" fill="none" stroke="rgb(204,204,204)" stroke-width="2" transform="matrix(1,0,0,-1,137.0,135.0)"/>
 <path d="M681,338 c-37,0,-76,5,-108,15 c3,12,5,25,5,40 l0,185 l259,0 c26,-23,43,-59,43,-95 c0,-62,-52,-95,-144,-115 c1,-9,2,-18,4,-26 c-18,-3,-38,-4,-59,-4 Z M1122,209 l4,0 l0,-209 l75,0 l0,578 l121,0 l0,64 l-1344,0 l0,-64 l525,0 l0,-178 c0,-46,-23,-65,-66,-65 c-42,0,-68,22,-86,38 l-12,14 l-256,0 l-56,-44 c0,-56,28,-108,66,-132 l46,16 l0,92 l162,0 l245,-322 l62,40 l-117,152 c-27,35,-47,58,-69,83 l2,3 c10,-3,28,-3,38,-3 c28,1,54,10,75,26 c37,-18,93,-29,147,-29 c30,0,55,2,75,6 c38,-88,114,-138,205,-138 c92,0,140,48,158,72 Z M823,333 c77,18,135,69,135,139 c0,44,-16,76,-41,102 l0,4 l209,0 l0,-208 c0,-105,-63,-164,-152,-164 c-99,0,-143,73,-151,127 Z M823,333" fill="rgb(0,0,0)" transform="matrix(0.1,0.0,0.0,-0.1,7.0,135.0)"/>
</svg>