<?xml version="1.0" encoding="UTF-8"?>
<svg height="200.0" version="1.1" width="138.0" xmlns="http://www.w3.org/2000/svg" xmlns:xlink="http://www.w3.org/1999/xlink">
 <path d="M0,0 l138,0 l0,200 l-138,0 Z M0,0" fill="rgb(255,255,255)" transform="matrix(1,0,0,-1,0.0,200.0)"/>
 <path d="M0,0 l138,0" fill="none" stroke="rgb(229,229,229)" stroke-width="2" transform="matrix(1,0,0,-1,0.0,135.0)"/>
 <path d="M0,1 l0,-5" fill="none" stroke="rgb(204,204,204)" stroke-width="2" transform="matrix(1,0,0,-1,7.0,135.0)"/>
 <path d="M0,1 l0,-5" fill="none" stroke="rgb(204,204,204)" stroke-width="2" transform="matrix(1,0,0,-1,130.0,135.0)"/>
 <path d="M261,264 c-64,0,-100,29,-100,106 l0,208 l608,0 c27,-23,44,-59,44,-95 c0,-41,-23,-69,-65,-90 c-33,29,-86,45,-146,45 l-55,0 c-76,0,-141,-42,-166,-113 c-25,-31,-63,-61,-120,-61 Z M252,195 c50,0,89,13,119,32 c9,-105,67,-185,132,-234 l61,45 c-63,47,-116,117,-116,217 c0,74,46,115,114,115 l32,0 c34,0,57,-4,76,-12 c19,-140,110,-221,226,-221 c93,0,140,48,158,72 l4,0 l0,-209 l75,0 l0,578 l121,0 l0,64 l-1276,0 l0,-64 l108,0 l0,-218 c0,-107,69,-165,166,-165 Z M756,333 c76,18,134,69,134,139 c0,44,-16,76,-40,102 l0,4 l209,0 l0,-208 c0,-105,-64,-164,-152,-164 c-100,0,-143,73,-151,127 Z M756,333" fill="rgb(0,0,0)" transform="matrix(0.1,0.0,0.0,-0.1,7.0,135.0)"/>
</svg>