<?xml version="1.0" encoding="UTF-8"?>
<svg height="200.0" version="1.1" width="98.0" xmlns="http://www.w3.org/2000/svg" xmlns:xlink="http://www.w3.org/1999/xlink">
 <path d="M0,0 l98,0 l0,200 l-98,0 Z M0,0" fill="rgb(255,255,255)" transform="matrix(1,0,0,-1,0.0,200.0)"/>
 <path d="M0,0 l98,0" fill="none" stroke="rgb(229,229,229)" stroke-width="2" transform="matrix(1,0,0,-1,0.0,135.0)"/>
 <path d="M0,1 l0,-5" fill="none" stroke="rgb(204,204,204)" stroke-width="2" transform="matrix(1,0,0,-1,7.0,135.0)"/>
 <path d="M0,1 l0,-5" fill="none" stroke="rgb(204,204,204)" stroke-width="2" transform="matrix(1,0,0,-1,90.0,135.0)"/>
 <path d="M456,262 l0,88 l198,0 l0,-350 l75,0 l0,578 l121,0 l0,64 l-872,0 l0,-64 l108,0 l0,-230 c0,-106,69,-164,166,-164 c75,0,126,29,161,65 Z M261,252 c-64,0,-100,30,-100,106 l0,220 l493,0 l0,-160 l-254,0 l-55,-44 c0,-27,7,-55,20,-78 c-25,-25,-59,-44,-104,-44 Z M261,252" fill="rgb(0,0,0)" transform="matrix(0.1,0.0,0.0,-0.1,7.0,135.0)"/>
</svg>