<?xml version="1.0" encoding="UTF-8"?>
<svg height="200.0" version="1.1" width="102.0" xmlns="http://www.w3.org/2000/svg" xmlns:xlink="http://www.w3.org/1999/xlink">
 <path d="M0,0 l102,0 l0,200 l-102,0 Z M0,0" fill="rgb(255,255,255)" transform="matrix(1,0,0,-1,0.0,200.0)"/>
 <path d="M0,0 l102,0" fill="none" stroke="rgb(229,229,229)" stroke-width="2" transform="matrix(1,0,0,-1,0.0,135.0)"/>
 <path d="M0,1 l0,-5" fill="none" stroke="rgb(204,204,204)" stroke-width="2" transform="matrix(1,0,0,-1,7.0,135.0)"/>
 <path d="M0,1 l0,-5" fill="none" stroke="rgb(204,204,204)" stroke-width="2" transform="matrix(1,0,0,-1,94.0,135.0)"/>
 <path d="M365,308 c-27,-22,-62,-39,-104,-39 c-64,0,-100,30,-100,106 l0,203 l244,0 l0,-240 Z M767,0 l0,578 l121,0 l0,64 l-910,0 l0,-64 l108,0 l0,-213 c0,-106,69,-164,166,-164 c52,0,91,15,119,34 c10,-26,26,-50,45,-66 l63,0 l0,102 l213,0 l0,-271 Z M692,578 l0,-238 l-212,0 l0,238 Z M692,578" fill="rgb(0,0,0)" transform="matrix(0.1,0.0,0.0,-0.1,7.0,135.0)"/>
</svg>