<?xml version="1.0" encoding="UTF-8"?>
<svg height="200.0" version="1.1" width="118.0" xmlns="http://www.w3.org/2000/svg" xmlns:xlink="http://www.w3.org/1999/xlink">
 <path d="M0,0 l118,0 l0,200 l-118,0 Z M0,0" fill="rgb(255,255,255)" transform="matrix(1,0,0,-1,0.0,200.0)"/>
 <path d="M0,0 l118,0" fill="none" stroke="rgb(229,229,229)" stroke-width="2" transform="matrix(1,0,0,-1,0.0,135.0)"/>
 <path d="M0,1 l0,-5" fill="none" stroke="rgb(204,204,204)" stroke-width="2" transform="matrix(1,0,0,-1,7.0,135.0)"/>
 <path d="M0,1 l0,-5" fill="none" stroke="rgb(204,204,204)" stroke-width="2" transform="matrix(1,0,0,-1,110.0,135.0)"/>
 <path d="M252,195 c50,0,89,13,119,32 c17,-105,90,-188,174,-234 l51,54 c-98,53,-150,131,-150,222 c0,15,1,28,4,39 l1,2 l-1,1 c13,50,47,72,86,72 c50,0,82,-32,82,-97 l0,-95 l73,0 l0,95 c0,68,34,101,83,101 c34,0,65,-18,80,-33 l0,-354 l76,0 l0,578 l120,0 l0,64 l-1072,0 l0,-64 l108,0 l0,-218 c0,-107,69,-165,166,-165 Z M850,423 c-15,17,-45,33,-85,33 c-50,0,-94,-30,-109,-84 l-4,0 c-15,48,-58,80,-123,80 c-71,0,-140,-48,-157,-138 c-25,-27,-61,-50,-111,-50 c-64,0,-100,29,-100,106 l0,208 l693,0 l0,-155 Z M850,423" fill="rgb(0,0,0)" transform="matrix(0.1,0.0,0.0,-0.1,7.0,135.0)"/>
</svg>