<?xml version="1.0" encoding="UTF-8"?>
<svg height="200.0" version="1.1" width="102.0" xmlns="http://www.w3.org/2000/svg" xmlns:xlink="http://www.w3.org/1999/xlink">
 <path d="M0,0 l102,0 l0,200 l-102,0 Z M0,0" fill="rgb(255,255,255)" transform="matrix(1,0,0,-1,0.0,200.0)"/>
 <path d="M0,0 l102,0" fill="none" stroke="rgb(229,229,229)" stroke-width="2" transform="matrix(1,0,0,-1,0.0,135.0)"/>
 <path d="M0,1 l0,-5" fill="none" stroke="rgb(204,204,204)" stroke-width="2" transform="matrix(1,0,0,-1,7.0,135.0)"/>
 <path d="M0,1 l0,-5" fill="none" stroke="rgb(204,204,204)" stroke-width="2" transform="matrix(1,0,0,-1,95.0,135.0)"/>
 <path d="M252,195 c56,0,99,17,131,40 c26,-75,96,-120,174,-120 c74,0,120,34,141,60 l4,0 l0,-175 l75,0 l0,578 l121,0 l0,64 l-920,0 l0,-64 l108,0 l0,-218 c0,-107,69,-165,166,-165 Z M570,183 c-71,0,-117,50,-117,116 c0,89,82,130,166,108 l-7,71 c-107,19,-228,-33,-238,-162 c-25,-28,-62,-52,-113,-52 c-64,0,-100,29,-100,106 l0,208 l541,0 l0,-250 c0,-81,-51,-145,-132,-145 Z M570,183" fill="rgb(0,0,0)" transform="matrix(0.1,0.0,0.0,-0.1,7.0,135.0)"/>
</svg>