<?xml version="1.0" encoding="UTF-8"?>
<svg height="200.0" version="1.1" width="114.0" xmlns="http://www.w3.org/2000/svg" xmlns:xlink="http://www.w3.org/1999/xlink">
 <path d="M0,0 l114,0 l0,200 l-114,0 Z M0,0" fill="rgb(255,255,255)" transform="matrix(1,0,0,-1,0.0,200.0)"/>
 <path d="M0,0 l114,0" fill="none" stroke="rgb(229,229,229)" stroke-width="2" transform="matrix(1,0,0,-1,0.0,135.0)"/>
 <path d="M0,1 l0,-5" fill="none" stroke="rgb(204,204,204)" stroke-width="2" transform="matrix(1,0,0,-1,7.0,135.0)"/>
 <path d="M0,1 l0,-5" fill="none" stroke="rgb(204,204,204)" stroke-width="2" transform="matrix(1,0,0,-1,106.0,135.0)"/>
 <path d="M261,264 c-64,0,-100,29,-100,106 l0,208 l386,0 l0,-186 c0,-46,-23,-65,-66,-65 c-47,0,-74,25,-91,45 l-58,-45 l23,-30 c-24,-19,-55,-33,-94,-33 Z M725,338 c-37,0,-75,5,-107,14 c3,10,4,22,4,34 l0,192 l198,0 l0,-227 c-26,-8,-59,-13,-95,-13 Z M468,267 c9,-3,25,-3,33,-3 c33,1,64,11,86,31 c37,-14,91,-24,141,-24 c40,0,69,3,92,8 l0,-279 l76,0 l0,578 l121,0 l0,64 l-1039,0 l0,-64 l108,0 l0,-218 c0,-107,69,-165,166,-165 c64,0,110,21,143,49 l195,-255 l62,40 l-117,152 c-27,36,-47,58,-69,83 Z M468,267" fill="rgb(0,0,0)" transform="matrix(0.1,0.0,0.0,-0.1,7.0,135.0)"/>
</svg>