<?xml version="1.0" encoding="UTF-8"?>
<svg height="200.0" version="1.1" width="122.0" xmlns="http://www.w3.org/2000/svg" xmlns:xlink="http://www.w3.org/1999/xlink">
 <path d="M0,0 l122,0 l0,200 l-122,0 Z M0,0" fill="rgb(255,255,255)" transform="matrix(1,0,0,-1,0.0,200.0)"/>
 <path d="M0,0 l122,0" fill="none" stroke="rgb(229,229,229)" stroke-width="2" transform="matrix(1,0,0,-1,0.0,135.0)"/>
 <path d="M0,1 l0,-5" fill="none" stroke="rgb(204,204,204)" stroke-width="2" transform="matrix(1,0,0,-1,7.0,135.0)"/>
 <path d="M0,1 l0,-5" fill="none" stroke="rgb(204,204,204)" stroke-width="2" transform="matrix(1,0,0,-1,116.0,135.0)"/>
 <path d="M584,469 c-72,0,-117,-37,-135,-61 l-4,0 l0,170 l447,0 l0,-113 l-117,-36 c-21,-7,-40,-14,-57,-23 c-31,40,-80,63,-134,63 Z M371,398 c0,-83,-47,-136,-121,-136 c-57,0,-89,30,-89,105 l0,211 l210,0 Z M445,260 c0,83,54,140,126,140 c39,0,70,-16,88,-42 c-19,-26,-28,-57,-28,-95 c0,-116,102,-222,244,-222 c71,0,141,21,192,72 l-42,61 c-37,-40,-85,-64,-159,-64 c-100,0,-158,70,-158,139 c0,57,20,92,116,121 l145,42 l0,166 l138,0 l0,64 l-1129,0 l0,-64 l108,0 l0,-222 c0,-106,63,-163,156,-163 c68,0,108,32,125,59 l4,0 l0,-252 l74,0 Z M101,42 c0,-27,20,-48,48,-48 c28,0,48,21,48,48 c0,28,-20,49,-48,49 c-28,0,-48,-21,-48,-49 Z M101,42" fill="rgb(0,0,0)" transform="matrix(0.1,0.0,0.0,-0.1,7.0,135.0)"/>
</svg>