<?xml version="1.0" encoding="UTF-8"?>
<svg height="200.0" version="1.1" width="152.0" xmlns="http://www.w3.org/2000/svg" xmlns:xlink="http://www.w3.org/1999/xlink">
 <path d="M0,0 l152,0 l0,200 l-152,0 Z M0,0" fill="rgb(255,255,255)" transform="matrix(1,0,0,-1,0.0,200.0)"/>
 <path d="M0,0 l152,0" fill="none" stroke="rgb(229,229,229)" stroke-width="2" transform="matrix(1,0,0,-1,0.0,135.0)"/>
 <path d="M0,1 l0,-5" fill="none" stroke="rgb(204,204,204)" stroke-width="2" transform="matrix(1,0,0,-1,7.0,135.0)"/>
 <path d="M0,1 l0,-5" fill="none" stroke="rgb(204,204,204)" stroke-width="2" transform="matrix(1,0,0,-1,144.0,135.0)"/>
 <path d="M449,409 l-4,0 l0,169 l220,0 l0,-131 c-25,14,-53,21,-83,21 c-68,0,-115,-35,-133,-59 Z M569,400 c47,0,81,-20,96,-51 c3,-102,65,-156,157,-156 c67,0,107,32,124,59 l4,0 l0,-252 l74,0 l0,260 c0,83,54,140,126,140 c63,0,105,-41,105,-103 c0,-73,-54,-127,-145,-110 l12,-70 c116,-14,211,61,211,181 c0,103,-76,171,-170,171 c-72,0,-117,-37,-135,-61 l-4,0 l0,170 l372,0 l0,64 l-1418,0 l0,-64 l108,0 l0,-222 c0,-106,63,-163,156,-163 c68,0,108,32,125,59 l4,0 l0,-252 l74,0 l0,263 c0,83,54,137,124,137 Z M371,398 c0,-83,-47,-136,-121,-136 c-57,0,-89,30,-89,105 l0,211 l210,0 Z M951,398 c0,-83,-47,-136,-121,-136 c-58,0,-90,30,-90,105 l0,211 l211,0 Z M698,42 c0,-27,20,-47,47,-47 c28,0,48,20,48,47 c0,28,-20,48,-48,48 c-27,0,-47,-20,-47,-48 Z M101,42 c0,-27,21,-47,48,-47 c28,0,48,20,48,47 c0,28,-20,48,-48,48 c-27,0,-48,-20,-48,-48 Z M101,42" fill="rgb(0,0,0)" transform="matrix(0.1,0.0,0.0,-0.1,7.0,135.0)"/>
</svg>