<?xml version="1.0" encoding="UTF-8"?>
<svg height="200.0" version="1.1" width="144.0" xmlns="http://www.w3.org/2000/svg" xmlns:xlink="http://www.w3.org/1999/xlink">
 <path d="M0,0 l144,0 l0,200 l-144,0 Z M0,0" fill="rgb(255,255,255)" transform="matrix(1,0,0,-1,0.0,200.0)"/>
 <path d="M0,0 l144,0" fill="none" stroke="rgb(229,229,229)" stroke-width="2" transform="matrix(1,0,0,-1,0.0,135.0)"/>
 <path d="M0,1 l0,-5" fill="none" stroke="rgb(204,204,204)" stroke-width="2" transform="matrix(1,0,0,-1,7.0,135.0)"/>
 <path d="M0,1 l0,-5" fill="none" stroke="rgb(204,204,204)" stroke-width="2" transform="matrix(1,0,0,-1,137.0,135.0)"/>
 <path d="M569,400 c39,0,68,-14,86,-36 c-12,-26,-20,-57,-20,-93 c0,-125,81,-226,177,-278 l51,54 c-98,53,-150,131,-150,222 c0,80,42,114,90,114 c50,0,82,-32,82,-97 l0,-95 l73,0 l0,95 c0,68,34,101,83,101 c34,0,65,-18,80,-33 l0,-354 l76,0 l0,578 l120,0 l0,64 l-1339,0 l0,-64 l108,0 l0,-222 c0,-106,63,-163,156,-163 c68,0,108,32,125,59 l4,0 l0,-252 l74,0 l0,263 c0,83,54,137,124,137 Z M371,398 c0,-83,-47,-136,-121,-136 c-57,0,-89,30,-89,105 l0,211 l210,0 Z M1117,423 c-15,17,-45,33,-85,33 c-50,0,-94,-30,-109,-84 l-4,0 c-15,48,-58,80,-123,80 c-34,0,-67,-11,-95,-32 c-30,30,-73,48,-119,48 c-68,0,-115,-35,-133,-59 l-4,0 l0,169 l676,0 l0,-155 Z M1117,423" fill="rgb(0,0,0)" transform="matrix(0.1,0.0,0.0,-0.1,7.0,135.0)"/>
</svg>