<?xml version="1.0" encoding="UTF-8"?>
<svg height="200.0" version="1.1" width="150.0" xmlns="http://www.w3.org/2000/svg" xmlns:xlink="http://www.w3.org/1999/xlink">
 <path d="M0,0 l150,0 l0,200 l-150,0 Z M0,0" fill="rgb(255,255,255)" transform="matrix(1,0,0,-1,0.0,200.0)"/>
 <path d="M0,0 l150,0" fill="none" stroke="rgb(229,229,229)" stroke-width="2" transform="matrix(1,0,0,-1,0.0,135.0)"/>
 <path d="M0,1 l0,-5" fill="none" stroke="rgb(204,204,204)" stroke-width="2" transform="matrix(1,0,0,-1,7.0,135.0)"/>
 <path d="M0,1 l0,-5" fill="none" stroke="rgb(204,204,204)" stroke-width="2" transform="matrix(1,0,0,-1,142.0,135.0)"/>
 <path d="M161,367 l0,211 l210,0 l0,-180 c0,-83,-47,-136,-121,-136 c-57,0,-89,30,-89,105 Z M1007,32 l-132,128 c-49,46,-73,64,-101,88 l1,4 c149,-10,276,70,276,219 c0,93,-59,181,-173,181 c-92,0,-154,-63,-154,-139 c0,-57,31,-104,87,-120 l46,52 c-38,9,-56,39,-56,69 c0,41,29,72,78,72 c48,0,95,-40,95,-116 c0,-97,-79,-154,-182,-154 c-17,0,-37,2,-57,5 c-12,84,-78,135,-156,135 c-67,0,-112,-35,-130,-59 l-4,0 l0,181 l157,0 l0,64 l-624,0 l0,-64 l108,0 l0,-222 c0,-106,63,-163,156,-163 c68,0,108,32,125,59 l4,0 l0,-252 l74,0 l0,250 c0,85,54,136,121,136 c63,0,96,-39,101,-84 l-23,-30 l70,-59 l231,-224 Z M1249,0 l0,578 l121,0 l0,64 l-197,0 l0,-642 Z M1249,0" fill="rgb(0,0,0)" transform="matrix(0.1,0.0,0.0,-0.1,7.0,135.0)"/>
</svg>