<?xml version="1.0" encoding="UTF-8"?>
<svg height="200.0" version="1.1" width="142.0" xmlns="http://www.w3.org/2000/svg" xmlns:xlink="http://www.w3.org/1999/xlink">
 <path d="M0,0 l142,0 l0,200 l-142,0 Z M0,0" fill="rgb(255,255,255)" transform="matrix(1,0,0,-1,0.0,200.0)"/>
 <path d="M0,0 l142,0" fill="none" stroke="rgb(229,229,229)" stroke-width="2" transform="matrix(1,0,0,-1,0.0,135.0)"/>
 <path d="M0,1 l0,-5" fill="none" stroke="rgb(204,204,204)" stroke-width="2" transform="matrix(1,0,0,-1,7.0,135.0)"/>
 <path d="M0,1 l0,-5" fill="none" stroke="rgb(204,204,204)" stroke-width="2" transform="matrix(1,0,0,-1,135.0,135.0)"/>
 <path d="M753,275 c9,-3,25,-4,33,-4 c30,1,58,9,79,27 c37,-18,94,-29,148,-29 c37,0,65,3,92,9 l0,-278 l76,0 l0,578 l121,0 l0,64 l-1324,0 l0,-64 l108,0 l0,-222 c0,-106,63,-163,156,-163 c68,0,108,32,125,59 l4,0 l0,-252 l75,0 l0,252 c0,78,39,129,97,129 c36,0,59,-25,105,-85 l228,-299 l61,40 l-117,152 c-27,35,-47,58,-69,83 Z M766,335 c-47,0,-74,25,-91,45 c-40,46,-71,68,-122,68 c-50,0,-86,-27,-103,-53 l-4,0 l0,183 l386,0 l0,-178 c0,-46,-23,-65,-66,-65 Z M371,398 c0,-83,-47,-136,-121,-136 c-57,0,-89,30,-89,105 l0,211 l210,0 Z M1010,338 c-37,0,-76,5,-108,15 c3,12,5,26,5,41 l0,184 l198,0 l0,-227 c-25,-9,-58,-13,-95,-13 Z M101,42 c0,-27,21,-47,48,-47 c28,0,48,20,48,47 c0,28,-20,48,-48,48 c-27,0,-48,-20,-48,-48 Z M101,42" fill="rgb(0,0,0)" transform="matrix(0.1,0.0,0.0,-0.1,7.0,135.0)"/>
</svg>