<?xml version="1.0" encoding="UTF-8"?>
<svg height="200.0" version="1.1" width="124.0" xmlns="http://www.w3.org/2000/svg" xmlns:xlink="http://www.w3.org/1999/xlink">
 <path d="M0,0 l124,0 l0,200 l-124,0 Z M0,0" fill="rgb(255,255,255)" transform="matrix(1,0,0,-1,0.0,200.0)"/>
 <path d="M0,0 l124,0" fill="none" stroke="rgb(229,229,229)" stroke-width="2" transform="matrix(1,0,0,-1,0.0,135.0)"/>
 <path d="M0,1 l0,-5" fill="none" stroke="rgb(204,204,204)" stroke-width="2" transform="matrix(1,0,0,-1,7.0,135.0)"/>
 <path d="M0,1 l0,-5" fill="none" stroke="rgb(204,204,204)" stroke-width="2" transform="matrix(1,0,0,-1,117.0,135.0)"/>
 <path d="M250,105 c111,0,174,64,205,115 c42,-60,103,-105,188,-105 c97,0,157,66,157,146 c0,60,-30,94,-48,109 l0,4 l174,0 l0,-374 l76,0 l0,578 l121,0 l0,64 l-1145,0 l0,-64 l948,0 l0,-139 l-260,0 l-33,-58 l0,-6 c38,-11,92,-45,92,-108 c0,-48,-32,-83,-87,-83 c-107,0,-171,129,-176,249 l-74,-30 c4,-34,13,-72,28,-109 c-6,-16,-17,-39,-34,-61 l-206,170 c23,16,51,24,81,24 c22,0,45,-3,67,-11 l-3,70 c-21,6,-45,8,-69,8 c-108,0,-206,-78,-206,-197 c0,-117,88,-192,204,-192 Z M256,172 c-86,0,-135,54,-135,127 c0,26,7,48,18,67 l205,-168 c-23,-16,-52,-26,-88,-26 Z M443,17 c0,-27,20,-48,48,-48 c28,0,48,21,48,48 c0,28,-20,49,-48,49 c-28,0,-48,-21,-48,-49 Z M443,17" fill="rgb(0,0,0)" transform="matrix(0.1,0.0,0.0,-0.1,7.0,135.0)"/>
</svg>