<?xml version="1.0" encoding="UTF-8"?>
<svg height="200.0" version="1.1" width="158.0" xmlns="http://www.w3.org/2000/svg" xmlns:xlink="http://www.w3.org/1999/xlink">
 <path d="M0,0 l158,0 l0,200 l-158,0 Z M0,0" fill="rgb(255,255,255)" transform="matrix(1,0,0,-1,0.0,200.0)"/>
 <path d="M0,0 l158,0" fill="none" stroke="rgb(229,229,229)" stroke-width="2" transform="matrix(1,0,0,-1,0.0,135.0)"/>
 <path d="M0,1 l0,-5" fill="none" stroke="rgb(204,204,204)" stroke-width="2" transform="matrix(1,0,0,-1,7.0,135.0)"/>
 <path d="M0,1 l0,-5" fill="none" stroke="rgb(204,204,204)" stroke-width="2" transform="matrix(1,0,0,-1,152.0,135.0)"/>
 <path d="M250,105 c107,0,169,60,201,111 c41,-58,102,-101,185,-101 c96,0,157,66,157,146 c0,60,-30,94,-49,109 l0,4 l60,0 c36,0,60,-4,79,-15 c19,-140,109,-222,226,-222 c93,0,140,48,158,72 l4,0 l0,-209 l76,0 l0,578 l120,0 l0,64 l-1489,0 l0,-64 l1005,0 c26,-23,43,-59,43,-95 c0,-43,-25,-72,-70,-92 c-32,31,-80,48,-144,48 l-153,0 l-33,-58 l0,-6 c38,-11,91,-45,91,-108 c0,-48,-32,-83,-87,-83 c-106,0,-170,129,-175,249 l-75,-30 c5,-37,15,-79,32,-119 c-6,-14,-16,-33,-30,-51 l-206,170 c23,16,52,24,82,24 c22,0,44,-3,65,-11 l-2,70 c-21,6,-45,8,-69,8 c-108,0,-206,-77,-206,-197 c0,-115,88,-192,204,-192 Z M256,172 c-86,0,-135,55,-135,128 c0,25,7,47,18,66 l205,-168 c-23,-16,-52,-26,-88,-26 Z M969,333 c77,18,134,69,134,139 c0,44,-16,76,-40,102 l0,4 l209,0 l0,-208 c0,-105,-64,-164,-152,-164 c-100,0,-143,73,-151,127 Z M969,333" fill="rgb(0,0,0)" transform="matrix(0.1,0.0,0.0,-0.1,7.0,135.0)"/>
</svg>