<?xml version="1.0" encoding="UTF-8"?>
<svg height="200.0" version="1.1" width="128.0" xmlns="http://www.w3.org/2000/svg" xmlns:xlink="http://www.w3.org/1999/xlink">
 <path d="M0,0 l128,0 l0,200 l-128,0 Z M0,0" fill="rgb(255,255,255)" transform="matrix(1,0,0,-1,0.0,200.0)"/>
 <path d="M0,0 l128,0" fill="none" stroke="rgb(229,229,229)" stroke-width="2" transform="matrix(1,0,0,-1,0.0,135.0)"/>
 <path d="M0,1 l0,-5" fill="none" stroke="rgb(204,204,204)" stroke-width="2" transform="matrix(1,0,0,-1,7.0,135.0)"/>
 <path d="M0,1 l0,-5" fill="none" stroke="rgb(204,204,204)" stroke-width="2" transform="matrix(1,0,0,-1,120.0,135.0)"/>
 <path d="M260,173 c-88,0,-138,55,-138,128 c0,25,6,47,17,65 l202,-172 c-24,-13,-51,-21,-81,-21 Z M253,106 c114,0,193,70,224,156 c23,-24,52,-43,84,-53 l155,32 c12,-8,28,-27,28,-60 c0,-66,-66,-96,-136,-96 l-33,0 l-115,78 c-15,-9,-28,-27,-28,-50 c0,-42,38,-86,133,-90 l158,-142 l81,43 l-157,104 l0,4 c83,2,169,52,169,150 c0,17,-2,32,-6,45 c22,-7,47,-12,73,-12 c29,0,54,3,75,10 l0,-225 l75,0 l0,578 l120,0 l0,64 l-1175,0 l0,-64 l718,0 l0,-101 l-150,0 c-72,0,-114,-42,-114,-103 c1,-56,-17,-109,-51,-147 l-206,176 c23,16,52,24,82,24 c22,0,45,-3,67,-11 l-3,70 c-21,6,-45,8,-69,8 c-108,0,-205,-76,-205,-195 c0,-116,88,-193,206,-193 Z M741,314 l-169,-35 c-34,9,-63,43,-63,78 c0,32,13,55,72,55 l188,0 l0,166 l189,0 l0,-280 c-22,-10,-52,-17,-87,-17 c-44,0,-87,10,-112,22 c-6,5,-12,8,-18,11 Z M741,314" fill="rgb(0,0,0)" transform="matrix(0.1,0.0,0.0,-0.1,7.0,135.0)"/>
</svg>