<?xml version="1.0" encoding="UTF-8"?>
<svg height="200.0" version="1.1" width="140.0" xmlns="http://www.w3.org/2000/svg" xmlns:xlink="http://www.w3.org/1999/xlink">
 <path d="M0,0 l140,0 l0,200 l-140,0 Z M0,0" fill="rgb(255,255,255)" transform="matrix(1,0,0,-1,0.0,200.0)"/>
 <path d="M0,0 l140,0" fill="none" stroke="rgb(229,229,229)" stroke-width="2" transform="matrix(1,0,0,-1,0.0,135.0)"/>
 <path d="M0,1 l0,-5" fill="none" stroke="rgb(204,204,204)" stroke-width="2" transform="matrix(1,0,0,-1,7.0,135.0)"/>
 <path d="M0,1 l0,-5" fill="none" stroke="rgb(204,204,204)" stroke-width="2" transform="matrix(1,0,0,-1,133.0,135.0)"/>
 <path d="M1160,0 l0,578 l121,0 l0,64 l-574,0 l0,-64 l378,0 l0,-250 c0,-81,-51,-145,-132,-145 c-71,0,-117,50,-117,116 c0,89,82,130,166,108 l-7,71 c-112,20,-239,-38,-239,-180 c0,-20,3,-39,8,-57 c-38,-33,-89,-56,-154,-56 c-85,0,-115,45,-115,88 c0,48,33,80,104,80 l61,0 l0,66 l-64,0 c-75,0,-108,34,-108,77 c0,39,26,67,73,82 l-14,64 l-569,0 l0,-64 l478,0 l0,-4 c-21,-10,-47,-38,-47,-82 c0,-63,44,-98,94,-104 l0,-4 c-36,-9,-75,-39,-85,-88 l-1,1 c-5,-16,-16,-41,-35,-64 l-206,170 c23,16,51,24,81,24 c22,0,45,-3,67,-11 l-3,70 c-21,6,-45,8,-69,8 c-108,0,-206,-78,-206,-197 c0,-117,88,-192,204,-192 c93,0,152,45,187,89 c28,-44,84,-76,166,-76 c84,0,148,27,193,63 c35,-42,87,-66,144,-66 c74,0,120,34,141,60 l4,0 l0,-175 Z M256,172 c-86,0,-135,54,-135,127 c0,26,7,48,18,67 l205,-168 c-23,-16,-52,-26,-88,-26 Z M256,172" fill="rgb(0,0,0)" transform="matrix(0.1,0.0,0.0,-0.1,7.0,135.0)"/>
</svg>