<?xml version="1.0" encoding="UTF-8"?>
<svg height="200.0" version="1.1" width="108.0" xmlns="http://www.w3.org/2000/svg" xmlns:xlink="http://www.w3.org/1999/xlink">
 <path d="M0,0 l108,0 l0,200 l-108,0 Z M0,0" fill="rgb(255,255,255)" transform="matrix(1,0,0,-1,0.0,200.0)"/>
 <path d="M0,0 l108,0" fill="none" stroke="rgb(229,229,229)" stroke-width="2" transform="matrix(1,0,0,-1,0.0,135.0)"/>
 <path d="M0,1 l0,-5" fill="none" stroke="rgb(204,204,204)" stroke-width="2" transform="matrix(1,0,0,-1,7.0,135.0)"/>
 <path d="M0,1 l0,-5" fill="none" stroke="rgb(204,204,204)" stroke-width="2" transform="matrix(1,0,0,-1,100.0,135.0)"/>
 <path d="M250,105 c100,0,161,52,195,100 c8,-14,19,-26,30,-36 l63,0 l0,102 l218,0 l0,-271 l75,0 l0,578 l120,0 l0,64 l-275,0 l0,-64 l80,0 l0,-238 l-217,0 l0,171 c0,85,-54,131,-141,131 l-420,0 l0,-64 l411,0 c53,0,75,-22,75,-72 l0,-168 l-49,-37 c0,-3,0,-6,0,-8 c-5,-16,-16,-39,-33,-60 l-206,170 c23,16,51,24,81,24 c22,0,45,-3,67,-11 l-3,70 c-21,6,-45,8,-69,8 c-108,0,-206,-78,-206,-197 c0,-117,88,-192,204,-192 Z M256,172 c-86,0,-135,54,-135,127 c0,26,7,48,18,67 l205,-168 c-23,-16,-52,-26,-88,-26 Z M256,172" fill="rgb(0,0,0)" transform="matrix(0.1,0.0,0.0,-0.1,7.0,135.0)"/>
</svg>