<?xml version="1.0" encoding="UTF-8"?>
<svg height="200.0" version="1.1" width="106.0" xmlns="http://www.w3.org/2000/svg" xmlns:xlink="http://www.w3.org/1999/xlink">
 <path d="M0,0 l106,0 l0,200 l-106,0 Z M0,0" fill="rgb(255,255,255)" transform="matrix(1,0,0,-1,0.0,200.0)"/>
 <path d="M0,0 l106,0" fill="none" stroke="rgb(229,229,229)" stroke-width="2" transform="matrix(1,0,0,-1,0.0,135.0)"/>
 <path d="M0,1 l0,-5" fill="none" stroke="rgb(204,204,204)" stroke-width="2" transform="matrix(1,0,0,-1,7.0,135.0)"/>
 <path d="M0,1 l0,-5" fill="none" stroke="rgb(204,204,204)" stroke-width="2" transform="matrix(1,0,0,-1,99.0,135.0)"/>
 <path d="M747,200 l4,0 l0,-200 l74,0 l0,578 l121,0 l0,64 l-275,0 l0,-64 l80,0 l0,-198 l-217,0 l0,131 c0,85,-54,131,-141,131 l-415,0 l0,-64 l406,0 c53,0,75,-22,75,-72 l0,-128 l-49,-37 c0,-14,3,-30,8,-46 c-6,-18,-17,-41,-35,-63 l-207,172 c23,15,51,23,81,23 c22,0,45,-3,67,-11 l-3,70 c-21,6,-45,8,-69,8 c-108,0,-206,-77,-206,-197 c0,-115,87,-192,204,-192 c111,0,175,65,207,117 c4,-5,8,-9,13,-13 l63,0 l0,103 l224,0 l0,-27 l-333,-247 l66,-49 Z M257,172 c-87,0,-136,55,-136,128 c0,25,7,48,18,66 l206,-169 c-23,-15,-52,-25,-88,-25 Z M257,172" fill="rgb(0,0,0)" transform="matrix(0.1,0.0,0.0,-0.1,7.0,135.0)"/>
</svg>