<?xml version="1.0" encoding="UTF-8"?>
<svg height="200.0" version="1.1" width="156.0" xmlns="http://www.w3.org/2000/svg" xmlns:xlink="http://www.w3.org/1999/xlink">
 <path d="M0,0 l156,0 l0,200 l-156,0 Z M0,0" fill="rgb(255,255,255)" transform="matrix(1,0,0,-1,0.0,200.0)"/>
 <path d="M0,0 l156,0" fill="none" stroke="rgb(229,229,229)" stroke-width="2" transform="matrix(1,0,0,-1,0.0,135.0)"/>
 <path d="M0,1 l0,-5" fill="none" stroke="rgb(204,204,204)" stroke-width="2" transform="matrix(1,0,0,-1,7.0,135.0)"/>
 <path d="M0,1 l0,-5" fill="none" stroke="rgb(204,204,204)" stroke-width="2" transform="matrix(1,0,0,-1,149.0,135.0)"/>
 <path d="M250,105 c82,0,136,35,171,74 c27,-82,90,-147,161,-186 l52,54 c-98,53,-150,131,-150,222 c0,80,42,114,89,114 c51,0,83,-32,83,-97 l0,-95 l73,0 l0,97 c0,63,32,97,72,97 c34,0,51,-21,59,-49 c25,-126,113,-199,223,-199 c92,0,139,48,158,72 l4,0 l0,-209 l75,0 l0,578 l121,0 l0,64 l-1463,0 l0,-64 l978,0 c26,-23,43,-59,43,-95 c0,-47,-29,-77,-83,-97 c-22,45,-56,69,-114,69 c-49,0,-96,-34,-108,-83 l-4,0 c-15,48,-58,80,-123,80 c-80,0,-157,-60,-161,-173 c-5,-15,-13,-30,-25,-45 l-205,169 c23,16,51,24,81,24 c22,0,45,-3,67,-11 l-3,70 c-21,6,-45,8,-69,8 c-108,0,-206,-78,-206,-197 c0,-117,88,-192,204,-192 Z M256,172 c-86,0,-135,54,-135,127 c0,26,7,48,18,67 l205,-168 c-23,-16,-53,-26,-88,-26 Z M942,333 c77,18,135,69,135,139 c0,44,-17,76,-41,102 l0,4 l209,0 l0,-208 c0,-105,-63,-164,-152,-164 c-99,0,-143,73,-151,127 Z M942,333" fill="rgb(0,0,0)" transform="matrix(0.1,0.0,0.0,-0.1,7.0,135.0)"/>
</svg>