<?xml version="1.0" encoding="UTF-8"?>
<svg height="200.0" version="1.1" width="104.0" xmlns="http://www.w3.org/2000/svg" xmlns:xlink="http://www.w3.org/1999/xlink">
 <path d="M0,0 l104,0 l0,200 l-104,0 Z M0,0" fill="rgb(255,255,255)" transform="matrix(1,0,0,-1,0.0,200.0)"/>
 <path d="M0,0 l104,0" fill="none" stroke="rgb(229,229,229)" stroke-width="2" transform="matrix(1,0,0,-1,0.0,135.0)"/>
 <path d="M0,1 l0,-5" fill="none" stroke="rgb(204,204,204)" stroke-width="2" transform="matrix(1,0,0,-1,7.0,135.0)"/>
 <path d="M0,1 l0,-5" fill="none" stroke="rgb(204,204,204)" stroke-width="2" transform="matrix(1,0,0,-1,97.0,135.0)"/>
 <path d="M256,172 c-86,0,-135,54,-135,127 c0,26,7,48,18,67 l205,-168 c-23,-16,-52,-26,-88,-26 Z M801,578 l121,0 l0,64 l-944,0 l0,-64 l748,0 l0,-250 c0,-81,-51,-145,-132,-145 c-71,0,-117,50,-117,116 c0,89,82,130,166,108 l-7,71 c-112,20,-239,-38,-239,-180 c0,-13,1,-26,3,-37 c-5,-9,-11,-19,-18,-28 l-206,170 c23,16,51,24,81,24 c22,0,45,-3,67,-11 l-3,70 c-21,6,-45,8,-69,8 c-108,0,-206,-78,-206,-197 c0,-117,88,-192,204,-192 c88,0,146,41,182,83 c34,-46,89,-73,149,-73 c74,0,120,34,141,60 l4,0 l0,-175 l75,0 Z M801,578" fill="rgb(0,0,0)" transform="matrix(0.1,0.0,0.0,-0.1,7.0,135.0)"/>
</svg>