<?xml version="1.0" encoding="UTF-8"?>
<svg height="200.0" version="1.1" width="126.0" xmlns="http://www.w3.org/2000/svg" xmlns:xlink="http://www.w3.org/1999/xlink">
 <path d="M0,0 l126,0 l0,200 l-126,0 Z M0,0" fill="rgb(255,255,255)" transform="matrix(1,0,0,-1,0.0,200.0)"/>
 <path d="M0,0 l126,0" fill="none" stroke="rgb(229,229,229)" stroke-width="2" transform="matrix(1,0,0,-1,0.0,135.0)"/>
 <path d="M0,1 l0,-5" fill="none" stroke="rgb(204,204,204)" stroke-width="2" transform="matrix(1,0,0,-1,7.0,135.0)"/>
 <path d="M0,1 l0,-5" fill="none" stroke="rgb(204,204,204)" stroke-width="2" transform="matrix(1,0,0,-1,118.0,135.0)"/>
 <path d="M375,642 l-397,0 l0,-64 l397,0 Z M250,106 c119,0,183,70,212,122 l18,-15 l231,-224 l62,43 l-132,128 c-49,46,-73,64,-101,88 l1,4 c149,-10,276,70,276,219 c0,93,-59,181,-173,181 c-92,0,-154,-63,-154,-139 c0,-57,31,-104,87,-120 l46,52 c-38,9,-56,39,-56,69 c0,41,29,72,78,72 c48,0,95,-40,95,-116 c0,-97,-79,-154,-182,-154 c-30,0,-70,5,-102,17 l-46,-61 l2,-1 c-7,-13,-16,-27,-27,-40 l-210,173 c24,15,52,23,82,23 c22,0,45,-3,67,-11 l-3,70 c-21,6,-45,8,-69,8 c-108,0,-206,-77,-206,-196 c0,-118,88,-192,204,-192 Z M257,173 c-88,0,-136,54,-136,127 c0,26,7,48,18,66 l206,-169 c-23,-14,-52,-24,-88,-24 Z M939,0 l76,0 l0,578 l120,0 l0,64 l-196,0 Z M939,0" fill="rgb(0,0,0)" transform="matrix(0.1,0.0,0.0,-0.1,7.0,135.0)"/>
</svg>