<?xml version="1.0" encoding="UTF-8"?>
<svg height="200.0" version="1.1" width="120.0" xmlns="http://www.w3.org/2000/svg" xmlns:xlink="http://www.w3.org/1999/xlink">
 <path d="M0,0 l120,0 l0,200 l-120,0 Z M0,0" fill="rgb(255,255,255)" transform="matrix(1,0,0,-1,0.0,200.0)"/>
 <path d="M0,0 l120,0" fill="none" stroke="rgb(229,229,229)" stroke-width="2" transform="matrix(1,0,0,-1,0.0,135.0)"/>
 <path d="M0,1 l0,-5" fill="none" stroke="rgb(204,204,204)" stroke-width="2" transform="matrix(1,0,0,-1,7.0,135.0)"/>
 <path d="M0,1 l0,-5" fill="none" stroke="rgb(204,204,204)" stroke-width="2" transform="matrix(1,0,0,-1,113.0,135.0)"/>
 <path d="M256,172 c-86,0,-135,54,-135,127 c0,26,7,48,18,67 l205,-168 c-23,-16,-52,-26,-88,-26 Z M250,105 c122,0,186,77,213,130 l188,-246 l61,40 l-117,152 c-27,36,-47,58,-69,83 l2,3 c9,-3,25,-3,33,-3 c33,1,64,11,86,31 c37,-14,91,-24,141,-24 c40,0,69,3,92,8 l0,-279 l76,0 l0,578 l121,0 l0,64 l-1099,0 l0,-64 l629,0 l0,-186 c0,-46,-23,-65,-66,-65 c-47,0,-74,25,-91,45 l-57,-45 l24,-31 c-5,-15,-16,-40,-35,-63 l-206,170 c23,16,51,24,81,24 c22,0,45,-3,67,-11 l-3,70 c-21,6,-45,8,-69,8 c-108,0,-206,-78,-206,-197 c0,-117,88,-192,204,-192 Z M785,338 c-37,0,-75,5,-107,14 c3,10,4,22,4,34 l0,192 l198,0 l0,-227 c-25,-8,-59,-13,-95,-13 Z M785,338" fill="rgb(0,0,0)" transform="matrix(0.1,0.0,0.0,-0.1,7.0,135.0)"/>
</svg>