<?xml version="1.0" encoding="UTF-8"?>
<svg height="200.0" version="1.1" width="100.0" xmlns="http://www.w3.org/2000/svg" xmlns:xlink="http://www.w3.org/1999/xlink">
 <path d="M0,0 l100,0 l0,200 l-100,0 Z M0,0" fill="rgb(255,255,255)" transform="matrix(1,0,0,-1,0.0,200.0)"/>
 <path d="M0,0 l100,0" fill="none" stroke="rgb(229,229,229)" stroke-width="2" transform="matrix(1,0,0,-1,0.0,135.0)"/>
 <path d="M0,1 l0,-5" fill="none" stroke="rgb(204,204,204)" stroke-width="2" transform="matrix(1,0,0,-1,7.0,135.0)"/>
 <path d="M0,1 l0,-5" fill="none" stroke="rgb(204,204,204)" stroke-width="2" transform="matrix(1,0,0,-1,92.0,135.0)"/>
 <path d="M475,233 l0,92 l199,0 l0,-325 l76,0 l0,578 l121,0 l0,64 l-541,0 l0,-64 l344,0 l0,-185 l-256,0 l-56,-45 c0,-3,0,-6,0,-8 l-169,0 l0,171 c0,85,-54,131,-141,131 l-74,0 l0,-64 l65,0 c53,0,75,-22,75,-72 l0,-168 l-49,-37 c1,-43,24,-102,60,-132 l63,0 l0,102 l189,0 c12,-23,28,-42,47,-54 Z M475,233" fill="rgb(0,0,0)" transform="matrix(0.1,0.0,0.0,-0.1,7.0,135.0)"/>
</svg>