<?xml version="1.0" encoding="UTF-8"?>
<svg height="200.0" version="1.1" width="110.0" xmlns="http://www.w3.org/2000/svg" xmlns:xlink="http://www.w3.org/1999/xlink">
 <path d="M0,0 l110,0 l0,200 l-110,0 Z M0,0" fill="rgb(255,255,255)" transform="matrix(1,0,0,-1,0.0,200.0)"/>
 <path d="M0,0 l110,0" fill="none" stroke="rgb(229,229,229)" stroke-width="2" transform="matrix(1,0,0,-1,0.0,135.0)"/>
 <path d="M0,1 l0,-5" fill="none" stroke="rgb(204,204,204)" stroke-width="2" transform="matrix(1,0,0,-1,7.0,135.0)"/>
 <path d="M0,1 l0,-5" fill="none" stroke="rgb(204,204,204)" stroke-width="2" transform="matrix(1,0,0,-1,102.0,135.0)"/>
 <path d="M771,209 l4,0 l0,-209 l75,0 l0,578 l121,0 l0,64 l-637,0 l0,-64 l152,0 c27,-23,44,-59,44,-95 c0,-51,-35,-82,-99,-103 l-234,0 l0,131 c0,85,-54,131,-141,131 l-78,0 l0,-64 l68,0 c54,0,76,-22,76,-72 l0,-128 l-49,-37 c1,-43,24,-102,60,-132 l63,0 l0,103 l201,0 c4,-16,9,-31,16,-45 l-319,-229 l65,-49 l286,226 c42,-51,100,-78,168,-78 c93,0,140,48,158,72 Z M473,333 c76,18,134,69,134,139 c0,44,-16,76,-40,102 l0,4 l209,0 l0,-208 c0,-105,-64,-164,-152,-164 c-100,0,-143,73,-151,127 Z M473,333" fill="rgb(0,0,0)" transform="matrix(0.1,0.0,0.0,-0.1,7.0,135.0)"/>
</svg>