<?xml version="1.0" encoding="UTF-8"?>
<svg height="200.0" version="1.1" width="102.0" xmlns="http://www.w3.org/2000/svg" xmlns:xlink="http://www.w3.org/1999/xlink">
 <path d="M0,0 l102,0 l0,200 l-102,0 Z M0,0" fill="rgb(255,255,255)" transform="matrix(1,0,0,-1,0.0,200.0)"/>
 <path d="M0,0 l102,0" fill="none" stroke="rgb(229,229,229)" stroke-width="2" transform="matrix(1,0,0,-1,0.0,135.0)"/>
 <path d="M0,1 l0,-5" fill="none" stroke="rgb(204,204,204)" stroke-width="2" transform="matrix(1,0,0,-1,7.0,135.0)"/>
 <path d="M0,1 l0,-5" fill="none" stroke="rgb(204,204,204)" stroke-width="2" transform="matrix(1,0,0,-1,95.0,135.0)"/>
 <path d="M785,578 l121,0 l0,64 l-576,0 l0,-64 l380,0 l0,-250 c0,-81,-51,-145,-132,-145 c-72,0,-117,50,-117,116 c0,89,82,130,165,108 l-6,71 c-100,18,-212,-27,-235,-138 l-192,0 l0,171 c0,85,-54,131,-141,131 l-74,0 l0,-64 l65,0 c53,0,75,-22,75,-72 l0,-168 l-49,-37 c1,-43,24,-102,60,-132 l63,0 l0,102 l191,0 c13,-96,92,-156,181,-156 c75,0,121,34,142,60 l4,0 l0,-175 l75,0 Z M785,578" fill="rgb(0,0,0)" transform="matrix(0.1,0.0,0.0,-0.1,7.0,135.0)"/>
</svg>