<?xml version="1.0" encoding="UTF-8"?>
<svg height="200.0" version="1.1" width="144.0" xmlns="http://www.w3.org/2000/svg" xmlns:xlink="http://www.w3.org/1999/xlink">
 <path d="M0,0 l144,0 l0,200 l-144,0 Z M0,0" fill="rgb(255,255,255)" transform="matrix(1,0,0,-1,0.0,200.0)"/>
 <path d="M0,0 l144,0" fill="none" stroke="rgb(229,229,229)" stroke-width="2" transform="matrix(1,0,0,-1,0.0,135.0)"/>
 <path d="M0,1 l0,-5" fill="none" stroke="rgb(204,204,204)" stroke-width="2" transform="matrix(1,0,0,-1,7.0,135.0)"/>
 <path d="M0,1 l0,-5" fill="none" stroke="rgb(204,204,204)" stroke-width="2" transform="matrix(1,0,0,-1,137.0,135.0)"/>
 <path d="M583,105 c110,0,173,63,204,114 c41,-53,102,-82,171,-82 c93,0,140,48,158,72 l4,0 l0,-209 l76,0 l0,578 l121,0 l0,64 l-1339,0 l0,-64 l140,0 l0,-240 l-49,-37 c1,-43,24,-102,60,-132 l63,0 l0,102 l189,0 c12,-102,95,-166,202,-166 Z M589,172 c-86,0,-135,54,-135,127 c0,26,7,48,18,67 l205,-168 c-23,-16,-52,-26,-88,-26 Z M590,427 c22,0,45,-3,67,-11 l-3,70 c-21,6,-45,8,-69,8 c-94,0,-181,-60,-201,-154 l-191,0 l0,238 l639,0 c26,-23,43,-59,43,-95 c0,-62,-52,-95,-144,-115 c3,-28,9,-53,17,-76 c-6,-16,-16,-38,-33,-59 l-206,170 c23,16,51,24,81,24 Z M818,333 c77,18,134,69,134,139 c0,44,-16,76,-40,102 l0,4 l209,0 l0,-208 c0,-105,-64,-164,-152,-164 c-100,0,-143,73,-151,127 Z M818,333" fill="rgb(0,0,0)" transform="matrix(0.1,0.0,0.0,-0.1,7.0,135.0)"/>
</svg>