<?xml version="1.0" encoding="UTF-8"?>
<svg height="200.0" version="1.1" width="124.0" xmlns="http://www.w3.org/2000/svg" xmlns:xlink="http://www.w3.org/1999/xlink">
 <path d="M0,0 l124,0 l0,200 l-124,0 Z M0,0" fill="rgb(255,255,255)" transform="matrix(1,0,0,-1,0.0,200.0)"/>
 <path d="M0,0 l124,0" fill="none" stroke="rgb(229,229,229)" stroke-width="2" transform="matrix(1,0,0,-1,0.0,135.0)"/>
 <path d="M0,1 l0,-5" fill="none" stroke="rgb(204,204,204)" stroke-width="2" transform="matrix(1,0,0,-1,7.0,135.0)"/>
 <path d="M0,1 l0,-5" fill="none" stroke="rgb(204,204,204)" stroke-width="2" transform="matrix(1,0,0,-1,116.0,135.0)"/>
 <path d="M745,32 l-132,128 c-48,46,-73,64,-101,88 l2,4 c148,-10,275,70,275,219 c0,93,-59,181,-173,181 c-91,0,-154,-63,-154,-139 c0,-57,32,-104,88,-120 l46,52 c-39,9,-57,39,-57,69 c0,41,29,72,79,72 c48,0,94,-40,94,-116 c0,-97,-78,-154,-182,-154 c-30,0,-70,5,-102,17 l-12,8 l-223,0 l0,237 l162,0 l0,64 l-377,0 l0,-64 l140,0 l0,-239 l-49,-36 c1,-43,24,-103,60,-133 l63,0 l0,102 l1,0 l0,1 l189,0 l0,-1 l70,-59 l231,-224 Z M987,0 l0,578 l121,0 l0,64 l-197,0 l0,-642 Z M987,0" fill="rgb(0,0,0)" transform="matrix(0.1,0.0,0.0,-0.1,7.0,135.0)"/>
</svg>