<?xml version="1.0" encoding="UTF-8"?>
<svg height="200.0" version="1.1" width="98.0" xmlns="http://www.w3.org/2000/svg" xmlns:xlink="http://www.w3.org/1999/xlink">
 <path d="M0,0 l98,0 l0,200 l-98,0 Z M0,0" fill="rgb(255,255,255)" transform="matrix(1,0,0,-1,0.0,200.0)"/>
 <path d="M0,0 l98,0" fill="none" stroke="rgb(229,229,229)" stroke-width="2" transform="matrix(1,0,0,-1,0.0,135.0)"/>
 <path d="M0,1 l0,-5" fill="none" stroke="rgb(204,204,204)" stroke-width="2" transform="matrix(1,0,0,-1,7.0,135.0)"/>
 <path d="M0,1 l0,-5" fill="none" stroke="rgb(204,204,204)" stroke-width="2" transform="matrix(1,0,0,-1,91.0,135.0)"/>
 <path d="M682,578 l0,-99 l-156,0 c-78,0,-122,-43,-122,-102 c0,-13,2,-25,5,-37 l-216,0 l0,238 Z M742,56 c26,23,48,59,48,106 c0,71,-53,137,-164,137 c-33,0,-63,-5,-89,-15 c-33,19,-56,51,-56,83 c0,26,15,47,61,47 l214,0 l0,164 l106,0 l0,64 l-884,0 l0,-64 l140,0 l0,-240 l-49,-37 c1,-43,24,-102,60,-132 l63,0 l0,102 l261,0 c7,-7,16,-13,24,-19 c-40,-31,-63,-75,-63,-122 c0,-126,120,-199,314,-213 l32,65 c-202,11,-270,73,-270,146 c0,59,55,104,139,104 c58,0,87,-30,87,-67 c0,-27,-15,-51,-39,-71 Z M742,56" fill="rgb(0,0,0)" transform="matrix(0.1,0.0,0.0,-0.1,7.0,135.0)"/>
</svg>