<?xml version="1.0" encoding="UTF-8"?>
<svg height="200.0" version="1.1" width="102.0" xmlns="http://www.w3.org/2000/svg" xmlns:xlink="http://www.w3.org/1999/xlink">
 <path d="M0,0 l102,0 l0,200 l-102,0 Z M0,0" fill="rgb(255,255,255)" transform="matrix(1,0,0,-1,0.0,200.0)"/>
 <path d="M0,0 l102,0" fill="none" stroke="rgb(229,229,229)" stroke-width="2" transform="matrix(1,0,0,-1,0.0,135.0)"/>
 <path d="M0,1 l0,-5" fill="none" stroke="rgb(204,204,204)" stroke-width="2" transform="matrix(1,0,0,-1,7.0,135.0)"/>
 <path d="M0,1 l0,-5" fill="none" stroke="rgb(204,204,204)" stroke-width="2" transform="matrix(1,0,0,-1,95.0,135.0)"/>
 <path d="M282,137 c91,0,150,36,191,83 l36,13 l0,92 l200,0 l0,-325 l75,0 l0,578 l121,0 l0,64 l-927,0 l0,-64 l169,0 c26,-23,43,-59,43,-95 c0,-62,-52,-95,-144,-115 c16,-148,113,-231,236,-231 Z M289,206 c-104,0,-148,74,-156,127 c77,18,134,69,134,139 c0,44,-16,76,-40,102 l0,4 l482,0 l0,-185 l-256,0 l-56,-45 c0,-31,9,-62,23,-86 c-28,-31,-69,-56,-131,-56 Z M289,206" fill="rgb(0,0,0)" transform="matrix(0.1,0.0,0.0,-0.1,7.0,135.0)"/>
</svg>