<?xml version="1.0" encoding="UTF-8"?>
<svg height="200.0" version="1.1" width="82.0" xmlns="http://www.w3.org/2000/svg" xmlns:xlink="http://www.w3.org/1999/xlink">
 <path d="M0,0 l82,0 l0,200 l-82,0 Z M0,0" fill="rgb(255,255,255)" transform="matrix(1,0,0,-1,0.0,200.0)"/>
 <path d="M0,0 l82,0" fill="none" stroke="rgb(229,229,229)" stroke-width="2" transform="matrix(1,0,0,-1,0.0,135.0)"/>
 <path d="M0,1 l0,-5" fill="none" stroke="rgb(204,204,204)" stroke-width="2" transform="matrix(1,0,0,-1,8.0,135.0)"/>
 <path d="M0,1 l0,-5" fill="none" stroke="rgb(204,204,204)" stroke-width="2" transform="matrix(1,0,0,-1,76.0,135.0)"/>
 <path d="M579,56 c25,23,48,59,48,106 c0,71,-54,137,-165,137 c-33,0,-63,-5,-89,-15 c-33,19,-56,51,-56,83 c0,26,15,47,61,47 l214,0 l0,164 l106,0 l0,64 l-720,0 l0,-64 l540,0 l0,-99 l-156,0 c-78,0,-122,-43,-122,-102 c0,-6,0,-12,1,-17 c-32,-13,-69,-23,-107,-23 c-66,0,-107,25,-131,44 l-28,-54 c23,-21,80,-55,161,-55 c51,0,95,12,130,26 c13,-19,30,-34,47,-46 c-40,-31,-63,-75,-63,-122 c0,-126,120,-199,314,-213 l32,65 c-202,11,-270,73,-270,146 c0,59,55,104,139,104 c58,0,88,-30,88,-67 c0,-27,-16,-51,-40,-71 Z M579,56" fill="rgb(0,0,0)" transform="matrix(0.1,0.0,0.0,-0.1,8.0,135.0)"/>
</svg>