<?xml version="1.0" encoding="UTF-8"?>
<svg height="200.0" version="1.1" width="178.0" xmlns="http://www.w3.org/2000/svg" xmlns:xlink="http://www.w3.org/1999/xlink">
 <path d="M0,0 l178,0 l0,200 l-178,0 Z M0,0" fill="rgb(255,255,255)" transform="matrix(1,0,0,-1,0.0,200.0)"/>
 <path d="M0,0 l178,0" fill="none" stroke="rgb(229,229,229)" stroke-width="2" transform="matrix(1,0,0,-1,0.0,135.0)"/>
 <path d="M0,1 l0,-5" fill="none" stroke="rgb(204,204,204)" stroke-width="2" transform="matrix(1,0,0,-1,7.0,135.0)"/>
 <path d="M0,1 l0,-5" fill="none" stroke="rgb(204,204,204)" stroke-width="2" transform="matrix(1,0,0,-1,171.0,135.0)"/>
 <path d="M214,452 c-82,0,-161,-63,-161,-181 c0,-125,81,-226,177,-278 l51,54 c-98,53,-150,131,-150,222 c0,80,42,114,90,114 c50,0,82,-32,82,-97 l0,-95 l73,0 l0,96 c0,65,35,100,88,100 c21,0,38,-5,53,-13 c-11,-22,-17,-48,-17,-77 c0,-102,79,-171,169,-171 c70,0,111,33,130,57 l4,0 l0,-183 l74,0 l0,274 c0,77,49,125,117,125 c43,0,70,-20,84,-46 c21,-137,111,-216,226,-216 c92,0,140,48,158,72 l4,0 l0,-209 l75,0 l0,578 l121,0 l0,64 l-1684,0 l0,-64 l825,0 l0,-258 c0,-75,-48,-126,-119,-126 c-63,0,-106,44,-106,104 c0,85,75,115,144,103 l-11,69 c-58,7,-114,-8,-153,-42 c-25,16,-58,28,-99,28 c-60,0,-103,-35,-118,-84 l-4,0 c-15,48,-58,80,-123,80 Z M1009,468 c-66,0,-108,-31,-128,-57 l-4,0 l0,167 l300,0 c26,-23,43,-59,43,-95 c0,-45,-27,-74,-77,-95 c-26,49,-71,80,-134,80 Z M1163,333 c77,18,135,69,135,139 c0,44,-16,76,-41,102 l0,4 l210,0 l0,-208 c0,-105,-64,-164,-152,-164 c-100,0,-144,73,-152,127 Z M1163,333" fill="rgb(0,0,0)" transform="matrix(0.1,0.0,0.0,-0.1,7.0,135.0)"/>
</svg>