<?xml version="1.0" encoding="UTF-8"?>
<svg height="200.0" version="1.1" width="140.0" xmlns="http://www.w3.org/2000/svg" xmlns:xlink="http://www.w3.org/1999/xlink">
 <path d="M0,0 l140,0 l0,200 l-140,0 Z M0,0" fill="rgb(255,255,255)" transform="matrix(1,0,0,-1,0.0,200.0)"/>
 <path d="M0,0 l140,0" fill="none" stroke="rgb(229,229,229)" stroke-width="2" transform="matrix(1,0,0,-1,0.0,135.0)"/>
 <path d="M0,1 l0,-5" fill="none" stroke="rgb(204,204,204)" stroke-width="2" transform="matrix(1,0,0,-1,7.0,135.0)"/>
 <path d="M0,1 l0,-5" fill="none" stroke="rgb(204,204,204)" stroke-width="2" transform="matrix(1,0,0,-1,132.0,135.0)"/>
 <path d="M214,452 c-82,0,-161,-63,-161,-181 c0,-125,81,-226,177,-278 l51,54 c-98,53,-150,131,-150,222 c0,80,42,114,90,114 c50,0,82,-32,82,-97 l0,-95 l73,0 l0,96 c0,65,35,100,88,100 c21,0,38,-4,50,-13 c19,-194,135,-345,332,-345 c109,0,190,49,233,102 l4,0 l0,-131 l72,0 l0,578 l120,0 l0,64 l-1297,0 l0,-64 l719,0 l0,-166 c0,-43,-20,-59,-50,-59 c-35,0,-54,19,-67,43 l-7,20 c-25,23,-62,40,-114,40 c-60,0,-103,-35,-118,-84 l-4,0 c-15,48,-58,80,-123,80 Z M1078,459 c-18,18,-47,34,-97,34 c-85,0,-155,-64,-155,-154 c0,-93,73,-145,142,-150 l40,53 c-68,3,-110,42,-110,96 c0,53,37,89,91,89 c50,0,96,-39,96,-110 c0,-139,-109,-221,-237,-221 c-120,0,-215,75,-243,206 c12,-6,28,-11,55,-11 c63,0,111,44,111,124 l0,163 l311,0 l0,-119 Z M1078,459" fill="rgb(0,0,0)" transform="matrix(0.1,0.0,0.0,-0.1,7.0,135.0)"/>
</svg>