<?xml version="1.0" encoding="UTF-8"?>
<svg height="200.0" version="1.1" width="124.0" xmlns="http://www.w3.org/2000/svg" xmlns:xlink="http://www.w3.org/1999/xlink">
 <path d="M0,0 l124,0 l0,200 l-124,0 Z M0,0" fill="rgb(255,255,255)" transform="matrix(1,0,0,-1,0.0,200.0)"/>
 <path d="M0,0 l124,0" fill="none" stroke="rgb(229,229,229)" stroke-width="2" transform="matrix(1,0,0,-1,0.0,135.0)"/>
 <path d="M0,1 l0,-5" fill="none" stroke="rgb(204,204,204)" stroke-width="2" transform="matrix(1,0,0,-1,7.0,135.0)"/>
 <path d="M0,1 l0,-5" fill="none" stroke="rgb(204,204,204)" stroke-width="2" transform="matrix(1,0,0,-1,117.0,135.0)"/>
 <path d="M213,466 c-82,0,-160,-65,-160,-183 c0,-125,80,-229,176,-281 l52,54 c-98,53,-150,134,-150,225 c0,80,41,116,89,116 c50,0,83,-32,83,-96 l0,-96 l73,0 l0,97 c0,64,28,101,77,101 c29,0,51,-13,64,-26 l91,0 l0,-4 c-19,-13,-51,-45,-51,-107 c0,-88,73,-164,188,-164 c99,0,153,47,175,77 l4,0 l0,-179 l76,0 l0,578 l120,0 l0,64 l-1142,0 l0,-64 l946,0 l0,-227 c0,-112,-70,-181,-167,-181 c-74,0,-121,44,-121,103 c0,62,43,105,119,105 l78,0 l0,67 l-305,0 c-15,11,-43,26,-78,26 c-59,0,-98,-39,-109,-85 l-4,0 c-15,48,-59,80,-124,80 Z M213,466" fill="rgb(0,0,0)" transform="matrix(0.1,0.0,0.0,-0.1,7.0,135.0)"/>
</svg>