<?xml version="1.0" encoding="UTF-8"?>
<svg height="200.0" version="1.1" width="110.0" xmlns="http://www.w3.org/2000/svg" xmlns:xlink="http://www.w3.org/1999/xlink">
 <path d="M0,0 l110,0 l0,200 l-110,0 Z M0,0" fill="rgb(255,255,255)" transform="matrix(1,0,0,-1,0.0,200.0)"/>
 <path d="M0,0 l110,0" fill="none" stroke="rgb(229,229,229)" stroke-width="2" transform="matrix(1,0,0,-1,0.0,135.0)"/>
 <path d="M0,1 l0,-5" fill="none" stroke="rgb(204,204,204)" stroke-width="2" transform="matrix(1,0,0,-1,7.0,135.0)"/>
 <path d="M0,1 l0,-5" fill="none" stroke="rgb(204,204,204)" stroke-width="2" transform="matrix(1,0,0,-1,103.0,135.0)"/>
 <path d="M214,452 c-82,0,-161,-63,-161,-181 c0,-125,81,-226,177,-278 l51,54 c-98,53,-150,131,-150,222 c0,80,42,114,90,114 c50,0,82,-32,82,-97 l0,-95 l73,0 l0,96 c0,65,35,100,88,100 c31,0,56,-12,72,-25 c-22,-26,-32,-58,-32,-99 c0,-116,102,-222,244,-222 c71,0,141,21,192,72 l-42,61 c-37,-40,-85,-64,-159,-64 c-100,0,-158,70,-158,139 c0,57,20,92,116,121 l145,42 l0,166 l139,0 l0,64 l-1003,0 l0,-64 l788,0 l0,-113 l-118,-36 c-23,-7,-43,-15,-61,-25 c-26,27,-69,52,-128,52 c-60,0,-103,-35,-118,-84 l-4,0 c-15,48,-58,80,-123,80 Z M214,452" fill="rgb(0,0,0)" transform="matrix(0.1,0.0,0.0,-0.1,7.0,135.0)"/>
</svg>