<?xml version="1.0" encoding="UTF-8"?>
<svg height="200.0" version="1.1" width="118.0" xmlns="http://www.w3.org/2000/svg" xmlns:xlink="http://www.w3.org/1999/xlink">
 <path d="M0,0 l118,0 l0,200 l-118,0 Z M0,0" fill="rgb(255,255,255)" transform="matrix(1,0,0,-1,0.0,200.0)"/>
 <path d="M0,0 l118,0" fill="none" stroke="rgb(229,229,229)" stroke-width="2" transform="matrix(1,0,0,-1,0.0,135.0)"/>
 <path d="M0,1 l0,-5" fill="none" stroke="rgb(204,204,204)" stroke-width="2" transform="matrix(1,0,0,-1,7.0,135.0)"/>
 <path d="M0,1 l0,-5" fill="none" stroke="rgb(204,204,204)" stroke-width="2" transform="matrix(1,0,0,-1,110.0,135.0)"/>
 <path d="M214,452 c-82,0,-161,-63,-161,-181 c0,-125,81,-226,177,-278 l51,54 c-98,53,-150,131,-150,222 c0,80,42,114,90,114 c50,0,82,-32,82,-97 l0,-95 l73,0 l0,96 c0,65,35,100,88,100 c31,0,55,-12,71,-25 c-22,-26,-33,-59,-33,-101 c0,-121,101,-220,241,-220 c142,0,239,91,239,207 c0,108,-82,169,-142,195 l0,135 l211,0 l0,64 l-1073,0 l0,-64 l786,0 l0,-114 l-116,-36 c-23,-7,-43,-15,-60,-24 c-27,27,-70,52,-129,52 c-60,0,-103,-35,-118,-84 l-4,0 c-15,48,-58,80,-123,80 Z M734,110 c-101,0,-155,70,-155,139 c0,57,20,93,117,121 l80,24 c49,-11,130,-54,130,-140 c0,-76,-54,-144,-172,-144 Z M734,110" fill="rgb(0,0,0)" transform="matrix(0.1,0.0,0.0,-0.1,7.0,135.0)"/>
</svg>