<?xml version="1.0" encoding="UTF-8"?>
<svg height="200.0" version="1.1" width="114.0" xmlns="http://www.w3.org/2000/svg" xmlns:xlink="http://www.w3.org/1999/xlink">
 <path d="M0,0 l114,0 l0,200 l-114,0 Z M0,0" fill="rgb(255,255,255)" transform="matrix(1,0,0,-1,0.0,200.0)"/>
 <path d="M0,0 l114,0" fill="none" stroke="rgb(229,229,229)" stroke-width="2" transform="matrix(1,0,0,-1,0.0,135.0)"/>
 <path d="M0,1 l0,-5" fill="none" stroke="rgb(204,204,204)" stroke-width="2" transform="matrix(1,0,0,-1,7.0,135.0)"/>
 <path d="M0,1 l0,-5" fill="none" stroke="rgb(204,204,204)" stroke-width="2" transform="matrix(1,0,0,-1,107.0,135.0)"/>
 <path d="M214,452 c-82,0,-161,-63,-161,-181 c0,-125,81,-226,177,-278 l51,54 c-98,53,-150,131,-150,222 c0,80,42,114,90,114 c50,0,82,-32,82,-97 l0,-95 l73,0 l0,96 c0,65,36,100,90,100 c47,0,79,-25,92,-39 c12,-65,64,-117,127,-139 l156,33 c19,-15,28,-37,28,-63 c0,-64,-51,-101,-123,-101 c-88,0,-158,57,-200,139 l-56,-42 c53,-96,140,-163,255,-163 c120,0,198,75,198,167 c0,63,-35,115,-78,135 l-168,-34 c-36,10,-64,45,-64,79 c0,33,15,55,74,55 l181,0 l0,164 l130,0 l0,64 l-1040,0 l0,-64 l836,0 l0,-99 l-143,0 c-51,0,-87,-21,-104,-55 c-26,18,-60,32,-105,32 c-60,0,-106,-35,-121,-84 l-4,0 c-15,48,-58,80,-123,80 Z M214,452" fill="rgb(0,0,0)" transform="matrix(0.1,0.0,0.0,-0.1,7.0,135.0)"/>
</svg>