<?xml version="1.0" encoding="UTF-8"?>
<svg height="200.0" version="1.1" width="112.0" xmlns="http://www.w3.org/2000/svg" xmlns:xlink="http://www.w3.org/1999/xlink">
 <path d="M0,0 l112,0 l0,200 l-112,0 Z M0,0" fill="rgb(255,255,255)" transform="matrix(1,0,0,-1,0.0,200.0)"/>
 <path d="M0,0 l112,0" fill="none" stroke="rgb(229,229,229)" stroke-width="2" transform="matrix(1,0,0,-1,0.0,135.0)"/>
 <path d="M0,1 l0,-5" fill="none" stroke="rgb(204,204,204)" stroke-width="2" transform="matrix(1,0,0,-1,7.0,135.0)"/>
 <path d="M0,1 l0,-5" fill="none" stroke="rgb(204,204,204)" stroke-width="2" transform="matrix(1,0,0,-1,105.0,135.0)"/>
 <path d="M214,452 c-82,0,-161,-63,-161,-181 c0,-125,81,-226,177,-278 l51,54 c-98,53,-150,131,-150,222 c0,80,42,114,90,114 c50,0,82,-32,82,-97 l0,-95 l73,0 l0,96 c0,65,35,100,88,100 c28,0,51,-10,66,-21 c-18,-28,-28,-60,-28,-97 c0,-126,112,-231,254,-231 c103,0,174,70,174,152 c0,68,-55,123,-127,123 c-82,0,-122,-62,-122,-112 l61,-32 c-6,39,15,75,58,75 c33,0,56,-25,56,-55 c0,-48,-37,-83,-102,-83 c-106,0,-174,78,-174,156 c0,58,24,104,117,128 l167,44 l0,144 l139,0 l0,64 l-1025,0 l0,-64 l810,0 l0,-91 l-136,-39 c-28,-8,-54,-19,-75,-34 c-27,23,-66,42,-118,42 c-60,0,-103,-35,-118,-84 l-4,0 c-15,48,-58,80,-123,80 Z M214,452" fill="rgb(0,0,0)" transform="matrix(0.1,0.0,0.0,-0.1,7.0,135.0)"/>
</svg>