<?xml version="1.0" encoding="UTF-8"?>
<svg height="200.0" version="1.1" width="128.0" xmlns="http://www.w3.org/2000/svg" xmlns:xlink="http://www.w3.org/1999/xlink">
 <path d="M0,0 l128,0 l0,200 l-128,0 Z M0,0" fill="rgb(255,255,255)" transform="matrix(1,0,0,-1,0.0,200.0)"/>
 <path d="M0,0 l128,0" fill="none" stroke="rgb(229,229,229)" stroke-width="2" transform="matrix(1,0,0,-1,0.0,135.0)"/>
 <path d="M0,1 l0,-5" fill="none" stroke="rgb(204,204,204)" stroke-width="2" transform="matrix(1,0,0,-1,7.0,135.0)"/>
 <path d="M0,1 l0,-5" fill="none" stroke="rgb(204,204,204)" stroke-width="2" transform="matrix(1,0,0,-1,120.0,135.0)"/>
 <path d="M477,642 l-499,0 l0,-64 l499,0 Z M453,384 c44,0,64,-27,70,-59 c17,-126,105,-221,244,-221 c103,0,165,51,189,88 l4,0 l0,-192 l75,0 l0,578 l121,0 l0,64 l-195,0 l0,-276 c0,-102,-62,-193,-189,-193 c-115,0,-156,94,-161,135 c20,5,39,10,59,16 c127,35,194,96,194,188 c0,81,-55,140,-144,140 c-84,0,-143,-59,-143,-130 c0,-39,16,-69,32,-84 l70,21 c-15,14,-27,39,-27,60 c0,41,29,65,68,65 c43,0,69,-28,69,-70 c0,-55,-26,-96,-167,-136 l-40,-11 c-12,45,-53,87,-125,87 c-53,0,-103,-34,-116,-83 l-4,0 c-15,48,-58,81,-123,81 c-82,0,-161,-63,-161,-181 c0,-125,81,-226,177,-278 l51,54 c-98,53,-150,131,-150,222 c0,80,42,114,90,114 c50,0,82,-32,82,-97 l0,-95 l73,0 l0,97 c0,65,35,96,77,96 Z M453,384" fill="rgb(0,0,0)" transform="matrix(0.1,0.0,0.0,-0.1,7.0,135.0)"/>
</svg>