<?xml version="1.0" encoding="UTF-8"?>
<svg height="200.0" version="1.1" width="166.0" xmlns="http://www.w3.org/2000/svg" xmlns:xlink="http://www.w3.org/1999/xlink">
 <path d="M0,0 l166,0 l0,200 l-166,0 Z M0,0" fill="rgb(255,255,255)" transform="matrix(1,0,0,-1,0.0,200.0)"/>
 <path d="M0,0 l166,0" fill="none" stroke="rgb(229,229,229)" stroke-width="2" transform="matrix(1,0,0,-1,0.0,135.0)"/>
 <path d="M0,1 l0,-5" fill="none" stroke="rgb(204,204,204)" stroke-width="2" transform="matrix(1,0,0,-1,7.0,135.0)"/>
 <path d="M0,1 l0,-5" fill="none" stroke="rgb(204,204,204)" stroke-width="2" transform="matrix(1,0,0,-1,158.0,135.0)"/>
 <path d="M479,642 l-501,0 l0,-64 l501,0 Z M449,379 c35,0,52,-22,60,-55 c18,-125,114,-219,256,-219 c120,0,196,53,238,112 c42,-52,101,-80,170,-80 c93,0,140,48,158,72 l4,0 l0,-209 l75,0 l0,578 l121,0 l0,64 l-594,0 l0,-64 l109,0 c26,-23,44,-59,44,-95 c0,-62,-52,-95,-144,-115 c3,-32,11,-61,21,-87 c-31,-54,-94,-107,-198,-107 c-118,0,-168,90,-173,134 c21,5,40,10,60,16 c127,36,198,100,198,189 c0,80,-59,139,-147,139 c-84,0,-142,-59,-142,-130 c0,-39,17,-69,32,-84 l70,21 c-15,14,-27,39,-27,60 c0,41,28,65,67,65 c42,0,72,-27,72,-70 c0,-54,-31,-95,-172,-136 l-39,-11 c-22,54,-62,82,-121,82 c-45,0,-93,-30,-106,-77 l-4,0 c-15,48,-58,80,-123,80 c-82,0,-161,-63,-161,-181 c0,-125,81,-226,177,-278 l51,54 c-98,53,-150,131,-150,222 c0,80,42,114,90,114 c50,0,82,-32,82,-97 l0,-95 l73,0 l0,96 c0,68,36,92,73,92 Z M1033,333 c76,18,134,69,134,139 c0,44,-16,76,-40,102 l0,4 l209,0 l0,-208 c0,-105,-64,-164,-152,-164 c-100,0,-143,73,-151,127 Z M1033,333" fill="rgb(0,0,0)" transform="matrix(0.1,0.0,0.0,-0.1,7.0,135.0)"/>
</svg>