<?xml version="1.0" encoding="UTF-8"?>
<svg height="200.0" version="1.1" width="112.0" xmlns="http://www.w3.org/2000/svg" xmlns:xlink="http://www.w3.org/1999/xlink">
 <path d="M0,0 l112,0 l0,200 l-112,0 Z M0,0" fill="rgb(255,255,255)" transform="matrix(1,0,0,-1,0.0,200.0)"/>
 <path d="M0,0 l112,0" fill="none" stroke="rgb(229,229,229)" stroke-width="2" transform="matrix(1,0,0,-1,0.0,135.0)"/>
 <path d="M0,1 l0,-5" fill="none" stroke="rgb(204,204,204)" stroke-width="2" transform="matrix(1,0,0,-1,7.0,135.0)"/>
 <path d="M0,1 l0,-5" fill="none" stroke="rgb(204,204,204)" stroke-width="2" transform="matrix(1,0,0,-1,105.0,135.0)"/>
 <path d="M214,452 c-82,0,-161,-63,-161,-181 c0,-125,81,-226,177,-278 l51,54 c-98,53,-150,131,-150,222 c0,80,42,114,90,114 c50,0,82,-32,82,-97 l0,-95 l73,0 l0,96 c0,65,35,100,88,100 c26,0,46,-8,62,-18 c-16,-24,-23,-54,-23,-88 c0,-103,77,-194,193,-197 l0,-4 l-178,-101 l68,-56 l244,172 l66,-129 l90,22 l-106,140 c16,17,35,38,35,82 c0,42,-28,70,-51,81 l-56,-20 l0,-101 c-19,-17,-47,-27,-89,-27 c-84,0,-139,58,-139,127 c0,61,28,97,117,119 l157,39 l0,150 l149,0 l0,64 l-1025,0 l0,-64 l800,0 l0,-97 l-121,-31 c-33,-8,-61,-20,-83,-34 c-27,22,-65,40,-115,40 c-60,0,-103,-35,-118,-84 l-4,0 c-15,48,-58,80,-123,80 Z M214,452" fill="rgb(0,0,0)" transform="matrix(0.1,0.0,0.0,-0.1,7.0,135.0)"/>
</svg>