<?xml version="1.0" encoding="UTF-8"?>
<svg height="200.0" version="1.1" width="112.0" xmlns="http://www.w3.org/2000/svg" xmlns:xlink="http://www.w3.org/1999/xlink">
 <path d="M0,0 l112,0 l0,200 l-112,0 Z M0,0" fill="rgb(255,255,255)" transform="matrix(1,0,0,-1,0.0,200.0)"/>
 <path d="M0,0 l112,0" fill="none" stroke="rgb(229,229,229)" stroke-width="2" transform="matrix(1,0,0,-1,0.0,135.0)"/>
 <path d="M0,1 l0,-5" fill="none" stroke="rgb(204,204,204)" stroke-width="2" transform="matrix(1,0,0,-1,7.0,135.0)"/>
 <path d="M0,1 l0,-5" fill="none" stroke="rgb(204,204,204)" stroke-width="2" transform="matrix(1,0,0,-1,104.0,135.0)"/>
 <path d="M274,40 c-94,53,-143,130,-143,218 c0,80,42,114,90,114 c50,0,82,-32,82,-97 l0,-95 l73,0 l0,96 c0,65,35,100,88,100 c5,0,13,-1,19,-2 c1,-68,27,-119,64,-142 l47,16 l0,90 l199,0 l0,-338 l76,0 l0,578 l121,0 l0,64 l-1012,0 l0,-64 l815,0 l0,-172 l-221,0 c-27,22,-64,39,-113,39 c-60,0,-103,-35,-118,-84 l-4,0 c-15,48,-58,79,-123,79 c-82,0,-161,-62,-161,-180 c0,-122,75,-220,168,-273 Z M274,40" fill="rgb(0,0,0)" transform="matrix(0.1,0.0,0.0,-0.1,7.0,135.0)"/>
</svg>