<?xml version="1.0" encoding="UTF-8"?>
<svg height="200.0" version="1.1" width="140.0" xmlns="http://www.w3.org/2000/svg" xmlns:xlink="http://www.w3.org/1999/xlink">
 <path d="M0,0 l140,0 l0,200 l-140,0 Z M0,0" fill="rgb(255,255,255)" transform="matrix(1,0,0,-1,0.0,200.0)"/>
 <path d="M0,0 l140,0" fill="none" stroke="rgb(229,229,229)" stroke-width="2" transform="matrix(1,0,0,-1,0.0,135.0)"/>
 <path d="M0,1 l0,-5" fill="none" stroke="rgb(204,204,204)" stroke-width="2" transform="matrix(1,0,0,-1,7.0,135.0)"/>
 <path d="M0,1 l0,-5" fill="none" stroke="rgb(204,204,204)" stroke-width="2" transform="matrix(1,0,0,-1,132.0,135.0)"/>
 <path d="M214,452 c-82,0,-161,-63,-161,-181 c0,-125,81,-226,177,-278 l51,54 c-98,53,-150,131,-150,222 c0,80,42,114,90,114 c50,0,82,-32,82,-97 l0,-95 l73,0 l0,96 c0,65,35,100,88,100 c35,0,61,-15,77,-29 l0,-2 c0,-106,63,-163,156,-163 c68,0,108,32,125,59 l4,0 l0,-252 l74,0 l0,260 c0,83,54,140,126,140 c63,0,105,-41,105,-103 c0,-73,-54,-127,-145,-110 l12,-70 c115,-14,211,61,211,181 c0,103,-77,171,-170,171 c-72,0,-117,-37,-135,-61 l-4,0 l0,170 l372,0 l0,64 l-1294,0 l0,-64 l563,0 l0,-140 c-22,11,-50,18,-82,18 c-60,0,-103,-35,-118,-84 l-4,0 c-15,48,-58,80,-123,80 Z M826,398 c0,-83,-47,-136,-121,-136 c-57,0,-89,30,-89,105 l0,211 l210,0 Z M826,398" fill="rgb(0,0,0)" transform="matrix(0.1,0.0,0.0,-0.1,7.0,135.0)"/>
</svg>