<?xml version="1.0" encoding="UTF-8"?>
<svg height="200.0" version="1.1" width="116.0" xmlns="http://www.w3.org/2000/svg" xmlns:xlink="http://www.w3.org/1999/xlink">
 <path d="M0,0 l116,0 l0,200 l-116,0 Z M0,0" fill="rgb(255,255,255)" transform="matrix(1,0,0,-1,0.0,200.0)"/>
 <path d="M0,0 l116,0" fill="none" stroke="rgb(229,229,229)" stroke-width="2" transform="matrix(1,0,0,-1,0.0,135.0)"/>
 <path d="M0,1 l0,-5" fill="none" stroke="rgb(204,204,204)" stroke-width="2" transform="matrix(1,0,0,-1,7.0,135.0)"/>
 <path d="M0,1 l0,-5" fill="none" stroke="rgb(204,204,204)" stroke-width="2" transform="matrix(1,0,0,-1,109.0,135.0)"/>
 <path d="M214,452 c-82,0,-161,-63,-161,-181 c0,-125,81,-226,177,-278 l51,54 c-98,53,-150,131,-150,222 c0,80,42,114,90,114 c50,0,82,-32,82,-97 l0,-95 l73,0 l0,96 c0,65,35,100,88,100 c21,0,38,-5,52,-13 c-9,-23,-15,-49,-15,-77 c0,-113,86,-193,194,-193 c77,0,126,36,149,65 l4,0 l0,-169 l76,0 l0,578 l120,0 l0,64 l-1066,0 l0,-64 l870,0 l0,-267 c0,-26,-6,-50,-18,-71 l-199,164 c23,15,51,23,81,23 c22,0,45,-3,67,-11 l-3,70 c-21,6,-45,8,-69,8 c-59,0,-115,-23,-153,-63 c-25,15,-56,25,-95,25 c-60,0,-103,-35,-118,-84 l-4,0 c-15,48,-58,80,-123,80 Z M705,171 c-79,0,-129,55,-129,128 c0,26,7,48,18,67 l202,-166 c-24,-18,-55,-29,-91,-29 Z M705,171" fill="rgb(0,0,0)" transform="matrix(0.1,0.0,0.0,-0.1,7.0,135.0)"/>
</svg>