<?xml version="1.0" encoding="UTF-8"?>
<svg height="200.0" version="1.1" width="122.0" xmlns="http://www.w3.org/2000/svg" xmlns:xlink="http://www.w3.org/1999/xlink">
 <path d="M0,0 l122,0 l0,200 l-122,0 Z M0,0" fill="rgb(255,255,255)" transform="matrix(1,0,0,-1,0.0,200.0)"/>
 <path d="M0,0 l122,0" fill="none" stroke="rgb(229,229,229)" stroke-width="2" transform="matrix(1,0,0,-1,0.0,135.0)"/>
 <path d="M0,1 l0,-5" fill="none" stroke="rgb(204,204,204)" stroke-width="2" transform="matrix(1,0,0,-1,7.0,135.0)"/>
 <path d="M0,1 l0,-5" fill="none" stroke="rgb(204,204,204)" stroke-width="2" transform="matrix(1,0,0,-1,115.0,135.0)"/>
 <path d="M904,209 l0,-209 l76,0 l0,578 l121,0 l0,64 l-1123,0 l0,-64 l638,0 c26,-23,43,-59,43,-95 c0,-47,-30,-78,-86,-99 c-20,38,-57,70,-116,70 c-55,0,-103,-35,-116,-83 l-4,0 c-15,48,-58,81,-123,81 c-82,0,-161,-63,-161,-181 c0,-125,81,-226,177,-278 l51,54 c-98,53,-150,131,-150,222 c0,80,42,114,90,114 c50,0,82,-32,82,-97 l0,-95 l73,0 l0,97 c0,65,35,96,77,96 c41,0,60,-24,68,-51 c26,-125,113,-196,222,-196 c92,0,139,48,157,72 Z M602,333 c77,18,135,69,135,139 c0,44,-17,76,-41,102 l0,4 l209,0 l0,-208 c0,-105,-63,-164,-152,-164 c-100,0,-143,73,-151,127 Z M602,333" fill="rgb(0,0,0)" transform="matrix(0.1,0.0,0.0,-0.1,7.0,135.0)"/>
</svg>