<?xml version="1.0" encoding="UTF-8"?>
<svg height="200.0" version="1.1" width="166.0" xmlns="http://www.w3.org/2000/svg" xmlns:xlink="http://www.w3.org/1999/xlink">
 <path d="M0,0 l166,0 l0,200 l-166,0 Z M0,0" fill="rgb(255,255,255)" transform="matrix(1,0,0,-1,0.0,200.0)"/>
 <path d="M0,0 l166,0" fill="none" stroke="rgb(229,229,229)" stroke-width="2" transform="matrix(1,0,0,-1,0.0,135.0)"/>
 <path d="M0,1 l0,-5" fill="none" stroke="rgb(204,204,204)" stroke-width="2" transform="matrix(1,0,0,-1,7.0,135.0)"/>
 <path d="M0,1 l0,-5" fill="none" stroke="rgb(204,204,204)" stroke-width="2" transform="matrix(1,0,0,-1,159.0,135.0)"/>
 <path d="M214,452 c-82,0,-161,-63,-161,-181 c0,-125,81,-226,177,-278 l51,54 c-98,53,-150,131,-150,222 c0,80,42,114,90,114 c50,0,82,-32,82,-97 l0,-95 l73,0 l0,96 c0,65,35,100,88,100 c28,0,50,-10,66,-20 c-14,-26,-22,-58,-22,-96 c0,-125,80,-226,176,-278 l52,54 c-98,53,-150,131,-150,222 c0,80,42,114,89,114 c51,0,83,-32,83,-97 l0,-95 l72,0 l0,96 c0,63,33,97,72,97 c35,0,52,-21,60,-48 c25,-126,112,-199,222,-199 c93,0,140,48,158,72 l4,0 l0,-209 l76,0 l0,578 l120,0 l0,64 l-1564,0 l0,-64 l1080,0 c26,-23,43,-59,43,-95 c0,-47,-30,-77,-84,-98 c-22,45,-56,69,-113,69 c-49,0,-96,-34,-108,-83 l-4,0 c-15,49,-58,81,-123,81 c-35,0,-69,-11,-97,-34 c-27,21,-64,38,-113,38 c-60,0,-103,-35,-118,-84 l-4,0 c-15,48,-58,80,-123,80 Z M1044,333 c77,18,134,69,134,139 c0,44,-16,76,-40,102 l0,4 l209,0 l0,-208 c0,-105,-64,-164,-152,-164 c-100,0,-143,73,-151,127 Z M1044,333" fill="rgb(0,0,0)" transform="matrix(0.1,0.0,0.0,-0.1,7.0,135.0)"/>
</svg>