<?xml version="1.0" encoding="UTF-8"?>
<svg height="200.0" version="1.1" width="146.0" xmlns="http://www.w3.org/2000/svg" xmlns:xlink="http://www.w3.org/1999/xlink">
 <path d="M0,0 l146,0 l0,200 l-146,0 Z M0,0" fill="rgb(255,255,255)" transform="matrix(1,0,0,-1,0.0,200.0)"/>
 <path d="M0,0 l146,0" fill="none" stroke="rgb(229,229,229)" stroke-width="2" transform="matrix(1,0,0,-1,0.0,135.0)"/>
 <path d="M0,1 l0,-5" fill="none" stroke="rgb(204,204,204)" stroke-width="2" transform="matrix(1,0,0,-1,7.0,135.0)"/>
 <path d="M0,1 l0,-5" fill="none" stroke="rgb(204,204,204)" stroke-width="2" transform="matrix(1,0,0,-1,138.0,135.0)"/>
 <path d="M214,452 c-82,0,-161,-63,-161,-181 c0,-125,81,-226,177,-278 l51,54 c-98,53,-150,131,-150,222 c0,80,42,114,90,114 c50,0,82,-32,82,-97 l0,-95 l73,0 l0,96 c0,65,35,100,88,100 c20,0,37,-5,51,-12 c-10,-22,-15,-48,-15,-77 c0,-113,88,-183,192,-183 c56,0,96,17,126,40 c51,-81,141,-143,248,-143 c120,0,195,75,195,167 c0,63,-34,115,-78,135 l-166,-34 c-36,10,-64,45,-64,79 c0,33,15,55,74,55 l179,0 l0,164 l130,0 l0,64 l-1358,0 l0,-64 l1154,0 l0,-99 l-141,0 c-72,0,-115,-43,-115,-105 c0,-76,58,-140,129,-164 l154,32 c19,-15,28,-37,28,-63 c0,-64,-48,-101,-120,-101 c-88,0,-158,54,-201,128 l1,1 l-30,52 l-14,0 c-23,-38,-57,-75,-126,-75 c-70,0,-118,47,-118,115 c0,73,55,114,123,114 c14,0,28,-2,43,-6 l-7,71 c-13,2,-27,4,-40,4 c-53,0,-106,-17,-144,-52 c-24,15,-56,26,-95,26 c-60,0,-103,-35,-118,-84 l-4,0 c-15,48,-58,80,-123,80 Z M214,452" fill="rgb(0,0,0)" transform="matrix(0.1,0.0,0.0,-0.1,7.0,135.0)"/>
</svg>