<?xml version="1.0" encoding="UTF-8"?>
<svg height="200.0" version="1.1" width="130.0" xmlns="http://www.w3.org/2000/svg" xmlns:xlink="http://www.w3.org/1999/xlink">
 <path d="M0,0 l130,0 l0,200 l-130,0 Z M0,0" fill="rgb(255,255,255)" transform="matrix(1,0,0,-1,0.0,200.0)"/>
 <path d="M0,0 l130,0" fill="none" stroke="rgb(229,229,229)" stroke-width="2" transform="matrix(1,0,0,-1,0.0,135.0)"/>
 <path d="M0,1 l0,-5" fill="none" stroke="rgb(204,204,204)" stroke-width="2" transform="matrix(1,0,0,-1,7.0,135.0)"/>
 <path d="M0,1 l0,-5" fill="none" stroke="rgb(204,204,204)" stroke-width="2" transform="matrix(1,0,0,-1,122.0,135.0)"/>
 <path d="M214,452 c-82,0,-161,-63,-161,-181 c0,-125,81,-226,177,-278 l51,54 c-98,53,-150,131,-150,222 c0,80,42,114,90,114 c50,0,82,-32,82,-97 l0,-95 l73,0 l0,96 c0,64,36,101,87,101 c41,0,68,-23,76,-51 l-36,-30 l243,-318 l61,40 l-116,152 c-28,36,-48,58,-69,83 l1,3 c9,-3,26,-3,34,-3 c33,1,63,11,86,31 c37,-14,90,-24,141,-24 c39,0,68,3,91,8 l0,-279 l76,0 l0,578 l121,0 l0,64 l-1194,0 l0,-64 l724,0 l0,-186 c0,-46,-22,-65,-66,-65 c-9,0,-16,0,-23,1 c-12,86,-74,130,-152,130 c-59,0,-106,-37,-120,-86 l-4,0 c-15,48,-58,80,-123,80 Z M881,338 c-37,0,-75,5,-107,14 c3,10,4,22,4,34 l0,192 l197,0 l0,-227 c-25,-8,-59,-13,-94,-13 Z M881,338" fill="rgb(0,0,0)" transform="matrix(0.1,0.0,0.0,-0.1,7.0,135.0)"/>
</svg>