<?xml version="1.0" encoding="UTF-8"?>
<svg height="200.0" version="1.1" width="100.0" xmlns="http://www.w3.org/2000/svg" xmlns:xlink="http://www.w3.org/1999/xlink">
 <path d="M0,0 l100,0 l0,200 l-100,0 Z M0,0" fill="rgb(255,255,255)" transform="matrix(1,0,0,-1,0.0,200.0)"/>
 <path d="M0,0 l100,0" fill="none" stroke="rgb(229,229,229)" stroke-width="2" transform="matrix(1,0,0,-1,0.0,135.0)"/>
 <path d="M0,1 l0,-5" fill="none" stroke="rgb(204,204,204)" stroke-width="2" transform="matrix(1,0,0,-1,7.0,135.0)"/>
 <path d="M0,1 l0,-5" fill="none" stroke="rgb(204,204,204)" stroke-width="2" transform="matrix(1,0,0,-1,93.0,135.0)"/>
 <path d="M765,578 l121,0 l0,64 l-908,0 l0,-64 l712,0 l0,-250 c0,-81,-51,-145,-132,-145 c-71,0,-117,50,-117,116 c0,89,82,130,166,108 l-7,71 c-112,20,-239,-38,-239,-180 c0,-15,2,-29,5,-43 c-22,-37,-60,-71,-123,-71 c-70,0,-118,47,-118,115 c0,73,55,114,122,114 c14,0,29,-2,44,-6 l-7,71 c-14,2,-28,4,-41,4 c-97,0,-198,-58,-198,-184 c0,-113,88,-183,190,-183 c77,0,129,33,162,71 c35,-45,89,-71,148,-71 c74,0,120,34,141,60 l4,0 l0,-175 l75,0 Z M765,578" fill="rgb(0,0,0)" transform="matrix(0.1,0.0,0.0,-0.1,7.0,135.0)"/>
</svg>