<?xml version="1.0" encoding="UTF-8"?>
<svg height="200.0" version="1.1" width="96.0" xmlns="http://www.w3.org/2000/svg" xmlns:xlink="http://www.w3.org/1999/xlink">
 <path d="M0,0 l96,0 l0,200 l-96,0 Z M0,0" fill="rgb(255,255,255)" transform="matrix(1,0,0,-1,0.0,200.0)"/>
 <path d="M0,0 l96,0" fill="none" stroke="rgb(229,229,229)" stroke-width="2" transform="matrix(1,0,0,-1,0.0,135.0)"/>
 <path d="M0,1 l0,-5" fill="none" stroke="rgb(204,204,204)" stroke-width="2" transform="matrix(1,0,0,-1,7.0,135.0)"/>
 <path d="M0,1 l0,-5" fill="none" stroke="rgb(204,204,204)" stroke-width="2" transform="matrix(1,0,0,-1,89.0,135.0)"/>
 <path d="M726,56 c26,23,48,59,48,106 c0,71,-53,137,-164,137 c-33,0,-63,-5,-89,-15 c-33,19,-56,51,-56,83 c0,26,15,47,61,47 l214,0 l0,164 l106,0 l0,64 l-868,0 l0,-64 l688,0 l0,-99 l-157,0 c-78,0,-121,-43,-121,-102 c0,-55,34,-100,73,-125 c-12,-9,-22,-19,-30,-29 c-45,-44,-92,-68,-167,-68 c-76,0,-129,49,-129,117 c0,73,47,122,124,122 c15,0,30,-2,45,-6 l-7,70 c-13,3,-29,5,-42,5 c-101,0,-200,-65,-200,-192 c0,-113,94,-185,201,-185 c58,0,104,12,141,32 c8,-119,127,-187,315,-201 l32,65 c-203,11,-270,73,-270,146 c0,59,55,104,138,104 c59,0,88,-30,88,-67 c0,-27,-15,-51,-39,-71 Z M726,56" fill="rgb(0,0,0)" transform="matrix(0.1,0.0,0.0,-0.1,7.0,135.0)"/>
</svg>