<?xml version="1.0" encoding="UTF-8"?>
<svg height="200.0" version="1.1" width="134.0" xmlns="http://www.w3.org/2000/svg" xmlns:xlink="http://www.w3.org/1999/xlink">
 <path d="M0,0 l134,0 l0,200 l-134,0 Z M0,0" fill="rgb(255,255,255)" transform="matrix(1,0,0,-1,0.0,200.0)"/>
 <path d="M0,0 l134,0" fill="none" stroke="rgb(229,229,229)" stroke-width="2" transform="matrix(1,0,0,-1,0.0,135.0)"/>
 <path d="M0,1 l0,-5" fill="none" stroke="rgb(204,204,204)" stroke-width="2" transform="matrix(1,0,0,-1,5.0,135.0)"/>
 <path d="M0,1 l0,-5" fill="none" stroke="rgb(204,204,204)" stroke-width="2" transform="matrix(1,0,0,-1,127.0,135.0)"/>
 <path d="M1099,297 c0,-83,-73,-115,-144,-102 l11,-69 c108,-15,211,51,211,172 c0,104,-78,171,-168,171 c-69,0,-111,-32,-131,-58 l-4,0 l0,167 l370,0 l0,64 l-746,0 l0,-64 l302,0 l0,-258 c0,-75,-48,-126,-119,-126 c-63,0,-106,44,-106,104 c0,84,73,115,144,103 l-11,69 c-108,14,-211,-52,-211,-173 c0,-102,79,-171,169,-171 c70,0,111,33,130,57 l4,0 l0,-183 l74,0 l0,275 c0,75,49,126,119,126 c63,0,106,-42,106,-104 Z M543,-41 c0,-27,21,-48,48,-48 c29,0,49,21,49,48 c0,28,-20,49,-49,49 c-27,0,-48,-21,-48,-49 Z M228,445 c-38,9,-57,39,-57,69 c0,41,29,72,79,72 c48,0,94,-40,94,-116 c0,-97,-78,-154,-181,-154 c-31,0,-70,5,-103,17 l-45,-61 l70,-59 l230,-224 l63,43 l-133,128 c-48,46,-72,64,-101,88 l2,4 c149,-10,276,70,276,219 c0,93,-59,181,-173,181 c-92,0,-154,-63,-154,-139 c0,-57,31,-104,87,-120 Z M228,445" fill="rgb(0,0,0)" transform="matrix(0.1,0.0,0.0,-0.1,5.0,135.0)"/>
</svg>