<?xml version="1.0" encoding="UTF-8"?>
<svg height="200.0" version="1.1" width="124.0" xmlns="http://www.w3.org/2000/svg" xmlns:xlink="http://www.w3.org/1999/xlink">
 <path d="M0,0 l124,0 l0,200 l-124,0 Z M0,0" fill="rgb(255,255,255)" transform="matrix(1,0,0,-1,0.0,200.0)"/>
 <path d="M0,0 l124,0" fill="none" stroke="rgb(229,229,229)" stroke-width="2" transform="matrix(1,0,0,-1,0.0,135.0)"/>
 <path d="M0,1 l0,-5" fill="none" stroke="rgb(204,204,204)" stroke-width="2" transform="matrix(1,0,0,-1,7.0,135.0)"/>
 <path d="M0,1 l0,-5" fill="none" stroke="rgb(204,204,204)" stroke-width="2" transform="matrix(1,0,0,-1,116.0,135.0)"/>
 <path d="M547,194 c-63,0,-106,44,-106,104 c0,84,73,115,145,103 l-12,69 c-84,11,-165,-27,-197,-101 l-217,209 l506,0 l0,-258 c0,-75,-48,-126,-119,-126 Z M267,255 c-63,0,-108,30,-108,106 l0,58 l-3,94 l64,-67 l143,-137 c0,-4,0,-8,0,-12 l0,-6 c-23,-20,-55,-36,-96,-36 Z M965,297 c0,-83,-73,-115,-144,-102 l12,-69 c107,-15,210,51,210,172 c0,104,-78,171,-168,171 c-69,0,-111,-32,-131,-58 l-4,0 l0,167 l370,0 l0,64 l-1132,0 l0,-64 l108,0 l0,-225 c0,-108,75,-164,170,-164 c52,0,92,13,123,32 c28,-59,88,-95,154,-95 c70,0,110,33,129,57 l4,0 l0,-183 l74,0 l0,275 c0,75,49,126,120,126 c62,0,105,-42,105,-104 Z M965,297" fill="rgb(0,0,0)" transform="matrix(0.1,0.0,0.0,-0.1,7.0,135.0)"/>
</svg>