<?xml version="1.0" encoding="UTF-8"?>
<svg height="200.0" version="1.1" width="126.0" xmlns="http://www.w3.org/2000/svg" xmlns:xlink="http://www.w3.org/1999/xlink">
 <path d="M0,0 l126,0 l0,200 l-126,0 Z M0,0" fill="rgb(255,255,255)" transform="matrix(1,0,0,-1,0.0,200.0)"/>
 <path d="M0,0 l126,0" fill="none" stroke="rgb(229,229,229)" stroke-width="2" transform="matrix(1,0,0,-1,0.0,135.0)"/>
 <path d="M0,1 l0,-5" fill="none" stroke="rgb(204,204,204)" stroke-width="2" transform="matrix(1,0,0,-1,7.0,135.0)"/>
 <path d="M0,1 l0,-5" fill="none" stroke="rgb(204,204,204)" stroke-width="2" transform="matrix(1,0,0,-1,118.0,135.0)"/>
 <path d="M569,196 c-63,0,-107,43,-107,104 c0,69,54,116,145,102 l-12,69 c-95,12,-179,-36,-203,-117 l-232,224 l527,0 l0,-256 c0,-76,-49,-126,-118,-126 Z M267,255 c-63,0,-108,30,-108,106 l0,58 l-3,94 l64,-67 l152,-146 c-25,-25,-59,-45,-105,-45 Z M256,189 c63,0,108,19,141,45 c24,-57,77,-88,125,-92 l0,-4 l-142,-87 l61,-54 l242,181 l4,0 l0,-178 l74,0 l0,275 c0,75,49,126,120,126 c62,0,105,-42,105,-104 c0,-69,-54,-116,-144,-102 l11,-69 c115,-14,211,55,211,172 c0,104,-78,171,-168,171 c-69,0,-111,-32,-131,-58 l-4,0 l0,167 l369,0 l0,64 l-1152,0 l0,-64 l108,0 l0,-225 c0,-108,75,-164,170,-164 Z M256,189" fill="rgb(0,0,0)" transform="matrix(0.1,0.0,0.0,-0.1,7.0,135.0)"/>
</svg>