<?xml version="1.0" encoding="UTF-8"?>
<svg height="200.0" version="1.1" width="150.0" xmlns="http://www.w3.org/2000/svg" xmlns:xlink="http://www.w3.org/1999/xlink">
 <path d="M0,0 l150,0 l0,200 l-150,0 Z M0,0" fill="rgb(255,255,255)" transform="matrix(1,0,0,-1,0.0,200.0)"/>
 <path d="M0,0 l150,0" fill="none" stroke="rgb(229,229,229)" stroke-width="2" transform="matrix(1,0,0,-1,0.0,135.0)"/>
 <path d="M0,1 l0,-5" fill="none" stroke="rgb(204,204,204)" stroke-width="2" transform="matrix(1,0,0,-1,7.0,135.0)"/>
 <path d="M0,1 l0,-5" fill="none" stroke="rgb(204,204,204)" stroke-width="2" transform="matrix(1,0,0,-1,144.0,135.0)"/>
 <path d="M1267,0 l0,578 l121,0 l0,64 l-1410,0 l0,-64 l108,0 l0,-225 c0,-108,75,-164,170,-164 c50,0,89,12,120,30 c21,-98,114,-178,239,-178 c68,0,135,19,184,65 l-41,61 c-36,-33,-81,-57,-152,-57 c-99,0,-158,68,-158,137 c0,57,20,88,117,117 l144,43 c75,19,142,32,188,32 c55,0,82,-18,82,-55 c0,-33,-24,-67,-88,-99 l-53,-25 c20,-98,94,-174,207,-174 c72,0,122,38,143,65 l4,0 l0,-151 Z M1049,152 c-70,0,-107,44,-118,85 c66,29,121,79,121,147 c0,74,-64,121,-152,121 c-54,0,-139,-17,-191,-33 l0,106 l483,0 l0,-270 c0,-86,-49,-156,-143,-156 Z M160,578 l473,0 l0,-119 l-118,-36 c-57,-17,-96,-40,-119,-73 Z M267,255 c-63,0,-108,30,-108,106 l0,58 l-3,94 l64,-67 l152,-146 c-25,-25,-59,-45,-105,-45 Z M267,255" fill="rgb(0,0,0)" transform="matrix(0.1,0.0,0.0,-0.1,7.0,135.0)"/>
</svg>