<?xml version="1.0" encoding="UTF-8"?>
<svg height="200.0" version="1.1" width="98.0" xmlns="http://www.w3.org/2000/svg" xmlns:xlink="http://www.w3.org/1999/xlink">
 <path d="M0,0 l98,0 l0,200 l-98,0 Z M0,0" fill="rgb(255,255,255)" transform="matrix(1,0,0,-1,0.0,200.0)"/>
 <path d="M0,0 l98,0" fill="none" stroke="rgb(229,229,229)" stroke-width="2" transform="matrix(1,0,0,-1,0.0,135.0)"/>
 <path d="M0,1 l0,-5" fill="none" stroke="rgb(204,204,204)" stroke-width="2" transform="matrix(1,0,0,-1,7.0,135.0)"/>
 <path d="M0,1 l0,-5" fill="none" stroke="rgb(204,204,204)" stroke-width="2" transform="matrix(1,0,0,-1,90.0,135.0)"/>
 <path d="M732,-114 l86,21 l-138,140 c48,9,92,30,128,66 l-42,61 c-37,-40,-85,-64,-159,-64 c-100,0,-158,70,-158,139 c0,57,20,92,116,121 l145,42 l0,166 l139,0 l0,64 l-871,0 l0,-64 l108,0 l0,-225 c0,-108,75,-164,170,-164 c51,0,90,12,121,31 c17,-78,79,-145,166,-169 l-144,-143 l86,-22 l125,145 Z M160,578 l474,0 l0,-113 l-118,-36 c-58,-18,-98,-43,-121,-79 Z M267,255 c-63,0,-108,30,-108,106 l0,58 l-3,94 l64,-67 l152,-146 c-25,-25,-59,-45,-105,-45 Z M267,255" fill="rgb(0,0,0)" transform="matrix(0.1,0.0,0.0,-0.1,7.0,135.0)"/>
</svg>