<?xml version="1.0" encoding="UTF-8"?>
<svg height="200.0" version="1.1" width="102.0" xmlns="http://www.w3.org/2000/svg" xmlns:xlink="http://www.w3.org/1999/xlink">
 <path d="M0,0 l102,0 l0,200 l-102,0 Z M0,0" fill="rgb(255,255,255)" transform="matrix(1,0,0,-1,0.0,200.0)"/>
 <path d="M0,0 l102,0" fill="none" stroke="rgb(229,229,229)" stroke-width="2" transform="matrix(1,0,0,-1,0.0,135.0)"/>
 <path d="M0,1 l0,-5" fill="none" stroke="rgb(204,204,204)" stroke-width="2" transform="matrix(1,0,0,-1,7.0,135.0)"/>
 <path d="M0,1 l0,-5" fill="none" stroke="rgb(204,204,204)" stroke-width="2" transform="matrix(1,0,0,-1,95.0,135.0)"/>
 <path d="M256,189 c72,0,121,25,156,57 c15,-26,39,-50,72,-68 l0,-4 c-46,-20,-90,-62,-90,-139 c0,-91,69,-166,173,-166 c73,0,114,35,128,53 l4,0 l0,-111 l71,0 l0,351 c39,12,74,30,100,51 l-35,58 c-35,-27,-103,-63,-195,-63 c-113,0,-168,55,-168,104 c0,44,30,74,105,85 l193,29 l0,152 l133,0 l0,64 l-925,0 l0,-64 l108,0 l0,-225 c0,-108,75,-164,170,-164 Z M160,578 l538,0 l0,-101 l-152,-21 c-81,-11,-134,-51,-148,-109 Z M267,255 c-63,0,-108,30,-108,106 l0,58 l-3,94 l64,-67 l152,-146 c-25,-25,-59,-45,-105,-45 Z M581,-65 c-72,0,-111,47,-111,103 c0,57,38,108,125,108 c41,0,76,-7,104,-13 l0,-75 c0,-72,-45,-123,-118,-123 Z M581,-65" fill="rgb(0,0,0)" transform="matrix(0.1,0.0,0.0,-0.1,7.0,135.0)"/>
</svg>