<?xml version="1.0" encoding="UTF-8"?>
<svg height="200.0" version="1.1" width="162.0" xmlns="http://www.w3.org/2000/svg" xmlns:xlink="http://www.w3.org/1999/xlink">
 <path d="M0,0 l162,0 l0,200 l-162,0 Z M0,0" fill="rgb(255,255,255)" transform="matrix(1,0,0,-1,0.0,200.0)"/>
 <path d="M0,0 l162,0" fill="none" stroke="rgb(229,229,229)" stroke-width="2" transform="matrix(1,0,0,-1,0.0,135.0)"/>
 <path d="M0,1 l0,-5" fill="none" stroke="rgb(204,204,204)" stroke-width="2" transform="matrix(1,0,0,-1,7.0,135.0)"/>
 <path d="M0,1 l0,-5" fill="none" stroke="rgb(204,204,204)" stroke-width="2" transform="matrix(1,0,0,-1,154.0,135.0)"/>
 <path d="M1295,127 l4,0 l0,-127 l75,0 l0,578 l122,0 l0,64 l-1518,0 l0,-64 l108,0 l0,-225 c0,-108,75,-164,170,-164 c51,0,90,12,121,31 c20,-102,113,-179,237,-179 c142,0,239,91,239,207 c0,52,-19,92,-44,123 c54,24,127,47,192,47 c63,0,85,-25,85,-59 c0,-40,-28,-67,-80,-92 l-62,-32 c20,-98,93,-174,207,-174 c72,0,123,40,144,66 Z M160,578 l475,0 l0,-114 l-116,-36 c-58,-17,-99,-43,-123,-79 Z M267,255 c-63,0,-108,30,-108,106 l0,58 l-3,94 l64,-67 l152,-146 c-25,-25,-59,-45,-105,-45 Z M1154,127 c-71,0,-107,42,-118,85 c63,31,122,74,122,147 c0,73,-61,125,-155,125 c-98,0,-201,-40,-251,-63 c-14,9,-28,16,-41,22 l0,135 l588,0 l0,-295 c0,-85,-52,-156,-145,-156 Z M605,110 c-101,0,-155,70,-155,139 c0,57,20,93,117,121 l80,24 c49,-11,130,-54,130,-140 c0,-76,-54,-144,-172,-144 Z M605,110" fill="rgb(0,0,0)" transform="matrix(0.1,0.0,0.0,-0.1,7.0,135.0)"/>
</svg>