<?xml version="1.0" encoding="UTF-8"?>
<svg height="200.0" version="1.1" width="122.0" xmlns="http://www.w3.org/2000/svg" xmlns:xlink="http://www.w3.org/1999/xlink">
 <path d="M0,0 l122,0 l0,200 l-122,0 Z M0,0" fill="rgb(255,255,255)" transform="matrix(1,0,0,-1,0.0,200.0)"/>
 <path d="M0,0 l122,0" fill="none" stroke="rgb(229,229,229)" stroke-width="2" transform="matrix(1,0,0,-1,0.0,135.0)"/>
 <path d="M0,1 l0,-5" fill="none" stroke="rgb(204,204,204)" stroke-width="2" transform="matrix(1,0,0,-1,7.0,135.0)"/>
 <path d="M0,1 l0,-5" fill="none" stroke="rgb(204,204,204)" stroke-width="2" transform="matrix(1,0,0,-1,115.0,135.0)"/>
 <path d="M404,343 l0,-1 l-244,236 l244,0 Z M267,255 c-63,0,-108,30,-108,106 l0,58 l-3,94 l64,-67 l152,-146 c-25,-25,-59,-45,-105,-45 Z M1097,578 l0,64 l-1119,0 l0,-64 l108,0 l0,-225 c0,-108,75,-164,170,-164 c80,0,131,30,166,68 c27,-53,79,-80,145,-80 c97,0,165,59,165,166 l0,235 l169,0 l0,-578 l75,0 l0,578 Z M568,245 c-57,0,-89,35,-89,100 l0,233 l178,0 l0,-233 c0,-64,-31,-100,-89,-100 Z M568,245" fill="rgb(0,0,0)" transform="matrix(0.1,0.0,0.0,-0.1,7.0,135.0)"/>
</svg>