<?xml version="1.0" encoding="UTF-8"?>
<svg height="200.0" version="1.1" width="126.0" xmlns="http://www.w3.org/2000/svg" xmlns:xlink="http://www.w3.org/1999/xlink">
 <path d="M0,0 l126,0 l0,200 l-126,0 Z M0,0" fill="rgb(255,255,255)" transform="matrix(1,0,0,-1,0.0,200.0)"/>
 <path d="M0,0 l126,0" fill="none" stroke="rgb(229,229,229)" stroke-width="2" transform="matrix(1,0,0,-1,0.0,135.0)"/>
 <path d="M0,1 l0,-5" fill="none" stroke="rgb(204,204,204)" stroke-width="2" transform="matrix(1,0,0,-1,7.0,135.0)"/>
 <path d="M0,1 l0,-5" fill="none" stroke="rgb(204,204,204)" stroke-width="2" transform="matrix(1,0,0,-1,118.0,135.0)"/>
 <path d="M160,578 l243,0 l0,-222 c0,-5,0,-9,0,-14 Z M267,255 c-63,0,-108,30,-108,106 l0,58 l-3,94 l64,-67 l152,-146 c-25,-25,-59,-45,-105,-45 Z M256,189 c82,0,135,32,170,72 c26,-45,74,-68,133,-68 c68,0,108,32,125,59 l4,0 l0,-252 l74,0 l0,260 c0,83,54,140,126,140 c63,0,105,-41,105,-103 c0,-73,-54,-127,-145,-110 l12,-70 c115,-14,211,61,211,181 c0,103,-77,171,-170,171 c-72,0,-117,-37,-135,-61 l-4,0 l0,170 l372,0 l0,64 l-1156,0 l0,-64 l108,0 l0,-225 c0,-108,75,-164,170,-164 Z M688,398 c0,-83,-47,-136,-121,-136 c-57,0,-89,30,-89,105 l0,211 l210,0 Z M688,398" fill="rgb(0,0,0)" transform="matrix(0.1,0.0,0.0,-0.1,7.0,135.0)"/>
</svg>