<?xml version="1.0" encoding="UTF-8"?>
<svg height="200.0" version="1.1" width="140.0" xmlns="http://www.w3.org/2000/svg" xmlns:xlink="http://www.w3.org/1999/xlink">
 <path d="M0,0 l140,0 l0,200 l-140,0 Z M0,0" fill="rgb(255,255,255)" transform="matrix(1,0,0,-1,0.0,200.0)"/>
 <path d="M0,0 l140,0" fill="none" stroke="rgb(229,229,229)" stroke-width="2" transform="matrix(1,0,0,-1,0.0,135.0)"/>
 <path d="M0,1 l0,-5" fill="none" stroke="rgb(204,204,204)" stroke-width="2" transform="matrix(1,0,0,-1,7.0,135.0)"/>
 <path d="M0,1 l0,-5" fill="none" stroke="rgb(204,204,204)" stroke-width="2" transform="matrix(1,0,0,-1,133.0,135.0)"/>
 <path d="M256,189 c65,0,111,20,145,48 c11,-27,26,-52,46,-68 l63,0 l0,102 l214,0 c38,-86,112,-134,202,-134 c93,0,140,48,158,72 l4,0 l0,-209 l75,0 l0,578 l121,0 l0,64 l-1306,0 l0,-64 l108,0 l0,-225 c0,-108,75,-164,170,-164 Z M160,578 l276,0 l0,-240 l-16,-12 Z M267,255 c-63,0,-108,30,-108,106 l0,58 l-3,94 l64,-67 l151,-146 c-23,-24,-57,-45,-104,-45 Z M799,578 c26,-23,44,-59,44,-95 c0,-62,-53,-95,-145,-116 c1,-9,2,-18,4,-27 l-191,0 l0,238 Z M785,333 c77,18,135,69,135,139 c0,44,-16,76,-41,102 l0,4 l210,0 l0,-208 c0,-105,-64,-164,-152,-164 c-100,0,-144,73,-152,127 Z M785,333" fill="rgb(0,0,0)" transform="matrix(0.1,0.0,0.0,-0.1,7.0,135.0)"/>
</svg>