<?xml version="1.0" encoding="UTF-8"?>
<svg height="200.0" version="1.1" width="104.0" xmlns="http://www.w3.org/2000/svg" xmlns:xlink="http://www.w3.org/1999/xlink">
 <path d="M0,0 l104,0 l0,200 l-104,0 Z M0,0" fill="rgb(255,255,255)" transform="matrix(1,0,0,-1,0.0,200.0)"/>
 <path d="M0,0 l104,0" fill="none" stroke="rgb(229,229,229)" stroke-width="2" transform="matrix(1,0,0,-1,0.0,135.0)"/>
 <path d="M0,1 l0,-5" fill="none" stroke="rgb(204,204,204)" stroke-width="2" transform="matrix(1,0,0,-1,7.0,135.0)"/>
 <path d="M0,1 l0,-5" fill="none" stroke="rgb(204,204,204)" stroke-width="2" transform="matrix(1,0,0,-1,96.0,135.0)"/>
 <path d="M256,189 c83,0,135,33,171,73 c29,-48,83,-73,144,-73 c71,0,118,31,140,66 l4,0 l0,-255 l75,0 l0,578 l121,0 l0,64 l-933,0 l0,-64 l108,0 l0,-225 c0,-108,75,-164,170,-164 Z M160,578 l243,0 l0,-225 c0,-4,0,-7,0,-11 Z M267,255 c-63,0,-108,30,-108,106 l0,58 l-3,94 l64,-67 l152,-146 c-25,-25,-59,-45,-105,-45 Z M584,255 c-64,0,-108,30,-108,106 l0,58 l-4,92 l67,-67 l148,-142 c-23,-31,-59,-47,-103,-47 Z M717,402 c0,-19,-2,-35,-7,-49 l-234,225 l241,0 Z M717,402" fill="rgb(0,0,0)" transform="matrix(0.1,0.0,0.0,-0.1,7.0,135.0)"/>
</svg>