<?xml version="1.0" encoding="UTF-8"?>
<svg height="200.0" version="1.1" width="134.0" xmlns="http://www.w3.org/2000/svg" xmlns:xlink="http://www.w3.org/1999/xlink">
 <path d="M0,0 l134,0 l0,200 l-134,0 Z M0,0" fill="rgb(255,255,255)" transform="matrix(1,0,0,-1,0.0,200.0)"/>
 <path d="M0,0 l134,0" fill="none" stroke="rgb(229,229,229)" stroke-width="2" transform="matrix(1,0,0,-1,0.0,135.0)"/>
 <path d="M0,1 l0,-5" fill="none" stroke="rgb(204,204,204)" stroke-width="2" transform="matrix(1,0,0,-1,7.0,135.0)"/>
 <path d="M0,1 l0,-5" fill="none" stroke="rgb(204,204,204)" stroke-width="2" transform="matrix(1,0,0,-1,127.0,135.0)"/>
 <path d="M410,338 c-37,0,-75,5,-106,14 c2,10,3,21,3,33 l0,193 l465,0 l0,-256 c0,-76,-49,-126,-118,-126 c-63,0,-107,43,-107,104 c0,69,54,116,145,102 l-12,69 c-99,12,-186,-40,-206,-128 c-19,-3,-41,-5,-64,-5 Z M153,267 c11,-3,28,-3,38,-3 c31,1,60,11,81,31 c37,-16,90,-26,141,-26 c22,0,41,1,58,3 c13,-80,78,-126,136,-130 l0,-4 l-142,-87 l61,-54 l242,181 l4,0 l0,-178 l74,0 l0,275 c0,75,49,126,120,126 c62,0,105,-42,105,-104 c0,-69,-54,-116,-144,-102 l11,-69 c115,-14,211,55,211,172 c0,104,-78,171,-168,171 c-69,0,-111,-32,-131,-58 l-4,0 l0,167 l369,0 l0,64 l-1237,0 l0,-64 l254,0 l0,-186 c0,-46,-23,-65,-66,-65 c-47,0,-74,26,-91,45 l-57,-45 l258,-338 l61,40 l-117,152 c-27,36,-47,58,-69,83 Z M153,267" fill="rgb(0,0,0)" transform="matrix(0.1,0.0,0.0,-0.1,7.0,135.0)"/>
</svg>