<?xml version="1.0" encoding="UTF-8"?>
<svg height="200.0" version="1.1" width="136.0" xmlns="http://www.w3.org/2000/svg" xmlns:xlink="http://www.w3.org/1999/xlink">
 <path d="M0,0 l136,0 l0,200 l-136,0 Z M0,0" fill="rgb(255,255,255)" transform="matrix(1,0,0,-1,0.0,200.0)"/>
 <path d="M0,0 l136,0" fill="none" stroke="rgb(229,229,229)" stroke-width="2" transform="matrix(1,0,0,-1,0.0,135.0)"/>
 <path d="M0,1 l0,-5" fill="none" stroke="rgb(204,204,204)" stroke-width="2" transform="matrix(1,0,0,-1,7.0,135.0)"/>
 <path d="M0,1 l0,-5" fill="none" stroke="rgb(204,204,204)" stroke-width="2" transform="matrix(1,0,0,-1,128.0,135.0)"/>
 <path d="M410,338 c-37,0,-75,5,-106,14 c2,10,3,21,3,33 l0,193 l349,0 l0,-166 c0,-43,-21,-59,-50,-59 c-37,0,-56,20,-69,45 l-66,-23 c1,-11,2,-21,4,-32 c-19,-3,-41,-5,-65,-5 Z M153,267 c11,-3,28,-3,38,-3 c31,1,60,11,81,31 c37,-16,90,-26,141,-26 c31,0,56,2,78,7 c44,-146,151,-247,314,-247 c109,0,189,49,232,102 l4,0 l0,-131 l72,0 l0,578 l121,0 l0,64 l-1256,0 l0,-64 l254,0 l0,-186 c0,-46,-23,-65,-66,-65 c-47,0,-74,26,-91,45 l-57,-45 l258,-338 l61,40 l-117,152 c-27,36,-47,58,-69,83 Z M1036,459 c-18,18,-46,34,-97,34 c-85,0,-154,-64,-154,-154 c0,-93,72,-145,141,-150 l40,53 c-68,3,-110,42,-110,96 c0,53,38,89,91,89 c50,0,96,-39,96,-110 c0,-139,-109,-221,-236,-221 c-120,0,-216,75,-244,206 c12,-6,28,-11,55,-11 c63,0,112,44,112,124 l0,163 l310,0 l0,-119 Z M1036,459" fill="rgb(0,0,0)" transform="matrix(0.1,0.0,0.0,-0.1,7.0,135.0)"/>
</svg>