<?xml version="1.0" encoding="UTF-8"?>
<svg height="200.0" version="1.1" width="148.0" xmlns="http://www.w3.org/2000/svg" xmlns:xlink="http://www.w3.org/1999/xlink">
 <path d="M0,0 l148,0 l0,200 l-148,0 Z M0,0" fill="rgb(255,255,255)" transform="matrix(1,0,0,-1,0.0,200.0)"/>
 <path d="M0,0 l148,0" fill="none" stroke="rgb(229,229,229)" stroke-width="2" transform="matrix(1,0,0,-1,0.0,135.0)"/>
 <path d="M0,1 l0,-5" fill="none" stroke="rgb(204,204,204)" stroke-width="2" transform="matrix(1,0,0,-1,7.0,135.0)"/>
 <path d="M0,1 l0,-5" fill="none" stroke="rgb(204,204,204)" stroke-width="2" transform="matrix(1,0,0,-1,141.0,135.0)"/>
 <path d="M410,338 c-37,0,-76,5,-108,15 c3,12,5,25,5,40 l0,185 l566,0 c26,-23,43,-59,43,-95 c0,-41,-22,-69,-64,-89 c-34,28,-87,44,-146,44 l-58,0 c-69,0,-128,-33,-157,-92 c-23,-5,-51,-8,-81,-8 Z M153,275 c11,-3,28,-3,38,-3 c28,1,54,10,75,26 c37,-18,93,-29,147,-29 c22,0,41,1,59,4 c-1,-6,-1,-11,-1,-17 c0,-119,61,-209,132,-263 l61,45 c-63,47,-116,117,-116,217 c0,74,47,115,114,115 l36,0 c33,0,56,-3,75,-12 c19,-140,111,-221,227,-221 c92,0,139,48,158,72 l4,0 l0,-209 l75,0 l0,578 l121,0 l0,64 l-1380,0 l0,-64 l254,0 l0,-178 c0,-46,-23,-65,-66,-65 c-47,0,-74,25,-91,45 l-57,-45 l258,-338 l61,40 l-117,152 c-27,35,-47,58,-69,83 Z M859,333 c77,18,135,69,135,139 c0,44,-17,76,-41,102 l0,4 l209,0 l0,-208 c0,-105,-63,-164,-152,-164 c-99,0,-143,73,-151,127 Z M859,333" fill="rgb(0,0,0)" transform="matrix(0.1,0.0,0.0,-0.1,7.0,135.0)"/>
</svg>