<?xml version="1.0" encoding="UTF-8"?>
<svg height="200.0" version="1.1" width="142.0" xmlns="http://www.w3.org/2000/svg" xmlns:xlink="http://www.w3.org/1999/xlink">
 <path d="M0,0 l142,0 l0,200 l-142,0 Z M0,0" fill="rgb(255,255,255)" transform="matrix(1,0,0,-1,0.0,200.0)"/>
 <path d="M0,0 l142,0" fill="none" stroke="rgb(229,229,229)" stroke-width="2" transform="matrix(1,0,0,-1,0.0,135.0)"/>
 <path d="M0,1 l0,-5" fill="none" stroke="rgb(204,204,204)" stroke-width="2" transform="matrix(1,0,0,-1,7.0,135.0)"/>
 <path d="M0,1 l0,-5" fill="none" stroke="rgb(204,204,204)" stroke-width="2" transform="matrix(1,0,0,-1,134.0,135.0)"/>
 <path d="M410,338 c-37,0,-76,5,-108,15 c3,12,5,25,5,40 l0,185 l793,0 l0,-250 c0,-81,-51,-145,-132,-145 c-71,0,-117,50,-117,116 c0,89,82,130,166,108 l-7,71 c-62,11,-128,-2,-175,-40 l-187,0 c-69,0,-127,-33,-157,-92 c-23,-5,-51,-8,-81,-8 Z M153,275 c11,-3,28,-3,38,-3 c28,1,54,10,75,26 c37,-18,93,-29,147,-29 c22,0,41,1,59,3 c-1,-5,-1,-10,-1,-16 c0,-119,61,-209,132,-263 l61,45 c-63,47,-116,117,-116,217 c0,74,47,115,114,115 l123,0 c-8,-21,-13,-45,-13,-72 c0,-111,85,-183,183,-183 c75,0,120,34,141,60 l4,0 l0,-175 l76,0 l0,578 l120,0 l0,64 l-1318,0 l0,-64 l254,0 l0,-178 c0,-46,-23,-65,-66,-65 c-47,0,-74,25,-91,45 l-57,-45 l258,-338 l61,40 l-117,152 c-27,35,-47,58,-69,83 Z M153,275" fill="rgb(0,0,0)" transform="matrix(0.1,0.0,0.0,-0.1,7.0,135.0)"/>
</svg>