<?xml version="1.0" encoding="UTF-8"?>
<svg height="200.0" version="1.1" width="124.0" xmlns="http://www.w3.org/2000/svg" xmlns:xlink="http://www.w3.org/1999/xlink">
 <path d="M0,0 l124,0 l0,200 l-124,0 Z M0,0" fill="rgb(255,255,255)" transform="matrix(1,0,0,-1,0.0,200.0)"/>
 <path d="M0,0 l124,0" fill="none" stroke="rgb(229,229,229)" stroke-width="2" transform="matrix(1,0,0,-1,0.0,135.0)"/>
 <path d="M0,1 l0,-5" fill="none" stroke="rgb(204,204,204)" stroke-width="2" transform="matrix(1,0,0,-1,7.0,135.0)"/>
 <path d="M0,1 l0,-5" fill="none" stroke="rgb(204,204,204)" stroke-width="2" transform="matrix(1,0,0,-1,116.0,135.0)"/>
 <path d="M337,37 l-117,152 c-27,35,-47,58,-69,83 l2,3 c11,-3,28,-3,38,-3 c31,1,60,11,81,31 c37,-16,90,-27,142,-27 c34,0,59,2,78,6 c29,-104,112,-178,235,-178 c103,0,164,51,189,88 l4,0 l0,-192 l74,0 l0,578 l121,0 l0,64 l-195,0 l0,-276 c0,-102,-62,-193,-189,-193 c-115,0,-155,94,-161,135 c20,5,40,10,59,16 c128,35,194,96,194,188 c0,81,-55,140,-144,140 c-84,0,-143,-59,-143,-130 c0,-39,16,-69,32,-84 l70,21 c-16,14,-27,39,-27,60 c0,41,29,65,68,65 c43,0,69,-28,69,-70 c0,-55,-26,-96,-166,-136 l-101,-28 c-21,-4,-43,-6,-70,-6 c-37,0,-76,4,-108,13 c3,11,4,23,4,36 l0,185 l131,0 l0,64 l-460,0 l0,-64 l254,0 l0,-178 c0,-46,-23,-65,-66,-65 c-47,0,-74,25,-91,45 l-57,-45 l258,-338 Z M337,37" fill="rgb(0,0,0)" transform="matrix(0.1,0.0,0.0,-0.1,7.0,135.0)"/>
</svg>