<?xml version="1.0" encoding="UTF-8"?>
<svg height="200.0" version="1.1" width="158.0" xmlns="http://www.w3.org/2000/svg" xmlns:xlink="http://www.w3.org/1999/xlink">
 <path d="M0,0 l158,0 l0,200 l-158,0 Z M0,0" fill="rgb(255,255,255)" transform="matrix(1,0,0,-1,0.0,200.0)"/>
 <path d="M0,0 l158,0" fill="none" stroke="rgb(229,229,229)" stroke-width="2" transform="matrix(1,0,0,-1,0.0,135.0)"/>
 <path d="M0,1 l0,-5" fill="none" stroke="rgb(204,204,204)" stroke-width="2" transform="matrix(1,0,0,-1,7.0,135.0)"/>
 <path d="M0,1 l0,-5" fill="none" stroke="rgb(204,204,204)" stroke-width="2" transform="matrix(1,0,0,-1,152.0,135.0)"/>
 <path d="M399,348 c-34,0,-68,4,-95,12 c2,10,3,21,3,33 l0,185 l120,0 l0,64 l-449,0 l0,-64 l254,0 l0,-178 c0,-46,-23,-65,-66,-65 c-47,0,-74,25,-91,45 l-57,-45 l258,-338 l61,40 l-117,152 c-27,35,-47,58,-69,83 l2,3 c11,-3,28,-3,38,-3 c30,1,59,11,80,30 c33,-14,82,-24,133,-24 c24,0,44,2,61,4 c33,-103,127,-176,252,-176 c114,0,187,46,231,101 c41,-45,97,-70,161,-70 c93,0,140,48,158,72 l4,0 l0,-209 l76,0 l0,578 l120,0 l0,64 l-597,0 l0,-64 l113,0 c26,-23,43,-59,43,-95 c0,-62,-52,-95,-144,-115 c4,-38,13,-71,27,-100 c-34,-49,-94,-93,-187,-93 c-118,0,-174,89,-179,133 c172,45,253,97,253,205 c0,80,-58,139,-145,139 c-85,0,-143,-59,-143,-130 c0,-39,17,-69,32,-84 l70,21 c-15,14,-27,39,-27,60 c0,41,28,65,68,65 c41,0,70,-27,70,-69 c0,-55,-26,-96,-167,-137 l-92,-26 c-21,-3,-42,-4,-63,-4 Z M969,333 c77,18,134,69,134,139 c0,44,-16,76,-40,102 l0,4 l209,0 l0,-208 c0,-105,-64,-164,-152,-164 c-100,0,-143,73,-151,127 Z M969,333" fill="rgb(0,0,0)" transform="matrix(0.1,0.0,0.0,-0.1,7.0,135.0)"/>
</svg>