<?xml version="1.0" encoding="UTF-8"?>
<svg height="200.0" version="1.1" width="112.0" xmlns="http://www.w3.org/2000/svg" xmlns:xlink="http://www.w3.org/1999/xlink">
 <path d="M0,0 l112,0 l0,200 l-112,0 Z M0,0" fill="rgb(255,255,255)" transform="matrix(1,0,0,-1,0.0,200.0)"/>
 <path d="M0,0 l112,0" fill="none" stroke="rgb(229,229,229)" stroke-width="2" transform="matrix(1,0,0,-1,0.0,135.0)"/>
 <path d="M0,1 l0,-5" fill="none" stroke="rgb(204,204,204)" stroke-width="2" transform="matrix(1,0,0,-1,7.0,135.0)"/>
 <path d="M0,1 l0,-5" fill="none" stroke="rgb(204,204,204)" stroke-width="2" transform="matrix(1,0,0,-1,105.0,135.0)"/>
 <path d="M410,338 c-37,0,-75,5,-106,14 c2,10,3,21,3,33 l0,193 l199,0 l0,-218 c0,-3,0,-6,0,-9 c-25,-9,-58,-13,-96,-13 Z M153,267 c11,-3,28,-3,38,-3 c31,1,60,11,81,31 c37,-16,90,-26,141,-26 c47,0,81,6,108,14 c25,-58,80,-88,148,-88 c68,0,112,27,135,62 l4,0 l0,-257 l75,0 l0,578 l121,0 l0,64 l-1026,0 l0,-64 l254,0 l0,-186 c0,-46,-23,-65,-66,-65 c-47,0,-74,26,-91,45 l-57,-45 l258,-338 l61,40 l-117,152 c-27,36,-47,58,-69,83 Z M808,409 c0,-86,-45,-145,-127,-145 c-64,0,-100,29,-100,106 l0,208 l227,0 Z M808,409" fill="rgb(0,0,0)" transform="matrix(0.1,0.0,0.0,-0.1,7.0,135.0)"/>
</svg>