<?xml version="1.0" encoding="UTF-8"?>
<svg height="200.0" version="1.1" width="136.0" xmlns="http://www.w3.org/2000/svg" xmlns:xlink="http://www.w3.org/1999/xlink">
 <path d="M0,0 l136,0 l0,200 l-136,0 Z M0,0" fill="rgb(255,255,255)" transform="matrix(1,0,0,-1,0.0,200.0)"/>
 <path d="M0,0 l136,0" fill="none" stroke="rgb(229,229,229)" stroke-width="2" transform="matrix(1,0,0,-1,0.0,135.0)"/>
 <path d="M0,1 l0,-5" fill="none" stroke="rgb(204,204,204)" stroke-width="2" transform="matrix(1,0,0,-1,7.0,135.0)"/>
 <path d="M0,1 l0,-5" fill="none" stroke="rgb(204,204,204)" stroke-width="2" transform="matrix(1,0,0,-1,128.0,135.0)"/>
 <path d="M410,338 c-37,0,-75,5,-106,14 c2,10,3,21,3,33 l0,193 l199,0 l0,-222 l0,-5 c-25,-9,-58,-13,-96,-13 Z M153,267 c11,-3,28,-3,38,-3 c31,1,60,11,81,31 c37,-16,90,-26,141,-26 c45,0,79,5,106,14 c22,-59,74,-90,143,-90 c68,0,108,32,125,59 l4,0 l0,-252 l74,0 l0,260 c0,83,54,140,126,140 c63,0,105,-41,105,-103 c0,-73,-54,-127,-145,-110 l12,-70 c115,-14,211,61,211,181 c0,103,-77,171,-170,171 c-72,0,-117,-37,-135,-61 l-4,0 l0,170 l372,0 l0,64 l-1259,0 l0,-64 l254,0 l0,-186 c0,-46,-23,-65,-66,-65 c-47,0,-74,26,-91,45 l-57,-45 l258,-338 l61,40 l-117,152 c-27,36,-47,58,-69,83 Z M791,398 c0,-83,-47,-136,-121,-136 c-57,0,-89,30,-89,105 l0,211 l210,0 Z M791,398" fill="rgb(0,0,0)" transform="matrix(0.1,0.0,0.0,-0.1,7.0,135.0)"/>
</svg>