<?xml version="1.0" encoding="UTF-8"?>
<svg height="200.0" version="1.1" width="112.0" xmlns="http://www.w3.org/2000/svg" xmlns:xlink="http://www.w3.org/1999/xlink">
 <path d="M0,0 l112,0 l0,200 l-112,0 Z M0,0" fill="rgb(255,255,255)" transform="matrix(1,0,0,-1,0.0,200.0)"/>
 <path d="M0,0 l112,0" fill="none" stroke="rgb(229,229,229)" stroke-width="2" transform="matrix(1,0,0,-1,0.0,135.0)"/>
 <path d="M0,1 l0,-5" fill="none" stroke="rgb(204,204,204)" stroke-width="2" transform="matrix(1,0,0,-1,7.0,135.0)"/>
 <path d="M0,1 l0,-5" fill="none" stroke="rgb(204,204,204)" stroke-width="2" transform="matrix(1,0,0,-1,106.0,135.0)"/>
 <path d="M414,338 c-39,0,-79,6,-112,15 c3,12,5,25,5,40 l0,185 l217,0 l0,-224 c-27,-10,-64,-16,-110,-16 Z M153,275 c11,-3,28,-3,38,-3 c28,1,55,10,75,26 c39,-17,97,-28,151,-28 c23,0,43,1,61,4 c8,-38,28,-81,57,-105 l63,0 l0,102 l213,0 l0,-271 l75,0 l0,578 l121,0 l0,64 l-1029,0 l0,-64 l254,0 l0,-178 c0,-46,-23,-65,-66,-65 c-47,0,-74,25,-91,45 l-57,-45 l258,-338 l61,40 l-117,152 c-27,35,-47,58,-69,83 Z M811,578 l0,-238 l-212,0 l0,238 Z M811,578" fill="rgb(0,0,0)" transform="matrix(0.1,0.0,0.0,-0.1,7.0,135.0)"/>
</svg>