<?xml version="1.0" encoding="UTF-8"?>
<svg height="200.0" version="1.1" width="148.0" xmlns="http://www.w3.org/2000/svg" xmlns:xlink="http://www.w3.org/1999/xlink">
 <path d="M0,0 l148,0 l0,200 l-148,0 Z M0,0" fill="rgb(255,255,255)" transform="matrix(1,0,0,-1,0.0,200.0)"/>
 <path d="M0,0 l148,0" fill="none" stroke="rgb(229,229,229)" stroke-width="2" transform="matrix(1,0,0,-1,0.0,135.0)"/>
 <path d="M0,1 l0,-5" fill="none" stroke="rgb(204,204,204)" stroke-width="2" transform="matrix(1,0,0,-1,7.0,135.0)"/>
 <path d="M0,1 l0,-5" fill="none" stroke="rgb(204,204,204)" stroke-width="2" transform="matrix(1,0,0,-1,141.0,135.0)"/>
 <path d="M411,338 c-37,0,-77,5,-109,15 c3,12,5,25,5,40 l0,185 l215,0 l0,-224 c-27,-9,-66,-16,-111,-16 Z M153,275 c11,-3,28,-3,38,-3 c28,1,54,10,75,26 c37,-17,94,-28,148,-28 c23,0,44,1,62,4 c8,-38,28,-81,57,-105 l63,0 l0,102 l205,0 c38,-86,112,-134,202,-134 c93,0,140,48,158,72 l4,0 l0,-209 l75,0 l0,578 l121,0 l0,64 l-1383,0 l0,-64 l254,0 l0,-178 c0,-46,-23,-65,-66,-65 c-47,0,-74,25,-91,45 l-57,-45 l258,-338 l61,40 l-117,152 c-27,35,-47,58,-69,83 Z M876,578 c26,-23,43,-59,43,-95 c0,-62,-52,-95,-144,-116 c1,-9,2,-18,4,-27 l-182,0 l0,238 Z M862,333 c77,18,135,69,135,139 c0,44,-16,76,-41,102 l0,4 l210,0 l0,-208 c0,-105,-64,-164,-152,-164 c-100,0,-144,73,-152,127 Z M862,333" fill="rgb(0,0,0)" transform="matrix(0.1,0.0,0.0,-0.1,7.0,135.0)"/>
</svg>