<?xml version="1.0" encoding="UTF-8"?>
<svg height="200.0" version="1.1" width="118.0" xmlns="http://www.w3.org/2000/svg" xmlns:xlink="http://www.w3.org/1999/xlink">
 <path d="M0,0 l118,0 l0,200 l-118,0 Z M0,0" fill="rgb(255,255,255)" transform="matrix(1,0,0,-1,0.0,200.0)"/>
 <path d="M0,0 l118,0" fill="none" stroke="rgb(229,229,229)" stroke-width="2" transform="matrix(1,0,0,-1,0.0,135.0)"/>
 <path d="M0,1 l0,-5" fill="none" stroke="rgb(204,204,204)" stroke-width="2" transform="matrix(1,0,0,-1,7.0,135.0)"/>
 <path d="M0,1 l0,-5" fill="none" stroke="rgb(204,204,204)" stroke-width="2" transform="matrix(1,0,0,-1,110.0,135.0)"/>
 <path d="M401,338 c-36,0,-70,5,-99,14 c3,12,5,26,5,41 l0,185 l259,0 c26,-23,44,-59,44,-95 c0,-62,-53,-95,-145,-115 c1,-8,2,-17,4,-25 c-20,-3,-43,-5,-68,-5 Z M153,275 c11,-3,28,-3,38,-3 c28,1,54,9,74,25 c35,-17,86,-28,140,-28 c35,0,62,3,84,7 c37,-89,113,-139,204,-139 c93,0,140,48,158,72 l4,0 l0,-209 l75,0 l0,578 l121,0 l0,64 l-1073,0 l0,-64 l254,0 l0,-178 c0,-46,-23,-65,-66,-65 c-47,0,-74,25,-91,45 l-57,-45 l258,-338 l61,40 l-117,152 c-27,35,-47,58,-69,83 Z M552,333 c77,18,135,69,135,139 c0,44,-16,76,-41,102 l0,4 l210,0 l0,-208 c0,-105,-64,-164,-152,-164 c-100,0,-144,73,-152,127 Z M552,333" fill="rgb(0,0,0)" transform="matrix(0.1,0.0,0.0,-0.1,7.0,135.0)"/>
</svg>