<?xml version="1.0" encoding="UTF-8"?>
<svg height="200.0" version="1.1" width="128.0" xmlns="http://www.w3.org/2000/svg" xmlns:xlink="http://www.w3.org/1999/xlink">
 <path d="M0,0 l128,0 l0,200 l-128,0 Z M0,0" fill="rgb(255,255,255)" transform="matrix(1,0,0,-1,0.0,200.0)"/>
 <path d="M0,0 l128,0" fill="none" stroke="rgb(229,229,229)" stroke-width="2" transform="matrix(1,0,0,-1,0.0,135.0)"/>
 <path d="M0,1 l0,-5" fill="none" stroke="rgb(204,204,204)" stroke-width="2" transform="matrix(1,0,0,-1,7.0,135.0)"/>
 <path d="M0,1 l0,-5" fill="none" stroke="rgb(204,204,204)" stroke-width="2" transform="matrix(1,0,0,-1,120.0,135.0)"/>
 <path d="M410,338 c-37,0,-75,5,-106,14 c2,10,3,21,3,33 l0,193 l652,0 l0,-155 l-4,0 c-15,17,-45,33,-85,33 c-50,0,-94,-30,-109,-84 l-4,0 c-15,48,-58,80,-123,80 c-63,0,-124,-37,-149,-107 c-21,-5,-47,-7,-75,-7 Z M153,267 c11,-3,28,-3,38,-3 c31,1,60,11,81,31 c37,-16,90,-26,141,-26 c23,0,43,1,60,4 c0,0,0,-1,0,-2 c0,-125,81,-226,177,-278 l51,54 c-98,53,-150,131,-150,222 c0,80,42,114,90,114 c50,0,82,-32,82,-97 l0,-95 l73,0 l0,95 c0,68,34,101,83,101 c34,0,65,-18,80,-33 l0,-354 l76,0 l0,578 l120,0 l0,64 l-1177,0 l0,-64 l254,0 l0,-186 c0,-46,-23,-65,-66,-65 c-47,0,-74,26,-91,45 l-57,-45 l258,-338 l61,40 l-117,152 c-27,36,-47,58,-69,83 Z M153,267" fill="rgb(0,0,0)" transform="matrix(0.1,0.0,0.0,-0.1,7.0,135.0)"/>
</svg>