<?xml version="1.0" encoding="UTF-8"?>
<svg height="200.0" version="1.1" width="124.0" xmlns="http://www.w3.org/2000/svg" xmlns:xlink="http://www.w3.org/1999/xlink">
 <path d="M0,0 l124,0 l0,200 l-124,0 Z M0,0" fill="rgb(255,255,255)" transform="matrix(1,0,0,-1,0.0,200.0)"/>
 <path d="M0,0 l124,0" fill="none" stroke="rgb(229,229,229)" stroke-width="2" transform="matrix(1,0,0,-1,0.0,135.0)"/>
 <path d="M0,1 l0,-5" fill="none" stroke="rgb(204,204,204)" stroke-width="2" transform="matrix(1,0,0,-1,7.0,135.0)"/>
 <path d="M0,1 l0,-5" fill="none" stroke="rgb(204,204,204)" stroke-width="2" transform="matrix(1,0,0,-1,116.0,135.0)"/>
 <path d="M410,338 c-37,0,-76,5,-108,15 c3,12,5,25,5,40 l0,185 l334,0 l0,-186 c0,-46,-22,-65,-66,-65 c-46,0,-73,25,-91,45 l-41,-33 c-11,0,-22,-1,-33,-1 Z M153,275 c11,-3,28,-3,38,-3 c28,1,54,10,75,26 c37,-18,93,-29,147,-29 c21,0,40,1,56,3 l216,-283 l61,40 l-116,152 c-27,36,-47,58,-69,83 l1,3 c10,-3,26,-3,34,-3 c33,1,63,11,86,31 c37,-14,91,-24,141,-24 c40,0,69,3,92,8 l0,-279 l75,0 l0,578 l121,0 l0,64 l-1133,0 l0,-64 l254,0 l0,-178 c0,-46,-23,-65,-66,-65 c-47,0,-74,25,-91,45 l-57,-45 l258,-338 l61,40 l-117,152 c-27,35,-47,58,-69,83 Z M820,338 c-37,0,-75,5,-107,14 c3,10,4,22,4,34 l0,192 l198,0 l0,-227 c-26,-8,-60,-13,-95,-13 Z M820,338" fill="rgb(0,0,0)" transform="matrix(0.1,0.0,0.0,-0.1,7.0,135.0)"/>
</svg>