<?xml version="1.0" encoding="UTF-8"?>
<svg height="200.0" version="1.1" width="72.0" xmlns="http://www.w3.org/2000/svg" xmlns:xlink="http://www.w3.org/1999/xlink">
 <path d="M0,0 l72,0 l0,200 l-72,0 Z M0,0" fill="rgb(255,255,255)" transform="matrix(1,0,0,-1,0.0,200.0)"/>
 <path d="M0,0 l72,0" fill="none" stroke="rgb(229,229,229)" stroke-width="2" transform="matrix(1,0,0,-1,0.0,135.0)"/>
 <path d="M0,1 l0,-5" fill="none" stroke="rgb(204,204,204)" stroke-width="2" transform="matrix(1,0,0,-1,7.0,135.0)"/>
 <path d="M0,1 l0,-5" fill="none" stroke="rgb(204,204,204)" stroke-width="2" transform="matrix(1,0,0,-1,65.0,135.0)"/>
 <path d="M329,52 c58,0,93,37,93,96 l0,77 c30,-20,47,-53,47,-99 c0,-30,-7,-68,-20,-98 l69,0 c11,27,17,64,17,91 c0,124,-85,194,-218,194 c-56,0,-102,-12,-131,-27 c-36,19,-52,52,-52,80 c0,27,17,48,63,48 l293,0 l0,164 l111,0 l0,64 l-623,0 l0,-64 l438,0 l0,-99 l-239,0 c-74,0,-119,-45,-119,-104 c0,-49,33,-97,75,-123 c-41,-35,-63,-83,-63,-133 c0,-123,107,-220,290,-236 l34,61 c-198,14,-249,97,-249,171 c0,55,35,98,90,120 l0,-87 c0,-58,31,-96,94,-96 Z M322,251 c14,0,27,-1,41,-3 l0,-99 c0,-28,-7,-45,-34,-45 c-26,0,-33,18,-33,45 l0,101 c8,0,17,1,26,1 Z M322,251" fill="rgb(0,0,0)" transform="matrix(0.1,0.0,0.0,-0.1,7.0,135.0)"/>
</svg>