<?xml version="1.0" encoding="UTF-8"?>
<svg height="200.0" version="1.1" width="88.0" xmlns="http://www.w3.org/2000/svg" xmlns:xlink="http://www.w3.org/1999/xlink">
 <path d="M0,0 l88,0 l0,200 l-88,0 Z M0,0" fill="rgb(255,255,255)" transform="matrix(1,0,0,-1,0.0,200.0)"/>
 <path d="M0,0 l88,0" fill="none" stroke="rgb(229,229,229)" stroke-width="2" transform="matrix(1,0,0,-1,0.0,135.0)"/>
 <path d="M0,1 l0,-5" fill="none" stroke="rgb(204,204,204)" stroke-width="2" transform="matrix(1,0,0,-1,7.0,135.0)"/>
 <path d="M0,1 l0,-5" fill="none" stroke="rgb(204,204,204)" stroke-width="2" transform="matrix(1,0,0,-1,80.0,135.0)"/>
 <path d="M436,-22 c-197,14,-294,84,-294,178 c0,78,98,128,199,130 c26,1,39,-7,39,-21 c0,-25,-40,-50,-116,-91 c15,-61,84,-121,173,-121 c68,0,110,31,129,59 l4,0 l0,-121 l73,0 l0,587 l111,0 l0,64 l-776,0 l0,-64 l358,0 l0,-93 l-158,0 c-74,0,-120,-42,-120,-102 c0,-48,30,-89,67,-111 c-35,-32,-56,-71,-56,-115 c0,-125,133,-219,334,-240 Z M356,160 c57,33,93,63,93,107 c0,43,-36,76,-115,76 c-48,0,-106,-14,-152,-36 c-28,17,-46,44,-46,68 c0,27,16,46,64,46 l211,0 l0,157 l159,0 l0,-337 c-1,-52,-36,-126,-127,-126 c-49,0,-78,26,-87,45 Z M356,160" fill="rgb(0,0,0)" transform="matrix(0.1,0.0,0.0,-0.1,7.0,135.0)"/>
</svg>