<?xml version="1.0" encoding="UTF-8"?>
<svg height="200.0" version="1.1" width="74.0" xmlns="http://www.w3.org/2000/svg" xmlns:xlink="http://www.w3.org/1999/xlink">
 <path d="M0,0 l74,0 l0,200 l-74,0 Z M0,0" fill="rgb(255,255,255)" transform="matrix(1,0,0,-1,0.0,200.0)"/>
 <path d="M0,0 l74,0" fill="none" stroke="rgb(229,229,229)" stroke-width="2" transform="matrix(1,0,0,-1,0.0,135.0)"/>
 <path d="M0,1 l0,-5" fill="none" stroke="rgb(204,204,204)" stroke-width="2" transform="matrix(1,0,0,-1,7.0,135.0)"/>
 <path d="M0,1 l0,-5" fill="none" stroke="rgb(204,204,204)" stroke-width="2" transform="matrix(1,0,0,-1,66.0,135.0)"/>
 <path d="M312,-111 c-114,47,-166,118,-166,211 c0,85,69,148,179,148 c47,0,86,-15,113,-43 c-34,-5,-53,-24,-60,-39 c-14,17,-36,29,-63,29 c-58,0,-93,-41,-93,-93 c0,-57,32,-120,112,-163 l35,38 c-70,38,-87,79,-87,122 c0,27,17,42,36,42 c18,0,35,-11,35,-37 l0,-44 l53,0 l0,38 c0,36,24,62,59,60 c6,-15,8,-31,8,-49 c0,-35,-9,-77,-26,-109 l69,0 c13,27,21,70,21,108 c0,103,-76,202,-225,202 c-41,0,-80,-9,-114,-24 c-31,19,-50,53,-50,81 c0,27,15,46,64,46 l265,0 l0,165 l134,0 l0,64 l-633,0 l0,-64 l426,0 l0,-101 l-214,0 c-74,0,-119,-42,-119,-102 c0,-49,35,-94,72,-121 c-46,-37,-69,-93,-69,-150 c0,-108,71,-206,192,-263 Z M312,-111" fill="rgb(0,0,0)" transform="matrix(0.1,0.0,0.0,-0.1,7.0,135.0)"/>
</svg>