<?xml version="1.0" encoding="UTF-8"?>
<svg height="200.0" version="1.1" width="74.0" xmlns="http://www.w3.org/2000/svg" xmlns:xlink="http://www.w3.org/1999/xlink">
 <path d="M0,0 l74,0 l0,200 l-74,0 Z M0,0" fill="rgb(255,255,255)" transform="matrix(1,0,0,-1,0.0,200.0)"/>
 <path d="M0,0 l74,0" fill="none" stroke="rgb(229,229,229)" stroke-width="2" transform="matrix(1,0,0,-1,0.0,135.0)"/>
 <path d="M0,1 l0,-5" fill="none" stroke="rgb(204,204,204)" stroke-width="2" transform="matrix(1,0,0,-1,7.0,135.0)"/>
 <path d="M0,1 l0,-5" fill="none" stroke="rgb(204,204,204)" stroke-width="2" transform="matrix(1,0,0,-1,66.0,135.0)"/>
 <path d="M457,32 c0,-20,-13,-55,-14,-58 l65,0 c1,5,14,57,14,127 c0,104,-64,203,-216,203 c-34,0,-66,-7,-97,-18 c-33,17,-54,50,-54,81 c0,27,15,46,64,46 l265,0 l0,165 l126,0 l0,64 l-632,0 l0,-64 l433,0 l0,-101 l-214,0 c-74,0,-120,-42,-120,-102 c0,-50,35,-95,75,-121 c-45,-35,-69,-86,-69,-145 c0,-122,106,-212,273,-254 l44,53 c-166,34,-244,102,-244,200 c0,72,60,134,167,134 c83,0,130,-49,130,-115 c0,-46,-30,-81,-82,-81 c-38,0,-55,26,-55,50 c0,30,21,49,50,49 c19,0,32,-5,40,-9 l0,55 c-11,5,-27,8,-47,8 c-56,0,-107,-37,-107,-99 c0,-54,45,-108,114,-108 c46,0,75,24,86,40 Z M457,32" fill="rgb(0,0,0)" transform="matrix(0.1,0.0,0.0,-0.1,7.0,135.0)"/>
</svg>