<?xml version="1.0" encoding="UTF-8"?>
<svg height="200.0" version="1.1" width="130.0" xmlns="http://www.w3.org/2000/svg" xmlns:xlink="http://www.w3.org/1999/xlink">
 <path d="M0,0 l130,0 l0,200 l-130,0 Z M0,0" fill="rgb(255,255,255)" transform="matrix(1,0,0,-1,0.0,200.0)"/>
 <path d="M0,0 l130,0" fill="none" stroke="rgb(229,229,229)" stroke-width="2" transform="matrix(1,0,0,-1,0.0,135.0)"/>
 <path d="M0,1 l0,-5" fill="none" stroke="rgb(204,204,204)" stroke-width="2" transform="matrix(1,0,0,-1,7.0,135.0)"/>
 <path d="M0,1 l0,-5" fill="none" stroke="rgb(204,204,204)" stroke-width="2" transform="matrix(1,0,0,-1,123.0,135.0)"/>
 <path d="M522,464 c-77,0,-120,-35,-148,-85 c-22,35,-67,83,-144,83 c-109,0,-179,-82,-179,-197 c0,-115,63,-193,161,-193 c77,0,121,36,150,87 c21,-36,68,-85,147,-85 c79,0,141,45,166,120 c40,-37,91,-57,149,-57 c93,0,140,48,158,72 l4,0 l0,-209 l76,0 l0,578 l121,0 l0,64 l-1205,0 l0,-64 l720,0 c26,-23,43,-59,43,-95 c0,-46,-29,-76,-82,-97 c-29,49,-77,78,-137,78 Z M510,139 c-62,0,-95,39,-118,88 c1,3,2,7,3,10 c26,75,43,160,122,160 c62,0,95,-57,95,-129 c0,-81,-41,-129,-102,-129 Z M218,139 c-63,0,-92,58,-92,129 c0,78,42,129,103,129 c55,0,92,-39,116,-86 c-2,-4,-3,-7,-4,-11 c-23,-76,-45,-161,-123,-161 Z M684,333 c77,18,134,69,134,139 c0,44,-16,76,-40,102 l0,4 l209,0 l0,-208 c0,-105,-64,-164,-152,-164 c-100,0,-143,73,-151,127 Z M684,333" fill="rgb(0,0,0)" transform="matrix(0.1,0.0,0.0,-0.1,7.0,135.0)"/>
</svg>