<?xml version="1.0" encoding="UTF-8"?>
<svg height="200.0" version="1.1" width="164.0" xmlns="http://www.w3.org/2000/svg" xmlns:xlink="http://www.w3.org/1999/xlink">
 <path d="M0,0 l164,0 l0,200 l-164,0 Z M0,0" fill="rgb(255,255,255)" transform="matrix(1,0,0,-1,0.0,200.0)"/>
 <path d="M0,0 l164,0" fill="none" stroke="rgb(229,229,229)" stroke-width="2" transform="matrix(1,0,0,-1,0.0,135.0)"/>
 <path d="M0,1 l0,-5" fill="none" stroke="rgb(204,204,204)" stroke-width="2" transform="matrix(1,0,0,-1,7.0,135.0)"/>
 <path d="M0,1 l0,-5" fill="none" stroke="rgb(204,204,204)" stroke-width="2" transform="matrix(1,0,0,-1,34.0,135.0)"/>
 <path d="M295,578 l0,64 l-121,0 l0,17 c0,123,105,198,481,198 c403,0,694,-72,820,-149 l33,57 c-116,78,-430,160,-852,160 c-429,0,-557,-105,-557,-269 l0,-14 l-121,0 l0,-64 l121,0 l0,-578 l75,0 l0,578 Z M295,578" fill="rgb(0,0,0)" transform="matrix(0.1,0.0,0.0,-0.1,7.0,135.0)"/>
</svg>