<?xml version="1.0" encoding="UTF-8"?>
<svg height="200.0" version="1.1" width="50.0" xmlns="http://www.w3.org/2000/svg" xmlns:xlink="http://www.w3.org/1999/xlink">
 <path d="M0,0 l50,0 l0,200 l-50,0 Z M0,0" fill="rgb(255,255,255)" transform="matrix(1,0,0,-1,0.0,200.0)"/>
 <path d="M0,0 l50,0" fill="none" stroke="rgb(229,229,229)" stroke-width="2" transform="matrix(1,0,0,-1,0.0,135.0)"/>
 <path d="M0,-4 l0,8" fill="none" stroke="rgb(255,76,25)" stroke-width="2" transform="matrix(1,0,0,-1,45.0,135.0)"/>
 <path d="M-404,-94 c31,-50,113,-140,236,-140 c94,0,147,55,147,126 c0,73,-55,117,-125,117 c-53,0,-87,-23,-110,-50 l48,-45 c13,18,34,32,62,32 c34,0,57,-22,57,-55 c0,-35,-28,-63,-77,-63 c-92,0,-151,66,-186,121 Z M-404,-94" fill="rgb(0,0,0)" transform="matrix(0.1,0.0,0.0,-0.1,45.0,135.0)"/>
</svg>