<?xml version="1.0" encoding="UTF-8"?>
<svg height="200.0" version="1.1" width="40.0" xmlns="http://www.w3.org/2000/svg" xmlns:xlink="http://www.w3.org/1999/xlink">
 <path d="M0,0 l40,0 l0,200 l-40,0 Z M0,0" fill="rgb(255,255,255)" transform="matrix(1,0,0,-1,0.0,200.0)"/>
 <path d="M0,0 l40,0" fill="none" stroke="rgb(229,229,229)" stroke-width="2" transform="matrix(1,0,0,-1,0.0,135.0)"/>
 <path d="M0,-4 l0,8" fill="none" stroke="rgb(255,76,25)" stroke-width="2" transform="matrix(1,0,0,-1,32.0,135.0)"/>
 <path d="M-66,-186 c-15,-4,-35,-5,-55,-5 c-43,0,-79,13,-79,52 c0,38,40,59,128,60 l-16,61 c-108,1,-185,-44,-185,-117 c0,-59,50,-88,86,-91 c-37,-8,-73,-35,-73,-86 c0,-74,67,-108,150,-108 c52,0,108,14,145,39 l-28,57 c-25,-21,-75,-34,-119,-34 c-50,0,-77,19,-77,49 c0,37,37,60,133,67 Z M-66,-186" fill="rgb(0,0,0)" transform="matrix(0.1,0.0,0.0,-0.1,32.0,135.0)"/>
</svg>