<?xml version="1.0" encoding="UTF-8"?>
<svg height="200.0" version="1.1" width="100.0" xmlns="http://www.w3.org/2000/svg" xmlns:xlink="http://www.w3.org/1999/xlink">
 <path d="M0,0 l100,0 l0,200 l-100,0 Z M0,0" fill="rgb(255,255,255)" transform="matrix(1,0,0,-1,0.0,200.0)"/>
 <path d="M0,0 l100,0" fill="none" stroke="rgb(229,229,229)" stroke-width="2" transform="matrix(1,0,0,-1,0.0,135.0)"/>
 <path d="M0,1 l0,-5" fill="none" stroke="rgb(204,204,204)" stroke-width="2" transform="matrix(1,0,0,-1,7.0,135.0)"/>
 <path d="M0,1 l0,-5" fill="none" stroke="rgb(204,204,204)" stroke-width="2" transform="matrix(1,0,0,-1,93.0,135.0)"/>
 <path d="M818,-112 l-58,236 c17,16,34,42,34,82 c0,43,-28,71,-50,82 l-55,-20 l0,-102 c-18,-15,-50,-25,-90,-25 c-82,0,-140,59,-140,131 c0,56,29,92,117,115 l157,38 l0,153 l147,0 l0,64 l-902,0 l0,-64 l140,0 l0,-240 l-49,-37 c1,-43,24,-102,60,-132 l63,0 l0,102 l190,0 c6,-102,92,-199,229,-199 c35,0,66,6,93,18 l18,-130 Z M657,578 l0,-100 l-120,-30 c-77,-19,-126,-54,-145,-108 l-199,0 l0,238 Z M657,578" fill="rgb(0,0,0)" transform="matrix(0.1,0.0,0.0,-0.1,7.0,135.0)"/>
</svg>