<?xml version="1.0" encoding="UTF-8"?>
<svg height="200.0" version="1.1" width="112.0" xmlns="http://www.w3.org/2000/svg" xmlns:xlink="http://www.w3.org/1999/xlink">
 <path d="M0,0 l112,0 l0,200 l-112,0 Z M0,0" fill="rgb(255,255,255)" transform="matrix(1,0,0,-1,0.0,200.0)"/>
 <path d="M0,0 l112,0" fill="none" stroke="rgb(229,229,229)" stroke-width="2" transform="matrix(1,0,0,-1,0.0,135.0)"/>
 <path d="M0,1 l0,-5" fill="none" stroke="rgb(204,204,204)" stroke-width="2" transform="matrix(1,0,0,-1,7.0,135.0)"/>
 <path d="M0,1 l0,-5" fill="none" stroke="rgb(204,204,204)" stroke-width="2" transform="matrix(1,0,0,-1,105.0,135.0)"/>
 <path d="M938,-112 l-58,236 c17,16,34,42,34,82 c0,43,-28,71,-50,82 l-55,-20 l0,-102 c-18,-15,-50,-25,-90,-25 c-82,0,-140,59,-140,131 c0,56,29,92,117,115 l157,38 l0,153 l147,0 l0,64 l-1022,0 l0,-64 l799,0 l0,-100 l-120,-30 c-32,-8,-60,-19,-82,-33 c-27,23,-65,41,-116,41 c-60,0,-103,-35,-118,-84 l-4,0 c-15,48,-58,80,-123,80 c-82,0,-161,-63,-161,-181 c0,-125,81,-226,177,-278 l51,54 c-98,53,-150,131,-150,222 c0,80,42,114,90,114 c50,0,82,-32,82,-97 l0,-95 l73,0 l0,96 c0,65,35,100,88,100 c26,0,47,-8,62,-18 c-16,-24,-24,-54,-24,-88 c0,-106,88,-209,229,-209 c35,0,66,6,93,18 l18,-130 Z M938,-112" fill="rgb(0,0,0)" transform="matrix(0.1,0.0,0.0,-0.1,7.0,135.0)"/>
</svg>