<?xml version="1.0" encoding="UTF-8"?>
<svg height="200.0" version="1.1" width="134.0" xmlns="http://www.w3.org/2000/svg" xmlns:xlink="http://www.w3.org/1999/xlink">
 <path d="M0,0 l134,0 l0,200 l-134,0 Z M0,0" fill="rgb(255,255,255)" transform="matrix(1,0,0,-1,0.0,200.0)"/>
 <path d="M0,0 l134,0" fill="none" stroke="rgb(229,229,229)" stroke-width="2" transform="matrix(1,0,0,-1,0.0,135.0)"/>
 <path d="M0,1 l0,-5" fill="none" stroke="rgb(204,204,204)" stroke-width="2" transform="matrix(1,0,0,-1,7.0,135.0)"/>
 <path d="M0,1 l0,-5" fill="none" stroke="rgb(204,204,204)" stroke-width="2" transform="matrix(1,0,0,-1,126.0,135.0)"/>
 <path d="M839,-38 l-140,114 l16,0 c90,0,161,54,161,142 c0,97,-91,148,-144,166 l0,4 l287,0 l0,-427 l76,0 l0,617 l121,0 l0,64 l-1238,0 l0,-64 l1041,0 l0,-125 l-713,0 l-33,-59 l0,-5 c38,-12,92,-46,92,-109 c0,-48,-32,-83,-87,-83 c-107,0,-171,130,-176,250 l-74,-31 c14,-120,91,-287,255,-287 c97,0,157,65,157,146 c0,60,-30,93,-48,109 l0,4 l220,0 c85,-24,187,-76,187,-162 c0,-62,-47,-97,-115,-97 c-15,0,-32,2,-48,6 l-102,93 c-20,-13,-31,-32,-31,-59 c0,-45,39,-87,119,-94 l134,-149 Z M839,-38" fill="rgb(0,0,0)" transform="matrix(0.1,0.0,0.0,-0.1,7.0,135.0)"/>
</svg>