<?xml version="1.0" encoding="UTF-8"?>
<svg height="200.0" version="1.1" width="82.0" xmlns="http://www.w3.org/2000/svg" xmlns:xlink="http://www.w3.org/1999/xlink">
 <path d="M0,0 l82,0 l0,200 l-82,0 Z M0,0" fill="rgb(255,255,255)" transform="matrix(1,0,0,-1,0.0,200.0)"/>
 <path d="M0,0 l82,0" fill="none" stroke="rgb(229,229,229)" stroke-width="2" transform="matrix(1,0,0,-1,0.0,135.0)"/>
 <path d="M0,1 l0,-5" fill="none" stroke="rgb(204,204,204)" stroke-width="2" transform="matrix(1,0,0,-1,7.0,135.0)"/>
 <path d="M0,1 l0,-5" fill="none" stroke="rgb(204,204,204)" stroke-width="2" transform="matrix(1,0,0,-1,75.0,135.0)"/>
 <path d="M309,41 c188,0,315,147,315,288 c0,70,-36,126,-93,147 l0,102 l169,0 l0,64 l-722,0 l0,-64 l148,0 l0,-4 c-16,-13,-50,-42,-50,-104 c0,-59,38,-107,98,-122 l0,-4 c-42,-16,-84,-56,-84,-126 c0,-93,78,-177,219,-177 Z M483,296 c-41,6,-64,30,-64,66 c0,35,27,58,60,58 c40,0,72,-32,72,-91 c0,-121,-110,-220,-240,-220 c-93,0,-142,50,-142,111 c0,57,39,93,106,94 l23,0 l0,67 l-37,0 c-67,0,-105,38,-105,94 c0,62,46,103,113,103 l190,0 l0,-94 c-68,-8,-113,-61,-113,-122 c0,-58,37,-102,91,-115 Z M43,-23 c0,-27,21,-47,48,-47 c28,0,48,20,48,47 c0,28,-20,48,-48,48 c-27,0,-48,-20,-48,-48 Z M43,-23" fill="rgb(0,0,0)" transform="matrix(0.1,0.0,0.0,-0.1,7.0,135.0)"/>
</svg>