<?xml version="1.0" encoding="UTF-8"?>
<svg height="200.0" version="1.1" width="36.0" xmlns="http://www.w3.org/2000/svg" xmlns:xlink="http://www.w3.org/1999/xlink">
 <path d="M0,0 l36,0 l0,200 l-36,0 Z M0,0" fill="rgb(255,255,255)" transform="matrix(1,0,0,-1,0.0,200.0)"/>
 <path d="M0,0 l36,0" fill="none" stroke="rgb(229,229,229)" stroke-width="2" transform="matrix(1,0,0,-1,0.0,135.0)"/>
 <path d="M0,-4 l0,8" fill="none" stroke="rgb(255,76,25)" stroke-width="2" transform="matrix(1,0,0,-1,28.0,135.0)"/>
 <path d="M-64,863 c31,0,55,-11,69,-21 l28,63 c-12,8,-43,26,-101,26 c-95,0,-166,-71,-166,-158 c0,-72,37,-114,62,-130 l2,-7 l93,0 l0,6 c-39,16,-85,55,-85,123 c0,58,45,98,98,98 Z M-92,748 c0,-27,21,-46,48,-46 c28,0,49,19,49,46 c0,28,-21,50,-49,50 c-27,0,-48,-22,-48,-50 Z M-92,748" fill="rgb(0,0,0)" transform="matrix(0.1,0.0,0.0,-0.1,28.0,135.0)"/>
</svg>