<?xml version="1.0" encoding="UTF-8"?>
<svg height="200.0" version="1.1" width="48.0" xmlns="http://www.w3.org/2000/svg" xmlns:xlink="http://www.w3.org/1999/xlink">
 <path d="M0,0 l48,0 l0,200 l-48,0 Z M0,0" fill="rgb(255,255,255)" transform="matrix(1,0,0,-1,0.0,200.0)"/>
 <path d="M0,0 l48,0" fill="none" stroke="rgb(229,229,229)" stroke-width="2" transform="matrix(1,0,0,-1,0.0,135.0)"/>
 <path d="M0,-4 l0,8" fill="none" stroke="rgb(255,76,25)" stroke-width="2" transform="matrix(1,0,0,-1,28.0,135.0)"/>
 <path d="M-18,926 c-14,3,-31,5,-51,5 c-95,0,-165,-71,-165,-158 c0,-72,37,-114,61,-130 l3,-7 l92,0 l0,6 c-39,16,-84,55,-84,123 c0,58,44,98,97,98 c13,0,25,-2,35,-5 Z M-15,824 c0,-22,17,-37,39,-37 c22,0,39,15,39,37 c0,23,-17,39,-39,39 c-22,0,-39,-16,-39,-39 Z M24,687 c71,0,114,45,131,82 l-46,29 c-12,-26,-40,-56,-85,-56 c-46,0,-74,30,-86,56 l-45,-29 c16,-37,59,-82,131,-82 Z M24,687" fill="rgb(0,0,0)" transform="matrix(0.1,0.0,0.0,-0.1,28.0,135.0)"/>
</svg>