<?xml version="1.0" encoding="UTF-8"?>
<svg height="200.0" version="1.1" width="38.0" xmlns="http://www.w3.org/2000/svg" xmlns:xlink="http://www.w3.org/1999/xlink">
 <path d="M0,0 l38,0 l0,200 l-38,0 Z M0,0" fill="rgb(255,255,255)" transform="matrix(1,0,0,-1,0.0,200.0)"/>
 <path d="M0,0 l38,0" fill="none" stroke="rgb(229,229,229)" stroke-width="2" transform="matrix(1,0,0,-1,0.0,135.0)"/>
 <path d="M0,-4 l0,8" fill="none" stroke="rgb(255,76,25)" stroke-width="2" transform="matrix(1,0,0,-1,5.0,135.0)"/>
 <path d="M114,909 c0,-22,17,-38,39,-38 c22,0,39,16,39,38 c0,23,-17,38,-39,38 c-22,0,-39,-15,-39,-38 Z M153,772 c72,0,115,45,131,82 l-45,28 c-13,-25,-40,-55,-86,-55 c-46,0,-73,30,-86,55 l-45,-28 c17,-37,60,-82,131,-82 Z M153,772" fill="rgb(0,0,0)" transform="matrix(0.1,0.0,0.0,-0.1,5.0,135.0)"/>
</svg>