<?xml version="1.0" encoding="UTF-8"?>
<svg height="200.0" version="1.1" width="36.0" xmlns="http://www.w3.org/2000/svg" xmlns:xlink="http://www.w3.org/1999/xlink">
 <path d="M0,0 l36,0 l0,200 l-36,0 Z M0,0" fill="rgb(255,255,255)" transform="matrix(1,0,0,-1,0.0,200.0)"/>
 <path d="M0,0 l36,0" fill="none" stroke="rgb(229,229,229)" stroke-width="2" transform="matrix(1,0,0,-1,0.0,135.0)"/>
 <path d="M0,-4 l0,8" fill="none" stroke="rgb(255,76,25)" stroke-width="2" transform="matrix(1,0,0,-1,7.0,135.0)"/>
 <path d="M62,735 c-5,8,-14,31,-14,57 c0,58,36,96,92,96 c32,0,52,-10,67,-18 l28,61 c-16,9,-47,24,-100,24 c-91,0,-151,-68,-151,-157 c0,-28,5,-62,16,-90 Z M107,789 c0,-24,19,-42,43,-42 c25,0,43,18,43,42 c0,25,-18,44,-43,44 c-24,0,-43,-19,-43,-44 Z M107,789" fill="rgb(0,0,0)" transform="matrix(0.1,0.0,0.0,-0.1,7.0,135.0)"/>
</svg>