<?xml version="1.0" encoding="UTF-8"?>
<svg height="200.0" version="1.1" width="76.0" xmlns="http://www.w3.org/2000/svg" xmlns:xlink="http://www.w3.org/1999/xlink">
 <path d="M0,0 l76,0 l0,200 l-76,0 Z M0,0" fill="rgb(255,255,255)" transform="matrix(1,0,0,-1,0.0,200.0)"/>
 <path d="M0,0 l76,0" fill="none" stroke="rgb(229,229,229)" stroke-width="2" transform="matrix(1,0,0,-1,0.0,135.0)"/>
 <path d="M0,1 l0,-5" fill="none" stroke="rgb(204,204,204)" stroke-width="2" transform="matrix(1,0,0,-1,7.0,135.0)"/>
 <path d="M0,1 l0,-5" fill="none" stroke="rgb(204,204,204)" stroke-width="2" transform="matrix(1,0,0,-1,60.0,135.0)"/>
 <path d="M287,32 c83,2,171,48,171,150 c0,74,-47,118,-76,132 l-169,-35 c-35,9,-64,43,-64,78 c0,32,14,55,72,55 l189,0 l0,166 l143,0 l0,64 l-157,0 c-39,16,-84,55,-84,123 c0,58,45,98,98,98 c12,0,24,-2,34,-5 l12,68 c-14,3,-31,5,-51,5 c-94,0,-165,-71,-165,-158 c0,-72,37,-114,62,-130 l0,-1 l-324,0 l0,-64 l358,0 l0,-101 l-150,0 c-72,0,-115,-42,-115,-103 c0,-78,59,-143,130,-165 l155,32 c12,-8,28,-27,28,-60 c0,-66,-66,-96,-135,-96 l-34,0 l-130,89 c-14,-8,-29,-26,-29,-52 c0,-47,45,-96,149,-99 l158,-142 l81,43 l-157,104 Z M498,687 c71,0,114,45,131,82 l-45,29 c-13,-26,-40,-56,-86,-56 c-46,0,-73,30,-86,56 l-45,-29 c16,-37,59,-82,131,-82 Z M459,824 c0,-22,17,-37,39,-37 c22,0,39,15,39,37 c0,23,-17,39,-39,39 c-22,0,-39,-16,-39,-39 Z M459,824" fill="rgb(0,0,0)" transform="matrix(0.1,0.0,0.0,-0.1,7.0,135.0)"/>
</svg>