<?xml version="1.0" encoding="UTF-8"?>
<svg height="200.0" version="1.1" width="70.0" xmlns="http://www.w3.org/2000/svg" xmlns:xlink="http://www.w3.org/1999/xlink">
 <path d="M0,0 l70,0 l0,200 l-70,0 Z M0,0" fill="rgb(255,255,255)" transform="matrix(1,0,0,-1,0.0,200.0)"/>
 <path d="M0,0 l70,0" fill="none" stroke="rgb(229,229,229)" stroke-width="2" transform="matrix(1,0,0,-1,0.0,135.0)"/>
 <path d="M0,1 l0,-5" fill="none" stroke="rgb(204,204,204)" stroke-width="2" transform="matrix(1,0,0,-1,28.0,135.0)"/>
 <path d="M0,1 l0,-5" fill="none" stroke="rgb(204,204,204)" stroke-width="2" transform="matrix(1,0,0,-1,55.0,135.0)"/>
 <path d="M295,578 l0,64 l-122,0 c-13,171,-110,283,-243,283 c-94,0,-155,-61,-155,-136 c0,-36,13,-68,32,-88 l76,16 c-21,20,-30,46,-30,70 c0,42,30,72,79,72 c98,0,161,-104,167,-217 l-121,0 l0,-64 l121,0 l0,-578 l75,0 l0,578 Z M250,772 c68,0,105,46,118,82 l-47,25 c-11,-25,-30,-53,-71,-53 c-41,0,-61,28,-71,53 l-48,-25 c14,-36,50,-82,119,-82 Z M250,864 c22,0,39,16,39,38 c0,23,-17,38,-39,38 c-22,0,-39,-15,-39,-38 c0,-21,17,-38,39,-38 Z M250,864" fill="rgb(0,0,0)" transform="matrix(0.1,0.0,0.0,-0.1,28.0,135.0)"/>
</svg>