<?xml version="1.0" encoding="UTF-8"?>
<svg height="200.0" version="1.1" width="76.0" xmlns="http://www.w3.org/2000/svg" xmlns:xlink="http://www.w3.org/1999/xlink">
 <path d="M0,0 l76,0 l0,200 l-76,0 Z M0,0" fill="rgb(255,255,255)" transform="matrix(1,0,0,-1,0.0,200.0)"/>
 <path d="M0,0 l76,0" fill="none" stroke="rgb(229,229,229)" stroke-width="2" transform="matrix(1,0,0,-1,0.0,135.0)"/>
 <path d="M0,1 l0,-5" fill="none" stroke="rgb(204,204,204)" stroke-width="2" transform="matrix(1,0,0,-1,28.0,135.0)"/>
 <path d="M0,1 l0,-5" fill="none" stroke="rgb(204,204,204)" stroke-width="2" transform="matrix(1,0,0,-1,55.0,135.0)"/>
 <path d="M307,959 c-11,3,-26,4,-36,4 c-88,0,-142,-62,-155,-150 l-4,0 c-14,35,-76,112,-182,112 c-94,0,-155,-62,-155,-136 c0,-36,13,-68,32,-88 l76,16 c-21,20,-30,46,-30,69 c0,43,30,73,79,73 c96,0,161,-101,167,-217 l-121,0 l0,-64 l121,0 l0,-578 l75,0 l0,578 l121,0 l0,64 l-121,0 c-7,27,-12,82,-12,113 c0,85,45,141,110,141 c9,0,17,-1,26,-2 Z M268,835 c0,-21,16,-38,38,-38 c22,0,39,16,39,37 c0,23,-17,39,-39,39 c-22,0,-38,-15,-38,-38 Z M306,705 c69,0,105,46,119,82 l-48,25 c-10,-25,-30,-53,-71,-53 c-41,0,-60,28,-71,53 l-47,-25 c13,-36,50,-82,118,-82 Z M306,705" fill="rgb(0,0,0)" transform="matrix(0.1,0.0,0.0,-0.1,28.0,135.0)"/>
</svg>