<?xml version="1.0" encoding="UTF-8"?>
<svg height="200.0" version="1.1" width="94.0" xmlns="http://www.w3.org/2000/svg" xmlns:xlink="http://www.w3.org/1999/xlink">
 <path d="M0,0 l94,0 l0,200 l-94,0 Z M0,0" fill="rgb(255,255,255)" transform="matrix(1,0,0,-1,0.0,200.0)"/>
 <path d="M0,0 l94,0" fill="none" stroke="rgb(229,229,229)" stroke-width="2" transform="matrix(1,0,0,-1,0.0,135.0)"/>
 <path d="M0,1 l0,-5" fill="none" stroke="rgb(204,204,204)" stroke-width="2" transform="matrix(1,0,0,-1,50.0,135.0)"/>
 <path d="M0,1 l0,-5" fill="none" stroke="rgb(204,204,204)" stroke-width="2" transform="matrix(1,0,0,-1,77.0,135.0)"/>
 <path d="M235,951 c-9,1,-15,2,-23,2 c-89,0,-145,-63,-146,-152 c-1,-8,-1,-15,0,-23 l-4,0 c-62,74,-189,148,-323,148 c-120,0,-190,-67,-190,-145 c0,-52,26,-84,45,-98 l73,21 c-19,14,-40,41,-40,74 c0,46,36,82,117,82 c142,0,276,-100,345,-218 l-111,0 l0,-64 l121,0 l0,-578 l75,0 l0,578 l121,0 l0,64 l-127,0 c-33,43,-47,92,-47,133 c0,68,36,111,93,111 c5,0,13,-1,17,-1 Z M275,701 c68,0,105,47,118,82 l-47,26 c-11,-26,-30,-54,-71,-54 c-41,0,-61,28,-71,54 l-48,-26 c14,-35,51,-82,119,-82 Z M275,794 c22,0,39,15,39,37 c0,23,-17,38,-39,38 c-22,0,-38,-14,-38,-37 c0,-22,16,-38,38,-38 Z M275,794" fill="rgb(0,0,0)" transform="matrix(0.1,0.0,0.0,-0.1,50.0,135.0)"/>
</svg>