<?xml version="1.0" encoding="UTF-8"?>
<svg height="200.0" version="1.1" width="64.0" xmlns="http://www.w3.org/2000/svg" xmlns:xlink="http://www.w3.org/1999/xlink">
 <path d="M0,0 l64,0 l0,200 l-64,0 Z M0,0" fill="rgb(255,255,255)" transform="matrix(1,0,0,-1,0.0,200.0)"/>
 <path d="M0,0 l64,0" fill="none" stroke="rgb(229,229,229)" stroke-width="2" transform="matrix(1,0,0,-1,0.0,135.0)"/>
 <path d="M0,-4 l0,8" fill="none" stroke="rgb(255,76,25)" stroke-width="2" transform="matrix(1,0,0,-1,47.0,135.0)"/>
 <path d="M-34,935 c-6,0,-11,1,-18,1 c-98,-5,-167,-101,-139,-211 l-4,0 l-136,176 l-89,-20 l64,-72 c60,-68,141,-147,193,-183 l59,13 l0,4 c-21,25,-38,67,-38,105 c0,86,49,124,109,121 Z M9,701 c68,0,105,46,118,82 l-47,25 c-11,-25,-30,-53,-71,-53 c-41,0,-61,28,-71,53 l-48,-25 c14,-36,50,-82,119,-82 Z M9,793 c22,0,39,16,39,37 c0,23,-17,39,-39,39 c-22,0,-38,-15,-38,-38 c0,-21,16,-38,38,-38 Z M9,793" fill="rgb(0,0,0)" transform="matrix(0.1,0.0,0.0,-0.1,47.0,135.0)"/>
</svg>