<?xml version="1.0" encoding="UTF-8"?>
<svg height="200.0" version="1.1" width="54.0" xmlns="http://www.w3.org/2000/svg" xmlns:xlink="http://www.w3.org/1999/xlink">
 <path d="M0,0 l54,0 l0,200 l-54,0 Z M0,0" fill="rgb(255,255,255)" transform="matrix(1,0,0,-1,0.0,200.0)"/>
 <path d="M0,0 l54,0" fill="none" stroke="rgb(229,229,229)" stroke-width="2" transform="matrix(1,0,0,-1,0.0,135.0)"/>
 <path d="M0,-4 l0,8" fill="none" stroke="rgb(255,76,25)" stroke-width="2" transform="matrix(1,0,0,-1,42.0,135.0)"/>
 <path d="M-374,879 l61,-80 c38,-51,106,-128,147,-166 l6,-5 l57,10 l-187,258 Z M-54,748 c68,0,105,47,118,82 l-48,26 c-10,-26,-29,-54,-70,-54 c-41,0,-61,28,-71,54 l-48,-26 c14,-35,50,-82,119,-82 Z M-54,841 c22,0,39,15,39,37 c0,23,-17,38,-39,38 c-22,0,-39,-14,-39,-37 c0,-22,17,-38,39,-38 Z M-54,841" fill="rgb(0,0,0)" transform="matrix(0.1,0.0,0.0,-0.1,42.0,135.0)"/>
</svg>