<?xml version="1.0" encoding="UTF-8"?>
<svg height="200.0" version="1.1" width="60.0" xmlns="http://www.w3.org/2000/svg" xmlns:xlink="http://www.w3.org/1999/xlink">
 <path d="M0,0 l60,0 l0,200 l-60,0 Z M0,0" fill="rgb(255,255,255)" transform="matrix(1,0,0,-1,0.0,200.0)"/>
 <path d="M0,0 l60,0" fill="none" stroke="rgb(229,229,229)" stroke-width="2" transform="matrix(1,0,0,-1,0.0,135.0)"/>
 <path d="M0,-4 l0,8" fill="none" stroke="rgb(255,76,25)" stroke-width="2" transform="matrix(1,0,0,-1,42.0,135.0)"/>
 <path d="M-99,639 l0,4 c-20,25,-38,67,-38,105 c0,86,49,124,109,121 l-1,66 c-6,0,-11,1,-17,1 c-107,-7,-157,-100,-139,-199 l-4,0 l-101,159 l-84,-17 l61,-80 c35,-46,102,-125,149,-167 Z M132,783 l-47,25 c-11,-25,-30,-53,-71,-53 c-41,0,-61,28,-71,53 l-47,-25 c13,-36,50,-82,118,-82 c68,0,105,46,118,82 Z M53,830 c0,23,-17,39,-39,39 c-22,0,-38,-15,-38,-38 c0,-21,16,-38,38,-38 c22,0,39,16,39,37 Z M53,830" fill="rgb(0,0,0)" transform="matrix(0.1,0.0,0.0,-0.1,42.0,135.0)"/>
</svg>