<?xml version="1.0" encoding="UTF-8"?>
<svg height="200.0" version="1.1" width="64.0" xmlns="http://www.w3.org/2000/svg" xmlns:xlink="http://www.w3.org/1999/xlink">
 <path d="M0,0 l64,0 l0,200 l-64,0 Z M0,0" fill="rgb(255,255,255)" transform="matrix(1,0,0,-1,0.0,200.0)"/>
 <path d="M0,0 l64,0" fill="none" stroke="rgb(229,229,229)" stroke-width="2" transform="matrix(1,0,0,-1,0.0,135.0)"/>
 <path d="M0,-4 l0,8" fill="none" stroke="rgb(255,76,25)" stroke-width="2" transform="matrix(1,0,0,-1,55.0,135.0)"/>
 <path d="M-24,845 c19,0,40,-4,56,-11 l15,67 c-13,6,-36,12,-69,12 c-88,0,-146,-60,-153,-127 l-4,0 l-58,120 l-89,-14 l161,-225 l-3,-2 l-261,229 l-69,-44 l72,-59 c76,-63,216,-156,283,-189 l45,36 c-19,26,-32,63,-32,98 c0,67,45,109,106,109 Z M-24,845" fill="rgb(0,0,0)" transform="matrix(0.1,0.0,0.0,-0.1,55.0,135.0)"/>
</svg>