<?xml version="1.0" encoding="UTF-8"?>
<svg height="200.0" version="1.1" width="64.0" xmlns="http://www.w3.org/2000/svg" xmlns:xlink="http://www.w3.org/1999/xlink">
 <path d="M0,0 l64,0 l0,200 l-64,0 Z M0,0" fill="rgb(255,255,255)" transform="matrix(1,0,0,-1,0.0,200.0)"/>
 <path d="M0,0 l64,0" fill="none" stroke="rgb(229,229,229)" stroke-width="2" transform="matrix(1,0,0,-1,0.0,135.0)"/>
 <path d="M0,-4 l0,8" fill="none" stroke="rgb(255,76,25)" stroke-width="2" transform="matrix(1,0,0,-1,55.0,135.0)"/>
 <path d="M-24,853 c20,0,41,-5,56,-12 l16,67 c-13,6,-36,12,-69,12 c-90,0,-151,-64,-155,-133 l-4,0 l-57,119 l-89,-14 l161,-225 l-3,-2 l-261,229 l-69,-44 l72,-59 c76,-63,216,-156,283,-189 l46,36 c-19,25,-35,64,-35,103 c0,67,47,112,108,112 Z M-68,740 c0,-25,21,-46,47,-46 c28,0,48,21,48,46 c0,28,-20,49,-48,49 c-26,0,-47,-21,-47,-49 Z M-68,740" fill="rgb(0,0,0)" transform="matrix(0.1,0.0,0.0,-0.1,55.0,135.0)"/>
</svg>