<?xml version="1.0" encoding="UTF-8"?>
<svg height="200.0" version="1.1" width="74.0" xmlns="http://www.w3.org/2000/svg" xmlns:xlink="http://www.w3.org/1999/xlink">
 <path d="M0,0 l74,0 l0,200 l-74,0 Z M0,0" fill="rgb(255,255,255)" transform="matrix(1,0,0,-1,0.0,200.0)"/>
 <path d="M0,0 l74,0" fill="none" stroke="rgb(229,229,229)" stroke-width="2" transform="matrix(1,0,0,-1,0.0,135.0)"/>
 <path d="M0,-4 l0,8" fill="none" stroke="rgb(255,76,25)" stroke-width="2" transform="matrix(1,0,0,-1,55.0,135.0)"/>
 <path d="M-97,638 c-22,31,-35,74,-35,117 c0,69,36,123,105,123 l2,68 l-8,0 c-91,-3,-141,-76,-143,-159 l-4,0 l-57,119 l-89,-14 l161,-225 l-3,-2 l-261,229 l-69,-44 l72,-59 c76,-63,216,-156,283,-189 Z M134,779 l-47,25 c-11,-26,-30,-54,-71,-54 c-41,0,-61,28,-71,54 l-48,-25 c14,-36,50,-82,119,-82 c68,0,105,46,118,82 Z M55,826 c0,23,-17,39,-39,39 c-22,0,-38,-15,-38,-38 c0,-22,16,-38,38,-38 c22,0,39,15,39,37 Z M55,826" fill="rgb(0,0,0)" transform="matrix(0.1,0.0,0.0,-0.1,55.0,135.0)"/>
</svg>