<?xml version="1.0" encoding="UTF-8"?>
<svg height="200.0" version="1.1" width="50.0" xmlns="http://www.w3.org/2000/svg" xmlns:xlink="http://www.w3.org/1999/xlink">
 <path d="M0,0 l50,0 l0,200 l-50,0 Z M0,0" fill="rgb(255,255,255)" transform="matrix(1,0,0,-1,0.0,200.0)"/>
 <path d="M0,0 l50,0" fill="none" stroke="rgb(229,229,229)" stroke-width="2" transform="matrix(1,0,0,-1,0.0,135.0)"/>
 <path d="M0,-4 l0,8" fill="none" stroke="rgb(255,76,25)" stroke-width="2" transform="matrix(1,0,0,-1,45.0,135.0)"/>
 <path d="M11,909 c-8,2,-18,2,-28,2 c-86,0,-126,-52,-138,-113 l-3,0 l-27,93 l-80,-11 l126,-241 l-8,-3 l-174,181 l-76,-36 c106,-82,175,-135,245,-179 l59,34 l1,4 c-18,26,-32,62,-32,96 c0,67,43,108,105,108 c10,0,19,-1,27,-2 Z M11,909" fill="rgb(0,0,0)" transform="matrix(0.1,0.0,0.0,-0.1,45.0,135.0)"/>
</svg>