<?xml version="1.0" encoding="UTF-8"?>
<svg height="200.0" version="1.1" width="52.0" xmlns="http://www.w3.org/2000/svg" xmlns:xlink="http://www.w3.org/1999/xlink">
 <path d="M0,0 l52,0 l0,200 l-52,0 Z M0,0" fill="rgb(255,255,255)" transform="matrix(1,0,0,-1,0.0,200.0)"/>
 <path d="M0,0 l52,0" fill="none" stroke="rgb(229,229,229)" stroke-width="2" transform="matrix(1,0,0,-1,0.0,135.0)"/>
 <path d="M0,-4 l0,8" fill="none" stroke="rgb(255,76,25)" stroke-width="2" transform="matrix(1,0,0,-1,45.0,135.0)"/>
 <path d="M-93,636 l1,4 c-20,26,-34,64,-34,101 c0,65,42,107,107,107 c10,0,19,-1,27,-2 l3,67 c-8,2,-21,3,-31,3 c-86,0,-127,-54,-137,-117 l-3,0 l-27,93 l-78,-12 l126,-241 l-8,-3 l-174,181 l-76,-36 c106,-82,175,-135,245,-179 Z M21,742 c0,28,-21,49,-48,49 c-26,0,-47,-21,-47,-49 c0,-25,21,-46,47,-46 c27,0,48,21,48,46 Z M21,742" fill="rgb(0,0,0)" transform="matrix(0.1,0.0,0.0,-0.1,45.0,135.0)"/>
</svg>