<?xml version="1.0" encoding="UTF-8"?>
<svg height="200.0" version="1.1" width="62.0" xmlns="http://www.w3.org/2000/svg" xmlns:xlink="http://www.w3.org/1999/xlink">
 <path d="M0,0 l62,0 l0,200 l-62,0 Z M0,0" fill="rgb(255,255,255)" transform="matrix(1,0,0,-1,0.0,200.0)"/>
 <path d="M0,0 l62,0" fill="none" stroke="rgb(229,229,229)" stroke-width="2" transform="matrix(1,0,0,-1,0.0,135.0)"/>
 <path d="M0,-4 l0,8" fill="none" stroke="rgb(255,76,25)" stroke-width="2" transform="matrix(1,0,0,-1,45.0,135.0)"/>
 <path d="M-95,636 c-23,33,-37,76,-37,118 c0,70,34,124,103,124 l2,68 l-8,0 c-91,-3,-130,-73,-130,-156 l-4,0 l-28,102 l-76,-12 l134,-241 l-8,-3 l-174,181 l-76,-36 c106,-82,175,-135,245,-179 Z M132,779 l-47,25 c-11,-26,-30,-54,-71,-54 c-41,0,-61,28,-71,54 l-48,-25 c14,-36,50,-82,119,-82 c68,0,105,46,118,82 Z M53,826 c0,23,-17,39,-39,39 c-22,0,-38,-15,-38,-38 c0,-22,16,-38,38,-38 c22,0,39,15,39,37 Z M53,826" fill="rgb(0,0,0)" transform="matrix(0.1,0.0,0.0,-0.1,45.0,135.0)"/>
</svg>