<?xml version="1.0" encoding="UTF-8"?>
<svg height="200.0" version="1.1" width="56.0" xmlns="http://www.w3.org/2000/svg" xmlns:xlink="http://www.w3.org/1999/xlink">
 <path d="M0,0 l56,0 l0,200 l-56,0 Z M0,0" fill="rgb(255,255,255)" transform="matrix(1,0,0,-1,0.0,200.0)"/>
 <path d="M0,0 l56,0" fill="none" stroke="rgb(229,229,229)" stroke-width="2" transform="matrix(1,0,0,-1,0.0,135.0)"/>
 <path d="M0,1 l0,-5" fill="none" stroke="rgb(204,204,204)" stroke-width="2" transform="matrix(1,0,0,-1,20.0,135.0)"/>
 <path d="M0,1 l0,-5" fill="none" stroke="rgb(204,204,204)" stroke-width="2" transform="matrix(1,0,0,-1,47.0,135.0)"/>
 <path d="M295,578 l0,64 l-126,0 l0,1 c-20,25,-37,63,-37,102 c0,66,43,107,106,107 c24,0,46,-5,67,-13 l7,68 c-15,6,-41,13,-75,13 c-119,0,-181,-99,-154,-195 l-4,0 l-136,176 l-89,-20 l63,-72 c52,-59,120,-127,172,-167 l-111,0 l0,-64 l121,0 l0,-578 l75,0 l0,578 Z M198,739 c0,-25,21,-45,47,-45 c27,0,48,20,48,45 c0,29,-21,49,-48,49 c-26,0,-47,-20,-47,-49 Z M198,739" fill="rgb(0,0,0)" transform="matrix(0.1,0.0,0.0,-0.1,20.0,135.0)"/>
</svg>