<?xml version="1.0" encoding="UTF-8"?>
<svg height="200.0" version="1.1" width="64.0" xmlns="http://www.w3.org/2000/svg" xmlns:xlink="http://www.w3.org/1999/xlink">
 <path d="M0,0 l64,0 l0,200 l-64,0 Z M0,0" fill="rgb(255,255,255)" transform="matrix(1,0,0,-1,0.0,200.0)"/>
 <path d="M0,0 l64,0" fill="none" stroke="rgb(229,229,229)" stroke-width="2" transform="matrix(1,0,0,-1,0.0,135.0)"/>
 <path d="M0,1 l0,-5" fill="none" stroke="rgb(204,204,204)" stroke-width="2" transform="matrix(1,0,0,-1,26.0,135.0)"/>
 <path d="M0,1 l0,-5" fill="none" stroke="rgb(204,204,204)" stroke-width="2" transform="matrix(1,0,0,-1,53.0,135.0)"/>
 <path d="M295,578 l0,64 l-112,0 c-18,25,-31,62,-31,99 c0,67,46,112,108,112 c19,0,40,-5,56,-12 l16,67 c-14,6,-37,12,-70,12 c-90,0,-150,-64,-154,-133 l-4,0 l-57,119 l-89,-14 l161,-225 l-3,-2 l-261,229 l-69,-44 l71,-59 c55,-45,142,-106,213,-149 l-92,0 l0,-64 l121,0 l0,-578 l75,0 l0,578 Z M216,740 c0,-25,21,-46,47,-46 c27,0,48,21,48,46 c0,28,-21,49,-48,49 c-26,0,-47,-21,-47,-49 Z M216,740" fill="rgb(0,0,0)" transform="matrix(0.1,0.0,0.0,-0.1,26.0,135.0)"/>
</svg>