<?xml version="1.0" encoding="UTF-8"?>
<svg height="200.0" version="1.1" width="50.0" xmlns="http://www.w3.org/2000/svg" xmlns:xlink="http://www.w3.org/1999/xlink">
 <path d="M0,0 l50,0 l0,200 l-50,0 Z M0,0" fill="rgb(255,255,255)" transform="matrix(1,0,0,-1,0.0,200.0)"/>
 <path d="M0,0 l50,0" fill="none" stroke="rgb(229,229,229)" stroke-width="2" transform="matrix(1,0,0,-1,0.0,135.0)"/>
 <path d="M0,1 l0,-5" fill="none" stroke="rgb(204,204,204)" stroke-width="2" transform="matrix(1,0,0,-1,12.0,135.0)"/>
 <path d="M0,1 l0,-5" fill="none" stroke="rgb(204,204,204)" stroke-width="2" transform="matrix(1,0,0,-1,39.0,135.0)"/>
 <path d="M295,578 l0,64 l-317,0 l0,-64 l121,0 l0,-578 l75,0 l0,578 Z M137,750 c108,0,171,55,203,121 l-58,32 c-25,-48,-73,-86,-145,-86 c-73,0,-121,38,-146,86 l-59,-32 c32,-66,96,-121,205,-121 Z M85,967 c0,-28,23,-49,52,-49 c29,0,52,21,52,49 c0,32,-23,54,-52,54 c-29,0,-52,-22,-52,-54 Z M85,967" fill="rgb(0,0,0)" transform="matrix(0.1,0.0,0.0,-0.1,12.0,135.0)"/>
</svg>