<?xml version="1.0" encoding="UTF-8"?>
<svg height="200.0" version="1.1" width="74.0" xmlns="http://www.w3.org/2000/svg" xmlns:xlink="http://www.w3.org/1999/xlink">
 <path d="M0,0 l74,0 l0,200 l-74,0 Z M0,0" fill="rgb(255,255,255)" transform="matrix(1,0,0,-1,0.0,200.0)"/>
 <path d="M0,0 l74,0" fill="none" stroke="rgb(229,229,229)" stroke-width="2" transform="matrix(1,0,0,-1,0.0,135.0)"/>
 <path d="M0,1 l0,-5" fill="none" stroke="rgb(204,204,204)" stroke-width="2" transform="matrix(1,0,0,-1,7.0,135.0)"/>
 <path d="M0,1 l0,-5" fill="none" stroke="rgb(204,204,204)" stroke-width="2" transform="matrix(1,0,0,-1,66.0,135.0)"/>
 <path d="M309,578 l307,0 l0,64 l-638,0 l0,-64 l256,0 l0,-177 c0,-47,-23,-66,-67,-66 c-46,0,-74,26,-92,47 l-57,-45 l259,-340 l61,41 l-116,152 c-27,35,-47,58,-69,83 l1,3 c10,-3,27,-4,36,-4 c106,4,124,97,215,97 c48,0,80,-34,80,-78 c0,-61,-51,-96,-112,-101 l33,-63 c78,14,152,68,152,165 c0,86,-67,144,-146,144 c-48,0,-85,-19,-103,-31 Z M309,578" fill="rgb(0,0,0)" transform="matrix(0.1,0.0,0.0,-0.1,7.0,135.0)"/>
</svg>