<?xml version="1.0" encoding="UTF-8"?>
<svg height="200.0" version="1.1" width="92.0" xmlns="http://www.w3.org/2000/svg" xmlns:xlink="http://www.w3.org/1999/xlink">
 <path d="M0,0 l92,0 l0,200 l-92,0 Z M0,0" fill="rgb(255,255,255)" transform="matrix(1,0,0,-1,0.0,200.0)"/>
 <path d="M0,0 l92,0" fill="none" stroke="rgb(229,229,229)" stroke-width="2" transform="matrix(1,0,0,-1,0.0,135.0)"/>
 <path d="M0,1 l0,-5" fill="none" stroke="rgb(204,204,204)" stroke-width="2" transform="matrix(1,0,0,-1,7.0,135.0)"/>
 <path d="M0,1 l0,-5" fill="none" stroke="rgb(204,204,204)" stroke-width="2" transform="matrix(1,0,0,-1,85.0,135.0)"/>
 <path d="M771,-138 c0,89,-67,144,-154,144 c-18,0,-36,-2,-51,-6 c-102,24,-139,74,-139,128 c0,59,54,104,138,104 c58,0,88,-30,88,-67 c0,-26,-14,-49,-38,-69 l67,-38 c24,23,46,59,46,105 c0,71,-56,136,-165,136 c-33,0,-64,-6,-89,-15 c-33,18,-57,50,-57,83 c0,26,15,47,62,47 l213,0 l0,164 l106,0 l0,64 l-820,0 l0,-64 l641,0 l0,-99 l-157,0 c-71,0,-113,-35,-120,-86 l-259,0 l-56,-45 c0,-56,28,-108,66,-131 l46,16 l0,92 l212,0 c13,-31,36,-56,62,-73 c-40,-32,-63,-76,-63,-122 c0,-123,116,-181,220,-201 c12,6,27,10,45,10 c46,0,78,-33,78,-77 c0,-64,-52,-94,-114,-94 c-112,0,-196,77,-247,155 l-56,-46 c49,-67,147,-176,303,-176 c138,0,192,85,192,161 Z M771,-138" fill="rgb(0,0,0)" transform="matrix(0.1,0.0,0.0,-0.1,7.0,135.0)"/>
</svg>