<?xml version="1.0" encoding="UTF-8"?>
<svg height="200.0" version="1.1" width="98.0" xmlns="http://www.w3.org/2000/svg" xmlns:xlink="http://www.w3.org/1999/xlink">
 <path d="M0,0 l98,0 l0,200 l-98,0 Z M0,0" fill="rgb(255,255,255)" transform="matrix(1,0,0,-1,0.0,200.0)"/>
 <path d="M0,0 l98,0" fill="none" stroke="rgb(229,229,229)" stroke-width="2" transform="matrix(1,0,0,-1,0.0,135.0)"/>
 <path d="M0,1 l0,-5" fill="none" stroke="rgb(204,204,204)" stroke-width="2" transform="matrix(1,0,0,-1,7.0,135.0)"/>
 <path d="M0,1 l0,-5" fill="none" stroke="rgb(204,204,204)" stroke-width="2" transform="matrix(1,0,0,-1,91.0,135.0)"/>
 <path d="M682,578 l0,-99 l-156,0 c-78,0,-122,-43,-122,-102 c0,-13,2,-25,5,-37 l-216,0 l0,238 Z M835,-138 c0,89,-67,144,-154,144 c-19,0,-36,-2,-51,-6 c-103,24,-140,74,-140,128 c0,59,55,104,138,104 c58,0,88,-30,88,-67 c0,-26,-14,-49,-38,-69 l67,-38 c24,23,46,59,46,105 c0,71,-55,136,-165,136 c-33,0,-63,-6,-89,-15 c-33,18,-56,50,-56,83 c0,26,15,47,61,47 l214,0 l0,164 l106,0 l0,64 l-884,0 l0,-64 l140,0 l0,-240 l-49,-37 c1,-43,24,-102,60,-132 l63,0 l0,102 l260,0 c8,-7,16,-14,25,-19 c-41,-32,-63,-76,-63,-122 c0,-123,115,-181,219,-201 c12,6,28,10,46,10 c45,0,78,-33,78,-77 c0,-64,-53,-94,-115,-94 c-112,0,-196,77,-247,155 l-56,-46 c50,-67,147,-176,303,-176 c139,0,193,85,193,161 Z M835,-138" fill="rgb(0,0,0)" transform="matrix(0.1,0.0,0.0,-0.1,7.0,135.0)"/>
</svg>