<?xml version="1.0" encoding="UTF-8"?>
<svg height="200.0" version="1.1" width="102.0" xmlns="http://www.w3.org/2000/svg" xmlns:xlink="http://www.w3.org/1999/xlink">
 <path d="M0,0 l102,0 l0,200 l-102,0 Z M0,0" fill="rgb(255,255,255)" transform="matrix(1,0,0,-1,0.0,200.0)"/>
 <path d="M0,0 l102,0" fill="none" stroke="rgb(229,229,229)" stroke-width="2" transform="matrix(1,0,0,-1,0.0,135.0)"/>
 <path d="M0,1 l0,-5" fill="none" stroke="rgb(204,204,204)" stroke-width="2" transform="matrix(1,0,0,-1,7.0,135.0)"/>
 <path d="M0,1 l0,-5" fill="none" stroke="rgb(204,204,204)" stroke-width="2" transform="matrix(1,0,0,-1,91.0,135.0)"/>
 <path d="M682,578 l0,-99 l-156,0 c-78,0,-122,-43,-122,-102 c0,-13,2,-25,5,-37 l-216,0 l0,238 Z M896,-258 c-24,119,-118,273,-277,273 c-11,0,-22,-1,-32,-3 c-71,28,-97,70,-97,116 c0,59,55,104,139,104 c58,0,87,-30,87,-67 c0,-27,-15,-51,-39,-71 l65,-38 c26,23,48,59,48,106 c0,71,-53,137,-164,137 c-33,0,-63,-5,-89,-15 c-33,19,-56,51,-56,83 c0,26,15,47,61,47 l214,0 l0,164 l106,0 l0,64 l-884,0 l0,-64 l140,0 l0,-240 l-49,-37 c1,-43,24,-102,60,-132 l63,0 l0,102 l261,0 c7,-7,16,-13,24,-19 c-40,-31,-63,-75,-63,-122 c0,-66,32,-117,92,-152 c-32,-26,-52,-65,-52,-110 c0,-77,56,-140,144,-140 c15,0,39,1,59,10 l0,69 c-17,-7,-31,-12,-52,-12 c-47,0,-74,34,-74,74 c0,46,36,79,87,79 c96,0,178,-94,205,-227 Z M896,-258" fill="rgb(0,0,0)" transform="matrix(0.1,0.0,0.0,-0.1,7.0,135.0)"/>
</svg>