<?xml version="1.0" encoding="UTF-8"?>
<svg height="200.0" version="1.1" width="82.0" xmlns="http://www.w3.org/2000/svg" xmlns:xlink="http://www.w3.org/1999/xlink">
 <path d="M0,0 l82,0 l0,200 l-82,0 Z M0,0" fill="rgb(255,255,255)" transform="matrix(1,0,0,-1,0.0,200.0)"/>
 <path d="M0,0 l82,0" fill="none" stroke="rgb(229,229,229)" stroke-width="2" transform="matrix(1,0,0,-1,0.0,135.0)"/>
 <path d="M0,1 l0,-5" fill="none" stroke="rgb(204,204,204)" stroke-width="2" transform="matrix(1,0,0,-1,8.0,135.0)"/>
 <path d="M0,1 l0,-5" fill="none" stroke="rgb(204,204,204)" stroke-width="2" transform="matrix(1,0,0,-1,76.0,135.0)"/>
 <path d="M671,-138 c0,89,-68,144,-155,144 c-18,0,-36,-2,-51,-6 c-102,24,-139,74,-139,128 c0,59,55,104,138,104 c58,0,88,-30,88,-67 c0,-26,-14,-49,-38,-69 l67,-38 c24,23,46,59,46,105 c0,71,-56,136,-165,136 c-33,0,-63,-6,-89,-15 c-33,18,-57,50,-57,83 c0,26,15,47,62,47 l213,0 l0,164 l106,0 l0,64 l-719,0 l0,-64 l540,0 l0,-99 l-157,0 c-78,0,-121,-43,-121,-102 c0,-6,0,-12,1,-17 c-32,-13,-69,-23,-107,-23 c-66,0,-107,25,-131,44 l-28,-54 c23,-21,80,-55,161,-55 c51,0,95,12,129,26 c13,-19,30,-35,48,-46 c-41,-32,-64,-76,-64,-122 c0,-123,116,-181,220,-201 c12,6,27,10,45,10 c46,0,79,-33,79,-77 c0,-64,-53,-94,-115,-94 c-112,0,-196,77,-247,155 l-56,-46 c50,-67,147,-176,303,-176 c139,0,193,85,193,161 Z M671,-138" fill="rgb(0,0,0)" transform="matrix(0.1,0.0,0.0,-0.1,8.0,135.0)"/>
</svg>