<?xml version="1.0" encoding="UTF-8"?>
<svg height="200.0" version="1.1" width="110.0" xmlns="http://www.w3.org/2000/svg" xmlns:xlink="http://www.w3.org/1999/xlink">
 <path d="M0,0 l110,0 l0,200 l-110,0 Z M0,0" fill="rgb(255,255,255)" transform="matrix(1,0,0,-1,0.0,200.0)"/>
 <path d="M0,0 l110,0" fill="none" stroke="rgb(229,229,229)" stroke-width="2" transform="matrix(1,0,0,-1,0.0,135.0)"/>
 <path d="M0,1 l0,-5" fill="none" stroke="rgb(204,204,204)" stroke-width="2" transform="matrix(1,0,0,-1,7.0,135.0)"/>
 <path d="M0,1 l0,-5" fill="none" stroke="rgb(204,204,204)" stroke-width="2" transform="matrix(1,0,0,-1,103.0,135.0)"/>
 <path d="M957,-138 c0,89,-67,144,-154,144 c-18,0,-36,-2,-51,-6 c-102,24,-139,74,-139,128 c0,59,54,104,137,104 c59,0,89,-30,89,-67 c0,-26,-15,-49,-38,-69 l66,-38 c25,23,46,59,46,105 c0,71,-55,136,-164,136 c-34,0,-64,-6,-90,-15 c-32,18,-56,50,-56,83 c0,26,15,47,62,47 l213,0 l0,164 l106,0 l0,64 l-1006,0 l0,-64 l826,0 l0,-99 l-156,0 c-48,0,-84,-17,-103,-43 c-24,12,-52,20,-86,20 c-60,0,-103,-35,-118,-84 l-4,0 c-15,48,-58,80,-123,80 c-82,0,-161,-63,-161,-181 c0,-125,81,-226,177,-278 l51,54 c-98,53,-150,131,-150,222 c0,80,42,114,90,114 c50,0,82,-32,82,-97 l0,-95 l73,0 l0,96 c0,65,35,100,88,100 c26,0,47,-8,62,-18 c4,-52,36,-93,73,-117 c-40,-32,-63,-76,-63,-122 c0,-123,116,-181,219,-201 c13,6,28,10,46,10 c46,0,78,-33,78,-77 c0,-64,-53,-94,-114,-94 c-112,0,-196,77,-247,155 l-57,-46 c50,-67,148,-176,304,-176 c138,0,192,85,192,161 Z M957,-138" fill="rgb(0,0,0)" transform="matrix(0.1,0.0,0.0,-0.1,7.0,135.0)"/>
</svg>