<?xml version="1.0" encoding="UTF-8"?>
<svg height="200.0" version="1.1" width="114.0" xmlns="http://www.w3.org/2000/svg" xmlns:xlink="http://www.w3.org/1999/xlink">
 <path d="M0,0 l114,0 l0,200 l-114,0 Z M0,0" fill="rgb(255,255,255)" transform="matrix(1,0,0,-1,0.0,200.0)"/>
 <path d="M0,0 l114,0" fill="none" stroke="rgb(229,229,229)" stroke-width="2" transform="matrix(1,0,0,-1,0.0,135.0)"/>
 <path d="M0,1 l0,-5" fill="none" stroke="rgb(204,204,204)" stroke-width="2" transform="matrix(1,0,0,-1,7.0,135.0)"/>
 <path d="M0,1 l0,-5" fill="none" stroke="rgb(204,204,204)" stroke-width="2" transform="matrix(1,0,0,-1,103.0,135.0)"/>
 <path d="M1019,-258 c-24,119,-119,273,-278,273 c-11,0,-22,-1,-32,-2 c-70,27,-96,69,-96,115 c0,59,54,104,138,104 c58,0,88,-30,88,-67 c0,-27,-15,-51,-40,-71 l66,-38 c25,23,48,59,48,106 c0,71,-54,137,-164,137 c-33,0,-63,-5,-90,-15 c-33,19,-56,51,-56,83 c0,26,15,47,62,47 l213,0 l0,164 l106,0 l0,64 l-1006,0 l0,-64 l826,0 l0,-99 l-156,0 c-48,0,-84,-17,-103,-43 c-24,12,-52,20,-86,20 c-60,0,-103,-35,-118,-84 l-4,0 c-15,48,-58,80,-123,80 c-82,0,-161,-63,-161,-181 c0,-125,81,-226,177,-278 l51,54 c-98,53,-150,131,-150,222 c0,80,42,114,90,114 c50,0,82,-32,82,-97 l0,-95 l73,0 l0,96 c0,65,35,100,88,100 c26,0,47,-8,62,-18 c4,-52,37,-93,73,-117 c-40,-31,-63,-75,-63,-122 c0,-66,33,-117,93,-152 c-33,-26,-53,-64,-53,-110 c0,-77,57,-140,144,-140 c16,0,40,1,59,10 l0,69 c-17,-7,-31,-12,-52,-12 c-46,0,-74,34,-74,74 c0,46,36,79,87,79 c96,0,179,-94,206,-227 Z M1019,-258" fill="rgb(0,0,0)" transform="matrix(0.1,0.0,0.0,-0.1,7.0,135.0)"/>
</svg>