<?xml version="1.0" encoding="UTF-8"?>
<svg height="200.0" version="1.1" width="96.0" xmlns="http://www.w3.org/2000/svg" xmlns:xlink="http://www.w3.org/1999/xlink">
 <path d="M0,0 l96,0 l0,200 l-96,0 Z M0,0" fill="rgb(255,255,255)" transform="matrix(1,0,0,-1,0.0,200.0)"/>
 <path d="M0,0 l96,0" fill="none" stroke="rgb(229,229,229)" stroke-width="2" transform="matrix(1,0,0,-1,0.0,135.0)"/>
 <path d="M0,1 l0,-5" fill="none" stroke="rgb(204,204,204)" stroke-width="2" transform="matrix(1,0,0,-1,7.0,135.0)"/>
 <path d="M0,1 l0,-5" fill="none" stroke="rgb(204,204,204)" stroke-width="2" transform="matrix(1,0,0,-1,89.0,135.0)"/>
 <path d="M819,-138 c0,89,-68,144,-155,144 c-18,0,-36,-2,-51,-6 c-102,24,-139,74,-139,128 c0,59,55,104,138,104 c58,0,88,-30,88,-67 c0,-26,-14,-49,-38,-69 l67,-38 c24,23,46,59,46,105 c0,71,-56,136,-165,136 c-33,0,-63,-6,-89,-15 c-33,18,-57,50,-57,83 c0,26,15,47,62,47 l213,0 l0,164 l106,0 l0,64 l-867,0 l0,-64 l688,0 l0,-99 l-157,0 c-78,0,-121,-43,-121,-102 c0,-55,33,-100,73,-125 c-11,-9,-21,-18,-29,-28 c-45,-45,-92,-69,-168,-69 c-76,0,-129,49,-129,117 c0,73,47,122,124,122 c15,0,30,-2,45,-6 l-7,70 c-13,3,-29,5,-42,5 c-101,0,-200,-65,-200,-192 c0,-113,94,-185,201,-185 c58,0,104,12,141,32 c8,-115,119,-170,220,-189 c12,6,27,10,45,10 c46,0,79,-33,79,-77 c0,-64,-53,-94,-115,-94 c-112,0,-196,77,-247,155 l-56,-46 c50,-67,147,-176,303,-176 c139,0,193,85,193,161 Z M819,-138" fill="rgb(0,0,0)" transform="matrix(0.1,0.0,0.0,-0.1,7.0,135.0)"/>
</svg>