<?xml version="1.0" encoding="UTF-8"?>
<svg height="200.0" version="1.1" width="100.0" xmlns="http://www.w3.org/2000/svg" xmlns:xlink="http://www.w3.org/1999/xlink">
 <path d="M0,0 l100,0 l0,200 l-100,0 Z M0,0" fill="rgb(255,255,255)" transform="matrix(1,0,0,-1,0.0,200.0)"/>
 <path d="M0,0 l100,0" fill="none" stroke="rgb(229,229,229)" stroke-width="2" transform="matrix(1,0,0,-1,0.0,135.0)"/>
 <path d="M0,1 l0,-5" fill="none" stroke="rgb(204,204,204)" stroke-width="2" transform="matrix(1,0,0,-1,7.0,135.0)"/>
 <path d="M0,1 l0,-5" fill="none" stroke="rgb(204,204,204)" stroke-width="2" transform="matrix(1,0,0,-1,89.0,135.0)"/>
 <path d="M879,-258 c-24,119,-119,273,-277,273 c-11,0,-22,-1,-33,-3 c-70,28,-96,70,-96,116 c0,59,54,104,138,104 c59,0,88,-30,88,-67 c0,-27,-15,-51,-40,-71 l66,-38 c25,23,48,59,48,106 c0,71,-53,137,-164,137 c-33,0,-63,-5,-89,-15 c-33,19,-57,51,-57,83 c0,26,15,47,62,47 l213,0 l0,164 l106,0 l0,64 l-866,0 l0,-64 l687,0 l0,-99 l-157,0 c-78,0,-121,-43,-121,-102 c0,-55,33,-100,73,-125 c-13,-10,-25,-21,-34,-34 c-44,-41,-90,-63,-162,-63 c-76,0,-129,49,-129,117 c0,73,47,122,124,122 c15,0,30,-2,45,-6 l-7,70 c-13,3,-29,5,-42,5 c-101,0,-200,-65,-200,-192 c0,-113,94,-185,201,-185 c58,0,103,12,140,31 c4,-60,37,-106,93,-139 c-33,-26,-53,-65,-53,-110 c0,-77,57,-140,145,-140 c15,0,39,1,58,10 l0,69 c-16,-7,-30,-12,-52,-12 c-46,0,-74,34,-74,74 c0,46,37,79,88,79 c96,0,178,-94,205,-227 Z M879,-258" fill="rgb(0,0,0)" transform="matrix(0.1,0.0,0.0,-0.1,7.0,135.0)"/>
</svg>