<?xml version="1.0" encoding="UTF-8"?>
<svg height="200.0" version="1.1" width="70.0" xmlns="http://www.w3.org/2000/svg" xmlns:xlink="http://www.w3.org/1999/xlink">
 <path d="M0,0 l70,0 l0,200 l-70,0 Z M0,0" fill="rgb(255,255,255)" transform="matrix(1,0,0,-1,0.0,200.0)"/>
 <path d="M0,0 l70,0" fill="none" stroke="rgb(229,229,229)" stroke-width="2" transform="matrix(1,0,0,-1,0.0,135.0)"/>
 <path d="M0,1 l0,-5" fill="none" stroke="rgb(204,204,204)" stroke-width="2" transform="matrix(1,0,0,-1,7.0,135.0)"/>
 <path d="M0,1 l0,-5" fill="none" stroke="rgb(204,204,204)" stroke-width="2" transform="matrix(1,0,0,-1,59.0,135.0)"/>
 <path d="M582,-235 l-35,61 c-26,-20,-82,-43,-137,-43 c-79,0,-111,36,-111,80 c0,60,71,81,173,95 l-47,166 c17,16,34,42,34,82 c0,43,-28,71,-50,82 l-55,-20 l0,-102 c-18,-15,-50,-25,-90,-25 c-82,0,-140,59,-140,131 c0,56,29,92,117,115 l157,38 l0,153 l147,0 l0,64 l-567,0 l0,-64 l344,0 l0,-100 l-120,-30 c-103,-25,-155,-80,-155,-167 c0,-106,88,-209,229,-209 c35,0,66,6,93,18 l15,-85 c-99,-20,-161,-66,-161,-146 c0,-81,68,-145,192,-145 c61,0,124,23,167,51 Z M582,-235" fill="rgb(0,0,0)" transform="matrix(0.1,0.0,0.0,-0.1,7.0,135.0)"/>
</svg>