<?xml version="1.0" encoding="UTF-8"?>
<svg height="200.0" version="1.1" width="80.0" xmlns="http://www.w3.org/2000/svg" xmlns:xlink="http://www.w3.org/1999/xlink">
 <path d="M0,0 l80,0 l0,200 l-80,0 Z M0,0" fill="rgb(255,255,255)" transform="matrix(1,0,0,-1,0.0,200.0)"/>
 <path d="M0,0 l80,0" fill="none" stroke="rgb(229,229,229)" stroke-width="2" transform="matrix(1,0,0,-1,0.0,135.0)"/>
 <path d="M0,1 l0,-5" fill="none" stroke="rgb(204,204,204)" stroke-width="2" transform="matrix(1,0,0,-1,5.0,135.0)"/>
 <path d="M0,1 l0,-5" fill="none" stroke="rgb(204,204,204)" stroke-width="2" transform="matrix(1,0,0,-1,73.0,135.0)"/>
 <path d="M676,-119 l-35,62 c-38,-26,-88,-43,-142,-43 c-58,0,-100,25,-100,75 c0,60,67,89,173,89 l7,0 l0,514 l121,0 l0,64 l-196,0 l0,-356 c-64,12,-140,35,-203,69 c63,41,98,92,98,156 c0,86,-62,143,-147,143 c-90,0,-152,-64,-152,-143 c0,-44,21,-95,71,-143 c-57,-19,-119,-31,-165,-38 l47,-68 c69,16,130,34,181,57 c63,-41,152,-77,270,-102 l0,-94 c-104,-12,-182,-61,-182,-148 c0,-81,63,-144,176,-144 c79,0,137,23,178,50 Z M174,510 c0,50,33,78,77,78 c43,0,74,-30,74,-78 c0,-50,-37,-87,-87,-114 c-39,32,-64,70,-64,114 Z M174,510" fill="rgb(0,0,0)" transform="matrix(0.1,0.0,0.0,-0.1,5.0,135.0)"/>
</svg>