<?xml version="1.0" encoding="UTF-8"?>
<svg height="200.0" version="1.1" width="66.0" xmlns="http://www.w3.org/2000/svg" xmlns:xlink="http://www.w3.org/1999/xlink">
 <path d="M0,0 l66,0 l0,200 l-66,0 Z M0,0" fill="rgb(255,255,255)" transform="matrix(1,0,0,-1,0.0,200.0)"/>
 <path d="M0,0 l66,0" fill="none" stroke="rgb(229,229,229)" stroke-width="2" transform="matrix(1,0,0,-1,0.0,135.0)"/>
 <path d="M0,1 l0,-5" fill="none" stroke="rgb(204,204,204)" stroke-width="2" transform="matrix(1,0,0,-1,7.0,135.0)"/>
 <path d="M0,1 l0,-5" fill="none" stroke="rgb(204,204,204)" stroke-width="2" transform="matrix(1,0,0,-1,58.0,135.0)"/>
 <path d="M426,-33 c-195,16,-270,80,-270,161 c0,62,58,124,166,124 c24,0,37,-5,37,-19 c0,-22,-67,-49,-67,-92 c0,-50,61,-90,130,-90 c47,0,90,14,120,35 l-27,63 c-19,-17,-51,-37,-94,-37 c-34,0,-56,9,-56,27 c0,26,68,51,68,96 c0,39,-30,76,-117,76 c-46,0,-86,-9,-119,-23 c-30,19,-50,49,-50,79 c0,26,15,47,61,47 l215,0 l0,164 l106,0 l0,64 l-551,0 l0,-64 l372,0 l0,-99 l-157,0 c-78,0,-121,-43,-121,-102 c0,-54,32,-97,70,-123 c-39,-34,-60,-79,-60,-123 c0,-126,124,-207,308,-226 Z M426,-33" fill="rgb(0,0,0)" transform="matrix(0.1,0.0,0.0,-0.1,7.0,135.0)"/>
</svg>