<?xml version="1.0" encoding="UTF-8"?>
<svg height="200.0" version="1.1" width="64.0" xmlns="http://www.w3.org/2000/svg" xmlns:xlink="http://www.w3.org/1999/xlink">
 <path d="M0,0 l64,0 l0,200 l-64,0 Z M0,0" fill="rgb(255,255,255)" transform="matrix(1,0,0,-1,0.0,200.0)"/>
 <path d="M0,0 l64,0" fill="none" stroke="rgb(229,229,229)" stroke-width="2" transform="matrix(1,0,0,-1,0.0,135.0)"/>
 <path d="M0,1 l0,-5" fill="none" stroke="rgb(204,204,204)" stroke-width="2" transform="matrix(1,0,0,-1,5.0,135.0)"/>
 <path d="M0,1 l0,-5" fill="none" stroke="rgb(204,204,204)" stroke-width="2" transform="matrix(1,0,0,-1,58.0,135.0)"/>
 <path d="M466,-27 l-177,106 l-1,3 c83,7,151,60,151,159 l0,387 l-75,0 l0,-206 c-25,-30,-66,-52,-110,-52 c-69,0,-104,38,-104,100 c0,62,18,110,41,160 l-70,24 c-23,-44,-49,-106,-49,-190 c0,-92,64,-161,164,-161 c66,0,107,28,128,48 l0,-103 c0,-80,-48,-121,-158,-106 l-119,74 l-35,-40 l0,-9 c0,-53,55,-96,155,-99 l172,-142 Z M466,-27" fill="rgb(0,0,0)" transform="matrix(0.1,0.0,0.0,-0.1,5.0,135.0)"/>
</svg>