<?xml version="1.0" encoding="UTF-8"?>
<svg height="200.0" version="1.1" width="60.0" xmlns="http://www.w3.org/2000/svg" xmlns:xlink="http://www.w3.org/1999/xlink">
 <path d="M0,0 l60,0 l0,200 l-60,0 Z M0,0" fill="rgb(255,255,255)" transform="matrix(1,0,0,-1,0.0,200.0)"/>
 <path d="M0,0 l60,0" fill="none" stroke="rgb(229,229,229)" stroke-width="2" transform="matrix(1,0,0,-1,0.0,135.0)"/>
 <path d="M0,1 l0,-5" fill="none" stroke="rgb(204,204,204)" stroke-width="2" transform="matrix(1,0,0,-1,5.0,135.0)"/>
 <path d="M0,1 l0,-5" fill="none" stroke="rgb(204,204,204)" stroke-width="2" transform="matrix(1,0,0,-1,55.0,135.0)"/>
 <path d="M420,186 c0,77,-53,126,-113,170 c70,50,139,108,139,205 c0,34,-8,58,-20,77 l-72,-27 c8,-13,14,-33,14,-55 c0,-70,-57,-115,-121,-159 c-63,44,-120,89,-120,159 c0,22,7,42,15,55 l-73,27 c-11,-19,-19,-43,-19,-77 c0,-97,68,-155,139,-204 c-60,-44,-113,-94,-113,-171 c0,-94,67,-154,172,-154 c105,0,172,60,172,154 Z M248,97 c-59,0,-95,31,-95,89 c0,54,43,92,95,130 c53,-38,96,-76,96,-130 c0,-58,-36,-89,-96,-89 Z M248,97" fill="rgb(0,0,0)" transform="matrix(0.1,0.0,0.0,-0.1,5.0,135.0)"/>
</svg>