<?xml version="1.0" encoding="UTF-8"?>
<svg height="200.0" version="1.1" width="72.0" xmlns="http://www.w3.org/2000/svg" xmlns:xlink="http://www.w3.org/1999/xlink">
 <path d="M0,0 l72,0 l0,200 l-72,0 Z M0,0" fill="rgb(255,255,255)" transform="matrix(1,0,0,-1,0.0,200.0)"/>
 <path d="M0,0 l72,0" fill="none" stroke="rgb(229,229,229)" stroke-width="2" transform="matrix(1,0,0,-1,0.0,135.0)"/>
 <path d="M0,1 l0,-5" fill="none" stroke="rgb(204,204,204)" stroke-width="2" transform="matrix(1,0,0,-1,7.0,135.0)"/>
 <path d="M0,1 l0,-5" fill="none" stroke="rgb(204,204,204)" stroke-width="2" transform="matrix(1,0,0,-1,62.0,135.0)"/>
 <path d="M569,642 l-591,0 l0,-64 l389,0 l0,-69 l-163,0 c-68,0,-100,-42,-100,-87 c0,-60,43,-117,116,-135 l180,31 c10,-9,17,-22,17,-42 c0,-39,-31,-83,-130,-83 c-93,0,-155,45,-198,106 l-47,-48 c30,-39,73,-76,127,-98 l0,-92 l-49,-38 c1,-35,15,-69,47,-95 l71,0 l0,206 c16,-3,33,-4,50,-4 c29,0,55,3,78,10 l0,-359 l69,0 l0,392 c36,28,53,66,53,104 c0,57,-29,92,-61,106 l-196,-31 c-35,10,-50,35,-50,58 c0,22,11,38,51,38 l206,0 l0,130 l131,0 Z M503,419 c0,-26,20,-47,47,-47 c28,0,48,21,48,47 c0,28,-20,48,-47,48 c-28,0,-48,-20,-48,-48 Z M503,419" fill="rgb(0,0,0)" transform="matrix(0.1,0.0,0.0,-0.1,7.0,135.0)"/>
</svg>