<?xml version="1.0" encoding="UTF-8"?>
<svg height="200.0" version="1.1" width="96.0" xmlns="http://www.w3.org/2000/svg" xmlns:xlink="http://www.w3.org/1999/xlink">
 <path d="M0,0 l96,0 l0,200 l-96,0 Z M0,0" fill="rgb(255,255,255)" transform="matrix(1,0,0,-1,0.0,200.0)"/>
 <path d="M0,0 l96,0" fill="none" stroke="rgb(229,229,229)" stroke-width="2" transform="matrix(1,0,0,-1,0.0,135.0)"/>
 <path d="M0,1 l0,-5" fill="none" stroke="rgb(204,204,204)" stroke-width="2" transform="matrix(1,0,0,-1,7.0,135.0)"/>
 <path d="M0,1 l0,-5" fill="none" stroke="rgb(204,204,204)" stroke-width="2" transform="matrix(1,0,0,-1,89.0,135.0)"/>
 <path d="M473,291 c0,47,-27,88,-63,104 l-174,-31 c-36,5,-56,34,-56,55 c0,22,11,35,51,35 l191,0 l0,124 l228,0 l0,-463 l-227,0 l0,75 c34,26,50,63,50,101 Z M724,-72 l0,650 l110,0 l0,64 l-856,0 l0,-64 l374,0 l0,-64 l-148,0 c-68,0,-100,-38,-100,-84 c0,-57,48,-112,122,-130 l157,31 c11,-7,20,-22,20,-41 c0,-38,-24,-77,-116,-77 c-94,0,-155,44,-199,107 l-47,-47 c52,-71,133,-121,245,-121 c25,0,48,3,68,7 l0,-43 l-50,-46 c3,-36,21,-66,47,-86 l71,0 l0,65 l228,0 l0,-121 Z M584,427 c0,27,-20,48,-47,48 c-28,0,-48,-21,-48,-48 c0,-26,20,-47,47,-47 c28,0,48,21,48,47 Z M584,427" fill="rgb(0,0,0)" transform="matrix(0.1,0.0,0.0,-0.1,7.0,135.0)"/>
</svg>