<?xml version="1.0" encoding="UTF-8"?>
<svg height="200.0" version="1.1" width="88.0" xmlns="http://www.w3.org/2000/svg" xmlns:xlink="http://www.w3.org/1999/xlink">
 <path d="M0,0 l88,0 l0,200 l-88,0 Z M0,0" fill="rgb(255,255,255)" transform="matrix(1,0,0,-1,0.0,200.0)"/>
 <path d="M0,0 l88,0" fill="none" stroke="rgb(229,229,229)" stroke-width="2" transform="matrix(1,0,0,-1,0.0,135.0)"/>
 <path d="M0,1 l0,-5" fill="none" stroke="rgb(204,204,204)" stroke-width="2" transform="matrix(1,0,0,-1,9.0,135.0)"/>
 <path d="M0,1 l0,-5" fill="none" stroke="rgb(204,204,204)" stroke-width="2" transform="matrix(1,0,0,-1,80.0,135.0)"/>
 <path d="M537,578 l0,-242 c-43,14,-109,42,-148,68 c0,6,1,12,0,17 c-4,65,-57,122,-152,122 c-34,0,-91,-16,-112,-32 l33,-56 c14,10,50,25,83,25 c47,0,81,-28,81,-70 c0,-51,-37,-83,-109,-83 c-65,0,-140,33,-171,69 l-38,-55 c42,-41,123,-76,208,-76 c93,0,133,31,161,75 c52,-34,119,-58,167,-73 l0,-62 c-40,-98,-138,-175,-219,-175 c-55,0,-77,30,-77,63 c0,30,19,54,44,64 l81,31 l-31,53 l-297,-110 l39,-54 l106,43 c-6,-11,-9,-31,-9,-42 c0,-51,38,-112,134,-112 c80,0,163,36,223,118 l4,0 l0,-102 l72,0 l0,596 l121,0 l0,64 l-770,0 l0,-64 Z M537,578" fill="rgb(0,0,0)" transform="matrix(0.1,0.0,0.0,-0.1,9.0,135.0)"/>
</svg>