<?xml version="1.0" encoding="UTF-8"?>
<svg height="200.0" version="1.1" width="80.0" xmlns="http://www.w3.org/2000/svg" xmlns:xlink="http://www.w3.org/1999/xlink">
 <path d="M0,0 l80,0 l0,200 l-80,0 Z M0,0" fill="rgb(255,255,255)" transform="matrix(1,0,0,-1,0.0,200.0)"/>
 <path d="M0,0 l80,0" fill="none" stroke="rgb(229,229,229)" stroke-width="2" transform="matrix(1,0,0,-1,0.0,135.0)"/>
 <path d="M0,1 l0,-5" fill="none" stroke="rgb(204,204,204)" stroke-width="2" transform="matrix(1,0,0,-1,5.0,135.0)"/>
 <path d="M0,1 l0,-5" fill="none" stroke="rgb(204,204,204)" stroke-width="2" transform="matrix(1,0,0,-1,73.0,135.0)"/>
 <path d="M316,-17 c78,0,150,45,189,106 l4,0 l0,-108 l73,0 l0,597 l121,0 l0,64 l-195,0 l0,-337 c-69,28,-128,51,-175,73 c54,36,83,78,83,136 c0,82,-66,138,-151,138 c-95,0,-156,-62,-156,-136 c0,-56,25,-96,80,-134 c-52,-18,-112,-33,-173,-46 l45,-64 c79,21,148,42,203,68 c61,-31,147,-66,250,-109 c-19,-96,-100,-182,-191,-182 c-54,0,-80,33,-80,66 c0,30,13,46,38,56 l74,29 l-40,54 l-283,-103 l44,-58 l111,44 c-6,-11,-8,-27,-8,-38 c0,-51,39,-116,137,-116 Z M184,515 c0,44,34,74,81,74 c45,0,78,-28,78,-75 c0,-42,-31,-74,-81,-101 c-50,30,-78,60,-78,102 Z M184,515" fill="rgb(0,0,0)" transform="matrix(0.1,0.0,0.0,-0.1,5.0,135.0)"/>
</svg>