<?xml version="1.0" encoding="UTF-8"?>
<svg height="200.0" version="1.1" width="80.0" xmlns="http://www.w3.org/2000/svg" xmlns:xlink="http://www.w3.org/1999/xlink">
 <path d="M0,0 l80,0 l0,200 l-80,0 Z M0,0" fill="rgb(255,255,255)" transform="matrix(1,0,0,-1,0.0,200.0)"/>
 <path d="M0,0 l80,0" fill="none" stroke="rgb(229,229,229)" stroke-width="2" transform="matrix(1,0,0,-1,0.0,135.0)"/>
 <path d="M0,1 l0,-5" fill="none" stroke="rgb(204,204,204)" stroke-width="2" transform="matrix(1,0,0,-1,5.0,135.0)"/>
 <path d="M0,1 l0,-5" fill="none" stroke="rgb(204,204,204)" stroke-width="2" transform="matrix(1,0,0,-1,72.0,135.0)"/>
 <path d="M349,-50 c-70,12,-133,62,-133,132 c0,40,25,62,55,62 c20,0,36,-6,50,-27 c9,-16,18,-36,27,-63 l62,22 c-9,18,-15,37,-19,52 c-3,10,-4,19,-4,27 c0,42,25,72,67,72 c17,0,35,-4,48,-9 l0,-218 l75,0 l0,578 l121,0 l0,64 l-196,0 l0,-357 c-70,15,-139,37,-204,75 c61,38,98,88,98,153 c0,85,-64,140,-147,140 c-93,0,-151,-64,-151,-138 c0,-47,18,-97,71,-144 c-62,-22,-128,-35,-165,-42 l50,-62 c66,16,126,34,177,57 c39,-25,94,-50,144,-64 l3,-2 c-27,-15,-41,-47,-41,-79 l-4,1 c-16,16,-39,26,-69,26 c-63,0,-118,-47,-118,-123 c0,-100,86,-170,163,-186 Z M171,513 c0,47,33,76,78,76 c40,0,73,-27,73,-76 c0,-51,-36,-86,-88,-113 c-40,33,-63,69,-63,113 Z M171,513" fill="rgb(0,0,0)" transform="matrix(0.1,0.0,0.0,-0.1,5.0,135.0)"/>
</svg>