<?xml version="1.0" encoding="UTF-8"?>
<svg height="200.0" version="1.1" width="82.0" xmlns="http://www.w3.org/2000/svg" xmlns:xlink="http://www.w3.org/1999/xlink">
 <path d="M0,0 l82,0 l0,200 l-82,0 Z M0,0" fill="rgb(255,255,255)" transform="matrix(1,0,0,-1,0.0,200.0)"/>
 <path d="M0,0 l82,0" fill="none" stroke="rgb(229,229,229)" stroke-width="2" transform="matrix(1,0,0,-1,0.0,135.0)"/>
 <path d="M0,1 l0,-5" fill="none" stroke="rgb(204,204,204)" stroke-width="2" transform="matrix(1,0,0,-1,5.0,135.0)"/>
 <path d="M0,1 l0,-5" fill="none" stroke="rgb(204,204,204)" stroke-width="2" transform="matrix(1,0,0,-1,75.0,135.0)"/>
 <path d="M329,292 c-50,-9,-112,-55,-112,-130 c0,-73,55,-143,164,-143 c65,0,116,31,143,65 l4,0 l0,-104 l74,0 l0,598 l121,0 l0,64 l-264,0 l0,-64 l69,0 l0,-286 c-84,22,-160,48,-220,78 c54,40,85,88,85,146 c0,83,-62,137,-145,137 c-95,0,-152,-62,-152,-134 c0,-51,26,-99,80,-142 c-57,-22,-122,-37,-171,-49 l44,-63 c76,19,143,42,196,68 c25,-14,53,-27,84,-37 Z M385,82 c-63,0,-94,35,-94,78 c0,53,44,89,116,89 c29,0,75,-10,123,-27 c-8,-78,-69,-140,-145,-140 Z M172,518 c0,44,29,72,77,72 c42,0,72,-26,72,-73 c0,-46,-31,-81,-79,-109 c-45,33,-70,69,-70,110 Z M172,518" fill="rgb(0,0,0)" transform="matrix(0.1,0.0,0.0,-0.1,5.0,135.0)"/>
</svg>