<?xml version="1.0" encoding="UTF-8"?>
<svg height="200.0" version="1.1" width="78.0" xmlns="http://www.w3.org/2000/svg" xmlns:xlink="http://www.w3.org/1999/xlink">
 <path d="M0,0 l78,0 l0,200 l-78,0 Z M0,0" fill="rgb(255,255,255)" transform="matrix(1,0,0,-1,0.0,200.0)"/>
 <path d="M0,0 l78,0" fill="none" stroke="rgb(229,229,229)" stroke-width="2" transform="matrix(1,0,0,-1,0.0,135.0)"/>
 <path d="M0,1 l0,-5" fill="none" stroke="rgb(204,204,204)" stroke-width="2" transform="matrix(1,0,0,-1,7.0,135.0)"/>
 <path d="M0,1 l0,-5" fill="none" stroke="rgb(204,204,204)" stroke-width="2" transform="matrix(1,0,0,-1,70.0,135.0)"/>
 <path d="M459,180 l0,-180 l76,0 l0,578 l121,0 l0,64 l-678,0 l0,-64 l146,0 l0,-4 c-19,-10,-48,-38,-48,-84 c0,-63,44,-100,94,-106 l0,-4 c-45,-14,-86,-50,-86,-114 c0,-84,70,-139,168,-135 l0,-4 l-70,-37 l-63,-43 l-15,-62 c19,-34,63,-53,104,-54 l31,35 l-36,54 l252,160 Z M281,187 c-84,0,-118,39,-118,84 c0,45,33,78,103,78 l59,0 l0,66 l-62,0 c-75,0,-107,36,-107,79 c0,46,29,84,97,84 l207,0 l0,-307 c-22,-34,-98,-84,-179,-84 Z M281,187" fill="rgb(0,0,0)" transform="matrix(0.1,0.0,0.0,-0.1,7.0,135.0)"/>
</svg>