<?xml version="1.0" encoding="UTF-8"?>
<svg height="200.0" version="1.1" width="82.0" xmlns="http://www.w3.org/2000/svg" xmlns:xlink="http://www.w3.org/1999/xlink">
 <path d="M0,0 l82,0 l0,200 l-82,0 Z M0,0" fill="rgb(255,255,255)" transform="matrix(1,0,0,-1,0.0,200.0)"/>
 <path d="M0,0 l82,0" fill="none" stroke="rgb(229,229,229)" stroke-width="2" transform="matrix(1,0,0,-1,0.0,135.0)"/>
 <path d="M0,1 l0,-5" fill="none" stroke="rgb(204,204,204)" stroke-width="2" transform="matrix(1,0,0,-1,7.0,135.0)"/>
 <path d="M0,1 l0,-5" fill="none" stroke="rgb(204,204,204)" stroke-width="2" transform="matrix(1,0,0,-1,75.0,135.0)"/>
 <path d="M526,-238 l0,386 c59,53,93,125,93,198 c0,71,-35,126,-93,147 l0,85 l178,0 l0,64 l-726,0 l0,-64 l142,0 l0,-4 c-21,-16,-49,-44,-49,-97 c0,-59,36,-102,98,-117 l0,-4 c-42,-15,-84,-48,-84,-119 c0,-92,78,-170,218,-170 c58,0,110,13,154,35 l0,-112 l-195,0 l-48,-44 c1,-45,27,-79,59,-97 l46,13 l0,64 l138,0 l0,-164 Z M480,314 c-42,6,-65,31,-65,66 c0,35,26,57,59,57 c40,0,73,-31,73,-90 c0,-124,-113,-212,-241,-212 c-94,0,-141,44,-141,105 c0,57,39,86,105,87 l23,0 l0,67 l-36,0 c-68,0,-106,32,-106,88 c0,57,43,96,111,96 l192,0 l0,-77 c-67,-8,-112,-60,-112,-121 c0,-58,37,-102,91,-114 Z M480,314" fill="rgb(0,0,0)" transform="matrix(0.1,0.0,0.0,-0.1,7.0,135.0)"/>
</svg>