<?xml version="1.0" encoding="UTF-8"?>
<svg height="200.0" version="1.1" width="70.0" xmlns="http://www.w3.org/2000/svg" xmlns:xlink="http://www.w3.org/1999/xlink">
 <path d="M0,0 l70,0 l0,200 l-70,0 Z M0,0" fill="rgb(255,255,255)" transform="matrix(1,0,0,-1,0.0,200.0)"/>
 <path d="M0,0 l70,0" fill="none" stroke="rgb(229,229,229)" stroke-width="2" transform="matrix(1,0,0,-1,0.0,135.0)"/>
 <path d="M0,1 l0,-5" fill="none" stroke="rgb(204,204,204)" stroke-width="2" transform="matrix(1,0,0,-1,7.0,135.0)"/>
 <path d="M0,1 l0,-5" fill="none" stroke="rgb(204,204,204)" stroke-width="2" transform="matrix(1,0,0,-1,63.0,135.0)"/>
 <path d="M494,306 c-35,-27,-102,-63,-194,-63 c-113,0,-169,54,-169,104 c0,44,31,74,105,85 l194,28 l0,118 l155,0 l0,64 l-607,0 l0,-64 l379,0 l0,-66 l-152,-22 c-94,-13,-152,-65,-152,-141 c0,-88,86,-173,248,-173 c20,0,40,2,60,4 l0,-90 l-226,0 l-48,-44 c1,-45,26,-79,59,-97 l46,13 l0,64 l169,0 l0,-175 l69,0 l0,345 c39,13,74,30,100,52 Z M494,306" fill="rgb(0,0,0)" transform="matrix(0.1,0.0,0.0,-0.1,7.0,135.0)"/>
</svg>