<?xml version="1.0" encoding="UTF-8"?>
<svg height="200.0" version="1.1" width="70.0" xmlns="http://www.w3.org/2000/svg" xmlns:xlink="http://www.w3.org/1999/xlink">
 <path d="M0,0 l70,0 l0,200 l-70,0 Z M0,0" fill="rgb(255,255,255)" transform="matrix(1,0,0,-1,0.0,200.0)"/>
 <path d="M0,0 l70,0" fill="none" stroke="rgb(229,229,229)" stroke-width="2" transform="matrix(1,0,0,-1,0.0,135.0)"/>
 <path d="M0,1 l0,-5" fill="none" stroke="rgb(204,204,204)" stroke-width="2" transform="matrix(1,0,0,-1,7.0,135.0)"/>
 <path d="M0,1 l0,-5" fill="none" stroke="rgb(204,204,204)" stroke-width="2" transform="matrix(1,0,0,-1,62.0,135.0)"/>
 <path d="M569,642 l-591,0 l0,-64 l389,0 l0,-77 l-163,0 c-68,0,-100,-42,-100,-87 c0,-60,43,-116,116,-134 l180,30 c10,-9,17,-21,17,-42 c0,-39,-31,-83,-130,-83 c-93,0,-156,49,-197,106 l-49,-49 c50,-66,135,-120,247,-120 c29,0,55,3,78,10 l0,-94 l-202,0 l-48,-43 c1,-46,27,-80,59,-98 l46,13 l0,64 l145,0 l0,-177 l69,0 l0,368 c36,28,53,66,53,104 c0,57,-29,92,-61,106 l-196,-31 c-35,10,-50,35,-50,58 c0,22,11,38,51,38 l206,0 l0,138 l131,0 Z M569,642" fill="rgb(0,0,0)" transform="matrix(0.1,0.0,0.0,-0.1,7.0,135.0)"/>
</svg>