<?xml version="1.0" encoding="UTF-8"?>
<svg height="200.0" version="1.1" width="78.0" xmlns="http://www.w3.org/2000/svg" xmlns:xlink="http://www.w3.org/1999/xlink">
 <path d="M0,0 l78,0 l0,200 l-78,0 Z M0,0" fill="rgb(255,255,255)" transform="matrix(1,0,0,-1,0.0,200.0)"/>
 <path d="M0,0 l78,0" fill="none" stroke="rgb(229,229,229)" stroke-width="2" transform="matrix(1,0,0,-1,0.0,135.0)"/>
 <path d="M0,1 l0,-5" fill="none" stroke="rgb(204,204,204)" stroke-width="2" transform="matrix(1,0,0,-1,7.0,135.0)"/>
 <path d="M0,1 l0,-5" fill="none" stroke="rgb(204,204,204)" stroke-width="2" transform="matrix(1,0,0,-1,71.0,135.0)"/>
 <path d="M240,-34 l-36,53 l253,162 l4,0 l0,-181 l76,0 l0,578 l121,0 l0,64 l-282,0 l0,-64 l86,0 l0,-308 c-21,-28,-84,-84,-176,-84 c-87,0,-122,39,-122,87 c0,48,34,80,104,80 l62,0 l0,66 l-65,0 c-75,0,-107,34,-107,77 c0,39,25,67,73,82 l-14,64 l-239,0 l0,-64 l147,0 l0,-4 c-21,-10,-47,-38,-47,-82 c0,-63,45,-98,94,-104 l0,-4 c-42,-11,-87,-49,-87,-114 c0,-89,68,-141,167,-137 l0,-4 l-69,-40 l-63,-43 l-15,-62 c19,-34,63,-53,104,-54 Z M240,-34" fill="rgb(0,0,0)" transform="matrix(0.1,0.0,0.0,-0.1,7.0,135.0)"/>
</svg>