<?xml version="1.0" encoding="UTF-8"?>
<svg height="200.0" version="1.1" width="70.0" xmlns="http://www.w3.org/2000/svg" xmlns:xlink="http://www.w3.org/1999/xlink">
 <path d="M0,0 l70,0 l0,200 l-70,0 Z M0,0" fill="rgb(255,255,255)" transform="matrix(1,0,0,-1,0.0,200.0)"/>
 <path d="M0,0 l70,0" fill="none" stroke="rgb(229,229,229)" stroke-width="2" transform="matrix(1,0,0,-1,0.0,135.0)"/>
 <path d="M0,1 l0,-5" fill="none" stroke="rgb(204,204,204)" stroke-width="2" transform="matrix(1,0,0,-1,7.0,135.0)"/>
 <path d="M0,1 l0,-5" fill="none" stroke="rgb(204,204,204)" stroke-width="2" transform="matrix(1,0,0,-1,63.0,135.0)"/>
 <path d="M91,191 l-24,-60 c14,-36,55,-60,95,-66 l36,30 l-28,58 l211,97 l4,0 l0,-250 l75,0 l0,578 l120,0 l0,64 l-602,0 l0,-64 l408,0 l0,-242 l-4,0 c-33,86,-105,148,-219,148 c-32,0,-65,-8,-82,-13 l-50,-44 c0,-43,27,-84,54,-100 l46,13 l0,69 c15,4,26,6,46,6 c79,0,128,-51,150,-116 Z M91,191" fill="rgb(0,0,0)" transform="matrix(0.1,0.0,0.0,-0.1,7.0,135.0)"/>
</svg>