<?xml version="1.0" encoding="UTF-8"?>
<svg height="200.0" version="1.1" width="70.0" xmlns="http://www.w3.org/2000/svg" xmlns:xlink="http://www.w3.org/1999/xlink">
 <path d="M0,0 l70,0 l0,200 l-70,0 Z M0,0" fill="rgb(255,255,255)" transform="matrix(1,0,0,-1,0.0,200.0)"/>
 <path d="M0,0 l70,0" fill="none" stroke="rgb(229,229,229)" stroke-width="2" transform="matrix(1,0,0,-1,0.0,135.0)"/>
 <path d="M0,1 l0,-5" fill="none" stroke="rgb(204,204,204)" stroke-width="2" transform="matrix(1,0,0,-1,7.0,135.0)"/>
 <path d="M0,1 l0,-5" fill="none" stroke="rgb(204,204,204)" stroke-width="2" transform="matrix(1,0,0,-1,63.0,135.0)"/>
 <path d="M206,135 l-46,-28 l-60,-42 l-13,-63 c19,-33,63,-51,105,-52 l30,37 l-37,53 l200,134 l4,0 l0,-174 l75,0 l0,578 l121,0 l0,64 l-607,0 l0,-64 l411,0 l0,-312 c-13,-31,-62,-73,-127,-73 c-75,0,-122,50,-122,118 c0,96,94,128,166,107 l-7,71 c-118,22,-239,-45,-239,-178 c0,-103,75,-164,146,-172 Z M206,135" fill="rgb(0,0,0)" transform="matrix(0.1,0.0,0.0,-0.1,7.0,135.0)"/>
</svg>