<?xml version="1.0" encoding="UTF-8"?>
<svg height="200.0" version="1.1" width="94.0" xmlns="http://www.w3.org/2000/svg" xmlns:xlink="http://www.w3.org/1999/xlink">
 <path d="M0,0 l94,0 l0,200 l-94,0 Z M0,0" fill="rgb(255,255,255)" transform="matrix(1,0,0,-1,0.0,200.0)"/>
 <path d="M0,0 l94,0" fill="none" stroke="rgb(229,229,229)" stroke-width="2" transform="matrix(1,0,0,-1,0.0,135.0)"/>
 <path d="M0,1 l0,-5" fill="none" stroke="rgb(204,204,204)" stroke-width="2" transform="matrix(1,0,0,-1,7.0,135.0)"/>
 <path d="M0,1 l0,-5" fill="none" stroke="rgb(204,204,204)" stroke-width="2" transform="matrix(1,0,0,-1,87.0,135.0)"/>
 <path d="M626,578 l0,-211 l-31,-19 c-25,44,-75,95,-161,95 c-52,0,-95,-23,-121,-40 l-4,0 l0,175 Z M386,231 l-17,-62 c14,-33,56,-54,98,-60 l32,34 l-31,54 l154,91 l4,0 l0,-288 l76,0 l0,578 l121,0 l0,64 l-845,0 l0,-64 l256,0 l0,-178 c0,-46,-23,-65,-67,-65 c-46,0,-74,25,-91,45 l-57,-45 l258,-338 l61,40 l-116,152 c-27,35,-48,58,-70,83 l2,4 c10,-3,23,-4,33,-2 c112,5,136,100,247,100 c52,0,81,-31,98,-59 Z M386,231" fill="rgb(0,0,0)" transform="matrix(0.1,0.0,0.0,-0.1,7.0,135.0)"/>
</svg>