<?xml version="1.0" encoding="UTF-8"?>
<svg height="1521" version="1.1" width="2238.75" xmlns="http://www.w3.org/2000/svg" xmlns:xlink="http://www.w3.org/1999/xlink">
 <path d="M0,0 l2238.75,0 l0,1521 l-2238.75,0 Z M0,0" fill="rgb(255,255,255)" transform="matrix(1,0,0,-1,0,1521)"/>
 <path d="M0,0 l2238.75,0" fill="none" stroke="rgb(229,229,229)" stroke-width="10" transform="matrix(1,0,0,-1,0,1091)"/>
 <path d="M0,5 l0,-25" fill="none" stroke="rgb(204,204,204)" stroke-width="10" transform="matrix(1,0,0,-1,641,1091)"/>
 <path d="M0,5 l0,-25" fill="none" stroke="rgb(204,204,204)" stroke-width="10" transform="matrix(1,0,0,-1,1105,1091)"/>
 <path d="M484,34 l0,631 c0,24,-12,34,-35,34 l-433,0 c-24,0,-36,-10,-36,-34 l0,-631 c0,-23,12,-34,36,-34 l433,0 c23,0,35,11,35,34 Z M249,240 c0,-25,-12,-34,-35,-34 c-22,0,-34,9,-34,34 l0,92 c0,35,28,38,36,39 c27,3,98,11,98,95 c0,47,-23,85,-96,85 c-47,0,-76,-16,-87,-20 c-5,-2,-10,-3,-14,-3 c-16,0,-28,17,-28,33 c0,9,3,16,13,24 c15,12,80,31,132,31 c104,0,156,-66,156,-143 c0,-73,-48,-140,-141,-154 Z M166,121 c0,27,21,48,47,48 c27,0,49,-21,49,-48 c0,-26,-22,-47,-49,-47 c-26,0,-47,21,-47,47 Z M166,121" fill="rgb(0,0,0)" transform="matrix(1,0,0,-1,641,1091)"/>
</svg>