<?xml version="1.0" encoding="UTF-8"?>
<svg height="1521" version="1.1" width="2238.75" xmlns="http://www.w3.org/2000/svg" xmlns:xlink="http://www.w3.org/1999/xlink">
 <path d="M0,0 l2238.75,0 l0,1521 l-2238.75,0 Z M0,0" fill="rgb(255,255,255)" transform="matrix(1,0,0,-1,0,1521)"/>
 <path d="M0,0 l2238.75,0" fill="none" stroke="rgb(229,229,229)" stroke-width="10" transform="matrix(1,0,0,-1,0,1091)"/>
 <path d="M0,5 l0,-25" fill="none" stroke="rgb(204,204,204)" stroke-width="10" transform="matrix(1,0,0,-1,641,1091)"/>
 <path d="M0,5 l0,-25" fill="none" stroke="rgb(204,204,204)" stroke-width="10" transform="matrix(1,0,0,-1,1248,1091)"/>
 <path d="M130,111 c0,-72,-4,-71,-100,-80 c-1,-11,-1,-22,0,-32 c43,0,115,2,154,2 c39,0,118,-2,160,-2 c2,10,2,22,0,32 c-52,4,-77,6,-90,18 c-14,13,-14,33,-14,75 l0,207 l75,0 c86,0,107,-7,120,-112 c12,-2,24,-2,34,0 c-2,86,-2,110,-2,132 c0,23,0,46,2,131 c-10,2,-23,2,-34,0 c-14,-98,-34,-107,-129,-107 l-66,0 l0,283 l145,0 c52,0,88,-9,113,-29 c23,-18,44,-51,61,-94 c10,-2,22,-1,33,0 c-9,61,-18,115,-24,166 c-5,0,-190,-2,-341,-2 c-150,0,-130,2,-194,2 c-1,-11,-1,-22,0,-32 c92,-8,97,-10,97,-93 Z M130,111" fill="rgb(0,0,0)" transform="matrix(1,0,0,-1,641,1091)"/>
</svg>