<?xml version="1.0" encoding="UTF-8"?>
<svg height="1521" version="1.1" width="2238.75" xmlns="http://www.w3.org/2000/svg" xmlns:xlink="http://www.w3.org/1999/xlink">
 <path d="M0,0 l2238.75,0 l0,1521 l-2238.75,0 Z M0,0" fill="rgb(255,255,255)" transform="matrix(1,0,0,-1,0,1521)"/>
 <path d="M0,0 l2238.75,0" fill="none" stroke="rgb(229,229,229)" stroke-width="10" transform="matrix(1,0,0,-1,0,1091)"/>
 <path d="M0,5 l0,-25" fill="none" stroke="rgb(204,204,204)" stroke-width="10" transform="matrix(1,0,0,-1,641,1091)"/>
 <path d="M0,5 l0,-25" fill="none" stroke="rgb(204,204,204)" stroke-width="10" transform="matrix(1,0,0,-1,1233,1091)"/>
 <path d="M30,701 c-1,-11,-1,-22,0,-32 c95,-8,100,-10,100,-93 l0,-465 c0,-72,-4,-71,-100,-80 c-1,-11,-1,-22,0,-32 c43,0,116,2,155,2 c39,0,118,-2,162,-2 c1,10,1,22,0,32 c-58,4,-79,6,-93,18 c-13,12,-14,34,-14,75 l0,196 c31,-7,62,-10,90,-10 c135,0,237,73,237,207 c0,139,-111,185,-237,185 c-33,0,-111,-3,-148,-3 c-27,0,-113,2,-152,2 Z M240,658 c19,3,39,4,53,4 c101,0,152,-57,152,-150 c0,-96,-54,-161,-142,-161 c-26,0,-51,6,-63,9 Z M240,658" fill="rgb(0,0,0)" transform="matrix(1,0,0,-1,641,1091)"/>
</svg>