<?xml version="1.0" encoding="UTF-8"?>
<svg height="1521" version="1.1" width="2238.75" xmlns="http://www.w3.org/2000/svg" xmlns:xlink="http://www.w3.org/1999/xlink">
 <path d="M0,0 l2238.75,0 l0,1521 l-2238.75,0 Z M0,0" fill="rgb(255,255,255)" transform="matrix(1,0,0,-1,0,1521)"/>
 <path d="M0,0 l2238.75,0" fill="none" stroke="rgb(229,229,229)" stroke-width="10" transform="matrix(1,0,0,-1,0,1091)"/>
 <path d="M0,5 l0,-25" fill="none" stroke="rgb(204,204,204)" stroke-width="10" transform="matrix(1,0,0,-1,641,1091)"/>
 <path d="M0,5 l0,-25" fill="none" stroke="rgb(204,204,204)" stroke-width="10" transform="matrix(1,0,0,-1,1334,1091)"/>
 <path d="M517,0 c20,0,37,1,53,1 c37,0,106,-2,146,-2 c2,10,2,22,0,32 c-85,8,-98,12,-167,111 l-105,152 c-13,19,-23,31,-34,40 l0,2 c105,34,160,102,160,186 c0,136,-114,180,-241,180 c-25,0,-117,-3,-142,-3 c-38,0,-117,2,-157,2 c-2,-11,-2,-22,0,-32 c94,-7,100,-10,100,-92 l0,-466 c0,-72,-4,-71,-100,-80 c-2,-11,-2,-22,0,-32 c39,0,117,2,154,2 c38,0,111,-2,151,-2 c2,10,2,22,0,32 c-94,8,-95,9,-95,93 l0,195 l26,-3 c31,-4,45,-8,66,-43 Z M240,657 c19,2,39,4,56,4 c102,0,155,-51,155,-150 c0,-99,-65,-155,-158,-155 c-16,0,-35,1,-53,5 Z M240,657" fill="rgb(0,0,0)" transform="matrix(1,0,0,-1,641,1091)"/>
</svg>