<?xml version="1.0" encoding="UTF-8"?>
<svg height="1521" version="1.1" width="2238.75" xmlns="http://www.w3.org/2000/svg" xmlns:xlink="http://www.w3.org/1999/xlink">
 <path d="M0,0 l2238.75,0 l0,1521 l-2238.75,0 Z M0,0" fill="rgb(255,255,255)" transform="matrix(1,0,0,-1,0,1521)"/>
 <path d="M0,0 l2238.75,0" fill="none" stroke="rgb(229,229,229)" stroke-width="10" transform="matrix(1,0,0,-1,0,1091)"/>
 <path d="M0,5 l0,-25" fill="none" stroke="rgb(204,204,204)" stroke-width="10" transform="matrix(1,0,0,-1,641,1091)"/>
 <path d="M0,5 l0,-25" fill="none" stroke="rgb(204,204,204)" stroke-width="10" transform="matrix(1,0,0,-1,1321,1091)"/>
 <path d="M341,697 c-113,0,-221,0,-308,5 c-6,-55,-13,-113,-21,-177 c10,-1,22,-1,32,0 c35,90,63,132,169,132 l72,0 l0,-546 c0,-72,-3,-71,-102,-80 c-1,-11,-1,-22,0,-32 c42,0,118,2,156,2 c39,0,116,-2,158,-2 c2,10,2,22,0,32 c-100,8,-102,9,-102,93 l0,533 l71,0 c105,0,131,-41,169,-132 c10,-1,22,-1,33,0 c-8,64,-13,123,-18,177 c-86,-5,-194,-5,-309,-5 Z M341,697" fill="rgb(0,0,0)" transform="matrix(1,0,0,-1,641,1091)"/>
</svg>