<?xml version="1.0" encoding="UTF-8"?>
<svg height="1521" version="1.1" width="2238.75" xmlns="http://www.w3.org/2000/svg" xmlns:xlink="http://www.w3.org/1999/xlink">
 <path d="M0,0 l2238.75,0 l0,1521 l-2238.75,0 Z M0,0" fill="rgb(255,255,255)" transform="matrix(1,0,0,-1,0,1521)"/>
 <path d="M0,0 l2238.75,0" fill="none" stroke="rgb(229,229,229)" stroke-width="10" transform="matrix(1,0,0,-1,0,1091)"/>
 <path d="M0,5 l0,-25" fill="none" stroke="rgb(204,204,204)" stroke-width="10" transform="matrix(1,0,0,-1,641,1091)"/>
 <path d="M0,5 l0,-25" fill="none" stroke="rgb(204,204,204)" stroke-width="10" transform="matrix(1,0,0,-1,1408,1091)"/>
 <path d="M14,701 c-2,-11,-2,-21,0,-31 c94,-8,99,-10,99,-93 l0,-344 c0,-167,109,-244,269,-244 c187,0,278,104,278,282 l0,308 c0,81,6,80,99,90 c2,11,2,21,0,31 c-37,0,-95,-2,-128,-2 c-31,0,-90,2,-126,2 c-2,-11,-2,-21,0,-31 c100,-10,106,-10,106,-103 l0,-274 c0,-171,-67,-250,-198,-250 c-124,0,-190,71,-190,221 l0,327 c0,71,5,71,98,80 c2,11,2,21,0,31 c-40,0,-116,-2,-154,-2 c-39,0,-113,2,-153,2 Z M14,701" fill="rgb(0,0,0)" transform="matrix(1,0,0,-1,641,1091)"/>
</svg>