<?xml version="1.0" encoding="UTF-8"?>
<svg height="1521" version="1.1" width="2238.75" xmlns="http://www.w3.org/2000/svg" xmlns:xlink="http://www.w3.org/1999/xlink">
 <path d="M0,0 l2238.75,0 l0,1521 l-2238.75,0 Z M0,0" fill="rgb(255,255,255)" transform="matrix(1,0,0,-1,0,1521)"/>
 <path d="M0,0 l2238.75,0" fill="none" stroke="rgb(229,229,229)" stroke-width="10" transform="matrix(1,0,0,-1,0,1091)"/>
 <path d="M0,5 l0,-25" fill="none" stroke="rgb(204,204,204)" stroke-width="10" transform="matrix(1,0,0,-1,641,1091)"/>
 <path d="M0,5 l0,-25" fill="none" stroke="rgb(204,204,204)" stroke-width="10" transform="matrix(1,0,0,-1,1653,1091)"/>
 <path d="M636,-9 c13,1,39,4,53,8 l220,554 c41,105,52,108,130,116 c2,10,2,22,0,32 c-40,0,-72,-2,-113,-2 c-29,0,-109,2,-137,2 c-2,-10,-2,-21,0,-32 c65,-6,89,-11,89,-36 c0,-13,-7,-29,-17,-56 l-165,-444 l-150,460 c-7,20,-10,33,-10,43 c0,25,22,27,88,33 c2,11,2,22,0,32 c-44,0,-109,-2,-149,-2 c-46,0,-95,2,-141,2 c-1,-10,-1,-22,0,-32 c72,-8,74,-8,107,-105 l47,-140 l-122,-289 l-160,458 c-7,21,-11,34,-11,44 c0,24,20,26,75,32 c2,11,2,22,0,32 c-41,0,-104,-2,-143,-2 c-46,0,-100,2,-144,2 c-1,-10,-1,-22,0,-32 c79,-8,84,-8,118,-104 l204,-572 c14,1,39,4,54,8 l151,360 Z M636,-9" fill="rgb(0,0,0)" transform="matrix(1,0,0,-1,641,1091)"/>
</svg>