<?xml version="1.0" encoding="UTF-8"?>
<svg height="1521" version="1.1" width="2238.75" xmlns="http://www.w3.org/2000/svg" xmlns:xlink="http://www.w3.org/1999/xlink">
 <path d="M0,0 l2238.75,0 l0,1521 l-2238.75,0 Z M0,0" fill="rgb(255,255,255)" transform="matrix(1,0,0,-1,0,1521)"/>
 <path d="M0,0 l2238.75,0" fill="none" stroke="rgb(229,229,229)" stroke-width="10" transform="matrix(1,0,0,-1,0,1091)"/>
 <path d="M0,5 l0,-25" fill="none" stroke="rgb(204,204,204)" stroke-width="10" transform="matrix(1,0,0,-1,641,1091)"/>
 <path d="M0,5 l0,-25" fill="none" stroke="rgb(204,204,204)" stroke-width="10" transform="matrix(1,0,0,-1,1337,1091)"/>
 <path d="M252,598 c-13,21,-20,33,-20,43 c0,17,21,23,78,28 c1,11,1,22,0,32 c-43,0,-118,-2,-161,-2 c-49,0,-104,2,-152,2 c-2,-10,-2,-22,0,-32 c76,-8,91,-16,147,-103 l145,-227 l-147,-198 c-67,-90,-83,-102,-161,-110 c-1,-10,-1,-22,0,-32 c30,0,71,2,114,2 c28,0,122,-2,151,-2 c1,10,1,21,0,32 c-62,6,-90,12,-90,31 c0,10,8,23,22,43 l138,192 l126,-196 c12,-19,20,-32,20,-42 c0,-17,-23,-23,-82,-28 c-1,-11,-1,-22,0,-32 c44,0,122,2,165,2 c50,0,102,-2,151,-2 c1,10,1,22,0,32 c-77,8,-92,15,-148,103 l-158,247 l132,178 c67,90,84,102,161,110 c2,10,2,22,0,32 c-23,0,-70,-2,-113,-2 c-28,0,-118,2,-146,2 c-2,-10,-2,-21,0,-32 c59,-7,85,-12,85,-31 c0,-10,-7,-22,-21,-42 l-125,-173 Z M252,598" fill="rgb(0,0,0)" transform="matrix(1,0,0,-1,641,1091)"/>
</svg>