<?xml version="1.0" encoding="UTF-8"?>
<svg height="1521" version="1.1" width="2238.75" xmlns="http://www.w3.org/2000/svg" xmlns:xlink="http://www.w3.org/1999/xlink">
 <path d="M0,0 l2238.75,0 l0,1521 l-2238.75,0 Z M0,0" fill="rgb(255,255,255)" transform="matrix(1,0,0,-1,0,1521)"/>
 <path d="M0,0 l2238.75,0" fill="none" stroke="rgb(229,229,229)" stroke-width="10" transform="matrix(1,0,0,-1,0,1091)"/>
 <path d="M0,5 l0,-25" fill="none" stroke="rgb(204,204,204)" stroke-width="10" transform="matrix(1,0,0,-1,641,1091)"/>
 <path d="M0,5 l0,-25" fill="none" stroke="rgb(204,204,204)" stroke-width="10" transform="matrix(1,0,0,-1,1320,1091)"/>
 <path d="M418,261 l57,-154 c7,-20,11,-33,11,-43 c0,-25,-22,-27,-87,-33 c-2,-11,-2,-22,0,-32 c22,0,47,1,73,1 c26,1,60,1,80,1 c49,0,99,-2,146,-2 c1,10,1,22,0,32 c-79,8,-82,8,-118,105 l-215,571 c-15,0,-39,-3,-53,-8 l-216,-554 c-40,-103,-49,-106,-123,-114 c-1,-10,-1,-22,0,-32 c40,0,72,2,110,2 c17,0,40,0,68,-1 c28,0,50,-1,66,-1 c1,10,1,21,0,32 c-63,6,-88,9,-88,38 c0,13,5,28,14,54 l50,138 Z M305,569 l98,-266 l-195,0 Z M489,897 c-16,-40,-36,-60,-60,-60 c-24,0,-49,17,-74,31 c-28,16,-49,22,-66,22 c-53,0,-94,-46,-123,-123 c11,-5,22,-9,32,-11 c16,39,36,58,60,58 c26,0,49,-16,74,-30 c28,-16,48,-22,67,-22 c53,0,95,44,122,124 c-10,4,-20,8,-32,11 Z M489,897" fill="rgb(0,0,0)" transform="matrix(1,0,0,-1,641,1091)"/>
</svg>