<?xml version="1.0" encoding="UTF-8"?>
<svg height="1521" version="1.1" width="2238.75" xmlns="http://www.w3.org/2000/svg" xmlns:xlink="http://www.w3.org/1999/xlink">
 <path d="M0,0 l2238.75,0 l0,1521 l-2238.75,0 Z M0,0" fill="rgb(255,255,255)" transform="matrix(1,0,0,-1,0,1521)"/>
 <path d="M0,0 l2238.75,0" fill="none" stroke="rgb(229,229,229)" stroke-width="10" transform="matrix(1,0,0,-1,0,1091)"/>
 <path d="M0,5 l0,-25" fill="none" stroke="rgb(204,204,204)" stroke-width="10" transform="matrix(1,0,0,-1,641,1091)"/>
 <path d="M0,5 l0,-25" fill="none" stroke="rgb(204,204,204)" stroke-width="10" transform="matrix(1,0,0,-1,1597,1091)"/>
 <path d="M542,699 c-27,0,-101,0,-249,2 c-2,-11,-2,-22,0,-32 c37,-2,65,-5,86,-9 l-291,-515 c-55,-98,-64,-106,-144,-114 c-1,-10,-1,-22,0,-32 c43,0,81,2,118,2 c37,0,109,-2,140,-2 c2,10,2,21,0,32 c-65,4,-91,14,-91,39 c0,14,8,29,22,54 l113,204 l196,0 l0,-217 c0,-72,-4,-71,-97,-80 c-1,-11,-1,-22,0,-32 c52,0,93,2,188,2 c67,0,246,-1,364,-1 c6,44,15,104,29,179 c-10,1,-21,1,-31,0 c-22,-48,-48,-85,-68,-102 c-27,-23,-65,-34,-132,-34 l-141,0 c-2,8,-2,36,-2,81 l0,204 l67,0 c86,0,108,-6,121,-105 c12,-1,24,-1,34,0 c-2,84,-2,107,-2,128 c0,23,0,45,2,128 c-10,1,-23,1,-34,0 c-14,-99,-35,-108,-130,-108 l-58,0 l0,287 l137,0 c53,0,84,-10,108,-28 c24,-19,46,-50,62,-88 c10,-1,22,-1,32,0 c-8,58,-16,110,-21,159 c-145,-2,-279,-2,-328,-2 Z M442,371 l-174,0 l161,287 l13,0 Z M442,371" fill="rgb(0,0,0)" transform="matrix(1,0,0,-1,641,1091)"/>
</svg>