<?xml version="1.0" encoding="UTF-8"?>
<svg height="1521" version="1.1" width="2238.75" xmlns="http://www.w3.org/2000/svg" xmlns:xlink="http://www.w3.org/1999/xlink">
 <path d="M0,0 l2238.75,0 l0,1521 l-2238.75,0 Z M0,0" fill="rgb(255,255,255)" transform="matrix(1,0,0,-1,0,1521)"/>
 <path d="M0,0 l2238.75,0" fill="none" stroke="rgb(229,229,229)" stroke-width="10" transform="matrix(1,0,0,-1,0,1091)"/>
 <path d="M0,5 l0,-25" fill="none" stroke="rgb(204,204,204)" stroke-width="10" transform="matrix(1,0,0,-1,641,1091)"/>
 <path d="M0,5 l0,-25" fill="none" stroke="rgb(204,204,204)" stroke-width="10" transform="matrix(1,0,0,-1,1278,1091)"/>
 <path d="M33,701 c-1,-11,-1,-22,0,-32 c92,-8,97,-10,97,-93 l0,-465 c0,-71,-4,-71,-97,-80 c-1,-11,-1,-22,0,-32 c39,0,122,2,154,2 c39,0,92,-3,139,-3 c48,0,91,3,128,13 c85,23,150,88,150,183 c0,111,-90,169,-197,178 l0,1 c105,30,157,88,157,172 c0,101,-78,156,-240,156 c-32,0,-95,-2,-136,-2 c-39,0,-113,2,-155,2 Z M240,338 c13,2,40,3,59,3 c126,0,183,-46,183,-148 c0,-105,-59,-156,-162,-156 c-25,0,-50,3,-79,9 c-1,14,-1,37,-1,70 Z M240,655 c23,3,39,5,58,5 c98,0,146,-45,146,-140 c0,-94,-49,-139,-177,-139 c-3,0,-18,0,-27,1 Z M130,-152 c0,-35,25,-63,62,-63 c37,0,62,28,62,63 c0,35,-25,62,-62,62 c-37,0,-62,-27,-62,-62 Z M333,-152 c0,-35,25,-63,62,-63 c37,0,62,28,62,63 c0,35,-25,62,-62,62 c-37,0,-62,-27,-62,-62 Z M333,-152" fill="rgb(0,0,0)" transform="matrix(1,0,0,-1,641,1091)"/>
</svg>