<?xml version="1.0" encoding="UTF-8"?>
<svg height="1521" version="1.1" width="2238.75" xmlns="http://www.w3.org/2000/svg" xmlns:xlink="http://www.w3.org/1999/xlink">
 <path d="M0,0 l2238.75,0 l0,1521 l-2238.75,0 Z M0,0" fill="rgb(255,255,255)" transform="matrix(1,0,0,-1,0,1521)"/>
 <path d="M0,0 l2238.75,0" fill="none" stroke="rgb(229,229,229)" stroke-width="10" transform="matrix(1,0,0,-1,0,1091)"/>
 <path d="M0,5 l0,-25" fill="none" stroke="rgb(204,204,204)" stroke-width="10" transform="matrix(1,0,0,-1,641,1091)"/>
 <path d="M0,5 l0,-25" fill="none" stroke="rgb(204,204,204)" stroke-width="10" transform="matrix(1,0,0,-1,1362,1091)"/>
 <path d="M666,207 c-13,1,-24,1,-35,1 c-29,-124,-93,-181,-204,-181 c-177,0,-252,147,-252,324 c0,164,66,320,245,320 c112,0,179,-60,205,-181 c10,-1,22,0,34,2 c-5,68,-8,130,-10,189 c-6,-1,-14,-2,-21,-2 c-21,0,-40,6,-66,12 c-59,13,-93,20,-147,20 c-222,0,-365,-152,-365,-370 c0,-216,142,-355,364,-355 c87,0,160,21,234,42 c4,62,10,121,18,179 Z M415,817 c-42,31,-90,61,-141,91 c-9,-2,-19,-6,-28,-13 c41,-42,96,-114,130,-156 c11,-3,26,-4,38,-4 c14,0,29,1,39,4 c34,42,88,114,129,156 c-8,7,-18,11,-28,13 c-50,-30,-97,-61,-139,-91 Z M415,817" fill="rgb(0,0,0)" transform="matrix(1,0,0,-1,641,1091)"/>
</svg>