<?xml version="1.0" encoding="UTF-8"?>
<svg height="1521" version="1.1" width="2238.75" xmlns="http://www.w3.org/2000/svg" xmlns:xlink="http://www.w3.org/1999/xlink">
 <path d="M0,0 l2238.75,0 l0,1521 l-2238.75,0 Z M0,0" fill="rgb(255,255,255)" transform="matrix(1,0,0,-1,0,1521)"/>
 <path d="M0,0 l2238.75,0" fill="none" stroke="rgb(229,229,229)" stroke-width="10" transform="matrix(1,0,0,-1,0,1091)"/>
 <path d="M0,5 l0,-25" fill="none" stroke="rgb(204,204,204)" stroke-width="10" transform="matrix(1,0,0,-1,641,1091)"/>
 <path d="M0,5 l0,-25" fill="none" stroke="rgb(204,204,204)" stroke-width="10" transform="matrix(1,0,0,-1,1362,1091)"/>
 <path d="M666,207 c-13,1,-24,1,-35,1 c-29,-124,-93,-181,-204,-181 c-177,0,-252,147,-252,324 c0,164,66,320,245,320 c112,0,179,-60,205,-181 c10,-1,22,0,34,2 c-5,68,-8,130,-10,189 c-6,-1,-14,-2,-21,-2 c-21,0,-40,6,-66,12 c-59,13,-93,20,-147,20 c-222,0,-365,-152,-365,-370 c0,-204,126,-339,326,-353 l-63,-92 l2,-5 c64,-5,105,-31,105,-71 c0,-26,-18,-46,-59,-46 c-15,38,-38,52,-58,52 c-21,0,-38,-16,-38,-36 c0,-23,22,-50,77,-50 c69,0,141,42,141,114 c0,43,-25,77,-90,93 l25,39 c85,1,157,21,230,42 c4,62,10,121,18,179 Z M666,207" fill="rgb(0,0,0)" transform="matrix(1,0,0,-1,641,1091)"/>
</svg>