<?xml version="1.0" encoding="UTF-8"?>
<svg height="1521" version="1.1" width="2238.75" xmlns="http://www.w3.org/2000/svg" xmlns:xlink="http://www.w3.org/1999/xlink">
 <path d="M0,0 l2238.75,0 l0,1521 l-2238.75,0 Z M0,0" fill="rgb(255,255,255)" transform="matrix(1,0,0,-1,0,1521)"/>
 <path d="M0,0 l2238.75,0" fill="none" stroke="rgb(229,229,229)" stroke-width="10" transform="matrix(1,0,0,-1,0,1091)"/>
 <path d="M0,5 l0,-25" fill="none" stroke="rgb(204,204,204)" stroke-width="10" transform="matrix(1,0,0,-1,641,1091)"/>
 <path d="M0,5 l0,-25" fill="none" stroke="rgb(204,204,204)" stroke-width="10" transform="matrix(1,0,0,-1,1415,1091)"/>
 <path d="M188,699 c-39,0,-113,2,-155,2 c-1,-11,-1,-22,0,-32 c92,-8,97,-10,97,-93 l0,-465 c0,-72,-4,-71,-97,-80 c-1,-11,-1,-22,0,-32 c39,0,122,2,154,2 c35,0,105,-2,134,-2 c236,0,403,136,403,373 c0,215,-137,329,-399,329 c-35,0,-96,-2,-137,-2 Z M240,655 c13,1,46,5,78,5 c189,0,285,-119,285,-306 c0,-180,-89,-314,-263,-314 c-34,0,-68,5,-99,14 c-1,14,-1,37,-1,70 Z M173,-103 c-2,-16,-2,-34,0,-50 l282,0 c2,16,2,34,0,50 Z M173,-103" fill="rgb(0,0,0)" transform="matrix(1,0,0,-1,641,1091)"/>
</svg>