<?xml version="1.0" encoding="UTF-8"?>
<svg height="1521" version="1.1" width="2238.75" xmlns="http://www.w3.org/2000/svg" xmlns:xlink="http://www.w3.org/1999/xlink">
 <path d="M0,0 l2238.75,0 l0,1521 l-2238.75,0 Z M0,0" fill="rgb(255,255,255)" transform="matrix(1,0,0,-1,0,1521)"/>
 <path d="M0,0 l2238.75,0" fill="none" stroke="rgb(229,229,229)" stroke-width="10" transform="matrix(1,0,0,-1,0,1091)"/>
 <path d="M0,5 l0,-25" fill="none" stroke="rgb(204,204,204)" stroke-width="10" transform="matrix(1,0,0,-1,641,1091)"/>
 <path d="M0,5 l0,-25" fill="none" stroke="rgb(204,204,204)" stroke-width="10" transform="matrix(1,0,0,-1,1281,1091)"/>
 <path d="M237,699 c-156,0,-135,2,-204,2 c-1,-11,-1,-22,0,-32 c92,-8,97,-10,97,-93 l0,-465 c0,-71,-4,-71,-97,-80 c-1,-11,-1,-22,0,-32 c53,0,84,2,178,2 c68,0,251,-1,370,-1 c6,44,15,104,29,179 c-10,1,-21,1,-31,0 c-23,-48,-51,-87,-69,-102 c-27,-23,-64,-34,-131,-34 l-137,0 c-2,8,-2,36,-2,81 l0,217 l64,0 c86,0,107,-6,120,-111 c12,-2,24,-2,34,0 l-2,132 c0,19,-1,21,2,130 c-10,2,-23,2,-34,0 c-14,-98,-34,-107,-129,-107 l-55,0 l0,273 l131,0 c52,0,86,-9,111,-28 c22,-16,45,-48,61,-88 c10,-1,22,-1,33,0 c-9,58,-17,110,-22,159 c-17,0,-160,-2,-317,-2 Z M451,844 c-20,32,-53,67,-74,67 c-37,-44,-89,-106,-134,-152 c6,-11,12,-19,21,-24 c54,33,143,84,187,106 Z M451,844" fill="rgb(0,0,0)" transform="matrix(1,0,0,-1,641,1091)"/>
</svg>