<?xml version="1.0" encoding="UTF-8"?>
<svg height="1521" version="1.1" width="2238.75" xmlns="http://www.w3.org/2000/svg" xmlns:xlink="http://www.w3.org/1999/xlink">
 <path d="M0,0 l2238.75,0 l0,1521 l-2238.75,0 Z M0,0" fill="rgb(255,255,255)" transform="matrix(1,0,0,-1,0,1521)"/>
 <path d="M0,0 l2238.75,0" fill="none" stroke="rgb(229,229,229)" stroke-width="10" transform="matrix(1,0,0,-1,0,1091)"/>
 <path d="M0,5 l0,-25" fill="none" stroke="rgb(204,204,204)" stroke-width="10" transform="matrix(1,0,0,-1,641,1091)"/>
 <path d="M0,5 l0,-25" fill="none" stroke="rgb(204,204,204)" stroke-width="10" transform="matrix(1,0,0,-1,1481,1091)"/>
 <path d="M600,392 l-360,0 l0,197 c0,70,5,72,98,80 c2,11,2,22,0,32 c-37,0,-117,-2,-152,-2 c-37,0,-115,2,-155,2 c-2,-11,-2,-22,0,-32 c94,-8,99,-9,99,-93 l0,-465 c0,-71,-6,-72,-98,-80 c-2,-11,-2,-22,0,-32 c40,0,115,2,152,2 c37,0,114,-2,154,-2 c1,10,1,21,0,32 c-94,8,-98,9,-98,93 l0,224 l360,0 l0,-237 c0,-71,-4,-72,-96,-80 c-2,-11,-2,-22,0,-32 c40,0,113,2,150,2 c38,0,113,-2,155,-2 c1,10,1,21,0,32 c-96,8,-99,10,-99,93 l0,465 c0,70,5,72,99,80 c1,11,1,22,0,32 c-41,0,-114,-2,-153,-2 c-37,0,-115,2,-153,2 c-1,-11,-1,-22,0,-32 c93,-8,97,-9,97,-93 Z M350,-152 c0,-37,30,-68,68,-68 c41,0,71,34,71,69 c0,37,-32,68,-69,68 c-39,0,-70,-31,-70,-69 Z M350,-152" fill="rgb(0,0,0)" transform="matrix(1,0,0,-1,641,1091)"/>
</svg>