<?xml version="1.0" encoding="UTF-8"?>
<svg height="1521" version="1.1" width="2238.75" xmlns="http://www.w3.org/2000/svg" xmlns:xlink="http://www.w3.org/1999/xlink">
 <path d="M0,0 l2238.75,0 l0,1521 l-2238.75,0 Z M0,0" fill="rgb(255,255,255)" transform="matrix(1,0,0,-1,0,1521)"/>
 <path d="M0,0 l2238.75,0" fill="none" stroke="rgb(229,229,229)" stroke-width="10" transform="matrix(1,0,0,-1,0,1091)"/>
 <path d="M0,5 l0,-25" fill="none" stroke="rgb(204,204,204)" stroke-width="10" transform="matrix(1,0,0,-1,641,1091)"/>
 <path d="M0,5 l0,-25" fill="none" stroke="rgb(204,204,204)" stroke-width="10" transform="matrix(1,0,0,-1,1011,1091)"/>
 <path d="M240,589 c0,72,4,71,99,80 c2,11,2,22,0,32 c-39,0,-115,-2,-152,-2 c-38,0,-116,2,-157,2 c-1,-11,-1,-22,0,-32 c95,-8,100,-10,100,-93 l0,-465 c0,-72,-4,-71,-100,-80 c-1,-11,-1,-22,0,-32 c43,0,116,2,155,2 c38,0,113,-2,154,-2 c2,10,2,22,0,32 c-98,8,-99,9,-99,93 Z M40,813 c-2,-16,-2,-32,0,-48 l288,0 c2,16,2,32,0,48 Z M47,961 c44,-22,133,-73,187,-106 c9,5,15,13,21,24 c-45,46,-97,108,-134,152 c-21,0,-54,-35,-74,-67 Z M47,961" fill="rgb(0,0,0)" transform="matrix(1,0,0,-1,641,1091)"/>
</svg>