<?xml version="1.0" encoding="UTF-8"?>
<svg height="1521" version="1.1" width="2238.75" xmlns="http://www.w3.org/2000/svg" xmlns:xlink="http://www.w3.org/1999/xlink">
 <path d="M0,0 l2238.75,0 l0,1521 l-2238.75,0 Z M0,0" fill="rgb(255,255,255)" transform="matrix(1,0,0,-1,0,1521)"/>
 <path d="M0,0 l2238.75,0" fill="none" stroke="rgb(229,229,229)" stroke-width="10" transform="matrix(1,0,0,-1,0,1091)"/>
 <path d="M0,5 l0,-25" fill="none" stroke="rgb(204,204,204)" stroke-width="10" transform="matrix(1,0,0,-1,641,1091)"/>
 <path d="M0,5 l0,-25" fill="none" stroke="rgb(204,204,204)" stroke-width="10" transform="matrix(1,0,0,-1,1011,1091)"/>
 <path d="M240,589 c0,72,4,71,99,80 c2,11,2,22,0,32 c-39,0,-115,-2,-152,-2 c-38,0,-116,2,-157,2 c-1,-11,-1,-22,0,-32 c95,-8,100,-10,100,-93 l0,-465 c0,-72,-4,-71,-100,-80 c-1,-11,-1,-22,0,-32 c43,0,116,2,155,2 c38,0,113,-2,154,-2 c2,10,2,22,0,32 c-98,8,-99,9,-99,93 Z M40,813 c-2,-16,-2,-32,0,-48 l288,0 c2,16,2,32,0,48 Z M334,1002 c-16,-40,-36,-60,-60,-60 c-24,0,-49,17,-74,31 c-28,16,-49,22,-66,22 c-53,0,-94,-46,-123,-123 c11,-5,22,-9,32,-11 c16,39,36,58,60,58 c26,0,49,-16,74,-30 c28,-16,48,-22,67,-22 c53,0,95,44,122,124 c-10,4,-20,8,-32,11 Z M334,1002" fill="rgb(0,0,0)" transform="matrix(1,0,0,-1,641,1091)"/>
</svg>