<?xml version="1.0" encoding="UTF-8"?>
<svg height="1521" version="1.1" width="2238.75" xmlns="http://www.w3.org/2000/svg" xmlns:xlink="http://www.w3.org/1999/xlink">
 <path d="M0,0 l2238.75,0 l0,1521 l-2238.75,0 Z M0,0" fill="rgb(255,255,255)" transform="matrix(1,0,0,-1,0,1521)"/>
 <path d="M0,0 l2238.75,0" fill="none" stroke="rgb(229,229,229)" stroke-width="10" transform="matrix(1,0,0,-1,0,1091)"/>
 <path d="M0,5 l0,-25" fill="none" stroke="rgb(204,204,204)" stroke-width="10" transform="matrix(1,0,0,-1,641,1091)"/>
 <path d="M0,5 l0,-25" fill="none" stroke="rgb(204,204,204)" stroke-width="10" transform="matrix(1,0,0,-1,1356,1091)"/>
 <path d="M240,589 c1,72,4,71,96,80 c2,11,2,22,0,32 c-40,0,-114,-2,-151,-2 c-37,0,-115,2,-155,2 c-1,-11,-1,-22,0,-32 c95,-8,100,-10,100,-93 l0,-465 c0,-72,-4,-71,-100,-80 c-1,-11,-1,-22,0,-32 c41,0,115,2,153,2 c38,0,113,-2,153,-2 c2,10,2,22,0,32 c-91,7,-96,8,-96,93 l0,154 l41,45 l240,-323 c19,0,45,1,60,1 c35,0,101,-2,139,-2 c2,10,2,22,0,32 c-85,8,-96,15,-160,98 l-206,271 l147,152 c93,97,108,109,190,117 c1,10,1,22,0,32 c-45,0,-80,-2,-123,-2 c-33,0,-104,2,-137,2 c-1,-10,-1,-21,0,-32 c55,-4,77,-10,77,-27 c0,-12,-12,-28,-38,-56 l-230,-245 Z M289,-152 c0,-37,30,-68,68,-68 c41,0,71,34,71,69 c0,37,-32,68,-69,68 c-39,0,-70,-31,-70,-69 Z M289,-152" fill="rgb(0,0,0)" transform="matrix(1,0,0,-1,641,1091)"/>
</svg>