<?xml version="1.0" encoding="UTF-8"?>
<svg height="1521" version="1.1" width="2238.75" xmlns="http://www.w3.org/2000/svg" xmlns:xlink="http://www.w3.org/1999/xlink">
 <path d="M0,0 l2238.75,0 l0,1521 l-2238.75,0 Z M0,0" fill="rgb(255,255,255)" transform="matrix(1,0,0,-1,0,1521)"/>
 <path d="M0,0 l2238.75,0" fill="none" stroke="rgb(229,229,229)" stroke-width="10" transform="matrix(1,0,0,-1,0,1091)"/>
 <path d="M0,5 l0,-25" fill="none" stroke="rgb(204,204,204)" stroke-width="10" transform="matrix(1,0,0,-1,641,1091)"/>
 <path d="M0,5 l0,-25" fill="none" stroke="rgb(204,204,204)" stroke-width="10" transform="matrix(1,0,0,-1,1255,1091)"/>
 <path d="M240,589 c0,72,4,71,99,80 c2,11,2,22,0,32 c-39,0,-117,-2,-154,-2 c-37,0,-111,2,-152,2 c-1,-11,-1,-22,0,-32 c92,-8,97,-10,97,-93 l0,-465 c0,-72,-4,-71,-97,-80 c-1,-11,-1,-22,0,-32 c40,0,117,2,155,2 c129,0,257,-1,387,-1 c6,44,16,109,32,191 c-10,2,-21,2,-31,0 c-24,-54,-48,-92,-72,-115 c-24,-22,-64,-34,-120,-34 l-142,0 c-2,9,-2,37,-2,82 Z M334,897 c-16,-40,-36,-60,-60,-60 c-24,0,-49,17,-74,31 c-28,16,-49,22,-66,22 c-53,0,-94,-46,-123,-123 c11,-5,22,-9,32,-11 c16,39,36,58,60,58 c26,0,49,-16,74,-30 c28,-16,48,-22,67,-22 c53,0,95,44,122,124 c-10,4,-20,8,-32,11 Z M334,897" fill="rgb(0,0,0)" transform="matrix(1,0,0,-1,641,1091)"/>
</svg>