<?xml version="1.0" encoding="UTF-8"?>
<svg height="1521" version="1.1" width="2238.75" xmlns="http://www.w3.org/2000/svg" xmlns:xlink="http://www.w3.org/1999/xlink">
 <path d="M0,0 l2238.75,0 l0,1521 l-2238.75,0 Z M0,0" fill="rgb(255,255,255)" transform="matrix(1,0,0,-1,0,1521)"/>
 <path d="M0,0 l2238.75,0" fill="none" stroke="rgb(229,229,229)" stroke-width="10" transform="matrix(1,0,0,-1,0,1091)"/>
 <path d="M0,5 l0,-25" fill="none" stroke="rgb(204,204,204)" stroke-width="10" transform="matrix(1,0,0,-1,641,1091)"/>
 <path d="M0,5 l0,-25" fill="none" stroke="rgb(204,204,204)" stroke-width="10" transform="matrix(1,0,0,-1,1258,1091)"/>
 <path d="M240,589 c0,72,4,71,99,80 c2,11,2,22,0,32 c-39,0,-117,-2,-154,-2 c-37,0,-111,2,-152,2 c-1,-11,-1,-22,0,-32 c92,-8,97,-10,97,-93 l0,-465 c0,-72,-4,-71,-97,-80 c-1,-11,-1,-22,0,-32 c40,0,117,2,155,2 c129,0,257,-1,387,-1 c6,44,16,109,32,191 c-10,2,-21,2,-31,0 c-24,-54,-48,-92,-72,-115 c-24,-22,-64,-34,-120,-34 l-142,0 c-2,9,-2,37,-2,82 Z M234,-152 c0,-37,30,-68,68,-68 c41,0,71,34,71,69 c0,37,-32,68,-69,68 c-39,0,-70,-31,-70,-69 Z M40,823 c-2,-16,-2,-32,0,-48 l288,0 c2,16,2,32,0,48 Z M40,823" fill="rgb(0,0,0)" transform="matrix(1,0,0,-1,641,1091)"/>
</svg>