<?xml version="1.0" encoding="UTF-8"?>
<svg height="1521" version="1.1" width="2238.75" xmlns="http://www.w3.org/2000/svg" xmlns:xlink="http://www.w3.org/1999/xlink">
 <path d="M0,0 l2238.75,0 l0,1521 l-2238.75,0 Z M0,0" fill="rgb(255,255,255)" transform="matrix(1,0,0,-1,0,1521)"/>
 <path d="M0,0 l2238.75,0" fill="none" stroke="rgb(229,229,229)" stroke-width="10" transform="matrix(1,0,0,-1,0,1091)"/>
 <path d="M0,5 l0,-25" fill="none" stroke="rgb(204,204,204)" stroke-width="10" transform="matrix(1,0,0,-1,641,1091)"/>
 <path d="M0,5 l0,-25" fill="none" stroke="rgb(204,204,204)" stroke-width="10" transform="matrix(1,0,0,-1,1608,1091)"/>
 <path d="M482,152 l-207,548 c-28,-1,-66,-1,-86,-1 c-59,0,-105,2,-150,2 c-1,-10,-1,-20,0,-31 c97,-9,103,-10,100,-80 l-19,-467 c-3,-79,-5,-82,-99,-93 c-1,-10,-1,-21,0,-31 c16,0,108,2,124,2 c21,0,99,-2,119,-2 c3,10,3,20,0,31 c-95,12,-96,14,-94,80 l16,515 l237,-629 c14,0,39,1,48,5 l252,644 l9,-535 c1,-71,-4,-71,-95,-80 c-1,-11,-1,-21,0,-31 c22,0,129,2,150,2 c22,0,132,-2,153,-2 c2,10,2,21,0,31 c-98,8,-98,9,-99,93 l-8,467 c-1,71,4,71,99,80 c2,11,2,21,0,31 c-21,0,-131,-2,-153,-2 c-21,0,-55,0,-83,1 Z M415,816 c0,-36,30,-67,67,-67 c40,0,70,34,70,68 c0,36,-32,67,-68,67 c-38,0,-69,-31,-69,-68 Z M415,816" fill="rgb(0,0,0)" transform="matrix(1,0,0,-1,641,1091)"/>
</svg>