<?xml version="1.0" encoding="UTF-8"?>
<svg height="1521" version="1.1" width="2238.75" xmlns="http://www.w3.org/2000/svg" xmlns:xlink="http://www.w3.org/1999/xlink">
 <path d="M0,0 l2238.75,0 l0,1521 l-2238.75,0 Z M0,0" fill="rgb(255,255,255)" transform="matrix(1,0,0,-1,0,1521)"/>
 <path d="M0,0 l2238.75,0" fill="none" stroke="rgb(229,229,229)" stroke-width="10" transform="matrix(1,0,0,-1,0,1091)"/>
 <path d="M0,5 l0,-25" fill="none" stroke="rgb(204,204,204)" stroke-width="10" transform="matrix(1,0,0,-1,641,1091)"/>
 <path d="M0,5 l0,-25" fill="none" stroke="rgb(204,204,204)" stroke-width="10" transform="matrix(1,0,0,-1,1434,1091)"/>
 <path d="M621,-7 c17,0,43,2,57,5 l0,565 c0,89,4,94,100,106 c1,10,1,22,0,31 c-39,0,-95,-2,-128,-2 c-32,0,-100,2,-138,2 c-2,-10,-2,-21,0,-32 c54,-4,87,-13,101,-28 c14,-14,14,-40,14,-90 l0,-384 l-406,534 c-23,-1,-61,-1,-67,-1 c-47,0,-95,2,-136,2 c-1,-11,-1,-21,0,-31 c101,-11,107,-18,107,-124 l0,-410 c0,-90,-4,-93,-99,-105 c-2,-11,-2,-22,0,-32 c38,0,93,2,127,2 c33,0,88,-2,128,-2 c1,10,1,22,0,32 c-52,5,-78,14,-91,28 c-13,14,-14,39,-14,90 l0,428 Z M559,897 c-16,-40,-36,-60,-60,-60 c-24,0,-49,17,-74,31 c-28,16,-49,22,-66,22 c-53,0,-94,-46,-123,-123 c11,-5,22,-9,32,-11 c16,39,36,58,60,58 c26,0,49,-16,74,-30 c28,-16,48,-22,67,-22 c53,0,95,44,122,124 c-10,4,-20,8,-32,11 Z M559,897" fill="rgb(0,0,0)" transform="matrix(1,0,0,-1,641,1091)"/>
</svg>