<?xml version="1.0" encoding="UTF-8"?>
<svg height="1521" version="1.1" width="2238.75" xmlns="http://www.w3.org/2000/svg" xmlns:xlink="http://www.w3.org/1999/xlink">
 <path d="M0,0 l2238.75,0 l0,1521 l-2238.75,0 Z M0,0" fill="rgb(255,255,255)" transform="matrix(1,0,0,-1,0,1521)"/>
 <path d="M0,0 l2238.75,0" fill="none" stroke="rgb(229,229,229)" stroke-width="10" transform="matrix(1,0,0,-1,0,1091)"/>
 <path d="M0,5 l0,-25" fill="none" stroke="rgb(204,204,204)" stroke-width="10" transform="matrix(1,0,0,-1,641,1091)"/>
 <path d="M0,5 l0,-25" fill="none" stroke="rgb(204,204,204)" stroke-width="10" transform="matrix(1,0,0,-1,1434,1091)"/>
 <path d="M621,-7 c17,0,43,2,57,5 l0,565 c0,89,4,94,100,106 c1,10,1,22,0,31 c-39,0,-95,-2,-128,-2 c-32,0,-100,2,-138,2 c-2,-10,-2,-21,0,-32 c54,-4,87,-13,101,-28 c14,-14,14,-40,14,-90 l0,-384 l-406,534 c-23,-1,-61,-1,-67,-1 c-47,0,-95,2,-136,2 c-1,-11,-1,-21,0,-31 c101,-11,107,-18,107,-124 l0,-410 c0,-90,-4,-93,-99,-105 c-2,-11,-2,-22,0,-32 c38,0,93,2,127,2 c33,0,88,-2,128,-2 c1,10,1,22,0,32 c-52,5,-78,14,-91,28 c-13,14,-14,39,-14,90 l0,428 Z M281,906 c-12,-2,-22,-4,-33,-7 c15,-104,76,-162,162,-162 c86,0,148,58,162,162 c-11,3,-21,5,-32,7 c-19,-65,-65,-93,-131,-93 c-61,0,-110,26,-128,93 Z M347,924 c0,-33,27,-60,60,-60 c36,0,63,29,63,62 c0,32,-28,59,-62,59 c-33,0,-61,-27,-61,-61 Z M347,924" fill="rgb(0,0,0)" transform="matrix(1,0,0,-1,641,1091)"/>
</svg>