<?xml version="1.0" encoding="UTF-8"?>
<svg height="1521" version="1.1" width="2238.75" xmlns="http://www.w3.org/2000/svg" xmlns:xlink="http://www.w3.org/1999/xlink">
 <path d="M0,0 l2238.75,0 l0,1521 l-2238.75,0 Z M0,0" fill="rgb(255,255,255)" transform="matrix(1,0,0,-1,0,1521)"/>
 <path d="M0,0 l2238.75,0" fill="none" stroke="rgb(229,229,229)" stroke-width="10" transform="matrix(1,0,0,-1,0,1091)"/>
 <path d="M0,5 l0,-25" fill="none" stroke="rgb(204,204,204)" stroke-width="10" transform="matrix(1,0,0,-1,641,1091)"/>
 <path d="M0,5 l0,-25" fill="none" stroke="rgb(204,204,204)" stroke-width="10" transform="matrix(1,0,0,-1,1443,1091)"/>
 <path d="M628,344 c0,-160,-58,-319,-222,-319 c-169,0,-231,169,-231,324 c0,156,61,321,228,321 c165,0,225,-164,225,-326 Z M752,354 c0,208,-132,357,-345,357 c-217,0,-357,-155,-357,-369 c0,-207,129,-357,345,-357 c217,0,357,153,357,369 Z M400,826 c42,-31,90,-61,141,-91 c9,2,19,6,28,13 c-41,42,-96,114,-130,156 c-11,3,-26,4,-38,4 c-14,0,-29,-1,-39,-4 c-34,-42,-88,-114,-129,-156 c8,-7,18,-11,28,-13 c50,30,97,61,139,91 Z M400,826" fill="rgb(0,0,0)" transform="matrix(1,0,0,-1,641,1091)"/>
</svg>