<?xml version="1.0" encoding="UTF-8"?>
<svg height="1521" version="1.1" width="2238.75" xmlns="http://www.w3.org/2000/svg" xmlns:xlink="http://www.w3.org/1999/xlink">
 <path d="M0,0 l2238.75,0 l0,1521 l-2238.75,0 Z M0,0" fill="rgb(255,255,255)" transform="matrix(1,0,0,-1,0,1521)"/>
 <path d="M0,0 l2238.75,0" fill="none" stroke="rgb(229,229,229)" stroke-width="10" transform="matrix(1,0,0,-1,0,1091)"/>
 <path d="M0,5 l0,-25" fill="none" stroke="rgb(204,204,204)" stroke-width="10" transform="matrix(1,0,0,-1,641,1091)"/>
 <path d="M0,5 l0,-25" fill="none" stroke="rgb(204,204,204)" stroke-width="10" transform="matrix(1,0,0,-1,1695,1091)"/>
 <path d="M655,699 c-154,0,-188,4,-229,4 c-248,0,-376,-146,-376,-358 c0,-211,127,-353,347,-353 c54,0,87,9,236,9 c51,0,247,-1,362,-1 c5,44,15,104,29,179 c-11,1,-22,1,-32,0 c-22,-48,-50,-87,-68,-102 c-27,-23,-64,-34,-132,-34 l-141,0 c-1,8,-2,36,-2,81 l0,218 l67,0 c87,0,107,-7,121,-112 c11,-2,24,-2,35,0 c-2,86,-2,109,-2,132 c0,22,0,45,2,130 c-12,2,-25,2,-36,0 c-13,-98,-33,-107,-129,-107 l-58,0 l0,273 l135,0 c52,0,87,-9,112,-28 c22,-17,43,-48,60,-88 c12,-1,23,-1,34,0 c-9,58,-16,110,-22,159 c-94,-2,-270,-2,-313,-2 Z M540,69 c-33,-24,-82,-36,-130,-36 c-173,0,-235,159,-235,318 c0,161,63,312,236,312 c53,0,98,-14,129,-35 Z M540,69" fill="rgb(0,0,0)" transform="matrix(1,0,0,-1,641,1091)"/>
</svg>