<?xml version="1.0" encoding="UTF-8"?>
<svg height="1521" version="1.1" width="2238.75" xmlns="http://www.w3.org/2000/svg" xmlns:xlink="http://www.w3.org/1999/xlink">
 <path d="M0,0 l2238.75,0 l0,1521 l-2238.75,0 Z M0,0" fill="rgb(255,255,255)" transform="matrix(1,0,0,-1,0,1521)"/>
 <path d="M0,0 l2238.75,0" fill="none" stroke="rgb(229,229,229)" stroke-width="10" transform="matrix(1,0,0,-1,0,1091)"/>
 <path d="M0,5 l0,-25" fill="none" stroke="rgb(204,204,204)" stroke-width="10" transform="matrix(1,0,0,-1,641,1091)"/>
 <path d="M0,5 l0,-25" fill="none" stroke="rgb(204,204,204)" stroke-width="10" transform="matrix(1,0,0,-1,1198,1091)"/>
 <path d="M84,209 c-10,0,-22,0,-32,-1 c5,-78,8,-144,9,-201 c8,0,49,-3,95,-11 c55,-10,103,-10,105,-10 c133,0,246,77,246,213 c0,127,-97,170,-188,208 c-79,33,-159,64,-159,151 c0,74,59,114,133,114 c42,0,74,-13,97,-39 c23,-26,41,-65,57,-125 c9,-1,21,0,33,2 c-5,68,-8,130,-10,189 c-7,-2,-20,-2,-24,-2 c-7,0,-26,0,-65,6 c-31,5,-59,8,-86,8 c-128,0,-233,-74,-233,-200 c0,-119,95,-160,191,-201 c82,-35,159,-69,159,-156 c0,-78,-60,-129,-147,-129 c-98,0,-156,67,-181,184 Z M290,817 c-42,31,-90,61,-141,91 c-9,-2,-19,-6,-28,-13 c41,-42,96,-114,130,-156 c11,-3,26,-4,38,-4 c14,0,29,1,39,4 c34,42,88,114,129,156 c-8,7,-18,11,-28,13 c-50,-30,-97,-61,-139,-91 Z M290,817" fill="rgb(0,0,0)" transform="matrix(1,0,0,-1,641,1091)"/>
</svg>