<?xml version="1.0" encoding="UTF-8"?>
<svg height="1521" version="1.1" width="2238.75" xmlns="http://www.w3.org/2000/svg" xmlns:xlink="http://www.w3.org/1999/xlink">
 <path d="M0,0 l2238.75,0 l0,1521 l-2238.75,0 Z M0,0" fill="rgb(255,255,255)" transform="matrix(1,0,0,-1,0,1521)"/>
 <path d="M0,0 l2238.75,0" fill="none" stroke="rgb(229,229,229)" stroke-width="10" transform="matrix(1,0,0,-1,0,1091)"/>
 <path d="M0,5 l0,-25" fill="none" stroke="rgb(204,204,204)" stroke-width="10" transform="matrix(1,0,0,-1,641,1091)"/>
 <path d="M0,5 l0,-25" fill="none" stroke="rgb(204,204,204)" stroke-width="10" transform="matrix(1,0,0,-1,1261,1091)"/>
 <path d="M212,593 c-12,22,-20,37,-20,47 c0,19,21,24,79,29 c1,11,1,22,0,32 c-48,0,-104,-2,-146,-2 c-49,0,-101,2,-149,2 c-1,-10,-1,-22,0,-32 c77,-8,78,-13,127,-103 l152,-278 l0,-177 c0,-72,-4,-71,-100,-80 c-1,-11,-1,-22,0,-32 c42,0,116,2,154,2 c38,0,113,-2,155,-2 c2,10,2,22,0,32 c-98,8,-99,9,-99,93 l0,173 l147,263 c54,96,62,101,139,109 c1,10,1,22,0,32 c-42,0,-76,-2,-118,-2 c-32,0,-99,2,-131,2 c-1,-10,-1,-21,0,-32 c66,-8,91,-12,91,-32 c0,-10,-6,-23,-18,-45 l-132,-244 Z M466,844 c-20,32,-53,67,-74,67 c-37,-44,-89,-106,-134,-152 c6,-11,12,-19,21,-24 c54,33,143,84,187,106 Z M466,844" fill="rgb(0,0,0)" transform="matrix(1,0,0,-1,641,1091)"/>
</svg>