<?xml version="1.0" encoding="UTF-8"?>
<svg height="1521" version="1.1" width="2238.75" xmlns="http://www.w3.org/2000/svg" xmlns:xlink="http://www.w3.org/1999/xlink">
 <path d="M0,0 l2238.75,0 l0,1521 l-2238.75,0 Z M0,0" fill="rgb(255,255,255)" transform="matrix(1,0,0,-1,0,1521)"/>
 <path d="M0,0 l2238.75,0" fill="none" stroke="rgb(229,229,229)" stroke-width="10" transform="matrix(1,0,0,-1,0,1091)"/>
 <path d="M0,5 l0,-25" fill="none" stroke="rgb(204,204,204)" stroke-width="10" transform="matrix(1,0,0,-1,641,1091)"/>
 <path d="M0,5 l0,-25" fill="none" stroke="rgb(204,204,204)" stroke-width="10" transform="matrix(1,0,0,-1,1285,1091)"/>
 <path d="M612,679 c0,8,-2,15,-4,21 c-35,-1,-90,-3,-251,-3 c-105,0,-198,0,-285,5 c-6,-57,-13,-117,-24,-183 c12,-1,23,-1,34,0 c15,48,34,83,57,105 c23,22,58,33,110,33 l218,0 l-447,-638 c0,-6,1,-13,4,-20 c43,0,89,2,247,2 c199,0,299,-1,319,-1 c5,49,16,115,31,198 c-10,1,-21,1,-31,0 c-22,-52,-45,-91,-70,-117 c-24,-25,-67,-38,-132,-38 l-222,0 Z M340,817 c-42,31,-90,61,-141,91 c-9,-2,-19,-6,-28,-13 c41,-42,96,-114,130,-156 c11,-3,26,-4,38,-4 c14,0,29,1,39,4 c34,42,88,114,129,156 c-8,7,-18,11,-28,13 c-50,-30,-97,-61,-139,-91 Z M340,817" fill="rgb(0,0,0)" transform="matrix(1,0,0,-1,641,1091)"/>
</svg>