<?xml version="1.0" encoding="UTF-8"?>
<svg height="1521" version="1.1" width="2238.75" xmlns="http://www.w3.org/2000/svg" xmlns:xlink="http://www.w3.org/1999/xlink">
 <path d="M0,0 l2238.75,0 l0,1521 l-2238.75,0 Z M0,0" fill="rgb(255,255,255)" transform="matrix(1,0,0,-1,0,1521)"/>
 <path d="M0,0 l2238.75,0" fill="none" stroke="rgb(229,229,229)" stroke-width="10" transform="matrix(1,0,0,-1,0,1091)"/>
 <path d="M0,5 l0,-25" fill="none" stroke="rgb(204,204,204)" stroke-width="10" transform="matrix(1,0,0,-1,641,1091)"/>
 <path d="M0,5 l0,-25" fill="none" stroke="rgb(204,204,204)" stroke-width="10" transform="matrix(1,0,0,-1,1243,1091)"/>
 <path d="M240,589 c0,72,4,71,99,80 c2,11,2,22,0,32 c-39,0,-115,-2,-152,-2 c-38,0,-116,2,-157,2 c-1,-11,-1,-22,0,-32 c95,-8,100,-10,100,-93 l0,-465 c0,-72,-4,-71,-100,-80 c-1,-11,-1,-22,0,-32 c43,0,116,2,155,2 c38,0,113,-2,154,-2 c2,10,2,22,0,32 c-98,8,-99,9,-99,93 l0,54 c33,-6,61,-10,92,-10 c133,0,235,72,235,207 c0,121,-82,185,-253,185 c-21,0,-48,-1,-74,-5 Z M240,514 c19,3,39,4,53,4 c101,0,152,-55,152,-149 c0,-96,-54,-159,-145,-159 c-16,0,-39,2,-60,8 Z M240,514" fill="rgb(0,0,0)" transform="matrix(1,0,0,-1,641,1091)"/>
</svg>