<?xml version="1.0" encoding="UTF-8"?>
<svg height="1521" version="1.1" width="2238.75" xmlns="http://www.w3.org/2000/svg" xmlns:xlink="http://www.w3.org/1999/xlink">
 <path d="M0,0 l2238.75,0 l0,1521 l-2238.75,0 Z M0,0" fill="rgb(255,255,255)" transform="matrix(1,0,0,-1,0,1521)"/>
 <path d="M0,0 l2238.75,0" fill="none" stroke="rgb(229,229,229)" stroke-width="10" transform="matrix(1,0,0,-1,0,1091)"/>
 <path d="M0,5 l0,-25" fill="none" stroke="rgb(204,204,204)" stroke-width="10" transform="matrix(1,0,0,-1,641,1091)"/>
 <path d="M0,5 l0,-25" fill="none" stroke="rgb(204,204,204)" stroke-width="10" transform="matrix(1,0,0,-1,971,1091)"/>
 <path d="M205,473 l0,58 c0,130,28,180,91,180 c13,0,23,-2,32,-5 c0,-38,29,-81,75,-81 c34,0,53,21,53,52 c0,57,-70,78,-127,78 c-57,0,-114,-20,-154,-58 c-62,-60,-69,-146,-71,-188 c-2,-39,-10,-44,-84,-55 c-2,-8,-2,-17,0,-27 l83,0 l0,-323 c0,-66,-7,-70,-76,-74 c-1,-11,-1,-21,0,-31 c42,0,73,2,127,2 c54,0,100,-2,145,-2 c1,11,1,22,0,31 c-86,4,-94,6,-94,84 l0,313 l125,0 c2,16,2,31,0,46 Z M205,473" fill="rgb(0,0,0)" transform="matrix(1,0,0,-1,641,1091)"/>
</svg>