<?xml version="1.0" encoding="UTF-8"?>
<svg height="1521" version="1.1" width="2238.75" xmlns="http://www.w3.org/2000/svg" xmlns:xlink="http://www.w3.org/1999/xlink">
 <path d="M0,0 l2238.75,0 l0,1521 l-2238.75,0 Z M0,0" fill="rgb(255,255,255)" transform="matrix(1,0,0,-1,0,1521)"/>
 <path d="M0,0 l2238.75,0" fill="none" stroke="rgb(229,229,229)" stroke-width="10" transform="matrix(1,0,0,-1,0,1091)"/>
 <path d="M0,5 l0,-25" fill="none" stroke="rgb(204,204,204)" stroke-width="10" transform="matrix(1,0,0,-1,641,1091)"/>
 <path d="M0,5 l0,-25" fill="none" stroke="rgb(204,204,204)" stroke-width="10" transform="matrix(1,0,0,-1,956,1091)"/>
 <path d="M208,473 l0,58 c0,132,26,180,94,180 c1,0,7,0,12,-2 c6,-18,30,-65,82,-65 c33,0,46,20,46,41 c0,47,-59,70,-118,70 c-58,0,-111,-21,-149,-58 c-41,-41,-64,-99,-68,-188 c-2,-39,-10,-44,-84,-55 c-2,-8,-2,-17,0,-27 l83,0 l0,-323 c0,-66,-7,-70,-76,-74 c-1,-10,-1,-21,0,-31 c41,0,75,2,125,2 c58,0,82,-2,126,-2 c1,10,2,21,0,31 c-67,4,-73,6,-73,84 l0,313 l126,0 c2,16,2,31,0,46 Z M208,473" fill="rgb(0,0,0)" transform="matrix(1,0,0,-1,641,1091)"/>
</svg>