<?xml version="1.0" encoding="UTF-8"?>
<svg height="1521" version="1.1" width="2238.75" xmlns="http://www.w3.org/2000/svg" xmlns:xlink="http://www.w3.org/1999/xlink">
 <path d="M0,0 l2238.75,0 l0,1521 l-2238.75,0 Z M0,0" fill="rgb(255,255,255)" transform="matrix(1,0,0,-1,0,1521)"/>
 <path d="M0,0 l2238.75,0" fill="none" stroke="rgb(229,229,229)" stroke-width="10" transform="matrix(1,0,0,-1,0,1091)"/>
 <path d="M0,5 l0,-25" fill="none" stroke="rgb(204,204,204)" stroke-width="10" transform="matrix(1,0,0,-1,641,1091)"/>
 <path d="M0,5 l0,-25" fill="none" stroke="rgb(204,204,204)" stroke-width="10" transform="matrix(1,0,0,-1,945,1091)"/>
 <path d="M208,473 l0,58 c0,122,35,174,106,174 c15,0,27,-2,37,-6 c0,-43,34,-75,78,-75 c30,0,51,16,51,44 c0,50,-62,79,-136,79 c-59,0,-113,-17,-158,-54 c-48,-40,-74,-99,-79,-184 c-2,-39,-10,-44,-84,-55 c-2,-8,-2,-17,0,-27 l83,0 l0,-323 c0,-66,-7,-70,-76,-74 c-2,-10,-2,-21,0,-31 c41,0,75,2,125,2 c58,0,82,-2,126,-2 c2,10,2,21,0,31 c-66,4,-73,6,-73,84 l0,313 l237,0 l0,46 Z M208,473" fill="rgb(0,0,0)" transform="matrix(1,0,0,-1,641,1091)"/>
</svg>