<?xml version="1.0" encoding="UTF-8"?>
<svg height="1521" version="1.1" width="2238.75" xmlns="http://www.w3.org/2000/svg" xmlns:xlink="http://www.w3.org/1999/xlink">
 <path d="M0,0 l2238.75,0 l0,1521 l-2238.75,0 Z M0,0" fill="rgb(255,255,255)" transform="matrix(1,0,0,-1,0,1521)"/>
 <path d="M0,0 l2238.75,0" fill="none" stroke="rgb(229,229,229)" stroke-width="10" transform="matrix(1,0,0,-1,0,1091)"/>
 <path d="M0,5 l0,-25" fill="none" stroke="rgb(204,204,204)" stroke-width="10" transform="matrix(1,0,0,-1,641,1091)"/>
 <path d="M0,5 l0,-25" fill="none" stroke="rgb(204,204,204)" stroke-width="10" transform="matrix(1,0,0,-1,936,1091)"/>
 <path d="M-36,427 l90,0 c35,0,46,-7,46,-46 l0,-277 c0,-66,-8,-70,-76,-74 c-2,-10,-2,-21,0,-31 c40,0,81,2,124,2 c46,0,88,-2,126,-2 c2,10,2,21,0,31 c-67,4,-73,6,-73,84 l0,267 c0,32,1,68,2,110 l-17,6 c-45,-19,-76,-24,-113,-24 l-109,0 Z M-36,427" fill="rgb(0,0,0)" transform="matrix(1,0,0,-1,641,1091)"/>
</svg>