<?xml version="1.0" encoding="UTF-8"?>
<svg height="1521" version="1.1" width="2238.75" xmlns="http://www.w3.org/2000/svg" xmlns:xlink="http://www.w3.org/1999/xlink">
 <path d="M0,0 l2238.75,0 l0,1521 l-2238.75,0 Z M0,0" fill="rgb(255,255,255)" transform="matrix(1,0,0,-1,0,1521)"/>
 <path d="M0,0 l2238.75,0" fill="none" stroke="rgb(229,229,229)" stroke-width="10" transform="matrix(1,0,0,-1,0,1091)"/>
 <path d="M0,5 l0,-25" fill="none" stroke="rgb(204,204,204)" stroke-width="10" transform="matrix(1,0,0,-1,641,1091)"/>
 <path d="M0,5 l0,-25" fill="none" stroke="rgb(204,204,204)" stroke-width="10" transform="matrix(1,0,0,-1,1191,1091)"/>
 <path d="M260,-1 c1,10,1,21,0,31 c-57,4,-62,6,-62,84 l0,126 c18,0,27,-10,44,-32 c37,-49,100,-138,108,-150 c9,-12,31,-45,31,-59 c19,2,43,2,54,2 c72,0,100,-2,118,-2 c1,11,1,22,0,31 c-60,4,-71,20,-115,78 l-138,184 l72,72 c44,44,87,81,157,83 c2,10,2,20,0,31 c-23,0,-90,-1,-114,-1 c-32,0,-78,2,-105,2 c-2,-11,-2,-22,0,-32 c31,-1,50,-9,50,-20 c0,-15,-22,-35,-57,-73 c-56,-60,-68,-70,-72,-73 c-8,-7,-19,-12,-33,-12 l0,369 c0,44,0,81,2,111 l-17,6 c-59,-25,-115,-38,-168,-45 c-2,-10,-2,-18,0,-27 c70,-6,81,-16,81,-78 l0,-501 c0,-66,-8,-70,-76,-74 c-2,-10,-2,-21,0,-31 c40,0,81,2,124,2 c44,0,81,-2,116,-2 Z M260,-1" fill="rgb(0,0,0)" transform="matrix(1,0,0,-1,641,1091)"/>
</svg>