<?xml version="1.0" encoding="UTF-8"?>
<svg height="1521" version="1.1" width="2238.75" xmlns="http://www.w3.org/2000/svg" xmlns:xlink="http://www.w3.org/1999/xlink">
 <path d="M0,0 l2238.75,0 l0,1521 l-2238.75,0 Z M0,0" fill="rgb(255,255,255)" transform="matrix(1,0,0,-1,0,1521)"/>
 <path d="M0,0 l2238.75,0" fill="none" stroke="rgb(229,229,229)" stroke-width="10" transform="matrix(1,0,0,-1,0,1091)"/>
 <path d="M0,5 l0,-25" fill="none" stroke="rgb(204,204,204)" stroke-width="10" transform="matrix(1,0,0,-1,641,1091)"/>
 <path d="M0,5 l0,-25" fill="none" stroke="rgb(204,204,204)" stroke-width="10" transform="matrix(1,0,0,-1,1229,1091)"/>
 <path d="M290,-246 c1,11,1,21,0,32 c-86,4,-95,6,-95,84 l0,135 c31,-10,66,-17,104,-17 c148,0,249,123,249,270 c0,123,-70,234,-196,234 c-57,0,-105,-23,-158,-78 c0,22,0,44,1,76 l-14,7 c-56,-22,-106,-36,-161,-46 c-1,-8,-1,-17,0,-26 c74,-10,75,-19,75,-97 l0,-470 c0,-64,-7,-69,-76,-73 c-1,-10,-1,-20,0,-31 c42,0,75,2,127,2 c54,0,99,-2,144,-2 Z M194,371 c35,39,71,59,114,59 c101,0,136,-110,136,-209 c0,-100,-37,-196,-136,-196 c-47,0,-84,19,-114,62 Z M194,371" fill="rgb(0,0,0)" transform="matrix(1,0,0,-1,641,1091)"/>
</svg>