<?xml version="1.0" encoding="UTF-8"?>
<svg height="1521" version="1.1" width="2238.75" xmlns="http://www.w3.org/2000/svg" xmlns:xlink="http://www.w3.org/1999/xlink">
 <path d="M0,0 l2238.75,0 l0,1521 l-2238.75,0 Z M0,0" fill="rgb(255,255,255)" transform="matrix(1,0,0,-1,0,1521)"/>
 <path d="M0,0 l2238.75,0" fill="none" stroke="rgb(229,229,229)" stroke-width="10" transform="matrix(1,0,0,-1,0,1091)"/>
 <path d="M0,5 l0,-25" fill="none" stroke="rgb(204,204,204)" stroke-width="10" transform="matrix(1,0,0,-1,641,1091)"/>
 <path d="M0,5 l0,-25" fill="none" stroke="rgb(204,204,204)" stroke-width="10" transform="matrix(1,0,0,-1,1143,1091)"/>
 <path d="M277,5 l161,375 c17,41,30,61,86,65 c1,10,1,21,0,32 c-49,-2,-59,-2,-79,-2 c-44,0,-72,2,-106,2 c-1,-11,-1,-21,0,-32 c45,-4,60,-10,60,-29 c0,-10,-5,-25,-12,-44 c-37,-93,-80,-190,-108,-254 c-24,55,-91,231,-102,259 c-4,11,-10,29,-10,40 c0,21,13,25,59,28 c2,11,2,21,0,32 c-31,0,-81,-2,-120,-2 c-42,0,-85,2,-123,2 c-1,-12,-1,-23,0,-32 c55,-7,66,-17,83,-60 l156,-391 Z M277,5" fill="rgb(0,0,0)" transform="matrix(1,0,0,-1,641,1091)"/>
</svg>