<?xml version="1.0" encoding="UTF-8"?>
<svg height="1521" version="1.1" width="2238.75" xmlns="http://www.w3.org/2000/svg" xmlns:xlink="http://www.w3.org/1999/xlink">
 <path d="M0,0 l2238.75,0 l0,1521 l-2238.75,0 Z M0,0" fill="rgb(255,255,255)" transform="matrix(1,0,0,-1,0,1521)"/>
 <path d="M0,0 l2238.75,0" fill="none" stroke="rgb(229,229,229)" stroke-width="10" transform="matrix(1,0,0,-1,0,1091)"/>
 <path d="M0,5 l0,-25" fill="none" stroke="rgb(204,204,204)" stroke-width="10" transform="matrix(1,0,0,-1,641,1091)"/>
 <path d="M0,5 l0,-25" fill="none" stroke="rgb(204,204,204)" stroke-width="10" transform="matrix(1,0,0,-1,1405,1091)"/>
 <path d="M490,-6 l48,10 l162,376 c18,41,31,61,86,65 c1,10,1,21,0,32 c-31,-1,-47,-2,-81,-2 c-39,0,-71,2,-103,2 c-1,-11,-1,-21,0,-32 c46,-4,60,-11,60,-29 c0,-10,-5,-25,-12,-43 c-32,-86,-68,-168,-107,-256 c-34,89,-60,173,-90,259 c-7,19,-10,33,-10,42 c0,20,15,24,59,27 c2,11,2,21,0,32 c-29,0,-76,-2,-110,-2 c-41,0,-80,2,-118,2 c-1,-12,-1,-23,0,-32 c51,-7,58,-17,74,-60 l20,-55 l-92,-213 c-36,89,-66,174,-97,259 c-7,19,-10,33,-10,42 c0,20,15,24,58,27 c1,11,1,21,0,32 c-30,0,-79,-2,-116,-2 c-44,0,-85,2,-124,2 c-1,-12,-1,-23,0,-32 c54,-7,66,-17,82,-60 l148,-391 l55,11 c42,106,82,195,115,272 Z M490,-6" fill="rgb(0,0,0)" transform="matrix(1,0,0,-1,641,1091)"/>
</svg>