<?xml version="1.0" encoding="UTF-8"?>
<svg height="1521" version="1.1" width="2238.75" xmlns="http://www.w3.org/2000/svg" xmlns:xlink="http://www.w3.org/1999/xlink">
 <path d="M0,0 l2238.75,0 l0,1521 l-2238.75,0 Z M0,0" fill="rgb(255,255,255)" transform="matrix(1,0,0,-1,0,1521)"/>
 <path d="M0,0 l2238.75,0" fill="none" stroke="rgb(229,229,229)" stroke-width="10" transform="matrix(1,0,0,-1,0,1091)"/>
 <path d="M0,5 l0,-25" fill="none" stroke="rgb(204,204,204)" stroke-width="10" transform="matrix(1,0,0,-1,641,1091)"/>
 <path d="M0,5 l0,-25" fill="none" stroke="rgb(204,204,204)" stroke-width="10" transform="matrix(1,0,0,-1,1161,1091)"/>
 <path d="M426,88 c-41,59,-80,115,-118,173 c41,55,76,96,97,121 c35,41,47,56,105,63 c2,12,2,23,0,32 c-32,0,-57,-2,-92,-2 c-31,0,-67,2,-99,2 c-2,-11,-2,-21,0,-32 c41,-4,56,-7,56,-19 c0,-5,-3,-11,-8,-18 c-24,-37,-54,-76,-83,-111 c-22,34,-45,69,-67,105 c-7,11,-12,20,-12,26 c0,10,13,14,54,17 c2,11,2,21,0,32 c-31,0,-90,-2,-128,-2 c-48,0,-83,2,-122,2 c-2,-12,-2,-23,0,-32 c58,-7,70,-20,95,-57 l108,-159 l-107,-135 c-35,-44,-48,-57,-109,-64 c-2,-9,-2,-20,0,-31 c31,0,60,2,95,2 c32,0,70,-2,103,-2 c2,9,2,21,0,31 c-45,3,-61,8,-61,19 c0,7,5,13,9,19 c27,37,60,80,94,124 c24,-36,48,-72,72,-110 c10,-16,18,-31,18,-36 c0,-10,-11,-13,-54,-16 c-2,-11,-2,-21,0,-31 c31,0,83,2,125,2 c43,0,83,-2,124,-2 c2,11,2,22,0,31 c-58,7,-68,20,-95,58 Z M426,88" fill="rgb(0,0,0)" transform="matrix(1,0,0,-1,641,1091)"/>
</svg>