<?xml version="1.0" encoding="UTF-8"?>
<svg height="1521" version="1.1" width="2238.75" xmlns="http://www.w3.org/2000/svg" xmlns:xlink="http://www.w3.org/1999/xlink">
 <path d="M0,0 l2238.75,0 l0,1521 l-2238.75,0 Z M0,0" fill="rgb(255,255,255)" transform="matrix(1,0,0,-1,0,1521)"/>
 <path d="M0,0 l2238.75,0" fill="none" stroke="rgb(229,229,229)" stroke-width="10" transform="matrix(1,0,0,-1,0,1091)"/>
 <path d="M0,5 l0,-25" fill="none" stroke="rgb(204,204,204)" stroke-width="10" transform="matrix(1,0,0,-1,641,1091)"/>
 <path d="M0,5 l0,-25" fill="none" stroke="rgb(204,204,204)" stroke-width="10" transform="matrix(1,0,0,-1,1134,1091)"/>
 <path d="M483,63 c-25,-8,-42,-12,-55,-12 c-20,0,-28,11,-28,32 c0,65,5,227,5,290 c0,77,-65,119,-139,119 c-81,0,-221,-51,-221,-116 c0,-24,18,-43,47,-43 c49,0,80,57,80,104 c11,5,26,8,44,8 c48,0,87,-27,87,-74 c0,-49,-1,-101,-1,-102 c-181,-23,-269,-76,-269,-166 c0,-72,54,-115,122,-115 c50,0,97,22,145,68 c11,-45,39,-66,83,-66 c37,0,75,15,108,51 c-1,7,-3,15,-8,22 Z M300,83 c-41,-19,-71,-30,-94,-30 c-38,0,-65,25,-65,72 c0,56,39,92,161,108 Z M238,671 c40,-39,84,-81,132,-123 c10,2,20,6,29,13 c-38,55,-85,131,-116,187 c-13,3,-28,4,-44,4 c-16,0,-31,-1,-44,-4 c-31,-56,-78,-132,-117,-187 c9,-7,20,-11,29,-13 c47,42,91,84,131,123 Z M238,671" fill="rgb(0,0,0)" transform="matrix(1,0,0,-1,641,1091)"/>
</svg>