<?xml version="1.0" encoding="UTF-8"?>
<svg height="1521" version="1.1" width="2238.75" xmlns="http://www.w3.org/2000/svg" xmlns:xlink="http://www.w3.org/1999/xlink">
 <path d="M0,0 l2238.75,0 l0,1521 l-2238.75,0 Z M0,0" fill="rgb(255,255,255)" transform="matrix(1,0,0,-1,0,1521)"/>
 <path d="M0,0 l2238.75,0" fill="none" stroke="rgb(229,229,229)" stroke-width="10" transform="matrix(1,0,0,-1,0,1091)"/>
 <path d="M0,5 l0,-25" fill="none" stroke="rgb(204,204,204)" stroke-width="10" transform="matrix(1,0,0,-1,641,1091)"/>
 <path d="M0,5 l0,-25" fill="none" stroke="rgb(204,204,204)" stroke-width="10" transform="matrix(1,0,0,-1,1384,1091)"/>
 <path d="M698,274 c1,6,2,17,2,30 c0,111,-68,188,-181,188 c-58,0,-106,-20,-142,-54 c-23,35,-65,54,-113,54 c-79,0,-217,-51,-217,-116 c0,-24,18,-43,47,-43 c49,0,80,57,80,104 c10,5,25,8,42,8 c46,0,83,-27,83,-74 c0,-49,-1,-101,-1,-102 c-178,-23,-263,-76,-263,-167 c0,-71,53,-114,125,-114 c59,0,121,29,181,87 c36,-53,93,-87,170,-87 c73,0,137,31,192,93 c-4,9,-9,16,-15,23 c-44,-30,-86,-44,-130,-44 c-103,0,-167,73,-167,217 Z M210,53 c-41,0,-67,25,-67,72 c0,56,38,92,155,108 c0,-51,11,-97,31,-136 c-50,-33,-91,-44,-119,-44 Z M394,314 c11,91,54,140,110,140 c60,0,90,-54,90,-126 c0,-1,0,-7,-1,-10 Z M394,314" fill="rgb(0,0,0)" transform="matrix(1,0,0,-1,641,1091)"/>
</svg>