<?xml version="1.0" encoding="UTF-8"?>
<svg height="1521" version="1.1" width="2238.75" xmlns="http://www.w3.org/2000/svg" xmlns:xlink="http://www.w3.org/1999/xlink">
 <path d="M0,0 l2238.75,0 l0,1521 l-2238.75,0 Z M0,0" fill="rgb(255,255,255)" transform="matrix(1,0,0,-1,0,1521)"/>
 <path d="M0,0 l2238.75,0" fill="none" stroke="rgb(229,229,229)" stroke-width="10" transform="matrix(1,0,0,-1,0,1091)"/>
 <path d="M0,5 l0,-25" fill="none" stroke="rgb(204,204,204)" stroke-width="10" transform="matrix(1,0,0,-1,641,1091)"/>
 <path d="M0,5 l0,-25" fill="none" stroke="rgb(204,204,204)" stroke-width="10" transform="matrix(1,0,0,-1,1230,1091)"/>
 <path d="M495,638 c0,44,0,81,2,111 l-17,6 c-59,-25,-115,-38,-168,-45 c-2,-10,-2,-18,0,-27 c70,-6,82,-16,82,-78 l0,-128 c-36,11,-69,15,-100,15 c-155,0,-255,-121,-255,-266 c0,-126,80,-238,205,-238 c59,0,105,25,152,75 l4,-69 l16,-7 c47,14,97,23,151,31 c2,9,2,18,0,27 c-72,11,-72,21,-72,97 Z M395,109 c-26,-38,-61,-58,-107,-58 c-107,0,-145,106,-145,210 c0,119,47,190,139,190 c46,0,84,-19,113,-59 Z M214,-152 c0,-37,30,-68,68,-68 c41,0,71,34,71,69 c0,37,-32,68,-69,68 c-39,0,-70,-31,-70,-69 Z M214,-152" fill="rgb(0,0,0)" transform="matrix(1,0,0,-1,641,1091)"/>
</svg>