<?xml version="1.0" encoding="UTF-8"?>
<svg height="1521" version="1.1" width="2238.75" xmlns="http://www.w3.org/2000/svg" xmlns:xlink="http://www.w3.org/1999/xlink">
 <path d="M0,0 l2238.75,0 l0,1521 l-2238.75,0 Z M0,0" fill="rgb(255,255,255)" transform="matrix(1,0,0,-1,0,1521)"/>
 <path d="M0,0 l2238.75,0" fill="none" stroke="rgb(229,229,229)" stroke-width="10" transform="matrix(1,0,0,-1,0,1091)"/>
 <path d="M0,5 l0,-25" fill="none" stroke="rgb(204,204,204)" stroke-width="10" transform="matrix(1,0,0,-1,641,1091)"/>
 <path d="M0,5 l0,-25" fill="none" stroke="rgb(204,204,204)" stroke-width="10" transform="matrix(1,0,0,-1,1138,1091)"/>
 <path d="M140,314 c11,91,55,140,115,140 c61,0,93,-54,93,-126 c0,-1,0,-7,-1,-10 Z M452,274 c1,6,2,17,2,30 c0,111,-70,188,-187,188 c-147,0,-228,-123,-228,-260 c0,-135,78,-244,220,-244 c75,0,141,31,198,93 c-4,9,-9,16,-15,23 c-45,-30,-88,-44,-134,-44 c-105,0,-171,73,-171,217 Z M407,726 c-16,-40,-35,-60,-59,-60 c-23,0,-48,17,-72,31 c-27,16,-47,22,-64,22 c-53,0,-95,-47,-124,-124 c11,-5,22,-9,32,-11 c16,39,36,58,60,58 c25,0,48,-16,72,-30 c27,-16,47,-22,65,-22 c53,0,95,45,122,125 c-10,4,-20,8,-32,11 Z M407,726" fill="rgb(0,0,0)" transform="matrix(1,0,0,-1,641,1091)"/>
</svg>