<?xml version="1.0" encoding="UTF-8"?>
<svg height="1521" version="1.1" width="2238.75" xmlns="http://www.w3.org/2000/svg" xmlns:xlink="http://www.w3.org/1999/xlink">
 <path d="M0,0 l2238.75,0 l0,1521 l-2238.75,0 Z M0,0" fill="rgb(255,255,255)" transform="matrix(1,0,0,-1,0,1521)"/>
 <path d="M0,0 l2238.75,0" fill="none" stroke="rgb(229,229,229)" stroke-width="10" transform="matrix(1,0,0,-1,0,1091)"/>
 <path d="M0,5 l0,-25" fill="none" stroke="rgb(204,204,204)" stroke-width="10" transform="matrix(1,0,0,-1,641,1091)"/>
 <path d="M0,5 l0,-25" fill="none" stroke="rgb(204,204,204)" stroke-width="10" transform="matrix(1,0,0,-1,1189,1091)"/>
 <path d="M391,449 c-38,30,-83,43,-130,43 c-107,0,-203,-68,-203,-177 c0,-60,29,-104,73,-132 c-54,-38,-79,-71,-79,-109 c0,-44,32,-74,79,-85 c-59,-38,-104,-70,-104,-127 c0,-73,79,-117,196,-117 c148,0,289,68,289,200 c0,82,-55,133,-188,133 c-20,0,-71,-1,-102,-1 c-68,0,-89,5,-89,38 c0,20,7,35,25,53 c28,-12,60,-18,93,-18 c106,0,196,63,196,173 c0,40,-12,75,-34,102 c14,9,23,14,42,18 c5,-28,25,-44,50,-44 c26,0,48,19,48,48 c0,29,-21,45,-56,45 c-33,0,-71,-15,-106,-43 Z M174,-16 c57,0,91,1,115,1 c106,0,139,-22,139,-78 c0,-93,-92,-117,-160,-117 c-76,0,-148,29,-148,99 c0,34,17,64,54,95 Z M160,325 c0,84,33,132,90,132 c61,0,94,-53,94,-138 c0,-84,-33,-134,-91,-134 c-59,0,-93,55,-93,140 Z M95,664 c0,-35,25,-63,62,-63 c37,0,62,28,62,63 c0,35,-25,62,-62,62 c-37,0,-62,-27,-62,-62 Z M298,664 c0,-35,25,-63,62,-63 c37,0,62,28,62,63 c0,35,-25,62,-62,62 c-37,0,-62,-27,-62,-62 Z M298,664" fill="rgb(0,0,0)" transform="matrix(1,0,0,-1,641,1091)"/>
</svg>