<?xml version="1.0" encoding="UTF-8"?>
<svg height="1521" version="1.1" width="2238.75" xmlns="http://www.w3.org/2000/svg" xmlns:xlink="http://www.w3.org/1999/xlink">
 <path d="M0,0 l2238.75,0 l0,1521 l-2238.75,0 Z M0,0" fill="rgb(255,255,255)" transform="matrix(1,0,0,-1,0,1521)"/>
 <path d="M0,0 l2238.75,0" fill="none" stroke="rgb(229,229,229)" stroke-width="10" transform="matrix(1,0,0,-1,0,1091)"/>
 <path d="M0,5 l0,-25" fill="none" stroke="rgb(204,204,204)" stroke-width="10" transform="matrix(1,0,0,-1,641,1091)"/>
 <path d="M0,5 l0,-25" fill="none" stroke="rgb(204,204,204)" stroke-width="10" transform="matrix(1,0,0,-1,1237,1091)"/>
 <path d="M267,-1 c3,10,3,21,0,31 c-62,4,-69,6,-69,84 l0,260 c33,34,72,51,114,51 c73,0,92,-39,92,-119 l0,-202 c0,-66,-9,-70,-71,-74 c-1,-10,-1,-21,0,-31 c37,0,71,2,120,2 c51,0,85,-2,125,-2 c1,10,1,21,0,31 c-66,4,-72,6,-72,84 l0,227 c0,97,-48,151,-136,151 c-59,0,-117,-24,-172,-75 l0,222 c0,44,0,80,2,110 l-17,6 c-62,-26,-115,-38,-168,-45 c-2,-10,-2,-18,0,-27 c44,-4,60,-9,71,-23 c10,-13,10,-36,10,-74 l0,-482 c0,-66,-8,-70,-76,-74 c-2,-10,-2,-21,0,-31 c40,0,75,2,125,2 c49,0,88,-2,122,-2 Z M135,-152 c0,-35,25,-63,62,-63 c37,0,62,28,62,63 c0,35,-25,62,-62,62 c-37,0,-62,-27,-62,-62 Z M338,-152 c0,-35,25,-63,62,-63 c37,0,62,28,62,63 c0,35,-25,62,-62,62 c-37,0,-62,-27,-62,-62 Z M338,-152" fill="rgb(0,0,0)" transform="matrix(1,0,0,-1,641,1091)"/>
</svg>