<?xml version="1.0" encoding="UTF-8"?>
<svg height="1521" version="1.1" width="2238.75" xmlns="http://www.w3.org/2000/svg" xmlns:xlink="http://www.w3.org/1999/xlink">
 <path d="M0,0 l2238.75,0 l0,1521 l-2238.75,0 Z M0,0" fill="rgb(255,255,255)" transform="matrix(1,0,0,-1,0,1521)"/>
 <path d="M0,0 l2238.75,0" fill="none" stroke="rgb(229,229,229)" stroke-width="10" transform="matrix(1,0,0,-1,0,1091)"/>
 <path d="M0,5 l0,-25" fill="none" stroke="rgb(204,204,204)" stroke-width="10" transform="matrix(1,0,0,-1,641,1091)"/>
 <path d="M0,5 l0,-25" fill="none" stroke="rgb(204,204,204)" stroke-width="10" transform="matrix(1,0,0,-1,939,1091)"/>
 <path d="M277,-1 c2,10,2,21,0,31 c-67,4,-73,6,-73,84 l0,268 c0,32,1,67,2,109 l-17,6 c-49,-18,-103,-35,-159,-46 c-2,-8,-2,-17,0,-26 c73,-10,73,-19,73,-97 l0,-224 c0,-66,-8,-70,-76,-74 c-2,-10,-2,-21,0,-31 c40,0,86,2,129,2 c46,0,83,-2,121,-2 Z M143,671 c40,-39,84,-81,132,-123 c10,2,20,6,29,13 c-38,55,-85,131,-116,187 c-13,3,-28,4,-44,4 c-16,0,-31,-1,-44,-4 c-31,-56,-78,-132,-117,-187 c9,-7,20,-11,29,-13 c47,42,91,84,131,123 Z M143,671" fill="rgb(0,0,0)" transform="matrix(1,0,0,-1,641,1091)"/>
</svg>