<?xml version="1.0" encoding="UTF-8"?>
<svg height="1521" version="1.1" width="2238.75" xmlns="http://www.w3.org/2000/svg" xmlns:xlink="http://www.w3.org/1999/xlink">
 <path d="M0,0 l2238.75,0 l0,1521 l-2238.75,0 Z M0,0" fill="rgb(255,255,255)" transform="matrix(1,0,0,-1,0,1521)"/>
 <path d="M0,0 l2238.75,0" fill="none" stroke="rgb(229,229,229)" stroke-width="10" transform="matrix(1,0,0,-1,0,1091)"/>
 <path d="M0,5 l0,-25" fill="none" stroke="rgb(204,204,204)" stroke-width="10" transform="matrix(1,0,0,-1,641,1091)"/>
 <path d="M0,5 l0,-25" fill="none" stroke="rgb(204,204,204)" stroke-width="10" transform="matrix(1,0,0,-1,1537,1091)"/>
 <path d="M875,-1 c2,10,2,21,0,31 c-63,4,-69,6,-69,84 l0,227 c0,97,-45,151,-133,151 c-61,0,-121,-25,-178,-79 c-19,54,-61,79,-123,79 c-58,0,-114,-24,-169,-75 l0,74 l-17,6 c-51,-21,-102,-35,-158,-46 c-2,-8,-2,-17,0,-26 c74,-10,75,-19,75,-97 l0,-224 c0,-66,-8,-70,-76,-74 c-2,-10,-2,-21,0,-31 c40,0,76,2,124,2 c51,0,87,-2,125,-2 c1,10,1,21,0,31 c-65,4,-72,6,-72,84 l0,260 c32,34,70,51,110,51 c73,0,89,-40,89,-119 l0,-202 c0,-66,-11,-70,-68,-74 c-2,-10,-2,-21,0,-31 c33,0,68,2,117,2 c50,0,85,-2,122,-2 c1,10,1,21,0,31 c-63,4,-70,6,-70,84 l0,227 c0,11,0,23,-2,34 c31,33,69,50,114,50 c72,0,89,-41,89,-119 l0,-202 c0,-66,-11,-70,-71,-74 c-2,-10,-2,-21,0,-31 c33,0,69,2,120,2 c49,0,84,-2,121,-2 Z M338,742 c-11,-1,-21,-3,-30,-7 c12,-125,61,-193,146,-193 c85,0,138,68,149,193 c-9,4,-19,6,-30,7 c-11,-80,-53,-119,-118,-119 c-62,0,-103,34,-117,119 Z M338,742" fill="rgb(0,0,0)" transform="matrix(1,0,0,-1,641,1091)"/>
</svg>