<?xml version="1.0" encoding="UTF-8"?>
<svg height="1521" version="1.1" width="2238.75" xmlns="http://www.w3.org/2000/svg" xmlns:xlink="http://www.w3.org/1999/xlink">
 <path d="M0,0 l2238.75,0 l0,1521 l-2238.75,0 Z M0,0" fill="rgb(255,255,255)" transform="matrix(1,0,0,-1,0,1521)"/>
 <path d="M0,0 l2238.75,0" fill="none" stroke="rgb(229,229,229)" stroke-width="10" transform="matrix(1,0,0,-1,0,1091)"/>
 <path d="M0,5 l0,-25" fill="none" stroke="rgb(204,204,204)" stroke-width="10" transform="matrix(1,0,0,-1,641,1091)"/>
 <path d="M0,5 l0,-25" fill="none" stroke="rgb(204,204,204)" stroke-width="10" transform="matrix(1,0,0,-1,1244,1091)"/>
 <path d="M584,-1 c2,10,2,21,0,31 c-66,4,-71,6,-71,84 l0,227 c0,98,-48,151,-135,151 c-61,0,-120,-24,-175,-75 l0,74 l-17,6 c-47,-19,-102,-35,-158,-46 c-2,-8,-2,-17,0,-26 c74,-10,75,-19,75,-97 l0,-224 c0,-66,-8,-70,-76,-74 c-2,-10,-2,-21,0,-31 c40,0,81,2,124,2 c46,0,86,-2,124,-2 c1,10,1,21,0,31 c-64,4,-71,6,-71,84 l0,260 c33,34,72,51,114,51 c73,0,93,-39,93,-119 l0,-202 c0,-66,-10,-70,-71,-74 c-2,-10,-2,-21,0,-31 c36,0,70,2,120,2 c50,0,84,-2,124,-2 Z M234,-152 c0,-37,30,-68,68,-68 c41,0,71,34,71,69 c0,37,-32,68,-69,68 c-39,0,-70,-31,-70,-69 Z M234,-152" fill="rgb(0,0,0)" transform="matrix(1,0,0,-1,641,1091)"/>
</svg>