<?xml version="1.0" encoding="UTF-8"?>
<svg height="1521" version="1.1" width="2238.75" xmlns="http://www.w3.org/2000/svg" xmlns:xlink="http://www.w3.org/1999/xlink">
 <path d="M0,0 l2238.75,0 l0,1521 l-2238.75,0 Z M0,0" fill="rgb(255,255,255)" transform="matrix(1,0,0,-1,0,1521)"/>
 <path d="M0,0 l2238.75,0" fill="none" stroke="rgb(229,229,229)" stroke-width="10" transform="matrix(1,0,0,-1,0,1091)"/>
 <path d="M0,5 l0,-25" fill="none" stroke="rgb(204,204,204)" stroke-width="10" transform="matrix(1,0,0,-1,641,1091)"/>
 <path d="M0,5 l0,-25" fill="none" stroke="rgb(204,204,204)" stroke-width="10" transform="matrix(1,0,0,-1,1212,1091)"/>
 <path d="M281,-12 c150,0,250,110,250,257 c0,142,-96,247,-241,247 c-149,0,-251,-103,-251,-258 c0,-145,95,-246,242,-246 Z M152,246 c0,130,47,208,133,208 c87,0,133,-86,133,-221 c0,-127,-47,-208,-132,-208 c-89,0,-134,85,-134,221 Z M121,664 c0,-35,25,-63,62,-63 c37,0,62,28,62,63 c0,35,-25,62,-62,62 c-37,0,-62,-27,-62,-62 Z M324,664 c0,-35,25,-63,62,-63 c37,0,62,28,62,63 c0,35,-25,62,-62,62 c-37,0,-62,-27,-62,-62 Z M324,664" fill="rgb(0,0,0)" transform="matrix(1,0,0,-1,641,1091)"/>
</svg>