<?xml version="1.0" encoding="UTF-8"?>
<svg height="1521" version="1.1" width="2238.75" xmlns="http://www.w3.org/2000/svg" xmlns:xlink="http://www.w3.org/1999/xlink">
 <path d="M0,0 l2238.75,0 l0,1521 l-2238.75,0 Z M0,0" fill="rgb(255,255,255)" transform="matrix(1,0,0,-1,0,1521)"/>
 <path d="M0,0 l2238.75,0" fill="none" stroke="rgb(229,229,229)" stroke-width="10" transform="matrix(1,0,0,-1,0,1091)"/>
 <path d="M0,5 l0,-25" fill="none" stroke="rgb(204,204,204)" stroke-width="10" transform="matrix(1,0,0,-1,641,1091)"/>
 <path d="M0,5 l0,-25" fill="none" stroke="rgb(204,204,204)" stroke-width="10" transform="matrix(1,0,0,-1,1212,1091)"/>
 <path d="M281,-12 c150,0,250,110,250,257 c0,64,-20,121,-55,164 l59,61 c-8,11,-17,20,-29,28 l-58,-61 c-41,35,-95,55,-158,55 c-149,0,-251,-103,-251,-258 c0,-65,19,-122,53,-164 l-58,-60 c8,-10,19,-18,29,-27 l57,59 c41,-35,96,-54,161,-54 Z M419,233 c0,-127,-48,-208,-133,-208 c-50,0,-87,27,-109,75 l230,238 c8,-30,12,-66,12,-105 Z M151,246 c0,130,48,208,134,208 c48,0,84,-27,107,-74 l-230,-238 c-7,30,-11,65,-11,104 Z M151,246" fill="rgb(0,0,0)" transform="matrix(1,0,0,-1,641,1091)"/>
</svg>