<?xml version="1.0" encoding="UTF-8"?>
<svg height="1521" version="1.1" width="2238.75" xmlns="http://www.w3.org/2000/svg" xmlns:xlink="http://www.w3.org/1999/xlink">
 <path d="M0,0 l2238.75,0 l0,1521 l-2238.75,0 Z M0,0" fill="rgb(255,255,255)" transform="matrix(1,0,0,-1,0,1521)"/>
 <path d="M0,0 l2238.75,0" fill="none" stroke="rgb(229,229,229)" stroke-width="10" transform="matrix(1,0,0,-1,0,1091)"/>
 <path d="M0,5 l0,-25" fill="none" stroke="rgb(204,204,204)" stroke-width="10" transform="matrix(1,0,0,-1,641,1091)"/>
 <path d="M0,5 l0,-25" fill="none" stroke="rgb(204,204,204)" stroke-width="10" transform="matrix(1,0,0,-1,1490,1091)"/>
 <path d="M804,274 c1,6,2,17,2,30 c0,111,-68,188,-181,188 c-74,0,-130,-33,-168,-84 c-40,52,-101,84,-175,84 c-144,0,-243,-103,-243,-258 c0,-145,92,-246,234,-246 c75,0,137,30,178,81 c36,-50,92,-81,166,-81 c73,0,137,31,192,93 c-4,9,-9,16,-15,23 c-44,-30,-86,-44,-130,-44 c-103,0,-167,73,-167,217 Z M152,246 c0,130,44,208,125,208 c82,0,125,-86,125,-221 c0,-127,-44,-208,-124,-208 c-84,0,-126,85,-126,221 Z M500,314 c11,91,53,140,111,140 c58,0,89,-54,89,-126 c0,-1,0,-7,-1,-10 Z M500,314" fill="rgb(0,0,0)" transform="matrix(1,0,0,-1,641,1091)"/>
</svg>