<?xml version="1.0" encoding="UTF-8"?>
<svg height="1521" version="1.1" width="2238.75" xmlns="http://www.w3.org/2000/svg" xmlns:xlink="http://www.w3.org/1999/xlink">
 <path d="M0,0 l2238.75,0 l0,1521 l-2238.75,0 Z M0,0" fill="rgb(255,255,255)" transform="matrix(1,0,0,-1,0,1521)"/>
 <path d="M0,0 l2238.75,0" fill="none" stroke="rgb(229,229,229)" stroke-width="10" transform="matrix(1,0,0,-1,0,1091)"/>
 <path d="M0,5 l0,-25" fill="none" stroke="rgb(204,204,204)" stroke-width="10" transform="matrix(1,0,0,-1,641,1091)"/>
 <path d="M0,5 l0,-25" fill="none" stroke="rgb(204,204,204)" stroke-width="10" transform="matrix(1,0,0,-1,1051,1091)"/>
 <path d="M186,497 c-56,-23,-105,-36,-158,-46 c-2,-8,-2,-17,0,-26 c74,-10,75,-19,75,-97 l0,-224 c0,-66,-8,-70,-76,-74 c-2,-10,-2,-21,0,-31 c41,0,75,2,125,2 c50,0,98,-2,144,-2 c1,11,1,22,0,31 c-88,4,-92,6,-92,84 l0,215 c0,47,41,88,87,88 c12,-28,39,-41,65,-41 c31,0,59,20,59,56 c0,31,-23,60,-69,60 c-48,0,-97,-30,-143,-89 l0,88 Z M39,-158 c0,-66,54,-100,120,-100 c64,0,120,40,120,102 c0,68,-54,100,-120,100 c-66,0,-120,-36,-120,-102 Z M159,-85 c35,0,57,-30,57,-73 c0,-42,-21,-69,-57,-69 c-36,0,-57,29,-57,71 c0,44,21,71,57,71 Z M78,661 c-2,-16,-2,-34,0,-50 l282,0 c2,16,2,34,0,50 Z M78,661" fill="rgb(0,0,0)" transform="matrix(1,0,0,-1,641,1091)"/>
</svg>