<?xml version="1.0" encoding="UTF-8"?>
<svg height="1521" version="1.1" width="2238.75" xmlns="http://www.w3.org/2000/svg" xmlns:xlink="http://www.w3.org/1999/xlink">
 <path d="M0,0 l2238.75,0 l0,1521 l-2238.75,0 Z M0,0" fill="rgb(255,255,255)" transform="matrix(1,0,0,-1,0,1521)"/>
 <path d="M0,0 l2238.75,0" fill="none" stroke="rgb(229,229,229)" stroke-width="10" transform="matrix(1,0,0,-1,0,1091)"/>
 <path d="M0,5 l0,-25" fill="none" stroke="rgb(204,204,204)" stroke-width="10" transform="matrix(1,0,0,-1,641,1091)"/>
 <path d="M0,5 l0,-25" fill="none" stroke="rgb(204,204,204)" stroke-width="10" transform="matrix(1,0,0,-1,1071,1091)"/>
 <path d="M74,158 c-9,1,-19,0,-33,-1 c4,-61,8,-112,8,-153 c26,0,74,-8,79,-8 c2,0,44,-8,79,-8 c90,0,180,45,180,151 c0,175,-254,136,-254,247 c0,42,35,68,90,68 c61,0,93,-32,110,-107 c10,-1,21,0,35,1 c-4,49,-5,92,-5,135 c-8,-1,-13,-1,-14,-1 c-2,0,-28,0,-55,4 c-3,0,-41,6,-71,6 c-92,0,-178,-47,-178,-143 c0,-163,255,-123,255,-249 c0,-53,-41,-77,-93,-77 c-70,0,-113,47,-133,135 Z M134,-152 c0,-37,30,-68,68,-68 c41,0,71,34,71,69 c0,37,-32,68,-69,68 c-39,0,-70,-31,-70,-69 Z M134,-152" fill="rgb(0,0,0)" transform="matrix(1,0,0,-1,641,1091)"/>
</svg>