<?xml version="1.0" encoding="UTF-8"?>
<svg height="1521" version="1.1" width="2238.75" xmlns="http://www.w3.org/2000/svg" xmlns:xlink="http://www.w3.org/1999/xlink">
 <path d="M0,0 l2238.75,0 l0,1521 l-2238.75,0 Z M0,0" fill="rgb(255,255,255)" transform="matrix(1,0,0,-1,0,1521)"/>
 <path d="M0,0 l2238.75,0" fill="none" stroke="rgb(229,229,229)" stroke-width="10" transform="matrix(1,0,0,-1,0,1091)"/>
 <path d="M0,5 l0,-25" fill="none" stroke="rgb(204,204,204)" stroke-width="10" transform="matrix(1,0,0,-1,641,1091)"/>
 <path d="M0,5 l0,-25" fill="none" stroke="rgb(204,204,204)" stroke-width="10" transform="matrix(1,0,0,-1,1242,1091)"/>
 <path d="M103,104 c0,-66,-7,-70,-76,-74 c-1,-10,-1,-21,0,-31 c45,0,66,2,133,2 c8,0,29,0,45,-1 l4,4 c-2,27,-4,64,-4,115 l0,390 c0,74,9,128,28,159 c20,32,51,49,90,49 c61,0,93,-42,93,-107 c0,-145,-141,-128,-141,-252 c0,-156,199,-135,199,-259 c0,-46,-29,-76,-68,-76 c-13,0,-25,3,-34,8 c0,54,-30,94,-69,94 c-26,0,-45,-17,-45,-47 c0,-60,83,-88,140,-88 c92,0,165,64,165,154 c0,154,-195,128,-195,254 c0,101,146,93,146,222 c0,94,-84,135,-171,135 c-68,0,-127,-22,-168,-58 c-44,-40,-66,-95,-71,-190 c-2,-38,-9,-41,-84,-53 c-2,-8,-2,-17,0,-27 l83,0 Z M103,104" fill="rgb(0,0,0)" transform="matrix(1,0,0,-1,641,1091)"/>
</svg>