<?xml version="1.0" encoding="UTF-8"?>
<svg height="1521" version="1.1" width="2238.75" xmlns="http://www.w3.org/2000/svg" xmlns:xlink="http://www.w3.org/1999/xlink">
 <path d="M0,0 l2238.75,0 l0,1521 l-2238.75,0 Z M0,0" fill="rgb(255,255,255)" transform="matrix(1,0,0,-1,0,1521)"/>
 <path d="M0,0 l2238.75,0" fill="none" stroke="rgb(229,229,229)" stroke-width="10" transform="matrix(1,0,0,-1,0,1091)"/>
 <path d="M0,5 l0,-25" fill="none" stroke="rgb(204,204,204)" stroke-width="10" transform="matrix(1,0,0,-1,641,1091)"/>
 <path d="M0,5 l0,-25" fill="none" stroke="rgb(204,204,204)" stroke-width="10" transform="matrix(1,0,0,-1,1224,1091)"/>
 <path d="M476,493 c-55,-13,-106,-22,-163,-30 c-2,-8,-2,-17,0,-25 c74,-11,75,-20,75,-98 l0,-232 c-33,-34,-67,-53,-107,-53 c-72,0,-91,39,-91,119 l0,202 c0,32,1,68,2,110 l-15,7 c-54,-13,-105,-22,-162,-30 c-3,-8,-3,-17,0,-25 c74,-11,75,-20,75,-98 l0,-202 c0,-98,49,-150,136,-150 c56,0,109,26,165,79 l2,-70 l16,-7 c49,12,101,19,158,25 c1,9,1,17,0,25 c-77,8,-78,17,-78,77 l0,259 c0,32,1,68,2,110 Z M143,641 c-2,-16,-2,-34,0,-50 l282,0 c2,16,2,34,0,50 Z M432,851 c-16,-40,-35,-60,-59,-60 c-23,0,-48,17,-72,31 c-27,16,-47,22,-64,22 c-53,0,-95,-47,-124,-124 c11,-5,22,-9,32,-11 c16,39,36,58,60,58 c25,0,48,-16,72,-30 c27,-16,47,-22,65,-22 c53,0,95,45,122,125 c-10,4,-20,8,-32,11 Z M432,851" fill="rgb(0,0,0)" transform="matrix(1,0,0,-1,641,1091)"/>
</svg>