<?xml version="1.0" encoding="UTF-8"?>
<svg height="1521" version="1.1" width="2238.75" xmlns="http://www.w3.org/2000/svg" xmlns:xlink="http://www.w3.org/1999/xlink">
 <path d="M0,0 l2238.75,0 l0,1521 l-2238.75,0 Z M0,0" fill="rgb(255,255,255)" transform="matrix(1,0,0,-1,0,1521)"/>
 <path d="M0,0 l2238.75,0" fill="none" stroke="rgb(229,229,229)" stroke-width="10" transform="matrix(1,0,0,-1,0,1091)"/>
 <path d="M0,5 l0,-25" fill="none" stroke="rgb(204,204,204)" stroke-width="10" transform="matrix(1,0,0,-1,641,1091)"/>
 <path d="M0,5 l0,-25" fill="none" stroke="rgb(204,204,204)" stroke-width="10" transform="matrix(1,0,0,-1,1140,1091)"/>
 <path d="M-14,445 c54,-6,66,-17,82,-60 c63,-164,143,-365,153,-393 c-23,-52,-38,-83,-55,-114 c-91,0,-128,-44,-128,-81 c0,-28,20,-52,56,-52 c36,0,66,21,100,86 c20,40,59,125,70,150 l171,399 c17,41,29,61,85,65 c2,10,2,21,0,31 c-25,0,-60,-2,-86,-2 c-40,0,-75,2,-108,2 c-2,-10,-2,-21,0,-31 c51,-4,68,-10,68,-29 c0,-10,-3,-22,-11,-43 c-33,-84,-63,-155,-106,-253 c-34,85,-65,160,-100,255 c-7,20,-10,34,-10,43 c0,20,16,24,61,27 c1,10,1,21,0,31 c-32,0,-83,-2,-121,-2 c-43,0,-82,2,-121,2 c-2,-11,-2,-22,0,-31 Z M105,664 c0,-35,25,-63,62,-63 c37,0,62,28,62,63 c0,35,-25,62,-62,62 c-37,0,-62,-27,-62,-62 Z M308,664 c0,-35,25,-63,62,-63 c37,0,62,28,62,63 c0,35,-25,62,-62,62 c-37,0,-62,-27,-62,-62 Z M308,664" fill="rgb(0,0,0)" transform="matrix(1,0,0,-1,641,1091)"/>
</svg>