<?xml version="1.0" encoding="UTF-8"?>
<svg height="1521" version="1.1" width="2238.75" xmlns="http://www.w3.org/2000/svg" xmlns:xlink="http://www.w3.org/1999/xlink">
 <path d="M0,0 l2238.75,0 l0,1521 l-2238.75,0 Z M0,0" fill="rgb(255,255,255)" transform="matrix(1,0,0,-1,0,1521)"/>
 <path d="M0,0 l2238.75,0" fill="none" stroke="rgb(229,229,229)" stroke-width="10" transform="matrix(1,0,0,-1,0,1091)"/>
 <path d="M0,5 l0,-25" fill="none" stroke="rgb(204,204,204)" stroke-width="10" transform="matrix(1,0,0,-1,641,1091)"/>
 <path d="M0,5 l0,-25" fill="none" stroke="rgb(204,204,204)" stroke-width="10" transform="matrix(1,0,0,-1,1208,1091)"/>
 <path d="M153,572 c8,-11,16,-24,26,-34 l116,76 c45,-53,76,-110,95,-172 c-46,26,-85,38,-129,38 c-134,0,-222,-112,-222,-250 c0,-141,92,-241,234,-241 c167,0,250,138,250,291 c0,143,-73,271,-173,368 l106,72 c-6,12,-15,24,-26,35 l-114,-77 c-36,30,-75,56,-113,78 c-11,-9,-19,-21,-26,-33 c35,-25,63,-50,90,-77 Z M415,261 c0,-101,-24,-234,-131,-234 c-103,0,-133,124,-133,218 c0,117,46,185,129,185 c37,0,71,-13,124,-46 c7,-40,11,-82,11,-123 Z M415,261" fill="rgb(0,0,0)" transform="matrix(1,0,0,-1,641,1091)"/>
</svg>