<?xml version="1.0" encoding="UTF-8"?>
<svg height="1521" version="1.1" width="2238.75" xmlns="http://www.w3.org/2000/svg" xmlns:xlink="http://www.w3.org/1999/xlink">
 <path d="M0,0 l2238.75,0 l0,1521 l-2238.75,0 Z M0,0" fill="rgb(255,255,255)" transform="matrix(1,0,0,-1,0,1521)"/>
 <path d="M0,0 l2238.75,0" fill="none" stroke="rgb(229,229,229)" stroke-width="10" transform="matrix(1,0,0,-1,0,1091)"/>
 <path d="M0,5 l0,-25" fill="none" stroke="rgb(204,204,204)" stroke-width="10" transform="matrix(1,0,0,-1,641,1091)"/>
 <path d="M0,5 l0,-25" fill="none" stroke="rgb(204,204,204)" stroke-width="10" transform="matrix(1,0,0,-1,1221,1091)"/>
 <path d="M9,-215 c0,-3,-1,-5,-1,-8 l0,-16 c0,-3,1,-5,1,-8 c41,0,74,2,128,2 c53,0,99,-2,144,-2 c0,6,1,12,1,17 c0,6,-1,10,-1,15 c-87,4,-95,6,-95,85 l0,138 c29,-10,67,-15,98,-15 c153,0,256,118,256,263 c0,121,-73,236,-198,236 c-54,0,-106,-20,-156,-68 l0,214 c0,44,0,81,2,111 l-17,6 c-59,-25,-115,-38,-168,-45 c-2,-10,-2,-18,0,-27 c70,-6,82,-16,82,-78 l0,-747 c0,-65,-7,-69,-76,-73 Z M436,222 c0,-101,-38,-192,-139,-192 c-45,0,-81,18,-112,60 l0,291 c32,32,69,49,110,49 c105,0,141,-109,141,-208 Z M436,222" fill="rgb(0,0,0)" transform="matrix(1,0,0,-1,641,1091)"/>
</svg>