<?xml version="1.0" encoding="UTF-8"?>
<svg height="1521" version="1.1" width="2238.75" xmlns="http://www.w3.org/2000/svg" xmlns:xlink="http://www.w3.org/1999/xlink">
 <path d="M0,0 l2238.75,0 l0,1521 l-2238.75,0 Z M0,0" fill="rgb(255,255,255)" transform="matrix(1,0,0,-1,0,1521)"/>
 <path d="M0,0 l2238.75,0" fill="none" stroke="rgb(229,229,229)" stroke-width="10" transform="matrix(1,0,0,-1,0,1091)"/>
 <path d="M0,5 l0,-25" fill="none" stroke="rgb(204,204,204)" stroke-width="10" transform="matrix(1,0,0,-1,641,1091)"/>
 <path d="M0,5 l0,-25" fill="none" stroke="rgb(204,204,204)" stroke-width="10" transform="matrix(1,0,0,-1,1392,1091)"/>
 <path d="M720,68 c-22,-11,-46,-16,-61,-16 c-50,0,-93,55,-140,119 c50,78,94,169,120,194 c18,17,42,21,76,24 c2,10,2,21,0,31 c-31,0,-61,-2,-108,-2 c-49,0,-92,2,-126,2 c-2,-10,-2,-21,0,-31 c46,-3,81,-6,81,-39 c0,-28,-24,-78,-69,-147 c-65,82,-123,146,-176,198 c87,35,139,86,139,158 c0,86,-72,132,-154,132 c-95,0,-178,-60,-178,-155 c0,-51,25,-100,73,-146 c-89,-43,-162,-113,-162,-214 c0,-120,98,-195,217,-195 c82,0,150,37,204,106 c57,-65,80,-91,141,-91 c49,0,96,15,134,44 c-1,8,-5,20,-11,28 Z M223,363 c72,-72,142,-151,207,-242 c-42,-48,-78,-73,-136,-73 c-95,0,-156,65,-156,163 c0,71,34,123,85,152 Z M292,426 c-42,42,-70,88,-70,139 c0,54,31,88,75,88 c48,0,74,-39,74,-99 c0,-59,-26,-102,-79,-128 Z M292,426" fill="rgb(0,0,0)" transform="matrix(1,0,0,-1,641,1091)"/>
</svg>