<?xml version="1.0" encoding="UTF-8"?>
<svg height="1521" version="1.1" width="2238.75" xmlns="http://www.w3.org/2000/svg" xmlns:xlink="http://www.w3.org/1999/xlink">
 <path d="M0,0 l2238.75,0 l0,1521 l-2238.75,0 Z M0,0" fill="rgb(255,255,255)" transform="matrix(1,0,0,-1,0,1521)"/>
 <path d="M0,0 l2238.75,0" fill="none" stroke="rgb(229,229,229)" stroke-width="10" transform="matrix(1,0,0,-1,0,1091)"/>
 <path d="M0,5 l0,-25" fill="none" stroke="rgb(204,204,204)" stroke-width="10" transform="matrix(1,0,0,-1,641,1091)"/>
 <path d="M0,5 l0,-25" fill="none" stroke="rgb(204,204,204)" stroke-width="10" transform="matrix(1,0,0,-1,2025,1091)"/>
 <path d="M253,-103 c-2,-16,-2,-34,0,-50 l995,0 c2,16,2,34,0,50 Z M677,189 c0,72,3,71,85,81 c1,10,1,21,0,31 c-39,0,-100,-2,-141,-2 c-41,0,-120,2,-162,2 c-2,-10,-2,-22,0,-32 c105,-8,110,-9,110,-92 l0,-126 c-41,-16,-85,-23,-127,-23 c-181,0,-267,134,-267,324 c0,172,70,319,258,319 c117,0,187,-58,214,-181 c10,-1,23,0,35,2 c-5,68,-8,130,-10,189 c-8,-2,-16,-3,-24,-3 c-21,0,-42,6,-67,13 c-42,12,-105,20,-155,20 c-229,0,-376,-146,-376,-370 c0,-225,148,-356,374,-356 c79,0,168,16,260,47 c-4,28,-7,69,-7,125 Z M1055,-1 c3,10,3,21,0,31 c-62,4,-69,6,-69,84 l0,260 c33,34,72,51,114,51 c73,0,92,-39,92,-119 l0,-202 c0,-66,-9,-70,-71,-74 c-1,-10,-1,-21,0,-31 c37,0,71,2,120,2 c51,0,85,-2,125,-2 c1,10,1,21,0,31 c-66,4,-72,6,-72,84 l0,227 c0,97,-48,151,-136,151 c-59,0,-117,-24,-172,-75 l0,222 c0,44,0,80,2,110 l-17,6 c-62,-26,-115,-38,-168,-45 c-2,-10,-2,-18,0,-27 c44,-4,60,-9,71,-23 c10,-13,10,-36,10,-74 l0,-482 c0,-66,-8,-70,-76,-74 c-2,-10,-2,-21,0,-31 c40,0,75,2,125,2 c49,0,88,-2,122,-2 Z M1055,-1" fill="rgb(0,0,0)" transform="matrix(1,0,0,-1,641,1091)"/>
</svg>