<?xml version="1.0" encoding="UTF-8"?>
<svg height="1521" version="1.1" width="2238.75" xmlns="http://www.w3.org/2000/svg" xmlns:xlink="http://www.w3.org/1999/xlink">
 <path d="M0,0 l2238.75,0 l0,1521 l-2238.75,0 Z M0,0" fill="rgb(255,255,255)" transform="matrix(1,0,0,-1,0,1521)"/>
 <path d="M0,0 l2238.75,0" fill="none" stroke="rgb(229,229,229)" stroke-width="10" transform="matrix(1,0,0,-1,0,1091)"/>
 <path d="M0,5 l0,-25" fill="none" stroke="rgb(204,204,204)" stroke-width="10" transform="matrix(1,0,0,-1,641,1091)"/>
 <path d="M0,5 l0,-25" fill="none" stroke="rgb(204,204,204)" stroke-width="10" transform="matrix(1,0,0,-1,1785,1091)"/>
 <path d="M113,-313 c-2,-16,-2,-34,0,-50 l895,0 c2,16,2,34,0,50 Z M391,449 c-38,30,-83,43,-130,43 c-107,0,-203,-68,-203,-177 c0,-60,29,-104,73,-132 c-54,-38,-79,-71,-79,-109 c0,-44,32,-74,79,-85 c-59,-38,-104,-70,-104,-127 c0,-73,79,-117,196,-117 c148,0,289,68,289,200 c0,82,-55,133,-188,133 c-20,0,-71,-1,-102,-1 c-68,0,-89,5,-89,38 c0,20,7,35,25,53 c28,-12,60,-18,93,-18 c106,0,196,63,196,173 c0,40,-12,75,-34,102 c14,9,23,14,42,18 c5,-28,25,-44,50,-44 c26,0,48,19,48,48 c0,29,-21,45,-56,45 c-33,0,-71,-15,-106,-43 Z M174,-16 c57,0,91,1,115,1 c106,0,139,-22,139,-78 c0,-93,-92,-117,-160,-117 c-76,0,-148,29,-148,99 c0,34,17,64,54,95 Z M160,325 c0,84,33,132,90,132 c61,0,94,-53,94,-138 c0,-84,-33,-134,-91,-134 c-59,0,-93,55,-93,140 Z M815,-1 c3,10,3,21,0,31 c-62,4,-69,6,-69,84 l0,260 c33,34,72,51,114,51 c73,0,92,-39,92,-119 l0,-202 c0,-66,-9,-70,-71,-74 c-1,-10,-1,-21,0,-31 c37,0,71,2,120,2 c51,0,85,-2,125,-2 c1,10,1,21,0,31 c-66,4,-72,6,-72,84 l0,227 c0,97,-48,151,-136,151 c-59,0,-117,-24,-172,-75 l0,222 c0,44,0,80,2,110 l-17,6 c-62,-26,-115,-38,-168,-45 c-2,-10,-2,-18,0,-27 c44,-4,60,-9,71,-23 c10,-13,10,-36,10,-74 l0,-482 c0,-66,-8,-70,-76,-74 c-2,-10,-2,-21,0,-31 c40,0,75,2,125,2 c49,0,88,-2,122,-2 Z M815,-1" fill="rgb(0,0,0)" transform="matrix(1,0,0,-1,641,1091)"/>
</svg>