<?xml version="1.0" encoding="UTF-8"?>
<svg height="1521" version="1.1" width="2238.75" xmlns="http://www.w3.org/2000/svg" xmlns:xlink="http://www.w3.org/1999/xlink">
 <path d="M0,0 l2238.75,0 l0,1521 l-2238.75,0 Z M0,0" fill="rgb(255,255,255)" transform="matrix(1,0,0,-1,0,1521)"/>
 <path d="M0,0 l2238.75,0" fill="none" stroke="rgb(229,229,229)" stroke-width="10" transform="matrix(1,0,0,-1,0,1091)"/>
 <path d="M0,5 l0,-25" fill="none" stroke="rgb(204,204,204)" stroke-width="10" transform="matrix(1,0,0,-1,641,1091)"/>
 <path d="M0,5 l0,-25" fill="none" stroke="rgb(204,204,204)" stroke-width="10" transform="matrix(1,0,0,-1,1952,1091)"/>
 <path d="M188,-103 c-2,-16,-2,-34,0,-50 l957,0 c2,16,2,34,0,50 Z M240,589 c1,72,4,71,96,80 c2,11,2,22,0,32 c-40,0,-114,-2,-151,-2 c-37,0,-115,2,-155,2 c-1,-11,-1,-22,0,-32 c95,-8,100,-10,100,-93 l0,-465 c0,-72,-4,-71,-100,-80 c-1,-11,-1,-22,0,-32 c41,0,115,2,153,2 c38,0,113,-2,153,-2 c2,10,2,22,0,32 c-91,7,-96,8,-96,93 l0,154 l41,45 l240,-323 c19,0,45,1,60,1 c35,0,101,-2,139,-2 c2,10,2,22,0,32 c-85,8,-96,15,-160,98 l-206,271 l147,152 c93,97,108,109,190,117 c1,10,1,22,0,32 c-45,0,-80,-2,-123,-2 c-33,0,-104,2,-137,2 c-1,-10,-1,-21,0,-32 c55,-4,77,-10,77,-27 c0,-12,-12,-28,-38,-56 l-230,-245 Z M982,-1 c3,10,3,21,0,31 c-62,4,-69,6,-69,84 l0,260 c33,34,72,51,114,51 c73,0,92,-39,92,-119 l0,-202 c0,-66,-9,-70,-71,-74 c-1,-10,-1,-21,0,-31 c37,0,71,2,120,2 c51,0,85,-2,125,-2 c1,10,1,21,0,31 c-66,4,-72,6,-72,84 l0,227 c0,97,-48,151,-136,151 c-59,0,-117,-24,-172,-75 l0,222 c0,44,0,80,2,110 l-17,6 c-62,-26,-115,-38,-168,-45 c-2,-10,-2,-18,0,-27 c44,-4,60,-9,71,-23 c10,-13,10,-36,10,-74 l0,-482 c0,-66,-8,-70,-76,-74 c-2,-10,-2,-21,0,-31 c40,0,75,2,125,2 c49,0,88,-2,122,-2 Z M982,-1" fill="rgb(0,0,0)" transform="matrix(1,0,0,-1,641,1091)"/>
</svg>