<?xml version="1.0" encoding="UTF-8"?>
<svg height="1521" version="1.1" width="2238.75" xmlns="http://www.w3.org/2000/svg" xmlns:xlink="http://www.w3.org/1999/xlink">
 <path d="M0,0 l2238.75,0 l0,1521 l-2238.75,0 Z M0,0" fill="rgb(255,255,255)" transform="matrix(1,0,0,-1,0,1521)"/>
 <path d="M0,0 l2238.75,0" fill="none" stroke="rgb(229,229,229)" stroke-width="10" transform="matrix(1,0,0,-1,0,1091)"/>
 <path d="M0,-20 l0,40" fill="none" stroke="rgb(255,76,25)" stroke-width="10" transform="matrix(1,0,0,-1,641,1091)"/>
 <path d="M-409,742 l128,-194 c7,-1,21,0,29,3 l-49,196 c-3,3,-14,5,-34,5 c-27,0,-51,-2,-74,-6 Z M-409,742" fill="rgb(0,0,0)" transform="matrix(1,0,0,-1,641,1091)"/>
</svg>