<?xml version="1.0" encoding="UTF-8"?>
<svg height="1521" version="1.1" width="2238.75" xmlns="http://www.w3.org/2000/svg" xmlns:xlink="http://www.w3.org/1999/xlink">
 <path d="M0,0 l2238.75,0 l0,1521 l-2238.75,0 Z M0,0" fill="rgb(255,255,255)" transform="matrix(1,0,0,-1,0,1521)"/>
 <path d="M0,0 l2238.75,0" fill="none" stroke="rgb(229,229,229)" stroke-width="10" transform="matrix(1,0,0,-1,0,1091)"/>
 <path d="M0,-20 l0,40" fill="none" stroke="rgb(255,76,25)" stroke-width="10" transform="matrix(1,0,0,-1,641,1091)"/>
 <path d="M-287,671 c40,-39,84,-81,132,-123 c10,2,20,6,29,13 c-38,55,-85,131,-116,187 c-13,3,-28,4,-44,4 c-16,0,-31,-1,-44,-4 c-31,-56,-78,-132,-117,-187 c9,-7,20,-11,29,-13 c47,42,91,84,131,123 Z M-287,671" fill="rgb(0,0,0)" transform="matrix(1,0,0,-1,641,1091)"/>
</svg>