<?xml version="1.0" encoding="UTF-8"?>
<svg height="1521" version="1.1" width="2238.75" xmlns="http://www.w3.org/2000/svg" xmlns:xlink="http://www.w3.org/1999/xlink">
 <path d="M0,0 l2238.75,0 l0,1521 l-2238.75,0 Z M0,0" fill="rgb(255,255,255)" transform="matrix(1,0,0,-1,0,1521)"/>
 <path d="M0,0 l2238.75,0" fill="none" stroke="rgb(229,229,229)" stroke-width="10" transform="matrix(1,0,0,-1,0,1091)"/>
 <path d="M0,-20 l0,40" fill="none" stroke="rgb(255,76,25)" stroke-width="10" transform="matrix(1,0,0,-1,641,1091)"/>
 <path d="M-287,826 c42,-31,90,-61,141,-91 c9,2,19,6,28,13 c-41,42,-96,114,-130,156 c-11,3,-26,4,-38,4 c-14,0,-29,-1,-39,-4 c-34,-42,-88,-114,-129,-156 c8,-7,18,-11,28,-13 c50,30,97,61,139,91 Z M-287,826" fill="rgb(0,0,0)" transform="matrix(1,0,0,-1,641,1091)"/>
</svg>