<?xml version="1.0" encoding="UTF-8"?>
<svg height="1521" version="1.1" width="2238.75" xmlns="http://www.w3.org/2000/svg" xmlns:xlink="http://www.w3.org/1999/xlink">
 <path d="M0,0 l2238.75,0 l0,1521 l-2238.75,0 Z M0,0" fill="rgb(255,255,255)" transform="matrix(1,0,0,-1,0,1521)"/>
 <path d="M0,0 l2238.75,0" fill="none" stroke="rgb(229,229,229)" stroke-width="10" transform="matrix(1,0,0,-1,0,1091)"/>
 <path d="M0,-20 l0,40" fill="none" stroke="rgb(255,76,25)" stroke-width="10" transform="matrix(1,0,0,-1,641,1091)"/>
 <path d="M-409,914 c-12,-2,-22,-4,-33,-7 c15,-104,74,-164,157,-164 c83,0,142,60,156,164 c-11,3,-21,5,-32,7 c-19,-65,-59,-92,-125,-92 c-65,0,-105,26,-123,92 Z M-409,914" fill="rgb(0,0,0)" transform="matrix(1,0,0,-1,641,1091)"/>
</svg>