<?xml version="1.0" encoding="UTF-8"?>
<svg height="1521" version="1.1" width="2238.75" xmlns="http://www.w3.org/2000/svg" xmlns:xlink="http://www.w3.org/1999/xlink">
 <path d="M0,0 l2238.75,0 l0,1521 l-2238.75,0 Z M0,0" fill="rgb(255,255,255)" transform="matrix(1,0,0,-1,0,1521)"/>
 <path d="M0,0 l2238.75,0" fill="none" stroke="rgb(229,229,229)" stroke-width="10" transform="matrix(1,0,0,-1,0,1091)"/>
 <path d="M0,-20 l0,40" fill="none" stroke="rgb(255,76,25)" stroke-width="10" transform="matrix(1,0,0,-1,641,1091)"/>
 <path d="M-400,826 c0,-61,53,-90,114,-90 c60,0,113,33,113,92 c0,56,-44,90,-113,90 c-59,0,-114,-33,-114,-92 Z M-286,891 c33,0,54,-26,54,-65 c0,-39,-20,-62,-54,-62 c-33,0,-54,26,-54,64 c0,39,20,63,54,63 Z M-286,891" fill="rgb(0,0,0)" transform="matrix(1,0,0,-1,641,1091)"/>
</svg>