<?xml version="1.0" encoding="UTF-8"?>
<svg height="1521" version="1.1" width="2238.75" xmlns="http://www.w3.org/2000/svg" xmlns:xlink="http://www.w3.org/1999/xlink">
 <path d="M0,0 l2238.75,0 l0,1521 l-2238.75,0 Z M0,0" fill="rgb(255,255,255)" transform="matrix(1,0,0,-1,0,1521)"/>
 <path d="M0,0 l2238.75,0" fill="none" stroke="rgb(229,229,229)" stroke-width="10" transform="matrix(1,0,0,-1,0,1091)"/>
 <path d="M0,-20 l0,40" fill="none" stroke="rgb(255,76,25)" stroke-width="10" transform="matrix(1,0,0,-1,641,1091)"/>
 <path d="M-345,-236 c1,-11,4,-21,8,-31 c81,17,129,62,129,130 c0,55,-31,93,-80,93 c-36,0,-63,-22,-63,-57 c0,-32,22,-51,49,-51 c13,0,28,5,41,15 c3,-9,4,-15,4,-24 c0,-35,-27,-60,-88,-75 Z M-345,-236" fill="rgb(0,0,0)" transform="matrix(1,0,0,-1,641,1091)"/>
</svg>