<?xml version="1.0" encoding="UTF-8"?>
<svg height="1521" version="1.1" width="2238.75" xmlns="http://www.w3.org/2000/svg" xmlns:xlink="http://www.w3.org/1999/xlink">
 <path d="M0,0 l2238.75,0 l0,1521 l-2238.75,0 Z M0,0" fill="rgb(255,255,255)" transform="matrix(1,0,0,-1,0,1521)"/>
 <path d="M0,0 l2238.75,0" fill="none" stroke="rgb(229,229,229)" stroke-width="10" transform="matrix(1,0,0,-1,0,1091)"/>
 <path d="M0,5 l0,-25" fill="none" stroke="rgb(204,204,204)" stroke-width="10" transform="matrix(1,0,0,-1,641,1091)"/>
 <path d="M0,5 l0,-25" fill="none" stroke="rgb(204,204,204)" stroke-width="10" transform="matrix(1,0,0,-1,960,1091)"/>
 <path d="M76,-186 c0,-36,29,-56,70,-56 c43,0,72,21,72,57 l-54,447 c-11,1,-25,1,-36,0 Z M219,409 c0,41,-31,72,-71,72 c-44,0,-73,-33,-73,-72 c0,-39,29,-73,73,-73 c40,0,71,32,71,73 Z M219,409" fill="rgb(0,0,0)" transform="matrix(1,0,0,-1,641,1091)"/>
</svg>