<?xml version="1.0" encoding="UTF-8"?>
<svg height="1521" version="1.1" width="2238.75" xmlns="http://www.w3.org/2000/svg" xmlns:xlink="http://www.w3.org/1999/xlink">
 <path d="M0,0 l2238.75,0 l0,1521 l-2238.75,0 Z M0,0" fill="rgb(255,255,255)" transform="matrix(1,0,0,-1,0,1521)"/>
 <path d="M0,0 l2238.75,0" fill="none" stroke="rgb(229,229,229)" stroke-width="10" transform="matrix(1,0,0,-1,0,1091)"/>
 <path d="M0,5 l0,-25" fill="none" stroke="rgb(204,204,204)" stroke-width="10" transform="matrix(1,0,0,-1,641,1091)"/>
 <path d="M0,5 l0,-25" fill="none" stroke="rgb(204,204,204)" stroke-width="10" transform="matrix(1,0,0,-1,1053,1091)"/>
 <path d="M264,267 c-12,1,-26,1,-37,0 l-8,-95 c-134,0,-184,-36,-184,-140 c0,-52,12,-94,35,-133 c46,-78,135,-141,205,-141 c42,0,72,22,72,54 c0,32,-29,50,-66,50 c-26,0,-56,-9,-84,-25 c-68,33,-113,105,-113,171 c0,53,30,67,171,67 c1,0,8,0,29,-1 Z M317,409 c0,41,-30,72,-72,72 c-42,0,-72,-33,-72,-72 c0,-39,30,-73,72,-73 c42,0,72,32,72,73 Z M317,409" fill="rgb(0,0,0)" transform="matrix(1,0,0,-1,641,1091)"/>
</svg>