<?xml version="1.0" encoding="UTF-8"?>
<svg height="1521" version="1.1" width="2238.75" xmlns="http://www.w3.org/2000/svg" xmlns:xlink="http://www.w3.org/1999/xlink">
 <path d="M0,0 l2238.75,0 l0,1521 l-2238.75,0 Z M0,0" fill="rgb(255,255,255)" transform="matrix(1,0,0,-1,0,1521)"/>
 <path d="M0,0 l2238.75,0" fill="none" stroke="rgb(229,229,229)" stroke-width="10" transform="matrix(1,0,0,-1,0,1091)"/>
 <path d="M0,5 l0,-25" fill="none" stroke="rgb(204,204,204)" stroke-width="10" transform="matrix(1,0,0,-1,641,1091)"/>
 <path d="M0,5 l0,-25" fill="none" stroke="rgb(204,204,204)" stroke-width="10" transform="matrix(1,0,0,-1,1099,1091)"/>
 <path d="M235,523 c17,55,54,106,54,125 c0,30,-17,63,-40,63 c-28,0,-51,-44,-51,-62 c0,-12,18,-65,18,-124 c-48,34,-70,63,-87,79 c-13,13,-26,16,-45,16 c-21,0,-44,-11,-44,-32 c0,-20,16,-46,39,-58 c17,-8,59,-1,127,-22 c-42,-33,-87,-51,-105,-61 c-18,-10,-26,-41,-26,-59 c0,-20,12,-30,31,-30 c18,0,39,7,54,21 c7,7,19,56,61,114 c17,-49,19,-96,23,-114 c7,-25,40,-48,61,-48 c19,0,30,19,30,41 c0,12,-3,26,-9,39 c-5,10,-47,38,-87,93 c59,0,106,-15,122,-15 c25,0,62,28,62,52 c0,21,-31,38,-61,38 c-26,0,-48,-31,-127,-56 Z M235,523" fill="rgb(0,0,0)" transform="matrix(1,0,0,-1,641,1091)"/>
</svg>