<?xml version="1.0" encoding="UTF-8"?>
<svg height="1521" version="1.1" width="2238.75" xmlns="http://www.w3.org/2000/svg" xmlns:xlink="http://www.w3.org/1999/xlink">
 <path d="M0,0 l2238.75,0 l0,1521 l-2238.75,0 Z M0,0" fill="rgb(255,255,255)" transform="matrix(1,0,0,-1,0,1521)"/>
 <path d="M0,0 l2238.75,0" fill="none" stroke="rgb(229,229,229)" stroke-width="10" transform="matrix(1,0,0,-1,0,1091)"/>
 <path d="M0,5 l0,-25" fill="none" stroke="rgb(204,204,204)" stroke-width="10" transform="matrix(1,0,0,-1,641,1091)"/>
 <path d="M0,5 l0,-25" fill="none" stroke="rgb(204,204,204)" stroke-width="10" transform="matrix(1,0,0,-1,963,1091)"/>
 <path d="M136,245 c46,39,114,111,151,164 c-5,8,-13,15,-21,21 c-62,-56,-144,-117,-224,-167 c-1,-8,-2,-17,-2,-25 c0,-3,0,-7,1,-11 c76,-47,156,-109,220,-166 c8,6,16,12,21,20 c-36,52,-100,124,-146,164 Z M136,245" fill="rgb(0,0,0)" transform="matrix(1,0,0,-1,641,1091)"/>
</svg>