<?xml version="1.0" encoding="UTF-8"?>
<svg height="1521" version="1.1" width="2238.75" xmlns="http://www.w3.org/2000/svg" xmlns:xlink="http://www.w3.org/1999/xlink">
 <path d="M0,0 l2238.75,0 l0,1521 l-2238.75,0 Z M0,0" fill="rgb(255,255,255)" transform="matrix(1,0,0,-1,0,1521)"/>
 <path d="M0,0 l2238.75,0" fill="none" stroke="rgb(229,229,229)" stroke-width="10" transform="matrix(1,0,0,-1,0,1091)"/>
 <path d="M0,5 l0,-25" fill="none" stroke="rgb(204,204,204)" stroke-width="10" transform="matrix(1,0,0,-1,641,1091)"/>
 <path d="M0,5 l0,-25" fill="none" stroke="rgb(204,204,204)" stroke-width="10" transform="matrix(1,0,0,-1,1118,1091)"/>
 <path d="M132,245 c44,41,106,113,141,166 c-4,8,-12,14,-21,19 c-57,-56,-134,-118,-209,-167 c-2,-8,-3,-16,-3,-24 c0,-4,0,-8,1,-12 c72,-47,147,-109,206,-166 c8,5,17,11,21,18 c-33,52,-94,126,-136,166 Z M306,244 c42,38,103,108,136,161 c-4,6,-12,12,-20,17 c-55,-54,-126,-112,-199,-160 c-2,-8,-3,-15,-3,-23 c0,-4,0,-8,1,-12 c70,-46,137,-105,195,-160 c7,5,14,11,19,17 c-31,51,-89,121,-129,160 Z M306,244" fill="rgb(0,0,0)" transform="matrix(1,0,0,-1,641,1091)"/>
</svg>