<?xml version="1.0" encoding="UTF-8"?>
<svg height="1521" version="1.1" width="2238.75" xmlns="http://www.w3.org/2000/svg" xmlns:xlink="http://www.w3.org/1999/xlink">
 <path d="M0,0 l2238.75,0 l0,1521 l-2238.75,0 Z M0,0" fill="rgb(255,255,255)" transform="matrix(1,0,0,-1,0,1521)"/>
 <path d="M0,0 l2238.75,0" fill="none" stroke="rgb(229,229,229)" stroke-width="10" transform="matrix(1,0,0,-1,0,1091)"/>
 <path d="M0,5 l0,-25" fill="none" stroke="rgb(204,204,204)" stroke-width="10" transform="matrix(1,0,0,-1,641,1091)"/>
 <path d="M0,5 l0,-25" fill="none" stroke="rgb(204,204,204)" stroke-width="10" transform="matrix(1,0,0,-1,1198,1091)"/>
 <path d="M261,113 c-74,0,-151,34,-167,34 c-32,0,-49,-23,-49,-47 c0,-26,17,-48,49,-48 c16,0,93,30,167,30 c0,-91,-38,-195,-38,-211 c0,-37,27,-54,56,-54 c28,0,54,17,54,54 c0,16,-36,120,-36,211 c74,0,149,-30,166,-30 c32,0,49,22,49,48 c0,24,-17,47,-49,47 c-17,0,-92,-34,-166,-34 c0,65,37,139,37,150 c0,12,-37,86,-37,152 c74,0,149,-35,166,-35 c32,0,49,23,49,48 c0,24,-17,47,-49,47 c-17,0,-92,-31,-166,-31 c0,92,36,196,36,212 c0,36,-26,55,-54,55 c-29,0,-56,-19,-56,-55 c0,-16,38,-120,38,-212 c-74,0,-151,31,-167,31 c-32,0,-49,-23,-49,-47 c0,-25,17,-48,49,-48 c16,0,93,35,167,35 c0,-66,-39,-140,-39,-152 c0,-11,39,-85,39,-150 Z M261,113" fill="rgb(0,0,0)" transform="matrix(1,0,0,-1,641,1091)"/>
</svg>