<?xml version="1.0" encoding="UTF-8"?>
<svg height="1521" version="1.1" width="2238.75" xmlns="http://www.w3.org/2000/svg" xmlns:xlink="http://www.w3.org/1999/xlink">
 <path d="M0,0 l2238.75,0 l0,1521 l-2238.75,0 Z M0,0" fill="rgb(255,255,255)" transform="matrix(1,0,0,-1,0,1521)"/>
 <path d="M0,0 l2238.75,0" fill="none" stroke="rgb(229,229,229)" stroke-width="10" transform="matrix(1,0,0,-1,0,1091)"/>
 <path d="M0,5 l0,-25" fill="none" stroke="rgb(204,204,204)" stroke-width="10" transform="matrix(1,0,0,-1,641,1091)"/>
 <path d="M0,5 l0,-25" fill="none" stroke="rgb(204,204,204)" stroke-width="10" transform="matrix(1,0,0,-1,1191,1091)"/>
 <path d="M325,669 c5,-59,34,-93,73,-93 c31,0,50,20,50,49 c0,54,-71,86,-148,86 c-159,0,-250,-137,-250,-297 c0,-277,264,-345,308,-526 c-34,-34,-73,-50,-121,-50 c-12,0,-22,1,-33,4 c-4,59,-33,93,-72,93 c-32,0,-50,-23,-50,-50 c0,-53,71,-85,147,-85 c161,0,251,138,251,298 c0,276,-266,345,-308,525 c33,34,73,50,120,50 c12,0,22,-1,33,-4 Z M140,585 c15,-235,284,-336,284,-539 c0,-42,-12,-85,-34,-120 c-15,235,-285,337,-285,539 c0,42,12,86,35,120 Z M140,585" fill="rgb(0,0,0)" transform="matrix(1,0,0,-1,641,1091)"/>
</svg>