<?xml version="1.0" encoding="UTF-8"?>
<svg height="1521" version="1.1" width="2238.75" xmlns="http://www.w3.org/2000/svg" xmlns:xlink="http://www.w3.org/1999/xlink">
 <path d="M0,0 l2238.75,0 l0,1521 l-2238.75,0 Z M0,0" fill="rgb(255,255,255)" transform="matrix(1,0,0,-1,0,1521)"/>
 <path d="M0,0 l2238.75,0" fill="none" stroke="rgb(229,229,229)" stroke-width="10" transform="matrix(1,0,0,-1,0,1091)"/>
 <path d="M0,5 l0,-25" fill="none" stroke="rgb(204,204,204)" stroke-width="10" transform="matrix(1,0,0,-1,641,1091)"/>
 <path d="M0,5 l0,-25" fill="none" stroke="rgb(204,204,204)" stroke-width="10" transform="matrix(1,0,0,-1,1222,1091)"/>
 <path d="M529,287 c-38,-31,-76,-40,-114,-40 c-82,0,-166,60,-249,60 c-39,0,-76,-10,-114,-41 c-3,-15,-3,-34,0,-48 c38,30,75,39,114,39 c80,0,164,-59,249,-59 c38,0,76,10,114,40 c1,14,1,35,0,49 Z M529,287" fill="rgb(0,0,0)" transform="matrix(1,0,0,-1,641,1091)"/>
</svg>