<?xml version="1.0" encoding="UTF-8"?>
<svg height="1521" version="1.1" width="2238.75" xmlns="http://www.w3.org/2000/svg" xmlns:xlink="http://www.w3.org/1999/xlink">
 <path d="M0,0 l2238.75,0 l0,1521 l-2238.75,0 Z M0,0" fill="rgb(255,255,255)" transform="matrix(1,0,0,-1,0,1521)"/>
 <path d="M0,0 l2238.75,0" fill="none" stroke="rgb(229,229,229)" stroke-width="10" transform="matrix(1,0,0,-1,0,1091)"/>
 <path d="M0,5 l0,-25" fill="none" stroke="rgb(204,204,204)" stroke-width="10" transform="matrix(1,0,0,-1,641,1091)"/>
 <path d="M0,5 l0,-25" fill="none" stroke="rgb(204,204,204)" stroke-width="10" transform="matrix(1,0,0,-1,1557,1091)"/>
 <path d="M662,441 l-79,-16 c-29,13,-54,20,-81,20 c-145,0,-258,-206,-258,-336 c0,-71,34,-117,93,-117 c66,0,127,56,163,111 l3,-1 c-2,-10,-3,-17,-3,-26 c0,-55,36,-84,93,-84 c110,0,272,107,272,310 c0,203,-162,321,-361,321 c-243,0,-454,-179,-454,-439 c0,-231,165,-377,392,-377 c111,0,225,35,306,116 c-5,7,-13,17,-21,23 c-77,-65,-173,-97,-269,-97 c-198,0,-340,133,-340,341 c0,222,165,393,384,393 c166,0,301,-98,301,-283 c0,-174,-117,-267,-183,-267 c-31,0,-39,21,-39,45 c0,17,4,33,5,40 c7,42,77,318,78,320 Z M521,215 c-20,-80,-87,-165,-141,-165 c-32,0,-45,30,-45,80 c0,102,55,272,145,272 c23,0,51,-12,79,-35 Z M521,215" fill="rgb(0,0,0)" transform="matrix(1,0,0,-1,641,1091)"/>
</svg>