<?xml version="1.0" encoding="UTF-8"?>
<svg height="1521" version="1.1" width="2238.75" xmlns="http://www.w3.org/2000/svg" xmlns:xlink="http://www.w3.org/1999/xlink">
 <path d="M0,0 l2238.75,0 l0,1521 l-2238.75,0 Z M0,0" fill="rgb(255,255,255)" transform="matrix(1,0,0,-1,0,1521)"/>
 <path d="M0,0 l2238.75,0" fill="none" stroke="rgb(229,229,229)" stroke-width="10" transform="matrix(1,0,0,-1,0,1091)"/>
 <path d="M0,5 l0,-25" fill="none" stroke="rgb(204,204,204)" stroke-width="10" transform="matrix(1,0,0,-1,641,1091)"/>
 <path d="M0,5 l0,-25" fill="none" stroke="rgb(204,204,204)" stroke-width="10" transform="matrix(1,0,0,-1,1704,1091)"/>
 <path d="M988,317 c0,265,-190,454,-456,454 c-268,0,-457,-189,-457,-454 c0,-267,189,-457,457,-457 c266,0,456,189,456,457 Z M931,317 c0,-243,-158,-409,-399,-409 c-242,0,-401,166,-401,409 c0,240,159,407,401,407 c241,0,399,-167,399,-407 Z M727,228 c-11,2,-21,2,-31,1 c-20,-95,-71,-139,-146,-139 c-124,0,-177,107,-177,228 c0,115,49,225,170,225 c79,0,130,-46,149,-139 c10,0,21,0,31,2 c-4,54,-7,105,-7,151 c-7,-2,-14,-2,-21,-2 c-11,0,-32,3,-63,11 c-31,9,-64,14,-96,14 c-156,0,-269,-112,-269,-267 c0,-162,111,-260,271,-260 c27,0,53,2,77,7 c24,6,57,16,99,32 c4,47,8,92,13,136 Z M727,228" fill="rgb(0,0,0)" transform="matrix(1,0,0,-1,641,1091)"/>
</svg>