<?xml version="1.0" encoding="UTF-8"?>
<svg height="1521" version="1.1" width="2238.75" xmlns="http://www.w3.org/2000/svg" xmlns:xlink="http://www.w3.org/1999/xlink">
 <path d="M0,0 l2238.75,0 l0,1521 l-2238.75,0 Z M0,0" fill="rgb(255,255,255)" transform="matrix(1,0,0,-1,0,1521)"/>
 <path d="M0,0 l2238.75,0" fill="none" stroke="rgb(229,229,229)" stroke-width="10" transform="matrix(1,0,0,-1,0,1091)"/>
 <path d="M0,5 l0,-25" fill="none" stroke="rgb(204,204,204)" stroke-width="10" transform="matrix(1,0,0,-1,641,1091)"/>
 <path d="M0,5 l0,-25" fill="none" stroke="rgb(204,204,204)" stroke-width="10" transform="matrix(1,0,0,-1,1502,1091)"/>
 <path d="M589,465 l-91,233 l-51,0 c-25,0,-58,1,-82,1 c-1,-6,-1,-15,0,-22 c50,-5,54,-5,52,-44 l-8,-178 c-2,-44,-3,-43,-53,-50 c-1,-7,-1,-16,0,-22 c23,0,50,1,67,1 c18,0,44,-1,67,-1 c1,6,1,15,0,21 c-52,7,-52,9,-51,44 l7,208 l108,-278 c8,0,25,1,33,3 l114,286 l4,-219 c1,-38,-2,-38,-51,-44 c-1,-6,-1,-15,0,-21 c23,0,52,1,84,1 c27,0,67,-1,82,-1 c1,7,1,16,0,22 c-53,4,-52,5,-53,50 l-4,178 c-1,38,2,40,54,44 c1,6,1,15,0,22 c-24,0,-57,-1,-83,-1 l-51,0 Z M190,697 c-99,0,-125,1,-149,2 c-2,-30,-7,-64,-11,-98 c6,-1,14,-1,20,0 c9,24,16,42,27,53 c11,13,29,17,54,17 l27,0 l0,-223 c0,-39,-3,-39,-55,-44 c-1,-6,-1,-15,0,-21 c24,0,51,1,86,1 c27,0,66,-1,87,-1 c1,7,1,16,0,22 c-54,4,-55,5,-55,50 l0,216 l27,0 c26,0,42,-4,54,-17 c12,-12,19,-29,28,-53 c6,-1,14,-1,20,0 c-4,34,-7,68,-9,99 c-23,-2,-49,-3,-151,-3 Z M190,697" fill="rgb(0,0,0)" transform="matrix(1,0,0,-1,641,1091)"/>
</svg>