<?xml version="1.0" encoding="UTF-8"?>
<svg height="1521" version="1.1" width="2238.75" xmlns="http://www.w3.org/2000/svg" xmlns:xlink="http://www.w3.org/1999/xlink">
 <path d="M0,0 l2238.75,0 l0,1521 l-2238.75,0 Z M0,0" fill="rgb(255,255,255)" transform="matrix(1,0,0,-1,0,1521)"/>
 <path d="M0,0 l2238.75,0" fill="none" stroke="rgb(229,229,229)" stroke-width="10" transform="matrix(1,0,0,-1,0,1091)"/>
 <path d="M0,5 l0,-25" fill="none" stroke="rgb(204,204,204)" stroke-width="10" transform="matrix(1,0,0,-1,641,1091)"/>
 <path d="M0,5 l0,-25" fill="none" stroke="rgb(204,204,204)" stroke-width="10" transform="matrix(1,0,0,-1,1216,1091)"/>
 <path d="M525,530 c0,142,-95,235,-236,235 c-145,0,-239,-93,-239,-235 c0,-142,94,-236,239,-236 c141,0,236,94,236,236 Z M490,530 c0,-125,-78,-206,-201,-206 c-125,0,-203,81,-203,206 c0,122,78,205,203,205 c123,0,201,-83,201,-205 Z M264,519 c15,-2,17,-5,27,-20 l62,-99 c8,1,17,1,26,1 c23,0,56,-1,64,-1 c1,6,1,15,0,20 c-39,3,-41,3,-73,52 l-22,33 c-8,12,-12,17,-19,21 l0,1 c43,16,66,42,66,75 c0,45,-43,70,-105,70 c-15,0,-34,-1,-66,-1 c-35,0,-48,1,-69,1 c-2,-5,-2,-14,0,-20 c42,-3,42,-4,42,-44 l0,-148 c0,-35,0,-36,-42,-40 c-2,-5,-2,-14,0,-20 c21,0,53,1,65,1 c14,0,43,-1,65,-1 c1,6,1,15,0,20 c-33,4,-34,5,-34,45 l0,55 Z M251,647 c10,1,17,1,25,1 c40,0,59,-17,59,-53 c0,-35,-22,-54,-60,-54 c-10,0,-17,0,-24,1 Z M251,647" fill="rgb(0,0,0)" transform="matrix(1,0,0,-1,641,1091)"/>
</svg>