<?xml version="1.0" encoding="UTF-8"?>
<svg height="1521" version="1.1" width="2238.75" xmlns="http://www.w3.org/2000/svg" xmlns:xlink="http://www.w3.org/1999/xlink">
 <path d="M0,0 l2238.75,0 l0,1521 l-2238.75,0 Z M0,0" fill="rgb(255,255,255)" transform="matrix(1,0,0,-1,0,1521)"/>
 <path d="M0,0 l2238.75,0" fill="none" stroke="rgb(229,229,229)" stroke-width="10" transform="matrix(1,0,0,-1,0,1091)"/>
 <path d="M0,5 l0,-25" fill="none" stroke="rgb(204,204,204)" stroke-width="10" transform="matrix(1,0,0,-1,641,1091)"/>
 <path d="M0,5 l0,-25" fill="none" stroke="rgb(204,204,204)" stroke-width="10" transform="matrix(1,0,0,-1,1239,1091)"/>
 <path d="M167,141 c37,-30,81,-45,132,-45 c50,0,94,15,132,45 l56,-59 c15,14,29,28,41,42 l-58,55 c29,37,44,82,44,132 c0,51,-15,95,-44,133 l58,55 c-13,15,-27,30,-41,42 l-56,-59 c-37,30,-82,45,-132,45 c-51,0,-95,-16,-132,-45 l-56,59 c-15,-14,-29,-29,-41,-42 l58,-55 c-29,-38,-44,-82,-44,-133 c0,-50,15,-94,44,-132 l-58,-54 c13,-16,26,-29,41,-42 Z M140,311 c0,92,70,167,159,167 c91,0,159,-77,159,-167 c0,-90,-69,-165,-159,-165 c-88,0,-159,73,-159,165 Z M140,311" fill="rgb(0,0,0)" transform="matrix(1,0,0,-1,641,1091)"/>
</svg>