<?xml version="1.0" encoding="UTF-8"?>
<svg height="1521" version="1.1" width="2238.75" xmlns="http://www.w3.org/2000/svg" xmlns:xlink="http://www.w3.org/1999/xlink">
 <path d="M0,0 l2238.75,0 l0,1521 l-2238.75,0 Z M0,0" fill="rgb(255,255,255)" transform="matrix(1,0,0,-1,0,1521)"/>
 <path d="M0,0 l2238.75,0" fill="none" stroke="rgb(229,229,229)" stroke-width="10" transform="matrix(1,0,0,-1,0,1091)"/>
 <path d="M0,5 l0,-25" fill="none" stroke="rgb(204,204,204)" stroke-width="10" transform="matrix(1,0,0,-1,641,1091)"/>
 <path d="M0,5 l0,-25" fill="none" stroke="rgb(204,204,204)" stroke-width="10" transform="matrix(1,0,0,-1,1141,1091)"/>
 <path d="M325,576 l112,0 l0,44 l-372,0 l0,-44 l100,0 c63,0,102,-33,107,-105 l-207,0 l0,-44 l206,0 c-9,-68,-52,-104,-126,-104 l-80,0 l0,-44 l28,0 c19,0,29,-7,52,-44 l147,-235 c18,0,32,1,51,1 c28,0,91,-2,125,-2 c2,9,2,24,0,32 c-75,8,-90,9,-144,95 l-71,114 c-17,27,-31,39,-42,47 l0,2 c98,20,153,72,166,138 l68,0 l0,44 l-66,0 c-2,46,-20,81,-55,103 Z M325,576" fill="rgb(0,0,0)" transform="matrix(1,0,0,-1,641,1091)"/>
</svg>