<?xml version="1.0" encoding="UTF-8"?>
<svg height="1521" version="1.1" width="2238.75" xmlns="http://www.w3.org/2000/svg" xmlns:xlink="http://www.w3.org/1999/xlink">
 <path d="M0,0 l2238.75,0 l0,1521 l-2238.75,0 Z M0,0" fill="rgb(255,255,255)" transform="matrix(1,0,0,-1,0,1521)"/>
 <path d="M0,0 l2238.75,0" fill="none" stroke="rgb(229,229,229)" stroke-width="10" transform="matrix(1,0,0,-1,0,1091)"/>
 <path d="M0,5 l0,-25" fill="none" stroke="rgb(204,204,204)" stroke-width="10" transform="matrix(1,0,0,-1,641,1091)"/>
 <path d="M0,5 l0,-25" fill="none" stroke="rgb(204,204,204)" stroke-width="10" transform="matrix(1,0,0,-1,1658,1091)"/>
 <path d="M443,0 c18,0,32,1,51,1 c25,0,81,-2,111,-2 c2,9,2,24,0,32 c-62,7,-74,14,-130,95 l-93,135 c-12,17,-22,27,-31,35 l0,2 c93,30,143,88,143,169 c0,115,-104,156,-209,156 c-30,0,-100,-3,-131,-3 c-25,0,-104,2,-138,2 c-1,-10,-1,-23,0,-32 c84,-7,89,-9,89,-82 l0,-406 c0,-63,-3,-63,-89,-71 c-1,-9,-1,-23,0,-32 c35,0,106,2,139,2 c34,0,100,-2,135,-2 c2,9,2,24,0,32 c-83,8,-84,8,-84,83 l0,167 l20,-2 c25,-3,31,-7,52,-37 Z M206,579 c9,1,27,4,48,4 c86,0,130,-43,130,-129 c0,-88,-48,-135,-143,-135 c-3,0,-23,0,-35,3 Z M659,165 c-10,1,-19,0,-33,-1 c4,-63,8,-117,8,-159 c62,-1,100,-17,159,-17 c90,0,179,47,179,156 c0,183,-252,142,-252,259 c0,44,34,71,90,71 c60,0,93,-34,110,-111 c10,-1,19,0,34,1 c-4,51,-5,96,-5,141 c-9,-1,-14,-1,-15,-1 c-47,0,-78,10,-126,10 c-92,0,-177,-48,-177,-148 c0,-169,253,-129,253,-261 c0,-55,-41,-80,-92,-80 c-70,0,-114,48,-133,140 Z M659,165" fill="rgb(0,0,0)" transform="matrix(1,0,0,-1,641,1091)"/>
</svg>