<?xml version="1.0" encoding="UTF-8"?>
<svg height="1521" version="1.1" width="2238.75" xmlns="http://www.w3.org/2000/svg" xmlns:xlink="http://www.w3.org/1999/xlink">
 <path d="M0,0 l2238.75,0 l0,1521 l-2238.75,0 Z M0,0" fill="rgb(255,255,255)" transform="matrix(1,0,0,-1,0,1521)"/>
 <path d="M0,0 l2238.75,0" fill="none" stroke="rgb(229,229,229)" stroke-width="10" transform="matrix(1,0,0,-1,0,1091)"/>
 <path d="M0,5 l0,-25" fill="none" stroke="rgb(204,204,204)" stroke-width="10" transform="matrix(1,0,0,-1,641,1091)"/>
 <path d="M0,5 l0,-25" fill="none" stroke="rgb(204,204,204)" stroke-width="10" transform="matrix(1,0,0,-1,1172,1091)"/>
 <path d="M491,174 c0,120,-107,155,-203,188 l0,215 c28,-1,46,-6,66,-17 c0,-60,32,-96,68,-96 c26,0,47,18,47,50 c0,77,-118,100,-181,102 l0,89 c-14,1,-30,1,-45,0 l0,-91 c-100,-10,-189,-63,-189,-170 c0,-111,96,-149,189,-180 l0,-233 c-31,1,-55,8,-82,21 c0,51,-28,102,-72,102 c-27,0,-49,-19,-49,-53 c0,-86,141,-107,203,-109 l0,-95 c15,-1,31,-1,45,0 l0,99 c106,9,203,64,203,178 Z M396,141 c0,-63,-47,-100,-108,-108 l0,218 c63,-24,108,-50,108,-110 Z M142,479 c0,52,37,86,101,95 l0,-199 c-60,23,-101,51,-101,104 Z M142,479" fill="rgb(0,0,0)" transform="matrix(1,0,0,-1,641,1091)"/>
</svg>