<?xml version="1.0" encoding="UTF-8"?>
<svg height="1521" version="1.1" width="2238.75" xmlns="http://www.w3.org/2000/svg" xmlns:xlink="http://www.w3.org/1999/xlink">
 <path d="M0,0 l2238.75,0 l0,1521 l-2238.75,0 Z M0,0" fill="rgb(255,255,255)" transform="matrix(1,0,0,-1,0,1521)"/>
 <path d="M0,0 l2238.75,0" fill="none" stroke="rgb(229,229,229)" stroke-width="10" transform="matrix(1,0,0,-1,0,1091)"/>
 <path d="M0,5 l0,-25" fill="none" stroke="rgb(204,204,204)" stroke-width="10" transform="matrix(1,0,0,-1,641,1091)"/>
 <path d="M0,5 l0,-25" fill="none" stroke="rgb(204,204,204)" stroke-width="10" transform="matrix(1,0,0,-1,1196,1091)"/>
 <path d="M50,302 c-1,-14,-1,-27,0,-44 l81,0 c1,-11,2,-19,2,-31 c0,-67,-21,-136,-108,-199 c0,-10,1,-18,4,-28 c30,1,91,1,171,1 c84,0,196,0,282,-2 c10,53,23,113,38,169 c-10,4,-22,5,-31,5 c-42,-82,-51,-85,-102,-87 c-79,-2,-181,-2,-254,-2 l-1,3 c66,58,86,113,88,171 l187,0 c1,17,1,30,0,44 l-187,0 c-5,52,-23,109,-23,159 c0,82,47,130,117,130 c22,0,39,-5,57,-16 c0,-56,31,-92,68,-92 c30,0,49,23,49,50 c0,43,-53,97,-161,97 c-111,0,-229,-58,-229,-180 c0,-46,17,-107,26,-148 Z M50,302" fill="rgb(0,0,0)" transform="matrix(1,0,0,-1,641,1091)"/>
</svg>