<?xml version="1.0" encoding="UTF-8"?>
<svg height="1521" version="1.1" width="2238.75" xmlns="http://www.w3.org/2000/svg" xmlns:xlink="http://www.w3.org/1999/xlink">
 <path d="M0,0 l2238.75,0 l0,1521 l-2238.75,0 Z M0,0" fill="rgb(255,255,255)" transform="matrix(1,0,0,-1,0,1521)"/>
 <path d="M0,0 l2238.75,0" fill="none" stroke="rgb(229,229,229)" stroke-width="10" transform="matrix(1,0,0,-1,0,1091)"/>
 <path d="M0,5 l0,-25" fill="none" stroke="rgb(204,204,204)" stroke-width="10" transform="matrix(1,0,0,-1,641,1091)"/>
 <path d="M0,5 l0,-25" fill="none" stroke="rgb(204,204,204)" stroke-width="10" transform="matrix(1,0,0,-1,1194,1091)"/>
 <path d="M66,196 c-1,-15,-1,-29,0,-44 l159,0 l0,-38 c0,-75,-4,-73,-102,-83 c-1,-10,-1,-20,0,-32 c45,0,89,2,153,2 c60,0,117,-2,154,-2 c1,12,1,22,0,32 c-100,9,-103,10,-103,96 l0,25 l157,0 c2,15,2,29,0,44 l-157,0 l0,72 l157,0 c2,15,2,30,0,44 l-139,0 l92,163 c56,98,65,104,140,115 c1,11,1,21,0,32 c-42,0,-72,-2,-114,-2 c-36,0,-72,2,-127,2 c-2,-10,-2,-19,0,-32 c61,-9,86,-12,86,-31 c0,-12,-8,-27,-20,-50 l-96,-180 l-98,181 c-13,23,-21,40,-21,52 c0,17,19,23,71,28 c2,13,2,22,0,32 c-47,0,-92,-2,-130,-2 c-49,0,-99,2,-145,2 c-3,-11,-3,-21,0,-32 c74,-11,75,-15,126,-108 l93,-170 l-136,0 c-1,-14,-1,-29,0,-44 l159,0 l0,-72 Z M66,196" fill="rgb(0,0,0)" transform="matrix(1,0,0,-1,641,1091)"/>
</svg>