<?xml version="1.0" encoding="UTF-8"?>
<svg height="1521" version="1.1" width="2238.75" xmlns="http://www.w3.org/2000/svg" xmlns:xlink="http://www.w3.org/1999/xlink">
 <path d="M0,0 l2238.75,0 l0,1521 l-2238.75,0 Z M0,0" fill="rgb(255,255,255)" transform="matrix(1,0,0,-1,0,1521)"/>
 <path d="M0,0 l2238.75,0" fill="none" stroke="rgb(229,229,229)" stroke-width="10" transform="matrix(1,0,0,-1,0,1091)"/>
 <path d="M0,5 l0,-25" fill="none" stroke="rgb(204,204,204)" stroke-width="10" transform="matrix(1,0,0,-1,641,1091)"/>
 <path d="M0,5 l0,-25" fill="none" stroke="rgb(204,204,204)" stroke-width="10" transform="matrix(1,0,0,-1,1114,1091)"/>
 <path d="M337,331 c2,16,2,31,0,46 l-125,0 l0,60 c0,108,28,150,91,150 c13,0,23,-2,32,-5 c0,-38,28,-82,76,-82 c32,0,52,21,52,52 c0,57,-69,78,-129,78 c-54,0,-113,-17,-152,-51 c-60,-52,-69,-118,-71,-163 c-2,-41,-10,-46,-84,-58 c-2,-8,-2,-17,0,-27 l84,0 c0,-54,1,-298,1,-367 c0,-38,-1,-150,-44,-169 c-16,32,-44,47,-73,47 c-36,0,-55,-22,-55,-46 c0,-24,21,-51,72,-51 c50,0,101,25,141,69 c45,49,61,100,61,233 c0,32,-1,219,-2,284 Z M337,331" fill="rgb(0,0,0)" transform="matrix(1,0,0,-1,641,1091)"/>
</svg>