<?xml version="1.0" encoding="UTF-8"?>
<svg height="1521" version="1.1" width="2238.75" xmlns="http://www.w3.org/2000/svg" xmlns:xlink="http://www.w3.org/1999/xlink">
 <path d="M0,0 l2238.75,0 l0,1521 l-2238.75,0 Z M0,0" fill="rgb(255,255,255)" transform="matrix(1,0,0,-1,0,1521)"/>
 <path d="M0,0 l2238.75,0" fill="none" stroke="rgb(229,229,229)" stroke-width="10" transform="matrix(1,0,0,-1,0,1091)"/>
 <path d="M0,5 l0,-25" fill="none" stroke="rgb(204,204,204)" stroke-width="10" transform="matrix(1,0,0,-1,641,1091)"/>
 <path d="M0,5 l0,-25" fill="none" stroke="rgb(204,204,204)" stroke-width="10" transform="matrix(1,0,0,-1,1246,1091)"/>
 <path d="M290,0 l59,0 l46,185 l131,0 l0,57 l-117,0 l34,138 l117,0 l0,57 l-103,0 l46,183 l-58,0 l-46,-183 l-131,0 l45,183 l-57,0 l-46,-183 l-130,0 l0,-57 l116,0 l-34,-138 l-117,0 l0,-57 l103,0 l-46,-185 l60,0 l45,185 l129,0 Z M254,380 l131,0 l-35,-138 l-129,0 Z M254,380" fill="rgb(0,0,0)" transform="matrix(1,0,0,-1,641,1091)"/>
</svg>