<?xml version="1.0" encoding="UTF-8"?>
<svg height="1521" version="1.1" width="2238.75" xmlns="http://www.w3.org/2000/svg" xmlns:xlink="http://www.w3.org/1999/xlink">
 <path d="M0,0 l2238.75,0 l0,1521 l-2238.75,0 Z M0,0" fill="rgb(255,255,255)" transform="matrix(1,0,0,-1,0,1521)"/>
 <path d="M0,0 l2238.75,0" fill="none" stroke="rgb(229,229,229)" stroke-width="10" transform="matrix(1,0,0,-1,0,1091)"/>
 <path d="M0,5 l0,-25" fill="none" stroke="rgb(204,204,204)" stroke-width="10" transform="matrix(1,0,0,-1,641,1091)"/>
 <path d="M0,5 l0,-25" fill="none" stroke="rgb(204,204,204)" stroke-width="10" transform="matrix(1,0,0,-1,1204,1091)"/>
 <path d="M279,591 c107,0,139,-149,139,-292 c0,-145,-32,-273,-131,-273 c-106,0,-139,152,-139,295 c0,141,32,270,131,270 Z M523,314 c0,167,-66,316,-235,316 c-171,0,-246,-155,-246,-327 c0,-180,82,-315,238,-315 c159,0,243,138,243,326 Z M523,314" fill="rgb(0,0,0)" transform="matrix(1,0,0,-1,641,1091)"/>
</svg>