<?xml version="1.0" encoding="UTF-8"?>
<svg height="1521" version="1.1" width="2238.75" xmlns="http://www.w3.org/2000/svg" xmlns:xlink="http://www.w3.org/1999/xlink">
 <path d="M0,0 l2238.75,0 l0,1521 l-2238.75,0 Z M0,0" fill="rgb(255,255,255)" transform="matrix(1,0,0,-1,0,1521)"/>
 <path d="M0,0 l2238.75,0" fill="none" stroke="rgb(229,229,229)" stroke-width="10" transform="matrix(1,0,0,-1,0,1091)"/>
 <path d="M0,5 l0,-25" fill="none" stroke="rgb(204,204,204)" stroke-width="10" transform="matrix(1,0,0,-1,641,1091)"/>
 <path d="M0,5 l0,-25" fill="none" stroke="rgb(204,204,204)" stroke-width="10" transform="matrix(1,0,0,-1,1013,1091)"/>
 <path d="M346,-1 c2,12,2,20,0,32 c-97,8,-99,9,-99,94 l0,367 c0,56,10,97,27,117 c-4,10,-9,16,-16,23 c-83,-35,-143,-57,-241,-82 c1,-12,3,-21,7,-32 c44,9,77,13,92,13 c26,0,29,-10,29,-43 l0,-373 c0,-72,-1,-75,-96,-84 c-2,-10,-2,-20,0,-32 c41,0,75,3,152,3 c79,0,110,-3,145,-3 Z M346,-1" fill="rgb(0,0,0)" transform="matrix(1,0,0,-1,641,1091)"/>
</svg>