<?xml version="1.0" encoding="UTF-8"?>
<svg height="1521" version="1.1" width="2238.75" xmlns="http://www.w3.org/2000/svg" xmlns:xlink="http://www.w3.org/1999/xlink">
 <path d="M0,0 l2238.75,0 l0,1521 l-2238.75,0 Z M0,0" fill="rgb(255,255,255)" transform="matrix(1,0,0,-1,0,1521)"/>
 <path d="M0,0 l2238.75,0" fill="none" stroke="rgb(229,229,229)" stroke-width="10" transform="matrix(1,0,0,-1,0,1091)"/>
 <path d="M0,5 l0,-25" fill="none" stroke="rgb(204,204,204)" stroke-width="10" transform="matrix(1,0,0,-1,641,1091)"/>
 <path d="M0,5 l0,-25" fill="none" stroke="rgb(204,204,204)" stroke-width="10" transform="matrix(1,0,0,-1,1171,1091)"/>
 <path d="M61,513 c41,30,91,49,141,49 c73,0,131,-42,131,-126 c0,-99,-72,-221,-313,-409 c0,-10,1,-17,5,-27 c28,1,80,1,156,1 c79,0,185,0,267,-2 c10,53,23,114,39,170 c-10,4,-23,5,-31,5 c-42,-82,-51,-83,-104,-85 c-2,0,-96,-3,-205,-3 c184,159,294,265,294,383 c0,99,-93,161,-196,161 c-75,0,-146,-31,-203,-93 c5,-9,13,-16,19,-24 Z M61,513" fill="rgb(0,0,0)" transform="matrix(1,0,0,-1,641,1091)"/>
</svg>