<?xml version="1.0" encoding="UTF-8"?>
<svg height="1521" version="1.1" width="2238.75" xmlns="http://www.w3.org/2000/svg" xmlns:xlink="http://www.w3.org/1999/xlink">
 <path d="M0,0 l2238.75,0 l0,1521 l-2238.75,0 Z M0,0" fill="rgb(255,255,255)" transform="matrix(1,0,0,-1,0,1521)"/>
 <path d="M0,0 l2238.75,0" fill="none" stroke="rgb(229,229,229)" stroke-width="10" transform="matrix(1,0,0,-1,0,1091)"/>
 <path d="M0,5 l0,-25" fill="none" stroke="rgb(204,204,204)" stroke-width="10" transform="matrix(1,0,0,-1,641,1091)"/>
 <path d="M0,5 l0,-25" fill="none" stroke="rgb(204,204,204)" stroke-width="10" transform="matrix(1,0,0,-1,1164,1091)"/>
 <path d="M149,224 c20,5,41,8,62,8 c112,0,166,-84,166,-164 c0,-90,-65,-171,-173,-171 c-12,0,-26,1,-39,3 c-17,68,-53,106,-94,106 c-30,0,-51,-22,-51,-49 c0,-42,53,-96,167,-96 c145,0,292,83,292,236 c0,99,-62,171,-180,191 c90,54,132,131,132,196 c0,78,-62,146,-184,146 c-80,0,-144,-28,-202,-93 c3,-8,9,-15,17,-24 c41,31,90,49,140,49 c84,0,124,-52,124,-114 c0,-71,-54,-153,-187,-194 c2,-11,4,-20,10,-30 Z M149,224" fill="rgb(0,0,0)" transform="matrix(1,0,0,-1,641,1091)"/>
</svg>