<?xml version="1.0" encoding="UTF-8"?>
<svg height="1521" version="1.1" width="2238.75" xmlns="http://www.w3.org/2000/svg" xmlns:xlink="http://www.w3.org/1999/xlink">
 <path d="M0,0 l2238.75,0 l0,1521 l-2238.75,0 Z M0,0" fill="rgb(255,255,255)" transform="matrix(1,0,0,-1,0,1521)"/>
 <path d="M0,0 l2238.75,0" fill="none" stroke="rgb(229,229,229)" stroke-width="10" transform="matrix(1,0,0,-1,0,1091)"/>
 <path d="M0,5 l0,-25" fill="none" stroke="rgb(204,204,204)" stroke-width="10" transform="matrix(1,0,0,-1,641,1091)"/>
 <path d="M0,5 l0,-25" fill="none" stroke="rgb(204,204,204)" stroke-width="10" transform="matrix(1,0,0,-1,1222,1091)"/>
 <path d="M551,109 c2,24,4,51,5,78 l-111,0 l0,342 c0,19,0,40,2,91 c-23,4,-50,6,-77,6 c-121,-153,-234,-302,-350,-461 c0,-18,1,-38,3,-56 l322,0 l0,-225 c15,-1,34,-1,50,-1 c17,0,34,0,50,1 l0,225 Z M345,187 l-256,0 c84,117,165,227,256,342 Z M345,187" fill="rgb(0,0,0)" transform="matrix(1,0,0,-1,641,1091)"/>
</svg>