<?xml version="1.0" encoding="UTF-8"?>
<svg height="1521" version="1.1" width="2238.75" xmlns="http://www.w3.org/2000/svg" xmlns:xlink="http://www.w3.org/1999/xlink">
 <path d="M0,0 l2238.75,0 l0,1521 l-2238.75,0 Z M0,0" fill="rgb(255,255,255)" transform="matrix(1,0,0,-1,0,1521)"/>
 <path d="M0,0 l2238.75,0" fill="none" stroke="rgb(229,229,229)" stroke-width="10" transform="matrix(1,0,0,-1,0,1091)"/>
 <path d="M0,5 l0,-25" fill="none" stroke="rgb(204,204,204)" stroke-width="10" transform="matrix(1,0,0,-1,641,1091)"/>
 <path d="M0,5 l0,-25" fill="none" stroke="rgb(204,204,204)" stroke-width="10" transform="matrix(1,0,0,-1,1180,1091)"/>
 <path d="M60,551 c0,-89,60,-140,128,-181 l0,-2 c-80,-41,-157,-99,-157,-195 c0,-101,82,-185,226,-185 c155,0,251,94,251,207 c0,102,-77,153,-160,198 l0,2 c60,33,134,91,134,179 c0,85,-71,170,-201,170 c-134,0,-221,-86,-221,-193 Z M138,181 c0,79,36,133,84,169 c88,-53,182,-84,182,-187 c0,-71,-45,-139,-133,-139 c-90,0,-133,73,-133,157 Z M273,708 c76,0,107,-68,107,-144 c0,-78,-34,-127,-68,-151 c-87,45,-151,80,-151,165 c0,69,40,130,112,130 Z M273,708" fill="rgb(0,0,0)" transform="matrix(1,0,0,-1,641,1091)"/>
</svg>