<?xml version="1.0" encoding="UTF-8"?>
<svg height="1521" version="1.1" width="2238.75" xmlns="http://www.w3.org/2000/svg" xmlns:xlink="http://www.w3.org/1999/xlink">
 <path d="M0,0 l2238.75,0 l0,1521 l-2238.75,0 Z M0,0" fill="rgb(255,255,255)" transform="matrix(1,0,0,-1,0,1521)"/>
 <path d="M0,0 l2238.75,0" fill="none" stroke="rgb(229,229,229)" stroke-width="10" transform="matrix(1,0,0,-1,0,1091)"/>
 <path d="M0,5 l0,-25" fill="none" stroke="rgb(204,204,204)" stroke-width="10" transform="matrix(1,0,0,-1,641,1091)"/>
 <path d="M0,5 l0,-25" fill="none" stroke="rgb(204,204,204)" stroke-width="10" transform="matrix(1,0,0,-1,1376,1091)"/>
 <path d="M272,336 c1,8,1,16,0,24 c-75,7,-75,9,-75,64 l0,173 c0,46,7,71,19,85 c-3,7,-7,13,-12,17 c-62,-24,-115,-43,-181,-63 c1,-8,3,-16,7,-23 c41,11,64,14,75,14 c13,0,16,-4,16,-27 l0,-183 c0,-48,0,-51,-79,-57 c-1,-8,-1,-16,0,-24 c39,0,71,2,116,2 c44,0,77,-2,114,-2 Z M617,662 c-11,10,-23,18,-35,26 l-471,-671 c11,-10,23,-19,35,-26 Z M566,-3 c11,-1,25,-2,36,-2 c11,0,26,1,38,2 l0,104 l68,0 c2,16,4,38,4,55 l-72,0 l0,140 c0,14,0,27,1,57 c-15,4,-39,6,-57,6 c-68,-74,-130,-147,-191,-224 c0,-11,0,-23,2,-34 l171,0 Z M566,156 l-121,0 c39,48,76,94,121,141 Z M566,156" fill="rgb(0,0,0)" transform="matrix(1,0,0,-1,641,1091)"/>
</svg>