<?xml version="1.0" encoding="UTF-8"?>
<svg height="1521" version="1.1" width="2238.75" xmlns="http://www.w3.org/2000/svg" xmlns:xlink="http://www.w3.org/1999/xlink">
 <path d="M0,0 l2238.75,0 l0,1521 l-2238.75,0 Z M0,0" fill="rgb(255,255,255)" transform="matrix(1,0,0,-1,0,1521)"/>
 <path d="M0,0 l2238.75,0" fill="none" stroke="rgb(229,229,229)" stroke-width="10" transform="matrix(1,0,0,-1,0,1091)"/>
 <path d="M0,5 l0,-25" fill="none" stroke="rgb(204,204,204)" stroke-width="10" transform="matrix(1,0,0,-1,641,1091)"/>
 <path d="M0,5 l0,-25" fill="none" stroke="rgb(204,204,204)" stroke-width="10" transform="matrix(1,0,0,-1,1363,1091)"/>
 <path d="M457,284 c21,18,45,25,70,25 c37,0,68,-17,68,-62 c0,-53,-42,-124,-170,-226 c0,-7,1,-15,4,-21 c15,1,49,1,93,1 c47,0,104,0,151,-2 c8,38,16,80,26,121 c-7,3,-16,3,-22,3 c-33,-60,-37,-59,-76,-61 c-27,-1,-58,-1,-91,-1 c103,92,163,155,163,214 c0,53,-48,87,-111,87 c-46,0,-86,-21,-120,-60 c3,-6,8,-12,15,-18 Z M617,662 c-11,10,-23,18,-35,26 l-471,-671 c11,-10,23,-19,35,-26 Z M272,336 c1,8,1,16,0,24 c-75,7,-75,9,-75,64 l0,173 c0,46,7,71,19,85 c-3,7,-7,13,-12,17 c-62,-24,-115,-43,-181,-63 c1,-8,3,-16,7,-23 c41,11,64,14,75,14 c13,0,16,-4,16,-27 l0,-183 c0,-48,0,-51,-79,-57 c-1,-8,-1,-16,0,-24 c39,0,71,2,116,2 c44,0,77,-2,114,-2 Z M272,336" fill="rgb(0,0,0)" transform="matrix(1,0,0,-1,641,1091)"/>
</svg>