<?xml version="1.0" encoding="UTF-8"?>
<svg height="1521" version="1.1" width="2238.75" xmlns="http://www.w3.org/2000/svg" xmlns:xlink="http://www.w3.org/1999/xlink">
 <path d="M0,0 l2238.75,0 l0,1521 l-2238.75,0 Z M0,0" fill="rgb(255,255,255)" transform="matrix(1,0,0,-1,0,1521)"/>
 <path d="M0,0 l2238.75,0" fill="none" stroke="rgb(229,229,229)" stroke-width="10" transform="matrix(1,0,0,-1,0,1091)"/>
 <path d="M0,5 l0,-25" fill="none" stroke="rgb(204,204,204)" stroke-width="10" transform="matrix(1,0,0,-1,641,1091)"/>
 <path d="M0,5 l0,-25" fill="none" stroke="rgb(204,204,204)" stroke-width="10" transform="matrix(1,0,0,-1,1386,1091)"/>
 <path d="M115,496 c10,4,21,5,31,5 c47,0,77,-35,77,-74 c0,-47,-31,-70,-72,-70 c-9,0,-16,2,-25,5 c-10,46,-42,68,-64,68 c-19,0,-32,-14,-32,-32 c0,-39,53,-69,117,-69 c69,0,149,36,149,114 c0,49,-34,86,-104,92 c53,25,78,61,78,92 c0,39,-38,72,-102,72 c-48,0,-86,-20,-122,-59 c5,-7,10,-14,16,-20 c22,20,48,26,72,26 c36,0,63,-16,63,-47 c0,-32,-28,-62,-91,-78 c2,-8,3,-16,9,-25 Z M628,662 c-12,10,-23,18,-36,26 l-470,-671 c11,-10,22,-19,35,-26 Z M576,-3 c11,-1,25,-2,36,-2 c11,0,26,1,38,2 l0,104 l68,0 c2,16,4,38,4,55 l-72,0 l0,140 c0,14,0,27,1,57 c-15,4,-39,6,-57,6 c-68,-74,-130,-147,-191,-224 c0,-11,0,-23,2,-34 l171,0 Z M576,156 l-121,0 c39,48,76,94,121,141 Z M576,156" fill="rgb(0,0,0)" transform="matrix(1,0,0,-1,641,1091)"/>
</svg>