<?xml version="1.0" encoding="UTF-8"?>
<svg height="1521" version="1.1" width="2238.75" xmlns="http://www.w3.org/2000/svg" xmlns:xlink="http://www.w3.org/1999/xlink">
 <path d="M0,0 l2238.75,0 l0,1521 l-2238.75,0 Z M0,0" fill="rgb(255,255,255)" transform="matrix(1,0,0,-1,0,1521)"/>
 <path d="M0,0 l2238.75,0" fill="none" stroke="rgb(229,229,229)" stroke-width="10" transform="matrix(1,0,0,-1,0,1091)"/>
 <path d="M0,5 l0,-25" fill="none" stroke="rgb(204,204,204)" stroke-width="10" transform="matrix(1,0,0,-1,641,1091)"/>
 <path d="M0,5 l0,-25" fill="none" stroke="rgb(204,204,204)" stroke-width="10" transform="matrix(1,0,0,-1,1445,1091)"/>
 <path d="M184,671 c62,0,81,-79,81,-166 c0,-87,-19,-148,-79,-148 c-63,0,-81,79,-81,166 c0,86,16,148,79,148 Z M341,514 c0,104,-43,185,-156,185 c-105,0,-157,-81,-157,-185 c0,-113,54,-185,157,-185 c99,0,156,70,156,185 Z M655,662 c-12,10,-23,18,-36,26 l-470,-671 c12,-10,23,-19,35,-26 Z M619,334 c62,0,81,-79,81,-166 c0,-87,-19,-148,-79,-148 c-63,0,-81,79,-81,166 c0,86,16,148,79,148 Z M776,177 c0,104,-43,185,-156,185 c-105,0,-157,-81,-157,-185 c0,-113,54,-185,157,-185 c99,0,156,70,156,185 Z M776,177" fill="rgb(0,0,0)" transform="matrix(1,0,0,-1,641,1091)"/>
</svg>