<?xml version="1.0" encoding="UTF-8"?>
<svg height="1521" version="1.1" width="2238.75" xmlns="http://www.w3.org/2000/svg" xmlns:xlink="http://www.w3.org/1999/xlink">
 <path d="M0,0 l2238.75,0 l0,1521 l-2238.75,0 Z M0,0" fill="rgb(255,255,255)" transform="matrix(1,0,0,-1,0,1521)"/>
 <path d="M0,0 l2238.75,0" fill="none" stroke="rgb(229,229,229)" stroke-width="10" transform="matrix(1,0,0,-1,0,1091)"/>
 <path d="M0,5 l0,-25" fill="none" stroke="rgb(204,204,204)" stroke-width="10" transform="matrix(1,0,0,-1,641,1091)"/>
 <path d="M0,5 l0,-25" fill="none" stroke="rgb(204,204,204)" stroke-width="10" transform="matrix(1,0,0,-1,1222,1091)"/>
 <path d="M318,316 l0,161 c-14,1,-41,1,-55,0 l0,-161 l-211,0 c-2,-16,-2,-40,0,-55 l211,0 l0,-151 c14,-1,41,-1,55,0 l0,151 l211,0 c1,15,1,39,0,55 Z M52,56 c-2,-16,-2,-40,0,-55 l477,0 c1,15,1,39,0,55 Z M52,56" fill="rgb(0,0,0)" transform="matrix(1,0,0,-1,641,1091)"/>
</svg>