<?xml version="1.0" encoding="UTF-8"?>
<svg height="1521" version="1.1" width="2238.75" xmlns="http://www.w3.org/2000/svg" xmlns:xlink="http://www.w3.org/1999/xlink">
 <path d="M0,0 l2238.75,0 l0,1521 l-2238.75,0 Z M0,0" fill="rgb(255,255,255)" transform="matrix(1,0,0,-1,0,1521)"/>
 <path d="M0,0 l2238.75,0" fill="none" stroke="rgb(229,229,229)" stroke-width="10" transform="matrix(1,0,0,-1,0,1091)"/>
 <path d="M0,5 l0,-25" fill="none" stroke="rgb(204,204,204)" stroke-width="10" transform="matrix(1,0,0,-1,641,1091)"/>
 <path d="M0,5 l0,-25" fill="none" stroke="rgb(204,204,204)" stroke-width="10" transform="matrix(1,0,0,-1,1222,1091)"/>
 <path d="M234,402 c0,-29,26,-54,55,-54 c33,0,56,26,56,54 c0,29,-23,55,-56,55 c-30,0,-55,-25,-55,-55 Z M234,75 c0,-31,25,-55,55,-55 c33,0,56,25,56,55 c0,28,-23,54,-56,54 c-29,0,-55,-25,-55,-54 Z M52,266 c-2,-16,-2,-40,0,-55 l477,0 c1,15,1,39,0,55 Z M52,266" fill="rgb(0,0,0)" transform="matrix(1,0,0,-1,641,1091)"/>
</svg>