<?xml version="1.0" encoding="UTF-8"?>
<svg height="1521" version="1.1" width="2238.75" xmlns="http://www.w3.org/2000/svg" xmlns:xlink="http://www.w3.org/1999/xlink">
 <path d="M0,0 l2238.75,0 l0,1521 l-2238.75,0 Z M0,0" fill="rgb(255,255,255)" transform="matrix(1,0,0,-1,0,1521)"/>
 <path d="M0,0 l2238.75,0" fill="none" stroke="rgb(229,229,229)" stroke-width="10" transform="matrix(1,0,0,-1,0,1091)"/>
 <path d="M0,5 l0,-25" fill="none" stroke="rgb(204,204,204)" stroke-width="10" transform="matrix(1,0,0,-1,641,1091)"/>
 <path d="M0,5 l0,-25" fill="none" stroke="rgb(204,204,204)" stroke-width="10" transform="matrix(1,0,0,-1,1031,1091)"/>
 <path d="M373,357 c-20,-7,-36,-10,-46,-10 c-16,0,-23,9,-23,26 c0,14,3,158,3,181 c0,48,-37,76,-99,76 c-73,0,-158,-40,-158,-85 c0,-18,15,-31,34,-31 c31,0,56,30,56,73 c9,5,23,7,34,7 c34,0,56,-17,56,-44 c0,-20,-1,-58,-1,-59 c-127,-12,-189,-50,-189,-114 c0,-49,35,-79,86,-79 c37,0,70,17,102,52 c9,-34,29,-51,65,-51 c29,0,60,12,87,42 c-1,5,-3,10,-7,16 Z M227,372 c-27,-17,-45,-24,-63,-24 c-26,0,-42,15,-42,43 c0,58,61,68,107,72 Z M346,200 c1,12,1,24,0,37 l-293,0 c-1,-13,-1,-25,0,-37 Z M346,200" fill="rgb(0,0,0)" transform="matrix(1,0,0,-1,641,1091)"/>
</svg>