<?xml version="1.0" encoding="UTF-8"?>
<svg height="1521" version="1.1" width="2238.75" xmlns="http://www.w3.org/2000/svg" xmlns:xlink="http://www.w3.org/1999/xlink">
 <path d="M0,0 l2238.75,0 l0,1521 l-2238.75,0 Z M0,0" fill="rgb(255,255,255)" transform="matrix(1,0,0,-1,0,1521)"/>
 <path d="M0,0 l2238.75,0" fill="none" stroke="rgb(229,229,229)" stroke-width="10" transform="matrix(1,0,0,-1,0,1091)"/>
 <path d="M0,5 l0,-25" fill="none" stroke="rgb(204,204,204)" stroke-width="10" transform="matrix(1,0,0,-1,641,1091)"/>
 <path d="M0,5 l0,-25" fill="none" stroke="rgb(204,204,204)" stroke-width="10" transform="matrix(1,0,0,-1,1104,1091)"/>
 <path d="M50,449 c0,-100,82,-182,181,-182 c99,0,182,83,182,182 c0,99,-82,181,-182,181 c-100,0,-181,-81,-181,-181 Z M106,449 c0,70,54,129,125,129 c72,0,126,-57,126,-129 c0,-73,-55,-130,-126,-130 c-70,0,-125,59,-125,130 Z M106,449" fill="rgb(0,0,0)" transform="matrix(1,0,0,-1,641,1091)"/>
</svg>