<?xml version="1.0" encoding="UTF-8"?>
<svg height="1521" version="1.1" width="2238.75" xmlns="http://www.w3.org/2000/svg" xmlns:xlink="http://www.w3.org/1999/xlink">
 <path d="M0,0 l2238.75,0 l0,1521 l-2238.75,0 Z M0,0" fill="rgb(255,255,255)" transform="matrix(1,0,0,-1,0,1521)"/>
 <path d="M0,0 l2238.75,0" fill="none" stroke="rgb(229,229,229)" stroke-width="10" transform="matrix(1,0,0,-1,0,1091)"/>
 <path d="M0,5 l0,-25" fill="none" stroke="rgb(204,204,204)" stroke-width="10" transform="matrix(1,0,0,-1,641,1091)"/>
 <path d="M0,5 l0,-25" fill="none" stroke="rgb(204,204,204)" stroke-width="10" transform="matrix(1,0,0,-1,1228,1091)"/>
 <path d="M369,212 c-33,-69,-77,-124,-142,-124 c-74,0,-81,66,-81,122 c29,78,63,175,63,231 c0,12,-65,38,-90,38 c-19,0,-25,-97,-25,-173 c0,-34,1,-64,4,-81 c-18,-63,-51,-198,-51,-308 c0,-70,18,-172,82,-172 c22,0,47,10,67,27 c-59,79,-82,161,-82,250 c0,27,2,56,6,81 l3,1 c13,-54,48,-116,111,-116 c65,0,110,72,140,134 c13,-89,48,-131,106,-131 c58,0,92,48,92,98 c0,10,-2,20,-5,32 l-6,2 c-15,-26,-42,-39,-76,-39 c-52,0,-80,37,-80,80 c0,5,1,8,1,13 c31,56,85,187,85,260 c0,12,-70,39,-90,39 c-16,0,-32,-157,-32,-246 Z M369,212" fill="rgb(0,0,0)" transform="matrix(1,0,0,-1,641,1091)"/>
</svg>