<?xml version="1.0" encoding="UTF-8"?>
<svg height="1521" version="1.1" width="2238.75" xmlns="http://www.w3.org/2000/svg" xmlns:xlink="http://www.w3.org/1999/xlink">
 <path d="M0,0 l2238.75,0 l0,1521 l-2238.75,0 Z M0,0" fill="rgb(255,255,255)" transform="matrix(1,0,0,-1,0,1521)"/>
 <path d="M0,0 l2238.75,0" fill="none" stroke="rgb(229,229,229)" stroke-width="10" transform="matrix(1,0,0,-1,0,1091)"/>
 <path d="M0,-20 l0,40" fill="none" stroke="rgb(255,76,25)" stroke-width="10" transform="matrix(1,0,0,-1,641,1091)"/>
 <path d="M123,868 l-19,20 l-104,-98 l-104,98 l-19,-20 l86,-83 l-86,-82 l19,-21 l104,98 l104,-98 l19,21 l-87,82 Z M-13,717 l0,-979 l26,0 l0,979 Z M-13,717" fill="rgb(0,0,0)" transform="matrix(1,0,0,-1,641,1091)"/>
</svg>