<?xml version="1.0" encoding="UTF-8"?>
<svg height="1521" version="1.1" width="2238.75" xmlns="http://www.w3.org/2000/svg" xmlns:xlink="http://www.w3.org/1999/xlink">
 <path d="M0,0 l2238.75,0 l0,1521 l-2238.75,0 Z M0,0" fill="rgb(255,255,255)" transform="matrix(1,0,0,-1,0,1521)"/>
 <path d="M0,0 l2238.75,0" fill="none" stroke="rgb(229,229,229)" stroke-width="10" transform="matrix(1,0,0,-1,0,1091)"/>
 <path d="M0,5 l0,-25" fill="none" stroke="rgb(204,204,204)" stroke-width="10" transform="matrix(1,0,0,-1,641,1091)"/>
 <path d="M0,5 l0,-25" fill="none" stroke="rgb(204,204,204)" stroke-width="10" transform="matrix(1,0,0,-1,1365,1091)"/>
 <path d="M40,309 c0,-28,15,-43,44,-43 c28,0,42,15,42,43 c0,28,-14,43,-42,43 c-29,0,-44,-15,-44,-43 Z M599,309 c0,-28,13,-43,41,-43 c30,0,44,15,44,43 c0,28,-14,43,-44,43 c-28,0,-41,-15,-41,-43 Z M319,587 c0,-27,15,-40,43,-40 c28,0,43,13,43,40 c0,29,-15,43,-43,43 c-28,0,-43,-14,-43,-43 Z M319,30 c0,-28,15,-42,43,-42 c28,0,43,14,43,42 c0,29,-15,43,-43,43 c-28,0,-43,-14,-43,-43 Z M563,448 c0,-27,14,-42,42,-42 c28,0,43,15,43,42 c0,29,-15,43,-43,43 c-28,0,-42,-14,-42,-43 Z M563,169 c0,-28,14,-42,42,-42 c28,0,43,14,43,42 c0,29,-15,43,-43,43 c-28,0,-42,-14,-42,-43 Z M77,448 c0,-27,14,-42,42,-42 c29,0,43,15,43,42 c0,29,-14,43,-43,43 c-28,0,-42,-14,-42,-43 Z M77,169 c0,-28,14,-42,42,-42 c29,0,43,14,43,42 c0,29,-14,43,-43,43 c-28,0,-42,-14,-42,-43 Z M180,552 c0,-29,14,-43,43,-43 c28,0,43,14,43,43 c0,28,-15,42,-43,42 c-29,0,-43,-14,-43,-42 Z M459,552 c0,-29,14,-43,42,-43 c30,0,44,14,44,43 c0,28,-14,42,-44,42 c-28,0,-42,-14,-42,-42 Z M180,66 c0,-28,14,-42,43,-42 c28,0,43,14,43,42 c0,29,-15,43,-43,43 c-29,0,-43,-14,-43,-43 Z M459,66 c0,-28,14,-42,42,-42 c30,0,44,14,44,42 c0,29,-14,43,-44,43 c-28,0,-42,-14,-42,-43 Z M459,66" fill="rgb(0,0,0)" transform="matrix(1,0,0,-1,641,1091)"/>
</svg>