<?xml version="1.0" encoding="UTF-8"?>
<svg height="1521" version="1.1" width="2238.75" xmlns="http://www.w3.org/2000/svg" xmlns:xlink="http://www.w3.org/1999/xlink">
 <path d="M0,0 l2238.75,0 l0,1521 l-2238.75,0 Z M0,0" fill="rgb(255,255,255)" transform="matrix(1,0,0,-1,0,1521)"/>
 <path d="M0,0 l2238.75,0" fill="none" stroke="rgb(229,229,229)" stroke-width="10" transform="matrix(1,0,0,-1,0,1091)"/>
 <path d="M0,5 l0,-25" fill="none" stroke="rgb(204,204,204)" stroke-width="10" transform="matrix(1,0,0,-1,641,1091)"/>
 <path d="M0,5 l0,-25" fill="none" stroke="rgb(204,204,204)" stroke-width="10" transform="matrix(1,0,0,-1,1414,1091)"/>
 <path d="M-1,509 c88,-297,225,-414,355,-414 c74,0,135,38,166,97 c70,-51,126,-137,146,-208 l27,-17 l11,0 c-5,101,-6,165,-6,241 l0,344 l85,0 l0,8 l-60,60 l-773,0 l0,-8 l60,-60 l196,0 c31,-7,61,-27,80,-50 c-58,-11,-85,-53,-85,-94 c0,-46,39,-93,96,-93 c42,0,82,25,82,81 c0,13,-3,29,-10,43 c81,-1,112,-63,112,-113 c0,-63,-44,-136,-144,-136 c-100,0,-209,74,-298,310 l-30,9 Z M311,552 l309,0 l0,-133 c0,-146,1,-218,10,-267 l-3,-2 c-25,39,-52,68,-88,101 c3,11,4,21,4,32 c0,96,-72,215,-204,222 c-12,22,-20,35,-28,47 Z M311,552" fill="rgb(0,0,0)" transform="matrix(1,0,0,-1,641,1091)"/>
</svg>