<?xml version="1.0" encoding="UTF-8"?>
<svg height="1521" version="1.1" width="2238.75" xmlns="http://www.w3.org/2000/svg" xmlns:xlink="http://www.w3.org/1999/xlink">
 <path d="M0,0 l2238.75,0 l0,1521 l-2238.75,0 Z M0,0" fill="rgb(255,255,255)" transform="matrix(1,0,0,-1,0,1521)"/>
 <path d="M0,0 l2238.75,0" fill="none" stroke="rgb(229,229,229)" stroke-width="10" transform="matrix(1,0,0,-1,0,1091)"/>
 <path d="M0,5 l0,-25" fill="none" stroke="rgb(204,204,204)" stroke-width="10" transform="matrix(1,0,0,-1,641,1091)"/>
 <path d="M0,5 l0,-25" fill="none" stroke="rgb(204,204,204)" stroke-width="10" transform="matrix(1,0,0,-1,1170,1091)"/>
 <path d="M279,424 c15,7,32,12,51,12 c43,0,83,-23,83,-70 c0,-86,-132,-151,-226,-151 c-37,0,-71,8,-150,42 l-5,-5 l71,-132 c171,-39,307,-106,479,-243 l7,0 l-14,48 c-41,48,-114,118,-289,214 l0,3 c109,30,188,89,188,188 c0,117,-109,164,-196,170 c-3,18,-6,36,-12,52 l273,0 l0,8 l-60,60 l-36,0 c-6,91,-61,165,-189,165 c-39,0,-103,-9,-155,-9 c-71,0,-103,15,-103,54 c0,13,4,28,16,46 l-24,20 l-8,0 c-20,-23,-28,-51,-28,-75 c0,-67,61,-127,185,-127 c48,0,121,10,162,10 c64,0,96,-22,96,-49 c0,-10,-4,-22,-14,-35 l-431,0 l0,-8 l60,-60 l188,0 c16,-15,26,-35,28,-53 c-73,-8,-157,-43,-157,-111 c0,-47,39,-74,88,-74 c64,0,112,42,122,110 Z M279,424" fill="rgb(0,0,0)" transform="matrix(1,0,0,-1,641,1091)"/>
</svg>