<?xml version="1.0" encoding="UTF-8"?>
<svg height="1521" version="1.1" width="2238.75" xmlns="http://www.w3.org/2000/svg" xmlns:xlink="http://www.w3.org/1999/xlink">
 <path d="M0,0 l2238.75,0 l0,1521 l-2238.75,0 Z M0,0" fill="rgb(255,255,255)" transform="matrix(1,0,0,-1,0,1521)"/>
 <path d="M0,0 l2238.75,0" fill="none" stroke="rgb(229,229,229)" stroke-width="10" transform="matrix(1,0,0,-1,0,1091)"/>
 <path d="M0,5 l0,-25" fill="none" stroke="rgb(204,204,204)" stroke-width="10" transform="matrix(1,0,0,-1,641,1091)"/>
 <path d="M0,5 l0,-25" fill="none" stroke="rgb(204,204,204)" stroke-width="10" transform="matrix(1,0,0,-1,1279,1091)"/>
 <path d="M620,431 c-32,22,-69,44,-107,60 c-48,-25,-128,-84,-172,-131 c0,53,-56,142,-163,142 c-3,17,-10,35,-20,50 l490,0 l0,8 l-60,60 l-46,0 c-9,123,-92,166,-206,166 c-52,0,-165,-13,-212,-13 c-77,0,-108,34,-108,64 c0,16,9,33,28,48 l-33,17 c-20,-22,-30,-45,-30,-74 c0,-73,55,-137,209,-137 c69,0,162,13,210,13 c65,0,94,-23,94,-48 c0,-13,-5,-24,-14,-36 l-540,0 l0,-8 l60,-60 l14,0 c68,0,102,-22,118,-56 c-58,-15,-90,-50,-90,-94 c0,-48,40,-77,80,-77 c40,0,80,29,81,93 c10,6,20,9,30,9 c34,0,67,-30,67,-65 c0,-55,-90,-156,-147,-156 c-25,0,-47,19,-56,58 l-7,1 l-26,-20 c23,-86,68,-121,122,-121 c58,0,99,41,142,93 c36,43,81,107,141,158 l4,-2 c-38,-54,-52,-114,-52,-175 c0,-71,20,-143,53,-209 l36,-22 l11,0 c-24,76,-40,148,-40,209 c0,82,29,167,139,247 Z M620,431" fill="rgb(0,0,0)" transform="matrix(1,0,0,-1,641,1091)"/>
</svg>