<?xml version="1.0" encoding="UTF-8"?>
<svg height="1521" version="1.1" width="2238.75" xmlns="http://www.w3.org/2000/svg" xmlns:xlink="http://www.w3.org/1999/xlink">
 <path d="M0,0 l2238.75,0 l0,1521 l-2238.75,0 Z M0,0" fill="rgb(255,255,255)" transform="matrix(1,0,0,-1,0,1521)"/>
 <path d="M0,0 l2238.75,0" fill="none" stroke="rgb(229,229,229)" stroke-width="10" transform="matrix(1,0,0,-1,0,1091)"/>
 <path d="M0,5 l0,-25" fill="none" stroke="rgb(204,204,204)" stroke-width="10" transform="matrix(1,0,0,-1,641,1091)"/>
 <path d="M0,5 l0,-25" fill="none" stroke="rgb(204,204,204)" stroke-width="10" transform="matrix(1,0,0,-1,1303,1091)"/>
 <path d="M565,620 c-7,101,-69,166,-201,166 c-47,0,-123,-10,-187,-10 c-84,0,-122,15,-122,54 c0,13,4,28,16,46 l-24,20 l-8,0 c-20,-23,-28,-52,-28,-74 c0,-41,30,-128,209,-128 c62,0,147,10,196,10 c73,0,101,-22,101,-49 c0,-10,-4,-22,-14,-35 l-553,0 l0,-8 l60,-60 l241,0 l0,-181 c0,-66,76,-134,123,-134 c39,0,103,47,156,117 c22,-18,32,-47,32,-75 c0,-73,-71,-157,-191,-157 c-138,0,-239,112,-295,378 l-30,9 l-10,0 c55,-370,197,-482,351,-482 c141,0,224,94,224,225 c0,85,-35,156,-108,201 l-5,-1 c-48,-72,-118,-134,-151,-134 c-13,0,-17,9,-17,27 l0,207 l342,0 l0,8 l-60,60 Z M565,620" fill="rgb(0,0,0)" transform="matrix(1,0,0,-1,641,1091)"/>
</svg>