<?xml version="1.0" encoding="UTF-8"?>
<svg height="1521" version="1.1" width="2238.75" xmlns="http://www.w3.org/2000/svg" xmlns:xlink="http://www.w3.org/1999/xlink">
 <path d="M0,0 l2238.75,0 l0,1521 l-2238.75,0 Z M0,0" fill="rgb(255,255,255)" transform="matrix(1,0,0,-1,0,1521)"/>
 <path d="M0,0 l2238.75,0" fill="none" stroke="rgb(229,229,229)" stroke-width="10" transform="matrix(1,0,0,-1,0,1091)"/>
 <path d="M0,5 l0,-25" fill="none" stroke="rgb(204,204,204)" stroke-width="10" transform="matrix(1,0,0,-1,641,1091)"/>
 <path d="M0,5 l0,-25" fill="none" stroke="rgb(204,204,204)" stroke-width="10" transform="matrix(1,0,0,-1,1376,1091)"/>
 <path d="M634,620 c-7,88,-54,166,-203,166 c-51,0,-147,-10,-220,-10 c-93,0,-135,15,-135,54 c0,13,4,28,16,46 l-24,20 l-8,0 c-20,-23,-28,-51,-28,-75 c0,-55,46,-127,221,-127 c64,0,174,10,227,10 c79,0,106,-21,106,-50 c0,-9,-4,-22,-14,-34 l-622,0 l0,-8 l60,-60 l320,0 l0,-181 c0,-66,76,-134,123,-134 c39,0,103,47,156,117 c19,-18,27,-48,27,-73 c0,-77,-71,-161,-188,-161 c-131,0,-221,108,-267,376 l-29,9 l-10,0 c19,-181,62,-297,137,-373 l-4,-4 c-86,40,-162,168,-199,372 l-30,9 l-10,0 c50,-373,217,-481,393,-481 c163,0,256,91,256,226 c0,83,-36,155,-103,199 l-5,-1 c-48,-72,-118,-134,-151,-134 c-13,0,-17,9,-17,27 l0,207 l336,0 l0,8 l-60,60 Z M634,620" fill="rgb(0,0,0)" transform="matrix(1,0,0,-1,641,1091)"/>
</svg>