<?xml version="1.0" encoding="UTF-8"?>
<svg height="1521" version="1.1" width="2238.75" xmlns="http://www.w3.org/2000/svg" xmlns:xlink="http://www.w3.org/1999/xlink">
 <path d="M0,0 l2238.75,0 l0,1521 l-2238.75,0 Z M0,0" fill="rgb(255,255,255)" transform="matrix(1,0,0,-1,0,1521)"/>
 <path d="M0,0 l2238.75,0" fill="none" stroke="rgb(229,229,229)" stroke-width="10" transform="matrix(1,0,0,-1,0,1091)"/>
 <path d="M0,5 l0,-25" fill="none" stroke="rgb(204,204,204)" stroke-width="10" transform="matrix(1,0,0,-1,641,1091)"/>
 <path d="M0,5 l0,-25" fill="none" stroke="rgb(204,204,204)" stroke-width="10" transform="matrix(1,0,0,-1,1382,1091)"/>
 <path d="M495,259 l0,320 l-69,54 l-9,0 l0,-145 l-7,-3 c-31,42,-65,84,-108,129 l-5,0 c-57,-56,-128,-87,-145,-87 c-1,29,-25,64,-68,64 c-36,0,-64,-27,-64,-63 c0,-39,33,-85,105,-85 c63,0,126,34,164,60 c21,14,25,16,33,16 c13,0,24,-13,54,-50 c-95,-44,-194,-96,-293,-156 l66,-82 c167,-22,281,-149,311,-247 l28,-17 l11,0 c-4,95,-4,152,-4,223 c83,-34,118,-117,138,-178 l27,-16 l11,0 c-4,96,-5,157,-5,229 l0,327 l85,0 l0,8 l-60,60 l-102,0 l0,-209 c0,-138,0,-204,8,-251 l-3,-2 c-29,42,-60,78,-99,101 Z M226,293 l-1,3 c63,37,128,70,192,98 c0,-143,1,-230,10,-271 l-3,-2 c-65,92,-133,140,-198,172 Z M226,293" fill="rgb(0,0,0)" transform="matrix(1,0,0,-1,641,1091)"/>
</svg>