<?xml version="1.0" encoding="UTF-8"?>
<svg height="1521" version="1.1" width="2238.75" xmlns="http://www.w3.org/2000/svg" xmlns:xlink="http://www.w3.org/1999/xlink">
 <path d="M0,0 l2238.75,0 l0,1521 l-2238.75,0 Z M0,0" fill="rgb(255,255,255)" transform="matrix(1,0,0,-1,0,1521)"/>
 <path d="M0,0 l2238.75,0" fill="none" stroke="rgb(229,229,229)" stroke-width="10" transform="matrix(1,0,0,-1,0,1091)"/>
 <path d="M0,5 l0,-25" fill="none" stroke="rgb(204,204,204)" stroke-width="10" transform="matrix(1,0,0,-1,641,1091)"/>
 <path d="M0,5 l0,-25" fill="none" stroke="rgb(204,204,204)" stroke-width="10" transform="matrix(1,0,0,-1,1223,1091)"/>
 <path d="M132,746 l-8,0 c-31,-23,-49,-50,-49,-96 c0,-109,106,-153,211,-198 c110,-47,196,-86,196,-177 c0,-61,-45,-114,-103,-152 l-2,1 c3,16,5,33,5,50 c0,95,-49,189,-167,189 c-107,0,-160,-85,-160,-170 c0,-79,46,-160,123,-160 c50,0,82,33,82,76 c0,43,-32,67,-64,67 c-34,0,-63,-25,-63,-61 c0,-6,1,-14,3,-21 l-2,-3 c-24,13,-34,47,-34,74 c0,64,54,115,130,115 c78,0,115,-57,115,-137 c0,-42,-10,-90,-28,-135 l24,-17 c112,80,186,159,186,290 c0,163,-120,216,-260,272 c-73,29,-145,57,-145,113 c0,22,11,38,30,54 Z M132,746" fill="rgb(0,0,0)" transform="matrix(1,0,0,-1,641,1091)"/>
</svg>