<?xml version="1.0" encoding="UTF-8"?>
<svg height="1521" version="1.1" width="2238.75" xmlns="http://www.w3.org/2000/svg" xmlns:xlink="http://www.w3.org/1999/xlink">
 <path d="M0,0 l2238.75,0 l0,1521 l-2238.75,0 Z M0,0" fill="rgb(255,255,255)" transform="matrix(1,0,0,-1,0,1521)"/>
 <path d="M0,0 l2238.75,0" fill="none" stroke="rgb(229,229,229)" stroke-width="10" transform="matrix(1,0,0,-1,0,1091)"/>
 <path d="M0,5 l0,-25" fill="none" stroke="rgb(204,204,204)" stroke-width="10" transform="matrix(1,0,0,-1,641,1091)"/>
 <path d="M0,5 l0,-25" fill="none" stroke="rgb(204,204,204)" stroke-width="10" transform="matrix(1,0,0,-1,1410,1091)"/>
 <path d="M231,162 c-108,0,-153,50,-153,136 c0,34,7,73,25,109 l-23,15 l-9,0 c-25,-42,-41,-96,-41,-149 c0,-122,90,-198,216,-198 c50,0,126,12,181,12 c80,0,111,-25,138,-106 l28,-17 l11,0 c-4,101,-4,165,-4,241 c0,65,1,131,1,197 c70,29,108,87,108,165 c0,174,-182,201,-271,216 c-103,17,-154,35,-154,78 c0,19,11,38,30,53 l-20,26 l-8,0 c-33,-24,-48,-55,-48,-90 c0,-122,162,-147,208,-155 c120,-21,220,-39,220,-132 c0,-43,-25,-78,-64,-91 l0,21 c0,77,-84,127,-133,127 c-74,0,-250,-118,-250,-248 c0,-67,46,-115,116,-115 c65,0,93,43,93,83 c0,45,-36,75,-74,75 c-8,0,-17,-1,-25,-4 l-2,1 c27,69,140,142,176,142 c10,0,19,-7,19,-35 c0,-52,-2,-96,-2,-175 c0,-156,7,-212,12,-245 l-2,-1 c-54,59,-105,70,-163,70 c-42,0,-100,-6,-136,-6 Z M231,162" fill="rgb(0,0,0)" transform="matrix(1,0,0,-1,641,1091)"/>
</svg>