<?xml version="1.0" encoding="UTF-8"?>
<svg height="1521" version="1.1" width="2238.75" xmlns="http://www.w3.org/2000/svg" xmlns:xlink="http://www.w3.org/1999/xlink">
 <path d="M0,0 l2238.75,0 l0,1521 l-2238.75,0 Z M0,0" fill="rgb(255,255,255)" transform="matrix(1,0,0,-1,0,1521)"/>
 <path d="M0,0 l2238.75,0" fill="none" stroke="rgb(229,229,229)" stroke-width="10" transform="matrix(1,0,0,-1,0,1091)"/>
 <path d="M0,5 l0,-25" fill="none" stroke="rgb(204,204,204)" stroke-width="10" transform="matrix(1,0,0,-1,641,1091)"/>
 <path d="M0,5 l0,-25" fill="none" stroke="rgb(204,204,204)" stroke-width="10" transform="matrix(1,0,0,-1,1344,1091)"/>
 <path d="M430,608 c-138,0,-252,-87,-252,-182 c0,-60,43,-94,91,-94 c45,0,76,33,76,71 c0,25,-12,51,-38,65 c52,59,127,86,176,86 c41,0,69,-21,69,-58 c0,-27,-13,-62,-34,-84 c-14,8,-29,12,-44,12 c-44,0,-78,-32,-78,-76 c0,-48,40,-73,81,-73 c23,0,46,8,63,25 c24,-13,38,-38,38,-63 c0,-53,-58,-98,-148,-98 c-128,0,-280,91,-370,376 l-30,9 l-10,0 c86,-345,265,-482,429,-482 c120,0,184,74,184,158 c0,50,-24,99,-61,132 c23,32,42,83,42,128 c0,89,-72,148,-184,148 Z M430,608" fill="rgb(0,0,0)" transform="matrix(1,0,0,-1,641,1091)"/>
</svg>