<?xml version="1.0" encoding="UTF-8"?>
<svg height="1521" version="1.1" width="2238.75" xmlns="http://www.w3.org/2000/svg" xmlns:xlink="http://www.w3.org/1999/xlink">
 <path d="M0,0 l2238.75,0 l0,1521 l-2238.75,0 Z M0,0" fill="rgb(255,255,255)" transform="matrix(1,0,0,-1,0,1521)"/>
 <path d="M0,0 l2238.75,0" fill="none" stroke="rgb(229,229,229)" stroke-width="10" transform="matrix(1,0,0,-1,0,1091)"/>
 <path d="M0,5 l0,-25" fill="none" stroke="rgb(204,204,204)" stroke-width="10" transform="matrix(1,0,0,-1,641,1091)"/>
 <path d="M0,5 l0,-25" fill="none" stroke="rgb(204,204,204)" stroke-width="10" transform="matrix(1,0,0,-1,1378,1091)"/>
 <path d="M235,940 c-33,-25,-48,-55,-48,-91 c0,-123,169,-148,215,-155 c138,-21,232,-47,232,-136 c0,-29,-11,-74,-43,-114 l-3,1 c5,15,7,30,7,42 c0,73,-62,121,-165,121 c-138,0,-252,-86,-252,-183 c0,-58,44,-93,90,-93 c47,0,77,33,77,71 c0,25,-12,51,-38,65 c52,59,127,86,176,86 c41,0,69,-21,69,-59 c0,-26,-10,-63,-33,-85 c-16,9,-31,14,-47,14 c-38,0,-76,-29,-76,-76 c0,-48,40,-73,81,-73 c23,0,46,8,63,25 c24,-13,38,-38,38,-63 c0,-53,-58,-98,-148,-98 c-128,0,-280,91,-370,376 l-30,9 l-10,0 c86,-345,265,-482,429,-482 c120,0,184,74,184,158 c0,50,-24,99,-61,132 c42,41,105,133,105,231 c0,172,-182,203,-275,217 c-116,18,-169,37,-169,81 c0,19,11,38,30,53 l-20,26 Z M235,940" fill="rgb(0,0,0)" transform="matrix(1,0,0,-1,641,1091)"/>
</svg>