<?xml version="1.0" encoding="UTF-8"?>
<svg height="1521" version="1.1" width="2238.75" xmlns="http://www.w3.org/2000/svg" xmlns:xlink="http://www.w3.org/1999/xlink">
 <path d="M0,0 l2238.75,0 l0,1521 l-2238.75,0 Z M0,0" fill="rgb(255,255,255)" transform="matrix(1,0,0,-1,0,1521)"/>
 <path d="M0,0 l2238.75,0" fill="none" stroke="rgb(229,229,229)" stroke-width="10" transform="matrix(1,0,0,-1,0,1091)"/>
 <path d="M0,5 l0,-25" fill="none" stroke="rgb(204,204,204)" stroke-width="10" transform="matrix(1,0,0,-1,641,1091)"/>
 <path d="M0,5 l0,-25" fill="none" stroke="rgb(204,204,204)" stroke-width="10" transform="matrix(1,0,0,-1,1366,1091)"/>
 <path d="M267,553 c-77,30,-145,59,-145,113 c0,22,11,38,30,54 l-20,26 l-8,0 c-31,-23,-49,-50,-49,-96 c0,-109,106,-153,211,-198 c110,-47,196,-87,196,-175 c0,-65,-45,-116,-103,-154 l-2,1 c3,18,5,33,5,51 c0,93,-50,188,-165,188 c-110,0,-162,-85,-162,-170 c0,-79,47,-158,124,-158 c50,0,82,33,82,76 c0,43,-32,67,-64,67 c-34,0,-63,-25,-63,-61 c0,-6,1,-14,3,-21 l-2,-3 c-24,13,-35,45,-35,72 c0,64,54,115,130,115 c78,0,115,-57,115,-137 c0,-13,-1,-26,-3,-39 c-47,-31,-70,-88,-70,-144 c0,-78,46,-155,124,-155 c48,0,80,33,80,75 c0,43,-31,67,-63,67 c-33,0,-62,-25,-62,-61 c0,-6,1,-13,3,-20 l-2,-3 c-24,13,-36,43,-36,70 c0,63,54,115,127,115 c79,0,115,-58,115,-137 c0,-41,-10,-89,-27,-133 l23,-17 c111,79,181,155,181,284 c0,157,-108,203,-209,257 c-10,146,-125,198,-259,251 Z M519,212 c82,-44,172,-78,172,-171 c0,-64,-41,-113,-99,-150 l-2,1 c3,18,5,33,5,51 c0,77,-35,156,-116,179 c18,27,32,57,40,90 Z M519,212" fill="rgb(0,0,0)" transform="matrix(1,0,0,-1,641,1091)"/>
</svg>