<?xml version="1.0" encoding="UTF-8"?>
<svg height="1521" version="1.1" width="2238.75" xmlns="http://www.w3.org/2000/svg" xmlns:xlink="http://www.w3.org/1999/xlink">
 <path d="M0,0 l2238.75,0 l0,1521 l-2238.75,0 Z M0,0" fill="rgb(255,255,255)" transform="matrix(1,0,0,-1,0,1521)"/>
 <path d="M0,0 l2238.75,0" fill="none" stroke="rgb(229,229,229)" stroke-width="10" transform="matrix(1,0,0,-1,0,1091)"/>
 <path d="M0,5 l0,-25" fill="none" stroke="rgb(204,204,204)" stroke-width="10" transform="matrix(1,0,0,-1,641,1091)"/>
 <path d="M0,5 l0,-25" fill="none" stroke="rgb(204,204,204)" stroke-width="10" transform="matrix(1,0,0,-1,1223,1091)"/>
 <path d="M85,276 l68,-87 c171,-13,286,-111,321,-205 l28,-17 l11,0 c-5,101,-6,165,-6,241 l0,344 l85,0 l0,8 l-60,60 l-582,0 l0,-8 l60,-60 l56,0 c-15,-23,-20,-47,-20,-68 c0,-71,64,-106,131,-106 c12,0,29,1,41,4 l1,-3 c-44,-33,-89,-66,-134,-103 Z M428,552 l0,-134 c0,-146,1,-251,10,-300 l-3,-2 c-72,75,-151,117,-225,136 l-1,3 c51,43,108,81,167,122 l-56,74 c-37,-25,-68,-35,-94,-35 c-45,0,-65,29,-65,63 c0,26,9,56,31,73 Z M428,552" fill="rgb(0,0,0)" transform="matrix(1,0,0,-1,641,1091)"/>
</svg>