<?xml version="1.0" encoding="UTF-8"?>
<svg height="1521" version="1.1" width="2238.75" xmlns="http://www.w3.org/2000/svg" xmlns:xlink="http://www.w3.org/1999/xlink">
 <path d="M0,0 l2238.75,0 l0,1521 l-2238.75,0 Z M0,0" fill="rgb(255,255,255)" transform="matrix(1,0,0,-1,0,1521)"/>
 <path d="M0,0 l2238.75,0" fill="none" stroke="rgb(229,229,229)" stroke-width="10" transform="matrix(1,0,0,-1,0,1091)"/>
 <path d="M0,5 l0,-25" fill="none" stroke="rgb(204,204,204)" stroke-width="10" transform="matrix(1,0,0,-1,641,1091)"/>
 <path d="M0,5 l0,-25" fill="none" stroke="rgb(204,204,204)" stroke-width="10" transform="matrix(1,0,0,-1,1281,1091)"/>
 <path d="M51,615 l13,-60 c61,-50,114,-83,159,-105 l0,-130 c0,-63,82,-137,128,-137 c38,0,102,45,153,109 c25,-18,37,-48,37,-76 c0,-60,-61,-131,-171,-131 c-136,0,-235,110,-290,374 l-30,9 l-10,0 c55,-369,196,-478,344,-478 c133,0,206,86,206,200 c0,83,-38,157,-113,201 l-5,-1 c-47,-67,-115,-126,-150,-126 c-13,0,-22,9,-22,30 l0,128 c33,-8,59,-10,79,-10 c86,0,125,52,125,101 c0,53,-49,107,-129,107 c-68,0,-123,-40,-144,-117 c-46,22,-101,57,-168,112 Z M399,559 c38,0,56,-19,56,-38 c0,-25,-27,-52,-87,-52 c-18,0,-38,1,-62,7 c8,35,30,83,93,83 Z M399,559" fill="rgb(0,0,0)" transform="matrix(1,0,0,-1,641,1091)"/>
</svg>