<?xml version="1.0" encoding="UTF-8"?>
<svg height="1521" version="1.1" width="2238.75" xmlns="http://www.w3.org/2000/svg" xmlns:xlink="http://www.w3.org/1999/xlink">
 <path d="M0,0 l2238.75,0 l0,1521 l-2238.75,0 Z M0,0" fill="rgb(255,255,255)" transform="matrix(1,0,0,-1,0,1521)"/>
 <path d="M0,0 l2238.75,0" fill="none" stroke="rgb(229,229,229)" stroke-width="10" transform="matrix(1,0,0,-1,0,1091)"/>
 <path d="M0,5 l0,-25" fill="none" stroke="rgb(204,204,204)" stroke-width="10" transform="matrix(1,0,0,-1,641,1091)"/>
 <path d="M0,5 l0,-25" fill="none" stroke="rgb(204,204,204)" stroke-width="10" transform="matrix(1,0,0,-1,1153,1091)"/>
 <path d="M462,620 l-512,0 l0,-8 l60,-60 l75,0 l0,-387 c0,-69,80,-165,138,-165 c63,0,244,133,244,312 c0,28,-15,42,-34,59 c-23,20,-31,29,-53,35 c-77,21,-183,25,-216,146 l358,0 l0,8 Z M166,470 c43,-113,113,-134,198,-153 c6,-9,7,-20,7,-31 c0,-91,-124,-202,-177,-202 c-23,0,-31,18,-31,55 l0,330 Z M166,470" fill="rgb(0,0,0)" transform="matrix(1,0,0,-1,641,1091)"/>
</svg>