<?xml version="1.0" encoding="UTF-8"?>
<svg height="1521" version="1.1" width="2238.75" xmlns="http://www.w3.org/2000/svg" xmlns:xlink="http://www.w3.org/1999/xlink">
 <path d="M0,0 l2238.75,0 l0,1521 l-2238.75,0 Z M0,0" fill="rgb(255,255,255)" transform="matrix(1,0,0,-1,0,1521)"/>
 <path d="M0,0 l2238.75,0" fill="none" stroke="rgb(229,229,229)" stroke-width="10" transform="matrix(1,0,0,-1,0,1091)"/>
 <path d="M0,5 l0,-25" fill="none" stroke="rgb(204,204,204)" stroke-width="10" transform="matrix(1,0,0,-1,641,1091)"/>
 <path d="M0,5 l0,-25" fill="none" stroke="rgb(204,204,204)" stroke-width="10" transform="matrix(1,0,0,-1,1234,1091)"/>
 <path d="M99,174 l-5,-5 l55,-103 c181,-3,324,-69,492,-196 l7,0 l-14,48 c-48,54,-168,143,-283,185 l0,3 c91,21,187,91,187,198 c0,122,-130,170,-182,170 c-17,0,-49,-5,-70,-5 c-36,0,-120,17,-143,83 l460,0 l0,8 l-60,60 l-593,0 l0,-8 l60,-60 l55,0 l0,-227 c0,-48,67,-106,126,-106 c70,0,166,81,167,179 c14,6,32,9,46,9 c39,0,73,-26,73,-69 c0,-85,-132,-175,-287,-175 c-32,0,-60,4,-91,11 Z M146,488 c27,-59,79,-82,124,-87 c3,-4,4,-11,4,-17 c0,-52,-82,-105,-113,-105 c-13,0,-18,8,-18,27 l0,181 Z M146,488" fill="rgb(0,0,0)" transform="matrix(1,0,0,-1,641,1091)"/>
</svg>