<?xml version="1.0" encoding="UTF-8"?>
<svg height="1521" version="1.1" width="2238.75" xmlns="http://www.w3.org/2000/svg" xmlns:xlink="http://www.w3.org/1999/xlink">
 <path d="M0,0 l2238.75,0 l0,1521 l-2238.75,0 Z M0,0" fill="rgb(255,255,255)" transform="matrix(1,0,0,-1,0,1521)"/>
 <path d="M0,0 l2238.75,0" fill="none" stroke="rgb(229,229,229)" stroke-width="10" transform="matrix(1,0,0,-1,0,1091)"/>
 <path d="M0,5 l0,-25" fill="none" stroke="rgb(204,204,204)" stroke-width="10" transform="matrix(1,0,0,-1,641,1091)"/>
 <path d="M0,5 l0,-25" fill="none" stroke="rgb(204,204,204)" stroke-width="10" transform="matrix(1,0,0,-1,1426,1091)"/>
 <path d="M410,552 l385,0 l0,8 l-60,60 l-785,0 l0,-8 l60,-60 l214,0 l1,-3 c-53,-43,-75,-92,-75,-142 c0,-90,71,-159,158,-159 c45,0,92,18,123,46 c15,-15,23,-36,23,-54 c0,-47,-48,-97,-137,-97 c-131,0,-207,110,-252,334 l-30,9 l-10,0 c47,-330,167,-437,307,-437 c110,0,171,65,171,161 c0,74,-36,134,-109,171 l-5,-1 c-48,-39,-95,-59,-128,-59 c-29,0,-47,16,-47,44 c0,45,48,104,123,150 c46,-73,133,-119,213,-119 c20,0,42,3,62,10 l3,-2 c-43,-60,-57,-131,-57,-199 c0,-73,18,-152,42,-222 l29,-18 l11,0 c-13,62,-22,126,-22,179 c0,98,31,186,125,260 l0,6 l-113,89 c-39,-20,-79,-34,-126,-34 c-43,0,-93,11,-132,70 c12,6,25,11,38,17 Z M410,552" fill="rgb(0,0,0)" transform="matrix(1,0,0,-1,641,1091)"/>
</svg>