<?xml version="1.0" encoding="UTF-8"?>
<svg height="1521" version="1.1" width="2238.75" xmlns="http://www.w3.org/2000/svg" xmlns:xlink="http://www.w3.org/1999/xlink">
 <path d="M0,0 l2238.75,0 l0,1521 l-2238.75,0 Z M0,0" fill="rgb(255,255,255)" transform="matrix(1,0,0,-1,0,1521)"/>
 <path d="M0,0 l2238.75,0" fill="none" stroke="rgb(229,229,229)" stroke-width="10" transform="matrix(1,0,0,-1,0,1091)"/>
 <path d="M0,5 l0,-25" fill="none" stroke="rgb(204,204,204)" stroke-width="10" transform="matrix(1,0,0,-1,641,1091)"/>
 <path d="M0,5 l0,-25" fill="none" stroke="rgb(204,204,204)" stroke-width="10" transform="matrix(1,0,0,-1,1599,1091)"/>
 <path d="M585,257 l4,0 c48,-104,125,-157,200,-157 c76,0,119,56,119,115 c0,46,-28,90,-54,127 c30,37,51,81,51,125 c0,75,-59,126,-129,126 c-67,0,-143,-47,-187,-157 l-3,1 c0,4,1,38,1,48 c0,89,-81,135,-130,135 c-76,0,-243,-118,-243,-248 c0,-67,46,-115,116,-115 c65,0,93,43,93,83 c0,45,-34,74,-72,74 c-8,0,-17,-1,-25,-4 l-2,1 c26,69,128,143,166,143 c10,0,17,-4,17,-49 c0,-24,-2,-84,-2,-165 c0,-152,7,-211,12,-241 l-2,-1 c-52,59,-100,70,-156,70 c-40,0,-95,-6,-130,-6 c-103,0,-146,50,-146,136 c0,34,7,73,25,109 l-23,15 l-9,0 c-25,-42,-41,-96,-41,-149 c0,-122,87,-198,208,-198 c48,0,121,12,174,12 c77,0,107,-25,133,-106 l28,-17 l11,0 c-4,89,-4,185,-4,215 Z M766,182 c-96,0,-182,104,-182,163 c0,67,109,169,200,169 c49,0,78,-30,78,-59 c0,-27,-24,-52,-55,-63 c-20,14,-39,22,-61,22 c-48,0,-73,-35,-73,-69 c0,-34,25,-68,73,-68 c24,0,46,9,71,29 c19,-13,37,-32,37,-56 c0,-33,-31,-68,-88,-68 Z M766,182" fill="rgb(0,0,0)" transform="matrix(1,0,0,-1,641,1091)"/>
</svg>