<?xml version="1.0" encoding="UTF-8"?>
<svg height="1521" version="1.1" width="2238.75" xmlns="http://www.w3.org/2000/svg" xmlns:xlink="http://www.w3.org/1999/xlink">
 <path d="M0,0 l2238.75,0 l0,1521 l-2238.75,0 Z M0,0" fill="rgb(255,255,255)" transform="matrix(1,0,0,-1,0,1521)"/>
 <path d="M0,0 l2238.75,0" fill="none" stroke="rgb(229,229,229)" stroke-width="10" transform="matrix(1,0,0,-1,0,1091)"/>
 <path d="M0,5 l0,-25" fill="none" stroke="rgb(204,204,204)" stroke-width="10" transform="matrix(1,0,0,-1,641,1091)"/>
 <path d="M0,5 l0,-25" fill="none" stroke="rgb(204,204,204)" stroke-width="10" transform="matrix(1,0,0,-1,1157,1091)"/>
 <path d="M10,552 l252,0 c1,-9,2,-18,2,-29 c0,-127,-85,-238,-196,-266 c-7,-22,-10,-49,-10,-68 c0,-95,70,-185,185,-185 c124,0,215,104,215,242 c0,118,-65,223,-124,306 l192,0 l0,8 l-60,60 l-182,0 c-54,74,-96,142,-96,197 c0,39,23,58,58,58 c8,0,17,-1,27,-4 l6,6 c-15,46,-46,59,-76,59 c-45,0,-79,-32,-79,-87 c0,-77,66,-167,106,-229 l-280,0 l0,-8 Z M313,513 c41,-62,75,-149,75,-239 c0,-160,-105,-208,-172,-208 c-56,0,-93,35,-93,94 c0,1,0,8,2,15 c117,43,195,142,195,262 c0,24,-3,49,-10,75 Z M313,513" fill="rgb(0,0,0)" transform="matrix(1,0,0,-1,641,1091)"/>
</svg>