<?xml version="1.0" encoding="UTF-8"?>
<svg height="1521" version="1.1" width="2238.75" xmlns="http://www.w3.org/2000/svg" xmlns:xlink="http://www.w3.org/1999/xlink">
 <path d="M0,0 l2238.75,0 l0,1521 l-2238.75,0 Z M0,0" fill="rgb(255,255,255)" transform="matrix(1,0,0,-1,0,1521)"/>
 <path d="M0,0 l2238.75,0" fill="none" stroke="rgb(229,229,229)" stroke-width="10" transform="matrix(1,0,0,-1,0,1091)"/>
 <path d="M0,5 l0,-25" fill="none" stroke="rgb(204,204,204)" stroke-width="10" transform="matrix(1,0,0,-1,641,1091)"/>
 <path d="M0,5 l0,-25" fill="none" stroke="rgb(204,204,204)" stroke-width="10" transform="matrix(1,0,0,-1,1314,1091)"/>
 <path d="M403,42 c128,0,218,95,218,224 c0,133,-95,234,-215,234 c-89,0,-154,-57,-154,-135 c0,-70,52,-104,101,-104 c54,0,93,43,93,91 c0,24,-9,50,-30,69 c11,4,23,5,31,5 c70,0,119,-68,119,-135 c0,-80,-71,-154,-180,-154 c-117,0,-236,84,-324,363 l-30,9 l-10,0 c88,-339,230,-467,381,-467 Z M683,552 l0,8 l-60,60 l-673,0 l0,-8 l60,-60 Z M683,552" fill="rgb(0,0,0)" transform="matrix(1,0,0,-1,641,1091)"/>
</svg>