<?xml version="1.0" encoding="UTF-8"?>
<svg height="1521" version="1.1" width="2238.75" xmlns="http://www.w3.org/2000/svg" xmlns:xlink="http://www.w3.org/1999/xlink">
 <path d="M0,0 l2238.75,0 l0,1521 l-2238.75,0 Z M0,0" fill="rgb(255,255,255)" transform="matrix(1,0,0,-1,0,1521)"/>
 <path d="M0,0 l2238.75,0" fill="none" stroke="rgb(229,229,229)" stroke-width="10" transform="matrix(1,0,0,-1,0,1091)"/>
 <path d="M0,5 l0,-25" fill="none" stroke="rgb(204,204,204)" stroke-width="10" transform="matrix(1,0,0,-1,641,1091)"/>
 <path d="M0,5 l0,-25" fill="none" stroke="rgb(204,204,204)" stroke-width="10" transform="matrix(1,0,0,-1,1184,1091)"/>
 <path d="M389,522 c-44,-28,-111,-70,-177,-70 c-54,0,-82,31,-82,70 c0,25,12,47,47,48 c-2,-6,-2,-11,-2,-12 c0,-35,23,-49,49,-49 c38,0,58,27,58,56 c0,35,-32,73,-99,73 c-74,0,-124,-44,-124,-107 c0,-73,68,-112,133,-112 c9,0,16,0,25,1 l1,-3 c-61,-38,-123,-77,-186,-119 l73,-93 c179,-22,294,-123,330,-221 l28,-17 l11,0 c-5,101,-6,165,-6,241 l0,344 l85,0 l0,8 l-60,60 l-104,0 Z M399,117 l-3,-2 c-76,87,-161,133,-237,158 l-1,3 c70,50,149,98,231,145 c0,-146,1,-255,10,-304 Z M399,117" fill="rgb(0,0,0)" transform="matrix(1,0,0,-1,641,1091)"/>
</svg>