<?xml version="1.0" encoding="UTF-8"?>
<svg height="1521" version="1.1" width="2238.75" xmlns="http://www.w3.org/2000/svg" xmlns:xlink="http://www.w3.org/1999/xlink">
 <path d="M0,0 l2238.75,0 l0,1521 l-2238.75,0 Z M0,0" fill="rgb(255,255,255)" transform="matrix(1,0,0,-1,0,1521)"/>
 <path d="M0,0 l2238.75,0" fill="none" stroke="rgb(229,229,229)" stroke-width="10" transform="matrix(1,0,0,-1,0,1091)"/>
 <path d="M0,5 l0,-25" fill="none" stroke="rgb(204,204,204)" stroke-width="10" transform="matrix(1,0,0,-1,641,1091)"/>
 <path d="M0,5 l0,-25" fill="none" stroke="rgb(204,204,204)" stroke-width="10" transform="matrix(1,0,0,-1,1320,1091)"/>
 <path d="M142,268 l89,-43 c82,87,153,162,235,231 c39,-53,62,-115,62,-157 c0,-8,-1,-219,-1,-289 l68,-53 l11,0 l-8,595 l91,0 l0,8 l-60,60 l-100,0 l0,-12 c0,-78,0,-128,6,-179 l-4,-1 c-72,142,-155,202,-269,202 c-147,0,-247,-100,-247,-165 c0,-30,22,-54,53,-54 c38,0,45,31,82,31 c37,0,52,-33,52,-68 c0,-34,-14,-56,-60,-101 Z M246,372 l-3,2 c1,8,1,12,1,13 c0,63,-43,100,-97,103 l-2,3 c36,44,93,66,145,66 c43,0,81,-16,114,-40 c-66,-58,-117,-106,-158,-147 Z M246,372" fill="rgb(0,0,0)" transform="matrix(1,0,0,-1,641,1091)"/>
</svg>