<?xml version="1.0" encoding="UTF-8"?>
<svg height="1521" version="1.1" width="2238.75" xmlns="http://www.w3.org/2000/svg" xmlns:xlink="http://www.w3.org/1999/xlink">
 <path d="M0,0 l2238.75,0 l0,1521 l-2238.75,0 Z M0,0" fill="rgb(255,255,255)" transform="matrix(1,0,0,-1,0,1521)"/>
 <path d="M0,0 l2238.75,0" fill="none" stroke="rgb(229,229,229)" stroke-width="10" transform="matrix(1,0,0,-1,0,1091)"/>
 <path d="M0,5 l0,-25" fill="none" stroke="rgb(204,204,204)" stroke-width="10" transform="matrix(1,0,0,-1,641,1091)"/>
 <path d="M0,5 l0,-25" fill="none" stroke="rgb(204,204,204)" stroke-width="10" transform="matrix(1,0,0,-1,1376,1091)"/>
 <path d="M404,494 l0,-72 c0,-146,1,-251,10,-300 l-3,-2 c-75,88,-157,133,-231,159 l-1,3 c48,37,102,73,158,108 c-48,58,-102,113,-158,160 l1,2 l565,0 l0,8 l-60,60 l-735,0 l0,-8 l87,-87 c79,-1,130,-18,200,-91 c-58,-38,-121,-81,-184,-129 l73,-93 c176,-23,290,-127,322,-228 l28,-17 l11,0 c-4,101,-4,165,-4,241 l0,207 c7,1,15,1,16,1 c70,0,159,-16,159,-76 c0,-16,-7,-28,-20,-35 c-15,18,-31,27,-52,27 c-40,0,-62,-30,-62,-60 c0,-33,25,-67,72,-67 c52,0,99,41,99,122 c0,99,-69,173,-217,173 c-18,0,-49,-1,-74,-6 Z M404,494" fill="rgb(0,0,0)" transform="matrix(1,0,0,-1,641,1091)"/>
</svg>