<?xml version="1.0" encoding="UTF-8"?>
<svg height="1521" version="1.1" width="2238.75" xmlns="http://www.w3.org/2000/svg" xmlns:xlink="http://www.w3.org/1999/xlink">
 <path d="M0,0 l2238.75,0 l0,1521 l-2238.75,0 Z M0,0" fill="rgb(255,255,255)" transform="matrix(1,0,0,-1,0,1521)"/>
 <path d="M0,0 l2238.75,0" fill="none" stroke="rgb(229,229,229)" stroke-width="10" transform="matrix(1,0,0,-1,0,1091)"/>
 <path d="M0,5 l0,-25" fill="none" stroke="rgb(204,204,204)" stroke-width="10" transform="matrix(1,0,0,-1,641,1091)"/>
 <path d="M0,5 l0,-25" fill="none" stroke="rgb(204,204,204)" stroke-width="10" transform="matrix(1,0,0,-1,1352,1091)"/>
 <path d="M406,133 c-125,0,-266,84,-334,367 l-30,9 l-10,0 c61,-368,236,-471,389,-471 c152,0,240,100,240,231 c0,79,-32,160,-115,198 l-5,-1 c-50,-78,-99,-119,-150,-129 l-2,3 c16,17,23,37,23,57 c0,44,-32,85,-87,85 c-50,0,-95,-34,-95,-95 c0,-67,55,-125,157,-125 c84,0,136,38,194,113 c15,-16,31,-43,31,-76 c0,-69,-70,-166,-206,-166 Z M-50,620 l0,-8 l60,-60 l711,0 l0,8 l-60,60 Z M-50,620" fill="rgb(0,0,0)" transform="matrix(1,0,0,-1,641,1091)"/>
</svg>