<?xml version="1.0" encoding="UTF-8"?>
<svg height="1521" version="1.1" width="2238.75" xmlns="http://www.w3.org/2000/svg" xmlns:xlink="http://www.w3.org/1999/xlink">
 <path d="M0,0 l2238.75,0 l0,1521 l-2238.75,0 Z M0,0" fill="rgb(255,255,255)" transform="matrix(1,0,0,-1,0,1521)"/>
 <path d="M0,0 l2238.75,0" fill="none" stroke="rgb(229,229,229)" stroke-width="10" transform="matrix(1,0,0,-1,0,1091)"/>
 <path d="M0,5 l0,-25" fill="none" stroke="rgb(204,204,204)" stroke-width="10" transform="matrix(1,0,0,-1,641,1091)"/>
 <path d="M0,5 l0,-25" fill="none" stroke="rgb(204,204,204)" stroke-width="10" transform="matrix(1,0,0,-1,1227,1091)"/>
 <path d="M478,-16 l27,-17 l11,0 c-4,101,-5,165,-5,241 l0,344 l85,0 l0,8 l-60,60 l-586,0 l0,-8 l88,-88 c69,-13,220,-94,220,-172 c0,-13,-4,-24,-11,-29 c-20,9,-39,14,-61,14 c-68,0,-106,-50,-106,-101 c0,-52,38,-104,110,-104 c54,0,90,31,116,70 c97,-48,147,-138,172,-218 Z M330,288 c0,73,-44,163,-168,262 l1,2 l269,0 l0,-147 c0,-146,0,-216,8,-265 l-3,-2 c-24,36,-63,88,-108,129 c0,5,1,10,1,21 Z M330,288" fill="rgb(0,0,0)" transform="matrix(1,0,0,-1,641,1091)"/>
</svg>