<?xml version="1.0" encoding="UTF-8"?>
<svg height="1521" version="1.1" width="2238.75" xmlns="http://www.w3.org/2000/svg" xmlns:xlink="http://www.w3.org/1999/xlink">
 <path d="M0,0 l2238.75,0 l0,1521 l-2238.75,0 Z M0,0" fill="rgb(255,255,255)" transform="matrix(1,0,0,-1,0,1521)"/>
 <path d="M0,0 l2238.75,0" fill="none" stroke="rgb(229,229,229)" stroke-width="10" transform="matrix(1,0,0,-1,0,1091)"/>
 <path d="M0,5 l0,-25" fill="none" stroke="rgb(204,204,204)" stroke-width="10" transform="matrix(1,0,0,-1,641,1091)"/>
 <path d="M0,5 l0,-25" fill="none" stroke="rgb(204,204,204)" stroke-width="10" transform="matrix(1,0,0,-1,1176,1091)"/>
 <path d="M381,518 c-104,-43,-232,-109,-368,-192 l79,-99 c179,-25,299,-143,335,-243 l28,-17 l11,0 c-5,101,-6,165,-6,241 l0,344 l85,0 l0,8 l-60,60 l-535,0 l0,-8 l60,-60 l371,0 Z M146,298 l-1,3 c75,48,157,87,236,121 c0,-146,1,-250,10,-299 l-3,-2 c-81,101,-163,147,-242,177 Z M138,58 c0,-34,27,-62,62,-62 c35,0,61,28,61,62 c0,34,-26,61,-61,61 c-35,0,-62,-27,-62,-61 Z M138,58" fill="rgb(0,0,0)" transform="matrix(1,0,0,-1,641,1091)"/>
</svg>