<?xml version="1.0" encoding="UTF-8"?>
<svg height="1521" version="1.1" width="2238.75" xmlns="http://www.w3.org/2000/svg" xmlns:xlink="http://www.w3.org/1999/xlink">
 <path d="M0,0 l2238.75,0 l0,1521 l-2238.75,0 Z M0,0" fill="rgb(255,255,255)" transform="matrix(1,0,0,-1,0,1521)"/>
 <path d="M0,0 l2238.75,0" fill="none" stroke="rgb(229,229,229)" stroke-width="10" transform="matrix(1,0,0,-1,0,1091)"/>
 <path d="M0,5 l0,-25" fill="none" stroke="rgb(204,204,204)" stroke-width="10" transform="matrix(1,0,0,-1,641,1091)"/>
 <path d="M0,5 l0,-25" fill="none" stroke="rgb(204,204,204)" stroke-width="10" transform="matrix(1,0,0,-1,1325,1091)"/>
 <path d="M394,298 c12,70,28,104,63,104 c27,0,76,-34,76,-130 c0,-15,-1,-199,-1,-262 l68,-53 l11,0 l-8,595 l91,0 l0,8 l-60,60 l-684,0 l0,-8 l60,-60 l524,0 c0,-83,0,-124,7,-165 l-2,-1 c-33,62,-71,95,-112,95 c-39,0,-68,-31,-86,-78 c-35,46,-84,85,-149,85 c-87,0,-159,-71,-159,-166 c0,-101,78,-192,187,-192 c71,0,117,39,117,94 c0,50,-38,84,-83,84 c-39,0,-77,-26,-77,-67 c0,-17,7,-36,24,-54 l-1,-3 c-59,0,-88,56,-88,105 c0,69,54,113,120,113 c59,0,102,-33,131,-95 l25,-11 Z M394,298" fill="rgb(0,0,0)" transform="matrix(1,0,0,-1,641,1091)"/>
</svg>