<?xml version="1.0" encoding="UTF-8"?>
<svg height="1521" version="1.1" width="2238.75" xmlns="http://www.w3.org/2000/svg" xmlns:xlink="http://www.w3.org/1999/xlink">
 <path d="M0,0 l2238.75,0 l0,1521 l-2238.75,0 Z M0,0" fill="rgb(255,255,255)" transform="matrix(1,0,0,-1,0,1521)"/>
 <path d="M0,0 l2238.75,0" fill="none" stroke="rgb(229,229,229)" stroke-width="10" transform="matrix(1,0,0,-1,0,1091)"/>
 <path d="M0,5 l0,-25" fill="none" stroke="rgb(204,204,204)" stroke-width="10" transform="matrix(1,0,0,-1,641,1091)"/>
 <path d="M0,5 l0,-25" fill="none" stroke="rgb(204,204,204)" stroke-width="10" transform="matrix(1,0,0,-1,1209,1091)"/>
 <path d="M49,299 l73,-93 c181,-18,302,-122,338,-222 l28,-17 l11,0 c-5,101,-6,165,-6,241 l0,344 l85,0 l0,8 l-60,60 l-568,0 l0,-8 l87,-87 c73,-2,130,-21,214,-83 c-64,-42,-134,-89,-202,-143 Z M424,118 l-3,-2 c-77,89,-166,134,-245,157 l-1,3 c46,36,98,72,151,106 c26,-22,56,-48,88,-78 c1,-86,3,-152,10,-186 Z M185,550 l1,2 l228,0 l0,-188 c-73,64,-151,128,-229,186 Z M185,550" fill="rgb(0,0,0)" transform="matrix(1,0,0,-1,641,1091)"/>
</svg>