<?xml version="1.0" encoding="UTF-8"?>
<svg height="1521" version="1.1" width="2238.75" xmlns="http://www.w3.org/2000/svg" xmlns:xlink="http://www.w3.org/1999/xlink">
 <path d="M0,0 l2238.75,0 l0,1521 l-2238.75,0 Z M0,0" fill="rgb(255,255,255)" transform="matrix(1,0,0,-1,0,1521)"/>
 <path d="M0,0 l2238.75,0" fill="none" stroke="rgb(229,229,229)" stroke-width="10" transform="matrix(1,0,0,-1,0,1091)"/>
 <path d="M0,5 l0,-25" fill="none" stroke="rgb(204,204,204)" stroke-width="10" transform="matrix(1,0,0,-1,641,1091)"/>
 <path d="M0,5 l0,-25" fill="none" stroke="rgb(204,204,204)" stroke-width="10" transform="matrix(1,0,0,-1,1180,1091)"/>
 <path d="M278,425 c15,7,33,11,52,11 c43,0,83,-23,83,-70 c0,-86,-128,-151,-234,-151 c-29,0,-64,5,-137,33 l-5,-5 l66,-123 c171,-39,307,-106,479,-243 l7,0 l-14,48 c-41,48,-114,118,-289,214 l0,3 c109,30,188,89,188,188 c0,117,-109,164,-196,170 c-3,18,-6,36,-12,52 l283,0 l0,8 l-60,60 l-539,0 l0,-8 l60,-60 l188,0 c16,-15,26,-35,28,-53 c-73,-8,-157,-42,-157,-112 c0,-46,38,-72,88,-72 c63,0,111,42,121,110 Z M278,425" fill="rgb(0,0,0)" transform="matrix(1,0,0,-1,641,1091)"/>
</svg>