<?xml version="1.0" encoding="UTF-8"?>
<svg height="1521" version="1.1" width="2238.75" xmlns="http://www.w3.org/2000/svg" xmlns:xlink="http://www.w3.org/1999/xlink">
 <path d="M0,0 l2238.75,0 l0,1521 l-2238.75,0 Z M0,0" fill="rgb(255,255,255)" transform="matrix(1,0,0,-1,0,1521)"/>
 <path d="M0,0 l2238.75,0" fill="none" stroke="rgb(229,229,229)" stroke-width="10" transform="matrix(1,0,0,-1,0,1091)"/>
 <path d="M0,5 l0,-25" fill="none" stroke="rgb(204,204,204)" stroke-width="10" transform="matrix(1,0,0,-1,641,1091)"/>
 <path d="M0,5 l0,-25" fill="none" stroke="rgb(204,204,204)" stroke-width="10" transform="matrix(1,0,0,-1,1303,1091)"/>
 <path d="M-49,620 l0,-8 l60,-60 l240,0 l0,-181 c0,-66,76,-134,123,-134 c39,0,103,47,156,117 c22,-18,32,-47,32,-75 c0,-73,-70,-158,-190,-158 c-138,0,-240,113,-296,379 l-30,9 l-10,0 c55,-370,197,-482,351,-482 c141,0,224,94,224,225 c0,85,-35,156,-108,201 l-5,-1 c-48,-72,-118,-134,-151,-134 c-13,0,-17,9,-17,27 l0,207 l342,0 l0,8 l-60,60 Z M323,-91 c0,-34,27,-62,62,-62 c35,0,61,28,61,62 c0,34,-26,61,-61,61 c-35,0,-62,-27,-62,-61 Z M323,-91" fill="rgb(0,0,0)" transform="matrix(1,0,0,-1,641,1091)"/>
</svg>