<?xml version="1.0" encoding="UTF-8"?>
<svg height="1521" version="1.1" width="2238.75" xmlns="http://www.w3.org/2000/svg" xmlns:xlink="http://www.w3.org/1999/xlink">
 <path d="M0,0 l2238.75,0 l0,1521 l-2238.75,0 Z M0,0" fill="rgb(255,255,255)" transform="matrix(1,0,0,-1,0,1521)"/>
 <path d="M0,0 l2238.75,0" fill="none" stroke="rgb(229,229,229)" stroke-width="10" transform="matrix(1,0,0,-1,0,1091)"/>
 <path d="M0,5 l0,-25" fill="none" stroke="rgb(204,204,204)" stroke-width="10" transform="matrix(1,0,0,-1,641,1091)"/>
 <path d="M0,5 l0,-25" fill="none" stroke="rgb(204,204,204)" stroke-width="10" transform="matrix(1,0,0,-1,1145,1091)"/>
 <path d="M502,-33 c1,8,5,23,5,48 c0,265,-413,209,-413,386 c0,42,23,75,56,98 c-2,-8,-2,-16,-2,-24 c0,-91,70,-138,138,-138 c70,0,116,52,116,123 c0,77,-55,152,-160,152 c-111,0,-196,-81,-196,-208 c0,-280,420,-234,420,-397 c0,-8,-1,-15,-2,-22 l29,-18 Z M257,534 c55,0,96,-28,96,-67 c0,-28,-23,-52,-63,-52 c-44,0,-94,27,-108,102 c25,11,51,17,75,17 Z M257,534" fill="rgb(0,0,0)" transform="matrix(1,0,0,-1,641,1091)"/>
</svg>