<?xml version="1.0" encoding="UTF-8"?>
<svg height="1521" version="1.1" width="2238.75" xmlns="http://www.w3.org/2000/svg" xmlns:xlink="http://www.w3.org/1999/xlink">
 <path d="M0,0 l2238.75,0 l0,1521 l-2238.75,0 Z M0,0" fill="rgb(255,255,255)" transform="matrix(1,0,0,-1,0,1521)"/>
 <path d="M0,0 l2238.75,0" fill="none" stroke="rgb(229,229,229)" stroke-width="10" transform="matrix(1,0,0,-1,0,1091)"/>
 <path d="M0,5 l0,-25" fill="none" stroke="rgb(204,204,204)" stroke-width="10" transform="matrix(1,0,0,-1,641,1091)"/>
 <path d="M0,5 l0,-25" fill="none" stroke="rgb(204,204,204)" stroke-width="10" transform="matrix(1,0,0,-1,888,1091)"/>
 <path d="M630,704 l9,29 c-99,109,-244,169,-368,169 c-143,0,-240,-87,-240,-168 c0,-49,31,-75,63,-114 l-144,0 l0,-8 l60,-60 l87,0 l-2,-542 l68,-53 l11,0 l-8,595 l91,0 l0,8 l-60,60 l-53,0 c-24,32,-31,53,-31,76 c0,72,73,137,201,137 c99,0,207,-32,309,-129 Z M630,704" fill="rgb(0,0,0)" transform="matrix(1,0,0,-1,641,1091)"/>
</svg>