<?xml version="1.0" encoding="UTF-8"?>
<svg height="1521" version="1.1" width="2238.75" xmlns="http://www.w3.org/2000/svg" xmlns:xlink="http://www.w3.org/1999/xlink">
 <path d="M0,0 l2238.75,0 l0,1521 l-2238.75,0 Z M0,0" fill="rgb(255,255,255)" transform="matrix(1,0,0,-1,0,1521)"/>
 <path d="M0,0 l2238.75,0" fill="none" stroke="rgb(229,229,229)" stroke-width="10" transform="matrix(1,0,0,-1,0,1091)"/>
 <path d="M0,5 l0,-25" fill="none" stroke="rgb(204,204,204)" stroke-width="10" transform="matrix(1,0,0,-1,641,1091)"/>
 <path d="M0,5 l0,-25" fill="none" stroke="rgb(204,204,204)" stroke-width="10" transform="matrix(1,0,0,-1,888,1091)"/>
 <path d="M771,655 l10,35 c-135,128,-328,204,-482,204 c-148,0,-267,-73,-267,-165 c0,-46,29,-70,62,-109 l-144,0 l0,-8 l60,-60 l87,0 l-2,-542 l68,-53 l11,0 l-8,595 l91,0 l0,8 l-60,60 l-53,0 c-24,30,-29,48,-29,69 c0,84,105,132,226,132 c138,0,290,-48,423,-166 Z M771,655" fill="rgb(0,0,0)" transform="matrix(1,0,0,-1,641,1091)"/>
</svg>