<?xml version="1.0" encoding="UTF-8"?>
<svg height="1521" version="1.1" width="2238.75" xmlns="http://www.w3.org/2000/svg" xmlns:xlink="http://www.w3.org/1999/xlink">
 <path d="M0,0 l2238.75,0 l0,1521 l-2238.75,0 Z M0,0" fill="rgb(255,255,255)" transform="matrix(1,0,0,-1,0,1521)"/>
 <path d="M0,0 l2238.75,0" fill="none" stroke="rgb(229,229,229)" stroke-width="10" transform="matrix(1,0,0,-1,0,1091)"/>
 <path d="M0,5 l0,-25" fill="none" stroke="rgb(204,204,204)" stroke-width="10" transform="matrix(1,0,0,-1,641,1091)"/>
 <path d="M0,5 l0,-25" fill="none" stroke="rgb(204,204,204)" stroke-width="10" transform="matrix(1,0,0,-1,888,1091)"/>
 <path d="M1091,655 l14,35 c-220,132,-520,210,-736,210 c-158,0,-338,-41,-338,-167 c0,-48,25,-68,64,-113 l-145,0 l0,-8 l60,-60 l87,0 l-1,-542 l67,-53 l11,0 l-5,595 l88,0 l0,8 l-60,60 l-53,0 c-25,33,-30,49,-30,70 c0,127,190,138,288,138 c227,0,482,-59,682,-173 Z M1091,655" fill="rgb(0,0,0)" transform="matrix(1,0,0,-1,641,1091)"/>
</svg>