<?xml version="1.0" encoding="UTF-8"?>
<svg height="1521" version="1.1" width="2238.75" xmlns="http://www.w3.org/2000/svg" xmlns:xlink="http://www.w3.org/1999/xlink">
 <path d="M0,0 l2238.75,0 l0,1521 l-2238.75,0 Z M0,0" fill="rgb(255,255,255)" transform="matrix(1,0,0,-1,0,1521)"/>
 <path d="M0,0 l2238.75,0" fill="none" stroke="rgb(229,229,229)" stroke-width="10" transform="matrix(1,0,0,-1,0,1091)"/>
 <path d="M0,-20 l0,40" fill="none" stroke="rgb(255,76,25)" stroke-width="10" transform="matrix(1,0,0,-1,641,1091)"/>
 <path d="M-124,44 c10,-27,13,-59,13,-77 l0,-11 c-39,18,-66,23,-90,23 c-59,0,-108,-31,-108,-84 c0,-59,60,-94,117,-94 c52,0,105,30,122,83 c47,-28,105,-72,177,-139 l10,0 l-14,56 c-71,61,-125,102,-168,129 c-1,25,-8,75,-15,89 c-6,13,-22,21,-40,28 Z M-219,-145 c-32,0,-52,12,-52,32 c0,26,34,42,72,42 c21,0,45,-4,76,-17 c-19,-37,-56,-57,-96,-57 Z M-219,-145" fill="rgb(0,0,0)" transform="matrix(1,0,0,-1,641,1091)"/>
</svg>