<?xml version="1.0" encoding="UTF-8"?>
<svg height="1521" version="1.1" width="2238.75" xmlns="http://www.w3.org/2000/svg" xmlns:xlink="http://www.w3.org/1999/xlink">
 <path d="M0,0 l2238.75,0 l0,1521 l-2238.75,0 Z M0,0" fill="rgb(255,255,255)" transform="matrix(1,0,0,-1,0,1521)"/>
 <path d="M0,0 l2238.75,0" fill="none" stroke="rgb(229,229,229)" stroke-width="10" transform="matrix(1,0,0,-1,0,1091)"/>
 <path d="M0,-20 l0,40" fill="none" stroke="rgb(255,76,25)" stroke-width="10" transform="matrix(1,0,0,-1,641,1091)"/>
 <path d="M-67,-77 c0,56,-11,118,-20,158 l-38,-12 c8,-42,12,-76,12,-102 c-20,9,-38,12,-56,12 c-55,0,-99,-30,-99,-82 c0,-58,56,-97,127,-97 c30,0,69,6,104,27 c38,-18,84,-45,139,-82 l8,0 l-12,50 c-61,39,-123,71,-160,87 l-5,0 c-26,-15,-68,-26,-103,-26 c-36,0,-59,11,-59,32 c0,22,23,41,89,41 c21,0,41,-2,73,-6 Z M-67,-77" fill="rgb(0,0,0)" transform="matrix(1,0,0,-1,641,1091)"/>
</svg>