<?xml version="1.0" encoding="UTF-8"?>
<svg height="1521" version="1.1" width="2238.75" xmlns="http://www.w3.org/2000/svg" xmlns:xlink="http://www.w3.org/1999/xlink">
 <path d="M0,0 l2238.75,0 l0,1521 l-2238.75,0 Z M0,0" fill="rgb(255,255,255)" transform="matrix(1,0,0,-1,0,1521)"/>
 <path d="M0,0 l2238.75,0" fill="none" stroke="rgb(229,229,229)" stroke-width="10" transform="matrix(1,0,0,-1,0,1091)"/>
 <path d="M0,-20 l0,40" fill="none" stroke="rgb(255,76,25)" stroke-width="10" transform="matrix(1,0,0,-1,641,1091)"/>
 <path d="M-64,-73 c-9,22,-17,38,-32,45 c-11,5,-33,8,-55,8 c-56,0,-117,-19,-117,-82 c0,-59,56,-98,127,-98 c30,0,68,7,103,27 c38,-18,84,-44,140,-82 l8,0 l-12,50 c-61,39,-123,71,-160,87 l-5,0 c-26,-15,-67,-26,-104,-26 c-35,0,-58,9,-58,33 c0,30,41,40,90,40 c30,0,56,-4,72,-7 Z M-64,-73" fill="rgb(0,0,0)" transform="matrix(1,0,0,-1,641,1091)"/>
</svg>