<?xml version="1.0" encoding="UTF-8"?>
<svg height="1521" version="1.1" width="2238.75" xmlns="http://www.w3.org/2000/svg" xmlns:xlink="http://www.w3.org/1999/xlink">
 <path d="M0,0 l2238.75,0 l0,1521 l-2238.75,0 Z M0,0" fill="rgb(255,255,255)" transform="matrix(1,0,0,-1,0,1521)"/>
 <path d="M0,0 l2238.75,0" fill="none" stroke="rgb(229,229,229)" stroke-width="10" transform="matrix(1,0,0,-1,0,1091)"/>
 <path d="M0,-20 l0,40" fill="none" stroke="rgb(255,76,25)" stroke-width="10" transform="matrix(1,0,0,-1,641,1091)"/>
 <path d="M-13,-248 l-11,45 c-37,33,-96,76,-146,112 l101,58 l-19,67 l-184,-108 l3,-7 c39,-23,74,-44,109,-67 l-112,-66 l3,-7 c90,-53,159,-98,247,-167 l9,0 l-11,45 c-37,33,-98,77,-148,113 l72,42 c25,-18,51,-38,78,-60 Z M-13,-248" fill="rgb(0,0,0)" transform="matrix(1,0,0,-1,641,1091)"/>
</svg>