<?xml version="1.0" encoding="UTF-8"?>
<svg height="1521" version="1.1" width="2238.75" xmlns="http://www.w3.org/2000/svg" xmlns:xlink="http://www.w3.org/1999/xlink">
 <path d="M0,0 l2238.75,0 l0,1521 l-2238.75,0 Z M0,0" fill="rgb(255,255,255)" transform="matrix(1,0,0,-1,0,1521)"/>
 <path d="M0,0 l2238.75,0" fill="none" stroke="rgb(229,229,229)" stroke-width="10" transform="matrix(1,0,0,-1,0,1091)"/>
 <path d="M0,-20 l0,40" fill="none" stroke="rgb(255,76,25)" stroke-width="10" transform="matrix(1,0,0,-1,641,1091)"/>
 <path d="M-246,71 l-5,0 c-20,-14,-28,-35,-28,-58 c0,-62,69,-90,117,-110 c64,-27,117,-52,117,-107 c0,-36,-23,-67,-58,-88 l-1,0 c0,2,4,15,4,34 c0,52,-32,109,-101,109 c-64,0,-96,-49,-96,-99 c0,-45,24,-96,73,-96 c28,0,49,16,49,43 c0,25,-18,39,-38,39 c-21,0,-36,-13,-36,-38 c0,-1,0,-5,1,-9 l-1,-2 c-15,8,-19,27,-19,42 c0,39,33,67,77,67 c47,0,66,-30,66,-76 c0,-26,-6,-53,-16,-78 l18,-12 c67,46,110,91,110,167 c0,111,-95,144,-161,169 c-42,16,-74,29,-74,56 c0,13,6,23,16,32 Z M-246,71" fill="rgb(0,0,0)" transform="matrix(1,0,0,-1,641,1091)"/>
</svg>