<?xml version="1.0" encoding="UTF-8"?>
<svg height="1521" version="1.1" width="2238.75" xmlns="http://www.w3.org/2000/svg" xmlns:xlink="http://www.w3.org/1999/xlink">
 <path d="M0,0 l2238.75,0 l0,1521 l-2238.75,0 Z M0,0" fill="rgb(255,255,255)" transform="matrix(1,0,0,-1,0,1521)"/>
 <path d="M0,0 l2238.75,0" fill="none" stroke="rgb(229,229,229)" stroke-width="10" transform="matrix(1,0,0,-1,0,1091)"/>
 <path d="M0,-20 l0,40" fill="none" stroke="rgb(255,76,25)" stroke-width="10" transform="matrix(1,0,0,-1,641,1091)"/>
 <path d="M-405,51 l-5,0 c-20,-14,-28,-35,-28,-58 c0,-62,65,-90,110,-110 c61,-27,111,-52,111,-107 c0,-36,-23,-67,-58,-88 l-1,0 c0,2,4,15,4,34 c0,52,-31,109,-98,109 c-63,0,-94,-49,-94,-99 c0,-45,24,-96,73,-96 c28,0,49,16,49,43 c0,25,-18,39,-38,39 c-21,0,-36,-13,-36,-38 c0,-1,0,-5,1,-9 l-1,-2 c-15,8,-19,27,-19,42 c0,39,32,67,74,67 c46,0,64,-30,64,-76 c0,-26,-6,-53,-16,-78 l18,-12 c67,46,109,90,109,166 c0,7,0,14,-1,20 c44,-1,62,-31,62,-76 c0,-26,-6,-53,-16,-78 l18,-12 c67,46,110,91,110,167 c0,111,-95,144,-161,169 c-42,16,-74,29,-74,56 c0,13,6,23,16,32 l-14,15 l-5,0 c-20,-14,-27,-34,-27,-57 c0,-62,69,-90,117,-110 c64,-27,116,-53,116,-108 c0,-36,-23,-67,-58,-88 l-1,0 c0,2,4,15,4,34 c0,52,-32,107,-101,107 l-1,0 c-28,56,-90,80,-136,98 c-40,16,-69,30,-69,57 c0,13,6,23,16,32 Z M-405,51" fill="rgb(0,0,0)" transform="matrix(1,0,0,-1,641,1091)"/>
</svg>