<?xml version="1.0" encoding="UTF-8"?>
<svg height="1521" version="1.1" width="2238.75" xmlns="http://www.w3.org/2000/svg" xmlns:xlink="http://www.w3.org/1999/xlink">
 <path d="M0,0 l2238.75,0 l0,1521 l-2238.75,0 Z M0,0" fill="rgb(255,255,255)" transform="matrix(1,0,0,-1,0,1521)"/>
 <path d="M0,0 l2238.75,0" fill="none" stroke="rgb(229,229,229)" stroke-width="10" transform="matrix(1,0,0,-1,0,1091)"/>
 <path d="M0,5 l0,-25" fill="none" stroke="rgb(204,204,204)" stroke-width="10" transform="matrix(1,0,0,-1,641,1091)"/>
 <path d="M0,5 l0,-25" fill="none" stroke="rgb(204,204,204)" stroke-width="10" transform="matrix(1,0,0,-1,1046,1091)"/>
 <path d="M415,552 l0,8 l-60,60 l-405,0 l0,-8 l60,-60 l174,0 l1,-3 c-87,-68,-130,-168,-130,-275 c0,-151,88,-308,233,-308 c68,0,117,36,117,90 c0,50,-39,77,-80,77 c-44,0,-69,-33,-69,-66 c0,-17,6,-35,20,-48 l0,-2 c-6,-2,-12,-2,-13,-2 c-83,0,-127,93,-127,212 c0,210,138,325,279,325 Z M415,552" fill="rgb(0,0,0)" transform="matrix(1,0,0,-1,641,1091)"/>
</svg>