<?xml version="1.0" encoding="UTF-8"?>
<svg height="1521" version="1.1" width="2238.75" xmlns="http://www.w3.org/2000/svg" xmlns:xlink="http://www.w3.org/1999/xlink">
 <path d="M0,0 l2238.75,0 l0,1521 l-2238.75,0 Z M0,0" fill="rgb(255,255,255)" transform="matrix(1,0,0,-1,0,1521)"/>
 <path d="M0,0 l2238.75,0" fill="none" stroke="rgb(229,229,229)" stroke-width="10" transform="matrix(1,0,0,-1,0,1091)"/>
 <path d="M0,5 l0,-25" fill="none" stroke="rgb(204,204,204)" stroke-width="10" transform="matrix(1,0,0,-1,641,1091)"/>
 <path d="M0,5 l0,-25" fill="none" stroke="rgb(204,204,204)" stroke-width="10" transform="matrix(1,0,0,-1,1037,1091)"/>
 <path d="M406,552 l0,8 l-60,60 c-163,-4,-301,-146,-301,-341 c0,-154,87,-313,232,-313 c69,0,118,35,118,90 c0,50,-39,77,-80,77 c-44,0,-69,-33,-69,-66 c0,-17,6,-35,20,-48 l0,-2 c-6,-2,-12,-2,-13,-2 c-82,0,-127,96,-127,218 c0,233,166,319,280,319 Z M406,552" fill="rgb(0,0,0)" transform="matrix(1,0,0,-1,641,1091)"/>
</svg>