<?xml version="1.0" encoding="UTF-8"?>
<svg height="1521" version="1.1" width="2238.75" xmlns="http://www.w3.org/2000/svg" xmlns:xlink="http://www.w3.org/1999/xlink">
 <path d="M0,0 l2238.75,0 l0,1521 l-2238.75,0 Z M0,0" fill="rgb(255,255,255)" transform="matrix(1,0,0,-1,0,1521)"/>
 <path d="M0,0 l2238.75,0" fill="none" stroke="rgb(229,229,229)" stroke-width="10" transform="matrix(1,0,0,-1,0,1091)"/>
 <path d="M0,5 l0,-25" fill="none" stroke="rgb(204,204,204)" stroke-width="10" transform="matrix(1,0,0,-1,641,1091)"/>
 <path d="M0,5 l0,-25" fill="none" stroke="rgb(204,204,204)" stroke-width="10" transform="matrix(1,0,0,-1,2017,1091)"/>
 <path d="M415,552 l0,8 l-60,60 l-405,0 l0,-8 l60,-60 l174,0 l1,-3 c-87,-68,-130,-168,-130,-275 c0,-151,88,-308,233,-308 c68,0,117,36,117,90 c0,50,-39,77,-80,77 c-44,0,-69,-33,-69,-66 c0,-17,6,-35,20,-48 l0,-2 c-6,-2,-12,-2,-13,-2 c-83,0,-127,93,-127,212 c0,210,138,325,279,325 Z M445,309 c0,-28,15,-43,44,-43 c28,0,42,15,42,43 c0,28,-14,43,-42,43 c-29,0,-44,-15,-44,-43 Z M1004,309 c0,-28,13,-43,41,-43 c30,0,44,15,44,43 c0,28,-14,43,-44,43 c-28,0,-41,-15,-41,-43 Z M724,587 c0,-27,15,-40,43,-40 c28,0,43,13,43,40 c0,29,-15,43,-43,43 c-28,0,-43,-14,-43,-43 Z M724,30 c0,-28,15,-42,43,-42 c28,0,43,14,43,42 c0,29,-15,43,-43,43 c-28,0,-43,-14,-43,-43 Z M968,448 c0,-27,14,-42,42,-42 c28,0,43,15,43,42 c0,29,-15,43,-43,43 c-28,0,-42,-14,-42,-43 Z M968,169 c0,-28,14,-42,42,-42 c28,0,43,14,43,42 c0,29,-15,43,-43,43 c-28,0,-42,-14,-42,-43 Z M482,448 c0,-27,14,-42,42,-42 c29,0,43,15,43,42 c0,29,-14,43,-43,43 c-28,0,-42,-14,-42,-43 Z M482,169 c0,-28,14,-42,42,-42 c29,0,43,14,43,42 c0,29,-14,43,-43,43 c-28,0,-42,-14,-42,-43 Z M585,552 c0,-29,14,-43,43,-43 c28,0,43,14,43,43 c0,28,-15,42,-43,42 c-29,0,-43,-14,-43,-42 Z M864,552 c0,-29,14,-43,42,-43 c30,0,44,14,44,43 c0,28,-14,42,-44,42 c-28,0,-42,-14,-42,-42 Z M585,66 c0,-28,14,-42,43,-42 c28,0,43,14,43,42 c0,29,-15,43,-43,43 c-29,0,-43,-14,-43,-43 Z M864,66 c0,-28,14,-42,42,-42 c30,0,44,14,44,42 c0,29,-14,43,-44,43 c-28,0,-42,-14,-42,-43 Z M1294,620 c-8,95,-58,165,-199,165 c-50,0,-192,-9,-257,-9 c-81,0,-114,15,-114,54 c0,13,4,28,16,46 l-24,20 l-8,0 c-20,-23,-28,-51,-28,-75 c0,-73,70,-127,202,-127 c57,0,204,10,257,10 c79,0,107,-22,107,-49 c0,-10,-4,-22,-14,-35 l-153,0 l0,-8 l60,-60 l87,0 l-2,-542 l68,-53 l11,0 l-8,595 l91,0 l0,8 l-60,60 Z M1294,620" fill="rgb(0,0,0)" transform="matrix(1,0,0,-1,641,1091)"/>
</svg>