<?xml version="1.0" encoding="UTF-8"?>
<svg height="1521" version="1.1" width="2238.75" xmlns="http://www.w3.org/2000/svg" xmlns:xlink="http://www.w3.org/1999/xlink">
 <path d="M0,0 l2238.75,0 l0,1521 l-2238.75,0 Z M0,0" fill="rgb(255,255,255)" transform="matrix(1,0,0,-1,0,1521)"/>
 <path d="M0,0 l2238.75,0" fill="none" stroke="rgb(229,229,229)" stroke-width="10" transform="matrix(1,0,0,-1,0,1091)"/>
 <path d="M0,5 l0,-25" fill="none" stroke="rgb(204,204,204)" stroke-width="10" transform="matrix(1,0,0,-1,641,1091)"/>
 <path d="M0,5 l0,-25" fill="none" stroke="rgb(204,204,204)" stroke-width="10" transform="matrix(1,0,0,-1,781,1091)"/>
 <path d="M-50,620 l0,-8 l60,-60 l140,0 l0,8 l-60,60 Z M67,847 c-16,-73,-67,-104,-120,-104 c-51,0,-104,29,-125,96 l-28,8 l-7,-2 c20,-117,89,-174,163,-174 c71,0,133,52,147,168 l-24,10 Z M-55,790 c29,0,51,23,51,50 c0,28,-22,50,-51,50 c-30,0,-52,-22,-52,-50 c0,-27,22,-50,52,-50 Z M-55,790" fill="rgb(0,0,0)" transform="matrix(1,0,0,-1,641,1091)"/>
</svg>