<?xml version="1.0" encoding="UTF-8"?>
<svg height="1521" version="1.1" width="2238.75" xmlns="http://www.w3.org/2000/svg" xmlns:xlink="http://www.w3.org/1999/xlink">
 <path d="M0,0 l2238.75,0 l0,1521 l-2238.75,0 Z M0,0" fill="rgb(255,255,255)" transform="matrix(1,0,0,-1,0,1521)"/>
 <path d="M0,0 l2238.75,0" fill="none" stroke="rgb(229,229,229)" stroke-width="10" transform="matrix(1,0,0,-1,0,1091)"/>
 <path d="M0,5 l0,-25" fill="none" stroke="rgb(204,204,204)" stroke-width="10" transform="matrix(1,0,0,-1,641,1091)"/>
 <path d="M0,5 l0,-25" fill="none" stroke="rgb(204,204,204)" stroke-width="10" transform="matrix(1,0,0,-1,888,1091)"/>
 <path d="M97,552 l-2,-542 l68,-53 l11,0 l-8,584 c0,4,-1,7,-1,11 l92,0 l0,8 l-60,60 l-38,0 c-14,79,-46,140,-92,186 l120,105 l0,4 l-22,6 l-133,-84 c-71,54,-167,78,-268,78 c-147,0,-229,-54,-229,-126 c0,-62,61,-103,149,-103 c43,0,81,10,113,10 c38,0,68,-11,68,-41 c0,-11,-3,-25,-14,-40 l69,0 c-3,19,-7,35,-12,50 l119,106 c45,-39,67,-92,69,-151 l-146,0 l0,-8 l60,-60 Z M-240,768 c-48,0,-102,-13,-134,-13 c-40,0,-48,19,-48,29 c0,28,63,60,193,60 c89,0,157,-15,208,-41 l-113,-71 c-28,26,-64,36,-106,36 Z M-240,768" fill="rgb(0,0,0)" transform="matrix(1,0,0,-1,641,1091)"/>
</svg>