<?xml version="1.0" encoding="UTF-8"?>
<svg height="1521" version="1.1" width="2238.75" xmlns="http://www.w3.org/2000/svg" xmlns:xlink="http://www.w3.org/1999/xlink">
 <path d="M0,0 l2238.75,0 l0,1521 l-2238.75,0 Z M0,0" fill="rgb(255,255,255)" transform="matrix(1,0,0,-1,0,1521)"/>
 <path d="M0,0 l2238.75,0" fill="none" stroke="rgb(229,229,229)" stroke-width="10" transform="matrix(1,0,0,-1,0,1091)"/>
 <path d="M0,5 l0,-25" fill="none" stroke="rgb(204,204,204)" stroke-width="10" transform="matrix(1,0,0,-1,641,1091)"/>
 <path d="M0,5 l0,-25" fill="none" stroke="rgb(204,204,204)" stroke-width="10" transform="matrix(1,0,0,-1,888,1091)"/>
 <path d="M174,-43 l-9,647 c-2,101,-57,158,-135,175 l147,132 l0,4 l-22,6 l-212,-137 c-72,-2,-165,-8,-244,-8 c-66,0,-104,15,-104,54 c0,13,4,28,16,46 l-24,20 l-8,0 c-20,-23,-28,-51,-28,-75 c0,-67,63,-124,181,-124 c72,0,132,12,283,12 c68,0,102,-27,102,-54 c0,-10,-4,-22,-14,-35 l-153,0 l0,-8 l60,-60 l87,0 l-2,-542 l68,-53 Z M174,-43" fill="rgb(0,0,0)" transform="matrix(1,0,0,-1,641,1091)"/>
</svg>