<?xml version="1.0" encoding="UTF-8"?>
<svg height="1521" version="1.1" width="2238.75" xmlns="http://www.w3.org/2000/svg" xmlns:xlink="http://www.w3.org/1999/xlink">
 <path d="M0,0 l2238.75,0 l0,1521 l-2238.75,0 Z M0,0" fill="rgb(255,255,255)" transform="matrix(1,0,0,-1,0,1521)"/>
 <path d="M0,0 l2238.75,0" fill="none" stroke="rgb(229,229,229)" stroke-width="10" transform="matrix(1,0,0,-1,0,1091)"/>
 <path d="M0,5 l0,-25" fill="none" stroke="rgb(204,204,204)" stroke-width="10" transform="matrix(1,0,0,-1,641,1091)"/>
 <path d="M0,5 l0,-25" fill="none" stroke="rgb(204,204,204)" stroke-width="10" transform="matrix(1,0,0,-1,878,1091)"/>
 <path d="M164,-43 l-9,644 c-2,116,-54,191,-186,191 l132,119 l0,4 l-22,6 l-208,-134 c-84,-6,-193,-15,-261,-15 c-56,0,-77,24,-77,58 c0,17,6,34,16,49 l-24,20 l-8,0 c-19,-23,-28,-47,-28,-76 c0,-70,52,-123,167,-123 c82,0,289,20,350,20 c78,0,101,-33,101,-64 c0,-11,-3,-22,-14,-36 l-143,0 l0,-8 l60,-60 l77,0 l-2,-542 l68,-53 Z M164,-43" fill="rgb(0,0,0)" transform="matrix(1,0,0,-1,641,1091)"/>
</svg>