<?xml version="1.0" encoding="UTF-8"?>
<svg height="1521" version="1.1" width="2238.75" xmlns="http://www.w3.org/2000/svg" xmlns:xlink="http://www.w3.org/1999/xlink">
 <path d="M0,0 l2238.75,0 l0,1521 l-2238.75,0 Z M0,0" fill="rgb(255,255,255)" transform="matrix(1,0,0,-1,0,1521)"/>
 <path d="M0,0 l2238.75,0" fill="none" stroke="rgb(229,229,229)" stroke-width="10" transform="matrix(1,0,0,-1,0,1091)"/>
 <path d="M0,5 l0,-25" fill="none" stroke="rgb(204,204,204)" stroke-width="10" transform="matrix(1,0,0,-1,641,1091)"/>
 <path d="M0,5 l0,-25" fill="none" stroke="rgb(204,204,204)" stroke-width="10" transform="matrix(1,0,0,-1,1423,1091)"/>
 <path d="M356,233 c71,58,96,95,96,141 c0,61,-43,111,-121,111 c-25,0,-54,-5,-78,-14 c3,39,41,75,107,75 c93,0,139,-71,167,-147 l24,-10 c15,38,28,75,40,119 c38,-38,53,-71,53,-105 c0,-28,-11,-50,-37,-69 c-15,9,-31,14,-48,14 c-38,0,-68,-26,-68,-66 c0,-43,37,-67,75,-67 c23,0,46,9,64,25 c15,-17,21,-35,21,-51 c0,-49,-53,-87,-152,-87 c-161,0,-338,106,-439,413 l-30,9 l-10,0 c99,-367,299,-518,495,-518 c132,0,190,70,190,148 c0,35,-12,74,-39,113 c26,19,49,52,49,97 c0,58,-37,98,-83,150 c-30,33,-68,75,-70,109 l-25,10 c-9,-47,-20,-88,-33,-123 c-43,60,-96,110,-182,110 c-104,0,-175,-73,-175,-155 c0,-55,31,-82,58,-82 c7,0,12,1,24,6 c38,15,93,51,133,51 c20,0,30,-10,30,-24 c0,-26,-28,-61,-117,-117 Z M356,233" fill="rgb(0,0,0)" transform="matrix(1,0,0,-1,641,1091)"/>
</svg>