<?xml version="1.0" encoding="UTF-8"?>
<svg height="1521" version="1.1" width="2238.75" xmlns="http://www.w3.org/2000/svg" xmlns:xlink="http://www.w3.org/1999/xlink">
 <path d="M0,0 l2238.75,0 l0,1521 l-2238.75,0 Z M0,0" fill="rgb(255,255,255)" transform="matrix(1,0,0,-1,0,1521)"/>
 <path d="M0,0 l2238.75,0" fill="none" stroke="rgb(229,229,229)" stroke-width="10" transform="matrix(1,0,0,-1,0,1091)"/>
 <path d="M0,5 l0,-25" fill="none" stroke="rgb(204,204,204)" stroke-width="10" transform="matrix(1,0,0,-1,641,1091)"/>
 <path d="M0,5 l0,-25" fill="none" stroke="rgb(204,204,204)" stroke-width="10" transform="matrix(1,0,0,-1,1498,1091)"/>
 <path d="M610,350 c37,24,75,41,107,51 c-1,-45,-2,-100,-2,-162 c0,-62,1,-125,3,-188 l68,-58 l6,3 c-2,73,-3,147,-3,215 c0,68,1,125,3,192 l-89,78 c-10,-3,-57,-20,-93,-39 l0,110 l257,0 l0,8 l-60,60 l-274,0 l0,-238 c0,-116,0,-179,4,-234 l-3,-2 c-67,85,-133,124,-202,149 l0,2 c92,29,151,86,151,160 c0,82,-74,177,-196,177 c-110,0,-184,-77,-184,-148 c0,-49,37,-86,89,-86 c49,0,76,32,76,70 c0,18,-6,36,-23,50 c26,32,64,50,99,50 c48,0,72,-31,72,-66 c0,-80,-133,-157,-246,-157 c-1,0,-5,0,-12,1 l-4,-4 l56,-105 c202,0,320,-107,353,-212 l-4,-2 c-60,58,-124,74,-192,74 c-34,0,-103,-5,-137,-5 c-103,0,-148,37,-148,107 c0,26,6,58,20,87 l-23,15 l-9,0 c-21,-35,-35,-82,-35,-124 c0,-108,90,-170,212,-170 c47,0,131,10,196,10 c76,0,114,-13,135,-78 l28,-17 l11,0 c-6,115,-7,181,-7,188 Z M610,350" fill="rgb(0,0,0)" transform="matrix(1,0,0,-1,641,1091)"/>
</svg>