<?xml version="1.0" encoding="UTF-8"?>
<svg height="1521" version="1.1" width="2238.75" xmlns="http://www.w3.org/2000/svg" xmlns:xlink="http://www.w3.org/1999/xlink">
 <path d="M0,0 l2238.75,0 l0,1521 l-2238.75,0 Z M0,0" fill="rgb(255,255,255)" transform="matrix(1,0,0,-1,0,1521)"/>
 <path d="M0,0 l2238.75,0" fill="none" stroke="rgb(229,229,229)" stroke-width="10" transform="matrix(1,0,0,-1,0,1091)"/>
 <path d="M0,5 l0,-25" fill="none" stroke="rgb(204,204,204)" stroke-width="10" transform="matrix(1,0,0,-1,641,1091)"/>
 <path d="M0,5 l0,-25" fill="none" stroke="rgb(204,204,204)" stroke-width="10" transform="matrix(1,0,0,-1,1408,1091)"/>
 <path d="M269,552 l508,0 l0,8 l-60,60 l-767,0 l0,-8 l60,-60 l179,0 l0,-289 l81,-77 l6,0 c46,62,105,138,193,200 l3,-3 c-21,-52,-26,-109,-26,-161 c0,-64,9,-122,23,-176 l-2,-1 c-44,50,-110,70,-162,70 c-21,0,-87,-4,-117,-4 c-74,0,-106,22,-106,78 c0,22,5,56,20,85 l-23,15 l-9,0 c-21,-35,-35,-82,-35,-123 c0,-73,47,-139,175,-139 c45,0,120,8,162,8 c55,0,107,-15,126,-85 l27,-17 l11,0 c-16,72,-26,149,-26,215 c0,22,0,44,2,65 c37,24,83,48,115,58 c-1,-29,-2,-66,-2,-107 c0,-41,1,-83,3,-124 l66,-57 l6,3 c-2,55,-3,110,-3,161 c0,51,1,84,3,134 l-87,59 c-9,-3,-50,-20,-84,-37 c13,42,34,81,66,117 l0,6 l-108,78 c-78,-52,-165,-130,-216,-187 l-2,1 Z M269,552" fill="rgb(0,0,0)" transform="matrix(1,0,0,-1,641,1091)"/>
</svg>