<?xml version="1.0" encoding="UTF-8"?>
<svg height="1521" version="1.1" width="2238.75" xmlns="http://www.w3.org/2000/svg" xmlns:xlink="http://www.w3.org/1999/xlink">
 <path d="M0,0 l2238.75,0 l0,1521 l-2238.75,0 Z M0,0" fill="rgb(255,255,255)" transform="matrix(1,0,0,-1,0,1521)"/>
 <path d="M0,0 l2238.75,0" fill="none" stroke="rgb(229,229,229)" stroke-width="10" transform="matrix(1,0,0,-1,0,1091)"/>
 <path d="M0,5 l0,-25" fill="none" stroke="rgb(204,204,204)" stroke-width="10" transform="matrix(1,0,0,-1,641,1091)"/>
 <path d="M0,5 l0,-25" fill="none" stroke="rgb(204,204,204)" stroke-width="10" transform="matrix(1,0,0,-1,1361,1091)"/>
 <path d="M730,552 l0,8 l-60,60 l-720,0 l0,-8 l60,-60 l481,0 l0,-125 l-3,-1 c-56,70,-130,89,-182,89 c-75,0,-119,-41,-119,-93 c0,-49,38,-87,90,-87 c51,0,78,34,78,69 c0,21,-10,43,-32,58 l1,2 c78,-6,136,-51,167,-105 c-96,-11,-220,-79,-220,-168 c0,-50,38,-79,79,-79 c43,0,65,31,65,62 c0,21,-10,42,-31,55 c35,58,117,88,163,88 c34,0,49,-15,49,-41 c0,-30,-19,-60,-28,-69 c-11,7,-24,12,-40,12 c-38,0,-62,-32,-62,-63 c0,-31,22,-62,66,-62 c22,0,44,8,62,26 c15,-8,27,-25,27,-43 c0,-36,-48,-80,-141,-80 c-159,0,-307,126,-420,503 l-30,9 l-10,0 c109,-435,280,-603,472,-603 c117,0,178,63,178,136 c0,42,-21,83,-49,109 c17,25,27,61,27,92 c0,51,-29,94,-81,110 c-1,72,-2,148,-2,199 Z M730,552" fill="rgb(0,0,0)" transform="matrix(1,0,0,-1,641,1091)"/>
</svg>