<?xml version="1.0" encoding="UTF-8"?>
<svg height="1521" version="1.1" width="2238.75" xmlns="http://www.w3.org/2000/svg" xmlns:xlink="http://www.w3.org/1999/xlink">
 <path d="M0,0 l2238.75,0 l0,1521 l-2238.75,0 Z M0,0" fill="rgb(255,255,255)" transform="matrix(1,0,0,-1,0,1521)"/>
 <path d="M0,0 l2238.75,0" fill="none" stroke="rgb(229,229,229)" stroke-width="10" transform="matrix(1,0,0,-1,0,1091)"/>
 <path d="M0,5 l0,-25" fill="none" stroke="rgb(204,204,204)" stroke-width="10" transform="matrix(1,0,0,-1,641,1091)"/>
 <path d="M0,5 l0,-25" fill="none" stroke="rgb(204,204,204)" stroke-width="10" transform="matrix(1,0,0,-1,1366,1091)"/>
 <path d="M735,552 l0,8 l-60,60 l-168,0 l0,-12 c0,-78,0,-128,6,-179 l-4,-1 c-67,136,-151,195,-253,195 c-130,0,-219,-94,-219,-156 c0,-31,21,-53,54,-53 c33,0,45,25,75,25 c25,0,37,-18,37,-46 c0,-31,-14,-52,-52,-90 l0,-5 l87,-42 c75,79,133,140,208,201 c34,-46,57,-101,62,-147 c-120,-5,-213,-75,-213,-156 c0,-52,42,-84,87,-84 c46,0,68,31,68,61 c0,23,-13,45,-36,57 c45,50,112,72,157,72 c31,0,59,-11,59,-39 c0,-18,-12,-46,-32,-64 c-12,6,-26,10,-41,10 c-34,0,-69,-22,-69,-63 c0,-40,34,-64,73,-64 c21,0,44,7,63,23 c17,-8,28,-22,28,-41 c0,-40,-45,-78,-144,-78 c-144,0,-320,77,-434,384 l-29,8 l-10,0 c109,-379,332,-485,492,-485 c134,0,180,75,180,137 c0,40,-20,81,-51,107 c18,28,29,67,29,98 c0,55,-38,95,-100,110 l-4,249 Z M244,391 l-2,2 c1,6,1,13,1,14 c0,49,-34,77,-80,80 l-2,2 c28,39,73,63,122,63 c37,0,71,-13,101,-34 c-58,-50,-104,-92,-140,-127 Z M244,391" fill="rgb(0,0,0)" transform="matrix(1,0,0,-1,641,1091)"/>
</svg>