<?xml version="1.0" encoding="UTF-8"?>
<svg height="1521" version="1.1" width="2238.75" xmlns="http://www.w3.org/2000/svg" xmlns:xlink="http://www.w3.org/1999/xlink">
 <path d="M0,0 l2238.75,0 l0,1521 l-2238.75,0 Z M0,0" fill="rgb(255,255,255)" transform="matrix(1,0,0,-1,0,1521)"/>
 <path d="M0,0 l2238.75,0" fill="none" stroke="rgb(229,229,229)" stroke-width="10" transform="matrix(1,0,0,-1,0,1091)"/>
 <path d="M0,5 l0,-25" fill="none" stroke="rgb(204,204,204)" stroke-width="10" transform="matrix(1,0,0,-1,641,1091)"/>
 <path d="M0,5 l0,-25" fill="none" stroke="rgb(204,204,204)" stroke-width="10" transform="matrix(1,0,0,-1,1640,1091)"/>
 <path d="M600,185 c0,-34,7,-74,21,-101 l-4,-2 c-61,66,-115,79,-185,79 c-52,0,-148,-8,-195,-8 c-111,0,-155,42,-155,115 c0,26,6,58,20,87 l-23,15 l-9,0 c-21,-35,-35,-82,-35,-124 c0,-110,91,-177,219,-177 c56,0,185,13,241,13 c91,0,123,-31,150,-108 l28,-17 l11,0 c-6,115,-7,211,-7,218 l0,112 l2,0 c42,-76,94,-108,148,-108 c64,0,127,46,127,131 c0,102,-91,144,-147,144 c-47,0,-79,-30,-79,-68 c0,-34,29,-65,68,-65 c36,0,54,24,54,49 c0,11,-4,21,-11,30 l1,2 c43,-2,65,-30,65,-62 c0,-40,-35,-86,-102,-86 c-95,0,-126,93,-126,167 l0,131 l332,0 l0,8 l-60,60 l-348,0 l0,-12 c0,-78,0,-118,6,-169 l-4,-1 c-65,133,-145,192,-259,192 c-147,0,-246,-99,-246,-164 c0,-30,22,-54,53,-54 c38,0,44,30,81,30 c37,0,52,-33,52,-68 c0,-34,-15,-57,-53,-94 l0,-5 l88,-43 c82,87,147,155,228,224 c34,-50,53,-107,53,-147 Z M328,372 l-3,2 c1,8,1,12,1,13 c0,63,-43,100,-97,103 l-2,3 c36,44,93,66,145,66 c44,0,82,-16,115,-40 c-67,-58,-118,-106,-159,-147 Z M328,372" fill="rgb(0,0,0)" transform="matrix(1,0,0,-1,641,1091)"/>
</svg>