<?xml version="1.0" encoding="UTF-8"?>
<svg height="1521" version="1.1" width="2238.75" xmlns="http://www.w3.org/2000/svg" xmlns:xlink="http://www.w3.org/1999/xlink">
 <path d="M0,0 l2238.75,0 l0,1521 l-2238.75,0 Z M0,0" fill="rgb(255,255,255)" transform="matrix(1,0,0,-1,0,1521)"/>
 <path d="M0,0 l2238.75,0" fill="none" stroke="rgb(229,229,229)" stroke-width="10" transform="matrix(1,0,0,-1,0,1091)"/>
 <path d="M0,5 l0,-25" fill="none" stroke="rgb(204,204,204)" stroke-width="10" transform="matrix(1,0,0,-1,641,1091)"/>
 <path d="M0,5 l0,-25" fill="none" stroke="rgb(204,204,204)" stroke-width="10" transform="matrix(1,0,0,-1,1564,1091)"/>
 <path d="M601,552 l332,0 l0,8 l-60,60 l-923,0 l0,-8 l60,-60 l512,0 l0,-29 c-103,-35,-231,-95,-367,-168 l86,-97 c137,-27,255,-104,304,-207 l-4,-2 c-58,56,-116,70,-183,70 c-36,0,-95,-4,-127,-4 c-105,0,-149,39,-149,112 c0,26,6,58,20,87 l-23,15 l-9,0 c-21,-35,-35,-81,-35,-125 c0,-109,90,-174,212,-174 c47,0,122,9,185,9 c77,0,115,-13,136,-78 l28,-17 l11,0 c-5,97,-7,158,-7,230 l0,113 l3,0 c42,-76,94,-108,148,-108 c64,0,127,46,127,131 c0,102,-91,144,-147,144 c-47,0,-79,-30,-79,-68 c0,-34,29,-65,68,-65 c36,0,54,24,54,49 c0,11,-4,21,-11,30 l1,2 c43,-2,65,-30,65,-62 c0,-40,-35,-86,-102,-86 c-95,0,-126,93,-126,167 Z M293,325 l0,2 c73,39,152,74,229,102 c0,-135,0,-234,5,-279 l-3,-2 c-77,101,-156,147,-231,177 Z M293,325" fill="rgb(0,0,0)" transform="matrix(1,0,0,-1,641,1091)"/>
</svg>