<?xml version="1.0" encoding="UTF-8"?>
<svg height="1521" version="1.1" width="2238.75" xmlns="http://www.w3.org/2000/svg" xmlns:xlink="http://www.w3.org/1999/xlink">
 <path d="M0,0 l2238.75,0 l0,1521 l-2238.75,0 Z M0,0" fill="rgb(255,255,255)" transform="matrix(1,0,0,-1,0,1521)"/>
 <path d="M0,0 l2238.75,0" fill="none" stroke="rgb(229,229,229)" stroke-width="10" transform="matrix(1,0,0,-1,0,1091)"/>
 <path d="M0,5 l0,-25" fill="none" stroke="rgb(204,204,204)" stroke-width="10" transform="matrix(1,0,0,-1,641,1091)"/>
 <path d="M0,5 l0,-25" fill="none" stroke="rgb(204,204,204)" stroke-width="10" transform="matrix(1,0,0,-1,1560,1091)"/>
 <path d="M477,508 l-5,-1 c-40,-86,-99,-131,-152,-137 l-2,3 c16,15,23,33,23,53 c0,50,-40,75,-81,75 c-45,0,-91,-32,-91,-88 c0,-63,55,-118,150,-118 c85,0,149,44,193,115 l3,-1 l0,-85 c0,-129,8,-202,12,-225 l-2,-1 c-54,59,-105,70,-164,70 c-40,0,-90,-5,-126,-5 c-108,0,-152,45,-152,124 c0,30,6,65,24,98 l-23,15 l-9,0 c-25,-39,-40,-91,-40,-138 c0,-116,89,-186,215,-186 c50,0,117,11,172,11 c80,0,111,-25,138,-106 l28,-17 l11,0 c-4,85,-4,192,-4,206 l0,90 l4,0 c42,-76,94,-106,148,-106 c64,0,127,46,127,131 c0,102,-91,144,-147,144 c-47,0,-79,-30,-79,-68 c0,-34,29,-65,68,-65 c36,0,54,24,54,49 c0,11,-4,21,-11,30 l1,2 c43,-2,65,-30,65,-62 c0,-40,-35,-86,-102,-86 c-95,0,-122,87,-129,163 c-6,41,-38,87,-117,116 Z M929,552 l0,8 l-60,60 l-919,0 l0,-8 l60,-60 Z M929,552" fill="rgb(0,0,0)" transform="matrix(1,0,0,-1,641,1091)"/>
</svg>