<?xml version="1.0" encoding="UTF-8"?>
<svg height="1521" version="1.1" width="2238.75" xmlns="http://www.w3.org/2000/svg" xmlns:xlink="http://www.w3.org/1999/xlink">
 <path d="M0,0 l2238.75,0 l0,1521 l-2238.75,0 Z M0,0" fill="rgb(255,255,255)" transform="matrix(1,0,0,-1,0,1521)"/>
 <path d="M0,0 l2238.75,0" fill="none" stroke="rgb(229,229,229)" stroke-width="10" transform="matrix(1,0,0,-1,0,1091)"/>
 <path d="M0,5 l0,-25" fill="none" stroke="rgb(204,204,204)" stroke-width="10" transform="matrix(1,0,0,-1,641,1091)"/>
 <path d="M0,5 l0,-25" fill="none" stroke="rgb(204,204,204)" stroke-width="10" transform="matrix(1,0,0,-1,1423,1091)"/>
 <path d="M381,518 c-104,-43,-232,-109,-368,-192 l79,-99 c179,-25,299,-143,335,-243 l28,-17 l11,0 c-5,101,-7,165,-7,241 l0,79 l3,0 c42,-76,94,-108,148,-108 c64,0,127,46,127,131 c0,102,-91,144,-147,144 c-47,0,-79,-30,-79,-68 c0,-34,29,-65,68,-65 c36,0,54,24,54,49 c0,11,-4,21,-11,30 l1,2 c43,-2,65,-30,65,-62 c0,-40,-35,-86,-102,-86 c-95,0,-126,93,-126,167 l0,131 l332,0 l0,8 l-60,60 l-782,0 l0,-8 l60,-60 l371,0 Z M146,298 l-1,3 c75,48,157,87,236,121 c0,-146,1,-250,10,-299 l-3,-2 c-81,101,-163,147,-242,177 Z M140,60 c0,-33,26,-60,60,-60 c34,0,59,27,59,60 c0,33,-25,59,-59,59 c-34,0,-60,-26,-60,-59 Z M140,60" fill="rgb(0,0,0)" transform="matrix(1,0,0,-1,641,1091)"/>
</svg>