<?xml version="1.0" encoding="UTF-8"?>
<svg height="1521" version="1.1" width="2238.75" xmlns="http://www.w3.org/2000/svg" xmlns:xlink="http://www.w3.org/1999/xlink">
 <path d="M0,0 l2238.75,0 l0,1521 l-2238.75,0 Z M0,0" fill="rgb(255,255,255)" transform="matrix(1,0,0,-1,0,1521)"/>
 <path d="M0,0 l2238.75,0" fill="none" stroke="rgb(229,229,229)" stroke-width="10" transform="matrix(1,0,0,-1,0,1091)"/>
 <path d="M0,5 l0,-25" fill="none" stroke="rgb(204,204,204)" stroke-width="10" transform="matrix(1,0,0,-1,641,1091)"/>
 <path d="M0,5 l0,-25" fill="none" stroke="rgb(204,204,204)" stroke-width="10" transform="matrix(1,0,0,-1,1445,1091)"/>
 <path d="M574,413 c-32,65,-73,97,-112,97 c-32,0,-56,-23,-68,-62 c-31,37,-72,70,-126,70 c-66,0,-121,-48,-121,-113 c0,-65,53,-123,129,-123 c53,0,76,29,76,58 c0,28,-20,52,-52,52 c-28,0,-48,-20,-48,-44 c0,-10,3,-21,11,-31 l-1,-2 c-32,0,-48,30,-48,57 c0,43,40,71,88,71 c48,0,97,-30,121,-81 l21,-10 l6,2 c-1,7,-1,12,-1,13 c0,52,17,73,38,73 c22,0,64,-23,91,-115 c-8,-30,-17,-57,-27,-80 c-34,42,-80,62,-126,62 c-86,0,-147,-65,-147,-143 c0,-50,25,-71,48,-71 c36,0,83,50,128,50 c17,0,24,-8,24,-19 c0,-21,-25,-48,-111,-92 l69,-57 c70,43,96,84,96,125 c0,39,-23,86,-91,86 c-22,0,-47,-5,-73,-16 c1,41,38,71,92,71 c64,0,99,-41,117,-90 l23,-9 c15,37,28,72,40,115 c36,-37,52,-70,52,-102 c0,-26,-10,-48,-31,-67 c-11,5,-23,8,-35,8 c-37,0,-65,-23,-65,-58 c0,-34,31,-58,68,-58 c24,0,49,9,71,31 c12,-13,18,-27,18,-41 c0,-40,-50,-73,-146,-73 c-197,0,-397,135,-510,603 l-30,9 l-10,0 c110,-524,336,-703,560,-703 c132,0,189,65,189,132 c0,32,-13,66,-47,102 c19,19,33,46,33,84 c0,63,-41,104,-77,140 c-4,4,-21,21,-36,42 l0,246 l170,0 l0,8 l-60,60 l-804,0 l0,-8 l60,-60 l559,0 c0,-57,0,-97,7,-138 Z M574,413 l6,-79 l0,-1 Z M574,413" fill="rgb(0,0,0)" transform="matrix(1,0,0,-1,641,1091)"/>
</svg>