<?xml version="1.0" encoding="UTF-8"?>
<svg height="1521" version="1.1" width="2238.75" xmlns="http://www.w3.org/2000/svg" xmlns:xlink="http://www.w3.org/1999/xlink">
 <path d="M0,0 l2238.75,0 l0,1521 l-2238.75,0 Z M0,0" fill="rgb(255,255,255)" transform="matrix(1,0,0,-1,0,1521)"/>
 <path d="M0,0 l2238.75,0" fill="none" stroke="rgb(229,229,229)" stroke-width="10" transform="matrix(1,0,0,-1,0,1091)"/>
 <path d="M0,5 l0,-25" fill="none" stroke="rgb(204,204,204)" stroke-width="10" transform="matrix(1,0,0,-1,641,1091)"/>
 <path d="M0,5 l0,-25" fill="none" stroke="rgb(204,204,204)" stroke-width="10" transform="matrix(1,0,0,-1,1448,1091)"/>
 <path d="M20,524 c100,-367,295,-518,500,-518 c140,0,205,71,205,149 c0,33,-11,72,-37,110 c26,20,52,52,52,100 c0,55,-36,96,-83,149 c-30,34,-62,72,-65,109 l-25,10 c-8,-39,-16,-75,-26,-105 c-46,66,-83,92,-115,92 c-32,0,-67,-28,-128,-108 l-3,0 c-42,82,-85,108,-158,108 l-74,0 l0,-8 l79,-79 l31,0 c47,0,64,-1,85,-31 c-78,-38,-92,-71,-92,-100 c0,-49,39,-77,79,-77 c32,0,63,19,79,67 l4,0 c20,-50,51,-68,84,-68 c41,0,76,28,76,70 c0,29,-18,64,-89,103 c18,25,40,40,55,40 c18,0,78,-21,103,-138 l24,-10 c15,38,28,75,40,119 c33,-38,48,-71,48,-105 c0,-29,-11,-51,-39,-71 c-16,10,-33,16,-51,16 c-38,0,-68,-26,-68,-66 c0,-43,37,-67,75,-67 c23,0,45,9,65,24 c14,-17,20,-34,20,-50 c0,-49,-63,-87,-166,-87 c-169,0,-342,103,-445,413 l-30,9 Z M20,524" fill="rgb(0,0,0)" transform="matrix(1,0,0,-1,641,1091)"/>
</svg>