<?xml version="1.0" encoding="UTF-8"?>
<svg height="1521" version="1.1" width="2238.75" xmlns="http://www.w3.org/2000/svg" xmlns:xlink="http://www.w3.org/1999/xlink">
 <path d="M0,0 l2238.75,0 l0,1521 l-2238.75,0 Z M0,0" fill="rgb(255,255,255)" transform="matrix(1,0,0,-1,0,1521)"/>
 <path d="M0,0 l2238.75,0" fill="none" stroke="rgb(229,229,229)" stroke-width="10" transform="matrix(1,0,0,-1,0,1091)"/>
 <path d="M0,5 l0,-25" fill="none" stroke="rgb(204,204,204)" stroke-width="10" transform="matrix(1,0,0,-1,641,1091)"/>
 <path d="M0,5 l0,-25" fill="none" stroke="rgb(204,204,204)" stroke-width="10" transform="matrix(1,0,0,-1,1644,1091)"/>
 <path d="M853,552 l-2,-542 l68,-53 l11,0 l-8,595 l91,0 l0,8 l-60,60 l-38,0 c-45,222,-230,293,-456,293 c-142,0,-249,-44,-249,-126 c0,-60,53,-102,154,-102 c55,0,112,14,174,14 c65,0,78,-56,78,-106 c0,-31,2,-87,8,-118 l-2,-1 c-63,101,-118,146,-159,146 c-32,0,-71,-26,-135,-109 l-3,0 c-47,85,-94,109,-174,109 l-83,0 l0,-8 l79,-79 l38,0 c53,0,76,-1,101,-33 c-110,-51,-119,-99,-119,-127 c0,-56,44,-85,84,-85 c38,0,82,24,102,82 l4,0 c24,-61,64,-82,102,-82 c43,0,82,33,82,78 c0,36,-21,81,-107,129 c17,26,39,42,55,42 c30,0,127,-55,127,-209 l0,-64 c0,-64,3,-136,14,-175 l0,-1 l-3,-1 c-60,67,-124,84,-197,84 c-52,0,-136,-8,-185,-8 c-113,0,-163,47,-163,129 c0,29,6,59,20,89 l-23,15 l-9,0 c-21,-35,-35,-80,-35,-126 c0,-119,96,-192,229,-192 c57,0,163,13,237,13 c88,0,129,-18,153,-117 l28,-17 l11,0 l-8,592 l0,3 Z M480,768 c-60,0,-139,-16,-178,-16 c-42,0,-49,20,-49,29 c0,34,89,66,221,66 c266,0,364,-88,378,-227 l-175,0 c-27,120,-119,148,-197,148 Z M480,768" fill="rgb(0,0,0)" transform="matrix(1,0,0,-1,641,1091)"/>
</svg>