<?xml version="1.0" encoding="UTF-8"?>
<svg height="1521" version="1.1" width="2238.75" xmlns="http://www.w3.org/2000/svg" xmlns:xlink="http://www.w3.org/1999/xlink">
 <path d="M0,0 l2238.75,0 l0,1521 l-2238.75,0 Z M0,0" fill="rgb(255,255,255)" transform="matrix(1,0,0,-1,0,1521)"/>
 <path d="M0,0 l2238.75,0" fill="none" stroke="rgb(229,229,229)" stroke-width="10" transform="matrix(1,0,0,-1,0,1091)"/>
 <path d="M0,5 l0,-25" fill="none" stroke="rgb(204,204,204)" stroke-width="10" transform="matrix(1,0,0,-1,641,1091)"/>
 <path d="M0,5 l0,-25" fill="none" stroke="rgb(204,204,204)" stroke-width="10" transform="matrix(1,0,0,-1,1650,1091)"/>
 <path d="M685,552 l334,0 l0,8 l-60,60 l-343,0 l0,-3 c0,-68,1,-101,8,-142 l-2,-1 c-63,101,-118,146,-159,146 c-32,0,-71,-26,-135,-109 l-3,0 c-47,85,-94,109,-174,109 l-83,0 l0,-8 l79,-79 l38,0 c53,0,76,-1,101,-33 c-110,-51,-119,-99,-119,-127 c0,-56,44,-85,84,-85 c38,0,82,24,102,82 l4,0 c24,-61,64,-82,102,-82 c43,0,82,33,82,78 c0,36,-21,81,-107,129 c17,26,39,42,55,42 c30,0,127,-55,127,-209 l0,-64 c0,-64,3,-136,14,-175 l0,-1 l-3,-1 c-60,67,-124,84,-196,84 c-54,0,-137,-8,-185,-8 c-116,0,-164,47,-164,131 c0,26,6,58,20,87 l-23,15 l-9,0 c-21,-35,-35,-81,-35,-125 c0,-120,96,-193,227,-193 c63,0,159,13,243,13 c84,0,126,-20,149,-117 l28,-17 l11,0 l-6,330 l2,0 c42,-76,94,-108,148,-108 c64,0,127,46,127,131 c0,102,-91,144,-147,144 c-47,0,-79,-30,-79,-68 c0,-34,29,-65,68,-65 c36,0,54,24,54,49 c0,11,-4,21,-11,30 l1,2 c43,-2,65,-30,65,-62 c0,-40,-35,-86,-102,-86 c-95,0,-126,93,-126,167 Z M685,552" fill="rgb(0,0,0)" transform="matrix(1,0,0,-1,641,1091)"/>
</svg>