<?xml version="1.0" encoding="UTF-8"?>
<svg height="1521" version="1.1" width="2238.75" xmlns="http://www.w3.org/2000/svg" xmlns:xlink="http://www.w3.org/1999/xlink">
 <path d="M0,0 l2238.75,0 l0,1521 l-2238.75,0 Z M0,0" fill="rgb(255,255,255)" transform="matrix(1,0,0,-1,0,1521)"/>
 <path d="M0,0 l2238.75,0" fill="none" stroke="rgb(229,229,229)" stroke-width="10" transform="matrix(1,0,0,-1,0,1091)"/>
 <path d="M0,5 l0,-25" fill="none" stroke="rgb(204,204,204)" stroke-width="10" transform="matrix(1,0,0,-1,641,1091)"/>
 <path d="M0,5 l0,-25" fill="none" stroke="rgb(204,204,204)" stroke-width="10" transform="matrix(1,0,0,-1,1380,1091)"/>
 <path d="M626,181 c17,25,27,62,27,94 c0,43,-20,80,-57,101 c41,16,64,48,64,89 c0,29,-12,60,-39,87 l128,0 l0,8 l-60,60 l-739,0 l0,-8 l60,-60 l289,0 c-43,-112,-74,-122,-94,-122 c-18,0,-33,9,-51,52 l-7,0 l-30,-23 c36,-73,80,-106,130,-106 c30,0,72,11,124,149 l3,0 c16,-49,42,-92,84,-116 c-88,-22,-182,-83,-182,-161 c0,-50,38,-79,79,-79 c43,0,65,31,65,62 c0,21,-10,42,-31,55 c35,58,117,88,163,88 c34,0,49,-16,49,-42 c0,-32,-19,-63,-28,-72 c-11,7,-24,12,-40,12 c-38,0,-62,-32,-62,-63 c0,-31,22,-62,66,-62 c22,0,44,8,62,26 c15,-8,27,-26,27,-44 c0,-38,-47,-84,-140,-84 c-161,0,-311,123,-426,478 l-30,9 l-10,0 c111,-413,284,-578,478,-578 c117,0,177,65,177,139 c0,43,-21,85,-49,111 Z M512,552 c55,0,78,-29,78,-53 c0,-27,-30,-52,-76,-52 c-64,0,-109,49,-119,105 Z M512,552" fill="rgb(0,0,0)" transform="matrix(1,0,0,-1,641,1091)"/>
</svg>