<?xml version="1.0" encoding="UTF-8"?>
<svg height="1521" version="1.1" width="2238.75" xmlns="http://www.w3.org/2000/svg" xmlns:xlink="http://www.w3.org/1999/xlink">
 <path d="M0,0 l2238.75,0 l0,1521 l-2238.75,0 Z M0,0" fill="rgb(255,255,255)" transform="matrix(1,0,0,-1,0,1521)"/>
 <path d="M0,0 l2238.75,0" fill="none" stroke="rgb(229,229,229)" stroke-width="10" transform="matrix(1,0,0,-1,0,1091)"/>
 <path d="M0,5 l0,-25" fill="none" stroke="rgb(204,204,204)" stroke-width="10" transform="matrix(1,0,0,-1,641,1091)"/>
 <path d="M0,5 l0,-25" fill="none" stroke="rgb(204,204,204)" stroke-width="10" transform="matrix(1,0,0,-1,1630,1091)"/>
 <path d="M555,103 l-4,-2 c-59,70,-122,79,-184,79 c-50,0,-119,-6,-159,-6 c-97,0,-127,36,-127,86 c0,17,4,34,11,56 l-23,15 l-9,0 c-18,-37,-25,-68,-25,-95 c0,-95,87,-146,192,-146 c45,0,142,10,212,10 c76,0,118,-12,139,-108 l2,-8 l28,-17 l11,0 c-4,101,-5,165,-5,241 l0,116 c13,8,24,19,33,32 l4,-1 c35,-121,105,-161,166,-161 c64,0,127,46,127,131 c0,102,-91,144,-147,144 c-47,0,-79,-31,-79,-67 c0,-36,29,-66,68,-66 c36,0,54,24,54,49 c0,11,-4,21,-11,30 l1,2 c43,-2,65,-30,65,-62 c0,-40,-34,-86,-103,-86 c-84,0,-115,69,-125,137 c1,8,2,17,2,26 c0,45,-19,91,-46,120 l376,0 l0,8 l-60,60 l-989,0 l0,-8 l60,-60 l243,0 c-54,-124,-79,-138,-103,-138 c-16,0,-33,11,-49,52 l-7,0 l-30,-23 c36,-73,85,-109,130,-109 c35,0,73,18,132,170 l3,0 c27,-104,99,-200,208,-200 c1,-112,8,-159,18,-201 Z M513,552 c63,0,90,-43,90,-80 c0,-41,-34,-74,-91,-74 c-85,0,-145,71,-159,154 Z M513,552" fill="rgb(0,0,0)" transform="matrix(1,0,0,-1,641,1091)"/>
</svg>