<?xml version="1.0" encoding="UTF-8"?>
<svg height="1521" version="1.1" width="2238.75" xmlns="http://www.w3.org/2000/svg" xmlns:xlink="http://www.w3.org/1999/xlink">
 <path d="M0,0 l2238.75,0 l0,1521 l-2238.75,0 Z M0,0" fill="rgb(255,255,255)" transform="matrix(1,0,0,-1,0,1521)"/>
 <path d="M0,0 l2238.75,0" fill="none" stroke="rgb(229,229,229)" stroke-width="10" transform="matrix(1,0,0,-1,0,1091)"/>
 <path d="M0,5 l0,-25" fill="none" stroke="rgb(204,204,204)" stroke-width="10" transform="matrix(1,0,0,-1,641,1091)"/>
 <path d="M0,5 l0,-25" fill="none" stroke="rgb(204,204,204)" stroke-width="10" transform="matrix(1,0,0,-1,1251,1091)"/>
 <path d="M112,207 l64,-119 c167,-36,301,-98,469,-224 l7,0 l-14,49 c-45,46,-124,117,-278,194 l0,3 c107,28,186,90,186,188 c0,61,-29,98,-59,130 c-26,27,-52,51,-60,82 l-25,10 c-22,-40,-60,-69,-84,-110 l-3,0 c-31,71,-76,92,-128,92 c-85,0,-141,-57,-141,-131 c0,-80,62,-117,114,-117 c47,0,72,30,72,64 c0,37,-30,56,-61,56 c-11,0,-22,-2,-31,-6 c0,40,31,62,71,62 c54,0,95,-32,115,-124 l24,-10 c19,58,71,97,89,132 c32,-32,47,-60,47,-92 c0,-87,-127,-155,-237,-155 c-24,0,-60,3,-132,31 Z M620,552 l0,8 l-60,60 l-610,0 l0,-8 l60,-60 Z M620,552" fill="rgb(0,0,0)" transform="matrix(1,0,0,-1,641,1091)"/>
</svg>