<?xml version="1.0" encoding="UTF-8"?>
<svg height="1521" version="1.1" width="2238.75" xmlns="http://www.w3.org/2000/svg" xmlns:xlink="http://www.w3.org/1999/xlink">
 <path d="M0,0 l2238.75,0 l0,1521 l-2238.75,0 Z M0,0" fill="rgb(255,255,255)" transform="matrix(1,0,0,-1,0,1521)"/>
 <path d="M0,0 l2238.75,0" fill="none" stroke="rgb(229,229,229)" stroke-width="10" transform="matrix(1,0,0,-1,0,1091)"/>
 <path d="M0,5 l0,-25" fill="none" stroke="rgb(204,204,204)" stroke-width="10" transform="matrix(1,0,0,-1,641,1091)"/>
 <path d="M0,5 l0,-25" fill="none" stroke="rgb(204,204,204)" stroke-width="10" transform="matrix(1,0,0,-1,1348,1091)"/>
 <path d="M460,350 c37,24,75,41,107,51 c-1,-45,-2,-100,-2,-162 c0,-62,1,-125,3,-188 l68,-58 l6,3 c-2,73,-3,147,-3,215 c0,68,1,125,3,192 l-89,78 c-10,-3,-57,-20,-93,-39 l0,110 l257,0 l0,8 l-60,60 l-707,0 l0,-8 l60,-60 l371,0 l0,-34 c-104,-43,-232,-109,-368,-192 l78,-97 c179,-26,300,-145,336,-245 l28,-17 l11,0 c-5,101,-6,165,-6,241 Z M146,298 l-1,3 c75,48,157,87,236,121 c0,-146,1,-250,10,-299 l-3,-2 c-81,101,-163,147,-242,177 Z M119,170 l5,-50 c71,-32,147,-78,216,-137 l4,0 l-5,53 c-70,58,-146,102,-216,134 Z M119,170" fill="rgb(0,0,0)" transform="matrix(1,0,0,-1,641,1091)"/>
</svg>