<?xml version="1.0" encoding="UTF-8"?>
<svg height="1521" version="1.1" width="2238.75" xmlns="http://www.w3.org/2000/svg" xmlns:xlink="http://www.w3.org/1999/xlink">
 <path d="M0,0 l2238.75,0 l0,1521 l-2238.75,0 Z M0,0" fill="rgb(255,255,255)" transform="matrix(1,0,0,-1,0,1521)"/>
 <path d="M0,0 l2238.75,0" fill="none" stroke="rgb(229,229,229)" stroke-width="10" transform="matrix(1,0,0,-1,0,1091)"/>
 <path d="M0,5 l0,-25" fill="none" stroke="rgb(204,204,204)" stroke-width="10" transform="matrix(1,0,0,-1,641,1091)"/>
 <path d="M0,5 l0,-25" fill="none" stroke="rgb(204,204,204)" stroke-width="10" transform="matrix(1,0,0,-1,1358,1091)"/>
 <path d="M442,238 c74,0,153,-42,153,-98 c0,-6,-1,-12,-2,-15 l-2,0 c-13,27,-37,32,-51,32 c-29,0,-56,-21,-56,-54 c0,-36,32,-58,65,-58 c40,0,82,29,82,93 c0,34,-13,66,-34,94 c36,5,70,34,70,90 c0,102,-114,187,-225,191 l0,39 l285,0 l0,8 l-60,60 l-717,0 l0,-8 l60,-60 l355,0 l0,-42 c-118,-24,-244,-97,-353,-159 l71,-90 c40,-1,76,-5,107,-18 l0,-2 c-40,-21,-79,-46,-111,-67 l67,-84 c132,-11,229,-88,261,-191 l27,-17 l11,0 c-3,101,-3,165,-3,241 Z M144,324 l0,3 c53,32,140,76,221,97 l0,-108 c-41,-9,-85,-27,-128,-48 c-29,24,-61,42,-93,56 Z M442,430 c89,0,189,-44,189,-103 c0,-6,-1,-13,-2,-16 l-2,0 c-13,25,-36,30,-50,30 c-26,0,-51,-19,-53,-48 c-26,17,-55,25,-82,27 Z M375,37 l-3,-2 c-54,65,-110,97,-163,116 l0,3 c38,25,99,60,156,77 c2,-97,4,-166,10,-194 Z M375,37" fill="rgb(0,0,0)" transform="matrix(1,0,0,-1,641,1091)"/>
</svg>