<?xml version="1.0" encoding="UTF-8"?>
<svg height="1521" version="1.1" width="2238.75" xmlns="http://www.w3.org/2000/svg" xmlns:xlink="http://www.w3.org/1999/xlink">
 <path d="M0,0 l2238.75,0 l0,1521 l-2238.75,0 Z M0,0" fill="rgb(255,255,255)" transform="matrix(1,0,0,-1,0,1521)"/>
 <path d="M0,0 l2238.75,0" fill="none" stroke="rgb(229,229,229)" stroke-width="10" transform="matrix(1,0,0,-1,0,1091)"/>
 <path d="M0,5 l0,-25" fill="none" stroke="rgb(204,204,204)" stroke-width="10" transform="matrix(1,0,0,-1,641,1091)"/>
 <path d="M0,5 l0,-25" fill="none" stroke="rgb(204,204,204)" stroke-width="10" transform="matrix(1,0,0,-1,1264,1091)"/>
 <path d="M385,445 c71,-3,155,-41,155,-101 c0,-10,-2,-20,-7,-31 c-11,26,-32,37,-54,37 c-29,0,-57,-21,-57,-54 c0,-32,25,-62,68,-62 c44,0,88,33,88,106 c0,111,-104,177,-193,180 l0,32 l248,0 l0,8 l-60,60 l-60,0 c-6,91,-60,165,-183,165 c-38,0,-97,-9,-143,-9 c-66,0,-98,15,-98,54 c0,13,4,28,16,46 l-24,20 l-8,0 c-20,-23,-28,-51,-28,-75 c0,-67,60,-127,177,-127 c45,0,113,10,152,10 c61,0,91,-22,91,-49 c0,-10,-4,-22,-14,-35 l-501,0 l0,-8 l60,-60 l297,0 l0,-34 c-94,-21,-198,-70,-299,-130 l73,-92 c71,-9,133,-30,179,-63 c-43,-66,-99,-89,-99,-152 c0,-57,46,-144,173,-144 c121,0,216,77,216,168 c0,57,-39,85,-79,85 c-42,0,-65,-32,-65,-61 c0,-23,13,-45,41,-54 c-27,-50,-98,-77,-152,-77 c-37,0,-68,13,-68,49 c0,81,158,100,158,371 Z M308,425 c0,-72,-13,-123,-31,-161 c-42,45,-99,81,-141,98 l-1,3 c51,29,111,54,173,71 Z M308,425" fill="rgb(0,0,0)" transform="matrix(1,0,0,-1,641,1091)"/>
</svg>