<?xml version="1.0" encoding="UTF-8"?>
<svg height="1521" version="1.1" width="2238.75" xmlns="http://www.w3.org/2000/svg" xmlns:xlink="http://www.w3.org/1999/xlink">
 <path d="M0,0 l2238.75,0 l0,1521 l-2238.75,0 Z M0,0" fill="rgb(255,255,255)" transform="matrix(1,0,0,-1,0,1521)"/>
 <path d="M0,0 l2238.75,0" fill="none" stroke="rgb(229,229,229)" stroke-width="10" transform="matrix(1,0,0,-1,0,1091)"/>
 <path d="M0,5 l0,-25" fill="none" stroke="rgb(204,204,204)" stroke-width="10" transform="matrix(1,0,0,-1,641,1091)"/>
 <path d="M0,5 l0,-25" fill="none" stroke="rgb(204,204,204)" stroke-width="10" transform="matrix(1,0,0,-1,1279,1091)"/>
 <path d="M400,445 c71,-3,155,-39,155,-97 c0,-9,-2,-19,-7,-29 c-11,25,-32,35,-54,35 c-29,0,-57,-21,-57,-53 c0,-32,25,-61,68,-61 c44,0,88,32,88,104 c0,109,-104,173,-193,176 l0,32 l248,0 l0,8 l-60,60 l-60,0 c-6,91,-60,165,-183,165 c-38,0,-97,-9,-143,-9 c-66,0,-98,15,-98,54 c0,13,4,28,16,46 l-24,20 l-8,0 c-20,-23,-28,-51,-28,-75 c0,-67,60,-127,177,-127 c45,0,113,10,152,10 c61,0,91,-22,91,-49 c0,-10,-4,-22,-14,-35 l-516,0 l0,-8 l60,-60 l312,0 l0,-34 c-94,-21,-198,-68,-299,-127 l73,-92 c70,-8,130,-28,175,-59 c-39,-55,-85,-78,-85,-135 c0,-55,45,-138,169,-138 c43,0,83,10,117,27 l0,-127 l-4,-2 c-50,54,-115,69,-164,69 c-26,0,-77,-4,-102,-4 c-68,0,-93,30,-93,73 c0,22,7,47,17,73 l-22,14 l-9,0 c-20,-34,-31,-72,-31,-108 c0,-72,44,-135,153,-135 c37,0,106,8,153,8 c62,0,106,-13,125,-78 l28,-17 l11,0 c-6,115,-7,181,-7,188 l0,85 c24,25,38,56,38,89 c0,52,-39,78,-79,78 c-42,0,-65,-31,-65,-59 c0,-22,13,-43,41,-52 c-26,-40,-94,-61,-145,-61 c-35,0,-65,12,-65,47 c0,77,148,95,148,353 Z M323,435 c0,-75,-14,-126,-33,-163 c-42,43,-98,77,-139,93 l-1,3 c51,28,111,52,173,68 Z M323,435" fill="rgb(0,0,0)" transform="matrix(1,0,0,-1,641,1091)"/>
</svg>