<?xml version="1.0" encoding="UTF-8"?>
<svg height="1521" version="1.1" width="2238.75" xmlns="http://www.w3.org/2000/svg" xmlns:xlink="http://www.w3.org/1999/xlink">
 <path d="M0,0 l2238.75,0 l0,1521 l-2238.75,0 Z M0,0" fill="rgb(255,255,255)" transform="matrix(1,0,0,-1,0,1521)"/>
 <path d="M0,0 l2238.75,0" fill="none" stroke="rgb(229,229,229)" stroke-width="10" transform="matrix(1,0,0,-1,0,1091)"/>
 <path d="M0,5 l0,-25" fill="none" stroke="rgb(204,204,204)" stroke-width="10" transform="matrix(1,0,0,-1,641,1091)"/>
 <path d="M0,5 l0,-25" fill="none" stroke="rgb(204,204,204)" stroke-width="10" transform="matrix(1,0,0,-1,1560,1091)"/>
 <path d="M442,515 c-137,0,-244,-86,-244,-181 c0,-60,44,-94,90,-94 c45,0,75,33,75,72 c0,25,-12,51,-38,65 c52,58,119,85,169,85 c39,0,67,-17,67,-53 c0,-22,-11,-53,-30,-72 c-14,8,-29,12,-44,12 c-44,0,-78,-32,-78,-76 c0,-48,40,-73,81,-73 c23,0,46,8,63,25 c21,-12,34,-34,34,-56 c0,-47,-60,-87,-145,-87 c-134,0,-292,100,-385,418 l-30,9 l-10,0 c87,-375,273,-524,443,-524 c117,0,182,69,182,148 c0,47,-22,93,-57,124 c8,12,15,27,20,39 c16,39,64,110,129,110 c55,0,93,-39,93,-82 c0,-22,-12,-43,-33,-51 c-7,37,-37,56,-65,56 c-31,0,-58,-20,-58,-53 c0,-35,32,-61,78,-61 c63,0,126,45,126,125 c0,74,-51,133,-122,133 c-51,0,-98,-31,-130,-93 l-2,0 c-3,82,-73,135,-179,135 Z M929,552 l0,8 l-60,60 l-919,0 l0,-8 l60,-60 Z M929,552" fill="rgb(0,0,0)" transform="matrix(1,0,0,-1,641,1091)"/>
</svg>