<?xml version="1.0" encoding="UTF-8"?>
<svg height="1521" version="1.1" width="2238.75" xmlns="http://www.w3.org/2000/svg" xmlns:xlink="http://www.w3.org/1999/xlink">
 <path d="M0,0 l2238.75,0 l0,1521 l-2238.75,0 Z M0,0" fill="rgb(255,255,255)" transform="matrix(1,0,0,-1,0,1521)"/>
 <path d="M0,0 l2238.75,0" fill="none" stroke="rgb(229,229,229)" stroke-width="10" transform="matrix(1,0,0,-1,0,1091)"/>
 <path d="M0,5 l0,-25" fill="none" stroke="rgb(204,204,204)" stroke-width="10" transform="matrix(1,0,0,-1,641,1091)"/>
 <path d="M0,5 l0,-25" fill="none" stroke="rgb(204,204,204)" stroke-width="10" transform="matrix(1,0,0,-1,1512,1091)"/>
 <path d="M439,522 c-125,0,-226,-73,-226,-157 c0,-54,42,-85,87,-85 c46,0,68,31,68,62 c0,22,-13,44,-36,56 c45,50,112,72,157,72 c31,0,59,-11,59,-39 c0,-18,-12,-46,-32,-64 c-12,6,-26,10,-41,10 c-34,0,-69,-22,-69,-63 c0,-40,34,-64,73,-64 c21,0,44,7,63,23 c17,-8,28,-22,28,-41 c0,-37,-43,-71,-124,-71 c-129,0,-287,84,-379,339 l-30,9 l-10,0 c89,-329,291,-441,438,-441 c23,0,44,3,62,8 l0,-131 l-4,-2 c-53,54,-117,69,-173,69 c-24,0,-85,-3,-115,-3 c-80,0,-114,26,-114,83 c0,17,3,45,15,66 l-22,14 l-9,0 c-19,-29,-31,-68,-31,-105 c0,-71,45,-141,178,-141 c42,0,114,7,165,7 c67,0,113,-12,133,-78 l28,-17 l11,0 c-6,115,-7,181,-7,188 l0,79 c30,25,43,61,43,93 c0,39,-20,80,-50,106 c29,47,69,99,129,99 c45,0,78,-30,78,-63 c0,-19,-11,-44,-28,-51 c-8,35,-36,52,-62,52 c-32,0,-50,-23,-50,-49 c0,-29,24,-60,71,-60 c60,0,117,48,117,121 c0,65,-46,116,-110,116 c-45,0,-83,-25,-114,-79 l-4,0 c1,5,1,9,1,13 c0,72,-63,119,-164,119 Z M881,552 l0,8 l-60,60 l-871,0 l0,-8 l60,-60 Z M881,552" fill="rgb(0,0,0)" transform="matrix(1,0,0,-1,641,1091)"/>
</svg>