<?xml version="1.0" encoding="UTF-8"?>
<svg height="1521" version="1.1" width="2238.75" xmlns="http://www.w3.org/2000/svg" xmlns:xlink="http://www.w3.org/1999/xlink">
 <path d="M0,0 l2238.75,0 l0,1521 l-2238.75,0 Z M0,0" fill="rgb(255,255,255)" transform="matrix(1,0,0,-1,0,1521)"/>
 <path d="M0,0 l2238.75,0" fill="none" stroke="rgb(229,229,229)" stroke-width="10" transform="matrix(1,0,0,-1,0,1091)"/>
 <path d="M0,5 l0,-25" fill="none" stroke="rgb(204,204,204)" stroke-width="10" transform="matrix(1,0,0,-1,641,1091)"/>
 <path d="M0,5 l0,-25" fill="none" stroke="rgb(204,204,204)" stroke-width="10" transform="matrix(1,0,0,-1,1375,1091)"/>
 <path d="M400,57 l-3,-1 c-48,85,-121,106,-174,106 c-81,0,-120,-49,-120,-99 c0,-49,38,-85,90,-85 c51,0,76,36,76,72 c0,18,-6,36,-19,50 l1,2 c110,-7,152,-108,167,-167 l29,-18 l11,0 c-3,101,-3,165,-3,241 l0,275 c106,-3,190,-73,190,-133 c0,-11,-3,-24,-10,-36 c-15,29,-41,42,-66,42 c-35,0,-68,-26,-68,-68 c0,-44,37,-70,78,-70 c49,0,103,39,103,125 c0,127,-119,220,-227,223 l0,36 l289,0 l0,8 l-60,60 l-734,0 l0,-8 l60,-60 l366,0 l0,-39 c-118,-23,-246,-90,-353,-150 l79,-99 c171,-11,268,-84,298,-207 Z M159,334 l0,2 c52,29,136,72,217,91 c0,-137,1,-205,8,-244 l-3,-2 c-69,92,-149,131,-222,153 Z M159,334" fill="rgb(0,0,0)" transform="matrix(1,0,0,-1,641,1091)"/>
</svg>