<?xml version="1.0" encoding="UTF-8"?>
<svg height="1521" version="1.1" width="2238.75" xmlns="http://www.w3.org/2000/svg" xmlns:xlink="http://www.w3.org/1999/xlink">
 <path d="M0,0 l2238.75,0 l0,1521 l-2238.75,0 Z M0,0" fill="rgb(255,255,255)" transform="matrix(1,0,0,-1,0,1521)"/>
 <path d="M0,0 l2238.75,0" fill="none" stroke="rgb(229,229,229)" stroke-width="10" transform="matrix(1,0,0,-1,0,1091)"/>
 <path d="M0,5 l0,-25" fill="none" stroke="rgb(204,204,204)" stroke-width="10" transform="matrix(1,0,0,-1,641,1091)"/>
 <path d="M0,5 l0,-25" fill="none" stroke="rgb(204,204,204)" stroke-width="10" transform="matrix(1,0,0,-1,1369,1091)"/>
 <path d="M449,430 c106,-3,190,-74,190,-132 c0,-12,-3,-22,-10,-34 c-15,29,-41,42,-66,42 c-35,0,-68,-26,-68,-68 c0,-44,37,-70,78,-70 c49,0,103,36,103,122 c0,127,-119,220,-227,223 l0,39 l289,0 l0,8 l-60,60 l-728,0 l0,-8 l60,-60 l362,0 l0,-42 c-118,-24,-244,-97,-353,-159 l72,-91 c40,-1,74,-6,106,-18 c-40,-22,-78,-47,-111,-68 l67,-84 c131,-10,227,-78,260,-168 l1,-4 l27,-16 l11,0 c-3,101,-3,165,-3,241 Z M151,324 l0,3 c53,32,140,76,221,97 l0,-108 c-41,-9,-85,-27,-128,-48 c-29,24,-61,42,-93,56 Z M382,44 l-3,-2 c-54,59,-110,92,-163,109 l0,3 c38,25,99,60,156,77 c2,-93,4,-160,10,-187 Z M382,44" fill="rgb(0,0,0)" transform="matrix(1,0,0,-1,641,1091)"/>
</svg>