<?xml version="1.0" encoding="UTF-8"?>
<svg height="1521" version="1.1" width="2238.75" xmlns="http://www.w3.org/2000/svg" xmlns:xlink="http://www.w3.org/1999/xlink">
 <path d="M0,0 l2238.75,0 l0,1521 l-2238.75,0 Z M0,0" fill="rgb(255,255,255)" transform="matrix(1,0,0,-1,0,1521)"/>
 <path d="M0,0 l2238.75,0" fill="none" stroke="rgb(229,229,229)" stroke-width="10" transform="matrix(1,0,0,-1,0,1091)"/>
 <path d="M0,5 l0,-25" fill="none" stroke="rgb(204,204,204)" stroke-width="10" transform="matrix(1,0,0,-1,641,1091)"/>
 <path d="M0,5 l0,-25" fill="none" stroke="rgb(204,204,204)" stroke-width="10" transform="matrix(1,0,0,-1,1381,1091)"/>
 <path d="M-50,612 l60,-60 l286,0 l0,-37 c-102,-23,-198,-72,-291,-128 l67,-84 c103,-9,194,-57,246,-125 c-49,-11,-74,-43,-74,-83 c0,-49,40,-88,95,-88 c43,0,85,24,98,91 c82,-8,156,-54,195,-174 l27,-17 l11,0 c-4,101,-5,165,-5,241 l0,404 l85,0 l0,8 l-60,60 l-740,0 Z M591,64 c-64,77,-148,112,-213,118 c-5,66,-5,103,-5,163 l0,91 c56,-1,140,-39,140,-100 c0,-9,-2,-17,-5,-28 l-1,0 c-10,24,-31,35,-51,35 c-26,0,-50,-18,-50,-50 c0,-35,28,-56,63,-56 c51,0,78,46,78,98 c0,75,-55,166,-174,181 l0,36 l213,0 l0,-205 c0,-146,0,-232,8,-281 Z M308,244 l-3,-2 c-56,65,-115,101,-170,120 l0,3 c41,23,102,51,161,65 c2,-81,6,-159,12,-186 Z M308,244" fill="rgb(0,0,0)" transform="matrix(1,0,0,-1,641,1091)"/>
</svg>