<?xml version="1.0" encoding="UTF-8"?>
<svg height="1521" version="1.1" width="2238.75" xmlns="http://www.w3.org/2000/svg" xmlns:xlink="http://www.w3.org/1999/xlink">
 <path d="M0,0 l2238.75,0 l0,1521 l-2238.75,0 Z M0,0" fill="rgb(255,255,255)" transform="matrix(1,0,0,-1,0,1521)"/>
 <path d="M0,0 l2238.75,0" fill="none" stroke="rgb(229,229,229)" stroke-width="10" transform="matrix(1,0,0,-1,0,1091)"/>
 <path d="M0,5 l0,-25" fill="none" stroke="rgb(204,204,204)" stroke-width="10" transform="matrix(1,0,0,-1,641,1091)"/>
 <path d="M0,5 l0,-25" fill="none" stroke="rgb(204,204,204)" stroke-width="10" transform="matrix(1,0,0,-1,1488,1091)"/>
 <path d="M10,552 l23,0 c41,0,79,-10,98,-60 c-68,-4,-107,-46,-107,-92 c0,-45,40,-79,84,-79 c43,0,83,31,83,90 l0,7 c8,1,13,1,14,1 c72,0,107,-46,107,-89 c0,-11,-2,-22,-8,-32 c-1,0,-10,1,-19,1 c-57,0,-91,-41,-91,-83 c0,-47,43,-81,86,-81 c38,0,76,26,92,73 c86,-16,140,-117,161,-223 l29,-18 l12,0 c-4,101,-4,165,-4,241 l0,172 c32,4,66,9,94,9 c70,0,97,-28,97,-66 c0,-15,-4,-27,-15,-37 c-16,26,-42,38,-66,38 c-34,0,-66,-23,-66,-64 c0,-45,39,-69,78,-69 c51,0,105,38,105,113 c0,94,-84,168,-169,168 c-14,0,-35,-2,-58,-5 l0,85 l287,0 l0,8 l-60,60 l-847,0 l0,-8 Z M491,350 c0,-107,5,-160,10,-197 l-3,-1 c-33,57,-74,96,-115,120 c-7,109,-107,199,-206,217 c-8,24,-19,45,-31,63 l145,0 c30,-82,104,-175,200,-178 Z M433,452 c-43,0,-74,32,-74,67 c0,12,3,24,9,33 l123,0 l0,-95 c-25,-3,-46,-5,-58,-5 Z M433,452" fill="rgb(0,0,0)" transform="matrix(1,0,0,-1,641,1091)"/>
</svg>