<?xml version="1.0" encoding="UTF-8"?>
<svg height="1521" version="1.1" width="2238.75" xmlns="http://www.w3.org/2000/svg" xmlns:xlink="http://www.w3.org/1999/xlink">
 <path d="M0,0 l2238.75,0 l0,1521 l-2238.75,0 Z M0,0" fill="rgb(255,255,255)" transform="matrix(1,0,0,-1,0,1521)"/>
 <path d="M0,0 l2238.75,0" fill="none" stroke="rgb(229,229,229)" stroke-width="10" transform="matrix(1,0,0,-1,0,1091)"/>
 <path d="M0,5 l0,-25" fill="none" stroke="rgb(204,204,204)" stroke-width="10" transform="matrix(1,0,0,-1,641,1091)"/>
 <path d="M0,5 l0,-25" fill="none" stroke="rgb(204,204,204)" stroke-width="10" transform="matrix(1,0,0,-1,1487,1091)"/>
 <path d="M10,552 l22,0 c38,0,73,-8,93,-50 c-65,-5,-101,-45,-101,-89 c0,-44,39,-78,83,-78 c43,0,83,30,83,86 l0,7 c8,1,13,1,14,1 c72,0,107,-40,107,-93 c0,-5,-1,-16,-6,-23 c-1,0,-10,1,-19,1 c-57,0,-89,-39,-89,-79 c0,-45,41,-78,84,-78 c38,0,76,24,92,66 c80,-16,131,-106,144,-207 l-3,0 c-42,86,-107,113,-164,113 c-69,0,-111,-43,-111,-95 c0,-48,35,-86,87,-86 c50,0,76,34,76,70 c0,22,-11,44,-32,57 l1,2 c106,-7,149,-117,165,-179 l27,-17 l11,0 c-4,101,-5,161,-5,237 l0,262 c32,4,66,9,94,9 c70,0,97,-28,97,-66 c0,-15,-4,-27,-15,-37 c-16,26,-42,38,-66,38 c-34,0,-66,-23,-66,-64 c0,-45,39,-69,78,-69 c51,0,105,38,105,113 c0,94,-84,168,-169,168 c-14,0,-35,-2,-58,-5 l0,85 l287,0 l0,8 l-60,60 l-846,0 l0,-8 Z M490,360 c0,-107,6,-165,11,-202 l-3,-1 c-33,62,-73,106,-114,130 c-7,110,-111,198,-211,213 c-8,20,-18,37,-28,52 l145,0 c30,-82,104,-175,200,-178 Z M432,452 c-43,0,-74,32,-74,67 c0,12,3,24,9,33 l123,0 l0,-95 c-25,-3,-46,-5,-58,-5 Z M432,452" fill="rgb(0,0,0)" transform="matrix(1,0,0,-1,641,1091)"/>
</svg>