<?xml version="1.0" encoding="UTF-8"?>
<svg height="1521" version="1.1" width="2238.75" xmlns="http://www.w3.org/2000/svg" xmlns:xlink="http://www.w3.org/1999/xlink">
 <path d="M0,0 l2238.75,0 l0,1521 l-2238.75,0 Z M0,0" fill="rgb(255,255,255)" transform="matrix(1,0,0,-1,0,1521)"/>
 <path d="M0,0 l2238.75,0" fill="none" stroke="rgb(229,229,229)" stroke-width="10" transform="matrix(1,0,0,-1,0,1091)"/>
 <path d="M0,5 l0,-25" fill="none" stroke="rgb(204,204,204)" stroke-width="10" transform="matrix(1,0,0,-1,641,1091)"/>
 <path d="M0,5 l0,-25" fill="none" stroke="rgb(204,204,204)" stroke-width="10" transform="matrix(1,0,0,-1,1501,1091)"/>
 <path d="M38,414 c0,-43,38,-73,80,-73 c40,0,74,29,75,91 c5,1,10,1,11,1 c52,0,95,-33,95,-77 c0,-9,-2,-19,-7,-28 c-6,1,-13,1,-14,1 c-50,0,-88,-25,-88,-72 c0,-45,37,-72,78,-72 c35,0,68,20,82,54 c43,-9,80,-28,107,-59 c-75,-34,-146,-71,-208,-109 l66,-83 c109,-10,181,-57,208,-108 l30,-16 l9,0 c-3,62,-3,102,-3,174 l0,339 c39,4,78,12,118,12 c70,0,97,-28,97,-65 c0,-16,-4,-28,-15,-38 c-16,26,-42,38,-66,38 c-34,0,-66,-23,-66,-64 c0,-45,38,-69,79,-69 c50,0,104,37,104,116 c0,89,-84,165,-169,165 c-19,0,-50,-4,-82,-8 l0,88 l311,0 l0,8 l-60,60 l-860,0 l0,-8 l60,-60 l42,0 c42,0,75,-6,88,-54 c-63,-4,-102,-43,-102,-84 Z M308,552 c26,-75,98,-159,172,-176 c0,-96,5,-146,9,-181 l-3,-2 c-29,49,-85,89,-125,109 c-7,100,-85,177,-174,193 c-5,22,-13,42,-24,57 Z M450,452 c-43,0,-74,32,-74,67 c0,12,3,24,9,33 l95,0 l0,-98 c-12,-2,-23,-2,-30,-2 Z M364,47 l-1,3 c39,25,83,43,124,61 c0,-77,3,-127,11,-155 l-2,-2 c-36,46,-94,79,-132,93 Z M364,47" fill="rgb(0,0,0)" transform="matrix(1,0,0,-1,641,1091)"/>
</svg>