<?xml version="1.0" encoding="UTF-8"?>
<svg height="1521" version="1.1" width="2238.75" xmlns="http://www.w3.org/2000/svg" xmlns:xlink="http://www.w3.org/1999/xlink">
 <path d="M0,0 l2238.75,0 l0,1521 l-2238.75,0 Z M0,0" fill="rgb(255,255,255)" transform="matrix(1,0,0,-1,0,1521)"/>
 <path d="M0,0 l2238.75,0" fill="none" stroke="rgb(229,229,229)" stroke-width="10" transform="matrix(1,0,0,-1,0,1091)"/>
 <path d="M0,5 l0,-25" fill="none" stroke="rgb(204,204,204)" stroke-width="10" transform="matrix(1,0,0,-1,641,1091)"/>
 <path d="M0,5 l0,-25" fill="none" stroke="rgb(204,204,204)" stroke-width="10" transform="matrix(1,0,0,-1,1557,1091)"/>
 <path d="M25,414 c0,-43,39,-74,81,-74 c40,0,73,29,74,92 c5,1,10,1,11,1 c52,0,97,-34,97,-78 c0,-9,-2,-18,-7,-27 c-6,1,-13,1,-14,1 c-50,0,-89,-26,-89,-73 c0,-45,38,-73,79,-73 c35,0,69,20,83,54 c51,-10,96,-42,128,-89 c-55,-11,-78,-47,-78,-85 c0,-44,32,-87,90,-87 c47,0,84,22,93,96 l0,-2 c112,-10,192,-56,235,-186 l27,-17 l11,0 c-4,101,-5,165,-5,241 l0,444 l85,0 l0,8 l-60,60 l-916,0 l0,-8 l60,-60 l29,0 c42,0,75,-6,88,-54 c-63,-4,-102,-43,-102,-84 Z M767,24 c-66,79,-154,115,-222,125 c-2,37,-3,79,-3,140 l0,118 c27,6,55,12,81,12 c50,0,71,-22,71,-53 c0,-10,-2,-23,-9,-30 c-12,16,-32,24,-50,24 c-30,0,-57,-19,-57,-52 c0,-37,33,-57,66,-57 c42,0,86,33,86,97 c0,83,-73,146,-135,146 c-13,0,-32,-3,-53,-6 l0,64 l220,0 l0,-245 c0,-146,0,-232,8,-281 Z M463,388 c0,-106,5,-149,10,-186 l-3,-1 c-28,40,-78,79,-119,99 c-7,100,-87,179,-177,195 c-5,22,-13,42,-24,57 l146,0 c28,-72,88,-157,167,-158 Z M410,465 c-30,0,-47,28,-47,55 c0,11,3,22,9,32 l91,0 l0,-80 c-23,-4,-43,-7,-53,-7 Z M410,465" fill="rgb(0,0,0)" transform="matrix(1,0,0,-1,641,1091)"/>
</svg>