<?xml version="1.0" encoding="UTF-8"?>
<svg height="1521" version="1.1" width="2238.75" xmlns="http://www.w3.org/2000/svg" xmlns:xlink="http://www.w3.org/1999/xlink">
 <path d="M0,0 l2238.75,0 l0,1521 l-2238.75,0 Z M0,0" fill="rgb(255,255,255)" transform="matrix(1,0,0,-1,0,1521)"/>
 <path d="M0,0 l2238.75,0" fill="none" stroke="rgb(229,229,229)" stroke-width="10" transform="matrix(1,0,0,-1,0,1091)"/>
 <path d="M0,5 l0,-25" fill="none" stroke="rgb(204,204,204)" stroke-width="10" transform="matrix(1,0,0,-1,641,1091)"/>
 <path d="M0,5 l0,-25" fill="none" stroke="rgb(204,204,204)" stroke-width="10" transform="matrix(1,0,0,-1,1501,1091)"/>
 <path d="M38,414 c0,-43,39,-74,81,-74 c40,0,73,29,74,92 c5,1,10,1,11,1 c52,0,98,-35,98,-79 c0,-9,-2,-18,-7,-27 c-6,1,-13,1,-14,1 c-50,0,-90,-25,-90,-72 c0,-45,38,-73,79,-73 c35,0,69,20,83,54 c86,-18,143,-80,151,-192 l-4,-2 c-50,54,-121,69,-166,69 c-30,0,-119,-7,-155,-7 c-70,0,-98,27,-98,74 c0,22,6,49,19,79 l-22,14 l-9,0 c-22,-36,-34,-76,-34,-114 c0,-73,46,-136,158,-136 c48,0,154,11,207,11 c59,0,109,-14,127,-78 l28,-17 l11,0 c-6,115,-7,181,-7,256 l0,183 c39,4,78,12,118,12 c70,0,97,-28,97,-65 c0,-16,-4,-28,-15,-38 c-16,26,-42,38,-66,38 c-34,0,-66,-23,-66,-64 c0,-45,38,-69,79,-69 c50,0,104,37,104,116 c0,89,-84,165,-169,165 c-19,0,-50,-4,-82,-8 l0,88 l311,0 l0,8 l-60,60 l-860,0 l0,-8 l60,-60 l42,0 c42,0,75,-6,88,-54 c-63,-4,-102,-43,-102,-84 Z M308,552 c26,-75,98,-159,172,-176 c0,-98,5,-150,10,-185 l-3,-1 c-28,50,-82,90,-123,110 c-7,100,-87,179,-177,195 c-5,22,-13,42,-24,57 Z M450,452 c-43,0,-74,32,-74,67 c0,12,3,24,9,33 l95,0 l0,-98 c-12,-2,-23,-2,-30,-2 Z M450,452" fill="rgb(0,0,0)" transform="matrix(1,0,0,-1,641,1091)"/>
</svg>