<?xml version="1.0" encoding="UTF-8"?>
<svg height="1521" version="1.1" width="2238.75" xmlns="http://www.w3.org/2000/svg" xmlns:xlink="http://www.w3.org/1999/xlink">
 <path d="M0,0 l2238.75,0 l0,1521 l-2238.75,0 Z M0,0" fill="rgb(255,255,255)" transform="matrix(1,0,0,-1,0,1521)"/>
 <path d="M0,0 l2238.75,0" fill="none" stroke="rgb(229,229,229)" stroke-width="10" transform="matrix(1,0,0,-1,0,1091)"/>
 <path d="M0,5 l0,-25" fill="none" stroke="rgb(204,204,204)" stroke-width="10" transform="matrix(1,0,0,-1,641,1091)"/>
 <path d="M0,5 l0,-25" fill="none" stroke="rgb(204,204,204)" stroke-width="10" transform="matrix(1,0,0,-1,1372,1091)"/>
 <path d="M242,71 c-16,0,-37,15,-53,57 l-8,0 l-32,-24 c35,-71,87,-117,136,-117 c34,0,49,12,120,76 c43,39,73,56,101,56 c30,0,74,-26,74,-92 c0,-9,0,-18,-1,-47 l68,-53 l11,0 l-7,625 l90,0 l0,8 l-60,60 l-731,0 l0,-8 l60,-60 l286,0 l0,-37 c-102,-23,-198,-72,-291,-128 l67,-84 c124,-10,230,-78,272,-167 c-38,-33,-71,-65,-102,-65 Z M373,436 c56,-1,140,-39,140,-100 c0,-9,-2,-17,-5,-28 l-1,0 c-10,24,-31,35,-51,35 c-26,0,-50,-18,-50,-50 c0,-35,28,-56,63,-56 c51,0,78,46,78,98 c0,75,-55,166,-174,181 l0,36 l208,0 l0,-263 c0,-99,0,-139,6,-180 l-2,-1 c-34,62,-75,96,-117,96 c-31,0,-61,-17,-89,-38 c-6,76,-6,115,-6,179 Z M308,244 l-3,-2 c-56,65,-115,101,-170,120 l0,3 c41,23,102,51,161,65 c2,-81,6,-159,12,-186 Z M308,244" fill="rgb(0,0,0)" transform="matrix(1,0,0,-1,641,1091)"/>
</svg>