<?xml version="1.0" encoding="UTF-8"?>
<svg height="1521" version="1.1" width="2238.75" xmlns="http://www.w3.org/2000/svg" xmlns:xlink="http://www.w3.org/1999/xlink">
 <path d="M0,0 l2238.75,0 l0,1521 l-2238.75,0 Z M0,0" fill="rgb(255,255,255)" transform="matrix(1,0,0,-1,0,1521)"/>
 <path d="M0,0 l2238.75,0" fill="none" stroke="rgb(229,229,229)" stroke-width="10" transform="matrix(1,0,0,-1,0,1091)"/>
 <path d="M0,5 l0,-25" fill="none" stroke="rgb(204,204,204)" stroke-width="10" transform="matrix(1,0,0,-1,641,1091)"/>
 <path d="M0,5 l0,-25" fill="none" stroke="rgb(204,204,204)" stroke-width="10" transform="matrix(1,0,0,-1,1261,1091)"/>
 <path d="M545,550 l85,0 l0,8 l-60,62 l-102,0 l0,-190 c0,-146,5,-227,14,-268 l-3,-2 c-48,68,-118,116,-180,144 l0,2 c83,24,118,77,118,138 c0,67,-44,134,-110,177 l-6,-1 c-41,-65,-115,-95,-148,-98 c-2,46,-36,69,-69,69 c-32,0,-64,-22,-64,-66 c0,-62,59,-88,119,-88 c79,0,157,46,195,92 c16,-15,23,-31,23,-49 c0,-60,-79,-119,-233,-119 c-1,0,-11,0,-31,1 l-2,-7 l79,-95 c91,-8,167,-36,225,-73 c-57,-27,-111,-57,-160,-86 l66,-83 c109,-10,181,-57,208,-108 l30,-16 l9,0 c-3,62,-3,102,-3,174 Z M473,120 c1,-57,5,-110,13,-135 l-2,-2 c-36,46,-96,80,-134,94 l-1,3 c34,22,74,38,111,55 c5,-5,9,-10,13,-15 Z M473,120" fill="rgb(0,0,0)" transform="matrix(1,0,0,-1,641,1091)"/>
</svg>