<?xml version="1.0" encoding="UTF-8"?>
<svg height="1521" version="1.1" width="2238.75" xmlns="http://www.w3.org/2000/svg" xmlns:xlink="http://www.w3.org/1999/xlink">
 <path d="M0,0 l2238.75,0 l0,1521 l-2238.75,0 Z M0,0" fill="rgb(255,255,255)" transform="matrix(1,0,0,-1,0,1521)"/>
 <path d="M0,0 l2238.75,0" fill="none" stroke="rgb(229,229,229)" stroke-width="10" transform="matrix(1,0,0,-1,0,1091)"/>
 <path d="M0,5 l0,-25" fill="none" stroke="rgb(204,204,204)" stroke-width="10" transform="matrix(1,0,0,-1,641,1091)"/>
 <path d="M0,5 l0,-25" fill="none" stroke="rgb(204,204,204)" stroke-width="10" transform="matrix(1,0,0,-1,1337,1091)"/>
 <path d="M614,552 l92,0 l0,8 l-60,60 l-104,0 l0,-204 c0,-156,5,-246,14,-290 l-3,-2 c-46,82,-118,137,-180,169 l0,3 c83,25,118,79,118,142 c0,70,-44,139,-110,183 l-6,-1 c-41,-65,-115,-95,-148,-98 c-2,46,-36,69,-69,69 c-32,0,-64,-22,-64,-66 c0,-62,59,-88,120,-88 c78,0,156,46,194,92 c16,-16,23,-33,23,-52 c0,-63,-79,-126,-233,-126 c-1,0,-11,0,-31,1 l-2,-7 l79,-95 c161,-17,269,-104,320,-200 l-3,-2 c-57,57,-116,71,-182,71 c-39,0,-113,-5,-150,-5 c-102,0,-147,39,-147,112 c0,26,6,58,20,87 l-23,15 l-9,0 c-21,-35,-35,-82,-35,-124 c0,-111,90,-175,212,-175 c48,0,141,10,206,10 c76,0,114,-13,135,-78 l28,-17 l11,0 c-5,97,-8,192,-8,264 Z M614,552" fill="rgb(0,0,0)" transform="matrix(1,0,0,-1,641,1091)"/>
</svg>