<?xml version="1.0" encoding="UTF-8"?>
<svg height="1521" version="1.1" width="2238.75" xmlns="http://www.w3.org/2000/svg" xmlns:xlink="http://www.w3.org/1999/xlink">
 <path d="M0,0 l2238.75,0 l0,1521 l-2238.75,0 Z M0,0" fill="rgb(255,255,255)" transform="matrix(1,0,0,-1,0,1521)"/>
 <path d="M0,0 l2238.75,0" fill="none" stroke="rgb(229,229,229)" stroke-width="10" transform="matrix(1,0,0,-1,0,1091)"/>
 <path d="M0,5 l0,-25" fill="none" stroke="rgb(204,204,204)" stroke-width="10" transform="matrix(1,0,0,-1,641,1091)"/>
 <path d="M0,5 l0,-25" fill="none" stroke="rgb(204,204,204)" stroke-width="10" transform="matrix(1,0,0,-1,1239,1091)"/>
 <path d="M450,216 c1,-26,2,-86,7,-118 l-3,-1 c-32,67,-92,145,-200,145 c-98,0,-162,-65,-162,-141 c0,-55,33,-85,62,-85 c10,0,16,3,21,7 c30,21,79,52,114,52 c17,0,22,-7,22,-18 c0,-25,-28,-60,-123,-115 l72,-58 c80,52,110,93,110,142 c0,54,-36,93,-96,93 c-21,0,-52,-5,-82,-14 c0,37,44,67,101,67 c144,0,183,-186,196,-297 l29,-18 l11,0 c-5,130,-6,141,-7,251 l-3,444 l89,0 l0,8 l-60,60 l-102,0 l0,-12 c0,-58,0,-104,6,-155 l-4,-1 c-31,76,-94,168,-214,168 c-110,0,-194,-78,-194,-168 c0,-56,34,-87,63,-87 c11,0,18,4,22,7 c13,10,86,57,131,57 c16,0,23,-6,23,-16 c0,-22,-35,-59,-128,-111 l72,-57 c105,58,118,103,118,137 c0,53,-41,95,-106,95 c-23,0,-55,-5,-86,-14 c4,39,54,81,126,81 c149,0,171,-185,175,-328 Z M450,216" fill="rgb(0,0,0)" transform="matrix(1,0,0,-1,641,1091)"/>
</svg>