<?xml version="1.0" encoding="UTF-8"?>
<svg height="1521" version="1.1" width="2238.75" xmlns="http://www.w3.org/2000/svg" xmlns:xlink="http://www.w3.org/1999/xlink">
 <path d="M0,0 l2238.75,0 l0,1521 l-2238.75,0 Z M0,0" fill="rgb(255,255,255)" transform="matrix(1,0,0,-1,0,1521)"/>
 <path d="M0,0 l2238.75,0" fill="none" stroke="rgb(229,229,229)" stroke-width="10" transform="matrix(1,0,0,-1,0,1091)"/>
 <path d="M0,5 l0,-25" fill="none" stroke="rgb(204,204,204)" stroke-width="10" transform="matrix(1,0,0,-1,641,1091)"/>
 <path d="M0,5 l0,-25" fill="none" stroke="rgb(204,204,204)" stroke-width="10" transform="matrix(1,0,0,-1,1538,1091)"/>
 <path d="M856,408 l-117,84 c-84,-56,-170,-137,-223,-198 l-2,1 l0,257 l393,0 l0,8 l-60,60 l-412,0 l0,-12 c0,-58,0,-109,6,-160 l-4,-1 c-35,81,-100,173,-219,173 c-109,0,-190,-79,-190,-172 c0,-59,33,-89,62,-89 c11,0,19,5,21,6 c11,6,79,58,133,58 c23,0,31,-9,31,-25 c0,-27,-26,-65,-115,-125 l81,-66 c73,61,99,100,99,149 c0,61,-42,115,-117,115 c-23,0,-55,-5,-86,-14 c4,42,49,87,123,87 c133,0,176,-153,176,-289 c0,-1,0,-7,-1,-22 l82,-76 l6,0 c48,67,104,145,198,213 l3,-3 c-24,-52,-29,-104,-29,-156 c0,-87,15,-161,39,-228 l29,-18 l11,0 c-10,58,-16,120,-16,173 c0,103,22,194,98,264 Z M856,408" fill="rgb(0,0,0)" transform="matrix(1,0,0,-1,641,1091)"/>
</svg>