<?xml version="1.0" encoding="UTF-8"?>
<svg height="1521" version="1.1" width="2238.75" xmlns="http://www.w3.org/2000/svg" xmlns:xlink="http://www.w3.org/1999/xlink">
 <path d="M0,0 l2238.75,0 l0,1521 l-2238.75,0 Z M0,0" fill="rgb(255,255,255)" transform="matrix(1,0,0,-1,0,1521)"/>
 <path d="M0,0 l2238.75,0" fill="none" stroke="rgb(229,229,229)" stroke-width="10" transform="matrix(1,0,0,-1,0,1091)"/>
 <path d="M0,5 l0,-25" fill="none" stroke="rgb(204,204,204)" stroke-width="10" transform="matrix(1,0,0,-1,641,1091)"/>
 <path d="M0,5 l0,-25" fill="none" stroke="rgb(204,204,204)" stroke-width="10" transform="matrix(1,0,0,-1,1382,1091)"/>
 <path d="M608,282 c-1,-44,-2,-87,-2,-147 c0,-61,1,-112,3,-173 l68,-58 l6,3 c-2,71,-3,133,-3,200 c0,66,1,112,3,177 l-89,78 l-71,-34 l0,224 l228,0 l0,8 l-60,60 l-239,0 l0,-12 c0,-58,0,-104,6,-155 l-4,-1 c-34,74,-111,168,-226,168 c-113,0,-198,-88,-198,-190 c0,-62,34,-93,62,-93 c13,0,20,5,22,6 c22,15,92,63,131,63 c19,0,29,-10,29,-23 c0,-23,-27,-68,-119,-120 l62,-77 c102,59,121,123,121,158 c0,61,-47,112,-117,112 c-26,0,-51,-6,-82,-19 c4,50,50,109,130,109 c128,0,182,-158,181,-248 l0,-7 c-89,-45,-172,-92,-286,-158 l73,-90 c136,-7,214,-71,252,-139 l28,-17 l11,0 c-4,80,-5,125,-5,177 l0,178 Z M460,3 l-3,-2 c-45,53,-116,94,-164,110 l-1,3 c51,33,104,63,157,91 l0,-1 c0,-91,2,-171,11,-201 Z M460,3" fill="rgb(0,0,0)" transform="matrix(1,0,0,-1,641,1091)"/>
</svg>