<?xml version="1.0" encoding="UTF-8"?>
<svg height="1521" version="1.1" width="2238.75" xmlns="http://www.w3.org/2000/svg" xmlns:xlink="http://www.w3.org/1999/xlink">
 <path d="M0,0 l2238.75,0 l0,1521 l-2238.75,0 Z M0,0" fill="rgb(255,255,255)" transform="matrix(1,0,0,-1,0,1521)"/>
 <path d="M0,0 l2238.75,0" fill="none" stroke="rgb(229,229,229)" stroke-width="10" transform="matrix(1,0,0,-1,0,1091)"/>
 <path d="M0,5 l0,-25" fill="none" stroke="rgb(204,204,204)" stroke-width="10" transform="matrix(1,0,0,-1,641,1091)"/>
 <path d="M0,5 l0,-25" fill="none" stroke="rgb(204,204,204)" stroke-width="10" transform="matrix(1,0,0,-1,1374,1091)"/>
 <path d="M155,307 l58,-68 c96,60,108,103,108,136 c0,58,-43,102,-104,102 c-22,0,-48,-5,-73,-17 c3,40,53,87,121,87 c119,0,166,-129,168,-212 c-106,-52,-211,-108,-314,-167 l68,-82 c37,0,71,-5,101,-15 c-29,-15,-54,-29,-74,-40 l61,-77 c108,-10,173,-60,199,-109 l30,-14 l12,0 c-3,58,-8,141,-8,326 l0,129 l86,39 c-1,-44,-2,-85,-2,-145 c0,-60,1,-111,3,-172 l69,-59 l6,3 c-2,71,-3,133,-3,199 c0,66,1,112,3,177 l-88,78 l-74,-34 l0,180 l235,0 l0,8 l-60,60 l-248,0 l0,-11 c0,-52,0,-94,7,-138 l-5,-1 c-31,66,-100,150,-211,150 c-105,0,-193,-77,-193,-169 c0,-60,34,-91,63,-91 c12,0,19,5,21,6 c13,8,87,62,127,62 c14,0,21,-6,21,-16 c0,-19,-28,-58,-110,-105 Z M238,144 l-1,3 c54,33,125,70,196,104 c0,-41,1,-78,2,-110 c-39,-17,-73,-33,-104,-48 c-31,24,-66,41,-93,51 Z M330,9 l-1,3 c36,20,74,38,113,54 c2,-54,5,-109,13,-146 l-2,-2 c-34,44,-88,77,-123,91 Z M330,9" fill="rgb(0,0,0)" transform="matrix(1,0,0,-1,641,1091)"/>
</svg>