<?xml version="1.0" encoding="UTF-8"?>
<svg height="1521" version="1.1" width="2238.75" xmlns="http://www.w3.org/2000/svg" xmlns:xlink="http://www.w3.org/1999/xlink">
 <path d="M0,0 l2238.75,0 l0,1521 l-2238.75,0 Z M0,0" fill="rgb(255,255,255)" transform="matrix(1,0,0,-1,0,1521)"/>
 <path d="M0,0 l2238.75,0" fill="none" stroke="rgb(229,229,229)" stroke-width="10" transform="matrix(1,0,0,-1,0,1091)"/>
 <path d="M0,5 l0,-25" fill="none" stroke="rgb(204,204,204)" stroke-width="10" transform="matrix(1,0,0,-1,641,1091)"/>
 <path d="M0,5 l0,-25" fill="none" stroke="rgb(204,204,204)" stroke-width="10" transform="matrix(1,0,0,-1,1409,1091)"/>
 <path d="M190,307 l58,-68 c96,60,108,103,108,136 c0,58,-43,102,-104,102 c-22,0,-48,-5,-73,-17 c3,40,53,87,121,87 c119,0,166,-129,168,-212 c-106,-52,-211,-108,-314,-167 l68,-82 c106,0,208,-49,275,-159 l-5,-2 c-50,54,-123,70,-168,70 c-30,0,-114,-7,-151,-7 c-59,0,-91,19,-91,77 c0,18,3,46,15,67 l-22,14 l-9,0 c-19,-29,-31,-68,-31,-105 c0,-73,44,-137,154,-137 c46,0,146,11,198,11 c59,0,108,-14,126,-78 l28,-17 l11,0 c-6,115,-9,198,-9,332 l0,134 l86,39 c-1,-44,-2,-85,-2,-145 c0,-60,1,-111,3,-172 l69,-59 l6,3 c-2,71,-3,133,-3,199 c0,66,1,112,3,177 l-88,78 l-74,-34 l0,180 l235,0 l0,8 l-60,60 l-248,0 l0,-11 c0,-52,0,-94,7,-138 l-5,-1 c-31,66,-100,150,-211,150 c-105,0,-193,-77,-193,-169 c0,-60,34,-91,63,-91 c12,0,19,5,21,6 c13,8,87,62,127,62 c14,0,21,-6,21,-16 c0,-19,-28,-58,-110,-105 Z M273,144 l-1,3 c54,33,125,70,196,104 c0,-74,0,-176,14,-240 l-3,-2 c-56,71,-117,110,-206,135 Z M273,144" fill="rgb(0,0,0)" transform="matrix(1,0,0,-1,641,1091)"/>
</svg>