<?xml version="1.0" encoding="UTF-8"?>
<svg height="1521" version="1.1" width="2238.75" xmlns="http://www.w3.org/2000/svg" xmlns:xlink="http://www.w3.org/1999/xlink">
 <path d="M0,0 l2238.75,0 l0,1521 l-2238.75,0 Z M0,0" fill="rgb(255,255,255)" transform="matrix(1,0,0,-1,0,1521)"/>
 <path d="M0,0 l2238.75,0" fill="none" stroke="rgb(229,229,229)" stroke-width="10" transform="matrix(1,0,0,-1,0,1091)"/>
 <path d="M0,5 l0,-25" fill="none" stroke="rgb(204,204,204)" stroke-width="10" transform="matrix(1,0,0,-1,641,1091)"/>
 <path d="M0,5 l0,-25" fill="none" stroke="rgb(204,204,204)" stroke-width="10" transform="matrix(1,0,0,-1,1234,1091)"/>
 <path d="M450,93 c-51,71,-118,105,-188,105 c-88,0,-124,-52,-124,-103 c0,-54,39,-96,97,-96 c56,0,84,38,84,78 c0,25,-12,50,-35,65 l1,2 c111,-7,178,-100,199,-219 l29,-18 l11,0 c-4,101,-6,175,-7,251 l-3,394 l89,0 l0,8 l-60,60 l-102,0 l0,-12 c0,-58,0,-104,6,-155 l-4,-1 c-35,75,-100,168,-218,168 c-111,0,-195,-82,-195,-175 c0,-59,33,-89,62,-89 c9,0,18,4,21,6 c85,57,122,58,135,58 c22,0,31,-11,31,-27 c0,-27,-27,-65,-115,-125 l78,-63 c72,55,102,96,102,145 c0,63,-44,118,-119,118 c-23,0,-55,-5,-86,-14 c4,42,53,90,127,90 c144,0,175,-178,179,-328 c1,-56,4,-96,8,-122 Z M450,93" fill="rgb(0,0,0)" transform="matrix(1,0,0,-1,641,1091)"/>
</svg>