<?xml version="1.0" encoding="UTF-8"?>
<svg height="1521" version="1.1" width="2238.75" xmlns="http://www.w3.org/2000/svg" xmlns:xlink="http://www.w3.org/1999/xlink">
 <path d="M0,0 l2238.75,0 l0,1521 l-2238.75,0 Z M0,0" fill="rgb(255,255,255)" transform="matrix(1,0,0,-1,0,1521)"/>
 <path d="M0,0 l2238.75,0" fill="none" stroke="rgb(229,229,229)" stroke-width="10" transform="matrix(1,0,0,-1,0,1091)"/>
 <path d="M0,5 l0,-25" fill="none" stroke="rgb(204,204,204)" stroke-width="10" transform="matrix(1,0,0,-1,641,1091)"/>
 <path d="M0,5 l0,-25" fill="none" stroke="rgb(204,204,204)" stroke-width="10" transform="matrix(1,0,0,-1,1241,1091)"/>
 <path d="M155,273 l62,-77 c100,59,121,113,121,148 c0,61,-47,112,-117,112 c-26,0,-51,-6,-82,-19 c4,50,50,109,130,109 c128,0,180,-157,181,-256 c-100,-46,-194,-94,-286,-147 l73,-90 c136,-7,217,-71,255,-139 l28,-17 l11,0 c-4,80,-7,159,-7,233 l-1,422 l87,0 l0,8 l-60,60 l-98,0 l0,-12 c0,-58,0,-104,6,-155 l-4,-1 c-34,74,-111,168,-226,168 c-113,0,-198,-88,-198,-190 c0,-62,34,-93,62,-93 c13,0,20,5,22,6 c22,15,92,63,131,63 c19,0,29,-10,29,-23 c0,-23,-27,-58,-119,-110 Z M294,120 l-1,3 c49,30,105,56,156,77 c0,-91,5,-157,14,-187 l-3,-2 c-45,53,-118,93,-166,109 Z M294,120" fill="rgb(0,0,0)" transform="matrix(1,0,0,-1,641,1091)"/>
</svg>