<?xml version="1.0" encoding="UTF-8"?>
<svg height="1521" version="1.1" width="2238.75" xmlns="http://www.w3.org/2000/svg" xmlns:xlink="http://www.w3.org/1999/xlink">
 <path d="M0,0 l2238.75,0 l0,1521 l-2238.75,0 Z M0,0" fill="rgb(255,255,255)" transform="matrix(1,0,0,-1,0,1521)"/>
 <path d="M0,0 l2238.75,0" fill="none" stroke="rgb(229,229,229)" stroke-width="10" transform="matrix(1,0,0,-1,0,1091)"/>
 <path d="M0,5 l0,-25" fill="none" stroke="rgb(204,204,204)" stroke-width="10" transform="matrix(1,0,0,-1,641,1091)"/>
 <path d="M0,5 l0,-25" fill="none" stroke="rgb(204,204,204)" stroke-width="10" transform="matrix(1,0,0,-1,1419,1091)"/>
 <path d="M243,202 c73,60,99,100,99,148 c0,63,-44,118,-119,118 c-23,0,-55,-5,-86,-14 c4,42,53,90,127,90 c142,0,179,-174,191,-322 c-19,5,-34,6,-43,6 c-67,0,-100,-43,-100,-88 c0,-49,40,-88,95,-88 c40,0,82,20,100,77 c93,-19,141,-111,163,-175 l27,-17 l11,0 c-4,101,-5,165,-5,241 l0,374 l85,0 l0,8 l-60,60 l-289,0 l0,-12 c0,-58,0,-104,6,-155 l-4,-1 c-35,75,-100,168,-218,168 c-111,0,-195,-82,-195,-175 c0,-59,33,-89,62,-89 c9,0,18,4,21,6 c85,57,122,58,135,58 c22,0,31,-11,31,-27 c0,-27,-27,-65,-115,-125 Z M629,103 c-42,46,-80,75,-113,94 c-4,48,-5,110,-5,195 l0,160 l113,0 l0,-167 c0,-146,0,-231,8,-280 Z M629,103" fill="rgb(0,0,0)" transform="matrix(1,0,0,-1,641,1091)"/>
</svg>