<?xml version="1.0" encoding="UTF-8"?>
<svg height="1521" version="1.1" width="2238.75" xmlns="http://www.w3.org/2000/svg" xmlns:xlink="http://www.w3.org/1999/xlink">
 <path d="M0,0 l2238.75,0 l0,1521 l-2238.75,0 Z M0,0" fill="rgb(255,255,255)" transform="matrix(1,0,0,-1,0,1521)"/>
 <path d="M0,0 l2238.75,0" fill="none" stroke="rgb(229,229,229)" stroke-width="10" transform="matrix(1,0,0,-1,0,1091)"/>
 <path d="M0,5 l0,-25" fill="none" stroke="rgb(204,204,204)" stroke-width="10" transform="matrix(1,0,0,-1,641,1091)"/>
 <path d="M0,5 l0,-25" fill="none" stroke="rgb(204,204,204)" stroke-width="10" transform="matrix(1,0,0,-1,1341,1091)"/>
 <path d="M549,295 l0,-31 c0,-64,3,-136,14,-175 l0,-1 l-3,-1 c-57,61,-121,73,-193,73 c-37,0,-95,-5,-128,-5 c-116,0,-158,44,-158,120 c0,23,4,51,15,76 l-23,15 l-9,0 c-18,-32,-29,-75,-29,-115 c0,-113,89,-180,220,-180 c48,0,122,10,186,10 c84,0,124,-10,152,-107 l28,-17 l11,0 c-4,66,-8,165,-8,198 l-3,397 l89,0 l0,8 l-60,60 l-101,0 l0,-12 c0,-58,0,-104,6,-155 l-4,-1 c-35,75,-100,168,-218,168 c-111,0,-195,-82,-195,-175 c0,-59,33,-89,62,-89 c9,0,18,4,21,6 c77,55,129,58,135,58 c22,0,31,-11,31,-27 c0,-27,-29,-67,-113,-127 l83,-68 c68,61,95,104,95,152 c0,63,-44,118,-119,118 c-23,0,-55,-5,-86,-14 c4,42,53,90,127,90 c144,0,175,-182,175,-249 Z M549,295" fill="rgb(0,0,0)" transform="matrix(1,0,0,-1,641,1091)"/>
</svg>