<?xml version="1.0" encoding="UTF-8"?>
<svg height="1521" version="1.1" width="2238.75" xmlns="http://www.w3.org/2000/svg" xmlns:xlink="http://www.w3.org/1999/xlink">
 <path d="M0,0 l2238.75,0 l0,1521 l-2238.75,0 Z M0,0" fill="rgb(255,255,255)" transform="matrix(1,0,0,-1,0,1521)"/>
 <path d="M0,0 l2238.75,0" fill="none" stroke="rgb(229,229,229)" stroke-width="10" transform="matrix(1,0,0,-1,0,1091)"/>
 <path d="M0,5 l0,-25" fill="none" stroke="rgb(204,204,204)" stroke-width="10" transform="matrix(1,0,0,-1,641,1091)"/>
 <path d="M0,5 l0,-25" fill="none" stroke="rgb(204,204,204)" stroke-width="10" transform="matrix(1,0,0,-1,1254,1091)"/>
 <path d="M168,273 l67,-80 c81,48,116,105,116,153 c0,59,-47,110,-118,110 c-25,0,-51,-6,-81,-19 c4,50,49,109,131,109 c169,0,179,-254,180,-297 c2,-95,9,-155,10,-159 l-2,-1 c-27,59,-66,98,-102,98 c-30,0,-53,-25,-63,-65 c-33,41,-75,69,-123,69 c-65,0,-119,-51,-119,-119 c0,-70,59,-134,135,-134 c58,0,84,35,84,66 c0,28,-20,54,-54,54 c-26,0,-49,-16,-49,-45 c0,-12,4,-23,14,-32 l-1,-2 c-38,0,-57,30,-57,63 c0,44,36,75,83,75 c45,0,93,-30,117,-81 l20,-10 l6,2 c-1,7,-1,12,-1,13 c0,52,16,73,37,73 c25,0,67,-32,105,-199 l30,-18 l11,0 c-4,103,-6,155,-7,250 l-3,405 l89,0 l0,8 l-60,60 l-102,0 l0,-12 c0,-58,0,-104,6,-155 l-4,-1 c-36,80,-108,168,-221,168 c-114,0,-199,-88,-199,-189 c0,-63,33,-94,63,-94 c12,0,19,5,21,6 c4,2,87,63,131,63 c19,0,29,-10,29,-23 c0,-23,-28,-60,-119,-110 Z M168,273" fill="rgb(0,0,0)" transform="matrix(1,0,0,-1,641,1091)"/>
</svg>