<?xml version="1.0" encoding="UTF-8"?>
<svg height="1521" version="1.1" width="2238.75" xmlns="http://www.w3.org/2000/svg" xmlns:xlink="http://www.w3.org/1999/xlink">
 <path d="M0,0 l2238.75,0 l0,1521 l-2238.75,0 Z M0,0" fill="rgb(255,255,255)" transform="matrix(1,0,0,-1,0,1521)"/>
 <path d="M0,0 l2238.75,0" fill="none" stroke="rgb(229,229,229)" stroke-width="10" transform="matrix(1,0,0,-1,0,1091)"/>
 <path d="M0,5 l0,-25" fill="none" stroke="rgb(204,204,204)" stroke-width="10" transform="matrix(1,0,0,-1,641,1091)"/>
 <path d="M0,5 l0,-25" fill="none" stroke="rgb(204,204,204)" stroke-width="10" transform="matrix(1,0,0,-1,1220,1091)"/>
 <path d="M451,41 l-4,0 c-47,83,-122,111,-181,111 c-74,0,-114,-45,-114,-97 c0,-48,35,-86,87,-86 c50,0,76,34,76,70 c0,22,-11,45,-32,58 l1,2 c119,-7,167,-115,185,-176 l27,-17 l11,0 c-4,101,-5,161,-5,237 l0,409 l87,0 l0,8 l-60,60 l-579,0 l0,-8 l60,-60 l57,0 c-15,-20,-20,-40,-20,-59 c0,-62,60,-92,122,-92 c10,0,20,1,30,3 l1,-3 l-117,-81 l62,-79 c145,-11,251,-78,299,-164 Z M423,552 l0,-119 c0,-130,3,-229,10,-273 l-3,-2 c-64,74,-144,118,-217,136 l-1,3 c51,37,104,72,161,109 l-56,73 c-41,-33,-74,-45,-99,-45 c-40,0,-60,25,-60,55 c0,22,9,48,31,63 Z M423,552" fill="rgb(0,0,0)" transform="matrix(1,0,0,-1,641,1091)"/>
</svg>