<?xml version="1.0" encoding="UTF-8"?>
<svg height="1521" version="1.1" width="2238.75" xmlns="http://www.w3.org/2000/svg" xmlns:xlink="http://www.w3.org/1999/xlink">
 <path d="M0,0 l2238.75,0 l0,1521 l-2238.75,0 Z M0,0" fill="rgb(255,255,255)" transform="matrix(1,0,0,-1,0,1521)"/>
 <path d="M0,0 l2238.75,0" fill="none" stroke="rgb(229,229,229)" stroke-width="10" transform="matrix(1,0,0,-1,0,1091)"/>
 <path d="M0,5 l0,-25" fill="none" stroke="rgb(204,204,204)" stroke-width="10" transform="matrix(1,0,0,-1,641,1091)"/>
 <path d="M0,5 l0,-25" fill="none" stroke="rgb(204,204,204)" stroke-width="10" transform="matrix(1,0,0,-1,1218,1091)"/>
 <path d="M83,320 l62,-79 c77,-6,144,-27,196,-59 c-53,-26,-103,-53,-149,-81 l66,-83 c109,-10,181,-57,208,-108 l30,-16 l9,0 c-3,62,-3,102,-3,174 l0,484 l85,0 l0,8 l-60,60 l-577,0 l0,-8 l60,-60 l57,0 c-15,-20,-20,-40,-20,-59 c0,-62,60,-92,122,-92 c10,0,20,1,30,3 l1,-3 Z M423,552 l0,-119 c0,-130,3,-229,10,-273 l-3,-2 c-64,74,-144,118,-217,136 l-1,3 c51,37,104,72,161,109 l-56,73 c-41,-33,-74,-45,-99,-45 c-40,0,-60,25,-60,55 c0,22,9,48,31,63 Z M443,-15 l-2,-2 c-36,46,-96,80,-134,94 l-1,3 c32,21,69,36,104,52 l20,-21 c2,-54,6,-102,13,-126 Z M443,-15" fill="rgb(0,0,0)" transform="matrix(1,0,0,-1,641,1091)"/>
</svg>