<?xml version="1.0" encoding="UTF-8"?>
<svg height="1521" version="1.1" width="2238.75" xmlns="http://www.w3.org/2000/svg" xmlns:xlink="http://www.w3.org/1999/xlink">
 <path d="M0,0 l2238.75,0 l0,1521 l-2238.75,0 Z M0,0" fill="rgb(255,255,255)" transform="matrix(1,0,0,-1,0,1521)"/>
 <path d="M0,0 l2238.75,0" fill="none" stroke="rgb(229,229,229)" stroke-width="10" transform="matrix(1,0,0,-1,0,1091)"/>
 <path d="M0,5 l0,-25" fill="none" stroke="rgb(204,204,204)" stroke-width="10" transform="matrix(1,0,0,-1,641,1091)"/>
 <path d="M0,5 l0,-25" fill="none" stroke="rgb(204,204,204)" stroke-width="10" transform="matrix(1,0,0,-1,1306,1091)"/>
 <path d="M173,299 l66,-84 c147,-11,253,-86,300,-171 l-5,-2 c-62,61,-124,76,-191,76 c-35,0,-89,-4,-119,-4 c-102,0,-142,40,-142,113 c0,26,6,58,20,87 l-23,15 l-9,0 c-21,-35,-35,-81,-35,-125 c0,-109,86,-174,205,-174 c45,0,116,9,177,9 c77,0,114,-13,138,-78 l28,-17 l11,0 c-4,101,-4,198,-4,274 l0,334 l85,0 l0,8 l-60,60 l-665,0 l0,-8 l60,-60 l132,0 c-8,-19,-11,-37,-11,-53 c0,-71,62,-106,129,-106 c12,0,29,1,41,4 l1,-3 c-44,-33,-81,-59,-129,-95 Z M511,552 l0,-114 c0,-146,1,-253,10,-302 l-3,-2 c-69,76,-147,123,-221,142 l-1,3 c53,42,102,75,161,116 l-54,71 c-37,-25,-68,-35,-94,-35 c-45,0,-65,29,-65,63 c0,19,5,41,16,58 Z M511,552" fill="rgb(0,0,0)" transform="matrix(1,0,0,-1,641,1091)"/>
</svg>