<?xml version="1.0" encoding="UTF-8"?>
<svg height="1521" version="1.1" width="2238.75" xmlns="http://www.w3.org/2000/svg" xmlns:xlink="http://www.w3.org/1999/xlink">
 <path d="M0,0 l2238.75,0 l0,1521 l-2238.75,0 Z M0,0" fill="rgb(255,255,255)" transform="matrix(1,0,0,-1,0,1521)"/>
 <path d="M0,0 l2238.75,0" fill="none" stroke="rgb(229,229,229)" stroke-width="10" transform="matrix(1,0,0,-1,0,1091)"/>
 <path d="M0,5 l0,-25" fill="none" stroke="rgb(204,204,204)" stroke-width="10" transform="matrix(1,0,0,-1,641,1091)"/>
 <path d="M0,5 l0,-25" fill="none" stroke="rgb(204,204,204)" stroke-width="10" transform="matrix(1,0,0,-1,1433,1091)"/>
 <path d="M333,45 c-31,0,-124,-7,-159,-7 c-60,0,-92,23,-92,81 c0,18,3,46,15,67 l-22,14 l-9,0 c-19,-29,-31,-67,-31,-106 c0,-72,44,-140,154,-140 c46,0,154,11,206,11 c59,0,108,-14,126,-78 l28,-17 l11,0 c-6,115,-9,198,-9,332 l0,97 c87,-2,151,-67,151,-115 c0,-8,0,-17,-6,-26 c-11,21,-31,33,-52,33 c-25,0,-52,-20,-52,-51 c0,-36,33,-57,67,-57 c39,0,81,28,81,97 c0,92,-77,189,-199,198 c-30,85,-113,134,-211,134 c-7,0,-13,0,-20,-1 c-7,17,-14,28,-26,41 l178,0 c42,-82,105,-118,162,-118 c56,0,91,33,91,75 c0,14,-3,27,-10,43 l97,0 l0,8 l-60,60 l-792,0 l0,-8 l60,-60 l142,0 c50,0,91,-4,113,-47 c-59,-14,-108,-46,-108,-95 c0,-37,30,-71,75,-71 c44,0,90,31,91,101 c17,17,38,21,57,21 c56,0,83,-42,88,-89 c-100,-27,-205,-83,-297,-134 l73,-91 c136,-19,227,-98,264,-174 l-4,-2 c-52,58,-128,74,-171,74 Z M299,212 l-1,2 c42,25,113,59,177,78 c0,-113,1,-182,9,-214 l-3,-2 c-60,76,-123,113,-182,136 Z M668,552 c2,-5,3,-9,3,-14 c0,-24,-28,-44,-69,-44 c-34,0,-79,14,-106,58 Z M668,552" fill="rgb(0,0,0)" transform="matrix(1,0,0,-1,641,1091)"/>
</svg>