<?xml version="1.0" encoding="UTF-8"?>
<svg height="1521" version="1.1" width="2238.75" xmlns="http://www.w3.org/2000/svg" xmlns:xlink="http://www.w3.org/1999/xlink">
 <path d="M0,0 l2238.75,0 l0,1521 l-2238.75,0 Z M0,0" fill="rgb(255,255,255)" transform="matrix(1,0,0,-1,0,1521)"/>
 <path d="M0,0 l2238.75,0" fill="none" stroke="rgb(229,229,229)" stroke-width="10" transform="matrix(1,0,0,-1,0,1091)"/>
 <path d="M0,5 l0,-25" fill="none" stroke="rgb(204,204,204)" stroke-width="10" transform="matrix(1,0,0,-1,641,1091)"/>
 <path d="M0,5 l0,-25" fill="none" stroke="rgb(204,204,204)" stroke-width="10" transform="matrix(1,0,0,-1,2028,1091)"/>
 <path d="M1337,620 l-959,0 c-79,0,-131,-40,-152,-116 c-45,22,-99,57,-163,111 l-12,0 l13,-60 c59,-50,110,-81,154,-102 l0,-133 c0,-63,82,-137,128,-137 c38,0,102,45,153,109 c25,-18,37,-48,37,-76 c0,-60,-60,-131,-169,-131 c-135,0,-233,110,-287,374 l-30,9 l-10,0 c54,-369,194,-478,341,-478 c132,0,204,86,204,200 c0,83,-38,157,-113,201 l-5,-1 c-47,-67,-115,-126,-150,-126 c-13,0,-22,9,-22,30 l0,129 c34,-9,60,-11,80,-11 c85,0,124,52,124,101 c0,13,-3,26,-9,39 l85,0 c41,0,79,-10,98,-60 c-67,-4,-106,-45,-106,-91 c0,-45,40,-79,84,-79 c43,0,82,30,82,89 l0,7 c8,1,13,1,19,1 c64,0,102,-46,102,-88 c0,-12,-2,-23,-8,-33 c-1,0,-10,1,-15,1 c-62,0,-95,-40,-95,-81 c0,-50,43,-83,86,-83 c38,0,76,26,92,73 c86,-16,138,-117,159,-223 l29,-18 l12,0 c-4,101,-4,165,-4,241 l0,172 c31,4,62,9,94,9 c70,0,97,-28,97,-65 c0,-16,-4,-28,-15,-38 c-16,26,-42,38,-66,38 c-34,0,-66,-23,-66,-64 c0,-45,38,-69,79,-69 c50,0,104,37,104,116 c0,89,-84,165,-169,165 c-14,0,-35,-2,-58,-5 l0,85 l287,0 l0,8 Z M1031,350 c0,-107,5,-160,10,-197 l-3,-1 c-33,57,-72,96,-113,120 c-7,110,-107,201,-208,218 c-9,24,-21,45,-33,62 l147,0 c29,-83,115,-178,197,-178 l3,0 Z M973,452 c-43,0,-74,32,-74,67 c0,12,3,24,9,33 l123,0 l0,-95 c-25,-3,-46,-5,-58,-5 Z M394,559 c38,0,56,-19,56,-38 c0,-25,-27,-52,-86,-52 c-18,0,-38,1,-63,7 c8,35,30,83,93,83 Z M394,559" fill="rgb(0,0,0)" transform="matrix(1,0,0,-1,641,1091)"/>
</svg>