<?xml version="1.0" encoding="UTF-8"?>
<svg height="1521" version="1.1" width="2238.75" xmlns="http://www.w3.org/2000/svg" xmlns:xlink="http://www.w3.org/1999/xlink">
 <path d="M0,0 l2238.75,0 l0,1521 l-2238.75,0 Z M0,0" fill="rgb(255,255,255)" transform="matrix(1,0,0,-1,0,1521)"/>
 <path d="M0,0 l2238.75,0" fill="none" stroke="rgb(229,229,229)" stroke-width="10" transform="matrix(1,0,0,-1,0,1091)"/>
 <path d="M0,5 l0,-25" fill="none" stroke="rgb(204,204,204)" stroke-width="10" transform="matrix(1,0,0,-1,641,1091)"/>
 <path d="M0,5 l0,-25" fill="none" stroke="rgb(204,204,204)" stroke-width="10" transform="matrix(1,0,0,-1,2026,1091)"/>
 <path d="M563,414 c0,-43,39,-74,81,-74 c40,0,73,29,74,92 c5,1,10,1,11,1 c52,0,98,-35,98,-79 c0,-9,-2,-18,-7,-27 c-6,1,-13,1,-14,1 c-50,0,-90,-25,-90,-72 c0,-45,38,-73,79,-73 c35,0,69,20,83,54 c86,-18,143,-80,151,-192 l-4,-2 c-42,56,-98,70,-136,70 c-24,0,-93,-7,-122,-7 c-66,0,-94,26,-94,68 c0,18,3,31,9,50 l-21,13 l-9,0 c-12,-26,-22,-57,-22,-86 c0,-68,45,-126,147,-126 c38,0,121,11,162,11 c54,0,97,-15,113,-81 l28,-17 l11,0 c-6,115,-7,181,-7,256 l0,183 c39,4,78,12,118,12 c70,0,97,-28,97,-65 c0,-16,-4,-28,-15,-38 c-16,26,-42,38,-66,38 c-34,0,-66,-23,-66,-64 c0,-45,38,-69,79,-69 c50,0,104,37,104,116 c0,89,-84,165,-169,165 c-19,0,-50,-4,-82,-8 l0,88 l311,0 l0,8 l-60,60 l-957,0 c-79,0,-131,-40,-152,-116 c-45,22,-99,57,-163,111 l-12,0 l13,-60 c59,-50,110,-81,154,-102 l0,-133 c0,-63,82,-137,128,-137 c38,0,102,45,153,109 c25,-18,37,-48,37,-76 c0,-60,-60,-131,-169,-131 c-135,0,-233,110,-287,374 l-30,9 l-10,0 c54,-369,194,-478,341,-478 c132,0,204,86,204,200 c0,83,-38,157,-113,201 l-5,-1 c-47,-67,-115,-126,-150,-126 c-13,0,-22,9,-22,30 l0,129 c34,-9,60,-11,80,-11 c85,0,124,52,124,101 c0,13,-3,26,-9,39 l87,0 c42,0,75,-6,88,-54 c-63,-4,-102,-43,-102,-84 Z M833,552 c26,-75,98,-159,172,-176 c0,-98,5,-150,10,-185 l-3,-1 c-28,50,-82,90,-123,110 c-7,100,-87,179,-177,195 c-5,22,-13,42,-24,57 Z M394,559 c38,0,56,-19,56,-38 c0,-25,-27,-52,-86,-52 c-18,0,-38,1,-63,7 c8,35,30,83,93,83 Z M975,452 c-43,0,-74,32,-74,67 c0,12,3,24,9,33 l95,0 l0,-98 c-12,-2,-23,-2,-30,-2 Z M975,452" fill="rgb(0,0,0)" transform="matrix(1,0,0,-1,641,1091)"/>
</svg>