<?xml version="1.0" encoding="UTF-8"?>
<svg height="1521" version="1.1" width="2238.75" xmlns="http://www.w3.org/2000/svg" xmlns:xlink="http://www.w3.org/1999/xlink">
 <path d="M0,0 l2238.75,0 l0,1521 l-2238.75,0 Z M0,0" fill="rgb(255,255,255)" transform="matrix(1,0,0,-1,0,1521)"/>
 <path d="M0,0 l2238.75,0" fill="none" stroke="rgb(229,229,229)" stroke-width="10" transform="matrix(1,0,0,-1,0,1091)"/>
 <path d="M0,5 l0,-25" fill="none" stroke="rgb(204,204,204)" stroke-width="10" transform="matrix(1,0,0,-1,641,1091)"/>
 <path d="M0,5 l0,-25" fill="none" stroke="rgb(204,204,204)" stroke-width="10" transform="matrix(1,0,0,-1,1466,1091)"/>
 <path d="M309,140 c135,0,217,104,237,133 c16,-13,25,-31,25,-51 c0,-62,-90,-118,-215,-118 c-1,0,-11,0,-31,1 l-2,-7 l73,-88 c173,-11,287,-79,323,-144 l28,-17 l11,0 c-6,108,-7,171,-8,277 l-4,426 l89,0 l0,8 l-60,60 l-101,0 l0,-404 c0,-136,5,-222,14,-261 l-3,-2 c-45,44,-112,84,-172,101 l0,3 c79,25,117,68,117,129 c0,65,-44,131,-109,174 l-6,-1 c-9,-16,-27,-43,-53,-68 c-8,58,-48,95,-93,120 l-5,-1 c-38,-32,-81,-56,-105,-56 c-17,0,-26,13,-26,39 c0,44,26,83,60,112 c28,-47,84,-78,129,-78 c51,0,92,39,92,86 c0,57,-57,107,-130,107 l-434,0 l0,-8 l60,-60 l216,0 l1,-2 c-42,-39,-69,-87,-69,-132 c0,-74,70,-130,130,-130 c39,0,75,25,107,48 c18,-10,25,-28,25,-42 c0,-34,-40,-74,-117,-74 c-113,0,-198,86,-223,267 l-30,9 l-10,0 c28,-266,156,-356,269,-356 Z M426,561 c28,0,41,-13,41,-30 c0,-26,-26,-51,-63,-51 c-31,0,-64,18,-83,46 c36,22,76,35,105,35 Z M426,561" fill="rgb(0,0,0)" transform="matrix(1,0,0,-1,641,1091)"/>
</svg>