<?xml version="1.0" encoding="UTF-8"?>
<svg height="1521" version="1.1" width="2238.75" xmlns="http://www.w3.org/2000/svg" xmlns:xlink="http://www.w3.org/1999/xlink">
 <path d="M0,0 l2238.75,0 l0,1521 l-2238.75,0 Z M0,0" fill="rgb(255,255,255)" transform="matrix(1,0,0,-1,0,1521)"/>
 <path d="M0,0 l2238.75,0" fill="none" stroke="rgb(229,229,229)" stroke-width="10" transform="matrix(1,0,0,-1,0,1091)"/>
 <path d="M0,5 l0,-25" fill="none" stroke="rgb(204,204,204)" stroke-width="10" transform="matrix(1,0,0,-1,641,1091)"/>
 <path d="M0,5 l0,-25" fill="none" stroke="rgb(204,204,204)" stroke-width="10" transform="matrix(1,0,0,-1,1280,1091)"/>
 <path d="M309,335 c5,12,8,28,8,39 c0,68,-72,113,-142,121 c-8,22,-18,41,-29,57 l104,0 c42,-82,105,-118,162,-118 c56,0,91,33,91,75 c0,14,-3,27,-10,43 l156,0 l0,8 l-60,60 l-639,0 l0,-8 l60,-60 l23,0 c39,0,75,-8,94,-55 c-64,-5,-103,-46,-103,-92 c0,-45,40,-79,84,-79 c43,0,83,31,83,90 l0,10 c6,1,12,1,13,1 c50,0,72,-29,72,-66 c0,-25,-11,-55,-34,-76 c-42,-38,-84,-75,-107,-75 c-16,0,-37,15,-53,57 l-8,0 l-32,-24 c35,-71,85,-117,138,-117 c18,0,28,5,47,22 c29,26,115,120,246,181 l3,-3 c-37,-48,-52,-108,-52,-173 c0,-76,21,-152,42,-210 l29,-18 l11,0 c-10,63,-18,122,-18,179 c0,105,29,188,119,253 l0,6 c-34,28,-70,56,-106,79 c-82,-41,-146,-75,-190,-108 Z M456,552 c2,-5,3,-9,3,-14 c0,-24,-28,-44,-69,-44 c-34,0,-79,14,-106,58 Z M456,552" fill="rgb(0,0,0)" transform="matrix(1,0,0,-1,641,1091)"/>
</svg>