<?xml version="1.0" encoding="UTF-8"?>
<svg height="1521" version="1.1" width="2238.75" xmlns="http://www.w3.org/2000/svg" xmlns:xlink="http://www.w3.org/1999/xlink">
 <path d="M0,0 l2238.75,0 l0,1521 l-2238.75,0 Z M0,0" fill="rgb(255,255,255)" transform="matrix(1,0,0,-1,0,1521)"/>
 <path d="M0,0 l2238.75,0" fill="none" stroke="rgb(229,229,229)" stroke-width="10" transform="matrix(1,0,0,-1,0,1091)"/>
 <path d="M0,5 l0,-25" fill="none" stroke="rgb(204,204,204)" stroke-width="10" transform="matrix(1,0,0,-1,641,1091)"/>
 <path d="M0,5 l0,-25" fill="none" stroke="rgb(204,204,204)" stroke-width="10" transform="matrix(1,0,0,-1,1740,1091)"/>
 <path d="M490,552 l100,0 c-15,-23,-20,-47,-20,-68 c0,-71,63,-106,127,-106 c12,0,32,1,47,5 l1,-3 c-43,-33,-92,-69,-136,-106 l65,-85 c169,-13,283,-111,317,-205 l28,-17 l11,0 c-5,101,-6,165,-6,241 l0,344 l85,0 l0,8 l-60,60 l-671,0 c-79,0,-131,-40,-152,-116 c-45,22,-99,57,-163,111 l-12,0 l13,-60 c59,-50,110,-81,154,-102 l0,-133 c0,-63,82,-137,128,-137 c38,0,102,45,153,109 c25,-18,37,-48,37,-76 c0,-60,-60,-131,-169,-131 c-135,0,-233,110,-287,374 l-30,9 l-10,0 c54,-369,194,-478,341,-478 c132,0,204,86,204,200 c0,83,-38,157,-113,201 l-5,-1 c-47,-67,-115,-126,-150,-126 c-13,0,-22,9,-22,30 l0,129 c34,-9,60,-11,80,-11 c85,0,124,52,124,101 c0,13,-3,26,-9,39 Z M945,552 l0,-134 c0,-146,1,-251,10,-300 l-3,-2 c-71,75,-148,117,-220,136 l-1,3 c50,42,107,80,165,120 l-56,74 c-37,-24,-68,-33,-94,-33 c-44,0,-63,29,-63,63 c0,26,9,56,31,73 Z M394,559 c38,0,56,-19,56,-38 c0,-25,-27,-52,-86,-52 c-18,0,-38,1,-63,7 c8,35,30,83,93,83 Z M394,559" fill="rgb(0,0,0)" transform="matrix(1,0,0,-1,641,1091)"/>
</svg>