<?xml version="1.0" encoding="UTF-8"?>
<svg height="1521" version="1.1" width="2238.75" xmlns="http://www.w3.org/2000/svg" xmlns:xlink="http://www.w3.org/1999/xlink">
 <path d="M0,0 l2238.75,0 l0,1521 l-2238.75,0 Z M0,0" fill="rgb(255,255,255)" transform="matrix(1,0,0,-1,0,1521)"/>
 <path d="M0,0 l2238.75,0" fill="none" stroke="rgb(229,229,229)" stroke-width="10" transform="matrix(1,0,0,-1,0,1091)"/>
 <path d="M0,5 l0,-25" fill="none" stroke="rgb(204,204,204)" stroke-width="10" transform="matrix(1,0,0,-1,641,1091)"/>
 <path d="M0,5 l0,-25" fill="none" stroke="rgb(204,204,204)" stroke-width="10" transform="matrix(1,0,0,-1,1720,1091)"/>
 <path d="M51,615 l13,-60 c55,-48,103,-79,145,-100 l0,-102 c0,-58,74,-129,125,-129 c36,0,92,33,140,84 c15,-13,21,-40,21,-57 c0,-48,-52,-98,-148,-98 c-129,0,-218,88,-267,306 l-30,9 l-10,0 c54,-313,177,-402,316,-402 c121,0,186,70,186,166 c0,67,-33,127,-94,162 l-5,-1 c-44,-53,-105,-95,-136,-95 c-13,0,-21,8,-21,28 l0,97 c31,-9,55,-11,73,-11 c82,0,120,52,120,100 c0,13,-3,27,-9,40 l98,0 c-8,-19,-12,-38,-12,-56 c0,-70,56,-106,130,-106 c6,0,24,0,37,4 l1,-3 c-42,-32,-78,-56,-124,-91 l65,-82 c147,-14,249,-99,292,-200 l-3,-1 c-56,62,-123,73,-169,73 c-29,0,-73,-4,-98,-4 c-56,0,-81,21,-81,56 c0,17,6,38,18,62 l-22,14 l-9,0 c-22,-34,-32,-69,-32,-99 c0,-65,47,-114,138,-114 c37,0,103,8,148,8 c62,0,105,-15,125,-78 l25,-16 l11,0 c-4,115,-4,151,-4,244 l0,389 l85,0 l0,8 l-60,60 l-668,0 c-76,0,-128,-39,-146,-114 c-42,22,-92,56,-152,109 Z M925,552 l0,-116 c0,-148,1,-256,10,-306 l-3,-2 c-66,83,-138,131,-209,151 l-1,3 c51,40,97,72,153,113 l-51,67 c-39,-26,-72,-34,-95,-34 c-43,0,-64,30,-64,64 c0,19,6,43,16,60 Z M377,559 c36,0,55,-18,55,-39 c0,-24,-27,-51,-86,-51 c-16,0,-35,2,-57,7 c7,39,28,83,88,83 Z M377,559" fill="rgb(0,0,0)" transform="matrix(1,0,0,-1,641,1091)"/>
</svg>