<?xml version="1.0" encoding="UTF-8"?>
<svg height="1521" version="1.1" width="2238.75" xmlns="http://www.w3.org/2000/svg" xmlns:xlink="http://www.w3.org/1999/xlink">
 <path d="M0,0 l2238.75,0 l0,1521 l-2238.75,0 Z M0,0" fill="rgb(255,255,255)" transform="matrix(1,0,0,-1,0,1521)"/>
 <path d="M0,0 l2238.75,0" fill="none" stroke="rgb(229,229,229)" stroke-width="10" transform="matrix(1,0,0,-1,0,1091)"/>
 <path d="M0,5 l0,-25" fill="none" stroke="rgb(204,204,204)" stroke-width="10" transform="matrix(1,0,0,-1,641,1091)"/>
 <path d="M0,5 l0,-25" fill="none" stroke="rgb(204,204,204)" stroke-width="10" transform="matrix(1,0,0,-1,1391,1091)"/>
 <path d="M10,552 l227,0 l1,-2 c-39,-39,-62,-92,-62,-140 c0,-84,83,-153,132,-153 c33,0,84,32,129,77 c22,-11,29,-30,29,-48 c0,-43,-45,-94,-140,-94 c-124,0,-206,88,-252,267 l-30,9 l-10,0 c52,-274,174,-359,300,-359 c37,0,69,8,96,21 c20,-13,31,-32,36,-50 c-6,1,-13,1,-19,1 c-56,0,-94,-33,-94,-80 c0,-52,43,-79,85,-79 c40,0,81,24,91,77 c73,-37,100,-113,113,-154 l27,-17 l11,0 c-4,101,-5,164,-5,240 l0,484 l85,0 l0,8 l-60,60 l-750,0 l0,-8 Z M513,262 c0,73,-47,118,-106,146 l-5,-1 c-42,-45,-95,-81,-121,-81 c-15,0,-29,13,-29,56 c0,29,6,53,17,77 c42,-18,83,-28,118,-28 c61,0,100,35,100,82 c0,13,-4,27,-9,39 l118,0 l0,-277 c0,-146,0,-233,8,-282 l-3,-2 c-9,12,-35,45,-74,68 c-7,30,-23,67,-61,95 c31,27,47,65,47,108 Z M401,561 c25,0,39,-13,39,-30 c0,-22,-22,-50,-77,-50 c-22,0,-51,4,-74,13 c31,42,76,67,112,67 Z M401,561" fill="rgb(0,0,0)" transform="matrix(1,0,0,-1,641,1091)"/>
</svg>