<?xml version="1.0" encoding="UTF-8"?>
<svg height="1521" version="1.1" width="2238.75" xmlns="http://www.w3.org/2000/svg" xmlns:xlink="http://www.w3.org/1999/xlink">
 <path d="M0,0 l2238.75,0 l0,1521 l-2238.75,0 Z M0,0" fill="rgb(255,255,255)" transform="matrix(1,0,0,-1,0,1521)"/>
 <path d="M0,0 l2238.75,0" fill="none" stroke="rgb(229,229,229)" stroke-width="10" transform="matrix(1,0,0,-1,0,1091)"/>
 <path d="M0,5 l0,-25" fill="none" stroke="rgb(204,204,204)" stroke-width="10" transform="matrix(1,0,0,-1,641,1091)"/>
 <path d="M0,5 l0,-25" fill="none" stroke="rgb(204,204,204)" stroke-width="10" transform="matrix(1,0,0,-1,1294,1091)"/>
 <path d="M69,615 l13,-60 c61,-50,114,-83,159,-104 l0,-119 c0,-58,74,-134,128,-134 c37,0,98,42,148,105 c25,-18,37,-49,37,-75 c0,-56,-58,-114,-164,-114 c-139,0,-236,99,-292,345 l-30,9 l-10,0 c55,-347,192,-444,341,-444 c31,0,59,4,84,12 l0,-121 l-4,-2 c-50,54,-111,69,-164,69 c-23,0,-86,-3,-115,-3 c-76,0,-108,26,-108,83 c0,17,3,45,15,66 l-22,14 l-9,0 c-19,-29,-31,-68,-31,-105 c0,-71,43,-141,171,-141 c40,0,114,7,163,7 c64,0,108,-12,127,-78 l28,-17 l11,0 c-6,115,-7,181,-7,188 l0,69 c42,33,65,82,65,141 c0,79,-38,149,-113,190 l-5,-1 c-47,-64,-110,-119,-145,-119 c-13,0,-22,8,-22,28 l0,118 c33,-8,59,-10,77,-10 c88,0,127,52,127,100 c0,54,-49,108,-128,108 c-70,0,-125,-40,-145,-117 c-46,22,-102,57,-168,112 Z M417,559 c38,0,58,-18,58,-39 c0,-24,-28,-51,-92,-51 c-16,0,-36,1,-59,7 c8,35,30,83,93,83 Z M417,559" fill="rgb(0,0,0)" transform="matrix(1,0,0,-1,641,1091)"/>
</svg>