<?xml version="1.0" encoding="UTF-8"?>
<svg height="1521" version="1.1" width="2238.75" xmlns="http://www.w3.org/2000/svg" xmlns:xlink="http://www.w3.org/1999/xlink">
 <path d="M0,0 l2238.75,0 l0,1521 l-2238.75,0 Z M0,0" fill="rgb(255,255,255)" transform="matrix(1,0,0,-1,0,1521)"/>
 <path d="M0,0 l2238.75,0" fill="none" stroke="rgb(229,229,229)" stroke-width="10" transform="matrix(1,0,0,-1,0,1091)"/>
 <path d="M0,5 l0,-25" fill="none" stroke="rgb(204,204,204)" stroke-width="10" transform="matrix(1,0,0,-1,641,1091)"/>
 <path d="M0,5 l0,-25" fill="none" stroke="rgb(204,204,204)" stroke-width="10" transform="matrix(1,0,0,-1,1483,1091)"/>
 <path d="M792,620 l-842,0 l0,-8 l60,-60 l70,0 l0,-327 c0,-68,82,-152,116,-152 c62,0,213,115,213,266 c0,28,-10,42,-26,59 c-20,21,-26,30,-45,35 c-64,16,-152,20,-180,119 l258,0 l0,-387 c0,-69,79,-165,137,-165 c63,0,244,133,244,312 c0,28,-15,42,-34,59 c-23,20,-31,29,-53,35 c-77,21,-183,25,-216,146 l358,0 l0,8 Z M496,470 c43,-113,113,-134,198,-153 c6,-9,7,-20,7,-31 c0,-91,-124,-202,-177,-202 c-23,0,-31,18,-31,55 l0,330 Z M161,473 c33,-93,89,-108,154,-124 c4,-7,5,-18,5,-27 c0,-82,-106,-169,-138,-169 c-19,0,-24,13,-24,43 l0,276 Z M161,473" fill="rgb(0,0,0)" transform="matrix(1,0,0,-1,641,1091)"/>
</svg>