<?xml version="1.0" encoding="UTF-8"?>
<svg height="1521" version="1.1" width="2238.75" xmlns="http://www.w3.org/2000/svg" xmlns:xlink="http://www.w3.org/1999/xlink">
 <path d="M0,0 l2238.75,0 l0,1521 l-2238.75,0 Z M0,0" fill="rgb(255,255,255)" transform="matrix(1,0,0,-1,0,1521)"/>
 <path d="M0,0 l2238.75,0" fill="none" stroke="rgb(229,229,229)" stroke-width="10" transform="matrix(1,0,0,-1,0,1091)"/>
 <path d="M0,5 l0,-25" fill="none" stroke="rgb(204,204,204)" stroke-width="10" transform="matrix(1,0,0,-1,641,1091)"/>
 <path d="M0,5 l0,-25" fill="none" stroke="rgb(204,204,204)" stroke-width="10" transform="matrix(1,0,0,-1,1575,1091)"/>
 <path d="M440,174 l-5,-5 l55,-103 c181,-3,314,-69,482,-196 l7,0 l-14,48 c-48,54,-168,143,-283,185 l0,3 c91,21,187,91,187,198 c0,122,-130,170,-182,170 c-17,0,-45,-5,-66,-5 c-36,0,-114,17,-137,83 l460,0 l0,8 l-60,60 l-934,0 l0,-8 l60,-60 l70,0 l0,-312 c0,-63,79,-140,121,-140 c51,0,198,119,198,255 c0,34,-8,43,-26,62 c-20,21,-26,30,-45,35 c-54,14,-142,12,-170,100 l248,0 l0,-227 c0,-48,67,-106,126,-106 c70,0,161,81,162,179 c14,6,27,9,41,9 c39,0,73,-26,73,-69 c0,-85,-122,-175,-277,-175 c-32,0,-60,4,-91,11 Z M161,477 c30,-78,86,-95,144,-109 c4,-7,5,-18,5,-25 c0,-76,-95,-163,-133,-163 c-12,0,-19,9,-19,31 l0,265 Z M487,488 c27,-59,74,-82,119,-87 c3,-4,4,-11,4,-17 c0,-52,-77,-105,-108,-105 c-13,0,-18,8,-18,27 l0,181 Z M487,488" fill="rgb(0,0,0)" transform="matrix(1,0,0,-1,641,1091)"/>
</svg>