<?xml version="1.0" encoding="UTF-8"?>
<svg height="1521" version="1.1" width="2238.75" xmlns="http://www.w3.org/2000/svg" xmlns:xlink="http://www.w3.org/1999/xlink">
 <path d="M0,0 l2238.75,0 l0,1521 l-2238.75,0 Z M0,0" fill="rgb(255,255,255)" transform="matrix(1,0,0,-1,0,1521)"/>
 <path d="M0,0 l2238.75,0" fill="none" stroke="rgb(229,229,229)" stroke-width="10" transform="matrix(1,0,0,-1,0,1091)"/>
 <path d="M0,5 l0,-25" fill="none" stroke="rgb(204,204,204)" stroke-width="10" transform="matrix(1,0,0,-1,641,1091)"/>
 <path d="M0,5 l0,-25" fill="none" stroke="rgb(204,204,204)" stroke-width="10" transform="matrix(1,0,0,-1,1566,1091)"/>
 <path d="M440,204 l-5,-5 l54,-99 c61,-3,117,-12,172,-29 c-43,-22,-90,-49,-138,-78 l62,-77 c100,-8,173,-47,193,-89 l29,-14 l10,0 c-3,65,-3,112,-3,187 l0,3 c49,-28,99,-62,152,-103 l7,0 l-14,48 c-48,54,-165,143,-275,185 l0,3 c88,22,179,86,179,190 c0,117,-125,163,-175,163 c-16,0,-47,-5,-67,-5 c-32,0,-108,4,-135,68 l449,0 l0,8 l-60,60 l-925,0 l0,-8 l60,-60 l70,0 l0,-312 c0,-63,79,-140,121,-140 c51,0,198,119,198,255 c0,34,-8,43,-26,62 c-20,21,-26,30,-45,35 c-54,14,-142,12,-170,100 l248,0 l0,-202 c0,-46,66,-100,125,-100 c66,0,156,74,157,164 c13,5,31,8,45,8 c37,0,69,-24,69,-65 c0,-80,-126,-164,-275,-164 c-30,0,-57,4,-87,11 Z M161,477 c30,-78,86,-95,144,-109 c4,-7,5,-18,5,-25 c0,-76,-95,-163,-133,-163 c-12,0,-19,9,-19,31 l0,265 Z M487,501 c25,-59,73,-80,114,-85 c3,-4,4,-10,4,-15 c0,-46,-75,-92,-103,-92 c-13,0,-18,7,-18,25 l0,166 Z M635,-25 l-1,3 c33,21,75,42,109,57 c0,-50,1,-107,9,-131 l-2,-2 c-29,35,-80,63,-115,73 Z M635,-25" fill="rgb(0,0,0)" transform="matrix(1,0,0,-1,641,1091)"/>
</svg>