<?xml version="1.0" encoding="UTF-8"?>
<svg height="1521" version="1.1" width="2238.75" xmlns="http://www.w3.org/2000/svg" xmlns:xlink="http://www.w3.org/1999/xlink">
 <path d="M0,0 l2238.75,0 l0,1521 l-2238.75,0 Z M0,0" fill="rgb(255,255,255)" transform="matrix(1,0,0,-1,0,1521)"/>
 <path d="M0,0 l2238.75,0" fill="none" stroke="rgb(229,229,229)" stroke-width="10" transform="matrix(1,0,0,-1,0,1091)"/>
 <path d="M0,5 l0,-25" fill="none" stroke="rgb(204,204,204)" stroke-width="10" transform="matrix(1,0,0,-1,641,1091)"/>
 <path d="M0,5 l0,-25" fill="none" stroke="rgb(204,204,204)" stroke-width="10" transform="matrix(1,0,0,-1,1566,1091)"/>
 <path d="M440,204 l-5,-5 l54,-99 c107,-5,201,-32,295,-81 l3,-141 l-4,-2 c-53,54,-118,73,-174,73 c-46,0,-163,-14,-229,-14 c-91,0,-123,25,-123,81 c0,16,3,38,14,66 l-22,14 l-9,0 c-21,-40,-28,-75,-28,-106 c0,-87,67,-138,185,-138 c69,0,208,18,281,18 c65,0,110,-14,130,-80 l28,-17 l11,0 c-6,115,-7,137,-7,156 l0,59 c41,-25,82,-54,126,-88 l7,0 l-14,48 c-48,54,-165,143,-275,185 l0,3 c88,22,179,86,179,190 c0,117,-125,163,-175,163 c-16,0,-47,-5,-67,-5 c-32,0,-108,4,-135,68 l449,0 l0,8 l-60,60 l-925,0 l0,-8 l60,-60 l70,0 l0,-312 c0,-63,79,-140,121,-140 c51,0,198,119,198,255 c0,34,-8,43,-26,62 c-18,19,-23,29,-45,35 c-53,14,-142,11,-170,100 l248,0 l0,-202 c0,-46,66,-100,125,-100 c66,0,156,74,157,164 c13,5,31,8,45,8 c37,0,69,-24,69,-65 c0,-80,-126,-164,-275,-164 c-30,0,-57,4,-87,11 Z M161,477 c30,-78,86,-95,144,-109 c4,-7,5,-18,5,-25 c0,-76,-95,-163,-133,-163 c-12,0,-19,9,-19,31 l0,265 Z M487,501 c25,-59,73,-80,114,-85 c3,-4,4,-10,4,-15 c0,-46,-75,-92,-103,-92 c-13,0,-18,7,-18,25 l0,166 Z M487,501" fill="rgb(0,0,0)" transform="matrix(1,0,0,-1,641,1091)"/>
</svg>