<?xml version="1.0" encoding="UTF-8"?>
<svg height="1521" version="1.1" width="2238.75" xmlns="http://www.w3.org/2000/svg" xmlns:xlink="http://www.w3.org/1999/xlink">
 <path d="M0,0 l2238.75,0 l0,1521 l-2238.75,0 Z M0,0" fill="rgb(255,255,255)" transform="matrix(1,0,0,-1,0,1521)"/>
 <path d="M0,0 l2238.75,0" fill="none" stroke="rgb(229,229,229)" stroke-width="10" transform="matrix(1,0,0,-1,0,1091)"/>
 <path d="M0,5 l0,-25" fill="none" stroke="rgb(204,204,204)" stroke-width="10" transform="matrix(1,0,0,-1,641,1091)"/>
 <path d="M0,5 l0,-25" fill="none" stroke="rgb(204,204,204)" stroke-width="10" transform="matrix(1,0,0,-1,1630,1091)"/>
 <path d="M889,219 c30,33,52,69,52,112 c0,65,-51,112,-118,112 c-70,0,-125,-54,-160,-121 l-3,1 c0,9,1,19,1,24 c0,86,-76,133,-120,133 c-27,0,-66,-18,-103,-47 c-14,21,-37,36,-49,40 c-42,11,-120,8,-146,79 l756,0 l0,8 l-60,60 l-989,0 l0,-8 l60,-60 l156,0 l0,-232 c0,-58,63,-124,104,-124 c17,0,39,8,62,22 l2,-1 c3,-47,38,-78,87,-78 c46,0,90,25,90,72 c0,38,-28,64,-64,64 c-7,0,-14,-1,-22,-4 l-2,1 c23,69,111,142,144,142 c9,0,15,-4,15,-46 c0,-22,-2,-100,-2,-153 c0,-115,9,-164,16,-201 l-2,-1 c-53,58,-103,72,-162,72 c-45,0,-125,-8,-174,-8 c-121,0,-176,51,-176,136 c0,28,6,58,20,86 l-23,15 l-9,0 c-21,-35,-35,-81,-35,-126 c0,-121,100,-196,239,-196 c59,0,157,14,216,14 c68,0,109,-18,129,-82 l32,-18 l11,0 c-3,82,-3,167,-3,169 l0,65 l3,1 c36,-76,106,-137,179,-137 c68,0,105,48,105,100 c0,40,-21,83,-57,115 Z M812,84 c-86,0,-155,95,-155,142 c0,49,77,139,167,139 c44,0,67,-22,67,-47 c0,-22,-19,-44,-52,-54 c-15,11,-33,19,-54,19 c-41,0,-65,-30,-65,-60 c0,-31,24,-62,68,-62 c23,0,46,9,62,22 c22,-10,37,-28,37,-47 c0,-24,-27,-52,-75,-52 Z M246,488 c27,-59,74,-81,119,-86 c3,-4,4,-12,4,-18 c0,-61,-80,-119,-108,-119 c-13,0,-18,9,-18,29 l0,193 Z M246,488" fill="rgb(0,0,0)" transform="matrix(1,0,0,-1,641,1091)"/>
</svg>