<?xml version="1.0" encoding="UTF-8"?>
<svg height="1521" version="1.1" width="2238.75" xmlns="http://www.w3.org/2000/svg" xmlns:xlink="http://www.w3.org/1999/xlink">
 <path d="M0,0 l2238.75,0 l0,1521 l-2238.75,0 Z M0,0" fill="rgb(255,255,255)" transform="matrix(1,0,0,-1,0,1521)"/>
 <path d="M0,0 l2238.75,0" fill="none" stroke="rgb(229,229,229)" stroke-width="10" transform="matrix(1,0,0,-1,0,1091)"/>
 <path d="M0,5 l0,-25" fill="none" stroke="rgb(204,204,204)" stroke-width="10" transform="matrix(1,0,0,-1,641,1091)"/>
 <path d="M0,5 l0,-25" fill="none" stroke="rgb(204,204,204)" stroke-width="10" transform="matrix(1,0,0,-1,1169,1091)"/>
 <path d="M112,552 l0,-364 c0,-54,63,-156,133,-156 c21,0,43,7,66,20 c2,-55,6,-94,10,-124 l-3,-1 c-54,75,-124,96,-178,96 c-74,0,-113,-40,-113,-91 c0,-55,45,-83,88,-83 c46,0,73,34,73,74 c0,15,-3,31,-13,45 l1,3 c80,-3,156,-90,166,-148 l29,-18 l11,0 c-4,101,-5,165,-5,241 l0,58 c57,59,102,146,102,224 c0,45,-63,87,-87,94 c-62,18,-170,17,-202,130 l348,0 l0,8 l-60,60 l-528,0 l0,-8 l60,-60 Z M192,476 c41,-106,107,-124,187,-142 c6,-9,7,-19,7,-29 c0,-87,-116,-196,-168,-196 c-22,0,-29,16,-29,53 l0,313 Z M192,476" fill="rgb(0,0,0)" transform="matrix(1,0,0,-1,641,1091)"/>
</svg>