<?xml version="1.0" encoding="UTF-8"?>
<svg height="1521" version="1.1" width="2238.75" xmlns="http://www.w3.org/2000/svg" xmlns:xlink="http://www.w3.org/1999/xlink">
 <path d="M0,0 l2238.75,0 l0,1521 l-2238.75,0 Z M0,0" fill="rgb(255,255,255)" transform="matrix(1,0,0,-1,0,1521)"/>
 <path d="M0,0 l2238.75,0" fill="none" stroke="rgb(229,229,229)" stroke-width="10" transform="matrix(1,0,0,-1,0,1091)"/>
 <path d="M0,5 l0,-25" fill="none" stroke="rgb(204,204,204)" stroke-width="10" transform="matrix(1,0,0,-1,641,1091)"/>
 <path d="M0,5 l0,-25" fill="none" stroke="rgb(204,204,204)" stroke-width="10" transform="matrix(1,0,0,-1,1164,1091)"/>
 <path d="M474,328 c0,28,-15,42,-34,59 c-23,20,-31,29,-53,35 c-73,19,-171,22,-202,130 l348,0 l0,8 l-60,60 l-523,0 l0,-8 l60,-60 l97,0 l0,-366 c0,-40,25,-85,58,-118 c-42,-21,-87,-46,-132,-73 l69,-86 c114,-11,189,-62,217,-115 l25,-15 l10,0 c-3,65,-3,107,-3,156 l0,149 c62,54,123,141,123,244 Z M187,476 c41,-106,107,-124,187,-142 c6,-9,7,-19,7,-29 c0,-87,-118,-198,-168,-198 c-22,0,-29,16,-29,53 l0,315 Z M153,-30 l-1,3 c41,26,87,47,130,66 c0,-80,1,-139,9,-166 l-2,-2 c-38,48,-96,85,-136,99 Z M153,-30" fill="rgb(0,0,0)" transform="matrix(1,0,0,-1,641,1091)"/>
</svg>