<?xml version="1.0" encoding="UTF-8"?>
<svg height="1521" version="1.1" width="2238.75" xmlns="http://www.w3.org/2000/svg" xmlns:xlink="http://www.w3.org/1999/xlink">
 <path d="M0,0 l2238.75,0 l0,1521 l-2238.75,0 Z M0,0" fill="rgb(255,255,255)" transform="matrix(1,0,0,-1,0,1521)"/>
 <path d="M0,0 l2238.75,0" fill="none" stroke="rgb(229,229,229)" stroke-width="10" transform="matrix(1,0,0,-1,0,1091)"/>
 <path d="M0,5 l0,-25" fill="none" stroke="rgb(204,204,204)" stroke-width="10" transform="matrix(1,0,0,-1,641,1091)"/>
 <path d="M0,5 l0,-25" fill="none" stroke="rgb(204,204,204)" stroke-width="10" transform="matrix(1,0,0,-1,1232,1091)"/>
 <path d="M175,552 l0,-364 c0,-54,64,-158,134,-158 c41,0,89,28,130,70 l0,-185 l-4,-2 c-51,54,-113,70,-167,70 c-19,0,-74,-4,-97,-4 c-63,0,-89,22,-89,79 c0,17,3,45,15,66 l-22,14 l-9,0 c-19,-29,-31,-68,-31,-105 c0,-71,38,-138,151,-138 c36,0,106,8,149,8 c64,0,108,-12,127,-78 l28,-17 l11,0 c-6,115,-7,181,-7,188 l0,176 c29,49,48,104,48,156 c0,28,-15,42,-34,59 c-23,20,-31,29,-53,35 c-73,19,-171,22,-202,130 l348,0 l0,8 l-60,60 l-591,0 l0,-8 l60,-60 Z M255,476 c41,-106,107,-124,187,-142 c6,-9,7,-19,7,-29 c0,-87,-116,-196,-168,-196 c-22,0,-29,16,-29,53 l0,313 Z M255,476" fill="rgb(0,0,0)" transform="matrix(1,0,0,-1,641,1091)"/>
</svg>