<?xml version="1.0" encoding="UTF-8"?>
<svg height="1521" version="1.1" width="2238.75" xmlns="http://www.w3.org/2000/svg" xmlns:xlink="http://www.w3.org/1999/xlink">
 <path d="M0,0 l2238.75,0 l0,1521 l-2238.75,0 Z M0,0" fill="rgb(255,255,255)" transform="matrix(1,0,0,-1,0,1521)"/>
 <path d="M0,0 l2238.75,0" fill="none" stroke="rgb(229,229,229)" stroke-width="10" transform="matrix(1,0,0,-1,0,1091)"/>
 <path d="M0,5 l0,-25" fill="none" stroke="rgb(204,204,204)" stroke-width="10" transform="matrix(1,0,0,-1,641,1091)"/>
 <path d="M0,5 l0,-25" fill="none" stroke="rgb(204,204,204)" stroke-width="10" transform="matrix(1,0,0,-1,1775,1091)"/>
 <path d="M1144,552 l0,8 l-60,60 l-1134,0 l0,-8 l60,-60 l207,0 l1,-3 c-47,-38,-65,-81,-65,-124 c0,-85,68,-148,151,-148 c40,0,75,14,103,41 c16,-12,24,-33,24,-48 c0,-44,-53,-78,-124,-78 c-122,0,-211,95,-242,301 l-30,9 l-10,0 c35,-295,160,-396,294,-396 c76,0,123,34,146,93 l3,0 c57,-128,143,-176,234,-176 c101,0,155,57,155,142 c0,63,-30,120,-89,156 l-5,-1 c-44,-39,-84,-58,-120,-58 c-27,0,-45,14,-45,38 c0,51,56,99,111,134 c49,-52,121,-83,184,-83 c23,0,44,4,65,11 l3,-2 c-43,-60,-56,-134,-56,-200 c0,-74,17,-153,41,-224 l29,-18 l11,0 c-13,62,-22,125,-22,180 c0,97,30,187,124,261 l0,6 l-113,89 c-38,-21,-80,-34,-124,-34 c-89,0,-137,55,-171,101 l-5,0 c-43,-26,-103,-48,-160,-48 c-52,0,-103,19,-145,68 l22,11 Z M556,408 c-14,-20,-20,-43,-20,-67 c0,-83,68,-147,151,-147 c40,0,75,14,103,41 c16,-12,23,-32,23,-47 c0,-44,-51,-79,-125,-79 c-152,0,-207,147,-221,192 c-6,19,-26,68,-82,103 l-5,-1 c-44,-39,-84,-58,-120,-58 c-29,0,-45,15,-45,38 c0,54,64,106,123,141 c52,-77,122,-114,207,-114 c1,0,5,0,10,1 Z M556,408" fill="rgb(0,0,0)" transform="matrix(1,0,0,-1,641,1091)"/>
</svg>