<?xml version="1.0" encoding="UTF-8"?>
<svg height="1521" version="1.1" width="2238.75" xmlns="http://www.w3.org/2000/svg" xmlns:xlink="http://www.w3.org/1999/xlink">
 <path d="M0,0 l2238.75,0 l0,1521 l-2238.75,0 Z M0,0" fill="rgb(255,255,255)" transform="matrix(1,0,0,-1,0,1521)"/>
 <path d="M0,0 l2238.75,0" fill="none" stroke="rgb(229,229,229)" stroke-width="10" transform="matrix(1,0,0,-1,0,1091)"/>
 <path d="M0,5 l0,-25" fill="none" stroke="rgb(204,204,204)" stroke-width="10" transform="matrix(1,0,0,-1,641,1091)"/>
 <path d="M0,5 l0,-25" fill="none" stroke="rgb(204,204,204)" stroke-width="10" transform="matrix(1,0,0,-1,1531,1091)"/>
 <path d="M-50,620 l0,-8 l60,-60 l209,0 l1,-3 c-50,-37,-70,-77,-70,-122 c0,-86,70,-153,156,-153 c44,0,90,18,121,46 c15,-15,23,-35,23,-52 c0,-43,-46,-88,-134,-88 c-130,0,-206,99,-251,297 l-30,9 l-10,0 c46,-302,172,-394,293,-394 c93,0,181,55,181,154 c0,64,-38,126,-109,161 l-5,-1 c-48,-39,-94,-59,-127,-59 c-27,0,-44,15,-44,39 c0,40,46,89,121,130 c46,-74,132,-118,211,-118 c10,0,20,0,30,2 l0,-223 c-62,-27,-143,-71,-245,-128 l65,-82 c114,-11,187,-54,215,-107 l32,-15 l11,0 c-3,57,-3,98,-3,156 c72,-17,117,-75,130,-108 l28,-16 l11,0 c-4,101,-5,165,-5,241 l0,434 l85,0 l0,8 l-60,60 Z M405,552 l333,0 l0,-282 c0,-114,2,-214,13,-283 l-3,-2 c-15,20,-47,55,-97,80 l0,434 l-8,5 c-39,-23,-89,-39,-140,-39 c-43,0,-94,11,-133,71 c11,6,23,10,35,16 Z M450,24 l-1,3 c41,26,84,46,127,65 c0,-80,1,-124,9,-153 l-2,-2 c-34,43,-93,73,-133,87 Z M450,24" fill="rgb(0,0,0)" transform="matrix(1,0,0,-1,641,1091)"/>
</svg>