<?xml version="1.0" encoding="UTF-8"?>
<svg height="1521" version="1.1" width="2238.75" xmlns="http://www.w3.org/2000/svg" xmlns:xlink="http://www.w3.org/1999/xlink">
 <path d="M0,0 l2238.75,0 l0,1521 l-2238.75,0 Z M0,0" fill="rgb(255,255,255)" transform="matrix(1,0,0,-1,0,1521)"/>
 <path d="M0,0 l2238.75,0" fill="none" stroke="rgb(229,229,229)" stroke-width="10" transform="matrix(1,0,0,-1,0,1091)"/>
 <path d="M0,5 l0,-25" fill="none" stroke="rgb(204,204,204)" stroke-width="10" transform="matrix(1,0,0,-1,641,1091)"/>
 <path d="M0,5 l0,-25" fill="none" stroke="rgb(204,204,204)" stroke-width="10" transform="matrix(1,0,0,-1,1481,1091)"/>
 <path d="M410,552 l440,0 l0,8 l-60,60 l-840,0 l0,-8 l60,-60 l214,0 l1,-3 c-53,-43,-75,-92,-75,-142 c0,-90,71,-159,158,-159 c45,0,97,20,129,51 c14,-16,22,-37,22,-55 c0,-44,-47,-101,-142,-101 c-131,0,-207,110,-252,334 l-30,9 l-10,0 c47,-330,167,-437,307,-437 c101,0,162,54,171,143 l3,1 c36,-66,99,-124,175,-124 c69,0,109,51,109,107 c0,41,-22,83,-58,117 c29,33,50,72,50,114 c0,69,-55,118,-119,118 c-108,0,-187,-107,-196,-192 l-3,-1 c-40,67,-77,129,-109,194 c21,11,40,20,55,26 Z M657,150 c-89,0,-165,101,-165,152 c0,52,83,145,175,145 c47,0,72,-24,72,-51 c0,-24,-21,-45,-54,-54 c-15,11,-33,17,-53,17 c-43,0,-66,-30,-66,-60 c0,-31,24,-62,68,-62 c23,0,46,8,62,21 c22,-11,41,-28,41,-50 c0,-27,-30,-58,-80,-58 Z M389,380 c-46,-38,-97,-59,-128,-59 c-29,0,-47,17,-47,44 c0,51,52,103,107,140 c21,-42,44,-83,68,-125 Z M389,380" fill="rgb(0,0,0)" transform="matrix(1,0,0,-1,641,1091)"/>
</svg>