<?xml version="1.0" encoding="UTF-8"?>
<svg height="1521" version="1.1" width="2238.75" xmlns="http://www.w3.org/2000/svg" xmlns:xlink="http://www.w3.org/1999/xlink">
 <path d="M0,0 l2238.75,0 l0,1521 l-2238.75,0 Z M0,0" fill="rgb(255,255,255)" transform="matrix(1,0,0,-1,0,1521)"/>
 <path d="M0,0 l2238.75,0" fill="none" stroke="rgb(229,229,229)" stroke-width="10" transform="matrix(1,0,0,-1,0,1091)"/>
 <path d="M0,5 l0,-25" fill="none" stroke="rgb(204,204,204)" stroke-width="10" transform="matrix(1,0,0,-1,641,1091)"/>
 <path d="M0,5 l0,-25" fill="none" stroke="rgb(204,204,204)" stroke-width="10" transform="matrix(1,0,0,-1,1463,1091)"/>
 <path d="M442,552 l390,0 l0,8 l-60,60 l-822,0 l0,-8 l60,-60 l246,0 l1,-3 c-50,-37,-70,-77,-70,-122 c0,-86,70,-153,156,-153 c44,0,90,18,121,46 c15,-15,23,-35,23,-52 c0,-43,-46,-88,-134,-88 c-130,0,-206,99,-251,297 l-30,9 l-10,0 c49,-304,166,-398,303,-398 c109,0,171,60,171,153 c0,71,-36,129,-109,166 l-5,-1 c-48,-39,-94,-59,-127,-59 c-27,0,-44,15,-44,39 c0,40,46,89,121,130 c46,-74,134,-120,215,-120 c20,0,42,3,62,10 l3,-2 c-40,-59,-54,-131,-54,-204 c0,-74,14,-153,33,-225 l-3,-2 c-62,58,-114,69,-182,69 c-64,0,-151,-10,-209,-10 c-111,0,-155,38,-155,105 c0,18,4,42,13,65 l-23,15 l-9,0 c-17,-30,-27,-68,-27,-103 c0,-102,90,-165,221,-165 c63,0,184,15,256,15 c88,0,119,-22,143,-79 l29,-18 l11,0 c-22,94,-37,196,-37,270 c0,103,30,193,121,267 l0,6 l-113,89 c-39,-20,-80,-34,-127,-34 c-43,0,-94,11,-133,71 c11,6,23,10,35,16 Z M442,552" fill="rgb(0,0,0)" transform="matrix(1,0,0,-1,641,1091)"/>
</svg>