<?xml version="1.0" encoding="UTF-8"?>
<svg height="1521" version="1.1" width="2238.75" xmlns="http://www.w3.org/2000/svg" xmlns:xlink="http://www.w3.org/1999/xlink">
 <path d="M0,0 l2238.75,0 l0,1521 l-2238.75,0 Z M0,0" fill="rgb(255,255,255)" transform="matrix(1,0,0,-1,0,1521)"/>
 <path d="M0,0 l2238.75,0" fill="none" stroke="rgb(229,229,229)" stroke-width="10" transform="matrix(1,0,0,-1,0,1091)"/>
 <path d="M0,5 l0,-25" fill="none" stroke="rgb(204,204,204)" stroke-width="10" transform="matrix(1,0,0,-1,641,1091)"/>
 <path d="M0,5 l0,-25" fill="none" stroke="rgb(204,204,204)" stroke-width="10" transform="matrix(1,0,0,-1,1480,1091)"/>
 <path d="M593,201 c83,-35,118,-123,138,-187 l27,-17 l11,0 c-4,101,-5,165,-5,241 l0,314 l85,0 l0,8 l-60,60 l-102,0 l0,-185 c0,-146,0,-216,8,-265 l-3,-2 c-29,44,-60,82,-99,106 l0,346 l-643,0 l0,-8 l60,-60 l504,0 l0,-29 c-101,-35,-226,-95,-359,-168 l86,-97 c133,-27,248,-104,296,-207 l-4,-2 c-57,56,-114,70,-180,70 c-35,0,-93,-4,-125,-4 c-103,0,-146,39,-146,112 c0,26,6,58,20,87 l-23,15 l-9,0 c-21,-35,-35,-81,-35,-125 c0,-109,89,-174,209,-174 c46,0,120,9,182,9 c76,0,113,-13,134,-78 l28,-17 l11,0 c-5,97,-6,158,-6,230 Z M293,325 l0,2 c70,39,147,74,221,102 c0,-135,0,-234,5,-279 l-3,-2 c-74,101,-151,147,-223,177 Z M293,325" fill="rgb(0,0,0)" transform="matrix(1,0,0,-1,641,1091)"/>
</svg>