<?xml version="1.0" encoding="UTF-8"?>
<svg height="1521" version="1.1" width="2238.75" xmlns="http://www.w3.org/2000/svg" xmlns:xlink="http://www.w3.org/1999/xlink">
 <path d="M0,0 l2238.75,0 l0,1521 l-2238.75,0 Z M0,0" fill="rgb(255,255,255)" transform="matrix(1,0,0,-1,0,1521)"/>
 <path d="M0,0 l2238.75,0" fill="none" stroke="rgb(229,229,229)" stroke-width="10" transform="matrix(1,0,0,-1,0,1091)"/>
 <path d="M0,5 l0,-25" fill="none" stroke="rgb(204,204,204)" stroke-width="10" transform="matrix(1,0,0,-1,641,1091)"/>
 <path d="M0,5 l0,-25" fill="none" stroke="rgb(204,204,204)" stroke-width="10" transform="matrix(1,0,0,-1,1509,1091)"/>
 <path d="M500,257 l4,0 c48,-104,120,-157,195,-157 c76,0,119,56,119,115 c0,47,-27,88,-54,127 c30,37,51,81,51,125 c0,75,-59,126,-129,126 c-67,0,-138,-47,-182,-157 l-3,1 c0,4,1,38,1,72 l0,70 l-69,41 l-9,0 l0,-10 c0,-51,0,-88,3,-117 l-2,-2 c-71,94,-140,138,-219,138 c-92,0,-161,-60,-161,-135 c0,-59,41,-98,97,-98 c55,0,84,38,84,73 c0,31,-24,61,-66,61 c-8,0,-14,-1,-19,-2 l-2,1 c8,20,41,34,84,34 c57,0,127,-26,173,-89 c-106,-66,-209,-128,-313,-197 l72,-92 c170,-20,280,-112,314,-201 l28,-17 l11,0 c-7,99,-8,154,-8,241 Z M676,182 c-96,0,-177,104,-177,163 c0,67,104,169,195,169 c49,0,78,-30,78,-59 c0,-27,-24,-52,-55,-63 c-20,14,-39,22,-61,22 c-48,0,-73,-35,-73,-69 c0,-34,25,-68,73,-68 c24,0,46,9,71,29 c19,-13,37,-32,37,-56 c0,-33,-31,-68,-88,-68 Z M433,114 l-3,-2 c-69,76,-150,119,-221,141 l-1,3 c65,47,139,91,215,135 c0,-131,1,-233,10,-277 Z M433,114" fill="rgb(0,0,0)" transform="matrix(1,0,0,-1,641,1091)"/>
</svg>