<?xml version="1.0" encoding="UTF-8"?>
<svg height="1521" version="1.1" width="2238.75" xmlns="http://www.w3.org/2000/svg" xmlns:xlink="http://www.w3.org/1999/xlink">
 <path d="M0,0 l2238.75,0 l0,1521 l-2238.75,0 Z M0,0" fill="rgb(255,255,255)" transform="matrix(1,0,0,-1,0,1521)"/>
 <path d="M0,0 l2238.75,0" fill="none" stroke="rgb(229,229,229)" stroke-width="10" transform="matrix(1,0,0,-1,0,1091)"/>
 <path d="M0,5 l0,-25" fill="none" stroke="rgb(204,204,204)" stroke-width="10" transform="matrix(1,0,0,-1,641,1091)"/>
 <path d="M0,5 l0,-25" fill="none" stroke="rgb(204,204,204)" stroke-width="10" transform="matrix(1,0,0,-1,1389,1091)"/>
 <path d="M628,408 c28,31,48,66,48,106 c0,62,-48,106,-107,106 c-65,0,-127,-54,-159,-116 c-12,62,-70,116,-146,116 c-92,0,-204,-77,-204,-161 c0,-50,39,-71,75,-71 c41,0,64,26,64,54 c0,19,-12,38,-36,49 c41,47,99,68,139,68 c34,0,47,-15,47,-44 c0,-108,-179,-152,-237,-198 c-25,-20,-34,-43,-34,-67 c0,-76,94,-137,181,-137 c58,0,116,25,141,87 c26,-16,44,-32,44,-59 c0,-59,-103,-99,-206,-99 c-30,0,-61,3,-88,11 l-5,-5 l54,-99 c171,-7,307,-71,469,-194 l7,0 l-14,48 c-47,52,-160,138,-267,179 l0,3 c79,22,115,69,115,131 c0,127,-162,121,-162,225 c0,5,0,11,1,18 c15,14,30,29,41,46 c10,-88,104,-200,196,-200 c61,0,95,46,95,96 c0,38,-19,77,-52,107 Z M557,277 c-79,0,-140,93,-140,138 c0,48,68,133,151,133 c41,0,61,-21,61,-46 c0,-22,-16,-42,-48,-53 c-13,11,-30,18,-49,18 c-37,0,-60,-27,-60,-56 c0,-27,23,-57,63,-57 c21,0,42,9,57,21 c21,-11,34,-29,34,-46 c0,-24,-25,-52,-69,-52 Z M318,338 c-1,-9,-1,-12,-1,-13 c0,-34,10,-52,21,-69 c-13,-51,-69,-74,-120,-74 c-43,0,-76,16,-76,39 c0,28,32,39,108,77 c19,9,52,26,65,41 Z M318,338" fill="rgb(0,0,0)" transform="matrix(1,0,0,-1,641,1091)"/>
</svg>