<?xml version="1.0" encoding="UTF-8"?>
<svg height="1521" version="1.1" width="2238.75" xmlns="http://www.w3.org/2000/svg" xmlns:xlink="http://www.w3.org/1999/xlink">
 <path d="M0,0 l2238.75,0 l0,1521 l-2238.75,0 Z M0,0" fill="rgb(255,255,255)" transform="matrix(1,0,0,-1,0,1521)"/>
 <path d="M0,0 l2238.75,0" fill="none" stroke="rgb(229,229,229)" stroke-width="10" transform="matrix(1,0,0,-1,0,1091)"/>
 <path d="M0,5 l0,-25" fill="none" stroke="rgb(204,204,204)" stroke-width="10" transform="matrix(1,0,0,-1,641,1091)"/>
 <path d="M0,5 l0,-25" fill="none" stroke="rgb(204,204,204)" stroke-width="10" transform="matrix(1,0,0,-1,1403,1091)"/>
 <path d="M635,414 c28,30,48,64,48,103 c0,60,-48,103,-107,103 c-61,0,-118,-46,-151,-100 c-16,51,-72,100,-145,100 c-92,0,-204,-76,-204,-162 c0,-51,40,-74,77,-74 c42,0,65,27,65,56 c0,20,-12,40,-38,51 c41,47,99,68,139,68 c27,0,46,-10,46,-34 c0,-31,-27,-57,-87,-110 c-52,-45,-100,-86,-100,-136 c0,-55,62,-132,151,-132 c39,0,75,14,104,43 c17,-13,24,-33,24,-50 c0,-44,-53,-82,-130,-82 c-129,0,-224,102,-257,315 l-30,9 l-10,0 c37,-303,170,-415,311,-415 c105,0,163,63,163,151 c0,66,-32,114,-95,159 l-5,-1 c-46,-41,-86,-58,-119,-58 c-30,0,-42,15,-42,30 c0,23,25,45,78,92 c27,24,54,48,74,73 c10,-85,104,-195,197,-195 l6,0 c-33,-52,-42,-107,-42,-159 c0,-66,16,-132,38,-195 l29,-18 l11,0 c-11,50,-19,102,-19,149 c0,76,20,145,92,203 l0,5 l-51,37 c20,17,31,43,31,71 c0,36,-19,74,-52,103 Z M564,289 c-79,0,-140,89,-140,132 c0,46,68,127,151,127 c41,0,61,-20,61,-43 c0,-21,-16,-40,-48,-50 c-13,11,-30,18,-49,18 c-37,0,-60,-27,-60,-56 c0,-27,23,-57,63,-57 c21,0,42,9,57,21 c21,-10,34,-27,34,-43 c0,-23,-25,-49,-69,-49 Z M564,289" fill="rgb(0,0,0)" transform="matrix(1,0,0,-1,641,1091)"/>
</svg>