<?xml version="1.0" encoding="UTF-8"?>
<svg height="1521" version="1.1" width="2238.75" xmlns="http://www.w3.org/2000/svg" xmlns:xlink="http://www.w3.org/1999/xlink">
 <path d="M0,0 l2238.75,0 l0,1521 l-2238.75,0 Z M0,0" fill="rgb(255,255,255)" transform="matrix(1,0,0,-1,0,1521)"/>
 <path d="M0,0 l2238.75,0" fill="none" stroke="rgb(229,229,229)" stroke-width="10" transform="matrix(1,0,0,-1,0,1091)"/>
 <path d="M0,5 l0,-25" fill="none" stroke="rgb(204,204,204)" stroke-width="10" transform="matrix(1,0,0,-1,641,1091)"/>
 <path d="M0,5 l0,-25" fill="none" stroke="rgb(204,204,204)" stroke-width="10" transform="matrix(1,0,0,-1,1522,1091)"/>
 <path d="M628,144 c-1,-29,-2,-69,-2,-108 c0,-40,1,-83,3,-123 l62,-56 l6,3 c-2,50,-3,103,-3,150 c0,47,1,77,3,123 l-91,82 l-56,-19 l0,35 c0,24,0,56,-2,80 l5,2 c34,-69,104,-134,175,-134 c67,0,103,47,103,98 c0,39,-21,81,-56,112 c30,32,51,68,51,110 c0,63,-50,109,-115,109 c-69,0,-122,-53,-157,-118 l-2,1 l0,16 c0,67,-84,113,-130,113 c-69,0,-217,-101,-217,-213 c0,-51,42,-92,115,-92 c68,0,97,34,97,69 c0,40,-30,68,-68,68 c-11,0,-23,-3,-35,-8 l-2,1 c26,53,111,109,143,109 c10,0,17,-3,17,-35 c0,-17,-2,-60,-2,-118 c0,-104,4,-165,7,-194 l-3,-1 c-47,54,-98,67,-150,67 c-35,0,-84,-6,-115,-6 c-88,0,-126,38,-126,102 c0,28,7,61,25,91 l-23,15 l-9,0 c-25,-37,-41,-85,-41,-132 c0,-100,79,-161,188,-161 c44,0,110,12,159,12 c40,0,71,-4,93,-22 l0,-1 c-87,-33,-169,-70,-255,-111 l70,-87 c121,-21,191,-62,220,-118 l32,-15 l11,0 c-3,66,-3,109,-3,186 l0,90 Z M700,257 c-84,0,-151,93,-151,139 c0,48,75,136,163,136 c43,0,65,-22,65,-46 c0,-22,-18,-43,-51,-53 c-14,11,-32,19,-52,19 c-40,0,-64,-30,-64,-59 c0,-30,24,-61,67,-61 c22,0,44,9,60,22 c22,-10,36,-27,36,-46 c0,-23,-26,-51,-73,-51 Z M485,-67 l-2,-2 c-37,46,-104,82,-147,97 l-1,3 c44,21,92,42,140,60 c0,-58,3,-128,10,-158 Z M485,-67" fill="rgb(0,0,0)" transform="matrix(1,0,0,-1,641,1091)"/>
</svg>