<?xml version="1.0" encoding="UTF-8"?>
<svg height="1521" version="1.1" width="2238.75" xmlns="http://www.w3.org/2000/svg" xmlns:xlink="http://www.w3.org/1999/xlink">
 <path d="M0,0 l2238.75,0 l0,1521 l-2238.75,0 Z M0,0" fill="rgb(255,255,255)" transform="matrix(1,0,0,-1,0,1521)"/>
 <path d="M0,0 l2238.75,0" fill="none" stroke="rgb(229,229,229)" stroke-width="10" transform="matrix(1,0,0,-1,0,1091)"/>
 <path d="M0,5 l0,-25" fill="none" stroke="rgb(204,204,204)" stroke-width="10" transform="matrix(1,0,0,-1,641,1091)"/>
 <path d="M0,5 l0,-25" fill="none" stroke="rgb(204,204,204)" stroke-width="10" transform="matrix(1,0,0,-1,1594,1091)"/>
 <path d="M583,-6 c-3,76,-3,159,-3,185 l0,78 l4,0 c39,-85,98,-136,159,-152 l0,-217 l-4,-2 c-62,52,-117,61,-159,61 c-48,0,-105,-11,-154,-11 c-71,0,-104,25,-104,71 c0,14,3,29,9,47 l-21,13 l-9,0 c-15,-33,-22,-60,-22,-87 c0,-78,59,-124,163,-124 c56,0,133,14,199,14 c62,0,101,-12,124,-55 l28,-17 l11,0 c-6,115,-6,161,-6,168 l0,135 c67,6,105,59,105,114 c0,46,-28,90,-54,127 c30,37,51,81,51,125 c0,75,-59,126,-129,126 c-67,0,-143,-47,-187,-157 l-3,1 c0,4,1,38,1,48 c0,89,-81,135,-130,135 c-76,0,-243,-118,-243,-248 c0,-67,46,-115,116,-115 c65,0,93,43,93,83 c0,45,-34,74,-72,74 c-8,0,-17,-1,-25,-4 l-2,1 c26,69,128,143,166,143 c10,0,17,-4,17,-49 c0,-24,-2,-84,-2,-165 c0,-152,11,-213,16,-243 l-2,-1 c-52,59,-104,72,-160,72 c-40,0,-95,-6,-130,-6 c-103,0,-146,50,-146,136 c0,34,7,73,25,109 l-23,15 l-9,0 c-25,-42,-41,-96,-41,-149 c0,-122,87,-196,208,-196 c48,0,121,12,174,12 c66,0,106,-17,125,-76 l35,-19 Z M761,182 c-96,0,-182,104,-182,163 c0,67,109,169,200,169 c49,0,78,-30,78,-59 c0,-27,-24,-52,-55,-63 c-20,14,-39,22,-61,22 c-48,0,-73,-35,-73,-69 c0,-34,25,-68,73,-68 c24,0,46,9,71,29 c19,-13,37,-32,37,-56 c0,-33,-31,-68,-88,-68 Z M761,182" fill="rgb(0,0,0)" transform="matrix(1,0,0,-1,641,1091)"/>
</svg>