<?xml version="1.0" encoding="UTF-8"?>
<svg height="1521" version="1.1" width="2238.75" xmlns="http://www.w3.org/2000/svg" xmlns:xlink="http://www.w3.org/1999/xlink">
 <path d="M0,0 l2238.75,0 l0,1521 l-2238.75,0 Z M0,0" fill="rgb(255,255,255)" transform="matrix(1,0,0,-1,0,1521)"/>
 <path d="M0,0 l2238.75,0" fill="none" stroke="rgb(229,229,229)" stroke-width="10" transform="matrix(1,0,0,-1,0,1091)"/>
 <path d="M0,5 l0,-25" fill="none" stroke="rgb(204,204,204)" stroke-width="10" transform="matrix(1,0,0,-1,641,1091)"/>
 <path d="M0,5 l0,-25" fill="none" stroke="rgb(204,204,204)" stroke-width="10" transform="matrix(1,0,0,-1,1200,1091)"/>
 <path d="M47,896 c-20,-23,-28,-51,-28,-75 c0,-67,61,-127,176,-127 c45,0,107,10,145,10 c61,0,91,-22,91,-49 c0,-10,-4,-22,-14,-35 l-467,0 l0,-8 l60,-60 l136,0 l0,-327 c0,-66,81,-159,137,-159 c29,0,74,25,117,66 c40,-9,56,-32,56,-55 c0,-43,-54,-89,-150,-89 c-114,0,-207,66,-231,218 l-30,9 l-10,0 c20,-197,139,-309,289,-309 c109,0,177,58,177,148 c0,51,-24,82,-63,119 c39,49,70,110,70,171 c0,78,-48,128,-111,128 c-55,0,-84,-39,-84,-82 c0,-49,40,-75,81,-75 c8,0,16,1,23,3 c-16,-91,-120,-170,-163,-170 c-21,0,-30,19,-30,54 l0,350 l345,0 l0,8 l-60,60 l-30,0 c-6,91,-61,165,-182,165 c-39,0,-91,-9,-137,-9 c-65,0,-97,15,-97,54 c0,13,4,28,16,46 l-24,20 Z M47,896" fill="rgb(0,0,0)" transform="matrix(1,0,0,-1,641,1091)"/>
</svg>