<?xml version="1.0" encoding="UTF-8"?>
<svg height="1521" version="1.1" width="2238.75" xmlns="http://www.w3.org/2000/svg" xmlns:xlink="http://www.w3.org/1999/xlink">
 <path d="M0,0 l2238.75,0 l0,1521 l-2238.75,0 Z M0,0" fill="rgb(255,255,255)" transform="matrix(1,0,0,-1,0,1521)"/>
 <path d="M0,0 l2238.75,0" fill="none" stroke="rgb(229,229,229)" stroke-width="10" transform="matrix(1,0,0,-1,0,1091)"/>
 <path d="M0,5 l0,-25" fill="none" stroke="rgb(204,204,204)" stroke-width="10" transform="matrix(1,0,0,-1,641,1091)"/>
 <path d="M0,5 l0,-25" fill="none" stroke="rgb(204,204,204)" stroke-width="10" transform="matrix(1,0,0,-1,1207,1091)"/>
 <path d="M170,552 l0,-299 c0,-62,81,-146,134,-146 c31,0,80,28,124,72 c24,-11,34,-30,34,-48 c0,-40,-47,-83,-137,-83 c-108,0,-198,61,-221,199 l-28,8 l-10,0 c19,-184,132,-284,273,-284 c36,0,67,7,92,18 l0,-119 l-3,-2 c-46,46,-96,58,-139,58 c-23,0,-97,-4,-122,-4 c-69,0,-96,28,-96,79 c0,17,3,46,14,67 l-21,14 l-9,0 c-19,-29,-31,-69,-31,-106 c0,-66,40,-131,164,-131 c36,0,118,5,167,5 c47,0,82,-5,97,-49 l27,-17 l11,0 c-6,114,-7,179,-7,186 l0,62 c14,21,22,47,22,78 c0,44,-18,73,-47,103 c33,43,57,95,57,148 c0,73,-46,120,-105,120 c-52,0,-80,-38,-80,-79 c0,-48,36,-73,73,-73 c7,0,15,1,21,3 c-14,-81,-106,-147,-147,-147 c-19,0,-29,17,-29,50 l0,317 l328,0 l0,8 l-60,60 l-30,0 c-6,91,-61,165,-182,165 c-39,0,-81,-8,-127,-8 c-65,0,-97,15,-97,54 c0,13,4,28,16,46 l-24,20 l-8,0 c-20,-23,-28,-51,-28,-75 c0,-67,61,-127,176,-127 c45,0,97,9,135,9 c61,0,91,-22,91,-49 c0,-10,-4,-22,-14,-35 l-474,0 l0,-8 l60,-60 Z M170,552" fill="rgb(0,0,0)" transform="matrix(1,0,0,-1,641,1091)"/>
</svg>