<?xml version="1.0" encoding="UTF-8"?>
<svg height="1521" version="1.1" width="2238.75" xmlns="http://www.w3.org/2000/svg" xmlns:xlink="http://www.w3.org/1999/xlink">
 <path d="M0,0 l2238.75,0 l0,1521 l-2238.75,0 Z M0,0" fill="rgb(255,255,255)" transform="matrix(1,0,0,-1,0,1521)"/>
 <path d="M0,0 l2238.75,0" fill="none" stroke="rgb(229,229,229)" stroke-width="10" transform="matrix(1,0,0,-1,0,1091)"/>
 <path d="M0,5 l0,-25" fill="none" stroke="rgb(204,204,204)" stroke-width="10" transform="matrix(1,0,0,-1,641,1091)"/>
 <path d="M0,5 l0,-25" fill="none" stroke="rgb(204,204,204)" stroke-width="10" transform="matrix(1,0,0,-1,1173,1091)"/>
 <path d="M488,331 c0,82,-51,130,-113,130 c-57,0,-87,-40,-87,-81 c0,-40,28,-79,76,-79 c11,0,19,2,30,5 c-16,-100,-130,-190,-176,-190 c-21,0,-30,20,-30,57 l0,379 l354,0 l0,8 l-60,60 l-25,0 c-6,91,-60,165,-183,165 c-38,0,-95,-9,-141,-9 c-66,0,-98,15,-98,54 c0,13,4,28,16,46 l-24,20 l-8,0 c-20,-23,-28,-51,-28,-75 c0,-67,60,-127,177,-127 c45,0,111,10,150,10 c61,0,91,-22,91,-49 c0,-10,-4,-22,-14,-35 l-445,0 l0,-8 l60,-60 l97,0 l0,-353 c0,-39,27,-86,60,-120 c-49,-24,-101,-51,-155,-84 l69,-86 c114,-11,189,-62,217,-115 l25,-15 l10,0 c-3,65,-3,107,-3,156 l0,135 c74,54,158,158,158,261 Z M132,-30 l-1,3 c41,26,87,45,130,64 c0,-80,1,-137,9,-164 l-2,-2 c-38,48,-96,85,-136,99 Z M132,-30" fill="rgb(0,0,0)" transform="matrix(1,0,0,-1,641,1091)"/>
</svg>