<?xml version="1.0" encoding="UTF-8"?>
<svg height="1521" version="1.1" width="2238.75" xmlns="http://www.w3.org/2000/svg" xmlns:xlink="http://www.w3.org/1999/xlink">
 <path d="M0,0 l2238.75,0 l0,1521 l-2238.75,0 Z M0,0" fill="rgb(255,255,255)" transform="matrix(1,0,0,-1,0,1521)"/>
 <path d="M0,0 l2238.75,0" fill="none" stroke="rgb(229,229,229)" stroke-width="10" transform="matrix(1,0,0,-1,0,1091)"/>
 <path d="M0,5 l0,-25" fill="none" stroke="rgb(204,204,204)" stroke-width="10" transform="matrix(1,0,0,-1,641,1091)"/>
 <path d="M0,5 l0,-25" fill="none" stroke="rgb(204,204,204)" stroke-width="10" transform="matrix(1,0,0,-1,1379,1091)"/>
 <path d="M630,-75 l27,-17 l11,0 c-4,101,-5,164,-5,240 l0,404 l85,0 l0,8 l-60,60 l-287,0 c-6,91,-58,163,-181,163 c-36,0,-79,-6,-122,-6 c-66,0,-93,15,-93,53 c0,14,4,28,16,47 l-24,20 l-8,0 c-20,-23,-28,-50,-28,-76 c0,-66,56,-126,173,-126 c41,0,93,7,130,7 c61,0,89,-20,89,-47 c0,-10,-4,-22,-14,-35 l-389,0 l0,-8 l60,-60 l75,0 l0,-294 c0,-62,80,-143,133,-143 c40,0,111,45,158,111 c46,-10,71,-37,78,-66 c-6,1,-13,1,-19,1 c-56,0,-94,-33,-94,-80 c0,-52,43,-79,85,-79 c40,0,81,24,91,77 c73,-37,100,-113,113,-154 Z M426,364 c0,73,-46,117,-103,117 c-54,0,-81,-38,-81,-79 c0,-48,36,-73,73,-73 c7,0,16,1,22,3 c-14,-81,-105,-142,-144,-142 c-21,0,-30,17,-30,50 l0,312 l421,0 l0,-197 c0,-146,0,-233,8,-282 l-3,-2 c-9,12,-35,45,-74,68 c-9,42,-38,98,-117,122 c17,32,28,67,28,103 Z M426,364" fill="rgb(0,0,0)" transform="matrix(1,0,0,-1,641,1091)"/>
</svg>