<?xml version="1.0" encoding="UTF-8"?>
<svg height="1521" version="1.1" width="2238.75" xmlns="http://www.w3.org/2000/svg" xmlns:xlink="http://www.w3.org/1999/xlink">
 <path d="M0,0 l2238.75,0 l0,1521 l-2238.75,0 Z M0,0" fill="rgb(255,255,255)" transform="matrix(1,0,0,-1,0,1521)"/>
 <path d="M0,0 l2238.75,0" fill="none" stroke="rgb(229,229,229)" stroke-width="10" transform="matrix(1,0,0,-1,0,1091)"/>
 <path d="M0,5 l0,-25" fill="none" stroke="rgb(204,204,204)" stroke-width="10" transform="matrix(1,0,0,-1,641,1091)"/>
 <path d="M0,5 l0,-25" fill="none" stroke="rgb(204,204,204)" stroke-width="10" transform="matrix(1,0,0,-1,1260,1091)"/>
 <path d="M10,552 l354,0 c0,-6,1,-12,1,-19 c0,-111,-82,-222,-191,-245 c-7,-21,-10,-45,-10,-64 c0,-92,69,-180,182,-180 c38,0,72,9,102,26 l0,-145 l-4,-2 c-51,54,-113,69,-167,69 c-19,0,-80,-4,-103,-4 c-63,0,-92,23,-92,80 c0,17,3,45,15,66 l-22,14 l-9,0 c-19,-29,-31,-68,-31,-105 c0,-71,41,-138,154,-138 c36,0,112,8,155,8 c64,0,108,-12,127,-78 l28,-17 l11,0 c-6,115,-7,181,-7,188 l0,111 c34,42,54,97,54,159 c0,106,-61,200,-116,276 l188,0 l0,8 l-60,60 l-178,0 c-55,75,-97,141,-97,197 c0,39,23,58,58,58 c8,0,17,-1,27,-4 l6,6 c-15,46,-46,59,-76,59 c-45,0,-79,-32,-79,-87 c0,-78,66,-164,106,-229 l-386,0 l0,-8 Z M414,523 c41,-58,73,-136,73,-218 c0,-151,-105,-201,-168,-201 c-52,0,-91,37,-91,91 c0,1,0,11,2,17 c115,38,190,130,190,242 c0,23,-2,44,-9,68 Z M414,523" fill="rgb(0,0,0)" transform="matrix(1,0,0,-1,641,1091)"/>
</svg>