<?xml version="1.0" encoding="UTF-8"?>
<svg height="1521" version="1.1" width="2238.75" xmlns="http://www.w3.org/2000/svg" xmlns:xlink="http://www.w3.org/1999/xlink">
 <path d="M0,0 l2238.75,0 l0,1521 l-2238.75,0 Z M0,0" fill="rgb(255,255,255)" transform="matrix(1,0,0,-1,0,1521)"/>
 <path d="M0,0 l2238.75,0" fill="none" stroke="rgb(229,229,229)" stroke-width="10" transform="matrix(1,0,0,-1,0,1091)"/>
 <path d="M0,5 l0,-25" fill="none" stroke="rgb(204,204,204)" stroke-width="10" transform="matrix(1,0,0,-1,641,1091)"/>
 <path d="M0,5 l0,-25" fill="none" stroke="rgb(204,204,204)" stroke-width="10" transform="matrix(1,0,0,-1,1704,1091)"/>
 <path d="M552,340 c4,-2,9,-3,14,-3 c8,0,16,2,21,6 c80,57,129,57,131,57 c22,0,32,-12,32,-32 c0,-33,-31,-88,-131,-161 l75,-94 c89,79,123,150,123,209 c0,71,-46,127,-123,127 c-23,0,-55,-5,-85,-14 c4,49,58,109,134,109 c143,0,169,-188,169,-239 c0,-33,-1,-217,-1,-295 l68,-53 l11,0 l-8,595 l91,0 l0,8 l-60,60 l-100,0 l0,-12 c0,-58,0,-104,6,-155 l-4,-1 c-34,74,-96,168,-211,168 c-110,0,-198,-85,-198,-184 l-3,-1 c-15,19,-35,34,-55,45 l-5,-1 c-43,-60,-106,-111,-135,-111 c-13,0,-17,9,-17,27 l0,157 l203,0 l0,8 l-60,60 l-484,0 l0,-8 l60,-60 l202,0 l0,-131 c0,-66,76,-134,123,-134 c35,0,92,38,140,94 c22,-15,33,-38,33,-64 c0,-61,-68,-135,-174,-135 c-124,0,-210,97,-260,328 l-30,9 l-10,0 c50,-331,177,-428,312,-428 c140,0,210,100,210,202 c0,14,-1,29,-6,46 Z M552,340" fill="rgb(0,0,0)" transform="matrix(1,0,0,-1,641,1091)"/>
</svg>