<?xml version="1.0" encoding="UTF-8"?>
<svg height="1521" version="1.1" width="2238.75" xmlns="http://www.w3.org/2000/svg" xmlns:xlink="http://www.w3.org/1999/xlink">
 <path d="M0,0 l2238.75,0 l0,1521 l-2238.75,0 Z M0,0" fill="rgb(255,255,255)" transform="matrix(1,0,0,-1,0,1521)"/>
 <path d="M0,0 l2238.75,0" fill="none" stroke="rgb(229,229,229)" stroke-width="10" transform="matrix(1,0,0,-1,0,1091)"/>
 <path d="M0,5 l0,-25" fill="none" stroke="rgb(204,204,204)" stroke-width="10" transform="matrix(1,0,0,-1,641,1091)"/>
 <path d="M0,5 l0,-25" fill="none" stroke="rgb(204,204,204)" stroke-width="10" transform="matrix(1,0,0,-1,1706,1091)"/>
 <path d="M-50,620 l0,-8 l60,-60 l202,0 l0,-131 c0,-66,76,-134,123,-134 c35,0,92,38,140,94 c22,-15,33,-38,33,-64 c0,-61,-68,-135,-174,-135 c-124,0,-210,97,-260,328 l-30,9 l-10,0 c50,-331,177,-428,312,-428 c100,0,174,53,201,140 l2,0 c63,-144,154,-193,252,-193 c132,0,215,89,215,217 c0,83,-35,152,-108,196 l-5,-1 c-46,-67,-111,-122,-142,-122 c-13,0,-17,9,-17,27 l0,197 l331,0 l0,8 l-60,60 Z M665,552 l0,-171 c0,-66,76,-134,123,-134 c37,0,96,41,147,105 c22,-17,32,-45,32,-72 c0,-70,-68,-149,-178,-149 c-148,0,-209,139,-243,235 c-7,18,-27,73,-98,114 l-5,-1 c-43,-60,-106,-111,-135,-111 c-13,0,-17,9,-17,27 l0,157 Z M665,552" fill="rgb(0,0,0)" transform="matrix(1,0,0,-1,641,1091)"/>
</svg>