<?xml version="1.0" encoding="UTF-8"?>
<svg height="1521" version="1.1" width="2238.75" xmlns="http://www.w3.org/2000/svg" xmlns:xlink="http://www.w3.org/1999/xlink">
 <path d="M0,0 l2238.75,0 l0,1521 l-2238.75,0 Z M0,0" fill="rgb(255,255,255)" transform="matrix(1,0,0,-1,0,1521)"/>
 <path d="M0,0 l2238.75,0" fill="none" stroke="rgb(229,229,229)" stroke-width="10" transform="matrix(1,0,0,-1,0,1091)"/>
 <path d="M0,5 l0,-25" fill="none" stroke="rgb(204,204,204)" stroke-width="10" transform="matrix(1,0,0,-1,641,1091)"/>
 <path d="M0,5 l0,-25" fill="none" stroke="rgb(204,204,204)" stroke-width="10" transform="matrix(1,0,0,-1,1247,1091)"/>
 <path d="M443,479 c-43,-60,-106,-111,-135,-111 c-13,0,-17,9,-17,27 l0,157 l325,0 l0,8 l-60,60 l-606,0 l0,-8 l60,-60 l202,0 l0,-131 c0,-66,76,-134,123,-134 c35,0,92,38,140,94 c22,-15,33,-39,33,-63 c0,-63,-67,-136,-175,-136 c-123,0,-209,98,-259,328 l-30,9 l-10,0 c39,-254,123,-371,224,-408 l0,-3 c-42,-21,-87,-46,-132,-73 l69,-86 c114,-11,189,-62,217,-115 l25,-15 l10,0 c-3,65,-3,107,-3,156 l0,137 c74,34,112,107,112,179 c0,76,-41,153,-108,189 Z M246,10 l-1,3 c41,26,87,47,130,66 c0,-80,1,-139,9,-166 l-2,-2 c-38,48,-96,85,-136,99 Z M246,10" fill="rgb(0,0,0)" transform="matrix(1,0,0,-1,641,1091)"/>
</svg>