<?xml version="1.0" encoding="UTF-8"?>
<svg height="1521" version="1.1" width="2238.75" xmlns="http://www.w3.org/2000/svg" xmlns:xlink="http://www.w3.org/1999/xlink">
 <path d="M0,0 l2238.75,0 l0,1521 l-2238.75,0 Z M0,0" fill="rgb(255,255,255)" transform="matrix(1,0,0,-1,0,1521)"/>
 <path d="M0,0 l2238.75,0" fill="none" stroke="rgb(229,229,229)" stroke-width="10" transform="matrix(1,0,0,-1,0,1091)"/>
 <path d="M0,5 l0,-25" fill="none" stroke="rgb(204,204,204)" stroke-width="10" transform="matrix(1,0,0,-1,641,1091)"/>
 <path d="M0,5 l0,-25" fill="none" stroke="rgb(204,204,204)" stroke-width="10" transform="matrix(1,0,0,-1,1399,1091)"/>
 <path d="M-50,612 l60,-60 l176,0 l0,-112 c0,-57,71,-116,112,-116 c31,0,79,34,121,89 c19,-13,29,-34,29,-57 c0,-53,-57,-118,-151,-118 c-105,0,-180,82,-223,272 l-30,9 l-10,0 c44,-286,156,-369,275,-369 c52,0,93,15,123,40 c26,-13,40,-34,46,-55 c-5,1,-10,1,-15,1 c-56,0,-91,-33,-91,-77 c0,-44,33,-77,81,-77 c40,0,79,22,88,72 c71,-35,96,-109,109,-149 l27,-17 l11,0 c-4,101,-5,165,-5,241 l0,423 l85,0 l0,8 l-60,60 l-758,0 Z M265,552 l339,0 l0,-216 c0,-146,0,-234,8,-283 l-3,-2 c-5,6,-30,41,-71,64 c-8,34,-28,77,-79,105 c23,32,35,71,35,110 c0,73,-40,150,-101,181 l-5,-1 c-37,-58,-93,-107,-114,-107 c-8,0,-9,7,-9,22 Z M265,552" fill="rgb(0,0,0)" transform="matrix(1,0,0,-1,641,1091)"/>
</svg>