<?xml version="1.0" encoding="UTF-8"?>
<svg height="1521" version="1.1" width="2238.75" xmlns="http://www.w3.org/2000/svg" xmlns:xlink="http://www.w3.org/1999/xlink">
 <path d="M0,0 l2238.75,0 l0,1521 l-2238.75,0 Z M0,0" fill="rgb(255,255,255)" transform="matrix(1,0,0,-1,0,1521)"/>
 <path d="M0,0 l2238.75,0" fill="none" stroke="rgb(229,229,229)" stroke-width="10" transform="matrix(1,0,0,-1,0,1091)"/>
 <path d="M0,5 l0,-25" fill="none" stroke="rgb(204,204,204)" stroke-width="10" transform="matrix(1,0,0,-1,641,1091)"/>
 <path d="M0,5 l0,-25" fill="none" stroke="rgb(204,204,204)" stroke-width="10" transform="matrix(1,0,0,-1,1322,1091)"/>
 <path d="M-50,620 l0,-8 l60,-60 l260,0 l0,-167 c0,-60,76,-123,123,-123 c39,0,103,47,156,117 c22,-18,32,-47,32,-75 c0,-69,-70,-143,-190,-143 c-138,0,-240,101,-296,339 l-30,9 l-10,0 c55,-339,197,-440,351,-440 c40,0,76,7,106,20 l0,-144 l-4,-2 c-53,54,-117,69,-173,69 c-24,0,-90,-3,-120,-3 c-80,0,-114,26,-114,83 c0,17,3,45,15,66 l-22,14 l-9,0 c-19,-29,-31,-68,-31,-105 c0,-71,45,-141,178,-141 c42,0,119,7,170,7 c67,0,113,-12,133,-78 l28,-17 l11,0 c-6,115,-7,181,-7,188 l0,98 c41,38,63,92,63,156 c0,82,-35,153,-108,198 l-5,-1 c-48,-72,-118,-134,-151,-134 c-13,0,-17,8,-17,24 l0,185 l342,0 l0,8 l-60,60 Z M-50,620" fill="rgb(0,0,0)" transform="matrix(1,0,0,-1,641,1091)"/>
</svg>