<?xml version="1.0" encoding="UTF-8"?>
<svg height="1521" version="1.1" width="2238.75" xmlns="http://www.w3.org/2000/svg" xmlns:xlink="http://www.w3.org/1999/xlink">
 <path d="M0,0 l2238.75,0 l0,1521 l-2238.75,0 Z M0,0" fill="rgb(255,255,255)" transform="matrix(1,0,0,-1,0,1521)"/>
 <path d="M0,0 l2238.75,0" fill="none" stroke="rgb(229,229,229)" stroke-width="10" transform="matrix(1,0,0,-1,0,1091)"/>
 <path d="M0,5 l0,-25" fill="none" stroke="rgb(204,204,204)" stroke-width="10" transform="matrix(1,0,0,-1,641,1091)"/>
 <path d="M0,5 l0,-25" fill="none" stroke="rgb(204,204,204)" stroke-width="10" transform="matrix(1,0,0,-1,1225,1091)"/>
 <path d="M-50,620 l0,-8 l60,-60 l161,0 l0,-327 c0,-66,81,-159,137,-159 c31,0,81,29,127,75 l0,-196 l-4,-2 c-51,54,-113,70,-167,70 c-19,0,-70,-3,-93,-3 c-63,0,-89,22,-89,79 c0,17,3,45,15,66 l-22,14 l-9,0 c-19,-29,-31,-68,-31,-105 c0,-71,38,-138,151,-138 c36,0,102,7,145,7 c64,0,108,-12,127,-78 l28,-17 l11,0 c-6,115,-7,181,-7,188 l0,184 c25,41,43,88,43,134 c0,78,-48,128,-111,128 c-55,0,-84,-39,-84,-82 c0,-49,40,-75,81,-75 c8,0,16,1,23,3 c-16,-91,-120,-170,-163,-170 c-21,0,-30,19,-30,54 l0,350 l345,0 l0,8 l-60,60 Z M-50,620" fill="rgb(0,0,0)" transform="matrix(1,0,0,-1,641,1091)"/>
</svg>