<?xml version="1.0" encoding="UTF-8"?>
<svg height="1521" version="1.1" width="2238.75" xmlns="http://www.w3.org/2000/svg" xmlns:xlink="http://www.w3.org/1999/xlink">
 <path d="M0,0 l2238.75,0 l0,1521 l-2238.75,0 Z M0,0" fill="rgb(255,255,255)" transform="matrix(1,0,0,-1,0,1521)"/>
 <path d="M0,0 l2238.75,0" fill="none" stroke="rgb(229,229,229)" stroke-width="10" transform="matrix(1,0,0,-1,0,1091)"/>
 <path d="M0,5 l0,-25" fill="none" stroke="rgb(204,204,204)" stroke-width="10" transform="matrix(1,0,0,-1,641,1091)"/>
 <path d="M0,5 l0,-25" fill="none" stroke="rgb(204,204,204)" stroke-width="10" transform="matrix(1,0,0,-1,1437,1091)"/>
 <path d="M281,896 c-20,-23,-28,-51,-28,-75 c0,-67,60,-127,177,-127 c45,0,113,10,152,10 c61,0,91,-22,91,-49 c0,-10,-4,-22,-14,-35 l-286,0 l0,-13 c0,-80,1,-121,8,-162 l-2,-1 c-43,102,-101,147,-180,147 c-95,0,-169,-64,-169,-164 c0,-96,71,-161,157,-161 c57,0,109,29,109,89 c0,52,-38,76,-75,76 c-36,0,-71,-23,-71,-63 c0,-17,6,-32,23,-46 l-1,-3 c-47,3,-70,48,-70,87 c0,55,44,104,121,104 c85,0,149,-60,149,-189 l0,-132 c0,-69,81,-167,137,-167 c71,0,243,153,243,299 c0,82,-53,132,-115,132 c-57,0,-87,-42,-87,-83 c0,-40,28,-79,76,-79 c11,0,19,2,30,5 c-16,-100,-130,-190,-176,-190 c-21,0,-30,20,-30,57 l0,389 l356,0 l0,8 l-60,60 l-25,0 c-6,91,-60,165,-183,165 c-38,0,-97,-9,-143,-9 c-66,0,-98,15,-98,54 c0,13,4,28,16,46 l-24,20 Z M281,896" fill="rgb(0,0,0)" transform="matrix(1,0,0,-1,641,1091)"/>
</svg>