<?xml version="1.0" encoding="UTF-8"?>
<svg height="1521" version="1.1" width="2238.75" xmlns="http://www.w3.org/2000/svg" xmlns:xlink="http://www.w3.org/1999/xlink">
 <path d="M0,0 l2238.75,0 l0,1521 l-2238.75,0 Z M0,0" fill="rgb(255,255,255)" transform="matrix(1,0,0,-1,0,1521)"/>
 <path d="M0,0 l2238.75,0" fill="none" stroke="rgb(229,229,229)" stroke-width="10" transform="matrix(1,0,0,-1,0,1091)"/>
 <path d="M0,5 l0,-25" fill="none" stroke="rgb(204,204,204)" stroke-width="10" transform="matrix(1,0,0,-1,641,1091)"/>
 <path d="M0,5 l0,-25" fill="none" stroke="rgb(204,204,204)" stroke-width="10" transform="matrix(1,0,0,-1,1276,1091)"/>
 <path d="M398,877 c-15,46,-46,59,-76,59 c-45,0,-79,-32,-79,-87 c0,-91,93,-200,124,-260 c11,-22,17,-46,18,-75 c0,-13,-1,-25,-4,-40 l-4,-1 c-36,94,-105,148,-189,148 c-86,0,-158,-59,-158,-144 c0,-82,69,-137,154,-137 c74,0,106,41,106,80 c0,35,-26,69,-69,69 c-40,0,-65,-27,-65,-57 c0,-13,5,-26,16,-38 l-1,-3 c-49,2,-69,34,-69,67 c0,47,41,88,112,88 c93,0,141,-72,141,-125 c0,-72,-85,-159,-205,-180 c-7,-21,-10,-46,-10,-64 c0,-89,77,-173,201,-173 c138,0,236,103,236,244 c0,116,-67,225,-124,304 l192,0 l0,8 l-60,60 l-182,0 c-54,74,-96,143,-96,197 c0,39,23,58,58,58 c8,0,17,-1,27,-4 Z M432,513 c41,-62,75,-150,75,-238 c0,-162,-115,-211,-193,-211 c-62,0,-109,32,-109,82 c0,1,0,10,2,16 c148,37,232,148,232,275 c0,24,-3,49,-10,75 Z M432,513" fill="rgb(0,0,0)" transform="matrix(1,0,0,-1,641,1091)"/>
</svg>