<?xml version="1.0" encoding="UTF-8"?>
<svg height="1521" version="1.1" width="2238.75" xmlns="http://www.w3.org/2000/svg" xmlns:xlink="http://www.w3.org/1999/xlink">
 <path d="M0,0 l2238.75,0 l0,1521 l-2238.75,0 Z M0,0" fill="rgb(255,255,255)" transform="matrix(1,0,0,-1,0,1521)"/>
 <path d="M0,0 l2238.75,0" fill="none" stroke="rgb(229,229,229)" stroke-width="10" transform="matrix(1,0,0,-1,0,1091)"/>
 <path d="M0,5 l0,-25" fill="none" stroke="rgb(204,204,204)" stroke-width="10" transform="matrix(1,0,0,-1,641,1091)"/>
 <path d="M0,5 l0,-25" fill="none" stroke="rgb(204,204,204)" stroke-width="10" transform="matrix(1,0,0,-1,1291,1091)"/>
 <path d="M418,877 c-15,46,-46,59,-76,59 c-45,0,-79,-32,-79,-87 c0,-92,95,-203,124,-260 c11,-22,18,-46,18,-76 c0,-12,-1,-25,-4,-39 l-4,-1 c-35,94,-103,148,-183,148 c-84,0,-152,-58,-152,-142 c0,-84,66,-139,149,-139 c73,0,104,41,104,80 c0,35,-26,69,-69,69 c-38,0,-64,-28,-64,-58 c0,-13,5,-26,15,-37 l-1,-3 c-46,2,-62,36,-62,67 c0,48,37,88,105,88 c90,0,136,-73,136,-122 c0,-66,-77,-140,-194,-159 c-7,-20,-10,-44,-10,-61 c0,-83,73,-160,193,-160 c42,0,81,9,114,27 l0,-146 l-4,-2 c-50,54,-116,69,-163,69 c-29,0,-110,-5,-139,-5 c-61,0,-90,24,-90,79 c0,18,3,46,15,67 l-22,14 l-9,0 c-19,-29,-31,-67,-31,-106 c0,-70,43,-137,152,-137 c42,0,140,9,190,9 c61,0,106,-13,124,-78 l28,-17 l11,0 c-6,115,-7,181,-7,188 l0,108 c35,39,56,92,56,154 c0,107,-63,210,-116,284 l187,0 l0,8 l-60,60 l-177,0 c-54,74,-96,143,-96,197 c0,39,23,58,58,58 c8,0,17,-1,27,-4 Z M452,513 c37,-57,67,-140,67,-217 c0,-148,-108,-192,-181,-192 c-59,0,-102,29,-102,74 c0,1,0,9,2,14 c141,34,220,133,220,253 c0,19,-2,44,-9,67 Z M452,513" fill="rgb(0,0,0)" transform="matrix(1,0,0,-1,641,1091)"/>
</svg>