<?xml version="1.0" encoding="UTF-8"?>
<svg height="1521" version="1.1" width="2238.75" xmlns="http://www.w3.org/2000/svg" xmlns:xlink="http://www.w3.org/1999/xlink">
 <path d="M0,0 l2238.75,0 l0,1521 l-2238.75,0 Z M0,0" fill="rgb(255,255,255)" transform="matrix(1,0,0,-1,0,1521)"/>
 <path d="M0,0 l2238.75,0" fill="none" stroke="rgb(229,229,229)" stroke-width="10" transform="matrix(1,0,0,-1,0,1091)"/>
 <path d="M0,5 l0,-25" fill="none" stroke="rgb(204,204,204)" stroke-width="10" transform="matrix(1,0,0,-1,641,1091)"/>
 <path d="M0,5 l0,-25" fill="none" stroke="rgb(204,204,204)" stroke-width="10" transform="matrix(1,0,0,-1,1398,1091)"/>
 <path d="M20,524 c95,-367,288,-518,477,-518 c127,0,183,70,183,148 c0,35,-12,74,-39,113 c26,19,49,52,49,97 c0,58,-37,98,-83,150 c-20,23,-68,72,-70,109 l-25,10 c-9,-44,-18,-85,-30,-118 l-3,0 c-42,74,-94,105,-161,105 c-94,0,-166,-60,-166,-151 c0,-90,71,-150,156,-150 c54,0,103,25,103,82 c0,47,-34,68,-68,68 c-40,0,-65,-27,-65,-58 c0,-14,5,-30,17,-43 l-1,-3 c-47,3,-70,44,-70,81 c0,51,43,96,117,96 c88,0,143,-62,161,-143 l24,-10 c15,38,28,75,40,119 c38,-38,53,-71,53,-105 c0,-28,-11,-50,-37,-69 c-15,9,-31,14,-48,14 c-38,0,-68,-26,-68,-66 c0,-43,37,-67,75,-67 c23,0,46,9,64,25 c15,-17,21,-35,21,-51 c0,-49,-51,-87,-146,-87 c-154,0,-323,106,-420,413 l-30,9 Z M20,524" fill="rgb(0,0,0)" transform="matrix(1,0,0,-1,641,1091)"/>
</svg>