<?xml version="1.0" encoding="UTF-8"?>
<svg height="1521" version="1.1" width="2238.75" xmlns="http://www.w3.org/2000/svg" xmlns:xlink="http://www.w3.org/1999/xlink">
 <path d="M0,0 l2238.75,0 l0,1521 l-2238.75,0 Z M0,0" fill="rgb(255,255,255)" transform="matrix(1,0,0,-1,0,1521)"/>
 <path d="M0,0 l2238.75,0" fill="none" stroke="rgb(229,229,229)" stroke-width="10" transform="matrix(1,0,0,-1,0,1091)"/>
 <path d="M0,5 l0,-25" fill="none" stroke="rgb(204,204,204)" stroke-width="10" transform="matrix(1,0,0,-1,641,1091)"/>
 <path d="M0,5 l0,-25" fill="none" stroke="rgb(204,204,204)" stroke-width="10" transform="matrix(1,0,0,-1,1403,1091)"/>
 <path d="M30,524 c95,-362,289,-500,475,-500 c17,0,33,1,48,3 l0,-126 l-4,-2 c-53,54,-117,67,-172,67 c-25,0,-104,-3,-130,-3 c-83,0,-116,29,-116,86 c0,17,3,45,15,66 l-22,14 l-9,0 c-19,-29,-31,-68,-31,-105 c0,-71,45,-142,178,-142 c43,0,127,7,184,7 c64,0,111,-9,130,-74 l28,-17 l11,0 c-6,115,-7,181,-7,188 l0,57 c56,25,82,72,82,123 c0,34,-12,71,-39,109 c26,19,49,50,49,96 c0,47,-27,84,-84,145 c-33,35,-65,71,-69,107 l-25,10 c-9,-44,-18,-85,-30,-118 l-3,0 c-42,74,-94,105,-161,105 c-92,0,-164,-59,-164,-148 c0,-89,72,-148,155,-148 c54,0,103,25,103,81 c0,46,-34,67,-68,67 c-39,0,-63,-26,-63,-57 c0,-14,4,-29,16,-42 l-1,-3 c-47,3,-70,43,-70,79 c0,49,42,93,116,93 c88,0,144,-60,162,-138 l24,-10 c14,36,27,72,38,114 c38,-37,53,-67,53,-100 c0,-27,-11,-49,-38,-67 c-14,9,-31,14,-47,14 c-38,0,-68,-26,-68,-66 c0,-43,37,-67,75,-67 c23,0,46,9,64,24 c15,-15,21,-32,21,-47 c0,-47,-51,-83,-146,-83 c-154,0,-323,94,-420,399 l-30,9 Z M30,524" fill="rgb(0,0,0)" transform="matrix(1,0,0,-1,641,1091)"/>
</svg>