<?xml version="1.0" encoding="UTF-8"?>
<svg height="1521" version="1.1" width="2238.75" xmlns="http://www.w3.org/2000/svg" xmlns:xlink="http://www.w3.org/1999/xlink">
 <path d="M0,0 l2238.75,0 l0,1521 l-2238.75,0 Z M0,0" fill="rgb(255,255,255)" transform="matrix(1,0,0,-1,0,1521)"/>
 <path d="M0,0 l2238.75,0" fill="none" stroke="rgb(229,229,229)" stroke-width="10" transform="matrix(1,0,0,-1,0,1091)"/>
 <path d="M0,5 l0,-25" fill="none" stroke="rgb(204,204,204)" stroke-width="10" transform="matrix(1,0,0,-1,641,1091)"/>
 <path d="M0,5 l0,-25" fill="none" stroke="rgb(204,204,204)" stroke-width="10" transform="matrix(1,0,0,-1,1227,1091)"/>
 <path d="M471,-59 l31,-19 l12,0 c-4,101,-5,168,-5,244 l0,386 l87,0 l0,8 l-60,60 l-107,0 l0,-13 c0,-80,1,-123,8,-164 l-2,-1 c-47,122,-119,178,-206,178 c-99,0,-179,-73,-179,-171 c0,-87,61,-145,143,-159 l0,-3 c-67,-23,-107,-82,-107,-151 c0,-96,80,-157,174,-157 c84,0,117,47,117,92 c0,39,-27,78,-73,78 c-43,0,-67,-33,-67,-65 c0,-19,8,-39,26,-51 l-1,-2 c-76,1,-97,50,-97,90 c0,54,37,104,112,104 c107,0,164,-94,194,-284 Z M447,151 l-3,-1 c-33,81,-86,130,-147,143 l0,3 c42,14,60,47,60,79 c0,41,-29,79,-78,79 c-46,0,-70,-32,-70,-64 c0,-19,8,-39,25,-52 l-1,-3 c-78,1,-102,54,-102,97 c0,57,44,107,121,107 c99,0,176,-86,178,-266 c0,-38,2,-73,17,-122 Z M447,151" fill="rgb(0,0,0)" transform="matrix(1,0,0,-1,641,1091)"/>
</svg>