<?xml version="1.0" encoding="UTF-8"?>
<svg height="1521" version="1.1" width="2238.75" xmlns="http://www.w3.org/2000/svg" xmlns:xlink="http://www.w3.org/1999/xlink">
 <path d="M0,0 l2238.75,0 l0,1521 l-2238.75,0 Z M0,0" fill="rgb(255,255,255)" transform="matrix(1,0,0,-1,0,1521)"/>
 <path d="M0,0 l2238.75,0" fill="none" stroke="rgb(229,229,229)" stroke-width="10" transform="matrix(1,0,0,-1,0,1091)"/>
 <path d="M0,5 l0,-25" fill="none" stroke="rgb(204,204,204)" stroke-width="10" transform="matrix(1,0,0,-1,641,1091)"/>
 <path d="M0,5 l0,-25" fill="none" stroke="rgb(204,204,204)" stroke-width="10" transform="matrix(1,0,0,-1,1215,1091)"/>
 <path d="M495,552 l89,0 l0,8 l-60,60 l-103,0 l0,-13 c0,-80,1,-123,8,-164 l-2,-1 c-47,123,-109,178,-197,178 c-99,0,-185,-68,-185,-181 c0,-107,78,-177,168,-177 c57,0,107,29,107,89 c0,44,-29,78,-76,78 c-47,0,-70,-32,-70,-63 c0,-19,9,-36,25,-48 l-1,-3 c-50,4,-76,57,-76,103 c0,66,53,121,131,121 c92,0,155,-78,165,-215 c-81,-39,-188,-94,-286,-156 l74,-92 c133,-13,223,-79,260,-152 l28,-17 l11,0 c-4,82,-7,129,-7,243 Z M256,142 l-1,3 c50,32,115,65,166,88 c0,-97,5,-178,14,-210 l-3,-2 c-45,56,-121,102,-176,121 Z M256,142" fill="rgb(0,0,0)" transform="matrix(1,0,0,-1,641,1091)"/>
</svg>