<?xml version="1.0" encoding="UTF-8"?>
<svg height="1521" version="1.1" width="2238.75" xmlns="http://www.w3.org/2000/svg" xmlns:xlink="http://www.w3.org/1999/xlink">
 <path d="M0,0 l2238.75,0 l0,1521 l-2238.75,0 Z M0,0" fill="rgb(255,255,255)" transform="matrix(1,0,0,-1,0,1521)"/>
 <path d="M0,0 l2238.75,0" fill="none" stroke="rgb(229,229,229)" stroke-width="10" transform="matrix(1,0,0,-1,0,1091)"/>
 <path d="M0,5 l0,-25" fill="none" stroke="rgb(204,204,204)" stroke-width="10" transform="matrix(1,0,0,-1,641,1091)"/>
 <path d="M0,5 l0,-25" fill="none" stroke="rgb(204,204,204)" stroke-width="10" transform="matrix(1,0,0,-1,1368,1091)"/>
 <path d="M388,620 l0,-12 c0,-58,0,-104,6,-155 l-1,0 c-43,100,-111,155,-189,155 c-95,0,-169,-64,-169,-164 c0,-96,71,-161,157,-161 c57,0,109,29,109,89 c0,52,-38,76,-75,76 c-36,0,-71,-23,-71,-63 c0,-17,6,-32,23,-46 l-1,-3 c-47,3,-70,48,-70,87 c0,55,44,104,121,104 c84,0,157,-56,176,-305 c-19,5,-35,6,-44,6 c-66,0,-99,-43,-99,-88 c0,-49,40,-88,95,-88 c40,0,82,20,100,77 c93,-19,141,-111,163,-175 l27,-17 l11,0 c-4,101,-5,165,-5,241 l0,374 l85,0 l0,8 l-60,60 Z M578,103 c-42,46,-80,75,-113,94 c-4,48,-5,110,-5,193 l0,162 l113,0 l0,-167 c0,-146,0,-231,8,-280 Z M578,103" fill="rgb(0,0,0)" transform="matrix(1,0,0,-1,641,1091)"/>
</svg>