<?xml version="1.0" encoding="UTF-8"?>
<svg height="1521" version="1.1" width="2238.75" xmlns="http://www.w3.org/2000/svg" xmlns:xlink="http://www.w3.org/1999/xlink">
 <path d="M0,0 l2238.75,0 l0,1521 l-2238.75,0 Z M0,0" fill="rgb(255,255,255)" transform="matrix(1,0,0,-1,0,1521)"/>
 <path d="M0,0 l2238.75,0" fill="none" stroke="rgb(229,229,229)" stroke-width="10" transform="matrix(1,0,0,-1,0,1091)"/>
 <path d="M0,5 l0,-25" fill="none" stroke="rgb(204,204,204)" stroke-width="10" transform="matrix(1,0,0,-1,641,1091)"/>
 <path d="M0,5 l0,-25" fill="none" stroke="rgb(204,204,204)" stroke-width="10" transform="matrix(1,0,0,-1,1311,1091)"/>
 <path d="M534,79 l-4,-2 c-56,63,-119,84,-188,84 c-32,0,-84,-3,-113,-3 c-104,0,-147,39,-147,111 c0,27,6,59,20,88 l-23,15 l-9,0 c-21,-35,-35,-81,-35,-125 c0,-109,88,-174,210,-174 c43,0,102,8,165,8 c79,0,126,-20,153,-117 l28,-17 l11,0 c-3,70,-7,140,-8,210 l-3,395 l89,0 l0,8 l-60,60 l-101,0 l0,-13 c0,-80,1,-123,8,-164 l-2,-1 c-46,122,-106,178,-191,178 c-97,0,-178,-72,-178,-184 c0,-108,77,-181,167,-181 c57,0,109,29,109,89 c0,44,-29,79,-78,79 c-48,0,-70,-33,-70,-65 c0,-19,8,-37,25,-47 l-1,-3 c-50,4,-76,60,-76,106 c0,67,47,125,125,125 c95,0,162,-93,162,-256 l0,-29 c0,-63,4,-136,15,-175 Z M534,79" fill="rgb(0,0,0)" transform="matrix(1,0,0,-1,641,1091)"/>
</svg>