<?xml version="1.0" encoding="UTF-8"?>
<svg height="1521" version="1.1" width="2238.75" xmlns="http://www.w3.org/2000/svg" xmlns:xlink="http://www.w3.org/1999/xlink">
 <path d="M0,0 l2238.75,0 l0,1521 l-2238.75,0 Z M0,0" fill="rgb(255,255,255)" transform="matrix(1,0,0,-1,0,1521)"/>
 <path d="M0,0 l2238.75,0" fill="none" stroke="rgb(229,229,229)" stroke-width="10" transform="matrix(1,0,0,-1,0,1091)"/>
 <path d="M0,5 l0,-25" fill="none" stroke="rgb(204,204,204)" stroke-width="10" transform="matrix(1,0,0,-1,641,1091)"/>
 <path d="M0,5 l0,-25" fill="none" stroke="rgb(204,204,204)" stroke-width="10" transform="matrix(1,0,0,-1,1321,1091)"/>
 <path d="M429,522 c-125,0,-226,-73,-226,-157 c0,-54,42,-85,87,-85 c46,0,68,31,68,62 c0,22,-11,43,-34,55 c49,50,110,73,155,73 c31,0,59,-11,59,-39 c0,-18,-12,-46,-32,-64 c-12,6,-27,10,-40,10 c-36,0,-70,-22,-70,-63 c0,-40,34,-64,73,-64 c21,0,44,7,63,23 c17,-8,28,-23,28,-40 c0,-39,-44,-71,-125,-71 c-129,0,-286,83,-378,338 l-30,9 l-10,0 c67,-247,197,-377,332,-419 l0,-3 c-27,-14,-55,-30,-83,-46 l62,-77 c106,-9,184,-50,205,-95 l29,-14 l10,0 c-3,67,-3,115,-3,193 l0,55 c31,24,46,58,46,95 c0,40,-20,81,-51,107 c17,25,31,65,31,98 c0,72,-65,119,-166,119 Z M690,552 l0,8 l-60,60 l-680,0 l0,-8 l60,-60 Z M378,23 l-1,3 c36,21,84,43,121,58 c0,-50,0,-112,9,-138 l-2,-2 c-32,38,-88,68,-127,79 Z M378,23" fill="rgb(0,0,0)" transform="matrix(1,0,0,-1,641,1091)"/>
</svg>