<?xml version="1.0" encoding="UTF-8"?>
<svg height="1521" version="1.1" width="2238.75" xmlns="http://www.w3.org/2000/svg" xmlns:xlink="http://www.w3.org/1999/xlink">
 <path d="M0,0 l2238.75,0 l0,1521 l-2238.75,0 Z M0,0" fill="rgb(255,255,255)" transform="matrix(1,0,0,-1,0,1521)"/>
 <path d="M0,0 l2238.75,0" fill="none" stroke="rgb(229,229,229)" stroke-width="10" transform="matrix(1,0,0,-1,0,1091)"/>
 <path d="M0,5 l0,-25" fill="none" stroke="rgb(204,204,204)" stroke-width="10" transform="matrix(1,0,0,-1,641,1091)"/>
 <path d="M0,5 l0,-25" fill="none" stroke="rgb(204,204,204)" stroke-width="10" transform="matrix(1,0,0,-1,1358,1091)"/>
 <path d="M241,208 c211,0,338,-135,368,-224 l27,-17 l11,0 c-4,101,-5,165,-5,241 l0,344 l85,0 l0,8 l-60,60 l-102,0 l0,-220 c0,-156,0,-233,8,-287 l-3,-2 c-59,65,-128,122,-208,156 l0,3 c93,31,153,88,153,165 c0,99,-96,131,-111,193 l-25,10 c-21,-40,-58,-69,-81,-110 l-3,0 c-30,71,-70,92,-117,92 c-82,0,-133,-62,-133,-131 c0,-72,55,-115,113,-115 c49,0,71,30,71,60 c0,29,-21,58,-59,58 c-10,0,-22,-2,-33,-6 c0,40,29,62,66,62 c44,0,89,-30,107,-118 l24,-10 c18,57,66,95,83,129 c24,-26,34,-54,34,-76 c0,-83,-136,-154,-253,-154 c-1,0,-4,0,-12,1 l-4,-4 Z M241,208" fill="rgb(0,0,0)" transform="matrix(1,0,0,-1,641,1091)"/>
</svg>