<?xml version="1.0" encoding="UTF-8"?>
<svg height="1521" version="1.1" width="2238.75" xmlns="http://www.w3.org/2000/svg" xmlns:xlink="http://www.w3.org/1999/xlink">
 <path d="M0,0 l2238.75,0 l0,1521 l-2238.75,0 Z M0,0" fill="rgb(255,255,255)" transform="matrix(1,0,0,-1,0,1521)"/>
 <path d="M0,0 l2238.75,0" fill="none" stroke="rgb(229,229,229)" stroke-width="10" transform="matrix(1,0,0,-1,0,1091)"/>
 <path d="M0,5 l0,-25" fill="none" stroke="rgb(204,204,204)" stroke-width="10" transform="matrix(1,0,0,-1,641,1091)"/>
 <path d="M0,5 l0,-25" fill="none" stroke="rgb(204,204,204)" stroke-width="10" transform="matrix(1,0,0,-1,1277,1091)"/>
 <path d="M380,122 c31,0,59,5,85,15 c2,-67,6,-108,11,-142 l-3,-1 c-47,74,-113,96,-168,96 c-77,0,-118,-43,-118,-95 c0,-57,48,-87,93,-87 c48,0,77,34,77,72 c0,17,-6,35,-18,52 l2,3 c82,-3,156,-94,166,-152 l29,-18 l11,0 c-4,101,-5,165,-5,241 l0,87 c27,33,42,75,42,124 c0,115,-86,198,-193,198 c-82,0,-139,-50,-139,-119 c0,-64,48,-96,93,-96 c49,0,83,39,83,82 c0,22,-9,46,-27,63 c8,2,17,3,25,3 c61,0,103,-56,103,-107 c0,-63,-65,-124,-166,-124 c-106,0,-219,65,-301,283 l-30,9 l-10,0 c83,-282,220,-387,358,-387 Z M646,552 l0,8 l-60,60 l-636,0 l0,-8 l60,-60 Z M646,552" fill="rgb(0,0,0)" transform="matrix(1,0,0,-1,641,1091)"/>
</svg>