<?xml version="1.0" encoding="UTF-8"?>
<svg height="1521" version="1.1" width="2238.75" xmlns="http://www.w3.org/2000/svg" xmlns:xlink="http://www.w3.org/1999/xlink">
 <path d="M0,0 l2238.75,0 l0,1521 l-2238.75,0 Z M0,0" fill="rgb(255,255,255)" transform="matrix(1,0,0,-1,0,1521)"/>
 <path d="M0,0 l2238.75,0" fill="none" stroke="rgb(229,229,229)" stroke-width="10" transform="matrix(1,0,0,-1,0,1091)"/>
 <path d="M0,5 l0,-25" fill="none" stroke="rgb(204,204,204)" stroke-width="10" transform="matrix(1,0,0,-1,641,1091)"/>
 <path d="M0,5 l0,-25" fill="none" stroke="rgb(204,204,204)" stroke-width="10" transform="matrix(1,0,0,-1,1277,1091)"/>
 <path d="M584,317 c0,115,-86,198,-193,198 c-82,0,-139,-50,-139,-119 c0,-64,48,-96,93,-96 c49,0,83,39,83,82 c0,22,-9,46,-27,63 c8,2,17,3,25,3 c61,0,103,-56,103,-107 c0,-63,-65,-124,-166,-124 c-106,0,-219,65,-301,283 l-30,9 l-10,0 c65,-219,160,-331,267,-367 l0,-2 c-26,-14,-52,-29,-80,-46 l68,-85 c123,-7,197,-59,225,-112 l32,-15 l11,0 c-3,65,-3,107,-3,182 l0,130 c27,32,42,75,42,123 Z M646,552 l0,8 l-60,60 l-636,0 l0,-8 l60,-60 Z M328,70 l-1,3 c51,32,97,51,140,70 c0,-80,1,-138,9,-167 l-2,-2 c-39,50,-96,83,-146,96 Z M328,70" fill="rgb(0,0,0)" transform="matrix(1,0,0,-1,641,1091)"/>
</svg>