<?xml version="1.0" encoding="UTF-8"?>
<svg height="1521" version="1.1" width="2238.75" xmlns="http://www.w3.org/2000/svg" xmlns:xlink="http://www.w3.org/1999/xlink">
 <path d="M0,0 l2238.75,0 l0,1521 l-2238.75,0 Z M0,0" fill="rgb(255,255,255)" transform="matrix(1,0,0,-1,0,1521)"/>
 <path d="M0,0 l2238.75,0" fill="none" stroke="rgb(229,229,229)" stroke-width="10" transform="matrix(1,0,0,-1,0,1091)"/>
 <path d="M0,5 l0,-25" fill="none" stroke="rgb(204,204,204)" stroke-width="10" transform="matrix(1,0,0,-1,641,1091)"/>
 <path d="M0,5 l0,-25" fill="none" stroke="rgb(204,204,204)" stroke-width="10" transform="matrix(1,0,0,-1,1374,1091)"/>
 <path d="M330,183 c21,0,40,2,58,7 c25,-13,39,-33,45,-54 c-5,1,-9,1,-13,1 c-60,0,-93,-35,-93,-79 c0,-42,32,-76,82,-76 c40,0,79,23,87,74 c92,-19,117,-107,129,-151 l27,-17 l11,0 c-4,101,-5,165,-5,241 l0,423 l85,0 l0,8 l-60,60 l-733,0 l0,-8 l60,-60 l569,0 l0,-216 c0,-146,0,-231,8,-280 l-3,-2 c-16,18,-50,48,-92,67 c-8,29,-25,62,-60,88 c51,30,82,83,82,147 c0,97,-74,165,-169,165 c-72,0,-128,-40,-128,-98 c0,-52,47,-82,90,-82 c45,0,76,34,76,70 c0,16,-6,32,-20,46 c9,4,19,6,28,6 c43,0,68,-43,68,-80 c0,-54,-54,-107,-144,-107 c-90,0,-184,52,-253,229 l-30,9 l-10,0 c71,-241,188,-331,308,-331 Z M330,183" fill="rgb(0,0,0)" transform="matrix(1,0,0,-1,641,1091)"/>
</svg>