<?xml version="1.0" encoding="UTF-8"?>
<svg height="1521" version="1.1" width="2238.75" xmlns="http://www.w3.org/2000/svg" xmlns:xlink="http://www.w3.org/1999/xlink">
 <path d="M0,0 l2238.75,0 l0,1521 l-2238.75,0 Z M0,0" fill="rgb(255,255,255)" transform="matrix(1,0,0,-1,0,1521)"/>
 <path d="M0,0 l2238.75,0" fill="none" stroke="rgb(229,229,229)" stroke-width="10" transform="matrix(1,0,0,-1,0,1091)"/>
 <path d="M0,5 l0,-25" fill="none" stroke="rgb(204,204,204)" stroke-width="10" transform="matrix(1,0,0,-1,641,1091)"/>
 <path d="M0,5 l0,-25" fill="none" stroke="rgb(204,204,204)" stroke-width="10" transform="matrix(1,0,0,-1,1279,1091)"/>
 <path d="M212,130 c-93,0,-130,43,-130,111 c0,26,6,56,20,84 l-23,15 l-9,0 c-22,-35,-35,-80,-35,-122 c0,-106,78,-172,191,-172 c46,0,115,8,166,8 c79,0,108,-23,135,-103 l28,-17 l11,0 c-4,89,-4,185,-4,215 c0,137,2,175,2,269 c0,65,-84,107,-133,107 c-68,0,-221,-96,-221,-215 c0,-59,43,-106,111,-106 c63,0,90,36,90,74 c0,41,-33,67,-71,67 c-10,0,-20,-2,-29,-5 l-2,1 c24,64,124,118,156,118 c10,0,19,-6,19,-30 c0,-46,-2,-88,-2,-158 c0,-132,7,-182,12,-209 l-2,-1 c-49,56,-105,72,-162,72 c-38,0,-86,-3,-118,-3 Z M648,552 l0,8 l-60,60 l-638,0 l0,-8 l60,-60 Z M648,552" fill="rgb(0,0,0)" transform="matrix(1,0,0,-1,641,1091)"/>
</svg>