<?xml version="1.0" encoding="UTF-8"?>
<svg height="1521" version="1.1" width="2238.75" xmlns="http://www.w3.org/2000/svg" xmlns:xlink="http://www.w3.org/1999/xlink">
 <path d="M0,0 l2238.75,0 l0,1521 l-2238.75,0 Z M0,0" fill="rgb(255,255,255)" transform="matrix(1,0,0,-1,0,1521)"/>
 <path d="M0,0 l2238.75,0" fill="none" stroke="rgb(229,229,229)" stroke-width="10" transform="matrix(1,0,0,-1,0,1091)"/>
 <path d="M0,5 l0,-25" fill="none" stroke="rgb(204,204,204)" stroke-width="10" transform="matrix(1,0,0,-1,641,1091)"/>
 <path d="M0,5 l0,-25" fill="none" stroke="rgb(204,204,204)" stroke-width="10" transform="matrix(1,0,0,-1,1282,1091)"/>
 <path d="M386,126 c40,0,76,8,106,24 l0,-47 c0,-31,3,-62,6,-93 l-3,-1 c-33,62,-65,90,-100,90 c-31,0,-53,-16,-63,-51 c-31,37,-68,71,-122,71 c-66,0,-120,-49,-120,-114 c0,-67,58,-127,133,-127 c58,0,83,34,83,64 c0,26,-19,51,-50,51 c-29,0,-48,-21,-48,-43 c0,-10,4,-21,13,-29 l-1,-2 c-40,0,-60,31,-60,61 c0,39,36,67,82,67 c48,0,94,-32,118,-83 l21,-10 l6,2 c-1,7,-1,12,-1,13 c0,46,19,61,40,61 c20,0,53,-21,84,-140 l31,-18 l11,0 c-4,69,-5,139,-5,207 l0,115 c27,32,42,74,42,123 c0,115,-86,198,-193,198 c-82,0,-139,-50,-139,-119 c0,-64,48,-96,93,-96 c49,0,83,39,83,82 c0,22,-9,46,-27,63 c8,2,17,3,25,3 c61,0,103,-56,103,-107 c0,-63,-64,-121,-165,-121 c-106,0,-220,62,-302,280 l-30,9 l-10,0 c83,-282,221,-383,359,-383 Z M651,552 l0,8 l-60,60 l-641,0 l0,-8 l60,-60 Z M651,552" fill="rgb(0,0,0)" transform="matrix(1,0,0,-1,641,1091)"/>
</svg>