<?xml version="1.0" encoding="UTF-8"?>
<svg height="1521" version="1.1" width="2238.75" xmlns="http://www.w3.org/2000/svg" xmlns:xlink="http://www.w3.org/1999/xlink">
 <path d="M0,0 l2238.75,0 l0,1521 l-2238.75,0 Z M0,0" fill="rgb(255,255,255)" transform="matrix(1,0,0,-1,0,1521)"/>
 <path d="M0,0 l2238.75,0" fill="none" stroke="rgb(229,229,229)" stroke-width="10" transform="matrix(1,0,0,-1,0,1091)"/>
 <path d="M0,5 l0,-25" fill="none" stroke="rgb(204,204,204)" stroke-width="10" transform="matrix(1,0,0,-1,641,1091)"/>
 <path d="M0,5 l0,-25" fill="none" stroke="rgb(204,204,204)" stroke-width="10" transform="matrix(1,0,0,-1,1253,1091)"/>
 <path d="M137,242 c124,0,208,-23,262,-52 c-56,-27,-121,-60,-186,-100 l69,-86 c114,-11,187,-62,215,-115 l32,-15 l11,0 c-3,65,-3,107,-3,182 l0,496 l85,0 l0,8 l-60,60 l-102,0 l0,-195 c0,-111,0,-176,3,-231 l-3,-2 c-57,46,-123,83,-201,107 l0,2 c92,27,151,82,151,155 c0,80,-74,174,-196,174 c-110,0,-184,-76,-184,-145 c0,-49,37,-85,89,-85 c49,0,76,32,76,70 c0,18,-6,36,-23,50 c26,32,63,50,100,50 c46,0,71,-31,71,-65 c0,-80,-133,-155,-246,-155 c-1,0,-5,0,-12,1 l-4,-4 Z M333,65 l-1,3 c41,26,87,45,130,64 c0,-80,1,-135,9,-164 l-2,-2 c-38,48,-96,85,-136,99 Z M333,65" fill="rgb(0,0,0)" transform="matrix(1,0,0,-1,641,1091)"/>
</svg>