<?xml version="1.0" encoding="UTF-8"?>
<svg height="1521" version="1.1" width="2238.75" xmlns="http://www.w3.org/2000/svg" xmlns:xlink="http://www.w3.org/1999/xlink">
 <path d="M0,0 l2238.75,0 l0,1521 l-2238.75,0 Z M0,0" fill="rgb(255,255,255)" transform="matrix(1,0,0,-1,0,1521)"/>
 <path d="M0,0 l2238.75,0" fill="none" stroke="rgb(229,229,229)" stroke-width="10" transform="matrix(1,0,0,-1,0,1091)"/>
 <path d="M0,5 l0,-25" fill="none" stroke="rgb(204,204,204)" stroke-width="10" transform="matrix(1,0,0,-1,641,1091)"/>
 <path d="M0,5 l0,-25" fill="none" stroke="rgb(204,204,204)" stroke-width="10" transform="matrix(1,0,0,-1,1695,1091)"/>
 <path d="M733,544 c140,0,170,-188,170,-239 c0,-33,-1,-217,-1,-295 l68,-53 l11,0 l-8,595 l91,0 l0,8 l-60,60 l-100,0 l0,-12 c0,-58,0,-104,6,-155 l-4,-1 c-34,74,-100,168,-213,168 c-112,0,-201,-93,-201,-195 l0,-10 l-107,75 c-84,-56,-169,-135,-222,-196 l-2,1 l0,257 l348,0 l0,8 l-60,60 l-499,0 l0,-8 l60,-60 l71,0 l0,-317 l83,-81 l6,0 c48,67,103,149,198,216 l3,-3 c-24,-52,-29,-104,-29,-156 c0,-87,15,-161,39,-228 l29,-18 l11,0 c-10,58,-16,120,-16,173 c0,99,20,187,90,256 c9,-40,35,-58,60,-58 c9,0,18,4,21,6 c80,57,134,58,136,58 c22,0,34,-12,34,-32 c0,-33,-31,-88,-131,-161 l75,-94 c89,79,123,150,123,209 c0,71,-48,127,-125,127 c-23,0,-55,-5,-85,-14 c4,49,55,109,130,109 Z M733,544" fill="rgb(0,0,0)" transform="matrix(1,0,0,-1,641,1091)"/>
</svg>