<?xml version="1.0" encoding="UTF-8"?>
<svg height="1521" version="1.1" width="2238.75" xmlns="http://www.w3.org/2000/svg" xmlns:xlink="http://www.w3.org/1999/xlink">
 <path d="M0,0 l2238.75,0 l0,1521 l-2238.75,0 Z M0,0" fill="rgb(255,255,255)" transform="matrix(1,0,0,-1,0,1521)"/>
 <path d="M0,0 l2238.75,0" fill="none" stroke="rgb(229,229,229)" stroke-width="10" transform="matrix(1,0,0,-1,0,1091)"/>
 <path d="M0,5 l0,-25" fill="none" stroke="rgb(204,204,204)" stroke-width="10" transform="matrix(1,0,0,-1,641,1091)"/>
 <path d="M0,5 l0,-25" fill="none" stroke="rgb(204,204,204)" stroke-width="10" transform="matrix(1,0,0,-1,1420,1091)"/>
 <path d="M490,439 l-110,80 c-80,-56,-166,-139,-217,-200 l-2,1 l0,232 l628,0 l0,8 l-60,60 l-779,0 l0,-8 l60,-60 l71,0 l0,-292 l83,-81 l6,0 c46,68,103,153,193,220 l3,-3 c-23,-54,-33,-111,-33,-167 c0,-31,3,-64,8,-94 l74,-70 l6,0 c46,69,100,150,190,217 l3,-3 c-23,-52,-32,-102,-32,-157 c0,-73,15,-138,36,-194 l29,-18 l11,0 c-8,50,-13,98,-13,143 c0,100,25,193,93,263 l0,6 l-110,80 c-80,-56,-173,-146,-235,-226 l-3,1 c2,98,34,187,100,256 Z M490,439" fill="rgb(0,0,0)" transform="matrix(1,0,0,-1,641,1091)"/>
</svg>