<?xml version="1.0" encoding="UTF-8"?>
<svg height="1521" version="1.1" width="2238.75" xmlns="http://www.w3.org/2000/svg" xmlns:xlink="http://www.w3.org/1999/xlink">
 <path d="M0,0 l2238.75,0 l0,1521 l-2238.75,0 Z M0,0" fill="rgb(255,255,255)" transform="matrix(1,0,0,-1,0,1521)"/>
 <path d="M0,0 l2238.75,0" fill="none" stroke="rgb(229,229,229)" stroke-width="10" transform="matrix(1,0,0,-1,0,1091)"/>
 <path d="M0,5 l0,-25" fill="none" stroke="rgb(204,204,204)" stroke-width="10" transform="matrix(1,0,0,-1,641,1091)"/>
 <path d="M0,5 l0,-25" fill="none" stroke="rgb(204,204,204)" stroke-width="10" transform="matrix(1,0,0,-1,1406,1091)"/>
 <path d="M486,443 l-106,76 c-80,-56,-166,-139,-217,-200 l-2,1 l0,232 l614,0 l0,8 l-60,60 l-765,0 l0,-8 l60,-60 l71,0 l0,-292 l82,-80 l6,0 c45,69,101,152,190,220 l3,-3 c-24,-53,-34,-107,-34,-162 c0,-31,3,-64,8,-94 l70,-69 l6,0 c46,69,100,147,190,214 l3,-3 c-26,-53,-35,-111,-35,-173 l0,-22 c-62,-28,-136,-65,-212,-111 l63,-79 c112,0,178,-38,199,-76 l29,-18 l11,0 c-18,93,-29,181,-29,253 c0,106,23,193,96,265 l0,6 l-110,79 c-79,-56,-168,-145,-229,-225 l-3,1 c2,97,34,186,101,254 Z M471,-43 l-1,3 c32,20,72,40,107,54 c6,-44,15,-87,25,-127 l-3,-2 c-32,35,-90,62,-128,72 Z M471,-43" fill="rgb(0,0,0)" transform="matrix(1,0,0,-1,641,1091)"/>
</svg>