<?xml version="1.0" encoding="UTF-8"?>
<svg height="1521" version="1.1" width="2238.75" xmlns="http://www.w3.org/2000/svg" xmlns:xlink="http://www.w3.org/1999/xlink">
 <path d="M0,0 l2238.75,0 l0,1521 l-2238.75,0 Z M0,0" fill="rgb(255,255,255)" transform="matrix(1,0,0,-1,0,1521)"/>
 <path d="M0,0 l2238.75,0" fill="none" stroke="rgb(229,229,229)" stroke-width="10" transform="matrix(1,0,0,-1,0,1091)"/>
 <path d="M0,5 l0,-25" fill="none" stroke="rgb(204,204,204)" stroke-width="10" transform="matrix(1,0,0,-1,641,1091)"/>
 <path d="M0,5 l0,-25" fill="none" stroke="rgb(204,204,204)" stroke-width="10" transform="matrix(1,0,0,-1,1406,1091)"/>
 <path d="M570,110 c0,-64,9,-122,23,-176 l-3,-2 c-44,52,-109,70,-161,70 c-21,0,-75,-3,-103,-3 c-72,0,-101,19,-101,72 c0,21,5,51,19,79 l-23,15 l-9,0 c-20,-35,-34,-78,-34,-118 c0,-70,42,-132,167,-132 c45,0,108,8,150,8 c55,0,107,-14,126,-84 l27,-17 l11,0 c-16,72,-28,157,-28,235 c0,106,23,193,96,265 l0,6 l-110,79 c-79,-56,-168,-145,-229,-225 l-3,1 c2,97,34,186,101,254 l0,6 l-106,76 c-80,-56,-166,-139,-217,-200 l-2,1 l0,232 l614,0 l0,8 l-60,60 l-765,0 l0,-8 l60,-60 l71,0 l0,-292 l79,-77 l6,0 c47,68,105,149,193,217 l3,-3 c-24,-53,-34,-107,-34,-162 c0,-31,3,-64,8,-94 l70,-69 l6,0 c46,69,100,147,190,214 l3,-3 c-26,-53,-35,-111,-35,-173 Z M570,110" fill="rgb(0,0,0)" transform="matrix(1,0,0,-1,641,1091)"/>
</svg>