<?xml version="1.0" encoding="UTF-8"?>
<svg height="1521" version="1.1" width="2238.75" xmlns="http://www.w3.org/2000/svg" xmlns:xlink="http://www.w3.org/1999/xlink">
 <path d="M0,0 l2238.75,0 l0,1521 l-2238.75,0 Z M0,0" fill="rgb(255,255,255)" transform="matrix(1,0,0,-1,0,1521)"/>
 <path d="M0,0 l2238.75,0" fill="none" stroke="rgb(229,229,229)" stroke-width="10" transform="matrix(1,0,0,-1,0,1091)"/>
 <path d="M0,5 l0,-25" fill="none" stroke="rgb(204,204,204)" stroke-width="10" transform="matrix(1,0,0,-1,641,1091)"/>
 <path d="M0,5 l0,-25" fill="none" stroke="rgb(204,204,204)" stroke-width="10" transform="matrix(1,0,0,-1,1380,1091)"/>
 <path d="M604,317 c-1,-44,-2,-87,-2,-147 c0,-61,1,-112,3,-173 l68,-58 l6,3 c-2,71,-3,133,-3,200 c0,66,1,112,3,177 l-89,78 l-71,-34 l0,6 c0,72,-76,119,-134,119 c-68,0,-162,-67,-217,-128 l-2,1 l0,191 l583,0 l0,8 l-60,60 l-739,0 l0,-8 l60,-60 l76,0 l0,-235 l83,-81 l6,0 c77,104,197,186,248,186 c20,0,22,-12,22,-36 l0,-60 c-88,-46,-169,-92,-283,-158 l73,-90 c136,-7,212,-71,250,-139 l28,-17 l11,0 c-4,80,-5,125,-5,177 l0,177 Z M456,38 l-3,-2 c-45,53,-114,94,-162,110 l-1,3 c51,33,102,63,155,90 c0,-93,3,-172,11,-201 Z M456,38" fill="rgb(0,0,0)" transform="matrix(1,0,0,-1,641,1091)"/>
</svg>