<?xml version="1.0" encoding="UTF-8"?>
<svg height="1521" version="1.1" width="2238.75" xmlns="http://www.w3.org/2000/svg" xmlns:xlink="http://www.w3.org/1999/xlink">
 <path d="M0,0 l2238.75,0 l0,1521 l-2238.75,0 Z M0,0" fill="rgb(255,255,255)" transform="matrix(1,0,0,-1,0,1521)"/>
 <path d="M0,0 l2238.75,0" fill="none" stroke="rgb(229,229,229)" stroke-width="10" transform="matrix(1,0,0,-1,0,1091)"/>
 <path d="M0,5 l0,-25" fill="none" stroke="rgb(204,204,204)" stroke-width="10" transform="matrix(1,0,0,-1,641,1091)"/>
 <path d="M0,5 l0,-25" fill="none" stroke="rgb(204,204,204)" stroke-width="10" transform="matrix(1,0,0,-1,1382,1091)"/>
 <path d="M205,91 c37,0,72,-4,102,-15 c-32,-16,-58,-31,-80,-43 l61,-77 c106,-11,171,-61,197,-110 l30,-14 l12,0 c-4,61,-8,148,-8,354 l0,95 c30,14,60,26,86,37 c-1,-44,-2,-87,-2,-147 c0,-60,1,-111,3,-172 l69,-59 l6,3 c-2,71,-3,133,-3,199 c0,66,1,112,3,177 l-88,78 l-74,-33 l0,10 c0,72,-76,119,-134,119 c-68,0,-162,-67,-217,-128 l-2,1 l0,186 l585,0 l0,8 l-60,60 l-741,0 l0,-8 l60,-60 l76,0 l0,-230 l83,-81 l6,0 c77,104,197,186,248,186 c20,0,22,-12,22,-36 l0,-61 c-103,-49,-205,-101,-308,-157 Z M256,149 l-1,3 c54,31,122,65,190,96 c0,-39,1,-75,2,-106 c-36,-16,-68,-31,-97,-45 c-31,24,-67,42,-94,52 Z M343,11 l-1,3 c36,20,73,37,112,53 c2,-54,4,-109,12,-146 l-2,-2 c-34,44,-88,78,-121,92 Z M343,11" fill="rgb(0,0,0)" transform="matrix(1,0,0,-1,641,1091)"/>
</svg>