<?xml version="1.0" encoding="UTF-8"?>
<svg height="1521" version="1.1" width="2238.75" xmlns="http://www.w3.org/2000/svg" xmlns:xlink="http://www.w3.org/1999/xlink">
 <path d="M0,0 l2238.75,0 l0,1521 l-2238.75,0 Z M0,0" fill="rgb(255,255,255)" transform="matrix(1,0,0,-1,0,1521)"/>
 <path d="M0,0 l2238.75,0" fill="none" stroke="rgb(229,229,229)" stroke-width="10" transform="matrix(1,0,0,-1,0,1091)"/>
 <path d="M0,5 l0,-25" fill="none" stroke="rgb(204,204,204)" stroke-width="10" transform="matrix(1,0,0,-1,641,1091)"/>
 <path d="M0,5 l0,-25" fill="none" stroke="rgb(204,204,204)" stroke-width="10" transform="matrix(1,0,0,-1,1230,1091)"/>
 <path d="M440,284 c2,-112,4,-142,10,-180 l-3,-1 c-53,74,-126,103,-187,103 c-79,0,-123,-46,-123,-102 c0,-52,38,-93,94,-93 c54,0,81,37,81,75 c0,24,-11,48,-32,62 l1,2 c109,-7,180,-99,199,-210 l29,-18 l11,0 c-4,101,-6,165,-6,241 l0,206 c0,72,-76,119,-134,119 c-68,0,-162,-67,-217,-128 l-2,1 l0,191 l438,0 l0,8 l-60,60 l-589,0 l0,-8 l60,-60 l71,0 l0,-235 l83,-81 l6,0 c77,104,197,186,248,186 c20,0,22,-12,22,-36 Z M440,284" fill="rgb(0,0,0)" transform="matrix(1,0,0,-1,641,1091)"/>
</svg>