<?xml version="1.0" encoding="UTF-8"?>
<svg height="1521" version="1.1" width="2238.75" xmlns="http://www.w3.org/2000/svg" xmlns:xlink="http://www.w3.org/1999/xlink">
 <path d="M0,0 l2238.75,0 l0,1521 l-2238.75,0 Z M0,0" fill="rgb(255,255,255)" transform="matrix(1,0,0,-1,0,1521)"/>
 <path d="M0,0 l2238.75,0" fill="none" stroke="rgb(229,229,229)" stroke-width="10" transform="matrix(1,0,0,-1,0,1091)"/>
 <path d="M0,5 l0,-25" fill="none" stroke="rgb(204,204,204)" stroke-width="10" transform="matrix(1,0,0,-1,641,1091)"/>
 <path d="M0,5 l0,-25" fill="none" stroke="rgb(204,204,204)" stroke-width="10" transform="matrix(1,0,0,-1,1343,1091)"/>
 <path d="M75,490 l-30,9 l-10,0 c64,-457,234,-582,405,-582 c145,0,219,90,219,189 c0,67,-33,138,-107,184 l-4,-1 c-15,-31,-31,-56,-48,-74 l-3,1 c7,99,40,159,105,226 l0,6 l-104,75 c-84,-45,-174,-118,-228,-167 l-2,1 l0,195 l444,0 l0,8 l-60,60 l-702,0 l0,-8 l60,-60 l178,0 l0,-248 l73,-72 l6,0 c51,54,108,120,204,180 l3,-3 c-19,-47,-28,-94,-28,-140 c0,-29,3,-59,11,-88 c-16,-8,-33,-13,-50,-16 l-1,2 c7,13,11,25,11,38 c0,37,-30,57,-61,57 c-35,0,-74,-25,-74,-72 c0,-52,47,-99,125,-99 c72,0,133,40,176,110 c18,-26,26,-49,26,-70 c0,-74,-93,-119,-178,-119 c-243,0,-322,304,-356,478 Z M75,490" fill="rgb(0,0,0)" transform="matrix(1,0,0,-1,641,1091)"/>
</svg>