<?xml version="1.0" encoding="UTF-8"?>
<svg height="1521" version="1.1" width="2238.75" xmlns="http://www.w3.org/2000/svg" xmlns:xlink="http://www.w3.org/1999/xlink">
 <path d="M0,0 l2238.75,0 l0,1521 l-2238.75,0 Z M0,0" fill="rgb(255,255,255)" transform="matrix(1,0,0,-1,0,1521)"/>
 <path d="M0,0 l2238.75,0" fill="none" stroke="rgb(229,229,229)" stroke-width="10" transform="matrix(1,0,0,-1,0,1091)"/>
 <path d="M0,5 l0,-25" fill="none" stroke="rgb(204,204,204)" stroke-width="10" transform="matrix(1,0,0,-1,641,1091)"/>
 <path d="M0,5 l0,-25" fill="none" stroke="rgb(204,204,204)" stroke-width="10" transform="matrix(1,0,0,-1,1248,1091)"/>
 <path d="M481,240 l-4,-1 c-10,-24,-22,-44,-36,-60 l-3,1 c-2,16,-3,22,-3,35 c0,106,48,173,100,226 l0,6 l-106,76 c-84,-45,-174,-118,-228,-167 l-2,1 l0,195 l418,0 l0,8 l-60,60 l-607,0 l0,-8 l60,-60 l109,0 l0,-248 l76,-75 l6,0 c48,57,105,123,201,183 l3,-3 c-18,-43,-26,-89,-26,-133 c0,-47,8,-83,23,-133 c-22,-14,-45,-23,-64,-25 l-1,2 c7,12,11,25,11,37 c0,39,-30,58,-61,58 c-35,0,-74,-25,-74,-72 c0,-52,48,-99,123,-99 c66,0,120,32,155,78 l2,-1 l0,-32 c0,-90,7,-164,11,-187 l-2,-1 c-49,55,-97,66,-153,66 c-40,0,-86,-6,-121,-6 c-103,0,-145,46,-145,125 c0,30,6,65,24,97 l-23,15 l-9,0 c-25,-38,-40,-89,-40,-138 c0,-114,86,-185,207,-185 c48,0,113,11,164,11 c77,0,109,-25,131,-94 l28,-17 l11,0 c-4,85,-4,192,-4,206 l0,132 c0,44,-27,93,-91,127 Z M481,240" fill="rgb(0,0,0)" transform="matrix(1,0,0,-1,641,1091)"/>
</svg>