<?xml version="1.0" encoding="UTF-8"?>
<svg height="1521" version="1.1" width="2238.75" xmlns="http://www.w3.org/2000/svg" xmlns:xlink="http://www.w3.org/1999/xlink">
 <path d="M0,0 l2238.75,0 l0,1521 l-2238.75,0 Z M0,0" fill="rgb(255,255,255)" transform="matrix(1,0,0,-1,0,1521)"/>
 <path d="M0,0 l2238.75,0" fill="none" stroke="rgb(229,229,229)" stroke-width="10" transform="matrix(1,0,0,-1,0,1091)"/>
 <path d="M0,5 l0,-25" fill="none" stroke="rgb(204,204,204)" stroke-width="10" transform="matrix(1,0,0,-1,641,1091)"/>
 <path d="M0,5 l0,-25" fill="none" stroke="rgb(204,204,204)" stroke-width="10" transform="matrix(1,0,0,-1,1290,1091)"/>
 <path d="M607,418 l-117,86 c-81,-52,-168,-130,-219,-187 l-2,1 l0,234 l390,0 l0,8 l-60,60 l-649,0 l0,-8 l60,-60 l179,0 l0,-289 l81,-77 l8,0 c46,62,104,136,195,198 l3,-3 c-24,-52,-29,-108,-29,-160 c0,-64,9,-122,22,-175 l-2,-1 c-44,50,-110,70,-162,70 c-21,0,-87,-4,-117,-4 c-74,0,-106,22,-106,78 c0,22,5,56,20,85 l-23,15 l-9,0 c-21,-35,-35,-82,-35,-123 c0,-73,47,-139,175,-139 c45,0,120,8,162,8 c55,0,107,-15,126,-85 l27,-17 l11,0 c-16,72,-26,149,-26,215 c0,103,21,194,97,264 Z M607,418" fill="rgb(0,0,0)" transform="matrix(1,0,0,-1,641,1091)"/>
</svg>