<?xml version="1.0" encoding="UTF-8"?>
<svg height="1521" version="1.1" width="2238.75" xmlns="http://www.w3.org/2000/svg" xmlns:xlink="http://www.w3.org/1999/xlink">
 <path d="M0,0 l2238.75,0 l0,1521 l-2238.75,0 Z M0,0" fill="rgb(255,255,255)" transform="matrix(1,0,0,-1,0,1521)"/>
 <path d="M0,0 l2238.75,0" fill="none" stroke="rgb(229,229,229)" stroke-width="10" transform="matrix(1,0,0,-1,0,1091)"/>
 <path d="M0,5 l0,-25" fill="none" stroke="rgb(204,204,204)" stroke-width="10" transform="matrix(1,0,0,-1,641,1091)"/>
 <path d="M0,5 l0,-25" fill="none" stroke="rgb(204,204,204)" stroke-width="10" transform="matrix(1,0,0,-1,1184,1091)"/>
 <path d="M389,522 c-44,-28,-111,-70,-177,-70 c-54,0,-82,31,-82,70 c0,25,12,47,47,48 c-2,-6,-2,-11,-2,-12 c0,-35,23,-49,49,-49 c38,0,58,27,58,56 c0,35,-32,73,-99,73 c-74,0,-124,-44,-124,-107 c0,-73,68,-112,133,-112 c9,0,16,0,25,1 l1,-3 c-59,-38,-124,-76,-183,-118 l70,-89 c149,-2,256,-70,305,-158 l6,-36 l-3,0 c-47,83,-122,111,-181,111 c-74,0,-114,-45,-114,-97 c0,-48,35,-86,87,-86 c50,0,76,34,76,70 c0,22,-11,45,-32,58 l1,2 c119,-7,167,-115,185,-176 l27,-17 l11,0 c-4,101,-5,161,-5,237 l0,434 l85,0 l0,8 l-60,60 l-104,0 Z M399,135 l-3,-2 c-63,75,-141,123,-234,141 l-1,3 c67,49,148,97,228,144 c0,-142,1,-238,10,-286 Z M399,135" fill="rgb(0,0,0)" transform="matrix(1,0,0,-1,641,1091)"/>
</svg>