<?xml version="1.0" encoding="UTF-8"?>
<svg height="1521" version="1.1" width="2238.75" xmlns="http://www.w3.org/2000/svg" xmlns:xlink="http://www.w3.org/1999/xlink">
 <path d="M0,0 l2238.75,0 l0,1521 l-2238.75,0 Z M0,0" fill="rgb(255,255,255)" transform="matrix(1,0,0,-1,0,1521)"/>
 <path d="M0,0 l2238.75,0" fill="none" stroke="rgb(229,229,229)" stroke-width="10" transform="matrix(1,0,0,-1,0,1091)"/>
 <path d="M0,5 l0,-25" fill="none" stroke="rgb(204,204,204)" stroke-width="10" transform="matrix(1,0,0,-1,641,1091)"/>
 <path d="M0,5 l0,-25" fill="none" stroke="rgb(204,204,204)" stroke-width="10" transform="matrix(1,0,0,-1,1581,1091)"/>
 <path d="M112,208 c169,-23,276,-125,310,-224 l28,-17 l11,0 c-3,101,-4,165,-4,241 c0,36,0,51,-1,107 l2,1 l60,-85 c168,-25,280,-145,314,-247 l28,-17 l11,0 c-5,101,-6,165,-6,241 l0,344 l85,0 l0,8 l-60,60 l-511,0 l0,-98 c-44,-28,-111,-70,-177,-70 c-54,0,-82,31,-82,70 c0,25,12,49,47,50 c-2,-6,-2,-13,-2,-14 c0,-35,23,-49,49,-49 c38,0,58,27,58,56 c0,35,-32,73,-99,73 c-74,0,-122,-44,-122,-107 c0,-73,66,-112,131,-112 c9,0,16,0,25,1 l1,-3 c-61,-38,-111,-70,-174,-112 Z M786,552 l0,-34 c-93,-39,-210,-104,-329,-181 l0,215 Z M157,280 l0,2 c70,48,151,98,222,139 c0,-146,1,-249,10,-298 l-3,-2 c-74,89,-149,132,-229,159 Z M572,304 l0,2 c69,45,142,85,214,116 c0,-146,1,-250,10,-299 l-3,-2 c-74,104,-149,153,-221,183 Z M572,304" fill="rgb(0,0,0)" transform="matrix(1,0,0,-1,641,1091)"/>
</svg>