<?xml version="1.0" encoding="UTF-8"?>
<svg height="1521" version="1.1" width="2238.75" xmlns="http://www.w3.org/2000/svg" xmlns:xlink="http://www.w3.org/1999/xlink">
 <path d="M0,0 l2238.75,0 l0,1521 l-2238.75,0 Z M0,0" fill="rgb(255,255,255)" transform="matrix(1,0,0,-1,0,1521)"/>
 <path d="M0,0 l2238.75,0" fill="none" stroke="rgb(229,229,229)" stroke-width="10" transform="matrix(1,0,0,-1,0,1091)"/>
 <path d="M0,5 l0,-25" fill="none" stroke="rgb(204,204,204)" stroke-width="10" transform="matrix(1,0,0,-1,641,1091)"/>
 <path d="M0,5 l0,-25" fill="none" stroke="rgb(204,204,204)" stroke-width="10" transform="matrix(1,0,0,-1,1359,1091)"/>
 <path d="M372,532 c-44,-28,-104,-66,-170,-66 c-54,0,-82,27,-82,63 c0,24,13,45,48,46 c-2,-6,-3,-12,-3,-17 c0,-27,24,-43,49,-43 c38,0,56,26,56,54 c0,34,-30,71,-97,71 c-74,0,-124,-42,-124,-102 c0,-70,68,-105,133,-105 c9,0,16,0,25,1 l1,-3 c-59,-38,-130,-80,-174,-111 l69,-86 c112,-2,197,-32,251,-79 c-40,-13,-60,-50,-60,-84 c0,-45,38,-81,90,-81 c35,0,71,21,85,78 c65,-18,113,-79,141,-154 l27,-17 l11,0 c-4,101,-5,165,-5,241 l0,414 l85,0 l0,8 l-60,60 l-296,0 Z M569,53 c-31,36,-72,72,-116,92 c-1,42,-2,89,-2,145 l0,262 l113,0 l0,-217 c0,-146,0,-231,8,-280 Z M384,181 l-3,-2 c-54,56,-128,103,-221,119 l-1,3 c57,41,133,86,213,133 c0,-73,3,-179,12,-253 Z M384,181" fill="rgb(0,0,0)" transform="matrix(1,0,0,-1,641,1091)"/>
</svg>