<?xml version="1.0" encoding="UTF-8"?>
<svg height="1521" version="1.1" width="2238.75" xmlns="http://www.w3.org/2000/svg" xmlns:xlink="http://www.w3.org/1999/xlink">
 <path d="M0,0 l2238.75,0 l0,1521 l-2238.75,0 Z M0,0" fill="rgb(255,255,255)" transform="matrix(1,0,0,-1,0,1521)"/>
 <path d="M0,0 l2238.75,0" fill="none" stroke="rgb(229,229,229)" stroke-width="10" transform="matrix(1,0,0,-1,0,1091)"/>
 <path d="M0,5 l0,-25" fill="none" stroke="rgb(204,204,204)" stroke-width="10" transform="matrix(1,0,0,-1,641,1091)"/>
 <path d="M0,5 l0,-25" fill="none" stroke="rgb(204,204,204)" stroke-width="10" transform="matrix(1,0,0,-1,1263,1091)"/>
 <path d="M467,532 c-44,-28,-111,-80,-177,-80 c-54,0,-82,31,-82,70 c0,25,12,47,47,48 c-2,-6,-2,-11,-2,-12 c0,-35,23,-49,49,-49 c38,0,58,27,58,56 c0,35,-32,73,-99,73 c-74,0,-124,-44,-124,-107 c0,-72,68,-112,132,-112 c5,0,12,1,13,1 l1,-3 c-53,-33,-95,-58,-150,-94 l73,-93 c140,-19,239,-93,286,-175 l-5,-2 c-50,54,-123,70,-166,70 c-32,0,-110,-7,-148,-7 c-59,0,-91,19,-91,77 c0,18,3,46,15,67 l-22,14 l-9,0 c-19,-29,-31,-67,-31,-106 c0,-72,45,-136,153,-136 c49,0,145,11,200,11 c58,0,109,-14,127,-78 l28,-17 l11,0 c-6,115,-8,181,-8,217 l-3,387 l89,0 l0,8 l-60,60 l-105,0 Z M477,145 l-3,-2 c-67,83,-145,130,-214,155 l-1,3 c63,45,134,88,208,130 c0,-139,1,-239,10,-286 Z M477,145" fill="rgb(0,0,0)" transform="matrix(1,0,0,-1,641,1091)"/>
</svg>