<?xml version="1.0" encoding="UTF-8"?>
<svg height="1521" version="1.1" width="2238.75" xmlns="http://www.w3.org/2000/svg" xmlns:xlink="http://www.w3.org/1999/xlink">
 <path d="M0,0 l2238.75,0 l0,1521 l-2238.75,0 Z M0,0" fill="rgb(255,255,255)" transform="matrix(1,0,0,-1,0,1521)"/>
 <path d="M0,0 l2238.75,0" fill="none" stroke="rgb(229,229,229)" stroke-width="10" transform="matrix(1,0,0,-1,0,1091)"/>
 <path d="M0,5 l0,-25" fill="none" stroke="rgb(204,204,204)" stroke-width="10" transform="matrix(1,0,0,-1,641,1091)"/>
 <path d="M0,5 l0,-25" fill="none" stroke="rgb(204,204,204)" stroke-width="10" transform="matrix(1,0,0,-1,1507,1091)"/>
 <path d="M876,552 l0,8 l-60,60 l-866,0 l0,-8 l60,-60 l434,0 l0,-125 l-3,-1 c-56,70,-130,89,-182,89 c-75,0,-119,-41,-119,-93 c0,-49,38,-87,90,-87 c51,0,78,34,78,69 c0,21,-10,43,-32,58 l1,2 c84,-6,147,-60,176,-120 c-124,-1,-224,-73,-224,-156 c0,-54,42,-85,87,-85 c46,0,68,31,68,62 c0,22,-13,44,-36,56 c45,50,112,72,157,72 c31,0,59,-11,59,-39 c0,-18,-12,-46,-32,-64 c-12,6,-26,10,-41,10 c-34,0,-69,-22,-69,-63 c0,-40,34,-64,73,-64 c21,0,44,7,63,23 c17,-8,28,-22,28,-41 c0,-37,-43,-71,-124,-71 c-133,0,-302,90,-392,377 l-29,8 l-10,0 c92,-363,299,-478,450,-478 c115,0,160,70,160,130 c0,39,-20,80,-50,106 c29,47,69,99,129,99 c45,0,78,-30,78,-63 c0,-19,-11,-44,-28,-51 c-8,35,-36,52,-62,52 c-32,0,-50,-23,-50,-49 c0,-29,24,-60,71,-60 c60,0,117,48,117,121 c0,65,-46,116,-110,116 c-45,0,-83,-25,-114,-79 l-4,0 c1,5,1,9,1,13 c0,55,-37,95,-99,110 c-1,76,-2,163,-2,216 Z M876,552" fill="rgb(0,0,0)" transform="matrix(1,0,0,-1,641,1091)"/>
</svg>