<?xml version="1.0" encoding="UTF-8"?>
<svg height="1521" version="1.1" width="2238.75" xmlns="http://www.w3.org/2000/svg" xmlns:xlink="http://www.w3.org/1999/xlink">
 <path d="M0,0 l2238.75,0 l0,1521 l-2238.75,0 Z M0,0" fill="rgb(255,255,255)" transform="matrix(1,0,0,-1,0,1521)"/>
 <path d="M0,0 l2238.75,0" fill="none" stroke="rgb(229,229,229)" stroke-width="10" transform="matrix(1,0,0,-1,0,1091)"/>
 <path d="M0,5 l0,-25" fill="none" stroke="rgb(204,204,204)" stroke-width="10" transform="matrix(1,0,0,-1,641,1091)"/>
 <path d="M0,5 l0,-25" fill="none" stroke="rgb(204,204,204)" stroke-width="10" transform="matrix(1,0,0,-1,1367,1091)"/>
 <path d="M211,896 c-20,-23,-28,-51,-28,-75 c0,-67,61,-127,176,-127 c47,0,113,10,153,10 c61,0,91,-22,91,-49 c0,-10,-4,-22,-14,-35 l-639,0 l0,-8 l60,-60 l292,0 l0,-58 c0,-89,3,-124,7,-154 l-3,-1 c-40,117,-107,146,-164,146 c-71,0,-112,-46,-112,-101 c0,-53,37,-94,91,-94 c51,0,80,35,80,75 c0,23,-9,44,-32,61 l0,2 c86,-8,133,-126,133,-218 l0,-21 c0,-69,81,-167,137,-167 c71,0,243,153,243,299 c0,82,-53,132,-115,132 c-57,0,-87,-42,-87,-83 c0,-40,28,-79,76,-79 c11,0,19,2,30,5 c-16,-100,-130,-190,-176,-190 c-21,0,-30,20,-30,57 l0,389 l356,0 l0,8 l-60,60 l-25,0 c-6,91,-61,165,-182,165 c-41,0,-96,-9,-145,-9 c-65,0,-97,15,-97,54 c0,13,4,28,16,46 l-24,20 Z M211,896" fill="rgb(0,0,0)" transform="matrix(1,0,0,-1,641,1091)"/>
</svg>