<?xml version="1.0" encoding="UTF-8"?>
<svg height="1521" version="1.1" width="2238.75" xmlns="http://www.w3.org/2000/svg" xmlns:xlink="http://www.w3.org/1999/xlink">
 <path d="M0,0 l2238.75,0 l0,1521 l-2238.75,0 Z M0,0" fill="rgb(255,255,255)" transform="matrix(1,0,0,-1,0,1521)"/>
 <path d="M0,0 l2238.75,0" fill="none" stroke="rgb(229,229,229)" stroke-width="10" transform="matrix(1,0,0,-1,0,1091)"/>
 <path d="M0,5 l0,-25" fill="none" stroke="rgb(204,204,204)" stroke-width="10" transform="matrix(1,0,0,-1,641,1091)"/>
 <path d="M0,5 l0,-25" fill="none" stroke="rgb(204,204,204)" stroke-width="10" transform="matrix(1,0,0,-1,1356,1091)"/>
 <path d="M302,499 c0,-89,3,-124,7,-154 l-3,-1 c-40,117,-107,146,-164,146 c-71,0,-112,-46,-112,-101 c0,-53,37,-94,91,-94 c51,0,80,35,80,75 c0,23,-9,44,-32,61 l0,2 c86,-8,132,-127,133,-210 c1,-64,81,-157,137,-157 c31,0,81,29,127,75 l0,-196 l-4,-2 c-51,54,-113,70,-167,70 c-19,0,-76,-4,-99,-4 c-63,0,-88,23,-88,80 c0,17,3,45,15,66 l-22,14 l-9,0 c-19,-29,-31,-68,-31,-105 c0,-71,37,-139,150,-139 c36,0,108,8,151,8 c64,0,108,-12,127,-78 l28,-17 l11,0 c-6,115,-7,181,-7,188 l0,184 c25,41,43,88,43,134 c0,78,-48,128,-111,128 c-55,0,-84,-39,-84,-82 c0,-49,40,-75,81,-75 c8,0,16,1,23,3 c-16,-91,-120,-170,-163,-170 c-21,0,-30,19,-30,54 l0,350 l345,0 l0,8 l-60,60 l-30,0 c-6,91,-61,165,-182,165 c-39,0,-91,-9,-137,-9 c-65,0,-97,15,-97,54 c0,13,4,28,16,46 l-24,20 l-8,0 c-20,-23,-28,-51,-28,-75 c0,-67,61,-127,176,-127 c45,0,107,10,145,10 c61,0,91,-22,91,-49 c0,-10,-4,-22,-14,-35 l-623,0 l0,-8 l60,-60 l292,0 Z M302,499" fill="rgb(0,0,0)" transform="matrix(1,0,0,-1,641,1091)"/>
</svg>