<?xml version="1.0" encoding="UTF-8"?>
<svg height="1521" version="1.1" width="2238.75" xmlns="http://www.w3.org/2000/svg" xmlns:xlink="http://www.w3.org/1999/xlink">
 <path d="M0,0 l2238.75,0 l0,1521 l-2238.75,0 Z M0,0" fill="rgb(255,255,255)" transform="matrix(1,0,0,-1,0,1521)"/>
 <path d="M0,0 l2238.75,0" fill="none" stroke="rgb(229,229,229)" stroke-width="10" transform="matrix(1,0,0,-1,0,1091)"/>
 <path d="M0,5 l0,-25" fill="none" stroke="rgb(204,204,204)" stroke-width="10" transform="matrix(1,0,0,-1,641,1091)"/>
 <path d="M0,5 l0,-25" fill="none" stroke="rgb(204,204,204)" stroke-width="10" transform="matrix(1,0,0,-1,1255,1091)"/>
 <path d="M377,877 c-15,46,-46,59,-76,59 c-45,0,-79,-32,-79,-87 c0,-77,66,-167,106,-229 l-378,0 l0,-8 l60,-60 l350,0 c1,-9,2,-18,2,-29 c0,-59,-15,-121,-51,-172 c-17,109,-103,160,-170,160 c-62,0,-108,-39,-108,-94 c0,-55,46,-84,87,-84 c37,0,72,24,72,68 c0,21,-8,39,-28,54 l0,2 c78,-5,116,-77,120,-137 c-36,-37,-87,-66,-155,-79 c-7,-21,-10,-46,-10,-64 c0,-92,81,-173,201,-173 c139,0,236,103,236,244 c0,115,-65,221,-124,304 l192,0 l0,8 l-60,60 l-182,0 c-54,74,-96,142,-96,197 c0,39,23,58,58,58 c8,0,17,-1,27,-4 Z M411,513 c41,-62,75,-150,75,-238 c0,-162,-115,-211,-193,-211 c-62,0,-109,32,-109,82 c0,1,0,10,2,16 c148,37,232,148,232,275 c0,24,-3,49,-10,75 Z M411,513" fill="rgb(0,0,0)" transform="matrix(1,0,0,-1,641,1091)"/>
</svg>