<?xml version="1.0" encoding="UTF-8"?>
<svg height="1521" version="1.1" width="2238.75" xmlns="http://www.w3.org/2000/svg" xmlns:xlink="http://www.w3.org/1999/xlink">
 <path d="M0,0 l2238.75,0 l0,1521 l-2238.75,0 Z M0,0" fill="rgb(255,255,255)" transform="matrix(1,0,0,-1,0,1521)"/>
 <path d="M0,0 l2238.75,0" fill="none" stroke="rgb(229,229,229)" stroke-width="10" transform="matrix(1,0,0,-1,0,1091)"/>
 <path d="M0,5 l0,-25" fill="none" stroke="rgb(204,204,204)" stroke-width="10" transform="matrix(1,0,0,-1,641,1091)"/>
 <path d="M0,5 l0,-25" fill="none" stroke="rgb(204,204,204)" stroke-width="10" transform="matrix(1,0,0,-1,1419,1091)"/>
 <path d="M397,405 l-4,-1 c-36,71,-85,95,-129,95 c-59,0,-94,-40,-94,-87 c0,-45,32,-79,78,-79 c43,0,68,31,68,62 c0,18,-8,36,-25,49 l0,2 c50,-5,74,-41,112,-118 c23,-46,77,-86,111,-86 c36,0,90,39,139,110 c16,-19,24,-42,24,-71 c0,-85,-72,-165,-210,-165 c-218,0,-331,202,-378,384 l-30,9 l-10,0 c63,-362,249,-485,429,-485 c30,0,59,3,85,10 l0,-133 l-4,-2 c-53,54,-117,68,-173,68 c-24,0,-131,-4,-161,-4 c-80,0,-114,28,-114,85 c0,17,3,45,15,66 l-22,14 l-9,0 c-19,-29,-31,-68,-31,-105 c0,-71,45,-141,178,-141 c42,0,160,8,211,8 c67,0,113,-9,133,-75 l28,-17 l11,0 c-6,115,-7,181,-7,188 l0,70 c68,37,108,105,108,198 c0,85,-33,152,-100,197 l-5,-1 c-43,-72,-102,-127,-134,-127 c-12,0,-16,9,-16,27 l0,202 l317,0 l0,8 l-60,60 l-778,0 l0,-8 l60,-60 l383,0 l0,-70 c0,-26,1,-48,4,-77 Z M397,405" fill="rgb(0,0,0)" transform="matrix(1,0,0,-1,641,1091)"/>
</svg>