<?xml version="1.0" encoding="UTF-8"?>
<svg height="1521" version="1.1" width="2238.75" xmlns="http://www.w3.org/2000/svg" xmlns:xlink="http://www.w3.org/1999/xlink">
 <path d="M0,0 l2238.75,0 l0,1521 l-2238.75,0 Z M0,0" fill="rgb(255,255,255)" transform="matrix(1,0,0,-1,0,1521)"/>
 <path d="M0,0 l2238.75,0" fill="none" stroke="rgb(229,229,229)" stroke-width="10" transform="matrix(1,0,0,-1,0,1091)"/>
 <path d="M0,5 l0,-25" fill="none" stroke="rgb(204,204,204)" stroke-width="10" transform="matrix(1,0,0,-1,641,1091)"/>
 <path d="M0,5 l0,-25" fill="none" stroke="rgb(204,204,204)" stroke-width="10" transform="matrix(1,0,0,-1,1329,1091)"/>
 <path d="M698,552 l0,8 l-60,60 l-688,0 l0,-8 l60,-60 l462,0 l0,-125 l-3,-1 c-56,70,-130,89,-182,89 c-75,0,-119,-41,-119,-93 c0,-49,38,-87,90,-87 c51,0,78,34,78,69 c0,21,-10,43,-32,58 l1,2 c85,-6,147,-61,175,-121 c-78,0,-143,-49,-143,-117 c0,-60,49,-92,97,-92 c43,0,85,27,85,78 c0,24,-9,47,-32,63 c8,2,15,3,23,3 c49,0,90,-46,90,-100 c0,-64,-57,-123,-159,-123 c-137,0,-280,103,-384,445 l-30,9 l-10,0 c101,-398,268,-548,438,-548 c123,0,200,79,200,191 c0,83,-43,150,-107,177 c-1,77,-2,168,-2,223 Z M698,552" fill="rgb(0,0,0)" transform="matrix(1,0,0,-1,641,1091)"/>
</svg>