<?xml version="1.0" encoding="UTF-8"?>
<svg height="1521" version="1.1" width="2238.75" xmlns="http://www.w3.org/2000/svg" xmlns:xlink="http://www.w3.org/1999/xlink">
 <path d="M0,0 l2238.75,0 l0,1521 l-2238.75,0 Z M0,0" fill="rgb(255,255,255)" transform="matrix(1,0,0,-1,0,1521)"/>
 <path d="M0,0 l2238.75,0" fill="none" stroke="rgb(229,229,229)" stroke-width="10" transform="matrix(1,0,0,-1,0,1091)"/>
 <path d="M0,5 l0,-25" fill="none" stroke="rgb(204,204,204)" stroke-width="10" transform="matrix(1,0,0,-1,641,1091)"/>
 <path d="M0,5 l0,-25" fill="none" stroke="rgb(204,204,204)" stroke-width="10" transform="matrix(1,0,0,-1,1329,1091)"/>
 <path d="M698,552 l0,8 l-60,60 l-688,0 l0,-8 l60,-60 l462,0 l0,-120 l-3,-1 c-56,70,-130,89,-182,89 c-75,0,-119,-41,-119,-93 c0,-49,37,-87,91,-87 c49,0,77,34,77,69 c0,21,-10,43,-32,58 l1,2 c80,-6,139,-54,170,-110 c-74,-2,-133,-46,-133,-107 c0,-54,47,-86,93,-86 c46,0,79,34,79,72 c0,20,-8,40,-27,59 c8,1,15,2,23,2 c49,0,88,-42,88,-91 c0,-58,-55,-112,-157,-112 c-137,0,-280,96,-384,414 l-30,9 l-10,0 c79,-291,196,-439,330,-490 l0,-2 c-27,-15,-54,-30,-81,-47 l68,-85 c114,-11,187,-62,215,-115 l32,-15 l11,0 c-3,65,-3,107,-3,182 l0,99 c41,31,64,79,64,136 c0,77,-42,139,-105,164 c-1,72,-2,153,-2,206 Z M385,-44 l-1,3 c41,26,87,45,130,64 c0,-80,1,-135,9,-164 l-2,-2 c-38,48,-96,85,-136,99 Z M385,-44" fill="rgb(0,0,0)" transform="matrix(1,0,0,-1,641,1091)"/>
</svg>