<?xml version="1.0" encoding="UTF-8"?>
<svg height="1521" version="1.1" width="2238.75" xmlns="http://www.w3.org/2000/svg" xmlns:xlink="http://www.w3.org/1999/xlink">
 <path d="M0,0 l2238.75,0 l0,1521 l-2238.75,0 Z M0,0" fill="rgb(255,255,255)" transform="matrix(1,0,0,-1,0,1521)"/>
 <path d="M0,0 l2238.75,0" fill="none" stroke="rgb(229,229,229)" stroke-width="10" transform="matrix(1,0,0,-1,0,1091)"/>
 <path d="M0,5 l0,-25" fill="none" stroke="rgb(204,204,204)" stroke-width="10" transform="matrix(1,0,0,-1,641,1091)"/>
 <path d="M0,5 l0,-25" fill="none" stroke="rgb(204,204,204)" stroke-width="10" transform="matrix(1,0,0,-1,1281,1091)"/>
 <path d="M650,552 l0,8 l-60,60 l-640,0 l0,-8 l60,-60 l415,0 l0,-139 l-3,-1 c-67,88,-140,108,-192,108 c-75,0,-119,-40,-119,-94 c0,-48,36,-85,89,-85 c50,0,77,34,77,70 c0,20,-8,41,-30,56 l1,2 c63,-4,115,-33,149,-80 c-74,-27,-167,-108,-167,-191 c0,-55,42,-96,108,-96 c60,0,84,34,84,68 c0,38,-29,59,-64,59 c-7,0,-15,-1,-23,-3 l-2,1 c23,66,125,120,146,120 c10,0,19,-11,19,-50 c0,-17,-2,-66,-2,-126 c0,-114,7,-160,12,-182 l-2,-1 c-49,55,-106,66,-165,66 c-32,0,-87,-3,-114,-3 c-95,0,-132,43,-132,110 c0,27,6,57,20,85 l-23,15 l-9,0 c-22,-35,-35,-79,-35,-123 c0,-104,77,-171,194,-171 c39,0,113,8,163,8 c79,0,111,-20,135,-89 l28,-17 l11,0 c-4,76,-4,159,-4,173 c0,136,2,162,2,248 c0,43,-37,77,-77,95 c-1,61,-1,123,-1,167 Z M650,552" fill="rgb(0,0,0)" transform="matrix(1,0,0,-1,641,1091)"/>
</svg>