<?xml version="1.0" encoding="UTF-8"?>
<svg height="1521" version="1.1" width="2238.75" xmlns="http://www.w3.org/2000/svg" xmlns:xlink="http://www.w3.org/1999/xlink">
 <path d="M0,0 l2238.75,0 l0,1521 l-2238.75,0 Z M0,0" fill="rgb(255,255,255)" transform="matrix(1,0,0,-1,0,1521)"/>
 <path d="M0,0 l2238.75,0" fill="none" stroke="rgb(229,229,229)" stroke-width="10" transform="matrix(1,0,0,-1,0,1091)"/>
 <path d="M0,5 l0,-25" fill="none" stroke="rgb(204,204,204)" stroke-width="10" transform="matrix(1,0,0,-1,641,1091)"/>
 <path d="M0,5 l0,-25" fill="none" stroke="rgb(204,204,204)" stroke-width="10" transform="matrix(1,0,0,-1,1222,1091)"/>
 <path d="M337,263 c22,11,50,18,75,18 c36,0,69,-16,69,-54 c0,-73,-119,-126,-220,-126 c-26,0,-60,3,-134,31 l-5,-5 l64,-119 c167,-36,301,-98,469,-224 l7,0 l-14,49 c-45,46,-124,117,-278,194 l0,3 c100,27,173,75,173,164 c0,78,-57,118,-122,134 c-1,77,-2,169,-2,224 l172,0 l0,8 l-60,60 l-581,0 l0,-8 l60,-60 l335,0 l0,-125 l-3,-1 c-56,70,-130,89,-182,89 c-75,0,-119,-41,-119,-93 c0,-49,38,-87,90,-87 c51,0,78,34,78,69 c0,21,-10,43,-32,58 l1,2 c87,-6,150,-64,177,-126 l-11,0 c-82,0,-185,-33,-185,-100 c0,-37,28,-63,73,-63 c52,0,93,36,105,88 Z M337,263" fill="rgb(0,0,0)" transform="matrix(1,0,0,-1,641,1091)"/>
</svg>