<?xml version="1.0" encoding="UTF-8"?>
<svg height="1521" version="1.1" width="2238.75" xmlns="http://www.w3.org/2000/svg" xmlns:xlink="http://www.w3.org/1999/xlink">
 <path d="M0,0 l2238.75,0 l0,1521 l-2238.75,0 Z M0,0" fill="rgb(255,255,255)" transform="matrix(1,0,0,-1,0,1521)"/>
 <path d="M0,0 l2238.75,0" fill="none" stroke="rgb(229,229,229)" stroke-width="10" transform="matrix(1,0,0,-1,0,1091)"/>
 <path d="M0,5 l0,-25" fill="none" stroke="rgb(204,204,204)" stroke-width="10" transform="matrix(1,0,0,-1,641,1091)"/>
 <path d="M0,5 l0,-25" fill="none" stroke="rgb(204,204,204)" stroke-width="10" transform="matrix(1,0,0,-1,1222,1091)"/>
 <path d="M337,275 c22,11,50,18,75,18 c36,0,66,-16,66,-53 c0,-71,-116,-123,-217,-123 c-26,0,-60,3,-134,31 l-5,-5 l63,-117 c114,-25,211,-62,315,-123 l2,-68 l-4,-2 c-53,54,-120,71,-174,71 c-28,0,-99,-4,-128,-4 c-78,0,-112,26,-112,83 c0,17,3,45,15,66 l-22,14 l-9,0 c-19,-29,-31,-69,-31,-104 c0,-72,47,-142,174,-142 c42,0,126,8,179,8 c67,0,113,-12,133,-78 l28,-17 l11,0 c-5,85,-7,119,-7,139 c31,-21,63,-44,97,-69 l7,0 l-13,47 c-45,46,-122,120,-276,197 l0,3 c100,27,170,73,170,161 c0,76,-55,116,-119,133 c-1,74,-2,158,-2,211 l172,0 l0,8 l-60,60 l-581,0 l0,-8 l60,-60 l335,0 l0,-123 l-3,-1 c-56,70,-130,89,-182,89 c-75,0,-119,-41,-119,-93 c0,-49,38,-87,90,-87 c51,0,78,34,78,69 c0,21,-10,43,-32,58 l1,2 c82,-6,143,-58,173,-116 l-7,0 c-82,0,-185,-33,-185,-100 c0,-37,28,-63,73,-63 c52,0,93,36,105,88 Z M337,275" fill="rgb(0,0,0)" transform="matrix(1,0,0,-1,641,1091)"/>
</svg>