<?xml version="1.0" encoding="UTF-8"?>
<svg height="1521" version="1.1" width="2238.75" xmlns="http://www.w3.org/2000/svg" xmlns:xlink="http://www.w3.org/1999/xlink">
 <path d="M0,0 l2238.75,0 l0,1521 l-2238.75,0 Z M0,0" fill="rgb(255,255,255)" transform="matrix(1,0,0,-1,0,1521)"/>
 <path d="M0,0 l2238.75,0" fill="none" stroke="rgb(229,229,229)" stroke-width="10" transform="matrix(1,0,0,-1,0,1091)"/>
 <path d="M0,5 l0,-25" fill="none" stroke="rgb(204,204,204)" stroke-width="10" transform="matrix(1,0,0,-1,641,1091)"/>
 <path d="M0,5 l0,-25" fill="none" stroke="rgb(204,204,204)" stroke-width="10" transform="matrix(1,0,0,-1,1469,1091)"/>
 <path d="M-50,620 l0,-8 l60,-60 l325,0 l0,-48 c0,-89,3,-124,7,-154 l-3,-1 c-42,103,-123,140,-190,140 c-75,0,-119,-48,-119,-106 c0,-53,40,-97,99,-97 c56,0,88,37,88,79 c0,25,-11,47,-40,65 l0,2 c85,-7,136,-79,158,-164 l73,-72 l6,0 c68,119,189,227,242,227 c20,0,23,-13,23,-37 l0,-74 c-87,-39,-165,-85,-269,-152 l71,-88 c130,-7,202,-67,238,-133 l28,-17 l11,0 c-4,80,-5,125,-5,177 l0,270 c0,72,-76,119,-134,119 c-63,0,-151,-74,-202,-143 l-2,1 l0,206 l423,0 l0,8 l-60,60 Z M690,38 l-3,-2 c-42,51,-107,91,-152,106 l-1,3 c47,31,96,61,145,84 c0,-90,3,-163,11,-191 Z M690,38" fill="rgb(0,0,0)" transform="matrix(1,0,0,-1,641,1091)"/>
</svg>