<?xml version="1.0" encoding="UTF-8"?>
<svg height="1521" version="1.1" width="2238.75" xmlns="http://www.w3.org/2000/svg" xmlns:xlink="http://www.w3.org/1999/xlink">
 <path d="M0,0 l2238.75,0 l0,1521 l-2238.75,0 Z M0,0" fill="rgb(255,255,255)" transform="matrix(1,0,0,-1,0,1521)"/>
 <path d="M0,0 l2238.75,0" fill="none" stroke="rgb(229,229,229)" stroke-width="10" transform="matrix(1,0,0,-1,0,1091)"/>
 <path d="M0,5 l0,-25" fill="none" stroke="rgb(204,204,204)" stroke-width="10" transform="matrix(1,0,0,-1,641,1091)"/>
 <path d="M0,5 l0,-25" fill="none" stroke="rgb(204,204,204)" stroke-width="10" transform="matrix(1,0,0,-1,1441,1091)"/>
 <path d="M597,211 c0,-64,9,-122,22,-176 l-2,-1 c-44,51,-110,71,-162,71 c-38,0,-164,-12,-223,-12 c-91,0,-135,27,-135,99 c0,18,3,35,10,59 l-23,15 l-9,0 c-14,-36,-20,-65,-20,-94 c0,-103,70,-163,202,-163 c68,0,202,16,263,16 c57,0,108,-15,127,-80 l27,-17 l11,0 c-16,72,-25,144,-25,210 c0,103,22,194,98,264 l0,6 l-117,84 c-80,-62,-162,-146,-213,-213 l-2,1 l0,272 l384,0 l0,8 l-60,60 l-800,0 l0,-8 l60,-60 l336,0 l0,-53 c0,-89,3,-124,7,-154 l-3,-1 c-39,103,-113,145,-175,145 c-75,0,-119,-48,-119,-106 c0,-53,38,-96,97,-96 c56,0,88,37,88,79 c0,25,-9,46,-38,64 l0,2 c92,-8,143,-118,143,-217 l82,-75 l6,0 c48,71,114,164,187,223 l3,-3 c-24,-52,-27,-97,-27,-149 Z M597,211" fill="rgb(0,0,0)" transform="matrix(1,0,0,-1,641,1091)"/>
</svg>