<?xml version="1.0" encoding="UTF-8"?>
<svg height="1521" version="1.1" width="2238.75" xmlns="http://www.w3.org/2000/svg" xmlns:xlink="http://www.w3.org/1999/xlink">
 <path d="M0,0 l2238.75,0 l0,1521 l-2238.75,0 Z M0,0" fill="rgb(255,255,255)" transform="matrix(1,0,0,-1,0,1521)"/>
 <path d="M0,0 l2238.75,0" fill="none" stroke="rgb(229,229,229)" stroke-width="10" transform="matrix(1,0,0,-1,0,1091)"/>
 <path d="M0,5 l0,-25" fill="none" stroke="rgb(204,204,204)" stroke-width="10" transform="matrix(1,0,0,-1,641,1091)"/>
 <path d="M0,5 l0,-25" fill="none" stroke="rgb(204,204,204)" stroke-width="10" transform="matrix(1,0,0,-1,1330,1091)"/>
 <path d="M549,332 c-1,-44,-2,-82,-2,-142 c0,-61,1,-112,3,-173 l68,-58 l6,3 c-2,71,-3,133,-3,200 c0,66,1,107,3,172 l-89,78 l-71,-28 l0,168 l235,0 l0,8 l-60,60 l-689,0 l0,-8 l60,-60 l375,0 l0,-57 c0,-41,2,-103,6,-137 l-3,-1 c-66,114,-153,152,-222,152 c-78,0,-131,-49,-131,-109 c0,-54,41,-97,102,-97 c58,0,89,39,89,82 c0,23,-9,46,-34,63 l1,2 c76,-2,132,-52,165,-110 c-88,-39,-169,-80,-260,-131 l68,-86 c131,-10,231,-81,263,-175 l27,-16 l11,0 c-3,101,-3,165,-3,241 l0,125 c28,11,56,23,85,34 Z M398,72 l-3,-2 c-54,60,-115,96,-168,113 l0,3 c52,29,106,55,161,79 c1,-89,5,-170,10,-193 Z M398,72" fill="rgb(0,0,0)" transform="matrix(1,0,0,-1,641,1091)"/>
</svg>