<?xml version="1.0" encoding="UTF-8"?>
<svg height="1521" version="1.1" width="2238.75" xmlns="http://www.w3.org/2000/svg" xmlns:xlink="http://www.w3.org/1999/xlink">
 <path d="M0,0 l2238.75,0 l0,1521 l-2238.75,0 Z M0,0" fill="rgb(255,255,255)" transform="matrix(1,0,0,-1,0,1521)"/>
 <path d="M0,0 l2238.75,0" fill="none" stroke="rgb(229,229,229)" stroke-width="10" transform="matrix(1,0,0,-1,0,1091)"/>
 <path d="M0,5 l0,-25" fill="none" stroke="rgb(204,204,204)" stroke-width="10" transform="matrix(1,0,0,-1,641,1091)"/>
 <path d="M0,5 l0,-25" fill="none" stroke="rgb(204,204,204)" stroke-width="10" transform="matrix(1,0,0,-1,1330,1091)"/>
 <path d="M150,116 c37,0,71,-5,101,-15 c-31,-16,-57,-31,-79,-43 l61,-77 c106,-11,171,-61,197,-110 l30,-14 l12,0 c-3,58,-8,141,-8,326 l0,123 c30,14,60,26,86,37 c-1,-44,-2,-87,-2,-147 c0,-60,1,-111,3,-172 l69,-59 l6,3 c-2,71,-3,133,-3,199 c0,66,1,112,3,177 l-88,78 l-74,-33 l0,163 l235,0 l0,8 l-60,60 l-689,0 l0,-8 l60,-60 l375,0 l0,-57 c0,-41,2,-103,6,-137 l-3,-1 c-66,114,-153,152,-222,152 c-78,0,-131,-49,-131,-109 c0,-54,41,-97,102,-97 c58,0,89,39,89,82 c0,23,-9,46,-34,63 l1,2 c76,-2,132,-52,165,-110 c-92,-45,-183,-92,-276,-142 Z M201,174 l-1,3 c53,31,121,65,189,96 c0,-39,1,-75,2,-106 c-36,-16,-68,-31,-96,-45 c-32,24,-67,42,-94,52 Z M288,36 l-1,3 c36,20,72,37,111,53 c2,-54,5,-109,13,-146 l-2,-2 c-34,44,-88,78,-121,92 Z M288,36" fill="rgb(0,0,0)" transform="matrix(1,0,0,-1,641,1091)"/>
</svg>