<?xml version="1.0" encoding="UTF-8"?>
<svg height="1521" version="1.1" width="2238.75" xmlns="http://www.w3.org/2000/svg" xmlns:xlink="http://www.w3.org/1999/xlink">
 <path d="M0,0 l2238.75,0 l0,1521 l-2238.75,0 Z M0,0" fill="rgb(255,255,255)" transform="matrix(1,0,0,-1,0,1521)"/>
 <path d="M0,0 l2238.75,0" fill="none" stroke="rgb(229,229,229)" stroke-width="10" transform="matrix(1,0,0,-1,0,1091)"/>
 <path d="M0,5 l0,-25" fill="none" stroke="rgb(204,204,204)" stroke-width="10" transform="matrix(1,0,0,-1,641,1091)"/>
 <path d="M0,5 l0,-25" fill="none" stroke="rgb(204,204,204)" stroke-width="10" transform="matrix(1,0,0,-1,1386,1091)"/>
 <path d="M474,-22 l-5,-2 c-48,54,-119,70,-162,70 c-28,0,-106,-7,-140,-7 c-55,0,-85,19,-85,77 c0,18,3,46,15,67 l-22,14 l-9,0 c-19,-29,-31,-67,-31,-106 c0,-72,42,-136,147,-136 c43,0,139,11,188,11 c56,0,103,-14,120,-78 l28,-17 l11,0 c-6,115,-9,198,-9,332 l0,105 c28,11,56,23,85,34 c-1,-44,-2,-82,-2,-142 c0,-61,1,-112,3,-173 l68,-58 l6,3 c-2,71,-3,133,-3,200 c0,66,1,107,3,172 l-89,78 l-71,-28 l0,158 l235,0 l0,8 l-60,60 l-745,0 l0,-8 l60,-60 l431,0 l0,-52 c0,-41,2,-102,6,-136 l-4,-2 c-66,114,-152,152,-221,152 c-78,0,-131,-49,-131,-109 c0,-54,41,-97,102,-97 c58,0,89,39,89,82 c0,23,-9,46,-34,63 l1,2 c75,-2,130,-49,163,-106 c-87,-39,-168,-79,-258,-130 l68,-82 c119,-8,211,-83,252,-159 Z M456,62 c-53,69,-118,111,-173,131 l0,3 c52,29,107,55,162,80 c1,-98,6,-187,14,-212 Z M456,62" fill="rgb(0,0,0)" transform="matrix(1,0,0,-1,641,1091)"/>
</svg>