<?xml version="1.0" encoding="UTF-8"?>
<svg height="1521" version="1.1" width="2238.75" xmlns="http://www.w3.org/2000/svg" xmlns:xlink="http://www.w3.org/1999/xlink">
 <path d="M0,0 l2238.75,0 l0,1521 l-2238.75,0 Z M0,0" fill="rgb(255,255,255)" transform="matrix(1,0,0,-1,0,1521)"/>
 <path d="M0,0 l2238.75,0" fill="none" stroke="rgb(229,229,229)" stroke-width="10" transform="matrix(1,0,0,-1,0,1091)"/>
 <path d="M0,5 l0,-25" fill="none" stroke="rgb(204,204,204)" stroke-width="10" transform="matrix(1,0,0,-1,641,1091)"/>
 <path d="M0,5 l0,-25" fill="none" stroke="rgb(204,204,204)" stroke-width="10" transform="matrix(1,0,0,-1,1201,1091)"/>
 <path d="M484,552 l86,0 l0,8 l-60,60 l-560,0 l0,-8 l60,-60 l393,0 l0,-89 c0,-73,4,-107,10,-145 l-3,-1 c-59,148,-142,186,-211,186 c-82,0,-130,-51,-130,-113 c0,-56,42,-103,104,-103 c58,0,91,40,91,81 c0,25,-12,50,-40,65 l1,3 c125,-4,182,-164,182,-228 c0,-13,3,-77,9,-111 l-3,-1 c-54,104,-127,149,-200,149 c-79,0,-125,-53,-125,-110 c0,-56,43,-102,102,-102 c57,0,86,41,86,81 c0,25,-12,51,-38,66 l1,2 c126,-3,190,-171,207,-228 l32,-19 l11,0 c-4,68,-5,139,-5,270 Z M484,552" fill="rgb(0,0,0)" transform="matrix(1,0,0,-1,641,1091)"/>
</svg>