<?xml version="1.0" encoding="UTF-8"?>
<svg height="1521" version="1.1" width="2238.75" xmlns="http://www.w3.org/2000/svg" xmlns:xlink="http://www.w3.org/1999/xlink">
 <path d="M0,0 l2238.75,0 l0,1521 l-2238.75,0 Z M0,0" fill="rgb(255,255,255)" transform="matrix(1,0,0,-1,0,1521)"/>
 <path d="M0,0 l2238.75,0" fill="none" stroke="rgb(229,229,229)" stroke-width="10" transform="matrix(1,0,0,-1,0,1091)"/>
 <path d="M0,5 l0,-25" fill="none" stroke="rgb(204,204,204)" stroke-width="10" transform="matrix(1,0,0,-1,641,1091)"/>
 <path d="M0,5 l0,-25" fill="none" stroke="rgb(204,204,204)" stroke-width="10" transform="matrix(1,0,0,-1,1343,1091)"/>
 <path d="M334,233 c-64,0,-98,-43,-98,-88 c0,-49,40,-88,95,-88 c40,0,82,20,100,77 c95,-24,141,-116,163,-180 l27,-17 l11,0 c-4,101,-5,165,-5,241 l0,374 l85,0 l0,8 l-60,60 l-702,0 l0,-8 l60,-60 l345,0 l0,-77 c0,-66,4,-97,10,-127 l-3,-1 c-52,120,-125,149,-189,149 c-81,0,-129,-47,-129,-107 c0,-55,41,-102,106,-102 c57,0,91,38,91,78 c0,24,-12,48,-40,62 l1,3 c107,-4,157,-131,175,-202 c-19,4,-34,5,-43,5 Z M553,103 c-41,50,-81,81,-115,100 c-3,40,-3,86,-3,142 l0,207 l113,0 l0,-167 c0,-146,0,-231,8,-280 Z M553,103" fill="rgb(0,0,0)" transform="matrix(1,0,0,-1,641,1091)"/>
</svg>