<?xml version="1.0" encoding="UTF-8"?>
<svg height="1521" version="1.1" width="2238.75" xmlns="http://www.w3.org/2000/svg" xmlns:xlink="http://www.w3.org/1999/xlink">
 <path d="M0,0 l2238.75,0 l0,1521 l-2238.75,0 Z M0,0" fill="rgb(255,255,255)" transform="matrix(1,0,0,-1,0,1521)"/>
 <path d="M0,0 l2238.75,0" fill="none" stroke="rgb(229,229,229)" stroke-width="10" transform="matrix(1,0,0,-1,0,1091)"/>
 <path d="M0,5 l0,-25" fill="none" stroke="rgb(204,204,204)" stroke-width="10" transform="matrix(1,0,0,-1,641,1091)"/>
 <path d="M0,5 l0,-25" fill="none" stroke="rgb(204,204,204)" stroke-width="10" transform="matrix(1,0,0,-1,1317,1091)"/>
 <path d="M597,552 l89,0 l0,8 l-60,60 l-676,0 l0,-8 l60,-60 l510,0 l0,-100 c0,-112,4,-162,10,-200 l-3,-1 c-64,155,-148,198,-226,198 c-88,0,-140,-57,-140,-121 c0,-60,43,-110,108,-110 c61,0,95,46,95,89 c0,29,-15,55,-41,71 l1,3 c135,-13,215,-206,228,-353 l-4,-2 c-60,58,-123,73,-191,73 c-34,0,-93,-4,-127,-4 c-103,0,-148,37,-148,107 c0,26,6,58,20,87 l-23,15 l-9,0 c-21,-35,-35,-82,-35,-124 c0,-108,90,-170,212,-170 c47,0,121,9,186,9 c76,0,115,-13,136,-78 l28,-17 l11,0 c-6,115,-8,181,-8,211 Z M597,552" fill="rgb(0,0,0)" transform="matrix(1,0,0,-1,641,1091)"/>
</svg>