<?xml version="1.0" encoding="UTF-8"?>
<svg height="1521" version="1.1" width="2238.75" xmlns="http://www.w3.org/2000/svg" xmlns:xlink="http://www.w3.org/1999/xlink">
 <path d="M0,0 l2238.75,0 l0,1521 l-2238.75,0 Z M0,0" fill="rgb(255,255,255)" transform="matrix(1,0,0,-1,0,1521)"/>
 <path d="M0,0 l2238.75,0" fill="none" stroke="rgb(229,229,229)" stroke-width="10" transform="matrix(1,0,0,-1,0,1091)"/>
 <path d="M0,5 l0,-25" fill="none" stroke="rgb(204,204,204)" stroke-width="10" transform="matrix(1,0,0,-1,641,1091)"/>
 <path d="M0,5 l0,-25" fill="none" stroke="rgb(204,204,204)" stroke-width="10" transform="matrix(1,0,0,-1,1370,1091)"/>
 <path d="M656,-43 l-7,595 l90,0 l0,8 l-60,60 l-729,0 l0,-8 l60,-60 l130,0 l28,-28 c105,-11,186,-53,186,-136 c0,-20,-5,-47,-14,-73 l-21,-27 l-3,2 l0,7 c0,129,-98,180,-172,180 c-64,0,-109,-39,-109,-94 c0,-55,46,-84,87,-84 c37,0,72,24,72,68 c0,21,-8,39,-28,54 l0,2 c82,-5,123,-82,123,-143 c0,-10,-1,-18,-3,-27 c-17,-18,-32,-27,-45,-27 c-15,0,-32,13,-49,47 l-8,0 l-30,-22 c36,-64,83,-108,132,-108 c32,0,48,18,119,108 c47,59,70,87,99,87 c30,0,74,-32,74,-112 c0,-13,-1,-155,-1,-216 l68,-53 Z M579,552 l0,-43 c0,-97,0,-138,7,-178 l-2,-1 c-34,59,-76,96,-117,96 c-29,0,-53,-17,-81,-52 l-3,2 c6,18,9,38,9,57 c0,44,-17,91,-61,116 l0,3 Z M579,552" fill="rgb(0,0,0)" transform="matrix(1,0,0,-1,641,1091)"/>
</svg>