<?xml version="1.0" encoding="UTF-8"?>
<svg height="1521" version="1.1" width="2238.75" xmlns="http://www.w3.org/2000/svg" xmlns:xlink="http://www.w3.org/1999/xlink">
 <path d="M0,0 l2238.75,0 l0,1521 l-2238.75,0 Z M0,0" fill="rgb(255,255,255)" transform="matrix(1,0,0,-1,0,1521)"/>
 <path d="M0,0 l2238.75,0" fill="none" stroke="rgb(229,229,229)" stroke-width="10" transform="matrix(1,0,0,-1,0,1091)"/>
 <path d="M0,5 l0,-25" fill="none" stroke="rgb(204,204,204)" stroke-width="10" transform="matrix(1,0,0,-1,641,1091)"/>
 <path d="M0,5 l0,-25" fill="none" stroke="rgb(204,204,204)" stroke-width="10" transform="matrix(1,0,0,-1,1513,1091)"/>
 <path d="M362,896 c-20,-23,-28,-51,-28,-75 c0,-67,60,-127,177,-127 c45,0,108,10,147,10 c61,0,91,-22,91,-49 c0,-10,-4,-22,-14,-35 l-281,0 l0,-12 c0,-78,1,-136,7,-187 l-4,-1 c-54,110,-138,170,-235,170 c-115,0,-202,-83,-202,-138 c0,-28,23,-54,56,-54 c31,0,42,25,70,25 c21,0,40,-12,40,-39 c0,-30,-25,-63,-66,-103 l0,-5 l85,-41 c70,74,129,135,198,194 c32,-44,50,-96,50,-138 l0,-102 c0,-69,81,-167,137,-167 c71,0,238,147,238,299 c0,82,-53,132,-115,132 c-57,0,-87,-42,-87,-83 c0,-40,28,-79,76,-79 c11,0,20,2,31,5 c-15,-105,-126,-190,-172,-190 c-21,0,-30,20,-30,57 l0,389 l351,0 l0,8 l-60,60 l-25,0 c-6,91,-60,165,-183,165 c-38,0,-92,-9,-138,-9 c-66,0,-98,15,-98,54 c0,13,4,28,16,46 l-24,20 Z M225,381 l-2,2 c1,5,1,11,1,12 c0,39,-32,68,-76,68 c-1,0,-6,0,-10,-1 l-2,2 c28,34,71,52,115,52 c34,0,65,-12,93,-30 c-50,-42,-86,-73,-119,-105 Z M225,381" fill="rgb(0,0,0)" transform="matrix(1,0,0,-1,641,1091)"/>
</svg>