<?xml version="1.0" encoding="UTF-8"?>
<svg height="1521" version="1.1" width="2238.75" xmlns="http://www.w3.org/2000/svg" xmlns:xlink="http://www.w3.org/1999/xlink">
 <path d="M0,0 l2238.75,0 l0,1521 l-2238.75,0 Z M0,0" fill="rgb(255,255,255)" transform="matrix(1,0,0,-1,0,1521)"/>
 <path d="M0,0 l2238.75,0" fill="none" stroke="rgb(229,229,229)" stroke-width="10" transform="matrix(1,0,0,-1,0,1091)"/>
 <path d="M0,5 l0,-25" fill="none" stroke="rgb(204,204,204)" stroke-width="10" transform="matrix(1,0,0,-1,641,1091)"/>
 <path d="M0,5 l0,-25" fill="none" stroke="rgb(204,204,204)" stroke-width="10" transform="matrix(1,0,0,-1,1401,1091)"/>
 <path d="M524,-65 c127,0,200,69,200,172 c0,57,-23,105,-60,136 l-5,309 l111,0 l0,8 l-60,60 l-123,0 l0,-12 c0,-78,0,-128,6,-179 l-4,-1 c-67,136,-151,195,-253,195 c-130,0,-219,-94,-219,-156 c0,-31,21,-53,54,-53 c33,0,45,25,75,25 c25,0,37,-18,37,-46 c0,-31,-17,-56,-60,-98 l0,-5 l87,-42 c75,79,140,147,215,209 c38,-52,61,-115,61,-163 l0,-16 c-9,1,-18,2,-27,2 c-69,0,-124,-38,-124,-98 c0,-47,35,-82,83,-82 c45,0,75,34,75,68 c0,16,-6,32,-18,46 c7,1,10,1,11,1 c54,0,83,-43,83,-83 c0,-54,-53,-103,-158,-103 c-158,0,-339,110,-454,471 l-30,9 l-10,0 c109,-417,316,-574,507,-574 Z M324,391 l-2,2 c1,6,1,13,1,14 c0,49,-34,77,-80,80 l-2,2 c28,39,73,63,122,63 c37,0,71,-14,101,-35 c-58,-49,-104,-91,-140,-126 Z M324,391" fill="rgb(0,0,0)" transform="matrix(1,0,0,-1,641,1091)"/>
</svg>