<?xml version="1.0" encoding="UTF-8"?>
<svg height="1521" version="1.1" width="2238.75" xmlns="http://www.w3.org/2000/svg" xmlns:xlink="http://www.w3.org/1999/xlink">
 <path d="M0,0 l2238.75,0 l0,1521 l-2238.75,0 Z M0,0" fill="rgb(255,255,255)" transform="matrix(1,0,0,-1,0,1521)"/>
 <path d="M0,0 l2238.75,0" fill="none" stroke="rgb(229,229,229)" stroke-width="10" transform="matrix(1,0,0,-1,0,1091)"/>
 <path d="M0,5 l0,-25" fill="none" stroke="rgb(204,204,204)" stroke-width="10" transform="matrix(1,0,0,-1,641,1091)"/>
 <path d="M0,5 l0,-25" fill="none" stroke="rgb(204,204,204)" stroke-width="10" transform="matrix(1,0,0,-1,1340,1091)"/>
 <path d="M286,31 c-95,0,-132,43,-132,110 c0,27,7,57,17,80 l-23,15 l-9,0 c-18,-30,-32,-75,-32,-117 c0,-106,77,-172,194,-172 c39,0,113,8,163,8 c79,0,111,-20,135,-89 l28,-17 l11,0 c-4,76,-4,159,-4,173 c0,128,2,145,2,226 c0,38,-29,69,-63,88 l0,216 l136,0 l0,8 l-60,60 l-154,0 l0,-12 c0,-78,0,-128,6,-179 l-4,-1 c-67,136,-151,195,-253,195 c-130,0,-219,-94,-219,-156 c0,-31,21,-53,54,-53 c33,0,45,25,75,25 c25,0,37,-18,37,-46 c0,-31,-14,-52,-52,-90 l0,-5 l87,-42 c75,79,133,139,208,201 c24,-31,42,-66,53,-100 c-74,-11,-185,-96,-185,-188 c0,-55,39,-94,103,-94 c58,0,83,33,83,67 c0,38,-29,58,-64,58 c-7,0,-15,-1,-23,-3 l-2,1 c24,62,116,107,138,107 c12,0,20,-11,20,-48 c0,-17,-2,-58,-2,-115 c0,-108,7,-152,12,-173 l-2,-1 c-49,55,-106,66,-165,66 c-32,0,-87,-3,-114,-3 Z M232,391 l-2,2 c1,6,1,13,1,14 c0,49,-34,77,-80,80 l-2,2 c28,39,73,63,122,63 c37,0,71,-13,101,-34 c-57,-50,-104,-92,-140,-127 Z M232,391" fill="rgb(0,0,0)" transform="matrix(1,0,0,-1,641,1091)"/>
</svg>