<?xml version="1.0" encoding="UTF-8"?>
<svg height="1521" version="1.1" width="2238.75" xmlns="http://www.w3.org/2000/svg" xmlns:xlink="http://www.w3.org/1999/xlink">
 <path d="M0,0 l2238.75,0 l0,1521 l-2238.75,0 Z M0,0" fill="rgb(255,255,255)" transform="matrix(1,0,0,-1,0,1521)"/>
 <path d="M0,0 l2238.75,0" fill="none" stroke="rgb(229,229,229)" stroke-width="10" transform="matrix(1,0,0,-1,0,1091)"/>
 <path d="M0,5 l0,-25" fill="none" stroke="rgb(204,204,204)" stroke-width="10" transform="matrix(1,0,0,-1,641,1091)"/>
 <path d="M0,5 l0,-25" fill="none" stroke="rgb(204,204,204)" stroke-width="10" transform="matrix(1,0,0,-1,1311,1091)"/>
 <path d="M518,309 c2,-112,5,-142,11,-180 l-3,-1 c-54,77,-131,107,-191,107 c-82,0,-127,-47,-127,-105 c0,-54,39,-96,97,-96 c56,0,84,38,84,78 c0,25,-12,50,-35,65 l1,2 c111,-7,185,-101,204,-214 l29,-18 l11,0 c-4,101,-5,165,-6,241 l-4,364 l91,0 l0,8 l-60,60 l-101,0 l0,-12 c0,-78,0,-118,6,-169 l-4,-1 c-65,133,-145,192,-259,192 c-147,0,-242,-97,-242,-160 c0,-30,22,-54,53,-54 c38,0,44,30,81,30 c37,0,55,-30,55,-65 c0,-34,-18,-60,-48,-88 l0,-5 l88,-43 c82,87,135,143,216,211 c34,-50,52,-101,53,-147 Z M253,379 l-3,2 c1,8,1,12,1,13 c0,63,-46,97,-100,100 l-2,3 c35,41,89,62,141,62 c44,0,82,-16,115,-40 c-66,-58,-111,-99,-152,-140 Z M253,379" fill="rgb(0,0,0)" transform="matrix(1,0,0,-1,641,1091)"/>
</svg>