<?xml version="1.0" encoding="UTF-8"?>
<svg height="1521" version="1.1" width="2238.75" xmlns="http://www.w3.org/2000/svg" xmlns:xlink="http://www.w3.org/1999/xlink">
 <path d="M0,0 l2238.75,0 l0,1521 l-2238.75,0 Z M0,0" fill="rgb(255,255,255)" transform="matrix(1,0,0,-1,0,1521)"/>
 <path d="M0,0 l2238.75,0" fill="none" stroke="rgb(229,229,229)" stroke-width="10" transform="matrix(1,0,0,-1,0,1091)"/>
 <path d="M0,5 l0,-25" fill="none" stroke="rgb(204,204,204)" stroke-width="10" transform="matrix(1,0,0,-1,641,1091)"/>
 <path d="M0,5 l0,-25" fill="none" stroke="rgb(204,204,204)" stroke-width="10" transform="matrix(1,0,0,-1,1325,1091)"/>
 <path d="M604,552 l90,0 l0,8 l-60,60 l-100,0 l0,-12 c0,-78,0,-118,6,-169 l-4,-1 c-65,133,-145,192,-259,192 c-147,0,-242,-97,-242,-160 c0,-30,21,-54,54,-54 c36,0,43,30,80,30 c31,0,46,-24,46,-54 c0,-33,-15,-54,-45,-84 l0,-5 l25,-12 c-71,-32,-111,-88,-111,-130 c0,-31,22,-53,53,-53 c32,0,39,24,69,24 c25,0,37,-18,37,-45 c0,-28,-14,-47,-45,-74 l0,-5 l87,-42 c68,72,123,129,196,190 c46,-56,81,-133,93,-216 l29,-18 l11,0 c-4,102,-5,127,-6,226 Z M479,457 c53,-75,55,-129,56,-148 c1,-22,1,-101,9,-173 l-4,-1 c-54,112,-138,174,-229,178 c56,53,104,95,168,144 Z M261,388 l-3,2 c1,7,1,11,1,12 c0,56,-44,89,-93,92 l-2,3 c35,41,89,62,141,62 c44,0,82,-16,115,-40 c-69,-54,-115,-93,-159,-131 Z M284,93 l-2,2 c1,5,1,12,1,12 c0,45,-32,70,-75,73 l-2,2 c28,39,74,63,121,63 c31,0,62,-11,91,-30 c-50,-44,-103,-92,-134,-122 Z M284,93" fill="rgb(0,0,0)" transform="matrix(1,0,0,-1,641,1091)"/>
</svg>