<?xml version="1.0" encoding="UTF-8"?>
<svg height="1521" version="1.1" width="2238.75" xmlns="http://www.w3.org/2000/svg" xmlns:xlink="http://www.w3.org/1999/xlink">
 <path d="M0,0 l2238.75,0 l0,1521 l-2238.75,0 Z M0,0" fill="rgb(255,255,255)" transform="matrix(1,0,0,-1,0,1521)"/>
 <path d="M0,0 l2238.75,0" fill="none" stroke="rgb(229,229,229)" stroke-width="10" transform="matrix(1,0,0,-1,0,1091)"/>
 <path d="M0,5 l0,-25" fill="none" stroke="rgb(204,204,204)" stroke-width="10" transform="matrix(1,0,0,-1,641,1091)"/>
 <path d="M0,5 l0,-25" fill="none" stroke="rgb(204,204,204)" stroke-width="10" transform="matrix(1,0,0,-1,1487,1091)"/>
 <path d="M509,620 l0,-12 c0,-78,0,-118,6,-169 l-4,-1 c-64,132,-138,192,-253,192 c-149,0,-238,-102,-238,-164 c0,-32,22,-55,53,-55 c38,0,44,31,81,31 c37,0,53,-32,53,-68 c0,-33,-14,-57,-60,-101 l0,-5 l89,-43 c81,87,146,157,226,226 c32,-49,49,-100,60,-219 c-19,5,-34,6,-42,6 c-67,0,-100,-43,-100,-88 c0,-49,40,-88,95,-88 c40,0,82,20,100,77 c93,-19,141,-111,163,-175 l27,-17 l11,0 c-4,101,-5,165,-5,241 l0,364 l85,0 l0,8 l-60,60 Z M697,113 c-41,46,-81,76,-115,94 c-2,54,-3,117,-3,181 l0,164 l113,0 l0,-157 c0,-146,0,-231,8,-280 Z M251,372 l-3,2 c1,8,1,12,1,13 c0,63,-43,100,-97,103 l-2,3 c33,42,82,66,134,66 c44,0,86,-16,119,-44 c-66,-58,-111,-102,-152,-143 Z M251,372" fill="rgb(0,0,0)" transform="matrix(1,0,0,-1,641,1091)"/>
</svg>