<?xml version="1.0" encoding="UTF-8"?>
<svg height="1521" version="1.1" width="2238.75" xmlns="http://www.w3.org/2000/svg" xmlns:xlink="http://www.w3.org/1999/xlink">
 <path d="M0,0 l2238.75,0 l0,1521 l-2238.75,0 Z M0,0" fill="rgb(255,255,255)" transform="matrix(1,0,0,-1,0,1521)"/>
 <path d="M0,0 l2238.75,0" fill="none" stroke="rgb(229,229,229)" stroke-width="10" transform="matrix(1,0,0,-1,0,1091)"/>
 <path d="M0,5 l0,-25" fill="none" stroke="rgb(204,204,204)" stroke-width="10" transform="matrix(1,0,0,-1,641,1091)"/>
 <path d="M0,5 l0,-25" fill="none" stroke="rgb(204,204,204)" stroke-width="10" transform="matrix(1,0,0,-1,1319,1091)"/>
 <path d="M528,309 c2,-84,2,-138,7,-171 l-2,-1 c-28,59,-66,97,-102,97 c-31,0,-55,-25,-65,-65 c-31,37,-72,70,-126,70 c-66,0,-122,-52,-122,-119 c0,-72,59,-135,138,-135 c58,0,85,35,85,66 c0,28,-20,54,-54,54 c-26,0,-49,-16,-49,-45 c0,-12,4,-23,14,-32 l-1,-2 c-40,0,-61,30,-61,63 c0,44,37,75,85,75 c47,0,96,-30,120,-81 l21,-10 l6,2 c-1,7,-1,12,-1,13 c0,52,17,73,38,73 c26,0,68,-29,107,-196 l31,-18 l11,0 c-5,97,-5,149,-6,273 l-3,332 l89,0 l0,8 l-60,60 l-99,0 l0,-12 c0,-78,0,-118,6,-169 l-4,-1 c-65,133,-145,192,-259,192 c-147,0,-242,-97,-242,-160 c0,-30,22,-54,53,-54 c38,0,44,30,81,30 c37,0,55,-30,55,-65 c0,-34,-18,-60,-48,-88 l0,-5 l88,-43 c82,87,135,143,216,211 c34,-50,52,-101,53,-147 Z M263,379 l-3,2 c1,8,1,12,1,13 c0,63,-46,97,-100,100 l-2,3 c35,41,89,62,141,62 c44,0,82,-16,115,-40 c-66,-58,-111,-99,-152,-140 Z M263,379" fill="rgb(0,0,0)" transform="matrix(1,0,0,-1,641,1091)"/>
</svg>