<?xml version="1.0" encoding="UTF-8"?>
<svg height="1521" version="1.1" width="2238.75" xmlns="http://www.w3.org/2000/svg" xmlns:xlink="http://www.w3.org/1999/xlink">
 <path d="M0,0 l2238.75,0 l0,1521 l-2238.75,0 Z M0,0" fill="rgb(255,255,255)" transform="matrix(1,0,0,-1,0,1521)"/>
 <path d="M0,0 l2238.75,0" fill="none" stroke="rgb(229,229,229)" stroke-width="10" transform="matrix(1,0,0,-1,0,1091)"/>
 <path d="M0,5 l0,-25" fill="none" stroke="rgb(204,204,204)" stroke-width="10" transform="matrix(1,0,0,-1,641,1091)"/>
 <path d="M0,5 l0,-25" fill="none" stroke="rgb(204,204,204)" stroke-width="10" transform="matrix(1,0,0,-1,1510,1091)"/>
 <path d="M328,251 l-26,-26 c34,-49,84,-87,131,-87 c50,0,61,37,116,126 c39,64,64,93,94,93 c31,0,75,-34,75,-123 c0,-13,-1,-164,-1,-224 l68,-53 l11,0 l-7,595 l90,0 l0,8 l-60,60 l-869,0 l0,-8 l60,-60 l265,0 l26,-26 c105,-11,188,-52,188,-138 c0,-20,-4,-51,-26,-87 l-3,1 c-49,129,-149,198,-251,198 c-110,0,-189,-76,-189,-127 c0,-26,21,-50,52,-50 c28,0,39,23,65,23 c18,0,36,-10,36,-33 c0,-28,-26,-59,-66,-96 l0,-5 l84,-40 c68,72,124,131,192,187 c30,-31,49,-67,49,-89 c0,-27,-26,-54,-47,-54 c-13,0,-31,7,-49,35 Z M720,346 c-37,55,-77,95,-122,95 c-31,0,-55,-21,-74,-48 l-2,1 c3,13,5,26,5,40 c0,43,-17,90,-61,115 l0,3 l253,0 l0,-44 c0,-82,0,-125,4,-160 Z M209,311 l-2,2 c1,5,1,10,1,11 c0,39,-35,58,-63,58 c-6,0,-11,-1,-15,-2 l-2,2 c26,31,65,48,108,48 c29,0,57,-8,82,-21 c-46,-40,-79,-69,-109,-98 Z M209,311" fill="rgb(0,0,0)" transform="matrix(1,0,0,-1,641,1091)"/>
</svg>