<?xml version="1.0" encoding="UTF-8"?>
<svg height="1521" version="1.1" width="2238.75" xmlns="http://www.w3.org/2000/svg" xmlns:xlink="http://www.w3.org/1999/xlink">
 <path d="M0,0 l2238.75,0 l0,1521 l-2238.75,0 Z M0,0" fill="rgb(255,255,255)" transform="matrix(1,0,0,-1,0,1521)"/>
 <path d="M0,0 l2238.75,0" fill="none" stroke="rgb(229,229,229)" stroke-width="10" transform="matrix(1,0,0,-1,0,1091)"/>
 <path d="M0,5 l0,-25" fill="none" stroke="rgb(204,204,204)" stroke-width="10" transform="matrix(1,0,0,-1,641,1091)"/>
 <path d="M0,5 l0,-25" fill="none" stroke="rgb(204,204,204)" stroke-width="10" transform="matrix(1,0,0,-1,1375,1091)"/>
 <path d="M398,494 c4,-37,6,-68,6,-98 c0,-109,-26,-170,-55,-212 c-56,56,-110,83,-169,104 l-1,3 c46,36,99,70,153,104 c-46,56,-99,109,-153,155 l1,2 l564,0 l0,8 l-60,60 l-734,0 l0,-8 l87,-87 c77,-1,127,-17,195,-86 c-56,-37,-118,-78,-179,-125 l73,-93 c79,-10,147,-33,199,-67 c-28,-34,-53,-58,-53,-101 c0,-60,44,-146,173,-146 c119,0,217,74,217,166 c0,59,-41,87,-81,87 c-35,0,-65,-21,-65,-60 c0,-24,12,-46,40,-55 c-27,-49,-96,-77,-152,-77 c-36,0,-64,12,-64,48 c0,93,142,113,142,372 c0,8,0,13,-1,28 c10,1,15,1,23,1 c63,0,148,-19,148,-77 c0,-16,-7,-28,-20,-35 c-15,18,-31,27,-52,27 c-40,0,-62,-30,-62,-60 c0,-33,25,-67,72,-67 c52,0,99,41,99,122 c0,99,-69,173,-217,173 c-18,0,-49,-1,-74,-6 Z M623,620 c-6,91,-61,165,-182,165 c-41,0,-96,-9,-145,-9 c-65,0,-97,15,-97,54 c0,13,4,28,16,46 l-24,20 l-8,0 c-20,-23,-28,-51,-28,-75 c0,-67,61,-127,176,-127 c47,0,113,10,153,10 c61,0,91,-22,91,-49 c0,-10,-4,-22,-14,-35 Z M623,620" fill="rgb(0,0,0)" transform="matrix(1,0,0,-1,641,1091)"/>
</svg>