<?xml version="1.0" encoding="UTF-8"?>
<svg height="1521" version="1.1" width="2238.75" xmlns="http://www.w3.org/2000/svg" xmlns:xlink="http://www.w3.org/1999/xlink">
 <path d="M0,0 l2238.75,0 l0,1521 l-2238.75,0 Z M0,0" fill="rgb(255,255,255)" transform="matrix(1,0,0,-1,0,1521)"/>
 <path d="M0,0 l2238.75,0" fill="none" stroke="rgb(229,229,229)" stroke-width="10" transform="matrix(1,0,0,-1,0,1091)"/>
 <path d="M0,5 l0,-25" fill="none" stroke="rgb(204,204,204)" stroke-width="10" transform="matrix(1,0,0,-1,641,1091)"/>
 <path d="M0,5 l0,-25" fill="none" stroke="rgb(204,204,204)" stroke-width="10" transform="matrix(1,0,0,-1,1473,1091)"/>
 <path d="M547,49 l-4,-2 c-58,56,-118,72,-185,72 c-36,0,-95,-4,-127,-4 c-105,0,-149,39,-149,112 c0,26,6,58,20,87 l-23,15 l-9,0 c-21,-35,-35,-81,-35,-125 c0,-109,90,-174,212,-174 c47,0,122,9,185,9 c77,0,114,-13,138,-78 l28,-17 l11,0 c-4,101,-4,198,-4,274 l0,197 c7,1,15,1,16,1 c70,0,159,-16,159,-76 c0,-16,-7,-28,-20,-35 c-15,18,-31,27,-52,27 c-40,0,-62,-30,-62,-60 c0,-33,25,-67,72,-67 c52,0,99,41,99,122 c0,99,-69,173,-217,173 c-18,0,-49,-1,-74,-6 l0,-62 c0,-146,1,-251,10,-300 l-3,-2 c-75,88,-161,138,-235,164 l-1,3 c48,37,96,68,152,103 c-39,48,-92,103,-148,150 l1,2 l580,0 l0,8 l-60,60 l-750,0 l0,-8 l87,-87 c79,-1,126,-19,190,-81 c-58,-38,-115,-76,-178,-124 l71,-90 c143,-19,256,-100,305,-181 Z M547,49" fill="rgb(0,0,0)" transform="matrix(1,0,0,-1,641,1091)"/>
</svg>