<?xml version="1.0" encoding="UTF-8"?>
<svg height="1521" version="1.1" width="2238.75" xmlns="http://www.w3.org/2000/svg" xmlns:xlink="http://www.w3.org/1999/xlink">
 <path d="M0,0 l2238.75,0 l0,1521 l-2238.75,0 Z M0,0" fill="rgb(255,255,255)" transform="matrix(1,0,0,-1,0,1521)"/>
 <path d="M0,0 l2238.75,0" fill="none" stroke="rgb(229,229,229)" stroke-width="10" transform="matrix(1,0,0,-1,0,1091)"/>
 <path d="M0,5 l0,-25" fill="none" stroke="rgb(204,204,204)" stroke-width="10" transform="matrix(1,0,0,-1,641,1091)"/>
 <path d="M0,5 l0,-25" fill="none" stroke="rgb(204,204,204)" stroke-width="10" transform="matrix(1,0,0,-1,1401,1091)"/>
 <path d="M456,41 l-5,-2 c-28,46,-59,72,-91,72 c-28,0,-46,-19,-55,-48 c-29,35,-68,72,-122,72 c-66,0,-121,-49,-121,-114 c0,-67,58,-127,133,-127 c58,0,83,34,83,64 c0,26,-19,51,-50,51 c-29,0,-48,-21,-48,-43 c0,-10,4,-21,13,-29 l-1,-2 c-40,0,-60,31,-60,61 c0,39,37,67,83,67 c48,0,95,-35,117,-84 l21,-10 l6,2 c-1,6,-1,10,-1,11 c0,45,18,60,36,60 c19,0,48,-16,77,-120 l31,-18 l11,0 c-4,101,-5,198,-5,274 l0,237 c7,1,15,1,16,1 c70,0,159,-16,159,-76 c0,-16,-7,-28,-20,-35 c-15,18,-31,27,-52,27 c-40,0,-62,-30,-62,-60 c0,-33,25,-67,72,-67 c52,0,99,41,99,122 c0,99,-69,173,-217,173 c-18,0,-49,-1,-74,-6 l0,-62 c0,-146,1,-241,10,-290 l-3,-2 c-71,86,-168,131,-235,154 l-1,3 c48,37,96,68,152,103 c-39,48,-92,104,-149,150 l1,2 l566,0 l0,8 l-60,60 l-760,0 l0,-8 l84,-84 c110,-2,154,-22,218,-84 c-58,-38,-115,-76,-178,-124 l71,-90 c143,-19,276,-88,311,-189 Z M456,41" fill="rgb(0,0,0)" transform="matrix(1,0,0,-1,641,1091)"/>
</svg>