<?xml version="1.0" encoding="UTF-8"?>
<svg height="1521" version="1.1" width="2238.75" xmlns="http://www.w3.org/2000/svg" xmlns:xlink="http://www.w3.org/1999/xlink">
 <path d="M0,0 l2238.75,0 l0,1521 l-2238.75,0 Z M0,0" fill="rgb(255,255,255)" transform="matrix(1,0,0,-1,0,1521)"/>
 <path d="M0,0 l2238.75,0" fill="none" stroke="rgb(229,229,229)" stroke-width="10" transform="matrix(1,0,0,-1,0,1091)"/>
 <path d="M0,5 l0,-25" fill="none" stroke="rgb(204,204,204)" stroke-width="10" transform="matrix(1,0,0,-1,641,1091)"/>
 <path d="M0,5 l0,-25" fill="none" stroke="rgb(204,204,204)" stroke-width="10" transform="matrix(1,0,0,-1,1568,1091)"/>
 <path d="M937,552 l0,8 l-60,60 l-927,0 l0,-8 l60,-60 l359,0 l0,-22 c-88,-40,-167,-80,-240,-122 l66,-83 c125,-16,177,-62,227,-105 c24,-21,40,-32,61,-32 c35,0,82,36,109,63 c14,-19,21,-38,21,-58 c0,-61,-74,-104,-159,-104 c-170,0,-310,112,-391,388 l-30,9 l-10,0 c45,-231,196,-490,453,-490 c96,0,186,55,186,169 c0,73,-38,134,-104,170 l-5,-1 c-39,-40,-73,-63,-95,-63 c-12,0,-16,7,-16,18 l0,193 c61,-66,136,-114,240,-114 c21,0,49,3,75,9 l3,-2 c-43,-60,-57,-132,-57,-198 c0,-74,16,-153,40,-224 l29,-18 l11,0 c-13,62,-22,126,-22,179 c0,98,31,186,125,260 l0,6 l-113,89 c-44,-20,-86,-29,-128,-29 c-76,0,-147,31,-203,86 l0,26 Z M377,295 l-3,-1 c-38,44,-102,71,-141,84 l-1,4 c45,27,91,49,137,69 l0,-89 c0,-33,4,-52,8,-67 Z M377,295" fill="rgb(0,0,0)" transform="matrix(1,0,0,-1,641,1091)"/>
</svg>