<?xml version="1.0" encoding="UTF-8"?>
<svg height="1521" version="1.1" width="2238.75" xmlns="http://www.w3.org/2000/svg" xmlns:xlink="http://www.w3.org/1999/xlink">
 <path d="M0,0 l2238.75,0 l0,1521 l-2238.75,0 Z M0,0" fill="rgb(255,255,255)" transform="matrix(1,0,0,-1,0,1521)"/>
 <path d="M0,0 l2238.75,0" fill="none" stroke="rgb(229,229,229)" stroke-width="10" transform="matrix(1,0,0,-1,0,1091)"/>
 <path d="M0,5 l0,-25" fill="none" stroke="rgb(204,204,204)" stroke-width="10" transform="matrix(1,0,0,-1,641,1091)"/>
 <path d="M0,5 l0,-25" fill="none" stroke="rgb(204,204,204)" stroke-width="10" transform="matrix(1,0,0,-1,1323,1091)"/>
 <path d="M436,136 c83,-35,120,-123,138,-182 l27,-17 l11,0 c-4,101,-5,165,-5,241 l0,374 l85,0 l0,8 l-60,60 l-102,0 l0,-250 c0,-146,0,-216,8,-265 l-3,-2 c-29,44,-60,82,-99,106 l0,411 l-486,0 l0,-8 l60,-60 l349,0 l0,-42 c-118,-24,-244,-97,-353,-159 l72,-91 c40,-1,74,-6,106,-18 c-40,-22,-78,-47,-111,-68 l67,-84 c131,-10,227,-78,260,-168 l1,-4 l27,-16 l11,0 c-3,100,-3,159,-3,234 Z M138,324 l0,3 c53,32,140,76,221,97 l0,-108 c-41,-9,-85,-27,-128,-48 c-29,24,-61,42,-93,56 Z M369,44 l-3,-2 c-54,59,-110,92,-163,109 l0,3 c38,25,99,60,156,77 c2,-93,4,-160,10,-187 Z M369,44" fill="rgb(0,0,0)" transform="matrix(1,0,0,-1,641,1091)"/>
</svg>