<?xml version="1.0" encoding="UTF-8"?>
<svg height="1521" version="1.1" width="2238.75" xmlns="http://www.w3.org/2000/svg" xmlns:xlink="http://www.w3.org/1999/xlink">
 <path d="M0,0 l2238.75,0 l0,1521 l-2238.75,0 Z M0,0" fill="rgb(255,255,255)" transform="matrix(1,0,0,-1,0,1521)"/>
 <path d="M0,0 l2238.75,0" fill="none" stroke="rgb(229,229,229)" stroke-width="10" transform="matrix(1,0,0,-1,0,1091)"/>
 <path d="M0,5 l0,-25" fill="none" stroke="rgb(204,204,204)" stroke-width="10" transform="matrix(1,0,0,-1,641,1091)"/>
 <path d="M0,5 l0,-25" fill="none" stroke="rgb(204,204,204)" stroke-width="10" transform="matrix(1,0,0,-1,1385,1091)"/>
 <path d="M754,552 l0,8 l-60,60 l-744,0 l0,-8 l60,-60 l359,0 l0,-22 c-88,-40,-167,-80,-240,-122 l66,-83 c125,-16,177,-62,227,-105 c24,-21,40,-32,61,-32 c47,0,111,60,146,105 c17,-24,25,-47,25,-72 c0,-78,-73,-142,-193,-142 c-163,0,-320,120,-398,398 l-30,9 l-10,0 c43,-240,215,-500,458,-500 c132,0,222,75,222,207 c0,87,-39,157,-101,197 l-5,-1 c-53,-71,-107,-118,-139,-118 c-12,0,-16,7,-16,18 l0,263 Z M377,295 l-3,-1 c-38,44,-102,71,-141,84 l-1,4 c45,27,91,49,137,69 l0,-89 c0,-33,4,-52,8,-67 Z M377,295" fill="rgb(0,0,0)" transform="matrix(1,0,0,-1,641,1091)"/>
</svg>