<?xml version="1.0" encoding="UTF-8"?>
<svg height="1521" version="1.1" width="2238.75" xmlns="http://www.w3.org/2000/svg" xmlns:xlink="http://www.w3.org/1999/xlink">
 <path d="M0,0 l2238.75,0 l0,1521 l-2238.75,0 Z M0,0" fill="rgb(255,255,255)" transform="matrix(1,0,0,-1,0,1521)"/>
 <path d="M0,0 l2238.75,0" fill="none" stroke="rgb(229,229,229)" stroke-width="10" transform="matrix(1,0,0,-1,0,1091)"/>
 <path d="M0,5 l0,-25" fill="none" stroke="rgb(204,204,204)" stroke-width="10" transform="matrix(1,0,0,-1,641,1091)"/>
 <path d="M0,5 l0,-25" fill="none" stroke="rgb(204,204,204)" stroke-width="10" transform="matrix(1,0,0,-1,1393,1091)"/>
 <path d="M-50,620 l0,-8 l60,-60 l318,0 l0,-27 c-90,-30,-202,-82,-320,-145 l80,-91 c118,-22,219,-85,261,-171 c28,-51,78,-96,116,-96 c71,0,243,153,243,299 c0,82,-53,132,-115,132 c-57,0,-87,-42,-87,-83 c0,-40,28,-79,76,-79 c11,0,19,2,30,5 c-16,-100,-130,-190,-176,-190 c-21,0,-30,20,-30,57 l0,389 l356,0 l0,8 l-60,60 Z M137,352 l0,1 c61,32,127,61,191,84 c0,-109,3,-193,7,-229 l-3,-2 c-64,81,-133,121,-195,146 Z M137,352" fill="rgb(0,0,0)" transform="matrix(1,0,0,-1,641,1091)"/>
</svg>