<?xml version="1.0" encoding="UTF-8"?>
<svg height="1521" version="1.1" width="2238.75" xmlns="http://www.w3.org/2000/svg" xmlns:xlink="http://www.w3.org/1999/xlink">
 <path d="M0,0 l2238.75,0 l0,1521 l-2238.75,0 Z M0,0" fill="rgb(255,255,255)" transform="matrix(1,0,0,-1,0,1521)"/>
 <path d="M0,0 l2238.75,0" fill="none" stroke="rgb(229,229,229)" stroke-width="10" transform="matrix(1,0,0,-1,0,1091)"/>
 <path d="M0,5 l0,-25" fill="none" stroke="rgb(204,204,204)" stroke-width="10" transform="matrix(1,0,0,-1,641,1091)"/>
 <path d="M0,5 l0,-25" fill="none" stroke="rgb(204,204,204)" stroke-width="10" transform="matrix(1,0,0,-1,1425,1091)"/>
 <path d="M581,209 c0,-71,9,-125,22,-184 l-2,-1 c-44,51,-106,70,-156,70 c-41,0,-173,-13,-235,-13 c-90,0,-133,28,-133,100 c0,18,3,35,10,59 l-23,15 l-9,0 c-14,-36,-20,-65,-20,-94 c0,-103,71,-163,201,-163 c70,0,213,17,274,17 c57,0,102,-15,121,-80 l27,-17 l11,0 c-16,75,-25,145,-25,213 c0,107,22,201,98,273 l0,7 l-123,90 c-83,-67,-144,-134,-203,-213 l-2,1 l0,263 l380,0 l0,8 l-60,60 l-784,0 l0,-8 l60,-60 l325,0 l0,-26 c-82,-27,-182,-74,-291,-131 l79,-89 c69,-13,171,-54,233,-136 l53,-41 l6,0 c65,107,113,176,192,247 l3,-3 c-24,-56,-29,-110,-29,-164 Z M170,367 l0,2 c52,27,109,51,165,70 c0,-81,0,-158,9,-200 l-3,-2 c-57,76,-115,107,-171,130 Z M170,367" fill="rgb(0,0,0)" transform="matrix(1,0,0,-1,641,1091)"/>
</svg>