<?xml version="1.0" encoding="UTF-8"?>
<svg height="1521" version="1.1" width="2238.75" xmlns="http://www.w3.org/2000/svg" xmlns:xlink="http://www.w3.org/1999/xlink">
 <path d="M0,0 l2238.75,0 l0,1521 l-2238.75,0 Z M0,0" fill="rgb(255,255,255)" transform="matrix(1,0,0,-1,0,1521)"/>
 <path d="M0,0 l2238.75,0" fill="none" stroke="rgb(229,229,229)" stroke-width="10" transform="matrix(1,0,0,-1,0,1091)"/>
 <path d="M0,5 l0,-25" fill="none" stroke="rgb(204,204,204)" stroke-width="10" transform="matrix(1,0,0,-1,641,1091)"/>
 <path d="M0,5 l0,-25" fill="none" stroke="rgb(204,204,204)" stroke-width="10" transform="matrix(1,0,0,-1,1315,1091)"/>
 <path d="M534,302 c-1,-44,-2,-82,-2,-142 c0,-61,1,-112,3,-173 l68,-58 l6,3 c-2,71,-3,133,-3,200 c0,66,1,107,3,172 l-89,78 l-71,-28 l0,198 l235,0 l0,8 l-60,60 l-674,0 l0,-8 l60,-60 l362,0 l0,-35 c-117,-45,-235,-101,-353,-166 l72,-91 c38,-1,71,-6,108,-18 c-38,-20,-76,-40,-116,-63 l68,-86 c131,-10,231,-81,263,-175 l27,-16 l11,0 c-3,101,-3,165,-3,241 l0,125 c28,11,56,23,85,34 Z M372,430 l0,-108 c-43,-18,-84,-37,-125,-57 c-31,27,-66,46,-96,59 l0,3 c72,41,146,74,221,103 Z M382,43 l-3,-2 c-54,60,-114,95,-167,112 l0,3 c52,28,105,55,160,79 c1,-89,5,-169,10,-192 Z M382,43" fill="rgb(0,0,0)" transform="matrix(1,0,0,-1,641,1091)"/>
</svg>