<?xml version="1.0" encoding="UTF-8"?>
<svg height="1521" version="1.1" width="2238.75" xmlns="http://www.w3.org/2000/svg" xmlns:xlink="http://www.w3.org/1999/xlink">
 <path d="M0,0 l2238.75,0 l0,1521 l-2238.75,0 Z M0,0" fill="rgb(255,255,255)" transform="matrix(1,0,0,-1,0,1521)"/>
 <path d="M0,0 l2238.75,0" fill="none" stroke="rgb(229,229,229)" stroke-width="10" transform="matrix(1,0,0,-1,0,1091)"/>
 <path d="M0,5 l0,-25" fill="none" stroke="rgb(204,204,204)" stroke-width="10" transform="matrix(1,0,0,-1,641,1091)"/>
 <path d="M0,5 l0,-25" fill="none" stroke="rgb(204,204,204)" stroke-width="10" transform="matrix(1,0,0,-1,1557,1091)"/>
 <path d="M87,229 c167,-25,279,-142,311,-245 l28,-17 l11,0 c-3,101,-4,165,-4,241 c0,36,0,51,-1,107 l2,1 l60,-85 c168,-25,280,-145,314,-247 l28,-17 l11,0 c-5,101,-6,165,-6,241 l0,344 l85,0 l0,8 l-60,60 l-916,0 l0,-8 l60,-60 l345,0 l0,-34 c-95,-39,-221,-110,-347,-190 Z M762,552 l0,-34 c-93,-39,-210,-104,-329,-181 l0,215 Z M548,304 l0,2 c69,45,142,85,214,116 c0,-146,1,-250,10,-299 l-3,-2 c-74,104,-149,153,-221,183 Z M141,302 l0,2 c69,46,142,86,214,118 c0,-146,1,-250,10,-299 l-3,-2 c-74,103,-149,151,-221,181 Z M141,302" fill="rgb(0,0,0)" transform="matrix(1,0,0,-1,641,1091)"/>
</svg>