<?xml version="1.0" encoding="UTF-8"?>
<svg height="1521" version="1.1" width="2238.75" xmlns="http://www.w3.org/2000/svg" xmlns:xlink="http://www.w3.org/1999/xlink">
 <path d="M0,0 l2238.75,0 l0,1521 l-2238.75,0 Z M0,0" fill="rgb(255,255,255)" transform="matrix(1,0,0,-1,0,1521)"/>
 <path d="M0,0 l2238.75,0" fill="none" stroke="rgb(229,229,229)" stroke-width="10" transform="matrix(1,0,0,-1,0,1091)"/>
 <path d="M0,5 l0,-25" fill="none" stroke="rgb(204,204,204)" stroke-width="10" transform="matrix(1,0,0,-1,641,1091)"/>
 <path d="M0,5 l0,-25" fill="none" stroke="rgb(204,204,204)" stroke-width="10" transform="matrix(1,0,0,-1,1330,1091)"/>
 <path d="M75,490 l-30,9 l-10,0 c63,-457,229,-582,397,-582 c142,0,214,90,214,189 c0,62,-29,127,-92,173 c-2,25,-1,54,-1,77 l0,196 l146,0 l0,8 l-60,60 l-689,0 l0,-8 l60,-60 l470,0 l0,-19 c-104,-38,-204,-80,-289,-123 l66,-84 c104,0,187,-27,245,-93 c-30,-41,-66,-61,-111,-69 l-1,2 c8,12,11,24,11,36 c0,35,-30,55,-61,55 c-34,0,-71,-22,-71,-68 c0,-50,47,-98,125,-98 c72,0,133,40,176,110 c18,-26,26,-49,26,-70 c0,-72,-85,-119,-178,-119 c-138,0,-272,105,-343,478 Z M488,294 l-3,-1 c-47,43,-101,73,-162,88 l-1,4 c52,25,104,47,158,64 l0,-69 c0,-48,4,-71,8,-86 Z M488,294" fill="rgb(0,0,0)" transform="matrix(1,0,0,-1,641,1091)"/>
</svg>