<?xml version="1.0" encoding="UTF-8"?>
<svg height="1521" version="1.1" width="2238.75" xmlns="http://www.w3.org/2000/svg" xmlns:xlink="http://www.w3.org/1999/xlink">
 <path d="M0,0 l2238.75,0 l0,1521 l-2238.75,0 Z M0,0" fill="rgb(255,255,255)" transform="matrix(1,0,0,-1,0,1521)"/>
 <path d="M0,0 l2238.75,0" fill="none" stroke="rgb(229,229,229)" stroke-width="10" transform="matrix(1,0,0,-1,0,1091)"/>
 <path d="M0,5 l0,-25" fill="none" stroke="rgb(204,204,204)" stroke-width="10" transform="matrix(1,0,0,-1,641,1091)"/>
 <path d="M0,5 l0,-25" fill="none" stroke="rgb(204,204,204)" stroke-width="10" transform="matrix(1,0,0,-1,1317,1091)"/>
 <path d="M522,523 c-103,-35,-231,-95,-367,-168 l86,-97 c137,-27,255,-104,304,-207 l-4,-2 c-58,56,-116,70,-183,70 c-36,0,-95,-4,-127,-4 c-105,0,-149,39,-149,112 c0,26,6,58,20,87 l-23,15 l-9,0 c-21,-35,-35,-81,-35,-125 c0,-109,90,-174,212,-174 c47,0,122,9,185,9 c77,0,115,-13,136,-78 l28,-17 l11,0 c-5,97,-6,158,-6,230 l0,378 l85,0 l0,8 l-60,60 l-676,0 l0,-8 l60,-60 l512,0 Z M293,325 l0,2 c73,39,152,74,229,102 c0,-135,0,-234,5,-279 l-3,-2 c-77,101,-156,147,-231,177 Z M293,325" fill="rgb(0,0,0)" transform="matrix(1,0,0,-1,641,1091)"/>
</svg>