<?xml version="1.0" encoding="UTF-8"?>
<svg height="1521" version="1.1" width="2238.75" xmlns="http://www.w3.org/2000/svg" xmlns:xlink="http://www.w3.org/1999/xlink">
 <path d="M0,0 l2238.75,0 l0,1521 l-2238.75,0 Z M0,0" fill="rgb(255,255,255)" transform="matrix(1,0,0,-1,0,1521)"/>
 <path d="M0,0 l2238.75,0" fill="none" stroke="rgb(229,229,229)" stroke-width="10" transform="matrix(1,0,0,-1,0,1091)"/>
 <path d="M0,5 l0,-25" fill="none" stroke="rgb(204,204,204)" stroke-width="10" transform="matrix(1,0,0,-1,641,1091)"/>
 <path d="M0,5 l0,-25" fill="none" stroke="rgb(204,204,204)" stroke-width="10" transform="matrix(1,0,0,-1,1210,1091)"/>
 <path d="M443,54 c-34,67,-66,98,-102,98 c-30,0,-51,-19,-61,-59 c-31,37,-68,71,-122,71 c-66,0,-120,-49,-120,-114 c0,-67,58,-127,133,-127 c58,0,83,34,83,64 c0,26,-19,51,-50,51 c-29,0,-48,-21,-48,-43 c0,-10,4,-21,13,-29 l-1,-2 c-40,0,-60,31,-60,61 c0,39,36,67,82,67 c48,0,94,-32,118,-83 l21,-10 l6,2 c-1,7,-1,12,-1,13 c0,52,18,69,38,69 c21,0,52,-20,83,-148 l31,-18 l11,0 c-3,101,-3,165,-3,241 l0,394 l85,0 l0,8 l-60,60 l-569,0 l0,-8 l60,-60 l405,0 l0,-29 c-101,-36,-252,-102,-361,-160 l80,-100 c175,-11,273,-73,312,-208 Z M191,334 l0,2 c72,36,146,67,224,95 c0,-138,1,-208,8,-247 l-3,-2 c-71,91,-154,130,-229,152 Z M191,334" fill="rgb(0,0,0)" transform="matrix(1,0,0,-1,641,1091)"/>
</svg>