<?xml version="1.0" encoding="UTF-8"?>
<svg height="1521" version="1.1" width="2238.75" xmlns="http://www.w3.org/2000/svg" xmlns:xlink="http://www.w3.org/1999/xlink">
 <path d="M0,0 l2238.75,0 l0,1521 l-2238.75,0 Z M0,0" fill="rgb(255,255,255)" transform="matrix(1,0,0,-1,0,1521)"/>
 <path d="M0,0 l2238.75,0" fill="none" stroke="rgb(229,229,229)" stroke-width="10" transform="matrix(1,0,0,-1,0,1091)"/>
 <path d="M0,5 l0,-25" fill="none" stroke="rgb(204,204,204)" stroke-width="10" transform="matrix(1,0,0,-1,641,1091)"/>
 <path d="M0,5 l0,-25" fill="none" stroke="rgb(204,204,204)" stroke-width="10" transform="matrix(1,0,0,-1,1243,1091)"/>
 <path d="M409,508 l-5,-1 c-40,-86,-99,-131,-152,-137 l-2,3 c16,15,23,33,23,53 c0,50,-40,75,-81,75 c-45,0,-91,-32,-91,-88 c0,-63,55,-118,150,-118 c85,0,149,44,193,115 l3,-1 l0,-85 c1,-106,6,-155,13,-188 l-2,-1 c-28,59,-65,97,-103,97 c-30,0,-54,-25,-64,-65 c-30,36,-72,70,-125,70 c-68,0,-121,-57,-121,-124 c0,-72,59,-135,138,-135 c58,0,85,35,85,66 c0,28,-20,54,-54,54 c-26,0,-49,-16,-49,-45 c0,-12,4,-23,14,-32 l-1,-2 c-40,0,-61,29,-61,64 c0,43,35,79,84,79 c46,0,95,-30,119,-81 l21,-10 l6,2 c-1,7,-1,12,-1,13 c0,52,17,73,38,73 c26,0,68,-29,107,-196 l31,-18 l11,0 c-5,97,-6,213,-6,305 l0,127 c0,45,-29,98,-118,131 Z M612,552 l0,8 l-60,60 l-602,0 l0,-8 l60,-60 Z M612,552" fill="rgb(0,0,0)" transform="matrix(1,0,0,-1,641,1091)"/>
</svg>