<?xml version="1.0" encoding="UTF-8"?>
<svg height="1521" version="1.1" width="2238.75" xmlns="http://www.w3.org/2000/svg" xmlns:xlink="http://www.w3.org/1999/xlink">
 <path d="M0,0 l2238.75,0 l0,1521 l-2238.75,0 Z M0,0" fill="rgb(255,255,255)" transform="matrix(1,0,0,-1,0,1521)"/>
 <path d="M0,0 l2238.75,0" fill="none" stroke="rgb(229,229,229)" stroke-width="10" transform="matrix(1,0,0,-1,0,1091)"/>
 <path d="M0,5 l0,-25" fill="none" stroke="rgb(204,204,204)" stroke-width="10" transform="matrix(1,0,0,-1,641,1091)"/>
 <path d="M0,5 l0,-25" fill="none" stroke="rgb(204,204,204)" stroke-width="10" transform="matrix(1,0,0,-1,1348,1091)"/>
 <path d="M455,-39 c123,0,200,79,200,191 c0,75,-35,137,-89,169 l1,2 c42,12,69,54,69,108 c0,46,-20,92,-46,121 l127,0 l0,8 l-60,60 l-707,0 l0,-8 l60,-60 l194,0 c34,0,72,0,82,-46 c-7,1,-14,1,-21,1 c-69,0,-100,-41,-100,-84 c0,-43,30,-88,90,-88 c46,0,88,28,88,102 l0,11 l2,1 c20,-13,36,-40,57,-65 c12,-15,28,-31,44,-40 l0,-4 c-62,-12,-109,-56,-109,-114 c0,-60,49,-92,97,-92 c43,0,85,27,85,78 c0,24,-9,47,-32,63 c8,2,15,3,23,3 c49,0,90,-46,90,-100 c0,-64,-57,-123,-159,-123 c-137,0,-280,103,-384,445 l-30,9 l-10,0 c101,-398,268,-548,438,-548 Z M308,552 l178,0 c62,0,85,-43,85,-81 c0,-41,-25,-68,-68,-68 c-64,0,-107,62,-168,90 c-6,20,-15,40,-27,59 Z M308,552" fill="rgb(0,0,0)" transform="matrix(1,0,0,-1,641,1091)"/>
</svg>