<?xml version="1.0" encoding="UTF-8"?>
<svg height="1521" version="1.1" width="2238.75" xmlns="http://www.w3.org/2000/svg" xmlns:xlink="http://www.w3.org/1999/xlink">
 <path d="M0,0 l2238.75,0 l0,1521 l-2238.75,0 Z M0,0" fill="rgb(255,255,255)" transform="matrix(1,0,0,-1,0,1521)"/>
 <path d="M0,0 l2238.75,0" fill="none" stroke="rgb(229,229,229)" stroke-width="10" transform="matrix(1,0,0,-1,0,1091)"/>
 <path d="M0,5 l0,-25" fill="none" stroke="rgb(204,204,204)" stroke-width="10" transform="matrix(1,0,0,-1,641,1091)"/>
 <path d="M0,5 l0,-25" fill="none" stroke="rgb(204,204,204)" stroke-width="10" transform="matrix(1,0,0,-1,1430,1091)"/>
 <path d="M-50,612 l60,-60 l66,0 c34,0,70,-4,80,-43 c-6,1,-13,2,-23,2 c-66,0,-100,-42,-100,-83 c0,-42,35,-84,90,-84 c50,0,89,33,89,106 l2,1 c13,-9,37,-38,50,-54 c16,-20,39,-43,71,-54 l0,-155 l79,-78 l6,0 c46,66,102,147,195,212 l2,-3 c-21,-47,-26,-94,-26,-141 c0,-78,14,-145,36,-205 l29,-18 l11,0 c-9,53,-14,110,-14,158 c0,94,21,177,94,241 l0,6 l-114,79 c-82,-55,-168,-133,-220,-193 l-2,1 l0,93 c45,12,87,48,87,110 c0,36,-16,71,-41,102 l342,0 l0,8 l-60,60 l-789,0 Z M180,552 l172,0 c53,0,76,-35,76,-63 c0,-33,-31,-63,-78,-63 c-57,0,-95,45,-144,69 c-6,20,-13,41,-26,57 Z M180,552" fill="rgb(0,0,0)" transform="matrix(1,0,0,-1,641,1091)"/>
</svg>