<?xml version="1.0" encoding="UTF-8"?>
<svg height="1521" version="1.1" width="2238.75" xmlns="http://www.w3.org/2000/svg" xmlns:xlink="http://www.w3.org/1999/xlink">
 <path d="M0,0 l2238.75,0 l0,1521 l-2238.75,0 Z M0,0" fill="rgb(255,255,255)" transform="matrix(1,0,0,-1,0,1521)"/>
 <path d="M0,0 l2238.75,0" fill="none" stroke="rgb(229,229,229)" stroke-width="10" transform="matrix(1,0,0,-1,0,1091)"/>
 <path d="M0,5 l0,-25" fill="none" stroke="rgb(204,204,204)" stroke-width="10" transform="matrix(1,0,0,-1,641,1091)"/>
 <path d="M0,5 l0,-25" fill="none" stroke="rgb(204,204,204)" stroke-width="10" transform="matrix(1,0,0,-1,1239,1091)"/>
 <path d="M415,155 l-3,-1 c-54,77,-131,107,-191,107 c-82,0,-126,-48,-126,-106 c0,-54,39,-96,97,-96 c56,0,84,38,84,78 c0,25,-12,50,-35,65 l1,2 c132,-8,196,-135,206,-219 l29,-18 l11,0 c-4,101,-5,165,-5,241 l0,116 c34,22,55,60,55,109 c0,44,-19,91,-44,119 l114,0 l0,8 l-60,60 l-598,0 l0,-8 l60,-60 l66,0 c34,0,72,-5,82,-52 c-8,1,-15,2,-23,2 c-69,0,-102,-44,-102,-87 c0,-44,34,-88,92,-88 c47,0,91,28,91,102 c0,4,0,9,-1,14 l2,1 c20,-14,36,-40,56,-66 c27,-37,63,-73,132,-74 c1,-76,5,-118,10,-149 Z M180,552 l202,0 c63,0,90,-44,90,-78 c0,-41,-39,-76,-93,-76 c-72,0,-109,59,-171,89 c-6,23,-15,45,-28,65 Z M180,552" fill="rgb(0,0,0)" transform="matrix(1,0,0,-1,641,1091)"/>
</svg>