<?xml version="1.0" encoding="UTF-8"?>
<svg height="1521" version="1.1" width="2238.75" xmlns="http://www.w3.org/2000/svg" xmlns:xlink="http://www.w3.org/1999/xlink">
 <path d="M0,0 l2238.75,0 l0,1521 l-2238.75,0 Z M0,0" fill="rgb(255,255,255)" transform="matrix(1,0,0,-1,0,1521)"/>
 <path d="M0,0 l2238.75,0" fill="none" stroke="rgb(229,229,229)" stroke-width="10" transform="matrix(1,0,0,-1,0,1091)"/>
 <path d="M0,5 l0,-25" fill="none" stroke="rgb(204,204,204)" stroke-width="10" transform="matrix(1,0,0,-1,641,1091)"/>
 <path d="M0,5 l0,-25" fill="none" stroke="rgb(204,204,204)" stroke-width="10" transform="matrix(1,0,0,-1,1692,1091)"/>
 <path d="M973,552 l88,0 l0,8 l-60,60 l-100,0 l0,-12 c0,-78,0,-130,6,-181 l-4,-1 c-62,138,-140,199,-251,199 c-86,0,-151,-42,-191,-86 c-14,25,-35,51,-66,81 l-445,0 l0,-8 l60,-60 l66,0 c34,0,72,-5,82,-52 c-7,1,-15,2,-25,2 c-66,0,-100,-43,-100,-85 c0,-43,34,-86,92,-86 c47,0,90,27,90,101 l0,11 l1,1 c11,-8,33,-38,49,-58 c25,-31,63,-63,123,-63 c61,0,75,34,96,65 c17,25,32,48,64,48 c35,0,51,-22,51,-58 c0,-33,-15,-56,-60,-100 l0,-5 l89,-43 c77,84,144,152,222,217 c31,-48,50,-101,50,-164 l0,-98 c0,-34,7,-74,21,-101 l-4,-2 c-59,65,-117,77,-179,77 c-60,0,-199,-12,-267,-12 c-104,0,-165,28,-165,116 c0,11,1,24,3,37 l-23,15 l-9,0 c-7,-25,-11,-52,-11,-75 c0,-110,82,-176,221,-176 c71,0,245,17,310,17 c89,0,122,-32,148,-107 l28,-17 l11,0 c-5,89,-8,167,-8,200 Z M180,552 l164,0 c58,0,81,-39,81,-70 c0,-36,-30,-67,-77,-67 c-57,0,-91,47,-140,72 c-6,23,-15,46,-28,65 Z M643,377 l-3,2 c1,8,1,12,1,13 c0,63,-43,94,-98,96 l-2,3 c35,42,92,63,140,63 c41,0,81,-16,109,-43 c-61,-55,-108,-95,-147,-134 Z M643,377" fill="rgb(0,0,0)" transform="matrix(1,0,0,-1,641,1091)"/>
</svg>