<?xml version="1.0" encoding="UTF-8"?>
<svg height="1521" version="1.1" width="2238.75" xmlns="http://www.w3.org/2000/svg" xmlns:xlink="http://www.w3.org/1999/xlink">
 <path d="M0,0 l2238.75,0 l0,1521 l-2238.75,0 Z M0,0" fill="rgb(255,255,255)" transform="matrix(1,0,0,-1,0,1521)"/>
 <path d="M0,0 l2238.75,0" fill="none" stroke="rgb(229,229,229)" stroke-width="10" transform="matrix(1,0,0,-1,0,1091)"/>
 <path d="M0,5 l0,-25" fill="none" stroke="rgb(204,204,204)" stroke-width="10" transform="matrix(1,0,0,-1,641,1091)"/>
 <path d="M0,5 l0,-25" fill="none" stroke="rgb(204,204,204)" stroke-width="10" transform="matrix(1,0,0,-1,1563,1091)"/>
 <path d="M-50,612 l60,-60 l66,0 c34,0,70,-4,80,-43 c-6,1,-13,2,-23,2 c-66,0,-100,-42,-100,-83 c0,-42,35,-84,90,-84 c50,0,89,33,89,106 l2,1 c13,-9,37,-40,50,-56 c22,-27,57,-58,110,-58 l14,0 c11,-7,21,-16,32,-25 c-51,-33,-105,-69,-161,-111 l73,-93 c165,-16,273,-97,303,-174 l28,-17 l11,0 c-4,101,-4,165,-4,241 l0,257 c7,1,15,1,16,1 c70,0,159,-16,159,-76 c0,-16,-7,-28,-20,-35 c-15,18,-31,27,-52,27 c-40,0,-62,-30,-62,-60 c0,-33,25,-67,72,-67 c52,0,99,41,99,122 c0,99,-69,173,-217,173 c-18,0,-49,-1,-74,-6 l0,-124 c0,-156,1,-268,10,-320 l-3,-2 c-70,67,-148,104,-216,124 l-1,3 c42,31,94,66,143,96 c-27,30,-55,56,-85,81 c32,17,57,48,57,96 c0,36,-17,72,-40,104 l476,0 l0,8 l-60,60 l-922,0 Z M180,552 l169,0 c53,0,76,-35,76,-63 c0,-33,-29,-61,-76,-61 c-57,0,-94,43,-143,67 c-6,20,-13,41,-26,57 Z M180,552" fill="rgb(0,0,0)" transform="matrix(1,0,0,-1,641,1091)"/>
</svg>