<?xml version="1.0" encoding="UTF-8"?>
<svg height="1521" version="1.1" width="2238.75" xmlns="http://www.w3.org/2000/svg" xmlns:xlink="http://www.w3.org/1999/xlink">
 <path d="M0,0 l2238.75,0 l0,1521 l-2238.75,0 Z M0,0" fill="rgb(255,255,255)" transform="matrix(1,0,0,-1,0,1521)"/>
 <path d="M0,0 l2238.75,0" fill="none" stroke="rgb(229,229,229)" stroke-width="10" transform="matrix(1,0,0,-1,0,1091)"/>
 <path d="M0,5 l0,-25" fill="none" stroke="rgb(204,204,204)" stroke-width="10" transform="matrix(1,0,0,-1,641,1091)"/>
 <path d="M0,5 l0,-25" fill="none" stroke="rgb(204,204,204)" stroke-width="10" transform="matrix(1,0,0,-1,1563,1091)"/>
 <path d="M-50,612 l60,-60 l66,0 c34,0,70,-4,80,-43 c-6,1,-13,2,-23,2 c-66,0,-100,-42,-100,-83 c0,-42,35,-84,90,-84 c50,0,89,33,89,106 l2,1 c16,-11,48,-52,50,-54 c10,-10,42,-57,109,-57 c8,0,15,0,23,2 l19,-16 c-51,-33,-105,-69,-161,-111 l73,-93 c163,-16,253,-97,285,-155 l-4,-2 c-58,56,-118,72,-185,72 c-36,0,-95,-4,-127,-4 c-105,0,-149,39,-149,112 c0,26,6,58,20,87 l-23,15 l-9,0 c-21,-35,-35,-81,-35,-125 c0,-109,90,-174,212,-174 c47,0,122,9,185,9 c77,0,114,-13,138,-78 l28,-17 l11,0 c-4,101,-4,198,-4,274 l0,279 c7,1,15,1,16,1 c70,0,159,-16,159,-76 c0,-16,-7,-28,-20,-35 c-15,18,-31,27,-52,27 c-40,0,-62,-30,-62,-60 c0,-33,25,-67,72,-67 c52,0,99,41,99,122 c0,99,-69,173,-217,173 c-18,0,-49,-1,-74,-6 l0,-124 c0,-156,1,-268,10,-320 l-3,-2 c-50,57,-153,118,-221,138 l-1,3 c42,31,94,66,143,96 c-24,27,-49,50,-76,73 c30,18,52,48,52,92 c0,37,-16,69,-39,102 l476,0 l0,8 l-60,60 l-922,0 Z M180,552 l169,0 c53,0,75,-32,75,-60 c0,-33,-29,-61,-76,-61 c-57,0,-93,40,-142,64 c-6,20,-13,41,-26,57 Z M180,552" fill="rgb(0,0,0)" transform="matrix(1,0,0,-1,641,1091)"/>
</svg>