<?xml version="1.0" encoding="UTF-8"?>
<svg height="1521" version="1.1" width="2238.75" xmlns="http://www.w3.org/2000/svg" xmlns:xlink="http://www.w3.org/1999/xlink">
 <path d="M0,0 l2238.75,0 l0,1521 l-2238.75,0 Z M0,0" fill="rgb(255,255,255)" transform="matrix(1,0,0,-1,0,1521)"/>
 <path d="M0,0 l2238.75,0" fill="none" stroke="rgb(229,229,229)" stroke-width="10" transform="matrix(1,0,0,-1,0,1091)"/>
 <path d="M0,5 l0,-25" fill="none" stroke="rgb(204,204,204)" stroke-width="10" transform="matrix(1,0,0,-1,641,1091)"/>
 <path d="M0,5 l0,-25" fill="none" stroke="rgb(204,204,204)" stroke-width="10" transform="matrix(1,0,0,-1,1239,1091)"/>
 <path d="M217,444 c20,-14,36,-38,56,-64 c12,-17,28,-33,46,-46 c-64,-32,-139,-73,-209,-118 l75,-94 c136,-13,225,-77,263,-148 l28,-17 l11,0 c-4,82,-4,129,-4,183 l0,184 c34,22,55,60,55,109 c0,44,-19,91,-44,119 l114,0 l0,8 l-60,60 l-598,0 l0,-8 l60,-60 l66,0 c34,0,72,-5,82,-52 c-8,1,-15,2,-23,2 c-69,0,-102,-44,-102,-87 c0,-44,34,-88,92,-88 c47,0,91,28,91,102 c0,4,0,9,-1,14 Z M180,552 l202,0 c63,0,90,-44,90,-78 c0,-41,-39,-76,-93,-76 c-72,0,-109,59,-171,89 c-6,23,-15,45,-28,65 Z M241,192 l-1,3 c49,33,115,65,166,88 c0,-97,2,-178,11,-210 l-3,-2 c-45,56,-118,102,-173,121 Z M241,192" fill="rgb(0,0,0)" transform="matrix(1,0,0,-1,641,1091)"/>
</svg>