<?xml version="1.0" encoding="UTF-8"?>
<svg height="1521" version="1.1" width="2238.75" xmlns="http://www.w3.org/2000/svg" xmlns:xlink="http://www.w3.org/1999/xlink">
 <path d="M0,0 l2238.75,0 l0,1521 l-2238.75,0 Z M0,0" fill="rgb(255,255,255)" transform="matrix(1,0,0,-1,0,1521)"/>
 <path d="M0,0 l2238.75,0" fill="none" stroke="rgb(229,229,229)" stroke-width="10" transform="matrix(1,0,0,-1,0,1091)"/>
 <path d="M0,5 l0,-25" fill="none" stroke="rgb(204,204,204)" stroke-width="10" transform="matrix(1,0,0,-1,641,1091)"/>
 <path d="M0,5 l0,-25" fill="none" stroke="rgb(204,204,204)" stroke-width="10" transform="matrix(1,0,0,-1,1350,1091)"/>
 <path d="M-50,612 l60,-60 l194,0 c34,0,69,-5,79,-39 c-6,1,-13,2,-22,2 c-66,0,-100,-41,-100,-81 c0,-41,35,-82,90,-82 c49,0,88,32,88,102 l2,1 c11,-7,28,-26,53,-57 c21,-27,65,-63,118,-63 c6,0,11,0,17,1 c-40,-69,-84,-101,-130,-110 l-2,3 c12,12,17,26,17,39 c0,32,-29,61,-68,61 c-41,0,-85,-29,-85,-81 c0,-54,46,-101,133,-101 c79,0,136,39,184,111 c20,-25,28,-50,28,-70 c0,-59,-69,-130,-186,-130 c-135,0,-274,95,-345,432 l-30,9 l-10,0 c63,-419,234,-536,399,-536 c139,0,221,84,221,197 c0,70,-31,144,-96,183 c41,14,75,48,75,104 c0,37,-18,78,-41,105 l126,0 l0,8 l-60,60 l-709,0 Z M308,552 l179,0 c53,0,76,-35,76,-63 c0,-33,-29,-63,-78,-63 c-60,0,-104,50,-152,73 c-6,19,-13,38,-25,53 Z M308,552" fill="rgb(0,0,0)" transform="matrix(1,0,0,-1,641,1091)"/>
</svg>