<?xml version="1.0" encoding="UTF-8"?>
<svg height="1521" version="1.1" width="2238.75" xmlns="http://www.w3.org/2000/svg" xmlns:xlink="http://www.w3.org/1999/xlink">
 <path d="M0,0 l2238.75,0 l0,1521 l-2238.75,0 Z M0,0" fill="rgb(255,255,255)" transform="matrix(1,0,0,-1,0,1521)"/>
 <path d="M0,0 l2238.75,0" fill="none" stroke="rgb(229,229,229)" stroke-width="10" transform="matrix(1,0,0,-1,0,1091)"/>
 <path d="M0,5 l0,-25" fill="none" stroke="rgb(204,204,204)" stroke-width="10" transform="matrix(1,0,0,-1,641,1091)"/>
 <path d="M0,5 l0,-25" fill="none" stroke="rgb(204,204,204)" stroke-width="10" transform="matrix(1,0,0,-1,1282,1091)"/>
 <path d="M-50,612 l60,-60 l139,0 c34,0,70,-4,80,-43 c-6,1,-13,2,-23,2 c-66,0,-100,-42,-100,-83 c0,-42,35,-84,90,-84 c50,0,89,33,89,106 l2,1 c11,-7,28,-26,53,-56 c21,-26,63,-57,116,-57 l14,0 c-32,-76,-89,-111,-126,-116 l-1,2 c9,11,13,24,13,36 c0,32,-27,62,-69,62 c-37,0,-76,-26,-76,-74 c0,-55,48,-100,128,-100 c66,0,119,32,154,81 l2,-1 l0,-13 c0,-119,8,-194,12,-217 l-2,-1 c-52,59,-100,69,-156,69 c-40,0,-86,-6,-121,-6 c-103,0,-145,46,-145,125 c0,30,6,65,24,98 l-23,15 l-9,0 c-25,-39,-40,-90,-40,-139 c0,-114,86,-185,207,-185 c48,0,113,11,164,11 c78,0,112,-25,134,-104 l28,-17 l11,0 c-4,85,-4,192,-4,206 l0,147 c0,41,-26,91,-85,125 c46,10,89,44,89,105 c0,37,-18,78,-41,105 l113,0 l0,8 l-60,60 l-641,0 Z M253,552 l179,0 c53,0,76,-35,76,-63 c0,-33,-30,-60,-79,-60 c-60,0,-102,44,-150,66 c-6,20,-13,41,-26,57 Z M253,552" fill="rgb(0,0,0)" transform="matrix(1,0,0,-1,641,1091)"/>
</svg>