<?xml version="1.0" encoding="UTF-8"?>
<svg height="1521" version="1.1" width="2238.75" xmlns="http://www.w3.org/2000/svg" xmlns:xlink="http://www.w3.org/1999/xlink">
 <path d="M0,0 l2238.75,0 l0,1521 l-2238.75,0 Z M0,0" fill="rgb(255,255,255)" transform="matrix(1,0,0,-1,0,1521)"/>
 <path d="M0,0 l2238.75,0" fill="none" stroke="rgb(229,229,229)" stroke-width="10" transform="matrix(1,0,0,-1,0,1091)"/>
 <path d="M0,5 l0,-25" fill="none" stroke="rgb(204,204,204)" stroke-width="10" transform="matrix(1,0,0,-1,641,1091)"/>
 <path d="M0,5 l0,-25" fill="none" stroke="rgb(204,204,204)" stroke-width="10" transform="matrix(1,0,0,-1,1414,1091)"/>
 <path d="M511,154 c90,-24,134,-115,154,-179 l27,-17 l11,0 c-4,101,-5,164,-5,240 l0,354 l85,0 l0,8 l-60,60 l-773,0 l0,-8 l60,-60 l66,0 c34,0,72,0,82,-47 c-8,1,-15,2,-23,2 c-69,0,-102,-44,-102,-87 c0,-44,34,-88,92,-88 c47,0,91,28,91,102 c0,4,0,9,-1,14 l2,1 c20,-14,35,-32,55,-58 c28,-37,64,-74,135,-74 c6,0,11,0,17,1 c24,-15,32,-38,32,-55 c0,-5,-1,-10,-2,-15 c-12,3,-24,5,-36,5 c-61,0,-101,-38,-101,-88 c0,-49,40,-88,95,-88 c40,0,82,20,99,77 Z M536,444 c0,44,-15,80,-40,108 l123,0 l0,-147 c0,-146,0,-231,8,-280 l-3,-2 c-27,37,-64,73,-104,98 c0,26,-9,73,-50,109 c40,20,66,60,66,114 Z M180,552 l202,0 c63,0,88,-33,88,-67 c0,-41,-38,-74,-92,-74 c-72,0,-109,54,-171,82 c-6,20,-15,40,-27,59 Z M180,552" fill="rgb(0,0,0)" transform="matrix(1,0,0,-1,641,1091)"/>
</svg>