<?xml version="1.0" encoding="UTF-8"?>
<svg height="1521" version="1.1" width="2238.75" xmlns="http://www.w3.org/2000/svg" xmlns:xlink="http://www.w3.org/1999/xlink">
 <path d="M0,0 l2238.75,0 l0,1521 l-2238.75,0 Z M0,0" fill="rgb(255,255,255)" transform="matrix(1,0,0,-1,0,1521)"/>
 <path d="M0,0 l2238.75,0" fill="none" stroke="rgb(229,229,229)" stroke-width="10" transform="matrix(1,0,0,-1,0,1091)"/>
 <path d="M0,5 l0,-25" fill="none" stroke="rgb(204,204,204)" stroke-width="10" transform="matrix(1,0,0,-1,641,1091)"/>
 <path d="M0,5 l0,-25" fill="none" stroke="rgb(204,204,204)" stroke-width="10" transform="matrix(1,0,0,-1,1323,1091)"/>
 <path d="M301,444 c20,-14,36,-40,56,-66 c27,-37,62,-73,131,-74 l0,-36 c0,-100,6,-149,11,-175 l-2,-1 c-50,56,-108,80,-172,80 c-25,0,-89,-4,-120,-4 c-95,0,-124,33,-124,95 c0,21,4,40,16,78 l-23,14 l-9,0 c-20,-40,-30,-78,-30,-113 c0,-92,63,-158,184,-158 c45,0,125,9,169,9 c81,0,119,-32,144,-109 l27,-17 l12,0 c-4,87,-4,182,-4,211 l0,146 c34,22,55,60,55,109 c0,44,-17,91,-42,119 l112,0 l0,8 l-60,60 l-682,0 l0,-8 l60,-60 l150,0 c34,0,72,-5,82,-52 c-8,1,-15,2,-23,2 c-69,0,-102,-44,-102,-87 c0,-44,34,-88,92,-88 c47,0,91,28,91,102 c0,4,0,9,-1,14 Z M264,552 l202,0 c63,0,90,-44,90,-78 c0,-41,-39,-76,-93,-76 c-72,0,-109,59,-171,89 c-6,23,-15,45,-28,65 Z M264,552" fill="rgb(0,0,0)" transform="matrix(1,0,0,-1,641,1091)"/>
</svg>