<?xml version="1.0" encoding="UTF-8"?>
<svg height="1521" version="1.1" width="2238.75" xmlns="http://www.w3.org/2000/svg" xmlns:xlink="http://www.w3.org/1999/xlink">
 <path d="M0,0 l2238.75,0 l0,1521 l-2238.75,0 Z M0,0" fill="rgb(255,255,255)" transform="matrix(1,0,0,-1,0,1521)"/>
 <path d="M0,0 l2238.75,0" fill="none" stroke="rgb(229,229,229)" stroke-width="10" transform="matrix(1,0,0,-1,0,1091)"/>
 <path d="M0,5 l0,-25" fill="none" stroke="rgb(204,204,204)" stroke-width="10" transform="matrix(1,0,0,-1,641,1091)"/>
 <path d="M0,5 l0,-25" fill="none" stroke="rgb(204,204,204)" stroke-width="10" transform="matrix(1,0,0,-1,1289,1091)"/>
 <path d="M267,444 c20,-14,36,-40,56,-66 c28,-37,64,-74,135,-74 c1,-57,3,-120,8,-153 l-2,-1 c-28,59,-66,97,-102,97 c-31,0,-55,-25,-65,-65 c-31,37,-72,70,-126,70 c-66,0,-122,-52,-122,-119 c0,-72,59,-135,138,-135 c58,0,85,35,85,66 c0,28,-20,54,-54,54 c-26,0,-49,-16,-49,-45 c0,-12,4,-23,14,-32 l-1,-2 c-40,0,-61,30,-61,63 c0,44,37,75,85,75 c47,0,96,-30,120,-81 l21,-10 l6,2 c-1,7,-1,12,-1,13 c0,52,17,73,38,73 c26,0,68,-29,107,-196 l31,-18 l11,0 c-5,97,-6,213,-6,305 l0,59 c34,22,55,60,55,109 c0,44,-17,91,-42,119 l112,0 l0,8 l-60,60 l-648,0 l0,-8 l60,-60 l116,0 c34,0,72,-5,82,-52 c-8,1,-15,2,-23,2 c-69,0,-102,-44,-102,-87 c0,-44,34,-88,92,-88 c47,0,91,28,91,102 c0,4,0,9,-1,14 Z M230,552 l202,0 c63,0,90,-44,90,-78 c0,-41,-39,-76,-93,-76 c-72,0,-109,59,-171,89 c-6,23,-15,45,-28,65 Z M230,552" fill="rgb(0,0,0)" transform="matrix(1,0,0,-1,641,1091)"/>
</svg>