<?xml version="1.0" encoding="UTF-8"?>
<svg height="1521" version="1.1" width="2238.75" xmlns="http://www.w3.org/2000/svg" xmlns:xlink="http://www.w3.org/1999/xlink">
 <path d="M0,0 l2238.75,0 l0,1521 l-2238.75,0 Z M0,0" fill="rgb(255,255,255)" transform="matrix(1,0,0,-1,0,1521)"/>
 <path d="M0,0 l2238.75,0" fill="none" stroke="rgb(229,229,229)" stroke-width="10" transform="matrix(1,0,0,-1,0,1091)"/>
 <path d="M0,5 l0,-25" fill="none" stroke="rgb(204,204,204)" stroke-width="10" transform="matrix(1,0,0,-1,641,1091)"/>
 <path d="M0,5 l0,-25" fill="none" stroke="rgb(204,204,204)" stroke-width="10" transform="matrix(1,0,0,-1,1315,1091)"/>
 <path d="M62,612 l87,-87 c79,-1,130,-16,200,-89 c-58,-38,-120,-78,-185,-124 l73,-93 c169,-19,285,-99,315,-192 l-4,-2 c-60,58,-124,74,-192,74 c-33,0,-99,-5,-132,-5 c-99,0,-142,37,-142,107 c0,26,6,58,20,87 l-23,15 l-9,0 c-21,-35,-35,-82,-35,-124 c0,-108,88,-170,206,-170 c46,0,128,10,191,10 c76,0,115,-13,136,-78 l28,-17 l11,0 c-6,115,-9,190,-9,233 l-3,395 l89,0 l0,8 l-60,60 l-562,0 Z M522,427 c0,-141,1,-242,10,-289 l-3,-2 c-67,79,-163,125,-238,150 l-1,3 c51,34,104,69,159,103 c-48,58,-100,111,-156,158 l1,2 l228,0 Z M522,427" fill="rgb(0,0,0)" transform="matrix(1,0,0,-1,641,1091)"/>
</svg>