<?xml version="1.0" encoding="UTF-8"?>
<svg height="1521" version="1.1" width="2238.75" xmlns="http://www.w3.org/2000/svg" xmlns:xlink="http://www.w3.org/1999/xlink">
 <path d="M0,0 l2238.75,0 l0,1521 l-2238.75,0 Z M0,0" fill="rgb(255,255,255)" transform="matrix(1,0,0,-1,0,1521)"/>
 <path d="M0,0 l2238.75,0" fill="none" stroke="rgb(229,229,229)" stroke-width="10" transform="matrix(1,0,0,-1,0,1091)"/>
 <path d="M0,5 l0,-25" fill="none" stroke="rgb(204,204,204)" stroke-width="10" transform="matrix(1,0,0,-1,641,1091)"/>
 <path d="M0,5 l0,-25" fill="none" stroke="rgb(204,204,204)" stroke-width="10" transform="matrix(1,0,0,-1,1450,1091)"/>
 <path d="M581,257 c75,-3,158,-46,158,-110 c0,-10,-2,-21,-7,-32 c-12,27,-34,39,-57,39 c-31,0,-60,-22,-60,-57 c0,-34,26,-65,71,-65 c47,0,93,34,93,111 c0,113,-102,186,-198,189 l0,220 l238,0 l0,8 l-60,60 l-809,0 l0,-8 l60,-60 l492,0 c0,-57,0,-95,7,-136 l-2,-1 c-31,62,-67,97,-106,97 c-37,0,-64,-29,-82,-76 c-35,46,-82,85,-147,85 c-83,0,-142,-62,-142,-142 c0,-82,64,-151,153,-151 c50,0,105,22,105,73 c0,38,-30,63,-64,63 c-35,0,-57,-25,-57,-54 c0,-11,3,-21,9,-32 l-1,-2 c-50,0,-69,38,-69,74 c0,51,44,87,106,87 c58,0,101,-33,130,-96 l24,-11 l5,2 c9,67,27,102,57,102 c34,0,68,-45,75,-105 c-99,-24,-203,-81,-310,-151 l74,-93 c144,-14,239,-88,279,-166 l28,-17 l11,0 c-4,87,-4,137,-4,194 Z M319,158 l-1,3 c56,38,120,67,188,90 c0,-108,2,-197,11,-233 l-3,-2 c-51,62,-135,121,-195,142 Z M319,158" fill="rgb(0,0,0)" transform="matrix(1,0,0,-1,641,1091)"/>
</svg>