<?xml version="1.0" encoding="UTF-8"?>
<svg height="1521" version="1.1" width="2238.75" xmlns="http://www.w3.org/2000/svg" xmlns:xlink="http://www.w3.org/1999/xlink">
 <path d="M0,0 l2238.75,0 l0,1521 l-2238.75,0 Z M0,0" fill="rgb(255,255,255)" transform="matrix(1,0,0,-1,0,1521)"/>
 <path d="M0,0 l2238.75,0" fill="none" stroke="rgb(229,229,229)" stroke-width="10" transform="matrix(1,0,0,-1,0,1091)"/>
 <path d="M0,5 l0,-25" fill="none" stroke="rgb(204,204,204)" stroke-width="10" transform="matrix(1,0,0,-1,641,1091)"/>
 <path d="M0,5 l0,-25" fill="none" stroke="rgb(204,204,204)" stroke-width="10" transform="matrix(1,0,0,-1,1313,1091)"/>
 <path d="M526,89 c-36,58,-105,142,-225,142 c-107,0,-180,-65,-180,-149 c0,-58,36,-88,66,-88 c7,0,16,2,22,7 c7,6,76,55,119,55 c18,0,24,-8,24,-20 c0,-26,-32,-64,-131,-122 l77,-61 c88,54,116,99,116,150 c0,63,-44,99,-109,99 c-25,0,-53,-5,-81,-16 c0,42,48,72,111,72 c151,0,210,-169,225,-273 l31,-19 l11,0 c-4,130,-5,142,-6,252 l-3,434 l89,0 l0,8 l-60,60 l-672,0 l0,-8 l60,-60 l510,0 c0,-57,0,-95,7,-136 l-2,-1 c-31,62,-67,97,-106,97 c-37,0,-66,-29,-84,-76 c-35,46,-82,85,-147,85 c-83,0,-143,-62,-143,-142 c0,-82,64,-151,153,-151 c50,0,106,22,106,73 c0,38,-31,63,-65,63 c-35,0,-57,-25,-57,-54 c0,-11,3,-21,9,-32 l-1,-2 c-50,0,-69,38,-69,73 c0,52,45,88,106,88 c59,0,102,-32,131,-96 l24,-11 l5,2 c9,67,29,102,59,102 c38,0,74,-54,75,-125 c1,-73,2,-143,9,-219 Z M526,89" fill="rgb(0,0,0)" transform="matrix(1,0,0,-1,641,1091)"/>
</svg>