<?xml version="1.0" encoding="UTF-8"?>
<svg height="1521" version="1.1" width="2238.75" xmlns="http://www.w3.org/2000/svg" xmlns:xlink="http://www.w3.org/1999/xlink">
 <path d="M0,0 l2238.75,0 l0,1521 l-2238.75,0 Z M0,0" fill="rgb(255,255,255)" transform="matrix(1,0,0,-1,0,1521)"/>
 <path d="M0,0 l2238.75,0" fill="none" stroke="rgb(229,229,229)" stroke-width="10" transform="matrix(1,0,0,-1,0,1091)"/>
 <path d="M0,5 l0,-25" fill="none" stroke="rgb(204,204,204)" stroke-width="10" transform="matrix(1,0,0,-1,641,1091)"/>
 <path d="M0,5 l0,-25" fill="none" stroke="rgb(204,204,204)" stroke-width="10" transform="matrix(1,0,0,-1,1525,1091)"/>
 <path d="M10,552 l371,0 c-14,-24,-20,-45,-20,-66 c0,-73,68,-106,132,-106 c12,0,25,1,36,3 l1,-3 l-86,-65 c-34,59,-75,89,-110,89 c-29,0,-54,-20,-66,-60 c-30,42,-70,74,-121,74 c-64,0,-116,-53,-116,-119 c0,-70,56,-131,136,-131 c55,0,77,30,77,59 c0,28,-19,53,-51,53 c-28,0,-48,-20,-48,-44 c0,-10,3,-21,11,-31 l-1,-2 c-38,0,-57,32,-57,63 c0,42,37,76,83,76 c45,0,93,-30,116,-85 l21,-10 l6,2 c-1,7,-1,12,-1,13 c0,54,16,73,40,73 c23,0,42,-18,56,-40 l-25,-21 l65,-85 c169,-13,283,-111,317,-205 l28,-17 l11,0 c-5,101,-6,165,-6,241 l0,344 l85,0 l0,8 l-60,60 l-884,0 l0,-8 Z M730,552 l0,-134 c0,-146,1,-251,10,-300 l-3,-2 c-71,75,-148,117,-220,136 l-1,3 c50,42,107,80,165,120 l-56,74 c-37,-24,-68,-33,-94,-33 c-44,0,-63,29,-63,63 c0,26,9,56,31,73 Z M730,552" fill="rgb(0,0,0)" transform="matrix(1,0,0,-1,641,1091)"/>
</svg>