<?xml version="1.0" encoding="UTF-8"?>
<svg height="1521" version="1.1" width="2238.75" xmlns="http://www.w3.org/2000/svg" xmlns:xlink="http://www.w3.org/1999/xlink">
 <path d="M0,0 l2238.75,0 l0,1521 l-2238.75,0 Z M0,0" fill="rgb(255,255,255)" transform="matrix(1,0,0,-1,0,1521)"/>
 <path d="M0,0 l2238.75,0" fill="none" stroke="rgb(229,229,229)" stroke-width="10" transform="matrix(1,0,0,-1,0,1091)"/>
 <path d="M0,5 l0,-25" fill="none" stroke="rgb(204,204,204)" stroke-width="10" transform="matrix(1,0,0,-1,641,1091)"/>
 <path d="M0,5 l0,-25" fill="none" stroke="rgb(204,204,204)" stroke-width="10" transform="matrix(1,0,0,-1,1518,1091)"/>
 <path d="M10,552 l460,0 c0,-39,1,-99,6,-132 l-2,-1 c-30,59,-63,89,-100,89 c-35,0,-63,-24,-76,-64 c-31,38,-73,69,-130,69 c-76,0,-138,-59,-138,-136 c0,-83,67,-164,160,-164 c63,0,100,37,100,84 c0,42,-30,70,-68,70 c-36,0,-58,-27,-58,-55 c0,-16,7,-33,21,-46 l-1,-3 c-55,0,-81,43,-81,84 c0,52,47,87,104,87 c44,0,86,-25,112,-71 l23,-10 l6,2 c5,48,25,79,52,79 c22,0,56,-21,72,-87 c14,-57,78,-110,121,-110 c38,0,101,47,153,116 c22,-18,31,-46,31,-76 c0,-70,-59,-158,-186,-158 c-97,0,-179,50,-223,174 l-29,9 l-10,0 c58,-217,174,-275,284,-275 c138,0,213,96,213,223 c0,86,-34,157,-107,202 l-5,-1 c-48,-72,-116,-133,-149,-133 c-13,0,-17,9,-17,27 l0,207 l339,0 l0,8 l-60,60 l-877,0 l0,-8 Z M10,552" fill="rgb(0,0,0)" transform="matrix(1,0,0,-1,641,1091)"/>
</svg>