<?xml version="1.0" encoding="UTF-8"?>
<svg height="1521" version="1.1" width="2238.75" xmlns="http://www.w3.org/2000/svg" xmlns:xlink="http://www.w3.org/1999/xlink">
 <path d="M0,0 l2238.75,0 l0,1521 l-2238.75,0 Z M0,0" fill="rgb(255,255,255)" transform="matrix(1,0,0,-1,0,1521)"/>
 <path d="M0,0 l2238.75,0" fill="none" stroke="rgb(229,229,229)" stroke-width="10" transform="matrix(1,0,0,-1,0,1091)"/>
 <path d="M0,5 l0,-25" fill="none" stroke="rgb(204,204,204)" stroke-width="10" transform="matrix(1,0,0,-1,641,1091)"/>
 <path d="M0,5 l0,-25" fill="none" stroke="rgb(204,204,204)" stroke-width="10" transform="matrix(1,0,0,-1,1518,1091)"/>
 <path d="M10,552 l460,0 c0,-39,1,-99,6,-132 l-2,-1 c-30,60,-63,89,-101,89 c-34,0,-62,-24,-75,-64 c-31,38,-74,69,-129,69 c-78,0,-139,-58,-139,-137 c0,-81,67,-163,160,-163 c63,0,100,37,100,84 c0,42,-30,70,-68,70 c-36,0,-58,-27,-58,-55 c0,-16,7,-33,21,-46 l-1,-3 c-55,0,-81,43,-81,83 c0,53,47,88,102,88 c47,0,87,-24,114,-71 l23,-10 l6,2 c5,48,25,79,52,79 c22,0,56,-21,72,-87 c14,-57,78,-110,121,-110 c38,0,101,47,153,116 c22,-17,31,-49,31,-73 c0,-64,-58,-146,-186,-146 c-97,0,-181,45,-224,163 l-29,9 l-10,0 c57,-208,167,-261,277,-261 c39,0,73,6,103,19 l0,-144 l-4,-2 c-53,54,-117,69,-173,69 c-25,0,-85,-3,-111,-3 c-79,0,-113,26,-113,83 c0,17,3,45,15,66 l-22,14 l-9,0 c-19,-29,-31,-68,-31,-105 c0,-71,47,-141,175,-141 c40,0,111,7,163,7 c67,0,113,-12,133,-78 l28,-17 l11,0 c-6,115,-7,181,-7,188 l0,97 c41,38,63,92,63,156 c0,81,-35,154,-107,198 l-5,-1 c-48,-72,-116,-133,-149,-133 c-13,0,-17,9,-17,27 l0,207 l339,0 l0,8 l-60,60 l-877,0 l0,-8 Z M10,552" fill="rgb(0,0,0)" transform="matrix(1,0,0,-1,641,1091)"/>
</svg>