<?xml version="1.0" encoding="UTF-8"?>
<svg height="1521" version="1.1" width="2238.75" xmlns="http://www.w3.org/2000/svg" xmlns:xlink="http://www.w3.org/1999/xlink">
 <path d="M0,0 l2238.75,0 l0,1521 l-2238.75,0 Z M0,0" fill="rgb(255,255,255)" transform="matrix(1,0,0,-1,0,1521)"/>
 <path d="M0,0 l2238.75,0" fill="none" stroke="rgb(229,229,229)" stroke-width="10" transform="matrix(1,0,0,-1,0,1091)"/>
 <path d="M0,5 l0,-25" fill="none" stroke="rgb(204,204,204)" stroke-width="10" transform="matrix(1,0,0,-1,641,1091)"/>
 <path d="M0,5 l0,-25" fill="none" stroke="rgb(204,204,204)" stroke-width="10" transform="matrix(1,0,0,-1,1517,1091)"/>
 <path d="M10,552 l448,0 c0,-59,1,-119,6,-152 l-2,-1 c-30,59,-63,89,-100,89 c-35,0,-63,-24,-76,-64 c-30,38,-70,69,-124,69 c-73,0,-132,-61,-132,-141 c0,-85,68,-169,162,-169 c64,0,102,37,102,84 c0,42,-29,68,-68,68 c-37,0,-59,-27,-59,-55 c0,-16,6,-31,20,-44 l-1,-3 c-56,0,-83,46,-83,89 c0,55,44,92,98,92 c47,0,81,-28,105,-79 l23,-10 l6,2 c6,58,26,87,53,87 c27,0,69,-31,69,-120 l0,-105 c0,-69,81,-167,137,-167 c71,0,238,147,238,299 c0,82,-53,132,-115,132 c-57,0,-87,-42,-87,-83 c0,-40,28,-79,76,-79 c11,0,20,2,31,5 c-15,-105,-126,-190,-172,-190 c-21,0,-30,20,-30,57 l0,389 l351,0 l0,8 l-60,60 l-876,0 l0,-8 Z M10,552" fill="rgb(0,0,0)" transform="matrix(1,0,0,-1,641,1091)"/>
</svg>