<?xml version="1.0" encoding="UTF-8"?>
<svg height="1521" version="1.1" width="2238.75" xmlns="http://www.w3.org/2000/svg" xmlns:xlink="http://www.w3.org/1999/xlink">
 <path d="M0,0 l2238.75,0 l0,1521 l-2238.75,0 Z M0,0" fill="rgb(255,255,255)" transform="matrix(1,0,0,-1,0,1521)"/>
 <path d="M0,0 l2238.75,0" fill="none" stroke="rgb(229,229,229)" stroke-width="10" transform="matrix(1,0,0,-1,0,1091)"/>
 <path d="M0,5 l0,-25" fill="none" stroke="rgb(204,204,204)" stroke-width="10" transform="matrix(1,0,0,-1,641,1091)"/>
 <path d="M0,5 l0,-25" fill="none" stroke="rgb(204,204,204)" stroke-width="10" transform="matrix(1,0,0,-1,1561,1091)"/>
 <path d="M879,408 l-117,84 c-84,-56,-170,-137,-223,-198 l-2,1 l0,257 l393,0 l0,8 l-60,60 l-920,0 l0,-8 l60,-60 l448,0 c0,-59,1,-119,6,-152 l-2,-1 c-30,59,-63,89,-100,89 c-35,0,-63,-24,-76,-64 c-30,38,-70,69,-124,69 c-73,0,-132,-61,-132,-141 c0,-85,68,-169,162,-169 c64,0,102,37,102,84 c0,42,-29,68,-68,68 c-37,0,-59,-27,-59,-55 c0,-16,6,-31,20,-44 l-1,-3 c-56,0,-83,46,-83,89 c0,55,44,92,98,92 c47,0,81,-28,105,-79 l23,-10 l6,2 c6,58,26,87,53,87 c27,0,69,-31,69,-120 l0,-59 l83,-81 l6,0 c48,67,103,149,198,216 l3,-3 c-24,-52,-29,-104,-29,-156 c0,-87,15,-161,39,-228 l29,-18 l11,0 c-10,58,-16,120,-16,173 c0,103,22,194,98,264 Z M879,408" fill="rgb(0,0,0)" transform="matrix(1,0,0,-1,641,1091)"/>
</svg>