<?xml version="1.0" encoding="UTF-8"?>
<svg height="1521" version="1.1" width="2238.75" xmlns="http://www.w3.org/2000/svg" xmlns:xlink="http://www.w3.org/1999/xlink">
 <path d="M0,0 l2238.75,0 l0,1521 l-2238.75,0 Z M0,0" fill="rgb(255,255,255)" transform="matrix(1,0,0,-1,0,1521)"/>
 <path d="M0,0 l2238.75,0" fill="none" stroke="rgb(229,229,229)" stroke-width="10" transform="matrix(1,0,0,-1,0,1091)"/>
 <path d="M0,5 l0,-25" fill="none" stroke="rgb(204,204,204)" stroke-width="10" transform="matrix(1,0,0,-1,641,1091)"/>
 <path d="M0,5 l0,-25" fill="none" stroke="rgb(204,204,204)" stroke-width="10" transform="matrix(1,0,0,-1,1321,1091)"/>
 <path d="M540,76 l-3,-1 c-55,107,-124,157,-220,157 c-128,0,-210,-87,-210,-142 c0,-27,20,-47,51,-47 c31,0,38,23,66,23 c18,0,32,-10,32,-29 c0,-28,-22,-49,-57,-75 l0,-5 l84,-44 c71,69,126,119,201,176 c43,-52,74,-125,86,-205 l29,-18 l11,0 c-4,105,-5,153,-6,252 l-3,434 l89,0 l0,8 l-60,60 l-680,0 l0,-8 l60,-60 l518,0 c0,-57,0,-95,7,-136 l-2,-1 c-31,62,-67,97,-106,97 c-37,0,-66,-29,-84,-76 c-35,46,-82,85,-147,85 c-83,0,-143,-62,-143,-142 c0,-82,64,-151,153,-151 c50,0,106,22,106,73 c0,38,-31,63,-65,63 c-35,0,-57,-25,-57,-54 c0,-11,3,-21,9,-32 l-1,-2 c-50,0,-69,38,-69,73 c0,52,45,88,106,88 c59,0,102,-32,131,-96 l24,-11 l5,2 c9,67,29,102,59,102 c38,0,74,-54,75,-125 c1,-78,2,-152,11,-233 Z M292,43 l-2,1 c1,6,1,8,1,9 c0,37,-30,54,-64,56 l-2,2 c29,32,78,56,123,56 c24,0,47,-7,70,-20 c-49,-37,-95,-77,-126,-104 Z M292,43" fill="rgb(0,0,0)" transform="matrix(1,0,0,-1,641,1091)"/>
</svg>