<?xml version="1.0" encoding="UTF-8"?>
<svg height="1521" version="1.1" width="2238.75" xmlns="http://www.w3.org/2000/svg" xmlns:xlink="http://www.w3.org/1999/xlink">
 <path d="M0,0 l2238.75,0 l0,1521 l-2238.75,0 Z M0,0" fill="rgb(255,255,255)" transform="matrix(1,0,0,-1,0,1521)"/>
 <path d="M0,0 l2238.75,0" fill="none" stroke="rgb(229,229,229)" stroke-width="10" transform="matrix(1,0,0,-1,0,1091)"/>
 <path d="M0,5 l0,-25" fill="none" stroke="rgb(204,204,204)" stroke-width="10" transform="matrix(1,0,0,-1,641,1091)"/>
 <path d="M0,5 l0,-25" fill="none" stroke="rgb(204,204,204)" stroke-width="10" transform="matrix(1,0,0,-1,1623,1091)"/>
 <path d="M-2,552 l468,0 c0,-39,0,-99,5,-132 l-2,-1 c-31,59,-65,89,-103,89 c-35,0,-64,-24,-77,-64 c-31,38,-72,69,-128,69 c-74,0,-135,-56,-135,-133 c0,-79,66,-154,155,-154 c66,0,94,39,94,76 c0,30,-21,58,-57,58 c-36,0,-57,-26,-57,-52 c0,-13,5,-25,16,-36 l-1,-2 c-56,0,-81,40,-81,79 c0,49,40,85,99,85 c52,0,89,-27,114,-79 l24,-10 l6,2 c6,58,27,87,55,87 c32,0,63,-35,98,-115 c-51,-33,-116,-76,-172,-118 l73,-93 c165,-16,273,-97,303,-174 l28,-17 l11,0 c-4,101,-4,165,-4,241 l0,257 c7,1,15,1,16,1 c70,0,159,-16,159,-76 c0,-16,-7,-28,-20,-35 c-15,18,-31,27,-52,27 c-40,0,-62,-30,-62,-60 c0,-33,25,-67,72,-67 c52,0,99,41,99,122 c0,99,-69,173,-217,173 c-18,0,-49,-1,-74,-6 l0,-124 c0,-156,1,-268,10,-320 l-3,-2 c-70,67,-148,104,-216,124 l-1,3 c42,31,94,66,143,96 c-33,70,-43,110,-44,191 l-1,90 l453,0 l0,8 l-60,60 l-994,0 l0,-8 Z M-2,552" fill="rgb(0,0,0)" transform="matrix(1,0,0,-1,641,1091)"/>
</svg>