<?xml version="1.0" encoding="UTF-8"?>
<svg height="1521" version="1.1" width="2238.75" xmlns="http://www.w3.org/2000/svg" xmlns:xlink="http://www.w3.org/1999/xlink">
 <path d="M0,0 l2238.75,0 l0,1521 l-2238.75,0 Z M0,0" fill="rgb(255,255,255)" transform="matrix(1,0,0,-1,0,1521)"/>
 <path d="M0,0 l2238.75,0" fill="none" stroke="rgb(229,229,229)" stroke-width="10" transform="matrix(1,0,0,-1,0,1091)"/>
 <path d="M0,5 l0,-25" fill="none" stroke="rgb(204,204,204)" stroke-width="10" transform="matrix(1,0,0,-1,641,1091)"/>
 <path d="M0,5 l0,-25" fill="none" stroke="rgb(204,204,204)" stroke-width="10" transform="matrix(1,0,0,-1,1261,1091)"/>
 <path d="M10,552 l458,0 c0,-39,0,-99,5,-132 l-2,-1 c-31,59,-65,89,-103,89 c-35,0,-64,-24,-77,-64 c-31,38,-72,69,-128,69 c-74,0,-135,-56,-135,-133 c0,-79,66,-154,155,-154 c66,0,94,39,94,76 c0,30,-21,58,-57,58 c-36,0,-57,-26,-57,-52 c0,-13,5,-25,16,-36 l-1,-2 c-56,0,-81,40,-81,79 c0,49,40,85,99,85 c52,0,89,-27,114,-79 l24,-10 l6,2 c6,58,27,87,55,87 c26,0,65,-27,70,-103 c-111,-52,-196,-96,-283,-152 l75,-93 c132,-12,217,-71,255,-142 l28,-17 l11,0 c-4,82,-6,129,-7,224 l-3,401 l89,0 l0,8 l-60,60 l-620,0 l0,-8 Z M312,157 l-1,3 c49,33,105,58,156,81 c0,-62,5,-168,14,-200 l-3,-2 c-45,56,-118,101,-166,118 Z M312,157" fill="rgb(0,0,0)" transform="matrix(1,0,0,-1,641,1091)"/>
</svg>