<?xml version="1.0" encoding="UTF-8"?>
<svg height="1521" version="1.1" width="2238.75" xmlns="http://www.w3.org/2000/svg" xmlns:xlink="http://www.w3.org/1999/xlink">
 <path d="M0,0 l2238.75,0 l0,1521 l-2238.75,0 Z M0,0" fill="rgb(255,255,255)" transform="matrix(1,0,0,-1,0,1521)"/>
 <path d="M0,0 l2238.75,0" fill="none" stroke="rgb(229,229,229)" stroke-width="10" transform="matrix(1,0,0,-1,0,1091)"/>
 <path d="M0,5 l0,-25" fill="none" stroke="rgb(204,204,204)" stroke-width="10" transform="matrix(1,0,0,-1,641,1091)"/>
 <path d="M0,5 l0,-25" fill="none" stroke="rgb(204,204,204)" stroke-width="10" transform="matrix(1,0,0,-1,1445,1091)"/>
 <path d="M-50,612 l60,-60 l448,0 c0,-59,1,-119,6,-152 l-2,-1 c-30,60,-63,89,-101,89 c-34,0,-62,-24,-75,-64 c-30,38,-70,69,-124,69 c-73,0,-132,-61,-132,-141 c0,-85,68,-169,162,-169 c64,0,102,37,102,84 c0,42,-29,68,-68,68 c-37,0,-59,-27,-59,-55 c0,-16,6,-31,20,-44 l-1,-3 c-56,0,-83,46,-83,89 c0,55,44,92,98,92 c47,0,81,-28,105,-79 l23,-10 l6,2 c6,58,25,87,54,87 c38,0,74,-51,91,-187 c-19,5,-35,6,-44,6 c-64,0,-98,-43,-98,-88 c0,-49,40,-88,95,-88 c40,0,82,20,100,77 c95,-24,141,-116,163,-180 l27,-17 l11,0 c-4,101,-5,165,-5,241 l0,374 l85,0 l0,8 l-60,60 l-804,0 Z M655,103 c-42,50,-81,81,-116,100 c-1,32,-2,83,-2,143 l0,206 l113,0 l0,-167 c0,-146,0,-231,8,-280 Z M655,103" fill="rgb(0,0,0)" transform="matrix(1,0,0,-1,641,1091)"/>
</svg>