<?xml version="1.0" encoding="UTF-8"?>
<svg height="1521" version="1.1" width="2238.75" xmlns="http://www.w3.org/2000/svg" xmlns:xlink="http://www.w3.org/1999/xlink">
 <path d="M0,0 l2238.75,0 l0,1521 l-2238.75,0 Z M0,0" fill="rgb(255,255,255)" transform="matrix(1,0,0,-1,0,1521)"/>
 <path d="M0,0 l2238.75,0" fill="none" stroke="rgb(229,229,229)" stroke-width="10" transform="matrix(1,0,0,-1,0,1091)"/>
 <path d="M0,5 l0,-25" fill="none" stroke="rgb(204,204,204)" stroke-width="10" transform="matrix(1,0,0,-1,641,1091)"/>
 <path d="M0,5 l0,-25" fill="none" stroke="rgb(204,204,204)" stroke-width="10" transform="matrix(1,0,0,-1,1382,1091)"/>
 <path d="M589,195 c0,-44,7,-88,21,-115 l-4,-2 c-60,65,-112,72,-174,72 c-65,0,-147,-8,-197,-8 c-112,0,-153,39,-153,111 c0,22,4,54,18,81 l-23,15 l-9,0 c-21,-34,-33,-81,-33,-119 c0,-109,89,-171,217,-171 c58,0,176,13,241,13 c87,0,115,-23,141,-98 l28,-17 l11,0 c-6,115,-8,211,-8,218 l-3,377 l89,0 l0,8 l-60,60 l-741,0 l0,-8 l60,-60 l580,0 c0,-59,1,-104,6,-137 l-2,-1 c-30,60,-63,89,-101,89 c-34,0,-62,-24,-75,-64 c-30,38,-70,69,-124,69 c-73,0,-132,-61,-132,-141 c0,-85,68,-165,162,-165 c64,0,102,33,102,80 c0,42,-30,70,-69,70 c-37,0,-59,-27,-59,-55 c0,-16,7,-33,21,-46 l-1,-3 c-56,0,-83,46,-83,89 c0,55,44,92,98,92 c47,0,81,-28,105,-79 l23,-10 l6,2 c6,58,26,87,53,87 c27,0,69,-31,69,-120 Z M589,195" fill="rgb(0,0,0)" transform="matrix(1,0,0,-1,641,1091)"/>
</svg>