<?xml version="1.0" encoding="UTF-8"?>
<svg height="1521" version="1.1" width="2238.75" xmlns="http://www.w3.org/2000/svg" xmlns:xlink="http://www.w3.org/1999/xlink">
 <path d="M0,0 l2238.75,0 l0,1521 l-2238.75,0 Z M0,0" fill="rgb(255,255,255)" transform="matrix(1,0,0,-1,0,1521)"/>
 <path d="M0,0 l2238.75,0" fill="none" stroke="rgb(229,229,229)" stroke-width="10" transform="matrix(1,0,0,-1,0,1091)"/>
 <path d="M0,5 l0,-25" fill="none" stroke="rgb(204,204,204)" stroke-width="10" transform="matrix(1,0,0,-1,641,1091)"/>
 <path d="M0,5 l0,-25" fill="none" stroke="rgb(204,204,204)" stroke-width="10" transform="matrix(1,0,0,-1,1323,1091)"/>
 <path d="M195,219 c-54,-16,-90,-66,-90,-122 c0,-66,51,-139,139,-139 c61,0,88,36,88,68 c0,29,-22,59,-56,59 c-30,0,-50,-21,-50,-46 c0,-12,5,-26,16,-37 l-1,-2 c-41,0,-64,31,-64,67 c0,48,43,82,99,82 c48,0,95,-26,120,-78 l21,-10 l6,2 c-1,7,-1,12,-1,13 c0,52,20,70,41,70 c26,0,67,-26,106,-193 l32,-19 l11,0 c-3,61,-4,99,-6,218 l-3,400 l89,0 l0,8 l-60,60 l-682,0 l0,-8 l60,-60 l520,0 c0,-57,0,-100,7,-141 l-2,-1 c-31,62,-67,97,-106,97 c-37,0,-64,-29,-82,-76 c-35,46,-82,85,-147,85 c-83,0,-146,-65,-146,-143 c0,-74,55,-142,141,-151 Z M261,227 c37,12,55,38,55,68 c0,40,-30,64,-64,64 c-35,0,-57,-25,-57,-54 c0,-11,3,-21,9,-32 l-1,-2 c-50,0,-73,36,-73,72 c0,51,48,89,110,89 c58,0,101,-33,130,-96 l24,-11 l5,2 c9,67,27,102,57,102 c38,0,74,-56,75,-127 c1,-84,3,-142,8,-175 l-3,-1 c-28,59,-65,97,-103,97 c-30,0,-54,-25,-64,-65 c-27,31,-62,59,-108,67 Z M261,227" fill="rgb(0,0,0)" transform="matrix(1,0,0,-1,641,1091)"/>
</svg>