<?xml version="1.0" encoding="UTF-8"?>
<svg height="1521" version="1.1" width="2238.75" xmlns="http://www.w3.org/2000/svg" xmlns:xlink="http://www.w3.org/1999/xlink">
 <path d="M0,0 l2238.75,0 l0,1521 l-2238.75,0 Z M0,0" fill="rgb(255,255,255)" transform="matrix(1,0,0,-1,0,1521)"/>
 <path d="M0,0 l2238.75,0" fill="none" stroke="rgb(229,229,229)" stroke-width="10" transform="matrix(1,0,0,-1,0,1091)"/>
 <path d="M0,5 l0,-25" fill="none" stroke="rgb(204,204,204)" stroke-width="10" transform="matrix(1,0,0,-1,641,1091)"/>
 <path d="M0,5 l0,-25" fill="none" stroke="rgb(204,204,204)" stroke-width="10" transform="matrix(1,0,0,-1,1515,1091)"/>
 <path d="M333,251 l-26,-26 c34,-49,84,-87,131,-87 c50,0,61,37,116,126 c40,64,62,93,94,93 c31,0,75,-34,75,-123 c0,-13,-1,-164,-1,-224 l68,-53 l11,0 l-7,595 l90,0 l0,8 l-60,60 l-874,0 l0,-8 l60,-60 l270,0 l26,-26 c105,-11,188,-52,188,-138 c0,-18,-1,-48,-19,-80 l-3,0 c-45,114,-97,147,-136,147 c-32,0,-56,-20,-68,-61 c-30,42,-70,74,-121,74 c-64,0,-116,-53,-116,-119 c0,-70,56,-131,136,-131 c55,0,77,30,77,59 c0,28,-19,53,-51,53 c-28,0,-48,-20,-48,-44 c0,-10,3,-21,11,-31 l-1,-2 c-38,0,-57,32,-57,62 c0,44,37,77,83,77 c45,0,93,-30,116,-85 l21,-10 l6,2 c-1,7,-1,12,-1,13 c0,54,17,71,40,71 c49,0,81,-81,81,-108 c0,-28,-33,-59,-54,-59 c-13,0,-31,7,-49,35 Z M725,346 c-37,55,-77,95,-122,95 c-29,0,-54,-20,-76,-54 l-2,1 c4,15,7,29,7,46 c0,43,-17,90,-61,115 l0,3 l253,0 l0,-44 c0,-82,0,-125,4,-160 Z M725,346" fill="rgb(0,0,0)" transform="matrix(1,0,0,-1,641,1091)"/>
</svg>