<?xml version="1.0" encoding="UTF-8"?>
<svg height="1521" version="1.1" width="2238.75" xmlns="http://www.w3.org/2000/svg" xmlns:xlink="http://www.w3.org/1999/xlink">
 <path d="M0,0 l2238.75,0 l0,1521 l-2238.75,0 Z M0,0" fill="rgb(255,255,255)" transform="matrix(1,0,0,-1,0,1521)"/>
 <path d="M0,0 l2238.75,0" fill="none" stroke="rgb(229,229,229)" stroke-width="10" transform="matrix(1,0,0,-1,0,1091)"/>
 <path d="M0,5 l0,-25" fill="none" stroke="rgb(204,204,204)" stroke-width="10" transform="matrix(1,0,0,-1,641,1091)"/>
 <path d="M0,5 l0,-25" fill="none" stroke="rgb(204,204,204)" stroke-width="10" transform="matrix(1,0,0,-1,1518,1091)"/>
 <path d="M827,620 l-372,0 l0,-3 c0,-65,3,-98,10,-137 l-2,-1 c-60,96,-116,141,-155,141 c-31,0,-65,-31,-125,-120 l-3,0 c-44,91,-89,120,-165,120 l-65,0 l0,-8 l79,-79 l22,0 c51,0,69,-1,92,-43 c-94,-43,-110,-79,-110,-114 c0,-50,37,-80,77,-80 c37,0,78,25,97,84 l4,0 c23,-62,63,-84,99,-84 c38,0,71,30,71,71 c0,35,-19,73,-97,118 c17,33,37,52,53,52 c28,0,118,-54,118,-201 l0,-171 c0,-69,80,-165,138,-165 c63,0,239,127,239,312 c0,28,-15,42,-34,59 c-23,20,-31,29,-53,35 c-77,21,-178,27,-211,146 l353,0 l0,8 Z M536,470 c43,-113,113,-134,193,-153 c6,-9,7,-20,7,-31 c0,-97,-119,-202,-172,-202 c-23,0,-31,18,-31,55 l0,330 Z M536,470" fill="rgb(0,0,0)" transform="matrix(1,0,0,-1,641,1091)"/>
</svg>