<?xml version="1.0" encoding="UTF-8"?>
<svg height="1521" version="1.1" width="2238.75" xmlns="http://www.w3.org/2000/svg" xmlns:xlink="http://www.w3.org/1999/xlink">
 <path d="M0,0 l2238.75,0 l0,1521 l-2238.75,0 Z M0,0" fill="rgb(255,255,255)" transform="matrix(1,0,0,-1,0,1521)"/>
 <path d="M0,0 l2238.75,0" fill="none" stroke="rgb(229,229,229)" stroke-width="10" transform="matrix(1,0,0,-1,0,1091)"/>
 <path d="M0,5 l0,-25" fill="none" stroke="rgb(204,204,204)" stroke-width="10" transform="matrix(1,0,0,-1,641,1091)"/>
 <path d="M0,5 l0,-25" fill="none" stroke="rgb(204,204,204)" stroke-width="10" transform="matrix(1,0,0,-1,1624,1091)"/>
 <path d="M753,399 c13,5,27,8,41,8 c39,0,73,-26,73,-69 c0,-85,-132,-175,-287,-175 c-32,0,-60,4,-91,11 l-5,-5 l55,-103 c181,-3,324,-69,492,-196 l7,0 l-14,48 c-48,54,-168,143,-283,185 l0,3 c91,21,187,91,187,198 c0,122,-130,170,-182,170 c-17,0,-49,-5,-70,-5 c-36,0,-120,17,-143,83 l460,0 l0,8 l-60,60 l-478,0 l0,-3 c0,-65,3,-98,10,-137 l-2,-1 c-60,96,-116,141,-155,141 c-31,0,-65,-31,-125,-120 l-3,0 c-44,91,-89,120,-165,120 l-65,0 l0,-8 l79,-79 l22,0 c51,0,69,-1,92,-43 c-94,-43,-110,-79,-110,-114 c0,-50,37,-80,77,-80 c37,0,78,25,97,84 l4,0 c23,-62,63,-84,99,-84 c38,0,71,30,71,71 c0,35,-19,73,-97,118 c17,33,37,52,53,52 c28,0,118,-54,118,-201 l0,-11 c0,-48,67,-106,126,-106 c70,0,172,81,172,180 Z M536,488 c27,-59,78,-82,129,-88 c3,-4,4,-11,4,-17 c0,-52,-87,-104,-118,-104 c-13,0,-18,8,-18,27 l0,181 Z M536,488" fill="rgb(0,0,0)" transform="matrix(1,0,0,-1,641,1091)"/>
</svg>