<?xml version="1.0" encoding="UTF-8"?>
<svg height="1521" version="1.1" width="2238.75" xmlns="http://www.w3.org/2000/svg" xmlns:xlink="http://www.w3.org/1999/xlink">
 <path d="M0,0 l2238.75,0 l0,1521 l-2238.75,0 Z M0,0" fill="rgb(255,255,255)" transform="matrix(1,0,0,-1,0,1521)"/>
 <path d="M0,0 l2238.75,0" fill="none" stroke="rgb(229,229,229)" stroke-width="10" transform="matrix(1,0,0,-1,0,1091)"/>
 <path d="M0,5 l0,-25" fill="none" stroke="rgb(204,204,204)" stroke-width="10" transform="matrix(1,0,0,-1,641,1091)"/>
 <path d="M0,5 l0,-25" fill="none" stroke="rgb(204,204,204)" stroke-width="10" transform="matrix(1,0,0,-1,1515,1091)"/>
 <path d="M364,896 c-20,-23,-28,-51,-28,-75 c0,-67,60,-127,177,-127 c45,0,108,10,147,10 c61,0,91,-22,91,-49 c0,-10,-4,-22,-14,-35 l-282,0 l0,-3 c0,-65,3,-98,10,-137 l-2,-1 c-60,96,-116,141,-155,141 c-31,0,-65,-31,-125,-120 l-3,0 c-44,91,-89,120,-165,120 l-65,0 l0,-8 l79,-79 l22,0 c51,0,69,-1,92,-43 c-94,-43,-110,-79,-110,-114 c0,-50,37,-80,77,-80 c37,0,78,25,97,84 l4,0 c23,-62,63,-84,99,-84 c38,0,71,30,71,71 c0,35,-19,73,-97,118 c17,33,37,52,53,52 c28,0,118,-54,118,-201 l0,-147 c0,-69,81,-167,137,-167 c71,0,238,147,238,299 c0,82,-53,132,-115,132 c-57,0,-87,-42,-87,-83 c0,-40,28,-79,76,-79 c11,0,20,2,31,5 c-15,-105,-126,-190,-172,-190 c-21,0,-30,20,-30,57 l0,389 l351,0 l0,8 l-60,60 l-25,0 c-6,91,-60,165,-183,165 c-38,0,-92,-9,-138,-9 c-66,0,-98,15,-98,54 c0,13,4,28,16,46 l-24,20 Z M364,896" fill="rgb(0,0,0)" transform="matrix(1,0,0,-1,641,1091)"/>
</svg>