<?xml version="1.0" encoding="UTF-8"?>
<svg height="1521" version="1.1" width="2238.75" xmlns="http://www.w3.org/2000/svg" xmlns:xlink="http://www.w3.org/1999/xlink">
 <path d="M0,0 l2238.75,0 l0,1521 l-2238.75,0 Z M0,0" fill="rgb(255,255,255)" transform="matrix(1,0,0,-1,0,1521)"/>
 <path d="M0,0 l2238.75,0" fill="none" stroke="rgb(229,229,229)" stroke-width="10" transform="matrix(1,0,0,-1,0,1091)"/>
 <path d="M0,5 l0,-25" fill="none" stroke="rgb(204,204,204)" stroke-width="10" transform="matrix(1,0,0,-1,641,1091)"/>
 <path d="M0,5 l0,-25" fill="none" stroke="rgb(204,204,204)" stroke-width="10" transform="matrix(1,0,0,-1,1398,1091)"/>
 <path d="M524,-65 c127,0,200,69,200,172 c0,60,-26,111,-67,141 l0,304 l110,0 l0,8 l-60,60 l-125,0 l0,-3 c0,-65,3,-98,10,-137 l-2,-1 c-55,96,-114,141,-148,141 c-29,0,-59,-29,-115,-120 l-3,0 c-49,91,-99,120,-183,120 l-73,0 l0,-8 l79,-79 l28,0 c62,0,84,-1,112,-43 c-91,-42,-107,-78,-107,-111 c0,-50,37,-78,77,-78 c36,0,75,25,94,79 l4,0 c23,-57,62,-79,95,-79 c39,0,72,27,72,70 c0,33,-21,72,-97,116 c16,32,34,50,49,50 c24,0,106,-52,108,-199 c0,-23,-1,-42,0,-60 c-8,1,-15,2,-23,2 c-69,0,-124,-38,-124,-98 c0,-47,35,-82,83,-82 c45,0,75,34,75,68 c0,16,-6,32,-18,46 c7,1,10,1,11,1 c54,0,83,-43,83,-83 c0,-54,-53,-103,-158,-103 c-158,0,-339,110,-454,471 l-30,9 l-10,0 c109,-417,316,-574,507,-574 Z M524,-65" fill="rgb(0,0,0)" transform="matrix(1,0,0,-1,641,1091)"/>
</svg>