<?xml version="1.0" encoding="UTF-8"?>
<svg height="1521" version="1.1" width="2238.75" xmlns="http://www.w3.org/2000/svg" xmlns:xlink="http://www.w3.org/1999/xlink">
 <path d="M0,0 l2238.75,0 l0,1521 l-2238.75,0 Z M0,0" fill="rgb(255,255,255)" transform="matrix(1,0,0,-1,0,1521)"/>
 <path d="M0,0 l2238.75,0" fill="none" stroke="rgb(229,229,229)" stroke-width="10" transform="matrix(1,0,0,-1,0,1091)"/>
 <path d="M0,5 l0,-25" fill="none" stroke="rgb(204,204,204)" stroke-width="10" transform="matrix(1,0,0,-1,641,1091)"/>
 <path d="M0,5 l0,-25" fill="none" stroke="rgb(204,204,204)" stroke-width="10" transform="matrix(1,0,0,-1,1252,1091)"/>
 <path d="M462,620 l0,-3 c0,-65,2,-98,9,-137 l-2,-1 c-60,96,-117,141,-156,141 c-31,0,-65,-31,-125,-120 l-3,0 c-44,91,-89,120,-165,120 l-70,0 l0,-8 l79,-79 l27,0 c51,0,69,-1,92,-43 c-94,-43,-110,-79,-110,-114 c0,-50,37,-80,77,-80 c37,0,78,25,97,84 l4,0 c23,-62,63,-84,99,-84 c38,0,71,30,71,71 c0,35,-19,73,-97,118 c17,33,37,52,53,52 c28,0,119,-54,120,-199 c1,-112,4,-166,10,-204 l-3,-1 c-54,77,-131,108,-191,108 c-82,0,-126,-48,-126,-106 c0,-54,39,-96,97,-96 c56,0,84,38,84,78 c0,25,-12,50,-35,65 l1,2 c111,-7,185,-101,204,-219 l29,-18 l11,0 c-4,101,-5,165,-6,241 l-4,364 l88,0 l0,8 l-60,60 Z M462,620" fill="rgb(0,0,0)" transform="matrix(1,0,0,-1,641,1091)"/>
</svg>