<?xml version="1.0" encoding="UTF-8"?>
<svg height="1521" version="1.1" width="2238.75" xmlns="http://www.w3.org/2000/svg" xmlns:xlink="http://www.w3.org/1999/xlink">
 <path d="M0,0 l2238.75,0 l0,1521 l-2238.75,0 Z M0,0" fill="rgb(255,255,255)" transform="matrix(1,0,0,-1,0,1521)"/>
 <path d="M0,0 l2238.75,0" fill="none" stroke="rgb(229,229,229)" stroke-width="10" transform="matrix(1,0,0,-1,0,1091)"/>
 <path d="M0,5 l0,-25" fill="none" stroke="rgb(204,204,204)" stroke-width="10" transform="matrix(1,0,0,-1,641,1091)"/>
 <path d="M0,5 l0,-25" fill="none" stroke="rgb(204,204,204)" stroke-width="10" transform="matrix(1,0,0,-1,1279,1091)"/>
 <path d="M559,552 l89,0 l0,8 l-60,60 l-103,0 l0,-8 c0,-68,1,-101,8,-142 l-2,-1 c-60,101,-113,151,-152,151 c-31,0,-69,-26,-132,-109 l-3,0 c-47,85,-94,109,-174,109 l-80,0 l0,-8 l79,-79 l35,0 c53,0,76,-1,101,-33 c-107,-50,-119,-100,-119,-127 c0,-55,44,-83,84,-83 c37,0,83,27,102,85 l4,0 c22,-61,62,-84,98,-84 c42,0,80,32,80,76 c0,35,-22,81,-101,128 c16,26,37,42,52,42 c27,0,117,-63,120,-207 c-82,-39,-190,-95,-289,-157 l74,-92 c133,-13,223,-79,260,-152 l28,-17 l11,0 c-4,82,-7,129,-7,243 Z M320,147 l-1,3 c50,32,115,65,166,88 c1,-97,5,-178,14,-210 l-3,-2 c-45,56,-121,102,-176,121 Z M320,147" fill="rgb(0,0,0)" transform="matrix(1,0,0,-1,641,1091)"/>
</svg>