<?xml version="1.0" encoding="UTF-8"?>
<svg height="1521" version="1.1" width="2238.75" xmlns="http://www.w3.org/2000/svg" xmlns:xlink="http://www.w3.org/1999/xlink">
 <path d="M0,0 l2238.75,0 l0,1521 l-2238.75,0 Z M0,0" fill="rgb(255,255,255)" transform="matrix(1,0,0,-1,0,1521)"/>
 <path d="M0,0 l2238.75,0" fill="none" stroke="rgb(229,229,229)" stroke-width="10" transform="matrix(1,0,0,-1,0,1091)"/>
 <path d="M0,5 l0,-25" fill="none" stroke="rgb(204,204,204)" stroke-width="10" transform="matrix(1,0,0,-1,641,1091)"/>
 <path d="M0,5 l0,-25" fill="none" stroke="rgb(204,204,204)" stroke-width="10" transform="matrix(1,0,0,-1,1437,1091)"/>
 <path d="M455,620 l0,-3 c0,-65,2,-104,9,-143 l-2,-1 c-50,99,-110,147,-149,147 c-31,0,-65,-31,-125,-120 l-3,0 c-44,91,-89,120,-165,120 l-70,0 l0,-8 l79,-79 l27,0 c51,0,69,-1,92,-43 c-94,-43,-110,-79,-110,-114 c0,-50,37,-80,77,-80 c37,0,78,25,97,84 l4,0 c23,-62,63,-84,99,-84 c38,0,71,30,71,71 c0,35,-19,73,-97,118 c17,33,37,52,53,52 c32,0,85,-47,107,-137 c14,-61,21,-116,24,-168 c-20,5,-35,6,-44,6 c-66,0,-99,-43,-99,-88 c0,-49,40,-88,95,-88 c40,0,82,20,100,77 c93,-19,141,-111,163,-175 l27,-17 l11,0 c-4,101,-5,165,-5,241 l0,364 l85,0 l0,8 l-60,60 Z M647,113 c-43,47,-82,76,-115,94 c-2,53,-3,107,-3,181 l0,164 l113,0 l0,-157 c0,-146,0,-231,8,-280 Z M647,113" fill="rgb(0,0,0)" transform="matrix(1,0,0,-1,641,1091)"/>
</svg>