<?xml version="1.0" encoding="UTF-8"?>
<svg height="1521" version="1.1" width="2238.75" xmlns="http://www.w3.org/2000/svg" xmlns:xlink="http://www.w3.org/1999/xlink">
 <path d="M0,0 l2238.75,0 l0,1521 l-2238.75,0 Z M0,0" fill="rgb(255,255,255)" transform="matrix(1,0,0,-1,0,1521)"/>
 <path d="M0,0 l2238.75,0" fill="none" stroke="rgb(229,229,229)" stroke-width="10" transform="matrix(1,0,0,-1,0,1091)"/>
 <path d="M0,5 l0,-25" fill="none" stroke="rgb(204,204,204)" stroke-width="10" transform="matrix(1,0,0,-1,641,1091)"/>
 <path d="M0,5 l0,-25" fill="none" stroke="rgb(204,204,204)" stroke-width="10" transform="matrix(1,0,0,-1,1273,1091)"/>
 <path d="M482,339 c2,-84,3,-168,8,-201 l-2,-1 c-28,59,-66,97,-102,97 c-31,0,-55,-25,-65,-65 c-31,37,-72,70,-126,70 c-66,0,-122,-52,-122,-119 c0,-72,59,-135,138,-135 c58,0,85,35,85,66 c0,28,-20,54,-54,54 c-26,0,-49,-16,-49,-45 c0,-12,4,-23,14,-32 l-1,-2 c-40,0,-61,30,-61,63 c0,44,37,75,85,75 c47,0,96,-30,120,-81 l21,-10 l6,2 c-1,7,-1,12,-1,13 c0,52,17,73,38,73 c26,0,68,-29,107,-196 l31,-18 l11,0 c-5,97,-5,149,-6,273 l-4,332 l89,0 l0,8 l-60,60 l-100,0 l0,-3 c0,-65,2,-98,9,-137 l-2,-1 c-60,96,-117,141,-156,141 c-31,0,-65,-31,-125,-120 l-3,0 c-44,91,-89,120,-165,120 l-90,0 l0,-8 l79,-79 l47,0 c51,0,69,-1,92,-43 c-94,-43,-110,-79,-110,-114 c0,-50,37,-80,77,-80 c37,0,78,25,97,84 l4,0 c23,-62,63,-84,99,-84 c38,0,71,30,71,71 c0,35,-19,73,-97,118 c17,33,37,52,53,52 c28,0,117,-53,120,-198 Z M482,339" fill="rgb(0,0,0)" transform="matrix(1,0,0,-1,641,1091)"/>
</svg>