<?xml version="1.0" encoding="UTF-8"?>
<svg height="1521" version="1.1" width="2238.75" xmlns="http://www.w3.org/2000/svg" xmlns:xlink="http://www.w3.org/1999/xlink">
 <path d="M0,0 l2238.75,0 l0,1521 l-2238.75,0 Z M0,0" fill="rgb(255,255,255)" transform="matrix(1,0,0,-1,0,1521)"/>
 <path d="M0,0 l2238.75,0" fill="none" stroke="rgb(229,229,229)" stroke-width="10" transform="matrix(1,0,0,-1,0,1091)"/>
 <path d="M0,5 l0,-25" fill="none" stroke="rgb(204,204,204)" stroke-width="10" transform="matrix(1,0,0,-1,641,1091)"/>
 <path d="M0,5 l0,-25" fill="none" stroke="rgb(204,204,204)" stroke-width="10" transform="matrix(1,0,0,-1,1299,1091)"/>
 <path d="M104,438 c0,-48,30,-90,73,-115 c-45,-23,-90,-51,-135,-80 l74,-93 c144,-14,239,-88,279,-166 l28,-17 l11,0 c-4,87,-4,137,-4,194 l0,161 c75,-3,158,-46,158,-110 c0,-10,-2,-21,-7,-32 c-12,27,-34,39,-57,39 c-31,0,-60,-22,-60,-57 c0,-34,26,-65,71,-65 c47,0,93,34,93,111 c0,106,-91,177,-181,187 c16,23,27,50,27,79 c0,30,-11,56,-28,78 l222,0 l0,8 l-60,60 l-658,0 l0,-8 l60,-60 l150,0 c-34,-32,-56,-72,-56,-114 Z M168,223 l-1,3 c56,38,118,67,186,90 c0,-108,2,-197,11,-233 l-3,-2 c-49,62,-133,121,-193,142 Z M357,555 c32,0,60,-19,60,-48 c0,-30,-28,-64,-64,-92 l-96,104 c35,21,72,36,100,36 Z M161,405 c0,29,27,63,63,91 l97,-103 c-36,-22,-76,-36,-104,-36 c-30,0,-56,20,-56,48 Z M161,405" fill="rgb(0,0,0)" transform="matrix(1,0,0,-1,641,1091)"/>
</svg>