<?xml version="1.0" encoding="UTF-8"?>
<svg height="1521" version="1.1" width="2238.75" xmlns="http://www.w3.org/2000/svg" xmlns:xlink="http://www.w3.org/1999/xlink">
 <path d="M0,0 l2238.75,0 l0,1521 l-2238.75,0 Z M0,0" fill="rgb(255,255,255)" transform="matrix(1,0,0,-1,0,1521)"/>
 <path d="M0,0 l2238.75,0" fill="none" stroke="rgb(229,229,229)" stroke-width="10" transform="matrix(1,0,0,-1,0,1091)"/>
 <path d="M0,5 l0,-25" fill="none" stroke="rgb(204,204,204)" stroke-width="10" transform="matrix(1,0,0,-1,641,1091)"/>
 <path d="M0,5 l0,-25" fill="none" stroke="rgb(204,204,204)" stroke-width="10" transform="matrix(1,0,0,-1,1500,1091)"/>
 <path d="M-50,612 l60,-60 l159,0 c-34,-32,-56,-73,-56,-114 c0,-64,56,-115,124,-125 c-11,-21,-17,-44,-17,-66 c0,-55,39,-97,105,-97 c60,0,84,36,84,70 c0,38,-29,60,-64,60 c-7,0,-15,-1,-23,-3 l-2,1 c24,65,125,111,145,111 c10,0,20,-6,20,-30 c0,-40,-2,-78,-2,-139 c0,-116,7,-161,12,-185 l-2,-1 c-50,55,-105,70,-167,70 c-28,0,-86,-3,-112,-3 c-95,0,-132,43,-132,110 c0,27,6,57,20,85 l-23,15 l-9,0 c-22,-35,-35,-79,-35,-123 c0,-105,78,-171,193,-171 c41,0,115,8,163,8 c80,0,109,-22,136,-99 l28,-17 l11,0 c-4,77,-4,165,-4,185 l0,71 c0,60,36,139,112,139 c50,0,87,-38,87,-78 c0,-22,-11,-43,-30,-51 c-8,37,-36,60,-65,60 c-28,0,-53,-20,-53,-51 c0,-37,32,-62,78,-62 c59,0,118,43,118,120 c0,71,-50,129,-118,129 c-48,0,-94,-29,-124,-82 l-4,1 c1,14,1,34,1,51 c0,55,-60,94,-108,105 c4,12,6,24,6,36 c0,27,-10,51,-25,70 l432,0 l0,8 l-60,60 l-859,0 Z M174,405 c0,26,22,59,53,87 l95,-85 c-35,-25,-73,-42,-102,-42 c-24,0,-46,15,-46,40 Z M351,555 c26,0,51,-15,51,-39 c0,-26,-21,-57,-50,-84 l-94,85 c32,22,66,38,93,38 Z M351,555" fill="rgb(0,0,0)" transform="matrix(1,0,0,-1,641,1091)"/>
</svg>