<?xml version="1.0" encoding="UTF-8"?>
<svg height="1521" version="1.1" width="2238.75" xmlns="http://www.w3.org/2000/svg" xmlns:xlink="http://www.w3.org/1999/xlink">
 <path d="M0,0 l2238.75,0 l0,1521 l-2238.75,0 Z M0,0" fill="rgb(255,255,255)" transform="matrix(1,0,0,-1,0,1521)"/>
 <path d="M0,0 l2238.75,0" fill="none" stroke="rgb(229,229,229)" stroke-width="10" transform="matrix(1,0,0,-1,0,1091)"/>
 <path d="M0,5 l0,-25" fill="none" stroke="rgb(204,204,204)" stroke-width="10" transform="matrix(1,0,0,-1,641,1091)"/>
 <path d="M0,5 l0,-25" fill="none" stroke="rgb(204,204,204)" stroke-width="10" transform="matrix(1,0,0,-1,1156,1091)"/>
 <path d="M65,437 c0,-69,51,-123,114,-135 l1,-2 c-59,-47,-101,-93,-101,-146 c0,-57,47,-144,177,-144 c115,0,212,68,212,154 c0,57,-43,86,-82,86 c-37,0,-68,-23,-68,-62 c0,-24,13,-45,41,-54 c-27,-36,-91,-61,-145,-61 c-36,0,-67,12,-67,45 c0,57,90,121,155,168 c82,59,145,111,145,190 c0,29,-10,54,-25,76 l103,0 l0,8 l-60,60 l-9,0 c0,91,-54,165,-177,165 c-38,0,-87,-7,-133,-7 c-66,0,-95,13,-95,52 c0,13,4,28,16,46 l-24,20 l-8,0 c-20,-23,-28,-51,-28,-75 c0,-67,57,-125,174,-125 c45,0,103,8,142,8 c61,0,87,-22,87,-49 c0,-22,-18,-44,-33,-60 c-30,19,-66,30,-100,30 c-14,0,-29,-2,-43,-5 l-284,0 l0,-8 l60,-60 l106,0 c-31,-33,-51,-74,-51,-115 Z M122,400 c0,32,28,69,66,101 l105,-112 c-37,-26,-79,-43,-112,-43 c-32,0,-59,22,-59,54 Z M327,566 c34,0,63,-22,63,-53 c0,-31,-28,-69,-66,-101 l-104,113 c37,24,77,41,107,41 Z M327,566" fill="rgb(0,0,0)" transform="matrix(1,0,0,-1,641,1091)"/>
</svg>