<?xml version="1.0" encoding="UTF-8"?>
<svg height="1521" version="1.1" width="2238.75" xmlns="http://www.w3.org/2000/svg" xmlns:xlink="http://www.w3.org/1999/xlink">
 <path d="M0,0 l2238.75,0 l0,1521 l-2238.75,0 Z M0,0" fill="rgb(255,255,255)" transform="matrix(1,0,0,-1,0,1521)"/>
 <path d="M0,0 l2238.75,0" fill="none" stroke="rgb(229,229,229)" stroke-width="10" transform="matrix(1,0,0,-1,0,1091)"/>
 <path d="M0,5 l0,-25" fill="none" stroke="rgb(204,204,204)" stroke-width="10" transform="matrix(1,0,0,-1,641,1091)"/>
 <path d="M0,5 l0,-25" fill="none" stroke="rgb(204,204,204)" stroke-width="10" transform="matrix(1,0,0,-1,1237,1091)"/>
 <path d="M142,437 c0,-69,51,-123,114,-135 l0,-1 c-61,-47,-99,-90,-99,-141 c0,-55,47,-135,174,-135 c43,0,83,9,117,25 l0,-125 l-4,-2 c-50,54,-115,69,-164,69 c-26,0,-81,-4,-106,-4 c-68,0,-94,30,-94,73 c0,22,7,47,17,73 l-22,14 l-9,0 c-20,-34,-31,-72,-31,-108 c0,-72,45,-135,154,-135 c37,0,110,8,157,8 c62,0,106,-13,125,-78 l28,-17 l11,0 c-6,115,-7,181,-7,188 l0,81 c26,25,42,57,42,92 c0,57,-43,86,-82,86 c-37,0,-68,-23,-68,-62 c0,-24,13,-46,41,-55 c-27,-36,-90,-61,-146,-61 c-35,0,-65,10,-65,41 c0,51,83,109,154,159 c82,58,145,110,145,189 c0,29,-10,54,-25,76 l107,0 l0,8 l-60,60 l-13,0 c0,91,-54,165,-177,165 c-38,0,-87,-7,-133,-7 c-66,0,-95,13,-95,52 c0,13,4,28,16,46 l-24,20 l-8,0 c-20,-23,-28,-51,-28,-75 c0,-67,57,-125,174,-125 c45,0,103,8,142,8 c61,0,87,-22,87,-49 c0,-22,-18,-44,-33,-60 c-30,19,-66,30,-100,30 c-14,0,-28,-2,-42,-5 l-362,0 l0,-8 l60,-60 l183,0 c-31,-33,-51,-74,-51,-115 Z M199,400 c0,32,28,69,66,101 l105,-112 c-37,-26,-79,-43,-112,-43 c-32,0,-59,22,-59,54 Z M404,566 c34,0,63,-22,63,-53 c0,-31,-28,-69,-66,-101 l-104,113 c37,24,77,41,107,41 Z M404,566" fill="rgb(0,0,0)" transform="matrix(1,0,0,-1,641,1091)"/>
</svg>