<?xml version="1.0" encoding="UTF-8"?>
<svg height="1521" version="1.1" width="2238.75" xmlns="http://www.w3.org/2000/svg" xmlns:xlink="http://www.w3.org/1999/xlink">
 <path d="M0,0 l2238.75,0 l0,1521 l-2238.75,0 Z M0,0" fill="rgb(255,255,255)" transform="matrix(1,0,0,-1,0,1521)"/>
 <path d="M0,0 l2238.75,0" fill="none" stroke="rgb(229,229,229)" stroke-width="10" transform="matrix(1,0,0,-1,0,1091)"/>
 <path d="M0,5 l0,-25" fill="none" stroke="rgb(204,204,204)" stroke-width="10" transform="matrix(1,0,0,-1,641,1091)"/>
 <path d="M0,5 l0,-25" fill="none" stroke="rgb(204,204,204)" stroke-width="10" transform="matrix(1,0,0,-1,1250,1091)"/>
 <path d="M372,877 c-15,46,-46,59,-76,59 c-45,0,-79,-32,-79,-87 c0,-77,65,-166,105,-229 l-372,0 l0,-8 l60,-60 l31,0 c69,0,97,-41,97,-76 c0,-28,-19,-62,-77,-94 c4,-62,70,-119,124,-123 l1,-3 c-21,-8,-43,-14,-69,-18 c-7,-21,-10,-45,-10,-63 c0,-91,85,-171,207,-171 c141,0,237,103,237,244 c0,115,-65,221,-124,304 l192,0 l0,8 l-60,60 l-182,0 c-54,74,-96,143,-96,197 c0,39,23,58,58,58 c8,0,17,-1,27,-4 Z M406,513 c41,-62,75,-150,75,-238 c0,-162,-114,-211,-195,-211 c-63,0,-114,31,-114,80 c0,1,0,12,2,18 c153,36,239,147,239,275 c0,24,-3,49,-10,75 Z M354,552 c2,-11,3,-22,3,-35 c0,-36,-8,-84,-26,-127 l-171,162 Z M220,292 c-52,0,-76,36,-76,59 c32,22,53,51,53,82 c0,13,-4,26,-12,40 l2,1 l127,-119 c-22,-36,-53,-63,-94,-63 Z M220,292" fill="rgb(0,0,0)" transform="matrix(1,0,0,-1,641,1091)"/>
</svg>