<?xml version="1.0" encoding="UTF-8"?>
<svg height="1521" version="1.1" width="2238.75" xmlns="http://www.w3.org/2000/svg" xmlns:xlink="http://www.w3.org/1999/xlink">
 <path d="M0,0 l2238.75,0 l0,1521 l-2238.75,0 Z M0,0" fill="rgb(255,255,255)" transform="matrix(1,0,0,-1,0,1521)"/>
 <path d="M0,0 l2238.75,0" fill="none" stroke="rgb(229,229,229)" stroke-width="10" transform="matrix(1,0,0,-1,0,1091)"/>
 <path d="M0,5 l0,-25" fill="none" stroke="rgb(204,204,204)" stroke-width="10" transform="matrix(1,0,0,-1,641,1091)"/>
 <path d="M0,5 l0,-25" fill="none" stroke="rgb(204,204,204)" stroke-width="10" transform="matrix(1,0,0,-1,1497,1091)"/>
 <path d="M487,257 c48,-104,125,-157,200,-157 c76,0,119,56,119,115 c0,46,-28,90,-54,127 c30,37,51,81,51,125 c0,75,-59,126,-129,126 c-67,0,-143,-47,-188,-158 l-3,1 c2,21,2,39,2,49 l0,135 l-535,0 l0,-8 l87,-87 c73,-2,130,-21,214,-83 c-64,-42,-134,-89,-202,-143 l73,-93 c179,-18,295,-122,331,-222 l27,-17 l11,0 c-5,101,-6,165,-8,290 Z M664,182 c-96,0,-182,104,-182,163 c0,67,109,169,200,169 c49,0,78,-30,78,-59 c0,-27,-24,-52,-55,-63 c-20,14,-39,22,-61,22 c-48,0,-73,-35,-73,-69 c0,-34,25,-68,73,-68 c24,0,46,9,71,29 c19,-13,37,-32,37,-56 c0,-33,-31,-68,-88,-68 Z M416,122 l-3,-2 c-76,87,-160,130,-237,153 l-1,3 c46,36,98,72,151,106 c24,-20,50,-44,80,-70 c1,-89,3,-155,10,-190 Z M185,550 l1,2 l220,0 l0,-181 c-70,62,-146,123,-221,179 Z M185,550" fill="rgb(0,0,0)" transform="matrix(1,0,0,-1,641,1091)"/>
</svg>