<?xml version="1.0" encoding="UTF-8"?>
<svg height="1521" version="1.1" width="2238.75" xmlns="http://www.w3.org/2000/svg" xmlns:xlink="http://www.w3.org/1999/xlink">
 <path d="M0,0 l2238.75,0 l0,1521 l-2238.75,0 Z M0,0" fill="rgb(255,255,255)" transform="matrix(1,0,0,-1,0,1521)"/>
 <path d="M0,0 l2238.75,0" fill="none" stroke="rgb(229,229,229)" stroke-width="10" transform="matrix(1,0,0,-1,0,1091)"/>
 <path d="M0,5 l0,-25" fill="none" stroke="rgb(204,204,204)" stroke-width="10" transform="matrix(1,0,0,-1,641,1091)"/>
 <path d="M0,5 l0,-25" fill="none" stroke="rgb(204,204,204)" stroke-width="10" transform="matrix(1,0,0,-1,1603,1091)"/>
 <path d="M93,552 l1,-2 c-41,-33,-61,-76,-61,-116 c0,-79,73,-138,163,-138 c79,0,123,36,158,72 c34,34,60,66,105,66 c33,0,51,-20,51,-56 c0,-33,-15,-56,-60,-100 l0,-5 l89,-43 c77,84,144,152,222,217 c31,-48,50,-105,50,-159 c0,-37,-1,-207,-1,-278 l68,-53 l11,0 l-8,595 l91,0 l0,8 l-60,60 l-100,0 l0,-12 c0,-78,0,-130,6,-181 l-4,-1 c-61,137,-141,199,-250,199 c-85,0,-148,-37,-192,-89 c-24,48,-78,84,-159,84 l-263,0 l0,-8 l60,-60 Z M554,377 l-3,2 c1,8,1,12,1,13 c0,63,-46,90,-101,92 l-2,3 c36,44,93,67,143,67 c45,0,80,-17,109,-43 c-61,-55,-108,-95,-147,-134 Z M148,351 c-29,0,-54,18,-54,46 c0,27,24,60,57,90 l102,-91 c-36,-26,-76,-45,-105,-45 Z M337,508 c0,-26,-23,-59,-54,-87 l-101,91 c35,25,73,43,100,43 c29,0,55,-18,55,-47 Z M337,508" fill="rgb(0,0,0)" transform="matrix(1,0,0,-1,641,1091)"/>
</svg>