<?xml version="1.0" encoding="UTF-8"?>
<svg height="1521" version="1.1" width="2238.75" xmlns="http://www.w3.org/2000/svg" xmlns:xlink="http://www.w3.org/1999/xlink">
 <path d="M0,0 l2238.75,0 l0,1521 l-2238.75,0 Z M0,0" fill="rgb(255,255,255)" transform="matrix(1,0,0,-1,0,1521)"/>
 <path d="M0,0 l2238.75,0" fill="none" stroke="rgb(229,229,229)" stroke-width="10" transform="matrix(1,0,0,-1,0,1091)"/>
 <path d="M0,5 l0,-25" fill="none" stroke="rgb(204,204,204)" stroke-width="10" transform="matrix(1,0,0,-1,641,1091)"/>
 <path d="M0,5 l0,-25" fill="none" stroke="rgb(204,204,204)" stroke-width="10" transform="matrix(1,0,0,-1,1468,1091)"/>
 <path d="M189,310 c39,0,78,14,112,36 l28,-32 c-51,-33,-109,-71,-165,-113 l73,-93 c165,-16,273,-97,303,-174 l28,-17 l11,0 c-4,101,-4,165,-4,241 l0,257 c7,1,15,1,16,1 c70,0,159,-16,159,-76 c0,-16,-7,-28,-20,-35 c-15,18,-31,27,-52,27 c-40,0,-62,-30,-62,-60 c0,-33,25,-67,72,-67 c52,0,99,41,99,122 c0,99,-69,173,-217,173 c-18,0,-49,-1,-74,-6 l0,-124 c0,-156,1,-268,10,-320 l-3,-2 c-70,67,-148,104,-216,124 l-1,3 c42,31,94,66,143,96 c-31,34,-61,69,-94,102 c30,31,50,69,50,109 c0,27,-10,51,-25,70 l477,0 l0,8 l-60,60 l-827,0 l0,-8 l60,-60 l82,0 c-34,-32,-56,-73,-56,-114 c0,-72,74,-128,153,-128 Z M97,405 c0,26,23,60,54,88 c34,-28,65,-56,94,-84 c-35,-26,-74,-44,-102,-44 c-24,0,-46,15,-46,40 Z M185,519 c30,21,63,36,89,36 c26,0,51,-15,51,-39 c0,-24,-21,-54,-49,-81 c-29,28,-59,56,-91,84 Z M185,519" fill="rgb(0,0,0)" transform="matrix(1,0,0,-1,641,1091)"/>
</svg>