<?xml version="1.0" encoding="UTF-8"?>
<svg height="1521" version="1.1" width="2238.75" xmlns="http://www.w3.org/2000/svg" xmlns:xlink="http://www.w3.org/1999/xlink">
 <path d="M0,0 l2238.75,0 l0,1521 l-2238.75,0 Z M0,0" fill="rgb(255,255,255)" transform="matrix(1,0,0,-1,0,1521)"/>
 <path d="M0,0 l2238.75,0" fill="none" stroke="rgb(229,229,229)" stroke-width="10" transform="matrix(1,0,0,-1,0,1091)"/>
 <path d="M0,5 l0,-25" fill="none" stroke="rgb(204,204,204)" stroke-width="10" transform="matrix(1,0,0,-1,641,1091)"/>
 <path d="M0,5 l0,-25" fill="none" stroke="rgb(204,204,204)" stroke-width="10" transform="matrix(1,0,0,-1,1183,1091)"/>
 <path d="M104,438 c0,-49,31,-93,76,-118 c-45,-25,-92,-53,-137,-81 l74,-93 c144,-14,238,-84,278,-162 l28,-17 l11,0 c-4,87,-4,137,-4,194 l0,211 c27,28,44,63,44,102 c0,30,-11,56,-28,78 l106,0 l0,8 l-60,60 l-542,0 l0,-8 l60,-60 l150,0 c-34,-32,-56,-72,-56,-114 Z M170,218 l-1,3 c54,36,128,71,184,100 c0,-108,2,-202,11,-238 l-3,-2 c-49,62,-131,116,-191,137 Z M161,405 c0,29,27,63,63,91 l96,-102 c-36,-22,-76,-37,-103,-37 c-30,0,-56,20,-56,48 Z M357,555 c32,0,60,-19,60,-48 c0,-29,-29,-63,-65,-91 l-95,103 c35,21,72,36,100,36 Z M357,555" fill="rgb(0,0,0)" transform="matrix(1,0,0,-1,641,1091)"/>
</svg>