<?xml version="1.0" encoding="UTF-8"?>
<svg height="1521" version="1.1" width="2238.75" xmlns="http://www.w3.org/2000/svg" xmlns:xlink="http://www.w3.org/1999/xlink">
 <path d="M0,0 l2238.75,0 l0,1521 l-2238.75,0 Z M0,0" fill="rgb(255,255,255)" transform="matrix(1,0,0,-1,0,1521)"/>
 <path d="M0,0 l2238.75,0" fill="none" stroke="rgb(229,229,229)" stroke-width="10" transform="matrix(1,0,0,-1,0,1091)"/>
 <path d="M0,5 l0,-25" fill="none" stroke="rgb(204,204,204)" stroke-width="10" transform="matrix(1,0,0,-1,641,1091)"/>
 <path d="M0,5 l0,-25" fill="none" stroke="rgb(204,204,204)" stroke-width="10" transform="matrix(1,0,0,-1,1293,1091)"/>
 <path d="M390,153 c90,-24,134,-114,154,-178 l27,-17 l11,0 c-4,101,-5,164,-5,240 l0,354 l85,0 l0,8 l-60,60 l-652,0 l0,-8 l60,-60 l88,0 l1,-2 c-41,-33,-61,-76,-61,-116 c0,-79,74,-138,161,-138 c36,0,75,11,108,29 c16,-17,28,-42,28,-64 c0,-4,-1,-9,-2,-13 c-12,2,-23,4,-35,4 c-63,0,-102,-39,-102,-88 c0,-49,40,-88,95,-88 c40,0,82,20,99,77 Z M340,347 c34,29,58,68,58,114 c0,29,-10,62,-31,91 l131,0 l0,-147 c0,-146,0,-231,8,-280 l-3,-2 c-27,37,-64,73,-104,97 c-1,27,-17,87,-59,127 Z M153,351 c-29,0,-54,18,-54,46 c0,27,24,60,57,90 l102,-91 c-36,-26,-76,-45,-105,-45 Z M342,508 c0,-26,-23,-59,-54,-87 l-101,91 c35,25,72,43,101,43 c27,0,54,-18,54,-47 Z M342,508" fill="rgb(0,0,0)" transform="matrix(1,0,0,-1,641,1091)"/>
</svg>