<?xml version="1.0" encoding="UTF-8"?>
<svg height="1521" version="1.1" width="2238.75" xmlns="http://www.w3.org/2000/svg" xmlns:xlink="http://www.w3.org/1999/xlink">
 <path d="M0,0 l2238.75,0 l0,1521 l-2238.75,0 Z M0,0" fill="rgb(255,255,255)" transform="matrix(1,0,0,-1,0,1521)"/>
 <path d="M0,0 l2238.75,0" fill="none" stroke="rgb(229,229,229)" stroke-width="10" transform="matrix(1,0,0,-1,0,1091)"/>
 <path d="M0,5 l0,-25" fill="none" stroke="rgb(204,204,204)" stroke-width="10" transform="matrix(1,0,0,-1,641,1091)"/>
 <path d="M0,5 l0,-25" fill="none" stroke="rgb(204,204,204)" stroke-width="10" transform="matrix(1,0,0,-1,1369,1091)"/>
 <path d="M510,273 c71,-3,150,-43,150,-103 c0,-10,-2,-20,-7,-31 c-11,26,-32,37,-54,37 c-29,0,-57,-21,-57,-54 c0,-32,25,-62,68,-62 c44,0,88,33,88,106 c0,98,-81,164,-165,175 l0,3 c47,18,66,57,66,99 c0,40,-18,83,-46,109 l185,0 l0,8 l-60,60 l-728,0 l0,-8 l60,-60 l182,0 c-54,-122,-79,-138,-101,-138 c-18,0,-34,9,-51,52 l-7,0 l-30,-23 c36,-73,84,-109,131,-109 c34,0,73,19,131,170 l3,0 c20,-72,60,-135,134,-164 l0,-3 c-85,-23,-175,-66,-265,-119 l76,-96 c137,-14,227,-90,264,-169 l27,-16 l10,0 c-4,83,-4,130,-4,185 Z M443,552 c63,0,90,-37,90,-70 c0,-36,-32,-68,-88,-68 c-81,0,-140,64,-153,138 Z M265,195 l-1,3 c51,29,107,52,169,69 c0,-99,2,-181,11,-214 l-3,-2 c-45,63,-121,122,-176,144 Z M265,195" fill="rgb(0,0,0)" transform="matrix(1,0,0,-1,641,1091)"/>
</svg>