<?xml version="1.0" encoding="UTF-8"?>
<svg height="1521" version="1.1" width="2238.75" xmlns="http://www.w3.org/2000/svg" xmlns:xlink="http://www.w3.org/1999/xlink">
 <path d="M0,0 l2238.75,0 l0,1521 l-2238.75,0 Z M0,0" fill="rgb(255,255,255)" transform="matrix(1,0,0,-1,0,1521)"/>
 <path d="M0,0 l2238.75,0" fill="none" stroke="rgb(229,229,229)" stroke-width="10" transform="matrix(1,0,0,-1,0,1091)"/>
 <path d="M0,5 l0,-25" fill="none" stroke="rgb(204,204,204)" stroke-width="10" transform="matrix(1,0,0,-1,641,1091)"/>
 <path d="M0,5 l0,-25" fill="none" stroke="rgb(204,204,204)" stroke-width="10" transform="matrix(1,0,0,-1,1494,1091)"/>
 <path d="M248,552 c-42,-126,-71,-138,-90,-138 c-18,0,-34,9,-51,52 l-7,0 l-30,-23 c36,-72,80,-108,131,-108 c29,0,72,13,119,167 l3,0 c13,-46,35,-87,68,-114 c-70,-33,-149,-107,-149,-183 c0,-55,42,-99,108,-99 c60,0,84,36,84,70 c0,38,-29,60,-64,60 c-7,0,-15,-1,-23,-3 l-2,1 c25,68,130,111,145,111 c10,0,20,-6,20,-30 c0,-40,-2,-74,-2,-135 c0,-116,7,-161,12,-185 l-2,-1 c-50,55,-105,70,-167,70 c-28,0,-86,-3,-112,-3 c-95,0,-132,43,-132,110 c0,27,6,57,20,85 l-23,15 l-9,0 c-22,-35,-35,-79,-35,-123 c0,-105,78,-171,193,-171 c41,0,115,8,163,8 c80,0,109,-22,136,-99 l28,-17 l11,0 c-4,77,-4,165,-4,185 l0,71 c0,60,36,139,112,139 c50,0,87,-38,87,-78 c0,-22,-11,-43,-30,-51 c-8,37,-36,60,-65,60 c-28,0,-53,-20,-53,-51 c0,-37,32,-62,78,-62 c59,0,118,43,118,120 c0,71,-50,129,-118,129 c-48,0,-94,-29,-124,-82 l-4,1 c1,14,1,30,1,47 c0,28,-16,53,-39,71 c38,17,59,51,59,91 c0,32,-12,64,-39,93 l293,0 l0,8 l-60,60 l-853,0 l0,-8 l60,-60 Z M461,552 c57,0,80,-32,80,-59 c0,-33,-28,-58,-74,-58 c-65,0,-113,55,-123,117 Z M461,552" fill="rgb(0,0,0)" transform="matrix(1,0,0,-1,641,1091)"/>
</svg>