<?xml version="1.0" encoding="UTF-8"?>
<svg height="1521" version="1.1" width="2238.75" xmlns="http://www.w3.org/2000/svg" xmlns:xlink="http://www.w3.org/1999/xlink">
 <path d="M0,0 l2238.75,0 l0,1521 l-2238.75,0 Z M0,0" fill="rgb(255,255,255)" transform="matrix(1,0,0,-1,0,1521)"/>
 <path d="M0,0 l2238.75,0" fill="none" stroke="rgb(229,229,229)" stroke-width="10" transform="matrix(1,0,0,-1,0,1091)"/>
 <path d="M0,5 l0,-25" fill="none" stroke="rgb(204,204,204)" stroke-width="10" transform="matrix(1,0,0,-1,641,1091)"/>
 <path d="M0,5 l0,-25" fill="none" stroke="rgb(204,204,204)" stroke-width="10" transform="matrix(1,0,0,-1,1406,1091)"/>
 <path d="M181,552 c-42,-126,-71,-138,-90,-138 c-18,0,-34,9,-51,52 l-7,0 l-30,-23 c36,-72,80,-108,131,-108 c29,0,72,13,119,167 l3,0 c23,-75,71,-137,163,-137 c7,0,14,0,21,1 c-40,-54,-103,-78,-132,-80 c-2,39,-31,59,-62,59 c-32,0,-62,-23,-62,-63 c0,-58,57,-80,112,-80 c77,0,154,45,190,92 c16,-14,22,-33,22,-50 c0,-67,-90,-119,-215,-119 c-1,0,-11,0,-31,1 l-2,-7 l74,-89 c173,-11,287,-79,323,-144 l28,-17 l11,0 c-6,108,-7,174,-8,277 l-4,406 l91,0 l0,8 l-60,60 l-103,0 l0,-384 c0,-136,5,-222,14,-261 l-3,-2 c-45,44,-112,84,-172,101 l0,3 c79,25,117,69,117,128 c0,62,-37,124,-93,169 c43,15,67,49,67,90 c0,30,-10,95,-119,156 l-473,0 l0,-8 l60,-60 Z M394,552 c55,0,78,-29,78,-53 c0,-30,-28,-53,-74,-53 c-64,0,-111,50,-121,106 Z M394,552" fill="rgb(0,0,0)" transform="matrix(1,0,0,-1,641,1091)"/>
</svg>