<?xml version="1.0" encoding="UTF-8"?>
<svg height="1521" version="1.1" width="2238.75" xmlns="http://www.w3.org/2000/svg" xmlns:xlink="http://www.w3.org/1999/xlink">
 <path d="M0,0 l2238.75,0 l0,1521 l-2238.75,0 Z M0,0" fill="rgb(255,255,255)" transform="matrix(1,0,0,-1,0,1521)"/>
 <path d="M0,0 l2238.75,0" fill="none" stroke="rgb(229,229,229)" stroke-width="10" transform="matrix(1,0,0,-1,0,1091)"/>
 <path d="M0,5 l0,-25" fill="none" stroke="rgb(204,204,204)" stroke-width="10" transform="matrix(1,0,0,-1,641,1091)"/>
 <path d="M0,5 l0,-25" fill="none" stroke="rgb(204,204,204)" stroke-width="10" transform="matrix(1,0,0,-1,1501,1091)"/>
 <path d="M317,895 c-20,-23,-28,-51,-28,-75 c0,-67,60,-127,178,-127 c51,0,134,11,178,11 c63,0,92,-22,92,-49 c0,-10,-4,-22,-14,-35 l-773,0 l0,-8 l88,-88 c105,-10,186,-46,186,-122 c0,-19,-5,-42,-14,-67 c-40,-51,-70,-90,-95,-90 c-16,0,-37,15,-53,57 l-8,0 l-32,-24 c35,-71,86,-116,135,-116 c38,0,53,24,120,107 c44,55,71,78,99,78 c24,0,60,-34,60,-114 l0,-44 c0,-69,81,-167,137,-167 c71,0,243,153,243,299 c0,82,-53,132,-115,132 c-57,0,-87,-42,-87,-83 c0,-40,28,-79,76,-79 c11,0,19,2,30,5 c-16,-100,-130,-190,-176,-190 c-21,0,-30,20,-30,57 l0,389 l356,0 l0,8 l-60,60 l-25,0 c-6,91,-60,164,-183,164 c-46,0,-117,-10,-170,-10 c-68,0,-99,16,-99,55 c0,13,4,28,16,46 l-24,20 Z M437,552 l0,-44 c0,-91,0,-128,7,-166 l-2,-1 c-30,59,-65,93,-103,93 c-30,0,-54,-14,-83,-45 l-3,2 c6,18,9,38,9,57 c0,38,-17,79,-61,101 l0,3 Z M437,552" fill="rgb(0,0,0)" transform="matrix(1,0,0,-1,641,1091)"/>
</svg>