<?xml version="1.0" encoding="UTF-8"?>
<svg height="1521" version="1.1" width="2238.75" xmlns="http://www.w3.org/2000/svg" xmlns:xlink="http://www.w3.org/1999/xlink">
 <path d="M0,0 l2238.75,0 l0,1521 l-2238.75,0 Z M0,0" fill="rgb(255,255,255)" transform="matrix(1,0,0,-1,0,1521)"/>
 <path d="M0,0 l2238.75,0" fill="none" stroke="rgb(229,229,229)" stroke-width="10" transform="matrix(1,0,0,-1,0,1091)"/>
 <path d="M0,5 l0,-25" fill="none" stroke="rgb(204,204,204)" stroke-width="10" transform="matrix(1,0,0,-1,641,1091)"/>
 <path d="M0,5 l0,-25" fill="none" stroke="rgb(204,204,204)" stroke-width="10" transform="matrix(1,0,0,-1,1369,1091)"/>
 <path d="M461,-29 c127,0,204,79,204,191 c0,82,-42,148,-104,176 l1,4 c61,5,104,47,104,106 c0,40,-19,79,-44,104 l116,0 l0,8 l-60,60 l-728,0 l0,-8 l60,-60 l288,0 c-42,-126,-71,-138,-90,-138 c-18,0,-34,9,-51,52 l-7,0 l-30,-23 c36,-72,80,-108,131,-108 c29,0,72,13,119,167 l3,0 c17,-62,49,-120,101,-146 l-1,-3 c-70,-7,-126,-54,-126,-117 c0,-60,49,-92,97,-92 c43,0,85,27,85,78 c0,24,-9,47,-32,63 c8,2,15,3,23,3 c49,0,90,-46,90,-100 c0,-64,-57,-123,-163,-123 c-138,0,-284,102,-390,435 l-30,9 l-10,0 c103,-391,273,-538,444,-538 Z M521,552 c50,0,74,-34,74,-63 c0,-33,-30,-63,-77,-63 c-67,0,-114,59,-124,126 Z M521,552" fill="rgb(0,0,0)" transform="matrix(1,0,0,-1,641,1091)"/>
</svg>