<?xml version="1.0" encoding="UTF-8"?>
<svg height="1521" version="1.1" width="2238.75" xmlns="http://www.w3.org/2000/svg" xmlns:xlink="http://www.w3.org/1999/xlink">
 <path d="M0,0 l2238.75,0 l0,1521 l-2238.75,0 Z M0,0" fill="rgb(255,255,255)" transform="matrix(1,0,0,-1,0,1521)"/>
 <path d="M0,0 l2238.75,0" fill="none" stroke="rgb(229,229,229)" stroke-width="10" transform="matrix(1,0,0,-1,0,1091)"/>
 <path d="M0,5 l0,-25" fill="none" stroke="rgb(204,204,204)" stroke-width="10" transform="matrix(1,0,0,-1,641,1091)"/>
 <path d="M0,5 l0,-25" fill="none" stroke="rgb(204,204,204)" stroke-width="10" transform="matrix(1,0,0,-1,1355,1091)"/>
 <path d="M361,502 c13,-45,36,-85,71,-110 c-52,-13,-88,-46,-88,-93 c0,-51,45,-82,90,-82 c42,0,83,25,83,73 c0,20,-8,40,-26,55 c7,2,14,3,22,3 c45,0,83,-35,83,-81 c0,-56,-55,-109,-160,-109 c-131,0,-276,81,-379,342 l-30,9 l-10,0 c80,-254,206,-384,335,-421 l0,-2 c-26,-14,-52,-29,-78,-45 l68,-85 c114,-11,187,-62,215,-115 l32,-15 l11,0 c-3,65,-3,107,-3,182 l0,109 c35,31,54,75,54,125 c0,62,-28,106,-71,132 c42,15,67,49,67,90 c0,30,-12,61,-39,88 l116,0 l0,8 l-60,60 l-714,0 l0,-8 l60,-60 l276,0 c-38,-115,-65,-125,-83,-125 c-17,0,-33,10,-50,52 l-7,0 l-30,-23 c36,-73,80,-106,130,-106 c27,0,68,10,112,152 Z M499,552 c55,0,78,-29,78,-53 c0,-30,-30,-52,-76,-52 c-64,0,-109,49,-119,105 Z M393,17 l-1,3 c41,26,87,45,130,64 c0,-80,1,-135,9,-164 l-2,-2 c-38,48,-96,85,-136,99 Z M393,17" fill="rgb(0,0,0)" transform="matrix(1,0,0,-1,641,1091)"/>
</svg>