<?xml version="1.0" encoding="UTF-8"?>
<svg height="1521" version="1.1" width="2238.75" xmlns="http://www.w3.org/2000/svg" xmlns:xlink="http://www.w3.org/1999/xlink">
 <path d="M0,0 l2238.75,0 l0,1521 l-2238.75,0 Z M0,0" fill="rgb(255,255,255)" transform="matrix(1,0,0,-1,0,1521)"/>
 <path d="M0,0 l2238.75,0" fill="none" stroke="rgb(229,229,229)" stroke-width="10" transform="matrix(1,0,0,-1,0,1091)"/>
 <path d="M0,5 l0,-25" fill="none" stroke="rgb(204,204,204)" stroke-width="10" transform="matrix(1,0,0,-1,641,1091)"/>
 <path d="M0,5 l0,-25" fill="none" stroke="rgb(204,204,204)" stroke-width="10" transform="matrix(1,0,0,-1,1297,1091)"/>
 <path d="M268,504 c19,-72,63,-138,128,-163 l-1,-3 l-1,0 c-82,0,-185,-33,-185,-100 c0,-37,28,-63,73,-63 c52,0,93,36,105,88 c22,11,50,18,75,18 c36,0,69,-16,69,-54 c0,-73,-119,-126,-220,-126 c-26,0,-60,3,-134,31 l-5,-5 l64,-119 c167,-36,301,-98,469,-224 l7,0 l-14,49 c-45,46,-124,117,-278,194 l0,3 c100,27,173,75,173,164 c0,74,-51,114,-111,132 l0,3 c65,3,108,50,108,115 c0,43,-18,81,-46,108 l122,0 l0,8 l-60,60 l-656,0 l0,-8 l60,-60 l182,0 c-54,-123,-79,-138,-102,-138 c-17,0,-33,10,-50,52 l-7,0 l-30,-23 c36,-73,84,-109,131,-109 c34,0,73,19,131,170 Z M440,552 c59,0,84,-34,84,-68 c0,-37,-28,-69,-82,-69 c-76,0,-137,65,-150,137 Z M440,552" fill="rgb(0,0,0)" transform="matrix(1,0,0,-1,641,1091)"/>
</svg>