<?xml version="1.0" encoding="UTF-8"?>
<svg height="1521" version="1.1" width="2238.75" xmlns="http://www.w3.org/2000/svg" xmlns:xlink="http://www.w3.org/1999/xlink">
 <path d="M0,0 l2238.75,0 l0,1521 l-2238.75,0 Z M0,0" fill="rgb(255,255,255)" transform="matrix(1,0,0,-1,0,1521)"/>
 <path d="M0,0 l2238.75,0" fill="none" stroke="rgb(229,229,229)" stroke-width="10" transform="matrix(1,0,0,-1,0,1091)"/>
 <path d="M0,5 l0,-25" fill="none" stroke="rgb(204,204,204)" stroke-width="10" transform="matrix(1,0,0,-1,641,1091)"/>
 <path d="M0,5 l0,-25" fill="none" stroke="rgb(204,204,204)" stroke-width="10" transform="matrix(1,0,0,-1,1319,1091)"/>
 <path d="M248,552 c-42,-126,-71,-138,-90,-138 c-18,0,-34,9,-51,52 l-7,0 l-30,-23 c36,-72,80,-108,131,-108 c29,0,72,13,119,167 l3,0 c14,-46,37,-86,73,-111 c-71,-32,-154,-108,-154,-186 c0,-55,42,-99,108,-99 c60,0,84,36,84,70 c0,38,-29,60,-64,60 c-7,0,-15,-1,-23,-3 l-2,1 c25,68,126,111,149,111 c9,0,16,-6,16,-41 c0,-17,-2,-66,-2,-126 c0,-114,7,-161,12,-183 l-2,-1 c-50,55,-105,70,-167,70 c-28,0,-86,-3,-112,-3 c-95,0,-132,43,-132,110 c0,27,6,57,20,85 l-23,15 l-9,0 c-22,-35,-35,-79,-35,-123 c0,-105,78,-171,193,-171 c41,0,115,8,163,8 c80,0,109,-22,136,-99 l28,-17 l11,0 c-4,76,-4,167,-4,182 c0,138,2,160,2,246 c0,31,-20,58,-46,77 c42,16,66,49,66,90 c0,30,-12,61,-39,88 l118,0 l0,8 l-60,60 l-678,0 l0,-8 l60,-60 Z M461,552 c55,0,78,-29,78,-53 c0,-30,-30,-52,-76,-52 c-64,0,-109,49,-119,105 Z M461,552" fill="rgb(0,0,0)" transform="matrix(1,0,0,-1,641,1091)"/>
</svg>