<?xml version="1.0" encoding="UTF-8"?>
<svg height="1521" version="1.1" width="2238.75" xmlns="http://www.w3.org/2000/svg" xmlns:xlink="http://www.w3.org/1999/xlink">
 <path d="M0,0 l2238.75,0 l0,1521 l-2238.75,0 Z M0,0" fill="rgb(255,255,255)" transform="matrix(1,0,0,-1,0,1521)"/>
 <path d="M0,0 l2238.75,0" fill="none" stroke="rgb(229,229,229)" stroke-width="10" transform="matrix(1,0,0,-1,0,1091)"/>
 <path d="M0,5 l0,-25" fill="none" stroke="rgb(204,204,204)" stroke-width="10" transform="matrix(1,0,0,-1,641,1091)"/>
 <path d="M0,5 l0,-25" fill="none" stroke="rgb(204,204,204)" stroke-width="10" transform="matrix(1,0,0,-1,1756,1091)"/>
 <path d="M256,502 c22,-96,79,-184,169,-184 c62,0,91,27,112,55 c23,31,37,63,75,63 c35,0,51,-22,51,-58 c0,-33,-15,-56,-60,-100 l0,-5 l89,-43 c77,84,144,152,222,217 c31,-48,50,-101,50,-164 c0,-34,-1,-202,-1,-273 l68,-53 l11,0 l-8,595 l91,0 l0,8 l-60,60 l-100,0 l0,-12 c0,-78,0,-130,6,-181 l-4,-1 c-62,138,-140,199,-251,199 c-86,0,-151,-42,-191,-86 c-17,31,-41,59,-69,81 l-506,0 l0,-8 l60,-60 l171,0 c-43,-128,-71,-138,-92,-138 c-16,0,-33,11,-49,52 l-7,0 l-30,-23 c36,-73,83,-108,128,-108 c32,0,74,10,122,167 Z M401,552 c62,0,88,-36,88,-67 c0,-39,-29,-74,-85,-74 c-66,0,-112,60,-123,141 Z M707,377 l-3,2 c1,8,1,12,1,13 c0,63,-43,94,-98,96 l-2,3 c35,42,92,63,140,63 c41,0,81,-16,109,-43 c-61,-55,-108,-95,-147,-134 Z M707,377" fill="rgb(0,0,0)" transform="matrix(1,0,0,-1,641,1091)"/>
</svg>