<?xml version="1.0" encoding="UTF-8"?>
<svg height="1521" version="1.1" width="2238.75" xmlns="http://www.w3.org/2000/svg" xmlns:xlink="http://www.w3.org/1999/xlink">
 <path d="M0,0 l2238.75,0 l0,1521 l-2238.75,0 Z M0,0" fill="rgb(255,255,255)" transform="matrix(1,0,0,-1,0,1521)"/>
 <path d="M0,0 l2238.75,0" fill="none" stroke="rgb(229,229,229)" stroke-width="10" transform="matrix(1,0,0,-1,0,1091)"/>
 <path d="M0,5 l0,-25" fill="none" stroke="rgb(204,204,204)" stroke-width="10" transform="matrix(1,0,0,-1,641,1091)"/>
 <path d="M0,5 l0,-25" fill="none" stroke="rgb(204,204,204)" stroke-width="10" transform="matrix(1,0,0,-1,1756,1091)"/>
 <path d="M1037,552 l88,0 l0,8 l-60,60 l-100,0 l0,-12 c0,-78,0,-130,6,-181 l-4,-1 c-62,138,-140,199,-251,199 c-86,0,-151,-42,-191,-86 c-17,31,-41,59,-69,81 l-506,0 l0,-8 l60,-60 l171,0 c-43,-128,-71,-138,-92,-138 c-16,0,-33,11,-49,52 l-7,0 l-30,-23 c36,-73,83,-108,128,-108 c32,0,74,10,122,167 l3,0 c22,-93,79,-178,169,-178 c68,0,96,30,117,59 c20,27,33,54,70,54 c35,0,51,-23,51,-59 c0,-33,-15,-56,-60,-100 l0,-5 l89,-43 c77,84,144,152,222,217 c31,-48,50,-101,50,-164 l0,-98 c0,-34,7,-74,21,-101 l-4,-2 c-59,65,-117,77,-179,77 c-60,0,-199,-12,-267,-12 c-104,0,-165,28,-165,116 c0,11,1,24,3,37 l-23,15 l-9,0 c-7,-25,-11,-52,-11,-75 c0,-110,82,-176,221,-176 c71,0,245,17,310,17 c89,0,122,-32,148,-107 l28,-17 l11,0 c-5,89,-8,167,-8,200 Z M401,552 c62,0,88,-36,88,-67 c0,-36,-30,-68,-81,-68 c-80,0,-118,72,-127,135 Z M707,377 l-3,2 c1,8,1,12,1,13 c0,63,-43,94,-98,96 l-2,3 c35,42,92,63,140,63 c41,0,81,-16,109,-43 c-61,-55,-108,-95,-147,-134 Z M707,377" fill="rgb(0,0,0)" transform="matrix(1,0,0,-1,641,1091)"/>
</svg>