<?xml version="1.0" encoding="UTF-8"?>
<svg height="1521" version="1.1" width="2238.75" xmlns="http://www.w3.org/2000/svg" xmlns:xlink="http://www.w3.org/1999/xlink">
 <path d="M0,0 l2238.75,0 l0,1521 l-2238.75,0 Z M0,0" fill="rgb(255,255,255)" transform="matrix(1,0,0,-1,0,1521)"/>
 <path d="M0,0 l2238.75,0" fill="none" stroke="rgb(229,229,229)" stroke-width="10" transform="matrix(1,0,0,-1,0,1091)"/>
 <path d="M0,5 l0,-25" fill="none" stroke="rgb(204,204,204)" stroke-width="10" transform="matrix(1,0,0,-1,641,1091)"/>
 <path d="M0,5 l0,-25" fill="none" stroke="rgb(204,204,204)" stroke-width="10" transform="matrix(1,0,0,-1,1756,1091)"/>
 <path d="M256,502 c22,-96,79,-184,169,-184 c62,0,91,27,112,55 c23,31,37,63,75,63 c35,0,48,-20,48,-56 c0,-29,-8,-48,-53,-92 l0,-5 l88,-43 c73,78,138,146,216,211 c34,-49,52,-103,53,-147 c2,-84,2,-138,7,-171 l-2,-1 c-28,59,-66,97,-102,97 c-31,0,-55,-25,-65,-65 c-31,37,-72,70,-126,70 c-66,0,-122,-52,-122,-119 c0,-72,59,-135,138,-135 c58,0,85,35,85,66 c0,28,-20,54,-54,54 c-26,0,-49,-16,-49,-45 c0,-12,4,-23,14,-32 l-1,-2 c-40,0,-61,30,-61,63 c0,44,37,75,85,75 c47,0,96,-30,120,-81 l21,-10 l6,2 c-1,7,-1,12,-1,13 c0,52,17,73,38,73 c26,0,68,-29,107,-196 l31,-18 l11,0 c-5,97,-5,149,-6,273 l-3,337 l90,0 l0,8 l-60,60 l-100,0 l0,-12 c0,-78,0,-130,6,-181 l-4,-1 c-57,130,-140,199,-251,199 c-86,0,-151,-42,-191,-86 c-17,31,-41,59,-69,81 l-506,0 l0,-8 l60,-60 l171,0 c-43,-128,-71,-138,-92,-138 c-16,0,-33,11,-49,52 l-7,0 l-30,-23 c36,-73,83,-108,128,-108 c32,0,74,10,122,167 Z M704,379 l-3,2 c1,8,1,12,1,13 c0,63,-40,92,-95,94 l-2,3 c35,42,92,63,140,63 c41,0,86,-20,106,-40 c-61,-55,-108,-96,-147,-135 Z M401,552 c62,0,88,-36,88,-67 c0,-39,-29,-74,-85,-74 c-66,0,-112,60,-123,141 Z M401,552" fill="rgb(0,0,0)" transform="matrix(1,0,0,-1,641,1091)"/>
</svg>