<?xml version="1.0" encoding="UTF-8"?>
<svg height="1521" version="1.1" width="2238.75" xmlns="http://www.w3.org/2000/svg" xmlns:xlink="http://www.w3.org/1999/xlink">
 <path d="M0,0 l2238.75,0 l0,1521 l-2238.75,0 Z M0,0" fill="rgb(255,255,255)" transform="matrix(1,0,0,-1,0,1521)"/>
 <path d="M0,0 l2238.75,0" fill="none" stroke="rgb(229,229,229)" stroke-width="10" transform="matrix(1,0,0,-1,0,1091)"/>
 <path d="M0,5 l0,-25" fill="none" stroke="rgb(204,204,204)" stroke-width="10" transform="matrix(1,0,0,-1,641,1091)"/>
 <path d="M0,5 l0,-25" fill="none" stroke="rgb(204,204,204)" stroke-width="10" transform="matrix(1,0,0,-1,1606,1091)"/>
 <path d="M505,552 l470,0 l0,8 l-60,60 l-965,0 l0,-8 l60,-60 l171,0 c-42,-126,-71,-138,-90,-138 c-18,0,-34,9,-51,52 l-7,0 l-30,-23 c36,-72,81,-108,130,-108 c30,0,73,12,120,167 l3,0 c24,-86,75,-164,169,-164 l6,0 l32,-26 c-51,-33,-105,-69,-161,-111 l73,-93 c165,-16,273,-97,303,-174 l28,-17 l11,0 c-4,101,-4,165,-4,241 l0,257 c7,1,15,1,16,1 c70,0,159,-16,159,-76 c0,-16,-7,-28,-20,-35 c-15,18,-31,27,-52,27 c-40,0,-62,-30,-62,-60 c0,-33,25,-67,72,-67 c52,0,99,41,99,122 c0,99,-69,173,-217,173 c-18,0,-49,-1,-74,-6 l0,-124 c0,-156,1,-268,10,-320 l-3,-2 c-70,67,-148,104,-216,124 l-1,3 c42,31,94,66,143,96 c-26,29,-53,54,-82,79 c38,17,64,52,64,98 c0,40,-19,79,-44,104 Z M404,552 c50,0,74,-34,74,-63 c0,-33,-30,-63,-77,-63 c-67,0,-114,59,-124,126 Z M404,552" fill="rgb(0,0,0)" transform="matrix(1,0,0,-1,641,1091)"/>
</svg>