<?xml version="1.0" encoding="UTF-8"?>
<svg height="1521" version="1.1" width="2238.75" xmlns="http://www.w3.org/2000/svg" xmlns:xlink="http://www.w3.org/1999/xlink">
 <path d="M0,0 l2238.75,0 l0,1521 l-2238.75,0 Z M0,0" fill="rgb(255,255,255)" transform="matrix(1,0,0,-1,0,1521)"/>
 <path d="M0,0 l2238.75,0" fill="none" stroke="rgb(229,229,229)" stroke-width="10" transform="matrix(1,0,0,-1,0,1091)"/>
 <path d="M0,5 l0,-25" fill="none" stroke="rgb(204,204,204)" stroke-width="10" transform="matrix(1,0,0,-1,641,1091)"/>
 <path d="M0,5 l0,-25" fill="none" stroke="rgb(204,204,204)" stroke-width="10" transform="matrix(1,0,0,-1,1309,1091)"/>
 <path d="M268,504 c18,-71,57,-137,114,-173 c-63,-32,-135,-72,-202,-115 l75,-94 c136,-13,225,-77,263,-148 l28,-17 l11,0 c-4,82,-4,129,-4,183 l0,184 c35,21,55,60,55,108 c0,45,-19,91,-46,120 l116,0 l0,8 l-60,60 l-668,0 l0,-8 l60,-60 l182,0 c-54,-124,-79,-138,-103,-138 c-16,0,-33,11,-49,52 l-7,0 l-30,-23 c36,-73,85,-109,130,-109 c35,0,73,18,132,170 Z M452,552 c63,0,90,-43,90,-80 c0,-41,-34,-74,-91,-74 c-85,0,-145,71,-159,154 Z M311,192 l-1,3 c49,33,115,65,166,88 c0,-97,2,-178,11,-210 l-3,-2 c-45,56,-118,102,-173,121 Z M311,192" fill="rgb(0,0,0)" transform="matrix(1,0,0,-1,641,1091)"/>
</svg>