<?xml version="1.0" encoding="UTF-8"?>
<svg height="1521" version="1.1" width="2238.75" xmlns="http://www.w3.org/2000/svg" xmlns:xlink="http://www.w3.org/1999/xlink">
 <path d="M0,0 l2238.75,0 l0,1521 l-2238.75,0 Z M0,0" fill="rgb(255,255,255)" transform="matrix(1,0,0,-1,0,1521)"/>
 <path d="M0,0 l2238.75,0" fill="none" stroke="rgb(229,229,229)" stroke-width="10" transform="matrix(1,0,0,-1,0,1091)"/>
 <path d="M0,5 l0,-25" fill="none" stroke="rgb(204,204,204)" stroke-width="10" transform="matrix(1,0,0,-1,641,1091)"/>
 <path d="M0,5 l0,-25" fill="none" stroke="rgb(204,204,204)" stroke-width="10" transform="matrix(1,0,0,-1,1433,1091)"/>
 <path d="M256,502 c22,-96,79,-184,169,-184 c5,0,11,0,16,1 c26,-15,34,-39,34,-56 c0,-5,-1,-10,-2,-15 c-12,3,-24,5,-36,5 c-63,0,-101,-39,-101,-88 c0,-49,40,-88,95,-88 c40,0,82,20,99,77 c90,-24,134,-115,154,-179 l27,-17 l11,0 c-4,101,-5,164,-5,240 l0,354 l85,0 l0,8 l-60,60 l-792,0 l0,-8 l60,-60 l171,0 c-43,-128,-71,-138,-92,-138 c-16,0,-33,11,-49,52 l-7,0 l-30,-23 c36,-73,83,-108,128,-108 c32,0,74,10,122,167 Z M638,552 l0,-147 c0,-146,0,-231,8,-280 l-3,-2 c-27,37,-64,73,-104,98 c0,26,-9,73,-51,110 c42,19,67,60,67,114 c0,40,-17,81,-41,107 Z M401,552 c62,0,88,-36,88,-67 c0,-39,-29,-74,-85,-74 c-66,0,-112,60,-123,141 Z M401,552" fill="rgb(0,0,0)" transform="matrix(1,0,0,-1,641,1091)"/>
</svg>