<?xml version="1.0" encoding="UTF-8"?>
<svg height="1521" version="1.1" width="2238.75" xmlns="http://www.w3.org/2000/svg" xmlns:xlink="http://www.w3.org/1999/xlink">
 <path d="M0,0 l2238.75,0 l0,1521 l-2238.75,0 Z M0,0" fill="rgb(255,255,255)" transform="matrix(1,0,0,-1,0,1521)"/>
 <path d="M0,0 l2238.75,0" fill="none" stroke="rgb(229,229,229)" stroke-width="10" transform="matrix(1,0,0,-1,0,1091)"/>
 <path d="M0,5 l0,-25" fill="none" stroke="rgb(204,204,204)" stroke-width="10" transform="matrix(1,0,0,-1,641,1091)"/>
 <path d="M0,5 l0,-25" fill="none" stroke="rgb(204,204,204)" stroke-width="10" transform="matrix(1,0,0,-1,1270,1091)"/>
 <path d="M477,552 l0,-43 c0,-88,0,-123,7,-160 l-2,-1 c-32,64,-64,98,-106,98 c-32,0,-62,-21,-99,-67 l-3,2 c8,20,13,43,13,65 c0,42,-17,82,-62,103 l0,3 Z M639,552 l0,8 l-60,60 l-629,0 l0,-8 l88,-88 c137,-7,209,-48,209,-125 c0,-23,-7,-49,-19,-78 c-31,-34,-55,-60,-78,-60 c-16,0,-37,15,-53,57 l-8,0 l-32,-24 c35,-71,85,-115,134,-115 c48,0,70,40,124,102 c47,54,72,78,97,78 c30,0,66,-42,67,-134 c1,-84,3,-146,8,-179 l-2,-1 c-28,59,-66,97,-102,97 c-31,0,-55,-25,-65,-65 c-31,37,-72,70,-126,70 c-66,0,-122,-52,-122,-119 c0,-72,59,-135,138,-135 c58,0,85,35,85,66 c0,28,-20,54,-54,54 c-26,0,-49,-16,-49,-45 c0,-12,4,-23,14,-32 l-1,-2 c-40,0,-61,30,-61,63 c0,44,37,75,85,75 c47,0,96,-30,120,-81 l21,-10 l6,2 c-1,7,-1,12,-1,13 c0,52,17,73,38,73 c26,0,68,-29,107,-196 l31,-18 l11,0 c-5,97,-6,213,-6,305 l-5,392 Z M639,552" fill="rgb(0,0,0)" transform="matrix(1,0,0,-1,641,1091)"/>
</svg>