<?xml version="1.0" encoding="UTF-8"?>
<svg height="1521" version="1.1" width="2238.75" xmlns="http://www.w3.org/2000/svg" xmlns:xlink="http://www.w3.org/1999/xlink">
 <path d="M0,0 l2238.75,0 l0,1521 l-2238.75,0 Z M0,0" fill="rgb(255,255,255)" transform="matrix(1,0,0,-1,0,1521)"/>
 <path d="M0,0 l2238.75,0" fill="none" stroke="rgb(229,229,229)" stroke-width="10" transform="matrix(1,0,0,-1,0,1091)"/>
 <path d="M0,5 l0,-25" fill="none" stroke="rgb(204,204,204)" stroke-width="10" transform="matrix(1,0,0,-1,641,1091)"/>
 <path d="M0,5 l0,-25" fill="none" stroke="rgb(204,204,204)" stroke-width="10" transform="matrix(1,0,0,-1,1196,1091)"/>
 <path d="M425,-63 c-45,79,-116,108,-175,108 c-75,0,-118,-46,-118,-102 c0,-53,39,-94,95,-94 c55,0,82,37,82,75 c0,25,-12,48,-35,63 l1,2 c97,-1,153,-82,168,-145 l1,-3 l3,-16 l29,-18 l11,0 c-3,77,-5,129,-5,183 c35,-23,71,-49,109,-78 l7,0 l-14,49 c-48,49,-132,126,-297,209 l0,3 c109,29,188,80,188,175 c0,113,-109,154,-197,160 c-3,15,-6,30,-11,44 l298,0 l0,8 l-60,60 l-555,0 l0,-8 l60,-60 l189,0 c15,-13,25,-30,27,-45 c-73,-8,-157,-41,-157,-109 c0,-45,38,-71,88,-71 c63,0,111,41,121,106 c15,7,33,11,52,11 c43,0,83,-19,83,-63 c0,-79,-129,-137,-232,-137 c-30,0,-64,5,-138,33 l-5,-5 l65,-121 c110,-24,207,-60,308,-118 c1,-37,9,-69,17,-95 Z M447,-175 l-4,18 c0,0,1,-1,1,-2 Z M447,-175" fill="rgb(0,0,0)" transform="matrix(1,0,0,-1,641,1091)"/>
</svg>