<?xml version="1.0" encoding="UTF-8"?>
<svg height="1521" version="1.1" width="2238.75" xmlns="http://www.w3.org/2000/svg" xmlns:xlink="http://www.w3.org/1999/xlink">
 <path d="M0,0 l2238.75,0 l0,1521 l-2238.75,0 Z M0,0" fill="rgb(255,255,255)" transform="matrix(1,0,0,-1,0,1521)"/>
 <path d="M0,0 l2238.75,0" fill="none" stroke="rgb(229,229,229)" stroke-width="10" transform="matrix(1,0,0,-1,0,1091)"/>
 <path d="M0,5 l0,-25" fill="none" stroke="rgb(204,204,204)" stroke-width="10" transform="matrix(1,0,0,-1,641,1091)"/>
 <path d="M0,5 l0,-25" fill="none" stroke="rgb(204,204,204)" stroke-width="10" transform="matrix(1,0,0,-1,1198,1091)"/>
 <path d="M278,433 c15,7,33,11,52,11 c43,0,83,-19,83,-63 c0,-79,-129,-137,-232,-137 c-30,0,-64,5,-138,33 l-5,-5 l65,-121 c73,-16,140,-37,206,-66 c-46,-24,-98,-52,-151,-85 l62,-77 c100,-8,173,-47,193,-89 l29,-14 l10,0 c-3,65,-3,112,-3,187 l0,4 c45,-28,92,-61,142,-99 l7,0 l-14,49 c-48,49,-132,126,-297,209 l0,3 c109,29,188,80,188,175 c0,113,-109,154,-197,160 c-3,15,-6,30,-11,44 l300,0 l0,8 l-60,60 l-557,0 l0,-8 l60,-60 l189,0 c15,-13,25,-30,27,-45 c-73,-8,-157,-41,-157,-109 c0,-45,38,-71,88,-71 c63,0,111,41,121,106 Z M270,-18 l-1,3 c33,21,75,42,109,57 c0,-50,1,-107,9,-131 l-2,-2 c-29,35,-80,63,-115,73 Z M270,-18" fill="rgb(0,0,0)" transform="matrix(1,0,0,-1,641,1091)"/>
</svg>