<?xml version="1.0" encoding="UTF-8"?>
<svg height="1521" version="1.1" width="2238.75" xmlns="http://www.w3.org/2000/svg" xmlns:xlink="http://www.w3.org/1999/xlink">
 <path d="M0,0 l2238.75,0 l0,1521 l-2238.75,0 Z M0,0" fill="rgb(255,255,255)" transform="matrix(1,0,0,-1,0,1521)"/>
 <path d="M0,0 l2238.75,0" fill="none" stroke="rgb(229,229,229)" stroke-width="10" transform="matrix(1,0,0,-1,0,1091)"/>
 <path d="M0,5 l0,-25" fill="none" stroke="rgb(204,204,204)" stroke-width="10" transform="matrix(1,0,0,-1,641,1091)"/>
 <path d="M0,5 l0,-25" fill="none" stroke="rgb(204,204,204)" stroke-width="10" transform="matrix(1,0,0,-1,1458,1091)"/>
 <path d="M10,552 l23,0 c41,0,79,-10,98,-60 c-68,-4,-107,-46,-107,-92 c0,-45,39,-79,85,-79 c40,0,82,27,82,94 l0,7 c84,-1,121,-45,121,-92 c0,-11,-2,-22,-8,-32 c-1,0,-10,1,-19,1 c-57,0,-91,-41,-91,-83 c0,-47,43,-81,86,-81 c38,0,76,26,92,73 c86,-16,140,-117,161,-223 l29,-18 l12,0 c-4,101,-4,165,-4,241 l0,174 c52,8,93,21,107,27 c-1,-45,-2,-112,-2,-174 c0,-62,1,-125,3,-188 l68,-58 l6,3 c-2,73,-3,147,-3,215 c0,68,1,135,3,202 l-89,78 c-33,-10,-64,-18,-93,-24 l0,89 l257,0 l0,8 l-60,60 l-817,0 l0,-8 Z M146,552 l345,0 l0,-101 c-38,-4,-70,-5,-93,-5 c-70,0,-114,10,-162,26 c-21,6,-38,13,-59,17 c-8,24,-19,45,-31,63 Z M491,350 c0,-107,5,-160,10,-197 l-3,-1 c-33,57,-74,96,-115,120 c-4,51,-28,99,-63,136 l3,4 c49,-27,105,-37,160,-37 l8,0 Z M491,350" fill="rgb(0,0,0)" transform="matrix(1,0,0,-1,641,1091)"/>
</svg>