<?xml version="1.0" encoding="UTF-8"?>
<svg height="1521" version="1.1" width="2238.75" xmlns="http://www.w3.org/2000/svg" xmlns:xlink="http://www.w3.org/1999/xlink">
 <path d="M0,0 l2238.75,0 l0,1521 l-2238.75,0 Z M0,0" fill="rgb(255,255,255)" transform="matrix(1,0,0,-1,0,1521)"/>
 <path d="M0,0 l2238.75,0" fill="none" stroke="rgb(229,229,229)" stroke-width="10" transform="matrix(1,0,0,-1,0,1091)"/>
 <path d="M0,5 l0,-25" fill="none" stroke="rgb(204,204,204)" stroke-width="10" transform="matrix(1,0,0,-1,641,1091)"/>
 <path d="M0,5 l0,-25" fill="none" stroke="rgb(204,204,204)" stroke-width="10" transform="matrix(1,0,0,-1,1268,1091)"/>
 <path d="M350,433 c15,7,33,11,52,11 c43,0,83,-19,83,-63 c0,-79,-129,-137,-232,-137 c-30,0,-64,5,-138,33 l-5,-5 l65,-121 c116,-26,217,-64,323,-127 l2,-76 l-4,-2 c-53,54,-120,71,-174,71 c-28,0,-99,-4,-128,-4 c-78,0,-112,26,-112,83 c0,17,3,45,15,66 l-22,14 l-9,0 c-19,-29,-31,-69,-31,-104 c0,-72,47,-142,174,-142 c42,0,126,8,179,8 c67,0,113,-12,133,-78 l28,-17 l11,0 c-5,100,-7,129,-7,148 c35,-24,72,-49,110,-79 l7,0 l-14,49 c-48,49,-132,126,-297,209 l0,3 c109,29,188,80,188,175 c0,113,-109,154,-197,160 c-3,15,-6,30,-11,44 l298,0 l0,8 l-60,60 l-627,0 l0,-8 l60,-60 l261,0 c15,-13,25,-30,27,-45 c-73,-8,-157,-41,-157,-109 c0,-45,38,-71,88,-71 c63,0,111,41,121,106 Z M350,433" fill="rgb(0,0,0)" transform="matrix(1,0,0,-1,641,1091)"/>
</svg>