<?xml version="1.0" encoding="UTF-8"?>
<svg height="1521" version="1.1" width="2238.75" xmlns="http://www.w3.org/2000/svg" xmlns:xlink="http://www.w3.org/1999/xlink">
 <path d="M0,0 l2238.75,0 l0,1521 l-2238.75,0 Z M0,0" fill="rgb(255,255,255)" transform="matrix(1,0,0,-1,0,1521)"/>
 <path d="M0,0 l2238.75,0" fill="none" stroke="rgb(229,229,229)" stroke-width="10" transform="matrix(1,0,0,-1,0,1091)"/>
 <path d="M0,5 l0,-25" fill="none" stroke="rgb(204,204,204)" stroke-width="10" transform="matrix(1,0,0,-1,641,1091)"/>
 <path d="M0,5 l0,-25" fill="none" stroke="rgb(204,204,204)" stroke-width="10" transform="matrix(1,0,0,-1,1216,1091)"/>
 <path d="M298,433 c15,7,33,11,52,11 c43,0,83,-19,83,-63 c0,-79,-129,-137,-232,-137 c-30,0,-64,5,-138,33 l-5,-5 l65,-121 c117,-26,218,-62,324,-124 l5,-67 l-3,-1 c-33,62,-65,90,-100,90 c-31,0,-53,-16,-63,-51 c-31,37,-68,71,-122,71 c-66,0,-120,-49,-120,-114 c0,-67,58,-127,133,-127 c58,0,83,34,83,64 c0,26,-19,51,-50,51 c-29,0,-48,-21,-48,-43 c0,-10,4,-21,13,-29 l-1,-2 c-40,0,-60,31,-60,61 c0,39,36,67,82,67 c48,0,94,-32,118,-83 l21,-10 l6,2 c-1,7,-1,12,-1,13 c0,46,19,61,40,61 c20,0,53,-21,84,-140 l31,-18 l11,0 c-4,58,-5,116,-5,173 c35,-23,72,-48,110,-78 l7,0 l-14,49 c-48,49,-132,121,-297,204 l0,3 c109,29,188,80,188,175 c0,113,-109,154,-197,160 c-3,15,-6,30,-11,44 l298,0 l0,8 l-60,60 l-575,0 l0,-8 l60,-60 l209,0 c15,-13,25,-30,27,-45 c-73,-8,-157,-41,-157,-109 c0,-45,38,-71,88,-71 c63,0,111,41,121,106 Z M298,433" fill="rgb(0,0,0)" transform="matrix(1,0,0,-1,641,1091)"/>
</svg>