<?xml version="1.0" encoding="UTF-8"?>
<svg height="1521" version="1.1" width="2238.75" xmlns="http://www.w3.org/2000/svg" xmlns:xlink="http://www.w3.org/1999/xlink">
 <path d="M0,0 l2238.75,0 l0,1521 l-2238.75,0 Z M0,0" fill="rgb(255,255,255)" transform="matrix(1,0,0,-1,0,1521)"/>
 <path d="M0,0 l2238.75,0" fill="none" stroke="rgb(229,229,229)" stroke-width="10" transform="matrix(1,0,0,-1,0,1091)"/>
 <path d="M0,5 l0,-25" fill="none" stroke="rgb(204,204,204)" stroke-width="10" transform="matrix(1,0,0,-1,641,1091)"/>
 <path d="M0,5 l0,-25" fill="none" stroke="rgb(204,204,204)" stroke-width="10" transform="matrix(1,0,0,-1,1415,1091)"/>
 <path d="M275,425 c14,7,32,11,50,11 c41,0,80,-23,80,-70 c0,-86,-124,-151,-226,-151 c-29,0,-64,5,-137,33 l-5,-5 l66,-123 c173,-40,311,-109,486,-249 l7,0 l-12,44 l-27,30 c80,28,132,97,132,197 c0,83,-37,202,-37,285 c0,66,23,105,76,125 l56,0 l0,8 l-60,60 l-774,0 l0,-8 l60,-60 l188,0 c16,-15,26,-35,28,-53 c-73,-8,-157,-42,-157,-112 c0,-45,38,-71,87,-71 c62,0,109,42,119,109 Z M286,139 l0,3 c104,30,180,89,180,188 c0,117,-105,164,-188,170 c-3,18,-6,36,-12,52 l390,0 l1,-4 c-61,-50,-84,-104,-84,-176 c0,-95,37,-203,37,-271 c0,-62,-25,-106,-83,-127 c-50,44,-124,100,-241,165 Z M286,139" fill="rgb(0,0,0)" transform="matrix(1,0,0,-1,641,1091)"/>
</svg>