<?xml version="1.0" encoding="UTF-8"?>
<svg height="1521" version="1.1" width="2238.75" xmlns="http://www.w3.org/2000/svg" xmlns:xlink="http://www.w3.org/1999/xlink">
 <path d="M0,0 l2238.75,0 l0,1521 l-2238.75,0 Z M0,0" fill="rgb(255,255,255)" transform="matrix(1,0,0,-1,0,1521)"/>
 <path d="M0,0 l2238.75,0" fill="none" stroke="rgb(229,229,229)" stroke-width="10" transform="matrix(1,0,0,-1,0,1091)"/>
 <path d="M0,5 l0,-25" fill="none" stroke="rgb(204,204,204)" stroke-width="10" transform="matrix(1,0,0,-1,641,1091)"/>
 <path d="M0,5 l0,-25" fill="none" stroke="rgb(204,204,204)" stroke-width="10" transform="matrix(1,0,0,-1,926,1091)"/>
 <path d="M-26,-52 l27,-27 c115,9,200,91,200,215 c0,83,-38,208,-38,291 c0,66,23,105,76,125 l56,0 l0,8 l-60,60 l-285,0 l0,-8 l60,-60 l157,0 l1,-4 c-61,-50,-84,-104,-84,-176 c0,-95,38,-208,38,-276 c0,-76,-49,-135,-148,-140 Z M-26,-52" fill="rgb(0,0,0)" transform="matrix(1,0,0,-1,641,1091)"/>
</svg>