<?xml version="1.0" encoding="UTF-8"?>
<svg height="1521" version="1.1" width="2238.75" xmlns="http://www.w3.org/2000/svg" xmlns:xlink="http://www.w3.org/1999/xlink">
 <path d="M0,0 l2238.75,0 l0,1521 l-2238.75,0 Z M0,0" fill="rgb(255,255,255)" transform="matrix(1,0,0,-1,0,1521)"/>
 <path d="M0,0 l2238.75,0" fill="none" stroke="rgb(229,229,229)" stroke-width="10" transform="matrix(1,0,0,-1,0,1091)"/>
 <path d="M0,5 l0,-25" fill="none" stroke="rgb(204,204,204)" stroke-width="10" transform="matrix(1,0,0,-1,641,1091)"/>
 <path d="M0,5 l0,-25" fill="none" stroke="rgb(204,204,204)" stroke-width="10" transform="matrix(1,0,0,-1,926,1091)"/>
 <path d="M-26,-52 l27,-27 c115,9,200,90,200,216 c0,85,-38,198,-38,298 c0,90,36,127,80,167 l0,18 l-293,0 l0,-8 l60,-60 l140,0 l1,-4 c-44,-53,-67,-95,-67,-175 c0,-97,38,-209,38,-277 c0,-76,-49,-135,-148,-140 Z M-26,-52" fill="rgb(0,0,0)" transform="matrix(1,0,0,-1,641,1091)"/>
</svg>