<?xml version="1.0" encoding="UTF-8"?>
<svg height="1521" version="1.1" width="2238.75" xmlns="http://www.w3.org/2000/svg" xmlns:xlink="http://www.w3.org/1999/xlink">
 <path d="M0,0 l2238.75,0 l0,1521 l-2238.75,0 Z M0,0" fill="rgb(255,255,255)" transform="matrix(1,0,0,-1,0,1521)"/>
 <path d="M0,0 l2238.75,0" fill="none" stroke="rgb(229,229,229)" stroke-width="10" transform="matrix(1,0,0,-1,0,1091)"/>
 <path d="M0,-20 l0,40" fill="none" stroke="rgb(255,76,25)" stroke-width="10" transform="matrix(1,0,0,-1,641,1091)"/>
 <path d="M-159,82 c-70,-32,-154,-73,-240,-125 l69,-86 c114,-11,187,-62,215,-115 l32,-15 l11,0 c-3,65,-3,107,-3,182 l0,102 Z M-279,-68 l-1,3 c41,26,87,45,130,64 c0,-80,1,-135,9,-164 l-2,-2 c-38,48,-96,85,-136,99 Z M-279,-68" fill="rgb(0,0,0)" transform="matrix(1,0,0,-1,641,1091)"/>
</svg>