<?xml version="1.0" encoding="UTF-8"?>
<svg height="1521" version="1.1" width="2238.75" xmlns="http://www.w3.org/2000/svg" xmlns:xlink="http://www.w3.org/1999/xlink">
 <path d="M0,0 l2238.75,0 l0,1521 l-2238.75,0 Z M0,0" fill="rgb(255,255,255)" transform="matrix(1,0,0,-1,0,1521)"/>
 <path d="M0,0 l2238.75,0" fill="none" stroke="rgb(229,229,229)" stroke-width="10" transform="matrix(1,0,0,-1,0,1091)"/>
 <path d="M0,5 l0,-25" fill="none" stroke="rgb(204,204,204)" stroke-width="10" transform="matrix(1,0,0,-1,641,1091)"/>
 <path d="M0,5 l0,-25" fill="none" stroke="rgb(204,204,204)" stroke-width="10" transform="matrix(1,0,0,-1,1163,1091)"/>
 <path d="M358,511 c-3,-41,-7,-91,-7,-240 l0,-151 c0,-100,42,-130,82,-130 c34,0,64,22,64,57 c0,31,-25,53,-50,53 c-9,0,-18,-4,-25,-7 l-3,2 c3,41,7,91,7,240 l0,151 c0,100,-42,130,-82,130 c-35,0,-64,-22,-64,-57 c0,-32,25,-53,51,-53 c8,0,17,3,24,7 Z M358,511" fill="rgb(0,0,0)" transform="matrix(1,0,0,-1,641,1091)"/>
</svg>