<?xml version="1.0" encoding="UTF-8"?>
<svg height="1521" version="1.1" width="2238.75" xmlns="http://www.w3.org/2000/svg" xmlns:xlink="http://www.w3.org/1999/xlink">
 <path d="M0,0 l2238.75,0 l0,1521 l-2238.75,0 Z M0,0" fill="rgb(255,255,255)" transform="matrix(1,0,0,-1,0,1521)"/>
 <path d="M0,0 l2238.75,0" fill="none" stroke="rgb(229,229,229)" stroke-width="10" transform="matrix(1,0,0,-1,0,1091)"/>
 <path d="M0,5 l0,-25" fill="none" stroke="rgb(204,204,204)" stroke-width="10" transform="matrix(1,0,0,-1,641,1091)"/>
 <path d="M0,5 l0,-25" fill="none" stroke="rgb(204,204,204)" stroke-width="10" transform="matrix(1,0,0,-1,1223,1091)"/>
 <path d="M259,128 c-57,0,-91,43,-91,106 c0,100,89,188,171,188 c62,0,95,-48,95,-107 c0,-99,-93,-187,-175,-187 Z M312,73 c119,0,205,78,205,190 c0,115,-92,217,-230,217 c-132,0,-204,-96,-204,-196 c0,-116,96,-211,229,-211 Z M312,73" fill="rgb(0,0,0)" transform="matrix(1,0,0,-1,641,1091)"/>
</svg>