<?xml version="1.0" encoding="UTF-8"?>
<svg height="1521" version="1.1" width="2238.75" xmlns="http://www.w3.org/2000/svg" xmlns:xlink="http://www.w3.org/1999/xlink">
 <path d="M0,0 l2238.75,0 l0,1521 l-2238.75,0 Z M0,0" fill="rgb(255,255,255)" transform="matrix(1,0,0,-1,0,1521)"/>
 <path d="M0,0 l2238.75,0" fill="none" stroke="rgb(229,229,229)" stroke-width="10" transform="matrix(1,0,0,-1,0,1091)"/>
 <path d="M0,5 l0,-25" fill="none" stroke="rgb(204,204,204)" stroke-width="10" transform="matrix(1,0,0,-1,641,1091)"/>
 <path d="M0,5 l0,-25" fill="none" stroke="rgb(204,204,204)" stroke-width="10" transform="matrix(1,0,0,-1,1132,1091)"/>
 <path d="M169,498 c13,18,19,36,19,52 c0,33,-25,58,-61,58 c-38,0,-67,-27,-67,-72 c0,-83,101,-138,168,-173 c94,-49,157,-90,157,-156 c0,-31,-14,-68,-72,-96 c-27,39,-59,61,-101,61 c-56,0,-93,-38,-93,-83 c0,-55,52,-99,126,-99 c98,0,191,75,191,196 c0,182,-207,229,-267,312 Z M169,498" fill="rgb(0,0,0)" transform="matrix(1,0,0,-1,641,1091)"/>
</svg>