<?xml version="1.0" encoding="UTF-8"?>
<svg height="1521" version="1.1" width="2238.75" xmlns="http://www.w3.org/2000/svg" xmlns:xlink="http://www.w3.org/1999/xlink">
 <path d="M0,0 l2238.75,0 l0,1521 l-2238.75,0 Z M0,0" fill="rgb(255,255,255)" transform="matrix(1,0,0,-1,0,1521)"/>
 <path d="M0,0 l2238.75,0" fill="none" stroke="rgb(229,229,229)" stroke-width="10" transform="matrix(1,0,0,-1,0,1091)"/>
 <path d="M0,5 l0,-25" fill="none" stroke="rgb(204,204,204)" stroke-width="10" transform="matrix(1,0,0,-1,641,1091)"/>
 <path d="M0,5 l0,-25" fill="none" stroke="rgb(204,204,204)" stroke-width="10" transform="matrix(1,0,0,-1,1185,1091)"/>
 <path d="M67,160 c0,-91,89,-170,225,-170 c134,0,209,77,209,157 c0,76,-61,120,-138,156 c63,34,117,76,117,144 c0,89,-90,161,-207,161 c-115,0,-188,-70,-188,-151 c0,-51,28,-92,116,-137 c-72,-38,-134,-85,-134,-160 Z M404,174 c0,-66,-75,-132,-156,-132 c-51,0,-101,26,-101,83 c0,75,80,111,169,154 c63,-28,88,-66,88,-105 Z M175,438 c0,58,59,117,134,117 c54,0,96,-28,96,-75 c0,-63,-74,-96,-159,-138 c-50,24,-71,59,-71,96 Z M175,438" fill="rgb(0,0,0)" transform="matrix(1,0,0,-1,641,1091)"/>
</svg>