<?xml version="1.0" encoding="UTF-8"?>
<svg height="1521" version="1.1" width="2238.75" xmlns="http://www.w3.org/2000/svg" xmlns:xlink="http://www.w3.org/1999/xlink">
 <path d="M0,0 l2238.75,0 l0,1521 l-2238.75,0 Z M0,0" fill="rgb(255,255,255)" transform="matrix(1,0,0,-1,0,1521)"/>
 <path d="M0,0 l2238.75,0" fill="none" stroke="rgb(229,229,229)" stroke-width="10" transform="matrix(1,0,0,-1,0,1091)"/>
 <path d="M0,5 l0,-25" fill="none" stroke="rgb(204,204,204)" stroke-width="10" transform="matrix(1,0,0,-1,641,1091)"/>
 <path d="M0,5 l0,-25" fill="none" stroke="rgb(204,204,204)" stroke-width="10" transform="matrix(1,0,0,-1,1246,1091)"/>
 <path d="M537,116 c-90,4,-144,30,-144,93 c0,91,111,155,146,176 c5,3,20,13,20,33 c0,21,-17,44,-45,44 c-19,0,-36,-10,-63,-10 c-47,0,-91,26,-91,65 c0,24,17,32,17,52 c0,23,-23,39,-44,39 c-58,0,-247,-140,-247,-343 c0,-173,138,-275,270,-275 c92,0,147,51,184,120 Z M432,99 c-33,-36,-75,-52,-118,-52 c-77,0,-153,53,-153,179 c0,102,49,199,152,278 l3,-1 c11,-60,53,-86,110,-86 c1,0,4,0,11,1 l1,-2 c-82,-52,-123,-122,-123,-185 c0,-63,39,-115,117,-132 Z M432,99" fill="rgb(0,0,0)" transform="matrix(1,0,0,-1,641,1091)"/>
</svg>