<?xml version="1.0" encoding="UTF-8"?>
<svg height="1521" version="1.1" width="2238.75" xmlns="http://www.w3.org/2000/svg" xmlns:xlink="http://www.w3.org/1999/xlink">
 <path d="M0,0 l2238.75,0 l0,1521 l-2238.75,0 Z M0,0" fill="rgb(255,255,255)" transform="matrix(1,0,0,-1,0,1521)"/>
 <path d="M0,0 l2238.75,0" fill="none" stroke="rgb(229,229,229)" stroke-width="10" transform="matrix(1,0,0,-1,0,1091)"/>
 <path d="M0,5 l0,-25" fill="none" stroke="rgb(204,204,204)" stroke-width="10" transform="matrix(1,0,0,-1,641,1091)"/>
 <path d="M0,5 l0,-25" fill="none" stroke="rgb(204,204,204)" stroke-width="10" transform="matrix(1,0,0,-1,1326,1091)"/>
 <path d="M272,335 c0,-66,78,-134,117,-134 c37,0,99,46,151,116 c21,-18,31,-47,31,-75 c0,-73,-68,-159,-185,-159 c-135,0,-236,114,-291,380 l-30,9 l-10,0 c54,-370,194,-482,345,-482 c138,0,220,94,220,225 c0,85,-34,156,-106,201 l-5,-1 c-46,-72,-112,-130,-144,-130 c-12,0,-16,9,-16,27 l0,176 c0,90,-43,120,-83,120 c-34,0,-64,-22,-64,-56 c0,-32,25,-54,51,-54 c9,0,18,3,20,4 l3,-2 c-4,-36,-4,-68,-4,-165 Z M272,335" fill="rgb(0,0,0)" transform="matrix(1,0,0,-1,641,1091)"/>
</svg>