<?xml version="1.0" encoding="UTF-8"?>
<svg height="1521" version="1.1" width="2238.75" xmlns="http://www.w3.org/2000/svg" xmlns:xlink="http://www.w3.org/1999/xlink">
 <path d="M0,0 l2238.75,0 l0,1521 l-2238.75,0 Z M0,0" fill="rgb(255,255,255)" transform="matrix(1,0,0,-1,0,1521)"/>
 <path d="M0,0 l2238.75,0" fill="none" stroke="rgb(229,229,229)" stroke-width="10" transform="matrix(1,0,0,-1,0,1091)"/>
 <path d="M0,5 l0,-25" fill="none" stroke="rgb(204,204,204)" stroke-width="10" transform="matrix(1,0,0,-1,641,1091)"/>
 <path d="M0,5 l0,-25" fill="none" stroke="rgb(204,204,204)" stroke-width="10" transform="matrix(1,0,0,-1,1241,1091)"/>
 <path d="M566,416 c-6,-32,-12,-49,-53,-49 c-13,0,-37,2,-51,2 c-44,0,-63,-18,-74,-65 l-2,0 c-25,42,-67,63,-109,63 c-21,0,-52,-5,-87,-24 l-3,1 l0,144 c0,90,-43,120,-83,120 c-34,0,-64,-22,-64,-56 c0,-32,25,-54,51,-54 c9,0,18,3,20,4 l3,-2 c-4,-36,-4,-68,-4,-165 l0,-196 c0,-62,73,-149,147,-149 c88,0,213,129,213,219 c0,35,-19,55,-65,73 c5,9,12,13,33,13 c21,0,47,-4,71,-4 c62,0,80,26,86,109 l-25,16 Z M300,293 c44,0,86,-17,86,-64 c0,-79,-114,-166,-163,-166 c-23,0,-36,19,-36,48 l0,153 c27,13,71,29,113,29 Z M300,293" fill="rgb(0,0,0)" transform="matrix(1,0,0,-1,641,1091)"/>
</svg>