<?xml version="1.0" encoding="UTF-8"?>
<svg height="1521" version="1.1" width="2238.75" xmlns="http://www.w3.org/2000/svg" xmlns:xlink="http://www.w3.org/1999/xlink">
 <path d="M0,0 l2238.75,0 l0,1521 l-2238.75,0 Z M0,0" fill="rgb(255,255,255)" transform="matrix(1,0,0,-1,0,1521)"/>
 <path d="M0,0 l2238.75,0" fill="none" stroke="rgb(229,229,229)" stroke-width="10" transform="matrix(1,0,0,-1,0,1091)"/>
 <path d="M0,5 l0,-25" fill="none" stroke="rgb(204,204,204)" stroke-width="10" transform="matrix(1,0,0,-1,641,1091)"/>
 <path d="M0,5 l0,-25" fill="none" stroke="rgb(204,204,204)" stroke-width="10" transform="matrix(1,0,0,-1,1271,1091)"/>
 <path d="M370,-5 l5,-5 c124,48,202,108,202,217 c0,208,-275,236,-348,312 c7,11,10,22,10,33 c0,30,-24,56,-60,56 c-36,0,-67,-25,-67,-65 c0,-81,116,-120,213,-154 c140,-49,200,-86,200,-160 c0,-48,-27,-88,-82,-114 l-3,2 c1,10,2,15,2,27 c0,111,-92,173,-183,173 c-91,0,-181,-61,-181,-170 c0,-92,65,-157,148,-157 c54,0,104,29,104,85 c0,49,-36,74,-71,74 c-33,0,-65,-22,-65,-63 c0,-19,6,-34,20,-47 l-1,-3 c-43,7,-64,50,-64,89 c0,70,64,113,127,113 c61,0,120,-40,120,-125 c0,-31,-8,-73,-26,-118 Z M370,-5" fill="rgb(0,0,0)" transform="matrix(1,0,0,-1,641,1091)"/>
</svg>