<?xml version="1.0" encoding="UTF-8"?>
<svg height="1521" version="1.1" width="2238.75" xmlns="http://www.w3.org/2000/svg" xmlns:xlink="http://www.w3.org/1999/xlink">
 <path d="M0,0 l2238.75,0 l0,1521 l-2238.75,0 Z M0,0" fill="rgb(255,255,255)" transform="matrix(1,0,0,-1,0,1521)"/>
 <path d="M0,0 l2238.75,0" fill="none" stroke="rgb(229,229,229)" stroke-width="10" transform="matrix(1,0,0,-1,0,1091)"/>
 <path d="M0,5 l0,-25" fill="none" stroke="rgb(204,204,204)" stroke-width="10" transform="matrix(1,0,0,-1,641,1091)"/>
 <path d="M0,5 l0,-25" fill="none" stroke="rgb(204,204,204)" stroke-width="10" transform="matrix(1,0,0,-1,1302,1091)"/>
 <path d="M579,550 c-61,-211,-214,-481,-380,-481 c-41,0,-59,17,-59,34 c0,25,38,36,81,52 c64,24,127,53,127,137 c0,78,-63,142,-155,142 c-73,0,-118,-40,-118,-96 c0,-50,38,-74,74,-74 c34,0,67,21,67,62 c0,14,-4,30,-13,47 c4,1,13,2,22,2 c44,0,72,-27,72,-60 c0,-48,-53,-67,-107,-87 c-56,-21,-114,-43,-114,-99 c0,-65,80,-129,167,-129 c204,0,328,339,368,530 l-26,20 Z M579,550" fill="rgb(0,0,0)" transform="matrix(1,0,0,-1,641,1091)"/>
</svg>