<?xml version="1.0" encoding="UTF-8"?>
<svg height="1521" version="1.1" width="2238.75" xmlns="http://www.w3.org/2000/svg" xmlns:xlink="http://www.w3.org/1999/xlink">
 <path d="M0,0 l2238.75,0 l0,1521 l-2238.75,0 Z M0,0" fill="rgb(255,255,255)" transform="matrix(1,0,0,-1,0,1521)"/>
 <path d="M0,0 l2238.75,0" fill="none" stroke="rgb(229,229,229)" stroke-width="10" transform="matrix(1,0,0,-1,0,1091)"/>
 <path d="M0,5 l0,-25" fill="none" stroke="rgb(204,204,204)" stroke-width="10" transform="matrix(1,0,0,-1,641,1091)"/>
 <path d="M0,5 l0,-25" fill="none" stroke="rgb(204,204,204)" stroke-width="10" transform="matrix(1,0,0,-1,1236,1091)"/>
 <path d="M110,233 l69,-70 l6,0 c81,124,177,238,222,238 c17,0,21,-11,21,-35 l0,-256 c0,-90,43,-120,83,-120 c34,0,64,22,64,56 c0,32,-25,54,-51,54 c-9,0,-18,-3,-20,-4 l-3,2 c3,41,4,79,4,138 l0,110 c0,72,-78,119,-131,119 c-57,0,-127,-83,-185,-154 l-2,1 l0,176 c0,90,-43,120,-83,120 c-34,0,-64,-22,-64,-56 c0,-32,25,-54,51,-54 c9,0,18,3,20,4 l3,-2 c-3,-29,-4,-105,-4,-218 Z M110,233" fill="rgb(0,0,0)" transform="matrix(1,0,0,-1,641,1091)"/>
</svg>