<?xml version="1.0" encoding="UTF-8"?>
<svg height="1521" version="1.1" width="2238.75" xmlns="http://www.w3.org/2000/svg" xmlns:xlink="http://www.w3.org/1999/xlink">
 <path d="M0,0 l2238.75,0 l0,1521 l-2238.75,0 Z M0,0" fill="rgb(255,255,255)" transform="matrix(1,0,0,-1,0,1521)"/>
 <path d="M0,0 l2238.75,0" fill="none" stroke="rgb(229,229,229)" stroke-width="10" transform="matrix(1,0,0,-1,0,1091)"/>
 <path d="M0,5 l0,-25" fill="none" stroke="rgb(204,204,204)" stroke-width="10" transform="matrix(1,0,0,-1,641,1091)"/>
 <path d="M0,5 l0,-25" fill="none" stroke="rgb(204,204,204)" stroke-width="10" transform="matrix(1,0,0,-1,1122,1091)"/>
 <path d="M216,187 c-43,0,-70,35,-70,80 c0,77,74,147,136,147 c45,0,71,-38,71,-82 c0,-74,-76,-145,-137,-145 Z M259,133 c99,0,170,65,170,157 c0,96,-76,180,-190,180 c-109,0,-169,-79,-169,-162 c0,-96,79,-175,189,-175 Z M259,133" fill="rgb(0,0,0)" transform="matrix(1,0,0,-1,641,1091)"/>
</svg>