<?xml version="1.0" encoding="UTF-8"?>
<svg height="1521" version="1.1" width="2238.75" xmlns="http://www.w3.org/2000/svg" xmlns:xlink="http://www.w3.org/1999/xlink">
 <path d="M0,0 l2238.75,0 l0,1521 l-2238.75,0 Z M0,0" fill="rgb(255,255,255)" transform="matrix(1,0,0,-1,0,1521)"/>
 <path d="M0,0 l2238.75,0" fill="none" stroke="rgb(229,229,229)" stroke-width="10" transform="matrix(1,0,0,-1,0,1091)"/>
 <path d="M0,5 l0,-25" fill="none" stroke="rgb(204,204,204)" stroke-width="10" transform="matrix(1,0,0,-1,641,1091)"/>
 <path d="M0,5 l0,-25" fill="none" stroke="rgb(204,204,204)" stroke-width="10" transform="matrix(1,0,0,-1,1137,1091)"/>
 <path d="M215,412 c-38,0,-55,28,-55,68 c0,74,60,137,119,137 c41,0,58,-29,58,-70 c0,-80,-70,-135,-122,-135 Z M261,363 c83,0,150,59,150,142 c0,92,-81,165,-176,165 c-96,0,-152,-74,-152,-149 c0,-98,95,-158,178,-158 Z M261,363" fill="rgb(0,0,0)" transform="matrix(1,0,0,-1,641,1091)"/>
</svg>