<?xml version="1.0" encoding="UTF-8"?>
<svg height="1521" version="1.1" width="2238.75" xmlns="http://www.w3.org/2000/svg" xmlns:xlink="http://www.w3.org/1999/xlink">
 <path d="M0,0 l2238.75,0 l0,1521 l-2238.75,0 Z M0,0" fill="rgb(255,255,255)" transform="matrix(1,0,0,-1,0,1521)"/>
 <path d="M0,0 l2238.75,0" fill="none" stroke="rgb(229,229,229)" stroke-width="10" transform="matrix(1,0,0,-1,0,1091)"/>
 <path d="M0,5 l0,-25" fill="none" stroke="rgb(204,204,204)" stroke-width="10" transform="matrix(1,0,0,-1,641,1091)"/>
 <path d="M0,5 l0,-25" fill="none" stroke="rgb(204,204,204)" stroke-width="10" transform="matrix(1,0,0,-1,1053,1091)"/>
 <path d="M150,670 c9,14,13,29,13,41 c0,28,-21,50,-55,50 c-31,0,-58,-21,-58,-57 c0,-61,73,-102,126,-130 c65,-34,117,-60,117,-107 c0,-18,-8,-40,-47,-56 c-22,34,-49,51,-80,51 c-44,0,-74,-31,-74,-69 c0,-45,40,-83,104,-83 c67,0,141,42,141,138 c0,130,-132,165,-187,222 Z M150,670" fill="rgb(0,0,0)" transform="matrix(1,0,0,-1,641,1091)"/>
</svg>