<?xml version="1.0" encoding="UTF-8"?>
<svg height="1521" version="1.1" width="2238.75" xmlns="http://www.w3.org/2000/svg" xmlns:xlink="http://www.w3.org/1999/xlink">
 <path d="M0,0 l2238.75,0 l0,1521 l-2238.75,0 Z M0,0" fill="rgb(255,255,255)" transform="matrix(1,0,0,-1,0,1521)"/>
 <path d="M0,0 l2238.75,0" fill="none" stroke="rgb(229,229,229)" stroke-width="10" transform="matrix(1,0,0,-1,0,1091)"/>
 <path d="M0,5 l0,-25" fill="none" stroke="rgb(204,204,204)" stroke-width="10" transform="matrix(1,0,0,-1,641,1091)"/>
 <path d="M0,5 l0,-25" fill="none" stroke="rgb(204,204,204)" stroke-width="10" transform="matrix(1,0,0,-1,1196,1091)"/>
 <path d="M287,553 l0,118 c0,73,-38,90,-69,90 c-37,0,-57,-26,-57,-50 c0,-26,20,-44,48,-44 c1,0,4,0,12,2 l2,-2 c-3,-26,-3,-36,-3,-94 c0,-55,65,-114,94,-114 c23,0,71,33,107,79 c13,-11,16,-27,16,-45 c0,-53,-50,-99,-133,-99 c-98,0,-164,64,-204,254 l-26,8 l-9,0 c38,-263,144,-343,251,-343 c101,0,163,69,163,162 c0,75,-35,121,-81,149 l-4,-1 c-25,-42,-81,-90,-97,-90 c-7,0,-10,7,-10,20 Z M287,553" fill="rgb(0,0,0)" transform="matrix(1,0,0,-1,641,1091)"/>
</svg>