<?xml version="1.0" encoding="UTF-8"?>
<svg height="1521" version="1.1" width="2238.75" xmlns="http://www.w3.org/2000/svg" xmlns:xlink="http://www.w3.org/1999/xlink">
 <path d="M0,0 l2238.75,0 l0,1521 l-2238.75,0 Z M0,0" fill="rgb(255,255,255)" transform="matrix(1,0,0,-1,0,1521)"/>
 <path d="M0,0 l2238.75,0" fill="none" stroke="rgb(229,229,229)" stroke-width="10" transform="matrix(1,0,0,-1,0,1091)"/>
 <path d="M0,5 l0,-25" fill="none" stroke="rgb(204,204,204)" stroke-width="10" transform="matrix(1,0,0,-1,641,1091)"/>
 <path d="M0,5 l0,-25" fill="none" stroke="rgb(204,204,204)" stroke-width="10" transform="matrix(1,0,0,-1,1159,1091)"/>
 <path d="M427,630 c-5,-22,-8,-37,-38,-37 c-9,0,-25,2,-35,2 c-32,0,-48,-19,-56,-53 l-2,0 c-18,30,-45,49,-76,49 c-15,0,-37,-3,-62,-15 l-2,1 l0,94 c0,73,-38,90,-69,90 c-37,0,-57,-26,-57,-50 c0,-26,20,-44,48,-44 c1,0,4,0,12,2 l2,-2 c-3,-26,-3,-48,-3,-117 l0,-112 c0,-40,38,-125,125,-125 c79,0,151,91,151,155 c0,25,-16,41,-49,54 l-1,0 c3,6,6,9,21,9 c15,0,36,-3,53,-3 c45,0,60,19,64,88 l-22,14 Z M237,527 c32,0,55,-11,55,-41 c0,-56,-73,-117,-108,-117 c-14,0,-28,11,-28,32 l0,108 c17,7,51,18,81,18 Z M237,527" fill="rgb(0,0,0)" transform="matrix(1,0,0,-1,641,1091)"/>
</svg>