<?xml version="1.0" encoding="UTF-8"?>
<svg height="1521" version="1.1" width="2238.75" xmlns="http://www.w3.org/2000/svg" xmlns:xlink="http://www.w3.org/1999/xlink">
 <path d="M0,0 l2238.75,0 l0,1521 l-2238.75,0 Z M0,0" fill="rgb(255,255,255)" transform="matrix(1,0,0,-1,0,1521)"/>
 <path d="M0,0 l2238.75,0" fill="none" stroke="rgb(229,229,229)" stroke-width="10" transform="matrix(1,0,0,-1,0,1091)"/>
 <path d="M0,5 l0,-25" fill="none" stroke="rgb(204,204,204)" stroke-width="10" transform="matrix(1,0,0,-1,641,1091)"/>
 <path d="M0,5 l0,-25" fill="none" stroke="rgb(204,204,204)" stroke-width="10" transform="matrix(1,0,0,-1,1130,1091)"/>
 <path d="M270,314 l4,-3 c109,36,150,86,150,158 c0,156,-184,163,-243,226 c5,8,8,15,8,23 c0,21,-17,43,-51,43 c-34,0,-55,-23,-55,-53 c0,-63,100,-98,157,-118 c88,-30,139,-50,139,-107 c0,-33,-18,-51,-51,-71 l-2,1 c1,6,1,12,1,18 c0,83,-75,126,-139,126 c-71,0,-130,-48,-130,-121 c0,-67,46,-125,115,-125 c39,0,77,19,77,65 c0,39,-29,58,-56,58 c-28,0,-48,-20,-48,-44 c0,-11,4,-28,17,-39 l-1,-2 c-29,6,-42,32,-42,60 c0,48,39,79,83,79 c41,0,85,-26,85,-90 c0,-19,-3,-52,-18,-84 Z M270,314" fill="rgb(0,0,0)" transform="matrix(1,0,0,-1,641,1091)"/>
</svg>